<?xml version="1.0" encoding="utf-8"?>
<!-- Generator: Adobe Illustrator 16.0.0, SVG Export Plug-In . SVG Version: 6.00 Build 0)  -->
<!DOCTYPE svg PUBLIC "-//W3C//DTD SVG 1.1//EN" "http://www.w3.org/Graphics/SVG/1.1/DTD/svg11.dtd">
<svg version="1.1" id="Layer_1" xmlns="http://www.w3.org/2000/svg"  x="0px" y="0px"
	 width="120px" height="120px" viewBox="0 0 120 120" enable-background="new 0 0 120 120" xml:space="preserve">
<g id="abacus">
	<g>
		<path d="M106.346,94.066c-0.619-2.746,0.135-6.86-0.531-9.562c0.32-0.054,0.162-0.293,0-0.529V65.118
			c-0.479-12.887-0.487-26.247-1.856-38.244v-1.063c-0.021-0.375,0.771-0.302,0.267-0.531c0.18-1.068-0.256-1.516-0.267-2.392
			c0.374-2.145-0.854-2.685-1.597-3.716c-3.403-0.486-6.82-0.267-10.358-0.267h-31.87c-0.342,0.015-0.367,0.34-0.798,0.267
			c-3.591-0.126-7.544,0.238-10.356,0.529c-3.205,0.331-7.152,0.633-10.092,0.798c-0.966,0.054-1.995-0.27-2.922,0.265
			c-1.748-0.064-3.332,0.031-4.518,0.532c-1.572,0.104-3.134,0.228-4.514,0.53c-1.498,0.183-2.977,0.388-3.717,1.329
			c-1.133,2.151-0.798,5.187-0.798,8.232v9.295c-0.593,5.604,0.047,12.439-0.529,18.06c-0.331,11.979-0.952,23.662-0.798,36.122
			c0.485,2.257,0.623,4.864,0.534,7.7c0.513,2.336-1.66,3.426-0.27,5.047c0.575,0.928,1.974,1.037,3.452,1.061h4.781
			c2.741,0.535,5.738-0.271,8.766-0.264c5.69-0.684,11.938-0.811,17.795-1.328c11.839-0.602,24.903-1.236,37.18-0.531
			c1.896-0.316,3.498-0.93,5.578-1.062c1.292-0.391,2.028-1.336,2.657-2.389c1.476,1.25,3.906,0.649,5.043-0.533
			C107.956,99.986,106.169,97.117,106.346,94.066z M27.998,25.013c3.307-0.208,5.117,1.078,8.497,0.798
			c0.198,0.6,1.491,0.104,2.124,0.266h2.125c1.712-0.207,2.615,0.395,4.249,0.268c12.212-0.738,26.584-0.798,40.637-0.798
			c4.539,0,9.188-0.221,13.544,0.265c-0.451,7.958-0.639,16.18-0.529,24.701H81.379c-0.941,0.411-0.16-0.902-0.796-0.799
			c0.218-0.751-0.373-0.688-0.265-1.327c-0.351-0.715-0.713-1.413-1.062-2.124c-0.751-0.58-1.921-0.737-2.923-1.065
			c-0.717-0.609-1.729-0.924-3.187-0.796c-2.43,0.585-1.981,4.038-2.922,6.111c-3.308,0.588-7.681,0.111-11.42,0.265
			c-0.382-2.628-0.711-5.308-2.654-6.376c-3.044-0.122-4.461,1.385-6.374,2.39c-0.208,0.857-0.557,1.571-1.065,2.126
			c0.021,0.995-0.109,1.837-0.529,2.391c-5.029,0.55-10.11,1.043-15.668,1.061c-1.524,0.249-3.217,0.326-4.516,0.799
			c-0.066-9.141,0.194-18.611-0.269-27.355C27.707,25.434,27.686,25.058,27.998,25.013z M27.998,56.352
			c2.268,0.566,5.535,0.131,8.231,0.268c2.925-0.233,6.362-0.566,9.562-0.797c1.059-0.077,2.048-0.195,2.92,0
			c0.691,2.055,0.681,4.811,2.126,6.104c4.949,0.814,8.558-1.84,8.498-6.903H69.96c0.565,1.704,0.461,3.456,1.328,4.781
			c0.817,1.247,1.94,1.747,3.718,2.122c2.67-0.073,3.995-1.493,5.312-2.919c0.564-1.114,0.729-2.632,1.061-3.984
			c5.962,0.378,11.803-0.757,17.266,0c0.146,7.468,0.388,14.841,0.266,22.578h-4.781c-0.634-3.526-1.8-6.521-5.312-7.175
			c-2.293,0.011-3.142,1.464-4.248,2.657c-0.534,1.415-0.758,3.141-1.33,4.518H69.164c-0.48-1.56-1.289-2.785-1.859-4.25
			c-1.513-0.97-2.816-2.146-5.312-2.125c-2.947,0.592-4.034,3.051-4.515,6.107h-6.109c-0.175-1.509-0.792-2.573-1.062-3.982
			c-0.607-0.361-0.854-1.095-1.328-1.596c-0.471-0.505-1.318-0.628-1.859-1.062c-4.445,0.158-5.493,3.713-6.375,7.435
			c-1.312,0.373-3.104,0.263-4.779,0.269c-3.143,0.311-5.779,1.127-8.767,1.594C27.373,72.02,27.863,64.363,27.998,56.352z
			 M88.284,76.271c0.396,0.225,0.571,0.668,0.532,1.328C87.923,77.873,88.402,76.775,88.284,76.271z M88.284,83.18
			c-0.138-0.141,0.192-0.343,0.268-0.267C88.688,83.049,88.359,83.25,88.284,83.18z M63.318,83.18
			c-0.11-0.56,0.184-0.707,0.267-1.062C64.339,82.146,64.096,83.248,63.318,83.18z M46.057,77.335c0.051-0.302,0.268-0.147,0.264,0
			C46.271,77.637,46.057,77.48,46.057,77.335z M46.057,82.646c-0.156,0.024-0.332-0.373-0.266-0.531
			C46.192,81.177,46.296,82.604,46.057,82.646z M93.33,100.175c-19.318,0.335-38.867,0.438-56.303,2.655h-4.25
			c-1.631,0.408-3.48,0.594-5.312,0.798c-0.212-6.873-0.356-13.812-0.268-20.981c0.198-0.248,0.482-0.401,0.8-0.529
			c3.729,0.181,8.079-0.108,12.481,0c-0.159,3.963,0.936,6.68,3.452,7.969c0.834-0.095,1.632,0.125,2.389,0
			c0.622-0.104,1.479-0.633,2.126-1.064c0.15-0.098-0.042-0.246,0.265-0.265c0.303-0.017,0.491-0.388,0.8-0.796
			c0.278-0.377,0.441-0.761,0.796-1.33c0.576-0.929,1.16-2.627,1.326-4.514h5.577c0.319,3.224,0.603,6.479,2.923,7.699
			c0.376-0.021,0.755-0.043,0.798,0.27c4.155,0.348,5.582-2.029,7.437-3.984c0.377-1.035,0.952-1.881,0.798-3.451h14.072
			c0.602,1.349,0.645,3.254,1.332,4.514c0.022,1.925,1.679,2.219,2.918,2.924c1.938-0.365,3.275-1.331,3.984-2.924
			c1.055-1.158,1.913-2.512,2.654-3.98c1.75,0.176,4.066-0.271,5.047,0c-0.105,5.771,0.023,11.306,0.799,16.198
			C97.701,98.752,95.238,99.619,93.33,100.175z"/>
	</g>
</g>
</svg>
