<?xml version="1.0" encoding="utf-8"?>
<!-- Generator: Adobe Illustrator 16.0.0, SVG Export Plug-In . SVG Version: 6.00 Build 0)  -->
<!DOCTYPE svg PUBLIC "-//W3C//DTD SVG 1.1//EN" "http://www.w3.org/Graphics/SVG/1.1/DTD/svg11.dtd">
<svg version="1.1" id="Layer_1" xmlns="http://www.w3.org/2000/svg"  x="0px" y="0px"
	 width="120px" height="120px" viewBox="4 4 120 120" style="enable-background:new 4 4 120 120;" xml:space="preserve">
<g id="folder2">
	<g>
		<path d="M101.738,93.78c-0.598,1.116-0.287,3.137-1.428,3.708c-0.619,0.269-2.56-0.174-3.992,0
			c-1.396-0.033-3.006,0.152-3.994-0.282c-2.824-0.03-5.418-0.293-7.705-0.858c-3.719,0.657-8.645,0.104-12.838,0.284
			c-0.934-0.012-1.09-0.812-2.281-0.569c-1.217,0.117-2.938-0.275-3.707,0.285h-2c-0.543-0.132-1.227,0.879-1.141-0.285
			c-0.402-0.024-0.811-0.049-0.857,0.285c-1.207,0.219-2.496,0.354-3.707,0.572h-4.85c-1.082,0.161-3.299,0.684-4.281,0
			c1.586-2.979,3.232-5.898,4.564-9.131c0.605-1.68,1.361-3.204,2.285-4.564c0.258-0.882,0.709-1.568,1.139-2.281
			c0.74-0.215,1.17-1.603,0.574-2.282c-2.279-0.706-3.754,1.468-4.564,3.14c-1.197,1.559-1.861,3.655-3.141,5.133
			c-2.023,3.396-4.193,6.65-5.99,10.273c-2.391-0.012-4.312,0.441-6.562,0.566c1.131-3.336,2.709-6.228,4.281-9.129
			c0.998-1.188,1.367-3.002,2.566-3.992c0.324-1.543,2.275-2.779,1.426-4.566c-2.113-0.995-3.285,1.229-4.279,2.282
			c-1.23,1.053-1.936,2.63-3.139,3.71c-0.711,1.572-1.662,2.9-2.566,4.279c-0.191,0.953-0.887,1.396-1.141,2.281
			c-0.463,0.68-0.643,1.643-1.143,2.282v1.999c0.346-0.091,0.982,0.823,0.285,0.854c-1.75-0.148-4.129,0.328-5.422-0.284
			c1.568-1.378,2.16-3.735,2.855-5.99c1.035-1.819,1.6-4.104,2.566-5.991c0.684-2.265,1.805-4.093,2.568-6.277
			c0.324-1.101,1.23-1.623,1.424-2.852c0.572-0.607,1.646-1.789,0.855-2.852c-2.414-0.846-3.818,1.656-4.848,3.135
			c-1.371,1.486-2.373,3.336-3.141,5.422c-1.967,3.641-3.504,7.715-4.848,11.98c-0.33,0.338-0.322,1.011-0.285,1.715
			c-0.273,0.531,0.854,0.951,0,1.142c-1.199-1.084-1.648-2.917-1.713-5.138c-0.051-0.621,0.234-0.905,0.855-0.857
			c0.041-0.529,0.188-0.951,0.572-1.137c0.436-2.42,1.443-4.266,1.998-6.564c0.914-1.843,1.332-4.182,2.279-5.99
			c0.707-2.053,1.072-4.444,2.283-5.988c0.201-2.219,2.396-3.83,1.424-6.278c-1.6-0.574-2.834,1.484-3.707,2.566
			c-0.768,1.512-1.844,2.723-2.279,4.565c-1.881,2.588-2.742,6.198-4.279,9.131c0.307-0.906-1.109-2.399,0.285-2.568
			c0.551-0.594,0.896-1.383,1.424-1.999c0.98-3.965,2.271-7.62,3.424-11.41c0.74-1.734,1.35-3.596,1.998-5.42
			c0.447-0.791,0.889-1.589,1.143-2.568c0.699-0.256,0.771-1.996,0.285-2.568c-0.619-0.478-2.57-0.459-2.855,0.287
			c-0.85,0.021-1.182,2.025-1.713,1.424c0.58-1.419,1.059-2.937,1.428-4.563c0.609-1.159,1.748-2.993,0.574-4.28
			c-3.158-0.967-4.127,2.465-5.139,4.566c-1.029,2.297-1.568,5.085-2.852,7.13c0.158-4.214,1.189-7.559,0.855-12.265
			c-0.137-0.902,0.516-1.008,0.285-1.998c0.182-4.193-0.371-9.119,0.285-12.84c4.215,0.222,7.5-0.486,10.838-1.14
			c4.898,0.104,6.594-0.462,10.846,0.285c2.43,2.419,3.254,6.448,4.564,9.984c0.654,0.577,1.447,1.022,1.998,1.712
			c0.838,0.3,1.889,0.393,2.568,0.856c12.468,0.119,24.616-0.999,36.802-0.284c3.121,0.775,6.551,1.245,9.127,2.564
			c1.182-0.037,2.205,0.08,2.854,0.572c1.017,0.025,1.959,0.133,2.283,0.855c0.504,2.646-0.307,6.047,0,9.988
			c0.058,0.989,1.008,1.08,1.139,1.997c0.386,0.661-0.038,2.128,1.144,1.993c1.964,0.063,1.742-2.062,2.568-3.137V46.42
			c-0.277-0.009-0.224-0.347-0.285-0.567c-0.547-0.787-1.166-1.5-1.713-2.283c-0.548-0.783-2.166-0.498-2.565-1.43
			c-0.644-4.255,1.674-8.312-0.57-10.839c-5.451-0.634-12.211,0.036-17.404-0.858c-11.451,0.91-24.974-0.247-35.376,1.713
			c-0.914-2.316-2.018-4.449-3.707-5.989c-4.053-1.874-7.391-1.186-11.986-1.426c-4.682,0.541-8.311,2.145-13.406,2.282
			c-0.842,0.394-1.154,1.316-1.998,1.71c-0.473,0.764-1.967,0.505-2.566,1.143c-0.49,1.605-1.402,2.777-1.711,4.563
			c-0.164,3.828,0.344,8.332-0.287,11.695c0.65,0.397,0.109,1.988,0.287,2.854v8.845c0.541,4.305,1.092,8.608,1.711,12.838v7.418
			c1.029,4.546,0.455,10.838,1.426,15.976c0.506,2.666,1.369,4.72,2.568,6.564c0.713-0.048,0.891,0.438,1.143,0.854
			c1.736,0.547,3.49,1.074,5.418,1.428H38.69c8.752-1.237,20.084,0.113,28.527-1.428h13.41c0.938,0.199,1.824,0.459,2.854,0.572
			c6.377,0.144,12.816,1.555,19.4,0.567c1.42-0.86,2.08-2.487,3.139-3.709c0.604-2.675,1.797-5.974,0.57-8.843
			C103.303,89.636,103.252,92.438,101.738,93.78z M55.235,34.438c5.738-0.481,13.371-0.461,19.115,0
			c7.326-0.192,14.09,0.173,20.258,1.141h5.134c-0.214,1.788-0.39,3.605-0.281,5.706c-3.101-0.991-6.101-2.082-9.701-2.566
			c-7.752,0.415-15.764,0.183-23.396-0.288c-4.41,0.182-8.229-0.072-13.123,0c-0.549-1.063-0.902-2.327-1.141-3.707
			C53.276,34.761,53.883,34.228,55.235,34.438z M112.295,70.671c-1.203-0.127-1.436-1.226-3.139-0.856h-4.281
			c-2.422-0.33-5.029-0.481-7.699-0.568c-0.201-2.747-0.277-5.621-0.572-8.272c-0.797-0.916-1.651-1.772-2.567-2.569
			c-1.388-0.054-2.728-0.065-3.427,0.57c-0.545,0.405-0.514,1.389-0.852,1.999c-0.182,0.865,0.363,2.456-0.287,2.851
			c-0.055,2.041,0.051,4.235-0.854,5.422c-3.248,0.175-7.214-0.363-9.984,0.286c-1.028,0.3-0.59,2.07-1.715,2.279
			c-0.043,0.336,0.051,0.81-0.283,0.857c-0.077,1.98-0.844,4.607,0.568,5.707c1.198,0.51,3.235,0.188,4.563,0.568h3.428
			c0.959,0.183,2.646-0.367,3.136,0.285c-0.022,3.359-1.373,7.604,0,10.559c0.7,0.536,1.506,0.967,2.565,1.137
			c0.961-0.938,1.709,0.754,3.142,0.288c0.187-0.382,0.61-0.53,1.144-0.571c1.674-1.654,1.012-5.642,1.141-8.842
			c0.686-0.363-0.156-2.253,0.572-2.57c1.5-0.17,2.448,0.211,3.707,0.287h5.422c1.803-0.203,4.145,0.312,5.135,0
			c0.16-0.697,1.102-0.608,0.854-1.713c0.418-0.533,0.012-1.89,0.572-2.281C112.676,73.454,112.914,72.37,112.295,70.671z
			 M79.771,73.525h-0.572v-0.569h0.572V73.525z M87.475,73.811c-0.147-0.148,0.207-0.365,0.285-0.283
			C87.906,73.67,87.553,73.889,87.475,73.811z M102.309,75.521h-1.711c0.389-0.366,0.389-1.35,0-1.711
			c-1.395-0.155-1.432,1.043-1.998,1.711c-1.174,0.094-0.024-1.491,0-1.996c1.635,0.205,2.547-0.309,3.994-0.287
			C102.42,73.922,102.186,74.543,102.309,75.521z M106.59,73.811c-0.318,1.102,1.006,1.016,0.283,1.713h-1.141v-1.996
			c-0.188-0.291-0.656-0.299-0.572-0.857c0.502-0.164,1.68,0.344,1.713-0.289C108.15,72.363,106.482,73.223,106.59,73.811z
			 M108.303,75.234C108.328,75.581,107.885,75.411,108.303,75.234C108.271,74.891,108.715,75.061,108.303,75.234z M62.653,96.062
			C63.071,95.889,62.625,95.717,62.653,96.062L62.653,96.062z"/>
	</g>
</g>
</svg>
