<?xml version="1.0" encoding="utf-8"?>
<!-- Generator: Adobe Illustrator 16.0.0, SVG Export Plug-In . SVG Version: 6.00 Build 0)  -->
<!DOCTYPE svg PUBLIC "-//W3C//DTD SVG 1.1//EN" "http://www.w3.org/Graphics/SVG/1.1/DTD/svg11.dtd">
<svg version="1.1" id="Layer_1" xmlns="http://www.w3.org/2000/svg"  x="0px" y="0px"
	 width="120px" height="120px" viewBox="4 4 120 120" style="enable-background:new 4 4 120 120;" xml:space="preserve">
<g id="user4">
	<g>
		<path d="M96.688,91.921c-0.199-0.387-0.055-0.785-0.287-1.141c-0.192-0.3-0.84-0.785-1.141-1.142
			c-1.299-1.527-3.156-3.402-4.564-4.279c-0.271-0.168-0.559-0.1-0.856-0.284c-0.496-0.31-0.935-0.88-1.426-1.142
			c-1.134-0.606-2.445-0.938-3.709-1.428c-0.119-0.045-0.019-0.218-0.283-0.285c-0.369-0.092-0.604-0.223-0.856-0.285
			c-0.367-0.09-0.605-0.222-0.857-0.285c-0.172-0.043-0.4,0.06-0.568,0c-0.147-0.053-0.672-0.512-0.854-0.568
			c-1.421-0.436-3.632-0.909-4.566-1.143c-0.178-0.045-0.389,0.031-0.567,0c-2.67-0.448-5.318-0.737-7.988-1.142
			c-0.943-0.675-1.678-1.56-2.57-2.282c-0.102-2.371-0.35-4.596-0.854-6.562c1.318-1.724,2.557-3.529,3.992-5.136
			c1.541-3.69,3.58-6.882,4.563-11.126c6.918-0.016,8.162-7.803,6.849-14.264c-1.523-0.537-2.771,0.344-3.992-0.572
			c-0.058-7.075-1.662-12.602-3.996-17.402c-1.105-1.082-2.113-2.262-3.139-3.424c-0.99-0.246-1.582-0.889-2.279-1.426
			c-1.889-0.489-3.691-1.066-5.709-1.428h-3.709c-0.365,0.395-1.24,0.283-1.994,0.287c-2.139,1.094-4.854,1.613-6.279,3.424
			c-1.248,0.367-1.793,1.438-2.566,2.28c-1.002,0.71-1.793,1.63-2.281,2.854c-1.023,0.596-1.188,2.047-2,2.853
			c-0.225,1.486-1.354,2.068-1.426,3.708c-0.701,0.914-0.973,2.261-1.141,3.709c-0.52,0.338-0.223,1.486-0.568,1.996
			c0.061,0.92-0.506,1.209-0.287,2.283c-1.697,0.396-3.01,1.175-3.994,2.282c-1.584,2.282-1.711,5.649-1.426,9.13
			c0.844,0.867,1.795,1.629,2.566,2.568c0.371,1.34,2.406,1.018,2.854,2.281c0.531,6.317,3.779,9.913,5.135,15.405v3.711
			c-0.93,1.828-2.537,2.976-4.279,3.992c-1.143,0.568-2.596,0.83-3.994,1.142c-3.354,2.258-7.992,3.229-11.41,5.422
			c-4.002,1.611-6.842,4.38-9.704,7.133c-0.487,1.507-1.683,2.306-1.993,3.993c-0.807,1.189-1.918,2.077-2.283,3.709v1.997
			c-0.17,0.59,0.352,1.874-0.287,1.997c-0.408,1.357,1.195,0.709,0.856,1.997c-0.505,1.16-0.284,3.071,0,4.278
			c1.267,1.205,2.53,2.418,5.421,1.996c1.068-0.021,0.863,1.231,2.285,0.857c27.627-0.219,53.312-0.667,77.883-3.994
			c1.008-2.607,2.018-5.211,2.281-8.56c0-3.071-0.549-5.515-1.424-7.417C97.189,92.35,96.775,92.093,96.688,91.921z M75.859,43.136
			c1.311-0.262,1.379,0.715,2.567,0.57c-0.229,2.147-0.557,4.201-3.139,3.994C75.08,45.782,76.068,45.057,75.859,43.136z
			 M37.629,47.7c-0.885,0.03-1.361-0.348-1.996-0.57c-0.047-0.902,0.758-0.953,0.57-1.996c1.023-0.168,1.381,0.332,1.998,0.571
			C37.961,46.321,37.461,46.677,37.629,47.7z M91.553,103.05c-20.844,0.173-41.627,0.406-62.766,0.284
			c-2.277,0.288-5.48,0.536-7.703,0c0.435-1.749,0.635-3.736,0.855-5.706c1.721-2.271,3.496-4.489,5.707-6.274
			c2.66-1.332,5.322-2.664,7.986-3.996c3.031-1.914,5.994-3.896,9.127-5.705c1.117-1.453,2.348-2.791,3.427-4.279
			c0.14-1,0.425-1.857,0.286-3.139c0.164-0.976,0.953-1.328,0.854-2.566c-0.969-6.926-2.115-13.672-2.283-21.398
			c0.357-6.682,0.854-13.224,2.57-18.543c1.236-1.901,2.57-3.704,3.709-5.707c1.898-1.047,3.059-2.838,5.133-3.709
			c0.752-0.295,1.754-0.34,2.855-0.285c0.51,0.037,0.6-0.35,1.141-0.283c2.961-0.3,3.346,1.977,4.85,3.137
			c0.039,1.291,1.27,1.395,1.143,2.853c1.013,0.319,0.716,1.948,1.425,2.567c0.42,7.217,0.989,15.715,0.286,23.109
			c-0.752,2.957-2.461,4.959-3.711,7.418c-0.614,0.428-0.661,1.427-1.709,1.426c-0.727,0.322-0.659,1.433-1.429,1.712
			c-0.275,1.244-0.986,2.057-1.426,3.141c-0.363,1.158-0.526,2.516-0.568,3.992c0.148,1.577-1.807,1.051-1.428,2.854
			c-0.561,0.769-0.168,2.492-0.283,3.708c0.35,1.455,1.318,2.295,1.994,3.425c1.184,0.622,2.473,1.141,3.14,2.282
			c1.599-0.271,1.935,0.729,3.138,0.854c0.813,0.422,1.887,0.584,2.567,1.141c9.275,1.091,17.215,3.521,21.113,9.984
			C92.232,97.661,92.045,100.499,91.553,103.05z M117.799,52.552c-2.904,0.051-5.752,0.042-7.99-0.57
			c-0.938,0.584-2.889,0.153-4.276,0.285c0.231-2.232-0.246-3.751-0.572-5.421c-0.012-2.968-0.012-4.6,0.572-6.562
			c-0.679-0.94-1.183-2.055-1.998-2.854c-3.156-0.078-6.16-0.305-9.132-0.57c-4.151,1.934-1.305,10.865-2.565,15.691h-4.563
			c-2.203,0.555-5.76-0.244-6.849,1.426c-0.413,2.011-0.082,3.478-0.284,5.992c-0.211,2.59,0.11,4.643,1.426,5.705
			c3.147,0.779,6.926-0.047,9.988-0.283v9.983c0.573,1.325,1.776,2.026,2.28,3.424c3.092,0.753,7.438,0.747,10.556,0
			c0.885-1.493,0.491-4.262,0.569-6.563v-7.416h10.271c0.062-0.223,0.238-0.332,0.572-0.286c0.803-0.904,1.818-1.604,2.281-2.852
			C118.18,58.446,118.021,55.468,117.799,52.552z M99.256,43.423c1.002,0.517,1.654,1.388,2.852,1.711v4.85
			c-1.151-0.939-2.209-1.977-3.426-2.854C99.031,46.055,99.258,44.854,99.256,43.423z M99.826,54.833
			c0.045,1.662-0.918,2.315-1.145,3.71c-1.197-0.036-1.365-1.104-2.566-1.142c0.43-1.756,1.357-3.016,1.711-4.85
			C98.887,52.917,99.164,54.068,99.826,54.833z M97.543,41.711c0.969,0.723,0.273,1.589,0,2.566c-0.75,0.39-0.135,2.149-1.428,1.997
			C96.168,44.331,95.768,41.931,97.543,41.711z M84.703,55.976c1.137,0.088,1.432-0.66,2.568-0.57
			c-0.896,1.671-2.152,2.982-2.853,4.85C83.859,59.304,84.672,57.281,84.703,55.976z M86.131,61.966
			c-0.359-1.745,1.627-3.467,1.713-5.705c0.045-0.333-0.064-0.508-0.287-0.571c0.123-0.638,1.404-0.116,1.998-0.284
			c-0.381,1.328-0.973,2.449-1.428,3.708C87.506,60.108,88.127,62.349,86.131,61.966z M91.553,62.538
			c-0.984,0.123-1.6-0.114-2.283-0.287c0.646-2.303,1.453-4.443,1.996-6.846h3.137C93.297,57.624,92.246,59.901,91.553,62.538z
			 M94.402,62.821c0.041-1.385,0.449-2.402,0.856-3.424c0.927,0.501,1.427,1.428,1.998,2.283c-0.098,1.52-0.838,2.396-1.144,3.71
			C94.742,65.335,96.57,62.081,94.402,62.821z M98.398,73.949c-0.478,0.378-0.957,0.755-1.998,0.568v-6.274
			c1.02,0.596,1.186,2.047,1.998,2.852c0.315,1.21,1.41,1.636,1.428,3.14C99.41,74.078,98.352,74.566,98.398,73.949z
			 M101.535,69.954c-1.268-1.017-1.965-2.601-2.854-3.994c0.043-0.908,0.649-1.256,0.573-2.281c1.117,0.211,1.55,1.111,2.565,1.426
			c0.188,1.043-0.618,1.094-0.571,1.998C101.051,68.348,101.736,68.709,101.535,69.954z M102.393,61.966
			c-1.256,0.211-1.168-0.922-1.998-1.141c0.474-1.053,0.711-2.332,1.142-3.424c1.159-0.112,0.879,1.213,1.715,1.428
			C103.09,60,102.432,60.673,102.393,61.966z M104.676,55.119c0.055-0.325,0.287-0.157,0.283,0
			C104.906,55.442,104.676,55.276,104.676,55.119z M108.1,58.256c-0.688,0.609-1.262-0.634-1.713-1.14
			c0.148-0.896,0.5-1.592,0.855-2.283c0.387,0.09,0.238,0.715,0.283,1.143C107.852,56.601,108.264,57.14,108.1,58.256z
			 M110.381,60.538c0.051-0.229,0.287-0.283,0.283-0.568h0.572C111.371,60.579,110.83,60.513,110.381,60.538z M114.66,58.543
			c-1.41-0.491-2.662-1.144-3.139-2.567c0.334-0.047,0.24-0.521,0.283-0.856c0.905-0.392,0.954-0.063,1.997,0
			C114.275,56.073,114.812,56.964,114.66,58.543z"/>
	</g>
</g>
</svg>
