<?xml version="1.0" encoding="utf-8"?>
<!-- Generator: Adobe Illustrator 16.0.0, SVG Export Plug-In . SVG Version: 6.00 Build 0)  -->
<!DOCTYPE svg PUBLIC "-//W3C//DTD SVG 1.1//EN" "http://www.w3.org/Graphics/SVG/1.1/DTD/svg11.dtd">
<svg version="1.1" id="Layer_1" xmlns="http://www.w3.org/2000/svg"  x="0px" y="0px"
	 width="120px" height="120px" viewBox="0 0 120 120" enable-background="new 0 0 120 120" xml:space="preserve">
<g id="file5">
	<g>
		<path d="M100.48,79.279c-0.146-1.855-1.539-2.457-1.711-4.277c-0.644-9.082-0.828-19.421-1.146-27.959
			c0.084-1.727,0.727-2.891,0.855-4.567c0.227-4.446-0.053-7.063,0-12.267c-0.037-4.432-0.014-8.926-0.855-12.553
			c-1.791,0.012-3.338,0.275-4.852,0.571c-0.816-0.513-1.649-1.011-3.137-0.856c-15.584-0.014-30.715-0.48-46.502-0.286
			c-0.414,0.159-0.699,0.445-0.857,0.856c-0.664,0.857-1.27,1.775-1.997,2.567c-0.535,0.503,0.34,0.833-0.284,1.428
			c-0.507,0.257-0.885,0.638-1.145,1.14c-1.535,1.506-3.029,3.059-3.994,5.136c-1.013,0.508-1.177,1.862-1.994,2.566
			c-0.809,0.719-0.906,2.14-1.715,2.855c-0.069,1.449-1.231,1.808-1.709,2.853c-0.708,0.992-1.958,1.512-1.998,2.854v6.559
			c0.194,1.707,0.759,3.045,0.857,4.852c-0.5,8.669-0.573,17.866-0.573,27.103c0,9.342-0.374,18.662,0,27.394
			c-0.038,1.194,0.52,1.593,0,2.565c-0.921,0.475-0.327,1.547,0,2.282c1.267,1.11,3.598,0.282,5.422,0.282
			c1.607-0.579,3.926-0.443,5.704-0.854c9.27-0.157,15.93,0.408,24.251-0.287c7.937-0.823,16.465-0.51,24.82-0.285
			c2.576,0.354,6.127,0.999,8.561,0.572c0.719-0.52,1.25-1.222,1.426-2.284c0.191-1.14,0.857-1.804,1.146-2.854V90.977
			c0.629-1.938,1.37-3.764,1.709-5.99V80.42C100.343,80.369,100.504,79.73,100.48,79.279z M43.137,26.5
			c-0.607,0.135-0.546-0.406-0.572-0.855C42.916,25.77,43.148,26.01,43.137,26.5z M40.854,27.643h0.853
			c0.38,1.429,1.373,2.24,2.281,3.136c-0.223,1.175,0.439,1.466,0.286,2.568c-1.339-0.088-1.152-1.697-2.282-1.996
			c-0.41-1.014-1.156-1.696-1.994-2.282C40.166,28.476,40.596,28.146,40.854,27.643z M39.998,33.347
			c0.354,0.883,0.939,1.532,1.709,1.999c-0.257,0.771-1.049-0.241-1.142-0.573c-0.415-0.245-0.903-0.425-0.856-1.139
			c-0.768-0.563-1.359-1.3-1.71-2.283C39.106,31.576,39.084,32.93,39.998,33.347z M35.717,34.203
			c0.688,0.551,0.946,1.525,1.711,1.997c-0.762,0.569-2.516,0.147-3.422,0.573C34.408,35.747,35.24,35.152,35.717,34.203z
			 M91.921,104.957c-1.461,0.13-1.562-1.102-2.854-1.143h-5.987c-10.972-1.047-21.354,0.877-32.24,0.855
			c-1.155,0.268,0.362-1.546-0.569-1.997c-1.283-0.142-0.804,1.482-1.428,1.997h-3.994c-1.302-0.203-2.893,0.322-3.424,0
			c0.394-1.65,1.764-3.361,1.143-5.135c-1.834-0.312-2.053,0.99-2.855,1.71c-0.228,1.291-1.135,1.905-1.137,3.425
			c-1.217-0.115-2.943,0.271-3.713-0.285c0.227-2.521,2.332-4.395,1.713-6.847c-2.282,0.188-2.662,2.28-3.423,3.992
			c-1.024-0.597-0.574-2.759,0.284-3.138c0.128-1.302,0.735-2.121,1.143-3.141c0.44-2.162,2.36-4.25,1.713-6.562
			c-1.309-0.166-1.332,0.955-1.999,1.432c-0.109,0.577-0.835,1.984-1.141,1.426v-2.281c0.36-1.258,1.085-2.149,1.71-3.143
			c0.436-2.321,1.51-4.008,1.998-6.273c0.238-2.007,2.039-4.322,0.857-5.99c-1.262-0.12-2.002,0.281-2.566,0.854
			c-0.692,0.088-1.267,1.757-1.715,1.145c-0.146-11.082,0.506-21.372,0.287-32.526c0.174-1.316-0.641-1.642-0.571-2.852h4.278
			c1.933-0.351,3.835-0.73,6.277-0.571c1.904-0.567,4.268-0.679,5.705-1.714c0.26-0.498,0.099-1.421,0.572-1.709
			c-0.445-2.504-0.654-5.243-1.143-7.702c-0.414-2.533-1.229-4.668-1.428-7.419c2.912-0.171,6.16-1.072,9.131-0.285
			c10.765-0.206,19.915,1.196,30.526,1.14c1.892,0.156,4.156,0.968,5.99,0.286c0.006,1.24,0.094,2.566-0.285,3.425
			c0.543,1.072,0.026,3.204,0.572,4.278c0.287,13.504,0.346,27.232,0.282,41.084c-2.858-1.327-6.47-1.899-10.84-1.714
			c-3.498,0.402-6.526,1.271-9.131,2.568c-2.37,1.146-3.716,3.32-5.703,4.851c-0.41,1.396-1.491,2.125-2,3.422
			c-0.599,1.211-1.242,2.371-1.709,3.711c0.188,1.9,0.136,4.047,0.567,5.706c0.344,1.561,1.47,2.334,2.283,3.423
			c0.469,1.437,1.166,2.638,1.713,3.994c0.605,0.913,1.342,1.698,1.996,2.567c2.455,1.635,5.172,3.008,8.846,3.425h5.136
			c2.073-0.4,3.987-0.958,5.418-1.999c0.894-0.344,1.241-1.23,2.285-1.426c0.082-0.584,0.772-0.562,0.854-1.145
			c0.408,0.152,0.694-1.107,0.854-0.281C93.581,100.723,93.792,103.88,91.921,104.957z M97.34,85.557
			c-0.293,1.608-1.385,2.422-1.998,3.711c-0.421,1.479-1.355,2.446-1.711,3.992c-1.109,1.076-2.794,1.579-3.709,2.854
			c-1.84,0.349-2.956,1.419-4.562,1.995c-0.449,0.023-1.088-0.137-1.142,0.287c-3.022,0.166-5.427-0.28-7.702-0.854
			c-0.008-0.278-0.352-0.224-0.572-0.286c-0.812-0.807-2.039-1.191-2.564-2.279c-1.15-0.468-1.281-1.953-2.281-2.568
			c-0.49-2.268-1.229-4.291-1.146-7.133c0.888-3.205,2.964-5.221,4.854-7.42c1.721-1.035,3.395-2.119,5.135-3.138
			c1.369-0.058,2.09-0.762,3.707-0.567c-0.049-0.244,0.11-0.271,0.287-0.285h4.852c1.75-0.231,2.455,0.587,3.709,0.854
			c0.426,0.521,1.189,0.711,1.424,1.426c-0.23,1.187,0.831,1.071,1.143,1.711c0.867,0.942,1.541,2.078,2.281,3.141v4.562H97.34
			V85.557z M85.074,84.7c-0.549-2.115,0.351-5.679-1.713-6.275c-1.062,0.175-1.869,0.603-2.568,1.142
			c-0.59,1.403,0.08,4.072-0.568,5.42c-2.396-0.115-4.797-0.229-4.852,1.996c0.803,1.479,2.893,1.672,5.137,1.713
			c0.244,2.035,0.262,4.303,1.424,5.423c1.324,0.085,2.474-0.003,3.143-0.571c0.982-1.328,0.336-3.29,0.283-5.136
			c2.715-0.138,6.464,0.757,6.562-1.996C91.916,83.045,87.58,84.438,85.074,84.7z"/>
	</g>
</g>
</svg>
