<?xml version="1.0" encoding="utf-8"?>
<!-- Generator: Adobe Illustrator 16.0.0, SVG Export Plug-In . SVG Version: 6.00 Build 0)  -->
<!DOCTYPE svg PUBLIC "-//W3C//DTD SVG 1.1//EN" "http://www.w3.org/Graphics/SVG/1.1/DTD/svg11.dtd">
<svg version="1.1" id="Layer_1" xmlns="http://www.w3.org/2000/svg"  x="0px" y="0px"
	 width="120px" height="120px" viewBox="0 0 120 120" enable-background="new 0 0 120 120" xml:space="preserve">
<g id="contact-book3">
	<g>
		<path fill-rule="evenodd" clip-rule="evenodd" d="M101.996,90.044c-1.098-1.462-1.896-3.218-4.152-3.516
			c-1.73-0.026-2.654,0.751-4.471,0.64c0.203-1.074-0.412-2.969,0.316-3.511c2.281-0.706,5.929-0.034,7.666-1.28
			c1.082-2.854,0.584-7.292,0.957-10.855c-0.543-0.41-1.252-0.658-1.279-1.598H94.33c-0.948-0.655-1.414-3.468-0.641-4.789
			c2.376-0.183,5.492,0.378,7.344-0.32c0.971-2.866-0.494-8.162,0.963-10.537c-1.19-0.514-2.117-1.291-4.152-0.957
			c-1.849-0.145-3.271,0.131-4.793,0.314c-0.145-1.135-0.785-3.452,0-4.466c2.484,0.243,3.982-0.491,6.389-0.323
			c2.223-1.535,2.271-8.62,0.318-10.537c-0.959-0.429-2.445-0.325-3.827-0.32h-1.918c-0.425-0.046-1.19,1.076-1.278,0.32
			c0.443-0.92-0.875-1.623,0-1.915c0.192-0.765-0.402-2.318,0.316-2.556c2.27,0.244,3.65-0.395,5.748-0.315
			c0.773-0.937,2.041-1.372,3.197-1.921c0.34-2.473-0.738-3.521-0.963-5.427c-0.128-1.36,0.315-3.292-0.317-4.152
			c-1.96-1.232-4.933,0.104-7.981-0.318c-0.426-3.091,0.344-7.368-1.594-8.943c-3.883-0.588-8.24-0.702-12.777-0.64
			c-4.713-0.816-9.983-1.083-15.648-0.953c-7.157-2.502-17.121-0.662-25.544-0.643c-1.8,0.541-3.44,1.248-5.11,1.92
			c0.238-1.945-1.303-2.104-2.555-2.555h-0.64c-0.054,0.37-0.506,0.346-0.955,0.316c-0.649,1.59-2.757,1.72-3.197,3.516
			c-0.13,1.356,0.311,3.29-0.32,4.149c-3.289-0.099-6.634-0.249-6.708,2.872c0.553,2.008,3.882,1.236,5.752,1.918
			c-0.141,1.455,0.319,3.518-0.321,4.472c-2.785-0.128-5.295,0.028-5.107,2.874c0.242,1.992,3.665,0.803,5.107,1.594
			c0.003,2.327-0.013,3.752,0.321,5.108c-1.945,0.506-3.945,0.955-4.154,3.197c0.251,0.069,0.375,0.267,0.324,0.635
			c0.48,1.438,2.583,1.244,3.83,1.919v7.664c-2.194-0.068-3.786,0.471-3.83,2.551c0.14,0.929,0.671,1.457,1.594,1.602
			c0.243,0.823,2.366-0.234,2.236,0.955v5.752c-1.779-0.188-3.048,0.142-3.83,0.956v2.234c0.4,1.726,2.914,1.338,3.83,2.555
			c-0.128,1.36,0.306,3.293-0.321,4.152c-1.814-0.115-3.482-0.081-4.148,0.957c-0.053,0.376,0.054,0.904-0.322,0.958
			c0.085,1.193,0.741,1.816,1.283,2.555c0.458,0.176,1.646-0.371,1.592,0.321c0.563,0.182,1.876-0.386,1.917,0.315v4.473
			c-1.661,0.359-3.445,0.6-3.508,2.554c-0.028,1.195,0.51,1.831,1.272,2.237c0.102,1.069,2.023,0.323,2.236,1.276
			c-0.161,1.758,0.352,4.187-0.321,5.427c-2.071-0.566-3.95-0.195-4.79,1.28c-0.234,3.318,2.832,3.339,5.428,3.83v2.871
			c-1.408-0.021-2.83-0.059-2.873,1.281c-0.267,2.399,2.696,1.56,4.151,2.239c0.906,0.895,0.943,2.673,1.278,4.147
			c1.16,0.966,2.642,1.614,4.468,1.92h7.987c16.042,1.127,31.553-1.02,47.901-0.643c1.677-0.604,2.347-0.522,4.148-0.638
			c0.447-0.728,1.104-1.237,1.599-1.916c0.74-0.434,1.2-1.141,1.597-1.919c-0.22-1.165-0.448-2.321-0.323-3.828
			c2.863-0.121,5.725-0.243,7.666-1.277C102.494,97.144,101.814,93.159,101.996,90.044z M94.33,70.245
			c-0.051,0.372-0.585,0.269-0.957,0.319C93.422,70.188,93.955,70.293,94.33,70.245z M93.373,73.436c1.426-0.074,3.521-0.781,4.79,0
			v6.068c-1.184-0.515-3.146-0.268-4.79-0.321V73.436z M93.373,56.191c1.922,0.008,3.287-0.54,5.426-0.316v5.746h-5.426
			C93.653,60.205,93.209,58.361,93.373,56.191z M92.734,40.542c0.452-0.454,1.555,0.07,2.235,0.319
			c1.083,0.088,2.589-0.241,3.193,0.32v4.79h-5.429V40.542z M93.051,24.896c0.055-0.368-0.064-0.569-0.316-0.638
			c0.82-0.588,3.628-0.447,4.468,0v6.391c-1.425,0.271-2.629,0.771-4.468,0.635C92.488,28.804,93.148,27.227,93.051,24.896z
			 M85.389,101.535c-5.715-0.348-11.638-0.493-17.249-0.954c0.56-1.786,1.403-3.291,1.282-5.752
			c-1.916-0.315-1.918,1.278-2.555,2.236c-0.565,1.032-0.957,2.238-1.275,3.516h-5.11c0.331-2.118,1.55-3.346,1.916-5.431
			c1.003-1.205,1.421-4.081-0.317-4.79c-1.203,0.076-1.246,1.309-1.598,2.235c-0.422,0.855-0.855,1.698-1.281,2.555
			c-0.424,2.022-1.363,3.53-1.911,5.431c-1.837,0.079-4.07-0.243-5.43,0.319c1.232-1.643,2.026-3.727,2.873-5.75
			c0.696-1.878,2.612-3.805,1.915-6.066c-2.436,0.222-3.13,2.193-3.831,4.151c-1.188,1.367-1.603,3.509-2.553,5.108
			c-0.508,1.575,0.93,2.166,0.316,2.874c-1.418-0.25-1.912,0.425-3.195,0.317c0.767-3.277,2.874-5.216,3.516-8.618
			c-0.249-1.028-0.806-1.752-1.596-2.239c-2.726,0.362-3.221,2.953-4.151,5.111c-1.28,1.807-2.092,4.083-3.194,6.066
			c-3.173,0.877-6.246,1.846-10.536,1.602c-1.495-0.041,0.226-0.59,0.321-0.962c0.466-0.278,1.01-0.478,0.956-1.277
			c-0.067-1.099-0.948-1.39-1.918-1.595c-0.551-0.51-0.688-1.442-0.639-2.558c2.907,0.139,5.793,0.257,5.75-2.554
			c-0.271-2.604-3.086-2.661-6.069-2.557v-5.427c3.546-0.181,8.384,0.928,8.945-2.238c0.204-4.247-5.854-2.233-8.945-3.188v-5.429
			c2.562,0.658,7.182,2.107,7.024-1.92c-0.479-2.81-4.3-2.293-7.024-2.871v-4.471c3.087-0.109,7.068,0.672,7.664-1.917
			c0.254-3.871-4.061-3.174-7.664-3.191v-6.388c1.756,0.373,3.68,0.581,5.432,0.96c0.956-0.321,1.592-0.96,1.916-1.92
			c-0.276-3.664-4.906-2.974-7.665-4.15v-6.706c0.59-0.359,2.376,0.229,3.831,0c0.789-0.38,1.249-1.091,1.595-1.917
			c-0.41-2.459-2.417-3.33-5.426-3.193v-6.387c2.759-0.007,6.022,0.488,6.386-1.914c-0.147-2.728-3.043-2.703-6.069-2.554v-4.152
			c1.711,0.068,2.628,0.529,3.833-0.319c-0.047-0.372,0.074-0.567,0.325-0.64c0.23-1.508-0.459-2.101-0.961-2.874
			c-0.665-0.613-2.186-0.368-2.876-0.958v-1.278c0.26-0.059,0.322-0.317,0.639-0.317c0.419,0.323,1.18,0.312,1.599,0.638
			c12.604,0.045,25.164,0.041,37.359-0.32c5.546,0.742,11.279,1.283,16.606,2.236C86.642,47.229,85.49,73.855,85.389,101.535z
			 M98.163,96.107c-1.951,0.249-2.987-0.419-4.79-0.318V90.36c1.456,0.138,3.52-0.321,4.471,0.317
			C98.516,91.926,98.002,94.35,98.163,96.107z M56.969,66.092c-0.343-0.756-1.47,0.684-1.918-0.32
			c-0.417-1.695,0.927-1.629,0.641-3.193c-0.318-0.751-1.375-0.754-1.914-1.275c-0.683-2.413-1.156-5.024-1.601-7.668
			c-1.123-1.538-1.793-3.524-2.873-5.109c-1.367-0.373-1.303,0.027-2.555,0.32c-0.889,2.621-1.468,5.558-1.596,8.942
			c-0.817,1.313-1.148,3.114-1.598,4.79v5.111c-1.603,0.312-2.562,1.268-2.872,2.875c1.074,1.426,3.414,0.791,5.109,0.317
			c1.496,0.004,3.26,0.279,3.193-1.281c0.048-0.789-0.503-0.983-0.643-1.593c-0.914,0.059-1.741,0.035-1.594-0.962
			c-0.129-0.764,0.583-0.689,0.319-1.593h4.473c0.139,1.077,0.375,2.281,0.636,2.555c0.833,0.869,1.712,2.373,2.874,2.557
			c1.646,0.05,2.785-0.414,3.833-0.964v-2.555C58.103,66.877,58.205,65.813,56.969,66.092z M48.026,61.94
			c0.317-1.921,0.532-3.943,0.96-5.749c0.479,0.693,0.542,1.802,0.634,2.874c0.146,1.027,0.615,1.73,0.644,2.875H48.026z
			 M79.961,62.578c-1.665-0.065-1.113,2.083-2.236,2.557H74.85c-1.006-0.444-1.924,0.79-2.232,0
			c0.899-3.039,3.066-4.811,4.148-7.666c1.117-0.903,1.66-2.389,2.56-3.514c0.655-1.362,1.592-2.446,1.274-4.786
			c-0.754-1.003-3.041-1.273-4.471-0.644c-2.431-0.088-4.305,0.381-6.39,0.644c-1.622-0.032-3.333-0.143-4.147,0.636
			c-0.146,1.421,0.227,2.331,0.639,3.193c-0.137,1.414,0.529,2.023,1.598,2.234c1.745,0.045,1.959-1.445,2.553-2.557
			c1.773-0.354,3.681-0.572,5.748-0.636c-2.024,4.262-5.428,7.136-6.707,12.135c-0.815,1.209-2.227,1.819-1.916,4.151
			c2.93,2.099,7.98-0.031,12.136,0.321c0.518-0.655,1.536-0.807,2.236-1.278C82.447,65.597,82.686,62.047,79.961,62.578z
			 M56.331,59.385c0.154,2.006,3.044,1.768,4.471,1.6c1.913-0.325,4.423-0.051,4.47-2.236
			C64.365,55.843,56.561,56.072,56.331,59.385z"/>
	</g>
</g>
</svg>
