<?xml version="1.0" encoding="utf-8"?>
<!-- Generator: Adobe Illustrator 16.0.0, SVG Export Plug-In . SVG Version: 6.00 Build 0)  -->
<!DOCTYPE svg PUBLIC "-//W3C//DTD SVG 1.1//EN" "http://www.w3.org/Graphics/SVG/1.1/DTD/svg11.dtd">
<svg version="1.1" id="Layer_1" xmlns="http://www.w3.org/2000/svg"  x="0px" y="0px"
	 width="120px" height="120px" viewBox="4 4 120 120" style="enable-background:new 4 4 120 120;" xml:space="preserve">
<g id="contact-book2">
	<g>
		<path d="M103.273,104.027c-0.717-6.092-0.117-13.498-0.312-20.108c-0.885-4.981-0.584-11.144-0.631-16.964
			c-0.998-8.421-0.943-18.356-0.943-27.965c0.004-5.688-0.218-11.5,0-16.338c0.084-1.785,0.65-3.697,0.315-5.341
			c-0.322-1.591-1.202-2.463-2.513-3.456c-9.931,0.438-20.885-0.148-29.533,1.572H43.264c-2.096-0.316-3.827-0.992-6.284-0.942
			c-0.316,0.519-1.334,0.342-1.888,0.626c-0.829,0.74-1.119,2.023-1.566,3.143c-0.869,0.6-1.54,1.395-2.514,1.885
			c-0.198,0.854,0.396,2.494-0.316,2.828c-3.082-0.15-5.878-0.014-5.971,2.828c0.543,1.972,3.815,1.212,5.657,1.885
			c-0.138,1.434,0.316,3.46-0.314,4.4c-2.74-0.123-5.208,0.025-5.027,2.826c0.238,1.962,3.605,0.791,5.027,1.572
			c0.004,2.286-0.015,3.687,0.314,5.027c-1.911,0.496-3.88,0.938-4.084,3.14c0.589,0.46,0.37,1.726,1.572,1.571
			c0.34,0.81,2.027,0.276,2.512,0.941c0.318,2.195,0.378,4.65,0.314,7.228c-1.743,0.562-4.222,0.384-4.084,2.827
			c0.052,2.148,2.958,1.439,4.084,2.514v5.656c-1.823-0.146-3.304,0.05-4.084,0.941c-0.208,1.674,0.135,2.799,0.944,3.457
			c0.83,0.637,2.599,0.331,3.457,0.944c-0.139,1.433,0.316,3.457-0.316,4.396c-1.906-0.021-4.021-0.25-4.711,0.942
			c-0.048,0.369,0.053,0.893-0.316,0.942c0.185,1.179,0.633,2.091,1.569,2.513c0.963-0.226,1.148,0.322,1.887,0.316
			c0.553,0.182,1.845-0.381,1.888,0.312v4.715c-2.39-0.293-3.896,0.291-4.087,2.197c-0.14,1.396,0.851,1.664,1.256,2.514
			c0.778,0.585,2.399,0.324,3.144,0.941c-0.206,1.682,0.412,4.186-0.313,5.344c-2.523-0.213-4.666-0.621-5.657,1.256
			c-0.305,3.656,3.454,3.25,6.285,3.771c-0.133,1.492,0.454,2.267,0.626,3.456c-0.043,1.211-1.061,1.452-0.941,2.826
			c0.928,1.914-0.1,3.857,0.627,5.971c2.262,1.063,5.436,0.629,8.485,0.629h9.11c9.901-0.992,19.506-2.274,29.848-2.828
			c3.615,0.576,8.201,0.181,11.938,0.629c0.773,0.804,2.657,0.486,3.773,0.943c2.91,0.188,5.365-0.08,6.597-1.572
			c0.419-0.941,0.321-2.402,0.313-3.771C102.492,106.182,103.064,105.284,103.273,104.027z M76.566,104.97
			c-10.494-0.423-21.021,0.733-30.789,0h-9.111c0.092-1.661-0.815-2.329-0.628-4.084c2.906-0.024,6.453,0.591,6.595-2.198
			c-0.012-3.232-3.644-2.848-6.911-2.828v-5.344c3.757-0.324,9.425,1.254,9.741-2.512c-0.335-3.958-6.666-1.921-10.055-2.828
			c0.156-1.728-0.347-4.115,0.314-5.339c2.131-0.021,7.602,2.574,7.853-1.571c-0.032-3.107-3.904-2.377-6.283-3.144
			c0.222-1.788-0.531-2.608-0.312-4.396c2.965-0.076,6.661,0.584,7.227-1.89c0.256-3.921-4.252-3.076-7.854-3.138v-6.285
			c2.761,0.109,6.731,2.245,7.542-0.944c-0.407-3.364-4.291-3.25-7.542-3.771v-7.225c1.964,0.694,5.188,0.529,5.341-1.573
			c-0.406-2.419-2.379-3.275-5.341-3.14v-6.283c2.713-0.009,5.924,0.478,6.281-1.887c-0.129-2.8-3.241-2.62-6.281-2.512v-4.087
			c2.022,0.101,3.576,0.638,4.397-0.942c0.283-1.748-0.685-2.243-1.256-3.143c-0.957-0.404-2.879,0.157-2.826-1.256v-1.256
			c1.198-0.047,1.512,0.791,2.512,0.943h27.963c1.224-0.348,2.926-0.217,4.084-0.629h22.619c0.575,4.919,0.315,9.979,0.315,15.396
			v15.71c0.756,6.782,1.258,13.822,1.885,20.735c0.193,10.177-0.394,21.132,0.312,30.79
			C90.466,105.254,82.471,104.064,76.566,104.97z M99.189,99.943v-1.57c0.006-0.74-0.545-0.928-0.315-1.887
			c1.045,0.111,0.495,1.812,0.628,2.828C99.635,99.92,99.289,100.449,99.189,99.943z M79.08,66.639
			c-0.911-0.342-2.219-0.293-2.828-0.938c-0.889-0.368-2.079-0.438-2.51-1.259c0.641-0.823,0.984-1.948,0.941-3.456v-9.111
			c-0.388-1.918-0.838-3.771-1.261-5.656c-1.047-1.045-1.897-2.289-3.144-3.143c-2.442-0.353-4.061,0.085-5.965,0.943
			c-0.595,1.082-1.822,1.531-2.198,2.828c-0.897,0.882-1.145,2.418-1.887,3.457c-0.603,6.046,1.693,9.197,2.827,13.508
			c-1.15,0.421-1.465,1.68-2.514,2.2c-0.709,0.964-1.981,1.368-2.829,2.2c-0.841,0.83-2.112,1.234-2.826,2.198
			c-1.13,0.546-1.562,1.786-2.513,2.515c-0.184,2.327-0.772,4.254-0.627,6.913c0.917,0.966,1.267,2.501,2.201,3.454
			c8.358,0.964,16.644-0.695,25.446-0.314c1.875-0.326,3.574-0.824,5.027-1.569c0.379-0.671,0.385-1.712,1.258-1.886
			c0.479-2.25,0.479-5.918,0-8.17C84.258,69,81.354,68.141,79.08,66.639z M82.54,77.008c-1.72,0.629-4.899,0.973-6.915,0.314
			c-1.057,0.322-0.49-0.977-0.627-1.572c-0.455-0.174-0.77-0.49-0.943-0.941c-2.893-1.092-7.492-0.468-11.312-0.629
			c-1.033,0.23-0.479-0.625,0-0.628c0.11-0.413,0.554-0.495,0.63-0.942c0.655-0.391,1.179-0.914,1.57-1.57
			c0.959-1.239,1.93-2.471,2.826-3.77v-4.084c-0.816-2.22-0.56-5.513-1.883-7.228v-4.398c0.137-1.755,1.446-3.271,0.94-4.713
			c0.077-0.342,0.625-0.215,0.627-0.629h0.629c2.64,0.398,2.481,3.592,3.144,5.97v8.798c-0.273,1.404-0.765,2.588-0.629,4.398
			c0.979,2.268,3.579,2.914,5.969,3.771c2.345,0.9,4.521,1.972,5.974,3.771V77.008z"/>
	</g>
</g>
</svg>
