<?xml version="1.0" encoding="utf-8"?>
<!-- Generator: Adobe Illustrator 16.0.0, SVG Export Plug-In . SVG Version: 6.00 Build 0)  -->
<!DOCTYPE svg PUBLIC "-//W3C//DTD SVG 1.1//EN" "http://www.w3.org/Graphics/SVG/1.1/DTD/svg11.dtd">
<svg version="1.1" id="Layer_1" xmlns="http://www.w3.org/2000/svg"  x="0px" y="0px"
	 width="120px" height="120px" viewBox="4 4 120 120" style="enable-background:new 4 4 120 120;" xml:space="preserve">
<g id="contact-book1">
	<g>
		<path d="M105.992,94.043c-1.098-1.459-1.893-3.215-4.151-3.513c-1.729-0.027-2.653,0.751-4.472,0.64
			c0.205-1.074-0.41-2.967,0.322-3.516c2.274-0.699,5.932-0.03,7.664-1.275c1.084-2.855,0.584-7.293,0.959-10.855
			c-0.551-0.41-1.256-0.662-1.281-1.599h-6.705c-0.947-0.653-1.415-3.47-0.637-4.79c2.371-0.182,5.49,0.383,7.342-0.318
			c0.968-2.866-0.492-8.162,0.959-10.539c-1.189-0.512-2.118-1.287-4.151-0.957c-1.845-0.144-3.272,0.134-4.79,0.317
			c-0.146-1.142-0.785-3.456,0-4.469c2.482,0.245,3.982-0.491,6.387-0.321c2.226-1.535,2.273-8.621,0.32-10.537
			c-0.961-0.427-2.439-0.325-3.834-0.32H98.01c-0.426-0.047-1.191,1.074-1.277,0.32c0.447-0.918-0.869-1.623,0-1.916
			c0.192-0.764-0.399-2.318,0.318-2.555c2.268,0.243,3.648-0.397,5.75-0.319c0.768-0.937,2.033-1.372,3.191-1.917
			c0.344-2.473-0.734-3.522-0.959-5.429c-0.127-1.362,0.312-3.29-0.317-4.151c-1.962-1.231-4.937,0.105-7.983-0.32
			c-0.422-3.09,0.343-7.367-1.596-8.939c-3.884-0.592-8.24-0.703-12.775-0.641c-4.713-0.821-9.983-1.084-15.646-0.958
			c-7.159-2.498-17.124-0.658-25.548-0.639c-1.799,0.542-3.436,1.246-5.107,1.917c0.237-1.941-1.305-2.102-2.556-2.555h-0.64
			c-0.053,0.371-0.505,0.346-0.958,0.318c-0.651,1.589-2.752,1.719-3.193,3.514c-0.132,1.359,0.305,3.29-0.32,4.15
			c-3.292-0.098-6.64-0.251-6.708,2.876c0.548,2.003,3.878,1.229,5.75,1.917c-0.141,1.455,0.321,3.514-0.321,4.469
			c-2.783-0.124-5.294,0.027-5.11,2.874c0.244,1.995,3.667,0.805,5.11,1.597c0.003,2.326-0.013,3.749,0.321,5.109
			c-1.946,0.506-3.945,0.952-4.152,3.193c0.247,0.07,0.37,0.267,0.32,0.639c0.483,1.432,2.587,1.244,3.832,1.916v7.665
			c-2.198-0.069-3.79,0.472-3.832,2.554c0.139,0.923,0.672,1.457,1.595,1.598c0.241,0.823,2.362-0.234,2.237,0.959v5.748
			c-1.781-0.185-3.048,0.146-3.832,0.957v2.234c0.399,1.729,2.915,1.342,3.832,2.557c-0.129,1.359,0.308,3.289-0.321,4.15
			c-1.815-0.113-3.486-0.078-4.149,0.957c-0.053,0.377,0.054,0.908-0.322,0.959c0.085,1.195,0.741,1.814,1.279,2.557
			c0.461,0.175,1.648-0.373,1.595,0.317c0.563,0.185,1.878-0.386,1.918,0.32v4.471c-1.662,0.36-3.443,0.599-3.513,2.556
			c-0.023,1.192,0.511,1.825,1.276,2.233c0.101,1.07,2.021,0.322,2.237,1.277c-0.159,1.757,0.354,4.184-0.321,5.429
			c-2.068-0.564-3.949-0.201-4.789,1.277c-0.234,3.32,2.834,3.342,5.428,3.832v2.875c-1.411-0.026-2.828-0.062-2.873,1.276
			c-0.27,2.396,2.694,1.56,4.15,2.235c0.905,0.9,0.944,2.679,1.277,4.15c1.162,0.969,2.643,1.617,4.47,1.916h7.983
			c16.042,1.131,31.555-1.015,47.906-0.638c1.682-0.604,2.346-0.526,4.146-0.641c0.447-0.726,1.105-1.236,1.599-1.913
			c0.741-0.434,1.2-1.143,1.598-1.918c-0.217-1.168-0.446-2.32-0.317-3.834c2.858-0.118,5.718-0.239,7.664-1.273
			C106.493,101.143,105.812,97.162,105.992,94.043z M98.328,74.244c-0.051,0.375-0.58,0.27-0.959,0.318
			C97.422,74.189,97.953,74.295,98.328,74.244z M97.369,77.438c1.431-0.076,3.525-0.781,4.791,0v6.066
			c-1.188-0.518-3.143-0.266-4.791-0.318V77.438z M97.369,60.193c1.927,0.009,3.289-0.544,5.432-0.319v5.748h-5.432
			C97.654,64.21,97.211,62.36,97.369,60.193z M96.732,44.545c0.449-0.456,1.551,0.07,2.235,0.32
			c1.082,0.086,2.589-0.248,3.191,0.318v4.789H96.73v-5.427H96.732z M97.051,28.897c0.055-0.372-0.068-0.568-0.318-0.64
			c0.818-0.59,3.629-0.446,4.472,0v6.388c-1.431,0.276-2.631,0.776-4.472,0.638C96.488,32.803,97.146,31.229,97.051,28.897z
			 M89.387,105.54c-5.717-0.351-11.639-0.496-17.246-0.96c0.558-1.786,1.396-3.285,1.279-5.745c-1.91-0.315-1.918,1.274-2.557,2.233
			c-0.565,1.033-0.955,2.236-1.275,3.512h-5.11c0.334-2.113,1.551-3.344,1.917-5.428c1.01-1.205,1.422-4.079-0.321-4.788
			c-1.198,0.075-1.242,1.31-1.595,2.233c-0.419,0.856-0.856,1.697-1.278,2.555c-0.429,2.021-1.364,3.531-1.915,5.428
			c-1.833,0.084-4.072-0.236-5.431,0.32c1.237-1.642,2.027-3.724,2.877-5.748c0.698-1.879,2.615-3.803,1.915-6.066
			c-2.439,0.221-3.13,2.191-3.829,4.15c-1.186,1.369-1.605,3.51-2.557,5.108c-0.507,1.578,0.932,2.167,0.319,2.875
			c-1.424-0.249-1.917,0.427-3.197,0.319c0.768-3.281,2.873-5.221,3.516-8.621c-0.251-1.029-0.806-1.75-1.6-2.234
			c-2.795,0.272-3.167,3.153-4.148,5.108c-1.055,2.094-2.376,4.089-3.194,6.065c-3.17,0.873-6.246,1.846-10.538,1.598
			c-1.493-0.036,0.228-0.586,0.318-0.957c0.469-0.278,1.011-0.479,0.958-1.278c-0.074-1.098-0.951-1.392-1.918-1.598
			c-0.552-0.511-0.69-1.437-0.637-2.554c2.904,0.139,5.79,0.258,5.747-2.555c-0.271-2.604-3.087-2.662-6.066-2.557V90.53
			c3.543-0.183,8.378,0.93,8.939-2.233c0.209-4.254-5.851-2.24-8.939-3.193v-5.431c2.555,0.659,7.176,2.106,7.026-1.915
			c-0.485-2.814-4.304-2.297-7.026-2.875v-4.471c3.08-0.113,7.065,0.678,7.666-1.916c0.25-3.871-4.068-3.172-7.666-3.193v-6.387
			c1.752,0.376,3.674,0.583,5.429,0.958c0.954-0.319,1.597-0.958,1.915-1.916c-0.272-3.666-4.901-2.976-7.663-4.152v-6.705
			c0.591-0.358,2.373,0.228,3.831,0c0.79-0.382,1.249-1.095,1.598-1.917c-0.412-2.461-2.417-3.331-5.429-3.193v-6.387
			c2.76-0.01,6.022,0.486,6.385-1.914c-0.149-2.728-3.042-2.706-6.066-2.557V26.98c1.708,0.071,2.628,0.531,3.831-0.316
			c-0.05-0.372,0.069-0.57,0.321-0.641c0.233-1.512-0.456-2.098-0.958-2.874c-0.663-0.614-2.187-0.371-2.874-0.958v-1.277
			c0.254-0.061,0.318-0.32,0.637-0.32c0.421,0.326,1.178,0.314,1.599,0.639c12.606,0.044,25.164,0.042,37.362-0.318
			c5.543,0.738,11.279,1.281,16.607,2.235C90.641,51.229,89.488,77.857,89.387,105.54z M102.16,100.111
			c-1.95,0.246-2.985-0.418-4.791-0.318v-5.429c1.459,0.138,3.516-0.323,4.472,0.319C102.512,95.926,102,98.355,102.16,100.111z
			 M77.891,48.696c-1.254-0.556-2.479-1.143-3.512-1.915c-3.84-0.266-7.33-2.383-11.498-1.277h-3.51
			c0.225,0.866-1.508-0.229-1.281,0.639c-0.975-0.232-0.938,0.551-1.916,0.318c-0.898,0.912-1.933,1.685-3.194,2.235
			c-0.522,1.501-1.872,2.173-2.556,3.513c-1.218,0.807-1.46,2.582-2.555,3.515c-1.423,4.214-1.341,9.936-1.273,15.647
			c0.471,0.059,0.29,0.771,0.319,1.277c1.192,1.824,2.313,3.922,4.149,5.429c0.325,0.267,0.835,0.343,1.278,0.638
			c0.486,0.326,0.987,0.942,1.277,0.958c0.37,0.021,0.14,0.205,0.317,0.32c3.664,2.372,7.669,3.147,13.417,2.874
			c0.373-0.367,1.125-0.361,1.912-0.319c2.271-1.349,5.383-1.858,7.024-3.833c-1.153-0.498-2.502-0.971-3.511,0
			c-1.19,0.408-2.174,1.021-3.516,1.278h-6.068c-2.193-0.679-4.469-1.28-6.064-2.556c-1.493-1.381-3.468-2.283-4.473-4.152
			c-1.611-3.865-1.563-10.389-0.636-15.008c1.948-2.943,3.649-6.141,7.024-7.664c1.08-0.563,2.495-0.162,3.832-0.32
			c1.01-0.118,1.878-0.495,2.874-0.639c3.124-0.451,5.151,0.074,7.665,0.639c1.979,1.854,4.117,3.547,5.109,6.387
			c0,0.32,0.259,0.381,0.318,0.641c-0.068,2.484,0.225,5.33-0.318,7.344c-0.381,1.004-1.078,1.688-1.277,2.875
			c-1.115,0.375-0.809,2.169-2.234,2.233c-1.824-2.006-0.604-7.061-0.961-10.537c-0.506-0.228-0.447-1.103-0.637-1.599
			c-0.277-0.726-0.281-1.268-0.957-1.596c-2.189-0.378-1.59,2.03-3.195,2.235c-1.096-1.352-1.764-3.137-3.832-3.514
			c-2.448-0.317-3.406,0.85-5.108,1.278c-0.178,0.459-0.5,0.779-0.956,0.958c0.631,0.736-0.081,0.354-0.321,0.958
			c-1.259,0.124-1.471,1.298-2.233,1.916c-0.6,3.235-1.207,6.463-0.963,10.538c1.559,2.062,4.285,2.955,8.306,2.555
			c1.195-0.61,2.146-1.473,2.871-2.555c0.564-0.289,0.99-0.716,1.277-1.277c0.445-0.127,0.907-1.812,1.279-0.959
			c-0.105,1.486,0.637,2.132,0.641,3.515c1.566,0.24,1.863,1.754,3.51,1.916c1.55,0.059,2.561-0.422,3.837-0.64
			c1.565-1.092,3.194-2.125,4.469-3.514c0.377-1.642,0.819-3.228,1.276-4.789c0.271-3.891-0.418-6.823-0.959-9.9
			C81.072,52.541,79.643,50.457,77.891,48.696z M66.395,64.346c-0.334,1.158-0.998,1.981-1.917,2.552
			c-0.64,0.85-1.096,1.885-2.873,1.599c-1.337-0.687-1.319-2.728-1.278-4.789c0.263-1.551,0.839-2.78,1.278-4.154
			c1.309-0.135,2.046,0.298,2.873,0.641c1.129-0.173,0.786,1.131,1.917,0.958V64.346z"/>
	</g>
</g>
</svg>
