<?xml version="1.0" encoding="utf-8"?>
<!-- Generator: Adobe Illustrator 16.0.0, SVG Export Plug-In . SVG Version: 6.00 Build 0)  -->
<!DOCTYPE svg PUBLIC "-//W3C//DTD SVG 1.1//EN" "http://www.w3.org/Graphics/SVG/1.1/DTD/svg11.dtd">
<svg version="1.1" id="Layer_1" xmlns="http://www.w3.org/2000/svg"  x="0px" y="0px"
	 width="120px" height="120px" viewBox="4 4 120 120" style="enable-background:new 4 4 120 120;" xml:space="preserve">
<g id="address">
	<g>
		<path d="M113.8,37.4c-0.7-2.1-3.6-2.2-5.1-3.5c-1.7-1.2-4-1.9-5.9-3c-0.899-0.5-1.3-1.4-2.2-1.9c-0.5-0.9-1-1.8-2.199-2.2
			c-2.601,0.5-5.7,0.6-8.301,1.1C81,27.8,71,28.4,63,27.1c-0.2-2.5,0.5-5.9-0.8-7.3c-1.5-1.6-4.9-1.2-7.5-1.6
			c-1.7,0.4-3.2,1.1-4,2.4c0,0.3,0,0.8-0.3,0.8c0.2,0.9-0.3,2.5,0.3,3c-0.2,1.2,1.2,0.9,1.1,2.2c-0.6,3,0.1,8.4-0.5,10.5
			c-3.9-0.1-6.8,0.7-10.8,0.5c-1.4,0.1-1.8-0.9-3.5-0.5c-5.1,1-8.4,3.8-12.1,6.2c-1.7,1.4-3.8,2.3-5.4,3.8c-1.3,0.3-1.7,1.4-3,1.6
			c-0.7,0.8-2.2,0.9-2.2,2.4c-0.8,0.2,0.3,0.6,0,1.1c0.6,0,0.1,1,0.3,1.3c0.5,0.5,0.5,1.7,1.3,1.9c0.6,1.5,2.1,2.2,3,3.5
			c1.4,0.8,2.4,1.9,3.5,3c1.6,0.6,2.9,1.4,4,2.4c1-0.2,2-0.4,3.2-0.3c1.2,0.5,2.8,0.6,4,1.1c4.4,0.101,8.3,0.7,12.9,0.5
			c1.5-0.3,3.1-0.5,4.6-0.8c0.5,11.7,0,24.4,0.5,36c-0.3,2.3-0.8,4.7,0,6.7c1.1,1,2.4,1.7,4.3,1.9c2.1-0.101,3.4-1.101,4.6-2.2
			c0.7-2.101,0.6-5,0.5-7.8c1.3-9.601,1.4-21.7,1.9-31.2c-0.1-6.2-0.4-9.6,0-14.3c8.1,0.7,18.2,1.3,26.4,0.3
			c3.101,0.7,6.3-0.1,9.7,0c1.2-0.7,2.4-1.3,3.2-2.4c1.399-0.5,1.8-2,3.2-2.4c1.699-2.1,4.6-3.1,6.699-4.8
			c0.301-1,0.9-2.1,0.301-3.2C113.6,40.6,114.3,39,113.8,37.4z M38,59.4c0.7-0.9,1.5-1.8,2.2-2.7c0.6,0.2,0.9,0.6,1.3,0.8
			C40.7,58.6,40.2,59.9,38,59.4z M51.2,57.8c-0.8,0.2-0.8,0.2-1.6,0c-1.1,0.8-2.5,1.5-4.6,1.3c-1.2,0.1,0.8-1.7-0.3-2.4
			c-0.6-1.6-3.5-0.9-4.8-1.6c-1.2,0.3-2.1,1-3,1.6c-1.8,0.7-2.2,4-4.8,3c0-1.2,0.8-1.7,1.1-2.7c0.5-0.7,1.7-0.7,1.9-1.6
			c0.2-1-0.8-0.8-1.6-0.8c-1-0.2-1,0.7-1.6,0.8c-0.6,0.9-1.3,1.8-1.6,3c-3.1-1.3-5.4-3.4-8.1-5.1c0.8-1.2,2.7-1.2,3.8-2.2
			c2.7-1.1,5.2-2.4,7.5-3.8c1.6-0.3,2.3-1.4,3.8-1.9c0-0.8,0.7-0.9,0.8-1.6c4,0.7,9,0.1,13.2,0v14H51.2z M58.2,28.8
			c-0.9-1.1-0.5-3.5-0.8-5.1h0.8V28.8z M73.2,49.5c0.1-0.4,0.399-0.7,0.5-1.1C74.4,48.5,74.1,50,73.2,49.5z M104.7,41.1
			c-0.5,0.6-1.3,0.9-1.9,1.3c-2.1,1.8-4.2,3.5-5.899,5.6c-3.9,0.6-8.4,0.5-12.4,1.1c-1.1,0.1,0-0.7,0-1.1c0.6-0.1,0.2-1.4,0-1.6
			c-0.9-0.5-1.5,0.3-2.2,0.8c-0.8,0.5-1.5,1-1.899,1.9C79.1,49.5,77.3,49.4,75.6,49.4c-0.199-1.5-0.6-2.8-1.1-4
			c-1.7-0.1-2.5,0.7-3.8,1.1c0,0.3-0.4,0.2,0,0c0.399-1.2,2.2-3,0.8-4.3c-2.1,0.4-3.4,1.6-4.3,3.2c-0.8,0.4-1.101,1.4-1.601,2.2
			c-0.699,0.5-0.399,2.1-2.2,1.6c-1.1,0.2,0.1-1.1,0.3-1.3c0.1-0.9,0.6-1.3,1.1-1.9c0.4-1.4,1.9-2.6,1.3-4c-1.1-0.8-2.1,0.3-3,0.5
			c0,0.3-0.4,0.2,0,0c0.6-2.3,2.7-3.2,3-5.9C66,35,63.7,34.9,63,36c-0.6-0.5-0.1-2.1-0.3-3c4.2,0.5,8,1.3,12.399,1.6
			c7-0.1,14.601,0.4,20.4-0.8c2.1,0.7,3.1,2.4,5.4,3c1.8,1,3.399,2.1,5.399,3C106.2,40.6,105.3,40.7,104.7,41.1z"/>
	</g>
</g>
</svg>
