<?xml version="1.0" encoding="utf-8"?>
<!-- Generator: Adobe Illustrator 16.0.0, SVG Export Plug-In . SVG Version: 6.00 Build 0)  -->
<!DOCTYPE svg PUBLIC "-//W3C//DTD SVG 1.1//EN" "http://www.w3.org/Graphics/SVG/1.1/DTD/svg11.dtd">
<svg version="1.1" id="Layer_1" xmlns="http://www.w3.org/2000/svg"  x="0px" y="0px"
	 width="120px" height="120px" viewBox="0 0 120 120" enable-background="new 0 0 120 120" xml:space="preserve">
<g id="file-ai">
	<g>
		<path d="M98.35,47.069c0.084-1.725,0.726-2.887,0.856-4.559c0.222-4.442-0.056-7.055,0-12.251
			c-0.038-4.425-0.015-8.911-0.856-12.532c-1.791,0.015-3.332,0.273-4.842,0.571c-0.818-0.512-1.652-1.011-3.134-0.854
			c-15.562-0.017-30.669-0.479-46.433-0.288c-0.41,0.159-0.693,0.445-0.855,0.854c-0.66,0.856-1.264,1.775-1.992,2.562
			c-0.533,0.508,0.34,0.836-0.283,1.427c-0.504,0.261-0.883,0.637-1.143,1.142c-1.533,1.501-3.022,3.054-3.985,5.127
			c-1.017,0.506-1.181,1.858-1.995,2.562c-0.805,0.715-0.902,2.135-1.712,2.85c-0.066,1.448-1.229,1.807-1.706,2.847
			c-0.703,0.99-1.956,1.513-1.994,2.846v6.557c0.195,1.701,0.758,3.04,0.856,4.841c-1.026,14.454-0.145,30.814-0.856,45.581
			c0.166,2.396-0.35,5.477,0.283,7.4v1.999c-0.17,0.504,0.836,1.181,0,1.421c-0.443,1.087-0.695,1.812,0,2.848
			c1.266,1.112,3.592,0.283,5.415,0.287c1.604-0.578,3.921-0.449,5.694-0.854c9.254-0.155,15.908,0.41,24.213-0.284
			c7.928-0.821,16.438-0.511,24.785-0.286c2.574,0.352,6.115,0.992,8.544,0.57c0.72-0.516,1.253-1.219,1.425-2.28
			c0.189-1.138,0.855-1.801,1.141-2.849C100.262,84.305,98.816,64.907,98.35,47.069z M43.941,26.559
			c-0.607,0.13-0.541-0.408-0.568-0.854C43.725,25.828,43.957,26.066,43.941,26.559z M41.664,27.697h0.854
			c0.378,1.427,1.372,2.237,2.279,3.134c-0.221,1.17,0.439,1.461,0.287,2.561c-1.34-0.086-1.156-1.695-2.279-1.992
			c-0.412-1.014-1.156-1.689-1.994-2.275C40.977,28.53,41.41,28.203,41.664,27.697z M40.811,33.392
			c0.352,0.887,0.939,1.531,1.707,1.998c-0.255,0.773-1.047-0.238-1.139-0.572c-0.418-0.246-0.9-0.424-0.854-1.137
			c-0.772-0.562-1.365-1.299-1.713-2.281C39.919,31.627,39.898,32.976,40.811,33.392z M36.533,34.249
			c0.688,0.55,0.947,1.525,1.712,1.996c-0.761,0.566-2.51,0.144-3.419,0.566C35.23,35.792,36.059,35.194,36.533,34.249z
			 M92.654,104.895c-1.459,0.125-1.564-1.103-2.854-1.143h-5.98c-10.951-1.042-21.319,0.875-32.188,0.857
			c-1.155,0.269,0.36-1.547-0.569-1.995c-1.281-0.138-0.801,1.479-1.428,1.995h-3.984c-1.299-0.205-2.89,0.316-3.417,0
			c0.39-1.65,1.759-3.356,1.138-5.129c-1.832-0.313-2.046,0.992-2.848,1.709c-0.232,1.291-1.137,1.901-1.143,3.42
			c-1.214-0.114-2.932,0.273-3.7-0.286c0.226-2.519,2.326-4.388,1.708-6.834c-2.277,0.188-2.659,2.278-3.417,3.983
			c-1.05-0.603-0.44-2.389,0-3.133c0.7-0.725,0.649-2.197,1.424-2.849c0.436-2.415,1.812-3.888,1.993-6.554
			c-0.852-0.709-1.92,0.189-1.993,1.142c-0.585,0.192-0.936,2.077-1.424,1.426v-2.276c0.361-1.259,1.081-2.147,1.709-3.136
			c0.432-2.319,1.503-4.004,1.993-6.266c0.238-2.003,2.033-4.318,0.855-5.982c-1.262-0.122-1.998,0.277-2.564,0.854
			c-0.691,0.088-1.261,1.756-1.711,1.139c-0.143-11.063,0.506-21.331,0.287-32.469c0.176-1.32-0.639-1.642-0.569-2.854h4.271
			c1.929-0.351,3.827-0.727,6.269-0.567c1.896-0.568,4.259-0.677,5.696-1.713c0.26-0.497,0.097-1.417,0.567-1.706
			c-0.441-2.497-0.648-5.235-1.141-7.692c-0.414-2.526-1.225-4.658-1.422-7.404c2.907-0.174,6.147-1.074,9.115-0.285
			c10.746-0.207,19.883,1.197,30.479,1.143c1.885,0.153,4.147,0.962,5.984,0.283c0.001,1.238,0.094,2.562-0.288,3.417
			c0.542,1.071,0.026,3.202,0.567,4.271c0.455,22.711,0.16,46.181,0.856,68.651C94.111,100.845,94.529,104.016,92.654,104.895z
			 M63.312,58.747c-0.648-0.397-1.105-0.986-1.711-1.425h-0.855c-0.002,0.372-0.496,0.263-0.568,0.568
			c-0.877,0.546-0.797,2.052-1.704,2.564c-0.604,3.579-1.812,6.549-2.568,9.973c-0.642,1.444-0.686,3.487-1.424,4.843
			c-0.452,1.895-0.452,4.229,1.712,4.271c2.33-0.042,2.001-2.747,2.846-4.271h3.987c1.06,2.269,0.277,6.369,3.134,6.84
			c2.18-0.106,2.103-2.463,1.993-4.848C66.488,71.145,64.529,65.316,63.312,58.747z M59.611,71.852
			c0.248-1.744,0.711-3.273,0.852-5.129c0.902,1.282,0.912,3.461,1.711,4.846C61.873,72.213,60.385,71.673,59.611,71.852z
			 M74.137,59.602c-0.902-0.048-1.717-0.009-1.992,0.569c-0.756,1.336-0.773,3.402-0.855,5.416
			c-0.398,1.589-0.209,3.772-0.566,5.407v5.697c-0.014,1.912,0.287,3.514,1.992,3.703c1.123-0.25,1.817-0.791,1.992-1.426
			c0.453-1.633,0-3.959,0-5.695v-9.398C74.961,62.359,75.355,60.329,74.137,59.602z"/>
	</g>
</g>
</svg>
