<?xml version="1.0" encoding="utf-8"?>
<!-- Generator: Adobe Illustrator 16.0.0, SVG Export Plug-In . SVG Version: 6.00 Build 0)  -->
<!DOCTYPE svg PUBLIC "-//W3C//DTD SVG 1.1//EN" "http://www.w3.org/Graphics/SVG/1.1/DTD/svg11.dtd">
<svg version="1.1" id="Layer_1" xmlns="http://www.w3.org/2000/svg"  x="0px" y="0px"
	 width="120px" height="120px" viewBox="0 0 120 120" enable-background="new 0 0 120 120" xml:space="preserve">
<g id="alien">
	<g>
		<path d="M103.54,57.161c-0.007-5.519-0.604-10.446-2.233-14.346c-0.664-2.093-1.406-4.119-2.549-5.737
			c-0.039-1.343-1.232-1.529-1.275-2.872c-1.075-0.405-0.498-2.471-1.273-3.187c-1.596-1.918-3.789-3.225-5.102-5.418
			c-1.258,0.086-0.974-1.363-2.232-1.278c-0.266-1.006-1.641-0.905-1.908-1.911c-1.752-0.804-3.129-1.976-4.783-2.868
			c-3.232-0.165-5.299-1.505-7.972-2.231c-2.634-0.135-4.966-0.249-7.649-0.957H60.82c-0.067,0.248-0.264,0.367-0.634,0.316
			c-10.236,0.076-15.883,4.736-23.273,7.651c-1.949,1.77-3.075,4.362-5.101,6.062c-0.288,1.516-1.899,1.707-2.233,3.185
			c-1.289,0.622-1.628,2.195-2.549,3.188c-0.689,1.435-0.216,4.035-1.273,5.101c-0.245,1.884-0.664,3.588-0.957,5.421
			c-0.37,3.876-0.355,8.145-0.32,12.432c1.079,6.365,3.127,11.752,5.738,16.576c0.953,2.769,2.566,4.877,3.508,7.651
			c0.881,1.029,1.308,2.521,2.233,3.508c0.301,1.615,1.539,2.285,1.909,3.826c0.773,0.504,1.412,1.141,1.916,1.912
			c0.602,0.67,1.833,0.713,2.23,1.596c2.25,3.275,4.986,6.062,7.971,8.607c0.024,0.892,0.889,1.243,1.278,1.91
			c0.38,0.663,0.433,1.61,0.952,2.23c0.793,0.591,1.994,0.771,2.869,1.275c0.924,0.565,1.049,1.928,2.549,1.914
			c1.578,0.317,2.191,0.082,3.826,0.635c3.061-1.187,5.924-2.574,7.648-5.101c2.457-1.899,4.488-4.229,7.018-6.054
			c0.875-0.934,1.133-2.486,1.916-3.512c1.148-0.332,1.766-1.209,2.545-1.91c0.835-0.767,2.014-1.178,2.553-2.231
			c2.082-1.108,3.25-3.13,5.104-4.464c0.141-1.137,1.154-1.396,1.591-2.229c1.278-2.445,2.903-4.543,3.829-7.334
			c2.277-2.295,3.795-5.346,5.74-7.972c0.621-2.241,1.588-4.147,2.229-6.377c0.021-1.464,0.922-2.058,0.637-3.826
			C102.982,59.582,103.411,58.518,103.54,57.161z M94.932,70.867c-0.8,0.902-1.504,1.896-2.551,2.551
			c-1.333,3.982-4.518,6.107-6.055,9.889c-0.842,0.752-1.924,1.262-2.236,2.549c-1.349,0.451-2.14,1.475-3.183,2.229
			c-0.915,0.894-2.198,1.416-2.868,2.554c-2.023,1.586-3.814,3.416-5.74,5.098c-3.792,3.438-7.635,6.816-12.433,9.244
			c-2.046-0.82-2.948-2.789-4.145-4.459c-2.725-2.801-5.255-5.795-7.97-8.613c-2.178-3.238-4.473-6.368-7.014-9.242
			c-2.688-6.879-6.686-12.441-8.608-20.083v-6.694c0.661,0.081,0.089,1.399,0.635,1.594c-0.005,0.751,0.55,0.938,0.32,1.915
			c0.623,0.761,0.805,1.958,1.274,2.866c0.881,1.457,1.669,3.006,2.871,4.146c0.588,1.757,1.902,2.774,2.551,4.461
			c1.779,1.616,3.759,3.043,5.42,4.78c2.981,1.062,5.158,2.921,8.285,3.83h2.871c1.236-0.039,0.987-1.564,2.232-1.594
			c-0.597-2.311,0.227-5.062,0.637-7.334c-1.146-0.77-0.588-3.24-1.596-4.146c-0.075-1.836-1.341-2.482-1.59-4.146
			c-1.654-2.174-2.872-4.778-5.104-6.374c-1.715-2.111-3.846-3.808-6.695-4.785c-2.055-1.66-5.618-1.816-8.286-2.868
			c-1.308-0.031-2.613-0.062-3.509,0.32c0.117-2.753,0.596-5.146,1.275-7.332c1.681,0.189,2.737-0.235,4.143-0.32
			c1.193-0.188,2.385-0.381,2.551-1.592c-0.437-1.795-3.304-1.156-5.42-1.276c0.186-1.734,1.191-2.639,3.508-2.229
			c1.879,0.069,3.445-0.176,4.146-1.275c-0.269-1.745-3.503-1.526-4.784-1.275c1.012-3.67,6.39-2.967,9.565-4.464
			c0.927,0.559,2.247,0.722,3.507,0.956c0.771,0.607,2.563,0.199,3.822,0.314c0.795-0.378,1.25-1.09,1.598-1.91
			c-0.191-1.724-1.266-2.559-3.508-2.231c0.297-1.194,2.56-0.415,3.826-0.636h4.143c1.166-0.449,2.926-0.015,4.147-0.32
			c1.298-0.327,2.05-0.576,2.55-1.596c-0.385-0.681-0.391-1.735-1.271-1.911c-0.568-0.366-2.498-0.06-1.599-0.958
			c0.871,0.234,0.642-0.635,1.276-0.635c4.078,0.484,7.285,1.85,11.793,1.911c4.83,2.501,8.688,5.976,13.07,8.929
			c3.76,6.547,7.93,12.686,8.61,22.316C98.646,59.708,97.339,65.839,94.932,70.867z M45.836,60.031V58.12
			c1.449,1.314,3.104,2.421,3.826,4.461c-0.424,0.321-0.963,0.522-1.275,0.958C47.25,62.658,48.16,59.725,45.836,60.031z
			 M50.938,64.495c1.008,0.798,1.434,2.179,1.912,3.505C51.516,67.525,51.068,66.17,50.938,64.495z M53.486,70.234
			c-0.457-0.395-0.602-1.099-0.637-1.914C53.408,68.613,53.554,69.318,53.486,70.234z M86.965,51.424
			c-1.572,0.562-2.318,1.934-4.467,1.909c-1.883,2.261-4.816,3.477-7.01,5.422c-1.783,2.259-3.357,4.722-5.102,7.015
			c-0.674,1.348-1.562,2.479-2.236,3.825c-0.801,1.214-1.07,2.966-2.229,3.823c-0.492,1.389,1.409,1.768,0,2.23
			c-0.006,0.996-0.759,2.082,0,2.873c0.852,0.85,2.41,0.986,4.143,0.957c2.438-0.648,4.808-1.357,6.377-2.869
			c2.68-0.515,4.311-2.064,7.016-2.551c2.287-1.855,4.193-4.098,6.057-6.377c1.656-2.49,2.652-5.636,4.146-8.288
			c-0.229-0.977,0.324-1.164,0.316-1.915c-0.018-2.322,0.203-4.881-0.641-6.379C91.117,51.551,89.367,50.891,86.965,51.424z
			 M75.165,66.723c-1.578-0.516-0.488-1.617,0-2.548C76.141,64.764,74.799,65.689,75.165,66.723z M83.137,59.396
			c-0.269,0.364-0.422,0.854-0.318,1.593c-0.389,0.672-1.199,0.928-1.273,1.907c-0.566,0.183-1.322,0.17-1.596,0.644
			c-0.449-0.824-0.557-1.998-0.955-2.868c1.055-0.541,2.023-1.165,2.869-1.916c0.447,0.028,0.902,0.055,0.955-0.317
			C84.044,58.382,82.934,58.698,83.137,59.396z M87.281,57.161C87.189,58.419,85.878,57.102,87.281,57.161
			C87.248,56.779,87.742,56.965,87.281,57.161z M89.829,56.846h-1.911c0.447-0.513,1.104-0.818,1.911-0.959V56.846z M63.05,93.186
			c-1.831,0.24-2.224-0.961-3.504-1.277c0.137-0.873-1.188-0.297-1.272-0.951c-0.75-0.1-0.593-1.105-1.598-0.958
			c-0.07-0.247-0.267-0.374-0.635-0.313c-0.312,0.321-0.632,0.639-0.959,0.955c-0.501,1.596,0.839,2.365,1.594,3.188
			c1.279,1.386,2.701,2.309,4.781,2.551h2.553c1.301-0.511,2.643-0.968,3.506-1.916c1.279-0.387,2.379-1.672,1.592-3.186
			C66.291,90.018,65.578,93.134,63.05,93.186z"/>
	</g>
</g>
</svg>
