<?xml version="1.0" encoding="utf-8"?>
<!-- Generator: Adobe Illustrator 16.0.0, SVG Export Plug-In . SVG Version: 6.00 Build 0)  -->
<!DOCTYPE svg PUBLIC "-//W3C//DTD SVG 1.1//EN" "http://www.w3.org/Graphics/SVG/1.1/DTD/svg11.dtd">
<svg version="1.1" id="Layer_1" xmlns="http://www.w3.org/2000/svg"  x="0px" y="0px"
	 width="120px" height="120px" viewBox="4 4 120 120" style="enable-background:new 4 4 120 120;" xml:space="preserve">
<g id="anchor">
	<g>
		<path d="M115.044,72.509c-1.44,0.478-3.249,0.581-4.476,1.276c-2.109-0.09-2.887,1.156-4.469,1.597
			c-4.197,0.597-7.502,2.085-11.5,2.876c-3.693,0.247-8.996-1.117-9.265,2.557c-0.215,1.601,0.854,1.914,1.597,2.555
			c0.803,0.689,1.303,1.68,1.918,2.556c0.974,0.519,1.375,1.605,2.557,1.917c0.094,0.65,0.863,0.626,0.957,1.278
			c0.283,0.094,1.396,0.864,0.636,0.957c-2.381,0.603-3.769,2.192-6.065,2.875c-3.774,0.696-8.252,0.694-12.779,0.64
			c0.449-1.729-1.077-1.476-1.598-2.236c0.582-4.154,0.321-8.44,0.321-13.097V64.842c-0.474-6.236-0.741-12.677-0.96-19.168
			c2.188,1.133,3.848-0.767,5.43-1.276c1.274-1.284,2.217-2.896,3.195-4.474c0.491-3.875,1.268-7.463,0.959-12.137
			c-0.562-2.845-1.85-4.964-3.191-7.027c-1.819-1.589-3.804-3.014-6.07-4.153c-3.699-0.56-8.282-0.235-12.46-0.319
			c-4.319,2.07-8.312,4.468-11.183,7.985c-0.549,3.495-1.658,6.434-1.272,10.861c0.456,0.394,0.602,1.099,0.638,1.917
			c1.605,2.869,3.955,4.988,6.068,7.348c1.053,0.966,3.047,1,3.515,2.554c-0.855,8.479,0.226,17.613,1.595,24.918
			c0.05,4.314-0.188,8.923,0.321,12.775c-0.288,2.269-0.884,4.228-0.641,7.026c-1.5,0.735-2.844,1.632-4.47,2.238
			c-3.646,0.239-6.536-0.28-9.264-0.96c-0.906-1.223-2.856-1.4-3.514-2.875c-1.374-0.863-2.563-1.911-3.198-3.514
			c3.182-1.51,8.324-1.049,7.667-6.39c-1.198-1.989-4.105-2.28-7.344-2.235c-3.709-0.869-7.165-1.994-10.864-2.877
			c-4.12,0.039-8.112-2.234-11.815-0.636c0,5.959-0.188,12.111,0.637,17.247V98.7c0.313,1.608,0.095,3.836,0.638,4.791
			c0.297,0.52,0.438,0.468,0.96,0.96c2.633,0.076,3.014-2.098,4.47-3.194c0.765-1.792,1.581-3.532,2.877-4.791
			c0.863,2.331,2.894,3.494,3.835,5.748c1.055,0.541,1.474,1.724,2.235,2.556c0.757,0.946,1.826,1.584,2.234,2.877
			c1.841-0.136,2.45,0.959,3.195,1.916c1.207,0.604,2.164,1.455,3.194,2.235c1.722,0.621,3.415,1.271,5.429,1.599
			c4.181,0.237,7.368-0.515,11.501-0.319c1.056-0.757,2.616-1.005,3.515-1.917c1.693-0.227,2.143-1.692,3.834-1.918
			c2.831,1.039,6.177,2.496,9.899,2.877c3.305,0.337,6.821-0.251,10.543,0c4.262-1.064,8.104-2.549,11.502-4.473
			c1.506-1.156,3.07-2.252,4.471-3.517c0.436-0.948,1.441-1.325,2.234-1.916c0.647-0.739,1.062-1.706,2.236-1.914
			c0.396,1.306,1.191,2.214,1.602,3.513c0.819,0.985,1.115,2.502,3.191,2.233c2.3,0.065,1.793-2.678,3.191-3.512
			c0.998-7.845,1.524-16.152,2.557-23.959C115.412,76.824,115.619,74.271,115.044,72.509z M108.975,96.785
			c-1.166-0.326-1.648-1.334-1.914-2.557c-0.662-0.086-0.078-1.414-0.961-1.277c-0.002-0.635-0.871-0.406-0.641-1.278
			c-1.287,0.312-1.799,1.397-2.557,2.238c-0.978,0.616-1.442,1.747-2.236,2.556c-2.574,1.682-4.823,3.692-7.346,5.43
			c-2.747,1.51-6.061,2.459-8.944,3.834c-4.614,0.144-8.916-0.028-12.458-0.961c-1.607-0.637-2.494-2.26-4.473-2.873
			c-3.838,0.736-6.606,2.549-9.262,4.474c-2.542-0.738-4.424,1.104-6.709,1.596c-4.244,0.197-6.976-1.114-9.901-2.233
			c-0.187-0.67-0.792-0.914-0.643-1.918c-3.86-1.248-5.836-4.383-9.261-6.068c-0.615-1.619-1.911-2.562-2.555-4.153
			c-0.564,0.595-0.935-0.139-1.6-0.319c-2.2-0.08-2.67,1.629-4.793,1.916c-0.748,1.381-1.812,2.445-2.233,4.154
			c-0.601-1.086-0.309-2.713-0.321-4.473c-0.007-1.43,0.005-3.143,0-4.473c0.256-1.108-0.476-1.229-0.319-2.236v-9.264
			c1.215,0.063,2.274,0.283,3.196,0.64c1.027,0.069,1.353-0.565,2.555-0.321c1.082,0.092,1.835,0.51,3.196,0.321
			c0.24,0.929,2.631-0.29,2.874,0.638c1.926,0.415,4.431,0.254,5.749,1.277c0.188,1.785-1.594,1.604-3.193,1.599
			c-1.362,1.658-5.397,2.216-4.153,5.429c0.486,1.389,2.33,0.181,3.514,0.32c0.922,1.635,1.885,3.227,2.875,4.792
			c1.633,1.772,3.273,3.54,5.752,4.472c1.944,1.354,4.98,1.623,7.344,2.556c3.965,0.237,7.07-0.384,9.904-1.275
			c1.834-0.829,3.058-2.266,4.471-3.516c0.294-0.562,0.112-1.595,0.641-1.915c-0.34-10.96-2.146-23.096-0.641-33.86
			c0.251-1.316-0.487-1.641-0.318-2.876c-0.198-0.866,0.406-2.536-0.318-2.876v-3.193c-0.926-0.142,0.281-2.413-0.639-2.556
			c0.417-1.286,0.832-2.577,0.639-4.472c-0.538-2.021-2.147-2.965-4.155-3.513c-0.138-0.395-0.407-0.656-0.956-0.642
			c-0.659-1.15-1.896-1.723-2.556-2.874c-1.049-0.758-1.486-2.132-2.237-3.195c0.138-1.458-0.321-3.515,0.317-4.472
			c-0.046-1.015-0.724-1.404-0.636-2.555c0.624-0.651,0.556-1.998,1.596-2.235c0.332-0.84,1.266-1.077,1.598-1.917
			c3.574-1.75,7.396-3.253,13.096-2.874c0.851,0.535,1.931,0.839,2.878,1.276c0.397,0.668,0.929,1.201,1.596,1.598
			c1.906,3.527,3.974,6.889,3.513,12.778c-1.486,2.024-2.719,4.307-4.791,5.748c-1.09,0.082-1.533,0.809-2.873,0.641
			c-0.881,0.609-1.679,1.304-2.557,1.916c-0.29,0.562-0.107,1.594-0.641,1.916v15.654c0.599,5.046,0.48,10.804,2.238,14.692
			c-0.117,2.352,0.08,4.39,0.317,6.39c0.024,1.088,0.101,2.229-0.638,2.556c1.232,2.708,0.869,7.01,1.914,9.903v2.875
			c0.729,0.494,0.604,0.666,0.324,1.598h2.233c0.095-0.286,0.864-1.399,0.957-0.641c2.618-0.052,5.638,0.067,8.623,0
			c0.629-0.015,1.751,0.293,2.237-0.32c1.494,0.058,1.062,0.821,2.556,0.32c0.372-0.269,0.856-0.422,1.601-0.32
			c0.951-0.108,1.162-0.965,1.597-1.596c0.097-0.861,1.345-0.573,1.597-1.277c0.955,0.21-0.309,0.683,0,1.277
			c0.168,0.492,0.332,0.021,0.318-0.318c0.285-0.143,0.57-0.28,0.637-0.641c0.188-0.664,0.676-1.03,0.962-1.597
			c2.328-0.547,4.03-1.719,5.749-2.875c0.301-1.19,1.206-1.773,0.956-3.515c-0.01-1.161-1.511-0.829-1.915-1.597
			c-1.109-0.062-1.212-1.131-2.234-1.278c-1.062-0.642-0.767-2.64-2.556-2.556c0.044-0.914,1.332-0.585,2.233-0.641
			c0.412-0.438,1.392-0.314,2.238-0.318c1.349-0.354,3.039-0.368,4.789-0.319c1.229-0.478,3.144-0.265,4.155-0.958
			c1.584-0.012,2.453-0.736,3.832-0.959C110.663,85.271,109.982,91.191,108.975,96.785z M70.962,27.148
			c-0.639-1.068-1.479-1.93-2.237-2.877c-2.012-0.54-4.861-0.248-7.348-0.319c-1.821,0.627-2.887,2.012-3.832,3.513v6.072
			c0.851,1.488,2.024,2.659,3.512,3.512h5.429C69.438,35.204,71.408,32.387,70.962,27.148z M62.017,34.176
			c-0.996-0.813-1.072-2.551-0.96-4.473c0.732-0.76,1.162-1.819,2.557-1.917c1.469-0.195,4.24-0.756,5.43,0.639v2.236
			c-0.399,1.728-1.601,2.659-2.875,3.516L62.017,34.176L62.017,34.176z M101.307,82.729c0.478,0.508,1.822,0.469,1.598-0.637
			C102.27,81.425,101.541,82.08,101.307,82.729z"/>
	</g>
</g>
</svg>
