<?xml version="1.0" encoding="utf-8"?>
<!-- Generator: Adobe Illustrator 16.0.0, SVG Export Plug-In . SVG Version: 6.00 Build 0)  -->
<!DOCTYPE svg PUBLIC "-//W3C//DTD SVG 1.1//EN" "http://www.w3.org/Graphics/SVG/1.1/DTD/svg11.dtd">
<svg version="1.1" id="Layer_1" xmlns="http://www.w3.org/2000/svg"  x="0px" y="0px"
	 width="120px" height="120px" viewBox="4 4 120 120" style="enable-background:new 4 4 120 120;" xml:space="preserve">
<g id="archive">
	<g>
		<path d="M28.438,44.938c1.241-0.64,0.743-3.024,0.847-4.805c-0.006-1.98-0.144-4.102,0.562-5.369
			c5.528-1.166,13.083-0.298,19.506-0.564c9.435,1.587,21.004,1.037,31.655,1.412c0.957-0.264,2.068-0.378,3.109-0.565h9.889
			c1.09,3.101-1.788,9.328,1.98,10.175c1.574-0.123,2.505-0.889,2.259-2.826v-5.369c-0.603-1.658-0.743-3.78-1.979-4.805
			c-0.854-0.948-2.552,0.688-3.392-0.283c0.079-2.998,0.021-5.859-0.562-8.195c-0.688-0.447-1.252-1.012-1.696-1.695
			c-3.456-0.64-8.683-0.872-12.438-0.283c-9.705,0.462-19.945,0.398-29.672,0.848c-1.97-0.106-4.408,0.262-5.935-0.285
			c-3.647,0.689-8.147,0.524-10.176,2.828c0.014,0.486-0.218,0.725-0.566,0.85c-0.045,0.332,0.048,0.801-0.283,0.846v3.393
			c-0.079,0.643,0.066,1.062,0.563,1.131c-0.149,0.405,1.104,0.688,0.286,0.848c-1.904-0.112-2.987,0.591-4.241,1.131
			c-0.207,1.017-1.02,1.427-0.849,2.825c-0.129,1.536-0.167,1.49-0.283,2.827v3.674C27.543,43.387,27.148,45.004,28.438,44.938z
			 M35.221,31.09c0.768,0.201-0.203-1.332,0.565-1.13c0.106-1.122-0.259-2.709,0.285-3.392c1.418-1.125,4.35-0.736,6.215-1.414
			c8.605,0.341,17.638-0.104,26.851,0.282c3.133,0.132,6.168,0.456,9.327,0.567c3.077,0.105,6.283-0.302,9.326,0.281
			c0.049,2.811-0.494,3.574,0,5.936c-2.674-0.129-4.976,0.11-7.063,0.564c-6.826,0.338-13.404-0.801-19.785,0
			c-8.372-0.482-16.604-1.109-25.72-0.848C34.029,31.986,35.225,31.504,35.221,31.09z M113.792,46.917
			c-2.228-3.238-5.466-5.467-7.915-8.48c-1.248-0.728-1.598-2.358-3.955-1.978c-0.656,0.192-0.755,0.939-1.414,1.131
			c-0.322,3.053,1.625,3.84,2.542,5.653c0.445,0.878,1.157,1.482,1.698,2.261c0.084,0.576,0.764,0.555,0.844,1.131
			c0.333,0.089,1.338,0.875,0.569,1.131c-9.181-0.053-18.007-0.462-27.415-0.283c-1.463-0.327-3.294-0.287-4.805-0.565H46.526
			c-9.064,0-18.035,0.698-26.567,1.131c0.451-0.774,1.056-1.396,1.412-2.262c0.805-0.515,0.827-1.813,1.696-2.261
			c0.557-1.69,2.338-4.11,0.566-5.652c-1.995-0.201-2.646,0.936-3.109,2.26c-0.958,0.93-1.526,2.242-2.262,3.393
			c-0.978,0.619-1.214,1.991-2.26,2.545c-0.445,1.154-1.981,1.221-1.979,2.824c-0.147,5.051,0.501,9.3,0.282,14.415
			c0.811,5.595,2.171,10.644,2.829,16.393c0.557,5.94,2.25,10.747,3.108,16.394c0.758,1.406,1.635,2.697,1.979,4.521
			c1.27,0.614,1.544,2.223,2.543,3.108c3.972,1.963,10.178,1.69,15.547,2.263c6.245-0.22,11.675,0.382,17.803,0.28
			c3.734-0.506,7.478-1,11.873-0.847c3.902,0.433,8.634,0.033,12.152,0.847c5.678,0.024,11.422,0.116,16.393-0.562
			c1.287-0.627,2.396-1.33,3.959-1.414c0.921-1.525,2.713-2.182,3.673-3.675c1.308-3.874,1.854-8.505,3.11-12.437
			c1.194-3.986,1.838-8.521,2.543-13.002C112.043,65.12,114.762,56.588,113.792,46.917z M109.834,55.396
			c-0.625,0.412-0.225,1.848-0.848,2.261c-0.023,1.952-0.871,3.086-0.85,5.088c-0.476,0.558-0.307,1.763-0.563,2.544
			c-0.372,0.664-0.118,1.953-0.562,2.543c0.194,1.232-0.482,1.592-0.283,2.826c-0.649,0.294,0.131,2.018-0.566,2.26
			c-0.291,3.762-1.07,7.035-1.979,10.175c-0.481,3.478-1.795,6.122-2.543,9.327c-1.291,1.252-2.191,2.895-3.675,3.957
			c-0.866,0.4-1.271,0.127-1.979-0.282c-0.428,0.421-1.24,0.455-1.979,0.565c0.062-1.44,1.49-2.729,0.567-4.24
			c-1.817-0.311-2.032,0.982-2.827,1.696c-0.435,1.073-1.14,1.876-1.414,3.11c-1.201-0.17-1.867,0.203-2.825,0.279
			c-0.857,0.18-2.435-0.357-2.828,0.284c-0.769-0.258,0.288-0.991,0.282-1.414c0.384-0.276,0.567-0.752,0.851-1.13
			c0.41-0.909,1.053-1.585,1.412-2.544c0.906-1.216,2.967-3.482,1.416-5.367c-2.539,0.569-2.805,3.412-4.521,4.802
			c-0.941,2.081-2.191,3.844-3.393,5.653c-2.578-0.22-4.32,0.39-6.783,0.28c0.242-1.006,1.031-2.57,0.279-3.674
			c-2.711-0.071-2.763,2.515-4.236,3.674c-2.952-0.028-5.892-0.051-8.48,0.285c0.139-1.414,1.157-2.657,0.565-3.959
			c-3.09,0.018-3.499,2.72-5.369,3.959h-5.37c0.484-1.914,2.368-3.799,1.413-6.22c-2.413-0.058-2.67,2.038-4.237,2.826
			c-0.503,1.384-1.488,2.284-1.98,3.674c-1.535,0.216-2.291-0.347-3.673-0.28c0.212-2.92,3.089-4.604,2.259-7.633
			c-2.389-0.035-2.56,2.152-3.957,3.109c-0.691,1.568-1.631,2.889-2.827,3.957c-1.538,0.029-2.585-0.432-3.672-0.848
			c0.724-2.105,1.815-3.838,2.825-5.654c0.47-0.941,0.944-1.88,1.413-2.825c0.238-0.932,1.681-1.717,0.847-2.827
			c-0.977-0.473-2.268,0.84-2.823,1.699c-0.847,0.754-1.298,1.904-2.262,2.542c-0.969,2.231-2.579,3.827-3.392,6.217
			c-0.913-0.312-1.968-0.481-2.826-0.848c0.89-2.312,1.931-4.478,3.109-6.501c0.24-1.359,1.172-2.031,1.411-3.393
			c0.75-0.627,1.277-2.658,0.286-3.391c-2.411,0.607-2.908,3.123-4.241,4.805c-0.524,0.98-0.915,2.102-1.697,2.826
			c0.074,0.827-0.639,0.868-0.563,1.694c-0.742-0.082-0.224,1.098-1.129,0.849c-0.604-2.089-0.051-4.012,0.563-5.652
			c0.654-0.479,0.375-1.885,1.13-2.262c0.003-0.881,0.669-1.841,0-2.543c-1.372-0.24-1.602,0.657-1.978,1.412
			c-0.714,0.415-0.451,1.812-1.411,1.981c-0.745-2.858,1.157-4.646,1.695-7.066c0.609-2.497,2.461-3.756,2.825-6.502
			c-0.091-0.664-0.875-0.632-1.132-1.13c-1.639,0.054-2.178,1.211-3.105,1.979c0.011,0.859-0.6,1.098-0.85,1.695
			c-0.441,0.404-0.225,1.473-1.13,1.412c-0.483-4.134-1.491-7.744-2.261-11.588c-0.741-3.779-2.455-6.59-2.544-11.022
			c1.337-0.111,2.358,0.091,3.394,0.282c3.362,0.066,6.54-0.055,9.326-0.565c13.964-0.542,28.837-0.178,43.241-0.283
			c1.254,0.444,3.314,0.079,4.521,0.566h31.938C110.257,53.308,109.59,54.271,109.834,55.396z M84.396,59.352
			c-2.986-1.271-7.562-0.556-7.349,3.109c0.306,1.019,0.832,1.809,1.697,2.262c0.728,0.685,2.14,0.685,2.262,1.979
			c-0.422,0.993-0.6,2.229-1.133,3.108c0.033,1.637,0.092,3.293-0.562,4.24c-11.516-0.4-21.588,0.648-32.788,0.565
			c-0.127-2.956,0.125-5.532,0.283-8.196c1.291-0.785,2.726-1.42,2.827-3.395c-0.162-2.662-1.579-4.073-3.676-4.803h-1.413
			c-1.749,0.605-3.645,1.065-3.957,3.108c-0.12,1.345,0.339,2.113,0.848,2.825c0.493,0.823,1.812,0.823,1.695,2.264
			c-0.375,2.89-0.515,7.31,0,10.173c1.998,2.715,8.039,1.385,12.437,1.696c1.582,0.397,3.746,0.209,5.372,0.565h13.282
			c0.908-0.062,1.197,0.498,2.262,0.281c2.441-0.008,4.892-0.008,6.502-0.848c2.168-2.75,0.416-7.818,0.563-11.869
			c0.234-1.652,2.358-1.408,1.979-3.675C85.83,60.936,84.834,60.425,84.396,59.352z"/>
	</g>
</g>
</svg>
