<?xml version="1.0" encoding="utf-8"?>
<!-- Generator: Adobe Illustrator 16.0.0, SVG Export Plug-In . SVG Version: 6.00 Build 0)  -->
<!DOCTYPE svg PUBLIC "-//W3C//DTD SVG 1.1//EN" "http://www.w3.org/Graphics/SVG/1.1/DTD/svg11.dtd">
<svg version="1.1" id="Layer_1" xmlns="http://www.w3.org/2000/svg"  x="0px" y="0px"
	 width="120px" height="120px" viewBox="4 4 120 120" style="enable-background:new 4 4 120 120;" xml:space="preserve">
<g id="arrow1-left">
	<g>
		<path d="M111.457,61.427c-0.018-0.422-0.324-0.444-0.324-0.973c0-1.133,0.191-0.536,0-1.297c-0.131-0.515,0.271-0.769,0.324-0.973
			c0.1-0.381-0.492-0.63-0.324-1.296c0.227-0.896,0.012-0.693,0-1.621c-0.011-0.688,0.318-0.656,0-0.971
			c-0.131-0.129,0.004-1.094,0-1.296c-0.006-0.297,0.311-0.26,0.324-0.326c0.061-0.288-0.32-0.298-0.324-0.323
			c-0.253-3.621,0.438-6.678-0.32-9.721c-0.68-0.402-1.224-0.942-1.621-1.618c-5.648-0.47-11.48-0.483-17.18-0.326
			c-8.404,0.235-17.047,0.095-24.945,0.326c-0.055-6.646-0.561-12.841-0.975-19.12c-1.044-0.793-1.813-1.861-3.89-1.62
			c-0.384,0.155-0.733,0.345-0.972,0.647c-1.246,0.482-2.209,1.249-2.914,2.271c-1.418,0.417-2.039,1.636-2.918,2.591
			c-1.972,1.702-3.809,3.538-5.512,5.509c-1.474,0.253-1.705,1.75-2.916,2.268c-2.689,2.818-5.206,5.81-8.423,8.104
			c-3.376,3.859-7.317,7.153-10.692,11.014c-1.165,0.563-1.895,1.562-2.915,2.27c-0.883,0.958-1.499,2.174-2.919,2.593
			c-0.724,1.113-1.848,1.824-2.594,2.917c-1.232,0.602-2.964,0.709-2.916,2.591c-0.178,2.987,1.712,3.905,2.592,5.834
			c1.522,1.396,3.116,2.717,4.863,3.889c0.269,1.237,2.225,2.123,2.27,2.916c0.019,0.375,0.205,0.146,0.321,0.324
			c0.777,1.201,2.205,2.084,2.917,2.915c0.284,0.336,0.318,0.935,0.649,1.298c1.069,1.174,2.439,2.115,3.562,3.24
			c1.699,1.698,3.287,3.812,4.862,5.184c0.118,0.104,0.501-0.065,0.647,0c0.544,0.246,0.949,1.291,1.295,1.621
			c3.641,3.451,7.286,6.577,10.695,10.047c1.685,1.34,2.958,3.088,4.535,4.535c0.893,0.62,1.65,1.375,2.271,2.269
			c0.966,0.651,3.055,0.186,4.534,0.323c1.85-1.713,1.312-5.815,1.62-9.071C64.04,94.7,64.718,91.814,64.47,88
			c9.832,0.514,22.133,1.355,31.756,0c1.262,0.684,3.725,0.162,5.51,0.323c2.23-0.466,4.826-0.57,6.803-1.296
			c0.402-0.678,0.939-1.217,1.618-1.62c0.614-0.571,0.771-1.607,1.298-2.267C110.674,75.102,111.719,68.91,111.457,61.427z
			 M69.332,80.545c-0.197-0.018-0.387-0.05-0.323-0.324c-0.464-0.078-0.551-0.535-0.977-0.65c0.136-0.805,1.26-0.018,0.977,0.65
			C69.207,80.239,69.391,80.27,69.332,80.545C69.725,80.512,69.529,81.016,69.332,80.545z M69.658,81.516
			c-0.168-0.168,0.234-0.412,0.32-0.324C70.148,81.357,69.747,81.607,69.658,81.516z M104.006,75.684
			c0.174,1.258-1.884,0.279-1.945,1.297c-0.735,0.832,0.102,2.054,0.648,2.59c-1.09,0.856-2.111-1.112-2.919-1.617
			c-1.369-0.36-2.056-1.398-3.562-1.621c-0.756,0.111-1.521,0.209-1.297,1.296c-2.797-1.092-3.355-4.419-6.479-5.185
			c-2.804,0.007-3.833,1.785-3.565,4.861c-4.511-0.783-8.498-2.089-13.287-2.593c-1.248-0.046-1.498-1.095-2.914-0.973
			c-1.248,0.806-2.418,1.685-2.27,3.888c-1.782-1.457-2.519-3.962-5.186-4.536c-1.829,0.224-2.779,1.323-3.238,2.917
			c0.33,1.936,0.943,3.592,2.266,4.537c-0.039,0.715-1.372,0.139-1.941,0.323c-0.185,2.772,0.214,4.969,0.32,7.452
			c-1.823-1.09-0.281-5.553-3.563-5.184c-1.8-0.072-1.202,2.254-1.294,3.887c0.345,2.14,1.306,3.664,1.619,5.834
			c0.97,0.065-0.311,1.347,0,0c-1.993-2.652-2.422-6.864-3.564-10.369c-0.484-1.069-0.794,0.672-1.62,0.326
			c-0.683-1.912-1.547-3.642-2.593-5.188c0.08-1.592-0.202-2.824-0.974-3.562c-2.575-0.312-2.294,2.238-2.269,4.537
			c0.591,3.084,1.6,5.748,2.269,8.746c-1.853-2.318-2.851-5.396-4.211-8.1c-0.677-1.35-1.637-2.631-2.269-3.891
			c-0.714-1.422-0.859-3.069-2.266-3.889c-0.92,1.365,0.086,3.575,0.322,4.86c0.412,1.532,0.885,3.004,1.297,4.537
			c-2.236-2.196-2.766-6.089-4.538-8.75c-0.219-1.94-1.319-3-1.619-4.861c-0.932-1.334-0.951-3.582-1.948-4.859
			c-1.666-0.571-2.773,1.089-3.238,0.647c-0.074-2.772,2.144-3.258,3.566-4.537c1.103-1.594,2.782-2.615,3.888-4.211
			c2.916-2.592,5.908-5.107,8.423-8.102c3.379-2.133,5.352-5.666,8.751-7.776c1.89-2.315,4.239-4.299,6.155-6.158
			c0.701-0.678,1.109-1.837,2.27-1.942c-0.434,4.21-0.307,8.982-0.973,12.961c1.738,0.854,3.69,1.492,5.508,2.27
			c12.969,0.21,25.786,0.57,38.562,0.971c-0.094,7.875,0.244,16.495-0.321,23.008C104.198,71.25,104.749,74.073,104.006,75.684z"/>
	</g>
</g>
</svg>
