<?xml version="1.0" encoding="utf-8"?>
<!-- Generator: Adobe Illustrator 16.0.0, SVG Export Plug-In . SVG Version: 6.00 Build 0)  -->
<!DOCTYPE svg PUBLIC "-//W3C//DTD SVG 1.1//EN" "http://www.w3.org/Graphics/SVG/1.1/DTD/svg11.dtd">
<svg version="1.1" id="Layer_1" xmlns="http://www.w3.org/2000/svg"  x="0px" y="0px"
	 width="120px" height="120px" viewBox="4 4 120 120" style="enable-background:new 4 4 120 120;" xml:space="preserve">
<g id="arrow3-up">
	<g>
		<path d="M93.59,82.246c-0.324-0.627-0.955-0.947-1.142-1.713c-0.638-1.266-1.788-2.014-2.283-3.422
			c-2.074-1.732-3.388-4.223-5.421-5.992c-1.559-2.529-3.117-5.062-4.852-7.418c-1.533-2.648-3.535-4.831-5.134-7.418
			c-0.823-0.127-0.675-1.228-1.429-1.426c0.08-1.125-1.217-0.873-1.139-1.998c-1.237-0.855-1.729-2.455-2.568-3.708
			c-0.964-1.128-1.419-2.767-2.566-3.708c-0.769-1.465-1.23-3.111-3.142-3.141c-0.012-0.173-0.042-0.336-0.284-0.283
			c-0.364,0.016-0.393,0.365-0.853,0.283c-0.848,0.485-1.664,1.003-2.856,1.143c-0.918,1.837-2.412,3.104-3.708,4.564
			c-0.163,1.168-1.314,1.35-1.425,2.568c-0.83,0.596-1.134,1.72-1.714,2.567c-1.104,1.653-2.231,3.283-3.424,4.85
			c-1.151,1.7-2.084,3.622-3.422,5.136c-1.838,3.771-3.785,7.437-6.275,10.556c-1.893,3.349-6.334,5.636-5.424,10.842
			c0.148,0.996,1.865,0.419,2.855,0.572c0.82,0.315,1.77,0.512,2.852,0.568c9.576-0.312,18.791-0.991,28.531-1.143
			c0.974,0.262,1.767,0.705,2.851,0.855c1.282-0.139,2.138,0.146,3.141,0.286c6.269-0.199,13.505,0.571,18.546-0.856
			C93.109,83.666,93.578,83.186,93.59,82.246z M69.34,66.27v1.426c-0.967-0.079-1.638-0.453-2.854-0.285
			c-0.455-1.122,1.232-0.1,1.143-0.854C68.498,66.761,68.465,66.062,69.34,66.27z M66.198,55.142
			c0.819,0.802,1.421,1.815,1.714,3.14c-0.485-0.106-0.538,0.222-0.57,0.569c-1.632-0.177-2.902-0.708-4.85-0.569
			c-0.257-0.921,0.931-0.402,1.14-0.856C64.46,56.637,65.512,56.068,66.198,55.142z M64.489,61.705
			c-0.453,1.788-2.679,0.225-4.279,0.569c-0.908-0.238,0.507-0.376,0.855-0.284c0.461,0.08,0.491-0.271,0.856-0.285H64.489z
			 M61.636,46.869c1.021,1.074,1.646,2.537,2.28,3.994c-1.164-0.068-1.605-0.866-2.851-0.857
			C61.551,49.256,61.094,47.563,61.636,46.869z M59.64,52.859c0.566-0.572,1.359,0.09,1.996,0.286
			C61.568,53.558,59.289,53.809,59.64,52.859z M55.074,61.419c0.461-0.079,0.491,0.27,0.857,0.286
			C56.043,62.257,54.631,62.12,55.074,61.419z M55.932,78.536h-6.847c-1.267,0.448-3.346,0.081-4.566,0.571
			c-0.167-1.022,0.842-0.867,1.712-0.855h2.567c4.129-0.402,8.246-1.141,12.552-0.57C60.061,78.48,57.47,77.988,55.932,78.536z
			 M66.771,73.686c-1.191-0.233-2.295-0.557-3.708-0.568c0.674-0.655,2.559-0.104,3.708-0.285c0.473-0.479,1.672-0.229,2.567-0.286
			c0.287,0.568,0.491,1.22,1.14,1.427C69.516,74.73,68.132,73.477,66.771,73.686z M75.902,75.398
			c-1.488,0.154-2.116-0.549-3.426-0.57c1.732-0.93,3.039-2.289,3.992-3.994c0.846,0.3,0.994,1.29,1.428,1.997
			C77.529,73.984,76.577,74.555,75.902,75.398z"/>
	</g>
</g>
</svg>
