<?xml version="1.0" encoding="utf-8"?>
<!-- Generator: Adobe Illustrator 16.0.0, SVG Export Plug-In . SVG Version: 6.00 Build 0)  -->
<!DOCTYPE svg PUBLIC "-//W3C//DTD SVG 1.1//EN" "http://www.w3.org/Graphics/SVG/1.1/DTD/svg11.dtd">
<svg version="1.1" id="Layer_1" xmlns="http://www.w3.org/2000/svg"  x="0px" y="0px"
	 width="120px" height="120px" viewBox="4 4 120 120" style="enable-background:new 4 4 120 120;" xml:space="preserve">
<g id="arrow3-left">
	<g>
		<path d="M85.502,38.266c0.216-1.074-0.35-1.363-0.287-2.283c-0.236-0.713,0.555-2.455-0.57-2.281
			c0.047-0.618-1.014-0.129-1.427-0.285c-0.407,0.068-0.481,0.471-0.856,0.57c-3.561,3.477-7.608,6.465-11.125,9.985
			c-2.53,1.562-5.061,3.118-7.419,4.851c-2.646,1.536-4.832,3.537-7.416,5.136c-0.129,0.823-1.227,0.675-1.426,1.427
			c-1.127-0.078-0.873,1.218-1.998,1.141c-0.855,1.236-2.455,1.729-3.711,2.567c-1.127,0.964-2.766,1.419-3.707,2.567
			c-1.463,0.77-3.111,1.232-3.137,3.139c-0.61,0.095,0.043,1.244,0.285,1.429c-0.031,0.885,0.896,0.812,0.566,1.994
			c0.51,0.827,1.332,1.336,2.285,1.713c0.677,0.75,1.135,1.721,2.281,1.996c1.457,1.399,3.168,2.541,5.137,3.424
			c3.314,2.391,6.584,4.828,10.271,6.848c3.403,2.303,7.502,3.908,10.555,6.562c3.407,1.944,5.701,6.436,11.125,5.42
			c0.396-1.791,0.482-3.894,0.857-5.705c-0.312-9.576-0.991-18.791-1.142-28.529c0.258-0.977,0.707-1.768,0.857-2.854
			c-0.141-1.281,0.143-2.137,0.283-3.138V43.402C85.973,41.408,85.531,40.043,85.502,38.266z M50.123,67.652
			c-0.751-0.485-2.445-0.028-3.137-0.571c1.072-1.019,2.535-1.646,3.991-2.282C50.912,65.968,50.113,66.406,50.123,67.652z
			 M53.547,69.079c-1.449,0.053-0.52-1.358-0.285-1.998C53.9,67.204,53.377,68.486,53.547,69.079z M58.396,66.227
			c-0.922,0.254-0.4-0.932-0.855-1.143c-0.789-0.828-1.357-1.876-2.281-2.568c0.348-0.981,1.932-0.728,2.281-1.71
			c1.077-0.415,0.548,0.783,1.428,0.569C58.789,63.004,58.258,64.279,58.396,66.227z M61.535,73.645v-0.572
			c0.242,0.053,0.27-0.109,0.283-0.284C62.375,72.674,62.236,74.087,61.535,73.645z M62.391,66.797v1.426
			c0.082,0.51-0.27,0.586-0.285,0.286c-0.027-1.497-0.473-2.567-0.287-4.281C62.943,64.132,62.873,66.172,62.391,66.797z
			 M67.521,62.231c-1.119,0.458-0.095-1.231-0.851-1.142c0.207-0.873-0.494-0.84-0.287-1.711h1.427
			C67.732,60.346,67.357,61.016,67.521,62.231z M73.232,65.654c-0.656-0.58-0.105-2.368-0.285-3.423
			c-0.295-0.75-0.34-1.751-0.285-2.853c0.566-0.289,1.219-0.493,1.426-1.142c0.277,0.009,0.221,0.349,0.285,0.571
			C73.902,60.998,73.441,63.201,73.232,65.654z M74.943,56.24c-0.928-1.733-2.287-3.038-3.994-3.994
			c0.184-0.861,1.297-0.796,1.713-1.427c1.564-0.044,1.543,1.498,2.852,1.712C75.707,54.15,75,54.871,74.943,56.24z M78.369,82.486
			v-2.567c-0.42-2.622-0.436-5.651-0.857-8.272c-0.17-1.692,0.5-2.543,0.285-4.278c0.801,1.291,0.307,3.877,0.855,5.42v6.562
			c0.354,1.451,0.127,3.488,0.57,4.851C78.201,84.364,78.357,83.354,78.369,82.486z"/>
	</g>
</g>
</svg>
