<?xml version="1.0" encoding="utf-8"?>
<!-- Generator: Adobe Illustrator 16.0.0, SVG Export Plug-In . SVG Version: 6.00 Build 0)  -->
<!DOCTYPE svg PUBLIC "-//W3C//DTD SVG 1.1//EN" "http://www.w3.org/Graphics/SVG/1.1/DTD/svg11.dtd">
<svg version="1.1" id="Layer_1" xmlns="http://www.w3.org/2000/svg"  x="0px" y="0px"
	 width="120px" height="120px" viewBox="4 4 120 120" style="enable-background:new 4 4 120 120;" xml:space="preserve">
<g id="user7">
	<g>
		<path d="M88.279,83.934c-5.629-2.985-13.024-4.438-19.967-5.135c-0.942-0.676-1.676-1.561-2.565-2.281
			c-0.104-2.369-0.353-4.597-0.856-6.562c1.317-1.725,2.555-3.531,3.993-5.135c1.537-3.691,3.576-6.881,4.566-11.126
			c6.913-0.019,8.159-7.803,6.842-14.268c-1.519-0.534-2.769,0.346-3.992-0.567c-0.053-7.076-1.661-12.604-3.995-17.405
			c-1.104-1.081-2.111-2.261-3.136-3.423c-0.989-0.246-1.584-0.889-2.282-1.427c-1.89-0.487-3.688-1.063-5.708-1.428h-3.707
			c-0.369,0.394-1.24,0.284-1.998,0.286c-2.137,1.094-4.852,1.617-6.275,3.423c-1.248,0.37-1.793,1.44-2.568,2.284
			c-1.002,0.709-1.795,1.631-2.283,2.853c-1.02,0.598-1.186,2.047-1.996,2.853c-0.225,1.486-1.357,2.068-1.426,3.708
			c-0.703,0.917-0.973,2.261-1.143,3.711c-0.52,0.337-0.223,1.487-0.57,1.997c0.062,0.918-0.504,1.207-0.283,2.282
			c-1.697,0.396-3.012,1.176-3.998,2.281c-1.58,2.282-1.711,5.647-1.424,9.128c0.844,0.869,1.793,1.632,2.566,2.568
			c0.371,1.343,2.408,1.018,2.855,2.284c-0.023,1.924,0.67,3.133,0.854,4.849c0.658,0.867,0.836,2.209,1.428,3.139
			c0.584,0.938,0.887,2.156,1.426,3.137c0.527,2.521,2.107,3.98,1.711,7.42c-0.535,0.982-0.957,2.085-1.996,2.568
			c-0.457,1.062-1.744,1.3-2.568,1.996c-1.141,0.567-2.598,0.828-3.994,1.14c-3.354,2.26-7.994,3.229-11.412,5.421
			c-3.998,1.611-6.84,4.383-9.699,7.133c-0.49,1.508-1.689,2.309-1.998,3.995c-0.807,1.19-1.916,2.078-2.281,3.71
			c-0.186,1.242,0.371,3.225-0.285,3.993c-0.412,1.358,1.191,0.71,0.855,1.997c-0.506,1.16-0.287,3.07,0,4.277
			c1.268,1.207,2.529,2.418,5.418,2c1.07-0.023,0.863,1.229,2.283,0.854c27.643-0.209,53.304-0.681,77.888-3.993
			c1.021-2.688,2.098-5.319,2.282-8.847C98.741,91.387,94.034,86.984,88.279,83.934z M76.018,43.139
			c1.309-0.266,1.377,0.711,2.567,0.57c-0.231,2.145-0.558,4.198-3.142,3.99C75.234,45.782,76.227,45.059,76.018,43.139z
			 M37.786,47.699c-0.885,0.03-1.365-0.347-1.998-0.567c-0.047-0.903,0.76-0.955,0.574-1.999c1.02-0.166,1.377,0.334,1.994,0.571
			C38.118,46.321,37.616,46.677,37.786,47.699z M91.993,103.335c-0.929,0.595-3.104-0.062-3.996,0.571
			c-0.834-0.075-0.875,0.646-1.713,0.568c-0.195,0.563-1.591-0.069-1.711,0.572c-1.103-0.058-2.101-0.012-2.851,0.284
			c-7.588-0.103-14.748,0.185-21.684,0c-3.635-0.076-6.762-0.659-9.986-1.142c-3.279-0.429-7.064-0.354-10.271-0.855
			c-5.334,0.468-11.377,0.227-16.83,0.57c-0.572,0.099-0.895-0.057-0.859-0.57h-1.424c-0.443-0.064-1.332-1.098-1.717-0.286
			c-0.861-0.353,0.311-0.979,0-1.711c0.008-0.758-0.104-1.631,0.289-1.996c0.018-1.506,0.951-2.097,0.855-3.71
			c2.863-2.749,5.834-5.388,8.844-7.986c2.75-1.346,5.508-2.677,8.846-3.425c1.166-0.831,2.996-0.997,3.994-1.997
			c1.598-0.396,2.236-1.759,3.707-2.281c-0.205-0.778,0.566-0.574,0.57-1.144c0.412-0.062,0.104-0.853,0.572-0.854
			c-0.008-0.959,0.393-1.51,0.855-1.996c0.32-1.584,1.689-2.119,1.998-3.709c-0.416-3.771-1.002-7.369-1.426-11.128
			c-0.58-3.512-0.568-7.612-1.428-10.841c0.143-3.852-0.314-8.299,0.287-11.696c1.398-4.974,4.088-8.652,6.559-12.554
			c1.9-1.048,3.059-2.838,5.139-3.709c0.748-0.297,1.75-0.342,2.85-0.285c0.514,0.036,0.604-0.349,1.143-0.286
			c2.96-0.299,3.346,1.979,4.85,3.138c0.041,1.292,1.269,1.393,1.142,2.854c1.014,0.319,0.717,1.949,1.428,2.567
			c0.455,7.404,0.955,16.08,0.287,23.682c-0.408,0.545-0.666,1.237-0.857,1.994c-0.457,0.401-0.73,0.986-0.857,1.714
			c-0.803,0.907-1.449,1.972-1.994,3.137c-0.524,0.429-0.711,1.194-1.43,1.428c-0.879,0.072-0.873,1.026-1.426,1.425
			c-0.701,1.202-1.135,2.67-1.998,3.711c0.217,1.549-0.449,2.213-0.285,3.709c0.014,0.965-0.664,1.236-1.141,1.711
			c-0.52,0.34-0.223,1.487-0.568,1.998v2.853c0.352,1.456,1.316,2.296,1.994,3.423c1.182,0.626,2.471,1.145,3.141,2.284
			c1.601-0.269,1.933,0.728,3.139,0.856c0.812,0.422,1.888,0.582,2.566,1.141c9.275,1.09,17.213,3.519,21.111,9.984
			C92.561,97.833,91.843,100.143,91.993,103.335z M117.669,62.536c-0.215-1.119-1.131-1.532-1.996-1.995
			c-0.375-0.958-1.479-1.186-1.998-1.997c-1.68-1.078-3.051-2.464-4.852-3.424c-2.447-2.688-5.017-5.256-7.703-7.704
			c-0.757-1.147-1.039-2.765-3.136-2.567c-1.159,0.364-2.371,0.673-2.571,1.997c-0.522,2.24,1.172,2.252,1.144,3.994
			c-0.992,2.086-0.074,4.311-0.285,7.133h-3.992c-3.853,0.812-9.354-0.033-11.986,1.999c-1.156,1.215-0.822,3.926-0.854,6.273
			c0.373,2.103,0.963,3.985,2.285,5.137c1.303,0.312,2.793,0.438,4.276,0.569c1.992-0.289,4.222-0.344,6.562-0.284
			c1.15,0.183,3.033-0.37,3.707,0.284c0.453,0.73-0.271,2.258,0,3.71c0.41,1.272-0.158,1.994,0,3.708
			c0.506,0.542,0.267,1.826,0.857,2.281c0.715,0.332,0.955,1.139,1.996,1.143c2.879-0.07,4.002-1.895,5.422-3.424
			c1.688-1.256,2.875-3.021,4.562-4.277c1.543-1.406,2.975-2.924,4.565-4.281c0.938-2.011,3.011-2.886,3.709-5.135
			c0.336-0.709,0.412-1.679,0.572-2.568C117.73,63.043,117.622,62.868,117.669,62.536z M83.718,64.535v-1.428
			c1.044,0.194,2.074,0.398,3.425,0.285C86.305,64.075,84.693,63.989,83.718,64.535z M101.407,55.974
			c1.088,0.435,1.28,1.765,2.282,2.284c-0.168,0.593-0.602,0.924-0.854,1.426C102.018,58.789,101.104,57.987,101.407,55.974z
			 M105.4,69.67c-0.258,0.503-0.641,0.883-1.143,1.141c-0.674,0.75-1.133,1.721-2.281,1.998v-4.851
			c0.709,0.042,1.183-0.147,1.426-0.571c1.22,0.208,1.244,1.609,3.14,1.141C106.587,69.335,105.734,69.243,105.4,69.67z"/>
	</g>
</g>
</svg>
