<?xml version="1.0" encoding="utf-8"?>
<!-- Generator: Adobe Illustrator 16.0.0, SVG Export Plug-In . SVG Version: 6.00 Build 0)  -->
<!DOCTYPE svg PUBLIC "-//W3C//DTD SVG 1.1//EN" "http://www.w3.org/Graphics/SVG/1.1/DTD/svg11.dtd">
<svg version="1.1" id="Layer_1" xmlns="http://www.w3.org/2000/svg"  x="0px" y="0px"
	 width="120px" height="120px" viewBox="4 4 120 120" style="enable-background:new 4 4 120 120;" xml:space="preserve">
<g id="arrow3-right">
	<g>
		<path d="M85.293,61.484c0.031-0.885-0.896-0.813-0.566-1.995c-0.51-0.827-1.332-1.335-2.285-1.713
			c-0.676-0.75-1.135-1.72-2.28-1.995c-1.457-1.4-3.168-2.542-5.138-3.425c-3.313-2.39-6.584-4.827-10.271-6.847
			c-3.404-2.303-7.503-3.909-10.555-6.563c-3.408-1.944-5.701-6.435-11.126-5.42c-0.396,1.791-0.481,3.894-0.856,5.706
			c0.312,9.576,0.991,18.79,1.141,28.529c-0.258,0.978-0.707,1.769-0.857,2.854c0.141,1.281-0.144,2.137-0.283,3.138v10.556
			c-0.188,1.994,0.254,3.359,0.283,5.137c-0.216,1.074,0.35,1.363,0.286,2.283c0.237,0.713-0.553,2.455,0.571,2.281
			c-0.047,0.618,1.014,0.129,1.427,0.285c0.407-0.068,0.482-0.471,0.856-0.57c3.561-3.477,7.609-6.465,11.126-9.984
			c2.53-1.562,5.06-3.118,7.418-4.852c2.647-1.535,4.833-3.537,7.417-5.136c0.127-0.823,1.227-0.675,1.426-1.427
			c1.127,0.078,0.873-1.219,1.998-1.141c0.854-1.236,2.455-1.729,3.711-2.567c1.127-0.964,2.766-1.419,3.707-2.567
			c1.463-0.77,3.111-1.232,3.137-3.139C86.188,62.818,85.534,61.668,85.293,61.484z M54.768,62.057
			c0.656,0.58,0.104,2.368,0.285,3.423c0.295,0.75,0.34,1.75,0.285,2.853c-0.567,0.289-1.22,0.493-1.426,1.142
			c-0.277-0.009-0.221-0.349-0.285-0.57C54.098,66.713,54.559,64.51,54.768,62.057z M50.203,60.344
			c-0.801-1.291-0.307-3.877-0.856-5.42v-6.562c-0.354-1.451-0.126-3.488-0.569-4.85c1.021-0.165,0.865,0.846,0.854,1.712v2.568
			c0.42,2.622,0.436,5.651,0.856,8.272C50.658,57.758,49.989,58.607,50.203,60.344z M55.338,76.893
			c-1.566,0.043-1.543-1.498-2.852-1.713c-0.193-1.619,0.514-2.34,0.569-3.709c0.929,1.733,2.288,3.038,3.994,3.994
			C56.867,76.326,55.754,76.261,55.338,76.893z M61.615,68.332h-1.426c0.078-0.967,0.453-1.637,0.287-2.854
			c1.121-0.457,0.096,1.231,0.852,1.143C61.121,67.494,61.822,67.461,61.615,68.332z M66.182,63.483
			c-1.125,0.096-1.056-1.944-0.572-2.569v-1.425c-0.082-0.511,0.271-0.587,0.285-0.287C65.921,60.699,66.367,61.771,66.182,63.483z
			 M66.465,54.64c-0.242-0.053-0.27,0.109-0.283,0.284c-0.557,0.113-0.418-1.3,0.283-0.856V54.64z M70.458,66.905
			c-1.076,0.415-0.547-0.783-1.427-0.569c0.18-1.629,0.711-2.904,0.572-4.852c0.92-0.254,0.399,0.932,0.854,1.143
			c0.79,0.828,1.357,1.876,2.281,2.568C72.393,66.177,70.809,65.923,70.458,66.905z M74.738,60.63
			c-0.639-0.123-0.116-1.406-0.285-1.998C75.902,58.579,74.973,59.99,74.738,60.63z M77.021,62.912
			c0.065-1.169,0.865-1.607,0.854-2.854c0.751,0.485,2.444,0.028,3.138,0.571C79.941,61.648,78.479,62.276,77.021,62.912z"/>
	</g>
</g>
</svg>
