<?xml version="1.0" encoding="utf-8"?>
<!-- Generator: Adobe Illustrator 16.0.0, SVG Export Plug-In . SVG Version: 6.00 Build 0)  -->
<!DOCTYPE svg PUBLIC "-//W3C//DTD SVG 1.1//EN" "http://www.w3.org/Graphics/SVG/1.1/DTD/svg11.dtd">
<svg version="1.1" id="Layer_1" xmlns="http://www.w3.org/2000/svg"  x="0px" y="0px"
	 width="120px" height="120px" viewBox="4 4 120 120" style="enable-background:new 4 4 120 120;" xml:space="preserve">
<g id="arrow-combo">
	<g>
		<path d="M90.248,49.897c-0.25-0.989-0.891-1.582-1.426-2.281c-0.225-1.108-0.799-1.866-1.43-2.568
			c-0.787-1.779-2.025-3.106-3.138-4.563c-2.088-3.145-4.608-5.852-6.278-9.415c-1.328-1.235-1.957-3.177-3.136-4.565
			c-0.854-1.717-2.045-3.094-2.854-4.851c-1.241-1.327-1.897-3.237-3.139-4.565c-0.363-0.967-0.852-1.812-1.427-2.568
			c-0.472-0.953-0.874-1.98-2.567-1.711c-0.338,0.139-0.647,0.305-0.854,0.57c-0.711,1.004-1.775,1.65-2.567,2.566
			c-1.526,2.756-3.425,5.137-4.85,7.99c-0.587,0.547-0.743,1.316-1.142,1.998c-0.41,0.698-1.027,1.332-1.426,1.995
			c-0.087,0.142,0.066,0.421,0,0.571c-0.096,0.211-0.553,0.205-0.572,0.57c-0.018,0.314-0.221,0.15-0.283,0.286
			c-0.512,1.075-1.033,1.835-1.428,2.854c-1.062,1.029-1.631,2.554-2.566,3.709c-0.91,1.278-1.741,2.636-2.855,3.708
			c-0.77,1.418-1.783,2.592-2.854,3.711c-0.576,1.612-2.277,2.098-2.852,3.707c-0.469,0.863-2.055,0.609-2.283,1.712
			c-0.915,0.417-0.922,1.741-1.14,2.854c0.319,1.77,2.31,1.873,2.853,3.422c3.266-0.409,7.345,0.426,10.554-0.57
			c4.141,0.615,9.38,0.131,13.979,0.285c1.428,0.287,3.088,0.339,4.565,0.57c3.438-0.039,7.892,0.285,11.984,0.285
			c4.106,0,8.21,0.578,9.698-2.568C90.848,51.77,90.02,51.361,90.248,49.897z M46.595,49.611c-0.153-1.387,1.14-1.334,1.428-2.281
			c0.893,0.152,1.028,1.064,1.144,1.996C48.123,49.24,47.307,49.373,46.595,49.611z M49.166,45.621
			c0.865-0.012,0.709,0.999,0.854,1.709C49.564,46.931,49.291,46.348,49.166,45.621z M52.017,43.62
			c-0.375-0.001-0.263-0.498-0.567-0.569C51.568,42.262,52.345,43.036,52.017,43.62C52.871,43.68,51.744,44.809,52.017,43.62z
			 M56.867,43.62c-0.902-0.333-0.994-1.478-1.713-1.995c-0.171-1.064-1.312-1.162-1.424-2.283c0.566-0.285,0.446-1.26,1.424-1.141
			C55.363,40.371,56.557,41.553,56.867,43.62C57.721,43.68,56.594,44.809,56.867,43.62z M64.566,33.922
			c-0.437-0.688-1.004-1.295-1.422-1.999c-0.062-0.101,0.09-0.495,0-0.569c-0.9-0.734-1.377-2.609-2.57-3.425
			c0.148-0.421,0.422-0.718,0.573-1.141c1.685,2.976,3.356,5.964,4.85,9.131C65.255,35.506,65.016,34.612,64.566,33.922z
			 M66.85,28.216c-0.797-0.533-1.098-1.563-1.423-2.568c-0.725-0.513-1.073-1.399-1.427-2.281c0.663-0.853,2.029,1.285,2.566-0.285
			c0.83,0.883,1.209,2.214,1.996,3.138C68.17,27.061,67.247,27.374,66.85,28.216z M67.994,39.627
			c-0.146-0.146,0.207-0.365,0.285-0.285C68.428,39.492,68.073,39.707,67.994,39.627z M69.705,33.35
			c-0.482-0.941-1.041-1.811-1.711-2.565c0.25-0.892,1.345-0.937,1.711-1.714c0.873,0.648,1.047,1.999,1.711,2.853
			C70.941,32.497,70.652,33.251,69.705,33.35z M73.129,36.771c-0.146-0.144,0.207-0.359,0.284-0.281
			C73.562,36.638,73.207,36.854,73.129,36.771z M77.979,45.048c-0.891-0.728-1.396-1.837-1.998-2.853
			c-0.791-0.933-1.91-1.688-1.426-3.139c1.242,0.282,1.146,1.9,1.998,2.568C76.795,43,77.736,43.674,77.979,45.048
			C78.324,45.02,78.152,45.463,77.979,45.048z M88.822,73.578c-0.637-0.898-1.416-1.202-2.855-1.426
			c-1.408-0.221-3.08,0.455-3.992,0c-0.365,0.013-0.396,0.365-0.856,0.285c-7.905-0.015-15.316,0.471-23.109,0.568
			c-3.568,0.33-7.357,0.439-10.84,0.854c-1.654,0.347-3.143,0.855-4.85,1.144c-1.25,0.748-3.284,0.713-3.427,2.57
			c-0.676,1.354,0.976,2.557,1.144,3.991c1.184,0.718,1.965,1.836,2.853,2.853c4.042,7.845,10.151,13.622,13.411,22.255
			c1.104,1.674,2.996,2.514,3.707,4.276c0.867,0.465,1.214,1.448,1.711,2.282c0.58,0.084,0.56,0.775,1.142,0.858
			c0.093,0.667,1.243,0.274,1.425,0.854c1.334,0,2.665,0.002,3.996,0c2.734-2.493,4.402-6.059,6.275-9.414
			c1.774-3.457,3.881-6.581,5.989-9.701c0.826-1.739,1.888-3.25,2.854-4.85c0.662-2,1.744-3.578,2.566-5.422
			c0.896-1.765,1.594-3.734,2.568-5.418C88.33,77.589,90.07,75.482,88.822,73.578z M49.166,82.136
			c-1.205-0.128-1.318-1.348-2.283-1.712c0.779-0.455,1.883-0.586,3.137-0.568C49.635,80.518,49.549,81.475,49.166,82.136z
			 M55.441,81.279c-0.204,0.457-0.99,1.589-1.143,1.713c0.274,1.188-0.853,0.059,0,0c0.199-1.416,0.771-2.46,1.428-3.424
			C56.187,79.834,55.688,80.732,55.441,81.279z M58.865,88.127c-0.837-0.242,0.169-0.916,0-1.428
			c0.491-0.17-0.021-1.352,0.569-1.424c-0.208-0.871,0.292-1.039,0.284-1.713c0.494-0.172-0.023-1.351,0.572-1.428v-0.855
			c0.421,0.15,0.717,0.425,1.142,0.57C60.891,84.26,59.487,85.803,58.865,88.127z M65.141,85.559
			c-0.168,0.654-1.27,2.521-1.426,2.568c0.309,1.516-0.869,0.34,0,0c0.012-1.699,0.672-2.748,0.854-4.279
			C66.064,84.369,65.411,84.516,65.141,85.559z M70.561,86.416c-0.146-0.148,0.207-0.361,0.285-0.284
			C70.994,86.279,70.641,86.494,70.561,86.416z M71.416,79.855c0.709,0.336,1.68,0.41,2.57,0.567
			C73.854,81.631,71.175,81.43,71.416,79.855z M75.695,80.997h0.856c-0.116,0.358-0.368,0.583-0.856,0.569V80.997
			C75.354,81.025,75.523,80.58,75.695,80.997z M75.98,94.688C76.012,95.035,75.566,94.866,75.98,94.688
			c-0.062-1.203,0.439-1.84,0.571-2.851C78.156,92.354,76.421,93.76,75.98,94.688z M83.4,82.424
			c-0.797-0.369,0.131-1.359,0.57-1.427c0.252-1.042-0.505-1.521,0-2.001h1.139c-0.105,0.943-0.664,1.427-1.139,2.001
			C84.184,81.873,83.188,81.545,83.4,82.424z"/>
	</g>
</g>
</svg>
