<?xml version="1.0" encoding="utf-8"?>
<!-- Generator: Adobe Illustrator 16.0.0, SVG Export Plug-In . SVG Version: 6.00 Build 0)  -->
<!DOCTYPE svg PUBLIC "-//W3C//DTD SVG 1.1//EN" "http://www.w3.org/Graphics/SVG/1.1/DTD/svg11.dtd">
<svg version="1.1" id="Layer_1" xmlns="http://www.w3.org/2000/svg"  x="0px" y="0px"
	 width="120px" height="120px" viewBox="4 4 120 120" style="enable-background:new 4 4 120 120;" xml:space="preserve">
<g id="arrow3-down">
	<g>
		<path d="M93.42,43.218c-0.146-0.995-1.863-0.418-2.854-0.571c-0.82-0.318-1.771-0.514-2.853-0.57
			c-9.575,0.314-18.79,0.991-28.531,1.142c-0.973-0.26-1.766-0.706-2.852-0.856c-5.398-0.332-12.332-0.57-17.687,0h-2.567
			c-0.227,0.632-1.771-0.055-1.429,1.141c0.204,1.059-0.486,1.226-0.284,2.283c0.646,0.305,1.038,0.865,1.141,1.711
			c1.037,0.865,1.601,2.202,2.566,3.139c1.667,2.045,3.252,4.168,5.137,5.992c1.561,2.529,3.118,5.06,4.852,7.418
			c1.533,2.646,3.534,4.83,5.133,7.416c0.721,0.151,0.707,0.814,0.856,1.143c0.04,0.086,0.498,0.189,0.573,0.285
			c0.09,0.119-0.064,0.432,0,0.57c0.035,0.084,0.498,0.191,0.567,0.285c0.265,0.348,0.364,0.855,0.57,1.141
			c0.306,0.424,0.835,0.446,0.856,0.856c0.018,0.329,0.186,0.128,0.287,0.284c0.561,0.869,0.873,1.738,1.426,2.568
			c0.963,1.129,1.418,2.766,2.568,3.709c0.766,1.463,1.23,3.11,3.139,3.139c0.092,0.606,1.244-0.047,1.425-0.285
			c0.886,0.027,0.815-0.896,1.995-0.57c0.826-0.507,1.334-1.33,1.714-2.283c0.75-0.676,1.718-1.133,1.997-2.281
			c1.398-1.457,2.54-3.166,3.425-5.137c2.388-3.316,4.827-6.584,6.847-10.27c1.168-1.586,1.922-3.592,3.138-5.136
			c0.336-1.088,1.045-1.808,1.426-2.853c0.58-0.848,1.367-1.489,1.713-2.568c1.481-1.372,2.558-3.149,3.996-4.564
			C92.568,47.845,94.324,45.691,93.42,43.218z M51.483,56.912c-0.841-0.301-0.995-1.292-1.428-1.998
			c0.187-1.241,1.482-1.369,1.712-2.566c1.618-0.193,2.34,0.513,3.709,0.569C53.742,53.846,52.44,55.205,51.483,56.912z
			 M66.031,65.47h1.426c0.512-0.081,0.586,0.271,0.287,0.287c-1.495,0.026-2.571,0.474-4.279,0.284
			C63.367,64.918,65.404,64.986,66.031,65.47z M57.473,53.773c0.01-0.277,0.35-0.221,0.572-0.285
			c2.188,0.472,4.395,0.933,6.844,1.142c-0.579,0.654-2.367,0.104-3.421,0.284c-0.751,0.297-1.751,0.342-2.853,0.285
			C58.328,54.631,58.121,53.981,57.473,53.773z M58.615,61.476v-1.425c0.965,0.078,1.639,0.453,2.853,0.284
			c0.457,1.122-1.231,0.099-1.143,0.856C59.453,60.983,59.488,61.684,58.615,61.476z M61.754,72.604
			c-0.819-0.801-1.42-1.813-1.714-3.139c0.486,0.104,0.54-0.222,0.573-0.57c1.629,0.176,2.904,0.709,4.849,0.57
			c0.254,0.92-0.931,0.4-1.141,0.854C63.491,71.109,62.443,71.678,61.754,72.604z M66.32,80.877
			c-1.023-1.074-1.648-2.537-2.283-3.994c1.166,0.068,1.605,0.864,2.852,0.855C66.402,78.49,66.859,80.182,66.32,80.877z
			 M66.32,74.6c0.121-0.637,1.402-0.115,1.994-0.283C68.367,75.764,66.957,74.834,66.32,74.6z M72.878,66.327h-0.567
			c0.051-0.243-0.112-0.271-0.289-0.286C71.91,65.486,73.322,65.624,72.878,66.327z M70.884,50.35
			c-1.694,0.17-2.545-0.499-4.28-0.284c1.289-0.802,3.875-0.308,5.418-0.857h6.851c1.021-0.501,3.088,0.046,3.994-0.57
			c0.485-0.104,0.538,0.224,0.569,0.57C79.398,49.736,74.83,49.732,70.884,50.35z"/>
	</g>
</g>
</svg>
