<?xml version="1.0" encoding="utf-8"?>
<!-- Generator: Adobe Illustrator 16.0.0, SVG Export Plug-In . SVG Version: 6.00 Build 0)  -->
<!DOCTYPE svg PUBLIC "-//W3C//DTD SVG 1.1//EN" "http://www.w3.org/Graphics/SVG/1.1/DTD/svg11.dtd">
<svg version="1.1" id="Layer_1" xmlns="http://www.w3.org/2000/svg"  x="0px" y="0px"
	 width="120px" height="120px" viewBox="4 4 120 120" style="enable-background:new 4 4 120 120;" xml:space="preserve">
<g id="arrow1-up">
	<g>
		<path d="M106.139,59.34c-0.724-1.16-1.836-2.086-2.586-3.23c-5.895-5.41-11.225-11.388-17.121-16.798
			c-5.443-5.866-10.931-11.685-16.799-17.124c-0.548-1.39-1.945-1.933-2.91-2.908c0.051-1.988-1.158-2.714-2.906-2.907
			c-0.776-0.133-0.701,0.589-1.614,0.323c-3.066,1.89-5.479,4.43-7.435,7.433c-3.665,2.353-6.356,5.708-9.366,8.722
			c-3.068,3.068-6.317,5.959-9.047,9.368c-3.027,3.112-5.991,6.284-8.721,9.693c-1.646,1.37-3.317,2.717-4.525,4.522
			c-1.862,0.876-3.441,3.604-2.263,6.462c1.761,2.227,7.106,0.862,10.338,1.614c2.933,0.193,6.651-0.398,9.046,0.324
			c-1.013,7.709-0.535,16.908-0.641,25.521c0.21,1.512,0.504,2.938,0.641,4.522c-0.15,4.783,0.069,9.196,0.969,12.925
			c1.093,1.385,2.338,2.618,3.882,3.553c9.544-0.685,20.3-0.157,30.368-0.32c0.77-0.199,2.344,0.404,2.583-0.325
			c1.801-0.188,3.819,0.257,5.493,0c1.881-0.286,2.906-0.798,3.877-1.938c0.931-10.205-0.963-21.705,0-31.984
			c0.055-1.885-0.562-3.098-0.321-5.168c0.259-1.876-0.409-4.184,0-5.169c4.507,0.095,8.819-0.013,12.596-0.647
			c3.083-0.092,5.487,0.819,7.11-0.969c0.045-0.602,0.213-1.08,0.646-1.291C107.948,61.399,106.786,60.377,106.139,59.34z
			 M46.692,70.003c-0.168-0.167,0.234-0.412,0.321-0.323C47.184,69.848,46.783,70.092,46.692,70.003z M47.986,69.034
			C48.02,69.424,47.516,69.232,47.986,69.034c0.069-0.362,0.356-0.503,0.648-0.646c-0.038-0.391,0.467-0.199,0,0
			C48.595,68.781,48.535,69.152,47.986,69.034z M97.418,60.633c-4.426,0.014-8.607-0.219-12.602-0.646
			c-1.02,0.163-0.523,1.846-1.291,2.263c-0.243,1.048-0.586,1.999-0.971,2.906c-0.384,13.154-0.466,26.162-0.646,38.77H63.173
			c0.194-1.309,1.11-1.9,0.964-3.553c-2.791-1.119-4.143,1.839-5.166,3.553c-1.608-0.1-2.964,0.051-4.203,0.323
			c0.442-3.114,2.312-4.8,3.557-7.106c0.584-1.138,1.57-1.875,1.936-3.23c0.96-0.734,1.749-2.362,1.294-3.557
			c-1.11-1.457-3.32-0.082-4.2,0.647c-1.88,1.458-2.873,3.804-4.521,5.493c-0.37,0.984-0.972,1.701-1.292,2.262
			c-0.834,1.436-1.016,3.361-2.906,3.555c1.665-2.211,2.997-4.754,4.521-7.108c1.186-2.69,3.637-4.117,3.878-7.755
			c-0.259-0.71-0.648-1.288-1.617-1.292c-0.71-0.365-1.073-1.08-1.938-1.292c0.812-2.1,2.189-3.624,3.233-5.491
			c0.951-1.655,2.964-3.524,2.259-5.815c0.039-0.92-2.526-0.891-2.909-0.324c-0.665-0.584,0.568-1.998,0.972-2.584
			c0.324-1.073,0.973-1.826,0.969-3.229c-0.188-1.212-0.65-2.151-1.617-2.586c-2.787-0.527-2.866,1.656-5.164,1.616
			c-1.365,0.054,0.002-0.498,0-0.969c0.654-0.098,0.63-0.877,1.287-0.973c0.86-0.756,1.862-1.367,2.26-2.584
			c0.171-2.326-0.999-3.304-2.583-3.877c-2.147,0.218-3.716,1.021-4.846,2.262c-0.713-0.04-0.135-1.371-0.325-1.938
			c-2.61,0.502-4.448,0-7.425,0.322c0.484-0.913,2.193-0.602,2.906-1.293c1.506,0.112,1.906-0.895,2.585-1.615
			c-0.137-1.803-1.656-2.222-3.882-1.938c-2.125,0.348-3.487,1.463-5.812,1.614c0.033,0.39-0.471,0.199,0,0
			c1.264-0.999,2.902-1.619,4.844-1.939c0.677-0.509,1.701-0.668,2.909-0.645c0.75-0.438,1.439-0.929,2.583-0.969
			c0.245-0.995-0.883-0.621-0.642-1.616c1.9-0.682,3.625-1.543,5.167-2.583c1.56-0.057,3.085-0.146,3.557-1.292
			c0.104-2.369-2.616-1.911-4.849-1.939c-2.948,0.605-5.354,1.752-8.402,2.26c2.347-1.641,5.125-2.848,7.755-4.197
			c1.349-0.701,2.685-1.411,3.877-2.263c1.484-0.563,3.081-1.013,3.877-2.262c-1.168-0.833-3.517-0.084-4.521,0.322
			c-1.637,0.303-2.973,0.904-4.527,1.292c0.92-1.232,2.42-1.891,4.207-2.26c1.188-1.072,3.05-1.47,4.519-2.263
			c1.57-0.585,3.138-1.171,4.521-1.938c1.63-0.633,3.784-0.742,4.848-1.938c1.147-0.968-1.053-2.419-0.322-2.909
			c1.152-0.635,1.773,0.103,2.266,0.972c0.87,0.527,1.532,1.26,1.936,2.26c4.388,3.904,8.212,8.373,12.603,12.277
			c4.259,5.432,9.692,9.69,14.216,14.861c0.465,0.182,0.787,0.503,0.967,0.969C97.057,59.76,98.186,60.538,97.418,60.633z"/>
	</g>
</g>
</svg>
