<?xml version="1.0" encoding="utf-8"?>
<!-- Generator: Adobe Illustrator 16.0.0, SVG Export Plug-In . SVG Version: 6.00 Build 0)  -->
<!DOCTYPE svg PUBLIC "-//W3C//DTD SVG 1.1//EN" "http://www.w3.org/Graphics/SVG/1.1/DTD/svg11.dtd">
<svg version="1.1" id="Layer_1" xmlns="http://www.w3.org/2000/svg"  x="0px" y="0px"
	 width="120px" height="120px" viewBox="4 4 120 120" style="enable-background:new 4 4 120 120;" xml:space="preserve">
<g id="arrow1-right">
	<g>
		<path d="M103.74,54.616c-4.984-6.646-11.395-11.876-17.127-17.77c-3.022-2.793-6.356-5.276-9.043-8.403
			c-2.098-0.81-2.898-2.919-4.524-4.199c-1.836-1.073-2.506-3.312-4.849-3.877h-2.586c-0.379,0.156-0.732,0.344-0.965,0.646
			c-1.082,0.651-0.82,2.569-0.972,4.523c-0.362,4.611-0.117,10.649-0.648,14.54c-7.711-1.014-16.909-0.536-25.524-0.646
			c-1.511,0.215-2.938,0.509-4.522,0.646c-4.784-0.149-9.198,0.066-12.925,0.969c-1.388,1.092-2.622,2.336-3.556,3.878
			c0.69,9.865,0.155,20.954,0.322,31.343c0.73,2.822-0.294,7.403,0.971,9.694c0.569,0.292,0.998,0.722,1.292,1.29
			c7.31,1.003,16.096-0.854,23.588,0.325c1.405,0.006,1.801-0.999,3.555-0.647c2.933,0.307,5.831,0.455,8.722,0
			c1.531,0.195,2.353,1.098,3.231,1.939h1.938c0.2-0.096,1.246-0.805,1.294,0c-0.152,3.922,0.171,7.367,0.647,10.662
			c0.092,3.082-0.822,5.484,0.967,7.109c0.604,0.043,1.08,0.209,1.292,0.646c3.841,0.501,4.496-2.185,6.787-3.231
			c11.438-11.931,23.396-23.347,35.219-34.896c0.934-0.791,1.845-1.607,3.234-1.939c0.039-0.819,0.467-1.252,1.289-1.293
			c-0.084-0.942,0.731-0.991,0.646-1.938C110.557,59.217,106.975,57.092,103.74,54.616z M100.51,58.492
			c0.167,0.167-0.232,0.414-0.324,0.325C100.021,58.649,100.419,58.404,100.51,58.492z M24.898,81.757
			c-1.671,0.511-0.942-2.444-0.643-2.907c0.696-0.054,0.145,1.146,0.32,1.615C24.151,81.273,25.854,81.477,24.898,81.757z
			 M24.256,68.509C24.22,68.119,24.726,68.312,24.256,68.509C24.287,68.898,23.784,68.709,24.256,68.509z M51.398,81.436h-0.647
			v-0.647h0.647V81.436z M57.212,82.08c-0.167-0.167,0.235-0.412,0.323-0.323C57.703,81.925,57.302,82.171,57.212,82.08z
			 M67.555,97.59c-0.717-0.039-0.141-1.371-0.324-1.938c0.674-0.137,0.854,0.222,1.291,0.322
			C68.676,96.989,67.648,96.827,67.555,97.59z M73.689,91.452h-0.645v-0.647h0.645V91.452z M101.48,65.602
			c-0.957,0.338-0.951,1.635-2.584,1.293c-1.533,1.485-3.836,2.193-5.172,3.879c-0.66,0.646-0.636-0.146-1.295-0.324
			c-1.035,0.576-1.637,1.593-1.938,2.908c-2.234,1.748-3.901,4.066-6.141,5.814c-0.108,0.754-0.328,1.395-0.965,1.615
			c-0.562,0.822,0.489,1.255-0.648,1.293c-1.328,0.146-0.295-1.688,0-1.938c0.283-0.9,0.402-1.965,0.97-2.586
			c0.095-1.942,1.567-3.527,0.97-5.168c-2.178-0.24-1.937,1.939-2.908,2.906c-0.605,1.439-1.513,2.577-1.938,4.201
			c-1.599,2.387-2.552,5.418-3.878,8.078c-1.018,0.49-1.941,1.076-3.23,1.292c0.861-3.664,2.088-6.959,2.908-10.662
			c0.732-1.528,0.674-3.853,1.613-5.171c0.007-1.209,0.428-2.688,0.648-2.91c0.207-0.205-0.287-0.896-0.322-0.967
			c-0.213-0.4-0.342-0.453-0.973-0.969c-1.518,0.523-2.188,1.901-2.908,3.229c-0.637,1.516-1.822,2.486-2.264,4.202
			c-1.708,2.489-3.105,5.291-4.521,8.077c-1.053-0.668-1.903-1.543-3.877-1.293c0.648-2.582,2.73-5.705,1.292-8.4
			c-0.378-0.051-0.917,0.057-0.969-0.32c-2.469,0.545-3.578,2.452-4.522,4.522c-0.769-1.089,1.627-4.771-0.647-5.495
			c-1.639-0.236-1.999,0.803-2.908,1.293c-0.179,0.466-0.501,0.79-0.967,0.971c-0.095,0.287-0.876,1.413-0.97,0.646
			c0.262-1.313,1.244-3.252,0-4.202c-2.357,0.229-3.303,1.87-4.522,3.232c-0.729-0.957,0.96-2.26,0.645-3.877
			c-0.101-0.758-0.998-0.725-1.293-1.293c-2.632,0.812-4.105,2.789-5.492,4.848c-0.701,0.056-0.148-1.146-0.325-1.617
			c0.236-0.883-0.638-0.65-0.646-1.293c-2.161-0.438-2.659,0.79-3.877,1.293c-0.019,0.197-0.048,0.383-0.322,0.324
			c0.031,0.391-0.471,0.199,0,0c0.016-0.198,0.047-0.383,0.322-0.324c0.286-1.186,1.477-1.824,0.649-3.229
			c-3.326-0.201-3.367,2.883-5.172,4.201c-0.685,2.438-2.591,3.655-3.232,6.137c0.118,1.176,0.765,1.822,1.937,1.938
			c1.491,0.093,1.745-1.058,2.264-1.938c0.878,0.418,1.151,1.437,2.585,1.293c0.803,0.049,1.338-0.166,1.619-0.646
			c0.568,0.094,0.997-1.52,1.288-0.646c-0.13,0.779,0.592,0.705,0.324,1.617c0.39-0.033,0.199,0.469,0,0
			c-4.499-0.106-8.908,1.924-12.924,0.321c1.118-1.79,2.428-3.384,2.907-5.813c1.103-1.81,2.091-3.728,2.264-6.463
			c-1.015-0.854-2.241,0.15-2.908,0.644c0.031,0.394-0.473,0.2,0,0c0.288-2.404,0.851-4.532,0.971-7.107
			c-0.062-0.908-0.564-1.377-1.62-1.291c0.646-1.266,0.15-2.81-0.966-3.232c-1.023-0.051-1.954-0.011-2.263,0.647
			c-0.675,0-1.213,1.761-1.619,0.969c0.216-2.58-0.282-4.453-0.321-6.785c0.734-0.131-0.171-1.894,1.291-1.292
			c-0.229-2.277,0.158-3.938,1.295-4.847c0.378-0.051,0.916,0.056,0.97-0.324c1.001-0.032,1.545,0.395,2.263,0.646h24.231
			c1.157-0.567,3.498,0.052,4.523-0.646c-0.391,0.034-0.196-0.469,0,0c2.843,0.855,6.193-0.446,9.694,0
			c2.491-3.65-0.026-10.964,1.294-16.155c0.707-0.367,1.32-0.834,2.583-0.646c2.8,0.974,3.955,3.588,5.817,5.493
			c0.896,1.042,1.531,2.347,2.584,3.231c0.361,1.575,2.027,1.85,2.261,3.555c1.591,1.535,3.409,2.841,4.849,4.522
			c1.016,0.366,0.854-0.094,1.616,0.324c1.46,2.418,3.611,4.144,5.813,5.815c0.524,0.771,1.164,1.425,1.617,2.263
			c1.143,0.257,0.914,1.886,1.938,2.262c0.263,1.117-0.604,1.364,0,1.937c0.653,0.963,1.621,1.61,2.905,1.939
			c-1.062,0.645-0.067,0.511,0,1.615C101.887,63.257,101.281,64.83,101.48,65.602z M73.046,43.953
			c-0.013,0.343,0.149,0.82,0.322,0.322C73.38,43.933,73.217,43.455,73.046,43.953z"/>
	</g>
</g>
</svg>
