<?xml version="1.0" encoding="utf-8"?>
<!-- Generator: Adobe Illustrator 16.0.0, SVG Export Plug-In . SVG Version: 6.00 Build 0)  -->
<!DOCTYPE svg PUBLIC "-//W3C//DTD SVG 1.1//EN" "http://www.w3.org/Graphics/SVG/1.1/DTD/svg11.dtd">
<svg version="1.1" id="Layer_1" xmlns="http://www.w3.org/2000/svg"  x="0px" y="0px"
	 width="120px" height="120px" viewBox="4 4 120 120" style="enable-background:new 4 4 120 120;" xml:space="preserve">
<g id="browser2">
	<g>
		<path d="M113.41,22.099c-0.398-1.021-0.812-2.026-1.989-2.271c-0.43-0.891-2.176-0.473-3.403-0.567H96.094
			c-9.939-1.229-20.207-2.127-30.949-2.557c-10.617,0.215-22.395,0.635-32.932,0c-1.946,0.421-4.34,0.392-6.245,0.853
			c-3.418-0.01-6.962-0.148-9.371,0.853c-0.189,0.564-0.978,1.212,0,1.419c0.155,1.006-1.006,0.697-0.85,1.703
			c-0.423,0.429-0.459,1.246-0.567,1.987c-0.171,0.68-0.411,1.295-0.285,2.271c-0.396,1.307-0.433,2.974-0.569,4.542v2.556
			c-0.172,0.68,0.358,2.059-0.283,2.27c-0.259,7.074,0.743,12.885,1.138,19.307c1.105,12.618,0.703,26.742,2.271,38.896
			c1.006,1.736,2.055,3.433,3.405,4.828c2.124,0.903,4.218,1.84,6.812,2.271c4.467-0.078,9.306,0.22,13.346-0.284v-3.975
			c-0.271-1.444,0.45-2.963,0-3.691c-2.443,0.25-5.563,0.284-8.52,0.284c-3.047,0-6.191,0.343-7.946-1.136
			c-1.693-10.799-1.231-23.751-2.271-35.205c-0.24-6.006-1.253-11.239-1.422-17.317v-9.369c-0.345-1.264-0.309-2.909-0.283-4.543
			v-2.271c0.392-0.896-0.702-1.713,0-1.986c3.115,0.197,6.566,0.058,9.084,0.852c1.687-0.077,2.908,0.309,4.261,0.566
			c0.817,0.035,1.857-0.153,2.272,0.285c0.677,0.174,2.059-0.356,2.27,0.283c9.993,0.444,19.936,0.146,29.524,0.568
			c9.684,0.426,18.908,1.743,27.822,2.556h9.088c1.006,0.031,2.471-0.391,1.987,1.136c0.04,1.251-0.804,0.081-1.137,0h-2.271
			c-0.729,0.785-3.227-0.197-3.977,0.568c-2.827,0.198-5.564,0.488-8.232,0.851c-10.568,0-22.748,0.001-33.219,0
			c-3.609,0-7.146-0.142-9.936,1.421c-0.238,1.272-0.608,2.418-0.565,3.973c0.276,1.237,0.848,2.179,1.415,3.123
			c0.489-0.015,0.73,0.219,0.855,0.569c1.389,0.785,3.626,0.725,5.676,0.85h6.53c12.707,0.448,26.064,0.244,39.18,0.285
			c1.173,0.035,1.776-0.493,3.121-0.285c0.687,0.117,0.618-0.517,1.422-0.282c0.741-0.079,1.421-0.096,1.137,0.852
			c0.046,0.994,0.231,2.128-1.137,1.702H64.012c-0.53-0.271-0.949,0.852-1.138,0c-5.82,0.646-15.073-0.021-21.859,0.568
			c-3.446,0.435-6.975,0.787-10.79,0.853c-0.3,0.646-1.783,0.108-2.556,0.283c-0.704,0.238-1.521,0.373-2.555,0.284
			c-1.688,0.299-3.358,0.617-3.122,2.84c-0.119,0.97,0.852,0.852,1.135,1.419c0.762-0.165,1.774,0.84,2.271,0
			c1.866,0.068,3.582-0.013,5.109-0.283c3.604-0.088,6.814-0.57,10.507-0.568c20.559-0.64,42.284-0.11,63.31-0.284
			c0.771,0.176,2.254-0.359,2.559,0.284v39.181c-0.166,1.754,0.68,3.75,0.282,4.825c-8.478,0.135-16.746-0.701-24.416,0.566
			c-0.333,2.412-0.479,5.008-0.565,7.666c4.697-0.666,9.584,0.012,14.478,0c4.746-0.377,10.409,1.371,13.629-0.852
			c1.005-1.141,1.502-3.436,0.849-5.396c1.596-0.301,2.539-1.248,2.842-2.838c-0.508-4.093,0-7.934,0-11.924
			c-0.002-17.28,0-34.774,0-51.672C113.859,24.489,114.343,22.584,113.41,22.099z M106.883,34.021
			c-3.943,0.608-8.012,0.853-12.21,0.853c-4.144,0-8.22-0.283-12.489-0.283c-8.559,0-17.228,0.138-25.556,0.283
			c-2.233-0.131-5.417,0.688-5.109-1.987c-0.227-1.079,1.343-0.36,1.985-0.567h37.762c4.861-0.533,9.651-1.139,14.764-1.421
			c0.068-0.308,0.564-0.192,0.566-0.567C107.251,31.004,106.699,32.88,106.883,34.021z M22.561,30.898
			c-0.058,3.182,1.389,4.858,3.121,6.246c3.141,0.86,5.775-0.453,6.813-2.554v-3.407c-0.594-0.256-0.099-1.604-0.848-1.704
			c0.049-0.996-0.962-0.934-1.14-1.702c-0.966-0.073-1.364-0.718-2.556-0.568c-0.217,0.064-0.557,0.007-0.565,0.283
			c-1.297-0.254-1.609,0.473-2.555,0.567c-0.374,0.765-1.705,0.566-1.705,1.704C22.355,29.561,23.332,31.104,22.561,30.898z
			 M27.669,31.467c0.801-0.041,0.82,0.695,0.854,1.42C27.637,33.017,27.615,32.28,27.669,31.467z M35.337,35.156
			c0.363,1.34,1.515,1.896,2.837,2.271c1.744,0.229,2.445-0.585,3.691-0.852c-0.034-0.401,0.16-0.609,0.287-0.85
			c1.063-2.101,0.323-5.052-0.57-6.248c-0.626-0.834-1.388-1.536-1.988-1.987c-2.45-0.699-4.833-0.021-5.959,1.42
			c-0.194,1.037-0.4,2.064-0.285,3.407C33.74,33.536,34.277,34.61,35.337,35.156z M83.314,72.35
			c0.418-0.908,0.976-1.677,0.854-3.121c-0.624-0.982-0.891-2.328-2.271-2.557c-0.705-0.996-1.621-1.785-2.84-2.272
			c-1.693-1.614-3.688-2.933-5.675-4.257c-1.684-1.631-3.539-3.087-5.396-4.543c-0.729-0.977-1.524-1.882-2.842-2.271
			c-0.68-1.117-1.451-2.144-3.121-2.271c-0.41,0.158-0.693,0.442-0.853,0.852c-1.682,1.819-3.653,3.35-5.108,5.395
			c-1.853,1.649-3.103,3.901-5.113,5.394c-1.388,2.113-3.903,3.098-5.107,5.396c-1.334,2.169-4.236,2.77-3.977,6.53
			c0.716,1.839,2.609,2.5,5.111,2.555h3.973c1.145,0.182,3.022-0.367,3.693,0.284c-1.415,8.9-0.802,19.828-1.421,29.526
			c0.642,0.684,0.922,1.727,1.705,2.271c1.103,0.224,1.854,0.796,2.555,1.419c4.354-0.021,9.177,0.756,13.345,0
			c0.616-0.613,1.663-1.524,1.7-2.271c0.019-0.328,0.183-0.127,0.283-0.285c0.426-0.653,0.799-1.226,0.854-1.985
			c-0.072-2.011-0.661-3.502-0.854-5.395c0.004-4.066,0.129-8.012,0.571-11.641c-0.188-2.269,0.248-3.912,0.282-5.963v-3.123
			c0.824-0.217-0.26-2.34,0.566-2.555c3.965,0.084,7.43-0.33,9.367-2.271C83.909,74.406,84.165,72.74,83.314,72.35z M75.368,71.782
			h-2.558c-1.142-0.279-2.49-0.349-3.973-0.284c-0.967,4.714-1.845,9.514-2.839,14.195v3.689c0.233,0.803-0.401,0.735-0.285,1.42
			v5.396c-0.021,0.493,0.062,0.883,0.285,1.136v1.703c0.472,0.568-0.024,2.105,0.567,2.556c0.019,1.115,0.135,2.134,0.565,2.839
			c-0.212,0.642-1.593,0.11-2.272,0.284c-0.6,0.376-0.838-0.141-1.701,0.284c0.189-2.46,1.539-3.764,1.701-6.246
			c-0.156-0.41-0.439-0.691-0.85-0.854c-1.318,0.104-1.871,0.969-2.272,1.988c-0.641-0.213-0.11-1.593-0.282-2.271
			c0.667-3.216,2.321-5.438,2.837-8.802c-0.064-0.404-0.465-0.479-0.565-0.853c-1.583-0.526-1.851,1.729-2.558,1.136
			c-0.938-4.838,2.841-6.412,1.988-10.222c-1.44-0.114-1.657,0.991-2.557,1.421c0.03,0.344-0.411,0.174,0,0
			c0.041-1.002,0.813-1.271,0.854-2.271c0.197-1.051-0.996-0.709-1.421-1.135v-5.11c-0.301-0.644-1.782-0.108-2.555-0.284
			c-2.963,0-3.754,0.352-7.381,0.284c0.233-1.449,1.366-0.483,2.271-0.284c1.035-0.005,1.273-0.809,1.985-1.137
			c1.405,0.679,3.756,0.804,3.977-1.135c-0.109-1.597-1.88-1.528-2.841-2.271c0.077-1.345,1.241-1.601,1.705-2.557
			c0.899,0.396,2.508,0.396,3.404,0c0.065-0.219,0.011-0.56,0.286-0.566c0.485-1.438-1.326-1.432-0.57-2.271
			c1.345,0.02,2.796,0.144,3.124-0.853c0.553-1.572-1.912-1.065-1.136-1.987c0.759-0.762,1.039,0.401,1.422,0.853
			c0.711,0.234,0.897,0.994,1.416,1.419c0.777,1.211,2.063,1.913,2.842,3.124c1.052,0.84,2.033,1.75,3.123,2.555
			c1.146,0.839,1.93,2.045,3.406,2.556c-0.031,0.347-0.087,0.672-0.568,0.566c-0.135,0.984,1.541,0.164,1.705,0.854
			c0.848,0.004,0.967,0.737,1.701,0.852C77.23,72.133,75.955,71.611,75.368,71.782z"/>
	</g>
</g>
</svg>
