<?xml version="1.0" encoding="utf-8"?>
<!-- Generator: Adobe Illustrator 16.0.0, SVG Export Plug-In . SVG Version: 6.00 Build 0)  -->
<!DOCTYPE svg PUBLIC "-//W3C//DTD SVG 1.1//EN" "http://www.w3.org/Graphics/SVG/1.1/DTD/svg11.dtd">
<svg version="1.1" id="Layer_1" xmlns="http://www.w3.org/2000/svg"  x="0px" y="0px"
	 width="120px" height="120px" viewBox="4 4 120 120" style="enable-background:new 4 4 120 120;" xml:space="preserve">
<g id="drive2">
	<g>
		<path d="M106.707,52.023c-1.098-1.734-1.205-4.464-2.43-6.075c-0.489-2.445-1.379-4.493-2.127-6.684
			c-1.183-4.688-2.937-8.81-4.252-13.367c0.004-1.722-0.211-3.23-0.605-4.557c-1.585-1.252-4.214-1.458-6.99-1.519
			c-2.09-0.198-3.488,0.485-4.857,0.305c-0.219-0.029-0.282-0.301-0.307-0.305c-0.252-0.05-0.305,0.305-0.305,0.305
			c-0.707,0.004-1.477-0.006-2.43,0c-1.248,0.239-1.559-0.467-2.734-0.305c-1.021,0.496-3.062-0.024-3.947,0.607
			c-1.613,0.275-3.433-0.445-4.252,0v5.773c-0.136,1.587-1.306,2.139-1.522,3.646c-0.349,6.33-1.575,11.788-1.212,18.834
			c1.388,0.129,2.572,0.461,4.252,0.304c1.322,0.196,3.436-0.396,4.253,0.303c-1.603,1.437-3.324,2.755-5.164,3.949
			c-1.339,1.801-3.216,3.062-4.56,4.861c-2.172,1.069-3.146,3.333-5.466,4.254c-0.565-1.562-1.73-2.522-2.432-3.948
			c-1.193-0.73-1.843-2.006-3.038-2.736c-0.895-1.026-2.229-1.617-2.732-3.036c-1.198-0.73-1.846-2.006-3.039-2.735
			c0.054-1.066-1.025-1-1.215-1.822c-0.381-0.125-0.621-0.394-0.605-0.911c-0.332-0.073-0.732-0.5-0.304-0.608
			c3.853,0.704,7.656,1.456,12.456,1.215c0.364-1.353,0.539-2.9,0.909-4.253c0.216-0.826-1.434,0.217-1.215-0.607
			c0.655-1.167,0.763-2.884,0.911-4.558c0.401-1.521,0.362-3.484,0.604-5.164c0.335-1.345-0.513-1.511-0.604-2.431
			c0.459-0.755,0.584-1.843,0.604-3.038c0.339-0.875,0.548-1.883,0.612-3.038c0.127-1.086,0.807-1.621,0.608-3.038
			c0.081-0.692-0.074-1.141-0.608-1.215c-0.325-0.282-0.098-1.12-0.913-0.911h-0.909c-0.393,0.018-0.424,0.39-0.913,0.304
			c-5.753,0.224-11.061,0.892-16.709,1.215c-2.148,0.321-3.967-0.597-5.468,0c-1.174,0.346-1.144,1.894-2.129,2.43
			c-0.236,1.383-1.467,1.774-1.519,3.343c-1.229,1.907-1.823,4.455-2.732,6.683c-0.749,2.392-1.651,4.627-2.431,6.988
			c-0.971,2.167-1.599,4.681-2.732,6.684c-2.381,7.04-5.946,12.89-8.813,19.44c-1.165,1.976-1.92,4.357-3.036,6.381
			c-0.134,1.046,0.118,1.701,0.303,2.431c-0.79-0.183-1.095,0.121-0.911,0.912c-0.276,8.883,0.751,16.467,2.43,23.392
			c-0.629,0.991-1.451,1.789-1.216,3.646c1.152,2.288,4.469,2.419,6.686,3.646c2.92,0.52,5.938,0.946,9.113,1.215h11.239
			c8.785-1.347,19.309-0.945,28.861-1.521h24.303c2.605,0,5.28,0.451,7.292-0.91c0.664-1.11,1.155-2.421,0.61-3.95
			c1.077-0.541,0.907-2.328,1.819-3.037c0.819-0.903,1.156-2.287,2.127-3.037c0.9-2.441,2.367-4.317,3.646-6.381
			c0.854-3.396,1.449-7.056,3.036-9.723C112.979,69.045,108.943,61.433,106.707,52.023z M98.204,99.72
			c-1.485-0.034-3.203,0.164-4.253-0.304c-6.395-0.189-13.555,0.389-19.444-0.303c-2.633,0.402-5.463,0.613-8.504,0.605
			c-1.421,0.205,0.134-2.564-1.219-2.43c-1.922-0.102-1.999,1.646-3.036,2.43c-2.319-0.093-4.409,0.049-6.379,0.305
			c-1.344,0.045,0.027-0.744-0.307-1.519c0.078-0.888-0.569-1.05-0.91-1.521c-2.097-0.375-2.127,1.316-3.342,1.822
			c-0.104,1.516-1.81,1.43-3.041,1.822c-1.231,0.287,0.668-3.204-0.908-3.341c-1.352-0.63-3.297,0.465-3.645,1.823
			c-0.77,0.242-0.774,1.248-1.217,1.822c-0.503,0.508-1.782,0.239-2.732,0.303c0.532-2.782,3.459-4.543,2.431-7.898
			c-3.727-1.107-5.234,2.401-6.988,4.253c-0.305,1.318-0.87,2.37-1.216,3.646h-3.947c-0.418-1.702,1.38-3.629,1.518-5.771
			c0.933-1.598,1.892-3.17,2.127-5.469c-0.915-1.195-2.843-0.374-3.645,0.305c-0.595,1.126-1.317,2.129-1.825,3.342
			c-0.458,1.265-1.061,2.381-1.52,3.646c-0.098,0.71-0.364,1.255-0.604,1.822c-0.283,0.529,0.007,1.63-0.913,1.519
			c0.823-4.037,1.655-8.063,2.128-12.455c-0.627-1.194-1.194-2.454-3.344-2.125c-2.077,0.149-2.729,1.726-3.342,3.341
			c-0.981-0.74-0.559-2.884-1.216-3.949c-0.24-1.381-0.43-2.812-0.912-3.949v-0.608c0.273-0.186,0.548-0.366,0.61,0
			c2.052-0.024,3.767,0.284,5.47,0.608c12.752,0.003,25.076,0.857,40.1,0.607c2.096,0.367,5.223,0.516,7.292,0
			c10.525-0.41,21.566-0.306,32.504-0.304C102.329,88.049,99.697,93.316,98.204,99.72z M99.721,74.809H75.115
			c-2.024,0.51-5.002,0.064-6.988,0.607h-11.24c-0.572-0.135-1.832,0.412-1.518-0.607c-1.961,0.978-5.31,0.564-7.901,0.912
			c-1.361,0.248,0.066-2.295-1.212-2.128c-2.537-0.306-3.245,1.214-4.558,2.128c-2.233,0.446-3.604,0.129-5.774,0.303
			c0.087-1.625,1.197-2.107,0.611-3.645c-1.618-0.895-3.584,0.182-4.256,1.214c-1.883,0.245-1.532,2.722-3.949,2.431
			c0.163-1.556,1.497-1.945,1.822-3.34c0.759-0.762,2.14-2.18,1.521-3.344c-1.157-0.938-2.55,0.479-3.343,0.912
			c-1.098,0.627-1.641,1.805-2.732,2.432c-0.374,0.639-0.843,1.184-1.215,1.82c-0.222,0.796-0.458,1.57-1.826,1.217
			c-1.934-0.236,0.356-1.643,0.912-2.128c0.527-1.196,1.457-1.985,2.129-3.038c-0.02-0.402,0.44-0.393,0.604-0.604
			c0.199-0.261,0.1-0.632,0.308-0.912c0.315-0.438,0.928-0.782,1.212-1.215c0.185-0.279,0.155-0.673,0.303-0.911
			c0.52-0.834,1.535-1.499,1.218-2.735c-1.614-0.799-2.898,1.077-4.254,1.521c0.034,0.367-0.439,0.186,0,0
			c0.527-1.497,1.53-2.521,2.431-3.646c-0.214-1.127,0.518-1.304,0.303-2.43c5.446-10.354,9.067-22.528,13.065-34.331
			c6.126,0.159,11.206,0.806,17.314,0.306c-0.401,3.548-1.066,6.833-1.52,10.327c0.787,1.949,0.373,5.097,0.91,7.292
			c-4.254,0.305-6.827-1.068-10.933-0.912c-1.138,0.079-1.729,0.706-2.432,1.216c-1.026,0.29-1.872,0.764-2.128,1.823
			c0.14,2.39,1.59,3.471,2.735,4.861c1.069,1.56,2.255,3.01,3.644,4.252c0.418,0.896,1.404,1.23,1.822,2.127
			c0.984,0.336,1.046,1.586,2.129,1.823c1.188,1.442,2.507,2.759,3.95,3.948c0.682,1.846,1.86,3.201,2.732,4.861
			c1.107,0.21,1.401,1.231,2.735,1.215c1.849,0.013,2.612-1.558,3.645-2.431c0.553-0.466,1.271-0.732,1.822-1.215
			c0.521-0.451,0.86-1.193,1.521-1.519c2.062-1.987,4.291-3.811,6.379-5.772c2.23-1.818,4.699-3.399,6.988-5.164
			c1.073-0.953,2.213-1.835,3.342-2.733c0.279-1.849,2.641-1.61,2.732-3.646c0.018-1.436-0.676-2.162-1.519-2.734
			c-1.951-0.333-2.622,0.621-3.948,0.912H73.9c-0.053-3.597,1.099-5.99,1.215-9.419c0.619-3.025,0.461-6.828,1.214-9.721
			c4.375-0.224,7.812,0.492,12.153,0.303c1.438-0.397,2.908-0.923,4.555-0.303c-0.105,2.742,0.494,4.773,1.215,6.685
			c0.16,1.153,0.459,2.174,0.913,3.036c0.162,1.155,0.454,2.178,0.911,3.039c1.049,4.323,2.449,8.284,3.645,12.457
			c0.893,1.741,1.176,4.088,2.127,5.772c0.195,1.12,0.312,2.32,0.912,3.037c0.219,1.2,0.377,2.459,0.912,3.342
			c1.146,4.22,2.598,8.135,3.34,12.76C105.296,73.846,102.479,75.258,99.721,74.809z"/>
	</g>
</g>
</svg>
