<?xml version="1.0" encoding="utf-8"?>
<!-- Generator: Adobe Illustrator 16.0.0, SVG Export Plug-In . SVG Version: 6.00 Build 0)  -->
<!DOCTYPE svg PUBLIC "-//W3C//DTD SVG 1.1//EN" "http://www.w3.org/Graphics/SVG/1.1/DTD/svg11.dtd">
<svg version="1.1" id="Layer_1" xmlns="http://www.w3.org/2000/svg"  x="0px" y="0px"
	 width="120px" height="120px" viewBox="0 0 120 120" enable-background="new 0 0 120 120" xml:space="preserve">
<g id="atom">
	<g>
		<path d="M111.216,72.115c-1.524-2.467-3.407-4.581-5.135-6.848c-1.008-0.802-1.899-1.713-2.854-2.568
			c-1.117-0.686-1.803-1.812-3.135-2.281c-1.707-1.906-4.394-2.837-6.279-4.563c4.556-7.999,9.549-15.56,9.414-28.245
			c-0.578-0.275-0.613-1.096-0.564-1.998c-2.883-4.253-8.359-5.906-15.979-5.42c-3.093,0.711-5.636,1.974-8.274,3.137
			c-1.091,1.385-3.084,1.86-3.991,3.424c-1.979,0.498-2.495,2.453-4.281,3.14c-1.388-1.748-3.128-3.149-4.279-5.136
			c-1.015-0.127-1.25-1.032-1.998-1.428c-0.625-0.608-1.584-0.887-1.998-1.711c-1.817-0.65-3.523-1.42-5.134-2.283
			c-1.22-0.015-2.089-0.381-3.136-0.568h-3.995c-1.788,0.397-3.024,1.351-4.565,1.996c-2.578,2.463-4.365,5.714-5.133,9.984v6.564
			c-0.172,0.59,0.35,1.873-0.285,1.996H23.346c-1.592,0.404-2.924,1.069-4.852,1.141c-0.461,0.869-1.447,1.216-2.282,1.713
			c-1.122,2.016-2.005,4.269-2.567,6.847v5.134c0.441,0.416,0.601,1.113,0.573,1.998c0.688,0.164,0.632,1.077,0.853,1.713
			c0.396,0.746,1.301,0.98,1.429,1.995c0.854,0.286,1.425,0.856,1.712,1.712c0.896,1.479,2.043,2.709,2.854,4.28
			c1.447,1.212,2.779,2.543,3.992,3.994c2.002,0.371,4.055,0.699,4.85,2.281c-3.467,6.346-4.653,16.112-3.707,25.961
			c0.714,1.093,1.221,2.393,1.712,3.709c1.284,1.188,2.64,2.305,3.707,3.71c1.017-0.062,1.71,0.191,1.997,0.855
			c1.964,0.127,3.465,0.719,5.706,0.569c4.494-0.263,8-1.512,11.128-3.139c1.586-0.793,2.917-1.841,4.565-2.568
			c1.235-1.144,2.659-2.094,4.276-2.854c2.431,1.947,4.212,4.539,6.849,6.277c2.596,1.872,5.582,3.356,9.129,4.279
			c2.725,0.061,5.396,0.068,7.416-0.57c0.701-0.537,1.297-1.181,2.282-1.427c0.441-1.366,1.716-1.901,1.999-3.424
			c0.991-0.817,0.842-2.772,1.713-3.709c-0.168-1.216,0.203-1.888,0.284-2.854c0.293-0.849,0-2.279,0.858-2.566
			c6.189,0.589,14.332,1.199,19.683-0.569c0.263-0.501,0.533-0.989,1.429-0.854c0.276-1.148,1.246-1.606,1.994-2.282
			c-0.011-0.87,0.264-1.452,0.858-1.712c-0.031-0.883,0.129-1.583,0.569-1.996v-6.277C113.66,77.469,112.611,74.62,111.216,72.115z
			 M86.682,25.327c2.379-0.284,4.979-0.348,7.7-0.286c0.632,0.609,2.14,0.336,2.569,1.141c0.777,0.363,1.137,1.146,1.711,1.713
			c0.158,3.391-0.277,6.188-0.854,8.844c-1.164,3.021-2.357,6.012-3.709,8.845c-0.902,1.19-1.146,3.039-2.285,3.994
			c-0.635,1.455-1.263,2.921-2.281,3.994c-1.76-0.431-3.221-1.155-4.566-1.997c-1.82-0.269-2.883-1.3-4.564-1.711
			c-0.85-3.05-2.422-5.375-3.42-8.275c-1.541-2.359-2.521-5.275-4.279-7.417C76.32,30.181,81.15,27.402,86.682,25.327z
			 M48.736,55.282c1.281-0.432,1.967-1.458,2.569-2.567c1.878-1.449,3.254-3.401,5.134-4.85c0.598,0.121,0.757-0.195,1.142-0.285
			C64.77,48.474,70.434,50.895,76.41,53c0.99,2.055,1.9,4.188,2.57,6.562c0.436,1.083,0.824,2.217,1.137,3.422
			c0.594,0.836,0.443,2.41,1.143,3.14c-0.289,1.14-1.215,1.638-1.711,2.567c-0.547,0.785-1.166,1.496-1.714,2.281
			c-1.253,1.506-2.269,3.244-3.707,4.563c-1.062,1.696-2.483,3.03-3.708,4.563c-0.49,0.937-1.506,1.35-2,2.281
			c-0.967,0.364-1.078,1.582-2.281,1.713c-4.272-0.955-7.661-2.799-11.697-3.994c-2.955-7.031-6.113-13.856-7.986-21.969
			C47.064,57.035,48.379,56.635,48.736,55.282z M46.17,51.858c-0.673,0.089-0.531,0.991-1.427,0.856
			c-0.266-2.619-1.524-5.665-0.857-8.273c2.785,0.448,5.712,0.758,8.274,1.428c-0.774,0.841-1.32,1.912-2.567,2.28
			c-0.588,1.028-1.695,1.541-2.282,2.567C47.036,51.206,46.365,51.292,46.17,51.858z M68.42,37.879
			c0.464-0.08,0.494,0.271,0.857,0.287c1.555,2.914,3.176,5.764,4.564,8.843c-3.59-0.786-6.455-2.294-10.271-2.853
			c0.197-1.704,1.592-2.217,2.283-3.424C66.836,39.906,67.557,38.818,68.42,37.879z M43.886,37.311
			c0.054-0.187,0.521-0.709,0.571-0.857c0.123-0.354-0.16-0.849,0.286-0.855c-0.05-3.666,1.428-5.799,2.282-8.559
			c1.145-0.854,2.051-1.944,3.424-2.569c9.06-0.788,11.849,4.7,15.689,9.13c0.045,1.566-1.498,1.545-1.713,2.854
			c-0.935,0.49-1.348,1.506-2.281,1.998c-1.483,1.463-3.123,2.771-5.139,3.709c-4.461-0.769-8.598-1.861-13.406-2.283
			C43.514,38.815,43.654,38.105,43.886,37.311z M42.461,63.271c0.242-0.054,0.268,0.11,0.284,0.285
			c0.651,4.577,2.235,8.226,3.425,12.268c-3.242-1.417-6.562-2.758-9.701-4.28c0.266-2.112,1.775-2.979,2.566-4.563
			c1.078-1.303,2.064-2.691,3.142-3.994C42.416,62.934,42.443,63.098,42.461,63.271z M23.633,62.13
			c-1.025-1.45-2.597-2.351-3.426-3.995c-1.486-0.891-1.898-2.858-2.854-4.277v-3.994c0.632-0.42,0.229-1.866,0.858-2.283
			c-0.088-0.752,0.393-0.937,1.141-0.855c0.283-0.381,0.469-0.863,0.855-1.142c0.735-0.503,1.23-1.241,1.994-1.712
			c5.587-0.521,12.056-0.291,17.693,0v4.278c0.32,1.294,0.246,2.985,0.568,4.28c0.319,1.297,0.268,2.964,0.855,3.993
			c-0.415,1.394-1.788,1.825-2.283,3.14c-1.145,0.562-1.379,2.044-2.566,2.567c-0.344,1.369-1.693,1.728-1.997,3.14
			c-1.105,0.604-1.364,2.06-2.282,2.853C28.341,67.119,26.299,64.311,23.633,62.13z M50.162,98.076
			c-1.58,0.13-2.355,1.068-3.422,1.713c-1.388,0.325-2.604,0.818-3.711,1.426c-2.34,0.036-4.283,0.473-6.847,0.286
			c-0.801-0.626-1.909-0.944-2.853-1.426c-0.445-1.077-1.111-1.933-1.712-2.854c0.048-0.33-0.063-0.507-0.286-0.57
			c-0.221-2.916-0.38-5.894-0.285-9.129c0.539-4.312,1.09-8.611,2.852-11.695c-0.077-0.461,0.271-0.491,0.289-0.856
			c3.13,1.056,5.34,3.028,9.414,3.14c1.236,1.047,2.693,1.873,4.564,2.283c0.533,1.271,1.337,2.275,1.711,3.709
			c0.92,0.795,0.926,2.494,1.996,3.139c0.201,1.513,1.373,2.051,1.715,3.423c1.045,0.665,1.234,2.188,2.283,2.853
			C54.604,95.67,51.706,96.197,50.162,98.076z M62.146,88.662c-0.828,0.219-0.74,1.354-1.999,1.143
			c-0.465-2.197-2.246-3.078-2.853-5.138c2.022,0.827,3.984,1.722,6.275,2.284C63.262,87.686,62.852,88.322,62.146,88.662z
			 M81.547,103.213c-0.709-0.045-1.186,0.146-1.43,0.57c-3.819-0.364-7.078-1.288-9.129-3.424c-1.719-0.373-2.158-2.021-3.709-2.566
			c-0.926-1.167-1.973-2.214-3.139-3.141c0.371-1.248,1.44-1.793,2.282-2.566c0.642-0.881,1.402-1.643,2.282-2.281
			c0.255-0.129,0.514-0.252,0.57-0.572c5.021,1.354,9.813,2.934,15.121,3.994C84.512,97.621,83.256,100.643,81.547,103.213z
			 M84.684,89.232c-4.25-0.885-8.441-1.826-12.268-3.139c-0.049-1.002,0.963-0.938,1.143-1.714c0.823-0.127,0.672-1.226,1.426-1.425
			c0.854-0.958,1.4-2.214,2.566-2.854c1.441-2.269,2.879-4.539,4.85-6.276V72.97c0.463-0.079,0.492,0.271,0.857,0.287
			C83.963,78.354,84.889,83.229,84.684,89.232z M82.973,55.854c1.405,0.305,2.191,1.229,3.709,1.425
			c0.127,1.936-1.238,2.378-1.715,3.709C83.757,59.822,83.486,57.719,82.973,55.854z M110.076,87.805
			c-0.753,0.201-0.604,1.301-1.428,1.428c-0.432,0.43-1.201,0.514-1.428,1.143c-0.742,0.109-1.564,0.146-1.994,0.57
			C99.559,91,93.902,91.047,89.248,90.088c0.575-7.867-0.748-15.611-2.566-21.968c0.75-3.147,3.098-4.698,4.279-7.417
			c0.207-0.266,0.52-0.433,0.854-0.57c7.908,4.553,14.808,10.112,18.263,19.115C110.656,82.073,110.555,84.857,110.076,87.805z
			 M66.424,75.254c0.596-0.166,0.814-0.708,1.713-0.57c0.604-0.348,0.828-1.074,1.713-1.141c1.014-1.174,1.684-2.693,2.854-3.709
			c0.288-2.281,1.238-3.895,1.145-6.562c-0.38-1.719-1.281-2.905-2.283-3.994c0.209-1.258-0.926-1.17-1.143-1.998
			c-0.62-0.428-0.664-1.428-1.714-1.425c-1.591-0.976-3.89-1.247-6.56-1.142c-0.178,0.016-0.338,0.041-0.289,0.284h-1.137
			c-0.974,0.362-1.653,1.013-2.568,1.426c-0.302,1.13-1.91,0.944-1.998,2.282c-1.107,1.462-1.325,3.812-1.714,5.993
			c0.59,3.311,2.531,5.267,3.712,7.987C60.659,73.791,62.549,75.518,66.424,75.254z M66.996,64.127
			c-0.518,2.148-0.23,5.094-2.568,5.421c-0.113-2.778,1.711-3.614,1.996-5.991C66.682,63.684,66.938,63.807,66.996,64.127z
			 M63.287,60.988c0.773-0.248,3.33-1.388,3.424,0.285c-1.166,0.261-2.199,0.653-3.139,1.142
			C63.689,61.729,63.051,61.795,63.287,60.988z"/>
	</g>
</g>
</svg>
