<?xml version="1.0" encoding="utf-8"?>
<!-- Generator: Adobe Illustrator 16.0.0, SVG Export Plug-In . SVG Version: 6.00 Build 0)  -->
<!DOCTYPE svg PUBLIC "-//W3C//DTD SVG 1.1//EN" "http://www.w3.org/Graphics/SVG/1.1/DTD/svg11.dtd">
<svg version="1.1" id="Layer_1" xmlns="http://www.w3.org/2000/svg"  x="0px" y="0px"
	 width="120px" height="120px" viewBox="4 4 120 120" style="enable-background:new 4 4 120 120;" xml:space="preserve">
<g id="award2">
	<g>
		<path d="M98.718,76.562c-0.094-0.681-0.875-0.681-1.188-1.22c-0.719-0.977-1.25-2.147-2.094-2.983
			c-1.812-0.438-3.656-0.922-5.719-1.172h-9.562c-1.312-0.289-1.655,0.492-2.625,0.586c-2.094-4.781-5.375-8.398-8.688-11.961
			c2.719-2.539,5.312-5.227,8.094-7.766c1.062,0.242,1.375-0.344,2.344-0.289c0.938-1.367,2.345-2.297,3.031-3.906
			c0.594-0.539,0.094-1.422,0-2.102c0.688-0.297,0.969-0.977,0.875-2.055c0.188-1.414-1.062-1.367-0.875-2.688
			c0.188-1.266,1.031-1.953,1.156-3.32c-0.031-5.414,0.312-10.445,0.906-15.234c-0.312-0.047-0.312-0.438-0.312-0.875
			c-1.25-1.906-3.5-2.883-6.25-3.273c-1.031-0.586-2.438-0.734-3.906-0.93c-1.155-0.539-2.719-0.586-4.188-0.875
			c-8.125,0.531-12.906-2.25-21.219-1.516c-1.156,0.391-2.125,0.828-2.656,1.805c-0.25,1.906,0.812,2.391,0.281,3.859
			c-0.188,1.125-0.75,1.906-0.938,3.023c-0.094,6.844-0.781,13.094-0.594,20.32c-0.188,1.266,0.906,1.32,0.906,2.391
			c-0.5,0.492-0.594,1.32-0.594,2.391c1.562,2.734,4.781,3.812,6.875,5.961c1.219,0.93,2.594,1.609,3.562,2.688
			c0.781,0.336,1.469,0.727,2.156,1.219c0.5,0.586,1.812,0.344,2.344,0.883c-1.281,2.633-2.344,5.415-4.156,7.469
			c-0.969,0.93-1.594,2.195-2.688,2.977c-0.688,1.32-1.156,2.836-2.719,3.32c-1.875-0.047-3.375-0.391-5.094-0.633H37.78
			c-0.781,0.688-2.25,0.047-3.344,0.344c-1.156,0.242-1.906,0.586-2.031,1.758c-0.094,1.805,1.062,2.297,2.031,3.023
			c0.219,1.469,1.375,2.055,1.812,3.273c2.312,1.663,4.156,3.858,6.312,5.663c1.031,0.931,2.156,1.812,3.281,2.688
			c1.062,1.023,2.375,1.758,2.969,3.32c-0.938,0.93-1.188,2.586-2.094,3.562c-1,4.688-3.188,8.155-3.875,13.142
			c0.5,0.288,0.312,1.266,0.594,1.805c0.594,0.195,0.688,0.93,1.156,1.172c0.25,0.102,0.594,0.047,0.594,0.344
			c2.844,0.242,3.906-1.172,5.719-1.805c1.312-1.273,3.562-1.664,4.781-2.984c2-0.531,3.031-1.953,5.094-2.391
			c1.594-0.978,3.562-1.656,5.062-2.688c1,1.367,2.406,2.397,3.562,3.57c1.656,0.875,2.656,2.344,4.5,2.977
			c1.125,1.267,2.75,2.048,3.906,3.32c1.562,0.93,2.5,2.438,5.375,2.047c0.062-0.194,0.25-0.336,0.594-0.289
			c0.688-0.978,1.375-2.055,1.156-3.858c1.562-1.172,1.781-3.664,2.156-6.008c-2.156-3.125-2.594-8.009-4.5-11.328
			c3.344-2.103,6.562-4.195,9.281-6.884c1.656-1.03,2.688-2.688,4.5-3.569c1.062-1.562,2.844-2.484,3.219-4.781
			C98.968,77.93,99.688,76.414,98.718,76.562z M71.843,29.633c1.562-0.094,2.595,0.391,3.875,0.586
			c0.095,1.711-0.53,2.688-1.812,3.031c-0.281,1.07-1.281,1.461-1.75,2.344c-1.281-0.492-2.188-1.422-2.75-2.688
			C70.279,31.883,71.062,30.758,71.843,29.633z M69.999,49.07c0.969-1.562,2.25-2.734,3.03-4.492h1.156
			c0.938,1.562-0.375,3.078-1.156,3.906c-1.219,0.539-1.562,1.953-2.75,2.688c-0.655,1.172-1.875,1.852-2.905,2.68
			c-0.781,0.883-1.781,2.344-3.031,1.758c0-0.531-0.188-0.977-0.594-1.172c0.875-0.531,2.405-0.391,3.03-1.172
			C67.999,52,68.779,50.336,69.999,49.07z M65.562,38.328c1.125,0.195,1.5,1.07,2.094,1.758c0.094,1.508-1.375,1.461-1.5,2.68
			c-1.344-0.047-1.562-1.219-2.688-1.461C63.937,40.133,64.938,39.352,65.562,38.328z M61.999,32.32
			c-0.875,1.953-2.75,2.883-3.625,4.781c-0.594-0.094-0.594-0.828-1.156-0.875c0-1.562,1.344-1.805,1.75-2.977
			c0.781-0.734,1.406-1.617,2.094-2.445C61.655,31.047,61.905,31.633,61.999,32.32z M54.468,20.352
			c1.719,0.344,3.312,0.734,5.094,0.93c-0.219,0.633-1.656,0.102-2.344,0.297c-1.562-0.344-3.219-0.641-4.781-0.93
			C52.53,20.016,53.874,20.547,54.468,20.352z M52.718,43.695c-0.438,0.977-0.688,2.148-2.094,2.055
			c-0.656-0.781,0.875-1.273,1.156-2.055c0.438-0.781,0.75-1.656,1.531-2.102c-0.094-0.484,0.281-0.531,0.281-0.922
			c0.406,0.141,0.5,0.531,0.875,0.633C54.187,42.375,53.593,43.156,52.718,43.695z M53.874,31.734
			c-1.125,1.125-1.938,2.688-3.594,3.273c0-2.836,0-5.57,0.344-8.062c2.469,0.047,4.25,0.93,6.594,1.172
			C56.562,29.734,54.999,30.609,53.874,31.734z M57.218,49.945c0.281-1.367,1.469-1.852,1.75-3.266
			c1.469-0.055,1.844,0.922,2.688,1.508c-0.062,0.836-0.531,1.227-0.594,2.055c-0.25,1.367,0.5,1.711,0.594,2.688
			C59.937,52.148,58.374,51.266,57.218,49.945z M85.874,79.836c-0.25,0.539-0.625,0.93-1.22,1.219
			c-0.688,0.734-1.562,1.414-2.344,2.103c-1.406,1.562-2.875,3.125-4.219,4.788c-0.906,0.242-1.344,0.978-2.375,1.173
			c0.094,0.68-0.844,0.336-0.938,0.875c-0.375,0.194,0,1.172-0.594,1.219c0.344,1.078,0.78,2.008,2.125,2.103
			c-0.062,1.664,0.905,2.25,1.5,3.272c-0.531,1.806,0.188,2.392,0.28,4.195c-3.75-0.923-5.938-3.414-9.562-4.492
			c-1.25-0.289-1.375,0.642-2.094,0.883c-1.281-0.147-2,0.242-2.97,0.289c-2.406,1.125-4.906,2.103-7.188,3.32
			c-0.969,0.78-2.438,1.125-3.281,2.102c-1.406,0.298-1.906,1.47-3.312,1.759c1.188-3.22,1.719-7.078,3.031-10.156
			c0.344-1.219,1.75-1.367,1.75-2.978c-0.375-1.805-1.469-2.93-2.688-3.905c-0.875-1.273-2.188-2.203-3.562-2.984
			c-0.969-1.219-2.719-1.656-3.625-2.977c-1.344-0.828-1.938-2.392-3.562-2.978c0.25-0.688,1.719-0.147,2.406-0.297h2.406
			c2.375,0.297,4.719,0.641,7.469,0.586c0.375-0.289,1.062-0.289,1.469-0.586c1.562-0.978,1.562-3.414,2.438-5.078
			c2.125-2.344,4.094-4.883,5.656-7.812v-0.875c0.344-0.056,0.5,0.094,0.594,0.289c0.969,4.491,2.625,8.352,4.188,12.258
			c0.438,1.022,1.562,1.414,2.345,2.102c3.875-0.148,8.344,0.344,11.719-0.297c0.688-0.047,1.406-0.047,1.75,0.297
			c1.188-0.195,2.156-0.633,3.625-0.586C87.093,79.492,86.218,79.398,85.874,79.836z"/>
	</g>
</g>
</svg>
