<?xml version="1.0" encoding="utf-8"?>
<!-- Generator: Adobe Illustrator 16.0.0, SVG Export Plug-In . SVG Version: 6.00 Build 0)  -->
<!DOCTYPE svg PUBLIC "-//W3C//DTD SVG 1.1//EN" "http://www.w3.org/Graphics/SVG/1.1/DTD/svg11.dtd">
<svg version="1.1" id="Layer_1" xmlns="http://www.w3.org/2000/svg"  x="0px" y="0px"
	 width="120px" height="120px" viewBox="4 4 120 120" style="enable-background:new 4 4 120 120;" xml:space="preserve">
<g id="award1">
	<g>
		<path d="M117.586,34.618c-0.104-0.875-0.062-0.981-0.299-1.499c-0.08-0.174-0.531-0.378-0.301-0.898
			c-1.024-1.37-2.185-2.604-3.291-3.892c-0.998,0.001-1.021-0.975-2.096-0.898c-0.379-0.72-1.596-0.604-2.099-1.198
			c-5.948-0.56-9.534,1.243-13.472,2.694c-0.411,0.688-1.494,0.704-1.797,1.498c-0.815-0.218-0.604,0.594-1.196,0.598
			c0.215,0.49-0.599,1.303-0.603,0.6c-0.664-1.293-0.039-2.737,0.301-3.893c-0.648-0.55-0.631-1.765-0.598-2.995
			c-0.15-1.049-0.449-1.947-0.3-3.292c-0.872-1.422-2.083-2.51-2.996-3.892c-0.517,0.016-0.767-0.231-0.896-0.599
			c-2.355-1.138-5.271-1.719-8.383-2.097h-8.685c-0.383,0.017-0.415,0.384-0.897,0.301c-6.203,0.583-12.696,0.875-18.562,1.795
			c-1.113,0.584-2.583,0.812-4.193,0.897c-0.94,0.757-2.741,0.653-3.593,1.499c-2.656,0.836-4.753,2.231-5.988,4.49v3.293
			c-0.656,0.692,0.767,0.993,0.299,2.396c-2.105-0.889-4.384-1.602-7.185-1.797c-1.052-0.346-1.616-1.178-2.994-1.197
			c-2.762-0.267-4.124,0.864-6.89,0.597c-1.211,0.98-2.556,1.833-2.991,3.593c-1.238,0.958-1.641,2.753-2.694,3.894
			c-0.864,3.128-1.252,6.729-1.197,10.777c0.405,1.069,0.92,1.852,1.197,2.396c0.209,0.405,0.058,0.832,0.298,1.197
			c0.164,0.242,0.693,0.38,0.9,0.599c0.31,0.329,0.39,0.988,0.597,1.198c0.095,0.092,0.479-0.056,0.601,0
			c0.474,0.215,0.867,1.222,1.198,1.497c2.431,0.564,3.88,2.105,6.288,2.695c1.981,0.512,4.228,0.759,6.286,1.198
			c1.398,0.697,2.794,1.398,4.189,2.096c1.052,0.948,1.632,2.361,2.396,3.593c1.168,0.928,1.796,2.394,1.796,4.492
			c-1.809-0.113-3.097,0.295-4.192,0.896c-1.82,1.254-2.112,6.258-0.299,7.785c0.561,0.042,1.003,0.198,1.198,0.6
			c1.915,0.117,2.743-0.85,4.493-0.897c0.892-0.604,1.477-1.517,2.395-2.096c0.846-0.75,1.186-2.008,2.395-2.396
			c2.393,3.195,5.227,5.951,8.683,8.085c0.82,2.075,2.393,3.396,2.992,5.688c0.234,2.303,0.835,5.695,0.303,7.784
			c-0.823-0.575-2.092-0.704-3.295-0.897c-6.087,1.697-12.287,3.279-14.97,8.384c-0.046,0.353,0.05,0.849-0.299,0.896v4.192
			c0.232,0.063,0.346,0.25,0.299,0.599c0.034,1.264,1.08,1.516,1.498,2.396c0.02,1.377,0.852,1.944,1.196,2.994
			c1.862,1.63,4.337,2.646,7.187,3.294c3.284,0.206,6.298,0.687,9.282,1.195h5.686c4.069-1.218,8.25-2.332,13.176-2.692
			c0.663-0.494,1.354-0.664,2.097-0.897c0.207-0.064,0.562-0.568,0.896-0.6c0.553-0.053,0.753,0.65,1.5,0.298
			c1.171-1.422,2.468-2.72,3.891-3.892c0.643-0.655,0.933-1.661,1.797-2.098c0.578-0.716,1.681-0.912,1.797-2.094
			c0.566-8.154-5.428-9.746-11.077-11.677h-2.396c-0.717-0.183-2.174,0.375-2.395-0.3c-0.125-3.318,1.025-5.359,1.494-8.084
			c1.303-0.993,2.313-2.277,3.894-2.994c0.039-1.158,1.216-1.184,1.495-2.096c0.445-0.752,0.748-1.648,1.5-2.097
			c0.574,0.923,2.758,0.233,3.594,0.897c1.516-0.02,2.475,0.515,4.188,0.3c1.23-0.468,2.753-0.64,3.595-1.496
			c0.396-0.903,0.966-1.629,0.897-2.994c0.205-1.503-0.178-2.418-0.602-3.295c-0.98-0.017-1.145-0.851-2.395-0.599
			c-0.459-1.104-2.066,0.671-2.396-0.299c-0.066-2.664,0.895-4.299,2.396-5.391c0.302,0.002,0.357-0.243,0.601-0.3
			c1.028-0.465,2.29-0.702,3.894-0.597c3.021-1.867,7.119-2.659,11.076-3.593c5.328-3.553,9.198-8.567,11.078-15.568
			C118.221,40.295,117.798,36.378,117.586,34.618z M37.646,52.281c-0.712-0.585-2.015-0.58-2.694-1.196
			c-2.583,0.084-4.037-0.955-6.586-0.9c-1.537-0.957-3.247-1.745-4.791-2.694c-0.578-0.917-1.492-1.502-2.095-2.394
			c-0.826-1.967-0.573-5.017-0.604-7.786c0.353-0.047,0.256-0.545,0.304-0.897c0.349-0.449,0.862-0.732,0.897-1.498
			c1.011-0.385,1.53-1.264,2.695-1.496h4.489c2.431,0.531,5.309,1.646,7.786,1.198c-0.041,3.65-0.492,6.893-0.3,10.777
			c-0.069,1.167,0.642,1.553,0.897,2.396C37.102,49.541,37.214,50.375,37.646,52.281z M43.336,26.233
			c0.103-1.596,0.822-2.57,2.395-2.693c1.21-0.388,2.375-0.818,3.893-0.9c0.303-0.496,1.271-0.323,1.798-0.598
			c0.702-0.096,1.121-0.472,2.094-0.298c1.013-0.586,2.466-0.729,3.891-0.9c5.194-1.291,10.872-2.102,17.368-2.095
			c0.897-0.398,2.289-0.304,3.593-0.3c1.325,0.47,2.938,0.657,3.892,1.499c1.331,0.361,1.752,1.643,2.694,2.395
			c-1.373,1.119-2.377,2.614-4.19,3.292c-1.277,0.177-1.981-0.215-2.996-0.299c-4.166,1.322-8.25,2.725-13.176,3.293h-8.98
			c-1.272-0.022-2.093-0.501-3.591-0.3c-0.65-0.548-2.453,0.056-2.994-0.599c-1.428,0.231-1.927-0.468-3.294-0.299
			C45.209,26.755,43.531,27.234,43.336,26.233z M87.348,36.413c-0.074,0.924-0.301,1.693-0.602,2.396
			c0.51,1.888,0.234,4.556,0.302,6.886c-1.354,6.429-3.317,12.254-5.987,17.366c-0.965,2.928-2.93,4.855-3.892,7.783
			c-1.081,0.918-1.435,2.561-2.396,3.594c-0.646,1.35-2.006,1.986-2.099,3.894c-0.688,0.606-1.521,1.073-2.096,1.797
			c0.019,0.515-0.229,0.767-0.599,0.897v15.568c-0.143,0.941,0.424,1.17,0.599,1.795c-0.151,2.15,0.089,3.902,1.797,4.191
			c4.013,0.279,1.11-4.79,2.694-6.586c1.615-0.419,1.588,0.809,2.693,0.898c0.396,0.799,1.889,0.506,2.396,1.196
			c0.876,0.078,0.921-0.678,1.8-0.598c1.049-0.052,0.939,1.053,1.496,1.495c0.6,0.496,1.391,0.805,1.496,1.796
			c-1.1,1.498-2.717,2.477-3.893,3.895c-1.187,0.111-2.172,0.419-2.992,0.898c-0.918,0.479-2.109,0.685-2.996,1.194
			c-2.146,0.549-4.551,0.838-6.887,1.198h-6.885c-4.522-0.672-9.711-0.669-13.175-2.394c-0.188-0.813-1.251-0.746-1.197-1.799
			c-0.422-0.077-0.345-0.655-0.601-0.896c-0.653,0.055-0.951-0.244-0.896-0.898c2.449-2.94,6.439-4.338,10.477-5.688h0.6
			c0,0.301-0.24,0.358-0.298,0.601c0.742-0.262,2.32-0.586,2.992,0c-0.071,2.678-0.905,5.801,1.497,6.586
			c2.202,0.004,2.34-2.052,3.295-3.295c-0.794-4.533,0.404-9.504-0.299-13.771c0.004-0.894,0.779-1.019,0.895-1.797
			c-0.109-1.81,0.087-3.31,0.304-4.791c0.205-0.806-0.62-0.579-0.898-0.897c-0.416-0.184-0.046-1.152-0.6-1.197
			c-0.353-0.943-0.932-1.664-1.498-2.396c0.285-1.713,1.146-2.851,0.9-5.091c-1.458-0.745-2.164,1.544-2.995,2.396
			c-0.962,0.264-0.41-0.988-1.195-0.897c-0.091-0.61-0.811-0.587-0.898-1.198c0.022-1.174,0.527-1.868,0.898-2.695
			c0.442-0.854,0.612-1.98,1.195-2.692c0.204-1.947,1.955-3.761,1.199-5.688c-2.354-0.057-2.688,1.904-3.894,2.992
			c-0.806,1.49-1.433,3.157-2.396,4.492c-0.779-0.586-1.897-1.161-1.197-2.396c0.659-0.737,0.664-2.128,1.197-2.993
			c0.369-2.071,2.354-3.977,1.498-6.287c-2.055,0.039-2.594,1.595-3.293,2.993c-1.2,0.995-1.995,2.397-2.694,3.893
			c-1.195-0.504-1.962-1.432-2.697-2.396c0.572-4.72,2.631-7.948,3.896-11.976c-1.427-0.711-2.574,1.137-2.996,2.395
			c-1.098,0.997-1.623,2.569-2.097,4.192c-1.092-0.902-1.271-2.719-1.198-4.79c0.144-1.073,1.042-2.071,1.198-2.693
			c0.164-0.656,0.305-0.505,0.601-0.9c0.122-0.162,0.251-0.767,0.299-0.897c0.24-0.635,0.359-1.228,0.298-2.098
			c-0.216-1.078-1.255-1.338-2.693-1.196c-0.079-3.173,0.025-6.162,0.298-8.98c2.245,0.151,3.596,1.197,5.69,1.496
			c1.902,0.492,4.32,0.472,6.287,0.897h8.982c5.188-0.696,9.562-2.213,14.07-3.592c0.927-0.373,1.608-0.988,2.098-1.797
			c1.781,0.383,1.382-1.412,2.694-1.497c0.875-0.077,0.919,0.677,1.794,0.598C87.875,30.497,87.137,33.929,87.348,36.413z
			 M111.6,42.102c-0.431,0.369-0.567,1.029-0.602,1.797c-1.594,2.696-3.229,5.353-5.389,7.484c-0.75-0.05-0.937,0.459-1.195,0.898
			c-4.027,1.965-8.732,3.243-13.771,4.192c2.393-5.417,3.233-13.21,2.396-20.958c0.7,0.095,1.124,0.472,2.097,0.299
			c2.637-0.927,6.932-3.474,10.477-3.893c2.488-0.295,3.906,0.937,5.389,2.097c-0.046,0.349,0.068,0.533,0.301,0.599
			c0.329,0.867,0.271,2.124,0.598,2.993C111.991,39.301,111.368,40.273,111.6,42.102z M56.21,96.893
			C55.774,97.076,56.24,97.254,56.21,96.893L56.21,96.893z"/>
	</g>
</g>
</svg>
