<?xml version="1.0" encoding="utf-8"?>
<!-- Generator: Adobe Illustrator 16.0.0, SVG Export Plug-In . SVG Version: 6.00 Build 0)  -->
<!DOCTYPE svg PUBLIC "-//W3C//DTD SVG 1.1//EN" "http://www.w3.org/Graphics/SVG/1.1/DTD/svg11.dtd">
<svg version="1.1" id="Layer_1" xmlns="http://www.w3.org/2000/svg"  x="0px" y="0px"
	 width="120px" height="120px" viewBox="4 4 120 120" style="enable-background:new 4 4 120 120;" xml:space="preserve">
<g id="back">
	<g>
		<path d="M109.355,50.536c-0.926-1.407-2.129-2.536-3.183-3.815c-1.502-0.936-2.19-2.687-4.131-3.18
			c-1.758-0.787-4.006-1.086-6.044-1.59c-10.58,0.298-20.128-0.437-29.573-1.271c-4.7-0.391-9.371-0.807-13.993-1.272
			c-2.624,0.076-4.529-0.56-7.312-0.319h-3.819c-1.425-0.452-2.718,0.859-3.497,0c-0.5-4.199,2.603-10.219-1.908-11.129
			c-0.43,0.098-0.608,0.452-1.273,0.318c-1.819,1.676-3.003,3.99-4.769,5.726c-1.99,1.507-3.417,3.576-5.405,5.085
			c-1.692,1.807-3.747,3.248-5.408,5.088c-1.086,0.611-1.944,1.45-2.861,2.227c-0.661,0.186-1.026,0.667-1.59,0.953
			c-0.456,0.499-1.656,0.251-1.587,1.271c0.537,2.854,2.744,4.036,3.816,6.361c1.402,1.138,2.673,2.41,3.812,3.816
			c1.921,0.625,2.599,2.488,4.454,3.181c0.982,1.563,2.653,2.435,3.813,3.815c1.637,0.906,1.901,3.189,4.453,3.18
			c0.97,0.018,1.62-0.287,1.908-0.953c1.002-0.057,1.898-0.225,1.907-1.271c1.192-0.295,0.414-2.554,0.637-3.817v-4.77
			c7.795-0.081,15.521,0.636,23.532,0.636h24.487c2.266,1.126,4.095,2.688,5.723,4.453c0.403,2.775,1.918,4.44,1.588,7.949
			c0.59,2.558,0.508,6.456-0.635,8.267C74.791,80.32,56.545,80.62,37.803,80.43c-2.732-1.295-6.13-1.929-9.541-2.545
			c-1.929-0.087-3.543-0.482-5.405-0.635c-1.214,0.801-3.601,0.427-4.45,1.591c-0.893,2.079-0.815,5.121-0.956,7.948
			c0.108,2.965-0.276,6.427,0.317,8.904c1.425,1.968,4.464,2.32,6.681,3.498c19.628,1.346,40.08-0.178,61.055,0
			c4.4-0.582,8.997-0.969,13.039-1.909c0.068-0.246,0.264-0.367,0.635-0.315c2.396-1.102,4.4-2.597,6.678-3.818
			c2.344-2.424,4.412-5.129,6.045-8.266C114.177,73.979,112.721,59.578,109.355,50.536z M22.858,53.718
			c-0.164-0.165,0.23-0.407,0.316-0.318C23.344,53.562,22.945,53.805,22.858,53.718z M24.132,84.243
			c0.061-0.358,0.318-0.175,0.318,0C24.389,84.604,24.132,84.422,24.132,84.243z M28.584,92.514
			c-0.022-1.187,0.319-2.014,0.633-2.861c0.541,0.629,0.349,1.983,0.638,2.861H28.584z M107.128,79.791
			c-0.63,4.354-2.979,6.984-5.405,9.541c-3.106,1.557-6.662,2.668-11.449,2.545c-1.938,0.495-4.248,0.624-6.039,1.271H75.33
			c-1.539-0.049-0.818-2.362-2.229-2.543c-2.064-0.16-1.797,2.018-2.86,2.859c-1.583,0.1-2.917-0.051-4.134-0.316
			c-0.957,0.319-0.566-0.707-0.637-1.271c-1.603-0.229-1.583,1.173-2.861,1.271h-5.726c-1.411,0.002,0.518-1.112,0.636-1.59
			c0.272-0.896,1.025-1.305,0.954-2.545c-0.438-0.818-1.949-0.068-2.543,0c-0.479,0.479-1.339,0.568-1.589,1.271
			c-1.229,0.683-1.837,1.982-2.865,2.861h-4.132c0.242-1.254,1.638-2.646,0.637-4.135c-2.689-0.037-3.25,2.053-4.137,3.817h-4.132
			c0.137-1.138,0.848-1.696,0.636-3.179c-1.718-0.131-2.861,0.32-3.499,1.271c-1.097,0.39-1.062,1.905-2.86,1.591
			c-0.553-1.144-0.637-2.755-1.909-3.181c0.152-0.999-0.855-0.84-0.952-1.591c-0.446-0.402-0.141-1.557-0.956-1.59
			c-2.393,0.151-3.545,1.543-4.454,3.181c-0.601-0.421,0.309-2.004,0.637-2.544c-0.011-1.18,0.491-1.844,0.957-2.545
			c20.335,1.193,44.766,0.673,66.143,0c0.668-0.282,1.412-0.492,1.907-0.953c3.16-2.882,3.691-8.393,3.814-14.311
			c-0.496-3.739-1.639-6.842-3.179-9.54c-1.084-1.565-2.733-2.566-3.815-4.134c-1.209-0.063-1.207-1.337-2.543-1.273
			c-0.423-0.849-2.008-0.537-2.545-1.271c-7.936-0.57-13.41-0.106-21.625,0.318c-3.461-0.375-6.827,0.149-12.082,0
			c-3.625-0.405-7.08-0.977-11.133-0.955c-1.139,0.029-1.836,0.497-2.86,0.637c-2.114-0.109-4.734,0.283-6.359-0.315
			c-0.73,0.646-0.117,2.639-0.319,3.812c-0.304,0.968,0.683,3.226-0.637,3.181c-0.129-0.611-1.231-0.252-0.952-1.271
			c0.264-0.368,0.418-0.853,0.317-1.591c-1.21-0.979-1.532,1.061-3.182,0.636c-0.074-0.558-0.548-0.725-1.269-0.636
			c-0.653-2.637-2.619-3.955-3.183-6.677c-1.835-0.248-2.131,1.043-3.18,1.588c-0.312,0.977-0.847-0.363-1.269-0.316
			c-0.65-0.094-0.626-0.86-1.275-0.955c2.663-1.791,5.364-3.54,7.63-5.723c2.484-1.867,4.665-4.032,6.682-6.361
			c0.367-0.049,0.568,0.07,0.636,0.319v5.723c2.09,0.078,4.01-0.014,5.721-0.316c19.319,0.926,36.487,4.006,57.242,3.496
			c1.417,0.277,2.604,0.789,4.132,0.956c1.719,1.25,2.934,3.003,4.456,4.45c1.538,5.031,2.587,10.557,2.86,16.854
			C107.037,72.705,107.115,76.279,107.128,79.791z"/>
	</g>
</g>
</svg>
