<?xml version="1.0" encoding="utf-8"?>
<!-- Generator: Adobe Illustrator 17.0.0, SVG Export Plug-In . SVG Version: 6.00 Build 0)  -->
<!DOCTYPE svg PUBLIC "-//W3C//DTD SVG 1.1//EN" "http://www.w3.org/Graphics/SVG/1.1/DTD/svg11.dtd">
<svg version="1.1" id="Layer_1" xmlns="http://www.w3.org/2000/svg"  x="0px" y="0px"
	 width="120px" height="120px" viewBox="0 0 120 120" enable-background="new 0 0 120 120" xml:space="preserve">
<g id="balloon">
	<g>
		<path d="M75.043,78.559c3.102-1.705,5.574-4.035,8.114-6.309c3.795-5.52,6.636-11.992,9.013-18.928
			c2.697-6.674,4.252-14.856,3.605-24.036c-0.653-3.754-1.315-7.497-3.307-9.914c-1.373-3.133-4.082-4.931-6.31-7.212
			c-3.074-1.434-6.259-2.756-10.216-3.305H66.63c-12.023,1.497-20.258,6.781-26.739,13.82c-0.477,1.326-1.495,2.109-2.104,3.305
			c-0.828,1.074-1.65,2.153-2.102,3.605c-0.771,1.033-1.37,2.236-1.801,3.605c-0.825,1.08-0.804,3.004-1.505,4.207
			c0.212,2.016-0.309,3.297-0.3,5.107c0.089,4.282,1.126,7.727,2.404,10.816c1.299,3.137,2.72,6.031,4.509,8.713
			c1.691,2.711,3.801,5.011,6.006,7.209c1.258,0.949,2.149,2.257,3.607,3.006c1.24,1.062,2.263,2.343,3.902,3.005
			c0.541,0.965,1.069,1.937,1.804,2.702c1.006,0.2,1.471,0.938,2.405,1.203c0.641,0.564,1.912,0.49,2.404,1.201
			c0.944-0.147,1.061,0.543,2.102,0.303c0.207,0.591,1.676-0.074,1.802,0.602c-1.094,2.953-3.974,6.834-2.101,10.814
			c1.3,0.312,2.549,0.896,3.603,0c1.369-0.045,2.279-1.777,3.609-0.901v3.906c-1.322,2.021-5.113,1.271-7.813,1.802
			c-2.152-0.553-4.72-0.689-7.512-0.601c-1.621,0.981-2.924,2.284-3.905,3.905c-0.402,2.184-0.558,5.436,0.299,7.211
			c2.919,5.395,9.96,6.668,18.329,6.608c0.35-0.25,0.805-0.395,1.502-0.3c4.438-2.066,10.305-2.715,17.125-2.404
			c1.076,0.829,2.029,1.776,2.705,3.006c0.463,0.436,0.263,1.539,0.298,2.403c-0.19,1.193,0.383,1.621,0.901,2.103
			c1.35,0.25,1.344-0.859,2.104-1.2v-3.306c-0.752-2.353-2.166-4.045-3.907-5.408c-0.556-0.041-1.003-0.197-1.199-0.601
			c-0.451-0.052-1.108,0.106-1.201-0.301c-7.014-0.19-12.844-0.24-18.027,1.804c-4.899,0.189-9.224-0.193-12.619-1.503
			c-1.012-0.991-2.257-1.747-2.707-3.306c-0.022-1.829-0.176-3.782,0.902-4.507c1.572-1.255,3.888-0.396,6.01-0.3
			c2.397,0.104,4.812-0.082,7.21,0c0.371-0.434,1.035-0.57,1.806-0.602c0.93-0.977,2.258-1.547,2.703-3.006
			c0.771-0.633,0.59-2.217,0.6-3.605c1.033,0.133,1.688-0.119,2.402-0.3c0.467-0.839,0.277-2.331,1.508-2.401
			c1.81,0.166,3.494,1.459,5.406,0.601c0.346-0.979,0.562-3.271,0-4.207c-0.549-1.058-1.465-1.744-1.806-3.005
			c-1.14-0.462-1.263-1.941-2.405-2.402c0.145-0.943-0.808-0.796-0.898-1.503c-0.336-0.063-0.471-0.334-0.6-0.602
			C75.02,79.089,74.623,78.667,75.043,78.559z M78.05,87.573C78.412,87.543,78.232,88.01,78.05,87.573
			c-1.063-0.442-2.225-0.781-3.909-0.601c-0.938,0.06-1.227,0.772-1.801,1.2c-1.347-0.353-1.639-1.765-3.605-1.502
			c-0.088-2.356,1.119-4.104,0.302-6.312c1.386,0.617,2.524,1.479,4.207,1.804C74.807,84.005,76.609,85.607,78.05,87.573z
			 M73.242,74.654c-1.774-0.709-3.156,0.066-4.508,0.601c-0.035-1.265-0.449-2.155-1.504-2.401c-1.594-0.193-1.711,1.09-2.403,1.802
			c0.183,0.622-0.371,1.973,0.303,2.102c-0.514,1.058-0.659-0.698-0.902-0.899c-0.863-1.438-2.672-1.935-3.905-3.004
			c-0.018-1.986,0.329-4.338-1.201-4.81c-1.649-0.045-1.691,1.517-2.404,2.404c-1.543-0.56-2.434-1.772-3.307-3.005
			c-0.379-3.023,1.108-5.647,0.604-7.812c-2.428,0.078-2.769,2.24-3.605,3.906c-1.326-1.179-2.514-2.495-3.307-4.207
			c0.146-1.053,0.447-1.953,0.3-3.303c0.273-0.831,0.094-2.11,0.602-2.705c-0.109-2.414,1.144-3.464,1.201-5.71
			c-0.269-0.812-1.104,0.253-1.201,0.603c-0.612,0.089-0.59,0.812-1.202,0.901c-0.892,2.108-1.669,4.338-2.102,6.911
			c-0.931-1.376-1.812-2.797-2.405-4.507c0.009-2.497,0.694-4.315,0.902-6.61c0.621-0.584,0.584-1.822,1.201-2.404
			c0.127-1.074,0.801-1.603,0.601-3.006c-2.815-1.685-4.246,2.328-4.809,4.807c-0.818-0.68-0.563-2.439-0.599-3.903v-4.509
			c0.253-1.448,0.411-2.992,0.599-4.504c5.19-9.231,13.277-15.568,25.842-17.428c1.816-0.087,4.044,0.24,5.404-0.301
			c4.867,0.043,8.754,1.065,12.02,2.705c3.393,3.319,6.618,6.802,7.213,12.919V39.2c-1.505,9.813-4.982,17.651-8.113,25.838
			c-0.764,0.338-1.466,0.737-2.101,1.203C79.854,70.852,76.152,72.357,73.242,74.654z"/>
	</g>
</g>
</svg>
