<?xml version="1.0" encoding="utf-8"?>
<!-- Generator: Adobe Illustrator 16.0.0, SVG Export Plug-In . SVG Version: 6.00 Build 0)  -->
<!DOCTYPE svg PUBLIC "-//W3C//DTD SVG 1.1//EN" "http://www.w3.org/Graphics/SVG/1.1/DTD/svg11.dtd">
<svg version="1.1" id="Layer_1" xmlns="http://www.w3.org/2000/svg"  x="0px" y="0px"
	 width="120px" height="120px" viewBox="4 4 120 120" style="enable-background:new 4 4 120 120;" xml:space="preserve">
<g id="chart6">
	<g>
		<path d="M113.568,101.074c0.031-2.068,0.076-4.151-0.361-5.751c0.167-4.124-0.169-7.738-0.359-11.503
			c-0.104-7.801-1.22-14.596-1.797-21.925c-0.566-10.59-0.357-24.194-0.357-35.226c0-3.884,0.545-7.847-1.797-10.422
			c-1.209-0.831-2.758-1.32-5.033-1.08c-0.457,0.021-0.5,0.46-1.075,0.361c-1.699-0.019-2.729,0.63-4.317,0.718h-6.826
			c-2.033,0.966-3.41-1.019-5.396,0c-1.75,2.08-2.01,5.658-2.156,9.344c-0.803,0.155-0.145,1.771-0.358,2.516v2.876
			c-0.398,1.52-0.416,3.421-0.359,5.391c-0.48,7.188-0.625,14.711-1.076,21.927c0.072,7.261-0.398,14.648-0.361,21.927
			c0.039,7.433,0.869,14.476,1.799,21.207c0.164,3.068-0.592,7.062,1.078,8.627c4.687,1.06,9.8-0.486,15.097,0
			c2.21-0.184,3.547,0.364,5.034,0c1.678-0.357,2.988-1.082,4.671-1.438c0.559-0.521,1.676-0.479,2.157-1.078
			c0.851-0.226,1.675-0.483,1.797-1.438C114.45,104.965,113.734,102.359,113.568,101.074z M100.627,101.436
			c-2.74,0.252-6.623-0.631-8.27,0.717c-0.793-0.043-0.148-1.522-0.357-2.155c-0.779,0.062-0.16-1.274-0.357-1.797v-4.313
			c0.461-3.972,1.174-7.691,1.797-11.503c0.652-0.425,0.285-1.874,0.72-2.516c0.059-1.021,0.657-1.496,0.719-2.519
			c0.506-1.666,1.019-3.517,0.356-5.39c-0.846-0.274-2.48-0.71-3.233,0c-0.537,0.214-1.501,1.81-1.797,1.077V62.614
			c1.053-3.739,2.205-7.382,3.235-11.145c0.715-3.626,2.857-7.646,1.795-11.86c-1.799-0.243-2.153,0.96-2.877,1.795
			c-0.828-0.108-0.397,1.039-1.072,1.081c0.261,0.586-0.717,1.562-0.723,0.718V24.152c3.617-0.218,8.117,0.452,11.142-0.358h0.721
			v34.867c0.745,7.642,1.304,15.467,2.155,23.003c-0.135,6.365,0.173,12.29,0.722,17.973
			C103.211,99.705,102.014,100.663,100.627,101.436z M53.182,30.982c1.357-2.594,3.193-4.714,3.952-7.908
			c1.223-0.814,2.167-1.908,2.158-3.952c0.091-1.053-0.817-1.106-0.72-2.157c-0.908-0.531-1.607-1.271-2.875-1.437h-1.079
			c-3.56,1.231-7.243,2.339-11.141,3.234c-3.726,1.066-8.741,0.846-11.145,3.236c-0.428,1.007-0.394,2.48-0.359,3.952
			c0.479,1.558,2.562,1.515,3.598,2.517c-3.484,1.432-6.076,3.754-9.348,5.392c-1.5,1.015-2.781,2.252-4.672,2.876
			c-1.018,1.499-3.156,1.877-3.235,4.313c0.187,1.969,1.442,2.869,2.877,3.594c4.763-0.867,7.727-3.533,11.501-5.393
			c3.383-2.248,6.944-4.317,10.783-6.11c-0.03,1.649-1.039,2.315-0.721,4.313c0.838,1.322,1.673,2.641,3.595,2.876
			c1.78,0.221,2.301-0.815,3.593-1.08C51.149,36.622,52.205,33.843,53.182,30.982z M64.324,43.563
			c-3.004,0.711-6.226,1.205-8.986,2.157c-1.386,0.773-2.131,2.183-2.518,3.952c-2.611-0.455-2.623,1.692-3.954,2.518
			c-0.623,8.36-1.14,16.828-1.435,25.521c0.063,10.612-0.418,14.682,0,24.083c0.693,3.138,1.07,6.597,2.155,9.347
			c5.382,0.605,10.33,1.649,16.531,1.438c1.597-0.323,2.111-1.729,3.234-2.518c2.078,0.039,3.074-1.004,3.597-2.516
			c1.186-1.454,1.053-4.22,1.079-6.831V57.581c0-4.736,0.761-9.646-1.438-13.299C70.713,43.167,67.221,43.662,64.324,43.563z
			 M66.118,66.927v37.382c-1.073,0.724-3.389,0.205-5.03,0.359c0.075-2.98,2.515-7.499,0-9.704
			c-2.208,0.188-2.499,2.296-3.238,3.954c-0.189,1.008-0.527,1.869-0.716,2.876c-0.598,0.599,0.229,2.623-1.075,2.515
			c-0.234-1.926-0.288-4.026-0.721-5.75c0.565-2.312,1.185-4.565,2.155-6.471c0.762-2.113,1.498-4.256,2.518-6.109
			c0.762-2.113,1.496-4.256,2.517-6.11c0.231-2.238,2.205-4.407,1.076-6.83c-1.684-0.365-2.043,0.592-2.877,1.08
			c-0.962,0.594-1.287,1.823-2.154,2.515c0.038,0.434-0.524,0.223,0,0c1.515-5.314,3.628-10.029,4.672-15.813
			c-0.422-1.613-0.781-3.295-2.518-3.596c-1.912,0.002-2.164,1.665-3.233,2.516c-0.117,0.84-0.429,1.485-0.716,2.157
			c-0.185,0.897,0.01,2.167-1.081,2.156c0.576-2.264,0.389-5.917,0.362-8.265c-0.015-0.938,0.316-2.239-0.362-2.876
			c0.522-0.556,1.403-0.756,2.518-0.719c0.143-1.053,2.109-0.288,2.512-1.08c2.264-0.012,3.852-0.705,6.113-0.718
			C66.928,56.231,66.746,61.799,66.118,66.927z M31.615,62.974c-6.205,0.387-11.751,1.428-15.816,3.953
			c0.296,1.019-0.506,0.931-0.358,1.8c-0.496,0.817,0.924,1.349,0,1.438c-0.252,1.184-0.577,2.298-0.72,3.593
			C14.653,77.282,15.056,81.284,14,83.82c0.782,3.771,0.394,8.717,1.083,12.58c0.222,4.33-0.462,9.565,0.358,13.301
			c2.496,1.336,6.124,1.543,10.061,1.438c3.009,0.572,7.97,0.735,10.069-0.719c0.797-0.878,1.314-2.039,1.075-3.954
			c0.376-1.422,1.481-2.114,1.439-3.955c0.05-9.297,1.196-17.491,1.436-26.6c-0.085-4.824,0.21-10.035-2.158-12.58
			C36.028,62.604,33.309,62.258,31.615,62.974z M29.82,100.354c0.164,1.473-0.907-0.01-1.442,0
			c-2.362,0.274-1.435,3.834-4.673,3.236c-0.559-0.82,0.416-2.513,1.08-3.236c0.021-1.651,1.019-2.332,1.438-3.594
			c0.802-2.554,2.359-4.351,2.875-7.188c-0.235-1.204-0.58-2.297-1.436-2.877c-2.125,0.035-3.102,1.214-4.315,2.158
			c0.038,0.434-0.525,0.222,0,0c0.566-3.984,3.251-5.854,3.234-10.424c-0.367-0.475-0.352-1.326-0.717-1.799
			c-0.14-1.061-1.694-0.704-2.159-1.438c0.132-1.789,1.01-2.826,1.08-4.672c2.395-0.361,4.877-0.636,7.188-1.08
			C32.203,80.695,30.086,89.6,29.82,100.354z"/>
	</g>
</g>
</svg>
