<?xml version="1.0" encoding="utf-8"?>
<!-- Generator: Adobe Illustrator 16.0.0, SVG Export Plug-In . SVG Version: 6.00 Build 0)  -->
<!DOCTYPE svg PUBLIC "-//W3C//DTD SVG 1.1//EN" "http://www.w3.org/Graphics/SVG/1.1/DTD/svg11.dtd">
<svg version="1.1" id="Layer_1" xmlns="http://www.w3.org/2000/svg"  x="0px" y="0px"
	 width="120px" height="120px" viewBox="4 4 120 120" style="enable-background:new 4 4 120 120;" xml:space="preserve">
<g id="chart7">
	<g>
		<path d="M96.264,48.447c3.348,0.729,10.4,1.729,12.623-0.722c-0.058-0.419,0.078-0.643,0.361-0.721
			c0.275-2.197-0.576-3.271-0.361-5.412c-1.794-3.377-4.5-5.841-6.131-9.382c-2.697-2.357-2.654-7.449-7.578-7.576
			c-0.293,0.189-0.585,0.376-1.082,0.36c-1.334,1.474-1.725,4.188-0.721,6.133c-0.764-0.32-1.066-1.098-2.167-1.082
			c-0.435-0.474-0.142-0.568,0-1.083c0.556-0.192,0.024-0.376-0.36-0.361c-0.945-1.221-2.609-1.72-3.604-2.887
			c-3.628-0.705-5.812-2.851-9.744-3.246c-1.729-1.635-3.978-2.759-6.495-3.608c-0.802-0.883-1.631-1.734-3.247-1.805
			c-1.891-2.483-7.428-1.57-6.494,2.887c0.472,1.814,2.358,2.213,3.248,3.607c1.731,0.432,2.188,2.144,3.966,2.526
			c0.998,1.172,2.599,1.733,3.971,2.525c1.619,0.546,2.595,1.738,4.33,2.165c1.842,2.128,4.312,3.626,6.134,5.774v-1.084
			c1.581,0.708,2.536,2.035,3.97,2.887c0.794,0.41,1.199,1.207,2.163,1.444c0.144,0.5,2.052,1.022,1.087,1.442
			c-3.896-0.285-6.847,0.375-6.857,3.97c0.272,1.528,1.684,1.926,2.523,2.887C89.389,48.104,92.409,48.691,96.264,48.447z
			 M43.945,81.641c0.042-7.476-0.438-14.701-0.36-22.009c-0.455-7.242-0.6-14.794-1.084-22.009c0.054-1.978,0.041-3.887-0.36-5.411
			v-2.887c-0.213-0.748,0.447-2.37-0.361-2.526c-0.15-3.7-0.407-7.291-2.163-9.379c-1.987-1.023-3.374,0.97-5.415,0h-6.855
			c-2.76-0.365-4.99-1.26-8.298-1.084c-0.531,0.189-0.909,0.535-1.441,0.722c-3.492,2.396-2.526,7.812-2.526,12.267V44.48
			c0,10.265-0.351,19.978-1.08,28.864c1.777,10.725,0.861,24.15,1.08,36.439c3.246,0.962,6.316,2.104,9.742,2.888h8.66
			c2.911,0,5.968,0.511,7.575-1.083c1.722-1.646,0.894-5.846,1.083-9.021C43.152,95.975,43.905,88.83,43.945,81.641z M35.645,74.064
			c-0.042,1.688-0.523-0.396-1.444,0v9.74c-1.824,6.102,1.052,13.096-0.358,19.844c-1.727-1.16-5.185-0.59-7.938-0.721
			c0.905-3.185,3.035-5.142,3.967-8.299c1.418-1.105,2.819-2.234,3.246-4.329c-0.58-0.625-1.091-1.312-2.524-1.082
			c-0.158,0.533-0.462-0.144-1.082,0h-1.804c-3.49,1.197-4.606,4.773-6.498,7.576c-0.817-0.385-0.133-2.271-0.359-3.248
			c0.819-0.384,0.137-2.269,0.359-3.246c0.954-1.215,1.149-3.185,2.169-4.331c0.306-1.736,1.496-2.591,1.803-4.328
			c1.468-2.619,3.059-5.119,4.33-7.939c0.24-1.922-0.279-3.087-1.081-3.967c-1.478,0.089-3.479-0.353-3.975,0.723
			c-0.731,0.105-0.704,0.975-1.436,1.082c0.258,0.591-0.723,1.568-0.725,0.721c-0.082-5.013,2.537-7.326,3.25-11.545
			c-0.251-1.196-1.243-1.648-2.166-2.165V24.996c3.373,0.715,7.965,0.21,11.905,0.359V44.84c-0.444-0.158-0.741-0.462-0.721-1.082
			c-0.822,0.5-0.133,2.51-0.363,3.605V58.91c0.507,1.541,0.798,3.293,1.444,4.692L35.645,74.064L35.645,74.064z M82.909,36.542
			C82.562,38.039,83.992,36.614,82.909,36.542L82.909,36.542z M72.811,50.612c0.217-2.144-1.179-2.671-2.168-3.607
			c-4.51-1.382-9.259-2.529-15.514-2.165c-0.533,0.188-0.91,0.534-1.444,0.721c-1.571,1.193-1.974,3.559-1.804,6.496V95.71
			c0,5.229-0.537,10.009,1.084,13.712c0.788,1.016,1.438,2.168,3.246,2.166c1.724,0.078,1.294,2.311,3.246,2.164
			c6.105,0.023,11.08,0.562,16.959,0c0.682-3.648,1.659-6.999,2.166-10.822c0.438-14.806-0.116-33-1.447-49.431
			C76.014,52.219,75.055,50.769,72.811,50.612z M65.229,105.093c0.414-1.394,1.558-2.055,1.81-3.608
			c0.424,0.06,0.303,0.658,0.356,1.084C66.387,103.12,66.938,105.234,65.229,105.093z M69.924,104.732
			c-1.67-0.258-0.939-2.912-1.808-3.972c-0.284-1.483,0.554-1.851,0.358-3.245c-0.627-0.691-0.422-2.222-1.797-2.164
			c-1.359-0.035-0.843,1.808-1.811,2.164c-0.447,0.754-1.046,1.354-1.802,1.803c-0.809,1.6-2.021,2.789-2.886,4.33
			c-0.798-0.043-0.152-1.528-0.361-2.164v-2.525c2.792-4.301,5.225-8.968,6.858-14.432c-0.072-0.293-0.363-0.36-0.363-0.723
			c-0.345-1.311-3.519-0.805-3.97,0c-0.583,1.1-1.812,1.557-2.164,2.887c-0.83-0.736-0.131-2.994-0.361-4.33v-14.07
			c-0.737-2.029,0.05-5.584-0.722-7.576v-9.021c4.245,0.206,7.556,1.342,11.185,2.164c-0.805,2.446-0.146,6.348-0.358,9.382
			c-0.522,1.076,1.263,2.197-0.362,2.164v-1.082c-0.83,0.854-0.129,3.238-0.359,4.691c0.785,5.704,0.156,12.829,0.359,19.12
			c-0.465,1.702-0.986,3.345-0.723,5.773c0.555,1.973,1.225,3.829,1.805,5.772C70.184,101.145,70.453,103.336,69.924,104.732z
			 M111.773,105.093c1.175-0.63,1.272-2.335,1.443-3.969c0.203-2.621-0.273-5.463,0-7.937c0.141-1.287,0.828-2.451,0.723-3.609
			c-2.039-5.66,0.774-16.174-1.809-21.287c-3.576-0.63-6.011-2.404-9.736-2.887c-3.604-0.848-7.588-1.314-11.908-1.442
			c-0.687,0.155-0.904,0.777-1.805,0.722c-0.771,0.791-0.988,2.135-1.804,2.887c-1.108,12.681,1.067,24.478,1.084,37.162
			c0.401,1.037,0.757,2.129,1.442,2.888c-0.11,1.672,0.004,3.123,0.724,3.969c3.448,2.834,10.147,0.636,15.513,1.083
			c3.162-0.929,7.159-1.02,8.299-3.971C114.335,106.382,112.684,106.107,111.773,105.093z M103.838,98.598
			c-0.097,1.109-0.783,1.623-1.082,2.526c-0.352,1.556-0.171,3.082-0.361,3.969c-0.959-0.005-2.125,0.2-2.166-0.722
			c-1.25,0.287-1.525-0.4-2.166-0.723v-3.246c-0.908-1.413-3.136,0.297-3.608-1.084c-0.412-1.133,0.567-0.877,0.726-1.441
			c0.829,0.109,0.399-1.043,1.084-1.082c-0.062-0.421,0.076-0.641,0.358-0.723c0.351-2.416,1.42-4.111,1.803-6.494
			c0.695-1.949,1.896-3.396,1.804-6.133c-0.187-0.897-0.881-1.287-1.442-1.805c-1.45-0.248-2.058,0.346-3.247,0.361
			c-0.243,0.396-1.199,1.872-1.441,1.081V70.814c2.319,0.446,4.812,0.723,7.215,1.084c0.644,3.565,2.156,6.263,2.527,10.104v16.595
			H103.838z"/>
	</g>
</g>
</svg>
