<?xml version="1.0" encoding="utf-8"?>
<!-- Generator: Adobe Illustrator 16.0.0, SVG Export Plug-In . SVG Version: 6.00 Build 0)  -->
<!DOCTYPE svg PUBLIC "-//W3C//DTD SVG 1.1//EN" "http://www.w3.org/Graphics/SVG/1.1/DTD/svg11.dtd">
<svg version="1.1" id="Layer_1" xmlns="http://www.w3.org/2000/svg"  x="0px" y="0px"
	 width="120px" height="120px" viewBox="4 4 120 120" style="enable-background:new 4 4 120 120;" xml:space="preserve">
<g id="chart5">
	<g>
		<path d="M110.938,28.145v-5.421c-0.078-1.729,0.31-3.921-0.567-4.849c-0.701-1.037-2.3-2.072-3.14-2.283
			c-0.174-0.043-0.393,0.016-0.569,0c-4.604-0.384-9.729,0.293-13.979,0c-1.774,0.129-3.414,0.39-5.137,0.571
			c-1.01-0.323-1.777-0.883-3.137-0.855c-0.117-0.487-0.369,0.061-0.857,0c-1.389-0.152-1.336,1.137-2.281,1.426
			c-0.812,1.931,0.621,2.865,0.283,5.136c-0.699,6.122-0.854,12.525-0.572,18.83c0.859,18.877,0.599,38.687,0.289,57.915
			c-0.369,1.152-0.781,2.264-0.856,3.709c-0.156,1.363-1.199,1.844-0.854,3.709c0.237,1.951,0.276,4.096,1.424,5.135
			c0.979,0.072,1.375,0.721,2.569,0.57c0.488-0.555,1.476-0.615,2.568-0.57c0.123,0.639,1.405,0.115,1.998,0.287
			c0.364,0.391,1.237,0.281,1.995,0.283c4.478-0.174,9.46,0.268,13.125,0c0.912-0.797,1.921-1.5,2.851-2.282
			c0.336-2.042,0.72-4.036,0.572-6.562c0.772-0.273-0.271-2.361,0.856-2.281c0.474-0.572-0.024-2.117,0.568-2.569
			c-0.514-10.548,1.424-22.685,1.713-34.235c0.598-5.58,0.875-11.486,1.139-17.403C111.451,40.888,111.346,33.679,110.938,28.145z
			 M104.092,35.277v9.986c-1.117,14.195-1.781,28.838-3.137,42.793c-0.156,3.361,0.334,7.373-0.283,10.271
			c0.557,1.689,0.537,2.827,0.283,4.85c-0.604,0.629-0.846-0.365-1.715-0.285c-1.041-0.188-1.092,0.617-1.998,0.571
			c-0.145-1.659,0.322-3.935-0.283-5.136c-0.26-0.5-0.529-0.992-1.426-0.857c-0.119-0.972-1.566,0.432-1.428-0.283
			c0.401-2.11,2.395-5.086,0.567-6.848c-1.647-0.322-2.071,0.588-3.135,0.855c0.521-1.098,0.735-2.498,1.428-3.424
			c0.283-1.236,0.584-2.461,1.14-3.424c0.151-2.242,2.346-5.506,0-6.847c-1.771,0.034-2.205,1.407-3.14,2.282
			c-0.432,1.279-1.37,2.05-1.709,3.423c-0.854-1.337,0.15-3.267,0.854-3.994c0.281-3.33,1.354-5.872,1.996-8.843
			c0.404-1.403,0.64-2.977,1.142-4.28c0.239-1.203,0.699-3.535-0.283-4.28c-1.575-0.516-2.241,1.356-2.854,0.855
			c0.914-4.316,2.109-8.349,2.281-13.409c-0.422-0.909-0.387-2.276-1.428-2.567c-1.527-0.565-1.805,1.601-2.281,1.142
			c-0.467-8.665-1.033-17.228-1.711-25.677c5.414,0.304,11.162,0.206,17.402,0.284V33.85
			C104.611,34.658,103.977,34.591,104.092,35.277z M74.137,46.689c-0.438-0.984-1.072-1.414-1.713-2.283
			c-2.396-0.55-5.717-0.178-8.557-0.286c-0.367,0.015-0.396,0.367-0.859,0.286c-2.289-0.008-4.26,0.304-6.273,0.57
			c-2.148,0.231-4.467,0.289-5.707,1.426c-1.254,1.696-0.281,4.432-1.141,6.848c0.213,3.064-0.336,5.373-0.285,8.273
			c-0.5,5.303-0.111,11.493-0.572,16.833c-0.088,8.563,0.238,17.547-0.285,25.676c0.148,2.967-0.928,5.818,0.857,7.421
			c2.111,1.555,5.695,0.135,8.557,1.139c3.451,0.029,6.903,0.058,9.987-0.282c0.592-0.168,0.922-0.602,1.427-0.855
			c0.442-0.414,0.561-1.15,1.711-0.857c1.098-0.613,2.426-0.998,2.565-2.566c1.172-1.646-0.988-3.315-0.285-4.564
			c0.869-9.595,0.609-20.312,1.431-29.957V57.815C74.383,54.296,75.273,49.257,74.137,46.689z M67.002,100.896
			c-0.82,0.033-1.867-0.155-2.281,0.285c-1.643,0.258-1.557,2.248-3.42,2.282c0.32-1.769,1.939-3.974,0.566-5.706
			c-1.334-0.68-2.242,0.541-3.422,0.855c0.029,0.345-0.418,0.176,0,0c0.854-3.651,3.553-6.859,2.855-11.127
			c-0.371-0.394-1.24-0.281-2-0.285c-0.287,0.154-1.26,1.479-1.143,0.285c0.777-1.412,1.178-3.197,1.709-4.851
			c0.684-1.51,1.295-3.084,1.717-4.852c0.641-1.066,1.58-1.841,1.711-3.421c-0.092-0.672-0.883-0.641-1.143-1.143
			c-1.721,0.182-2.873,0.928-3.42,2.283c-1.111,0.792-1.688,2.119-2.285,3.421c-0.963-0.892,0.303-1.965,0.57-2.567
			c0.51-0.823,0.514-2.148,1.141-2.853c0.529-2.134,1.07-4.257,2-5.989c-0.064-1.396,0.867-1.795,0.855-3.141
			c0.506-0.823,0.512-2.148,1.139-2.853c-0.055-2.298,1.898-4.464,0.572-6.277c-2.678-0.108-2.826,2.31-3.992,3.709
			c-1.117,1.453-1.971,3.167-2.57,5.137c-0.771-0.56,0.176-2.838-0.57-3.425c-0.033-1.393,0.154-3.006-0.285-3.994v-5.42
			c4.424-0.044,8.109-0.829,12.84-0.57C69.15,67.745,67.42,84.324,67.002,100.896z M41.041,73.223
			c-1.467-1.104-4.402-1.928-6.848-1.141c-4.484,0.077-9.436-0.309-13.123,0.568c-0.031,0.541-0.941,0.197-0.857,0.855
			c-0.549,0.116-0.223,1.107-1.139,0.857c-0.084,0.578-0.775,0.558-0.857,1.142c-0.789-0.123-0.268,1.062-0.854,1.14
			c-0.062,7.002,0.064,13.816,0.568,20.256c-0.758,2.379-0.555,5.723-0.568,8.846c-0.068,1.55-0.898,2.332-0.572,4.279
			c0.637,0.088,0.695,0.869,1.141,1.141c1.59,0.973,4.512,0.395,6.848,0.57c3.697,0.27,9.236,1.39,12.27-0.283
			c1.172-0.62,0.682-3.159,0.857-3.996c1.863,0.249,2.381-0.85,3.135-1.711c0.875-3.566,0.568-7.76,0.572-11.982V81.209
			C42.152,78.58,42.047,74.912,41.041,73.223z M34.193,102.037h-4.279c0.352-2.535,2.293-5.436,1.143-7.703
			c-1.697-0.176-2.275,0.768-2.854,1.711c-1.07,0.641-1.08,2.346-1.996,3.139c0.271,1.187-0.855,0.06,0,0
			c-0.078-1.399,0.531-1.965,0.855-2.854c0.314-0.863,0.289-1.612,0.855-2.28c0.102-2.089,1.521-2.854,1.428-5.138
			c-0.211-0.836-0.867-1.227-1.428-1.711c-1.91-0.389-2.221,0.822-3.422,1.142c0.061-3.866-0.76-6.849-0.572-10.841
			c3.652,0.15,7.189,0.418,11.127,0.283C34.566,85.673,34.35,93.823,34.193,102.037z"/>
	</g>
</g>
</svg>
