<?xml version="1.0" encoding="utf-8"?>
<!-- Generator: Adobe Illustrator 16.0.0, SVG Export Plug-In . SVG Version: 6.00 Build 0)  -->
<!DOCTYPE svg PUBLIC "-//W3C//DTD SVG 1.1//EN" "http://www.w3.org/Graphics/SVG/1.1/DTD/svg11.dtd">
<svg version="1.1" id="Layer_1" xmlns="http://www.w3.org/2000/svg"  x="0px" y="0px"
	 width="120px" height="120px" viewBox="0 0 120 120" enable-background="new 0 0 120 120" xml:space="preserve">
<g id="barcode">
	<g>
		<path d="M23.71,81.385v-7.607c-0.484-4.586-0.198-9.945-0.271-14.941c-0.293-4.554-0.271-9.831-0.271-14.948
			c0-5.196,0.445-10.468-1.091-14.398c-0.809-0.095-1.375-0.433-1.901-0.814c-0.368,0.087-0.517,0.388-1.086,0.272
			c-0.922,0.348-0.815,1.72-1.359,2.444c-0.173,1.182,0.355,3.071-0.271,3.806v8.15c-0.152,5.192-0.469,10.217-0.814,15.215v19.835
			c0.258,1.383-0.431,2.836,0,3.533c-0.163,2.879,1.411,4.021,4.073,4.075C22.793,85.541,23.759,83.973,23.71,81.385z
			 M31.046,82.198c0.621,0.558,0.099,2.258,0.271,3.264c0.436,0.831,0.652,1.88,1.901,1.901c0.935-0.607,1.826-1.25,1.63-2.988
			c0.148-1.777-0.167-3.096-0.271-4.621c-0.26-14.773,0.664-30.732-0.815-44.287c-0.052-1.347,0.613-2.396,0-3.534
			c-0.046-1.401-0.19-2.706-1.631-2.716c-0.014-0.166-0.042-0.322-0.273-0.271c-0.32,0.131-0.613,0.29-0.812,0.542
			c-0.816,0.724-0.326,2.752-0.814,3.805C31.424,48.674,30.945,65.723,31.046,82.198z M61.748,87.09
			c0.85-0.417,2.5-0.035,2.988-0.814c0.06-0.303,0.304-0.42,0.545-0.543c0.793-0.834,0.957-2.307,0.814-4.074
			c-0.146-1.775,0.166-3.094,0.271-4.62c-0.621-9.61-0.097-20.368-0.271-30.431c-0.408-1.398-0.541-3.082-0.814-4.62V34.65
			c-0.704-1.469-0.538-3.807-1.9-4.617c-0.635-0.998-3.053-0.213-4.079-0.815c-1.71,0.191-3.62,0.182-5.159,0.544
			c-0.005-0.449-0.755-0.153-0.815-0.544c-0.371-0.086-0.518-0.387-1.087-0.271c-0.321,0.131-0.617,0.29-0.816,0.542
			c-0.215,0.08-0.531,0.583-0.543,0.815c-0.016,0.28-0.23,0.163-0.273,0.271c-1.26,3.363,0.391,9.359-0.27,12.771
			c0.02,4.869,0.693,9.085,0.543,14.129c0.646,4.243,0.337,9.443,0.814,13.856c0.054,4.927,0.367,9.601,1.086,13.86
			c1.653,0.791,3.264,1.627,5.709,1.627C59.144,87.342,60.673,86.992,61.748,87.09z M104.137,35.737
			c0.037-2.302-0.88-3.649-1.632-5.163c-1.187-0.26-1.786-1.111-3.532-0.813c-1.742,0.202-2.57-0.508-3.803-0.815
			c-0.318,0.131-0.615,0.29-0.816,0.542c-0.063,0.032-0.211-0.043-0.27,0c-2.271,1.665-0.956,9.008-0.814,12.771
			c0.207,5.57-0.146,10.175-0.271,13.857c-0.686,9.085,0.318,18.161,0.812,26.899c1.576,1.231,3.103,2.514,6.25,2.176
			c0.453-0.64,1.478-0.701,2.176-1.088c1.356-1.979,1.428-4.401,1.356-7.067c-0.206-7.955-0.407-17.234-0.271-25.269
			c0.164-1.465,0.559-2.699,0.541-4.346c0.205-2.197-0.321-3.662-0.271-5.707C103.874,39.826,104.38,38.152,104.137,35.737z
			 M82.943,62.366c-0.103,5.082,0.006,9.954,0.812,14.128v4.891c0.599,1.125,0.259,3.184,2.177,2.99
			c1.289-0.066,1.637-1.082,1.631-2.445c0.213-1.57-0.396-2.324-0.271-3.807c0.004-2.719-0.582-4.85-0.814-7.334v-7.881
			c-0.369-2.076-0.522-4.368-0.815-6.521c0.149-9.118-0.478-17.456-0.271-26.627c-0.271,0-0.322-0.22-0.545-0.273
			c-0.062-0.699-0.466,0.375-1.087,0c-1.348,1.55-0.563,5.231-1.086,7.61c0.21,3.196-0.358,5.617-0.272,8.693
			C81.874,51.283,82.139,57.399,82.943,62.366z M111.2,74.05c0.788-3.71-0.261-7.628,0-11.684
			c-0.636-3.903-0.087-7.884-0.271-11.956c-0.186-4.033-0.431-8.081-0.271-12.229c-0.202-1.52-0.508-2.933-0.547-4.619
			c0.215-1.118-0.416-1.394-0.271-2.443c-0.609-0.296-0.104-1.71-1.355-1.358h-0.545v0.813c0.17,1.66,0.273,2.017,0.545,3.805
			c0.326,11.559-0.842,21.624-0.545,33.151c-0.289,3.062-0.957,5.743-0.813,9.235v5.164c0.002,1.715,0.616,2.82,2.444,2.715
			c1.764-0.229,1.279-2.701,1.356-4.617C110.836,77.85,111.409,76.344,111.2,74.05z M44.902,78.396
			c-0.22-5.248-0.352-12.42,0-17.391c0.446-6.244,0.122-13.529-0.271-19.293c-0.361-4.211,0.93-8.4-0.546-11.412h-0.54
			c-0.322,0.133-0.616,0.289-0.815,0.545c-0.898,1.003-0.894,2.91-0.816,4.89c-0.035,13.007,0.204,26.286-0.542,38.583
			c0.021,2.334-0.134,4.844,0.27,6.795c-0.484,1.638-0.087,4.57,1.904,4.619C46.062,84.635,45.012,80.938,44.902,78.396z
			 M72.075,80.298c0.007,2.345-0.304,5.011,1.088,5.978c0.813,0.363,2.077,0.277,3.26,0.272c2.447-1.353,1.834-5.353,1.356-8.425
			c-0.271-8.782-0.389-17.724-1.086-26.082c0.568-4.596,0.176-9.739-0.271-14.128c0.07-2.808,0.493-5.216-0.814-7.065
			c-1.01,0.19-1.168-0.465-2.176-0.273c-0.32,0.132-0.615,0.289-0.814,0.545c-0.348,0.465-0.561,1.066-1.358,1.086
			c0.04,9.289-0.157,18.817,0.273,27.715C72.29,66.133,71.32,74.078,72.075,80.298z M92.723,88.992
			c-0.258,3.611,0.575,6.127,3.536,6.521c1.193-0.164,1.729-0.982,2.714-1.358c0.629-2.582,0.049-5.437-1.356-6.792
			C95.484,86.484,93.391,87.547,92.723,88.992z M108.484,88.45c-2.549-0.196-4.131,0.583-4.351,2.717
			c0.581,2.226,2.142,3.476,5.162,3.26c0.329-0.938,0.735-1.799,0.545-3.26C109.9,89.748,109.029,89.264,108.484,88.45z
			 M47.892,94.155c-0.611-0.659-1.047-1.49-1.632-2.173c0.29-1.377-0.802-1.371-1.085-2.174c-4.469-0.355-2.241,5.895-1.9,8.422
			c0.759,0.73,2.97,0.695,4.072,0.271c0.247-1.021,0.779-1.76,0.816-2.988C47.935,95.199,47.805,94.785,47.892,94.155z
			 M61.748,90.625c-0.379,0.346-0.118,1.33-0.812,1.357c-0.197,2.369,0.197,4.147,1.086,5.433c2.416,0.334,3.615-0.546,4.619-1.63
			c0.062-0.211,0.008-0.534,0.271-0.541c0.27-2.264-0.473-3.516-1.355-4.619C64.424,89.968,62.877,89.968,61.748,90.625z
			 M72.616,90.625c-0.206,1.691-1.116,2.686-0.812,4.891c0.965,1.717,3.282,3.023,5.975,2.174c1.627-1.49,1.275-5.736,0-7.338
			C76.232,89.751,73.956,90.172,72.616,90.625z M84.027,90.352c-0.52,0.391-0.971,0.84-1.356,1.359
			c-0.09,1.266,0.541,1.814,0.544,2.989c1.434,0.647,2.482,1.681,4.891,1.358c0.715-0.735,0.539-2.359,0.545-3.809
			C87.268,91.464,85.982,90.572,84.027,90.352z M28.599,92.523c-0.451,1.689-0.11,3.096,0,4.892c1.321,1.387,4.162,1.569,6.25,0.815
			c1.202-2.062,0.229-5.316-0.542-7.063C31.804,90.496,30.289,91.66,28.599,92.523z M50.338,91.438c-0.612,1.488-0.108,3.56,0,5.164
			c1.438,0.674,2.693,2.572,4.888,1.629c0.942-1.34,0.575-4.76,0.275-6.521C54.443,90.708,51.692,90.629,50.338,91.438z
			 M21.807,91.438c-4.256-0.955-4.742,4.002-3.532,6.793c1.568,1.562,4.774,0.617,5.706-0.814c0.207-1.15,0.634-2.081,0.544-3.53
			C23.864,92.82,22.827,92.139,21.807,91.438z"/>
	</g>
</g>
</svg>
