<?xml version="1.0" encoding="utf-8"?>
<!-- Generator: Adobe Illustrator 16.0.0, SVG Export Plug-In . SVG Version: 6.00 Build 0)  -->
<!DOCTYPE svg PUBLIC "-//W3C//DTD SVG 1.1//EN" "http://www.w3.org/Graphics/SVG/1.1/DTD/svg11.dtd">
<svg version="1.1" id="Layer_1" xmlns="http://www.w3.org/2000/svg"  x="0px" y="0px"
	 width="120px" height="120px" viewBox="4 4 120 120" style="enable-background:new 4 4 120 120;" xml:space="preserve">
<g id="energy1">
	<g>
		<path d="M120.961,69.184c-0.496-0.574-0.184-1.955-0.27-2.936c0.479-3.348-0.467-7.278-1.334-10.142
			c-1.039,0.062-1.383-0.572-2.135-0.8c-1.031,0.052-1.968,0.009-2.668-0.268c-2.007,0.049-4.054,0.138-5.07-0.8
			c-0.879-1.877-0.428-5.088-0.535-7.741c-1.236-2.407-3.18-4.113-5.334-5.603c-4.072,0.157-6.786-1.042-10.676-1.067
			c-0.342,0.014-0.371,0.342-0.801,0.268c-19.193,1.382-41.178,1.304-61.379,0.8c-3.432,0.304-7.386,0.083-10.674,0.534
			c-0.601,0.468-1.5,0.635-2.137,1.068c-0.511,0.644-1.253,1.059-1.865,1.601c-0.421,0.647-0.956,1.18-1.602,1.602
			c-0.49,0.67-0.556,1.758-1.334,2.135c-0.751,3.252-1.801,6.207-1.603,10.407c-0.559,3.533-0.088,8.095-0.533,11.742
			c-0.035,4.039-0.054,8.06,0.803,11.207c0.203,1.844,0.638,3.451,1.333,4.804c1.069,0.975,1.438,2.653,3.203,2.937
			c0.993,0.61,2.655,0.549,4.27,0.533c5.517-0.529,11.164,0,16.811,0c5.637-0.001,11.308-0.722,16.813,0
			c12.981,0.637,25.601,0.393,38.961,0.268c2.985-0.482,6.31-0.629,9.874-0.533c0.812-0.521,1.831-0.838,2.668-1.334
			c1.01-0.416,1.662-1.188,2.67-1.602c-0.059-2.191,0.201-4.068,0.531-5.871c0.689-0.063-0.364-0.459,0-1.066
			c0.111-0.645-0.484-0.581-0.266-1.336c0.149-0.916,0.5-1.633,1.065-2.135c2.319-1.817,5.479,0.633,9.076,0
			c0.767-1.188,1.5-2.412,1.864-4.002C121.299,71.48,120.791,69.994,120.961,69.184z M102.545,77.455
			c-1.156,0.354-0.932,2.094-1.6,2.938c-2.869-0.11-4.812,0.703-7.205,1.066c-5.855,0.09-12.07-0.005-17.879-0.268
			c-5.922-0.271-11.552,0.66-16.279-0.535c-9.386-0.4-17.364,0.604-25.885,1.068c-1.285,0.404-3.078,0.303-4.004,1.066
			c-1.939-0.446-3.247-0.073-5.604-0.268c-0.994-0.694-2.056-1.323-2.933-2.133c-0.478-0.594-1.053-1.086-0.804-2.404
			c-0.031-1.034-1.307-0.823-1.331-1.866c-0.037-7.951-0.093-15.927,0.799-22.949c1.532-2.472,3.968-4.041,6.937-5.071
			c0.381,0.023,0.757,0.044,0.801-0.267h2.404c0.636-0.163,1.937,0.335,2.134-0.268c1.327-0.35,1.132,0.823,2.135,0.802
			c2.389-0.457,4.835-0.86,7.736-0.802c0.432,0.076,0.459-0.252,0.805-0.266c14.503-0.031,27.447,2.706,42.16,1.601
			c1.432-0.082,2.219-0.806,3.473-1.067c1.269,0.422,2.929,0.45,4.269,0.8c2.843,0.096,5.935-0.062,7.738,1.068
			c-0.129,0.839,0.817,0.604,0.534,1.602c-0.153,0.161-0.623,1.265,0,1.334c0.002,0.708-0.103,1.524,0.267,1.867
			c0.153,0.471-0.319,1.568,0.271,1.601c0.11,2.556,0.469,4.867,0.797,7.206C102.09,68.307,102.723,72.475,102.545,77.455z
			 M68.654,64.912c-0.754-2.98-0.07-7.401-2.137-9.071c-1.613-0.964-4.917-0.239-6.937-0.802c-2.647,0.825-7.353-0.412-9.607,0.802
			c-2.003,2.173-1.535,6.825-1.603,10.94c-0.213,3.176-0.495,7.678,2.134,9.34c2.369,0.57,5.746,0.127,8.541,0.268
			c1.681-0.369,3.691-0.402,5.338-0.801c1.856-0.189,3.939-0.152,4.806-1.334c0.787-1.354,0.518-3.066,0-4.271
			C69.189,68.113,68.703,66.73,68.654,64.912z M59.047,67.314c-0.361-0.082-0.218-0.668-0.267-1.066
			c0.594-0.146,0.382,0.51,0.802,0.533C59.517,67.07,59.051,66.961,59.047,67.314z M60.115,61.977
			c-1.271-0.204-1.224,0.91-1.6,1.602c-1.088-0.157-0.045-2.448-1.068-2.668c0.457-0.611,2.036-0.099,2.936-0.268
			C60.493,61.286,59.896,61.224,60.115,61.977z M64.119,69.982c-0.88,0.012-1.329,0.451-2.401,0.268
			c-0.233-0.662-0.522-2.068,0-2.669c0.529,0.185,0.61,0.812,1.067,1.067c0.783-0.018,0.992-0.609,1.334-1.067
			C64.814,68.041,63.743,68.963,64.119,69.982z M64.385,67.047c-0.455-0.701-0.353-1.957-1.866-1.602
			c-0.455-1.324-0.283-3.276-1.07-4.269c-0.041-0.311,0.06-0.475,0.27-0.535c0.571-0.494,1.955-0.18,2.935-0.266
			C64.956,62.803,64.846,64.812,64.385,67.047z M89.734,55.573c-2.797-0.138-5.197-0.671-8.271-0.535
			c-2.516,0.509-5.265,0.787-6.671,2.401c-0.119,0.683-0.373,1.228-0.801,1.602c-0.099,1.612,0.075,2.949,0.266,4.27
			c-0.646,1.666-0.789,3.835-0.799,6.138c0.354,1.955,1.021,3.605,1.866,5.07c1.882,1.057,5.087,0.785,8.009,0.801
			c0.664-0.223,1.426-0.35,2.399-0.269c0.199-0.776,2.199,0.242,2.4-0.532c2.227,0.269,2.848-1.064,4.004-1.867
			c0.691-4.211,0.922-10.786,0-14.945C91.223,57.112,90.637,56.186,89.734,55.573z M80.396,69.449
			c-0.172-0.973,1.271-0.329,1.334-1.066c0.465,0.243,1.332,0.092,1.604,0.533C83.434,70.011,80.966,69.916,80.396,69.449z
			 M86.001,67.85c-0.372,0.34-0.116,1.308-0.802,1.334c-0.896,0.273-0.415-0.832-0.533-1.334c0.193-0.816-0.46-0.785-0.266-1.602
			c0.152-1.625,1.467-3.706,0.266-5.07c0.199-0.603,1.499-0.104,2.136-0.268v5.604C86.928,67.352,86.084,67.22,86.001,67.85z
			 M36.632,55.841c-3.434,0.034-6.958-0.022-9.606,0.8c-1.78,1.652-1.334,4.92-1.334,8.005c0,3.189,0.147,6.445,0.266,9.072
			c1.311,0.913,1.361,3.088,3.204,3.471c1.318,0.44,3.667-0.189,5.337-0.269c1.32,0.192,2.656,0.366,4.27,0.269
			c1.054-0.991,1.91-2.181,2.667-3.471c-0.039-5.843,2.98-11.098,1.337-16.811C41.75,55.605,38.739,55.201,36.632,55.841z
			 M31.295,61.178c0.305-0.864,0.299,0.717,0.265,1.067c-0.14,0.41-0.279,0.016-0.265-0.268V61.178z M31.561,65.445v1.336
			c-0.205,0.486-0.287-0.161-0.265-0.533v-1.336C31.502,64.426,31.583,65.073,31.561,65.445z M31.295,63.579
			c-0.138-0.139,0.192-0.34,0.265-0.267C31.7,63.45,31.368,63.652,31.295,63.579z M35.296,72.652
			c-0.138-1.133-1.291-1.664-0.798-2.67c0.439,0.805,1.063,1.426,1.868,1.869C36.444,72.555,35.995,72.727,35.296,72.652z
			 M37.697,62.511c-0.312-0.398-0.667-0.753-1.065-1.068c-0.726-0.099-1.676,1.994-1.602,0.267
			c-0.397,0.492-0.512,1.269-0.532,2.134c-0.946-0.144-0.658,0.944-1.604,0.803V60.91h4.802L37.697,62.511L37.697,62.511z"/>
	</g>
</g>
</svg>
