<?xml version="1.0" encoding="utf-8"?>
<!-- Generator: Adobe Illustrator 16.0.0, SVG Export Plug-In . SVG Version: 6.00 Build 0)  -->
<!DOCTYPE svg PUBLIC "-//W3C//DTD SVG 1.1//EN" "http://www.w3.org/Graphics/SVG/1.1/DTD/svg11.dtd">
<svg version="1.1" id="Layer_1" xmlns="http://www.w3.org/2000/svg"  x="0px" y="0px"
	 width="120px" height="120px" viewBox="4 4 120 120" style="enable-background:new 4 4 120 120;" xml:space="preserve">
<g id="energy2">
	<g>
		<path d="M120.959,69.184c-0.496-0.574-0.182-1.955-0.268-2.936c0.479-3.348-0.469-7.278-1.336-10.142
			c-1.039,0.062-1.383-0.572-2.135-0.799c-1.029,0.052-1.966,0.009-2.666-0.268c-2.008,0.049-4.054,0.138-5.072-0.799
			c-0.879-1.878-0.426-5.088-0.534-7.741c-1.236-2.407-3.179-4.114-5.335-5.603c-4.07,0.157-6.787-1.042-10.676-1.067
			c-0.34,0.014-0.369,0.342-0.801,0.268c-19.193,1.382-41.177,1.304-61.378,0.8c-3.429,0.304-7.385,0.083-10.672,0.534
			c-0.601,0.467-1.501,0.635-2.135,1.067c-0.515,0.644-1.253,1.06-1.869,1.601c-0.42,0.646-0.956,1.18-1.6,1.602
			c-0.488,0.669-0.556,1.758-1.336,2.134c-0.75,3.252-1.798,6.207-1.599,10.407c-0.558,3.533-0.093,8.095-0.537,11.74
			c-0.035,4.041-0.05,8.062,0.803,11.209c0.203,1.843,0.641,3.451,1.333,4.804c1.073,0.975,1.439,2.653,3.203,2.937
			c0.99,0.609,2.654,0.547,4.27,0.532c5.516-0.528,11.163,0,16.813,0c5.637,0,11.304-0.721,16.811,0
			c12.982,0.638,25.602,0.394,38.961,0.267c2.984-0.48,6.309-0.629,9.873-0.531c0.814-0.521,1.832-0.838,2.67-1.334
			c1.008-0.417,1.66-1.188,2.668-1.602c-0.059-2.193,0.201-4.068,0.531-5.871c0.689-0.064-0.363-0.459,0-1.067
			c0.109-0.644-0.484-0.58-0.266-1.335c0.151-0.916,0.504-1.633,1.065-2.135c2.323-1.817,5.481,0.633,9.076,0
			c0.771-1.188,1.5-2.412,1.866-4.002C121.299,71.48,120.793,69.994,120.959,69.184z M102.547,77.455
			c-1.16,0.354-0.932,2.093-1.604,2.936c-2.866-0.108-4.812,0.705-7.207,1.068c-5.854,0.089-12.066-0.005-17.877-0.268
			c-5.922-0.271-11.549,0.658-16.277-0.535c-9.386-0.4-17.365,0.604-25.886,1.068c-1.284,0.404-3.077,0.303-4.001,1.065
			c-1.94-0.445-3.25-0.072-5.606-0.267c-0.994-0.694-2.054-1.323-2.934-2.135c-0.475-0.592-1.052-1.084-0.802-2.402
			c-0.03-1.034-1.31-0.823-1.334-1.867c-0.034-7.95-0.093-15.926,0.8-22.948c1.532-2.472,3.967-4.041,6.94-5.071
			c0.378,0.023,0.753,0.044,0.8-0.267h2.402c0.637-0.163,1.937,0.336,2.135-0.267c1.328-0.35,1.134,0.823,2.134,0.801
			c2.389-0.457,4.835-0.86,7.739-0.801c0.429,0.076,0.459-0.252,0.8-0.266c14.506-0.03,27.446,2.706,42.161,1.601
			c1.43-0.082,2.221-0.806,3.471-1.068c1.271,0.422,2.933,0.45,4.271,0.8c2.838,0.095,5.932-0.063,7.737,1.068
			c-0.132,0.839,0.815,0.604,0.532,1.601c-0.154,0.161-0.625,1.266,0,1.334c0.002,0.708-0.103,1.524,0.27,1.868
			c0.15,0.47-0.324,1.567,0.266,1.601c0.113,2.556,0.471,4.867,0.799,7.206C102.09,68.307,102.723,72.475,102.547,77.455z
			 M68.656,64.912c-0.758-2.98-0.073-7.401-2.135-9.071c-1.619-0.964-4.923-0.238-6.939-0.802c-2.648,0.825-7.354-0.412-9.607,0.802
			c-2.005,2.173-1.535,6.825-1.6,10.94c-0.217,3.176-0.495,7.678,2.134,9.339c2.365,0.571,5.742,0.127,8.54,0.269
			c1.677-0.369,3.688-0.402,5.337-0.801c1.856-0.189,3.942-0.152,4.803-1.334c0.787-1.354,0.519-3.066,0-4.271
			C69.191,68.113,68.705,66.73,68.656,64.912z M59.049,67.314c-0.363-0.082-0.222-0.668-0.268-1.066
			c0.592-0.146,0.38,0.51,0.801,0.533C59.516,67.07,59.051,66.961,59.049,67.314z M60.116,61.977
			c-1.273-0.204-1.226,0.91-1.603,1.602c-1.088-0.157-0.042-2.448-1.067-2.668c0.456-0.611,2.038-0.099,2.936-0.268
			C60.493,61.286,59.895,61.224,60.116,61.977z M64.118,69.982c-0.877,0.012-1.329,0.451-2.401,0.268
			c-0.233-0.662-0.523-2.068,0-2.669c0.529,0.183,0.611,0.812,1.067,1.067c0.783-0.018,0.992-0.609,1.334-1.067
			C64.814,68.041,63.742,68.963,64.118,69.982z M64.386,67.047c-0.455-0.701-0.355-1.957-1.868-1.602
			c-0.455-1.324-0.283-3.276-1.067-4.269c-0.045-0.311,0.057-0.475,0.266-0.535c0.573-0.494,1.955-0.18,2.936-0.266
			C64.958,62.803,64.846,64.812,64.386,67.047z M36.632,55.841c-3.434,0.034-6.958-0.022-9.606,0.8
			c-1.777,1.653-1.335,4.92-1.335,8.005c0,3.189,0.149,6.445,0.265,9.072c1.312,0.912,1.362,3.088,3.203,3.471
			c1.319,0.439,3.667-0.19,5.339-0.27c1.32,0.193,2.656,0.367,4.27,0.27c1.054-0.991,1.912-2.181,2.668-3.471
			c-0.037-5.843,2.98-11.098,1.335-16.811C41.753,55.605,38.739,55.201,36.632,55.841z M31.295,61.178
			c0.307-0.864,0.301,0.717,0.265,1.067c-0.141,0.41-0.276,0.016-0.265-0.268V61.178z M31.561,65.445v1.336
			c-0.206,0.486-0.287-0.161-0.265-0.533v-1.336C31.502,64.426,31.583,65.073,31.561,65.445z M31.295,63.579
			c-0.139-0.139,0.192-0.34,0.265-0.267C31.699,63.45,31.368,63.652,31.295,63.579z M35.298,72.65
			c-0.141-1.131-1.294-1.662-0.8-2.668c0.442,0.804,1.064,1.426,1.868,1.869C36.444,72.555,35.995,72.727,35.298,72.65z
			 M37.699,62.511c-0.312-0.398-0.67-0.753-1.067-1.068c-0.726-0.099-1.676,1.994-1.602,0.267c-0.395,0.492-0.508,1.269-0.532,2.134
			c-0.946-0.144-0.657,0.944-1.604,0.803V60.91h4.805V62.511z"/>
	</g>
</g>
</svg>
