<?xml version="1.0" encoding="utf-8"?>
<!-- Generator: Adobe Illustrator 16.0.0, SVG Export Plug-In . SVG Version: 6.00 Build 0)  -->
<!DOCTYPE svg PUBLIC "-//W3C//DTD SVG 1.1//EN" "http://www.w3.org/Graphics/SVG/1.1/DTD/svg11.dtd">
<svg version="1.1" id="Layer_1" xmlns="http://www.w3.org/2000/svg"  x="0px" y="0px"
	 width="120px" height="120px" viewBox="4 4 120 120" style="enable-background:new 4 4 120 120;" xml:space="preserve">
<g id="bell">
	<g>
		<path d="M111.814,68.199c-1.205-0.807-1.984-2.033-3.172-2.855c-2.246-1.026-4.685-1.865-6.976-2.853
			c-1.78-0.439-4.209-0.229-5.705-0.952c-1.285-0.406-1.748-1.633-3.17-1.901c-1.194-2.189-2.748-4.018-3.489-6.66
			c-1.273-2.106-2.64-4.124-3.806-6.341c-1.261-2.121-2.174-4.589-3.485-6.659c-0.757-0.935-1.148-2.233-1.902-3.17
			c-0.404-1.288-1.543-1.837-1.903-3.171c-2.915-2.686-6.095-5.108-8.876-7.925c-2.382-1.003-4.184-2.583-6.661-3.487
			c-2.146-1.34-4.471-2.503-6.974-3.488H49.67c-0.589-0.676-0.43-2.106-1.267-2.537c-0.632-0.638-1.499-1.036-1.902-1.902
			c-1.945-0.698-3.083-2.203-6.026-1.902c-0.592,0.261-0.915,0.098-1.585,0.318c-3.011,0.991-5.228,3.837-6.977,6.024
			c-0.367,1.642-0.865,3.148-0.632,5.39c-0.882,1.341-2.609,1.831-3.486,3.172c-1.352,0.866-2.14,2.302-3.492,3.169
			c0.019,0.545-0.242,0.813-0.632,0.952c-0.809,1.622-1.526,3.334-2.537,4.755c0.122,1.389-0.904,1.631-0.948,2.855
			c-0.655,0.616-0.618,1.92-1.271,2.535c-0.187,0.657,0.393,2.084-0.316,2.219c-0.157,8.504,0.172,16.525,1.268,23.779
			c-0.17,2.547,1.168,5.218,1.267,6.978c0.022,0.365,0.268,0.463,0.316,0.633c0.229,0.755,0.354,1.74,0.636,2.537
			c0.075,0.206,0.519,0.649,0.636,0.951c0.536,1.373,0.65,2.476,0.949,3.804c0.024,0.117,0.599,0.784,0.632,0.951
			c0.397,1.773-0.291,3.025,0,4.757c-0.402,0.757-0.605,1.718-1.581,1.902c-0.249,1.021-0.664,1.873-1.272,2.537
			c-1.017,3.524-2.983,6.103-3.168,10.463c0.021,1.459,0.435,2.522,0.952,3.485c-0.214,1.799,0.71,2.459,0.952,3.807
			c1.449,1.931,3.343,3.418,5.389,4.757c6.537,1.705,14.158,2.33,22.51,2.217c3.092-0.606,6.398-0.999,10.147-0.948
			c0.995-0.697,2.988-0.395,3.804-1.269c1.816,0.019,2.688-0.903,4.44-0.953c0.856-0.831,2.754-0.627,3.485-1.584
			c1.603-0.192,2.783-0.808,4.121-1.271c1.415-0.17,2.858-0.311,4.122-0.633c3.652-1.317,6.667-3.27,10.146-4.756
			c0.475-0.797,1.428-1.113,2.221-1.586c0.607-0.66,1.215-1.32,2.221-1.587c1.497-1.036,2.715-2.354,4.438-3.169
			c2.57-2.82,5.314-5.466,7.609-8.562c1.346-1.295,2.116-3.166,3.172-4.754c1.211-1.539,2.016-3.48,3.17-5.072
			c0.91-3,2.258-5.566,2.537-9.196C113.018,70.801,112.496,69.422,111.814,68.199z M35.401,18.102
			c0.83-0.652,1.263-1.698,2.221-2.218c1.113-0.157,2.062-0.474,3.489-0.318c1.048,0.112,1.374,0.95,1.901,1.586
			c1.153,0.009,1.392,0.932,1.267,2.218c-0.321,0.208-0.327,0.729-0.948,0.635c-0.452-0.026-0.899-0.053-0.955,0.317
			c-1.191-0.243-1.514,0.386-2.534,0.317c-1.575,0.644-2.191,2.25-4.756,1.902c-0.177-0.456-0.494-0.773-0.952-0.951
			C33.752,19.623,34.695,18.979,35.401,18.102z M27.16,51.076c0.902-1.526,1.941-2.918,2.537-4.754
			c1.008-0.895,2.338-1.467,2.217-3.488c-2.075-0.935-3.225,1.572-4.118,2.853c-0.745-0.08-0.187-1.392,0-1.583
			c0.18-0.559-0.386-1.864,0.316-1.904c-0.056-1.536,0.25-2.707,0.633-3.804c0.216-2.636,1.177-4.528,1.586-6.976
			c1.518-1.334,3.27-2.439,4.755-3.805c1.894-0.01,2.738-1.066,4.438-1.269c1.355-0.549,2.939-0.869,4.125-1.584
			c2.833-0.864,6.259-1.139,10.145-0.953c4.943,0.978,8.073,3.764,12.683,5.074c2.209,1.913,4.672,3.571,6.976,5.39
			c1.411,2.077,3.301,3.677,4.438,6.025c1.416,1.964,2.213,4.548,3.487,6.658c0.808,2.68,2.044,4.93,3.173,7.292
			c0.961,2.417,2.532,4.228,3.484,6.66H84.23c-5.226,0.479-9.556,1.858-13.953,3.169c-2.086,0.766-4.457,1.249-6.973,1.586
			c-0.654,0.825-2.515,0.442-3.172,1.269c-1.476-0.103-2.115,0.635-3.486,0.635c-1.867,0.986-3.994,1.715-6.026,2.537
			c-1.714,1.137-3.842,1.862-5.709,2.853c-3.993,1.604-8.347,2.854-11.095,5.708c-0.883-0.701-1.127-2.046-1.584-3.172
			c0.072-2.04,1.789-2.438,1.901-4.438c-1.696-1.219-2.096,1.168-3.487,1.269c-0.247-0.813-0.316-1.798-0.951-2.22
			c1.072-3.578,3.632-5.667,4.438-9.513c-2.907-0.851-4.419,2.31-5.706,4.12c-1.003-0.581-1.129-2.647-0.633-3.802
			c0.875-0.815,1.309-2.069,1.901-3.171c1.092-2.289,2.751-4.016,3.169-6.976c-1.345-0.867-2.553,0.71-3.488,1.27
			c-0.096,0.747-1.097,0.588-0.948,1.584c-0.559-0.089-0.983,1.493-1.269,0.634L27.16,51.076L27.16,51.076z M27.476,82.784
			c0.531-0.425,0.493-1.411,0.953-1.903c0.793-0.055,0.991,0.487,1.268,0.951c-0.425,1.372-1.603,1.988-2.22,3.17
			C26.691,84.697,27.913,83.785,27.476,82.784z M26.208,77.076h0.631v0.635h-0.631V77.076z M103.57,85.637
			c-1.728,2.922-3.788,5.514-6.342,7.609c-0.883,1.439-2.354,2.297-3.804,3.172c-1.297,1.025-2.222,2.426-3.806,3.17
			c-2.396,2.148-5.727,3.363-8.242,5.389c-2.068,0.574-3.99,1.295-5.709,2.221c-1.238,0.025-1.977,0.56-2.854,0.951
			c-1.146,0.123-2.114,0.42-2.854,0.951c-4.48,0.697-8.485,1.873-12.684,2.854c-4.785,0.075-10.053-0.33-13.948,0.635
			c-3.536-0.694-8.076-0.384-11.733-0.953c-2.042-0.282-2.935-1.715-4.438-2.534c-1.207-1.015-2.468-1.972-3.172-3.486
			c-0.217-3.285,0.611-5.523,0.952-8.244c1.9-2.645,4.035-5.057,6.026-7.611c2.275-2.266,4.824-4.262,6.974-6.656
			c3.063-1.483,5.758-3.334,8.878-4.756c3.29-1.149,6.339-2.543,9.831-3.488c1.439-0.885,3.281-1.368,5.073-1.902
			c1.082-0.081,1.521-0.803,2.852-0.634c0.311-0.746,1.83-0.284,2.223-0.951c3.657-0.781,6.994-1.883,10.145-3.17
			c3.072-0.312,6.142-0.625,9.513-0.636h0.637c-0.063-0.274,0.123-0.291,0.315-0.317c3.316-0.431,7.441,0.867,11.41,0.317
			c0.754,0.517,1.922,0.615,2.854,0.951c0.533,0.629,1.822,0.506,2.22,1.269c2.071,0.255,3.09,1.563,4.125,2.854
			c0.237,1.344,0.391,2.775,0.631,4.121C107.842,80.607,105.184,82.6,103.57,85.637z M100.085,73.905
			c-2.327,0.426-3.026-0.78-4.755-0.951c-2.209,0.118-4.943-0.291-6.662,0.317c-7.561,0.364-14.092,1.76-19.973,3.805
			c-3.385,0.635-6.064,1.971-9.513,2.537c-2.625,1.391-6.938,1.092-9.197,2.853c-6.146,1.78-11.293,4.558-15.536,8.245
			c-2.221,1.794-4.03,4-6.021,6.023c-0.356,1.08-1.178,2.084-1.589,2.854c-0.466,0.885-0.405,1.215-0.631,2.219
			c-0.025,0.117-0.596,0.786-0.633,0.95c-0.18,0.804-0.375,1.755,0,2.537c0.776,1.081,2.122,0.369,3.485,0.319
			c1.24,1.402,3.291,1.994,5.39,2.535c2.101,0.649,4.629,0.865,6.978,1.269H58.55c0.979-0.396,2.253-0.495,3.488-0.635
			c1.495-0.618,2.667-1.562,4.121-2.22c0.374-0.049,0.901,0.057,0.952-0.316c0.547-0.125,0.813,0.47,0.949,0
			c0.707-0.246,1.236-0.667,2.219-0.633c1.347-0.666,2.768-1.252,4.443-1.588c3.688-2.439,8.223-4.035,11.411-6.975
			c2.063-1,3.853-2.275,5.392-3.806c2.192-0.979,3.632-2.709,5.391-4.123c0.79-2.166,1.997-3.92,3.171-5.706
			c0.888-0.592,1.224-1.736,1.583-2.854c0.756-0.727,1.033-1.93,0.955-3.487c-0.531-0.423-0.498-1.411-0.955-1.902
			C100.932,74.959,100.82,74.12,100.085,73.905z M51.574,89.123c0.045-0.784,0.058-1.538-0.636-1.584
			c1.553-1.196,3.859-1.639,5.709-2.537c1.954-0.686,4.308-0.977,6.022-1.9c0.739-0.102,1.22,0.049,1.587,0.315
			c-0.036,4.507-2.718,6.371-4.757,8.878c-0.7-0.251-0.411-1.49-1.267-1.584c-1.355-0.088-1.38,1.156-2.222,1.584
			c-0.362,0.799-0.147,2.175-1.266,2.221c-1.577-0.172,0.445-1.184,0-2.221c0.619-0.545,0.68-1.643,0.634-2.854
			c-0.368,0.051-0.563-0.069-0.634-0.318c-1.619,0.178-2.106,1.488-2.854,2.537c-0.602,0.24-0.651,1.101-0.953,1.586
			c-0.3,0.49-0.598,1.311-1.268,1.27C49.285,92.891,51.071,90.902,51.574,89.123z M45.868,89.758
			c0.998-0.689,1.96-1.419,3.486-1.584c-0.032-0.383,0.462-0.195,0,0c-0.286,0.559-0.708,0.98-1.269,1.268
			c0.081,1.138-0.952,1.162-0.952,2.22c-0.999,0.06-0.403,1.709-1.585,1.586c-0.037-0.914,0.174-2.074-0.316-2.535
			c-1.138-0.081-1.162,0.951-2.219,0.949C43.251,90.316,44.77,90.248,45.868,89.758z M38.258,94.197
			c0.862,1.354,0.949,3.486,1.584,5.072C38.816,98.178,36.751,95.843,38.258,94.197z M33.185,103.076
			c-0.019,0.193-0.05,0.375-0.32,0.314c-0.065,0.95-1.319-0.303,0,0C32.885,103.2,32.912,103.018,33.185,103.076
			C32.881,101.76,34.134,103.012,33.185,103.076z M34.134,101.807h-0.633c-0.261-0.896,0.447-0.82,0.316-1.586
			C34.184,100.324,34.909,101.605,34.134,101.807z M37.622,100.539c0.139-0.461,0.281,0.033,0.636,0
			C38.177,100.938,37.625,100.859,37.622,100.539z M38.89,104.025c-0.164-0.162,0.23-0.404,0.317-0.315
			C39.372,103.873,38.978,104.114,38.89,104.025z M39.523,103.076c-0.16-0.164,0.229-0.404,0.319-0.319
			C40.007,102.923,39.614,103.163,39.523,103.076z M40.16,102.124c-0.166-0.163,0.229-0.405,0.316-0.317
			C40.64,101.973,40.246,102.213,40.16,102.124z M97.229,79.93c-0.058,1.104-1.119,1.203-1.267,2.219
			c-0.717-0.272-1.043-1.772-1.901-0.948c-0.473,0.269-0.683,0.797-0.636,1.585c-0.42,0.792,1.252,0.99,0.315,1.267
			c-0.563,1.972-2.651,2.421-3.803,3.806c-1.793,0.744-2.629,2.447-4.44,3.17c-2.07,3.003-6.308,3.839-9.192,6.025
			c-0.724,0.562-1.767,0.85-2.537,1.27c-0.402,0.219-0.526,0.74-0.953,0.949c-0.433,0.215-1.129,0.117-1.586,0.317
			c-0.146,0.065-0.862,0.481-1.267,0.634c-1.403,0.532-3.778,1.234-5.073,1.586c-0.805,0.221-0.854,0.229-1.584,0.316
			c-0.309,0.036-0.519,0.291-0.636,0.316c-3.343,0.75-6.41,0.896-9.195,2.22h-6.657c-1.248,0.067-1.749-1.281-2.537,0
			c-0.997-0.813,0.795-1.513,0.316-2.854c-1.376-0.322-1.457,0.656-2.219,0.95c-0.067,0.247-0.006,0.628-0.316,0.636
			c-0.132,0.607-0.112,1.366-0.95,1.269c0.316-0.42,0.298-1.179,0.95-1.269c0.071-0.244,0.009-0.625,0.316-0.636
			c-0.118-1.387,0.908-1.628,0.955-2.853c-0.67-0.672-1.236,0.373-1.904,0.635c0.031,0.383-0.461,0.193,0,0
			c0.162-1.854-0.747-2.637-0.952-4.121c3.507,2.834,8.531,4.154,15.219,3.803c4.052-0.482,6.705-2.629,8.876-5.07
			c2.189-2.461,4.076-5.598,4.441-9.832c0.067-1.549-0.904-3.288-0.318-3.803c0.304-0.268,0.925-0.102,1.269-0.315
			c-0.664,2.366-0.258,5.519,1.584,6.34c2.188,0.282,2.817-0.987,3.175-2.537c-0.15-1.119-1.375-1.162-2.222-1.585
			c0.217-1.273-0.304-1.811-0.315-2.854c0.897-0.053,1.319-0.582,2.219-0.635c-0.129,2.771-0.029,5.314,2.854,5.072
			c0.452-0.074,0.533-0.521,0.95-0.633c0.187-1.03-0.214-1.477-0.315-2.221c-0.193-0.758,0.396-2.299-0.318-2.535
			c0.473-0.9,1.867-0.883,3.171-0.951c-0.341,2.246-2.109,7.773,1.903,7.291c1.104-0.163,0.463-2.071,0.633-3.169v-4.122h4.757
			c-0.943,1.363-2.224,5.34-0.315,6.656c2.772-0.079,2.247-4.787,1.9-6.974c3.189,0.23,5.398-0.521,8.562-0.319
			C98.74,78.625,97.785,79.494,97.229,79.93z"/>
	</g>
</g>
</svg>
