<?xml version="1.0" encoding="utf-8"?>
<!-- Generator: Adobe Illustrator 16.0.0, SVG Export Plug-In . SVG Version: 6.00 Build 0)  -->
<!DOCTYPE svg PUBLIC "-//W3C//DTD SVG 1.1//EN" "http://www.w3.org/Graphics/SVG/1.1/DTD/svg11.dtd">
<svg version="1.1" id="Layer_1" xmlns="http://www.w3.org/2000/svg"  x="0px" y="0px"
	 width="120px" height="120px" viewBox="0 0 120 120" enable-background="new 0 0 120 120" xml:space="preserve">
<g id="bicycle">
	<g>
		<path d="M116.174,63.242c-1.697-2.996-4.068-5.332-6.576-7.52c-2.416-1.03-4.787-2.107-8.148-2.19
			c-3.648,0.212-6.754,0.972-10.023,1.565c-0.654-2.061-1.381-4.047-2.508-5.641c-0.591-2.227-1.977-3.661-2.818-5.639V39.43
			c0.6-0.133,0.791-0.676,1.568-0.626c-0.055-0.888,1.93,0.262,1.877-0.629c1.364-0.199,3.544,0.41,4.389-0.311
			c3.414-0.281,6.1,0.167,5.326,4.071c-0.578,0.435-3.553-0.681-3.445,1.254c-0.649,1.778,0.809,3.934,3.445,3.445
			c2.234-0.373,3.59-1.631,4.697-3.132c1.078-4.646-0.979-8.541-3.756-10.336c-0.371-0.052-0.895,0.052-0.941-0.315
			c-4.154-0.292-6.843,0.886-10.342,1.253c-3.785-0.131-7.432-0.12-9.083,1.881c-0.185,3.211,0.438,5.615,0.625,8.459
			c-9.935,1.027-20.198,1.731-30.391,2.505c-0.166-3.07-1.715-4.761-1.882-7.832c1.766-0.537,3.752-0.846,5.014-1.882
			c2.316-0.563,3.46-1.96,3.135-3.76c-0.414-2.297-3.889-2.565-5.954-3.132c-2.216-0.918-5.447-0.814-8.144-1.254
			c-2.413-0.217-4.073,0.314-6.268,0.314c-0.058,0.464-0.757,0.285-1.254,0.313c-0.661,0.695-1.85,0.862-2.193,1.881
			c-1.617-0.259-1.379,1.332-2.193,1.877c-0.05,4.65,2.625,6.569,6.582,7.207c2.38,0.083,4.118-0.474,6.266-0.626
			c0.622,4.283,1.736,8.084,2.507,12.221c-1.201,2.031-2.606,3.865-4.701,5.011c-0.595-0.554-2.007-0.292-2.505-0.939
			c-0.873-0.276-1.905-0.391-2.508-0.941c-1.517,0.056-2.51-0.412-3.76-0.626h-5.95c-1.462,0.422-2.847,0.915-4.389,1.254
			c-1.859,1.169-3.592,2.465-5.638,3.447c-3.744,3.564-6.893,7.728-7.207,14.725c-0.178,5.395,0.613,9.83,1.881,13.787
			c0.395,0.127,0.637,0.402,0.626,0.938c1.103,1.51,2.666,2.559,3.759,4.072c2.313,1.03,4.01,2.676,6.579,3.449
			c2.45,0.995,5.133,1.757,8.146,2.191c7.941,0.314,12.838-2.41,16.92-5.953c-0.054-0.783,0.48-0.982,0.939-1.254
			c0.712-1.689,1.231-3.572,2.192-5.014c-0.061-1.312,1.537-0.967,1.252-2.507c0.586-0.669,0.428-2.081,1.255-2.508
			c2.971,0.376,5.997,0.688,9.086,0.94c1.572-0.726,2.675-1.922,3.76-3.131c0.885-1.421,2.166-2.432,2.816-4.076
			c2.24-2.461,3.666-5.731,5.643-8.457c1.671-3.031,3.564-5.836,5.641-8.458c0.767-1.531,1.838-2.756,2.82-4.075
			c0.34-0.811,1.131-1.164,1.249-2.194c0.991-0.058,0.894-2.146,1.886-1.25c-0.244,1.495,0.487,2.016,0.312,3.444
			c0.739,0.518,0.269,2.241,0.94,2.82c-4.246,4.633-8.928,8.828-9.713,16.918v3.445c0.396,2.422,0.854,4.783,1.562,6.893
			c0.807,2.018,2.066,3.578,3.134,5.328c3.597,3.299,8.067,5.717,14.103,6.58h6.578c0.403-0.436,1.362-0.312,2.192-0.313
			c1.229-0.862,3.363-0.815,4.388-1.88c1.758-0.438,2.455-1.932,4.074-2.508c0.592-1.287,1.62-2.137,2.505-3.135
			c0.005-0.935,0.816-1.064,0.938-1.879c0.453-0.486,0.418-1.463,0.941-1.881c0.846-3.016,1.646-6.078,1.563-10.025
			C118.718,70.1,117.553,66.562,116.174,63.242z M34.403,35.043c-0.41,0.38-0.493,0.125-0.939,0
			c0.056-0.253,0.315-0.311,0.315-0.624h0.624V35.043z M36.284,37.551c-0.146-0.667,0.447-0.594,0.938-0.624
			C37.086,37.312,36.82,37.57,36.284,37.551z M40.67,34.419c-1.108-0.169-0.768,1.109-1.881,0.939v-1.565
			c1.834,0.15,3.428,0.541,5.328,0.626C43.529,35.633,41.226,35.564,40.67,34.419z M40.354,65.438h0.941
			c1.247,3.347,3.919,5.271,4.701,9.084c-3.284,0.434-7.844-0.484-10.656-1.565C36.218,69.652,38.918,68.178,40.354,65.438z
			 M45.683,84.861c-0.432,1.344-1.621,1.93-1.565,3.759c-1.33,0.866-2.053,2.336-3.136,3.446c-1.497,0.174-2.312,1.031-3.447,1.564
			c-2.007-0.232-3.183,0.369-5.013,0.314c-5.008-0.422-8.65-2.213-11.905-4.387c-1.491-2.058-2.976-4.127-4.695-5.957
			c-0.382-1.918-0.821-3.771-1.257-5.637c0.407-2.828,0.585-5.893,0.941-8.771c0.683-0.045,0.669-0.789,0.627-1.564
			c1.081-0.59,1.683-1.66,2.191-2.82c1.784-0.512,3.704-1.377,5.328-2.19c0.92-0.464,2.105-1.083,3.131-1.568
			c0.154-0.073-0.029-0.296,0.313-0.313c0.08-0.004,0.238,0.031,0.313,0c0.748-0.318,1.745-0.905,3.446-0.625
			c2.351,0.78,4.274,1.989,6.892,2.508c-0.632,1.767-2.501,2.301-3.133,4.072c-0.999,1.399-2.549,2.252-2.819,4.387
			c-0.776-0.373-1.843-0.457-2.818-0.628c-2.526,0.502-2.734,3.321-3.759,5.325c1.105,2.343,1.725,5.166,5.324,5.013
			c1.78-0.095,1.763-1.997,3.137-2.509c4.006,0.9,8.187,1.63,12.527,2.197C46.489,82.325,45.502,83.012,45.683,84.861z
			 M31.585,77.342c-0.736,0.1-1.178,0.494-2.195,0.313c-0.88-1.229-0.897-3.89,1.253-3.761
			C32.001,74.303,31.908,76.041,31.585,77.342z M55.706,79.846c0.959-0.226,0.923,0.547,1.882,0.314
			C57.539,81.139,55.669,80.764,55.706,79.846z M57.588,77.655c-2.144-0.259-4.014-0.791-5.327-1.882
			c0.246-1.395-0.416-1.879-0.312-3.133c-1.101-1.824-1.586-4.26-3.448-5.324c0.101-1.98-1.282-2.477-1.565-4.074
			c-0.972-0.91-1.766-1.992-2.507-3.132c0.291-1.9,1.83-2.557,2.193-4.388c1.013-0.387,0.24,1.014,1.253,0.628
			c1.068,1.646,1.607,3.822,2.818,5.325c0.478,2.136,2.031,3.194,2.506,5.324c1.306,1.312,1.698,3.528,2.822,5.017
			c0.168,1.19,0.978,1.737,0.941,3.133C57.385,75.773,58.046,77.105,57.588,77.655z M57.9,80.787
			c-0.16-0.161,0.227-0.396,0.312-0.311C58.38,80.639,57.985,80.875,57.9,80.787z M78.576,52.279
			c-0.986,0.993-1.77,2.199-3.131,2.818c-0.695,1.812-2.041,2.971-2.508,5.013c-0.957,0.294-0.77,1.735-1.563,2.192
			c-0.278,0.974-1.048,1.462-1.254,2.507c-1.281,1.229-1.882,3.133-3.132,4.387c-0.916,1.488-1.846,2.964-3.135,4.074
			c-1.668,0.205-1.485-1.438-2.508-1.881c-0.266-1.195-0.932-1.994-1.253-3.133c-0.907-2.015-1.75-4.101-2.506-6.268
			c-0.778-2.146-1.882-3.968-2.819-5.952c-0.399-1.063-1.112-1.812-1.569-2.82c-0.232-0.972-1.534-1.994-0.938-2.82h3.445
			c6.774-1.57,16.751-1.289,23.499-1.877c0.506,0.086,0.539-0.298,0.941-0.312c0.25,0.058,0.312,0.312,0.623,0.312
			C80.434,50.165,79.191,50.902,78.576,52.279z M113.355,77.342c-0.604,2.529-1.771,4.494-2.506,6.893
			c-3.457,3.021-7.252,5.703-13.476,5.953c-4.321-0.582-7.067-2.746-10.967-3.76c-1.74-1.912-3.263-4.043-4.069-6.891
			c-0.23-2.323,0.508-3.673,0.312-5.953c0.606-1.587,1.142-3.247,2.195-4.389c0.221-1.973,0.955-3.428,2.818-3.76
			c1.775,0.2,1.436,2.531,1.877,4.069c0.88,0.17,0.579,1.515,0.939,2.194c0.303,0.642,0.642,1.238,0.939,1.883v3.758
			c0.452,1.116,1.271,1.862,2.191,2.504c2.142,0.16,3.834-0.136,5.014-0.938c1.079-0.905,2.811-1.16,3.135-2.818
			c0.182-3.424-2.062-4.412-3.447-6.27c-0.455-0.588-2.049-0.036-2.506-0.625c-0.871-3.197-2.199-5.945-2.508-9.711
			c3.254-0.633,7.067-1.375,10.34-0.313c1.44,0.44,2.287,1.474,3.76,1.879c0.646,1.13,1.66,1.89,2.509,2.82
			c1.062,2.069,2.062,4.198,3.136,6.266c-0.104,0.729,0.047,1.203,0.312,1.565V77.342z M98.005,73.584
			c0.627,0.736,0.823,2.096,0.312,3.132c-0.898-0.036-2.051,0.175-2.506-0.313C95.593,74.514,95.938,73.184,98.005,73.584z"/>
	</g>
</g>
</svg>
