<?xml version="1.0" encoding="utf-8"?>
<!-- Generator: Adobe Illustrator 16.0.0, SVG Export Plug-In . SVG Version: 6.00 Build 0)  -->
<!DOCTYPE svg PUBLIC "-//W3C//DTD SVG 1.1//EN" "http://www.w3.org/Graphics/SVG/1.1/DTD/svg11.dtd">
<svg version="1.1" id="Layer_1" xmlns="http://www.w3.org/2000/svg"  x="0px" y="0px"
	 width="120px" height="120px" viewBox="4 4 120 120" style="enable-background:new 4 4 120 120;" xml:space="preserve">
<g id="block">
	<g>
		<path d="M109.906,58.947c-0.024-3.02,0.14-6.228-0.288-8.846c-2.541-9.154-7.537-15.856-11.979-23.107
			c-3.08-1.961-5.945-4.136-9.13-5.992c-1.307-0.117-2.227-0.624-3.137-1.142c-2.959-0.498-7.104-1.133-9.416-1.71
			c-2.099-0.526-5.396,0.146-7.134-0.287c-4.1-1.024-10.978-0.615-15.405-0.855c-0.174,0.016-0.338,0.041-0.283,0.284
			c-0.227,0.064-0.565,0.01-0.572,0.285c-2.417,0.437-3.381,2.327-5.708,2.853c-1.85,1.002-3.716,1.988-5.702,2.854
			c-3.436,2.938-7.416,5.331-10.844,8.274c-2.213,2.542-4.137,5.376-5.991,8.272c-3.352,9.679-7.046,19.014-7.132,31.953
			c0.717,3.279,1.682,6.309,2.283,9.701c3.3,6.11,7.043,11.787,10.555,17.688c3.049,2.278,6.045,4.609,10.271,5.707
			c3.526,1.891,7.228,3.613,11.695,4.564c8.529,1.531,21.502,1.82,29.957,0c0.464-0.584,1.375-0.721,1.996-1.142
			c0.806-0.342,1.072-1.211,2-1.426c1.302-0.981,2.937-1.629,4.279-2.569c2.963-1.601,5.309-3.818,7.701-5.99
			c5.453-7.859,10.764-15.861,12.84-27.104C110.971,66.632,110.54,62.686,109.906,58.947z M76.525,25.28
			c-0.649,0.445-2.707-0.134-3.709-0.285C73.848,24.17,75.479,25.174,76.525,25.28z M36.585,86.904
			c-0.836-0.211-1.227-0.863-1.713-1.428c-0.178-0.772-1.19-0.709-1.141-1.711c-1.107-0.793-1.684-2.119-2.284-3.424
			c-1.368-2.433-1.922-5.688-2.854-8.56c0.225-2.691-0.423-4.519-0.284-7.132c0.214-2.833,1.114-4.974,0.857-8.274
			c0.587-2.17,1.083-4.433,1.427-6.847c1.452-2.827,3.254-5.304,5.42-7.416c0.534-1.657,1.369-3.008,2-4.565
			c1.186-0.906,2.311-1.871,3.423-2.854c1.026-0.971,2.505-1.487,3.424-2.566c2.16-0.692,3.719-1.986,5.991-2.568
			c1.584-1.269,3.928-1.778,5.707-2.853c3.243-0.465,6.433-0.984,9.697-1.428c2.976-0.03,5.948-0.05,8.558,0.286
			c2.396,0.842,4.945,1.521,6.562,3.139c1.353,0.266,1.84,1.393,2.854,1.994c0.095,1.432,1.623,1.421,1.428,3.141
			c0.066,1.968-1.208,2.597-1.999,3.709c-0.873,0.935-1.437,2.177-2.566,2.853c-1.679,1.936-3.272,3.952-4.85,5.993
			c-4.638,2.78-8.197,6.636-12.269,9.982c-3.479,3.842-7.369,7.276-10.271,11.701c-1.783,1.256-3.805,2.28-4.85,4.276
			c-1.898,1.049-3.125,2.771-4.566,4.28C41.552,79.893,38.958,83.285,36.585,86.904z M100.775,68.078
			c-0.865,5.503-2.746,9.994-4.849,14.264c-1.237,1.236-2.185,2.764-3.14,4.279c-0.564,0.67-0.988,1.48-1.428,2.281
			c-0.393,0.746-1.301,0.98-1.424,1.998c-2.515,1.953-4.299,4.641-7.42,5.988c-0.466,0.674-1.47,0.813-1.996,1.428
			c-0.809-0.234-0.742,0.4-1.428,0.287c0.206,0.772-1.346-0.205-1.143,0.567c-0.985,0.154-1.52,0.765-2.566,0.856
			c-0.561,0.484-1.763,0.326-2.281,0.854c-3.328,0.379-7.129,0.291-10.843,0.286c-3.196-0.797-6.478-1.513-9.414-2.566
			c-0.747-1.252-3.398-0.597-4.28-1.713c-0.897-0.149-1.591-0.502-2.28-0.856c-0.9-0.052-0.367-1.534-1.427-1.427
			c-0.483-0.627,0.421-1.688,0.856-2.28c0.131-1.009,0.719-1.562,1.138-2.283c0.877-1.403,1.875-2.692,2.855-3.994
			c2.103-2.461,4.146-4.981,5.991-7.703c3.15-2.937,6.188-5.983,9.413-8.846c1.207-1.834,3.359-2.726,4.564-4.563
			c1.277-0.244,1.49-1.554,2.852-1.709c0.627-0.898,1.476-1.575,2.57-1.999c2.674-2.937,5.465-5.752,8.273-8.558
			c2.753-2.756,5.477-5.563,7.701-8.844c0.865-0.088,1.021-0.885,2.281-0.572c0.604-0.348,0.83-1.073,1.715-1.14
			c0.084-0.255,0.771-1.25,0.855-0.572c1.934,2.534,2.545,6.39,3.991,9.415C100.034,56.835,101.204,61.654,100.775,68.078z"/>
	</g>
</g>
</svg>
