<?xml version="1.0" encoding="utf-8"?>
<!-- Generator: Adobe Illustrator 16.0.0, SVG Export Plug-In . SVG Version: 6.00 Build 0)  -->
<!DOCTYPE svg PUBLIC "-//W3C//DTD SVG 1.1//EN" "http://www.w3.org/Graphics/SVG/1.1/DTD/svg11.dtd">
<svg version="1.1" id="Layer_1" xmlns="http://www.w3.org/2000/svg"  x="0px" y="0px"
	 width="120px" height="120px" viewBox="4 4 120 120" style="enable-background:new 4 4 120 120;" xml:space="preserve">
<g id="bomb">
	<g>
		<path d="M117.568,27.534c1.478-1.521,3.693-2.294,3.406-5.574c-0.543-1.727-2.064-2.479-4.643-2.17
			c-0.505-0.633-2.289,0.013-2.788-0.62c-0.942-0.193-2.671,0.398-3.101-0.31c-0.242-3.059,0.35-6.954-2.478-7.433
			c-2.138,0.339-3.745,1.208-5.264,2.168c-1.334,1.251-1.792,3.373-3.097,4.646c-2.209-0.682-2.397-3.389-5.27-3.403
			c-0.066,0.24-0.258,0.358-0.615,0.306c-1.187,0.368-1.412,1.689-1.242,3.411c0.91,0.261-0.184,0.995,0,1.548
			c-0.433,0.397-0.189,1.462-0.617,1.859c-1.842-0.625-4.105-0.317-4.957,0.928c-0.375,3.471,1.511,4.686,2.787,6.503
			c0.976-0.149,0.699,0.952,1.856,0.619c0.198,1.124,1.448-0.717,1.548,0.312c-2.511,3.167-5.131,6.223-8.98,8.051
			c-0.946-0.226-0.91,0.538-1.855,0.314c-1.199,0.166-1.513-0.556-2.785-0.314c-3.91-2.386-5.229-7.368-7.127-11.767
			c-0.807-0.134-0.789-1.055-1.238-1.549c-0.75-0.824-2.256-1.659-2.786-2.168c-1.312-1.254-3.239-1.581-4.956-2.169
			c-4.336-0.409-6.863,0.984-10.225,1.551c-0.556,0.783-1.518,1.163-2.474,1.549c-2.102,2.236-3.651,5.021-5.887,7.12
			c-0.098,1.351-0.812,2.078-0.931,3.409c-0.888,0.557-0.274,2.613-0.929,3.409c-3.16-0.066-6.486-0.293-7.743,1.545
			c-0.548,1.473-0.354,4.068,0,5.579c0.382,1.684,0.478,3.651,0.93,5.264c-0.872,1.189-3.199,0.929-5.265,0.927
			c-0.708,0.429-1.64,0.635-2.479,0.93c-0.786,0.35-1.512,0.761-2.169,1.241c-1.499,0.872-3.018,1.733-4.024,3.096
			c-0.706,0.432-1.2,1.073-1.859,1.55c-0.959,0.176-0.812,1.457-1.86,1.547c-0.604,1.77-2.479,2.27-2.786,4.34
			c-1.233,1.036-1.571,2.968-2.167,4.642c-0.528,0.611-0.356,1.916-0.932,2.478c-0.021,1.219-0.148,2.33-0.618,3.101
			c-0.336,4.312-1.083,8.206-0.931,13.009c0.446,2.448,0.786,4.996,1.549,7.123c0.474,0.975,1.033,1.859,1.243,3.096
			c0.622,0.821,1.15,1.738,1.546,2.787c1.328,1.566,2.585,3.201,3.718,4.956c1.778,1.114,2.608,3.173,4.643,4.028
			c2.795,2.988,6.696,4.869,10.844,6.505c4.205,1.679,9.415,2.358,14.867,2.787c2.122-0.462,4.807-0.351,7.122-0.62
			c1.679-1.006,4.146-1.225,5.578-2.479c1.969-0.814,3.687-1.889,4.954-3.404c1.846-0.943,2.979-2.596,4.335-4.027
			c1.183-1.609,2.624-2.951,3.408-4.956c2.472-3.101,3.829-7.321,5.571-11.147c1.444-4.348,2.625-8.977,2.789-13.938
			c0.389-11.542-4.35-19.472-9.91-24.779c-1.45-0.308-1.957-1.555-3.405-1.861c-0.927-0.93-2.634-1.084-3.718-1.856
			c-1.488-0.369-2.768-0.948-4.337-1.241c-0.74-0.187-1.411-0.443-2.477-0.307c-0.043-0.886-2.124,0.267-2.168-0.623
			c-0.188-3.236,1.26-7.259-0.929-8.981c-1.677-0.595-4.349-0.193-6.505-0.307c-0.394-0.747-2.441,0.168-2.787-0.62
			c-0.184-1.634,0.23-2.663,0.308-4.029c1.801-3.052,3.685-6.021,7.127-7.433c3.158-0.037,4.857-1.541,8.36-1.236
			c2.121,0.77,4.191,1.591,5.266,3.405c2.348,4.674,3.512,10.532,7.123,13.938c1.051,0.397,1.967,0.924,2.787,1.55
			c0.463,0.052,1.146-0.112,1.241,0.31h5.884c0.059-0.461,0.748-0.283,1.239-0.31c1.583-0.997,3.276-1.887,4.646-3.097
			c0.396-0.842,1.584-0.892,1.857-1.862c0.715,0.099,0.346-0.894,0.932-0.924c0.092-0.278,0.838-1.359,0.93-0.625
			c-0.211,1.552,0.283,2.399,0.307,3.719c-0.197,1.646,0.781,2.114,1.55,2.788c2.665,0.289,2.899-1.851,4.955-2.167
			c0.177,1.885,0.804,3.327,1.241,4.956c0.604,1.558,0.89,3.443,3.094,3.405c1.771-0.193,2.036-1.89,2.791-3.096
			c0.163-0.87,0.455-1.614,0.617-2.479c0.189-0.837-0.393-2.458,0.312-2.786c1.459-0.019,1.698,1.189,2.787,1.547
			c0.904,0.535,2.157,0.729,3.713,0.62c0.205-0.417,0.662-0.579,1.242-0.62c0.694-1.397,1.344-3.321,0.926-4.954
			c-0.736-2.468-2.567-3.834-3.404-6.197C116.271,30.778,117.021,29.257,117.568,27.534z M51.286,43.02
			c0.713,0.527,1.33,1.148,1.857,1.861c0.206,2.163-0.275,3.642-0.31,5.572c1.012,1.467,3.374,1.581,4.957,2.479
			c2.153,0.43,4.05,1.111,5.577,2.169c1.722,0.752,2.994,1.956,4.645,2.786c1.551,1.033,2.79,2.376,4.336,3.409
			c0.867,1.815,2.219,3.151,2.787,5.265c1.143,1.543,1.479,3.894,2.479,5.572c0.214,2.68,0.431,5.354,0.31,8.365
			c-0.702,3.633-1.569,7.102-2.787,10.221c-0.796,1.37-1.323,3.01-2.167,4.34c-0.601,1.666-1.9,2.64-2.479,4.33
			c-1.949,1.67-3.499,3.729-5.574,5.266c-1.951,1.666-4.604,2.625-6.505,4.339c-0.649-0.646,0.807-3.214-0.93-3.408
			c-1.209,0.033-1.226,1.254-1.855,1.858c-0.409,0.936-1.003,1.684-0.931,3.099c-0.878,0.463-2.038,0.646-3.094,0.928
			c-0.102-2.6,1.505-4.717,0.616-7.12c-2.557-0.496-2.631,1.498-3.716,2.477c-0.211,0.822-0.489,1.578-0.932,2.168
			c-0.121,1.016-0.065,2.203-1.548,1.859c-1.712-0.346,0.689-3.099-0.619-4.027c-0.444,0.072-0.523,0.51-0.929,0.617
			c0.029,0.377-0.452,0.19,0,0c0.016-1.355,0.217-2.897-0.931-3.094c-2.742-0.168-2.636,2.524-3.407,4.336
			c-1.3,0.159-1.73-0.541-2.786-0.619c0.062-3.162,3.205-7.485,0-9.295c-1.187-0.389-2.324,1.976-2.479,0.619
			c0.656-0.785,0.521-2.371,0.931-3.404c0.324-1.366,0.6-2.488,0.309-3.719c-0.397-0.531-0.64-1.218-1.548-1.24
			c-2.057,0.217-2.846,1.701-3.717,3.1c-0.676-0.304,0.04-1.788,0.309-2.168c0.205-0.826,0.13-1.936,0.62-2.479
			c0.112-1.515,1.55-4.24-0.307-4.957c-1.593,0.064-1.953,1.355-2.791,2.17c-0.452,1.302-1.608,1.901-1.857,3.408
			c-1.183,0.573-0.988,2.521-2.169,3.096c0.081,0.904-0.698,0.951-0.619,1.861c-0.704,0.223-0.094,1.762-1.238,1.547
			c-0.858-1.414,0.442-2.963,0.31-4.646c1.299-1.693,1.488-4.5,2.787-6.193c0.428-2.267,2.159-4.498,1.549-6.815
			c-1.724-0.275-2.211,0.676-3.097,1.241c-0.394,1.05-1.719,1.17-1.86,2.476c-0.941,0.503-1.319,1.569-1.855,2.479
			c-0.901,0.646-0.78,2.317-2.172,2.479c0.869-3.156,2.052-6.005,3.72-8.364c1.206-2.815,3.358-4.694,4.954-7.125
			c-0.182-0.645-0.65-0.998-0.93-1.546c-2.111-0.359-2.676,0.837-3.717,1.546c-0.672,1.185-2.023,1.694-2.479,3.101
			c-0.711-0.246,0.162-1.457,0.623-1.553c-0.081-1.107,0.928-1.132,0.928-2.164c1.937-1.471,3.327-3.488,5.266-4.955
			c1.45-1.957,3.423-3.396,4.335-5.887c-0.349-1.254-2.106-0.277-2.787,0c-0.996,0.448-1.734,1.153-2.788,1.55
			c-1.79,1.101-3.26,2.52-4.953,3.713c0.029,0.377-0.454,0.189,0,0c0.069-1.269,1.05-1.631,1.239-2.788
			c2.064-1.961,4.341-3.708,6.502-5.573c1.522-0.546,2.543-1.591,4.334-1.861c1.153-0.912,3.11-1.02,4.34-1.856h2.168
			c0.188-0.43,1.191-0.049,1.24-0.62c0.077-0.644,1.359-0.085,1.546-0.621c1.2-0.659,1.479-2.236,2.479-3.097
			c0.809-1.048,1.773-1.942,2.168-3.405c-0.162-0.769-0.756-1.105-1.239-1.552c-1.749,0.526-4.046,0.5-4.953,1.862
			c-0.719-1.1-0.428-2.006-0.313-3.409h11.148V43.02z M112.307,30.938c0.164,1.1-1.098,0.765-0.933,1.86
			c-0.368,3.261,1.599,4.188,2.171,6.503c-1.615-0.084-3.208-0.971-4.648-0.31c-0.674,0.047-0.666,0.781-0.619,1.55
			c-1.312,0.96-2.022,2.519-2.479,4.338c-0.942-1.637-2.31-2.855-2.786-4.958c-0.355,0.05-0.552-0.067-0.617-0.307
			c-2.076-0.322-2.578,0.93-4.338,0.927c-0.234-1.316-0.723-2.376-0.619-4.027c-0.254-1.086-0.933-1.751-1.235-2.788
			c0.685-0.554,1.255-1.22,2.786-0.929c0.273,0.962,1.139,1.34,2.166,1.549c1.361-0.184,2.005-1.094,2.479-2.165
			c-0.288-2.297-1.848-3.317-3.409-4.339c-2.707-0.127-5.117,0.044-6.193,1.548c-0.907-0.265,0.404-0.778,0-1.548
			c-0.459-0.264-0.668-0.779-0.619-1.549c2.949,0.141,2.814-4.228,1.857-6.193c-0.056-1.359,1.047,0.289,1.239,0.617
			c0.522,0.509,1.394,0.675,1.856,1.242h2.169c3.187-0.741,2.96-4.891,5.575-6.199c0.354,0.062,0.175,0.312,0,0.312v5.268
			c0.22,1.123,0.998,1.687,1.549,2.479c2.119-0.061,4.146-0.02,5.888,0.308C112.943,25.995,110.698,28.856,112.307,30.938z"/>
	</g>
</g>
</svg>
