<?xml version="1.0" encoding="utf-8"?>
<!-- Generator: Adobe Illustrator 16.0.0, SVG Export Plug-In . SVG Version: 6.00 Build 0)  -->
<!DOCTYPE svg PUBLIC "-//W3C//DTD SVG 1.1//EN" "http://www.w3.org/Graphics/SVG/1.1/DTD/svg11.dtd">
<svg version="1.1" id="Layer_1" xmlns="http://www.w3.org/2000/svg"  x="0px" y="0px"
	 width="120px" height="120px" viewBox="0 0 120 120" enable-background="new 0 0 120 120" xml:space="preserve">
<g id="bookmark2">
	<g>
		<path d="M86.169,20.258c0.226-2.509,0.373-4.292-0.832-5.83c-1.86-0.378-2.161,0.801-3.331,1.11
			c-0.322-0.975-1.742-0.852-3.056-0.832H67.292c-3.472-0.974-8.027-0.858-12.495-0.834c-0.357,0.384-1.204,0.274-1.944,0.276
			c-1.417,0.62-2.867,1.205-3.889,2.222c-0.832,0.183-0.966,1.067-2.221,0.833c-0.391,0.627-1.807,0.229-1.664,1.388
			c-1.4,0.636-0.954,3.121-1.388,4.722c-0.137,1.993-0.468,3.788-0.555,5.83c-0.302,3.864-0.697,7.632-0.556,11.937
			c-0.508,7.82-0.35,16.307-1.11,23.875c-0.129,8.197-0.937,15.722-1.109,23.878v12.492c0.469,1.657,0.022,4.235,0.558,5.831
			c-0.152,2.277,0.78,3.474,2.497,3.887c0.873,0.602,2.265-0.199,3.052-0.557c1.282-0.195,1.839-1.125,2.497-1.942
			c2.509-1.842,4.491-4.212,6.665-6.386c1.104-1.104,2.312-2.145,3.335-3.332c0.511-0.602,0.868-1.324,1.383-1.942
			c0.479-0.569,1.091-1.181,1.667-1.667c2.661,2.245,4.838,4.975,7.498,7.221c2.082,2.819,4.303,5.502,6.661,8.049
			c0.849,0.727,2.148,0.998,2.776,1.943c0.979,0.689,1.708,1.623,3.607,1.389c0.787-0.603,2.129-0.646,2.223-1.94
			c0.904-0.774,0.363-2.097,0.275-3.332c0.561-0.83,1.449-1.328,1.391-2.774c0.215-6.985,0.266-14.179,0.556-21.377
			c0.14-3.441,0.521-6.791,0.558-10.272C87.748,55.629,87.727,37.319,86.169,20.258z M51.743,21.646
			C51.712,21.311,52.147,21.475,51.743,21.646c-0.659,0.73-1.103,1.672-2.221,1.941C49.284,21.965,50.504,21.795,51.743,21.646z
			 M47.3,81.336c0.497,0.035,0.589-0.34,1.112-0.277c0,0.926-0.902,0.947-0.835,1.943C46.967,82.967,47.461,81.823,47.3,81.336z
			 M80.613,39.414c0.224,0.964-0.412,1.066-0.275,1.943C80.292,56.485,80.6,71.97,79.785,86.333
			c-0.688,5.683-0.121,12.271,0.275,17.771c-0.982-0.224-1.018-1.391-1.944-1.666c-0.183-1.021-1.021-1.383-1.665-1.944
			c-0.184-1.021-1.021-1.384-1.663-1.942c-0.128-1.171-1.315-1.275-1.668-2.221c-2.69-2.215-5.197-4.61-7.497-7.219
			c-2.236,0.109-2.499-1.756-4.721-1.668c-3.653,0.882-4.752,4.314-7.215,6.388c-1.145,1.172-1.973,2.655-3.332,3.608
			c-0.44,0.672-0.993,1.229-1.667,1.664c-0.156,0.4-0.433,0.681-0.832,0.834c-0.082,0.246-0.752,1.218-0.834,0.556V90.5
			c1.088,0.161,1.61-0.238,2.223-0.557c1.792-1.26,2.597-3.51,3.885-5.275c0.909-2.232,3.055-3.236,3.055-6.384
			c-0.081-0.566-0.753-0.544-0.834-1.11c-2.125-0.182-3.571,0.312-4.44,1.389c-0.639-0.221,0.142-1.307,0.555-1.389
			c0.124-0.709,0.388-1.273,0.835-1.666c0.43-1.234,1.402-1.927,1.665-3.332c0.815-0.847,1.37-1.958,1.664-3.33
			c0.583-0.253,0.1-1.566,0.833-1.666c-0.047-0.857,0.656-1.568,0-2.223c-2.111-1.023-3.192,1.2-4.719,1.667
			c-0.154,0.397-0.433,0.677-0.833,0.833c-0.019,0.169-0.042,0.328-0.279,0.275c-0.466,1.385-1.726,1.975-2.219,3.332
			c-0.615-0.033-0.121-1.178-0.279-1.668c1.315-0.07,1.565-1.213,2.498-1.664c0.018-0.17,0.045-0.328,0.279-0.275
			c0.062-0.216,0.007-0.547,0.275-0.557c0.698-1.709,1.896-2.918,2.779-4.441c0.882-1.523,2.079-2.732,2.776-4.441
			c0.97-1.435,2.023-2.786,3.053-4.164c0.854-1.317,2.771-2.906,2.222-4.722c-0.064-0.396-0.457-0.466-0.554-0.832
			c-3.738,0.243-5.117,2.845-7.221,4.72c-1.843,2.138-3.848,4.112-5.277,6.663c-0.836-0.947,0.635-1.946,1.114-2.498
			c0.262-1.218,1.037-1.924,1.665-2.776c1.05-1.912,2.37-3.554,3.607-5.276c1.01-1.859,2.489-3.248,3.332-5.274
			c0.849-0.63,1.208-1.752,1.944-2.498c0.538-0.942,1.378-1.586,1.388-3.055c-1.874-0.875-3.245,0.959-4.166,1.943
			c-1.214,1.008-2.363,2.077-3.607,3.055c-0.834,1.111-1.6,2.287-2.776,3.055c0.051,0.975-0.938,0.912-1.109,1.665
			c-0.066,0.396-0.458,0.468-0.557,0.832c-0.397-0.146-0.677,1.083-0.835,0.277c0.208-1.735,0.38-3.509,0.281-5.552
			c0.373-1.292,1.741-1.592,2.498-2.499c0.749-1.38,1.734-2.522,2.777-3.608c0.798-1.421,1.7-2.74,2.776-3.888
			c0.593-1.532,1.633-2.622,2.497-3.887c0.673-1.548,2.334-2.108,2.773-3.887c-0.381-1.279-1.438-1.888-3.329-1.665
			c-2.519,0.813-3.828,2.836-5.274,4.721c-0.908,0.759-1.45,1.88-2.222,2.775c-0.323,0.508-0.727,0.94-1.112,1.389
			c-0.063,0.395-0.454,0.469-0.553,0.831c-0.068,0.304-0.457,0.667-0.556,0.279v-1.667c-0.204-0.452,0.551-1.209,0.556-0.555
			c0.744,0.192,0.534-0.574,0.832-0.833c0.566-0.082,0.544-0.751,1.11-0.833c0.197-1.687,0.789-2.261,1.387-3.053
			c0.261-0.344,0.597-0.761,0.834-1.111c0.493-0.729,1.393-1.367,1.109-2.775c-0.114-1.554-1.188-2.145-3.051-1.945
			c0.83-1.017,2.866-0.833,4.719-0.832h5.831c5.455,0.766,12.655,1.2,18.6,0.555C81.215,27.24,80.445,32.859,80.613,39.414z"/>
	</g>
</g>
</svg>
