<?xml version="1.0" encoding="utf-8"?>
<!-- Generator: Adobe Illustrator 16.0.0, SVG Export Plug-In . SVG Version: 6.00 Build 0)  -->
<!DOCTYPE svg PUBLIC "-//W3C//DTD SVG 1.1//EN" "http://www.w3.org/Graphics/SVG/1.1/DTD/svg11.dtd">
<svg version="1.1" id="Layer_1" xmlns="http://www.w3.org/2000/svg"  x="0px" y="0px"
	 width="120px" height="120px" viewBox="0 0 120 120" enable-background="new 0 0 120 120" xml:space="preserve">
<g id="bookmark1">
	<g>
		<path d="M94.818,100.284v-5.583c-0.709-4.521-1.338-9.119-1.861-13.828c0.273-10.195-0.739-19.112-2.393-27.386
			c-0.056-3.579-0.434-6.837-0.268-10.634c-0.773-5.697-1.58-11.361-1.331-18.082c-0.934-2.877-0.262-7.359-1.595-9.839
			c-1.213-0.735-2.737-1.161-4.787-1.063c-0.338,0.015-0.366,0.341-0.797,0.266c-6.426,0.312-12.837,0.634-17.816,2.393
			c-2.191-0.152-3.826,0.251-5.316,0.799c-0.625,0.616-1.609,0.87-1.595,2.128c-0.513,0.816-1.469,1.189-1.593,2.394
			c-0.196,3.296,0.322,5.878,0.529,8.773c-4.875-0.176-9.73-0.372-14.891-0.266c-2.555,0.371-4.45,1.4-6.116,2.658
			c-0.304,1.022-1.155,1.502-1.594,2.394c0.024,3.218,0.052,6.434-0.265,9.306c0.316,9.166,1.109,17.856,1.858,26.59
			c0.447,9.038,1.188,17.78,2.659,25.794c-0.059,3.514,0.184,6.729,0.801,9.571c0.365,1.315,0.251,3.11,1.061,3.985
			c0.55,1.226,0.337,3.21,2.13,3.188c2.116,0.171,2.364-1.528,3.455-2.393c0.687-1.351,1.76-2.315,2.394-3.722
			c1.874-2.203,2.974-5.181,5.052-7.18c2.208,2.399,4.831,4.385,6.911,6.912c2.425,2.188,4.104,5.117,7.445,6.38
			c1.336,0.009,2.145-0.518,2.658-1.329c1.242,0.688,2.215-0.179,2.924-0.795c1.144-6.594-0.306-13.429-1.328-19.41
			c0.688-0.645,0.744-1.916,1.6-2.396c0.686-0.642,0.743-1.912,1.593-2.392c0.946,2.42,3.255,3.479,4.784,5.315
			c2.126,1.244,3.396,3.342,5.32,4.787c0.246,1.077,1.232,1.423,1.595,2.394c0.685,0.646,1.121,1.536,1.862,2.127
			c1.203,1.455,2.265,3.053,5.314,2.657c0.059-0.207,0.225-0.309,0.531-0.265C94.775,103.788,94.977,102.217,94.818,100.284z
			 M58.656,37.535c-0.117-0.236-0.231-0.476-0.53-0.533c0.804-0.611,2.742-0.094,3.987-0.264c0.35,6.119,1.09,11.847,1.066,18.345
			c-0.412,1.188-1.394,1.8-1.6,3.189c-0.385,0.415-0.354,1.243-0.799,1.598c-0.027,0.675-0.047,1.366-0.795,1.329
			c0.049-2.71-1.169-4.151-2.127-5.851c0.411-2.337,1.279-4.214,1.859-6.382c0.588-1.592,2.38-4.695,0.268-5.849
			c-2.099,0.206-2.848,1.762-3.458,3.457c-0.669,0.481-0.658,1.646-1.33,2.124c0.223,0.754-0.374,0.692-0.264,1.333
			c-0.638-0.105,0.147,1.21-0.8,0.796c-0.506-0.984,0.552-2.373,0.8-3.456c0.174-1.332,1.012-2.003,1.062-3.456
			C57.062,41.967,57.98,39.869,58.656,37.535z M46.426,53.487c0.431-0.546,0.207-1.742,0.798-2.126
			c0.232-1.72,0.804-3.096,1.33-4.52c0.972-2.928,1.729-6.073,3.188-8.51c-0.082-0.615,0.042-1.02,0.266-1.33v-0.798
			c1.457,0.405,3.483,0.243,5.054,0.534c-2.844,2.116-4.272,5.653-5.583,9.303c-1.087,1.396-1.523,3.441-2.393,5.053
			c-0.241,1.003-0.572,1.912-1.063,2.659c-0.148,0.476-0.138,1.104-0.532,1.33c0.195,0.434-0.527,1.156-0.531,0.531
			C45.699,55.758,46.232,54.11,46.426,53.487z M52.274,57.477c-0.305,0.67-0.124,1.824-1.06,1.862
			c-0.615-0.69,0.005-1.759,0.264-2.394c0.328-0.646,0.224-1.727,1.063-1.862C52.924,55.892,52.588,56.673,52.274,57.477z
			 M45.097,58.008c0.854-0.232,0.364,0.876,1.063,0.799c-0.534,1.502-1.26,2.816-1.597,4.52
			C42.767,62.223,44.911,59.623,45.097,58.008z M40.045,55.614c0.072,0.958-0.493,1.281-0.533,2.128
			C38.654,57.004,39.147,55.937,40.045,55.614C39.792,54.51,40.843,55.562,40.045,55.614z M40.843,81.408
			c-0.588-0.033-0.115-1.129-0.266-1.596C41.524,80.036,40.607,80.469,40.843,81.408z M40.577,73.164
			c-0.608-0.453-0.1-2.03-0.267-2.925c0.498-1.363,1.796-1.931,1.859-3.722c0.352,0.092,0.42,0.467,0.801,0.529
			C42.16,69.074,41.5,71.254,40.577,73.164z M38.715,45.777c-0.6-0.198-0.104-1.492-0.264-2.128v-6.911
			c1.117-0.655,2.674-0.871,4.52-0.8C41.536,39.204,40.093,42.457,38.715,45.777z M46.689,77.684
			c0.038,0.922-1.346,0.428-1.327,1.33c-0.24,1.215,0.442,1.508,0.533,2.396c-0.522,0.626-0.306,2-0.799,2.658
			c-0.219,0.846-0.169,1.955-0.533,2.656c-0.069,0.957,0.491,1.281,0.533,2.127c-0.715,0.793-1.029,1.984-1.598,2.926
			c-0.597-0.703,0.222-2.252,0.27-3.188c-0.037-0.655-0.042-1.282,0.266-1.597c0.152-0.469-0.324-1.562,0.264-1.598
			c0.04-2.441,0.422-4.541,0.799-6.646c-0.057-1.451,0.182-3.198-0.266-4.257c0.671-0.922,1.03-2.159,1.329-3.455
			c0.731,0.508,1.351,1.13,1.862,1.861C47.617,74.531,47.223,76.176,46.689,77.684z M49.615,61.997
			c0.529,0.003,0.34,0.726,1.065,0.532c-0.188,2.027-0.99,3.438-1.33,5.318c-0.553-0.158-0.859-0.562-1.328-0.8
			C48.275,65.083,49.195,63.792,49.615,61.997z M49.351,85.93c0.05-0.305,0.265-0.147,0.265,0
			C49.567,86.227,49.351,86.074,49.351,85.93z M51.479,93.107c-0.252,0.545-0.859,0.732-1.331,1.062
			c-0.637-0.655,0.4-1.892,0.533-2.657c0.429-0.074,0.458,0.252,0.798,0.266V93.107z M52.274,83.268
			c-0.643-0.418-1.177-0.951-1.594-1.596c0.414-1.715,1.062-3.189,1.327-5.051c0.973,0.182,1.299,1.008,2.128,1.328
			C53.506,79.713,52.764,81.366,52.274,83.268z M53.604,71.303c0.235-2.156,1.07-3.716,1.331-5.851
			c1.224-0.015,2.6,0.121,3.455-0.265c-0.172-1.604-1.58-1.965-2.393-2.926c-0.129-0.84,0.479-0.939,0.265-1.863
			c1.442,0.424,2.521,1.205,3.457,2.13c-0.956,3.828-2.626,6.943-3.722,10.635C54.978,72.77,54.186,72.139,53.604,71.303z
			 M54.67,94.436c-0.615-0.717-0.097-2.562-0.268-3.722c0.395,0.136,0.671,0.392,1.066,0.53
			C55.622,92.729,54.673,93.107,54.67,94.436z M57.593,97.893c-0.471-0.193-0.037-0.48,0-0.797
			C58.068,97.29,57.631,97.579,57.593,97.893z M57.062,87.521c-0.836,0.125-0.702-0.715-1.328-0.799
			c0.485-2.348,1.331-4.338,2.127-6.382c0.777-0.067,0.815,0.603,1.593,0.53C58.851,83.287,57.762,85.208,57.062,87.521z
			 M63.18,63.591c0.604,0.458,0.096,2.028,0.264,2.927c0.464,1.752,0.201,4.23,0.266,6.381c-0.107,0.776-0.91,0.862-1.327,1.332
			c-0.168,0.982-0.749,1.557-1.065,2.393c-0.954,0.066-0.974-0.798-1.861-0.798C60.605,71.658,62.191,67.925,63.18,63.591z
			 M62.381,97.627C62.406,97.947,61.993,97.789,62.381,97.627c-0.087-0.617,0.041-1.021,0.266-1.329
			C63.295,96.467,62.688,97.539,62.381,97.627z M62.91,84.598c-0.76,1.721-1.492,3.469-2.393,5.053c0.254,1.104-0.796,0.056,0,0
			c0.571-2.887,1.742-5.174,2.129-8.24c0.369-0.432,0.752-0.846,1.062-1.331c0.086-0.978-0.228-2.354,0.265-2.927
			c0.603,0.199,0.105,1.492,0.271,2.129c0.521,0.807-0.034,2.693,0.53,3.455C64.561,83.764,63.471,83.917,62.91,84.598z
			 M64.506,104.54c0.051-0.304,0.268-0.147,0.268,0C64.723,104.842,64.506,104.688,64.506,104.54z M63.973,93.107
			c-0.615-1.74,0.975-3.416,1.066-5.321C66.029,89.188,66.43,93.965,63.973,93.107z M68.229,108.262
			c-1.026-0.035-1.047-1.076-1.857-1.33c-0.01-0.393,0.55-0.115,0.797-0.264c0.214-0.13,0.455-0.943,1.062-0.268v1.861H68.229z
			 M66.635,97.627c0.396,0.576,0.453,1.498,0.531,2.393C66.016,100.007,66.342,98.363,66.635,97.627z M88.438,94.436
			c-0.147-0.384-0.416-0.646-0.799-0.795c-0.272-0.703-1.052-0.897-1.328-1.599c-1.082-0.955-2.184-1.894-3.188-2.923
			c-2.411-1.665-4.146-4.008-6.384-5.852h-3.721c-1.414,0.444-1.754,1.969-2.394,3.189c-0.784-0.727-0.403-2.611-0.799-3.725
			c0.202-1.002-0.324-1.271-0.269-2.127c-0.156-0.549,0.33-1.746-0.267-1.858c-0.045-2.972-0.206-5.82-0.528-8.511
			c-0.013-11.511-0.854-22.193-1.863-32.703c-0.142-0.215-0.277-0.432-0.266-0.797c-0.181-0.887-0.504-1.626-1.326-1.861
			c0.215-1.813-0.219-2.978-1.064-3.724c-1.141-0.459-3.076-0.115-4.255-0.532c-0.227-1.193-0.568-2.268-0.534-3.723
			c-0.272-0.893,0.828-0.412,1.329-0.532c0.508-0.113,0.67-0.572,1.331-0.53c0.115-0.509,0.572-0.67,0.533-1.33
			c0.738,0.121-0.211-1.45,0.533-1.329c1.209,0.149,1.65-0.474,2.922-0.268c2.59-1.043,5.908-1.357,9.043-1.86h3.188
			c0.977-0.088,2.354,0.228,2.923-0.268h0.269c0.955,0.114,0.746,1.381,0.799,2.396c0.468,0.595,0.125,1.999,0.531,2.659
			c-0.645,9.774,2.125,16.132,1.596,25.793c0.523,5.854,1.797,10.963,2.393,16.749c-0.248,9.646,0.611,18.176,2.126,26.06
			C89.163,95.312,88.439,94.842,88.438,94.436z"/>
	</g>
</g>
</svg>
