<?xml version="1.0" encoding="utf-8"?>
<!-- Generator: Adobe Illustrator 16.0.0, SVG Export Plug-In . SVG Version: 6.00 Build 0)  -->
<!DOCTYPE svg PUBLIC "-//W3C//DTD SVG 1.1//EN" "http://www.w3.org/Graphics/SVG/1.1/DTD/svg11.dtd">
<svg version="1.1" id="Layer_1" xmlns="http://www.w3.org/2000/svg"  x="0px" y="0px"
	 width="120px" height="120px" viewBox="0 0 120 120" enable-background="new 0 0 120 120" xml:space="preserve">
<g id="boombox">
	<g>
		<path d="M118.404,68.867c-0.277-7.704-1.135-14.827-1.473-22.47c-0.064-0.95,1.053-0.721,1.473-1.184
			c0.232-0.657,0.625-1.152,0.594-2.069c-0.385-0.728-0.547-1.072-1.184-1.479c-1.807-1.15-4.773-0.186-6.801,0h-3.845
			c-1.229,0.445-2.735,0.616-4.142,0.888H86.77c0.102-2.854-0.127-5.723,0-8.575c0.102-2.16,0.832-4.491-0.295-6.209
			c-1.916-1.227-4.436-0.887-6.802-0.887H56.019c-0.375,0.016-0.409,0.379-0.884,0.296c-3.81,0.231-7.232,0.849-11.532,0.591
			c-1.193,0.383-2.506,0.647-3.846,0.886c-0.69,0.887-1.684,1.466-2.364,2.366c-0.338,1.732-0.333,3.806-0.295,5.913
			c-0.144,2.313-0.085,4.424,2.068,4.437c1.794-0.379,1.894-2.445,1.776-4.73c0.362-2.068-1.348-4.633,1.182-4.731
			c-0.671,1.597-0.627,3.907-0.888,5.915c0.177,0.61-0.363,1.941,0.295,2.067c-0.41,0.851,0.811,1.503,0,1.774
			c-9.607,0.049-18.955,0.359-28.383,0.592c-1.008,0.452-0.933,1.427-1.477,2.068c-0.821-0.896-1.725,0.628-2.367,0.888
			c-0.793,4.349,0.17,9.218,0.591,13.306c0.47,4.36,0.781,8.878,1.482,13.01c0.069,4.758,0.844,8.812,0.589,13.896
			c0.081,4.751-0.307,9.969,0.59,13.897c0.966,0.612,2.36,0.796,3.253,1.478c1.512,0.233,2.149-0.412,3.547-0.296
			c11.253,0.894,23.332-0.057,35.483-0.59c9.955-0.438,19.576-0.009,28.976-0.297c4.386-0.544,8.925-0.933,13.306-1.478
			c6.578,0.17,12.522-0.289,18.33-0.89c0.267-0.521,0.715-0.86,0.889-1.479c-0.047-0.348,0.05-0.838-0.299-0.887
			c0.119-0.509-0.437-0.759,0-0.888c1.114-0.169,2.048-0.519,2.069-1.774c0.539-3.638,0.295-7.425,0.295-11.531V68.867
			L118.404,68.867z M44.787,41.074c0.338-0.349,0.332-1.045,0.295-1.773v-7.688h5.319c8.465-1.194,19.121-0.195,28.09-0.887
			c0.476,0.085,0.51-0.279,0.885-0.296h0.89c1.118-0.194,0.551,2.071,0.295,2.364V39.3c0.187,0.898-0.377,2.547,0.297,2.957
			c-0.129,0.66-1.457,0.119-2.067,0.296h-2.367c-1.315-0.162-2.666-0.29-3.846-0.591c-10.075,0.016-18.53,0.451-27.789,0
			C43.538,42.013,44.789,41.507,44.787,41.074z M114.564,93.408c-10.389,0.456-21.109,0.572-30.455,2.07
			c-23.582-0.418-44.982,1.338-68.002,1.478c-0.127-8.942,0.389-18.524-0.593-26.608C14.795,62.1,13.423,54.5,12.853,46.103
			c-0.347-0.05-0.251-0.539-0.297-0.889c0.254-0.054,0.281,0.116,0.297,0.295c9.305,0.653,19.676,0.233,28.977,0.889
			c9.644,0.47,19.58,0.272,29.27,0c9.49,1.548,21.43,0.647,32.229,0.886c1.787-0.086,3.114-0.63,5.024-0.591
			c1.787,0.308,3.692-0.508,4.73,0c0.006,8.668,1.096,16.254,0.889,25.132c0.01,0.707-0.015,1.165,0,1.774
			c-0.002-0.076,0.482,0.145,0.295,0.297c-0.588,0.47,0,0.279,0,1.182c0-0.079-0.48,0.146-0.295,0.296
			c0.561,0.448-0.015,0.444,0,1.183c-0.002-0.024,0.272,0.411,0.295,0.592c0.184,1.515-0.27,3.604,0,5.026
			c-0.088,2.517-0.047,3.33,0,5.912v3.253c0.025,0.467-0.142,1.128,0.297,1.184C114.502,93.027,115.068,93.287,114.564,93.408z
			 M19.947,53.788c1.411,0.766,3.916,0.005,5.323,0.593h5.619c1.018,0.129,1.656-0.118,2.366-0.296
			c0.881-0.104,1.075-0.895,1.477-1.479c0.078-0.865-0.667-0.91-0.592-1.775c-3.459-0.816-7.236,0.393-11.236,0
			c-1.488,0.482-3.715,0.229-3.842,2.071C19.525,53.381,19.458,53.522,19.947,53.788z M94.16,54.085
			c0.936-0.144,1.048,0.531,2.07,0.296h6.801c1.625-0.545,4.408,0.068,4.14-2.367c-0.223-2.254-4.653-1.495-6.503-1.183h-8.577
			c-0.38,0.408-1.284,0.294-2.067,0.297c-0.73,0.153-1.057,0.72-1.479,1.183C88.869,54.449,91.711,54.072,94.16,54.085z
			 M64.006,60.294c0.189-0.396,0.631-0.552,1.18-0.591c0.035-0.756,0.543-1.035,0.889-1.479c0.223-3.08-0.656-5.059-2.957-5.618
			c-2.707-0.049-3.419,1.901-3.842,4.14c0.233,0.951,0.406,1.96,0.887,2.66C61.184,59.959,62.254,60.465,64.006,60.294z
			 M73.764,54.381c-0.129,0.191,0.033,0.611-0.299,0.591c-0.068,1.544,0.006,2.952,0.299,4.14c0.375,0.111,0.631,0.357,0.883,0.592
			c1.311,1.188,4.306-0.312,5.026-1.184c0.452-1.447,0.327-3.267-0.296-4.435C78.182,52.846,74.751,52.835,73.764,54.381z
			 M49.813,61.18c0.601-0.479,1.543-0.619,2.067-1.182c0.691-2.277,0.211-5.117-1.183-6.21c-2.166-0.718-4.568,0.434-6.208,1.184
			c-0.437,1.113-0.437,3.321,0,4.435C45.794,60.469,47.376,61.252,49.813,61.18z M31.478,55.562
			c-2.035,0.034-3.792,0.342-5.614,0.591h-2.66c-0.677,0.803-2.579,0.382-2.366,2.071c0.431,1.113,0.781,0.597,2.066,0.591h3.548
			c1.579-0.49,3.909-0.233,5.321-0.887c1.689-0.483,4.31-0.03,4.435-2.069c-0.297-0.688-1.016-0.955-2.069-0.888
			C33.146,55.059,32.12,55.12,31.478,55.562z M94.16,55.562c-1.915,0.548-4.922,0.006-5.32,2.07c0.688,1.479,2.938,1.398,4.73,1.773
			h8.574c1.713-0.456,4.33-0.004,4.437-2.069c-0.501-1.865-3.437-1.297-5.325-1.774H94.16z M107.469,68.275
			c-2.594-5.094-7.379-7.998-15.674-7.393c-0.18,0.018-0.348,0.045-0.295,0.295h-0.589c-0.379,0.018-0.412,0.381-0.888,0.297
			c-2.56,1.387-4.869,3.021-6.803,5.025c-0.682,1.884-1.662,3.463-1.772,5.914c-0.606,2.056-0.158,5.163-0.296,7.688
			c0.23,0.063,0.342,0.246,0.296,0.59c2.516,6.604,9.602,11.281,18.924,9.166c3.718-2.19,6.103-5.721,7.392-10.349
			c0.502-3.032,0.422-7.594,0-10.645C107.532,68.803,107.419,68.62,107.469,68.275z M98.598,86.312
			c-7.26,0.556-11.072-2.332-13.306-6.803c-0.438-2.836-0.726-5.947-0.296-8.867c0.29-1.049,1.781-1.289,2.068-2.662
			c0.598-0.881,1.496-1.459,2.068-2.364c0.988-0.195,1.446-0.921,2.365-1.183h0.591c-0.052-0.252,0.114-0.279,0.3-0.295
			c6.039-0.524,9.623,1.41,12.119,4.434c0.042,0.551,0.193,0.988,0.594,1.184c0.162,0.43-0.348,1.528,0.297,1.479
			C105.279,78.41,103.117,83.538,98.598,86.312z M43.603,69.756c-0.28-0.408-0.352-0.889-0.591-1.184
			c-1.492-1.834-3.528-2.99-5.321-4.434c-0.757-0.033-1.411-0.169-1.775-0.594h-4.142c-0.179,0.018-0.346,0.044-0.296,0.296
			c-1.348-0.265-1.673,0.493-2.659,0.593c-1.662,0.998-2.816,2.502-4.142,3.842c-1.359-1.506-3.2,0.432-4.137,1.183
			c-1.171,2.885-1.351,7.615-1.183,10.94c2.424,6.093,8.549,9.929,17.443,8.574c4.524-2.574,7.107-7.088,8.283-13.011V72.12
			c-0.411-0.304-0.409-0.826-0.593-1.183C44.214,70.404,43.896,70.186,43.603,69.756z M35.028,84.538
			c-6.123,0.405-9.459-1.974-11.825-5.322c-0.105-3.95-1.348-8.177,0.884-10.644c0.528-0.084,0.606,0.279,0.296,0.295
			c-0.788,2.178-2.279,6.615,0.293,7.984c2.084-0.285,2.36-2.371,3.257-3.847c0.937-1.43,1.813-2.914,3.249-3.842
			c1.1-0.479,2.911-0.247,4.438-0.298c1.971,1.18,3.815,2.488,4.73,4.73C40.325,78.995,37.968,82.059,35.028,84.538z M74.646,68.275
			c-3.875-0.657-8.946-0.121-13.307-0.295c-0.377,0.017-0.408,0.379-0.887,0.295h-6.798c-1.761,0.605-5.131-0.396-5.62,1.479
			c0.735,1.434,2.572,1.766,4.73,1.771h6.802c3.332,0.81,8.507-0.229,11.83,0.593v5.616c0.513,1.949,1.699,3.227,1.475,5.914h-7.98
			V80.99c0.014-1.001-0.688-1.285-1.185-1.776c-1.413-0.133-2.241,0.32-2.66,1.185c-0.755,0.524,0.194,2.76-0.592,3.252h-6.209
			c-0.757-0.32-1.408,0.898-1.773,0c-0.438-2.937,0.604-8.49-0.887-11.826c-1.336,0.045-1.271,1.492-1.773,2.365
			c-0.451,0.933-0.989,1.772-1.185,2.957c0.34,3.309-0.819,8.11,0.887,10.054c1.431,0.638,4.005,0.136,5.913,0.295
			c0.935-0.146,1.044,0.534,2.072,0.296h11.827c2.414-0.344,5.188-0.33,6.505-1.773c0.812-2.707,0.004-6.024-0.595-8.277
			C75.561,74.91,76.758,70.068,74.646,68.275z M99.779,70.049c-0.322-0.014-0.152-0.227-0.297-0.293
			c-0.59-0.281-3.75-0.634-4.137-0.591c-1.805,0.194-2.838,1.284-3.848,2.067c-0.637,1.396-1.355,3.742-0.589,5.619
			c0.95,1.215,2.565,1.768,3.842,2.658H98.3c2.232-1.371,3.568-5.021,2.662-8.572C100.447,70.76,100.077,70.066,99.779,70.049z
			 M97.414,76.555c-0.926-0.061-2.172,0.201-2.661-0.293c-0.542-2.615,0.772-3.365,3.254-2.957
			C98.214,74.795,97.602,75.463,97.414,76.555z M30.296,73.007c-1.113,0.364-1.671,1.284-2.362,2.07
			c-1.318,5.241,3.039,7.01,6.798,5.321c1.007-1.26,0.945-3.59,0.889-5.912C34.605,73.232,32.462,73.109,30.296,73.007z
			 M33.55,78.329c-1.023,0.237-1.137-0.44-2.072-0.295c-0.054-1.339,0.881-1.687,2.072-1.772V78.329z M60.16,78.329
			c0.427-1.048,0.427-3.091,0-4.14c-1.279-0.765-2.789-0.595-4.142,0c-0.504,1.07-0.734,2.416-0.591,4.14
			C56.53,79.825,58.952,79.591,60.16,78.329z M69.032,73.6c-2.021-0.242-3.31,0.238-4.142,1.184
			c-0.061,1.437-0.066,2.824,0.588,3.548C68.805,79.955,71.32,75.873,69.032,73.6z"/>
	</g>
</g>
</svg>
