<?xml version="1.0" encoding="utf-8"?>
<!-- Generator: Adobe Illustrator 16.0.0, SVG Export Plug-In . SVG Version: 6.00 Build 0)  -->
<!DOCTYPE svg PUBLIC "-//W3C//DTD SVG 1.1//EN" "http://www.w3.org/Graphics/SVG/1.1/DTD/svg11.dtd">
<svg version="1.1" id="Layer_1" xmlns="http://www.w3.org/2000/svg"  x="0px" y="0px"
	 width="120px" height="120px" viewBox="0 0 120 120" enable-background="new 0 0 120 120" xml:space="preserve">
<g id="bow-arrow">
	<g>
		<path d="M110.617,27.973c-1.778-2.007-5.322-3.285-8.235-1.766c-0.624,1.141-1.78,1.751-2.058,3.234v2.06
			c0.816,1.144,1.691,2.229,3.82,2.059c0.602-0.085,0.578-0.794,1.179-0.882c0.131-0.555-0.401-1.771,0.588-1.47
			c0.877,1.489-0.614,2.828-1.767,3.234c-5.402,0.304-9.387-0.812-14.705-0.588c-2.707-1.437-5.785-3.032-9.707-3.235
			c-4.362-0.226-9.125,0.871-13.528,0.882c-2.913,1.693-6.189,3.027-8.527,5.296c-1.509,0.846-2.578,2.129-4.122,2.94
			c-0.571,0.603-1.385,0.966-2.058,1.471c-0.768,0.405-1.013,1.339-2.057,1.471c-2.526-2.083-4.534-4.684-7.061-6.767
			c-2.344-2.359-5.237-4.174-7.648-6.471c1.694-0.66,3.494-1.215,5.003-2.059c1.917-0.534,3.369-1.531,3.236-4.117
			c-0.462-1.4-2.014-1.712-2.943-2.646c-5.421-0.854-10.353-2.196-15.588-3.235c-2.156,0.196-3.584-0.337-5.292-0.588
			c-0.296,0-0.352,0.237-0.591,0.294c-0.376,0.016-0.405,0.377-0.882,0.294c-0.26,1.164,0.062,1.798-0.294,2.353
			c-0.503,0.575-0.511,1.646-0.88,2.354c1.147,2.086,2.032,4.438,2.94,6.766c1.075,2.156,2.158,4.312,3.234,6.469
			c0,1.57,0.759,2.383,1.179,3.53c-0.265,1.637,0.641,2.102,1.173,2.941h2.06c0.858-0.32,1.151-1.202,1.474-2.059
			c0.276-0.899,1.43-0.921,1.467-2.06c0.293-2.646,1.248-4.638,1.765-7.059c2.74,2.263,4.925,5.072,7.354,7.646
			c1.445,1.106,2.245,2.854,3.826,3.824c0.708,1.842,2.721,2.375,3.234,4.412c-0.645,1.512-1.778,2.535-2.646,3.824
			c-0.919,1.238-1.629,2.683-2.942,3.527c-0.266,2.088-1.633,3.075-2.058,5.001c-0.86,1.494-1.448,3.261-1.768,5.293
			c0.196,4.609,1.979,7.631,2.354,12.06c0.472,0.705,0.969,1.386,0.883,2.647c1.621,2.106,2.365,5.086,2.943,8.234
			c0.685,1.176,0.979,2.747,1.174,4.411c0.771,1.097,0.777,2.948,1.473,4.118c-0.891,0.721,0.223,1.915,0,2.939
			c0.231,1.211-0.452,1.51-0.293,2.646c0.248,1.051,1.512-0.758,1.764,0.294c0.212,0.899-0.302,1.073-0.298,1.767
			c-1.182-0.287-1.653-1.287-2.35-2.061c-0.881-0.688-1.711-1.426-3.236-1.471c-2.029,0.42-2.932,1.972-4.12,3.233
			c-0.356,4.476,0.926,7.312,4.414,7.942c1.39,0.017,1.72-1.027,2.646-1.473c1.079,0.1,1.634-0.326,2.354-0.588
			c2.542-2.066,4.768-4.449,4.411-9.412c1.851-2.172,3.884-4.153,5.59-6.469c0.795-1.266,1.782-2.336,2.647-3.531
			c0.883-1.174,1.59-2.524,2.646-3.529c1.54-2.577,3.715-4.522,5.884-6.471c0.883-1.176,1.693-2.422,2.94-3.235
			c0.999-1.062,1.747-2.367,3.235-2.939c1.475,2.15,3.979,3.274,5.002,5.884c-0.211,3.262-1.248,7.862,0.293,10.295
			c0.701-0.183,2.135,0.367,2.353-0.297c0.743,0.129,0.749-1.957,1.174-1.177c0.056,2.007,0.073,4.048,1.767,4.412
			c1.377,0.004,1.781-0.967,2.062-2.06c0.479-0.991-0.021-2.967,0.588-3.822c0.909,0.365,1.579,0.972,2.062,1.765
			c-2.268,1.622-2.494,7.73,0.882,8.235c1.235-0.235,1.718-1.225,2.354-2.061c0.1-1.371,0.317-2.623,0.883-3.528
			c0.709,0.466,1.299,1.052,1.764,1.764c-0.896,0.574-0.817,2.125-1.471,2.942c0.895,1.887-0.853,4.718,0.879,5.882h2.354
			c1.116-1.435,1.251-3.849,1.181-6.472c0.258-0.719,1.641-0.316,1.465-1.469c0.382-1.298-1.401-1.205-0.586-2.062
			c2.307-0.44,5.545,0.053,7.062-1.177c0.396-0.887,0.396-2.349,0-3.234c-1.022-0.838-2.364-1.361-4.413-1.178
			c-0.404-1.062-0.806-2.133-2.062-2.354c-3.379,0.052-6.131-0.53-9.407-0.588c-0.271-1.194-2.126-0.813-1.765-2.646
			c1.362,0.496,3.674,0.052,5,0.588c0.328-0.749,2.271,0.119,2.646-0.588c0.914-0.262,1.271-1.082,1.471-2.06
			c-0.32-1.251-1.477-1.659-2.354-2.354c-4.202-0.182-7.806,0.234-11.765,0.294c-1.25-0.908-2.455-1.861-3.531-2.939
			c-1.26-0.896-2.641-1.671-3.232-3.235c1.197-1.446,2.426-2.866,3.525-4.41c4.213-3.047,7.369-7.146,11.18-10.589
			c0.335-1.236,1.393-1.746,1.764-2.941c4.166-3.778,8.543-7.338,11.767-12.06c1.978-0.67,3.114-2.18,5-2.94
			c0.409-1.354,1.354-2.175,1.767-3.53v-3.823C111.238,29.115,110.605,28.867,110.617,27.973z M32.379,25.325
			c-0.259,0.522-0.819,0.747-0.588,1.765c-3.88-1.494-4.009,3.219-4.706,5.882c-1.022-0.249-1.097-1.45-1.469-2.353
			c-0.609-0.667-0.601-1.948-1.177-2.646c-0.445-2.104-1.586-3.514-2.059-5.588c-0.364-0.129-0.604-0.378-0.588-0.883h0.588
			c0.753,0.131,1.352,0.412,1.765,0.883c1.795-0.033,2.822,0.705,4.414,0.881c1.22,0.545,3.06,0.467,4.116,1.176
			C33.878,24.305,32.718,25.233,32.379,25.325z M43.558,106.503h-2.06c-0.093-0.69-0.463-1.104-0.294-2.06
			c0.924-0.139,0.777,0.791,1.47,0.882C42.587,106.1,43.817,105.557,43.558,106.503z M82.673,81.796
			c0.864,0.021,1.095,0.674,1.474,1.177c0.045,1.416-1.479,1.269-1.176,2.94C82.295,85.121,82.863,83.078,82.673,81.796z
			 M59.735,41.208c2.132-1.887,4.81-3.228,7.353-4.708c4.201-0.015,7.771-0.658,12.059-0.588c-0.576,1.092-2.582,0.754-3.527,1.473
			c-1.242,0.324-2.2,0.936-3.529,1.177c-1.822,1.116-3.594,2.289-5.59,3.234c-1.573,1.366-3.455,2.427-5,3.824
			c-1.653,1.284-3.627,2.255-5,3.823c-1.254-0.904-2.342-1.973-3.53-2.941C54.696,44.208,57.592,43.086,59.735,41.208z
			 M41.791,68.266c-1.34-1.076,0.042-3.133-0.293-4.998c0.747-1.117,1.035-2.692,1.766-3.824c0.553-1.312,1.377-2.347,1.762-3.824
			c1.866-1.47,3.145-3.523,4.415-5.588c1.693,0.365,2.284,1.834,3.237,2.941c-1.451,1.199-2.643,2.653-4.121,3.822
			C46.224,60.541,43.126,63.521,41.791,68.266z M67.969,73.561c-0.504,0.379-1.156,0.609-1.174,1.473
			c-0.443,0.439-1.238,0.525-1.475,1.176c-1.725,1.809-3.307,3.751-5,5.589c-1.761,1.868-3.345,3.909-5,5.884
			c-0.816,0.947-1.392,2.137-2.353,2.94c-0.759,1.006-1.249,2.28-2.646,2.646c-0.13-3.104-1.674-4.799-2.06-7.646
			c-0.374-2.86-0.737-5.736-1.474-8.231v-7.354c0.151-1.224,1.031-1.716,1.18-2.94c0.466-0.808,1.191-1.359,1.471-2.353
			c0.879-0.396,0.803-1.748,1.763-2.06c0.558-0.72,1.125-1.427,1.474-2.354c0.574-0.6,1.737-0.613,1.762-1.764
			c0.819-0.357,1.621-0.732,2.06-1.47c2.161,0.191,2.201,2.503,3.824,3.233c1.048,1.209,2.013,2.499,3.53,3.236
			c1.055,1.301,2.229,2.477,3.53,3.528c0.92,1.335,2.722,1.79,3.233,3.529C69.907,71.771,68.598,72.325,67.969,73.561z
			 M94.734,43.56c-0.371,1.494-1.596,2.133-2.354,3.237c-1.688,2.039-3.529,3.921-4.706,6.469c-1.623,1.419-3.248,2.832-4.411,4.707
			c-2.322,1.5-4.309,3.343-6.471,5c-0.641,0.639-0.945,1.604-1.475,2.353c-0.729,0.544-1.656,0.891-2.059,1.766
			c-1.494-1.248-2.867-2.621-4.115-4.116c-1.035-0.339-1.08-1.668-2.061-2.06c-0.178-1.097-1.352-1.197-1.473-2.354
			c-1.006-0.759-1.889-1.641-2.646-2.647c-0.869-0.798-1.974-1.36-2.354-2.647c2.421-1.404,4.398-3.248,6.768-4.706
			c2.139-1.587,4.629-2.819,6.766-4.411c6.563-1.766,12.289-4.374,21.174-3.822c0.129,0.656,1.449,0.119,2.062,0.292
			C96.906,42.008,95.699,42.664,94.734,43.56z"/>
	</g>
</g>
</svg>
