<?xml version="1.0" encoding="utf-8"?>
<!-- Generator: Adobe Illustrator 16.0.0, SVG Export Plug-In . SVG Version: 6.00 Build 0)  -->
<!DOCTYPE svg PUBLIC "-//W3C//DTD SVG 1.1//EN" "http://www.w3.org/Graphics/SVG/1.1/DTD/svg11.dtd">
<svg version="1.1" id="Layer_1" xmlns="http://www.w3.org/2000/svg"  x="0px" y="0px"
	 width="120px" height="120px" viewBox="4 4 120 120" style="enable-background:new 4 4 120 120;" xml:space="preserve">
<g id="inbox">
	<g>
		<path d="M117.8,60.3c-0.5-0.3-0.7-1.6-1.5-0.9c-1.5-0.4-1.899-2-3.2-2.7c-1.899-2.1-4.199-3.7-5.899-5.9
			c-0.101-0.6-0.8-0.6-0.9-1.2c-1.7-2.1-2.5-5.1-4.399-7.1C101.5,41,100.3,40.4,99.8,39c-1.1-0.8-2.1-1.8-3.8-2.1
			c-0.6-0.1-0.7,0.3-1.2,0.3H70.6c-8,0.1-14.3,1.8-22.7,1.5c-2.3-0.3-4.6-0.7-7.4-0.6c-1.1,0-1.7,0.5-2.1,1.2
			c-1.3-0.1-2.2,0.1-3.2,0.3c-1.3,1.4-2.5,2.8-3.5,4.4c-3.9,2.5-6.6,6.2-9.7,9.4c-1.3,0.5-2.1,1.6-3.2,2.4c-1.4,0.6-2.2,1.8-3.5,2.4
			c-1.1,1.5-2.1,3.1-3.2,4.4c-0.1,1.2-1.3,1.3-1.5,2.4c-0.6,0-0.2,1-0.9,0.9c-0.2,0.6-0.9,0.6-0.3,1.199C10,68.8,9.8,71.4,10.6,73
			c0.3,2,1.1,3.7,1.5,5.6c0.6,1.801,1.1,3.601,1.8,5.301c0.5,0.6,0.3,2.1,1.2,2.399c0.3,0.9,0.5,1.8,1.5,2.101
			c0.3,0.8,1.5,0.6,2.1,1.199c0.8,0.301,1.8,0.5,2.9,0.601c2.1,0.2,4.9-0.4,6.5,0.3h41.6c2.2-0.4,4.5-0.6,6.8-0.9
			c5.6,0.2,10.3-0.5,15.3-0.899c4.601-0.8,10.2-0.601,14.8-1.5h4.101c1.6,0.2,2.1-0.601,3.2-0.9c0.199-1,1-1.399,0.899-2.7
			c-0.2-1.5,0.4-2.1,0.3-3.5c0.601-0.5,0.2-2.199,0.9-2.699c0-1.301,0.1-2.4,0.6-3.2c0.5-4.5,2-8,2.7-12.4
			C118.3,61.5,118.3,60.7,117.8,60.3z M17.2,70c-0.4-0.5,0.3-2.5,0-3.8c-1.6-0.601-1,1.1-2.1,1.2c0.1-0.7-0.5-0.601-0.3-1.5
			c2.1,0.1,3.5-0.7,5.6-0.601C19.3,66.8,18,68.2,17.2,70z M19.6,77.1C20.1,72.9,22.6,69.4,22,65h6.8c-0.4,0.7-1.2,0.9-1.8,1.5
			C24.5,70.1,21.8,73.3,19.6,77.1C19.6,77.5,19.1,77.3,19.6,77.1z M42.9,76.2c-0.2,1.3-1.1,1.899-1.5,3
			c-0.8,0.5-0.9,1.899-1.8,2.399c0.3,1-1.2,1.7-0.3,2.4c-0.3,0.7-1.9,0.1-2.7,0.3H28c1-2.5,2.3-4.7,3.2-7.399
			c0.7-1.101,1.1-2.4,1.8-3.5c0.4-1,1.8-2.101,0.9-3.5c-1.3-0.4-1.6,0.5-2.1,0.899c-0.4,0.4-1.3,0.7-1.2,1.5c-1.2,0.7-1.8,1.9-3,2.7
			c-0.4,1.4-1.7,2-2.1,3.5c-0.9,1-1.3,2.4-1.8,3.8c-0.3,1.3,0.5,1.5,0.6,2.4c-1.2-0.101-2.8,0.3-3.5-0.3c-0.3-0.9,0.5-0.9,0.9-1.2
			c0.3-0.4,0.5-0.9,0.9-1.2c1.2-2.8,2.8-5.3,4.1-8c0.6-1.3,1.4-2.6,2.1-3.8c0.7-1.2,1.7-2.601,1.8-4.101
			c-0.2-0.199-0.3-0.5-0.3-0.899c3.2-0.101,5.8,0.5,9.1,0.3c1.4,2.8,2.1,6.1,3.2,9.1V76.2H42.9z M42.3,60.6
			C35,60.1,25.4,59.9,19,61.2c1.2-1.3,2.7-2.3,4.4-3c0.3-0.9,1.5-1,2.1-1.8c0.9-0.3,0.9-1.4,2.1-1.5c2.2-2.6,4.7-5,7.7-6.8
			c1.3,0,1.9,0.7,3.2,0.6c2.5,0.1,4.5-0.2,6.5-0.6c4.7-0.2,10.2,0.4,14.5-0.3c4.4,0.7,9.9,0.1,14.8,0.3
			c6.4-0.5,13.101-0.7,20.101-0.6c0.899-0.3,1.6-0.8,2.399-1.2c-0.1-0.5,0.3-0.5,0.3-0.9c0.301-0.1,0.301,0.1,0.301,0.3
			c0.3-0.1,0.3,0.1,0.3,0.3c1.7,2.6,2.899,5.8,5,8c0.899,1.3,1.8,2.5,2.899,3.5c0.301,0.8,1.2,1,1.5,1.8c0.4,0.2,0.7,0.5,0.9,0.9
			c0.3,0.1,0.7,0.5,0.3,0.6c-7.8,0.6-13.1-1.4-20.7-1.2c-1.199,0-2.1,0.3-2.699,0.9c-1.301,0.1-1.5-0.9-3-0.6
			c-1,0.6-1.801,1.3-2.4,2.4c-0.3,1.2-0.9,2.2-1.5,3.2c-0.5,2.5-1.3,4.8-1.8,7.4c-9.3,0-18.5,0.199-27.4,0.6
			C46.4,69.5,45.9,63.5,42.3,60.6z M46.7,84.2h-3.5c0.5-2,1.2-3.9,1.8-5.9c1.5,0,2.4,0.5,4.1,0.3C48.3,80.4,46.8,81.6,46.7,84.2z
			 M56.1,84.2h-4.4c0.5-2.2,2.2-3.101,2.4-5.601h3.5C56.8,80.2,55.7,82.2,56.1,84.2z M113.1,70.9c-0.6,0.899-0.5,2.5-1.199,3.199
			C111.3,76.5,110.8,78.9,109.8,80.9H105.4C97.7,81.9,89.6,82.5,81.8,83.3h-5.3c-2,0.4-4.5,0.4-6.5,0.9H58.8c0.7-2,1.5-3.8,2.7-5.3
			h8.3c1.3,0-0.3,0.8,0,1.5c0.101,0.8-0.3,2,0.601,2.1c1.5-0.4,1-2.7,2.1-3.5h5.3c5.101-1.6,4.2-9.2,6.8-13.3
			c-0.1-0.5,0.301-0.5,0.301-0.9C85.6,64.9,86.1,65.2,86.7,65.4C92.2,65.6,97,66.6,102,67.2h7.7c1.5-0.2,3-0.5,4.399,0
			C114,68.7,113.4,69.6,113.1,70.9z M37.9,72.4c-2.2,2-4.1,4.3-5.3,7.399c-0.1,1.601,0.2,2.8,1.5,3c2.6-0.1,2.7-2.8,3.8-4.399
			c0.6-1.601,2.7-4,1.2-5.9h-1.2V72.4z M80,79.5c0.5,0.5,0.8,1.2,1.8,1.2c1.601-0.101,2-2.9,0.9-3.8C80.8,76.7,80.2,77.9,80,79.5z"
			/>
	</g>
</g>
</svg>
