<?xml version="1.0" encoding="utf-8"?>
<!-- Generator: Adobe Illustrator 16.0.0, SVG Export Plug-In . SVG Version: 6.00 Build 0)  -->
<!DOCTYPE svg PUBLIC "-//W3C//DTD SVG 1.1//EN" "http://www.w3.org/Graphics/SVG/1.1/DTD/svg11.dtd">
<svg version="1.1" id="Layer_1" xmlns="http://www.w3.org/2000/svg"  x="0px" y="0px"
	 width="120px" height="120px" viewBox="4 4 120 120" style="enable-background:new 4 4 120 120;" xml:space="preserve">
<g id="briefcase">
	<g>
		<path d="M118.012,65.547c-0.77-6.554-1.273-13.367-1.508-20.458c-0.553-2.755-1.432-5.187-1.803-8.123
			c-0.639-0.964-0.573-2.632-1.506-3.308c-0.338-1.368-1.586-1.823-2.403-2.709c-2.259-0.807-6.086-0.771-8.728-0.301H90.331
			c-1.716,0.094-3.797,0.721-5.114,0.301c-0.885-2.123-0.542-5.472-0.602-8.424c-0.639-2.067-1.203-4.211-2.408-5.716
			c-3.107-1.543-9.305-1.468-13.535-0.903c-4.218,0.096-8.152,0.472-12.637,0.303c-1.397,0.506-3.757,0.051-5.113,0.601
			c-0.32,0.683-1.893,0.114-2.707,0.3c-0.804,0.199-1.879,0.127-2.408,0.604c-3.521,0.49-6.086,1.933-7.521,4.512
			c-0.442,1.562-0.279,3.733-0.304,5.717c-1.942-1.131-4.981-0.575-5.113,1.806c0.172,0.733,0.26,1.546,1.204,1.501
			c0.074,0.934,2.476-0.469,2.109,0.906c-4.696,0.733-9.987-0.41-15.347,0c-2.127,0.579-4.651,0.762-6.616,1.504
			c-1.986,1.223-3.552,2.864-4.814,4.812c-0.312,6.143-0.858,12.72,0.298,18.051v6.92c1.172,4.182,0.381,8.467,0.906,13.237
			c0.51,0.592,0.923,1.283,1.8,1.504c0.778,0.428,1.705,0.705,1.809,1.805c-1.395,7.594,0.023,16.289-0.302,24.672
			c-0.335,2.294-1.062,4.998,0.302,6.617c3.014,1.298,8.499,0.121,12.033,0.899c1.431-0.174,2.775-0.433,4.51-0.299
			c3.603-0.91,7.393-1.636,11.435-2.104c21.356,0.301,42.178,1.142,64.08,0.901c2.593-0.519,5.545-0.674,7.222-2.106
			c0.416-2.791,0.916-5.506,1.203-8.424c-0.572-4.142-0.194-9.232-0.3-13.838c0.203-4.656-1.08-9.296-0.305-13.537
			c0.309-0.293,0.609-0.597,0.902-0.902c0.748,0.042,1.465,0.055,1.504-0.602c1.007-0.402,1.876-0.936,2.408-1.808
			C119.373,67.395,117.857,67.303,118.012,65.547z M43.701,24.332c2.191-1.32,6.473-0.546,8.725-1.807
			c9.246,0.713,16.612-2.021,25.271-0.904c0.712,1.354,1.31,4.225,0.602,6.02c-1.67-0.107-3.021-0.578-4.213,0.301
			c-1.312,0.289-1.003,2.205-1.506,3.307c-6.328-0.111-12.347,0.09-18.348,0.302c-0.991,0.014-1.501,0.51-2.71,0.302
			c-0.719-0.185-2.179,0.377-2.406-0.302c-1.159,0.059-0.321-1.886-0.901-2.405c-1.198-0.51-3.175-0.236-4.814-0.303
			C43.539,27.378,43.085,25.318,43.701,24.332z M15.722,71.865c0.132-0.438,0.264,0.029,0.604,0
			C16.25,72.244,15.725,72.168,15.722,71.865z M26.553,106.764c-1.526-0.02-2.493,0.517-4.21,0.301
			c-1.279-0.23-3.563,0.556-3.915-0.603c-0.389-1.298,0.624-1.185,1.205-1.505c0.35-0.549,0.787-1.018,1.202-1.504v-3.91
			c2.791,0.219,4.437,1.578,5.718,3.309V106.764z M93.039,98.641c0.004,1.707-0.209,3.197-0.6,4.512
			c-1.645,0.63-2.896-0.101-4.815,0c-2.026,0.279-4.119,0.49-6.017,0.9h-6.316c-1.044-0.238-1.157,0.451-2.107,0.305H47.61
			c-1.834,0.367-4.087,0.324-6.316,0.302c-1.547,0.455-3.9,0.112-5.113,0.901c-1.816-0.221-3.74,0.75-4.815,0.299
			c0.15-1.971,0.328-2.91-0.299-4.514c-1.175-3.135-3.924-4.703-6.621-6.316c-1.098-0.203-2.187-0.418-3.611-0.301
			c0.077-5.992-0.22-11.608-1.202-16.547c5.322-0.697,11.928-0.104,17.752-0.301c1.041-0.24,1.155,0.447,2.106,0.301
			c3.782,0.029,7.771-0.149,11.13,0.299c0.684,0.926,0.521,2.689,1.503,3.312c0.696,0.908,1.501,1.711,2.407,2.407
			c4.065,0.621,7.8-0.221,12.036,0.301c3.146-0.264,5.925-0.893,7.822-2.402c1.594-0.817,2.075-2.738,3.309-3.914
			c1.562-0.442,3.729-0.279,5.718-0.302c7.005-1.112,13.708-2.534,21.659-2.707c0.484,0.086,0.517-0.284,0.902-0.303h2.106
			c0.959,2.049,0.543,5.476,0.899,8.123c0.18,2.729,0.389,5.435,0.604,8.125c-0.922,0.291-3.356-0.162-4.813-0.3
			c-1.422,0.431-2.451,0.402-3.91,0.899c-0.317,0.11-0.684,0.515-0.904,0.604c-0.494,0.195-0.993,0.062-1.504,0.299
			c-0.836,0.389-1.57,1.343-2.706,1.807C94.764,95.75,94.336,97.632,93.039,98.641z M20.535,70.359
			c0.242,0.16,0.489,0.314,0.904,0.301c0.296,1.643-1.185,2.109-1.807,1.205C19.727,71.154,20.677,71.303,20.535,70.359z
			 M37.683,70.359c1.121,0.229,0.165,1.428-0.904,1.205C36.515,70.6,37.771,71.15,37.683,70.359z M53.329,75.174
			c0.013-2.195,1.474-2.938,1.805-4.814c2.216,0.216,3.728-0.28,5.415-0.602c3.819,0.832,6.326-0.963,10.227-0.898
			c0.186,1.722,1.265,2.547,1.806,3.908c0.203,1.705-0.272,2.732-0.599,3.912c-4.082,1.336-8.659,2.174-13.541,2.707
			c-1.391-0.216-1.987-1.221-2.706-2.106C54.699,76.811,53.635,76.371,53.329,75.174z M108.984,102.852
			c-1.537,0.812-3.328,0.045-5.114,0c-2.302-0.06-4.7,0.553-6.618,0c-0.047-3.057,1.771-4.244,3.008-6.018
			c2.76-0.49,6.205-1.42,9.328-0.602C109.583,98.641,109.747,101.206,108.984,102.852z M86.422,69.157h-6.018
			c-0.387,0.017-0.418,0.383-0.903,0.3c-1.37,0.035-1.228,1.58-2.405,1.807c-0.312-2.494-0.863-4.756-1.805-6.621
			c-1.482-1.224-3.828-1.585-6.318-1.803c-3.359,0.351-6.14,1.281-9.326,1.803c-2.596,0.191-4.294-0.521-6.921-0.299
			c-1.277,0.426-2.421,0.986-3.309,1.805c-0.159,1.848,0.342,4.357-0.301,5.718h-2.103c-1.19,0.383-0.731-0.877-1.508-0.902
			c-1.038,0.363-2.257,0.55-3.606,0.603c-1.037-0.473-1.301-1.709-1.808-2.707c-1.375-0.271-1.706,0.498-2.706,0.6
			c0.071-1.273-0.024-2.383-0.904-2.707c-2.919,0.594-3.644,3.379-6.62,3.91c0.102-0.701,0.309-1.295,0.902-1.503
			c-1.24-0.624-1.271-1.419-0.599-2.706c-1.251-0.958-1.801,0.865-3.008,0.9c0.629-0.771,0.81-2,1.2-3.009
			c-0.068-0.43-0.494-0.509-0.599-0.902c-2.591-0.286-2.816,1.796-4.814,2.105c0.279-1.883-1.137-2.074-1.809-3.01
			c0.338-1.271,0.961-2.251,1.209-3.61c-0.2-1.34-1.872-0.544-2.408-0.901c0.385-1.207,1.529-2.958,0.6-4.514
			c-1.017-0.113-1.283,0.523-1.805,0.902c-0.667-0.129-0.752,1.809-1.202,0.904c-0.035-1.742,1.318-2.09,1.505-3.61
			c0.95-0.516,1.721-2.464,0.6-3.31c-1.769,0.236-2.396,1.615-3.61,2.405c0.031,0.366-0.437,0.188,0,0
			c0.611-1.692,1.371-3.24,2.106-4.812c0.757-1.312,2.452-2.734,1.504-4.815c-1.319-0.315-0.986,1.019-2.105,0.903
			c-0.035-0.367-0.09-0.709-0.602-0.6c-1.318-0.315-0.99,1.016-2.108,0.9v-2.707c8.493-2.688,20.728-0.015,30.386-1.203h5.114
			c6.733-0.49,13.666-0.776,20.76-0.904c8.229-0.497,16.816-0.636,25.572-0.601c3.759-0.529,6.929-0.026,11.132-0.301
			c1.304,2.409,1.504,5.919,2.405,8.726c-0.424,7.745,1.604,13.038,1.504,20.458C103.588,67.271,94.466,67.676,86.422,69.157z"/>
	</g>
</g>
</svg>
