<?xml version="1.0" encoding="utf-8"?>
<!-- Generator: Adobe Illustrator 16.0.0, SVG Export Plug-In . SVG Version: 6.00 Build 0)  -->
<!DOCTYPE svg PUBLIC "-//W3C//DTD SVG 1.1//EN" "http://www.w3.org/Graphics/SVG/1.1/DTD/svg11.dtd">
<svg version="1.1" id="Layer_1" xmlns="http://www.w3.org/2000/svg"  x="0px" y="0px"
	 width="120px" height="120px" viewBox="4 4 120 120" style="enable-background:new 4 4 120 120;" xml:space="preserve">
<g id="browser1">
	<g>
		<path d="M113.865,29.968c-0.057-2.661-0.795-3.308-1.985-4.82c-2.096-0.892-4.894-0.567-7.655-0.567h-8.227
			c-9.926-1.227-20.184-2.125-30.907-2.554c-10.609,0.215-22.372,0.634-32.897,0c-1.944,0.42-4.334,0.392-6.237,0.853
			c-3.261,0.049-6.873-0.255-9.075,0.851c-0.56,0.222-1.021,0.992-0.568,1.417c0.889,0.457-0.58,0.898-0.566,1.417
			c-0.435,1.268-0.8,2.603-0.851,4.253c-0.344,1.36-0.386,3.017-0.565,4.539v2.551c-0.178,0.77,0.359,2.25-0.286,2.551
			c-0.273,7.177,0.796,13.009,1.134,19.568c1.263,12.635,0.452,27.339,2.552,39.134c0.916,1.544,1.947,2.971,3.12,4.255
			c1.154,0.264,1.772,1.062,3.12,1.135c0.683,0.734,2.265,0.572,3.118,1.135c19.644-0.494,40.699,0.429,58.137-2.27
			c4.119-0.051,8.422,0.259,12.76,0.283c4.236,0.021,8.525,0.951,11.91-0.568c1.176-1.125,1.862-3.492,1.138-5.671
			c1.586-0.302,2.532-1.247,2.834-2.837c-0.347-5.375,0-11.277,0-17.299C113.865,61.713,114.168,45.078,113.865,29.968z
			 M107.061,95.477c-7.627-0.061-13.75-0.195-21.268,0c-13.766,2.398-30.005,2.324-46.225,2.268
			c-2.127,0.449-5.037,0.283-7.658,0.283c-2.783,0-5.361,0.199-7.09-0.852c-1.104-2.015-0.782-5.457-1.134-8.223
			c-0.609-2.512,0.106-6.346-0.568-8.792c-0.412-5.729-0.026-12.259-0.851-17.581c-0.123-6.114-1.121-11.358-1.418-17.299
			c0.214-6.358-0.347-11.941-0.282-18.149c-0.196-0.23-0.442-0.777,0-0.85C27.31,26.345,32.884,27.577,39,28.265
			c9.876,0.451,19.706,0.164,29.208,0.568c9.464,0.402,18.526,1.743,27.226,2.554h9.357c0.798,0.145,2.396-0.507,1.984,0.85
			c0.363,1.11-0.826,1-0.852,0.284h-2.268c-0.75,0.764-3.242-0.218-3.971,0.568c-2.851,0.173-5.625,0.423-8.228,0.85
			c-10.633,0.001-22.642,0-33.745,0c-3.464,0.001-6.942-0.108-9.64,1.419c-0.653,2.089-0.865,5.14,0.565,6.521
			c0.195,0.749,1.293,0.6,1.417,1.419c3.899,0.793,8.048,0.565,12.195,0.565c11.986,0,25.227,0.577,38,0.284
			c1.539,0.218,2.195-0.449,3.688-0.284c0.867,0.208,0.834-0.487,1.703-0.283c0.739-0.079,1.416-0.095,1.133,0.852v1.701H63.67
			c-0.227,0.197-0.775,0.442-0.849,0c-5.812,0.645-15.057-0.022-21.838,0.566c-3.439,0.434-6.962,0.787-10.772,0.852
			c-0.306,0.644-1.786,0.109-2.555,0.283c-0.708,0.238-1.518,0.372-2.551,0.284c-1.599,0.295-3.218,0.564-3.12,2.552
			c-0.239,1.187,0.767,1.124,1.133,1.702c0.757-0.164,1.773,0.84,2.27,0c1.867,0.069,3.58-0.012,5.106-0.282
			c3.599-0.087,6.803-0.569,10.489-0.567c21.386-0.641,43.939-0.111,65.792-0.285v39.702
			C106.665,92.55,107.453,94.491,107.061,95.477z M106.775,39.325c-12.967,1.959-28.86-0.372-42.821,0.851h-7.372
			c-2.233-0.13-5.414,0.688-5.104-1.984c-0.228-1.079,1.339-0.36,1.985-0.568h37.714c4.857-0.532,9.642-1.137,14.747-1.418
			c0.07-0.308,0.562-0.192,0.568-0.566C107.143,36.311,106.593,38.186,106.775,39.325z M25.674,42.445
			c3.134,0.859,5.766-0.452,6.803-2.551v-3.403c-0.594-0.256-0.101-1.603-0.852-1.703c0.052-0.995-0.957-0.932-1.131-1.7
			c-0.971-0.073-1.364-0.717-2.552-0.568c-0.223,0.064-0.561,0.007-0.568,0.283c-1.296-0.253-1.606,0.473-2.554,0.567
			c-0.373,0.764-1.705,0.566-1.702,1.702c-0.768-0.203,0.204,1.339-0.568,1.134C22.496,39.383,23.939,41.059,25.674,42.445z
			 M27.656,36.774c0.798-0.042,0.818,0.694,0.852,1.418C27.62,38.321,27.602,37.587,27.656,36.774z M35.314,40.459
			c0.367,1.337,1.508,1.894,2.835,2.27c1.741,0.229,2.439-0.583,3.688-0.851c-0.033-0.401,0.158-0.608,0.283-0.849
			c1.065-2.098,0.324-5.046-0.568-6.241c-0.624-0.832-1.384-1.535-1.983-1.985c-2.449-0.698-4.832-0.021-5.958,1.419
			c-0.191,1.036-0.394,2.062-0.282,3.402C33.716,38.841,34.255,39.914,35.314,40.459z M35.88,61.729h6.806
			c12.201-1.128,26.576-0.082,39.134-0.85h6.808c2.259-0.104,4.548-0.18,4.537-2.552c0.028-1.162-0.981-1.288-1.704-1.702
			c-0.357,0.016-0.391,0.365-0.848,0.284c-0.391-0.014-0.625,0.133-0.852,0.283c-15.279,0.481-30.473-0.474-45.372,0.567
			c-1.941,0.613-5.104,0.001-7.091,0.567c-1.541-0.215-2.299,0.35-3.688,0.284c-1.394-0.072-2.396,0.25-2.551,1.417
			c0.416,0.055,0.304,0.65,0.565,0.852c0.455,0.345,1.748,0.538,1.985,0.568C34.707,61.576,35.159,61.383,35.88,61.729z
			 M89.191,63.714h-6.52c-0.365,0.016-0.395,0.364-0.854,0.283H65.656c-4.241,0.485-8.539,0.915-12.762,1.419
			c-3.83,0.896-8.861,0.588-12.76,1.418h-3.403c-1.253-0.025-2.513-0.057-2.552,1.133c0.155,1.168,1.156,1.491,2.552,1.42
			c0.846,0.569,2.676,0.159,3.97,0.282c1.18,0.333,2.67,0.354,3.971,0.567c4.803,0.174,8.747-0.519,13.043-0.851
			c3.953-0.774,8.846-0.61,13.044-1.135c7.224-0.274,14.359,0.508,18.15,0c0.521,0.685,1.673-0.39,2.835,0
			c0.662-0.569,1.611-0.849,1.42-2.271C93.197,63.871,90.959,64.028,89.191,63.714z M90.613,72.787
			c-0.365,0.018-0.396,0.365-0.854,0.285c-8.257,1.953-18.238,2.18-28.643,1.984c-3.571,0.209-7.175,0.387-11.061,0.283
			c-0.699-0.037-1.364-0.043-1.7,0.283c-0.077-0.995-1.256,0.513-1.135-0.283c-2.037,0.516-4.902,0.198-7.371,0.283
			c-1.543-0.216-2.196,0.447-3.689,0.284c-0.681,0.641-1.979,0.663-1.698,2.269c0.192,1.223,1.011,1.821,2.551,1.702
			c0.581,0.836,3.106-0.271,3.687,0.565h4.254c0.754,0.004,1.619-0.106,1.985,0.283c0.093-0.941,1.236,0.748,1.417-0.283
			c5.162,0.646,10.956-0.283,16.733-0.283c5.868,0,11.746,0.273,17.012-0.567c2.778-0.151,4.854-1.008,7.375-1.417
			c2.051-0.88,5.521-0.341,5.39-3.402C94.479,73.082,92.98,72.498,90.613,72.787z M93.447,83.281
			c-0.361,0.016-0.396,0.363-0.85,0.283h-12.48c-4.553,0.729-9.623,0.844-14.461,1.135c-5.054,0.305-9.818,0.887-14.178,1.699
			c-4.51-0.064-8.388,0.5-13.047,0.287c-1.82,0.637-4.687,0.226-5.67,1.699c0.619,0.42,1.526,0.553,1.984,1.135
			c0.956,0.084,1.938,0.143,2.553,0.565c4.938-0.212,9.109,0.345,13.896,0.285c9.277-1.498,20.664-0.89,30.059-2.271h7.655
			c1.47-0.326,3.304-0.289,4.82-0.566h4.82c1.42-0.284,2.881-0.522,2.555-2.551C100.331,82.637,96.363,83.482,93.447,83.281z"/>
	</g>
</g>
</svg>
