<?xml version="1.0" encoding="utf-8"?>
<!-- Generator: Adobe Illustrator 16.0.0, SVG Export Plug-In . SVG Version: 6.00 Build 0)  -->
<!DOCTYPE svg PUBLIC "-//W3C//DTD SVG 1.1//EN" "http://www.w3.org/Graphics/SVG/1.1/DTD/svg11.dtd">
<svg version="1.1" id="Layer_1" xmlns="http://www.w3.org/2000/svg"  x="0px" y="0px"
	 width="120px" height="120px" viewBox="4 4 120 120" style="enable-background:new 4 4 120 120;" xml:space="preserve">
<g id="brush">
	<g>
		<path d="M112.2,112.9c-0.9-1.2-1.3-2.9-2.101-4.2c-1.3-2.8-3.1-5.2-4.399-8c-1.101-0.9-1.5-2.5-2.4-3.601
			c-0.8-1.3-1.399-2.8-2.399-3.899c-1.301-2.8-3-5.3-4.4-8c-6.2-10.2-13-19.8-18.7-30.5c-0.6-2.1-1.6-3.7-2.399-5.6
			C73.8,47.9,71.3,47.5,70.1,45.8c-2-0.9-3.399-2.3-5.6-3c-3.4-2.3-7.9-3.5-12.2-5c-0.9-0.5,1.1-1.2,0-1.8c-0.3-0.7-1-1-0.9-2.1
			c0-1.5,0.6-2.6,0.6-4.1c-0.8-2.6-1.3-5.4-2.4-7.7c-1.6-1.2-3-2.5-5-3.3c-3,0-6.3-0.1-8.9,0.3c-2.1-0.3-4-0.7-6.5-0.6
			C28,18,26.9,17.4,25,17.6c-1.6-2.3-4.5-3.4-5-6.8c-1.8,0.4-1.2-1.5-2.1-2.1h-0.6c-0.4,0.2-0.7,0.4-1.2,0.6
			c-0.3,0.6-0.9,0.9-0.9,1.8c-0.6,0.2,0.1,1.9-0.6,2.1c-0.3,5.3,0.6,9.5,1.2,13.9c1.3,2.6,2.4,5.3,4.2,7.4c1.4,2.5,3.6,4.4,5.3,6.5
			c2.6,1.7,5.1,3.6,8.6,4.4c0.9,0.4,2.4,0.2,3.3,0.6c1.5,0,2.6-0.4,3.9-0.6c-0.2,1.5,1.6,1,1.5,2.4c0.7,0.6,0.2,2.3,0.9,3
			c0.3,2.3,1.1,4.1,1.5,6.2c1.3,3.9,3.5,6.8,4.4,11c2.9,4.3,6.3,8.1,9.5,12.2c3.7,3.6,7.5,7.1,11.3,10.7
			c4.399,3,7.899,6.699,12.2,9.8c1.899,1.8,4.199,3.1,6.199,4.7c1.2,0.6,2.2,1.399,3.301,2.1c1.5,0.4,1.699,2,3.3,2.4
			c0.3,0.699,2,0,2.1,0.899c0.8,0.3,1.4,0.7,2.101,1.2c1.3,0.8,2.8,1.4,3.899,2.4c1.5,0.6,2.7,1.399,3.9,2.399
			c1.399,0.601,1.899,2.2,4.1,2.101c1-0.2,1.3-1.101,2.101-1.5C113.9,115.5,112.6,114.5,112.2,112.9z M37.5,36.4
			c-0.2-0.2,0.2-0.4,0.3-0.3C38,36.3,37.6,36.5,37.5,36.4z M41.7,28.1c-0.9-0.3-1.5-0.8-3-0.6c-0.9,0.6-1.7,1.3-1.5,3
			c-2-0.1-3,0.7-3.6,2.1c0,2.1,0.6,3.6,1.8,4.4c-0.2,1.1-1.7,0.8-2.1,1.8c-3.4-1.3-5.3-4.2-7.7-6.5c-0.7-1.7-2-2.8-2.7-4.4
			c-0.9-1.4-1.3-3.3-1.8-5V22c1.5,0.8,2.9,1.7,4.7,2.1c5,0.2,9.4-0.1,12.7-1.5c1-0.2,0.5,1.1,1.2,1.2c0.3,0.4,0.5,0.9,0.9,1.2
			C41.6,25.5,41.9,26.5,41.7,28.1z M42.3,34.9v-1.2c0.4,0.2,0.7,0.4,1.2,0.6C43.4,34.9,42.9,35,42.3,34.9z M46.4,29.6
			c0.2,0.2,0.5,0.3,0.9,0.3c0.2,1-0.2,1.4-0.3,2.1C46.3,31.7,46.4,30.6,46.4,29.6z M46.4,45.6c0-1.3-1.5-1.1-1.5-2.4
			c1.9-0.6,3.4-1.6,4.4-3c0.7,0.6,1.2,1.4,1.8,2.1c3,1.4,6.3,2.6,9.2,4.2c1.8,0.3,2.6,1.7,4.4,2.1c0.3,0.8,1.399,0.8,1.8,1.5
			c0.6,0.5,1.6,0.5,1.8,1.5c-2.899,1.1-5.2,2.9-8,4.2c-1.2,0.9-2.7,1.4-3.9,2.4c-1.5,0.5-2.3,1.6-3.9,2.1
			C50.5,55.4,48.2,50.8,46.4,45.6z M73.4,86.2C72.6,86.1,72,84.6,73.4,84.7C73.2,85.7,74,85.7,73.4,86.2z M101,106.1
			c-1.4,0-2-0.899-3-1.5c-1.3-0.199-1.7-1.199-2.7-1.8c-0.3-1-0.5-2.1-1.2-2.7c-0.3-2.199-0.8-4.199-2.399-5
			c-1,0.101-1.5,0.7-1.8,1.5c-2-1.399-1.301-5.399-3-7.1c-1.5-0.4-1.301,0.9-2.4,0.9c-0.6-2.2-1.2-4.301-2.1-6.2
			c-0.4-1-1.7-1.3-2.4-2.101h-2.4C77.3,80.9,76.8,79.9,77,78.2c-0.3-0.8-0.7-1.5-0.9-2.4C76,73.3,76.2,70.6,74,70.2
			c-1.5,0-1.4,1.6-2.1,2.399c-1.301,0-2.4-0.199-2.4-1.5c0-0.899,1-0.699,1.8-0.899c0.2-0.7,1-0.8,1.2-1.5c0.3-2.7-1.2-3.7-3.6-3.9
			c0.6-1.1-0.4-1.5-0.9-2.4c-4-0.3-5.9,1.7-8.3,3c-1.2,1-2.6,2-3,3.899c-1-0.3-1.1-1.5-1.8-2.1c2-2.601,5.5-3.6,8-5.6
			c2.9-1.5,5.6-3.3,8.3-5c0.3-0.1,0.5-0.3,0.6-0.6c0.3-0.1,0.3,0.1,0.3,0.3c0.301-0.1,0.301,0.1,0.301,0.3
			c1.399,2.8,3,5.3,4.699,7.7c1.7,2.5,3,5.3,4.4,8c0.5,0.7,0.8,1.601,1.8,1.8c0.5,1.5,1.601,2.5,2.4,3.9
			c0.8,1.2,1.399,2.5,2.399,3.6c0.7,1.4,1.301,2.801,2.4,3.9c0.4,1.6,1.3,2.7,2.1,3.9c1.2,2.899,3,5.1,4.2,8
			c1.101,1,1.601,2.6,2.4,3.899c0.7,1.2,1.8,2.2,2.1,3.9C101,105,100.9,105.4,101,106.1z"/>
	</g>
</g>
</svg>
