<?xml version="1.0" encoding="utf-8"?>
<!-- Generator: Adobe Illustrator 16.0.0, SVG Export Plug-In . SVG Version: 6.00 Build 0)  -->
<!DOCTYPE svg PUBLIC "-//W3C//DTD SVG 1.1//EN" "http://www.w3.org/Graphics/SVG/1.1/DTD/svg11.dtd">
<svg version="1.1" id="Layer_1" xmlns="http://www.w3.org/2000/svg"  x="0px" y="0px"
	 width="120px" height="120px" viewBox="4 4 120 120" style="enable-background:new 4 4 120 120;" xml:space="preserve">
<g id="bug">
	<g>
		<path d="M94.796,72.167c4.916-0.196,11.144,2.491,14.571-0.34c0.469-1.072,0.469-2.991,0-4.063
			c-2.092-1.977-7.066-1.062-10.506-1.699c-1.852-0.355-3.373,0.951-4.738,0c0.206-4.609-1.049-7.755-2.036-11.174
			c1.733,0.149,2.354-0.811,3.728-1.017c3.445-3.898,7.449-7.234,8.471-13.552v-4.746c-0.564-2.935-0.705-6.294-2.034-8.468
			c-0.81-2.279-1.97-5.876-5.421-4.403c-1.551,1.11-0.589,2.86-0.676,5.082c0.662,0.465,0.182,2.074,0.676,2.711
			c-0.234,1.361,0.324,1.932,0.341,3.05v6.774c-0.746,0.721-0.614,2.322-1.692,2.71c-0.231,1.236-1.287,1.652-1.694,2.711
			c-1.767,1.167-2.897,2.975-4.066,4.741c-0.714-1.656-2.173-2.57-2.706-4.402c-0.685-0.563-1.58-0.91-1.697-2.034
			c-0.678-0.679-1.722-0.991-2.031-2.031c0.199-2.061,0.591-3.928,1.018-5.761v-7.793c-1.141-6.763-5.246-10.566-10.164-13.549
			c-4.1-0.205-7.98,0.143-10.164,1.016c-1.395,0.558-2.549,0.916-3.392,1.354c-0.415,0.22-0.974,0.484-1.35,0.679
			c-3.065,1.546-5.054,3.086-6.779,5.418c-0.229,0.902-0.531,1.727-1.014,2.372c0.148,5.949,0.098,12.096,2.709,15.582
			c-0.86,0.382-1.653,0.834-2.372,1.358c-1.032,0.321-1.061,1.647-2.373,1.693c-0.531,1.051-1.385,1.779-2.029,2.709
			c-1.132,0.18-1.181,2.639-2.373,1.698c-1.92-1.016-2.898-2.974-4.404-4.407c-2.134-1.029-4.096-2.229-5.42-4.064
			c-0.246-0.771-0.305-1.731-0.678-2.371v-4.064c-0.445-1.591-0.353-3.72-0.341-5.76c-0.791-1.241-0.513-3.555-2.709-3.39
			c-1.074,0.062-2.022,0.239-2.032,1.354c-1.083,0.163-0.231,2.253-1.016,2.711v4.745c-0.447,1.587-0.353,3.716-0.341,5.758
			c0.369,1.323,0.772,2.616,1.019,4.066c0.394,0.507,0.979,0.828,1.013,1.693c2.039,1.69,3.79,3.665,6.438,4.743
			c0.839,0.856,1.336,2.056,2.37,2.711c0.575,1.234,1.883,1.732,3.052,2.372c-0.724,1.198-1.125,2.716-2.034,3.726
			c-0.438,1.82-0.771,3.746-1.692,5.081h-5.76c-1.069-0.166-1.194,0.612-2.373,0.339c-3.571,0.154-8.094-0.64-7.792,3.388
			c0.906,3.159,6.679,1.456,9.826,2.373h5.76c-0.072,5.382-0.146,10.761,1.014,14.907c-0.56-0.57-1.988-0.271-3.048-0.342
			c-4.846,2.724-7.717,7.416-8.81,13.889v8.134c1.186,3.562,2.478,7.009,5.762,8.472h2.373c0.304-0.598,1.245-0.561,1.353-1.354
			c1.068,0.16,0.257-1.556,1.021-1.692c-0.26-3.02-2.457-4.099-3.051-6.778v-6.78c0.42-1.717,0.928-3.359,1.353-5.078
			c1.709-1.455,2.144-4.182,4.745-4.745c3.387,7.456,8.781,12.903,16.6,15.923c-0.346,1.588,0.557,1.928,1.016,2.711
			c3.491,1.703,6.656,3.733,11.856,3.729c1.457-0.131,1.311-1.854,2.375-2.372c1.896,0.316,2.296-0.863,3.728-1.02
			c1.13-0.898,2.06-2.004,3.384-2.707c1.953-2.453,4.023-4.789,5.762-7.455c0.673-1.586,1.914-2.604,2.373-4.401
			c1.149-1.108,1.447-3.071,2.709-4.065c-0.055,1.521,1.129,1.806,1.692,2.711c2.421,1.524,5.14,2.762,6.438,5.42
			c-0.108,0.785,0.054,1.299,0.337,1.692c0.612,4.753-1.683,10.437,1.021,13.216c1.139,0.211,1.734,0.971,3.387,0.674
			c1.088-0.268,1.479-1.228,2.371-1.691c0.427-3.326,0.961-7.628,0.682-11.52c-0.141-1.834-0.604-4.806-1.361-5.42
			c-0.098-0.082,0.064-0.557,0-0.679c-0.216-0.45-0.838-0.696-0.675-1.354c-1.55-1.053-2.452-2.742-4.401-3.391
			c-1.184-1.525-3.418-2.003-5.086-3.05h-2.031c-0.092,0.31-1.264,1.14-1.354,0.341c0.779-2.044,1.508-4.142,2.03-6.438
			C94.334,77.348,93.717,73.905,94.796,72.167z M52.79,93.172c-1.396-0.979-2.166-2.582-3.391-3.729
			c0.385-1.387,1.454,0.265,2.711,0c2.16-0.496,1.557-2.906,1.019-4.74c1.902-4.424,4.652-7.996,7.113-11.859
			c0.288-0.062,0.317,0.133,0.336,0.338v6.778c-0.464,0.771,0.877,1.272,0,1.353c0.107,0.896-0.705,0.873-1.35,1.018
			c-0.299,0.497-0.51,1.074-1.361,1.018c-0.879,1.602-2.141,2.825-3.048,4.403C54.279,89.695,53.291,91.189,52.79,93.172z
			 M58.888,94.865c-0.763,0.367-0.13,2.129-1.695,1.693c-0.77-0.766,0.229-1.488,0.675-2.033c0.265-0.866,0.341-1.92,1.021-2.373
			c0.369-1.885,1.356-3.156,2.027-4.739c0.705,0.88,0.724,2.44,0.682,4.065c-0.705,0.196-1.097,0.711-1.695,1.016
			C59.901,93.623,58.8,93.65,58.888,94.865z M61.936,98.592c-0.673-0.004-0.432-0.923-1.357-0.677
			c0.332-1.022,0.694-2.021,1.019-3.05C62.371,95.443,61.72,97.452,61.936,98.592z M60.578,69.796
			c-1.927,0.101-2.723,1.341-4.061,2.031c-1.113,1.036-2.505,1.793-3.053,3.388c-0.709,0.422-1.271,0.985-1.692,1.695
			c-0.599,0.535-0.703,1.555-1.693,1.693c-0.028-1.215-0.526-1.961-0.68-3.052c2.419-5.934,5.998-10.716,10.502-14.566
			c-0.211-1.216-2.269-0.552-2.709,0c-1.387,0.082-1.786,1.152-3.048,1.354c-0.83,0.637-1.537,1.402-2.709,1.693
			c-0.687,0.785-1.127,1.81-2.375,2.029c0.337-3.502,3.039-4.636,4.068-7.448c1.909-2.042,3.859-4.043,5.418-6.438
			c-0.172-1.52-1.115-2.269-2.37-2.708c-1.547-0.304-1.921,0.563-3.048,0.678c0.03,0.408-0.494,0.207,0,0
			c0.371-1.658,2.055-2.01,2.709-3.39c1.064,0.162,1.324-0.48,2.029-0.676c0.979-0.041,0.592-1.442,1.698-1.355
			c1.053,0.975,2.725,1.34,3.386,2.71C61.555,54.282,60.694,61.667,60.578,69.796z M61.936,39.645c-0.68-0.14-2.512-0.839-3.048,0
			c-0.784-1.138-0.118-3.723-0.341-5.424c0.267-1.394-0.52-1.737-0.339-3.047c4.328-1.656,9.157-2.816,8.81-9.147
			c0.957,0.282,0.877-0.478,1.692-0.34c0.944-0.542,0.938,1.463,0.339,1.357v2.033c0.45,1.473,1.564,2.275,2.372,3.386
			c1.821,0.324,3.871,0.42,6.099,0.34c-0.192,2.63,0.41,6.056-0.338,8.131c-1.092,0.076-1.433-0.601-2.713-0.338
			c-1.809,0.445-2.943,1.575-4.404,2.369c-1.502,0.755-2.391,2.128-4.064,2.711C64.371,41.276,63.454,40.155,61.936,39.645z
			 M86.327,74.539c-1.179,6.387-3.62,11.51-6.438,16.26c-1.371,2.469-3.058,4.623-4.74,6.775c-0.777,1.144-1.955,1.885-2.709,3.05
			c-0.604,0.308-1.053,0.757-1.354,1.354c-0.599-0.097-1.051,1.597-1.356,0.681V93.51c-2.181-14.262-0.732-30.227-2.711-44.381
			c-0.526-1.203,1.149-0.204,1.019-1.018c0.604,0.045,0.715-0.413,1.354-0.335c0.713-0.414,0.984-1.278,2.03-1.357
			c1.271-1.098,2.851-1.893,4.407-2.709c0.246-0.317,0.613-0.515,1.014-0.678c0.275,0.064,0.34,0.34,0.678,0.34
			c0.51,0.958,0.381,2.557,1.021,3.386c3.071,5.621,6.97,10.419,7.788,18.295L86.327,74.539L86.327,74.539z"/>
	</g>
</g>
</svg>
