<?xml version="1.0" encoding="utf-8"?>
<!-- Generator: Adobe Illustrator 16.0.0, SVG Export Plug-In . SVG Version: 6.00 Build 0)  -->
<!DOCTYPE svg PUBLIC "-//W3C//DTD SVG 1.1//EN" "http://www.w3.org/Graphics/SVG/1.1/DTD/svg11.dtd">
<svg version="1.1" id="Layer_1" xmlns="http://www.w3.org/2000/svg"  x="0px" y="0px"
	 width="120px" height="120px" viewBox="4 4 120 120" style="enable-background:new 4 4 120 120;" xml:space="preserve">
<g id="arrow2-right">
	<g>
		<path d="M113.355,52.988c-0.34-0.348-0.332-1.039-0.291-1.764c-1.965-7.633-5.106-14.089-9.404-19.392
			c-4.152-5.545-9.318-10.073-15.572-13.516c-5.723-2.017-11.674-3.801-18.805-4.408c-5.282-0.266-9.955,0.562-14.69,0
			c-0.067,0.229-0.248,0.342-0.585,0.294c-4.508,1.178-8.655,2.709-12.343,4.701c-4.486,1.194-7.224,4.137-11.166,5.877
			c-3.088,3.375-6.146,6.783-8.815,10.576c-3.022,5.988-4.549,13.472-7.052,19.981c-0.117,6.484,0.05,12.685,0.883,18.218
			c0.424,6.04,2.758,10.17,4.701,14.689c0.894,0.184,0.576,1.579,1.469,1.764c0.139,0.939,1.121,1.034,1.175,2.057
			c1.349,0.906,2.076,2.432,3.232,3.525c0.205,0.873,0.966,1.19,1.469,1.764c0.305,0.772,1.167,0.988,1.469,1.763
			c1.321,0.932,2.215,2.289,3.528,3.231c2.364,2.041,4.626,4.188,7.345,5.877c1.066,1.086,2.719,1.59,3.82,2.644
			c1.037,0.042,1.312,0.842,2.351,0.883c0.386,0.786,1.854,0.496,2.351,1.176c1.999,0.142,3.577-0.145,5.288-0.294
			c0.543,0.436,1.396,0.562,2.348,0.588c0.465,0.026,1.022-0.039,0.884,0.586h5.287c1.086-0.187,2.929,0.381,3.526-0.293
			c0.504-0.673,2.245-0.106,3.232-0.293c0.697-0.578,2.63,0.081,3.232-0.588c4.803-0.093,8.496-1.296,12.34-2.351
			c0.066-0.229,0.248-0.343,0.59-0.296c1.701-1.432,4.102-2.166,5.287-4.112c2.242-0.988,3.869-2.597,5.875-3.817
			c1.248-1.494,2.621-2.865,4.113-4.113c0.312-1.062,1.113-1.629,1.766-2.353c0.464-0.907,1.011-1.729,1.761-2.351
			c0.614-3.598,2.803-5.623,3.819-8.815c1.711-2.5,3.129-5.294,4.115-8.521C113.186,69.038,113.542,60.455,113.355,52.988z
			 M110.123,65.328c0.242,2.3-0.453,3.658-0.586,5.584c-1.012,1.045-0.196,3.919-0.881,5.287c-1.35,4.527-4.16,7.593-5.879,11.753
			c-0.834,0.534-1.125,1.614-1.762,2.353c-0.877,0.397-1.222,1.324-1.765,2.057c-0.489,0.563-1.703,1.379-1.174,2.057
			c-0.865,0.406-1.188,1.355-2.058,1.762c0.258,0.945-0.967,0.402-0.881,1.176c-0.601,0.088-0.576,0.797-1.176,0.883
			c-0.479,0.793-1.148,1.397-2.057,1.762c-1.064,1.482-3.049,2.045-4.113,3.527c-1.984,0.268-2.828,1.68-4.701,2.057
			c-1.393,0.859-3.26,1.244-4.701,2.057c-8.66,0.838-16.699,2.301-26.441,2.055c-0.009-0.282-0.363-0.227-0.59-0.291
			c-4.152-0.646-6.945-2.651-10.283-4.113c-1.81-1.62-3.684-3.173-5.583-4.702c-0.939-1.214-2.126-2.182-2.937-3.526
			c-0.871-1.187-2.118-1.996-2.647-3.522c-1.302-0.853-1.68-2.628-2.935-3.526c-0.137-0.941-1.118-1.037-1.178-2.058
			c-0.503-0.478-1.039-0.917-1.467-1.47c-0.096-1.079-0.727-1.625-0.883-2.645c-0.706-0.369-0.592-1.562-1.175-2.056
			c-0.282-0.896-0.348-2.005-1.175-2.353c-0.604-0.475-0.742-1.414-1.176-2.057c0.047-0.344-0.067-0.523-0.294-0.587
			c-1.123-4.658-1.754-9.806-1.467-15.866c0.587-2.741,1.157-5.503,1.467-8.522c0.32-3.01,1.361-5.295,2.352-7.639
			c1.957-4.604,4.939-8.182,7.639-12.046c1.491-0.859,2.085-2.617,3.818-3.232c0.782-1.471,2.629-1.877,3.527-3.231
			c1.68-0.768,3.181-1.716,4.701-2.646c1.871-0.579,3.083-1.812,4.701-2.643c2.945-0.288,5.052-1.412,7.935-1.764
			c2.818-0.412,5.65-0.814,8.227-1.469c0.339,0.048,0.52-0.063,0.585-0.294c5.142-0.143,9.89,0.103,14.398,0.587
			c0.726,0.648,2.091,0.654,2.941,1.176c2.176,0.464,3.459,1.827,5.286,2.646c0.644,0.629,1.738,0.808,2.351,1.469
			c0.822,0.452,2.279,0.266,2.353,1.469c0.535,0.74,1.256,1.289,2.352,1.47c0.527,0.744,1.439,1.104,2.35,1.468
			c1.197,1.348,2.738,2.354,4.111,3.525c5.293,6.167,9.332,13.59,11.168,23.213c0.195,2.498,0.195,2.496,0,4.994v3.232
			C110.236,63.481,110.789,65.016,110.123,65.328z M101.016,49.755c-0.678-0.496-0.386-1.96-1.173-2.351
			c-0.097-1.078-0.727-1.624-0.884-2.644c-0.639,0.049-0.131-1.043-0.292-1.47c-0.396-0.193-0.55-0.628-0.589-1.175
			c-0.666-0.608-0.918-1.629-1.176-2.646c-1.356-1.188-1.875-3.22-3.525-4.114c-0.715-1.832-2.57-2.521-3.523-4.113
			c-2.908-2.187-5.166-5.021-8.816-6.463c-2.239-0.7-5.034-0.842-7.344-1.469c-2.68-0.458-5.567-0.701-8.816-0.589
			c-0.064,0.229-0.245,0.343-0.587,0.296c-5.859-0.084-9.86,1.693-14.69,2.643c-4.029,2.143-7.776,4.566-11.461,7.053
			c-0.461,0.712-1.051,1.299-1.76,1.762c-0.596,0.68-0.978,1.571-2.058,1.765c0.308,1.287-0.995,0.963-0.883,2.056
			c-0.772,0.205-0.62,1.337-1.467,1.47c-0.584,1.475-1.431,2.682-2.351,3.819c-0.293,0.654-0.566,1.419-0.883,2.056
			c-0.375,0.759-0.704,1.433-1.176,2.058c-0.422,1.635-0.856,3.254-1.762,4.407c0.182,2.926-0.594,4.891-0.882,7.345
			c-0.089,4.401,0.037,8.583,0.589,12.341c1.739,5.509,3.083,11.411,6.169,15.572c1.279,2.345,3.385,3.861,4.703,6.172
			c0.879,0.979,1.818,1.898,2.643,2.938c1.041,0.819,2.238,1.483,2.937,2.645c1.581,0.381,3.15,0.77,4.408,1.469
			c1.095,0.961,2.791,1.324,4.112,2.059c3.259,0.854,7.217,1.015,11.462,0.881c1.533-0.129,1.875-1.454,3.523-1.469
			c5.061,0.455,7.936-1.271,11.754-2.059c3.885-2.285,8.057-4.288,12.34-6.169c-0.143-0.365,0.51-0.173,0.59-0.293
			c0.437-0.679-0.338-2.112,0.586-2.058c0.408-0.869,1.355-1.191,1.765-2.06c1.354-1.092,2.608-2.285,3.524-3.817
			c0.929-0.246,0.836-1.516,1.765-1.764c-0.572-0.718,0.752-1.425,0.882-2.351c1.062-1.482,2.005-3.087,2.645-4.995
			c0.287-0.887,0.601-1.751,0.883-2.645c0.557-4.242,0.65-8.945,0.584-13.809C102.305,56.5,101.623,53.165,101.016,49.755z
			 M95.141,74.438c-0.104,1.562-1.201,2.131-1.471,3.525c-0.436,0.127,0.117,0.376,0,0.881c-0.156,0.235-0.305,0.477-0.293,0.881
			c0.076,0.861-0.665,0.903-0.586,1.765c-1.998,2.409-4.207,4.606-6.76,6.464c-0.871,0.592-1.094,0.961-1.176,1.764
			c-0.554,0.523-1.358,0.794-1.763,1.471c-1.278,0.873-2.52,1.789-3.819,2.644c-1.416,0.892-1.264-0.924-2.938-0.588
			c-1.493,0.858-3.09,1.61-4.703,2.351c-1.708-0.15-4.049,0.33-5.286-0.294c-2.34,0.795-5.713,0.558-8.816,0.587
			c-4.314-0.287-7.553-1.652-10.872-2.938c-0.53-0.641-1.066-1.281-2.351-1.176c-0.041-0.543-0.995-0.181-1.176-0.586
			c-0.583-0.004-0.373-0.802-1.175-0.59c-1.106-1.144-2.611-1.891-3.82-2.937c-1.881-2.623-3.564-5.445-5.286-8.228
			c-0.202-1.662-0.935-2.789-1.177-4.408c-0.444-0.536-0.312-1.646-0.881-2.057c-0.115-0.768-0.149-1.611-0.585-2.056
			c-0.038-0.849,0.16-1.925-0.297-2.351c-0.439-5.373,0.776-10.542,0.297-14.986c0.053-1.021,1.036-1.116,1.171-2.058
			c0.442-0.634,0.328-1.826,1.179-2.056c0.422-1.729,1.73-2.577,2.352-4.113c1.764-2.447,3.706-4.715,5.58-7.052
			c1.576-0.777,2.367-2.332,4.116-2.939c0.941-1.405,2.985-1.713,4.111-2.938c2.737-0.884,5.268-1.98,7.64-3.23
			c1.024-0.149,2.221-0.133,2.938-0.587h11.46c2.941,0.484,5.641,1.214,8.814,1.468c2.111,1.609,4.383,3.062,6.463,4.701
			c3.432,4.504,6.531,9.337,8.816,14.984c0.268,2.228-0.106,3.772,0,6.465C95.426,61.808,95.016,68.389,95.141,74.438z
			 M73.984,46.229c-2.577-1.339-4.358-3.476-6.463-5.288c-0.018-0.179-0.043-0.348-0.297-0.294
			c-0.067,0.419-0.482,0.496-0.584,0.881c-0.681,0.793-0.104,2.835-0.295,4.113c-0.14,1.161-0.801,2.548-0.884,3.233
			c-0.116,0.992,0.365,0.771,0.294,1.469c-0.027,0.291-0.212,0.352-0.294,0.587c-1.787,0.222-2.662-0.47-4.407-0.293
			c-1.21-0.232-1.506,0.451-2.643,0.293h-7.936c-2.661,0-5.409-0.393-7.346,0.587c-1.456,1.189-0.694,4.592-0.879,7.053
			c-0.034,2.611,0.157,5.445-0.296,7.64c0.454,1.587,0.17,3.636,0.883,4.702c0.899,0.375,1.467,1.077,2.644,1.174
			c1.594,0.225,2.278-0.465,3.821-0.294c5.359,0.44,10.67,0.813,15.867,0c-0.591,2.21,0.214,4.187-0.296,6.171
			c0.286,2.251-1.081,4.958,0.296,6.463c2.145,0.286,3.105-0.615,3.816-1.763c0.943-0.302,1.686-1.113,2.352-1.765
			c2.213-2.151,4.023-4.433,6.464-6.168c1.71-2.013,3.728-3.72,5.29-5.879c1.029-0.828,2.074-1.646,2.645-2.937
			c1.068-0.793,2.218-1.505,2.646-2.938c-1.996-3.196-4.53-5.854-7.053-8.521C78.564,52.032,76.462,48.945,73.984,46.229z
			 M48.128,67.091v-1.469c0.754,0.026,0.42,1.147,1.177,1.176C49.215,67.195,48.569,67.041,48.128,67.091z M48.424,57.101
			c-0.28-1.061,1.158-0.41,1.761-0.586C49.822,56.935,49.176,57.07,48.424,57.101z M50.773,56.809
			c0.009-0.287,0.358-0.229,0.586-0.294h0.882c-0.008,0.284-0.359,0.228-0.586,0.294H50.773z M51.95,67.091
			c-0.214-0.897,0.299-1.069,0.292-1.763c0.598,0.186,0.193,1.374,0.882,1.47C53.033,67.195,52.389,67.041,51.95,67.091z M59,56.515
			c0.088-0.399,0.737-0.244,1.177-0.295C60.093,56.9,59.393,56.895,59,56.515z M64.581,55.925h0.591v0.59
			c-0.389,0.352-0.465,0.112-0.883,0C64.343,56.276,64.584,56.221,64.581,55.925z M64.581,66.21c0.478,0.503,0.89,1.067,0.882,2.058
			C63.903,68.594,64.267,66.997,64.581,66.21z M69.873,74.438c-0.65-0.037-0.127-1.248-0.297-1.765c0.586,0.488,0.373-0.026,1.178,0
			C71.007,73.812,70.035,73.719,69.873,74.438z"/>
	</g>
</g>
</svg>
