<?xml version="1.0" encoding="utf-8"?>
<!-- Generator: Adobe Illustrator 16.0.0, SVG Export Plug-In . SVG Version: 6.00 Build 0)  -->
<!DOCTYPE svg PUBLIC "-//W3C//DTD SVG 1.1//EN" "http://www.w3.org/Graphics/SVG/1.1/DTD/svg11.dtd">
<svg version="1.1" id="Layer_1" xmlns="http://www.w3.org/2000/svg"  x="0px" y="0px"
	 width="120px" height="120px" viewBox="4 4 120 120" style="enable-background:new 4 4 120 120;" xml:space="preserve">
<g id="arrow2-up">
	<g>
		<path d="M114.404,60.419c-0.465-6.556-1.331-12.708-3.26-17.796c-1.535-1.53-1.888-4.245-4.156-5.041
			c-0.329-1.253-0.908-2.252-1.775-2.967c-0.166-1.417-1.527-1.638-1.781-2.964c-1.656-1.21-2.789-2.945-4.447-4.152
			c-1.438-1.429-3.326-2.407-4.746-3.857c-3.631-0.617-5.676-2.825-8.898-3.854c-2.521-1.726-5.342-3.157-8.602-4.152
			c-5.866-1.347-13.286-1.142-19.866-1.779c-0.069,0.231-0.25,0.346-0.595,0.298c-10.2,0.477-16.543,4.811-23.133,8.896
			c-2.721,2.616-5.952,4.725-8.307,7.709c-2.544,2.794-4.619,6.057-6.52,9.49c-0.981,3.569-2.29,6.806-2.968,10.678
			c-0.373,1.9-0.92,3.628-0.889,5.933c-0.355,0.83-0.327,2.046-0.295,3.262c-0.87,0.319-0.963,1.409-0.893,2.67
			c0.534,3.576,1.665,6.562,0.893,10.677c0.638,0.84,0.543,2.42,1.185,3.26c-0.008,1.492,0.799,2.17,0.889,3.561
			c1.121,1.848,1.866,4.064,2.668,6.229c1.013,1.953,1.961,3.971,2.968,5.931c1.405,1.659,2.435,3.696,3.555,5.637
			c0.976,0.511,1.405,1.563,2.375,2.075c0.881,0.702,1.471,1.695,2.671,2.077c1.438,1.724,3.182,3.143,5.336,4.151
			c3.467,2.563,8.967,3.092,12.459,5.635c3.759-0.5,5.156,1.365,8.005,1.779c8.26,0.252,15.611-0.406,22.541-1.484
			c3.547-1.198,7.062-2.428,10.084-4.151c3.135-1.905,5.843-4.237,8.895-6.229c3.075-3.252,6.201-6.453,8.898-10.082
			c2.839-3.487,5.556-7.099,7.119-11.862C114.652,74.22,115.1,66.773,114.404,60.419z M108.771,77.025
			c-0.553,0.045-0.185,1.005-0.597,1.188c-0.784,2.278-2.123,4.006-3.559,5.635c-0.443,2.619-2.205,3.922-3.263,5.933
			c-2.574,3.454-5.457,6.602-8.303,9.786c-1.221,0.658-2.045,1.714-3.264,2.371c-0.087,0.802-1.248,0.533-1.482,1.188
			c-0.09,0.802-1.248,0.533-1.48,1.188c-4.032,0.812-7.719,1.976-11.272,3.264c-9.171-0.18-17.264-0.278-26.396,0
			c-1.723-0.551-2.848-1.7-3.854-2.967c-1.51-0.666-2.764-1.584-4.152-2.371c-2.726-1.623-5.343-3.359-8.008-5.045
			c-1.088-1.379-2.434-2.506-3.558-3.854c-0.405-2.068-2.195-2.752-3.263-4.152c-0.304-1.873-1.328-3.021-2.372-4.151
			c0.165-2.044-1.279-2.479-1.19-4.447c-0.743-1.037-0.865-2.694-1.481-3.856c-0.043-0.941-0.671-1.303-0.593-2.373
			c-0.787-0.104-0.27-1.512-0.892-1.776c-0.171-1.608-0.561-2.997-1.185-4.151c0.286-2.955-0.465-4.875-0.89-7.119
			c-0.225-4.08,0.383-7.33,0.596-10.975c0.585-0.994,0.972-2.188,1.184-3.559c1.526-2.922,3.354-5.544,4.747-8.601
			c-0.262-0.952,0.768-0.614,0.887-1.188c0.952,0.262,0.615-0.768,1.188-0.89c0.233-1.151,0.934-1.831,1.481-2.668
			c0.917-1.854,2.482-3.056,3.56-4.744c6.568-5.591,14.133-10.187,24.912-11.567c0.345,0.049,0.526-0.065,0.595-0.296
			c2.136,0.585,7.358-0.027,10.38,0.593c1.189-0.203,1.691,0.284,2.668,0.296c0.527,0.361,1.725,0.055,2.074,0.594
			c1.312,0.565,3.803-0.045,5.045,0.594c4.568,1.359,7.662,4.198,11.861,5.93c0.377,0.909,1.699,0.873,2.074,1.782
			c0.781,0.405,1.122,1.246,2.077,1.48c0.427,0.855,1.425,1.146,2.074,1.78c0.168-0.861,0.463,0.454,0.89,0.295
			c0.166,0.428,0.461,0.723,0.893,0.891c0.712,0.671,1.209,1.558,2.076,2.076c0.377,1.007,1.642,1.122,1.778,2.372
			c1.66,1.107,2.261,3.273,3.854,4.449c0.27,2.004,1.697,2.852,2.076,4.745c0.867,1.406,1.256,3.291,2.078,4.744
			C110.002,57.788,110.689,68.857,108.771,77.025z M103.729,64.273c-0.39-0.699-0.127-2.049-0.595-2.668v-3.856
			c-0.64-0.841-0.545-2.421-1.186-3.262c0.098-1.68-0.871-2.293-0.888-3.856c-1.188-1.877-1.856-4.275-2.969-6.229
			c-1.066-1.998-2.34-3.789-3.559-5.634c-0.734-0.75-1.166-1.8-2.077-2.372c-0.474-1.107-1.845-1.32-2.078-2.67
			c-1.778-0.986-3.72-1.813-4.745-3.56c-1.689-1.073-3.347-2.186-5.04-3.262c-1.544-1.224-3.522-2.015-5.337-2.966
			c-1.711-1.059-3.455-2.08-6.229-2.075c-0.561-0.066-0.656,0.334-1.187,0.296c-3.329-0.165-5.965,0.365-8.899,0.594
			c-5.604,2.896-12.583,4.42-18.683,6.82c-3.736,2.788-7.074,5.978-10.675,8.896c-0.66,1.717-1.933,2.815-2.375,4.745
			c-0.881,1.592-1.696,3.246-2.375,5.042c-0.434,3.127-1.513,5.605-1.479,9.194c-0.677,2.984-0.113,7.204-0.295,10.677
			c0.359,1.713,0.79,3.357,0.889,5.34c1.285,2.172,2.047,4.867,2.964,7.414c2.168,2.971,4.243,6.036,6.228,9.191
			c1.705,1.263,2.927,3.006,4.45,4.449c1.051,0.43,1.764,1.201,2.373,2.076c0.807,0.676,1.651,1.312,2.37,2.076
			c0.232,0.065,0.585,0.008,0.596,0.296c4.73,2.39,9.248,4.984,15.42,5.933c6.707,0.082,13.488,0.242,18.386-1.482
			c1.529-0.352,2.231-1.529,3.562-2.077c0.849-1.032,2.69-1.063,3.856-1.778c2.494-1.358,5.207-2.5,7.115-4.448
			c1.39-0.488,2.099-1.658,3.265-2.372c0.901-0.977,1.649-2.107,2.669-2.967c0.585-1.291,1.729-2.028,2.669-2.967
			c1.237-0.738,1.762-2.19,2.668-3.262c0.267-1.021,0.722-1.849,1.188-2.668c0.836-4.305,0.965-9.314,0.888-14.533
			C104.92,65.059,104.006,64.984,103.729,64.273z M98.688,77.324c-0.472,1.309-1.479,2.083-2.076,3.262
			c-0.901,0.778-1.178,2.186-2.076,2.965c-1.182,2.182-2.887,3.835-4.451,5.635c-3.631,2.301-7.057,4.806-10.973,6.821
			c-0.896,0.586-3-0.038-3.854,0.595c-2.036-0.256-1.782,1.774-3.56,1.777H56.276c-1.707-0.468-3.357-0.993-4.747-1.777
			c-1.306-0.871-3.229-1.121-4.449-2.076c-1.071-0.312-1.641-1.127-2.373-1.779c-0.814-0.566-1.509-1.26-2.073-2.076
			c-1.991-0.777-2.861-2.676-4.451-3.855c-1.332-1.438-2.024-3.512-3.558-4.744c-0.204-1.18-1.472-1.295-1.779-2.372
			c-0.797-0.49-1.063-1.505-1.779-2.076c-0.709-2.86-2.312-6.092-2.67-9.788c-0.124-1.295,0.042-2.7,0-4.152
			c-0.081-2.688-0.392-5.319,0-8.601c0.009-0.064,0.281-0.324,0.298-0.592c0.052-0.97,0.42-2.341,0.592-3.56
			c0.6-0.189,0.195-1.387,0.887-1.483c0.445-0.35,0.839-0.744,1.188-1.187c0.321-1.162,0.39-2.577,1.482-2.966
			c0.357-1.226,1.137-2.025,2.075-2.669c0.258-1.225,1.68-1.287,2.077-2.373c5.614-3.481,12.038-6.151,18.389-8.896h0.592
			c0.059-0.337,0.297-0.164,0.297,0c0.35,0.439,1.119,0.463,1.484,0.891c3.769-0.869,7.885-0.82,11.86-0.593
			c0.424,0.022,1.104-0.311,1.481-0.298c-0.016,0,0.633,0.557,0.892,0.298c0.274-0.274,0.271-0.021,0.891,0
			c0.845,0.027,1.771-0.021,2.668,0c0.487,0.499,1.609,0.367,2.077,0.89c0.902-0.015,1.155,0.625,1.781,0.889
			c1.328,0.449,2.129,1.43,3.556,1.781c1.706,1.853,3.127,3.99,5.341,5.336c0.696,1.775,2.01,2.934,2.668,4.745
			c0.299,0.592,0.739,1.039,1.188,1.483c0.349,0.443,1.23,0.35,1.188,1.187c1.11,2.845,1.787,6.12,2.668,9.194
			c0.142,1.537-0.32,3.682,0.297,4.745c-0.252,2.129,1.758,2,1.779,3.855C99.041,68.861,98.582,73.375,98.688,77.324z M81.189,55.97
			c-2.188-1.568-3.578-3.935-5.638-5.636c-3.444-3.969-7.737-7.088-11.269-10.974h-0.891c-0.002,0.394-0.52,0.272-0.591,0.595
			c-1.418,0.957-2.593,2.15-4.154,2.965c-3.515,4.097-7.762,7.461-11.863,10.974c-0.743,1.431-1.825,2.524-2.67,3.855
			c-0.778,0.306-0.996,1.177-1.779,1.483c-0.146,0.781-1.632,0.998-0.888,1.778c0.766,1.013,3.104,0.453,4.747,0.595
			c1.17,0.142,2.568,0.807,3.259,0.889c1.005,0.121,0.784-0.366,1.486-0.297c0.295,0.031,0.353,0.216,0.591,0.297
			c0.227,1.807-0.472,2.688-0.295,4.447c-0.232,1.222,0.456,1.522,0.295,2.67v8.009c0,2.688-0.394,5.462,0.595,7.413
			c1.199,1.471,4.633,0.705,7.12,0.891c2.632,0.033,5.497-0.16,7.708,0.296c1.604-0.456,3.67-0.171,4.746-0.89
			c0.38-0.906,1.087-1.48,1.188-2.67c0.225-1.608-0.472-2.296-0.298-3.854c0.447-5.41,0.822-10.771,0-16.015
			c1.8,0.224,3.306,0.423,5.042,0c0.695,0.785,3.186-0.221,3.855,0.592c1.421-0.062,3.26,0.296,3.854-0.592
			c0.36-2.141-0.693-2.864-1.479-3.856C83.09,57.826,81.939,57.096,81.189,55.97z M56.571,62.792
			c0.481-0.085,0.512,0.278,0.892,0.295c-0.166,0.617-0.461,0.63-0.892,0.297V62.792z M57.462,77.025
			c-0.248,0.94-0.392-0.525-0.296-0.89C57.416,75.193,57.558,76.662,57.462,77.025z M56.872,67.832
			c0.686,0.083,0.681,0.793,0.294,1.188C56.764,68.926,56.92,68.275,56.872,67.832z M57.166,77.916
			c0.426,0.365,0.56,1.02,0.595,1.779C56.687,79.977,57.346,78.527,57.166,77.916z M66.357,79.992
			c0.029-0.764,1.16-0.424,1.189-1.188c0.398,0.092,0.243,0.743,0.296,1.188H66.357z M66.061,75.84
			c0.194-0.604,1.39-0.195,1.487-0.889c0.399,0.091,0.243,0.742,0.296,1.186C66.939,76.352,66.762,75.834,66.061,75.84z
			 M66.952,63.384c0.51-0.481,1.08-0.896,2.077-0.89C69.357,64.072,67.75,63.702,66.952,63.384z M73.477,58.342
			c0.496-0.588-0.026-0.377,0-1.186c1.149-0.259,1.056,0.725,1.781,0.89C75.221,58.7,74,58.171,73.477,58.342z"/>
	</g>
</g>
</svg>
