<?xml version="1.0" encoding="utf-8"?>
<!-- Generator: Adobe Illustrator 16.0.0, SVG Export Plug-In . SVG Version: 6.00 Build 0)  -->
<!DOCTYPE svg PUBLIC "-//W3C//DTD SVG 1.1//EN" "http://www.w3.org/Graphics/SVG/1.1/DTD/svg11.dtd">
<svg version="1.1" id="Layer_1" xmlns="http://www.w3.org/2000/svg"  x="0px" y="0px"
	 width="120px" height="120px" viewBox="4 4 120 120" style="enable-background:new 4 4 120 120;" xml:space="preserve">
<g id="circled-cross">
	<g>
		<path d="M101.484,43.557c-2.07-3.35-4.279-6.561-6.846-9.414c-1.548-1.211-3.099-2.416-4.281-3.994
			c-1.437-1.323-3.109-2.407-4.562-3.709c-4.373-1.999-8.77-3.977-14.836-4.28c-0.164-0.692-1.848,0.135-1.713-0.856
			c-0.9,0.049-0.955-0.757-1.994-0.571c-1.322-0.674-3.223-0.769-5.137-0.854c-0.062,0.221-0.241,0.332-0.569,0.285
			c-7.781,0.208-13.337,2.64-18.828,5.133c-0.881,1.213-2.709,1.477-3.426,2.855c-1.305,0.884-2.064,2.312-3.707,2.853
			c-0.871,1.321-2.302,2.073-3.426,3.14c-0.176,0.866-0.631,1.456-1.711,1.426c-0.574,0.566-1.01,1.271-1.712,1.712
			c-2.411,3.581-4.81,7.173-6.562,11.412c-3.041,6.826-2.338,17.786-1.713,26.817c1.122,4.113,2.379,8.082,4.279,11.412
			c2.008,3.225,4.354,6.107,6.562,9.128c0.318,0.063,0.443,0.318,0.57,0.573c2.68,2.173,5.32,4.377,8.276,6.275
			c3.292,1.744,6.019,4.059,10.553,4.563c0.714,0.804,2.366,0.028,3.425,0c2.758-0.073,6.146,0.606,10.27,0.283
			c-0.048-0.616,1.011-0.127,1.429-0.283c2.733-0.782,4.891-2.144,7.416-3.139c2.957-0.747,5.893-1.525,8.559-2.568
			c4.121-1.871,7.392-4.591,10.841-7.133c1.58-1.462,2.442-3.642,3.996-5.135c1.969-1.074,3.256-2.83,4.848-4.277
			c1.307-2.12,2.746-4.103,3.996-6.278c1.028-2.869,1.99-5.807,2.567-9.129C108.461,58.452,105.195,50.785,101.484,43.557z
			 M98.918,76.365c-0.391,1.32-1.301,2.123-2.281,2.854c-0.342,1.37-1.697,1.729-1.998,3.139c-0.93,0.777-1.49,1.935-2.283,2.854
			c-1.434,0.939-2.858,1.893-4.563,2.566c-1.215,1.395-2.44,2.522-3.994,3.709c-0.286,0.221-0.562,0.35-0.854,0.57
			c-0.361,0.271-0.709,0.44-1.142,0.856c-0.309,0.293-1.372,0.735-1.995,1.139c-0.38,0.247-0.711,0.445-1.144,0.856
			c-0.453,0.435-1.904,0.722-2.567,1.428c-2.421,0.812-4.855,1.605-6.849,2.854H66.68c-0.26,0.498-0.531,0.99-1.428,0.854
			c-4.988-0.393-5.815,0.071-11.125-0.284c-5.432-0.086-9.396-1.637-13.125-3.423c-1.07-1.499-2.302-2.834-3.424-4.279
			c-1.079-1.394-1.914-3.029-3.138-4.279c-2.886-6.053-5.822-12.053-7.417-19.4c-0.139-3.357,0.383-5.665,0-7.987
			c0.633-1.992,1.013-3.842,1.712-5.993c0.196-0.604,0.36-1.416,0.571-1.997c0.074-0.208,0.49-0.679,0.567-0.854
			c0.157-0.347,0.169-0.552,0.289-0.856c0.697-1.79,1.316-3.614,2.282-5.419c0.303-1.601,0.873-2.934,1.141-4.567
			c3.242-3.795,7.342-6.733,11.697-9.414c2.288-0.279,3.963-1.172,6.275-1.427c1.437-0.179,1.546-1.689,2.854-1.997h7.133
			c0.053-0.323,0.283-0.159,0.283,0c0.752-0.379,1.672,0.007,2.568,0c0.951-0.006,1.802-0.449,2.566,0
			c0.264-0.777,0.893,0.398,1.715,0h1.996c0.035,0.629,1.213,0.121,1.713,0.285c0.672-0.006,0.84,0.492,1.711,0.286
			c4.006,2.462,7.535,5.399,11.41,7.987c2.305,2.547,4.842,4.859,6.848,7.703c1.172,1.3,1.865,3.084,3.14,4.279
			c0.651,1.729,1.437,3.32,2.282,4.852c1.588,6.114,2.978,12.426,3.142,19.969C100.51,74.535,100.014,75.751,98.918,76.365z
			 M78.949,38.706c-2.113,0.646-2.975,2.544-4.281,3.995c-1.939,1.295-3.357,3.11-5.422,4.277c-1.428,1.803-3.152,3.314-5.134,4.567
			c-2.035-2.526-4.067-5.063-5.988-7.705c-2.098-2.564-3.855-5.465-7.133-6.847h-2c-1.947,1.383-3.609,3.045-5.137,4.852
			c-0.966,0.74-2.152,1.267-2.851,2.281c-0.838,0.869-2.234,1.188-1.996,3.138c0.289,1.542,2.248,0.826,3.138,1.142
			c1.153,2.557,2.794,4.625,4.564,6.562c0.495,1.408,1.648,2.157,2.282,3.426c0.962,1.021,2.098,1.938,2.568,3.136
			c-1.996,1.9-3.803,3.991-5.707,5.989c-1.093,0.809-2.081,1.726-3.135,2.569c-0.629,1.369-2.407,1.591-2.567,3.425
			c-0.157,2.815,1.749,3.573,2.567,5.418c1.057,1.604,1.908,3.418,3.42,4.564h2.282c1.948-0.622,2.755-2.38,3.997-3.708
			c3.277-2.142,5.977-4.865,9.129-7.133c2.625,2.319,4.962,4.928,6.848,7.987c0.85,0.862,2.08,1.342,2.565,2.567
			c1.166,0.642,1.326,2.289,2.853,2.567c1.026,0.438,1.805,0.49,2.854,0.285c2.056-0.988,3.312-2.776,4.563-4.564
			c1.088-0.908,2.324-1.667,3.14-2.854c-0.08-1.502,0.303-1.69,0-2.852c-1.142-2.666-3.224-4.388-4.853-6.562
			c-0.809-1.095-1.721-2.082-2.567-3.135c-0.798-1.201-2.021-1.978-2.566-3.428c3.525-3.036,7.498-5.626,10.843-8.844
			c0.348,0.792,1.75,0.531,2.85,0.569c0.385-0.756,1.508-0.777,1.43-1.997c0.432-0.706,0.551-1.729,0.57-2.854
			c-1.748-3.287-4.279-5.799-6.562-8.555C81.994,40.229,81.152,38.784,78.949,38.706z M46.137,44.983
			c0.96-0.104,0.478,1.235,0.857,1.713C46.444,46.354,45.437,45.717,46.137,44.983z M44.711,74.369c0.056-0.324,0.288-0.158,0.288,0
			C44.944,74.693,44.711,74.525,44.711,74.369z M56.413,56.111c-1.406-1.07-1.234-3.717-2.57-4.853
			c-0.49-1.982-0.857-4.086-1.712-5.704c-0.462-0.834-0.903-0.113-1.428-0.571c-0.044-0.809-0.521-1.19-0.569-1.997
			c0.46-0.082,0.492,0.269,0.857,0.285c0.953,1.61,2.373,2.761,3.137,4.564c0.9,0.335,0.991,1.48,1.712,1.996
			c0.343,0.894,1.231,1.24,1.427,2.283C55.209,52.255,55.987,54.769,56.413,56.111z M67.82,68.091
			c0.15-0.438,0.299-0.017,0.287,0.286C67.955,68.818,67.809,68.396,67.82,68.091z M70.391,58.395
			c-0.881-1.119-1.928-2.069-2.854-3.142c0.129-0.823,1.229-0.674,1.428-1.426c0.992,0.245,0.988,1.482,1.711,1.997
			c0.9-0.138,0.646,0.875,1.714,0.571C72.072,57.413,71.406,58.08,70.391,58.395z M74.668,54.682c0.068-0.356,0.566-0.287,0.572,0
			C74.984,54.857,74.73,55.025,74.668,54.682z M76.379,48.977c-1.297-0.45,0.426-1.021,0.57-1.712
			c0.389,0.089,0.238,0.716,0.285,1.142C77.006,48.65,76.455,48.576,76.379,48.977z M80.943,49.264
			c-0.213-0.929-0.512-1.767-0.854-2.567c0.14-0.903-1.416-0.106-1.141-1.142c1.063-0.925,1.233,0.875,1.993,1.142
			c0.347,0.89,1.232,1.237,1.431,2.28C81.686,48.861,81.754,49.499,80.943,49.264z"/>
	</g>
</g>
</svg>
