<?xml version="1.0" encoding="utf-8"?>
<!-- Generator: Adobe Illustrator 16.0.0, SVG Export Plug-In . SVG Version: 6.00 Build 0)  -->
<!DOCTYPE svg PUBLIC "-//W3C//DTD SVG 1.1//EN" "http://www.w3.org/Graphics/SVG/1.1/DTD/svg11.dtd">
<svg version="1.1" id="Layer_1" xmlns="http://www.w3.org/2000/svg"  x="0px" y="0px"
	 width="120px" height="120px" viewBox="4 4 120 120" style="enable-background:new 4 4 120 120;" xml:space="preserve">
<g id="circled-plus">
	<g>
		<path d="M107.801,68.279c0.24-1.471,0.371-3.051,0.283-4.849c-0.422-5.098-1.335-9.692-2.282-14.266
			c-0.526-0.803-0.884-1.778-1.14-2.853c-0.626-0.991-1.352-1.881-1.715-3.138c-1.165-0.927-1.573-2.608-2.852-3.425
			c-0.787-1.302-1.939-2.245-2.853-3.424c-1.327-0.765-2.025-2.158-2.853-3.423c-0.543-1.644-1.973-2.406-2.854-3.709
			c-5.483-3.645-11.675-6.586-19.399-7.988c-2.068,0.16-5.693-0.339-6.562,0.285h-0.569c-2.316-0.128-4.251,0.125-6.278,0.287
			c-1.672,0.951-3.571-0.083-5.418,0.569c-4.461,1.149-8.207,3.014-11.984,4.852c-0.428,0.332-0.697,0.823-1.426,0.854
			c-1.136,1.146-2.45,2.115-3.707,3.138c-1.023,1.262-2.163,2.402-3.426,3.423c-1.45,2.257-3.228,4.192-4.564,6.564
			c-1.688,2.021-3.008,4.41-4.564,6.56c-0.414,1.684-1.164,3.021-1.711,4.565c-0.072,0.975-0.723,1.369-0.572,2.566
			c-0.672,0.471-0.243,2.041-0.854,2.568c-0.469,3.811-0.711,7.85-0.573,12.271c0.441,0.413,0.253,1.458,0.286,2.278
			c0.842,3.345,1.658,6.711,2.854,9.701c0.297,1.795,1.415,2.771,1.711,4.564c0.812,1.282,1.664,2.521,2.283,3.994
			c1.354,0.738,1.834,2.35,3.424,2.854c1.104,0.984,2.519,1.666,3.424,2.853c0.86,0.073,1.133,0.987,1.709,1.426
			c0.12,0.09,0.437-0.062,0.574,0c0.088,0.042,0.183,0.5,0.283,0.571c0.449,0.311,1.256,0.689,1.425,0.855
			c0.464,0.442,0.991,0.893,1.43,1.141c0.798,0.453,1.685,0.385,2.28,1.142c2.235,0.528,4.395,1.124,6.849,1.426
			c1.358,0.738,2.862,1.325,4.566,1.714c0.544,0.498,1.483,0.604,2.282,0.856c0.416,0.628,1.864,0.226,2.282,0.854
			c3.688,0.491,7.68,0.688,11.98,0.57c2.238-0.33,4.037-1.097,5.99-1.713c11.523,0.109,17.693-5.13,23.394-10.841
			c0.933-2.306,2.698-3.767,3.426-6.275c0.897-0.721,0.896-2.341,1.713-3.141c0.058-1.653,1.216-2.208,1.14-3.991
			c1.238-2.094,1.599-5.061,1.998-7.99c0.639-0.123,0.117-1.406,0.285-1.996C107.955,70.146,107.764,69.104,107.801,68.279z
			 M99.525,73.702c-0.5,0.83-0.652,2.012-0.855,3.137c-0.527,0.804-0.783,1.88-1.141,2.854c-0.918,1.647-1.424,3.714-2.566,5.136
			c-0.523,2.046-1.871,3.267-2.57,5.134c-1.277,1.288-1.889,3.245-3.137,4.564c-0.895,0.529-1.928,0.924-3.141,1.144
			c-1.229,0.193-1.695,1.153-3.424,0.854c-2.176,0.676-4.396,1.307-6.562,1.994c-2.231,0.047-4.401,0.032-5.991-0.568
			c-4.309,1.29-10.251,0.236-14.833,0c-1.871-0.984-4.336-1.372-6.563-1.997c-1.292-0.327-1.687-1.549-3.708-1.144
			c-2.066-2.593-5.355-3.963-7.704-6.275c-2.743-1.916-4.821-4.497-7.133-6.848c-0.354-0.881-0.702-1.768-1.427-2.28
			c-0.255-0.982-0.693-1.779-1.141-2.568c-1.096-12.607,2.15-23.074,5.991-31.667c0.741-1.069,1.843-1.77,2.569-2.854
			c0.361-0.587,0.452-1.447,1.424-1.426c-0.247-1.104,0.697-1.014,0.856-1.711c2.94-1.814,5.349-4.16,8.559-5.706
			c1.225-1.152,3.111-1.644,4.28-2.853c1.678-0.7,2.604-2.153,4.281-2.854c0.859-0.377,2.443-0.03,3.135-0.569h9.987
			c0.009,0.275,0.349,0.221,0.571,0.284c2.527,0.516,4.592,1.492,6.562,2.567c1.454,0.663,2.268-0.468,3.422,0
			c1.104,1.272,2.943,1.812,3.996,3.138c1.654,0.723,2.778,1.975,4.277,2.854c2.723,2.031,5.309,4.201,7.42,6.848
			c1.23,3.615,2.561,7.137,3.42,11.126c0.646,0.591,0.352,2.122,0.857,2.853c-0.115,1.351,0.51,1.963,0.285,3.423
			c0.653,0.583,0.102,2.37,0.287,3.425c0.043,1.537,0.192,1.195,0.283,2.57C99.837,68.688,99.711,71.227,99.525,73.702z
			 M92.107,53.159c-2.158-0.256-3.328,0.475-4.851,0.856c-4.987,0.053-9.216,0.864-14.266,0.854
			c-0.451-4.014-0.24-8.695-0.287-13.123c-0.372-1.053-0.256-2.594-0.567-3.709c-0.193-1.232-0.77-2.08-1.142-3.136
			c-0.976-0.263-1.767-0.706-2.854-0.858c-1.604,0.489-3.729,0.455-5.419,0.858h-4.564c-0.951,0.569-2.887,0.155-2.852,1.71
			c-0.453,2.066,1.857,1.374,1.709,3.138c-0.598,4.811-0.251,10.813,0,15.691c-3.15,0.085-5.368,1.098-8.558,1.143
			c-2.64,0.69-6.56,0.1-8.276,1.712c-0.716,1.372-0.652,3.53-0.853,5.42c0.15,2.23-0.691,4.055,0,5.993
			c0.646,0.396,1.105,0.983,1.71,1.425c2.098,0.564,4.316-0.419,6.562-0.57c3.904,0.196,6.935-0.481,10.841-0.285
			c0.427,3.473,0.709,7.088,0.573,11.128c0.809,1.651,0.355,3.885,0.854,5.704c0.18,0.66,0.275,0.979,0.572,1.426
			c0.277,0.427,0.586,0.629,0.855,1.142c0.508,0.158,1.184,0.146,1.426,0.571c2.551,0.08,4.364-0.583,6.275-1.141
			c1.317-0.018,2.789,0.125,3.707-0.285c0.065-0.223,0.239-0.332,0.573-0.287c2.871-2.354,1.175-8.012,1.425-12.551
			c-0.453-1.64-0.24-3.942-0.283-5.993c4.265-0.584,9.864,0.164,13.694-0.855c0.714,1.091,1.367,2.245,3.138,2.283
			c2.147-0.325,2.957-1.989,3.995-3.424C95.177,62.07,95.396,55.864,92.107,53.159z M43.605,61.719
			c0.154-0.44,0.299-0.019,0.288,0.287C43.743,62.444,43.595,62.021,43.605,61.719z M62.149,40.606
			c-0.607-0.266-0.387-2.074,0.573-1.712C62.795,39.729,62.079,39.772,62.149,40.606z M63.577,54.301
			c-0.146-0.147,0.206-0.365,0.287-0.285C64.012,54.163,63.656,54.379,63.577,54.301z M65.859,70.562
			c0.072-0.358,0.567-0.289,0.572,0C66.178,70.738,65.92,70.909,65.859,70.562z M67.287,51.163
			c-1.829-0.836-2.712,1.114-3.139,2.568c-0.882-0.811,0.499-1.77,0.283-2.854c0.311-0.834,0.642-1.646,0.573-2.854
			c0.885-1.491,1.357-3.397,1.997-5.135c-0.086-0.582-0.569-0.761-0.854-1.143c0.047-0.807,0.521-1.188,0.569-1.997
			c0.253,0.128,0.511,0.252,0.57,0.572L67.287,51.163L67.287,51.163z M76.418,64.287H73.85c0.195-1.815-0.486-2.751-0.287-4.563
			h2.285c0.204,0.871-0.492,0.838-0.287,1.711C75.477,62.694,76.92,63.503,76.418,64.287z M79.838,63.716
			c0.153-0.439,0.299-0.019,0.287,0.285C79.616,64.079,79.539,63.73,79.838,63.716z M84.691,60.291
			c-0.187-0.289-0.656-0.294-0.572-0.855c0.926,0.168,1.329-0.194,1.996-0.285C85.748,59.64,85.525,60.272,84.691,60.291z
			 M89.256,63.716c-0.711,0.045-0.885-0.45-1.426-0.571c0.018-1.174,1.744-2.854,0.283-3.709c0.045-0.333,0.521-0.24,0.854-0.285
			C89.562,60.175,89.119,62.236,89.256,63.716z"/>
	</g>
</g>
</svg>
