<?xml version="1.0" encoding="utf-8"?>
<!-- Generator: Adobe Illustrator 16.0.0, SVG Export Plug-In . SVG Version: 6.00 Build 0)  -->
<!DOCTYPE svg PUBLIC "-//W3C//DTD SVG 1.1//EN" "http://www.w3.org/Graphics/SVG/1.1/DTD/svg11.dtd">
<svg version="1.1" id="Layer_1" xmlns="http://www.w3.org/2000/svg"  x="0px" y="0px"
	 width="120px" height="120px" viewBox="4 4 120 120" style="enable-background:new 4 4 120 120;" xml:space="preserve">
<g id="arrow2-down">
	<g>
		<path d="M114.389,54.308c-0.615-0.077-0.08-1.309-0.592-1.489c0.005-0.698-0.514-0.875-0.299-1.782
			c-0.633-0.856-0.715-2.261-1.188-3.273c-0.973-2.003-1.731-4.218-2.681-6.245c-1.521-4.428-4.317-7.581-6.244-11.601
			c-3.415-3.127-6.868-6.221-10.711-8.923c-6.06-3.061-13.635-4.608-20.224-7.139H61.447c-0.066,0.231-0.25,0.346-0.596,0.297
			c-4.026,0.275-7.663,0.415-11.006,1.191c-3.989,0.922-7.353,2.755-10.708,4.164c-0.183,0.904-1.6,0.58-1.784,1.486
			c-0.954,0.139-1.049,1.132-2.081,1.189c-0.918,1.361-2.463,2.1-3.571,3.273c-0.885,0.206-1.205,0.974-1.786,1.486
			c-0.78,0.309-1.002,1.18-1.784,1.485c-0.943,1.339-2.319,2.243-3.272,3.57c-2.067,2.396-4.237,4.685-5.946,7.436
			c-1.1,1.082-1.613,2.752-2.677,3.866c-0.043,1.051-0.853,1.33-0.897,2.381c-0.794,0.393-0.499,1.875-1.186,2.379
			c-0.146,2.026,0.145,3.624,0.296,5.355c-0.697,1.184-0.687,3.078-0.892,4.758c-0.085,9.998,0.916,18.914,3.272,26.473
			c1.493,1.979,2.356,4.582,4.462,5.949c1.088,2.379,2.754,4.184,4.163,6.245c2.619,2.537,5.355,4.958,8.328,7.138
			c3.172,1.092,6.009,2.52,8.625,4.164c1.679,0.404,2.627,1.537,4.164,2.086c1.344,0.834,3.094,1.265,4.461,2.08
			c7.382,1.199,16.146,1.734,24.094,1.487c0.054-0.442,0.718-0.274,1.188-0.298c2.709-0.643,5.303-1.412,7.734-2.38
			c2.489-0.991,4.641-2.235,6.84-3.568c0.297-0.182,0.646-0.146,0.891-0.299c0.18-0.11,0.402-0.469,0.596-0.593
			c0.426-0.274,1.037-0.445,1.191-0.598c0.229-0.218,0.303-0.095,0.596-0.298c0.422-0.296,0.791-0.872,1.189-1.188
			c0.487-0.387,0.785-0.413,1.188-0.596c0.082-0.037,0.207-0.521,0.297-0.594c0.435-0.354,1.117-0.581,1.487-0.893
			c0.492-0.42,0.71-1.067,1.188-1.488c0.211-0.184,0.691-0.139,0.896-0.297c0.245-0.194,0.356-0.673,0.596-0.895
			c0.455-0.426,1.065-0.729,1.483-1.188c0.658-0.71,1.091-1.558,1.787-2.379c0.599-0.707,1.531-1.349,2.08-2.082
			c0.274-0.367,0.365-1.124,0.597-1.487c0.081-0.128,0.493-0.162,0.596-0.298c0.175-0.231,0.165-0.683,0.295-0.894
			c0.583-0.918,1.242-1.748,1.785-2.676c0.04-0.555,0.197-0.994,0.597-1.188c1.782-5.655,3.541-11.332,4.161-18.146
			C114.662,64.037,113.831,59.182,114.389,54.308z M110.227,77.509c-0.576,0.413-0.442,1.539-0.893,2.081
			c-1.123,4.329-4.016,6.889-5.354,11.006c-2.215,0.461-2.215,3.139-3.568,4.461c-1.096,1.582-2.43,2.926-3.57,4.463
			c-6.242,5.355-13.756,9.442-23.499,11.301c-2.526,0.199-2.524,0.199-5.055,0h-3.271c-0.812-0.184-2.364,0.379-2.679-0.297
			c-2.327,0.244-3.707-0.459-5.65-0.596c-1.059-1.023-3.97-0.195-5.357-0.892c-4.659-1.485-8.045-4.245-12.194-6.247
			c-1.449-1.127-2.931-2.225-4.163-3.568c-0.396-0.299-1.108-0.279-1.189-0.893c-0.429-0.656-0.727,0.374-0.894-0.298
			c-0.718-0.47-1.313-1.063-1.784-1.784c-0.957,0.262-0.407-0.98-1.191-0.893c-0.087-0.605-0.804-0.582-0.892-1.189
			c-0.8-0.484-1.411-1.162-1.785-2.081c-1.499-1.078-2.069-3.087-3.566-4.165c-0.273-2.01-1.703-2.861-2.083-4.759
			c-0.872-1.411-1.258-3.304-2.083-4.759c-0.849-8.769-2.332-16.905-2.083-26.771c0.589-0.702,0.342-2.238,0.894-2.974
			c0.16-1.132,0.928-1.648,0.893-2.975c0.954-1.625,1.989-3.166,2.677-5.059c1.637-1.83,3.21-3.727,4.758-5.65
			c1.229-0.951,2.212-2.15,3.57-2.974c1.201-0.881,2.022-2.142,3.569-2.677c0.861-1.319,2.659-1.704,3.568-2.974
			c0.952-0.14,1.048-1.134,2.08-1.19c0.487-0.508,0.932-1.055,1.491-1.488c1.977-0.398,3.227-1.527,5.055-2.081
			c0.667-0.522,2.139-0.241,2.082-1.489c1.049-0.04,1.332-0.85,2.38-0.891c0.984-0.475,2.187-0.547,3.568-0.892
			c0.258-0.064,1.506-0.491,2.378-0.596c0.659-0.075,1.578,0.319,2.084-0.297H66.8c2.772,0.598,5.573,1.173,8.625,1.486
			c2.903,0.368,5.337,1.208,7.437,2.379c4.855,1.691,8.187,4.904,12.195,7.438c2.385,2.572,4.832,5.084,6.842,8.029
			c1.922,2.938,3.363,6.355,5.354,9.222c0.019,1.766,0.774,2.795,0.892,4.462c0.727,1.062,0.523,3.048,1.19,4.164
			c-0.047,3.519,0.91,6.031,1.489,8.923C110.986,68.55,110.674,73.098,110.227,77.509z M105.171,60.851
			c-0.522-1.855-0.923-3.839-1.188-5.948c-0.512-1.867-1.26-3.505-1.49-5.651c-2.24-4.003-4.657-7.834-7.137-11.601
			c-0.721-0.469-1.316-1.063-1.785-1.785c-0.688-0.6-1.59-0.988-1.785-2.081c-1.258-0.034-1.697-0.88-2.378-1.487
			c-1.089-0.203-1.451-1.128-2.38-1.488c-1.611-0.963-3.238-1.918-4.758-2.974c-1.346-0.145-2.026-0.95-3.274-1.19
			c-1.323-0.261-2.363-0.807-3.271-1.486c-2.959,0.185-4.951-0.601-7.436-0.892h-7.437c-0.065,0.231-0.25,0.345-0.594,0.297
			c-2.159-0.176-3.453,0.513-5.354,0.595c-2.563,1.006-5.229,1.908-8.033,2.677c-2.611,0.958-5.046,2.093-7.137,3.568
			c-2.146,1.424-4.061,3.08-5.948,4.76c-2.465,1.206-3.555,3.783-5.652,5.354c-0.478,1.702-0.751,3.611-1.784,4.759
			c-0.913,1.368-1.284,3.278-2.083,4.76c-0.54,3.129-0.724,6.61-0.592,10.41c-0.059,1.938,1.64,2.124,1.486,4.163v4.463
			c0.762,1.218,0.759,3.205,1.486,4.46c0.139,1.843,1.068,2.901,1.487,4.463c2.354,3.595,4.27,7.628,7.437,10.41
			c2.814,3.134,5.873,6.022,8.921,8.923c2.402,0.869,3.983,2.562,6.545,3.271c0.899,0.293,1.771,0.608,2.677,0.894
			c4.294,0.563,9.056,0.662,13.981,0.595c3.908-0.552,7.693-1.229,11.301-2.083c1.363-0.819,2.994-1.368,4.464-2.081
			c2.235-0.045,3.005-1.556,5.056-1.785c1.205-1.373,3.262-1.896,4.162-3.568c1.855-0.723,2.557-2.602,4.166-3.569
			c2.375-3.178,4.795-6.31,6.842-9.815c0.496-4.062,1.656-7.463,1.783-11.897C105.657,65.52,104.953,63.646,105.171,60.851z
			 M100.412,72.45c-0.643,0.552-0.191,2.188-0.895,2.678c0.094,1.181-0.687,1.495-0.593,2.677
			c-3.352,5.771-7.36,10.883-12.196,15.17c-2.562,1.008-4.924,2.215-7.436,3.271c-1.312,0.469-2.693,0.878-3.869,1.486
			c-0.843,0.051-1.238,0.547-2.082,0.596c-0.529,0.361-1.729,0.055-2.08,0.596c-5.921-0.128-12.097-0.002-17.253-0.894
			c-2.807-0.562-4.592-2.148-7.139-2.974c-0.429-0.344-0.595-0.49-0.891-0.894c-0.271-0.373-0.278-0.813-0.594-1.19
			c-0.531-0.629-1.46-0.941-1.786-1.783c-1.391-0.988-2.061-2.699-3.569-3.568c-2.12-2.541-4.314-5.008-6.246-7.734
			c-0.916-3.248-2.496-5.832-3.273-9.22c-0.702-3.366-1.788-6.341-2.677-9.52c0.081-3.708-0.132-7.479,0-10.409
			c0.289-0.008,0.23-0.365,0.298-0.596c0.567-2.903,2.199-4.742,3.272-7.139c1.77-1.204,3.846-2.102,5.353-3.569
			c1.946-0.929,3.307-2.441,5.355-3.271c3.413-2.337,6.685-4.814,10.708-6.544h2.38c0.343,0.049,0.528-0.064,0.593-0.297
			c8.489,0.137,17.833-0.582,24.686,1.19c0.646,0.646,1.74,0.841,2.676,1.19c0.543,0.747,1.158,1.419,2.381,1.486
			c2.113,2.054,4.305,4.025,6.545,5.947c1.34,3.125,3.326,5.598,4.463,8.924c1.488,2.973,2.316,6.608,3.27,10.113
			C100.436,62.514,100.463,67.439,100.412,72.45z M82.27,66.205c-1.178-0.143-2.578-0.811-3.274-0.895
			c-1.007-0.119-0.781,0.369-1.486,0.299c-0.295-0.028-0.354-0.217-0.592-0.299c-0.228-1.811,0.474-2.695,0.297-4.46
			c0.229-1.225-0.457-1.526-0.297-2.677v-8.328c0-2.771,0.511-5.756-0.894-7.437c-1.467-0.933-3.762-0.596-5.95-0.596h-6.545
			c-0.957,0.066-1.257-0.524-2.381-0.296c-0.37,0.103-0.417,0.268-0.889,0.296c-1.244,0.079-2.723,0.026-3.568,0.596
			c-0.382,0.908-1.093,1.487-1.19,2.677c-0.229,1.616,0.47,2.305,0.296,3.867c-0.448,5.426-0.823,10.803,0,16.062
			c-1.804-0.226-3.314-0.428-5.057,0c-0.697-0.789-3.194,0.221-3.868-0.596c-1.423,0.062-3.271-0.296-3.865,0.596
			c-0.29,2.174,0.623,3.144,1.784,3.866c0.306,0.954,1.127,1.703,1.785,2.38c2.181,2.239,4.491,4.07,6.248,6.543
			c2.036,1.73,3.765,3.771,5.946,5.354c0.844,1.042,1.669,2.1,2.975,2.676c0.805,1.081,1.522,2.246,2.977,2.679
			c3.235-2.02,5.924-4.585,8.623-7.139c2.455-2.801,5.578-4.932,8.331-7.436c0.744-1.437,1.83-2.533,2.677-3.867
			c0.783-0.309,1.002-1.182,1.783-1.487c0.148-0.785,1.643-1.003,0.895-1.785C86.258,65.783,83.912,66.345,82.27,66.205z
			 M54.903,70.667c-1.15,0.259-1.057-0.728-1.786-0.894c0.035-0.656,1.265-0.125,1.786-0.299
			C54.407,70.066,54.929,69.854,54.903,70.667z M62.042,47.763c-0.029,0.766-1.161,0.427-1.19,1.19
			c-0.402-0.092-0.245-0.744-0.296-1.19H62.042z M59.365,65.312V64.42c0.561-0.591,1.405-0.145,2.082,0
			C60.939,64.902,60.362,65.32,59.365,65.312z M60.852,52.818c-0.402-0.091-0.245-0.742-0.296-1.188
			c0.907-0.214,1.08,0.304,1.785,0.297C62.148,52.531,60.949,52.125,60.852,52.818z M71.561,59.958
			c-0.689-0.081-0.685-0.794-0.297-1.19C71.666,58.86,71.51,59.512,71.561,59.958z M71.264,49.846
			c-0.43-0.366-0.563-1.024-0.598-1.785C71.741,47.779,71.082,49.232,71.264,49.846z M70.963,50.738
			c0.251-0.945,0.396,0.527,0.301,0.892C71.014,52.574,70.87,51.103,70.963,50.738z M70.963,64.718
			c0.059-0.241,0.301-0.298,0.301-0.596c0.363,0.13,0.609,0.381,0.594,0.894C71.376,65.1,71.344,64.734,70.963,64.718z"/>
	</g>
</g>
</svg>
