<?xml version="1.0" encoding="utf-8"?>
<!-- Generator: Adobe Illustrator 16.0.0, SVG Export Plug-In . SVG Version: 6.00 Build 0)  -->
<!DOCTYPE svg PUBLIC "-//W3C//DTD SVG 1.1//EN" "http://www.w3.org/Graphics/SVG/1.1/DTD/svg11.dtd">
<svg version="1.1" id="Layer_1" xmlns="http://www.w3.org/2000/svg"  x="0px" y="0px"
	 width="120px" height="120px" viewBox="4 4 120 120" style="enable-background:new 4 4 120 120;" xml:space="preserve">
<g id="arrow2-left">
	<g>
		<path d="M112.043,49.571c-1.143-3.675-2.613-7.016-4.127-10.316c-0.896-0.186-0.576-1.586-1.473-1.771
			c-0.139-0.943-1.125-1.038-1.182-2.063c-1.351-0.91-2.08-2.439-3.244-3.537c-0.205-0.875-0.966-1.193-1.475-1.769
			c-0.303-0.775-1.167-0.991-1.47-1.769c-1.326-0.935-2.226-2.296-3.54-3.241c-2.373-2.048-4.643-4.202-7.37-5.897
			c-1.071-1.089-2.728-1.595-3.83-2.651c-1.041-0.04-1.317-0.846-2.358-0.886c-0.389-0.789-1.859-0.499-2.357-1.179
			c-2.006-0.141-3.59,0.144-5.307,0.295c-0.445-0.438-1.293-0.475-2.062-0.59c-1.141,0.159-1.439-0.524-2.652-0.294h-7.37
			c-0.065,0.229-0.249,0.343-0.591,0.294c-3.74-0.104-6.543,0.728-10.019,0.885c-3.017,0.621-6.015,1.257-8.548,2.358
			c-2.026,1.217-4.287,2.198-5.602,4.127c-2.248,0.991-3.88,2.605-5.896,3.832c-2.605,2.7-5.14,5.471-7.369,8.547
			c-0.746,1.416-1.093,3.231-1.767,4.718c-1.17,0.99-1.513,2.811-2.359,4.127c-1.5,2.825-3.188,5.458-4.127,8.843
			c-1.304,6.892-1.659,15.5-1.474,22.992c0.337,0.349,0.332,1.042,0.294,1.771c2.03,7.795,5.214,14.437,9.729,19.748
			c4.149,5.676,9.522,10.131,15.916,13.56c4.791,1.498,9.594,2.981,15.034,3.834c5.836,0.829,12.372-0.292,17.983,0.294
			c0.834-0.637,2.405-0.542,3.242-1.18c1.479,0.009,2.153-0.793,3.536-0.885c1.834-1.112,4.041-1.855,6.19-2.652
			c1.94-1.006,3.947-1.95,5.896-2.947c1.648-1.396,3.672-2.419,5.598-3.538c2.981-3.31,5.955-6.622,8.551-10.315
			c3.033-6.006,4.566-13.516,7.074-20.047C113.766,63.962,113.137,56.532,112.043,49.571z M109.977,62.541v4.127
			c-0.59,2.748-1.158,5.52-1.472,8.548c-0.321,3.019-1.368,5.312-2.354,7.663c-1.969,4.618-4.961,8.21-7.668,12.086
			c-1.426,1.029-2.412,2.499-3.83,3.537c-1.385,0.975-2.471,2.246-4.129,2.947c-1.146,1.213-2.897,1.818-4.422,2.654
			c-1.553,0.809-2.933,1.78-4.42,2.651c-1.75,0.021-2.771,0.767-4.422,0.886c-1.053,0.717-3.02,0.518-4.127,1.178
			c-3.615-0.078-6.057,1.018-9.139,1.475c-4.888,0.172-9.267-0.167-13.559-0.59c-0.727-0.646-2.096-0.653-2.948-1.178
			c-3.801-1.209-6.234-3.787-10.021-5.012c-0.397-2.059-2.75-2.16-4.13-3.242c-1.403-1.049-2.614-2.297-4.124-3.244
			c-0.131-0.262-0.258-0.525-0.592-0.588c-5.307-6.188-9.356-13.635-11.197-23.287c-0.144-2.982-0.202-7.358,0.293-11.202
			c0.082-1-0.23-2.388,0.293-2.948c0.087-0.992,0.147-2.012,0.589-2.652c0.486-1.576,0.103-4.023,0.591-5.6
			c0.636-0.838,0.836-2.111,1.473-2.948c0.375-1,1.045-1.706,1.473-2.654c0.914-1.937,2.176-3.523,2.949-5.6
			c0.835-0.536,1.129-1.619,1.768-2.359c0.879-0.399,1.223-1.328,1.766-2.062c0.496-0.564,1.712-1.384,1.183-2.064
			c0.871-0.407,1.193-1.359,2.063-1.768c-0.258-0.946,0.971-0.403,0.884-1.179c0.598-0.086,0.575-0.798,1.178-0.884
			c0.48-0.796,1.154-1.402,2.064-1.769c1.065-1.488,3.06-2.05,4.125-3.537c1.992-0.269,2.837-1.686,4.716-2.064
			c1.398-0.862,3.273-1.248,4.718-2.062c6.181-0.501,11.702-1.662,18.277-1.769c0.34,0.048,0.521-0.065,0.59-0.295
			c2.841,0.104,6.159-0.265,8.545,0.295c3.932,0.788,6.773,2.659,10.025,4.126c1.914,1.722,3.927,3.34,5.893,5.011
			c1.928,2.201,3.742,4.513,5.602,6.779c0.863,1.2,1.549,2.579,2.652,3.538c0.139,0.945,1.121,1.04,1.18,2.063
			c0.506,0.479,1.045,0.922,1.478,1.473c0.372,2.085,1.688,3.225,2.062,5.307c0.541,0.641,0.467,1.613,1.473,2.064
			c0.479,0.701,0.664,1.696,1.181,2.358c0.257,2.691,1.341,4.557,1.179,7.664C110.363,59.209,109.788,61.258,109.977,62.541z
			 M100.544,49.275c-0.767-0.508-0.312-2.241-1.177-2.652c0.01-1.289-0.812-1.741-0.885-2.948c-1.058-1.203-1.455-3.062-2.651-4.127
			c-0.688-1.669-2.2-2.519-2.95-4.127c-1.359-0.898-1.766-2.751-3.24-3.537c-0.853-1.506-2.688-2.03-3.539-3.537
			c-1.688-0.474-3.578-0.744-4.717-1.769c-1.355-0.904-3.246-1.271-4.714-2.062c-3.315-0.615-7.183-0.68-11.2-0.59
			c-0.182,0.017-0.353,0.043-0.297,0.293c-0.332,0.064-0.459,0.329-0.591,0.592c-1.642,0.813-4.345,0.564-6.778,0.589
			c-0.835,0.638-2.407,0.541-3.243,1.179c-1.667-0.095-2.278,0.865-3.831,0.885c-4.106,2.183-7.961,4.615-11.495,7.369
			c-3.004,3.384-6.419,6.354-9.433,9.727c-0.865,2.382-2.543,3.944-3.244,6.485c-0.291,0.89-0.603,1.757-0.884,2.654
			c-0.56,4.256-0.655,8.974-0.588,13.854c0.545,3.873,1.216,7.627,2.064,11.2c0.813,1.349,1.355,2.965,2.062,4.422
			c0.042,2.216,1.542,2.978,1.766,5.011c1.286,1.369,2.179,3.131,3.541,4.422c1.102,1.552,2.727,2.576,3.832,4.127
			c1.781,0.871,2.816,2.488,4.717,3.242c1.273,1.379,3.179,2.123,4.713,3.243c4.03,0.492,7.398,1.642,11.792,1.769
			c7.482,0.017,13.513-1.426,19.16-3.241c4.039-1.957,7.521-4.468,11.203-6.781c0.463-0.713,1.055-1.303,1.767-1.768
			c0.597-0.685,0.979-1.575,2.063-1.771c0.031-1.241,0.875-1.682,1.475-2.356c0.201-1.075,1.117-1.438,1.476-2.359
			c0.954-1.596,1.899-3.205,2.946-4.715c0.145-1.33,0.939-2.007,1.182-3.242c0.254-1.312,0.797-2.343,1.471-3.242
			c-0.185-2.936,0.595-4.908,0.886-7.369c0.161-4.877-0.185-9.25-0.886-13.265C101.848,52.889,100.646,51.634,100.544,49.275z
			 M97.01,80.227c-0.641,0.639-0.836,1.723-1.179,2.652c-0.743,0.535-1.409,1.146-1.476,2.357c-2.033,2.094-3.988,4.265-5.897,6.486
			c-3.097,1.324-5.546,3.297-8.841,4.422c-2.944,1.476-6.547,2.295-10.021,3.241c-4.301,0.614-9.185,0.644-14.15,0.591
			c-0.545-0.634-2.167-0.188-2.652-0.886c-1.174,0.093-1.482-0.682-2.656-0.59c-5.717-3.319-10.786-7.291-15.032-12.085
			c-2.115-5.061-4.584-9.764-5.895-15.622c0.14-5.757,0.006-11.786,0.885-16.803c0.556-2.785,2.13-4.552,2.945-7.074
			c0.439-0.741,1.245-1.116,2.064-1.475c0.468-0.716,1.055-1.303,1.77-1.769c0.983-1.379,2.676-2.039,3.536-3.538
			c2.52-2.099,4.964-4.273,7.665-6.19c3.221-0.906,5.782-2.472,9.138-3.241c3.337-0.694,6.284-1.773,9.431-2.652H74.9
			c0.055-0.334,0.297-0.165,0.297,0c4.265,0.057,6.467,2.178,9.434,3.536c4.33,7.063,9.26,13.532,13.262,20.93
			C98.219,61.447,98.832,72.536,97.01,80.227z M86.102,61.36c-0.453-1.592-0.168-3.646-0.883-4.716
			c-0.703-0.378-1.406-0.756-2.064-1.179c-1.682-0.212-2.631,0.314-4.123,0.295c-5.516-0.39-10.899-0.854-16.215,0
			c0.121-1.663,0.546-3.176,0-4.717c0.216-2.282,0.983-5.446,0.297-7.664c-0.43-0.456-1.512-0.259-2.359-0.295
			c-0.005,0.39-0.519,0.271-0.59,0.59c-3.781,3.099-7.135,6.621-10.611,10.023c-1.95,1.489-3.402,3.477-5.011,5.304
			c-1.136,0.633-1.701,1.838-2.654,2.655c-0.708,1.06-2.052,1.485-2.358,2.945c2.001,3.209,4.543,5.873,7.076,8.551
			c2.773,2.432,4.884,5.527,7.368,8.254c1.42,0.738,2.508,1.813,3.832,2.65c0.305,0.775,1.167,0.993,1.473,1.769
			c0.778,0.147,0.991,1.627,1.77,0.884c1.007-0.761,0.45-3.085,0.587-4.715c0.143-1.163,0.803-2.557,0.886-3.242
			c0.119-0.997-0.366-0.773-0.294-1.475c0.028-0.293,0.213-0.354,0.294-0.59c1.796-0.223,2.671,0.473,4.419,0.295
			c1.218,0.231,1.518-0.452,2.656-0.295h8.254c2.744,0,5.703,0.509,7.369-0.885c0.973-1.088,0.467-3.658,0.588-5.6V63.72
			C85.6,62.627,86.312,62.455,86.102,61.36z M58.396,54.877c-0.588-0.491-0.375,0.025-1.181,0c-0.255-1.142,0.721-1.05,0.885-1.771
			C58.749,53.144,58.226,54.357,58.396,54.877z M63.406,71.68h-0.59v-0.593c0.25,0.056,0.278-0.112,0.297-0.292
			C63.724,70.958,63.733,71.255,63.406,71.68z M63.406,61.36c-0.478-0.505-0.893-1.071-0.885-2.062h0.885
			C63.989,59.855,63.548,60.69,63.406,61.36z M67.828,71.384c0.08-0.685,0.785-0.678,1.176-0.297
			C68.916,71.488,68.268,71.333,67.828,71.384z M74.9,60.773c0.092-0.402,0.736-0.246,1.18-0.297
			c0.213,0.901-0.301,1.074-0.294,1.77C75.186,62.059,75.592,60.868,74.9,60.773z M76.671,71.087h-0.885
			c0.009-0.284,0.358-0.228,0.589-0.292h0.885C77.25,71.081,76.896,71.023,76.671,71.087z M77.85,71.087
			c0.363-0.422,1.017-0.557,1.769-0.587C79.896,71.562,78.455,70.91,77.85,71.087z M79.914,61.95
			c-0.762-0.027-0.426-1.149-1.182-1.177c0.092-0.402,0.736-0.246,1.182-0.297V61.95z"/>
	</g>
</g>
</svg>
