<?xml version="1.0" encoding="utf-8"?>
<!-- Generator: Adobe Illustrator 16.0.0, SVG Export Plug-In . SVG Version: 6.00 Build 0)  -->
<!DOCTYPE svg PUBLIC "-//W3C//DTD SVG 1.1//EN" "http://www.w3.org/Graphics/SVG/1.1/DTD/svg11.dtd">
<svg version="1.1" id="Layer_1" xmlns="http://www.w3.org/2000/svg"  x="0px" y="0px"
	 width="120px" height="120px" viewBox="4 4 120 120" style="enable-background:new 4 4 120 120;" xml:space="preserve">
<g id="circled-minus">
	<g>
		<path d="M107.799,68.261c0.24-1.472,0.371-3.051,0.287-4.849c-0.42-5.097-1.34-9.695-2.285-14.268
			c-0.527-0.804-0.881-1.778-1.141-2.854c-0.625-0.989-1.35-1.88-1.711-3.138c-1.168-0.924-1.576-2.606-2.854-3.424
			c-0.787-1.303-1.939-2.242-2.853-3.421c-1.328-0.766-2.025-2.162-2.854-3.425c-0.541-1.646-1.968-2.404-2.853-3.709
			c-5.481-3.646-11.67-6.586-19.399-7.987h-6.564c-0.059,0.221-0.236,0.331-0.568,0.284c-2.315-0.128-4.252,0.124-6.275,0.285
			c-1.67,0.951-3.574-0.083-5.42,0.569c-4.459,1.152-8.207,3.017-11.982,4.852c-0.43,0.332-0.699,0.825-1.428,0.856
			c-1.137,1.144-2.45,2.113-3.709,3.138c-1.021,1.26-2.163,2.4-3.424,3.423c-1.451,2.258-3.226,4.19-4.564,6.562
			c-1.688,2.021-3.006,4.411-4.565,6.562c-0.41,1.68-1.164,3.02-1.71,4.565c-0.073,0.973-0.725,1.371-0.573,2.568
			c-0.669,0.467-0.24,2.04-0.853,2.566c-0.471,3.811-0.709,7.852-0.572,12.268c0.441,0.418,0.25,1.461,0.286,2.282
			c0.844,3.343,1.659,6.71,2.853,9.7c0.295,1.795,1.415,2.771,1.714,4.566c0.809,1.279,1.662,2.52,2.278,3.992
			c1.354,0.739,1.835,2.349,3.424,2.854c1.107,0.986,2.52,1.666,3.424,2.854c0.865,0.071,1.135,0.988,1.714,1.426
			c0.117,0.088,0.434-0.062,0.569,0c0.094,0.041,0.185,0.5,0.287,0.572c0.45,0.311,1.252,0.691,1.426,0.854
			c0.461,0.441,0.988,0.894,1.426,1.141c0.799,0.455,1.685,0.387,2.282,1.141c2.233,0.528,4.392,1.127,6.849,1.429
			c1.355,0.735,2.857,1.325,4.564,1.712c0.547,0.5,1.486,0.605,2.281,0.855c0.418,0.629,1.864,0.229,2.283,0.855
			c3.691,0.494,7.679,0.688,11.983,0.572c2.24-0.33,4.039-1.098,5.99-1.711c11.52,0.106,17.69-5.133,23.395-10.844
			c0.928-2.305,2.699-3.769,3.424-6.276c0.898-0.722,0.898-2.337,1.713-3.138c0.055-1.656,1.211-2.209,1.139-3.996
			c1.238-2.09,1.601-5.058,1.998-7.986c0.64-0.123,0.115-1.406,0.287-1.998C107.955,70.126,107.766,69.083,107.799,68.261z
			 M99.525,73.682c-0.502,0.829-0.648,2.014-0.855,3.137c-0.529,0.804-0.783,1.881-1.143,2.854c-0.918,1.648-1.42,3.715-2.566,5.135
			c-0.518,2.051-1.869,3.268-2.568,5.135c-1.279,1.289-1.887,3.248-3.139,4.567c-0.896,0.527-1.926,0.923-3.139,1.14
			c-1.227,0.196-1.695,1.156-3.424,0.855c-2.174,0.68-4.396,1.311-6.56,1.997c-2.237,0.047-4.407,0.03-5.993-0.569
			c-4.31,1.293-10.25,0.235-14.834,0c-1.868-0.986-4.333-1.373-6.562-1.996c-1.292-0.328-1.685-1.55-3.709-1.144
			c-2.067-2.593-5.354-3.964-7.703-6.274c-2.741-1.92-4.82-4.5-7.133-6.849c-0.354-0.882-0.702-1.769-1.427-2.28
			c-0.252-0.981-0.693-1.779-1.139-2.57c-1.096-12.607,2.147-23.072,5.989-31.667c0.74-1.068,1.847-1.771,2.568-2.854
			c0.365-0.588,0.455-1.447,1.426-1.428c-0.246-1.101,0.697-1.014,0.857-1.708c2.939-1.816,5.348-4.162,8.56-5.708
			c1.226-1.152,3.112-1.643,4.278-2.854c1.677-0.7,2.604-2.151,4.279-2.854c0.86-0.375,2.445-0.027,3.139-0.569h9.984
			c0.01,0.278,0.348,0.222,0.572,0.287c2.527,0.513,4.594,1.491,6.562,2.566c1.452,0.662,2.27-0.47,3.42,0
			c1.104,1.272,2.944,1.812,3.995,3.136c1.658,0.723,2.779,1.979,4.281,2.854c2.724,2.031,5.308,4.201,7.416,6.848
			c1.231,3.615,2.562,7.139,3.424,11.126c0.646,0.593,0.353,2.123,0.854,2.854c-0.114,1.352,0.509,1.964,0.285,3.425
			c0.654,0.581,0.104,2.369,0.285,3.422c0.047,1.54,0.195,1.198,0.285,2.569C99.838,68.668,99.713,71.203,99.525,73.682z
			 M94.678,58.274c-0.348-0.509-0.055-1.659-0.574-1.998c-0.479-1.135-0.635-2.595-1.994-2.852
			c-0.215-0.645-1.602-0.111-2.282-0.284c-0.664,0.384-1.621,0.47-2.281,0.854c-6.209,0.358-12.502,0.624-18.26,1.428h-13.41
			c-2.599,0.444-4.946,1.142-7.989,1.142c-0.123,0.638-1.404,0.115-1.995,0.284c-0.902-0.14-1.011,0.513-1.999,0.286
			c-1.645-0.032-2.811,0.421-3.707,1.141c-0.717,1.376-0.654,3.532-0.857,5.42c0.152,2.232-0.691,4.054,0,5.991
			c0.502,0.26,0.885,0.641,1.142,1.144c2.092,1.077,4.661-0.103,7.133-0.286c3.988,0.188,7.117-0.489,11.126-0.283
			c3.034-0.771,6.676-0.936,10.557-0.857c1.01,0.131,1.646,0.636,2.852,0.57c5.248-0.361,11.301,0.081,15.978-0.856
			c0.399,0.075,0.327,0.628,0.569,0.856c0.117,0.488,0.367-0.059,0.855,0c1.092,0.045,2.078-0.016,2.57-0.57
			c1.348-0.111,1.875,0.604,2.568-0.286c1.096-2.142,0.446-6.205,0.282-8.842C95.189,59.283,94.537,59.177,94.678,58.274z
			 M43.609,61.697c0.15-0.438,0.295-0.017,0.283,0.287C43.744,62.425,43.594,62.003,43.609,61.697z M76.416,64.266h-2.568
			c0.199-1.815-0.484-2.749-0.283-4.563h2.283c0.207,0.871-0.494,0.838-0.287,1.711C75.479,62.675,76.918,63.485,76.416,64.266z
			 M80.125,63.979c-0.295,0.296-0.75-0.434-0.283-0.285C79.879,63.145,80.285,63.822,80.125,63.979z M84.691,60.272
			c-0.187-0.29-0.656-0.297-0.572-0.858c0.926,0.168,1.326-0.192,1.996-0.284C85.75,59.617,85.525,60.251,84.691,60.272z
			 M89.254,63.694c-0.709,0.045-0.885-0.447-1.424-0.569c0.016-1.177,1.744-2.853,0.283-3.711c0.045-0.333,0.52-0.237,0.857-0.284
			C89.562,60.156,89.119,62.218,89.254,63.694z M73.848,81.384c0.176,0.017,0.34,0.043,0.287,0.285h0.568
			C75.148,80.968,73.736,80.832,73.848,81.384z"/>
	</g>
</g>
</svg>
