<?xml version="1.0" encoding="utf-8"?>
<!-- Generator: Adobe Illustrator 16.0.0, SVG Export Plug-In . SVG Version: 6.00 Build 0)  -->
<!DOCTYPE svg PUBLIC "-//W3C//DTD SVG 1.1//EN" "http://www.w3.org/Graphics/SVG/1.1/DTD/svg11.dtd">
<svg version="1.1" id="Layer_1" xmlns="http://www.w3.org/2000/svg"  x="0px" y="0px"
	 width="120px" height="120px" viewBox="0 0 120 120" enable-background="new 0 0 120 120" xml:space="preserve">
<g id="calculator">
	<g>
		<path d="M103.521,53.373c-0.543-9.382-0.162-19.689-2.127-27.649c-1.334-1.297-1.59-3.676-3.345-4.557
			c-0.937-1.698-1.942-3.323-3.646-4.253C88.775,16.842,83.529,15.922,78,16.609c-7.855,0.363-16.716,0.402-25.22,0.606
			c-6.684,0.161-13.312-0.24-18.53,0.913c-1.766,0.39-3.437,1.03-5.169,1.519c-1.786,2.873-3.585,5.732-4.252,9.724
			c-0.822,1.803,0.271,3.587,0.304,5.469c-0.339,1.787-0.592,3.661-0.605,5.772c0.188,4.162-0.393,9.103,0.302,12.761v19.443
			c-0.086,2.314,1.09,3.371,0.913,5.773c-0.093,2.645,0.247,5.717-0.307,7.899c1.785,5,0.723,12.851,3.039,17.315
			c0.235,0.067,0.355,0.256,0.305,0.609c1.499,1.536,2.626,3.447,5.164,3.949c1.934,1.205,4.641,1.638,6.687,2.731
			c10.011,0.716,20.12-0.338,30.688,0c5.17-0.804,10.49-1.459,15.798-2.125c0.813-0.604,2.682-0.157,3.646-0.606
			c1.057-0.463,2.533-0.504,3.646-0.912c3.427,0.388,5.251-0.826,6.988-2.127c0.945-1.281,1.125-3.332,1.52-5.165V96.82
			c0.193-1.021-0.395-2.82,0.305-3.34C102.834,80.172,102.729,66.299,103.521,53.373z M98.354,60.969
			c-0.285,4.57-0.314,9.404-0.604,13.977c0.163,4.166,0.618,8.707,0,12.763c0.248,2.38-0.449,4.369,0,6.075
			c0.116,2.247-0.958,3.295-1.215,5.167c-8.901,2.85-19.491,4.007-30.99,4.254c-5.219,0.655-10.76,0.991-16.406,1.216
			c-6.114,0.236-11.57-0.186-14.586-3.04c-0.305-0.604-0.525-1.298-1.215-1.521c-1.732-4.646-1.534-11.224-2.128-17.016
			c0.216-4.13-0.505-7.746-0.911-11.849c-0.399-4.044-0.304-10.272-0.304-15.494c0-9.522-0.248-19.15,0.605-27.953
			c1.07-1.264,2.319-2.343,3.344-3.646c5.932-1.766,14.319-1.075,21.876-1.216c2.521-0.315,4.964-0.708,7.597-0.911
			c6.616,0.051,13.036,1.095,19.144,0c0.489,0.085,0.521-0.286,0.908-0.305c2.211,0.12,4.951-0.289,6.686,0.305
			c1.729,0.602,2.812,1.847,4.254,2.734c0.398,1.933,1.529,3.13,1.521,5.47c0.107,2.118,0.702,3.751,1.215,5.469
			c-0.183,4.435,0.526,7.981,1.213,11.545C97.988,51.239,98.566,55.998,98.354,60.969z M91.975,40.916
			c-0.6-4.361-0.566-9.354-1.82-13.064c-1.297-0.629-3.17-0.678-4.858-0.911c-0.392,0.017-0.423,0.389-0.915,0.304h-5.771
			c-8.488,1.331-18.583,1.061-27.041,2.43c-4.373,0.099-9.434-1.069-12.762,0.609c-1.12,6.441-1.004,14.593,0,21.268
			c0.834,1.294,1.718,2.538,2.734,3.646c1.144,0.273,2.184,0.653,3.039,1.216c6.188,0.074,13.221-1.522,18.838-1.822
			c5.859-0.316,11.064,0.477,16.404-0.306c4.447,0.193,8.244-0.267,10.938-1.823c0.562-2.297,1.214-4.633,0.609-7.29
			C91.809,43.99,92.064,42.626,91.975,40.916z M88.329,48.206c-1.019,0.299-1.513,1.12-2.124,1.827
			c-1.648,0.743-3.613-0.027-5.473,0c-6.586,0.501-13.244,0.927-19.141,2.125c-3.727,0.021-7.637-0.142-10.939,0.303
			c-2.692-0.145-5.221-0.45-7.291-1.214c0.127-1.241-1.002-1.228-0.608-2.735c0.694-0.42,0.111-2.115,0.305-3.039
			c-0.681-3.29-0.959-8.533-0.305-12.153c3.273-0.232,5.615,0.464,8.812,0.306c4.67-0.696,9.806-0.93,14.889-1.217
			c5.404,0.14,9.449-1.083,14.888-0.91c1.91-0.687,4.687-0.18,6.382,0.303C88.488,36.707,88.352,42.516,88.329,48.206z
			 M85.596,39.701c-0.473-1.758-0.781-3.676-1.519-5.167c-1.075-0.14-1.069-1.36-2.431-1.215c-0.239,0.069-0.604,0.009-0.61,0.306
			c-2.747,0.088-3.697,1.973-4.556,3.948c-0.189,3.838,0.979,6.317,1.217,9.724c1.251,0.774,1.725,2.322,3.949,2.126
			c1.824-0.1,2.121-1.726,3.34-2.431C84.754,44.127,85.829,42.567,85.596,39.701z M83.165,45.473
			c-0.589,0.83-0.659,2.178-2.129,2.129c-0.046-0.357-0.552-0.258-0.909-0.305c-0.537-2.604-0.201-6.079-0.913-8.508
			c0.038-1.281,1.099-1.536,1.521-2.431c0.244,0.162,0.494,0.318,0.912,0.304C82.456,39.293,83.486,41.709,83.165,45.473z
			 M63.111,67.652c3.019,0.184,5.365-0.308,7.291-1.215c0.195-1.022,0.871-1.561,0.609-3.039c-0.074-1.243-0.923-1.713-0.914-3.038
			c-4.709-1.282-10.579-0.32-13.367,2.125c0.042,2.289-0.323,4.981,0.91,6.078c1.389,0.271,1.723-0.506,2.737-0.608
			C61.415,68.508,61.789,67.609,63.111,67.652z M82.859,67.352c2.605-0.929,5.3-0.453,7.597-1.218
			c1.121-1.515,0.271-3.661-0.304-5.165c-0.646-0.567-1.937-0.494-2.43-1.217c-1.59-0.068-3.035,0.009-4.257,0.307h-4.254
			c-0.532,0.174-1.782-0.368-1.821,0.304c-0.625,0.183-2.109-0.491-1.822,0.606c-0.844,0.67,0.043,2.165,0,3.039
			c0.477,0.84,0.943,1.688,1.217,2.733C78.717,67.037,80.454,67.527,82.859,67.352z M47.615,69.477
			c1.64-0.996,3.513-1.756,4.559-3.343c-0.127-1.392,0.393-3.43-0.607-3.95c-0.124-0.518-0.392,0.064-0.912,0H39.111
			c-1.025,1.105-1.758,2.5-1.521,4.862c0.79,1.234,2.256,1.794,3.646,2.431H47.615z M79.822,80.414
			c1.58,1.068,4.979,0.6,6.383-0.305c2.021-0.709,3.91-1.555,3.947-4.254c-0.002-0.604-0.829-0.387-0.607-1.215
			c-1.408-1.021-4.434-0.428-6.38-0.91c-2.168,0.364-4.567,0.496-5.468,2.125c-0.354,1.269,0.023,1.5,0.303,2.734
			C78.953,78.852,78.675,80.348,79.822,80.414z M58.86,75.855c-0.222,1.504-0.419,3.025-0.307,4.86
			c1.834,1.407,4.909,1.573,7.901,1.823c2.976-0.975,6.321-1.578,6.38-5.471c-0.627-0.08-0.075-1.346-0.911-1.217
			c-0.03-0.777-1.187-0.434-1.217-1.213C66.46,74.752,61.484,74.127,58.86,75.855z M44.882,82.238
			c2.473-0.465,5.681-0.193,7.292-1.521c0.143-2.271-0.473-3.781-1.52-4.861c-3.31-0.61-7.562,0.019-10.938,0.306
			c-0.713,1.034-0.84,3.496-0.302,4.86C40.823,81.84,42.944,81.945,44.882,82.238z M83.165,85.884
			c-0.554,0.202-1.089,0.187-1.519,0.304c-0.645,0.177-0.633,0.334-1.215,0.607c-0.252,0.116-0.664-0.117-0.914,0
			c-0.231,0.107-0.861,0.836-0.912,0.911c-0.129,0.196,0.041,0.632-0.305,0.608c-0.359,2.688,1.42,3.242,2.733,4.252
			c0.358,0.049,0.864-0.053,0.911,0.305h5.164c0.555-0.562,1.834-0.395,2.434-0.912c1.012-0.104,1.078-1.148,1.825-1.518
			c0.183-1.906-0.446-3-0.914-4.254C87.699,86.411,85.74,85.838,83.165,85.884z M64.023,86.795c-1.187,0.941-3.845,0.41-5.164,1.216
			c0.17,1.386-0.54,1.892-0.307,3.343c0.726,1.4,2.5,1.752,3.646,2.734c3.268,0.124,6.169-0.111,9.117-0.307
			c0.775-1.449,1.785-2.667,1.82-4.86C71.407,86.906,67.832,86.732,64.023,86.795z M53.085,90.137
			c-0.926-0.371,0.444-1.158-0.305-1.52c-1.373-0.244-2.029-1.211-3.643-1.215c-0.231,0.882-2.505-0.275-2.736,0.606H43.06
			c-0.407,0.509-1.353,0.472-1.823,0.91c-0.762,0.253-1.191,0.833-2.125,0.913c-0.07,1.488,0.533,2.299,0.303,3.947
			c1.031,0.387,1.15,1.688,2.431,1.822c2.916-0.729,5.717-1.572,9.722-1.215c0.244-1.072,1.856-0.779,1.821-2.127
			C53.538,91.305,52.843,91.191,53.085,90.137z"/>
	</g>
</g>
</svg>
