<?xml version="1.0" encoding="utf-8"?>
<!-- Generator: Adobe Illustrator 16.0.0, SVG Export Plug-In . SVG Version: 6.00 Build 0)  -->
<!DOCTYPE svg PUBLIC "-//W3C//DTD SVG 1.1//EN" "http://www.w3.org/Graphics/SVG/1.1/DTD/svg11.dtd">
<svg version="1.1" id="Layer_1" xmlns="http://www.w3.org/2000/svg"  x="0px" y="0px"
	 width="120px" height="120px" viewBox="4 4 120 120" style="enable-background:new 4 4 120 120;" xml:space="preserve">
<g id="calendar">
	<g>
		<path d="M108.965,41.706c-0.376-2.066-0.904-3.978-1.518-5.81c-1.123-1.318-2.348-2.535-4.043-3.284
			c-0.396-0.78-1.469-0.886-2.018-1.517c-0.931-0.336-2.176-0.353-2.527-1.264c0.662-0.348-0.125-2.142,0.508-2.525
			c-0.178-1.27,0.426-1.761,0.251-3.032c0.58-0.514,0.091-2.097,0.251-3.031c-0.457-0.636-0.457-1.73-1.516-1.769
			c-0.459-0.604-1.971-0.134-2.272,0.254c-0.929,0.08-1.397,0.623-2.272,0.756c-0.52,0.54-1-0.07-1.517-0.251
			c-1.048-0.29-0.983,0.532-1.771,0.506c-0.785,0.896-0.65,2.714-1.01,4.042c-0.162,1.603-0.128,3.412-0.761,4.546
			c-2.315-0.12-5.231,0.353-6.819-0.504c0.416-2.897,0.332-6.695-0.506-9.095c-0.615-0.481-1.248-0.941-2.525-0.76
			c-1.326,0.063-1.4-1.126-3.031-0.756c-0.299,0.121-0.572,0.268-0.758,0.504c-1.201,0.735-0.994,2.88-2.021,3.789
			c0.508,2.194-0.201,4.447-0.507,6.569h-2.776c-0.851-0.161-2.349,0.326-2.781-0.252c-0.604-2.765-0.018-6.72-1.01-9.095
			c-2.197-1.573-6.989-1.096-8.589,0.756c-0.925,2.473-0.555,5.346-0.504,8.339h-3.79c-1.212-0.168-2.778,0.259-3.287,0
			c0.095-1.608-0.447-2.583-0.252-4.294c-1.122-1.744-1.405-4.321-3.284-5.307c-2.198-0.572-4.939-0.654-6.822,0.252
			c-0.454,0.725-0.948,1.409-1.513,2.021c-0.562,2.718-0.438,5.373-0.253,8.337c-4.835,1.059-9.368,2.424-13.39,4.298
			c-0.773,0.995-1.804,2.261-2.272,3.282c-0.14,0.301-0.381,0.51-0.508,0.759c-0.591,1.175-0.906,2.043-1.261,3.282
			c-0.544,1.896-0.816,3.867-1.011,6.066c-0.507,5.63-0.144,12.229-0.255,18.441c0.702,11.764,2.017,22.91,2.527,34.865
			c0.55-0.044,0.117,0.896,0.253,1.263c0.523,0.655,0.863,1.497,1.011,2.526c0.947,0.736,1.791,1.578,2.527,2.525
			c1.332,0.185,2.172,0.858,3.284,1.264c1.268,0.332,2.673,0.527,4.042,0.76c11.288-0.284,20.423,0.791,30.822,0.252
			c8.323-1.277,18.28-0.923,26.528-2.273h11.114c0.623-0.475,1.731-0.459,2.527-0.76c0.741-0.604,1.555-1.142,2.272-1.768
			c0.367-0.477,0.373-1.313,1.01-1.518c1.273-4.382,1.627-9.306,1.771-14.398c0.144-5.167,0.252-10.521,0.252-15.917
			C108.965,61.651,109.043,51.701,108.965,41.706z M95.826,23.518c0.133,0.131-0.182,0.322-0.251,0.252
			C95.445,23.64,95.759,23.445,95.826,23.518z M60.965,25.034c-0.007-0.597,0.435-0.745,0.252-1.517h0.757
			c-0.142,1.795,0.3,4.173-0.253,5.558C60.36,28.839,61.197,26.4,60.965,25.034z M44.543,36.402c-0.88,0.219-0.87-0.39-0.506-0.758
			C44.349,35.756,44.556,35.967,44.543,36.402z M43.531,26.549c-0.03-0.453,0.31-0.533,0.251-1.01
			c0.578,0.349,0.096,1.757,0.254,2.525c-0.022,0.4,0.121,0.965-0.254,1.011V27.81C43.992,27.099,43.427,27.157,43.531,26.549z
			 M101.639,100.826c-3.311,0.562-7.643,0.104-11.367,0.252c-4.487,0.479-8.9,1.036-13.646,1.264
			c-4.716,0.256-9.671,0.266-13.895,1.01c-5.76-0.136-12.172,0.383-17.18-0.504c-6.015-0.305-13.689,1.055-16.926-2.021
			c-0.617-13.025-2.409-24.878-2.526-38.402c-0.023-0.359-0.044-0.715,0.253-0.758c12.073,1.498,24.526,0.554,38.399,1.517
			c12.377,0.667,25.709,1.261,39.16,0.758C103.88,76.963,104.186,90.318,101.639,100.826z M103.912,56.866
			c-0.155,1.28-0.561-0.735-1.516-0.253c-0.662,0.265-0.826,1.026-0.758,2.021c-2.604-0.093-3.229,0.277-5.812,0.253
			c-0.164-1.795,2.107-3.654,0.255-4.801c-1.976,0.639-2.653,2.569-3.034,4.801c-2.09-0.012-4.318,0.109-6.061-0.253
			c0.246-2.186,2.455-3.501,1.515-6.062c-0.294,0.042-0.45-0.057-0.504-0.253c-2.029-0.006-2.54,1.503-3.791,2.275
			c-0.543,1.475-1.597,2.446-2.021,4.04h-2.526c0.179-2.256,2.899-5.042,0.757-6.568c-2.164,0.024-2.688,1.69-4.043,2.528
			c-0.314,1.279-1.441,1.756-1.262,3.535h-4.295c0.477-1.178,1.798-2.675,1.012-4.295c-3.092,0.025-3.432,2.802-5.307,4.043
			c-1.426,0.077-2.246-0.449-3.791-0.254c0.445-1.829,1.726-2.821,1.77-5.052c-1.273-1.004-3.022,0.491-3.79,1.515
			c-1.268,0.838-2.054,2.158-3.031,3.285c-2.339,0.064-4.528-0.02-6.568-0.254c0.318-1.471,1.916-3.122,0.755-4.546
			c-1.929-0.247-2.531,0.836-3.28,1.769c-0.838,0.764-1.468,1.732-2.022,2.777c-2.051,0.154-2.819-0.061-4.801,0.254
			c-0.358-0.959,0.704-2.426,1.263-3.285c0.164-1.216,1.573-2.611,0.505-3.535c-1.128-0.526-1.542,0.971-2.273,1.01
			c-0.445,0.022-1.32,1.267-1.771,1.77c-0.918,1.353-2.129,2.416-2.776,4.041c-1.705-0.188-2.625,0.406-4.295,0.252
			c0.539-2.152,1.752-3.637,2.273-5.811c0.571-0.775,1.274-1.418,1.515-2.526c-0.763-1.219-2.682-0.489-3.536,0.253
			c-1.317,1.125-2.417,2.471-3.286,4.043c-0.777,0.4-0.797,1.561-1.516,2.021c-0.393,0.786-0.245,2.113-1.01,2.525
			c-0.645,0.012-0.307-0.188-0.252-0.506c-0.022-0.357-0.042-0.714,0.252-0.757c-0.203-0.878,0.375-0.972,0.252-1.77
			c0.723-0.709,0.721-2.142,1.517-2.778c0.653-2.125,2.36-3.197,2.273-6.062c-0.193-0.652-0.614-1.072-1.262-1.264
			c-1.657,0.198-2.283,1.42-3.032,2.527c-0.415-0.036-0.415-1.735,0-1.771c-0.192-0.951,0.306-1.208,0.252-2.021
			c0.417-1.014,0.71-2.151,1.265-3.031c1.731-0.962,3.289-2.1,5.557-2.525c0.57-0.271,1.109-0.573,1.515-1.01
			c1.339,0.072,1.873-0.655,3.287-0.509c-0.109,1.201,0.366,1.825,0.504,2.781c1.206,2.162,4.363,2.375,7.833,2.272
			c2.204-0.907,3.301-2.929,3.284-6.062c2.073-0.031,3.793-0.418,6.063-0.254c0.477,1.967,0.333,4.553,2.273,5.053
			c1.626,0.111,2.637-0.392,3.031-1.516c1.269,0.578,2.842-0.001,4.042-0.253c1.117-0.482,1.479-1.722,1.771-3.03h4.799
			c-0.09,1.268,0.153,2.202,0.503,3.03c0.167,0.765,1.148,0.706,1.52,1.265c0.857,0.017,1.763,0.078,2.02-0.506
			c1.02,0.665,1.545,1.824,3.033,2.02c2.939,0.162,2.594-2.962,2.525-5.809c1.549-0.559,4.104-0.107,6.064-0.254
			c-0.223,1.483,0.255,2.271,0.756,3.033c-0.262,0.664-0.302,1.55-0.252,2.525c0.352,1.165,1.312,1.719,3.029,1.518
			c0.83-0.353,1.457-0.904,1.517-2.023c0.826,0.271,1.315,0.877,2.272,1.01c1.021-0.242,2.189-0.338,2.779-1.01
			c0.283-1.319,0.609-2.594,0.508-4.293c1.773,0.752,3.449,1.603,4.799,2.777c0.277,1.408,0.738,2.631,1.013,4.043
			C103.594,47.116,104.068,52.304,103.912,56.866z M60.711,74.299c2.704-0.156,5.139-0.587,5.812-2.781
			c0.371-4.162-8.264-3.972-8.843-0.756c-0.018,1.111,0.605,1.584,1.264,2.021C59.077,73.743,59.927,73.986,60.711,74.299z
			 M73.85,72.782c0.512,0.073,0.492,0.683,1.008,0.757c-0.105,0.699,0.943,0.238,1.013,0.76c1.649,0.047,2.946-0.254,4.043-0.76
			c0.247-1.344,1.507-2.477,0.756-4.041c-0.58-0.26-0.812-0.871-1.769-0.759c-0.768,0.159-2.174-0.323-2.526,0.254
			c-1.701,0.065-3.979-0.444-4.042,1.263v0.76C72.213,72.229,73.967,71.568,73.85,72.782z M52.626,74.045
			c0.232-2.168-0.255-3.619-1.264-4.547c-1.557-0.564-3.134-0.438-4.798,0c-0.638,0.266-0.574,1.01-1.264,1.01
			c-0.594,0.25-0.599,1.086-1.011,1.518c0.224,0.783,0.259,1.761,1.263,1.77c-0.084,1.18,0.701,1.488,1.265,2.021
			C49.544,76.018,51.751,75.697,52.626,74.045z M92.544,74.299c0.99-0.248,1.394-0.627,2.021-1.265c0.086-0.084,0.406,0.073,0.504,0
			c-0.041,0.03,0.287-0.562,0.255-0.505c0.28-0.48,0.202-0.842,0.253-1.264c-0.165-1.183-1.342-1.354-2.021-2.021
			c-2.619-0.308-5.699-0.56-6.316,1.771c0.222,1.377,0.834,2.367,1.515,3.283C89.609,74.855,92.016,74.432,92.544,74.299z
			 M39.487,75.309c0.722-0.789,0.722-3.252,0-4.041c-0.59-0.504-1.605-0.582-2.776-0.506c-0.409-0.519-1.267-0.586-2.273-0.506
			c-0.944,0.785-1.503,3.333-0.507,4.549C35.228,75.471,38.035,75.598,39.487,75.309z M50.604,87.184
			c0.722,0.457,1.033,1.326,2.529,1.01c0.054-0.194,0.212-0.293,0.502-0.254c0.797-1.016,0.609-3.93,0.252-5.305
			c-1.2-0.736-2.243-1.627-4.042-1.767H49.34c-0.064,0.354-0.553,0.286-0.755,0.505c-0.212,0.546-0.657,0.861-0.506,1.768
			c-0.784,0.312-1.425,0.769-1.516,1.77c0,1.683,0.972,2.396,2.273,2.777C49.762,87.854,49.806,87.143,50.604,87.184z
			 M67.784,83.646c-0.374-0.215-0.365-0.814-0.503-1.265c-1.441-0.246-2.966-0.405-4.044-1.01c-2.299-0.111-4.583-0.205-4.548,2.021
			c0.018,1.75,0.947,2.588,1.769,3.535C64.172,87.105,67.562,86.961,67.784,83.646z M74.857,81.373
			c-1.154,0.611-1.592,1.943-1.769,3.536c0.757,0.761,1.976,1.059,3.031,1.518c1.418,0.036,2.642,0.964,4.043,0.25
			c0.958-1.224,0.412-3.927-0.252-5.052C78.621,81.146,76.539,81.461,74.857,81.373z M40.752,82.383
			c-1.354,0.09-1.776-0.75-3.287-0.507c-0.011-0.151-0.036-0.298-0.252-0.251c-0.187,0.568-1.415,0.1-2.021,0.251
			c-0.381,0.464-1.09,0.597-1.515,1.011c-0.058,0.196-0.008,0.5-0.255,0.508c-0.17,3.195,2.001,4.848,4.802,4.293
			c0.788-0.391,1.133-1.223,1.769-1.768c0.821,0.146,1.174-0.172,1.769-0.253c-0.19-0.778,0.695-0.485,0.504-1.263
			C42.354,83.137,41.64,82.674,40.752,82.383z M95.068,85.414c0.152-1.753-0.539-2.661-1.26-3.538
			c-2.613-0.524-6.365-0.407-6.57,2.274C87.336,87.404,93.738,87.782,95.068,85.414z M78.143,90.467
			c-1.977-0.041-3.822,0.051-5.053,0.76c-0.652,1.09-0.507,2.383,0,3.537c0.854,0.746,2.085,1.113,3.536,1.262
			c1.563-0.036,2.806-0.396,4.042-0.758c0.326-0.519,1.419-0.267,1.518-1.01c0.582-0.26,0.523-1.164,0.504-2.021
			C81.924,90.896,79.673,91.043,78.143,90.467z M95.068,91.73c-0.36-0.732-1.146-1.041-2.021-1.265
			c-2.43-0.159-4.486,0.06-5.302,1.517c-0.005,1.1-0.085,2.273,0.252,3.031c0.425,0.418,1.134,0.549,1.515,1.012
			c1.709-0.145,3.211-0.496,5.053-0.506c0.953-0.649,2.648-0.552,2.273-2.526C96.665,92.154,95.963,91.848,95.068,91.73z
			 M48.837,92.236c-0.811,0.242-1.139,0.785-1.517,1.262c-0.073,1.422,0.292,2.406,0.76,3.286c1.651,0.829,5.089,1.255,6.314-0.254
			c-0.066-0.739,0.571-0.776,0.507-1.517c-0.092-0.92-0.514-1.508-0.759-2.272C53.013,92.465,50.476,91.746,48.837,92.236z
			 M65.512,92.236c-0.92-0.078-1.646,0.039-2.274,0.25c-2.028-0.09-4.052-0.174-4.042,1.771c0.363,1.572,2.064,1.81,3.03,2.778
			h4.043c0.592-0.083,1.045-0.303,1.516-0.506c0.697-0.062,0.576-0.938,1.011-1.264C68.668,93.291,67.088,92.764,65.512,92.236z
			 M37.721,93.498c-0.583-0.259-0.816-0.868-1.77-0.757c-0.788,0.979-2.456,1.079-2.273,3.032c-0.185,0.371,0.185,0.86,0.506,1.263
			c0.833,1.048,1.606,1.205,3.029,1.516c1.24,0.269,1.866,0.144,2.78,0c0.739-0.942,1.599-1.771,1.515-3.538
			C40.738,94.018,39.557,93.43,37.721,93.498z"/>
	</g>
</g>
</svg>
