<?xml version="1.0" encoding="utf-8"?>
<!-- Generator: Adobe Illustrator 16.0.0, SVG Export Plug-In . SVG Version: 6.00 Build 0)  -->
<!DOCTYPE svg PUBLIC "-//W3C//DTD SVG 1.1//EN" "http://www.w3.org/Graphics/SVG/1.1/DTD/svg11.dtd">
<svg version="1.1" id="Layer_1" xmlns="http://www.w3.org/2000/svg"  x="0px" y="0px"
	 width="120px" height="120px" viewBox="4 4 120 120" style="enable-background:new 4 4 120 120;" xml:space="preserve">
<g id="ccw">
	<g>
		<path d="M116.5,58.018c-0.581-5.408-2.35-9.628-3.477-14.49c-2.588-4.948-5.907-9.162-9.273-13.33
			c-3.828-3.419-8.457-6.033-12.752-8.985c-4.42-1.278-8.042-3.355-13.911-3.187c-0.116-0.494-0.372,0.061-0.868,0h-6.084
			c-6.795,1.319-12.016,4.212-17.39,6.956c-5.264,2.849-9.848,6.38-13.911,10.432c-2.278,3.325-4.72,6.484-6.666,10.144
			c-0.782,2.02-2.156,3.444-2.896,5.506c-1.228,1.572-1.805,3.801-2.897,5.505c-4.933-0.954-8.559,1.123-11.593,2.608
			c-0.729,0.625-1.014,1.689-1.739,2.32c-0.816,0.535-1.565,1.137-1.449,2.607c-0.511,2.152,1.217,2.066,1.449,3.477
			c0.389,0.633,1.34,1.3,1.45,1.739c0.199,0.799-0.188,1.404,0.289,1.738c1.812,1.666,3.195,3.76,4.927,5.506
			c1.859,1.619,3.599,3.355,5.215,5.216c-0.254,1.415,0.396,1.925,0.58,2.897c0.665,0.398,0.932,1.193,1.45,1.74
			c0.747,0.314,1.394,0.732,1.737,1.448c1.582,0.639,2.071,2.37,4.639,2.028c2.538-0.649,3.311-3.065,4.926-4.639
			c1.273-1.912,2.553-3.82,3.767-5.795c2.614-3.762,5.641-7.109,7.245-11.882c1.034-0.8,1.672-1.998,2.606-2.897
			c0.554-1.381,2.419-1.447,2.608-3.187c0.311-1.469-0.855-1.465-1.159-2.32c0.108-1.359-0.118-2.393-1.159-2.608
			c-0.556-0.99-2.652-0.435-4.056-0.579c-0.771-0.002-1.655,0.11-2.029-0.29c-1.087,0.219-0.633-1.105-1.449-1.158
			c0.284-1.938,1.382-3.063,2.319-4.347c0.924-1.298,1.766-2.677,2.898-3.769c2.055-2.388,4.387-4.499,6.954-6.376
			c3.916-1.491,7.563-3.253,11.883-4.347h6.377c12.385,3.069,18.527,12.382,21.443,24.923c-0.129,4.896,0.389,10.437-0.581,14.49
			c-0.618,1.602-1.655,2.786-2.317,4.347c-3.461,3.107-6.711,6.426-11.301,8.404c-0.729,0.917-1.98,1.305-3.189,1.736
			c-0.861,0.78-2.16,1.123-3.186,1.74c-2.451,0.932-5.279,1.483-8.115,2.027h-6.377c-0.617-0.539-1.923-0.393-2.318-1.157
			c-0.933-0.226-1.712-0.606-2.317-1.159c-1.103-0.617-1.905,0.016-2.897,0.289c-0.084-1.268-0.507-2.197-2.03-2.029
			c-3.216,0.648-4.327,3.4-6.084,5.508c-1.124,0.806-1.694,2.171-2.606,3.188c-0.939,0.995-1.705,2.161-1.452,4.347
			c0.89,1.43,2.601,2.037,4.638,2.317c3.768,4.152,10.594,5.25,18.546,5.218c2.699-0.199,4.976-0.822,7.245-1.449h8.984
			c6.293-0.855,11.276-3.019,14.778-6.666c4.103-3.043,7.513-6.783,11.015-10.433c0.248-1.005,0.902-1.606,1.447-2.317
			c0.361-0.896,0.713-1.797,1.449-2.318c0.592-1.922,1.798-3.229,2.607-4.928c1.736-3.383,2.576-7.66,3.769-11.59
			c-0.21-0.887,0.296-1.059,0.289-1.739L116.5,58.018L116.5,58.018z M52.164,95.111c-0.122,0.554-0.105,1.248-0.866,1.158
			C51.245,95.545,51.742,95.363,52.164,95.111c0.238-0.825,0.654-1.473,1.452-1.74c-0.065,0.55,0.326,0.643,0.288,1.161
			C52.992,94.395,52.77,94.945,52.164,95.111z M56.802,98.879c-0.893-0.074-1.301-0.629-2.027-0.869
			c-0.187-1.154,0.767-1.164,0.579-2.318c1.034,0.318,1.474,1.233,2.607,1.447C57.603,97.749,57.159,98.271,56.802,98.879z
			 M69.841,100.037c-0.88,0.179-0.563,1.561-1.446,1.738c-1.472,0.024-2.436-0.461-3.188-1.158c-1.746,0.547-3.373-0.385-5.216-0.58
			v-1.739c3.201,0.147,7.345,0.685,10.434,0C71.887,98.521,69.512,99.102,69.841,100.037z M110.993,68.739
			c-0.691,2.69-1.651,5.108-2.027,8.114c-0.896,1.424-1.575,3.062-2.317,4.639c-0.686,0.474-0.826,1.49-1.451,2.027
			c-0.067,1.09-1.092,1.227-1.158,2.318c-0.707,0.775-1.402-1.273-2.314-0.29c-1.007,0.638-1.226,2.06-1.162,3.767
			c-0.606,0.937-1.586,1.506-2.317,2.318c-0.815,0.846-0.361-0.867-1.449-0.578c-1.261,0.571-1.303,2.365-1.737,3.768
			c-1.125,0.322-1.484,1.414-2.607,1.736c-0.688,0.762-1.15,1.748-2.318,2.03c0.133-1.39-0.316-2.196-1.158-2.608
			c-2.722,0.082-2.822,2.78-3.189,5.215c-0.639-0.035-0.125-1.229-0.287-1.737c-0.395-0.283-0.377-0.976-0.871-1.16
			c-2.186,0.134-2.466,2.175-3.188,3.771h-3.768c0.419-1.028,0.419-3.032,0-4.059c-0.538-0.039-0.97-0.191-1.16-0.581
			c-2.279,0.427-3.047,2.362-3.767,4.349c-0.879-0.614,0.938-3.066-0.581-3.479c0.607-0.456,1.525-0.601,2.611-0.579
			c0.552-0.506,1.509-0.613,2.314-0.867c1.559-0.473,2.645-1.416,4.348-1.74c2.403-1.75,5.484-2.824,7.826-4.637
			c2.411-1.74,4.717-3.589,6.954-5.505c1.896-2.161,3.452-4.661,4.929-7.247c0.211-1.429,0.604-2.678,0.867-4.056
			c-0.05-0.825,1.285-0.714,1.739-1.449c0.433-1.692,1.354-2.896,1.446-4.927c-0.053-0.234-0.288-0.288-0.288-0.58
			c-0.976-1.135-2.364,0.75-2.608,0.29c-0.199-4.491,2.086-7.904,1.161-12.171c-0.679-0.09-1.2-0.568-1.737,0
			c-0.265,0.504-0.65,1.114-1.162,0.578c0.572-2.616,0.172-6.203,0.291-9.272c-0.315-0.748-0.732-1.393-1.447-1.737
			c-1.453-0.568-1.74,1.521-2.318,0.868c-0.535-2.737,1.496-6.291-1.162-6.955c-1.748-0.013-2.484,0.991-2.318,2.898
			c-1.197-0.058-0.98-1.532-2.025-1.738c-0.4-0.856-1.339-1.173-1.741-2.031c-1.346-0.583-2.058-1.806-3.477-2.317
			c-0.996-0.936-2.536-1.327-3.769-2.027c-2.926-0.845-5.55-1.984-8.98-2.319c-0.914,0.139-1.186-0.361-1.452-0.869
			c-1.026-0.157-0.711,1.025-1.737,0.869c-1.338,0.016-2.835-0.129-3.766,0.29c-1.157,0.285-0.874-0.865-2.03-0.58
			c-1.344,0.298-1.989,1.294-2.608,2.317c-1.598,0.528-3.123,1.127-4.636,1.74c-0.874,0.291-0.514-0.646-0.581-1.159
			c-0.296-0.283-0.589-0.573-0.867-0.869c-4.027-0.454-4.097,3.054-4.931,5.796c-1.759,1.523-3.452,3.112-5.214,4.636
			c-1.493,1.792-2.647,3.923-4.35,5.508c-0.546,2.058-1.929,3.283-2.606,5.216c-1.295,1.312-0.988,4.226-2.028,5.794
			c0.811,1.219,1.181,2.878,1.74,4.348c2.207-0.296,4.071-0.813,6.374-0.291c-1.785,3.335-4.452,5.789-6.086,9.274
			c-1.252,1.261-2.216,2.808-3.188,4.347c-1.387,1.125-1.871,3.152-3.766,3.769c-0.129-1.031-1.052-1.271-1.449-2.027
			c-0.318-0.841-0.926-1.393-1.448-2.028c-1.043-1.181-2.063-2.379-3.189-3.478c-1.47-1.91-3.455-3.31-4.924-5.217
			c-0.418-0.162-0.71-0.453-0.872-0.869c-0.33-0.104-0.732-0.51-0.288-0.58c1.979-0.629,4.093-1.123,6.375-1.448
			c0.966-0.387,1.391-1.316,2.027-2.029c0.727-0.24,1.138-0.792,2.031-0.87c0.109-1.417,0.791-1.82,0.288-3.188
			c0.624-1.018,1.034-2.249,1.449-3.478c0.681-0.864,1.147-1.942,1.74-2.898c0.957-2.131,2.443-3.737,3.186-6.085
			c0.929-0.715,1.249-2.037,2.028-2.898c0.374-1.172,1.498-1.596,1.742-2.897c1.629-1.459,2.766-3.413,4.344-4.927
			c2.464-1.498,4.438-3.484,6.954-4.926c2.394-1.473,4.925-2.806,7.539-4.058c5.015-2.71,10.525-4.929,18.836-4.347
			c1.153,0.196,2.071,0.631,3.475,0.579c1.707,1,4.184,1.226,5.797,2.319c2.099,0.512,3.248,1.968,4.929,2.898
			c3.224,1.992,6.307,4.123,8.694,6.954c2.248,3.062,4.893,5.729,6.373,9.563c1.188,1.421,1.16,4.059,2.03,5.796
			c0.539,2.068,1.054,4.162,1.446,6.376c-0.104,2.725,0.259,4.431,0.292,6.373C111.105,65.374,110.936,66.25,110.993,68.739z"/>
	</g>
</g>
</svg>
