<?xml version="1.0" encoding="utf-8"?>
<!-- Generator: Adobe Illustrator 16.0.0, SVG Export Plug-In . SVG Version: 6.00 Build 0)  -->
<!DOCTYPE svg PUBLIC "-//W3C//DTD SVG 1.1//EN" "http://www.w3.org/Graphics/SVG/1.1/DTD/svg11.dtd">
<svg version="1.1" id="Layer_1" xmlns="http://www.w3.org/2000/svg"  x="0px" y="0px"
	 width="120px" height="120px" viewBox="4 4 120 120" style="enable-background:new 4 4 120 120;" xml:space="preserve">
<g id="chart3">
	<g>
		<path d="M113.648,91.662c-0.51-0.158-1.187-0.146-1.431-0.571c-2.188,0.095-4.118,0.446-6.559,0.286
			c-5.979,1.441-13,1.838-19.97,2.283h-6.564c-7.805,1.039-17.299,0.389-25.959,0.57c-8.494,0.637-16.888,1.373-24.824,2.566
			c-0.312-3.396-0.624-6.792-1.138-9.984c0.424-12.691-0.992-23.545-2.283-34.521c-0.002-1.524,1.498-1.543,1.424-3.14
			c-0.254-0.599-0.441-1.267-0.854-1.711c-0.423-0.529-1.474-0.427-1.428-1.426c-0.335-3.085-0.821-6.024-1.139-9.13
			c1.624-0.468,3.056-1.127,3.421-2.853c-0.225-0.915-1.033-1.245-1.424-1.997c-0.879-0.358-2.165-0.311-2.569-1.141
			c-0.405-3.208,0.232-7.458-1.142-9.7c-5.021-0.267-3.417,6.091-3.994,10.271c-1.593,0.214-2.892,0.723-3.137,2.283
			c-0.184,1.229,0.492,1.598,0.855,2.282c0.494,0.644,2.018,0.264,2.281,1.141c0.341,3.177,0.725,6.313,0.857,9.699
			c-2.931-0.078-5.017,0.688-5.137,3.424c0.347,2.698,3.535,2.55,5.992,3.138c0.189,4.184,0.998,7.75,1.141,11.982
			c-2.684,0.355-5.924,0.163-5.99,3.141c0.194,0.85,0.345,1.743,1.14,1.995c0.311,0.734,1.841,0.25,2.284,0.854h1.709
			c0.709,0.369,1.188-0.838,1.428,0c0.344,3.557,0.313,7.484,0.286,11.412c-1.804,0.67-3.815,1.129-3.993,3.425
			c-0.075,0.836,0.646,0.876,0.57,1.711c0.588,0.934,2.848,0.194,3.707,0.854c0.309,3.024,0.805,5.857,0.857,9.129
			c-2.85,0.767-6.6,0.629-6.564,4.281c0.152,1.371,1.232,1.812,2,2.568c1.785-0.119,3.635-0.168,5.137-0.572
			c1.234,0.381,1.495,1.736,3.42,1.428c1.717,0.004,1.758-1.666,3.141-1.998c0.75-0.295,1.748-0.342,2.852-0.285
			c1.811-0.948,2.926-2.588,5.422-2.854c0.91,0.235,2.101,0.184,2.854,0.573c0.233,1.95,0.276,4.096,1.423,5.134
			c1.402,0.623,3.465,0.255,4.283-0.568c0.041-0.908,0.646-1.257,0.567-2.283c-0.061-0.535-0.736-1.893,0-2.281
			c4.819,0.746,9.944,0.104,15.692,0.283c0.576,1.992,1.084,4.052,3.421,4.281c1.194,0.239,1.353-0.556,2.282-0.572
			c0.258-0.603,0.871-0.842,0.859-1.711c1.018-0.322-0.529-1.883,0.287-1.998c3.629,0.209,6.524-0.317,9.98-0.283
			c0.632,0.605,0.518,1.955,1.427,2.281c0.688,0.643,1.644,1.021,2.854,1.142c0.734-0.312,1.369-0.721,1.711-1.427
			c0.592-0.456,0.352-1.741,0.857-2.282c3.57-0.423,7.791-0.198,11.125-0.854c0.717,1.854,1.315,3.818,3.424,4.277
			c1.438,0.203,1.961-0.512,2.854-0.855c0.617-1.11,0.739-2.859,0.285-4.278c0.891-0.157,1.861-0.233,2.57-0.57
			c2.785-0.159,6.424,0.531,7.983-0.854C115.631,96.128,115.154,92.674,113.648,91.662z M34.621,84.814
			c0.595,0.332,1.262,0.53,1.998,0.569c3.248-0.553,3.994-3.612,5.99-5.42c1.621-2.18,3.029-4.58,4.85-6.562
			c1.488-2.315,3.162-4.447,5.133-6.276c1.705-2.196,3.361-4.439,5.424-6.277c4.008,2.841,7.018,6.678,11.128,9.415
			c2.086-0.066,2.854,0.215,4.563,0c2.177-1.339,3.767-3.268,5.134-5.421c0.85-0.861,1.514-1.912,2.281-2.853
			c0.51-1.298,1.59-2.025,2-3.423c0.926-0.785,1.479-1.944,1.994-3.139c0.791-1.018,1.57-2.044,1.998-3.423
			c1.688-1.831,2.525-4.511,4.275-6.277c3.565,1.383,5.645,4.25,10.846,3.994c3.574-1.846,5.424-5.417,7.701-8.56
			c1.179-1.583,1.976-3.541,2.854-5.42c0.676-2.083,2.076-3.44,1.711-6.561c-0.379-0.188-0.531-0.61-0.568-1.142
			c-1.029-0.873-2.094-1.714-4.281-1.427c-1.704,0.576-2.762,1.801-3.991,2.852c-0.877,1.883-1.731,3.784-2.568,5.707
			c-0.754,0.671-1.069,1.782-1.713,2.568c-0.664,0.81-1.055,2.034-1.996,2.281c-2.946-1.144-4.729-3.448-7.991-4.279
			c-1.535-0.017-2.597,0.444-3.99,0.572c-0.846,0.77-1.729,1.504-2.283,2.566c-0.684,1.027-1.27,2.152-1.994,3.139
			c-0.645,1.069-1.176,2.25-2,3.138c-0.627,1.085-1.068,2.354-1.997,3.139c-0.968,2.359-2.405,4.251-3.708,6.276
			c-1.264,2.159-2.629,4.219-4.281,5.992c-1.301-0.791-2.242-1.941-3.423-2.853c-0.339-0.708-0.978-1.117-1.71-1.428
			c-0.474-0.572-0.766-1.325-1.715-1.426c-2.16-2.129-4.281-4.28-8.271-4.28c-3.218,1.347-4.296,4.833-6.848,6.847
			c-0.994,1.288-1.925,2.637-3.135,3.709c-0.98,1.398-1.981,2.775-3.14,3.994c-0.924,1.358-1.887,2.679-2.856,3.993
			c-0.992,1.291-1.668,2.896-2.849,3.994c-1.305,3.355-4.479,4.842-4.282,9.699C33.36,83.682,33.814,84.367,34.621,84.814z"/>
	</g>
</g>
</svg>
