<?xml version="1.0" encoding="utf-8"?>
<!-- Generator: Adobe Illustrator 16.0.0, SVG Export Plug-In . SVG Version: 6.00 Build 0)  -->
<!DOCTYPE svg PUBLIC "-//W3C//DTD SVG 1.1//EN" "http://www.w3.org/Graphics/SVG/1.1/DTD/svg11.dtd">
<svg version="1.1" id="Layer_1" xmlns="http://www.w3.org/2000/svg"  x="0px" y="0px"
	 width="120px" height="120px" viewBox="4 4 120 120" style="enable-background:new 4 4 120 120;" xml:space="preserve">
<g id="chart8">
	<g>
		<path d="M117.016,63.6c-0.736-11.533-0.3-24.238-0.855-35.948c-0.086-1.723,0.227-3.842-0.287-5.136
			c-0.943-0.859-1.842-1.771-3.994-1.425c-0.41,0.159-0.695,0.445-0.857,0.856c-1.604,0.771-1.871,2.882-3.424,3.709
			c-0.918,1.554-2.315,2.624-2.852,4.565c-2.324,2.526-4.398,5.301-6.561,7.989c-1.621-1.519-2.683-3.595-5.709-3.71
			c-0.58,0.559-1.785,0.498-1.996,1.427c-0.375,0.767-0.767,1.517-1.14,2.283c-1.103,1.179-1.498,3.066-2.28,4.562
			c-1.086,1.58-2.353,2.978-3.427,4.565c-1.512,4.479-3.493,8.487-5.989,11.983c-1.299-0.222-1.502-1.541-2.57-1.999
			c-0.59-1.027-1.693-1.538-2.283-2.566c-1.863-1.367-2.467-3.998-5.133-4.565c-1.77,0.134-2.984,0.819-3.992,1.712
			c-0.648,1.257-2.162,1.646-2.57,3.138c-2.266,1.537-3.553,4.054-5.133,6.275c-0.986,2.822-2.086,5.523-3.711,7.705
			c-0.639,1.263-1.598,2.205-2.283,3.422c-1.111,0.886-1.594,2.398-3.137,2.855c-1.328-1.434-2.721-2.797-3.992-4.281
			c-1.723-1.039-2.332-3.188-5.139-3.139c-1.896,0.385-2.604,1.96-3.709,3.139c-3.436,3.695-7.176,7.088-10.27,11.127
			c-2.473,2.284-4.359,5.15-6.848,7.418c-0.902,1.476-2.09,2.666-3.139,3.994c-0.391,0.75-1.201,1.081-1.426,1.996
			c-0.91,0.326-0.795,1.676-1.426,2.282c-0.178,1.413,0.646,1.826,0.857,2.853c-1.359,0.951-0.561,3.211,0,4.566
			c1.273,1.102,3.75,1.002,5.705,1.428c4.926-0.065,10.787-0.123,14.266,0c2.436,0.082,4.822-0.221,6.562-0.287
			c8.609-0.328,16.738,0.447,25.104-0.287c11.295-1.067,24.254-0.473,35.092-1.994h6.561c0.802-0.344,1.968-0.315,3.142-0.286
			c1.412,0.274,1.521-0.761,2.565-0.855c1.359,0.429,2.386,0.615,3.707,0c0.533-0.465,1.045-0.741,1.429-1.426
			c0.387-0.69,0.084-1.856,0.854-2.283c-0.584-2.629,0.16-5.42,0.287-8.272C117.413,81.912,116.714,72.41,117.016,63.6z
			 M85.63,97.551c-0.146-0.148,0.207-0.363,0.283-0.285C86.064,97.412,85.71,97.629,85.63,97.551z M109.596,96.123
			c-0.623,0.27-2.56-0.174-3.99,0c-1.219,0.021-2,0.479-3.429,0.287c0.439-1.178,1.031-2.205,0.859-3.995
			c-0.261-0.504-0.64-0.884-1.146-1.142c-3.638-0.027-4.103,3.123-5.416,5.42c-2.625,0.041-5.127,0.203-7.423,0.57
			c0.479-2.687,3.169-4.599,2.283-7.703c-1.562-0.709-2.338,1.078-3.422,1.713c-0.916,0.889-1.427,2.189-2.283,3.137
			c-0.012,0.941-0.479,1.422-0.284,2.568h-3.423c-1.377,0.241-2.846,0.393-4.278,0.571c-0.984-0.126-1.604,0.111-2.281,0.284
			c-0.592,0.169-1.877-0.352-2,0.286c-0.666-0.084-0.666-0.771,0-0.856c-0.045-0.707,0.447-0.884,0.57-1.426
			c0.313-1.02,1.213-1.449,1.43-2.568c0.844-0.951,1.344-2.076,1.994-3.138c0.258-0.416,0.729-1.146,0.572-2.282
			c-0.103-0.375-0.502-0.447-0.572-0.854c-3.066-0.12-3.926,1.97-5.422,3.423c-0.843,0.68-1.355,1.686-1.994,2.566
			c-0.256,0.506-0.689,0.834-0.857,1.426c-0.49,0.174,0.023,1.354-0.57,1.429c-0.197,1.069,1.312,1.897,0.855,2.282
			c-0.611,0.529-2.088,0.193-3.137,0.283c-1.092,0.242-2.292,0.373-3.713,0.287c-0.584,0.746-2.861-0.201-3.418,0.569
			c-0.908-1.017,0.963-1.684,0.852-2.852c0.834-0.599,1.135-1.722,1.715-2.568c0.727-1.561,2.844-4.487,0.568-5.706
			c-2.533,0.506-4.023,2.061-5.418,3.708c-1.811,1.14-2.578,3.318-3.996,4.851v2.854h-6.564c0.676-1.511,1.781-2.597,2.572-3.994
			c0.734-1.357,1.947-2.234,1.994-4.279c-0.09-1.098-2.432-1.155-2.852-0.284c-1.051,0.375-1.904,0.946-2.566,1.713
			c-1.705,1.147-2.996,2.707-4.566,3.991c-0.525,1.377-1.666,2.139-1.998,3.711c-1.689-0.172-2.539,0.5-4.279,0.283
			c0.711-2.047,2.145-3.369,3.139-5.135c1.074-1.685,2.805-2.714,2.568-5.705c-2.219-1.451-4.412,1.019-5.99,1.996
			c-1.273,1.676-2.578,3.316-3.994,4.85c-0.248,1.371-1.248,1.99-1.141,3.711c-1.27,0.224-1.713-0.381-2.855-0.286
			c0.65-1.728,1.725-3.029,2.57-4.564c0.574-1.704,1.918-2.646,2.281-4.563c-0.936-1.172-2.66-0.105-3.426,0.57
			c-1.178,0.436-1.576,1.655-2.852,1.998c0.826-1.592,2.779-3.443,1.715-5.992c0.1-0.945,0.854-1.236,1.426-1.711
			c0.484-0.562,0.666-1.426,1.424-1.713c0.941-1.056,1.627-2.371,2.854-3.14c1.547-2.444,3.936-4.053,5.42-6.562
			c0.834,0.117,0.928,0.978,1.426,1.427c0.596,0.354,1.072,0.829,1.43,1.427c1.074,0.73,1.887,1.727,2.566,2.854
			c1.066,0.265,1.498,1.164,2.566,1.427c1.271,0.222,1.713-0.38,2.854-0.285c4.424-2.708,7.303-6.964,9.986-11.411
			c0.6-1.209,1.244-2.369,1.711-3.709c0.404-1.402,1.205-2.408,1.711-3.71c1.506-2.014,3.319-3.716,4.853-5.704
			c1.641,1.594,3.006,3.458,4.565,5.134c0.979,0.638,1.604,1.628,2.563,2.282c0.664,0.86,1.424,1.622,2.283,2.283
			c1.549-0.086,1.896,0.395,3.141,0c2.185-1.048,2.701-3.763,4.277-5.419c0.975-2.165,2.488-3.787,3.139-6.277
			c1.271-1.961,1.664-4.801,3.14-6.562c1.551-1.586,2.535-3.74,3.422-5.991c1.142,1.331,2.354,2.594,3.994,3.423
			c1.282,0.141,2.137-0.144,3.139-0.285c0.378-0.1,0.449-0.502,0.855-0.57c1.547-2.069,2.918-4.311,4.565-6.277
			c1.646-1.966,3.021-4.208,4.564-6.277C110.346,53.995,110.669,74.994,109.596,96.123z"/>
	</g>
</g>
</svg>
