<?xml version="1.0" encoding="utf-8"?>
<!-- Generator: Adobe Illustrator 16.0.0, SVG Export Plug-In . SVG Version: 6.00 Build 0)  -->
<!DOCTYPE svg PUBLIC "-//W3C//DTD SVG 1.1//EN" "http://www.w3.org/Graphics/SVG/1.1/DTD/svg11.dtd">
<svg version="1.1" id="Layer_1" xmlns="http://www.w3.org/2000/svg"  x="0px" y="0px"
	 width="120px" height="120px" viewBox="4 4 120 120" style="enable-background:new 4 4 120 120;" xml:space="preserve">
<g id="checklist1">
	<g>
		<path d="M105.177,100.941c-0.479-3.236-0.696-6.909-0.282-10.271c0.25-7.166,0.219-14.611,0.567-21.682
			c0.156-7.574-0.44-14.396-1.14-21.113c0.048-7.464,0.1-14.935-1.428-20.825c-2.006-1.231-5.582-0.885-8.272-1.428
			c-3.526-0.086-2.658-4.568-5.992-4.851h-0.569c-4.119-0.645-8.039,0.732-12.554,0.57c-1.021,0.232-1.416-0.607-0.854-1.139
			c0.561-0.199-0.069-1.594,0.568-1.715c0.213-1.732-0.275-2.764-0.855-3.707c-0.193-0.664-0.947-0.762-1.141-1.426
			c-0.754-0.672-1.723-1.133-2.568-1.712c-0.658-0.674-2.428-0.235-3.139-0.856h-3.422c-0.501,0.449-1.521,0.382-2.281,0.571
			c-0.541,0.315-1.352,0.363-1.998,0.571c-1.346,0.367-2.383,1.041-3.424,1.708c-0.273,0.586-0.582,1.13-0.856,1.714
			c0.175,0.684-0.356,2.071,0.284,2.283c-0.229,1.301,2.691,2.288,0.572,2.853c-2.55,0.266-3.784-0.784-6.274-0.571
			c-1.011-0.551-1.649,0.007-2.855,0c-0.393-0.748-1.047-1.234-2.282-1.143c-2.825,1.076-1.824,5.975-4.85,6.849
			C37.248,25.4,35.183,26,32.427,25.907c-2.251,0.854-4.685-0.145-6.847-0.286c-0.088,0.675-0.99,0.531-0.855,1.428
			c-1.148,0.751-0.939,2.866-1.428,4.276c0.033,1.938-0.494,3.312-0.284,5.422c-0.67,17.303-0.579,35.369-0.57,53.353
			c0.177,0.774-0.362,2.264,0.285,2.563c0.003,3.806-0.106,7.715,0.285,11.13c-0.034,1.866,0.29,4.096-0.857,4.848v5.424
			c0.479,1.229,2.661,0.765,3.71,1.427c1.647,0.065,3.153,0.271,4.564,0.569c3.886,0.203,7.846,0,11.984,0
			c11.59,0,24.831,0.771,36.801,0H89.2c3.069-0.658,5.215,0.967,8.558,0.856c1.35-0.369,2.942-1.349,4.28-0.856
			c0.623-0.897,1.505-1.543,1.998-2.568c0.915-0.512,1.118-1.732,1.714-2.566C106.189,108.021,104.963,104.545,105.177,100.941z
			 M88.346,28.189c0.316,1.68,1.784,2.211,1.711,4.279c-6.644,0.395-13.58,0.494-20.541,0.571c0.842-1.916-0.457-3.571-1.709-4.28
			c-0.875,0.709,0.909,1.164,0.566,2.283c-1.212,0.307-0.9,2.145-2.566,1.997c-0.574-1.008,0.867-2.069,1.142-3.138
			c0.282-1.117-0.632-1.657,0-2.283C74.432,27.457,81.038,28.174,88.346,28.189z M64.095,16.206
			c1.898,0.101,4.247-0.251,5.703,0.287c0.315,1.494,0.621,2.995,1.144,4.278c-1.445,0.902-2.811,0.192-4.851,0.287
			c0.312-2.594-0.972-3.594-2.281-4.565C63.757,16.249,63.921,16.225,64.095,16.206z M63.524,29.615
			c0.064-0.221,0.008-0.562,0.285-0.57c-0.207-0.777,0.566-0.574,0.57-1.141c0.773,0.26-0.24,1.052-0.57,1.141
			C63.745,29.268,63.802,29.608,63.524,29.615C63.798,30.802,62.671,29.675,63.524,29.615z M62.384,20.203
			c-0.01,0.277-0.35,0.22-0.57,0.284C61.819,20.209,62.163,20.267,62.384,20.203z M62.667,30.759
			c0.93,0.028,1.046,1.722,0.572,2.281c-0.662,0.091-1.096-0.045-1.426-0.284C61.741,31.731,62.667,31.71,62.667,30.759z
			 M60.67,27.904c0.517,0.488-0.088,1.123-0.854,1.141C59.732,28.301,59.919,27.818,60.67,27.904z M59.815,29.331
			c0.147,0.147-0.205,0.364-0.284,0.284C59.384,29.469,59.737,29.253,59.815,29.331z M59.242,30.472
			c0.149,0.147-0.206,0.363-0.284,0.287C58.812,30.609,59.166,30.394,59.242,30.472z M58.958,31.043
			c0.148,0.148-0.203,0.365-0.283,0.283C58.526,31.181,58.882,30.967,58.958,31.043z M58.39,32.184
			c0.148,0.148-0.207,0.365-0.287,0.285C57.956,32.322,58.31,32.105,58.39,32.184z M54.107,30.472
			c0.872,0.153,0.372,2.739-0.854,2.568C53.233,31.879,54.156,31.662,54.107,30.472z M51.541,23.91
			c0.148,0.148-0.204,0.365-0.288,0.284C51.11,24.049,51.461,23.831,51.541,23.91z M48.688,23.627
			c-0.275,0.899-1.84,1.587-2.568,1.139C46.326,23.738,47.316,23.49,48.688,23.627z M48.403,32.756
			c-0.146-0.147,0.204-0.365,0.285-0.287C48.837,32.617,48.481,32.834,48.403,32.756z M44.123,29.331
			c1.202,0.356-0.028,1.171,0,1.995c-0.642,0.404-0.235,1.861-1.426,1.714C42.664,31.295,43.851,30.771,44.123,29.331z
			 M29.003,30.188c-0.148-0.147,0.207-0.365,0.287-0.285C29.437,30.049,29.083,30.266,29.003,30.188z M99.757,106.361
			c-4.137,1-9.401,0.869-14.55,0.854c-6.529,1.078-14.852,0.365-22.255,0.57c-1.244-0.085,0.018-2.677-1.428-2.566
			c-2.238-0.243-2.446,1.55-3.422,2.566c-1.73-0.13-4.264,0.192-5.134,0c0.222-1.076,0.499-2.414,0-3.422
			c-2.899-0.427-2.791,2.153-3.996,3.422h-4.563c-0.125-0.925,0.375-2.466-0.57-2.566c-1.731-0.112-2.02,1.216-2.853,1.996
			c-0.598,0.927-2.087,0.959-3.712,0.854c0.053-1.279,0.23-2.436,0.572-3.424c0.189-1.062,0.943-1.869,0-2.566
			c-1.748,0.152-1.787,2.018-2.854,2.855c-0.48,1.418-1.864,1.936-2.282,3.422c-0.791-0.629,0.043-2.032,0-2.854
			c0.386-0.66,0.477-1.617,0.856-2.28c0.278-1.686,1.583-3.334,0.857-5.136c-1.612-0.282-1.583,1.079-2.567,1.427
			c-0.354,0.672-0.942,2.053-1.713,1.428c-0.803-0.531-0.541-2.121-0.57-3.424c-0.088-1.42,0.045-2.619,0.284-3.709V76.119
			c0.153-1.273,0.671-2.182,0.857-3.424c0.389-1.246-1.104-0.605-0.857-1.711c0.187-13.213-0.142-25.916-0.567-38.517
			c-0.051-1.203,0.438,0.005,0.854,0c0.242,0.424,0.721,0.613,1.429,0.571c2.284,0.1,3.868-0.509,6.274-0.284
			c0.01,1.245-0.789,1.684-0.855,2.852c1.336,2.324,4.973,1.711,8.273,1.711h9.702c3.739,0.732,9.106-0.166,12.84,0.572
			c8.586,0.216,16.366-0.37,24.816-0.285c1.146-0.472,2.434-0.803,3.423-1.426c0.427-2.418,0.241-4.443-0.854-5.992
			c0.039-0.814,1.19-0.524,1.998-0.572c0,1.143-0.569,1.713-0.569,2.854v12.84c-1.065,20,3.562,36.753,2.853,57.345
			C99.544,103.91,99.927,104.857,99.757,106.361z M93.191,50.158H90.34c-2.018-0.117-3.295,0.508-5.418,0.285
			c-3.221,0.584-7.672-0.062-10.844,0.57c-1.635-0.454-3.943-0.24-5.99-0.285c-1.102-0.041-1.32-0.965-2.566-0.857
			c-5.225-0.068-9.108,0.252-13.98,0c-0.419,0.15-0.718,0.423-1.14,0.572c-1.464,0.25-3.299,0.125-4.565,0.57
			c-1.821-0.107-3.042,0.383-3.139,1.998c0.685,2.351,3.433,1.396,5.991,1.426c2.244-0.415,5.044-0.282,7.419-0.569
			c3.854,1.091,9.731,0.156,13.978,0.854c3.615-0.667,8.646,0.084,12.269-0.57h7.987c2.568,0.242,5.39-0.641,4.563-2.853
			C94.896,50.358,94.094,50.207,93.191,50.158z M47.546,66.706c1.104,0.058,2.105,0.011,2.855-0.287
			c0.82,0.132,0.893,1.011,1.998,0.856c1.355,0.027,1.352-1.311,2.567-1.428c0.907,0.615,1.501,1.541,2.85,1.713
			c0.472-0.48,1.55-0.354,1.999-0.854c0.715-0.239,1.119-0.782,1.998-0.858c0.951,0,0.975,0.93,1.996,0.858
			c0.21-0.644,1.6-0.112,2.281-0.287c1.002-0.331,1.54-1.12,2.855-1.142c1.154,0.082,1.979,0.49,3.136,0.57
			c2.457,0.231,4.708-0.205,6.849-0.283c1.146-0.041,2.812-0.123,3.137,0.283c0.148,0.185,0.355-0.285,0.285-0.283
			c2.061-0.075,3.211,0.498,4.854,0.567c0.974-0.356,2.453-0.202,3.135-0.854c0.142-1.281-0.146-2.136-0.284-3.137
			c-5.275-0.469-11.246-0.071-16.545,0.284c-0.597-0.166-0.925-0.6-1.43-0.854c-0.241-0.617-1.473-0.241-1.71-0.857
			c-4.619,0.076-9.634,1.166-14.265,0.285c-0.455,0.972-2.556,0.299-3.423,0.857c-1.37,0.058-2.417,0.439-3.712,0.569
			c-1.786-0.171-3.017,0.218-4.563,0.287c-1.631-0.015-2.688,0.544-2.853,1.997C41.928,67.002,45.409,66.18,47.546,66.706z
			 M90.912,75.834c-1.066-0.661-3.464-0.725-4.278-0.284c-1.073-0.221-1.364,0.347-2.282,0.284
			c-5.789-1.123-10.74,0.957-16.263,0.285c-1.127,0.014-1.653,0.629-2.565,0.857c-0.367-0.685-0.934-1.162-1.999-1.144
			c-1.953-0.052-3.82-0.017-5.422,0.285h-5.134c-2.188,0.287-4.315,0.631-6.849,0.569c-0.693,0.545-2.276,0.195-3.139,0.574
			c-1.06,0.27-2,0.658-1.995,1.993c0.224,1.772,1.87,2.125,3.993,1.997c2.234,0.143,4.031-0.15,5.99-0.285
			c0.977-0.213,0.363,1.162,1.43,0.856c1.191,0.241,1.344-0.554,2.282-0.571c0.501,0.26,0.883,0.641,1.138,1.143
			c0.338,0.045,0.809-0.049,0.856,0.285c0.491,0.111,0.73-0.424,0.858,0c1.639-0.07,2.221-1.201,3.707-1.428
			c1.056,0.182,1.699,0.775,3.139,0.571c1.348-0.36,2.646-0.778,3.993-1.14c5.474,0.166,11.296-1.457,16.263,0
			c1.307-0.442,4.1-0.67,4.85-0.855c0.183-0.047,0.392,0.037,0.572,0c1.351-0.296,1.637-0.957,2.282-1.714
			C92.113,77.236,91.684,76.312,90.912,75.834z M86.35,92.382c-1.263-1.765-3.601-0.896-5.707-0.856
			c-2.219,0.043-5.334-0.143-6.847,0c-2.43,0.23-4.737,0.529-6.563,1.14c-1.5-1.119-3.855-0.231-5.99-0.282
			c-1.261-0.029-2.277-0.417-3.425-0.287c-3.581,0.413-7.921,0.066-11.411,0.569c-1.721,0.099-3.934-0.242-4.849,0.289
			c-0.455,0.264-0.374,0.337-0.858,0.854c-0.152,3.008,2.814,2.895,5.138,3.424c2.661-0.088,4.435,0.181,6.563,0
			c1.162-0.121,1.152,0.938,2.567,0.568c1.21,0.073,1.534-0.744,2.85-0.568h3.708c4.192-0.944,9.325-0.948,13.411-1.998
			c1.289,0.613,3.67,0.136,5.422,0.285c1.177,0.037,1.787-0.494,3.137-0.285c0.418-0.155,1.477,0.334,1.43-0.284
			c0.502-0.065,1.428,0.286,1.139-0.571C86.454,94.014,86.348,93.139,86.35,92.382z"/>
	</g>
</g>
</svg>
