<?xml version="1.0" encoding="utf-8"?>
<!-- Generator: Adobe Illustrator 16.0.0, SVG Export Plug-In . SVG Version: 6.00 Build 0)  -->
<!DOCTYPE svg PUBLIC "-//W3C//DTD SVG 1.1//EN" "http://www.w3.org/Graphics/SVG/1.1/DTD/svg11.dtd">
<svg version="1.1" id="Layer_1" xmlns="http://www.w3.org/2000/svg"  x="0px" y="0px"
	 width="120px" height="120px" viewBox="4 4 120 120" style="enable-background:new 4 4 120 120;" xml:space="preserve">
<g id="check">
	<g>
		<path d="M110.359,38.856c-0.889-1.106-1.325-2.668-2.282-3.708c-0.386-1.612-1.447-2.548-1.709-4.281
			c-0.938-1.155-0.83-3.355-2-4.278c-0.673-0.573-1.911-0.752-2.854-0.286c-0.412-1.582-1.457-2.536-3.136-2.851h-1.142
			c-0.338,0.138-0.646,0.303-0.857,0.568c-1.431,0.471-2.338,1.465-3.707,1.998c-0.982,1.014-2.541,1.456-3.425,2.567
			c-1.409,0.494-2.156,1.647-3.423,2.281c-0.967,1.033-2.383,1.613-3.139,2.854c-0.74,0.099-1.215,0.718-1.711,1.141
			c-0.49,0.414-1.086,0.856-1.427,1.427c-1.053,0.945-2.182,1.811-3.141,2.852c-1.062,0.935-1.968,2.029-2.853,3.14
			c-1.084,0.912-2.221,1.774-2.854,3.138c-3.891,4.006-7.131,8.656-10.271,13.409c-0.856,1.045-1.611,2.19-2.281,3.423
			c-0.807,1.193-1.787,2.208-2.282,3.71c-1.94,2.052-2.828,5.161-4.851,7.133c-0.993-2.338-1.805-4.853-3.423-6.562
			c-0.37-1.346-1.042-2.382-1.714-3.424c-0.625-1.084-1.068-2.354-1.996-3.138c-1.11-2.313-2.714-4.133-4.279-5.992
			c-1.642-1.782-2.91-3.937-4.277-5.99c-0.619-0.521-2.339,0.054-2.855-0.571c-1.084-0.152-1.582-0.891-2.854-0.856
			c-0.396,0.46-1.406,0.305-1.711,0.856c-0.661,0.193-0.761,0.947-1.426,1.142c-0.938,0.776-2.329,1.095-3.139,1.996
			c-2.385,1.134-5.285,1.753-6.848,3.709c-0.043,0.337,0.051,0.811-0.284,0.856c0.387,4.084,2.276,6.664,3.991,9.414v1.712
			c0.576,0.377,0.966,0.938,1.146,1.713c0.536,0.509,1.319,0.771,1.71,1.427c0.443,2.693,2.003,4.273,2.568,6.846
			c0.719,1.05,1.955-0.193,2.281,1.143c2.615,4.52,5.188,9.08,7.988,13.41c0.353,1.453,1.056,2.559,1.714,3.708
			c0.751,1.149,1.233,2.569,2.282,3.424c0.566,1.334,1.328,2.474,2.283,3.424c0.77,1.129,1.205,2.597,2.852,2.854
			c2.932,0.459,3.443-1.502,4.85-2.569c0.878-1.688,2.357-2.776,3.139-4.563c2.182-2.858,3.936-6.146,6.56-8.56
			c2.28-2.762,4.328-5.753,6.849-8.274c1.64-2.067,3.783-3.636,5.423-5.703c0.967-0.364,1.077-1.584,2.281-1.715
			c2.4-2.635,5.337-4.744,7.989-7.131c2.521-2.518,5.239-4.84,7.983-7.134c1.096-1.377,2.387-2.562,3.711-3.707
			c1.564-1.003,2.68-2.458,4.565-3.14c2.511-2.527,6.345-3.732,9.128-5.99c1.102,0.056,2.102,0.009,2.854-0.286
			c0.162-0.41,0.447-0.696,0.856-0.855c0.394-0.175,0.042-1.098,0.569-1.141C111.833,41.377,110.6,40.612,110.359,38.856z
			 M45.882,81.081c-0.418,0.623-0.555,1.535-1.139,1.996c0.217,1.549-0.351,2.31-0.289,3.709c-0.654-0.675-0.098-2.562-0.283-3.709
			c-0.459-0.681-0.215-2.068-1.141-2.282c-0.896-0.136-1.166,0.355-1.426,0.855c-0.791,0.067-0.104,1.61-1.142,1.427
			c0.315-5.013-0.067-7.22,0-13.123c-0.355-1.452-0.394-3.222-1.997-3.424c-1.706,0.102-1.893,1.722-2.283,3.139
			c-0.524,1.377-0.613,3.19-0.854,4.851c-0.586-0.461-0.721-1.373-1.144-1.998c0.317-4.248,0.468-8.664,0.572-13.123
			c-0.179-0.017-0.338-0.044-0.284-0.286c-0.389-0.671-2.717-0.883-3.426-0.285c-0.822-0.842,0.404-2.057,0-3.424
			c1.195-0.054,0.927,1.357,1.426,1.997c0.613,0.627,2.033,0.441,2,1.712c0.172,0.016,0.336,0.045,0.284,0.286
			c3.127,3.433,5.886,7.235,7.987,11.697c-0.203,0.774,1.346-0.205,1.141,0.569c1.143,2.567,1.984,5.437,3.424,7.704
			C47.21,80.314,46.456,80.605,45.882,81.081z M48.164,94.773c-0.015,0.365-0.363,0.396-0.284,0.857
			C47.095,95.542,47.276,94.641,48.164,94.773C48.136,94.432,48.579,94.6,48.164,94.773z M49.021,93.918
			c-0.146-0.146,0.207-0.363,0.287-0.285C49.454,93.78,49.102,93.997,49.021,93.918z M54.442,85.932
			c-0.631,0.702-1.412,1.252-1.713,2.281c-1.471,1.287-2.573,2.942-3.138,5.137c-0.735-0.394-0.062-1.748,0-2.283v-7.418
			c-0.109-1.028-0.368-1.914-0.571-2.854c1.164,0.116,1.125-0.968,1.715-1.426c0.758-0.286,0.938-1.152,1.424-1.712
			c1.209-0.788,1.999-1.996,2.852-3.138c0.804,0.287-0.076,1.211,0,1.709v4.853c-0.026,1.358,1.312,1.354,1.43,2.565
			C55.493,84.131,55.124,85.184,54.442,85.932z M64.713,74.52c-0.69,0.448-1.263,1.021-1.714,1.711
			c-0.883,0.162-0.75,1.342-1.709,1.428c-0.084-3.055,0.373-6.65-0.857-8.561c0.65-1.537,2.016-2.357,3.141-3.423
			c0.785-1.304,1.938-2.244,2.852-3.425c0.242-0.052,0.27,0.112,0.284,0.286c-0.226,1.866-0.827,3.356-0.854,5.421
			c0.265,1.161,0.793,2.059,1.711,2.566C66.836,72.079,65.531,73.057,64.713,74.52z M100.089,42.563
			c-3.036,1.151-5.228,3.144-7.704,4.852c-2.361,1.727-4.548,3.63-6.56,5.707c-0.459-0.397-0.306-1.408-0.857-1.712
			c-1.399,0.499-1.774,2.025-1.711,3.993c-0.573,0.568-0.937,1.351-1.712,1.713c-0.872,0.27-0.895,1.389-1.995,1.425
			c0.002-1.525-0.268-2.774-1.43-3.138c-2.578,0.085-2.312,3.01-3.136,4.851v2.282c-0.133,1.201-1.352,1.313-1.715,2.282
			c-0.713-0.049-0.893,0.438-1.141,0.855c-0.41-0.152-0.695,1.111-0.855,0.285c-0.323-2.528,1.002-6.707-1.711-6.848
			c1.976-2.969,4.129-5.76,6.561-8.272c0.771-1.706,2.427-2.52,3.427-3.995c1.115-1.354,2.353-2.591,3.707-3.709
			c2.507-2.439,5.394-4.497,7.989-6.847c1.439-1.03,2.958-1.988,4.277-3.139c1.433-0.946,3.113-1.642,4.279-2.853h0.857
			c0.464,3.624,2.035,6.141,3.137,9.129C102.154,40.064,101.113,41.308,100.089,42.563z"/>
	</g>
</g>
</svg>
