<?xml version="1.0" encoding="utf-8"?>
<!-- Generator: Adobe Illustrator 16.0.0, SVG Export Plug-In . SVG Version: 6.00 Build 0)  -->
<!DOCTYPE svg PUBLIC "-//W3C//DTD SVG 1.1//EN" "http://www.w3.org/Graphics/SVG/1.1/DTD/svg11.dtd">
<svg version="1.1" id="Layer_1" xmlns="http://www.w3.org/2000/svg"  x="0px" y="0px"
	 width="120px" height="120px" viewBox="4 4 120 120" style="enable-background:new 4 4 120 120;" xml:space="preserve">
<g id="arrow4-left">
	<g>
		<path d="M70.016,59.608c0.683-1.703,2.309-2.462,2.926-4.227c1.482-0.904,1.553-3.213,2.926-4.223
			c0.062-1.128,1.15-1.235,1.304-2.278c0.743-0.445,0.763-1.618,1.622-1.947c0.704-1.685,2.186-2.582,2.926-4.227
			c1.053-1.33,2.49-2.277,3.252-3.9c1.147-1.235,2.899-1.866,3.25-3.9c-0.996-2.908-3.635-4.167-5.525-6.174
			c-1.188-0.763-2.151-1.752-3.252-2.602c-0.594-0.378-1.102-0.849-1.625-1.3c-0.504-0.472-1.516-0.433-1.95-0.976h-0.647
			c-0.438,0.103-0.621,0.462-1.301,0.325c-1.374,1.771-2.691,3.593-4.227,5.201c-1.87,1.269-2.727,3.557-4.551,4.873
			c-0.146,1.37-1.536,1.497-1.95,2.601c-0.562,1.066-1.713,1.535-2.275,2.602c-1.484,1.654-2.943,3.34-4.227,5.2
			c-1.435,1.704-2.736,3.548-4.223,5.2c-0.413,1.104-1.803,1.23-1.949,2.6c-0.856,0.77-1.961,1.292-2.276,2.601
			c-1.678,1.466-2.838,3.446-4.227,5.202c-0.732,0.784-1.488,1.544-2.277,2.273c-0.912,0.713-1.951,1.298-1.948,2.927
			c-0.131,1.648,1.135,1.896,1.623,2.924c0.624,0.896,1.381,1.653,2.276,2.276c1.396,1.64,2.862,3.206,4.23,4.875
			c3.063,3.108,6.046,6.301,8.771,9.75c2.72,3.348,5.349,6.787,8.127,10.075c1.301,1.732,2.757,3.312,4.229,4.875
			c1.646,1.496,2.307,3.973,5.848,3.578c2.611,0.008,2.877-2.326,4.549-3.254c0.513-0.787,1.164-1.438,1.949-1.949
			c0.264-1.146,1.987-0.832,1.953-2.275c0.819-0.266,0.454-1.713,0.977-2.273c0.785-0.297,0.861-1.307,0.975-2.273
			c-0.109-1.734-1.574-2.111-1.949-3.577c-0.963-0.882-2.184-1.503-2.602-2.925c-2.125-1.669-3.816-3.768-5.523-5.85
			c-2.149-1.646-3.662-3.927-5.527-5.851c-1.168-0.672-1.754-1.933-2.924-2.603c-0.224-0.754-1.08-0.871-1.305-1.623
			c-0.056-0.918-1.545-0.407-1.295-1.627C66.266,65.174,67.561,61.811,70.016,59.608z M72.617,86.91
			c0.75,0.656,1.734,1.082,1.951,2.277c-0.826,1.34-1.479,2.854-2.275,4.224c-1.023-0.71-1.792-1.675-2.277-2.925
			C71.075,89.484,72.535,88.885,72.617,86.91z M74.242,32.631c0.441,0.101,0.27,0.814,0.326,1.301
			c0.916,1.789,2.226,3.19,3.248,4.875c-0.629,0.714-1.823-0.756-1.95-1.625c-1.418-0.313-1.759-1.707-3.573-1.627
			C72.542,34.179,73.646,33.66,74.242,32.631z M69.691,38.482c0.375-0.053,0.58,0.071,0.648,0.324
			c0.61,2.21,4.682,3.307,2.926,5.851c-1.41-1.622-2.76-3.307-4.222-4.875C68.807,38.895,69.686,39.127,69.691,38.482z
			 M65.141,44.008c1.31,0.315,1.832,1.419,2.603,2.273c0.528,1.098,1.86,1.389,1.948,2.926c-1.071-0.549-1.5-1.748-2.274-2.6
			c-0.293-0.574-0.724-1.006-1.299-1.301C66.216,44.453,64.855,45.051,65.141,44.008z M57.667,63.184
			c0.197,0.02,0.385,0.049,0.325,0.324c0.391-0.032,0.2,0.475,0,0C57.791,63.49,57.607,63.461,57.667,63.184
			c-0.2-0.021-0.385-0.047-0.327-0.325c-0.408-0.134-0.661-0.418-0.65-0.975c0.409,0.134,0.665,0.419,0.65,0.975
			C57.54,62.876,57.727,62.907,57.667,63.184z M56.043,52.782c0.884-0.236,0.654,0.647,1.297,0.651
			C57.237,54.123,55.8,53.504,56.043,52.782z M48.241,66.107c-0.168-0.168,0.236-0.414,0.323-0.324
			C48.735,65.952,48.33,66.198,48.241,66.107z M52.467,70.008c-1.345-0.402,0.124-0.943,0.324-1.624
			C53.772,68.781,52.562,69.625,52.467,70.008z M50.518,62.858c-1.476,0.153-3.011,0.243-3.579,1.302
			c-1.015-0.525,0.669-1.03,0.651-1.627c0.74-0.236,0.975-0.977,1.3-1.624c1.198-0.752,1.597-2.306,2.925-2.926
			c-0.089-0.525,0.31-0.561,0.325-0.975c0.927,0.592,1.188,1.848,2.274,2.274C53.162,60.523,51.103,60.956,50.518,62.858z
			 M58.968,74.234c0.37,1.021-0.513,0.791-0.653,1.301c-1.307-0.317-1.827-1.42-2.6-2.276c-0.049-0.81,0.513-1.006,0.652-1.624
			c1.079,0.438,2.005,1.026,3.249,1.299C59.707,73.675,59.54,74.156,58.968,74.234z M64.492,78.136
			c-0.01,0.315-0.397,0.253-0.649,0.324C63.851,78.143,64.237,78.207,64.492,78.136z M62.863,51.809
			c-0.568-1.057-1.62-1.624-2.597-2.276c-0.154-1.019,0.876-0.858,0.977-1.624h0.974c0.244,0.883,1.344,1.156,1.952,1.949
			c0.2,0.262,0.109,0.672,0.323,0.977c0.623,0.883,2.346,1.525,1.3,3.249C63.895,54.247,64.251,52.158,62.863,51.809z"/>
	</g>
</g>
</svg>
