<?xml version="1.0" encoding="utf-8"?>
<!-- Generator: Adobe Illustrator 16.0.0, SVG Export Plug-In . SVG Version: 6.00 Build 0)  -->
<!DOCTYPE svg PUBLIC "-//W3C//DTD SVG 1.1//EN" "http://www.w3.org/Graphics/SVG/1.1/DTD/svg11.dtd">
<svg version="1.1" id="Layer_1" xmlns="http://www.w3.org/2000/svg"  x="0px" y="0px"
	 width="120px" height="120px" viewBox="4 4 120 120" style="enable-background:new 4 4 120 120;" xml:space="preserve">
<g id="arrow4-up">
	<g>
		<path d="M101.816,72.152c-0.762-0.807-1.652-1.479-2.502-2.189c-1.357-1.768-3.187-3.062-5-4.375
			c-3.312-2.834-6.351-5.94-10-8.438c-1.545-1.476-3.379-2.661-5-4.062c-1.693-1.435-3.312-2.939-5-4.375
			c-1.791-1.335-3.472-2.777-5.312-4.062c-0.751-0.814-1.734-1.39-2.188-2.499c-1.045-0.62-1.455-1.883-3.438-1.563
			c-0.369,0.151-0.708,0.334-0.937,0.624c-3.087,2.225-5.43,5.194-8.436,7.501c-2.691,2.728-5.661,5.173-8.44,7.812
			c-2.039,1.23-4.08,3.114-5.626,4.375c-1.243,1.017-2.474,1.727-3.437,2.812c-3.195,2.219-5.867,4.967-8.75,7.501
			c-0.535,0.611-0.541,1.75-0.939,2.501c-1.428,0.753-2.57,1.799-2.811,3.749c0.33,1.441,1.1,2.44,2.499,2.813
			c0.399,1.476,1.374,2.379,2.19,3.437c2.213,1.226,3.154,3.72,6.874,3.438c1.771-0.209,2.176-1.784,3.126-2.813
			c1.722-0.36,2.658-1.504,3.748-2.5c2.347-1.821,4.355-3.979,6.565-5.937c2.073-1.986,4.29-3.834,6.249-5.938
			c1.17-0.911,2.215-1.95,3.123-3.123c0.653-0.39,1.178-0.909,1.562-1.563c1.29,0.246,0.586-1.496,1.876-1.251
			c2.465,2.019,5.697,3.265,7.813,5.626c1.639,0.654,2.365,2.219,4.061,2.812c0.873,1.423,3.092,1.492,4.062,2.813
			c1.089,0.061,1.186,1.105,2.188,1.252c0.434,0.715,1.561,0.73,1.877,1.562c1.617,0.675,2.479,2.103,4.061,2.813
			c1.279,1.011,2.193,2.392,3.753,3.123c1.185,1.104,1.79,2.789,3.748,3.127c2.771-1.086,4.282-3.43,5.938-5.629
			c1.822-2.133,4.121-3.793,4.686-7.187C103.395,73.489,103.111,72.311,101.816,72.152z M39.314,72.775
			c-0.961-0.08-1.408-0.678-2.189-0.938c0.864-1.177,2.889-3.244,3.752-0.937C40.767,71.938,39.938,72.256,39.314,72.775z
			 M51.502,64.024c0.058-0.353,0.312-0.171,0.312,0C51.752,64.38,51.502,64.197,51.502,64.024z M56.814,59.65
			c-0.713,0.089-1.176-0.076-1.25-0.625c-0.982,0.359-0.762-0.49-1.252-0.625c0.544-1.453,2.15-3.311,3.751-1.875
			C57.646,57.563,57.077,58.455,56.814,59.65z M59.625,52.776c0.389-1.291,0.912,0.118,1.566,0.312
			C60.807,54.035,59.995,52.867,59.625,52.776z M63.375,49.025c-0.162-0.16,0.227-0.398,0.314-0.312
			C63.848,48.875,63.463,49.111,63.375,49.025z M67.125,49.025c-0.363-0.052-0.557,0.068-0.622,0.312
			c-0.642-0.403-0.331-1.755-1.253-1.874C65.855,46.779,67.004,48.191,67.125,49.025z M66.503,57.463
			c-0.019,0.191-0.049,0.37-0.313,0.312c-0.018,0.19-0.049,0.372-0.312,0.313c0.031,0.378-0.457,0.191,0,0
			c0.018-0.191,0.045-0.37,0.312-0.313C66.205,57.584,66.232,57.405,66.503,57.463c0.128-0.393,0.401-0.638,0.933-0.625
			C67.311,57.232,67.033,57.479,66.503,57.463z M75.876,65.9c-0.251-0.164-0.507-0.325-0.938-0.312
			c-0.08-1.018,0.373-1.505,1.25-1.563C76.227,64.796,76.232,65.53,75.876,65.9z M75.561,57.463
			c-0.658-0.099-0.067-1.48,0.627-1.249C76.419,57.065,75.568,56.84,75.561,57.463z M79.314,60.275
			c0.916,0.021,1.16,0.713,1.561,1.25c-0.043,1.209-1.266,1.232-1.561,2.187C78.475,62.563,78.207,61.2,79.314,60.275z
			 M82.439,67.463c-1.053,0.51-1.334,1.79-2.813,1.876c0.528-1.034,1.683-1.442,2.501-2.188c0.55-0.282,0.965-0.699,1.252-1.25
			c0.818,0.093,0.241-1.211,1.247-0.938C84.322,66.223,83.262,66.725,82.439,67.463z M84.001,72.775
			c1.384-1.431,3.292-2.33,4.375-4.063c1.019-0.08,1.505,0.372,1.562,1.251C87.418,70.241,86.604,74.539,84.001,72.775z
			 M93.376,74.65h-1.247c-0.588,1.082-1.421,1.914-2.501,2.5c-0.708-0.832,1.101-1.803,1.872-2.188
			c0.199-1.26,1.341-1.576,1.251-3.125c1.327,0.238,1.821,1.304,2.812,1.876C95.207,74.4,93.502,73.732,93.376,74.65z"/>
	</g>
</g>
</svg>
