<?xml version="1.0" encoding="utf-8"?>
<!-- Generator: Adobe Illustrator 16.0.0, SVG Export Plug-In . SVG Version: 6.00 Build 0)  -->
<!DOCTYPE svg PUBLIC "-//W3C//DTD SVG 1.1//EN" "http://www.w3.org/Graphics/SVG/1.1/DTD/svg11.dtd">
<svg version="1.1" id="Layer_1" xmlns="http://www.w3.org/2000/svg"  x="0px" y="0px"
	 width="120px" height="120px" viewBox="4 4 120 120" style="enable-background:new 4 4 120 120;" xml:space="preserve">
<g id="arrow4-right">
	<g>
		<path d="M88.225,61.906c-0.787-2.143-2.324-3.533-3.904-4.88c-1.396-1.639-2.861-3.208-4.227-4.877
			c-2.937-3.028-5.893-6.032-8.457-9.433c-2.828-3.132-5.117-6.805-8.131-9.756c-0.005-1.402-1.619-1.198-1.624-2.603
			c-0.895-0.621-1.653-1.379-2.276-2.275c-1.525-1.512-2.572-3.499-4.878-4.228h-2.275c-0.486,0.168-0.822,0.479-1.303,0.65
			c-1.263,0.903-1.835,2.502-3.253,3.252c-0.685,1.592-2.704,1.849-3.25,3.578c-0.818,0.266-0.452,1.715-0.978,2.275
			c-0.786,0.296-0.862,1.307-0.977,2.275c0.11,1.734,1.579,2.113,1.954,3.579c0.959,0.882,2.182,1.504,2.601,2.927
			c2.126,1.667,3.816,3.769,5.528,5.853c2.151,1.644,3.659,3.928,5.527,5.855c1.173,0.67,1.757,1.931,2.928,2.602
			c0.221,0.756,1.08,0.869,1.302,1.625c0.059,0.919,1.547,0.405,1.299,1.627c-2.099,2.562-3.394,5.927-5.853,8.129
			c-0.681,1.704-2.31,2.464-2.927,4.228c-1.481,0.904-1.552,3.219-2.925,4.229c-0.064,1.13-1.151,1.233-1.305,2.276
			c-0.744,0.445-0.764,1.621-1.623,1.951c-0.702,1.684-2.188,2.582-2.928,4.228c-1.053,1.331-2.491,2.28-3.251,3.901
			c-1.148,1.235-2.905,1.869-3.255,3.902c1.129,2.885,3.569,4.455,5.854,6.182c2.222,1.896,3.949,4.289,7.48,4.875
			c0.884-0.524,1.833-0.984,2.277-1.949c0.601-0.81,0.982-1.836,1.953-2.276c1.443-1.481,2.61-3.239,4.228-4.552
			c0.13-1.279,1.428-1.391,1.624-2.602c1.092-0.43,1.353-1.686,2.277-2.279c1.381-1.547,2.5-3.35,4.229-4.551
			c2.756-2.987,5.875-5.613,8.779-8.455c2.768-3.088,5.334-6.373,8.131-9.435c0.141-1.051-0.43-2.812,0.647-2.925
			C87.77,64.055,88.316,63.3,88.225,61.906z M55.377,40.767c-0.75-0.659-1.736-1.081-1.953-2.277
			c0.828-1.343,1.479-2.857,2.278-4.227c1.021,0.71,1.792,1.677,2.276,2.927C56.919,38.191,55.46,38.792,55.377,40.767z
			 M79.768,61.579c0.17,0.169-0.235,0.415-0.326,0.327C79.277,61.737,79.677,61.488,79.768,61.579z M75.539,57.678
			c1.345,0.403-0.124,0.944-0.325,1.626C74.232,58.905,75.443,58.062,75.539,57.678z M63.506,49.548
			c0.011-0.316,0.401-0.254,0.652-0.327C64.149,49.537,63.762,49.475,63.506,49.548z M53.752,95.077
			c-0.441-0.103-0.271-0.815-0.328-1.304c-0.915-1.789-2.226-3.19-3.25-4.877c0.238-0.58,0.593-0.047,0.976,0
			c1.129,1.473,2.22,2.982,4.553,3.252C55.453,93.527,54.347,94.044,53.752,95.077z M58.303,89.223
			c-0.857,0.098-0.839-0.679-0.973-1.301c-1.296-1.092-2.672-2.098-3.256-3.902c0.303-0.238,0.495-0.592,0.653-0.977
			c0.674,0.625,1.355,1.248,1.625,2.277C57.324,86.275,59.974,87.619,58.303,89.223z M62.857,83.693
			c-1.311-0.316-1.831-1.42-2.602-2.276c-0.532-1.097-1.864-1.388-1.953-2.927c1.076,0.55,1.503,1.752,2.277,2.601
			c0.293,0.574,0.729,1.009,1.302,1.302C61.787,83.248,63.144,82.648,62.857,83.693z M66.434,79.792
			c-1.312-0.315-1.832-1.422-2.603-2.276c-0.633-0.884-1.553-1.479-1.949-2.603c-0.042-0.584,0.396-0.687,0.324-1.302h0.976
			c0.563,1.172,1.565,1.902,2.277,2.928c0.688,0.83,2.128,0.906,2.277,2.275C67.072,78.911,67.098,79.695,66.434,79.792z
			 M70.339,64.507c-0.2-0.019-0.389-0.049-0.327-0.325c-0.393,0.033-0.201-0.473,0,0C70.211,64.198,70.395,64.23,70.339,64.507
			c0.197,0.019,0.382,0.048,0.324,0.325c0.407,0.133,0.661,0.42,0.647,0.977c-0.404-0.135-0.664-0.42-0.647-0.977
			C70.463,64.812,70.273,64.784,70.339,64.507z M71.961,74.913c-0.884,0.235-0.652-0.646-1.298-0.649
			C70.766,73.574,72.203,74.191,71.961,74.913z M71.637,56.051c-1.082-0.437-2.008-1.026-3.25-1.3
			c-0.09-0.741,0.074-1.224,0.646-1.301c-0.371-1.023,0.515-0.79,0.654-1.301c1.31,0.315,1.828,1.419,2.602,2.274
			C72.338,55.234,71.775,55.431,71.637,56.051z M80.094,65.156c-0.4,0.684-0.9,1.269-1.302,1.953
			c-0.979,1.186-2.242,2.093-2.926,3.574c-0.929-0.592-1.188-1.848-2.276-2.274c1.253-1.242,3.312-1.675,3.902-3.577
			c1.474-0.152,3.01-0.242,3.576-1.302C81.948,64.018,80.505,64.891,80.094,65.156z"/>
	</g>
</g>
</svg>
