<?xml version="1.0" encoding="utf-8"?>
<!-- Generator: Adobe Illustrator 16.0.0, SVG Export Plug-In . SVG Version: 6.00 Build 0)  -->
<!DOCTYPE svg PUBLIC "-//W3C//DTD SVG 1.1//EN" "http://www.w3.org/Graphics/SVG/1.1/DTD/svg11.dtd">
<svg version="1.1" id="Layer_1" xmlns="http://www.w3.org/2000/svg"  x="0px" y="0px"
	 width="120px" height="120px" viewBox="4 4 120 120" style="enable-background:new 4 4 120 120;" xml:space="preserve">
<g id="arrow4-down">
	<g>
		<path d="M99.314,46.187c-1.656-2.199-3.168-4.542-5.939-5.628c-1.957,0.337-2.562,2.023-3.748,3.127
			c-1.559,0.731-2.473,2.112-3.752,3.123c-1.581,0.712-2.443,2.14-4.061,2.813c-0.316,0.83-1.444,0.848-1.877,1.562
			c-1.004,0.146-1.1,1.191-2.188,1.252c-0.973,1.321-3.189,1.391-4.062,2.813c-1.694,0.594-2.422,2.156-4.061,2.811
			c-2.115,2.362-5.349,3.608-7.813,5.627c-1.29,0.245-0.586-1.497-1.876-1.252c-0.385-0.653-0.909-1.175-1.562-1.563
			c-0.908-1.172-1.953-2.212-3.123-3.123c-1.959-2.105-4.176-3.952-6.249-5.938c-2.21-1.956-4.219-4.115-6.565-5.937
			c-1.089-0.996-2.026-2.14-3.748-2.5c-0.95-1.029-1.354-2.605-3.126-2.814c-3.721-0.279-4.662,2.216-6.874,3.439
			c-0.817,1.058-1.791,1.962-2.19,3.437c-1.399,0.374-2.17,1.372-2.499,2.813c0.239,1.95,1.382,2.996,2.812,3.749
			c0.397,0.751,0.403,1.89,0.938,2.501c2.882,2.534,5.554,5.282,8.75,7.501c0.963,1.085,2.193,1.795,3.437,2.811
			c1.547,1.263,3.587,3.146,5.626,4.375c2.779,2.642,5.749,5.086,8.44,7.813c3.006,2.308,5.349,5.276,8.436,7.5
			c0.229,0.291,0.566,0.474,0.937,0.625c1.983,0.317,2.396-0.942,3.438-1.563c0.453-1.108,1.438-1.685,2.188-2.498
			c1.842-1.287,3.521-2.729,5.312-4.062c1.689-1.436,3.308-2.939,5-4.375c1.621-1.4,3.455-2.587,5.002-4.062
			c3.648-2.496,6.688-5.604,9.998-8.438c1.814-1.312,3.643-2.608,5-4.375c0.851-0.711,1.74-1.384,2.502-2.189
			c1.295-0.158,1.578-1.337,2.185-2.186C103.436,49.979,101.137,48.319,99.314,46.187z M37.125,55.873
			c0.781-0.261,1.229-0.857,2.188-0.938c0.625,0.52,1.453,0.838,1.564,1.874C40.014,59.117,37.989,57.05,37.125,55.873z
			 M51.502,63.687c0-0.173,0.25-0.355,0.312,0C51.814,63.857,51.56,64.039,51.502,63.687z M54.312,69.311
			c0.49-0.135,0.27-0.983,1.252-0.625c0.074-0.549,0.537-0.713,1.249-0.625c0.264,1.194,0.833,2.088,1.25,3.125
			C56.463,72.62,54.856,70.764,54.312,69.311z M59.625,74.934c0.37-0.09,1.181-1.258,1.566-0.311
			C60.536,74.816,60.014,76.227,59.625,74.934z M63.689,78.998c-0.088,0.086-0.477-0.152-0.314-0.312
			C63.463,78.6,63.848,78.835,63.689,78.998z M65.249,80.247c0.923-0.12,0.612-1.472,1.254-1.874
			c0.065,0.244,0.259,0.363,0.622,0.312C67.004,79.52,65.854,80.932,65.249,80.247z M66.503,70.248
			c-0.271,0.059-0.298-0.121-0.313-0.312c-0.269,0.058-0.295-0.121-0.312-0.312c-0.456-0.191,0.032-0.378,0,0
			c0.264-0.059,0.296,0.123,0.312,0.312C66.454,69.878,66.482,70.057,66.503,70.248c0.53-0.016,0.808,0.23,0.933,0.625
			C66.904,70.885,66.631,70.641,66.503,70.248z M74.938,62.123c0.431,0.012,0.688-0.148,0.938-0.312
			c0.357,0.369,0.352,1.104,0.312,1.876C75.311,63.628,74.857,63.141,74.938,62.123z M76.188,71.497
			c-0.694,0.231-1.285-1.151-0.627-1.249C75.566,70.87,76.419,70.646,76.188,71.497z M79.312,67.436
			c-1.105-0.926-0.838-2.287,0-3.437c0.295,0.954,1.52,0.978,1.562,2.187C80.475,66.723,80.23,67.414,79.312,67.436z M83.378,61.811
			c-0.286-0.551-0.701-0.967-1.251-1.25c-0.818-0.746-1.973-1.154-2.501-2.188c1.479,0.086,1.761,1.366,2.813,1.876
			c0.82,0.739,1.883,1.241,2.186,2.5C83.62,63.022,84.197,61.719,83.378,61.811z M88.376,58.999
			c-1.083-1.733-2.991-2.634-4.375-4.063c2.603-1.763,3.417,2.534,5.937,2.812C89.88,58.627,89.395,59.079,88.376,58.999z
			 M92.751,55.873c0.09-1.549-1.053-1.865-1.252-3.125c-0.772-0.385-2.58-1.356-1.872-2.188c1.081,0.585,1.913,1.417,2.502,2.5
			h1.246c0.127,0.918,1.832,0.25,2.188,0.937C94.57,54.57,94.077,55.635,92.751,55.873z"/>
	</g>
</g>
</svg>
