<?xml version="1.0" encoding="utf-8"?>
<!-- Generator: Adobe Illustrator 16.0.0, SVG Export Plug-In . SVG Version: 6.00 Build 0)  -->
<!DOCTYPE svg PUBLIC "-//W3C//DTD SVG 1.1//EN" "http://www.w3.org/Graphics/SVG/1.1/DTD/svg11.dtd">
<svg version="1.1" id="Layer_1" xmlns="http://www.w3.org/2000/svg"  x="0px" y="0px"
	 width="120px" height="120px" viewBox="4 4 120 120" style="enable-background:new 4 4 120 120;" xml:space="preserve">
<g id="code2">
	<g>
		<path d="M83.531,30.733c-2.076-1.318-5.088-1.709-7.194-2.997c-0.917-0.216-1.091,0.306-1.795,0.301
			c-0.047-0.658-0.757-0.646-1.5-0.6c-0.353,0.145-0.683,0.319-0.897,0.6c-1.649,1.344-1.455,4.541-2.701,6.292
			c-0.471,2.428-1.307,4.486-1.797,6.894c-1.317,4.481-2.588,9.002-3.898,13.488c-0.732,2.162-1.611,4.181-2.095,6.595
			c-1.069,1.828-1.328,4.465-2.399,6.292c-0.384,2.519-1.455,4.34-1.797,6.896c-0.896,2.104-0.661,5.332-2.396,6.592
			c0.463,0.925,0.772,1.762,0,2.699c0.036,0.738,0.043,1.443-0.303,1.799c-0.172,0.527,0.363,1.762-0.299,1.797
			c-0.224,2.574-0.844,4.753-0.901,7.494c-0.654,0.941-0.562,2.636-1.198,3.598c-0.056,1.754,0.76,2.641,1.498,3.596
			c2.471,0.549,6.062-0.043,8.696-0.299c1.399-0.194,1.604-1.592,2.396-2.398c1.519,0.122,2.087-0.71,2.995-1.198
			c1.216-4.184,2.01-8.78,2.699-13.489c1.018-4.377,2.346-8.443,2.998-13.187c1.264-2.531,2.272-5.321,2.998-8.392
			c0.774-3.122,2.239-5.551,2.996-8.693c0.78-1.118,0.862-2.932,1.194-4.495c0.37-1.532,0.946-2.857,0.903-4.796
			c0.675-0.224,0.113-1.683,0.301-2.397c0.406-0.591,0.283-1.71,0.598-2.399c0.195-1.804,0.895-3.103,1.196-4.796
			C83.768,33.895,84.04,31.926,83.531,30.733z M74.542,32.53h0.599v0.6h-0.599V32.53z M61.949,95.775
			c0.197-0.404,0.643-0.561,1.2-0.602C63.082,95.702,62.633,95.857,61.949,95.775z M63.747,93.375
			c-1.116-0.48-1.986-1.206-3.893-0.898c-0.207-1.205,0.287-1.713,0.298-2.696c1.321-0.578,2.6-1.197,4.195-1.499
			C64.27,90.102,63.893,91.619,63.747,93.375z M65.249,84.086c-1.872-0.273-2.75,0.444-4.2,0.596c0.25-1.445,0.859-2.541,0.9-4.191
			c1.459-0.542,2.409-1.592,4.195-1.801C65.752,80.395,65.605,82.344,65.249,84.086z M67.044,74.193
			c-1.717-0.32-2.272,0.521-3.595,0.6c0.022-1.477,0.587-2.41,0.898-3.598c0.771-0.527,2.167-0.43,2.696-1.199
			c0.352-0.048,0.536,0.068,0.602,0.301C67.566,71.716,66.96,72.607,67.044,74.193z M70.346,63.104
			c-1.344,0.251-2.799,0.401-3.602,1.198c-0.645-0.67,0.629-1.958,0.602-2.997c1.12-0.476,2.323-0.875,3.299-1.5
			c1.053-0.316,0.248,1.012,0,1.2C70.884,62.045,70.198,62.158,70.346,63.104z M73.939,52.012c0.078,1.081-0.556,1.445-0.601,2.399
			c-1.272,0.827-3.112,1.082-4.196,2.098c-0.758-0.588,0.676-1.503,0.301-2.698c1.068-1.029,3.078-1.119,4.197-2.1
			C74.18,51.631,74.255,51.997,73.939,52.012z M75.438,46.918c-1.201,0.995-3.006,1.388-4.192,2.398
			c-0.847-0.868,0.288-2.297,0.298-3.298c1.482-0.614,3.021-1.17,4.195-2.097C76.553,44.656,75.412,45.973,75.438,46.918z
			 M77.835,38.525c-1.823,0.974-3.403,2.188-5.392,2.999c0.431-0.966,0.572-2.226,0.896-3.296c1.413-0.89,2.978-1.621,4.495-2.401
			c0.514-0.107,0.566,0.236,0.602,0.603C77.969,36.862,77.807,37.598,77.835,38.525z M119.498,62.206
			c-0.645-0.556-1.477-0.922-2.098-1.5c-0.481-0.713-1.077-1.321-1.496-2.096c-0.602-0.602-1.526-0.877-1.799-1.801
			c-1.475-0.924-2.297-2.499-3.601-3.596c-1.231-1.166-1.972-2.818-3.597-3.596c-1.44-1.056-2.444-2.551-3.895-3.598
			c-0.057-0.776-0.824-1.294-1.201-1.796c-0.467-0.625-0.731-1.476-1.5-1.8c-0.754-1.341-1.612-2.58-3.295-2.998h-1.496
			c-0.354,0.146-0.682,0.321-0.902,0.6c-0.829,0.412-1.396,1.976-1.797,2.398c-0.514,0.538-0.866,0.969-1.196,1.5
			c-0.873,1.377-1.749,2.958-2.103,4.794c1.306,3.892,3.65,6.742,5.998,9.592c-0.084,1.082,0.553,1.446,0.598,2.398
			c1.135,0.565,2.393,1.004,2.998,2.097c0.58,1.119,1.695,1.699,2.097,2.998c-1.442,1.556-1.998,3.996-3.599,5.396
			c-0.907,2.088-2.395,3.598-3.293,5.695c-1.248,1.752-2.399,3.599-3.301,5.694c-1.472,1.62-3.226,2.968-3.295,5.996
			c0.092,0.405,0.428,0.571,0.297,1.196c1.074,1.826,3.527,2.271,5.1,3.597c2.059,0.84,2.982,2.812,5.695,2.998
			c4.666-1.625,6.5-6.087,9.588-9.292c1.689-4.201,4.046-7.744,5.994-11.688c1.473-1.525,2.593-3.402,3.599-5.396
			c1.063-1.932,2.7-3.294,3-5.994C120.378,63.522,120.568,62.235,119.498,62.206z M96.12,49.917c-0.815-0.381-1.192-1.204-1.797-1.8
			c0.176-1.121,1.048-1.549,1.497-2.401c0.865,0.139,0.709,1.291,1.496,1.502C96.961,48.16,96.307,48.803,96.12,49.917z
			 M103.613,54.411c1.921,1.577,3.107,3.887,5.096,5.395c-0.585,0.812-2.167,0.631-2.697,1.5c-0.912-1.002-2.505-2.733-1.199-4.196
			c-0.203-0.656-0.998,0.566-1.197,0.9c-0.598-0.005-0.383-0.82-1.2-0.601C102.294,55.889,103.125,55.321,103.613,54.411z
			 M99.418,89.182c-0.268,0.131-0.536,0.264-0.598,0.599c-1.629-0.368-2.391-1.606-3.9-2.099c-0.271-1.47,1.258-1.144,1.2-2.398
			c0.692,0.605,1.603,0.997,1.798,2.099C98.607,87.791,99.59,87.906,99.418,89.182z M102.711,85.282
			c-1.258-0.136-1.377-1.415-2.396-1.798c-0.446-0.849-1.316-1.273-1.494-2.398c0.865-0.934,1.423-2.173,2.096-3.296
			c0.848-0.046,0.751,0.847,1.201,1.199c0.527,0.271,0.928,0.67,1.197,1.198c0.57,0.129,0.754,0.646,1.498,0.6
			C104.455,82.631,103.348,83.72,102.711,85.282z M106.909,77.491c-1.282-1.015-2.501-2.093-2.994-3.897
			c0.237-1.955,1.405-2.988,2.097-4.494c0.717-0.227,0.823,0.205,1.197,0.6c0.246,0.255,0.355,0.646,0.602,0.898
			c0.27,0.276,0.777,1.443,1.797,1.497C108.822,74.005,107.494,75.378,106.909,77.491z M112.006,69.1
			c-1.167-0.135-1.227-1.373-1.797-2.099c-0.477-0.827-1.021-1.577-1.802-2.101c0.153-1.444,1.481-1.714,1.5-3.295
			c1.588,1.011,2.665,2.529,3.896,3.896C113.523,67.018,112.468,67.762,112.006,69.1z M46.964,52.012
			c1.161-1.735,2.888-2.906,2.399-6.296c-0.719-1.276-2.319-1.679-3.596-2.395c-1.774-0.326-2.532-1.667-3.898-2.397
			c-2.134-0.067-3.484-0.914-5.994-0.6c-2.104,0.694-2.602,2.997-3.297,5.096c-3.967,2.727-7.588,5.8-11.689,8.392
			c-1.617,1.783-4.032,2.761-5.395,4.798c-1.867,1.53-3.985,2.811-4.494,5.693c0.845,3.543,3.605,5.187,4.793,8.393
			c1.209,0.992,1.556,2.841,2.698,3.896c0.671,1.626,1.724,2.875,2.696,4.197c2.198,4.397,4.397,8.791,6.593,13.188
			c0.956,1.344,1.336,3.265,2.701,4.195c1.033,0.363,1.986,0.812,3.593,0.6c1.906-0.491,2.492-2.307,3.599-3.597
			c1.176-1.321,2.344-2.651,3.298-4.196c1.276-1.224,2.165-2.828,3.297-4.195c0.835-1.662,3.058-1.938,2.996-4.497
			c-0.008-2.486-1.346-3.647-2.696-4.794c-0.226-0.975-1.769-1.805-1.798-2.397c-0.053-0.938-1.793-1.098-1.5-2.1
			c-3.042-2.151-4.668-5.722-7.195-8.392C38.549,60.58,42.495,56.035,46.964,52.012z M22.386,69.698
			c-0.662,0.163-0.427-0.573-0.898-0.601c0.197-0.402,0.64-0.56,1.2-0.603C22.456,68.766,22.363,69.175,22.386,69.698z M23.589,66.7
			c-1.164-1.537-1.827-3.571-2.7-5.395c-0.031-1.331,1.555-1.042,1.799-2.098c0.95-0.251,1.524-0.875,2.098-1.498
			c0.483-0.086,0.515,0.284,0.9,0.3c0.47,1.528,1.878,2.115,2.398,3.596c-0.481,0.421-0.77,1.033-0.902,1.799
			C25.322,63.84,24.319,65.136,23.589,66.7z M26.285,75.991c-0.594-0.206-0.803-0.798-0.901-1.497
			c0.852-0.051,1.248-0.551,2.098-0.602C27.204,74.713,26.562,75.172,26.285,75.991z M27.481,70.297
			c-0.078-0.878,0.679-0.921,0.603-1.801c1.028,0.168,1.522,0.877,2.093,1.5c-0.2,1.098-1.132,1.463-1.495,2.398
			C28.19,71.785,28.052,70.826,27.481,70.297z M37.373,79.588c0.77,0.729,1.416,1.582,2.1,2.398c-0.659,1.637-1.938,2.658-3,3.896
			c-0.421,0.777-1.014,1.384-1.496,2.097c-0.93,0.172-0.788,1.412-1.797,1.5c0.01-2.188,1.463-2.929,1.797-4.797
			c0.697-1.396,1.397-2.796,2.097-4.192C36.989,80.005,37.359,79.973,37.373,79.588z M34.977,77.191
			c-1.129,0.768-1.838,1.959-2.398,3.298c-1.098,0.799-0.818,2.978-2.401,3.296c0.05-0.748-0.467-0.928-0.599-1.5
			c0.357-2.738,2.037-4.156,2.702-6.594c0.103-0.396,0.525-0.471,0.595-0.898C33.665,75.503,34.686,75.982,34.977,77.191z
			 M32.28,57.408c-0.609,0.693-0.999,1.603-2.104,1.799c-0.939-0.959-1.559-2.234-2.695-2.998c0.972-1.626,2.981-2.212,4.195-3.597
			c1.36,0.34,1.457,1.941,2.397,2.696C33.879,56.412,32.972,56.804,32.28,57.408z M37.073,52.913
			c-1.255,0.254-1.188-0.813-1.799-1.202c-0.134-0.693-1.321-0.8-0.598-1.496C36.054,50.425,37.611,51.751,37.073,52.913z"/>
	</g>
</g>
</svg>
