<?xml version="1.0" encoding="utf-8"?>
<!-- Generator: Adobe Illustrator 16.0.0, SVG Export Plug-In . SVG Version: 6.00 Build 0)  -->
<!DOCTYPE svg PUBLIC "-//W3C//DTD SVG 1.1//EN" "http://www.w3.org/Graphics/SVG/1.1/DTD/svg11.dtd">
<svg version="1.1" id="Layer_1" xmlns="http://www.w3.org/2000/svg"  x="0px" y="0px"
	 width="120px" height="120px" viewBox="4 4 120 120" style="enable-background:new 4 4 120 120;" xml:space="preserve">
<g id="cloud1">
	<g>
		<path d="M111.993,69.381c-2.164-2.83-4.204-5.785-7.771-7.216c-1.595-0.804-3.726-0.955-5.83-0.555
			c1.556-3.625,3.264-7.099,3.889-11.656V41.63c-0.444-2.887-1.473-5.188-2.496-7.494c-1.438-1.71-3.112-3.183-4.719-4.717
			c-2.168-0.886-4.185-1.925-6.938-2.221h-6.938c-0.461,0.465-1.631,0.222-2.496,0.278c-2.607,0.721-5.157,1.503-7.493,2.498
			c-2.011,1.412-3.984,2.863-5.828,4.44c-0.595,1.164-1.767,1.75-2.22,3.051c-1.258,0.592-1.273,2.429-2.497,3.054
			c-0.48-1.556-2.31-1.761-3.606-2.498c-10.977-1.019-19.33,2.828-24.976,8.046c-0.27,1.118-1.078,1.7-1.667,2.499
			c-0.109,1.001-0.37,1.85-0.834,2.498v6.66c0.321,0.33,0.315,0.981,0.279,1.666c0.488,0.712,0.205,2.201,0.831,2.774
			c-0.229,0.785,0.391,0.721,0.277,1.388c-0.038,0.368,0.934,1.032,0.279,1.109c-1.826-0.066-3.504,0.014-4.996,0.278
			c-6.729,3.631-10.488,10.232-12.208,18.869c-0.125,2.254,0.12,4.137,0.276,6.105c0.452,0.477,0.839,1.01,0.833,1.943
			c3.069,4.516,7.854,7.316,14.985,7.77c2.118,0.084,4.026-0.043,5.829-0.277c1.489,0.361,3.155,0.541,4.717,0.832
			c15.95,0.856,31.816-0.227,47.729-0.275c2.938-1.041,7.291-0.667,10.826-1.11c0.051-0.411,0.67-0.256,1.108-0.278
			c0.183-0.371,0.591-0.518,1.108-0.554c0.332-0.687,0.951-1.086,1.664-1.389c1.578,0.188,2.279-0.499,3.609-0.556
			c1.613-1.254,3.182-2.551,4.441-4.162c1.342-2.268,2.294-4.922,2.771-8.049C114.175,78.111,113.794,73.038,111.993,69.381z
			 M38.177,65.217c-0.248,0.172-0.499,0.336-0.556,0C37.689,64.869,38.174,64.938,38.177,65.217z M105.889,81.312
			c-0.621,0.768-1.08,1.695-1.389,2.775c-0.688,0.792-1.27,1.692-1.665,2.773c-1.608,1.259-2.29,3.443-4.44,4.164
			c0.537-0.678,0.267-2.321,0-3.053c-0.215-0.062-0.549-0.009-0.553-0.279c-3.02-0.058-3.963,1.961-4.165,4.718h-4.438
			c-0.614-0.606,0.273-1.132,0-2.218c-0.547-2.047-0.506-4.676-1.942-5.828c-3.873,0.199-5.446,2.693-7.215,4.994
			c-0.106,1.586,0.022,2.935,1.108,3.33c-0.385,0.633-1.932,0.104-2.774,0.277c0.185-0.928,0.862-1.357,1.11-2.221
			c-1.168-0.82-1.914,0.745-2.498,1.389H76.75c0.016,0.381-0.131,0.609-0.275,0.832c-0.434-0.072-0.193-0.609,0-0.832h0.275
			c0.805-1.97,2.027-3.523,3.053-5.273c0.854-1.588,3.039-3.201,1.943-5.827c-3.248,0.082-3.664,2.998-5.83,4.163
			c-1.658,1.763-3.264,3.582-4.717,5.55c-0.232,0.69-0.365,1.487-0.278,2.499c-7.226,0.729-15.293,0.615-22.752,1.109
			c0.056-1.394,0.902-2.625,0.275-3.885c-0.217-0.063-0.549-0.01-0.555-0.277c-2.752,0.3-3.62,2.482-4.719,4.438h-1.941
			c0.439-1.87,1.248-3.377,1.941-4.995c-0.113-0.619,0.154-1.332,0-1.943c-0.177-0.713-0.317-0.719-0.834-1.108
			c-2.888,0.625-3.674,3.354-5.547,4.995c-0.238,1.059-0.826,1.766-1.113,2.775c-1.026,0.195-1.188-0.475-2.216-0.278
			c0.126-2.765,2.827-4.351,2.216-6.938c0-0.365-0.483-0.254-0.552-0.555c-2.045,0.084-3.127,1.127-4.165,2.221
			c-0.738-0.848,0.727-1.854,0.279-3.33c-0.328-0.135-0.629-0.295-0.833-0.556c-3.438,0.632-5.077,3.062-6.385,5.827
			c-0.932-0.953,0.387-2.007,0.278-3.053c0.697-0.691,0.788-1.987,1.391-2.774c0.779-1.901,2.014-3.351,3.051-4.995
			c-0.152-1.142-1.031-1.557-2.497-1.387c-2.15,0.715-3.265,2.468-4.441,4.162c-0.614-0.453,0.389-1.629,0.556-2.221
			c0.467-0.734,0.644-1.765,1.11-2.498c0.739-1.664,2.153-2.656,2.775-4.439c-1.365-0.539-2.745,1.076-3.607,1.943
			c-0.534-0.198,0.054-1.584,0.557-1.668c-0.071-0.992,0.828-1.016,0.828-1.94c2.434-2.288,4.877-4.562,8.884-5.271
			c1.022-0.006,1.225,0.807,1.664,1.386c0.479-0.015,0.712,0.215,0.832,0.556c0.172,0.387,1.069,0.042,1.113,0.555
			c1.077-0.216,1.559-1.029,2.497-1.388c0.219-1.26,0.39-2.565,0.829-3.607c-0.075-1.125-0.882-1.523-0.554-3.052
			c0.333-1.519,1.332-2.367,1.664-3.886c-0.077-1.225-1.468,0.15-1.664-0.555c-0.11-1.683,1.184-1.962,1.944-2.775
			c0.535-1.13,1.91-1.417,2.22-2.775c-0.015-1.097-0.57-1.652-1.667-1.665c0.577-0.996,1.366-1.781,1.943-2.776
			c4.096-1.552,12.245-3.737,16.095-0.555c-0.062,3.3-0.457,6.932,2.496,7.216c1.339-0.049,1.824-0.95,1.945-2.22
			c0.323,0.233,0.743,0.366,1.384,0.277c1.541-0.498,2.088-1.983,2.777-3.331c0.543-1.583,1.788-2.469,2.496-3.885
			c1.2-0.833,1.958-2.113,3.333-2.775c0.729-1.397,3.172-1.081,3.328-3.052c0.076-1.282-0.91-1.497-1.666-1.944
			c-2.063-0.214-2.79,0.908-4.163,1.389c-1.574,1.106-2.943,2.418-4.438,3.607c0.028,0.335-0.404,0.17,0,0
			c-0.069-0.995,0.832-1.017,0.832-1.941c0.906-0.109,0.86-1.174,1.386-1.666c1.448-0.869,2.61-2.02,4.44-2.499
			c0.455-0.656,1.631-0.59,2.221-1.11c0.873-0.329,2.094-0.312,2.777-0.832c0.356,0.381,1.203,0.274,1.94,0.277
			c0.647-0.091,1.146-0.333,1.666-0.555h4.993c2.808,0.336,4.671,1.622,6.385,3.053c1.15,1.716,1.998,3.735,2.497,6.104v5.55
			c-0.513,5.688-2.955,9.441-4.72,13.876v2.221c0,0.277,0.226,0.329,0.276,0.555c0.078,0.569,0.745,0.555,1.113,0.831
			c1.03-0.293,0.896,0.585,1.387,0.834c0.784-0.144,1.179-0.672,1.942-0.834h4.438c0.236,0.413,0.896,0.402,1.391,0.556
			c0.115,0.35,0.359,0.567,0.83,0.557c0.541,1.312,1.613,2.088,2.222,3.33c0.669,1.182,1.114,2.584,1.668,3.885
			c0.042,0.327-0.049,0.787,0.274,0.833C106.835,76.711,106.232,78.885,105.889,81.312z M80.633,35.247
			c-0.012,0.383,0.131,0.609,0.279,0.833c1.512-0.059,3.337,0.19,4.438-0.278C85.119,34.392,81.68,34.943,80.633,35.247z
			 M70.089,48.567c-1.716,0.781-2.749,2.244-4.163,3.33c-0.689,1.637-2.549,3.222-1.664,5.551c0.619,0.399,1.337,0.696,2.496,0.554
			c1.309-1.099,1.727-3.086,2.498-4.717c0.871-1.628,2.303-2.697,2.497-4.995c-0.524,0.062-0.608-0.313-1.108-0.278
			C70.639,48.379,70.156,48.267,70.089,48.567z"/>
	</g>
</g>
</svg>
