<?xml version="1.0" encoding="utf-8"?>
<!-- Generator: Adobe Illustrator 16.0.0, SVG Export Plug-In . SVG Version: 6.00 Build 0)  -->
<!DOCTYPE svg PUBLIC "-//W3C//DTD SVG 1.1//EN" "http://www.w3.org/Graphics/SVG/1.1/DTD/svg11.dtd">
<svg version="1.1" id="Layer_1" xmlns="http://www.w3.org/2000/svg"  x="0px" y="0px"
	 width="120px" height="120px" viewBox="4 4 120 120" style="enable-background:new 4 4 120 120;" xml:space="preserve">
<g id="cloud3">
	<g>
		<path d="M111.992,69.381c-2.162-2.831-4.204-5.786-7.768-7.216c-1.597-0.805-3.724-0.955-5.83-0.555
			c1.556-3.625,3.263-7.099,3.887-11.656V41.63c-0.444-2.886-1.475-5.188-2.498-7.494c-1.436-1.711-3.109-3.181-4.717-4.718
			c-2.168-0.886-4.183-1.925-6.939-2.22h-6.938c-0.459,0.464-1.629,0.221-2.498,0.278c-2.606,0.721-5.158,1.503-7.494,2.497
			c-2.006,1.412-3.982,2.863-5.826,4.441c-0.594,1.164-1.766,1.749-2.22,3.052c-1.258,0.591-1.272,2.429-2.497,3.054
			c-0.479-1.555-2.309-1.761-3.606-2.499c-10.977-1.018-19.331,2.828-24.976,8.049c-0.271,1.117-1.077,1.698-1.667,2.497
			c-0.108,1.001-0.369,1.851-0.83,2.497v6.66c0.318,0.329,0.312,0.981,0.276,1.666c0.489,0.713,0.205,2.2,0.832,2.775
			c-0.229,0.785,0.391,0.719,0.277,1.387c-0.039,0.369,0.933,1.033,0.28,1.11c-1.828-0.066-3.504,0.014-4.997,0.279
			c-6.729,3.629-10.488,10.23-12.209,18.869c-0.125,2.252,0.12,4.135,0.276,6.104c0.452,0.476,0.842,1.011,0.831,1.942
			c3.069,4.519,7.854,7.317,14.987,7.771c2.121,0.085,4.028-0.044,5.828-0.276c1.49,0.36,3.159,0.541,4.716,0.832
			c15.951,0.854,31.821-0.228,47.732-0.277c2.938-1.041,7.289-0.666,10.822-1.11c0.051-0.41,0.672-0.253,1.11-0.278
			c0.185-0.371,0.593-0.515,1.11-0.553c0.33-0.688,0.949-1.086,1.662-1.388c1.576,0.187,2.276-0.501,3.608-0.556
			c1.613-1.256,3.183-2.553,4.442-4.162c1.34-2.269,2.292-4.922,2.771-8.049C114.174,78.114,113.794,73.037,111.992,69.381z
			 M107.553,83.533c-0.598,2.084-1.504,3.861-2.221,5.826c-1.657,1.488-3.062,3.227-6.104,3.332
			c-1.029,0.011-1.61-0.428-2.222-0.832c-1.272,0.256-1.34-0.695-2.497-0.557c-1.033-0.292-0.546,0.936-1.109,1.11
			c-1.898,0.051-3.715,0.017-5.273-0.277c-1.675,0.175-3.305,0.394-5.273,0.277c-2.65,0.771-5.902,0.94-9.435,0.832
			c-6.657,0.558-13.887,0.543-20.811,0.833c-1.235,0.337-2.846,0.302-4.441,0.277c0.06-1.393,0.904-2.623,0.277-3.887
			c-0.323,0.047-0.495-0.061-0.555-0.277c-1.926-0.075-2.42,1.281-3.333,2.222c-0.7,0.223-0.705,1.144-1.107,1.665
			c0.168,1.094-1.525,0.326-2.219,0.556c0.259-1.495,0.987-2.526,1.386-3.886c0.231-0.602,0.718-0.946,0.556-1.943
			c-0.047-0.783,0.239-1.902-0.556-1.94c-2.413-0.585-3.784,2.683-5.274,4.161c-0.893,0.865-0.993,2.521-1.942,3.33
			c-0.874,0.137-0.978-0.498-1.941-0.276c0.128-2.765,2.827-4.351,2.22-6.938c-1.599-1.396-3.778,0.642-4.72,1.664
			c-0.766-0.789,1.052-2.494,0-3.604c-2.318-0.71-3.852,1.418-5.271,2.497c-0.543,1.029-1.201,1.943-1.668,3.053
			c-0.797-0.906,0.17-2.409,0.558-3.053c0.184-1.11,0.686-1.901,1.11-2.776c0.777-1.901,2.013-3.349,3.05-4.993
			c-0.011-1.947-3.406-1.627-4.16-0.557c-0.966,1.068-2.093,1.979-2.778,3.331c-0.667-0.601,0.587-1.619,0.557-2.498
			c0.603-0.601,0.786-1.62,1.111-2.497c0.703-0.499,1.042-1.362,1.387-2.221c0.692-0.42,1.27-0.95,1.387-1.942
			c-0.695-0.558-1.828,0.228-2.222,0.833c-0.713-0.138-1.568,1.837-1.664,0.557c2.11-4.185,5.375-7.207,10.545-8.326
			c1.195-0.084,1.086,1.135,1.943,1.387c0.568,0.451,1.136,0.9,1.944,1.109c1.021-2.819-0.682-5.208-0.833-7.769
			c0.154-0.864,0.225-1.81,0.556-2.499c0.337-1.421,1.536-1.976,1.941-3.331c1.047-0.525,1.88-1.264,2.777-1.941
			c0.819-0.753,1.861-1.284,2.219-2.499c-0.016-1.095-0.57-1.65-1.666-1.663c0.578-0.997,1.365-1.781,1.943-2.777
			c4.095-1.552,12.246-3.738,16.094-0.554c0.074,2.887-0.619,6.541,1.943,6.937c0.891,0.059,0.676-0.989,1.11-1.388
			c0.265-0.565,0.566-1.098,0.833-1.665c0.475-1.097,1.011-2.131,1.387-3.33c0.827-2.406,2.057-4.282,2.496-6.382
			c0.622-0.767,1.4-1.375,1.664-2.497c1.43-0.795,2.355-2.088,4.163-2.5c1.54-0.588,3.073-1.182,4.717-1.664
			c1.126-0.301,1.526,0.108,3.054,0c1.396-0.917,4.189-0.439,6.385-0.556c2.81,0.338,4.669,1.622,6.382,3.054
			c1.733,2.521,2.846,5.663,2.497,10.267c0.716,2.2,0.688,5.508,0.279,8.049c-0.53,0.58-0.896,1.325-1.11,2.219
			c-1.25,0.969-2.302,2.139-3.33,3.331c-0.363,1.116-0.726,2.238-0.558,3.886c2.492-0.378,4.998-0.74,8.049-0.555
			c0.742,0.645,1.822,0.952,2.498,1.667c0.686,0.701,1.093,1.684,1.943,2.22c0.967,2.548,2.379,4.651,3.051,7.491
			C107.291,77.689,107.74,80.295,107.553,83.533z M73.419,66.051h-3.05c-0.846-0.174-2.393,0.354-2.777-0.277
			c0.98-2.813,2.113-5.473,3.055-8.324c0.494-1.447,1.123-2.761,1.388-4.442c0.245-0.678,0.646-1.203,0.556-2.219
			c0.409-0.051,0.253-0.67,0.277-1.109c-0.065-0.493,0.277-1.39-0.557-1.111h-0.276c-0.41,0.144-0.701,0.409-1.111,0.555
			c-1.628,1.239-2.86,2.876-4.163,4.441c-0.906,0.477-1.173,1.599-1.943,2.22c-0.354,1.122-1.429,1.527-1.665,2.775
			c-1.467,1.397-2.232,3.501-3.883,4.717c-0.396,1.085-1.168,1.792-1.667,2.775c-0.387,1.096-1.054,1.905-0.83,3.606
			c0.32,0.048,0.298,0.438,0.276,0.834c0.828,1.114,2.484,1.399,4.164,1.665h2.497c0.752,0.171,2.201-0.354,2.497,0.277
			c-0.869,1.351-1.263,3.178-2.22,4.438c-0.483,4.144-2.204,7.049-3.331,10.546c0.63,0.479,1.55,0.669,2.776,0.557
			c0.961-0.43,1.776-0.998,1.94-2.222c0.744-0.646,1.3-1.476,1.665-2.498c1.307-0.729,1.718-2.354,3.052-3.053
			c0.977-1.153,2.055-2.204,3.055-3.33c0.832-1.297,1.834-2.421,2.773-3.606c0.761-1.371,2.227-2.031,2.221-4.164
			c0.073-0.812-0.627-0.852-0.555-1.662C76.674,66.496,74.871,66.447,73.419,66.051z"/>
	</g>
</g>
</svg>
