<?xml version="1.0" encoding="utf-8"?>
<!-- Generator: Adobe Illustrator 16.0.0, SVG Export Plug-In . SVG Version: 6.00 Build 0)  -->
<!DOCTYPE svg PUBLIC "-//W3C//DTD SVG 1.1//EN" "http://www.w3.org/Graphics/SVG/1.1/DTD/svg11.dtd">
<svg version="1.1" id="Layer_1" xmlns="http://www.w3.org/2000/svg"  x="0px" y="0px"
	 width="120px" height="120px" viewBox="4 4 120 120" style="enable-background:new 4 4 120 120;" xml:space="preserve">
<g id="cloud5">
	<g>
		<path d="M111.994,69.383c-2.167-2.83-4.207-5.788-7.771-7.217c-1.596-0.804-3.727-0.953-5.83-0.555
			c1.559-3.627,3.267-7.097,3.892-11.655V41.63c-0.445-2.885-1.476-5.189-2.502-7.489c-1.431-1.713-3.105-3.185-4.716-4.722
			c-2.168-0.885-4.182-1.924-6.938-2.221h-6.938c-0.459,0.468-1.629,0.221-2.491,0.28c-2.613,0.722-5.16,1.5-7.496,2.496
			c-2.013,1.414-3.985,2.862-5.829,4.443c-0.594,1.165-1.767,1.749-2.221,3.05c-1.26,0.591-1.271,2.428-2.498,3.052
			c-0.478-1.553-2.306-1.761-3.604-2.496c-10.975-1.019-19.331,2.828-24.98,8.045c-0.266,1.12-1.071,1.703-1.659,2.499
			c-0.108,1.002-0.369,1.851-0.836,2.498v6.659c0.32,0.331,0.316,0.979,0.278,1.668c0.491,0.71,0.206,2.2,0.832,2.773
			c-0.23,0.785,0.39,0.72,0.277,1.386c-0.037,0.371,0.933,1.033,0.28,1.11c-1.827-0.063-3.502,0.016-4.997,0.278
			c-6.728,3.629-10.488,10.232-12.209,18.871c-0.126,2.254,0.117,4.139,0.277,6.101c0.45,0.479,0.839,1.015,0.832,1.946
			c3.067,4.518,7.852,7.316,14.983,7.773c2.122,0.081,4.027-0.045,5.828-0.283c1.489,0.362,3.163,0.545,4.721,0.834
			c15.948,0.858,31.815-0.228,47.729-0.276c2.935-1.04,7.287-0.666,10.822-1.111c0.051-0.41,0.67-0.252,1.112-0.274
			c0.181-0.373,0.591-0.518,1.109-0.559c0.332-0.684,0.946-1.083,1.661-1.385c1.578,0.188,2.277-0.499,3.611-0.553
			c1.612-1.26,3.18-2.557,4.437-4.166c1.342-2.27,2.298-4.924,2.776-8.047C114.175,78.117,113.792,73.039,111.994,69.383z
			 M38.178,65.221c-0.246,0.166-0.497,0.336-0.555,0C37.691,64.869,38.178,64.938,38.178,65.221z M106.997,76.041
			c-0.445,1.684-0.863,3.389-1.108,5.273c-0.619,0.767-1.08,1.695-1.386,2.772c-0.688,0.791-1.269,1.693-1.665,2.778
			c-1.607,1.257-2.292,3.438-4.445,4.156c0.541-0.672,0.272-2.319,0-3.049c-3.002-0.963-4.67,1.543-4.711,4.439H90.07
			c-1.105,0.273-0.838-0.832-1.942-0.555c-3.61,0.179-6.66,0.92-9.714,1.666c-8.948-0.162-17.231,0.338-25.806,0.553
			c-1.115,0.271-2.436,0.342-3.885,0.277c-0.837,0.282-0.49-0.619-0.555-1.108c-1.107,0.095-1.803,0.604-2.776,0.831
			c-1.665-0.374-1.76,0.832-3.329,0.557c-0.438-0.027-0.963,0.037-0.834-0.557c-0.329-0.133-0.628-0.297-0.832-0.553
			c-0.961,0.221-1.065-0.416-1.94-0.278c-0.388-0.634-0.964-1.075-1.391-1.665c-0.874,0.607-0.739,2.223-1.661,2.773
			c-0.877,0.135-0.981-0.498-1.944-0.277c0.129-2.764,2.825-4.346,2.22-6.938c-1.595-1.396-3.778,0.639-4.719,1.663
			c-0.736-0.846,0.729-1.85,0.28-3.327c-2.328-1.439-4.333,1.351-5.828,2.496c-0.332,1.059-1.017,1.76-1.39,2.774
			c-0.936-0.953,0.383-2.011,0.278-3.056c0.696-0.684,0.789-1.985,1.388-2.771c0.779-1.902,2.017-3.352,3.05-4.995
			c-0.142-2.159-3.783-1.487-4.438-0.278c-0.837,1.014-1.912,1.785-2.498,3.056c-0.612-0.456,0.39-1.632,0.558-2.22
			c0.465-0.734,0.637-1.766,1.111-2.498c0.734-1.664,2.151-2.66,2.771-4.441c-1.365-0.535-2.742,1.08-3.607,1.943
			c-0.531-0.197,0.056-1.584,0.558-1.668c-0.072-0.991,0.829-1.014,0.829-1.94c2.432-2.287,4.873-4.562,8.883-5.271
			c1.023-0.006,1.226,0.803,1.664,1.384c0.477-0.015,0.712,0.216,0.834,0.56c0.166,0.385,1.065,0.036,1.106,0.551
			c1.079-0.215,1.562-1.027,2.499-1.387c0.221-1.261,0.394-2.564,0.834-3.607c-0.076-1.124-0.883-1.519-0.557-3.052
			c0.334-1.518,1.335-2.367,1.665-3.884c-0.081-1.229-1.469,0.146-1.665-0.559c-0.113-1.679,1.185-1.959,1.941-2.771
			c0.536-1.132,1.916-1.419,2.221-2.777c-0.014-1.095-0.569-1.651-1.661-1.663c0.576-0.999,1.362-1.785,1.94-2.775
			c4.097-1.553,12.246-3.742,16.094-0.559c-0.06,3.392-0.493,7.155,2.777,7.216c1.291-0.184,1.136-1.82,1.661-2.772
			c0.976-0.601,1.019-2.129,1.943-2.777c0.994-2.058,2.583-3.523,3.889-5.272c2.45-1.618,4.508-3.632,7.489-4.716
			c-0.229-0.698-0.97-0.877-1.388-1.39c-2.213-0.267-3.029,0.855-4.438,1.39c-1.575,1.105-2.946,2.418-4.44,3.607
			c0.026,0.335-0.404,0.17,0,0c0.062-0.218,0.009-0.549,0.276-0.556c0.005-0.83,0.724-0.947,0.833-1.666
			c0.873,0.045,0.539-1.126,1.109-1.386c2.548-1.803,5.314-3.379,8.878-4.164c0.825-0.38,1.212,0.161,2.502,0
			c0.612,0.02,1.024-0.45,1.661-0.553c5.279-0.855,9.375,1.083,11.379,3.049c1.152,1.716,1.999,3.739,2.499,6.108v5.548
			c-0.513,5.69-2.96,9.441-4.72,13.875v2.22c0,0.277,0.227,0.33,0.276,0.554c0.079,0.57,0.742,0.553,1.113,0.836
			c1.032-0.297,0.894,0.584,1.39,0.832c0.62-0.046,1.135-0.673,1.939-0.832c1.943-0.393,4.441,0.129,5.828,0.551
			c1.177,1.045,1.962,2.479,3.049,3.611c0.043,1.068,0.938,1.279,0.835,2.495c0.786,0.421,0.519,1.888,1.11,2.5
			C106.956,74.703,106.964,75.357,106.997,76.041z M80.637,35.248c-0.013,0.38,0.133,0.609,0.278,0.832
			c1.512-0.06,3.336,0.196,4.438-0.275C85.12,34.395,81.686,34.943,80.637,35.248z M55.662,75.207
			c1.358-0.766,2.238-2.012,3.88-2.496c0.878-1.345,3.484-0.96,3.058-3.609c-0.359-0.475-0.576-1.088-1.389-1.109
			c-0.877-0.383-1.675,0.688-1.943,0c2.322-1.469,4.36-3.221,8.604-2.771c1.461,0.758,2.614,1.822,4.161,2.494
			c0.34,1.047,1.205,1.572,1.943,2.223c0.396,0.99,1.539,1.234,3.053,1.111c0.695-0.32,0.873-1.166,1.385-1.666
			c0.074-2.574-1.479-3.519-1.938-5.552c-1.297-1.481-2.683-2.867-4.168-4.163c-0.709-0.028-1.322-0.158-1.662-0.555
			c-3.152-0.006-6.452-0.163-8.881,0.555c-1.021,0.921-2.702,1.182-3.607,2.221c-1.483,0.458-1.77,2.116-3.608,2.219
			c-0.324-0.511-1.471-0.193-1.107-1.388c-0.125-0.8-0.586-1.262-1.389-1.39c-0.369,0.283-1.033,0.267-1.113,0.835
			c-0.77-0.124,0.221,1.513-0.553,1.386v6.387c0.637,1.305-0.183,4.064,0.835,4.992C52.801,75.491,53.933,74.795,55.662,75.207z
			 M82.576,74.932c-0.412-0.236-0.399-0.896-0.553-1.389c-0.479,0.016-0.713-0.213-0.834-0.554c-2.155-0.216-2.851,1.03-4.441,1.389
			h-1.941c-0.955,0.61-2.283,0.856-3.328,1.388c-0.762,0.812-2.056,1.092-1.942,2.771c-0.214,1.605,1.049,1.729,1.666,2.501
			c-0.647,0.187-0.744,0.922-1.392,1.108c-0.432,0.396-0.215,1.448-1.108,1.39c-2.328,0.108-4.346-0.093-6.381-0.278
			c-1.162-0.781-2.272-1.611-3.331-2.499c-1.002-0.938-1.361-2.519-3.606-2.222c-0.705,0.501-1.311,1.097-1.109,2.501
			c-0.828,0.374-0.49,1.918-0.558,3.051c1.691,4.603,6.422,6.16,13.323,5.55c4.157-1.388,7.957-3.144,10.543-6.103
			c0.161,1.685,0.987,2.712,3.054,2.496c2.186-0.774,1.153-4.767,1.389-7.495C82.307,77.432,82.428,76.17,82.576,74.932z"/>
	</g>
</g>
</svg>
