<?xml version="1.0" encoding="utf-8"?>
<!-- Generator: Adobe Illustrator 16.0.0, SVG Export Plug-In . SVG Version: 6.00 Build 0)  -->
<!DOCTYPE svg PUBLIC "-//W3C//DTD SVG 1.1//EN" "http://www.w3.org/Graphics/SVG/1.1/DTD/svg11.dtd">
<svg version="1.1" id="Layer_1" xmlns="http://www.w3.org/2000/svg"  x="0px" y="0px"
	 width="120px" height="120px" viewBox="4 4 120 120" style="enable-background:new 4 4 120 120;" xml:space="preserve">
<g id="cloud4">
	<g>
		<path d="M80.635,35.247c-0.012,0.379,0.131,0.609,0.277,0.835c1.516-0.062,3.334,0.188,4.439-0.28
			C85.119,34.391,81.682,34.944,80.635,35.247z M77.957,62.859c-0.254-0.166-0.428-0.414-0.504-0.757
			c-0.396-0.444-0.586-1.095-1.01-1.513c-0.694-1.03-1.409-2.038-2.774-2.396h-0.63c-0.188,0.065-0.318,0.187-0.505,0.253
			c-0.786,0.601-1.388,1.387-2.019,2.144c-0.455,0.26-0.681,0.749-1.136,1.009c-0.419,0.295-0.624,0.803-1.134,1.009
			c-0.602,0.786-1.389,1.388-2.145,2.018c-0.262,0.454-0.748,0.681-1.01,1.136c-0.523,0.19-0.566,0.86-1.135,1.01
			c-1.049-1.601-2.248-3.049-3.405-4.542c-0.775-0.57-1.203-1.486-2.017-2.017c-0.672-0.673-1.139-1.553-2.271-1.765
			c-1.028,0.148-1.512,0.842-2.271,1.261c-0.378,0.377-0.428,1.085-0.882,1.387c-0.212,0.545-0.963,0.549-0.883,1.387
			c0.096,0.54,0.352,0.958,0.63,1.387c0.276,0.426,0.694,0.759,1.008,1.136c0.163,0.192,0.226,0.453,0.38,0.63
			c0.522,0.599,1.077,1.036,1.514,1.64c0.646,0.74,1.174,1.601,1.892,2.271c0.406,0.979,1.29,1.484,1.639,2.521
			c-1.094,1.347-2.28,2.598-3.405,3.91c-1.25,1.188-2.186,2.69-3.531,3.783c-0.168,0.463-0.481,0.78-0.63,1.262
			c-0.38,0.377-0.999,0.515-1.135,1.135c-0.183,0.49-0.29,1.057-0.251,1.767c0.369,0.763,1.112,1.156,1.512,1.892
			c0.617,0.561,0.924,1.432,2.017,1.514c1.101-0.12,1.57-0.869,2.271-1.387c0.514-0.705,1.252-1.188,1.766-1.893
			c0.648-0.275,1.088-0.763,1.64-1.136c0.608-0.313,0.984-0.863,1.512-1.261c0.747-0.678,1.503-1.402,2.144-2.019
			c0.229-0.217,0.354-0.632,0.758-0.63c0.352,0.91,1.104,1.418,1.514,2.27c0.692,0.567,1.071,1.451,1.766,2.019
			c0.496,0.763,1.07,1.452,1.642,2.144c0.537,0.725,1.235,1.285,2.017,1.767h1.64c0.624-0.302,1.048-0.804,1.642-1.136
			c0.68-0.158,1.168-0.512,1.764-0.756c0.216-0.668,0.713-1.054,0.629-2.019c-0.199-0.263-0.272-0.651-0.629-0.757
			c-0.063-0.398-0.721-0.204-0.883-0.506c-1.853-2.854-4.219-5.195-5.928-8.195c0.814-0.7,1.592-1.436,2.396-2.145
			c0.67-0.844,1.699-1.325,2.396-2.145c0.427-0.329,0.8-0.713,1.261-1.008c0.295-0.464,0.967-0.548,1.262-1.01
			c0.912-0.644,1.906-1.205,2.27-2.396c0.113-0.7-0.24-0.936-0.253-1.514C78.303,63.354,78.152,63.084,77.957,62.859z
			 M55.763,62.103c-0.062,0.442-0.188,0.821-0.126,1.388c-0.477,0.054-0.574-0.267-0.758-0.505c0.257-0.627,0.8-0.966,1.009-1.639
			c0.265-0.053,0.334,0.087,0.505,0.126C56.342,61.841,55.961,61.882,55.763,62.103z M54.122,83.667
			c-0.651-0.188-1.224-0.456-1.261-1.261c0.92-0.162,0.943,0.57,1.641,0.631C54.429,83.299,54.235,83.445,54.122,83.667z
			 M55.132,81.271c-0.064-0.065,0.091-0.16,0.126-0.127C55.324,81.21,55.166,81.307,55.132,81.271z M57.023,79.758
			C56.872,79.771,56.945,79.574,57.023,79.758c0.26,0.161,0.64,0.201,0.631,0.631C57.289,80.332,57.079,80.121,57.023,79.758z
			 M59.546,78.496c-0.509-0.079-0.638-0.539-1.263-0.504c0.308-0.787,1.104-1.082,1.514-1.766c0.046-0.166,0.222-0.197,0.252-0.379
			c0.146-0.021,0.225,0.027,0.254,0.127c0.169,0.461,0.48,0.778,0.63,1.262C60.395,77.581,60.082,78.152,59.546,78.496z
			 M61.815,69.291c-0.617-0.139-0.728-0.786-1.135-1.135c-0.289-0.426-0.728-0.702-1.009-1.137c-0.9,0.188-1.085-0.343-1.514-0.629
			v-2.522c0.473,0.326,0.703,0.896,1.008,1.388c0.326,0.434,0.688,0.826,0.883,1.387c0.515,0.284,0.623,0.978,1.135,1.263
			C61.236,68.482,62.047,68.832,61.815,69.291z M63.454,72.316c-0.092-0.344,0.251-0.252,0.254-0.504
			c0.478,0.067,0.601,0.492,0.755,0.883C64.108,72.589,63.947,72.289,63.454,72.316z M71.146,82.152
			c0.203-0.033,0.217,0.119,0.379,0.127c0.123,0.592,0.633,0.798,0.757,1.388c-0.571,0.55-0.882-0.281-1.263-0.63
			C70.96,82.641,71.248,82.592,71.146,82.152z M66.354,68.912c0.346,0.117-0.176,0.395,0,0.758
			C65.652,69.631,66.188,69.134,66.354,68.912z M68.5,79.758c-0.58-0.304-0.762-1.004-1.264-1.387
			c-0.154-0.266-0.346-0.492-0.502-0.757c-0.223-0.198-0.168-0.677-0.381-0.884c0.039-0.258,0.342-0.246,0.381-0.504
			c0.201-0.035,0.216,0.119,0.377,0.127c0.425,0.92,1.061,1.629,1.639,2.396C68.639,79.059,68.457,79.296,68.5,79.758z
			 M72.913,65.887c-0.597-0.078-0.866-0.479-1.515-0.505c-0.262,0.073-0.407,0.267-0.631,0.379v1.134
			c0.146,0.189,0.364,0.31,0.379,0.631c-0.688,0.488-1.353,1.002-1.893,1.641c-0.729-0.28-0.936-1.082-2.145-0.883
			c2.027-2.26,4.434-4.144,6.432-6.432c0.705,0.601,0.963,1.646,1.516,2.397C74.48,64.934,73.616,65.328,72.913,65.887z
			 M111.99,69.381c-2.161-2.83-4.203-5.79-7.766-7.217c-1.597-0.805-3.729-0.956-5.83-0.554c1.559-3.623,3.26-7.101,3.885-11.653
			V41.63c-0.443-2.886-1.475-5.188-2.496-7.493c-1.438-1.712-3.111-3.183-4.717-4.716c-2.166-0.89-4.183-1.926-6.938-2.221h-6.937
			c-0.461,0.463-1.633,0.222-2.502,0.276c-2.604,0.721-5.158,1.505-7.489,2.497c-2.009,1.416-3.984,2.865-5.829,4.44
			c-0.592,1.165-1.763,1.749-2.219,3.053c-1.26,0.59-1.272,2.428-2.498,3.053c-0.478-1.557-2.31-1.761-3.604-2.497
			c-10.979-1.021-19.33,2.826-24.979,8.045c-0.271,1.12-1.077,1.7-1.663,2.496c-0.108,1.007-0.371,1.855-0.831,2.502v6.657
			c0.317,0.327,0.312,0.985,0.273,1.665c0.493,0.711,0.209,2.202,0.835,2.776c-0.231,0.783,0.389,0.717,0.278,1.39
			c-0.042,0.368,0.929,1.028,0.272,1.11c-1.822-0.07-3.499,0.009-4.99,0.274c-6.734,3.625-10.49,10.229-12.214,18.867
			c-0.124,2.252,0.119,4.139,0.282,6.107c0.447,0.472,0.835,1.006,0.83,1.939c3.067,4.518,7.852,7.32,14.984,7.771
			c2.119,0.086,4.026-0.044,5.827-0.275c1.487,0.357,3.159,0.541,4.718,0.834c15.952,0.855,31.818-0.229,47.729-0.283
			c2.937-1.039,7.291-0.666,10.824-1.104c0.053-0.413,0.672-0.256,1.108-0.278c0.183-0.373,0.597-0.516,1.11-0.555
			c0.328-0.688,0.951-1.089,1.666-1.389c1.574,0.187,2.272-0.499,3.604-0.557c1.613-1.254,3.185-2.55,4.44-4.162
			c1.341-2.266,2.295-4.922,2.775-8.049C114.176,78.109,113.795,73.036,111.99,69.381z M38.178,65.215
			c-0.247,0.174-0.494,0.338-0.553,0C37.693,64.868,38.174,64.936,38.178,65.215z M106.995,76.039
			c-0.444,1.684-0.862,3.391-1.11,5.27c-0.615,0.771-1.076,1.695-1.386,2.777c-0.688,0.793-1.269,1.693-1.662,2.775
			c-1.61,1.256-2.293,3.443-4.44,4.164c0.428-0.406,0.242-1.424,0.277-2.219c-0.74,0.739-1.328,1.629-2.5,1.938
			c-0.307,0.62-1.429,0.707-1.938,0.833c-0.674,0.167-0.332,0.692-0.834,0.834h-4.998c-4.5,1.325-10.038,1.618-15.539,1.938
			c-1.629,0.448-3.352,0.848-4.994,0.558c-1.049-0.06-1.35-0.872-2.221-1.111c-6.216-0.205-11.599,0.423-17.481,0.556
			c0.062-1.391,0.906-2.625,0.277-3.886c-0.216-0.061-0.547-0.002-0.553-0.274c-2.752,0.301-3.623,2.483-4.717,4.442h-1.943
			c0.439-1.875,1.246-3.381,1.943-4.999c-0.117-0.619,0.152-1.333,0-1.939c-0.18-0.715-0.322-0.721-0.834-1.111
			c-1.073,0.075-1.812,0.771-2.497,1.387c-1.057,0.942-2.194,2.627-2.776,3.607c-0.521,0.887-1.164,1.83-1.388,2.773
			c-1.027,0.199-1.19-0.474-2.22-0.278c0.131-2.763,2.829-4.349,2.22-6.937c-1.597-1.396-3.776,0.639-4.715,1.67
			c-0.77-0.796,1.049-2.496,0-3.611c-2.504-0.717-4.022,1.633-5.553,2.775c-0.33,1.06-1.016,1.76-1.386,2.773
			c-0.937-0.956,0.383-2.008,0.275-3.051c0.696-0.691,0.79-1.987,1.389-2.78c0.777-1.897,2.016-3.345,3.051-4.991
			c-0.145-2.158-3.783-1.486-4.439-0.275c-0.835,1.015-1.911,1.787-2.495,3.047c-0.612-0.447,0.388-1.625,0.555-2.215
			c0.469-0.732,0.64-1.764,1.109-2.498c0.738-1.664,2.151-2.655,2.776-4.441c-1.367-0.537-2.747,1.077-3.607,1.945
			c-0.535-0.197,0.055-1.586,0.553-1.666c-0.071-0.995,0.834-1.017,0.834-1.943c2.429-2.286,4.871-4.561,8.879-5.273
			c1.024-0.002,1.224,0.812,1.666,1.391c0.475-0.016,0.711,0.212,0.833,0.555c0.164,0.387,1.065,0.044,1.108,0.555
			c1.077-0.216,1.562-1.033,2.498-1.387c0.218-1.26,0.394-2.568,0.833-3.609c-0.077-1.125-0.882-1.521-0.559-3.049
			c0.335-1.522,1.336-2.368,1.669-3.887c-0.082-1.224-1.466,0.153-1.669-0.555c-0.106-1.682,1.184-1.963,1.946-2.776
			c0.535-1.126,1.911-1.417,2.219-2.772c-0.016-1.1-0.568-1.652-1.664-1.669c0.578-0.994,1.364-1.779,1.941-2.772
			c4.096-1.554,12.247-3.737,16.094-0.557c-0.062,3.303-0.453,6.933,2.497,7.218c1.299,0,1.679-0.915,1.943-1.944
			c0.386-1.002,1.222-1.554,1.386-2.778c1.084-1.041,2.104-2.15,2.776-3.604c1.084-1.042,2.374-1.88,3.329-3.053
			c1.21-0.27,1.998-0.963,3.053-1.387c0.924-0.65,2.418-0.728,2.775-1.942c0.193-1.489-0.835-1.755-1.669-2.219
			c-2.062-0.214-2.787,0.905-4.159,1.385c-1.574,1.107-2.945,2.42-4.441,3.607c0.031,0.335-0.401,0.173,0,0
			c0.064-0.215,0.011-0.547,0.278-0.553c0.009-0.83,0.724-0.944,0.834-1.667c0.873,0.043,0.541-1.125,1.107-1.388
			c2.549-1.8,5.315-3.379,8.883-4.163c0.821-0.378,1.208,0.163,2.496,0c0.614,0.02,1.026-0.449,1.666-0.553
			c5.278-0.854,9.372,1.085,11.375,3.055c1.153,1.712,2.002,3.731,2.5,6.102v5.552c-0.513,5.685-2.956,9.437-4.718,13.874v2.219
			c0,0.275,0.224,0.328,0.277,0.556c0.077,0.57,0.739,0.556,1.108,0.83c1.032-0.291,0.896,0.586,1.392,0.836
			c0.622-0.05,1.133-0.672,1.939-0.836c1.941-0.387,4.439,0.13,5.826,0.558c1.179,1.039,1.966,2.475,3.054,3.608
			c0.037,1.068,0.938,1.279,0.83,2.494c0.787,0.418,0.521,1.89,1.112,2.497C106.954,74.702,106.961,75.354,106.995,76.039z"/>
	</g>
</g>
</svg>
