<?xml version="1.0" encoding="utf-8"?>
<!-- Generator: Adobe Illustrator 16.0.0, SVG Export Plug-In . SVG Version: 6.00 Build 0)  -->
<!DOCTYPE svg PUBLIC "-//W3C//DTD SVG 1.1//EN" "http://www.w3.org/Graphics/SVG/1.1/DTD/svg11.dtd">
<svg version="1.1" id="Layer_1" xmlns="http://www.w3.org/2000/svg"  x="0px" y="0px"
	 width="120px" height="120px" viewBox="0 0 120 120" enable-background="new 0 0 120 120" xml:space="preserve">
<g id="coffee3">
	<g>
		<path d="M101.666,24.078c-1.494-1.072-4.764-0.369-7.133-0.57c-1.045-2.855-1.807-5.99-3.994-7.701
			c-6.852-0.768-11.518,0.357-19.4,0c-9.979-1.934-22.838-0.008-33.38-0.857c-0.337,0.139-0.647,0.305-0.854,0.572
			c-1.195,0.902-1.177,3.01-2.284,3.992c-0.367,1.727-1.057,3.129-2.57,3.711c-2.16,0.23-3.662-0.637-5.42,0
			c-0.826,0.789-0.475,2.754-1.138,3.709c-0.109,4.291-0.011,8.379,2.282,10.27c2.396,0.549,5.717,0.178,8.557,0.285
			c-0.51,3.582-0.627,7.553-0.57,11.697c-1.658-0.178-2.721-0.402-3.711,0.57c-0.609,1.264,0.719,2.07,0.289,3.994
			c0.039,2.439,0,4.576-0.289,5.992c0.445,5.072,0.736,10.299,1.428,15.121v6.271c0.652,0.398,0.106,1.988,0.284,2.855
			c-0.007,1.057,0.44,1.652,0.858,2.279c1.122,0.973,3.745,0.438,5.705,0.57c0.184,4.57,2.09,7.422,2.566,11.697
			c0.587,0.557,0.369,1.918,0.857,2.568c0.002,1.232,0.66,1.809,0.571,3.139c0.433,0.709,0.55,1.732,0.569,2.854
			c0.563,0.674,0.672,1.801,0.856,2.854c0.554,0.492,0.814,1.277,1.425,1.711c0.448,0.695,0.515,1.771,1.143,2.281
			c2.475,0.762,6.791-0.322,8.846,0.855c1.548-1.018,4.862-0.27,6.846-0.855H78.27c1.517-0.574,3.522-0.662,4.853-1.428
			c1.662,0.146,2.961-0.08,3.991-0.566c0.58-1.801,0.875-3.883,0.857-6.277c-0.16-1.301,0.504-1.773,0.286-3.139
			c0.181-1.055-0.37-2.844,0.285-3.424c-0.112-2.49,0.633-4.119,0.567-6.562c0.652-0.489,0.104-2.178,0.285-3.139
			c0.729-0.509-0.188-2.66,0.569-3.14c1.584-0.511,4.117-0.067,5.423-0.854c1.229-0.955,1.372-3,1.711-4.851V65.732
			c0.139-0.9-0.515-1.008-0.283-2v-7.985c0.074-2.832-0.021-5.494-1.428-6.848c-1.027-0.686-3.587,0.162-4.564-0.57v-7.988
			c0.177-0.775-0.361-2.266,0.285-2.568c3.271,0.135,6.142-0.135,9.129-0.285c0.451-0.691,1.021-1.262,1.716-1.713
			c0.381-1.803,0.39-3.98,0.567-5.99C102.514,27.605,102.736,25.195,101.666,24.078z M39.188,19.23
			c-0.015-0.488,0.209-0.74,0.568-0.857c9.906,1.031,21.844,0.031,31.096,1.711c2.885,0.064,6.099-0.197,8.562,0.287
			c2.963,0.174,6.635-0.359,9.131,0.285c-0.012,1.246,0.787,1.686,0.854,2.852H37.475C37.971,22.008,38.732,20.771,39.188,19.23z
			 M85.402,89.697c-0.074,1.354-0.652,2.199-0.572,3.709c-0.691,2.062-0.639,4.877-1.137,7.133
			c-0.051,2.709,0.178,5.693-0.285,7.988c-1.842-0.127-3.346,0.08-4.566,0.57c-3.439-0.205-5.998,0.471-9.412,0.283
			c-1.006,0.25-0.3-0.738,0-0.854c0.041-0.709-0.152-1.186-0.572-1.426c-2.766-0.914-2.895,3.162-6.274,2.564
			c-0.938,0.209-0.438-0.566,0-0.568c0.101-0.375,0.503-0.449,0.569-0.855c0.324-0.627,0.955-0.947,1.141-1.713
			c0.793-1.205,2.146-1.844,1.996-3.994c-2.473-0.809-3.844,1.828-5.419,2.854c-1.275,1.672-2.369,3.527-3.995,4.854H54.02
			c0.096-1.334,1.619-1.234,1.713-2.568c0.953-0.379,0.995-1.67,1.996-1.998c0.93-1.729,2.763-2.562,3.14-4.85
			c-0.793-1.398-2.725,0.076-3.425,0.568c-0.963,0.656-1.586,1.646-2.566,2.283c-1.068,1.498-2.643,2.494-3.707,3.994
			c-0.504-0.082-0.885,1.342-1.145,0.57c-0.82-1.334,0.342-2.797,1.145-3.424c0.607-1.104,1.344-2.076,2.281-2.854
			c1.004-2.321,3.104-3.551,3.422-6.562c-1.981-0.596-3.467,1.625-4.851,2.567c-0.784,0.546-1.45,1.212-1.997,1.996
			c-0.841,0.185-1.152,1.841-1.997,1.142c-0.591-2.344,0.896-3.196,1.712-4.853c0.709-1.424,2.461-2.869,1.43-5.135
			c-0.334,0.047-0.509-0.062-0.574-0.285c-2.613-0.332-3.25,1.312-3.992,2.854c-1.098-1.756-1.463-4.246-1.998-6.562
			c5.107-0.098,8.572,0.136,12.838,0c0.916-0.028,1.676-0.276,2.568-0.287c-0.076,0.002,0.143,0.466,0.287,0.287
			c0.376-0.473,0.318-0.019,0.569,0c0.225,0.017,0.283-0.303,0.568-0.287c0.037,0.004,0.334,0.279,0.572,0.287
			c3.941,0.111,8.49-0.082,13.694,0c0.806,0.236,0.739-0.401,1.425-0.287h3.709c0.9,0.142,1.008-0.514,1.997-0.282
			c0.757-0.004,1.63,0.106,1.995-0.287h0.287c1.029-0.271,0.4,1.125,0.572,1.713C85.896,88.859,85.197,88.826,85.402,89.697z
			 M91.966,53.465c-0.321,9.693,0.622,19.658-0.286,28.246c-1.535,0.27-3.261,0.352-5.136,0.283
			c-14.553,2.125-32.15,1.359-47.929,0.857c-0.354-2.217-0.607-4.529-0.856-6.85c2.662,0.42,4.438,2.789,7.415,1.996
			c0.742-0.881-0.578-1.529-1.137-1.996c0.775-0.92-0.051-2.062-0.572-2.566c-2.438-0.156-4.496,0.068-5.99,0.855
			c0.217-1.551-0.453-2.211-0.285-3.711c2.562,0.377,7.087,0.758,7.416-1.996c-0.324-0.535-0.338-1.375-1.425-1.143
			c-0.685,0.176-2.071-0.357-2.284,0.283c-1.773-0.061-2.474,0.951-3.991,1.145c-0.251-0.93-0.547-2.887-0.287-3.422
			c3.474-0.236,8.279,0.857,9.129-1.998c-0.179-0.869-0.634-1.459-1.71-1.428c-0.363-0.326-2.252-0.572-2.57,0
			c-2.297-0.299-3.438,0.557-5.422,0.569v-9.129c6.193,1.609,15.303,0.297,22.256,1.143h10.556
			C76.092,53.758,84.525,54.111,91.966,53.465z M85.977,49.186h-3.713c-2.377,0.477-5.475,0.229-8.271,0.285
			c-1.235,0.492-3.205,0.01-5.135,0.285c-0.418,0.061-0.705,0.395-1.141,0.285c-0.672-0.166-0.146-0.01-1.144,0
			c0.059-0.002-0.114-0.285-0.286-0.285c-0.254,0-0.643,0.287-1.139,0.285c0.006,0-0.051-0.33-0.285-0.285
			c-0.062,0.014-0.018,0.299-0.287,0.285c-0.455-0.021-0.49-0.27-0.857-0.285c-0.072-0.002-0.468,0.371-0.853,0.285
			c-0.128-0.029-0.253-0.283-0.573-0.285c0.053,0-0.111,0.285-0.283,0.285c-0.232,0-0.283-0.285-0.285-0.285
			c-0.459,0.014-0.49,0.275-0.855,0.285c-0.241,0.008-0.444-0.352-0.856-0.285c-0.105,0.018-0.266,0.295-0.57,0.285
			c0.126,0.004-0.215-0.268-0.287-0.285c-1.953-0.488-5.41,0-7.984,0h-8.277c-0.396-1.729,1.356-1.305,1.145-2.852
			c0.406-1.266-0.966-0.748-0.856-1.713c0.272-1.775,2.273-3.17,1.425-5.135c-2.059-1.031-2.428,1.893-4.279,1.996
			c0.584-1.51,1.619-2.566,2.566-3.709v-0.855c14.177,0.469,29.059,0.232,43.651,0.285C85.805,41.027,86.74,45.959,85.977,49.186z
			 M97.387,32.924c-22.009,0.82-44.494-0.146-66.76,0c-0.656-1.438,0.084-4.27-0.57-5.705c1.58-0.346,1.658,0.814,2.853,0.855
			c1.501,0.076,1.937-0.918,3.709-0.57h3.993c2.539,0.219,5.133,0.383,7.99,0.283c16.671-0.221,32.501,0.402,49.07,0.287
			C97.824,29.939,97.494,31.322,97.387,32.924z M66.573,56.033c-0.343,0.02-0.433,0.225-0.856,0.285
			c-0.998,0.141-1.917,0.104-2.851,0.285c-1.792,1.064-3.595,2.111-5.138,3.424c-0.066,0.883-0.793,1.107-1.141,1.711
			c-0.189,0.758-0.451,1.453-0.855,1.996c0.201,4-0.314,7.293,0.855,10.559c0.672,1.039,1.734,1.689,2.566,2.566
			c2.445,0.977,6.006,1.086,7.705,0.57c1.291-0.393,2.021-0.189,2.569-0.855c0.067-0.086,0.462,0.051,0.569,0
			c0.1-0.049,0.48-0.465,0.568-0.57c0.076-0.092,0.471,0.066,0.572,0c0.355-0.23,0.756-0.814,1.141-1.141
			c0.998-0.848,1.125-1.043,1.427-1.713c0.044-0.1,0.503-0.168,0.571-0.285c0.156-0.275,0.057-1.068,0.57-1.141
			c0.561-2.01,1.127-4.012,1.141-6.562c-0.094-1.227,0.125-2.486,0-3.709c-0.135-1.295-0.441-2.199-0.856-3.139
			C73.291,56.6,70.031,55.832,66.573,56.033z M71.424,61.453c1.211,3.209,0.354,8.266-1.426,10.271h-0.285
			c-0.016,0.172-0.045,0.338-0.283,0.283c-0.062,0.225-0.24,0.33-0.572,0.285c-0.541,0.979-1.949,1.092-3.141,1.43
			c-0.137-0.9,0.877-0.648,0.57-1.715c-0.029-0.73-1.061-0.459-1.424-0.855c-0.262-0.498-0.529-0.99-1.43-0.854
			c-1.109,0.132-2.086,1.892-1.425,2.853c-0.227,0.658-1.343-0.147-1.428-0.569c-0.719-0.231-0.398-1.504-0.855-1.998
			c-0.072-2.258,0.02-4.354,0.285-6.274c0.223-0.064,0.332-0.24,0.287-0.572c1.364-0.836,3.074-2.476,5.418-2.853
			c1.476-0.235,4.453,0.013,5.136,0.285C71.1,61.268,71.227,61.32,71.424,61.453z M40.896,59.742
			c0.363-0.742,0.625-0.861,0.286-1.713c-1.146-0.715-2.958-0.02-3.424,0.855c1.908,1.531,6.464,2.935,9.13,1.143
			C44.687,59.959,42.523,60.793,40.896,59.742z M65.434,66.59c0.021-1.023,0.443-1.648,0.568-2.568
			c-0.566-0.006-0.363-0.778-1.139-0.569c-0.074,0.399-0.627,0.323-0.857,0.569c0.115,0.539-0.371,0.777-0.57,1.142
			c-0.246,0.444-0.343,0.998-0.568,1.428c-0.452,0.851-1.604,1.267-1.143,2.853c0.32,0.062,0.443,0.315,0.568,0.57
			c1.119,0.166,1.658-0.246,2.283-0.57c0.428,0.685,1.428-0.45,1.426-1.144C66.143,67.402,65.125,67.654,65.434,66.59z M68,66.59
			c-2.109,0.354-1.086,2.592-1.141,4.562c0.418,0.631,0.756,1.338,1.996,1.143c0.064-0.223,0.236-0.33,0.571-0.285
			c0.017-0.174,0.039-0.338,0.284-0.285C70.29,69.688,70.072,66.83,68,66.59z"/>
	</g>
</g>
</svg>
