<?xml version="1.0" encoding="utf-8"?>
<!-- Generator: Adobe Illustrator 16.0.0, SVG Export Plug-In . SVG Version: 6.00 Build 0)  -->
<!DOCTYPE svg PUBLIC "-//W3C//DTD SVG 1.1//EN" "http://www.w3.org/Graphics/SVG/1.1/DTD/svg11.dtd">
<svg version="1.1" id="Layer_1" xmlns="http://www.w3.org/2000/svg"  x="0px" y="0px"
	 width="120px" height="120px" viewBox="0 0 120 120" enable-background="new 0 0 120 120" xml:space="preserve">
<g id="coffee1">
	<g>
		<path d="M52.016,23.009c1.229,0.292,2.625,0.415,2.853,1.712c-0.417,1.676-1.835,2.352-2.567,3.708
			c-0.523,1.923-1.733,4.438-0.285,5.992c0.221,0.063,0.561,0.007,0.568,0.285c2.848,0.374,3.162-1.782,4.279-3.138
			c0.881-1.594,2.249-2.697,3.141-4.281c0.475-1.594,0.293-3.782,0-5.42c-0.791-0.827-1.563-1.674-2.282-2.568
			c-1.062-0.176-1.796-0.68-2.854-0.855c-0.782-0.549-2.089-0.574-2.567-1.426c0.496-1.977,2.45-2.492,3.423-3.994
			c1.068-1.405,3.356-1.588,3.136-4.281c-0.519-1.727-2.494-0.869-4.275-0.854c-2.023,1.593-4.191,3.037-5.993,4.85
			c-0.444,1.366-1.399,2.214-1.712,3.71c-0.22,2.595,0.91,3.846,1.996,5.135C49.803,22.178,51.639,21.863,52.016,23.009z
			 M70.846,28.999c-0.5,0.643-0.68,1.605-1.143,2.282c-0.369,0.774-0.697,1.586-0.574,2.854c0.525,0.334,0.971,0.746,1.432,1.141
			c3.291-0.349,3.857-3.862,3.135-7.416c-0.744-1.346-2.557-1.625-2.85-3.424c0.625-0.989,1.875-1.357,1.994-2.854
			c-1.012-1.212-2.646,0.133-3.711,0.571c-0.486,1.128-1.094,2.136-0.852,3.993C68.883,27.346,70.439,27.598,70.846,28.999z
			 M37.18,33.279c0.434,0.803,2.035,0.437,2.283,1.427c0.893,2.183-1.678,4.164-0.572,6.562c0.223,0.064,0.562,0.008,0.572,0.285
			c3.561-0.232,3.585-4.618,3.706-7.701c-0.331-0.05-0.31-0.454-0.283-0.858c-0.679-1.222-2.596-1.209-2.854-2.853
			c1.303-0.408,1.48-1.942,1.427-3.709c-3.321-0.678-5.296,2.26-5.992,5.137C35.996,32.18,36.047,33.27,37.18,33.279z
			 M102.796,73.506c-0.347-2.982-1.555-5.101-1.711-8.273c-0.628-0.703-1.202-1.457-1.425-2.566
			c-0.725-0.704-1.73-1.121-2.283-1.996c-4.281-0.287-10.004,0.873-12.27-1.426c-0.408-2.972,0.477-6.832-0.284-9.986
			c-0.608-1.465,1.452-0.26,1.142-1.426c-0.752-0.199-0.604-1.299-1.426-1.428c-0.178-0.869-1.535-0.557-1.714-1.426
			c-1.442-0.556-2.47-1.522-3.708-2.282c-3.447-1.118-6.623-2.505-10.555-3.138c-5.35,0.307-9.151-0.931-14.555-0.572
			c-8.514,1.093-16.077,3.131-21.964,6.848c-0.969-0.08-1.642-0.454-2.856-0.285c-1.604,1.63-2.795,3.672-3.709,5.99
			c-0.045,0.338,0.049,0.811-0.283,0.857c-0.184,13.118,0.182,25.684,1.711,37.086c-0.03,8.973,0.506,17.377,2.281,24.537
			c0.406,0.832,1.57,0.904,2.283,1.426c0.719,0.613,1.494,1.174,2.282,1.713c4.902,1.355,10.31,1.846,15.978,2.281
			c5.645,0.438,11.585,0.719,17.688,0.57c5.981-1.053,10.694-3.379,14.838-6.277c1.234-1.611,2.429-3.271,3.707-4.85
			c0.111-1.502,0.515-2.719,1.427-3.424c0.004-1.18-0.724-2.707,0-3.709c2.979,0.316,4.815-0.508,6.85-1.141
			c1.576,0.146,2.688-0.164,3.992-0.286c1.918-1.124,3.812-2.274,4.562-4.565C102.049,88.48,103.077,81.195,102.796,73.506z
			 M33.755,48.685c1.928-0.809,4-1.753,6.276-1.425c4.412-2.438,9.826-3.869,17.119-3.425c1.021-0.31,2.217-0.444,3.139-0.854
			c2.242,0.251,4.359,0.157,6.562-0.286c3.17,0.061,5.572,0.889,7.698,1.996c2.603,0.636,4.931,1.538,5.991,3.71
			c0.188,1.613-1.145,1.71-1.145,3.137c-0.98,0.348-0.951,1.71-2.564,1.428c0.091-0.938,0.658-2.336,0-3.139
			c-2.143-1.947-6.405-1.771-9.98-2.283H55.151c-5.862,0.128-10.09,1.892-16.262,1.713c-0.889,0.254-1.328,0.954-2.283,1.141
			c-0.389,0.658-0.5,1.592-1.711,1.428c-0.251,0.793-0.357,1.735-0.857,2.281c-1.174-0.153-1.932-0.73-2.566-1.426
			c-0.745-0.492-1.443-1.027-1.426-2.283C31.343,50.092,32.424,49.244,33.755,48.685z M73.411,54.391
			c-0.147-0.147,0.206-0.364,0.284-0.285C73.844,54.254,73.488,54.471,73.411,54.391z M71.414,54.961
			c-0.148-0.146,0.207-0.363,0.286-0.284C71.846,54.823,71.494,55.04,71.414,54.961z M58.576,51.254
			c1.527,0.184,3.045-0.807,4.279,0c-0.701,0.533-1.953,0.518-2.853,0.855c-0.919,0.459-1.893,0.234-2.569-0.285
			C57.231,51.049,58.779,52.027,58.576,51.254z M64.566,55.531c1.692-0.209,3.223-0.584,5.137-0.57
			c-2.6,1.525-7.211,2.119-11.127,1.426C59.844,55.375,62.314,55.562,64.566,55.531z M35.466,112.877
			c-0.896,0.137-1.112-0.406-1.711-0.57C34.021,111.697,35.828,111.918,35.466,112.877z M81.969,107.172
			c-0.35,0.123-0.586,0.365-0.568,0.855c-1.352,1.41-3.107,2.406-4.85,3.424c-4.523-0.518-10.213,0.262-15.978,0
			c-7.31-0.334-14.935-0.045-20.542-1.713c0.76-1.805,2.389-2.746,2.566-5.135c-0.321-1.101-1.223-0.771-2.283-0.57
			c-0.557,0.486-1.422,0.666-1.707,1.426c-0.543,0.506-0.887,1.207-1.428,1.713c-0.055,0.633-0.826,1.998-1.428,1.141
			c-1.615-0.02-0.186-1.812,0.285-2.281c0.578-0.85,0.883-1.971,1.713-2.566c0.877-1.975,2.794-2.912,3.137-5.422
			c-1.472-0.877-2.834,0.501-3.707,1.145c-1.508,0.68-1.696,2.678-3.425,3.138V98.9c1.644-2.541,3.067-5.301,4.28-8.271
			c0.386-0.281,0.572-0.763,0.855-1.143c0.418-0.25,1.104-0.229,0.855-1.143c0.196-0.885-1.635-1.188-1.996-0.57
			c-0.998,0.051-1.436,0.656-1.713,1.428c-0.654,0.392-0.918,1.174-1.425,1.711c-0.353,0.246-0.79,1.837-1.144,1.143
			c0.137-1.175-0.765,0.273-0.854-0.854c0.417-0.247,0.905-0.429,0.854-1.144v-2.565c1.177-1.681,1.897-3.812,3.139-5.423
			c0.721-2.038,2.115-3.4,2.855-5.42c-1.086-1.03-2.73-0.102-3.426,0.855c-0.961,0.75-1.755,1.67-2.282,2.854
			c-0.945-0.006-0.29-1.611-0.856-1.998c-0.645,0.594-0.889,1.582-1.141,2.57c-0.807-1.002-0.521-3.094-0.568-4.853
			c1.025-2.776,1.521-4.792,1.425-8.272c-0.241-0.674-1.471,0.019-1.712,0.285c-0.623-0.518-0.049-2.234-0.57-2.854v-7.132
			c4.338,2.11,8.884,3.746,15.976,3.425c2.059-0.096,4.132-0.519,6.276-0.287c0.607-0.135,0.544,0.406,0.572,0.855
			c0.229,0.245,0.782,0.17,0.854,0.569c7.709,0.292,13.286-1.551,17.69-4.563c1.548,0.024,2.37-0.673,3.995-0.571
			c1.311-0.497,2.25-1.362,3.705-1.711h0.285c0.961-0.293,0.445,0.887,0.57,1.426c-0.115,0.688,0.521,0.619,0.285,1.426
			c0.32,0.82,0.061,2.225,0.57,2.855c0.092,2.188,0.477,4.088,0.854,5.988c0.062,9.188-0.907,21.321-0.284,31.383
			c0.125,1.961,0.565,3.899,0.856,5.707C82.469,105.578,81.818,105.975,81.969,107.172z M92.812,96.9
			c-2.035,0.34-3.756,1-5.992,1.141c-0.832-1.77,0.494-3.629,0.57-5.42c2.291,0.104,3.717-0.656,5.705-0.855
			c0.385-0.662,1.147-0.945,0.856-2.283c0.44-0.604,0.821-1.271,1.141-1.996c-0.09-0.66,0.046-1.096,0.285-1.428
			c0.332-6.893-1.037-12.086-1.142-18.543c-0.43-1.377-2.491-1.123-3.424-1.998c-0.476,0.479-1.672,0.229-2.566,0.285
			c-0.439,0.393-1.712,0.574-1.997,0.285c0.229-0.988-0.426-1.097-0.285-1.996c2.121-0.123,3.529,0.463,5.419,0.57
			c1.895,0.166,3.016-0.588,4.562,0c1.525,2.186,1.353,6.068,2.57,8.561c-0.209,8.024-0.188,14.592,0.284,22.252
			C97.539,96.682,95.014,96.631,92.812,96.9z M90.529,71.795v5.135c0.332,3.188,0.488,6.551,0.854,9.699
			c-0.984,1.105-2.193,1.99-3.992,2.283c0.08-6.072-0.035-11.947-0.285-17.688c0.641-0.5,2.146-0.14,2.854-0.572
			C90.816,70.365,90.463,71.288,90.529,71.795z"/>
	</g>
</g>
</svg>
