<?xml version="1.0" encoding="utf-8"?>
<!-- Generator: Adobe Illustrator 16.0.0, SVG Export Plug-In . SVG Version: 6.00 Build 0)  -->
<!DOCTYPE svg PUBLIC "-//W3C//DTD SVG 1.1//EN" "http://www.w3.org/Graphics/SVG/1.1/DTD/svg11.dtd">
<svg version="1.1" id="Layer_1" xmlns="http://www.w3.org/2000/svg"  x="0px" y="0px"
	 width="120px" height="120px" viewBox="4 4 120 120" style="enable-background:new 4 4 120 120;" xml:space="preserve">
<g id="compass">
	<g>
		<path d="M112.2,47.9c-1.2-3.7-3.3-6.6-4.7-10.2c-1.5-3.4-4-5.9-5.8-9c-1.7-1-2.5-3-4.4-3.8c-1.1-1.7-3.1-2.5-4.399-4.1
			C87.6,18.5,82.7,15.9,76,15c-6,0.3-12.8-0.4-18.4,0c-0.2,0-0.3,0-0.3,0.3h-0.6c-3.2,0.2-6.5,0.3-9.6,0.6c-1.1,0.7-2.6,1.1-3.8,1.7
			c-1.1,0.7-2.3,1.3-3.5,2c-2.4,1.3-5,2.4-7.3,3.8c-2.1,1.6-4.3,3-6.1,5c-2,1.8-3.5,4.1-5.2,6.1c-0.4,1.3-1.1,2.2-1.7,3.2
			c-1.3,3.1-2.2,6.5-3.2,9.9c-0.4,4.6-1.3,8.6-2.3,12.5c0.1,3.3-0.2,7,0.3,9.9c0.3,1.3,0.7,2.6,1.2,3.8c0.6,1.101,0.8,2.5,1.5,3.5
			c0.4,2.9,1.6,5,2.3,7.601C20,86.1,21,87,21.9,88.1c0.6,1.4,1.5,2.4,2.3,3.5c1.6,2.301,3.4,4.4,5,6.7c1.4,1.101,2.6,2.4,3.8,3.8
			c1.4,1.2,2.8,2.2,4.1,3.5c3.1,2,5.8,4.301,9.9,5.2c1.9,1,4.8-0.399,6.1,0c2.6,0.9,5.4,1.601,8.4,2c2.6,0,5.1,0,7.3-0.3
			c0.601-0.7,2.4-0.1,3.5-0.3c1.5,0.2,2.3-0.3,3.5-0.3c3.5-0.801,6.8-1.801,9.601-3.2c1.5-0.601,2.699-1.601,4.1-2.3
			c1.4-0.7,2.3-2,3.8-2.601c2.8-2.899,5.4-6,8.2-9c2.2-3.6,5.2-6.399,7.6-9.899c2.2-4.7,4.101-9.7,5-15.7
			C114.1,61.4,114.1,53.6,112.2,47.9z M104,67.7c-0.3,1.899-1.1,3.399-1.2,5.5c-0.6,1-1.2,2.1-1.5,3.5c-0.899,0.6-0.8,2.3-1.7,2.899
			C98.8,81.9,97.2,83.4,96.4,85.7c-1.2,1-2.101,2.2-2.9,3.5c-3.1,1.8-5,4.7-7.3,7.3c-2.101,1.3-3.9,2.9-6.101,4.1
			c-2.3,1.101-4.899,1.9-7.6,2.601h-9c-2-0.3-4.2-0.4-6.1-0.9c-1.7-0.6-3.8-0.8-5.2-1.7c-2-0.3-3.1-1.6-5-2
			c-1.1-1.1-2.7-1.8-3.8-2.899c-1.5-0.3-2.6-1.101-4.1-1.5c-1.1-1.3-2.5-2.3-3.8-3.5c-1.7-2.601-3.1-5.5-5-7.9
			c-0.9-1.2-1.7-2.5-2.6-3.8c-0.5-0.6-0.7-1.5-1.5-1.7c-0.2-0.8-0.5-1.5-0.9-2c-0.3-1.6-0.4-3.3-0.3-5.2c-1.9-5-1.7-12.3-1.5-18.6
			c0.8-0.8,0.6-2.5,1.5-3.2c0.1-1.3,0.9-2,1.2-3.2c1.1-1.9,1.8-4.3,3.2-5.8c1.7-4.2,4.9-7,7.6-10.2c1.4-0.3,2-1.5,3.5-1.7
			c0.7-1.1,2.4-1.1,3.2-2c1.1,0.2,1.1-0.6,2-0.6c0.2-0.6,1.5-0.2,1.8-0.9c1.5-0.3,2.8-0.7,4.1-1.2c0.8,0,1.7,0.1,2-0.3H65
			c6,0.8,12.7,0.9,17.2,3.2c0.899,0.8,2,1.5,3.2,2c0.699,0.9,1.5,1.8,2.6,2.3c1.4,1.9,4.2,2.4,4.4,5.5c-0.7-0.7-0.801-1.9-2.301-1.7
			c-1.8,0-2.899,0.6-4.1,1.2c-1.2,0.5-2.7,0.8-3.8,1.5c-3,0.5-5,2-7.9,2.6c-5.2,1.7-10.1,3.7-14.9,5.8c-0.7,0.4-1.7,0.6-2,1.5
			c-0.5,0.7-1.6,0.7-2.6,0.9c-0.5,1-1.8,1.1-2,2.3c-1.1,0.2-1.7,1-2.3,1.7c-0.8,1.6-1.1,3.5-2,5c0,5.9-1.9,10-3.5,14.3
			c-1.4,4.4-3.3,8.4-5,12.5c-0.2,1.6,0.2,2.5,0.6,3.5c-0.3,0.4-0.3,1.1-0.9,1.2c0.1,0.6,0.8,0.6,0.9,1.2c1.2,0.1,2.3,0,2.6-0.9
			c0.8-0.4,1.7-0.6,2.3-1.2c1.8-0.399,3.1-1.3,5.2-1.5c1.4-0.8,3.4-1.1,4.7-2c1.6-0.6,3.3-1.2,4.7-2c6.1-0.6,10.1-3.3,15.7-4.399
			c1.9-6.2,4.601-11.7,6.7-17.8c2-5.3,3.3-10.8,6.1-15.4c0.801-1.3,1.801-3,2.301-5c0.199-1.1,1.3-1.4,1.5-2.6
			c1.8,0.9,2.899,2.5,4.399,3.8c1.2,1.4,2.4,2.8,3.2,4.7c2.3,2.9,2.5,8,3.8,11.9C103.9,60.1,104.2,63.7,104,67.7z M57.7,59.5
			c0.2-0.6,0.9-1.1,1.5-1.5c0.2-0.1,0.5-0.3,0.6-0.6c1,0,1.3,0.8,2.3,0.9c1.6-0.4,3.1-1.2,5-0.6c1,1.3,1.5,3.1,2,5
			c-0.699,3.7-4.199,6-8.7,5c-0.8-0.9-1.8-1.7-2-3.2c-0.9-0.8-0.9-2.4-0.9-4.1C57.8,60.4,57.6,59.8,57.7,59.5z M62.1,54
			c-1-0.3-1.7-1-2-2h2.6c0.6-0.4,0.7-1.2,1.2-1.7c3.3-0.8,6.2-2,9.3-2.9c2.399-1.6,5.899-2.1,8.399-3.5c0.9-0.1,1.101,0.4,1.7,0.6
			c-1.7,4.7-3.5,9.1-5.2,13.7C77.2,58,77.5,59,76.6,58.8c-0.399,1.8-1.5,2.8-2.6,3.8c-1.9-2.8-2.1-7.2-5-9
			C66.7,53.2,64.1,53.2,62.1,54z M53.9,75.6c-0.2-0.1,0.2-0.399,0.3-0.3C54.4,75.4,54,75.6,53.9,75.6z M48.7,78.5
			c-0.3,0.2-0.5,0.4-0.6,0C48.2,78.1,48.7,78.2,48.7,78.5z"/>
	</g>
</g>
</svg>
