<?xml version="1.0" encoding="utf-8"?>
<!-- Generator: Adobe Illustrator 16.0.0, SVG Export Plug-In . SVG Version: 6.00 Build 0)  -->
<!DOCTYPE svg PUBLIC "-//W3C//DTD SVG 1.1//EN" "http://www.w3.org/Graphics/SVG/1.1/DTD/svg11.dtd">
<svg version="1.1" id="Layer_1" xmlns="http://www.w3.org/2000/svg"  x="0px" y="0px"
	 width="120px" height="120px" viewBox="4 4 120 120" style="enable-background:new 4 4 120 120;" xml:space="preserve">
<g id="terminal">
	<g>
		<path d="M115.947,73.979c0-9.084,0.236-18.299-0.293-26.648c0-2.792,0.004-5.941,0-8.979c0-3.021,0.33-6.073-0.575-8.4
			c-0.269-0.509-0.542-1.007-1.449-0.869c-0.64-0.229-0.726-1.013-1.161-1.448c-0.85-0.225-1.688-0.654-2.895-0.869
			c-1.221-0.217-2.739,0.341-3.477-0.58c-2.42-0.284-4.357-1.049-7.24-0.868c-16.684-0.874-32.064,0.315-46.633-0.291
			c-0.373,0.017-0.4,0.371-0.873,0.291c-3.623-0.149-6.463,0.485-9.558,0.868c-4.72-0.182-8.57,0.502-13.322,0.29
			c-2.337,0.124-5.747,0.402-7.24,0.58c-0.28,0.034-0.592-0.056-0.868,0c-0.342,0.068-0.387,0.198-0.579,0.289
			c-1.125,0.532-2.432,0.149-3.188,1.159c-0.489,3.095-0.539,6.555-0.575,10.138c-0.127,11.851,0.384,23.849,0.575,35.337
			c-0.223,1.767,0.38,2.709,0.293,4.344c-0.143,0.914,0.521,1.022,0.287,2.027c0.177,0.691-0.364,2.103,0.29,2.316
			c0.035,3.152-0.157,6.527,0.29,9.268c0.133,1.412-0.304,3.396,0.289,4.347c0.669,1.604-0.42,2.233-0.289,4.055
			c0.418,0.162,0.707,0.451,0.87,0.871c0.175,0.499,1.373-0.022,1.446,0.576c0.482,0.874,0.834,1.873,1.74,2.317
			c3.031,0.19,7.688-0.127,11.585,0c3.778,0.274,7.988,0.119,11.585,0.582c8.41,0.2,16.12-0.295,24.331-0.291
			c6.677-0.951,13.36-1.896,20.274-2.608c3.363-0.402,6.835-0.695,10.716-0.576c1.312-0.622,3.727-0.14,5.506-0.291
			c1.166-0.765,3.766-0.099,4.635-1.159c1.562,0.171,3.361,1.191,4.636,0c1.217-1.652,0.856-3.797,0.868-5.793
			C115.98,87.143,115.947,80.605,115.947,73.979z M110.15,94.252c-3.637-0.342-7.93,0.873-12.452,0.58
			c-0.495,0.662-2.21,0.105-3.188,0.289c-1.062,0.094-2.562-0.246-3.187,0.29c-2.322-0.104-4.115,0.323-6.078,0.579
			c-4.062-0.1-7.865,0.055-11.3,0.58c-8.979,0.211-17.693,0.131-26.356,0c-8.582-0.133-16.905,1.224-25.2,1.447
			c0.14-1.326-0.464-2.576-0.577-4.057c-0.307-3.955,0.441-9.102-0.29-13.034c-0.601-6.309-0.509-12.475-0.58-19.406
			c-0.015-1.233,0.039-2.468,0-3.477c-0.015-0.345-0.288-0.493-0.292-0.577c-0.011-0.231,0.307-0.292,0.292-0.582
			c-0.015-0.234-0.325-0.285-0.292-0.578c0.022-0.176,0.289-0.334,0.292-0.291c-0.009-0.357-0.288-0.484-0.292-0.579
			c-0.011-0.231,0.306-0.289,0.292-0.58c-0.022-0.391-0.266-0.432-0.292-0.579c-0.062-0.396,0.294-0.476,0.292-0.58
			c-0.028-0.858-0.266-1.495-0.292-2.317c-0.181-6.333,0.136-13.007,0-19.987c8.923-0.828,20.02,0.515,28.096-1.158h25.779
			c0.47,0.083,0.5-0.273,0.869-0.29h17.67c2.68,0.312,5.719,0.267,8.398,0.579c2.607,0.291,4.659,1.132,7.243,1.45v15.351
			c0.948,7.352,1.771,14.833,1.444,23.462C110.43,78.473,110.002,85.716,110.15,94.252z M105.809,61.522
			c-0.443-7.666-1.181-15.038-2.027-22.304c-0.684-0.669,0.025-2.728-0.58-3.476c-0.454-1.088-1.042-2.045-2.896-1.737
			c-0.416,0.161-0.703,0.451-0.865,0.869c-0.481,0.679-1.691,0.627-2.897,0.578c-0.813,0.441-2.233,0.277-3.188,0.58
			c-14.953,0.088-29.69-0.045-44.314-0.29c-1.679-0.249-3.372-0.49-5.215-0.579c-3.15-0.062-5.671,0.507-8.979,0.289
			c-1.496,0.049-3.267-0.177-4.343,0.29c-1.541,0.005-3.272-0.182-4.054,0.581C24.524,38.168,25.59,43,24.995,46.17
			c-0.194,3.569-0.4,7.127-0.289,11.007c-0.446,7.179-0.446,14.806-0.578,22.304c-0.146,1.498,0.819,1.884,0.578,3.478
			c0.034,1.412-0.155,3.052,0.289,4.056c0.021,1.33,0.397,2.305,0.871,3.186c0.608,0.84,0.586,2.311,1.736,2.607
			c0.401,0.659,2.017,0.106,2.897,0.288c1.159,0.097,1.606-0.518,2.897-0.288c5.383-0.025,11.023,0.211,15.64-0.58
			c3.608,0.448,7.833,0.276,11.585,0.58c6.773-0.375,13.915-0.377,20.855-0.58c3.457-0.504,6.854-1.062,11.008-0.869
			c2.097-0.313,4.24-0.59,6.371-0.869c1.379-0.223,1.908,0.41,2.317,1.16c1.209,0.271,1.716,0.604,2.897,0.287
			c1.887-0.812,2.269-3.136,2.025-6.08C105.988,77.756,106.368,69.168,105.809,61.522z M100.016,64.13v20.274
			c-3.455-0.172-5.388,1.176-8.979,0.867c-3.128,0.059-5.896,0.479-8.689,0.871c-3.576-0.103-6.927,0.024-9.85,0.578
			c-7.864-0.048-15.412,0.227-22.88,0.579h-17.67c-0.569-0.396-1.653-0.274-2.316-0.579c-0.785-0.181-0.72-1.21-1.737-1.158
			c-0.24-5.504-0.374-11.947-0.581-18.248c-0.486-2.531,0.286-5.741,0-8.979c-0.166-3.355,0.207-6.166,0.29-9.269
			c-0.081-3.394-0.46-6.492-0.29-10.137c-0.011-0.495,0.216-0.75,0.581-0.87c5.68,0.769,11.485,0.266,17.38,0.581
			c1.649,0.088,3.213,0.475,4.924,0.578c5.635,0.343,11.354,0.048,17.088,0.29c2.945,0.124,5.722,0,8.689,0
			c5.049,0,10.119-0.334,15.35,0c2.537,0.026,4.369-0.653,6.953-0.579c0.373,7.543,1.209,14.625,1.449,22.303
			C100.389,61.635,99.834,63.248,100.016,64.13z M43.533,48.199c-1.464-1.145-2.765-2.451-4.924-2.897
			c-1.191-0.546-1.305-2.17-3.187-2.029c-0.991-0.122-0.868,0.868-1.446,1.159c0.962,4.249,6.268,4.16,7.817,7.819
			c-1.455,1.148-2.171,3.04-4.053,3.767c-0.952,1.751-3.198,2.208-3.477,4.635c0.325,1.316,1.108,2.176,2.607,2.317
			c2.483-0.993,4.144-2.809,5.793-4.635c0.991-0.747,1.861-1.616,2.608-2.607c0.991-0.841,2.159-1.507,2.026-3.476
			C46.93,50.015,45.223,49.116,43.533,48.199z M58.017,57.468c-1.599-0.152-2.73,0.164-4.056,0.289
			c-2.646,0.057-5.947-0.542-6.081,2.027c0.218,2.638,4.87,2.027,8.107,2.027c3.319,0,7.715,0.373,7.534-2.607
			C63.573,56.814,60.018,56.888,58.017,57.468z"/>
	</g>
</g>
</svg>
