<?xml version="1.0" encoding="utf-8"?>
<!-- Generator: Adobe Illustrator 16.0.0, SVG Export Plug-In . SVG Version: 6.00 Build 0)  -->
<!DOCTYPE svg PUBLIC "-//W3C//DTD SVG 1.1//EN" "http://www.w3.org/Graphics/SVG/1.1/DTD/svg11.dtd">
<svg version="1.1" id="Layer_1" xmlns="http://www.w3.org/2000/svg"  x="0px" y="0px"
	 width="120px" height="120px" viewBox="4 4 120 120" style="enable-background:new 4 4 120 120;" xml:space="preserve">
<g id="create-new">
	<g>
		<path d="M108.5,14.2c-0.5-0.2-1.9,0.4-1.8-0.4c-3.2,0.3-5.2,1.8-7.9,2.5c-4,3.8-7.6,8-12.6,10.8C80.8,34,73.7,39.3,67.5,45.5
			c-2.9,3.2-5.5,6.7-8.6,9.7c-1.4,1.7-2.7,3.6-4.3,5c-0.6,1-1.5,1.6-2.2,2.5c-0.3,1.1-1.7,1.1-1.8,2.5c0.1,1.1,1.1,1.3,0.7,2.899
			c0.4,0.101,0.4,0.601,0.4,1.101c1.5,1.2,2.2,3.3,4,4.3c1,1.8,3.2,2.3,3.6,4.7c-2.9,0.899-4.9,2.5-7.6,3.6
			c-0.5-1.1-2.1-1.1-2.5-2.2c0.9-3.699,2.1-7,2.2-11.5c-0.3-0.3-0.5-0.699-0.7-1.1c-3.2-0.1-2.9,3.3-4.3,5c-0.7,2.3-2,4-2.9,6.1
			c-1.4,3.601-5.7,8.4-2.9,12.9c1-0.1,1.1,0.8,2.2,0.7c2.9,0.1,3.2-2.5,5.4-3.2c4.6-1.5,8.3-4,13.3-5c0.9-0.4,1.1-1.5,1.8-2.2
			c0.3-1,1.9-0.8,2.5-1.399C66.4,79,66.5,77.8,67.2,77c3.7-2.5,7.2-5.3,10.1-8.6c2.9-1.7,4.9-4.5,7.2-6.8c2.3-2.2,4.5-4.7,6.8-6.8
			c0.601-0.6,1.5-0.9,2.2-1.4c1.5-1.4,3-3.6,4.7-5.4c2.2-2.3,4.8-4.3,6.8-6.8V38c1.8-1.5,3.5-3.2,5-5c1.7-1.7,3.2-3.5,4.3-5.8v-5.8
			C113,18.4,111.3,15.7,108.5,14.2z M94.5,42.3c-1.4-0.1-1.7-1.2-3.2-1.1c-0.5,0.1-0.6,0.6-1.1,0.7c-0.2,1.9,1.899,1.5,2.2,2.9
			c-1.601,1-2.4-1.6-4.7-1.1c-1.101,0-1.3,0.8-1.8,1.4c-0.301,2.4,2.6,1.7,2.899,3.6c-1.899,1.9-3.3-1.6-5.8-1.4
			c-1.1,0-1.4,0.8-2.2,1.1c-0.399,3,1,4.1,2.5,5c-0.2,1.3-1.3,1.8-2.2,2.5c-2.1-0.7-3-2.5-5.399-2.9c-1.5,0.2-2.3,1.1-2.5,2.5
			c0.5,2.3,3.5,2.3,4,4.7c-0.8,0.2-1,1.2-1.8,1.4c-1.9-0.4-3.2-3-5-2.2c-0.7,1.6,1.3,3.2,2.5,4c-0.4,1.3-1.2,2.1-2.5,2.5
			C68.9,65.1,68.6,63.2,66.1,63.4c-1.199,0-1.3,1.1-1.8,1.8c-0.2,2.6,2,2.8,2.5,4.7C65.9,70.8,65.1,71.8,64.3,72.8
			c-2.2-1.8-4-3.899-6.1-6.1c-0.6-0.601-1.8-1-1.8-2.2c1.9-0.8,2.7-2.6,4.7-3.2c0.4-0.9,1.4-1.2,1.8-2.2c0.9-0.3,1.1-1.3,2.2-1.4
			C66.7,55,69.4,53.3,71.2,50.9c1.3-0.9,2.2-2.1,3.2-3.2c1.3-0.7,1.899-2.1,3.199-2.9c4.301-4.1,9-7.8,12.601-12.6
			c0.3-0.3,1-0.2,1.1-0.7c0.601-0.1,0.601,0.3,1.101,0.4c0.899,2.5,2.899,3.8,4.3,5.8C97.2,40.4,95.3,40.8,94.5,42.3z M104.2,28.6
			c-1.5,0.7-1.7,2.6-3.2,3.2c-2.1-0.9-3-2.9-4-5c0.3-1.2,2-1.5,2.5-2.9c0.9-0.9,2.2-1.4,2.9-2.5c1.199,0,1.899-0.5,2.5-1.1
			c1.699,0.4,2.199,2.1,2.199,4.3C106.7,26.5,105.1,27.2,104.2,28.6z M26.2,25.4c2.4,0.1,4.5,0.6,7.2,0.4c1.3,0.4,3,0.4,4.3,0.7
			c12.4-0.1,20.1,0.3,31.6,0.7c2.7,1,6.8,1,8.3-1.1v-2.9c0.4-1.5-0.8-1.4-0.699-2.5c-1-0.6-2.101-1-3.2-1.4
			c-2-0.4-2.3,0.9-3.601,1.1c-0.6-0.9-1.6-1.5-3.199-1.4C54,18.7,40.3,19.5,28.4,19c-2.3,0.8-6.6-0.3-6.1,3.2
			C22,24.8,24.7,24.5,26.2,25.4z M108.5,67.1c-0.3-1.6-0.4-3.5-0.7-5C107.9,60,107.9,58,106,57.8c-1.8,0.4-2.4,2-2.2,4.3
			c-0.8,0.3-0.1,2-0.399,2.9c-0.801,0.3-0.101,2-0.4,2.9c-0.4,4-0.4,8.5-0.4,12.899c-0.5,3.9-0.3,8.5-1.1,12.2v6.5
			c-1,1.3,0.3,4.9-0.7,6.1c-4.7-0.3-8.5,0.4-12.2,1.101c-1.199-0.8-1.199-2.9-3.199-2.9c-4.5-0.8-10.4-0.2-15.5-0.399
			c-4.9-1.101-12.5-0.9-18-0.4c-5.6-3.5-15.6-4.1-24.4-3.2c0.1-9.3-1.1-17.399-0.7-27c-0.4-1.3-0.4-3-0.7-4.3
			c0.1-6.6-0.7-13.5-0.7-20.5c0-7.1,0.5-14.4-0.7-20.9c-0.5-0.4-1.1-0.6-1.4-1.1c-1-0.5-1.8,1-2.2,0c-0.6-1.7,0-4.5-2.5-4.3
			c-0.5,0.1-0.7,0.5-0.7,1.1c-0.6,0-0.2,1-0.7,1.1c-0.8,22.8-2.1,47-1.1,70.5v7.199c0.5,0.801,0.7,1.9,1.1,2.9c1,0.4,1,1.8,1.8,2.5
			c0.2,1.1-0.9,1-1.4,1.4c-0.2,0.8-0.7,1.8,0,2.5c1.5,1.6,4.7,1.5,7.2,2.199c2.9,0.2,5.7,0.5,9,0.4c18.1,0.8,37.7,0.1,56.4,0.4
			c3.7-0.9,7.8-1.301,12.6-1.101c1.4-1.3,4.3-0.899,5.4-2.5c0.7-2.3,0.2-5.8,0.399-8.6C109.3,90.7,108.8,78.1,108.5,67.1z"/>
	</g>
</g>
</svg>
