<?xml version="1.0" encoding="utf-8"?>
<!-- Generator: Adobe Illustrator 16.0.0, SVG Export Plug-In . SVG Version: 6.00 Build 0)  -->
<!DOCTYPE svg PUBLIC "-//W3C//DTD SVG 1.1//EN" "http://www.w3.org/Graphics/SVG/1.1/DTD/svg11.dtd">
<svg version="1.1" id="Layer_1" xmlns="http://www.w3.org/2000/svg"  x="0px" y="0px"
	 width="120px" height="120px" viewBox="0 0 120 120" enable-background="new 0 0 120 120" xml:space="preserve">
<g id="credit-card">
	<g>
		<path d="M116.162,62.889c-0.109-2.962,0.486-5.897-0.562-7.896c0.092-2.2,0.188-2.943,0-5.075
			c-0.363-1.045-0.461-2.36-0.562-3.665c-0.529-0.881-0.203-2.619-0.849-3.384c-0.1-2.722-1.213-4.429-1.689-6.769
			c-2.062-2.17-5.189-3.27-7.616-5.076c-5.698-1.068-11.504-2.031-17.198-3.102c-9.224,0.01-17.943-0.482-27.354-0.283
			c-0.062,0.222-0.238,0.328-0.563,0.283c-4.994-0.105-9.568,0.209-13.819,0.846c-4.643,0.342-9.264,0.697-14.101,0.846
			c-0.521,0.607-2.074,0.182-2.538,0.847c-1.191-0.063-1.82,0.433-2.82,0.563c-1.983,0.273-3.568,0.943-5.636,1.128
			c-3.187,2.456-7.68,3.603-9.026,7.896c-0.641,2.836-0.108,6.85-0.28,10.153c2.036,7.832,1.189,18.547,3.1,26.506
			c-0.42,9.35,1.227,16.632,6.487,20.303c1.218,0.379,2.581,0.612,3.383,1.411c13.094-0.312,24.802,0.765,36.939,1.409
			c6.236,0.885,11.848-0.557,18.33-0.281c5.79-0.604,12.758-0.027,18.611-0.562c0.857,0.012,1.099-0.596,1.689-0.848
			c0.505-0.438,1.105-0.773,1.693-1.129c1.939,0.061,3.039-0.721,4.512-1.128c0.062-0.22,0.238-0.325,0.564-0.28
			c1.146-0.828,2.172-1.775,3.386-2.539c1.103-0.864,2.524-1.418,2.817-3.103c0.436-0.408,0.59-1.099,0.562-1.974
			c0.607-0.237-0.104-1.797,0.562-1.977c-0.174-1.861,0.494-2.89,0.283-4.792c0.536-1.528,0.797-3.34,1.406-4.793
			c-0.85-2.086,0.672-3.198,0.566-5.358C116.639,68.4,116.268,65.688,116.162,62.889z M17.465,45.687
			c0.152-0.977-0.417-2.675,0.564-2.818c0.292-0.742,1.117-0.951,1.409-1.692c1.465-0.699,2.75-1.575,3.951-2.539
			c3.362-0.679,6.895-1.189,9.869-2.256c13.078-0.531,25.879-2.596,39.195-1.974c1.887-0.185,3.643-0.495,5.359-0.847
			c5.566,0.072,11.121,0.156,15.791,1.13h4.514c1.227,0.088,1.887,0.739,3.104,0.845c1.038,0.182,2.152,0.29,2.816,0.846
			c1.797,0.742,3.086,1.99,5.074,2.539c0.381,2.814,1.578,4.815,1.693,7.895c-14.32-0.81-28.506-1.76-43.707-1.691
			c-7.095,0.428-14.789,0.253-22.281,0.281h-11.28c-3.674,0.104-6.597-0.04-10.716,0C20.536,45.097,19.348,46.4,17.465,45.687z
			 M110.805,69.657c-0.127,2.788-0.645,5.183-1.408,7.329v5.076c-0.479,0.746-0.834,1.608-0.846,2.82
			c-0.543,0.592-0.912,1.348-1.13,2.256c-1.489,1.051-2.666,2.407-4.229,3.385c-3.887,0.156-7.256,0.828-10.717,1.408
			c-1.691,0.285-2.401-0.412-3.664-0.562c-9.17,0.5-12.783-0.221-23.127,0.562c-6.788-0.537-13.896-0.765-20.865-1.127
			c-6.876-0.25-14.342,1.643-20.302-0.281c-1.895-1.681-1.997-5.146-3.103-7.613c-0.215-8.998-2.477-15.947-2.538-25.098
			c1.865,0.172,2.89-0.493,4.793-0.281c0.454,0.078,0.485-0.268,0.847-0.283c22.328-0.258,42.524,4.044,64.856,1.975
			c1.461-0.334,1.123,1.133,2.54,0.846c2.658,0.16,5.229,0.41,8.175,0.284c1.933,0.135,3.375,0.76,5.642,0.561
			c1.978,0.092,4.019,0.119,5.076,1.129C111.869,63.936,110.939,67.253,110.805,69.657z M35.229,74.451
			c-0.247-0.331-0.418-0.95-1.125-0.848c-0.523-0.418-1.341-0.539-2.258-0.562c-0.217,0.062-0.553,0.006-0.565,0.281
			c-1.857-0.073-2.662,0.91-3.664,1.691c0.302,1.053-0.699,0.805-0.564,1.69c0.097,2.403,0.706,4.987,1.41,6.204
			c0.191,0.328,0.288,0.338,0.562,0.562c0.098,0.078-0.075,0.468,0,0.565c0.498,0.631,1.307,1.214,1.975,1.408
			c2.284,0.217,3.586-0.551,4.794-1.408c0.972-1.66,1.562-3.703,1.411-6.485C36.533,76.359,35.888,75.323,35.229,74.451z
			 M32.693,81.499c-1.314-0.961-2.761-2.905-1.974-5.073h1.694C33.737,77.184,34.014,80.482,32.693,81.499z M100.088,74.451
			c-0.541-0.398-1.135-0.745-1.971-0.848c-0.047,0.33-0.448,0.307-0.85,0.281c-0.607,0.707-0.887,1.743-1.69,2.258
			c-0.489-1.203-1.263-2.121-2.819-2.258c-0.756,0.186-1.07,0.809-1.689,1.129v1.69c-0.52,0.425-0.666,1.216-1.129,1.69
			c-0.439,0.596-0.504,1.564-1.412,1.691c-0.514-2.021-0.898-4.174-3.946-3.664c-0.274,0.379-0.753,0.562-1.128,0.846
			c-0.334,0.418-0.24,1.258-1.127,1.127c0.104-2.358-0.658-3.854-2.539-4.229c-2.229,0.212-3.318,1.566-3.945,3.385
			c-0.152,1.75,0.539,2.651,2.258,2.537c0.596-0.716,0.067-2.562,1.406-2.537c-0.221,1.912,0.389,2.998,0.281,4.794
			c0.48,0.646,1.047,1.212,1.689,1.691c2.588-0.235,2.431-3.216,3.951-4.513c0.439,1.623,0.93,3.203,2.537,3.664
			c3.189,0.277,2.92-2.904,4.51-4.229c0.57,1.312,1.568,2.189,3.104,2.536c3.508-0.252,4.474-3.048,4.794-6.483
			C100.15,74.953,100.043,74.777,100.088,74.451z M62.303,77.553c-0.386-0.556-0.27-1.611-0.564-2.256
			c-0.73-0.305-1.381-0.686-2.538-0.564c-0.336,1.73-0.992,3.146-1.974,4.23c-0.433-0.979-1.012-1.808-2.255-1.977
			c-1.171-0.321-1.099,0.596-1.973,0.564c0.075-1.484-1.253-1.57-1.411-2.818H49.33c-0.681,0.352-0.645,1.422-1.691,1.41
			c-0.076-1.057-0.653-1.604-1.127-2.258c-0.813,0.033-1.848-0.152-2.257,0.281c-0.793,0.712-0.587,2.421-1.694,2.818
			c-0.972-0.223-1.188,0.312-1.689,0.564c-0.103,2.357-0.183,4.692,1.97,4.795c0.95-0.277,1.407-1.039,1.977-1.693
			c0.625,0.502,1.147,1.109,2.537,0.847c0.623-0.317,0.938-0.94,1.694-1.127c-0.006-1.04,0.126-1.94,1.127-1.976
			c0.032,2.881,0.659,5.168,3.103,5.642c1.22-0.097,1.083-1.55,2.256-1.69c0.468,0.473,1.655,0.223,2.538,0.281
			c0.481-0.932,0.078-2.742,1.409-2.818c-0.218,1.629,0.356,2.465,0.848,3.383c2.056,0.177,3.508-0.252,4.512-1.129
			c0.189-1.602-0.508-2.312-0.565-3.664C63.557,78.18,62.68,78.117,62.303,77.553z"/>
	</g>
</g>
</svg>
