<?xml version="1.0" encoding="utf-8"?>
<!-- Generator: Adobe Illustrator 16.0.0, SVG Export Plug-In . SVG Version: 6.00 Build 0)  -->
<!DOCTYPE svg PUBLIC "-//W3C//DTD SVG 1.1//EN" "http://www.w3.org/Graphics/SVG/1.1/DTD/svg11.dtd">
<svg version="1.1" id="Layer_1" xmlns="http://www.w3.org/2000/svg"  x="0px" y="0px"
	 width="120px" height="120px" viewBox="4 4 120 120" style="enable-background:new 4 4 120 120;" xml:space="preserve">
<g id="cross">
	<g>
		<path d="M98.322,41.323c-0.391-0.646-0.758-1.311-1.24-1.866c-0.628-0.408-1.055-1.019-1.242-1.863
			c-0.977-1.096-1.445-2.7-2.488-3.729c-1.711-2.536-3.472-5.021-6.838-5.904h-1.551c-0.464,0.16-0.785,0.458-1.245,0.621
			c-1.938,1.481-3.419,3.418-4.974,5.283c-1.12,0.643-1.678,1.845-2.799,2.487c-1.033,0.728-1.538,1.979-2.797,2.485
			c-1.48,1.938-3.418,3.419-5.281,4.973c-0.645,1.121-1.846,1.679-2.487,2.798c-1.292,0.47-1.4,2.121-2.796,2.487
			c-2.586-3.943-5.542-7.516-8.395-11.188c-1.91-1.404-2.963-3.664-4.97-4.973c-1.655-1.66-2.805-3.826-5.595-4.352
			c-2.535,0.366-3.725,2.077-5.598,3.109c-0.93,0.93-1.053,2.672-2.172,3.417c-0.521,1.345-2.374,1.354-2.177,3.419
			c0.237,1.332,0.868,2.361,1.553,3.419c0.682,1.049,1.712,1.868,2.486,2.796c0.399,0.477,0.554,1.121,0.934,1.556
			c1.287,1.475,2.655,2.551,3.729,4.04c1.593,1.826,2.894,3.943,4.662,5.594c1.004,2.415,3.181,3.658,4.041,6.215
			c-2.697,3.317-5.621,6.398-8.392,9.637c-3.082,2.926-5.388,6.63-8.704,9.323c-0.416,1.139-1.187,1.924-1.553,3.107
			c-0.938,0.93-2.462,1.268-2.797,2.796c-0.449,1.209-0.714,2.604-0.619,4.353c0.91,1.881,2.741,2.851,3.728,4.662
			c1.521,1.379,2.276,3.526,4.971,3.729c2.713-0.296,3.87-2.142,5.596-3.417c1.269-1.738,3.085-2.926,4.351-4.662
			c1.601-0.681,2.683-1.879,4.043-2.8c1.501-0.772,2.425-2.128,3.726-3.104c1.842-1.67,3.704-3.457,5.283-4.975
			c0.561-0.534,0.871-1.559,1.868-1.554c0.863,2.243,2.717,3.495,3.729,5.594c1.707,1.397,2.641,3.575,4.349,4.974
			c1.228,1.879,2.639,3.58,4.044,5.282c1.324,1.783,3.046,3.168,4.972,4.353h4.04c1.536-0.743,2.581-1.978,4.04-2.797
			c1.681-0.394,2.882-1.262,4.351-1.863c0.529-1.645,1.76-2.596,1.553-4.975c-0.494-0.646-0.674-1.604-1.553-1.863
			c-0.155-0.983-1.774-0.506-2.176-1.245c-4.564-7.036-10.396-12.808-14.607-20.2c2.009-1.727,3.924-3.536,5.906-5.283
			c1.65-2.078,4.188-3.27,5.904-5.285c1.053-0.811,1.973-1.76,3.108-2.484c0.725-1.143,2.383-1.35,3.106-2.488
			c2.248-1.582,4.697-2.968,5.594-5.904C99.225,43.328,98.35,42.749,98.322,41.323z M42.381,37.594
			c-0.15,1.089-0.462,2.023-0.308,3.419c-1.176,0.134-1.418-0.657-1.868-1.245c0.633-1.545,1.97-2.381,2.487-4.038
			c0.65-0.132,0.822,0.213,1.242,0.311C43.81,36.949,42.87,37.049,42.381,37.594z M38.341,90.738
			c-1.606-0.465-3.019-1.123-3.109-3.107c2.268-0.4,2.326,1.406,4.043,1.555C39.094,89.832,38.618,90.189,38.341,90.738z
			 M40.828,84.834c-0.159-0.159,0.226-0.396,0.311-0.311C41.301,84.684,40.913,84.92,40.828,84.834z M45.487,81.104
			C45.115,81.137,45.299,80.652,45.487,81.104c0.643,0.396,1.579,0.496,1.556,1.555C46.145,82.521,45.626,82.002,45.487,81.104z
			 M51.707,77.996c-1.256-0.195-1.571-1.33-3.11-1.242c0.755-1.941,2.718-2.668,3.729-4.352c0.111-0.408,0.547-0.487,0.621-0.932
			c0.362-0.052,0.554,0.067,0.625,0.311c0.416,1.139,1.184,1.921,1.552,3.107C53.798,75.738,53.029,77.146,51.707,77.996z
			 M57.301,55.307c-1.522-0.341-1.794-1.935-2.797-2.796c-0.714-1.045-1.793-1.728-2.487-2.798
			c-2.219,0.459-2.674-0.847-3.731-1.554v-6.215c1.166,0.802,1.732,2.206,2.485,3.419c0.803,1.066,1.694,2.039,2.177,3.42
			c1.268,0.699,1.532,2.406,2.796,3.106C55.872,53.317,57.871,54.179,57.301,55.307z M61.339,62.766
			c-0.227-0.847,0.619-0.623,0.626-1.24c1.178,0.166,1.479,1.211,1.861,2.175C62.951,63.437,62.553,62.695,61.339,62.766z
			 M80.299,87.009c0.5-0.085,0.534,0.294,0.932,0.312c0.306,1.457,1.561,1.966,1.867,3.419c-1.41,1.354-2.174-0.693-3.109-1.554
			C79.837,88.207,80.548,88.09,80.299,87.009z M68.484,54.377c0.851,0.287-0.432,0.972,0,1.863
			C66.756,56.146,68.077,54.922,68.484,54.377z M73.773,81.104c-1.428-0.748-1.877-2.477-3.111-3.416
			c-0.383-0.655-0.855-1.215-1.24-1.867c-0.547-0.488-0.41-1.665-0.938-2.176c0.097-0.635,0.843-0.608,0.938-1.242
			c0.5-0.088,0.532,0.296,0.932,0.311c1.045,2.271,2.611,4.02,4.037,5.904C74.115,79.379,73.669,79.967,73.773,81.104z
			 M84.648,46.917c-1.467-0.191-2.135-1.179-3.73-1.243c-0.645,0.182-1.003,0.654-1.553,0.933v2.798
			c0.361,0.466,0.896,0.76,0.934,1.553c-1.697,1.205-3.332,2.469-4.664,4.041c-1.794-0.691-2.304-2.666-5.281-2.177
			c4.994-5.568,10.922-10.213,15.849-15.853c1.735,1.481,2.371,4.058,3.731,5.907C88.518,44.568,86.384,45.543,84.648,46.917z"/>
	</g>
</g>
</svg>
