<?xml version="1.0" encoding="utf-8"?>
<!-- Generator: Adobe Illustrator 16.0.0, SVG Export Plug-In . SVG Version: 6.00 Build 0)  -->
<!DOCTYPE svg PUBLIC "-//W3C//DTD SVG 1.1//EN" "http://www.w3.org/Graphics/SVG/1.1/DTD/svg11.dtd">
<svg version="1.1" id="Layer_1" xmlns="http://www.w3.org/2000/svg"  x="0px" y="0px"
	 width="120px" height="120px" viewBox="4 4 120 120" style="enable-background:new 4 4 120 120;" xml:space="preserve">
<g id="_hair-cross">
	<g>
		<path d="M108.9,53.9c-0.601-0.9-0.5-2.5-1.101-3.4c-0.2-1.4-1.1-2.1-1.1-3.7c-0.7-0.9-1-2-1.4-3.1c-0.6-1-1.399-1.9-1.7-3.1
			c-0.6-0.7-1.399-1.3-1.699-2.3C99.6,36.1,97.6,33.7,94.8,32c-1.2-1-2.2-2.2-3.1-3.4c-1.2-1.1-2.7-1.9-3.7-3.1
			c-1.3-0.4-1.9-1.3-3.1-1.7c-1.101-0.6-2-1.4-3.101-2c-4.399-1-8.8-2.4-14.3-2c-0.2,0-0.3,0-0.3,0.3H66.6c-7.899,0-13.3,2.5-19.7,4
			c-6.7,3.7-12.9,8-18.5,12.8c-1.1,0.9-0.2,1.9-1.4,2.6c-0.4,1.2-1.3,1.9-1.7,3.1c-1,2.2-2.2,4.3-2.6,7.1c-0.6,1-0.9,2.3-1.1,3.7
			c-0.4,1.2-0.7,2.5-0.9,4c-0.6,2.4-1.2,5.2-1.4,8.3c-0.2,3.6,0.4,7.399,0.9,10.6c0.7,0.9,0.7,2.5,1.4,3.4
			c0.5,1.2,0.7,2.7,1.7,3.399c0.8,2.601,2.5,4.4,3.7,6.601c1.7,1.7,3.2,3.7,4.9,5.399c1.2,0.601,1.5,2,2.9,2.301
			c0.7,1,1.6,1.8,2.9,2.3c1.6,1.7,4.1,2.6,6,4c1.3,0.399,2.5,1,3.7,1.399c1.1,0.7,2.6,0.801,3.7,1.4c5.4,1.5,11.7,2,18.8,1.7
			c13.699-1.9,23.199-8,30.5-16.3c3.5-4.301,6.199-9.4,7.699-15.7C109.4,69.9,108.9,61.6,108.9,53.9z M88.7,70.4
			c4,0.3,8.2,0.5,12.6,0.6c-0.6,4.8-2.1,8.6-4.3,11.7c-0.2,1.2-1.3,1.3-1.4,2.6c-1,0.3-1,1.601-2,2c-0.5,0.8-1.199,1.5-2,2
			C91,90,90.7,90.8,89.6,91c-2.5,2.8-6.3,4.3-9.699,6.3c-3.9,1.3-7.5,2.9-12.801,2.9V91.6c-0.199-0.699,0.4-2.1-0.3-2.3
			c-0.1-2.3,0.2-4.2-0.3-6.6c-0.2-0.9-1-1.4-1.7-2.3h-2.3c-3.9,0.8-2.2,7.1-3.1,10.8v8.6c-4.2-0.2-7.3-1.5-10.6-2.6
			c-1.5-0.7-2.8-1.601-4.3-2.3c-0.7-0.5-1.3-1-2-1.4c-0.6-0.4-1.3-0.9-2-1.1C39.6,91.1,38.2,90.3,37.1,89.3c-1-1.2-2-2.3-3.1-3.399
			c-0.7-1.5-2-2.4-2.6-4c-1-1-1.6-2.601-2.3-4v-4c0.2-1.301-0.3-2.9,0-3.4c2.1,0,3.9,0.3,5.7,0.6c4.1,0.2,7.4-0.399,11.1-0.6
			c2-1,4.2-1.8,4.6-4.6c-0.1-2.2-1.5-3.101-2.9-4c-5.9-0.8-12.7,0-18.8,0c0.7-4.9,2.6-8.6,4-12.8c2-3.6,4.3-6.9,7.1-9.7
			c1-0.3,1.5-1,2.3-1.4c1-0.1,1.6-0.7,2-1.4c1.6-0.7,2.8-1.8,4.6-2.3c1.6-0.7,3.2-1.3,5.1-1.7c0.7-0.4,2-0.3,2.6-0.9
			c0.8-0.3,2-0.3,2.6-0.9c0.7,1.2,0.1,2.7,0,4.3c-0.2,4.2,0,8.7,0.6,12.3c0.8,1.8,2.6,2.7,5.1,2.9c3.2-0.5,3.4-4,4-7.1
			c0-4.4-0.2-8.6-0.6-12.6c0-0.5,0.2-0.7,0.6-0.9h4.9c0.899,0.4,2.3,0.2,3.1,0.6c2.5,0.6,4.5,1.8,6.8,2.6c0.5,0.7,1.4,1.1,2.301,1.4
			c4,5,8.899,9.1,12.6,14.6c0.8,3.3,2.1,6,2,10.3c0.2,1.4,0.7,2.5,1.1,3.7c-6.399,0.4-13.5,0-19.699,0.6c-1,0.7-1.801,1.4-2,2.9
			C79.9,70.5,84.8,70,88.7,70.4z"/>
	</g>
</g>
</svg>
