<?xml version="1.0" encoding="utf-8"?>
<!-- Generator: Adobe Illustrator 16.0.0, SVG Export Plug-In . SVG Version: 6.00 Build 0)  -->
<!DOCTYPE svg PUBLIC "-//W3C//DTD SVG 1.1//EN" "http://www.w3.org/Graphics/SVG/1.1/DTD/svg11.dtd">
<svg version="1.1" id="Layer_1" xmlns="http://www.w3.org/2000/svg"  x="0px" y="0px"
	 width="120px" height="120px" viewBox="0 0 120 120" enable-background="new 0 0 120 120" xml:space="preserve">
<g id="crown">
	<g>
		<path d="M118.975,39.811c-1.121-2.123-2.15-4.338-4.131-5.606c-5.548-1.558-11.892-0.015-13.863,3.835
			c-0.621,2.331-0.148,5.753-0.299,8.556c-1.363,1.881-3.973,2.517-5.604,4.131c-2.223,1.118-3.869,2.815-6.191,3.837
			c-1.574,1.766-4.113,2.573-5.607,4.424c-1.252,0.418-1.979,1.361-2.95,2.067c-1.142,0.525-1.745,1.596-2.948,2.062
			c-2.943-6.501-5.99-12.894-8.854-19.472c0.381-1,0.883-1.873,1.479-2.654c0.039-1.339,0.723-2.033,0.883-3.246
			c0.174-2.235-0.136-3.994-0.589-5.606c-0.922-1.438-2.19-2.528-3.243-3.833c-0.865,0.076-0.908-0.669-1.771-0.59
			c-0.101-0.691-1.289-0.287-1.479-0.887h-4.127c-0.926,0.352-1.562,0.998-2.655,1.18c-1.105,1.65-2.413,3.096-3.541,4.722
			c-0.334,2.333-0.468,4.304-0.294,6.489c0.612,0.766,0.802,1.953,1.768,2.361c0.22,1.157,1.959,0.794,1.77,2.361
			c-0.359,2.096-1.081,3.835-1.179,6.194c-0.848,1.71-1.681,3.434-2.065,5.604c-0.771,0.509-0.312,2.244-1.181,2.656
			c-0.814,0.465-1.44,1.117-2.066,1.771c-2.729-1.598-4.94-3.715-7.668-5.312c-2.341-1.989-5.444-3.209-8.262-4.72
			c-1.237,0.155-1.651-0.515-2.654-0.59c-0.996-0.089-2.017-0.149-2.655-0.59c-0.656-1.999-0.125-5.188-0.297-7.671
			c-1.577-2.832-4.738-4.902-8.85-5.015c-4.542-0.128-8.487,2.106-10.327,5.015c-0.816,1.692-0.473,4.405-0.295,5.899
			c0.035,0.289-0.049,0.599,0,0.885c0.206,1.236,0.621,1.547,0.888,2.066c0.468,0.919,0.764,1.927,1.176,2.358
			c0.485,0.506,0.699,0.811,1.183,1.182c0.457,0.35,0.98,0.875,1.177,0.887c0.329,0.017,0.146,0.217,0.297,0.293
			c0.61,0.313,2.444,0.822,2.655,0.885c2.594,0.783,4.744-0.036,7.379-0.295c0.403,1.107-0.243,2.178,0.294,3.541
			c5.501,9.443,8.552,21.342,12.684,32.158v2.948c1.396,1.46,1.437,4.269,2.949,5.604c0.232,0.064,0.583,0.01,0.592,0.297
			c1.164,0.707,3.143,0.594,4.72,0.885c4.249-0.622,8.2,0.061,12.688,0c1.274-0.002,1.87-0.686,3.244-0.59
			c9.389,0.497,18.801,0.531,28.029,0c1.366-1.385,2.309-3.199,3.537-4.721c1.153-9.074,3.194-17.262,5.902-24.781
			c2.9-7.321,6.188-14.27,11.504-19.178c1.062-0.031,1.989-0.303,2.953-0.589c0.79-0.236,2.048-0.511,2.652-0.885
			c0.468-0.289,0.797-1.07,1.178-1.475c0.518-0.545,1.16-0.874,1.479-1.477C119.102,45.246,119.014,42.503,118.975,39.811z
			 M23.684,49.249c-4.465-0.157-8.008-1.234-8.262-5.604c0.605-1.361,1.54-2.394,2.949-2.949h2.658c0.193,0.396,0.63,0.55,1.18,0.59
			C23.771,42.913,25.013,46.5,23.684,49.249z M59.97,30.959c5.262-0.992,7.735,6.195,3.834,8.26
			c-1.375,0.098-1.968-0.588-3.244-0.59c-0.132-1.511,1.137-1.613,1.182-2.948c-0.244-1.287-2.267-0.945-2.952-0.295
			c0.027,0.354-0.428,0.18,0,0c0.74-1.236-0.209-1.749-0.296-2.953C58.916,31.871,59.407,31.379,59.97,30.959z M86.818,93.8
			c-12.668,1.597-27.562,0.959-41.305,1.476c-0.921,0.136-0.944-0.631-0.886-1.476c-0.921,0.771-1.841-0.346-2.655-0.592
			c-1.143-0.034-1.489-0.868-2.066-1.476c0.241-1.965,0.589-3.909,0.889-5.604c0-0.019,0.272,0.015,0.294,0
			c-0.013-0.505,0.219-0.767,0.589-0.887h2.361c1.501,0.366,2.846,0.893,4.426,1.18h8.556c5.133-1.384,12.999-1.012,18.584-0.293
			c3.756-0.382,6.979,0.155,11.213,0c0.062,1.539-0.006,2.945-0.295,4.131v2.358C86.479,93.01,87.514,93.717,86.818,93.8z
			 M103.044,55.15c-0.056,0.172-0.54,0.459-0.593,0.59c-0.199,0.533-0.068,0.781-0.295,1.182c-0.154,0.274-0.454,0.38-0.588,0.588
			c-0.666,1.059-1.332,2.054-2.066,2.951c-0.73,0.898-1.689,1.68-2.359,2.655c-0.681,0.993-1.162,2.069-1.77,3.245
			c-2.098,4.588-4.296,9.078-6.489,13.57c-0.616,0.125-0.784-0.201-1.183-0.296c0.066,0.951-0.52,1.248-0.295,2.36
			c-14.629,0.271-27.233-1.479-41.893-1.182c-1.218,0.156-2.323,0.435-3.541,0.593c0.346-1.806,1.408-5.634-0.295-6.786
			c-1.876-0.107-1.875,1.666-1.771,3.54c-0.155,0.825-0.432,1.532-0.588,2.36c-0.505,0.478-0.115,1.853-1.18,1.77
			c-1.082-3.298,0.734-7.672-0.294-10.916c-1.381,0.391-1.896,1.646-2.361,2.951c-2.316-2.109-0.113-8.738-2.066-11.212
			c-1.171,0.011-1.212,1.149-1.474,2.065c-0.721-0.754-1.211-1.74-1.478-2.951c-0.94-0.531-1.003-1.942-1.769-2.655
			c-0.802-1.699-2.641-4.176-0.887-5.9c0.347,0.047,0.527-0.064,0.593-0.295c1.08-0.193,1.13,0.639,2.062,0.59
			c0.098,0.98,1.291-0.777,1.478,0.295c0.831,0.055,1.258,0.514,1.18,1.475c5.012,1.773,8.292,5.278,12.095,8.261
			c-0.028,1.897,1.202,2.539,1.77,3.837c0.612,1.061,1.754,1.59,2.359,2.654c1.167,0.509,1.472,1.871,3.247,1.77
			c1.271-0.107,1.655-1.101,1.771-2.359c1.06,0.176,1.428-0.344,2.066-0.59c1.05-0.721,1.591-1.947,2.36-2.949
			c0.772-0.997,1.778-1.762,1.477-3.836c-1.053-0.687-3.019-0.188-3.542,0.591c-0.918-0.562,0.461-1.28,0.297-2.063
			c0.505-0.381,1.16-0.61,1.179-1.477c1.108-0.661,1.75-1.788,2.359-2.951c0.064-1.242-1.32-1.038-1.771-1.77
			c0.548-3.288,0.755-6.913,1.771-9.734c0.237-0.255,0.809-0.176,0.885-0.59h0.885c1.197,0.672,1.723,2.016,1.77,3.833
			c0.707,1.165,1.022,2.717,1.477,4.13c2.099,3.412,4.207,6.807,5.311,11.212c0.963,1.792,1.664,3.844,2.36,5.897
			c0.282,1.099,0.56,2.195,1.183,2.953c0.221,1.057,0.682,1.873,1.771,2.064c1.18,0.154,1.532-0.639,2.063-1.18
			c0.398-0.408,1.1-1.074,1.182-1.771c1.07-0.895,1.658-2.275,2.654-3.246c1.812-2.117,3.771-4.096,6.194-5.604
			c2.481-1.549,4.704-3.36,7.374-4.72c1.042-0.928,2.564-1.371,3.542-2.361c1.646-0.321,2.06-1.874,3.835-2.064
			C102.936,54.135,103.186,54.704,103.044,55.15z M111.01,46.006c-2.752-0.1-4.141-1.564-5.015-3.541
			c0.151-1.418,0.673-2.475,1.177-3.541c0.777-1.095,3.348-0.39,5.02-0.59C115.389,39.843,114.98,45.623,111.01,46.006z
			 M43.744,88.193c-0.297,0.271-0.64,0.764-0.59,1.182c-0.336,2.102,1.024,2.516,2.359,2.948c1.149-0.62,2.306-1.233,2.066-3.245
			C46.731,87.627,44.72,87.305,43.744,88.193z M52.891,87.898c-0.802,0.985-1.349,2.375-0.889,3.834
			c0.688,0.498,1.259,1.104,2.362,1.181c1.067-0.408,2.141-0.81,2.36-2.063C56.626,88.639,54.992,87.229,52.891,87.898z
			 M61.445,90.85c0.223,1.058,0.683,1.875,1.77,2.063c1.875,0.108,2.473-1.065,3.244-2.063c-0.18-1.1-0.623-1.934-1.176-2.656
			C63.447,87.551,61.564,88.852,61.445,90.85z M70.885,89.963c-0.074,1.118,0.428,2.631,0.885,2.95
			c-0.002-0.002,0.715,0.321,0.592,0.295c1.623,0.351,3.072-0.601,3.244-2.358c-0.313-1.062-0.817-1.934-1.475-2.656
			C72.219,87.951,71.204,88.611,70.885,89.963z M79.738,90.85c0.092,0.397,0.418,0.562,0.295,1.181
			c1.205,1.505,4.701,1.032,4.425-1.476C84.285,87.52,79.623,87.613,79.738,90.85z"/>
	</g>
</g>
</svg>
