<?xml version="1.0" encoding="utf-8"?>
<!-- Generator: Adobe Illustrator 16.0.0, SVG Export Plug-In . SVG Version: 6.00 Build 0)  -->
<!DOCTYPE svg PUBLIC "-//W3C//DTD SVG 1.1//EN" "http://www.w3.org/Graphics/SVG/1.1/DTD/svg11.dtd">
<svg version="1.1" id="Layer_1" xmlns="http://www.w3.org/2000/svg"  x="0px" y="0px"
	 width="120px" height="120px" viewBox="0 0 120 120" enable-background="new 0 0 120 120" xml:space="preserve">
<g id="file-eps_1_">
	<g>
		<path d="M98.35,47.067c0.082-1.722,0.724-2.886,0.854-4.554c0.226-4.443-0.054-7.057,0-12.254
			c-0.039-4.426-0.013-8.912-0.854-12.531c-1.791,0.013-3.332,0.272-4.845,0.565c-0.812-0.509-1.649-1.005-3.131-0.85
			c-15.556-0.015-30.666-0.479-46.43-0.288c-0.414,0.162-0.697,0.446-0.856,0.854c-0.662,0.856-1.267,1.774-1.995,2.563
			c-0.534,0.506,0.338,0.833-0.284,1.425c-0.499,0.256-0.884,0.636-1.138,1.14c-1.536,1.507-3.025,3.053-3.99,5.129
			c-1.01,0.506-1.176,1.856-1.994,2.562c-0.803,0.713-0.9,2.135-1.707,2.847c-0.07,1.451-1.232,1.808-1.711,2.852
			c-0.652,0.963-1.862,1.362-1.992,2.845v6.557c0.193,1.701,0.758,3.033,0.854,4.842c-1.023,14.453-0.141,30.813-0.854,45.576
			c0.166,2.396-0.348,5.479,0.285,7.406v1.992c-0.172,0.51,0.834,1.18,0,1.426c-0.448,1.085-0.696,1.812,0,2.85
			c1.262,1.11,3.59,0.28,5.41,0.28c1.604-0.575,3.922-0.442,5.699-0.852c9.251-0.157,15.904,0.405,24.213-0.288
			c7.925-0.822,16.437-0.512,24.781-0.283c2.569,0.354,6.114,0.996,8.544,0.571c0.723-0.517,1.253-1.222,1.428-2.278
			c0.188-1.138,0.854-1.804,1.137-2.852C100.262,84.307,98.814,64.908,98.35,47.067z M43.944,26.559
			c-0.61,0.131-0.543-0.407-0.572-0.854C43.724,25.83,43.96,26.068,43.944,26.559z M41.663,27.696h0.857
			c0.373,1.429,1.369,2.238,2.279,3.136c-0.227,1.172,0.436,1.461,0.282,2.562c-1.337-0.088-1.153-1.695-2.28-1.994
			c-0.408-1.013-1.152-1.694-1.993-2.279C40.975,28.531,41.408,28.203,41.663,27.696z M40.809,33.395
			c0.354,0.88,0.941,1.529,1.712,1.996c-0.258,0.771-1.052-0.242-1.142-0.573c-0.417-0.242-0.901-0.424-0.857-1.139
			c-0.767-0.562-1.358-1.293-1.705-2.278C39.918,31.628,39.897,32.977,40.809,33.395z M36.537,34.252
			c0.685,0.547,0.944,1.523,1.709,1.992c-0.765,0.567-2.511,0.146-3.42,0.568C35.231,35.789,36.06,35.196,36.537,34.252z
			 M92.654,104.896c-1.461,0.125-1.562-1.104-2.85-1.143h-5.982c-10.951-1.045-21.319,0.872-32.19,0.854
			c-1.152,0.269,0.359-1.543-0.569-1.991c-1.282-0.144-0.801,1.479-1.423,1.991h-3.988c-1.302-0.205-2.89,0.318-3.418,0
			c0.393-1.647,1.759-3.354,1.139-5.131c-1.831-0.31-2.047,0.994-2.851,1.713c-0.226,1.287-1.132,1.901-1.138,3.418
			c-1.214-0.112-2.936,0.274-3.703-0.285c0.226-2.521,2.332-4.389,1.711-6.838c-2.278,0.193-2.66,2.281-3.42,3.99
			c-1.051-0.606-0.443-2.392,0-3.138c0.7-0.721,0.65-2.194,1.427-2.844c0.435-2.415,1.814-3.888,1.993-6.556
			c-0.854-0.707-1.92,0.187-1.993,1.141c-0.587,0.195-0.937,2.078-1.427,1.423v-2.276c0.358-1.252,1.086-2.144,1.709-3.132
			c0.436-2.321,1.509-4.004,1.994-6.269c0.236-2.001,2.037-4.316,0.854-5.983c-1.259-0.118-1.997,0.282-2.563,0.854
			c-0.688,0.09-1.26,1.755-1.708,1.141c-0.147-11.062,0.505-21.337,0.282-32.474c0.176-1.314-0.637-1.64-0.568-2.847h4.274
			c1.927-0.353,3.83-0.729,6.267-0.57c1.898-0.572,4.261-0.674,5.697-1.711c0.26-0.5,0.097-1.42,0.57-1.706
			c-0.445-2.503-0.656-5.237-1.141-7.691c-0.416-2.532-1.229-4.661-1.425-7.405c2.907-0.174,6.147-1.075,9.116-0.288
			c10.742-0.204,19.883,1.199,30.479,1.142c1.893,0.154,4.152,0.963,5.981,0.285c0.003,1.238,0.095,2.562-0.286,3.418
			c0.547,1.07,0.029,3.199,0.573,4.27c0.458,22.713,0.157,46.179,0.856,68.653C94.107,100.843,94.529,104.016,92.654,104.896z
			 M54.483,74.982c-1.424-1.613-2.26-3.82-1.996-7.123c0.896-1.666,1.572-3.555,3.42-4.268c0.412,0.814,0.412,2.051,1.705,1.987
			c1.911-0.479,1.576-3.606,0.572-4.843c-1.535-0.62-2.996-0.479-4.557,0c-2.818,2.311-5.322,4.938-5.126,10.258
			c0.641,3.535,1.95,6.4,4.558,7.979h3.986c1.93-1.113,4.402-1.677,4.561-4.561C59.257,73.547,57.429,75.518,54.483,74.982z
			 M71.573,71.277c-0.382-0.186-0.531-0.604-0.57-1.139c-1.417-1.713-4.104-2.156-5.981-3.419c0-1.515,1.074-1.962,1.713-2.845
			c0.996-0.168,0.937,1.342,1.707,0.566c0.617-0.681,0.75-2.158,0.283-3.131c-1.285-0.91-2.752-1.013-3.988-0.574
			c-0.366,0.135-0.631,0.678-1.137,1.142c-1.09,0.993-1.447,1.281-1.992,2.563c-0.657,1.539-0.758,3.178-0.287,4.844
			c1.06,0.836,2.472,1.332,3.99,1.709c1.537,0.453,3.676,0.312,3.133,2.848c-2.445,0.119-5.588-0.456-5.697,1.994
			c-0.049,0.711,0.439,0.895,0.854,1.141c-0.127,0.795,1.553-0.225,1.424,0.57c2.643,0.076,4.785-0.345,6.268-1.428
			C71.789,74.912,71.5,72.917,71.573,71.277z M82.682,71.277c-1.072-0.537-1.927-1.297-2.849-1.99
			c-1.174-0.438-2.478-0.754-2.849-1.992c0.104-1.131,0.828-1.646,1.711-1.997h2.562c0.206,0.234,1.627,1.113,1.423,0
			c0.963-1.164-0.537-2.298-1.423-2.562c-1.33-0.283-2.521-0.705-4.272-0.57c-0.541,0.121-0.717,0.613-1.422,0.57
			c-0.761,0.856-1.297,1.934-1.996,2.845c-0.08,1.793-0.037,3.457,0.57,4.56c1.215,0.782,2.467,1.521,3.986,1.995
			c1.074,1.015,2.854,1.325,2.852,3.419c-0.884,0.738-2.027-0.084-3.135,0c-1.066-0.5-1.824-2.022-3.419-1.14
			c-0.478,0.472-0.229,1.673-0.285,2.562c1.367,1.857,4.235,2.225,7.689,1.998c0.05-0.336,0.448-0.312,0.854-0.287
			c0.12-0.357,0.368-0.582,0.854-0.57c0.146-0.71,0.543-1.169,0.855-1.708c0.041-1.181-0.08-2.198-0.57-2.851
			C83.88,72.365,82.738,72.365,82.682,71.277z"/>
	</g>
</g>
</svg>
