<?xml version="1.0" encoding="utf-8"?>
<!-- Generator: Adobe Illustrator 16.0.0, SVG Export Plug-In . SVG Version: 6.00 Build 0)  -->
<!DOCTYPE svg PUBLIC "-//W3C//DTD SVG 1.1//EN" "http://www.w3.org/Graphics/SVG/1.1/DTD/svg11.dtd">
<svg version="1.1" id="Layer_1" xmlns="http://www.w3.org/2000/svg"  x="0px" y="0px"
	 width="120px" height="120px" viewBox="4 4 120 120" style="enable-background:new 4 4 120 120;" xml:space="preserve">
<g id="cup">
	<g>
		<path d="M102.484,26.004c-0.531-0.86-1.045-1.741-1.494-2.684c-4.051-3.406-10.122-4.793-16.704-5.668
			c-0.042-0.854-2.048,0.256-2.089-0.599h-2.986c-0.223-0.672-1.671-0.116-2.387-0.297h-2.982
			c-3.066-0.325-7.777-0.539-11.036-0.297c-0.184,0.012-0.354,0.046-0.298,0.297H61.91c-5.977-0.108-11.171,0.565-16.109,1.491
			c-5.168,0.801-8.99,2.944-13.128,4.774c-1.564,1.417-3.538,2.428-4.772,4.177c-1.77,1.215-3.794,2.175-4.774,4.177
			c-0.162,0.433,0.351,1.542-0.297,1.493c-0.172,0.522,0.362,1.751-0.298,1.789c0.336,1.255,0.333,2.849,0.895,3.878
			c0.82,0.868,1.58,1.8,1.789,3.281c0.322,7.235,1.133,13.984,1.49,21.181c0.278,3.5,0.625,6.937,0.599,10.739
			c0.634,1.258,0.147,3.636,0.299,5.371c0.848,0.397-0.231,1.326-0.299,1.791c0.499,0.494,0.237,1.75,0.299,2.684
			c0,1.891,0.97,2.811,0.595,5.072c0.625,1.266-0.025,3.808,0.6,5.072c0.183,3.596,0.502,7.054,1.787,9.547
			c1.419,1.563,3.797,2.172,5.669,3.279c1.755,1.329,4.146,2.02,6.562,2.686c4.646,1.426,10.306,1.826,16.112,2.09
			c3.074,0.09,5.917-0.047,8.651-0.299c2.929-0.154,5.01-1.155,7.756-1.492c1.928-1.153,4.498-1.668,6.562-2.686
			c0.996-0.492,1.988-0.996,2.983-1.492c0.445,0.007,1.222-1.107,1.491-0.297c0.704,0.729,0.554-0.445,1.492-0.299
			c1.727-2.253,4.167-3.789,5.668-6.266c0.352-6.607,1.619-12.305,2.684-18.197c0.855-6.107,1.637-12.287,2.984-17.9
			c1.562-5.396,2.359-11.562,3.283-17.602C102.846,38.412,104.507,31.559,102.484,26.004z M27.603,31.971
			c-0.154-0.154,0.216-0.381,0.298-0.297C28.056,31.826,27.684,32.055,27.603,31.971z M95.324,40.623
			c0.006,1.497-0.23,2.752-0.598,3.879c-0.233,2.649-0.738,5.027-1.193,7.458c-0.475,5.295-1.583,9.952-2.09,15.216
			c-1.707,9.826-3.666,19.402-4.773,29.831c-3.613,2.253-7.715,4.019-11.932,5.67c-1.096-0.001-0.438-1.751-1.788-1.493
			c-1.546,0.146-1.487,1.897-2.386,2.687c-2.492,0.592-5.215,0.954-8.357,0.896c0.329-1.857,1.779-2.598,1.792-4.773
			c-0.072-0.424-0.49-0.503-0.597-0.895c-2.806-0.123-3.312,2.057-4.772,3.28c-0.182,0.718-0.434,1.361-0.301,2.388h-4.473
			c0.251-1.836,1.283-2.892,1.789-4.475c0.652-1.115,1.995-3.438,0.599-4.773c-1.724-0.231-2.006,0.979-2.985,1.49
			c-1.854,2.025-3.944,3.812-4.473,7.161c-1.344-0.254-2.544-0.64-4.18-0.599c0.387-2.198,2.055-3.116,2.685-5.07
			c0.914-0.38,0.879-1.708,1.793-2.089c0.384-0.763,1.045-2.313,0.296-3.281c-0.233-0.065-0.589-0.008-0.594-0.299
			c-2.357,0.207-3.44,2.246-4.775,3.58c-1.439,1.442-3.068,2.7-4.177,4.478h-0.299c-0.034,0.758-0.435,1.155-1.192,1.192
			c0.269-0.526,0.668-0.926,1.192-1.192c1.205-2.574,2.837-4.722,4.176-7.16c1.41-2.47,3.471-4.289,4.18-7.459
			c-0.047-1.256-1.468-1.316-2.388-0.896c0.578-1.41,1.771-2.208,2.087-3.878c0.901-0.796,1.865-3.325,0.597-4.477
			c-3.131-0.246-3.51,2.261-5.371,3.282c-1.396,1.583-2.506,3.458-4.175,4.774c0.031,0.359-0.435,0.182,0,0
			c0.744-2.041,1.748-3.822,2.684-5.67c0.4-1.926,2.865-4.164,1.194-6.266c-2.385,0.301-2.818,2.553-4.478,3.58
			c-0.115,1.272-1.318,1.463-1.487,2.686c-1.102,0.292-0.885,1.902-2.089,2.089c0.27-2.017,1.703-2.869,2.089-4.774
			c0.97-1.414,1.327-3.443,2.388-4.771c0.344-2.041,1.501-3.27,1.788-5.37c0.738-1.312,2.177-3.312,1.492-5.071
			c-2.092,0.199-2.715,1.859-3.879,2.983c-1.125,1.362-2.012,2.959-3.283,4.177c-0.066,0.229-0.005,0.587-0.297,0.596
			c0.028,0.36-0.434,0.185,0,0c0.067-0.23,0.006-0.589,0.297-0.596c0.571-1.816,1.549-3.227,2.091-5.073
			c0.581-1.8,1.699-3.073,1.791-5.371c-0.104-1.091-1.025-1.363-1.791-1.789c-2.423,0.263-3.027,2.344-3.883,4.177
			c-0.844,0.049,0.252-1.838-0.595-1.79v-2.387c-0.396-1.293-0.501-2.876-0.594-4.475c-0.646-2.737-1.116-5.649-1.792-8.354
			c4.494,1.474,9.547,2.388,14.916,2.984h19.988c12.479-0.747,23.189-3.263,30.431-9.249c0.698,0.075,0.17,1.31,0,1.491
			C95.45,39.358,95.982,40.586,95.324,40.623z M91.744,33.165c-1.34,0.549-2.41,1.368-3.581,2.087
			c-1.286,0.503-2.544,1.037-3.579,1.792c-0.797,0.143-1.677,0.368-2.387,0.595c-0.16,0.052-0.779,0.572-0.896,0.598
			c-1.547,0.348-3.66,0.594-5.369,1.192c-3.17,0.509-6.615,0.745-9.846,1.193H45.801c-2.14-0.345-4.101-0.872-5.967-1.491
			c-0.984-0.596-0.064-0.471,0-1.492c-1.016,0.02-2.083,0.093-2.386-0.595c-2.044-1.582-2.517-7.088-1.793-9.548
			c6.318-2.234,13.172-3.936,21.481-4.176c0.483,0.082,0.513-0.282,0.896-0.299h20.585c3.466,0.312,6.808,0.751,10.143,1.193
			c2.887,0.893,6.436,1.123,8.354,2.984C96.484,30.351,93.38,31.024,91.744,33.165z"/>
	</g>
</g>
</svg>
