<?xml version="1.0" encoding="utf-8"?>
<!-- Generator: Adobe Illustrator 16.0.0, SVG Export Plug-In . SVG Version: 6.00 Build 0)  -->
<!DOCTYPE svg PUBLIC "-//W3C//DTD SVG 1.1//EN" "http://www.w3.org/Graphics/SVG/1.1/DTD/svg11.dtd">
<svg version="1.1" id="Layer_1" xmlns="http://www.w3.org/2000/svg"  x="0px" y="0px"
	 width="120px" height="120px" viewBox="0 0 120 120" enable-background="new 0 0 120 120" xml:space="preserve">
<g id="money1">
	<g>
		<path d="M110.232,32.531c-3.4-0.502-7.188-0.608-11.131-0.571c-0.305-0.646-1.793-0.108-2.565-0.284H90.83
			c-0.866-0.179-2.459,0.366-2.855-0.286c-22.992,0.162-46.717,0.629-69.611,0c-0.334,0.139-0.644,0.305-0.854,0.57
			c-2.135,0.148-2.228,2.336-2.854,3.994c-0.265,1.922-0.357,4.018-0.285,6.277c0.368,2.199,1.128,4.009,1.426,6.277
			c-0.072,7.63-0.254,15.149-0.567,22.538c0.095,3.901-0.509,7.101-0.287,11.126c-0.525,1.375-0.194,3.609-0.286,5.42
			c0.193,1.881-0.287,4.367,0,5.422c13.364,4.096,30.355,3.139,47.358,3.139c16.916,0,34.397,0.816,49.071-1.143
			C112.969,74.089,109.501,54.146,110.232,32.531z M105.667,87.309c-11.44,1.685-24.082,2.166-37.089,2.282
			c-1.191,0.24-1.348-0.555-2.283-0.571c-0.745-0.108-1.564-0.146-1.997-0.567c-5.627,0.891-11.63,1.141-17.973,1.141
			c-6.176,0-12.609-0.502-18.832-0.284c-0.591-0.17-1.871,0.354-1.995-0.285c-1.027,0.115-2.21,0.069-2.568,0.854
			c-1.02,0.562-1.522-0.133-2.854,0c-1.171-1.588-1.096-4.42-1.141-7.131c-0.534-2.226-0.187-5.33-0.284-7.989
			c-0.407-1.747,1.319-2.854,0.284-4.279c0.109-1.604,0.438-2.981,0.284-4.851c-0.203-3.629,0.473-6.376,0.288-9.986
			c-0.691-5.967-1.58-11.734-1.428-18.543c-0.011-0.488,0.211-0.738,0.571-0.856c28.95,0.913,58.575,1.146,87.87,1.71
			C106.107,54.274,105.727,70.632,105.667,87.309z M52.601,75.325c1.111,0.315,2.713,0.141,3.424,0.854
			c-0.109,2.867-0.17,5.688,2.567,5.706c1.583-0.413,1.521-2.475,2.282-3.709c-0.188-0.646-0.735-2.393,0.284-2.565
			c1.492-0.067,1.105,1.75,1.143,3.139c0.723,0.229,0.727,1.173,1.141,1.712c0.619,0.427,0.459,1.638,1.429,1.711
			c0.416-2.243,0.737-4.588,0.569-7.417c3.262-1.113,5.674-3.074,7.418-5.707c-0.088-1.609,0.506-2.535,0.285-4.277
			c-0.354-0.789-0.834-1.448-0.856-2.567c-0.597-0.354-1.069-0.828-1.423-1.427c-0.858-0.477-2.139-0.526-2.568-1.427
			c-1.261,0.021-2.453-0.02-2.854-0.855c-0.064-1.491,0.004-2.85,0.283-3.994c0.151-0.989-0.422-2.706,0.57-2.854
			c2.445-0.227,3.396,2.139,5.707,1.143c0.762-1.045-0.102-2.432-0.287-3.425c-0.664-0.095-1.229-0.292-1.426-0.854
			c-1.292-0.42-3.262-0.166-3.994-1.142c0.129-1.876,2.092-5.169-0.57-5.706c-0.765,0.852-0.873,2.358-1.427,3.424
			c-0.135,1.481,0.005,3.238-1.71,3.137c-1.244-0.701-0.291-3.299-0.287-4.564v-1.426c-0.389-0.561-0.271-1.629-0.568-2.283h-1.999
			c-0.353,3.264-0.916,6.313-1.142,9.701c-1.259,0.926-2.564,1.809-3.707,2.854c-0.886,0.162-0.751,1.342-1.715,1.426
			c-0.448,0.691-1.02,1.262-1.71,1.711c-0.03,0.73-0.523,1-0.857,1.428c-0.222,1.074-0.496,2.416,0,3.423
			c1.368,1.298,4.901,0.427,6.277,1.712c0.467,0.606-0.309,1.802-0.284,2.854v3.14c-0.524,0.618,0.054,2.334-0.571,2.853
			c-3.554,0.417-4.402-1.873-7.42-1.998C46.691,72.366,50.64,74.057,52.601,75.325z M65.439,66.48v-3.994
			c1.922,0.266,3.391,0.984,3.99,2.568c0,2.756-1.918,3.594-3.707,4.563C65.07,69.132,65.621,67.439,65.439,66.48z M61.73,53.929
			c0.205-0.649,0.254-1.457,0.569-1.996h0.856c0.062,2.439-0.686,4.07-0.569,6.561c-1.157,0.011-0.241-2.041-0.856-2.566V53.929z
			 M61.158,67.623c0.347-0.51,0.054-1.66,0.572-1.997c-0.479-0.474-0.227-1.674-0.285-2.567c0.336-0.047,0.24-0.521,0.285-0.855
			c0.33-0.047,0.508,0.062,0.569,0.285c-0.666,2.281,0.06,5.955-0.569,8.272C60.36,70.407,61.827,68.137,61.158,67.623z
			 M56.88,58.493c-0.367-0.393-1.238-0.281-1.995-0.284c0.062-1.651,1.879-1.544,2.281-2.854
			C58.168,55.933,57.16,57.533,56.88,58.493z M30.348,45.085c-0.747-1.537-1.653-2.912-2.566-4.279
			c-3.019-0.81-4.244,1.813-6.279,2.852c-0.103,2.1,0,3.996,0.856,5.136C25.844,50.241,30.194,48.747,30.348,45.085z M25.783,42.231
			c0.708-0.045,0.886,0.448,1.426,0.57v1.713c-0.405-0.025-0.806-0.047-0.855,0.284C25.541,44.587,25.188,42.969,25.783,42.231z
			 M94.54,50.79c1.655,0.721,3.087,0.932,4.851,0.285c1.387-1.357,1.846-4.396,0.854-6.561c-1.101-0.803-2.345-1.461-4.281-1.428
			c-0.872,0.361-1.501,0.973-2.28,1.428c-0.103,1.42-0.785,2.258-0.57,3.994C93.581,49.274,94.008,50.086,94.54,50.79z M30.348,64.2
			c1.169,0.026,2.34,0.055,3.139-0.287c0.411,1.112,1.085,1.959,1.996,2.567c1.059,0.201,1.225-0.487,2.282-0.285
			c0.459-0.493,1.066-0.836,1.714-1.141c0.259-0.789,1.632-0.461,1.711-1.429c0.654-0.58,0.103-2.369,0.284-3.422
			c-0.586-0.078-0.068-1.264-0.854-1.142c0.124-0.788-1.067-0.268-1.141-0.855c-1.348-0.383-1.62,1.782-2.283,1.14
			c-0.223-0.633-0.601-1.112-0.571-1.997c-1.248-0.272-1.876-1.167-3.709-0.856c-0.784,0.547-0.969,1.695-1.709,2.283
			c-0.397,1.032-1.257,1.6-1.43,2.854C29.63,62.824,29.936,63.564,30.348,64.2z M81.984,64.484
			c-0.068,1.022,0.855,1.047,0.855,1.996c1.021,0.023,1.646,0.444,2.566,0.572c0.046-0.529,0.966-0.178,1.143-0.572
			c0.564-0.004,0.361-0.775,1.143-0.568c0.578-0.66,0.949-1.525,1.998-1.711c1.426,1.551,5.324,1.297,6.562-0.287
			c0.142-1.76-0.396-2.837-1.712-3.137c-0.907,0.043-1.256,0.646-2.284,0.568c-1.125,0.079-0.868-1.22-1.997-1.14
			c-0.67,0.006-0.84-0.491-1.711-0.287c-1.499,0.595-1.428,2.758-3.424,2.854c0.15-1.197-0.495-1.594-0.568-2.566
			c-0.601-0.544-1.464-0.82-2.283-1.142c0.062,0.546-0.603,0.333-0.855,0.569c-0.227,0.213-0.098,0.587-0.283,0.856
			c-0.16,0.23-0.713,0.32-0.855,0.568c-0.689,1.186-0.967,3.34,0,4.566C81.238,65.641,81.512,64.961,81.984,64.484z M34.057,74.756
			c-1.364-0.349-2.227-1.195-3.995-1.142c-2.048,0.518-3.05,2.084-4.278,3.422c-0.553,2.114-0.192,4.403,0.57,5.991
			c1.321,0.486,2.558,1.058,4.279,1.142c1.039-0.293,1.767-0.897,2.854-1.142c0.761-1.81,1.959-3.176,1.71-5.991
			C34.775,76.316,34.19,75.764,34.057,74.756z M28.923,80.462c-0.073-1.976,0.586-3.216,2.283-3.426
			C32.436,78.473,31.107,81.568,28.923,80.462z M96.252,74.186c-1.086,0.627-2.318,1.104-3.141,1.996
			c-0.756,1.717-1.348,3.599-1.424,5.991c0.846,1.816,2.138,3.188,4.562,3.425c3.407-0.396,5.688-1.916,6.273-5.136
			c0.179-2.647-0.955-3.989-1.998-5.422C99.223,74.636,97.852,74.296,96.252,74.186z M97.962,80.747h-1.426
			c-0.124-0.981,0.112-1.601,0.284-2.283h1.142C98.385,78.88,98.385,80.331,97.962,80.747z"/>
	</g>
</g>
</svg>
