<?xml version="1.0" encoding="utf-8"?>
<!-- Generator: Adobe Illustrator 16.0.0, SVG Export Plug-In . SVG Version: 6.00 Build 0)  -->
<!DOCTYPE svg PUBLIC "-//W3C//DTD SVG 1.1//EN" "http://www.w3.org/Graphics/SVG/1.1/DTD/svg11.dtd">
<svg version="1.1" id="Layer_1" xmlns="http://www.w3.org/2000/svg"  x="0px" y="0px"
	 width="120px" height="120px" viewBox="0 0 120 120" enable-background="new 0 0 120 120" xml:space="preserve">
<g id="euro-sign">
	<g>
		<path d="M105.336,83.422c-0.335-0.428-0.354-1.166-0.854-1.426c-0.033-0.729-0.057-1.469-0.857-1.43
			c-0.18-0.607-1.754-0.268-1.997,0c-1.073-0.217-1.364,0.35-2.282,0.287c-5.436,2.27-10.131,5.273-16.834,6.275
			c-2.566,0-5.135,0-7.701,0c-3.391-0.797-7.199-1.17-9.699-2.854c-1.953-0.141-2.672-1.516-4.277-1.996
			c-0.391-0.654-1.176-0.918-1.714-1.428c-0.066-0.41-0.468-0.48-0.569-0.854c-0.467,0.207-1.242-0.564-0.568-0.572
			c5.61-1.424,11.434-2.639,16.261-4.85c0-1.903,0-3.807,0-5.707c-0.805-0.812-2.43-0.809-3.428-1.428
			c-6.621-0.346-10.058,2.496-15.404,3.428c-0.595,0.445-1.498,0.59-2.566,0.564c-1.2,0.062-2.386,0.104-2.567-0.854
			c-0.212-2.589,1.484-3.271,2.852-4.277c1.968-0.507,3.688-1.261,6.275-1.144c1.536-0.847,3.918-0.841,5.708-1.429
			c2.318-0.151,3.953-0.991,5.422-1.994c0.381-1.329,1.258-2.167,1.139-3.994c-0.875-3.21-5.189-2.987-9.412-2.853
			c-2.42,0.439-6.703,1.229-8.559-0.287c0.402-1.672,1.682-2.394,1.71-3.992c0.877-0.553,1.294-1.561,1.999-2.281
			c0.58-0.848,1.365-1.489,1.71-2.57c1.925-0.455,2.456-2.297,4.28-2.852c1.763-0.709,3.131-1.814,4.851-2.568
			c4.056-1.178,8.812-1.646,14.265-1.426c2.155,0.697,4.229,1.48,6.276,2.281c1.726-0.084,3.845,0.229,5.136-0.286
			c0.543-1.722,0.197-3.896,0-5.706c-0.504-0.73-1.316-1.154-1.427-2.281c-1.499-0.591-2.375-1.809-3.993-2.283
			c-1.178-1.012-3.234-1.137-4.562-1.994c-3.77-0.419-7.282-1.088-11.698-0.857c-0.365,0.016-0.396,0.367-0.856,0.285
			c-6.291-0.203-9.627,2.541-13.979,4.281c-1.722,1.508-3.527,2.938-5.422,4.277c-2.813,3.559-5.763,6.98-7.985,11.127
			c-2.698,3.676-3.924,8.822-6.563,12.554c-2.818,1.083-5.658,2.14-8.845,2.853c-2.534,1.459-5.757,2.232-5.991,5.988
			c1.158,2.396,4.496,1.998,7.988,2c2.373-0.383,4.588-0.93,7.417-0.857c-0.144,2.521,0.081,4.678,0.856,6.279
			c-2.514,0.625-4.635,1.641-7.132,2.281c-2.183,0.955-4.646,1.629-5.138,4.275c0.617,1.193,1.108,2.512,2.283,3.141
			c1.104-0.151,1.395,0.51,2.567,0.285c0.535-0.062,1.892-0.734,2.282,0c2.662-1.046,5.859-1.562,8.845-2.279
			c4.401,3.873,8.694,7.853,14.552,10.27c5.349,2.926,11.851,4.695,19.401,5.42c1.52,0,3.039,0,4.562,0
			c9.674-0.979,16.799-4.504,22.249-9.699c0.106-0.849,0.498-1.408,1.146-1.711C104.699,86.777,105.652,85.734,105.336,83.422z"/>
	</g>
</g>
</svg>
