<?xml version="1.0" encoding="utf-8"?>
<!-- Generator: Adobe Illustrator 16.0.0, SVG Export Plug-In . SVG Version: 6.00 Build 0)  -->
<!DOCTYPE svg PUBLIC "-//W3C//DTD SVG 1.1//EN" "http://www.w3.org/Graphics/SVG/1.1/DTD/svg11.dtd">
<svg version="1.1" id="Layer_1" xmlns="http://www.w3.org/2000/svg"  x="0px" y="0px"
	 width="120px" height="120px" viewBox="0 0 120 120" enable-background="new 0 0 120 120" xml:space="preserve">
<g id="yen-sign">
	<g>
		<path d="M88.109,18.199c-0.897,0.434-1.812,0.852-2.854,1.141c-1.258,1.215-1.821,3.125-3.139,4.279
			c-0.496,1.975-2.144,2.801-2.566,4.852c-1.442,1.027-2.024,2.918-3.139,4.277c-0.539,0.697-1.093,1.381-1.427,2.281
			c-0.396,0.842-1.394,1.08-1.426,2.285c-1.58,0.895-1.847,3.1-3.427,3.992c-0.646,1.824-2.12,2.822-2.851,4.564
			c-2.528,2.514-4.112,5.967-6.562,8.559c-1.726-2.459-3.538-4.829-5.137-7.416c-1.878-2.4-3.269-5.293-5.422-7.418
			c-0.427-1.664-1.961-2.219-2.282-3.994c-1.236-0.854-2.1-2.083-2.852-3.422c-2.328-1.955-3.589-4.973-6.85-5.992
			c-0.947,0-1.901,0-2.85,0c-1.221,0.777-1.956,2.037-2.283,3.707c1.067,4.068,3.856,6.416,5.418,9.984
			c1.529,1.043,1.898,3.24,3.428,4.281c0.562,2.099,2.289,3.035,2.852,5.135c1.262,1.307,2.162,2.974,3.137,4.564
			c1.109,1.463,2.154,2.982,3.143,4.564c1.037,1.525,1.885,3.25,3.135,4.566c0.264,1.066,1.164,1.498,1.427,2.568
			c0.419,0.244,0.907,0.426,0.856,1.142c0.254,0.081,1.248,0.771,0.568,0.854c-1.292,0.513-3.408,0.201-5.133,0.285
			c-3.65,1.486-10.342-0.067-10.841,4.563c0.127,1.584,1.358,2.063,2.567,2.567c1.238,0.568,2.988,0.628,4.564,0.857
			c1.552,0.159,2.67,0.752,4.564,0.569c1.295,0.511,3.529,0.08,4.564,0.854c-0.56,0.674,0.08,2.549-0.571,3.136
			c-5.116,0.874-12.077-0.093-13.407,4.565c0,0.762,0,1.522,0,2.282c0.947,1.623,3.016,2.119,4.85,2.854
			c3.398,0.27,6.354-0.604,8.842,0.285c-0.045,2.713-0.604,4.908-0.568,7.703c-0.736,2.021-1.355,4.16-1.143,7.133
			c0.573,0.378,0.637,1.268,0.857,1.994c1.172,0.73,2.148,1.654,3.424,2.283c1.564,0.045,3.072,0.029,4.277-0.285
			c1.178-0.818,2.145-1.85,3.14-2.854c0.759-3.9,1.677-7.643,1.998-11.98c0.143-1.568-0.316-3.738,0.282-4.852
			c4.844,0.184,9.076-0.244,13.695-0.285c1.66-1.287,3.26-2.637,2.854-5.99c-0.496-1.221-1.187-2.24-1.997-3.141
			c-0.225-0.062-0.562-0.008-0.573-0.283c-0.532-0.418-1.89-0.012-2.282-0.57c-1.897,0-3.802,0-5.705,0
			c-1.043,0.195-2.072,0.396-3.42,0.285c-1.49-0.188-2.578,0.34-3.428,0c0-1.141,0-2.281,0-3.426
			c4.051,0.059,7.098-0.891,10.844-1.141c1.575-1.467,3.871-2.211,3.709-5.42c-0.58-2.465-2.615-3.473-4.852-4.279
			c-2.034-0.037-3.551,0.442-5.421,0.57c-1.701-0.082-3.611,1.135-5.136,0.285c0.097-1.333,0.61-2.24,1.428-2.852
			c0.091-1.338,1.617-1.237,1.709-2.57c1.328-1.525,2.343-3.365,3.712-4.852c2.319-3.383,4.972-6.438,7.133-9.984
			c1.558-1.295,2.267-3.438,3.707-4.85c0.817-2.035,2.554-3.152,3.14-5.42c1.612-1.241,2.188-3.518,3.709-4.85
			c0.729-2.217,2.604-3.293,2.853-5.994c0-0.568,0-1.139,0-1.709C94.023,20.083,92.003,18.203,88.109,18.199z"/>
	</g>
</g>
</svg>
