<?xml version="1.0" encoding="utf-8"?>
<!-- Generator: Adobe Illustrator 16.0.0, SVG Export Plug-In . SVG Version: 6.00 Build 0)  -->
<!DOCTYPE svg PUBLIC "-//W3C//DTD SVG 1.1//EN" "http://www.w3.org/Graphics/SVG/1.1/DTD/svg11.dtd">
<svg version="1.1" id="Layer_1" xmlns="http://www.w3.org/2000/svg"  x="0px" y="0px"
	 width="120px" height="120px" viewBox="0 0 120 120" enable-background="new 0 0 120 120" xml:space="preserve">
<g id="pound-sign">
	<g>
		<path d="M93.83,90.262c-0.652-0.586-1.771-0.699-2.283-1.426c-4.865-0.584-5.734,2.824-9.414,3.426
			c-1.688-0.766-3.6-1.111-5.422-1.715c-0.027-0.008,0.021-0.256,0-0.285c-0.061-0.076-0.467,0.041-0.568,0
			c-0.645-0.256-1.781-0.59-2-0.854c-0.062-0.076-0.467,0.043-0.566,0c-0.641-0.256-1.676-0.291-1.998-0.854
			c-4.027-0.82-7.689-2.011-10.84-3.712V76.57c0-2.899-0.336-5.764,1.143-7.416c3.979-0.807,8.247,0.312,11.411-1.428
			c0.724-1.272,1.373-2.621,1.142-4.851c-0.697-2.344-2.818-3.268-4.563-4.568c-0.871,0.209-1.039-0.287-1.711-0.281
			c-0.5-0.262-1.425-0.1-1.712-0.57H64.16c-0.904-0.393-1.725,0.707-1.998,0c0.611-10.99,0.389-22.816,8.561-26.248
			c2.01-0.713,5.051-0.154,6.846,0.283c6.182,3.615,3.592,16.002,11.984,17.404c1.562-1.002,1.998-3.137,2.566-5.133
			c0.092-2.662-0.641-4.498-0.855-6.85c-0.668-0.57-0.477-1.998-1.143-2.566c-0.359-0.971-0.648-2.016-0.854-3.139
			c-0.898-1.006-1.328-2.479-2.283-3.422c-0.508-1.398-1.801-2.006-2.283-3.426c-1.865-0.799-3.186-2.139-5.42-2.566
			c-0.83-0.502-2.012-0.652-3.139-0.857c-1.357-0.164-2.631-0.414-4.281-0.283c-6.557,1.051-11.5,3.713-15.12,7.703
			c-0.344,1.271-0.943,2.287-1.713,3.135c-0.445,1.268-0.625,2.799-1.428,3.711c0.043,1.752-0.613,2.809-0.854,4.279
			c0.768,0.742-0.35,0.861-0.285,1.713c-0.018,0.963,0.514,1.217-0.283,1.711c0.178,3.506-0.604,6.055-0.859,9.131
			c-0.805,2.617-0.969,5.875-2.852,7.416c-6.045-1.07-11.414,0.928-12.268,5.99c-0.088,1.137,0.66,1.434,0.568,2.568
			c0.256,0.6,1.217,0.492,1.143,1.424c2.324,1.975,7.674,1.566,11.125,0.857c0.061,5.1,0.053,10.129-0.568,14.549
			c-2.428-0.051-4.002,0.752-6.275,0.857c-1.254,1.219-2.834,2.113-4.281,3.137c-2.066,3.357-4.527,6.312-3.992,12.268
			c0.674,0.373,0.549,1.543,0.854,2.283c0.418,0.248,0.904,0.428,0.857,1.141c1.285,0.996,2.809,1.758,4.279,2.568h4.85
			c0.383-0.475,1.27-0.443,1.711-0.855c0.713-0.234,1.121-0.781,1.998-0.854c0.9-1.002,2.236-1.567,3.139-2.567
			c1.195-0.702,1.729-2.071,3.139-2.567c0.678-1.224,1.596-2.209,3.137-2.567c8.137,2.803,16.542,5.332,27.959,4.854
			c1.559-0.44,3.053-0.947,4.564-1.431c1.076-1.017,2.65-1.532,3.139-3.14C94.449,96.131,94.174,92.508,93.83,90.262z"/>
	</g>
</g>
</svg>
