<?xml version="1.0" encoding="utf-8"?>
<!-- Generator: Adobe Illustrator 16.0.0, SVG Export Plug-In . SVG Version: 6.00 Build 0)  -->
<!DOCTYPE svg PUBLIC "-//W3C//DTD SVG 1.1//EN" "http://www.w3.org/Graphics/SVG/1.1/DTD/svg11.dtd">
<svg version="1.1" id="Layer_1" xmlns="http://www.w3.org/2000/svg"  x="0px" y="0px"
	 width="120px" height="120px" viewBox="0 0 120 120" enable-background="new 0 0 120 120" xml:space="preserve">
<g id="dollar-sign">
	<g>
		<path d="M85.543,76.266c-1.02-5.16-3.6-8.764-6.561-11.98c-0.922-0.221-1.688-0.596-2.283-1.143
			c-0.822-0.416-1.98-0.49-2.283-1.427c0.359-4.107,0.335-8.605,0.855-12.553v-3.424c0.297-1.322-0.526-2.471,0-3.139
			c1.104-0.193,2.826-0.303,4.852-0.285c0.053-0.422,0.688-0.262,1.139-0.285c1.205-0.887,2.66-1.525,2.854-3.424
			c-0.638-4.877-4.216-6.818-9.13-7.418V17.779c-1.471,0.336-2.307,1.307-2.567,2.854c-0.493,0.455-0.616,1.283-0.567,2.281
			c-0.826,0.127,0.254,2.156-0.572,2.283c-0.385,3.322-0.168,7.25-2.852,8.271h-2.568c-1.25-4.363,0.082-11.305-1.142-15.691
			c-1.04,0.186-1.521-0.191-1.997-0.57c-1.084,4.908-0.813,11.172-1.427,16.547c-1.692,1.543-3.899,2.57-5.992,3.709
			c-1.882,1.445-4,2.658-5.706,4.279c-3.357,3.205-5.47,7.652-5.422,14.264c1.743,2.918,4.273,5.05,7.133,6.849
			c2.658,2.002,6.12,3.203,8.273,5.707c-1.122,1.256-0.607,4.146-1.141,5.989v7.418c-0.425,2.617-0.81,5.277-2.567,6.562
			c-1.571-0.046-2.839-0.396-4.28-0.57c-3.729-0.149-8.063-0.614-9.129,2.567c-0.249,1.865,0.528,2.705,0.856,3.992
			c0.768,0.756,1.922,1.123,2.567,1.998c2.308,0.263,4.434,0.703,6.563,1.142c1.257-0.304,2.204,0.563,2.853,0
			c0.777,0.807,1.391,0,2.283,0.569v6.276c0.475,2.474,0.669,5.226,2.853,5.992c2.561-3.051,1.333-9.892,3.423-13.41
			c1.134-0.209,3.23-0.618,4.279,0v5.136c0.287,1.137,0.416,2.438,0.569,3.709c0.706,0.815,0.683,2.358,1.997,2.567
			c2.045-3.758,2.145-9.459,3.141-14.267c4.002-0.56,6.246-2.879,8.842-4.849c0.402-1.5,1.215-2.59,1.996-3.711
			C85.415,82.982,85.705,79.852,85.543,76.266z M59.867,54.582c0.175,0.775-0.362,2.264,0.284,2.568
			c-0.239,0.672-1.473-0.018-1.712-0.285c-0.729-0.127-1.312-0.4-1.711-0.857c-1.26-0.355-1.849-1.383-2.854-1.996
			c-0.066-1.072-1.074-1.207-1.141-2.281c1.938-2.535,3.753-5.189,6.279-7.133h0.855c0.779,0.646,0.703,2.148,1.139,3.139
			C60.605,49.998,60.486,52.543,59.867,54.582z M67.283,87.107c-1.711-0.189-2.098,0.941-3.708,0.854
			c-0.31-1.16,0.264-3.664,0.284-5.422c0.427-1.569,0.07-3.924,0.57-5.42v-3.141c-0.234-0.807,0.404-0.736,0.287-1.426v-3.139
			c0.928-0.166,1.326,0.195,1.995,0.285C69.645,73.85,67.961,81.715,67.283,87.107z M67.852,60.289
			c-1.691-0.018-1.871-1.551-2.564-2.568c-0.355-5.59,1.051-9.408,1.145-14.549V42.6c0.541-0.506,1.883-0.207,2.854-0.285
			C68.379,47.879,69.396,55.363,67.852,60.289z M74.416,83.113v-9.701C77.553,74.463,78.721,82.494,74.416,83.113z"/>
	</g>
</g>
</svg>
