<?xml version="1.0" encoding="utf-8"?>
<!-- Generator: Adobe Illustrator 16.0.0, SVG Export Plug-In . SVG Version: 6.00 Build 0)  -->
<!DOCTYPE svg PUBLIC "-//W3C//DTD SVG 1.1//EN" "http://www.w3.org/Graphics/SVG/1.1/DTD/svg11.dtd">
<svg version="1.1" id="Layer_1" xmlns="http://www.w3.org/2000/svg"  x="0px" y="0px"
	 width="120px" height="120px" viewBox="4 4 120 120" style="enable-background:new 4 4 120 120;" xml:space="preserve">
<g id="cw">
	<g>
		<path d="M115.957,60.795c-1.025-1.6-3.4-0.52-5.473-0.608c-0.424-0.692-2.119-0.112-3.039-0.302H104.1
			c-0.094-4.772-1.514-8.217-2.129-12.468c-1.019-1.619-2.107-3.164-2.738-5.17c-1.19-1.547-2.144-3.329-3.041-5.17
			c-1.852-1.597-3.571-3.317-5.168-5.169c-1.565-1.879-3.731-3.159-5.172-5.17c-2.021-0.917-3.584-2.293-5.471-3.344
			c-2.068-0.871-4.087-1.795-6.387-2.433c-4.344-1.635-8.334-3.627-13.682-4.258H48.755c-0.387,0.018-0.423,0.39-0.909,0.306
			c-6.352,1.556-11.306,4.505-16.727,6.992c-5.85,5.197-12.326,9.77-16.115,17.028c-0.539,2.097-1.391,3.884-1.823,6.081
			c-0.369,0.952-0.61,2.029-0.912,3.041c-0.568,0.754-0.315,2.321-0.913,3.041c-0.202,1.418,0.479,1.954,0.607,3.042
			c-0.668,0.551-0.053,2.379-0.607,3.041v3.951c0.146,2.785-0.544,4.733-0.304,7.603c0.52,2.726,0.918,5.573,1.217,8.516
			c0.6,1.02,0.997,2.243,1.214,3.647c0.86,0.762,0.801,2.443,1.521,3.346c1.045,2.201,2.189,4.295,3.346,6.385
			c2.721,3.767,6.064,6.909,9.424,10.036c0.87,0.103,1.391,0.835,2.129,1.216c0.838,0.434,1.677,0.532,2.433,0.911
			c1.49,0.75,2.886,1.625,4.257,2.435c3.635,0.926,6.576,2.55,10.342,3.344c5.331,0.648,11.813,0.146,17.633,0.307
			c2.6-0.648,5.168-1.32,7.908-1.826c0.258-0.451,0.764-0.652,1.52-0.605c2.062-1.387,4.492-2.4,6.387-3.955
			c1.137-0.586,2.469-1.087,3.346-1.823c0.902-0.76,1.992-1.901,2.125-3.346c-0.396-3.045-2.736-4.153-3.646-6.69
			c-1.001-0.721-1.63-1.812-2.126-3.041c-0.782-0.029-0.435-1.185-1.222-1.216c-0.104-0.804-1.545-0.272-1.821-0.911
			c-3.582,0.062-4.968,2.329-7.906,3.041c-3.832,1.133-9.014,0.916-13.985,0.911c-2.894-0.554-6.192-0.7-9.122-1.216
			c-8.276-2.371-13.881-7.406-17.939-13.986c-1.195-2.357-2.345-4.757-3.044-7.604c0.064-2.492,0.007-4.869-0.307-6.993
			c0.466-2.176,0.542-4.729,1.219-6.689c0.198-1.121,0.246-2.393,0.91-3.04c0.54-0.881,0.514-2.329,0.913-3.346
			c5.964-8.431,12.653-16.135,24.327-18.853c2.868-0.132,5.356,0.118,7.903,0.305c0.583,0.531,1.587,0.643,2.437,0.91
			c1.155,0.77,2.828,1.026,3.646,2.131c1.258,0.669,2.762,1.092,3.648,2.127c2.976,0.979,4.75,3.157,7.3,4.562
			c5.019,5.018,9.073,10.996,11.252,18.854c-2.772-0.236-4.647,0.419-7.299,0.305c-2.494,0.142-5.69-0.423-7.298,0.607
			c-0.756,1.228,0.402,2.577-0.305,3.954c0.844,2.704,3.172,3.925,4.562,6.079c1.514,2.139,3.47,3.832,5.171,5.777
			c1.59,1.957,3.561,3.534,5.169,5.476c0.61,0.815,1.356,1.556,1.825,2.127c1.058,1.3,1.693,3.133,3.953,3.042
			c3.216-0.637,3.496-4.205,6.08-5.475c1.97-1.984,3.623-4.283,5.774-6.082c0.504-1.426,1.705-2.149,2.433-3.345
			c0.902-1.127,1.875-2.18,2.736-3.344c1.35-0.582,1.473-2.39,2.74-3.041C114.952,63.846,116.255,63.121,115.957,60.795z
			 M50.885,97.284c1.297,0.319,2.469,0.178,4.259,0.307c0.542,0.039,1.07,0.288,1.516,0.302c0.46,0.019,0.427-0.272,0.609-0.302
			c0.415-0.067,0.504,0.306,0.611,0.302c0.938-0.033,1.185-0.158,1.823,0c0.657,0.164,0.788-0.298,1.216-0.302
			c0.229-0.005,0.329,0.274,0.607,0.302c0.41,0.043,0.499-0.302,0.61-0.302c0.539,0,0.866,0.259,1.518,0.302
			c0.016,0.002,0.35-0.345,0.609-0.302c0.117,0.017,0.275,0.326,0.607,0.302c3.714-0.263,7.341-1.427,10.95-3.344
			c0.923,1.407,2.228,2.436,2.732,4.258c-3.503,1.666-6.107,4.229-10.338,5.168c-2.127-0.811-2.296-3.582-4.562-4.257
			c-2.194,0.669-0.631,4.104,0.306,5.169c-0.229,0.687-1.705,0.119-2.434,0.305h-7.603c-0.175-1.748-1.384-2.465-1.519-4.258
			c-0.588-0.423-0.452-1.572-0.912-2.127C51.842,97.914,50.035,97.676,50.885,97.284z M101.363,72.046
			c-3.174,1.39-5.227,3.901-6.998,6.69c-1.848-0.685-2.248-2.816-3.951-3.647c-1.062-1.475-2.576-2.491-3.646-3.954
			c-1.037-1.498-2.615-2.455-3.648-3.953c-0.729-0.49-1.342-1.092-2.131-1.521c-0.219-1.099-1.766-0.868-1.822-2.127
			c3.008,0.435,6.547,0.345,9.424,0.909c1.178,0.267,1.082-0.74,1.825-0.909c0.362-0.554,1.587-0.24,2.133-0.608
			c1.198-7.463-1.401-13.545-4.563-17.638c-0.451-3.543-2.834-5.22-4.864-6.993c-1.371-1.197-2.888-2.182-3.953-3.649
			c-1.845,0.322-2.338-0.704-3.647-0.915c-1.439-1.497-3.215-2.661-4.867-3.95c-1.27-0.152-1.772-1.062-3.039-1.217
			c-0.622-0.899-2.241-0.801-3.043-1.521h-2.735c-1.073-0.143-1.666-0.769-2.431-1.216c-5.844-0.368-10.312,0.638-14.903,1.52
			c-2.182,1.163-4.625,2.065-6.383,3.648c-1.867,1.579-4.053,2.846-5.475,4.866c-3.758,3.133-6.521,7.263-8.82,11.858v2.433
			c-1.753,3.415-2.412,7.925-3.037,12.467v6.388c1.784,7.64,4.518,14.332,9.422,18.853c2.106,2.66,5.156,4.373,8.213,6.082
			c3.534,1.23,6.471,3.055,11.251,3.039c-1.65,1.94-1.49,5.095-0.914,7.906c-2.344,0.014-3.599-1.059-5.473-1.52
			c-1.19-2.256,0.144-7.035-2.432-7.906c-2.604,0.234-1.927,3.748-2.433,6.082c-1.58-0.449-2.825-1.229-3.952-2.129
			c-0.401-1.326-0.76-2.689-1.521-3.648c-0.054-2.074-0.104-4.152-1.521-4.865c-1.994,0.34-1.827,2.836-1.821,5.168
			c0.05,1.283-0.469-0.002-0.915,0c-0.274-0.535-0.734-0.887-0.913-1.52c-0.697-0.921-0.889-2.354-1.52-3.344
			c-0.112-1.916,0.425-4.48-0.911-5.17c-2.035-0.208-2.315,1.334-2.738,2.736c-1.34-1.496-1.078-4.601-1.821-6.689
			c-0.204-1.271-1.77-0.023-2.13-0.607c-0.37-2.062-1.518-3.351-1.52-5.779c-0.913-0.061,0.288-1.262,0,0
			c0.903,1.562,1.127-0.771,1.822-1.215c0.137-1.185,0.232-2.405,0.607-3.346c-0.108-2.348,1.076-5.138-0.91-6.081
			c-2.29,0.648-1.338,4.546-2.129,6.688c0.183,0.729,0.435,1.389,0.304,2.434c-0.688-1.037-0.718-2.728-1.214-3.953
			c0.154-4.109-0.541-7.367-0.309-11.555c-0.043-1.344,0.748,0.028,1.522-0.305c0.189-0.619,1.536-0.086,1.218-1.216
			c0.162-1.584-1.399-1.438-2.74-1.521c0.519-4.352,2.038-7.692,3.348-11.25c1.056,0.058,1.153,1.075,2.13,1.216
			c0.701,0.613,2.331,0.311,2.735-0.304c0.059-2.188-1.812-2.444-3.04-3.345c0.898-1.836,2.107-3.363,3.646-4.562
			c1.245-1.493,2.555-2.923,4.259-3.954c0.003-0.807-0.115-1.735,0.304-2.126c2.351-1.3,4.456-2.845,6.691-4.259
			c1.911-1.738,5.314-1.983,7.296-3.648c3.198-0.652,6.257-1.449,9.427-2.129h8.818c3.368,0.282,5.188,2.113,8.516,2.433
			c1.377,0.953,3.078,1.582,4.561,2.433c1.057,0.244,1.17-0.453,2.129-0.304c2.091,0.443,3.428,1.64,5.475,2.129
			c1.635,1.001,3.016,2.254,4.866,3.039c1.126,1.713,3.063,2.614,3.95,4.563c1.51,1.329,2.393,3.284,3.344,5.168
			c0.053,0.962,0.014,1.836-0.604,2.128c3.347,4.862,5.661,10.762,5.778,18.854c0.086,1.475-0.674,2.438,0,3.649
			c1.264,0.763,2.568,1.482,4.863,1.218C103.053,68.466,101.811,69.857,101.363,72.046z M26.86,36.165
			c0.239,0.067,0.357,0.256,0.308,0.609c0.524,0.362,2.148,1.184,2.434,0C29.149,36.165,27.286,34.926,26.86,36.165z"/>
	</g>
</g>
</svg>
