<?xml version="1.0" encoding="utf-8"?>
<!-- Generator: Adobe Illustrator 16.0.0, SVG Export Plug-In . SVG Version: 6.00 Build 0)  -->
<!DOCTYPE svg PUBLIC "-//W3C//DTD SVG 1.1//EN" "http://www.w3.org/Graphics/SVG/1.1/DTD/svg11.dtd">
<svg version="1.1" id="Layer_1" xmlns="http://www.w3.org/2000/svg"  x="0px" y="0px"
	 width="120px" height="120px" viewBox="4 4 120 120" style="enable-background:new 4 4 120 120;" xml:space="preserve">
<g id="database">
	<g>
		<path d="M103.747,53.597c0.188-1.082-0.2-1.58-0.595-2.075c0.228-1.118-0.359-1.421-0.297-2.373
			c-0.373-6.646-0.027-14.008-2.373-18.685c-0.316-0.278-0.092-1.094-0.887-0.89c0.297-0.891-0.66-0.525-1.189-0.592
			c-0.118-1.167-1.303-1.267-1.48-2.372c-1.052-1.42-2.052-2.892-3.263-4.156c-1.64-1.13-3.204-2.331-5.044-3.261
			c-0.717-0.664-1.624-1.141-2.371-1.781c-0.557-0.923-1.874-1.09-2.668-1.779c-3.785-0.66-7.907-0.988-11.566-1.778H60.741
			c-5.133,0.993-10.271,1.985-15.42,2.966c-1.742,1.223-4.318,1.613-5.931,2.964c-1.963,1.003-4.607,1.326-6.229,2.668
			c-2.125,0.842-3.775,2.158-5.338,3.561c-1.837,1.129-2.775,3.154-3.855,5.042c-0.158,17.751,1.387,33.805,0.89,51.899
			c-0.052,3.02,0.517,5.414,0.298,8.6c0.034,1.449-0.16,3.127,0.294,4.153c0.404,0.824-0.277,2.343,0.296,3.56
			c0.683,0.403,0.955,1.223,1.487,1.778c0.56,0.625,1.703,0.666,2.072,1.484c1.637,0.737,3.021,1.729,4.448,2.668
			c3.05,1.696,6.295,3.196,9.197,5.041c1.192-0.201,1.689,0.284,2.668,0.297c0.583,0.504,1.834,0.342,2.372,0.891
			c1.784,0.289,3.75,0.404,5.041,1.187c1.403,0.119,2.042-0.529,3.56-0.295c2.14,0.822,4.82,1.108,7.413,1.481
			c6.812,0.384,11.523-1.329,16.905-2.373c2.807-1.446,6.057-2.444,9.194-3.561c1.32-0.656,2.422-1.529,3.559-2.371
			c0.9-1.177,2.704-1.448,3.855-2.373c1.256-0.72,2.473-1.481,3.26-2.668c0.502-0.49,1.334-0.644,1.779-1.187
			c0.84-0.25,1.01-1.168,1.483-1.778C103.162,83.705,103.289,67.779,103.747,53.597z M31.68,35.209
			c0.56-0.725,1.133-1.438,1.482-2.372c0.07-1.215,1.009-1.563,1.188-2.668c2.846-2.689,6.277-4.797,10.082-6.527
			c3.701-1.834,8.982-2.091,13.346-3.262c7.117,0.005,14.417-0.182,20.762,0.594c1.685,0.984,3.882,1.455,5.336,2.668
			c1.827,0.745,3.073,2.069,4.744,2.968c1.444,1.917,3.287,3.435,4.153,5.93c0.256,4.21-2.43,5.478-3.854,8.007
			c-2.42,0.449-3.892,1.842-5.931,2.67c-1.502,1.367-4.086,1.651-5.934,2.67c-7.404,0.608-15.955,0.257-23.43,0
			c-3.63-0.818-7.047-1.851-9.787-3.56c-0.617-0.124-0.786,0.203-1.186,0.296c0.084,0.53-0.279,0.607-0.295,0.296
			c-2.489-0.774-4.561-1.963-7.12-2.669c-1.865-1.694-4.508-2.606-5.632-5.042C29.612,33.884,30.476,35.858,31.68,35.209z
			 M31.978,88.592c0.354-1.326,0.982-2.379,1.776-3.264c-0.083-0.479,0.283-0.51,0.299-0.889c0.824,0.262,1.464,0.713,2.371,0.889
			c-0.568,1.507-1.838,2.314-2.67,3.561c-0.933,1.142-1.987,2.166-2.667,3.557C30.196,91.148,31.324,89.334,31.978,88.592z
			 M36.722,66.941c-1.256-0.89-2.557,0.285-3.264,0.89c0.031,0.358-0.432,0.183,0,0c0.209-1.272,0.486-2.481,1.188-3.263
			c3.454,0.994,6.067,2.832,9.491,3.856c3.893,0.552,7.812,1.084,11.563,1.781h11.271c5.793-0.733,11.743-1.312,16.609-2.97
			c5.312-1.309,9.74-3.507,14.234-5.633v10.083c-0.986,2.377-3.696,3.024-5.336,4.746c-2.438,0.926-4.655,2.066-7.119,2.965
			c-2.525,0.836-4.91,1.811-7.414,2.67c-1.151,0.531-2.59,0.771-3.856,1.187c-1.101,0.58-2.854,0.506-3.854,1.187
			c-1.146-0.06-2.185-0.01-2.965,0.297h-8.601c-8.886-0.213-15.348-2.844-22.245-5.043c0.646-1.728,1.842-2.902,2.372-4.745
			c0.848-1.367,2.256-3.284,1.782-5.04c-2.302-0.762-3.611,1.887-4.744,3.263c-1.147,1.722-2.325,3.409-3.266,5.338
			c-0.729-0.753,0.5-2.059,0.89-2.67c0.15-1.233,1.038-1.731,1.188-2.964C35.776,71.338,37.315,69.291,36.722,66.941z M95.146,97.49
			c-1.312,0.863-2.717,1.633-3.855,2.666c-0.363-0.033-0.702-0.086-0.596-0.594c-1.275,1.492-3.416,2.123-5.041,3.262
			c-1.041,0.348-1.602,1.171-2.963,1.189c-0.49,0.896-2.295,0.473-2.969,1.186H77.35c-3.381,1.562-6.97,2.916-11.861,2.965v-2.371
			c0.074-0.868-0.559-1.025-0.891-1.484c-2.298,0.076-2.667,2.076-3.263,3.855c-1.318,0.232-1.78-0.395-2.966-0.297
			c-0.346-2.903,2.033-5.59-0.297-7.116c-1.628-0.045-1.667,1.494-2.373,2.372c-0.512,1.166-0.544,2.816-0.89,4.15
			c-1.682,0.201-2.432-0.529-3.855-0.592c0.6-3.16,1.576-5.938,2.67-8.6c-0.136-1.003-2.448-0.699-2.67,0
			c-0.444,0.839-1.303,1.263-1.482,2.372c-0.751,0.532-0.939,1.627-1.481,2.369c-0.493,0.895-0.351,2.422-1.48,2.672
			c-0.057-0.438-0.721-0.272-1.189-0.297c-0.688-0.685,0.548-0.957,0.298-2.076c0.789-0.664-0.42-1.483,0.296-2.076
			c0.507-2.007,2.188-4.28,1.185-6.821c-2.013-0.334-2.199,1.159-2.963,2.075h-0.299c0.283,1.232-0.887,0.06,0,0
			c0.279-1.452,2.329-4.001,0.299-5.039c-1.593-0.208-1.877,0.892-2.373,1.779c-1.011,0.47-0.928,2.039-1.78,2.668
			c-0.237,1.245-1.04,1.924-1.188,3.265c-1.006,0.475-0.481,2.482-1.778,2.668c-0.027-0.762-1.156-0.425-1.184-1.187
			c0.264-0.626,0.9-0.876,0.888-1.781c0.748-1.028,1.146-2.407,1.484-3.854c0.65-1.127,1.142-2.416,1.777-3.559
			c0.139-1.344,1.531-2.683,0.595-4.154c-2.422,0.25-2.828,2.511-4.154,3.856c-0.919,1.745-2.23,3.907-3.262,5.041
			c-0.066,0.231-0.007,0.587-0.297,0.595c-0.185,0.705-0.397,1.381-1.186,1.483c0.02-0.872,0.678-1.104,1.186-1.483
			c0.066-0.229,0.008-0.586,0.297-0.595c1.496-3.545,3.621-6.46,5.339-9.789c5.519,1.802,10.99,3.642,17.497,4.45h13.644
			c5.396-1.027,10.207-2.645,14.828-4.45c2.254-0.907,4.782-1.541,6.821-2.666c2.5-0.761,4.25-2.272,6.522-3.264
			c0.16,4.591-0.34,9.832,0.297,13.938C97.568,95.76,96.166,96.438,95.146,97.49z M98.111,54.189
			c-10.61,6.79-23.861,10.936-41.815,10.379c-3.794-0.656-7.87-1.029-11.864-1.481c-1.211-0.764-2.995-0.958-4.154-1.782
			c-1.449-0.424-2.552-1.2-4.149-1.482c0.067-1.486,1.268-2.5,0.594-3.857c-1.378-0.186-1.835,0.541-2.372,1.189
			c-0.508,0.421-0.692,1.941-1.484,1.184c0.241-2.871,2.316-4.989,1.78-7.711c-2.109-0.426-2.012,1.352-2.966,2.079
			c-0.332,1.349-1.115,2.245-1.483,3.558c-0.65-0.046-0.639-0.746-0.591-1.484c0.163-0.429-0.35-1.534,0.296-1.483
			c-0.073-1.258,0.773-1.596,0.592-2.964c-0.8-0.203-0.573,0.613-0.888,0.889c-0.684-0.702-0.108-2.662-0.3-3.855
			c-0.388-1.391-0.304-3.254-0.294-5.041c1.001,0.877,2.57,1.184,3.557,2.075c2.579,0.484,4.459,1.671,6.822,2.374
			c0.973,0.512,1.974,0.991,3.262,1.186c0.605,0.877,2.186,0.782,2.967,1.484c4.672,1.254,9.571,2.29,14.827,2.964h13.05
			c5.148-0.881,9.113-2.946,13.643-4.449c4.728-1.204,8.83-3.031,11.269-6.523c0.258-0.055,0.28,0.115,0.3,0.294
			C98.436,45.812,98.027,49.755,98.111,54.189z M30.788,44.7c-0.41,1.387-0.784,5.069,0.594,5.634
			c0.401-1.354,1.043-3.801,0.298-5.338C31.298,44.98,31.27,44.615,30.788,44.7z"/>
	</g>
</g>
</svg>
