<?xml version="1.0" encoding="utf-8"?>
<!-- Generator: Adobe Illustrator 16.0.0, SVG Export Plug-In . SVG Version: 6.00 Build 0)  -->
<!DOCTYPE svg PUBLIC "-//W3C//DTD SVG 1.1//EN" "http://www.w3.org/Graphics/SVG/1.1/DTD/svg11.dtd">
<svg version="1.1" id="Layer_1" xmlns="http://www.w3.org/2000/svg"  x="0px" y="0px"
	 width="120px" height="120px" viewBox="4 4 120 120" style="enable-background:new 4 4 120 120;" xml:space="preserve">
<g id="light-up">
	<g>
		<path d="M64.019,30.539c1.75-0.076,2.398-1.254,3.133-2.348c0.143-3.014-0.5-5.244-0.782-7.831
			c-0.295-1.186-0.415-2.544-0.783-3.653c0.017-1.496-1.101-1.859-1.829-2.61h-1.565c-1.021,0.194-1.255,1.179-1.826,1.827v10.179
			C60.705,28.461,61.324,30.535,64.019,30.539z M99.512,32.627c2.117-2.433,6.24-4.161,5.219-8.874
			c-0.543-0.847-1.905-0.876-3.392-0.782c-0.336,0.014-0.364,0.334-0.784,0.26c-2.455,1.284-4.302,3.179-6.265,4.959
			c-1.954,1.894-4.158,3.485-5.218,6.001c-0.486,1.368-0.096,2.69,0.521,3.654c0.483,0.036,0.87,0.171,1.043,0.521
			c2.549,0.112,3.43-1.443,4.957-2.35C96.939,34.928,98.332,33.883,99.512,32.627z M29.312,34.455
			c0.979,0.761,1.848,1.628,2.607,2.608c0.95,0.783,1.896,1.588,2.872,2.348c0.956,0.746,1.819,2.038,3.915,1.566
			c1.293-0.619,2.365-1.462,2.088-3.654c-0.773-2.271-2.983-3.106-4.176-4.957c-1.06-0.51-1.632-1.505-2.871-1.828
			c-0.676-0.889-1.933-1.197-2.872-1.826h-2.088c-0.158,0.014-0.309,0.039-0.261,0.26c-1.073,0.146-1.462,0.973-1.303,2.351
			C27.328,32.956,28.688,33.336,29.312,34.455z M82.807,41.761c-1.39-0.349-1.918-1.561-3.39-1.826
			c-0.851-0.979-2.688-0.965-3.653-1.827c-2.979-0.591-5.789-1.346-9.136-1.566c-3.313-0.011-6.686-0.075-9.655,0.261
			c-1.47,0.793-3.527,0.996-4.696,2.088c-1.569,0.694-2.741,1.783-3.914,2.87c-1.263,1.001-1.999,2.525-3.133,3.653
			c-0.163,0.968-0.733,1.529-1.043,2.348c-0.467,0.753-0.47,1.967-1.046,2.61c-0.117,1.857-0.547,3.993,0,5.741
			c0.14,0.905,0.698,1.391,0.785,2.351c0.866,0.264,0.816,1.443,2.088,1.304c2.565-1.348,2.848-4.979,3.912-7.83
			c1.273-2.12,2.449-4.336,4.438-5.741c1.159-0.839,2.414-1.584,3.913-2.088c9.266-0.98,18.44,0.335,22.442,5.481
			c0.793,0.861,1.274,2.032,1.828,3.132c0.344,1.306,0.311,2.992,0.52,4.434c-0.352,9.824-4.963,15.389-9.651,20.879
			c-2.317,1.599-4.124,3.706-7.31,4.438c-0.356-0.014-0.573,0.12-0.781,0.258h-5.22c-2.577-0.377-4.541-1.373-6.785-2.088
			c-0.76-0.979-2.146-1.334-2.871-2.349c-0.979-0.759-1.85-1.63-2.608-2.608c-1.729-1.838-3.192-3.941-4.179-6.523
			c-0.824-1.523-0.712-3.984-1.043-6.002c-0.394-2.14,0.949-4.416-0.26-5.741c-1.452-0.147-1.699,0.909-2.348,1.566
			c-0.5,0.891-1.218,1.565-1.305,2.87c-0.653,0.653-0.218,2.394-0.784,3.131v4.176c0.303,0.308,0.296,0.923,0.26,1.566
			c1.282,4.549,3.486,8.168,6.264,11.221c4.253,3.84,9.187,6.994,16.703,7.568h3.653c2.565-0.306,4.775-0.965,6.785-1.826
			c5.227-3.213,9.46-7.414,12.788-12.527c3.224-5.301,5.875-11.172,5.479-20.094C89.465,48.673,86.229,45.129,82.807,41.761z
			 M115.952,61.595c-0.353-0.173-0.487-0.56-0.522-1.044c-1.063-1.022-2.949-1.227-4.959-1.305
			c-3.785,0.826-9.945-0.725-10.438,3.393c0.459,3.071,3.903,3.423,7.307,3.653c1.501,0.101,3.021-0.076,4.438,0
			c0.355-0.512,1.598-0.142,2.09-0.521c0.695-0.172,0.988-0.746,1.562-1.045C115.746,63.824,116.137,62.999,115.952,61.595z
			 M30.614,68.378c0.562-0.829,1.409-1.374,1.565-2.608v-1.562c-0.443-1.383-1.475-2.179-2.608-2.872H23.83
			c-0.057,0.242-0.219,0.254-0.523,0.261c-3.24,0.066-6.919,0.247-7.307,3.393v1.044c0.398,2.646,3.444,2.643,6.004,3.131
			C25.185,69.213,28.308,69.203,30.614,68.378z M95.855,86.385c-2.32-0.32-3.272,0.729-4.174,1.828
			c-0.338,3.555,1.055,5.383,1.824,7.83c0.994,2.225,1.805,4.633,3.654,6.001c0.971,0.422,2.568,0.216,3.915,0.261
			c0.235-0.459,0.583-0.81,1.042-1.043c0.041-0.307-0.043-0.742,0.264-0.783c-0.195-3.197-1.427-5.359-2.611-7.567
			C98.85,90.352,97.623,88.1,95.855,86.385z M36.095,90.822c-0.305-0.04-0.74,0.046-0.78-0.26c-1.786-0.221-2.412,0.719-3.915,0.781
			c-1.573,1.387-3.08,2.836-4.436,4.436c-1.303,1.658-3.274,2.646-3.134,5.742c0.488,0.903,1.186,1.601,2.088,2.088
			c3.641-0.1,5.312-2.168,7.309-3.914c1.009-0.887,2.094-1.754,2.868-2.871c0.755-1.088,1.51-2.43,1.306-4.438
			C36.999,91.835,36.456,91.416,36.095,90.822z M66.889,99.173c-0.957-0.505-2.781-0.842-3.652,0
			c-0.307,0.392-0.755,0.638-0.781,1.306c-0.749,0.035,0.227,1.793-0.523,1.826v7.829c0.03,1.274-0.14,2.75,0.26,3.653
			c0.236,0.459,0.586,0.809,1.045,1.045c-0.129,0.82,1.194,0.195,1.304,0.781c1.22-0.174,2.174-0.609,2.872-1.305
			c0.582-3.418,0.107-7.896,0.261-11.742C67.943,100.905,67.307,100.146,66.889,99.173z"/>
	</g>
</g>
</svg>
