<?xml version="1.0" encoding="utf-8"?>
<!-- Generator: Adobe Illustrator 16.0.0, SVG Export Plug-In . SVG Version: 6.00 Build 0)  -->
<!DOCTYPE svg PUBLIC "-//W3C//DTD SVG 1.1//EN" "http://www.w3.org/Graphics/SVG/1.1/DTD/svg11.dtd">
<svg version="1.1" id="Layer_1" xmlns="http://www.w3.org/2000/svg"  x="0px" y="0px"
	 width="120px" height="120px" viewBox="0 0 120 120" enable-background="new 0 0 120 120" xml:space="preserve">
<g id="delivery">
	<g>
		<path d="M121.5,66.014c-0.857,0.051,0.253-1.865-0.604-1.814c0.172-0.98-0.207-1.408-0.308-2.118
			c-0.386-1.228-0.163-3.066-0.604-4.237c0.213-3.436-1.959-4.494-2.723-6.959c-0.759-0.858-1.169-2.062-2.121-2.725
			c-0.687-0.924-1.01-2.217-1.812-3.025c-0.562-1.055-1.186-2.043-1.814-3.027c-0.543-1.07-1.387-1.842-1.815-3.027h-0.604
			c-5.712-1.237-13.412-0.402-19.367,0c-0.672-2.336,0.682-6.448-0.304-9.078c-3.198-1.143-6.948-1.359-10.594-1.512
			c-3.854-0.162-7.826,0.02-11.8,0.303c-7.908,0.564-15.911,0.191-23.605,0c-2.948,0.227-5.082-0.364-7.866-0.303
			c-2.64-0.013-4.684,0.562-6.661,1.209c-1.214,0.398-0.858,2.365-0.906,3.937c-0.597,0.914,0.038,3.064-0.602,3.933
			c-2.178-0.798-4.788,0.413-7.57,0c-0.595-0.817-3.009,0.187-3.631-0.604c-0.983,0.341-1.895,0.408-2.421,1.513
			c-0.092,1.605,1.31,1.719,2.723,1.816c1.048,0.466,2.757,0.267,4.238,0.302c0.906,0.609,2.854,0.171,4.239,0.302h2.422
			c0.665,0.038,0.127,1.285,0.3,1.815c0.82,3.367-3.062,1.792-4.842,1.817c-2.415,0.45-5.025-1.172-5.751,0.908
			c0.024,2.196,3.019,1.418,4.843,1.814c1.022,0.086,1.738,0.48,3.028,0.304c0.818,0.187,2.398-0.385,2.722,0.302
			c-0.456,9.177-0.242,18.304,0,27.54c0.574,3.302-1.31,5.979,0,8.17c0.746,1.172,2.492,1.343,3.935,1.814
			c1.802,0.2,3.453-1.057,4.842-0.301c1.015-0.312,0.47,0.938,0.604,1.516c-0.667,0.035-0.128,1.28-0.304,1.812
			c-0.005,1.315-0.1,2.725,0.304,3.633c2.091,3.354,4.69,6.206,9.382,6.961c2.478,0.687,4.901-0.008,6.958-0.604
			c0.842-0.475,1.764-0.859,2.421-1.518c0.616-0.697,1.089-1.533,1.818-2.115c1.012-2.192,2.349-5.412,1.51-8.477
			c5.354,0.367,11.622,0.499,16.948,0c2.689-0.129,6.062,0.413,7.871-0.605c1.008-0.396,2.557-0.265,3.323-0.908
			c0.89,0.527,2.112,0.719,3.636,0.606c1.148-0.241,0.383,1.433,0.604,2.12c-0.179,0.98,0.204,1.406,0.304,2.118
			c-0.234,1.14,0.364,1.446,0.301,2.42c0.097,0.715,1.052,0.563,0.908,1.513c0.264,0.943,1.428,0.995,1.813,1.816
			c2.339,0.893,4.608,1.849,7.866,1.814c3.738-0.197,5.951-1.916,7.871-3.934c1.162-2.568,2.69-4.771,2.724-8.479
			c2.03-0.664,4.978,0.553,6.96-0.602c0.409-1.406,1.104-2.527,0.908-4.541h0.303v-8.475c-0.504-0.619-0.504-3.312,0-3.932V66.014
			L121.5,66.014z M54.622,89.316c-0.484,0.926-1.003,1.822-1.517,2.722c-0.997,0.517-1.837,1.188-3.024,1.513
			c-1.643,0.232-2.344-0.477-3.936-0.301c-0.272-0.634-0.892-0.923-1.814-0.907c-0.055-0.853-0.527-1.291-1.513-1.212
			c-0.276-1.641-1.328-2.504-1.817-3.936c0.255-0.752,0.396-1.619,0.302-2.723c0.533-0.275,1.055-0.562,0.911-1.515
			c1.468-0.347,2.011-1.621,3.932-1.515c0.944-0.771,2.841-0.592,4.54-0.604c-0.219,0.926,0.312,1.104,0.302,1.812h2.118
			C53.936,84.552,54.916,86.295,54.622,89.316z M84.882,67.828c-0.722,3.413-1.262,7.011-1.512,10.896h-4.843
			c-0.773,0.01-0.37-0.229-0.305-0.607c0.438-0.066,0.104-0.901,0.604-0.906c-0.305-0.604-0.521-1.293-1.209-1.513
			c-1.788,0.127-1.818,2.013-3.025,2.723H65.21c-1.438-0.096,0.542-1.011,0.304-1.817c0.836-0.465,0.027-1.813-0.304-2.117
			c-3.16,0.068-3.703,2.754-5.445,4.24c-1.048,0.463-2.76,0.266-4.239,0.299c-1.409,0.102,0.439-1.58-0.603-2.115
			c-1.881-0.469-1.723,1.104-3.028,1.209c-1.088-0.729-2.645-0.987-4.537-0.906c-1.514-0.134,0.664-0.639,0.301-1.513
			c0.688-0.324,1.102-0.92,1.21-1.817c-1.394-1.955-4.747-0.293-5.447,1.209c-1.858,0.969-2.89,2.766-4.537,3.938H34.95
			c0.571-2.149,2.015-3.43,2.724-5.446c0.858-0.552,0.882-1.942,1.813-2.423c0.012-1.299,1.607-1.014,1.212-2.723
			c0.005-1.114-0.884-1.336-1.515-1.816c-2.332-0.012-3.115,1.523-4.234,2.723c-0.639,1.584-1.982,2.457-2.422,4.239
			c-0.718-0.19,0.048-1.862-0.606-2.119c2.123-4.639,5.006-8.511,7.263-13.013c-0.976-2.028-3.532-0.089-4.234,0.909
			c-0.8,0.312-1.021,1.199-1.816,1.513c-0.314,0.415-1.202,1.792-1.513,1.21c0.534-4.307,0.222-9.464,0.301-14.224
			c1.892-0.227,4.951,0.717,5.146-1.21c0.036-2.254-3.153-1.285-5.146-1.513c0.178-1.59-0.533-2.291-0.301-3.934
			c2.841-1.126,8.389,0.827,10.592-1.512c-1.204-3.137-6.845-1.836-10.897-2.121v-3.933c6.189-0.269,10.904-0.171,17.248-0.305
			c0.837,0.276,2.126,0.095,2.728,0.605c3.903-0.436,8.112-0.558,12.407-0.605c4.671-0.304,10.737-0.711,15.129-0.304
			c2.151,0.172,5-0.357,6.657,0.304c-0.43,1.487-0.174,3.659-0.604,5.146C85.502,47.713,85.207,58.537,84.882,67.828z
			 M107.883,89.014c-1.078,0.133-1.326,1.096-2.119,1.512c-0.719,0.391-1.443,0.776-2.119,1.211
			c-4.49,0.455-6.715-1.354-8.172-3.934c-0.16-1.877,0.147-3.285,0.607-4.541c1.382-1.545,2.559-3.287,5.146-3.631
			c-0.061-0.26,0.112-0.283,0.301-0.302c1.658-0.048,3.259-0.032,4.537,0.302c0.01,0.295,0.369,0.236,0.605,0.303
			c0.622,0.289,0.256,1.562,1.211,1.516c0.178,0.629,0.637,0.979,0.907,1.513C109.217,85.706,108.178,86.986,107.883,89.014z
			 M117.562,67.525c-0.141,1.17-1.666,0.953-2.422,1.515c-0.414,0.794-1.271,1.146-1.509,2.116v2.423
			c0.349,1.562,1.759,2.073,3.326,2.42v4.235c-1.647-0.137-2.485,0.541-4.233,0.305c-0.873-0.645-1.426-1.604-1.817-2.725
			c-1.282-0.229-1.765-1.265-2.724-1.815c-3.935-0.612-8.943-0.479-11.498,1.212c-1.884,0.943-2.937,2.717-3.938,4.538
			c-1.933-0.118-3.183,0.444-4.843,0.606c-0.377-1.379,0.441-3.937,0.306-6.054c0.467-1.754,0.406-4.032,1.211-5.448
			c0.724-9.215-0.647-19.15,0.304-28.443c4.344-0.193,9.471,0.389,13.315-0.305c0.911,0.397,2.592,0.029,3.328,0.604
			c1.409,0.106,1.307,1.72,2.116,2.423c0.957,0.456,1.291,1.533,2.121,2.117c1.852,5.106,4.625,9.295,6.957,13.92V67.525
			L117.562,67.525z M16.795,32.724h3.328c2.275-0.091,4.514,0.919,5.144-1.209c-0.581-1.237-2.333-1.301-4.237-1.213h-5.748
			c-2.404-0.459-6.802-0.634-8.779,0.305c-0.095,2.419,2.933,1.708,5.145,1.815c1.108-0.199,1.163,0.654,2.119,0.604
			C14.187,32.337,15.873,32.913,16.795,32.724z M108.184,48.158c-0.57-0.638-1.742-0.68-2.119-1.513
			c-0.412-0.797-1.582-0.838-2.114-1.513h-6.36c-1.824,0.29-3.621,0.61-5.143,1.209c0.402,5.65-0.924,13.028,0.908,17.25
			c5.164-0.184,10.082-0.606,15.129-0.907c1.289,0.854,4.557,0.938,5.451-0.304c0.441-2.865-1.549-3.293-1.518-5.748
			c-0.791-0.926-1.666-1.764-2.117-3.026C109.635,51.75,108.673,50.19,108.184,48.158z M104.553,59.657h-4.238
			c-1.412,0.2-2.75,0.476-4.232,0.608c-0.083-4.357-0.605-8.273-0.91-12.41c1.998-0.527,4.819-0.226,7.266-0.302
			c1.422,0.094,1.226,1.801,2.42,2.118c0.256,1.256,1.213,1.811,1.516,3.024c1.373,1.655,1.882,4.172,3.025,6.055
			C108.607,59.879,105.844,59.028,104.553,59.657z"/>
	</g>
</g>
</svg>
