<?xml version="1.0" encoding="utf-8"?>
<!-- Generator: Adobe Illustrator 16.0.0, SVG Export Plug-In . SVG Version: 6.00 Build 0)  -->
<!DOCTYPE svg PUBLIC "-//W3C//DTD SVG 1.1//EN" "http://www.w3.org/Graphics/SVG/1.1/DTD/svg11.dtd">
<svg version="1.1" id="Layer_1" xmlns="http://www.w3.org/2000/svg"  x="0px" y="0px"
	 width="120px" height="120px" viewBox="4 4 120 120" style="enable-background:new 4 4 120 120;" xml:space="preserve">
<g id="direction">
	<g>
		<path d="M104.5,23.5c-0.5-0.3-1-0.6-1.9-0.5c-0.3,0.1-0.5,0.3-0.699,0.5c-3.101,1.6-7.101,3.1-10.2,4.3
			c-0.601,0.2-0.9,0.6-1.4,0.7c-0.6,0.2-0.7,0.4-1.2,0.5c-0.3,0.1-0.5,0.2-0.699,0.2c-0.601,0.1-0.601,0.3-0.9,0.5
			c-1.6,0.7-3.2,1.5-4.7,2.1c-4.3,2.5-9.5,4.2-13.7,6.9c-1.899,0.4-3,1.5-5,1.9c-2.9,1.7-6.6,2.5-9.7,4c-3,1.6-6.1,3.1-9.2,4.5
			c-1.4,0.8-3.1,1.5-4.7,2.1c-1.4,0.9-2.9,1.7-4.5,2.4c-1.4,0.9-2.9,1.7-4.5,2.4c-0.5,0.7-1.4,1-2.1,1.4c-0.7,0.5-1.1,1.3-2.4,1.2
			c-0.6,1.1-1.4,2-2.4,2.8c-0.2,0.6-0.9,0.8-1.2,1.4c-0.5,0.4-0.1,1.8-0.2,2.601c0.7,0.899,1.9,1.3,3.6,1.199
			c0.3,0.5,1.5,0.101,1.9,0.5c0.9-0.1,1.2,0.5,2.1,0.5c2.5,0.801,5.7,0.801,8.3,1.4c2.8,0.4,5.7,0.8,8.8,0.9
			c1.5,0.1,2.8,0.399,4.5,0.199c0.9-0.1,1.5,0,2.1,0.2c0.8,0.101,1.6,0.101,2.1,0.5c0.9,8.5,1.9,16.9,2.8,25.3
			c0.1,2.101-0.3,4.5,0.5,5.9c0.5,0.9,1.5,1.4,2.6,1.7c1.5,0,2,1,3.6,0.899c3.101-1.5,4.5-4.6,6.4-7.3c5.3-8.6,9.2-18.6,14.2-27.2
			c0.7-1.6,1.399-3.199,2.1-4.699c0.2-0.9,0.5-1.7,0.9-2.4c0.2-1,0.5-1.8,0.899-2.6c0.5-1.7,1-3.5,1.9-5c0.4-1.9,1.5-3.1,1.9-5
			c0.899-1.4,1.3-3.3,2.1-4.7c0.6-1.7,1.3-3.3,1.9-5c1-3.6,3-6.4,4-9.9c0.5-0.4,0.5-1,0.899-1.7c0.3-0.5,0.9-0.8,1.2-1.4
			C105,26.5,105.3,25,104.5,23.5z M48.6,59v1.9c-0.3,0.8-0.2-0.8-0.2-1.2v-1.9c-0.1-0.5,0.3-1.6-0.2-1.7c-0.1-0.5,0.7-0.3,0.7-0.7
			c0.2,0,0.2,0.3,0.2,0.5C48.9,56.9,48.9,58.2,48.6,59z M55.7,57.8c0.2,0.7-0.3,0.6-0.2,1.2v2.1c-0.1,0.9,0.7,2.1,0,2.8
			c-0.9,0.3-0.7-0.6-0.7-1.2v-5.2c-0.4-1.4-0.1-3.3-0.5-4.7c0.4-0.3,1.1-0.3,1.4-0.7C56.3,53.1,55.4,55.8,55.7,57.8z M85.1,38.6
			C85,38.4,85.4,38.5,85.1,38.6C84.6,39.1,84.4,39.8,83.7,40C83.5,38.9,84.1,38.7,85.1,38.6z M69,45.8c0.3,0,0.4,0.1,0.5,0.2
			c-0.4,2.2-0.5,5.9,0.5,7.6c-0.6,0-0.7,0.4-0.9,0.7c-0.699-0.8-0.399-2.6-0.5-4c-0.199-1.3-0.399-2.6-0.5-4
			C68.5,46.2,68.8,46.1,69,45.8z M61.9,60.2c0.1-3.9-0.1-7.5-0.7-10.7c0.7-0.1,1.1-0.5,1.7-0.7c0.2,0,0.2,0.3,0.2,0.5
			c-0.5,0.3-0.1,1.6-0.2,2.4c0.2,0.7-0.4,0.7-0.2,1.4c0.1,2.1,0.3,4.1,1.2,5.4C63.2,59.2,62.8,60,61.9,60.2z M91.5,42.7
			c-0.1,0.3-0.1,0.9-0.2,1.2c-0.1,0.2-0.399,0.6-0.5,0.7c-0.5,1.2-0.899,2.6-1.399,3.8c-1,2.4-2.2,4.8-3.101,7.1
			c-0.899,2.6-2,5-3.1,7.3C82.1,65.1,81.1,67.5,79.6,69.4C78.5,71.8,77.3,74,76,76.3c-1,2.3-2.1,4.7-3.3,6.9
			c-2,4.8-4.601,9.1-7.101,13.5C65,96,65.7,93.9,65.1,93.1c0-1.199-0.199-2.399-0.5-3.3c-0.1-2.5-0.7-4.5-0.7-7.1
			c-0.3-2.3-0.6-4.601-0.7-7.101c-0.3-1-0.4-2.1-0.5-3.3V70.4c-0.1-0.5,0.3-1.601-0.2-1.7c0.3-1,1.3-1.3,1.9-1.9
			c0.8-0.399,1.1-1.2,1.9-1.7c1.2-1.1,2.601-2.1,3.8-3.3c2.7-2.1,5.101-4.5,7.801-6.6c1.1-1.3,2.5-2.4,3.8-3.6
			c3.6-3.3,7.2-7,10.399-10.9C92.8,41,91.7,42.2,91.5,42.7z"/>
	</g>
</g>
</svg>
