<?xml version="1.0" encoding="utf-8"?>
<!-- Generator: Adobe Illustrator 16.0.0, SVG Export Plug-In . SVG Version: 6.00 Build 0)  -->
<!DOCTYPE svg PUBLIC "-//W3C//DTD SVG 1.1//EN" "http://www.w3.org/Graphics/SVG/1.1/DTD/svg11.dtd">
<svg version="1.1" id="Layer_1" xmlns="http://www.w3.org/2000/svg"  x="0px" y="0px"
	 width="120px" height="120px" viewBox="0 0 120 120" enable-background="new 0 0 120 120" xml:space="preserve">
<g id="dna">
	<g>
		<path d="M45.723,92.54c1.615-0.478,2.832-1.353,4.564-1.713c0.481-0.566,1.635-0.455,1.996-1.142
			c1.189,0.145,1.258-0.834,2.569-0.569c1.284-0.806,3.278-0.902,4.851-1.427c1.572-0.52,3.262-0.922,4.85-1.429
			c3.532-0.647,6.295-2.069,9.697-2.854c5.408,0.271,7.848-2.423,12.27-3.138c0.907-1.186,2.363-1.819,3.424-2.854
			c0.928-1.166,1.975-2.211,3.139-3.137c0.191-1.045,1.082-1.395,1.428-2.283c0.525-0.709,0.863-1.611,1.713-1.998
			c0.094-2.948,1.389-4.697,1.994-7.131c0.221-2.883-0.383-4.942-0.57-7.419c-0.711-0.906-1.27-1.964-1.424-3.425
			c-1.395-1.079-2.137-2.811-3.141-4.278c-2.521-2.044-5.082-4.046-8.273-5.421c-1.342-0.939-3.305-1.26-4.275-2.568
			c-1.193,0.049-1.408-0.873-2.57-0.854c-0.605-0.535-1.816-0.467-2.279-1.143c4.474-2.752,9.061-5.394,12.836-8.844
			c0.838-0.498,1.623-1.041,2.854-1.141c0.603-1.207,1.09-2.523,2.282-3.139c0.923-0.883,1.468-2.146,2.851-2.568
			c0.875-2.516,3.851-4.248,2.572-7.988c-2.104-0.201-1.226,2.582-2.854,2.854c-0.781,1.12-1.563,2.238-2.854,2.853
			c-15.031,0.458-31.473,0.421-46.218,0.285c-2.267,0.302-4.485,0.649-7.134,0.57c-0.676-0.843-1.033-2.011-1.709-2.853
			c-0.617-1.192-0.332-3.28-1.143-4.279c-0.908-0.437-1.257-0.101-2.283,0c-1.133,0.185-1.145-0.756-2.281-0.571
			c-1.208,0.409-1.861,1.372-2.567,2.284v3.137c0.515,1.865,1.399,3.355,2.281,4.852c0.628,1.749,2.071,2.682,2.854,4.277
			c3.019,2.688,6.05,5.366,9.129,7.989c2.075,0.681,3.517,1.999,5.706,2.567c0.805,0.529,1.877,0.783,2.853,1.141
			c0.806,0.625,2.563,0.291,2.854,1.428c-2.276,0.479-3.743,1.771-5.706,2.566c-2.152,0.037-3.719,0.656-5.706,0.857
			c-1.345,1.031-3.023,1.731-4.28,2.852c-1.203,1.27-2.962,1.98-3.705,3.709c-2.749,2.198-4.229,5.664-6.278,8.561
			c0.067,1.873-0.739,2.872-0.856,4.564c-0.148,2.239,0.443,3.739,0.572,5.704c0.73,0.979,1.551,1.871,1.997,3.14
			c1.011,0.795,2.171,1.438,2.853,2.565c1.441,0.463,2.402,1.402,3.424,2.283c1.573,0.14,2.352,1.069,3.708,1.428
			c1.5-0.321,2.657,0.771,3.707,0c0.774-0.428-0.493-1.19-0.856-1.428c-0.293-0.75-1.129-0.961-1.424-1.712
			c-1.307-0.689-2.494-1.498-3.427-2.567c-2.599-1.485-4.653-3.521-5.989-6.274c-0.139-2.521,0.117-4.639,0.572-6.562
			c1.449-2.261,2.695-4.721,4.564-6.562c1.424-2.285,3.613-3.805,5.419-5.707c1.581,0.727,2.733-1.195,4.565-1.141
			c1.592-0.596,3.293-1.082,5.139-1.426c0.912,0.252,0.389-0.941,1.139-0.857c0.896,0.137,1.117-0.404,1.711-0.568
			c2.939-0.299,5.324-1.145,7.988-1.713c2.537,0.887,5.104,1.744,7.99,2.281c1.256,0.455,2.379,1.043,3.707,1.428
			c0.227,0.629,1.342,0.371,1.426,1.141c0.395-0.012,0.626,0.135,0.854,0.287c0.311,0.066,0.689,0.469,0.285,0.568h-8.271
			c-5.105,0.406-10.203,0.828-15.689,0.855c-1.188,0.336-2.686,0.358-3.994,0.571c-0.121,0.641-1.514,0.008-1.712,0.57
			c-0.487,0.367-1.124,0.59-1.141,1.426c6.626,0.992,13.146-0.527,19.972-0.284c4.998-0.515,10.688-0.343,15.402-1.142
			c1.973,1.265,4.203,2.265,4.854,4.85c-0.145,1.948-0.808,3.379-1.143,5.137c-0.562,1.525-0.469,3.716-1.711,4.564H71.689
			c-0.9-0.141-1.006,0.514-1.998,0.283H59.418c-3.58,0.418-7.244,0.746-11.128,0.855c-1.534,0.465-3.359,0.637-5.422,0.571
			c-0.941,0.011-1.419,0.481-2.567,0.284c-0.562,0.484-2.102-0.008-1.709,1.428c1.623,1.32,5.177,0.714,7.984,0.855
			c2.777-0.172,5.656-0.24,8.276-0.572h7.703c6.68-0.643,14.533-0.109,21.682-0.283c-1.592,3.445-5.033,5.046-7.988,7.131
			c-1.029-0.49-1.242-1.801-2.852-1.711h-17.69c-3.944,0.43-7.302,1.447-11.128,1.998c0.355,1.549,2.531,1.275,4.281,1.426h5.705
			c0.902,0.139,1.009-0.514,2-0.285h6.559c0.902,0.142,1.01-0.514,1.998-0.285h4.281c1.24,0.186,3.225-0.373,3.994,0.285
			c-5.184,1.57-9.867,3.639-14.836,5.42c-5.479,0.705-10.188,2.178-14.267,4.279c-1.935,1.107-4.192,1.896-5.989,3.139
			c-1.625,1.514-3.414,2.861-5.135,4.279c-1.75,2.151-3.432,4.365-4.854,6.848c0.327,1.252,0,0.938-0.283,1.996v5.138
			c1.125,2.394,0.992,6.046,5.137,5.42c1.152-0.845,0.131-3.864,0.855-5.136c-0.039-2.033,0.439-3.553,0.57-5.422
			c1.105-1.748,2.466-3.238,3.709-4.85C40.707,95.893,43.066,94.066,45.723,92.54z M47.434,27.778
			c-2.377-0.762-3.603-2.675-5.139-4.281c-0.149-0.229-0.295-0.463-0.283-0.855c0.244-0.053,0.271,0.111,0.283,0.285
			c15.154,0.539,31.199,0.188,46.791,0.287c-0.027,1.113-1.15,1.128-1.711,1.711c-0.217,0.828-2.352-0.259-2.57,0.57
			c-3.438-0.202-6.256,0.4-9.125,0C65.879,25.873,56.717,26.886,47.434,27.778z M67.402,35.48c-2.936-0.677-5.932-1.296-8.842-1.997
			c-1.381-0.426-2.762-0.854-4.279-1.143c-0.763-1.041-2.836-0.778-3.139-2.28c10.377-0.462,19.826-1.855,31.096-1.427
			c-1.842,1.865-4.334,3.08-6.559,4.564C72.486,33.525,70.199,34.758,67.402,35.48z M88.516,67.718
			c-0.102,0.376-0.504,0.449-0.57,0.857C87.234,68.459,87.93,67.468,88.516,67.718z M43.154,59.729
			c6.117,0.764,12.832-0.01,18.831-0.284H81.38c2.146-0.045,4.8,0.421,4.853-1.712c-0.351-1.553-2.229-1.574-3.994-1.713H64.836
			c-0.365,0.016-0.396,0.367-0.855,0.287c-4.619-0.151-8.453,0.486-12.837,0.569h-6.849c-0.487,0.653-2.177,0.106-3.136,0.286
			c-0.665-0.091-1.098,0.046-1.431,0.285c-0.503,0.062-1.427-0.288-1.136,0.57C39.16,59.54,40.918,59.874,43.154,59.729z
			 M99.928,107.66c-1.672-7.457-5.408-12.854-9.984-17.402c-2.074-1.062-3.701-2.574-5.992-3.425
			c-0.986,0.229-1.096-0.424-1.994-0.283c-1.745,0.347-3.557,0.628-3.996,2.281c1.357,1.308,4.646,0.683,5.705,2.282
			c0.175,0.016,0.34,0.042,0.285,0.285c0.176,0.017,0.342,0.041,0.285,0.285c0.465-0.08,0.49,0.271,0.857,0.284
			c4.855,3.796,8.141,9.165,9.984,15.978v3.992c0.639,0.123,0.115,1.406,0.283,2c0.381,0.285,1.062,0.269,1.141,0.854
			C99.9,114.673,100.092,111.343,99.928,107.66z M83.949,91.398c-0.172-0.018-0.334-0.045-0.285-0.285h-0.854
			c-0.01-0.021,0.006-0.284,0-0.286c-6.172-0.562-12.279,0.795-17.977,1.143H59.13c-1.957-0.053-3.574,0.23-4.278,1.425
			c-0.028,1.551,1.981,1.062,2.853,1.713c5.871,0.168,11.248-0.164,16.262-0.854h5.99c1.895-0.008,3.924,0.12,4.279-1.426v-1.142
			C84.061,91.668,83.896,91.643,83.949,91.398z M85.664,98.53h-7.133c-0.365,0.016-0.396,0.366-0.855,0.286
			c-5.648,0.149-11.186,0.418-17.121,0.283c-2.9-0.048-5.205,0.498-8.271,0.286c-0.852,0.572-2.693,0.16-3.993,0.284
			c-1.39,0.137-2.838,0.206-3.14,1.428c0.561,1.245,2.414,1.201,4.28,1.142c1.271,0.536,3.463,0.151,4.851,0.571h17.688
			c3.527-0.847,8.438-0.312,12.268-0.856h4.279c1.478,0.05,2.6-0.253,2.564-1.713C91.01,97.938,87.926,98.646,85.664,98.53z
			 M86.232,105.093c-0.363,0.017-0.395,0.365-0.854,0.285h-13.41c-5.842,0.623-12.148,0.782-17.688,1.713
			c-2.92,0.314-5.582,0.886-8.559,1.14c-1.133,0.483-3.23,0.004-4.279,0.571h-2.568c-0.207,0.648-1.629,0.084-1.43,1.142
			c4.635-0.279,10.354,0.63,15.979,0.287c4.761-0.758,10.173-0.86,15.12-1.429h11.984c2.193,0.197,3.707-0.284,5.703-0.284
			c2.189,0.192,3.838-0.158,3.996-1.998C89.604,105.338,87.732,105.402,86.232,105.093z"/>
	</g>
</g>
</svg>
