<?xml version="1.0" encoding="utf-8"?>
<!-- Generator: Adobe Illustrator 16.0.0, SVG Export Plug-In . SVG Version: 6.00 Build 0)  -->
<!DOCTYPE svg PUBLIC "-//W3C//DTD SVG 1.1//EN" "http://www.w3.org/Graphics/SVG/1.1/DTD/svg11.dtd">
<svg version="1.1" id="Layer_1" xmlns="http://www.w3.org/2000/svg"  x="0px" y="0px"
	 width="120px" height="120px" viewBox="0 0 120 120" enable-background="new 0 0 120 120" xml:space="preserve">
<g id="file-doc">
	<g>
		<path d="M98.35,47.067c0.08-1.722,0.719-2.884,0.855-4.558c0.168-3.851,0-7.744,0-12.25c0-4.395-0.033-8.84-0.855-12.532
			c-1.793,0.016-3.338,0.272-4.844,0.57c-0.816-0.515-1.652-1.007-3.131-0.854c-15.562-0.018-30.667-0.479-46.434-0.285
			c-0.411,0.158-0.693,0.44-0.855,0.853c-0.662,0.856-1.265,1.772-1.992,2.562c-0.537,0.507,0.338,0.833-0.287,1.426
			c-0.498,0.257-0.883,0.638-1.141,1.141c-1.533,1.502-3.021,3.054-3.983,5.129c-1.013,0.503-1.179,1.855-1.996,2.562
			c-0.804,0.712-0.904,2.135-1.708,2.849c-0.07,1.447-1.232,1.807-1.712,2.849c-0.651,0.963-1.861,1.363-1.992,2.847v6.555
			c0.196,1.699,0.758,3.037,0.855,4.842c-1.024,14.454-0.142,30.813-0.855,45.577c0.17,2.397-0.349,5.479,0.287,7.404v1.995
			c-0.175,0.507,0.833,1.183,0,1.424c-0.448,1.087-0.694,1.812,0,2.849c1.261,1.11,3.587,0.283,5.411,0.285
			c1.604-0.578,3.92-0.447,5.693-0.853c9.258-0.158,15.91,0.407,24.217-0.282c7.924-0.826,16.438-0.513,24.784-0.288
			c2.567,0.353,6.115,0.989,8.543,0.57c0.718-0.521,1.25-1.22,1.429-2.281c0.188-1.138,0.854-1.799,1.137-2.849
			C100.262,84.303,98.814,64.907,98.35,47.067z M43.941,26.56c-0.605,0.129-0.544-0.411-0.568-0.855
			C43.722,25.827,43.956,26.066,43.941,26.56z M41.664,27.695h0.855c0.375,1.429,1.366,2.24,2.277,3.136
			c-0.223,1.173,0.436,1.462,0.283,2.562c-1.335-0.088-1.152-1.695-2.279-1.993c-0.409-1.014-1.152-1.692-1.994-2.279
			C40.974,28.53,41.408,28.201,41.664,27.695z M40.806,33.393c0.357,0.88,0.942,1.528,1.713,1.997
			c-0.26,0.772-1.051-0.239-1.141-0.571c-0.418-0.247-0.903-0.424-0.855-1.139c-0.768-0.562-1.361-1.298-1.711-2.28
			C39.917,31.625,39.898,32.975,40.806,33.393z M36.534,34.25c0.688,0.549,0.948,1.521,1.71,1.994
			c-0.762,0.566-2.514,0.145-3.419,0.566C35.226,35.788,36.058,35.193,36.534,34.25z M92.65,104.893
			c-1.457,0.129-1.559-1.1-2.846-1.14h-5.982c-10.951-1.043-21.323,0.874-32.19,0.858c-1.154,0.266,0.357-1.547-0.571-1.998
			c-1.28-0.139-0.8,1.478-1.423,1.998h-3.986c-1.305-0.207-2.893,0.318-3.422,0c0.395-1.654,1.764-3.359,1.143-5.129
			c-1.83-0.314-2.049,0.992-2.85,1.709c-0.229,1.289-1.135,1.9-1.139,3.42c-1.217-0.118-2.936,0.271-3.702-0.288
			c0.224-2.521,2.327-4.39,1.708-6.833c-2.279,0.188-2.658,2.277-3.418,3.984c-1.055-0.605-0.443-2.389,0-3.131
			c0.699-0.729,0.65-2.201,1.423-2.852c0.438-2.414,1.814-3.889,1.995-6.553c-0.854-0.709-1.92,0.189-1.995,1.14
			c-0.586,0.19-0.934,2.079-1.423,1.424v-2.276c0.357-1.258,1.086-2.145,1.71-3.136c0.432-2.315,1.507-4.003,1.991-6.263
			c0.236-2.002,2.037-4.322,0.854-5.986c-1.257-0.115-1.996,0.281-2.562,0.854c-0.69,0.089-1.259,1.759-1.712,1.14
			c-0.144-11.062,0.508-21.333,0.288-32.472c0.175-1.315-0.64-1.638-0.569-2.85h4.271c1.929-0.351,3.831-0.73,6.267-0.569
			c1.899-0.568,4.265-0.677,5.698-1.709c0.258-0.499,0.1-1.417,0.571-1.708c-0.448-2.498-0.654-5.237-1.142-7.692
			c-0.415-2.529-1.229-4.66-1.424-7.406c2.906-0.171,6.146-1.073,9.113-0.283c10.747-0.205,19.885,1.196,30.479,1.138
			c1.887,0.159,4.154,0.968,5.98,0.284c0.008,1.242,0.098,2.564-0.281,3.42c0.541,1.072,0.029,3.203,0.57,4.271
			c0.455,22.715,0.158,46.183,0.854,68.651C94.107,100.843,94.531,104.016,92.65,104.893z M53.912,57.609h-1.993
			c-0.681-0.557-0.778-1.696-2.28-1.427c-0.07,0.408-0.47,0.481-0.569,0.853c-0.774-0.199,0.204,1.346-0.567,1.142v8.548
			c0.485,1.221,0.121,3.291,0.567,4.557c-0.202,1.057,0.485,1.223,0.284,2.277c0.145,0.709-0.008,1.722,0.855,1.713
			c0.755,0.916,1.827-0.246,2.277-0.572c0.887-0.251,1.328-0.951,2.279-1.141c1.16-1.119,2.539-2.02,3.701-3.131
			c-0.21-0.879,0.789-0.55,0.572-1.428c0.785,0.125,0.27-1.062,0.854-1.139c0.303-3.721-0.775-6.062-2.278-7.977
			C56.53,58.974,54.984,58.53,53.912,57.609z M52.486,70.711c-0.623-0.52-0.045-2.229-0.567-2.85v-8.26
			c2.695,1.002,4.286,3.124,4.558,6.551C55.812,68.337,53.822,69.193,52.486,70.711z M72.145,58.177
			c-1.326-1.336-3.188-2.13-5.98-1.994c-0.18,0.017-0.34,0.041-0.289,0.284c-1.18-0.327-1.104,0.602-1.991,0.568
			c-2.583,2.354-2.762,7.117-2.565,12.253c0.563,0.671,0.988,1.478,1.426,2.278c0.85,0.479,1.689,0.968,2.562,1.425
			c1.553-0.062,3.426,0.192,4.562-0.284c0.059-0.223,0.237-0.334,0.567-0.287c2.487-2.574,2.668-8.874,1.989-13.672
			C72.203,58.684,72.096,58.509,72.145,58.177z M68.441,69.572c-1.385,0.055-2.725,0.062-3.42-0.572
			c-0.805-2.807,0.188-5.994,0.852-8.259c0.684-0.622,2.162-0.753,3.137-0.288C68.914,63.848,69.84,67.141,68.441,69.572z
			 M81.256,70.143c-0.734-0.312-1.367-0.723-1.707-1.426v-4.842c0.803-0.811,1.193-2.035,2.279-2.564
			c1.59-0.283,2.717,0.695,3.418-0.283c0.137-2.89-2.143-3.366-4.844-3.417c-0.051,0.328-0.449,0.307-0.854,0.282
			c-1.76,1.28-2.981,3.096-3.985,5.127c-0.004,3.461-0.375,4.543,0.283,7.691c1.456,2.34,3.944,3.646,8.262,3.133
			c1.567-0.992,3.142-3.178,2.562-5.414C84.057,68.191,84.229,70.741,81.256,70.143z"/>
	</g>
</g>
</svg>
