<?xml version="1.0" encoding="utf-8"?>
<!-- Generator: Adobe Illustrator 16.0.0, SVG Export Plug-In . SVG Version: 6.00 Build 0)  -->
<!DOCTYPE svg PUBLIC "-//W3C//DTD SVG 1.1//EN" "http://www.w3.org/Graphics/SVG/1.1/DTD/svg11.dtd">
<svg version="1.1" id="Layer_1" xmlns="http://www.w3.org/2000/svg"  x="0px" y="0px"
	 width="120px" height="120px" viewBox="0 0 120 120" enable-background="new 0 0 120 120" xml:space="preserve">
<g id="file9">
	<g>
		<path d="M98.424,42.899c-0.025-1.454,0.598-2.256,0.572-3.709V28.634c-0.117-0.688,0.521-0.619,0.285-1.425
			c-0.799,0.12,0.715-1.065-0.285-1.142c-0.092-1.05,0.244-2.526-0.287-3.138c0.018-1.255-0.111-2.359-0.568-3.141
			c0.305-2.774-0.523-4.42-1.426-5.988c-1.172-0.032-2.34-0.057-3.141,0.281c-0.783-0.449-1.49-0.98-2.852-0.854
			c-15.688-0.007-30.904-0.479-46.789-0.284c-0.412,0.158-0.697,0.443-0.857,0.857c-0.459,0.677-1.023,1.256-1.424,1.995
			c-0.939,0.626-0.475,1.169-0.857,1.997c-1.928,1.592-3.496,3.543-4.854,5.706c-1.502,2.108-3.336,3.89-3.994,6.847
			c-0.871,0.553-1.289,1.562-1.992,2.282c-0.453,0.975-1.738,1.117-1.713,2.567v6.848c0.299,1.413,0.646,2.775,0.854,4.279
			c-0.49,8.871-0.57,18.256-0.57,27.676c0,9.524-0.389,19.007,0,27.958c0.805,1.418-1.4,2.575,0,3.993
			c1.367,1.168,3.732,0.2,5.707,0.286c0.451-0.596,1.994-0.099,2.566-0.572c1.355,0.211,1.963-0.318,3.139-0.282
			c2.305-0.167,5.295,0.347,7.133-0.287c-0.154-1.485,0.547-2.114,0.57-3.425c-2.719-0.133-4.656-1.049-7.135-1.426
			c-1.744,0.259-3.387,1.137-5.133,0.57c-0.566-0.573-1.352-0.935-1.713-1.713c-0.707-1.822-0.168-4.682,0.289-6.273
			c-0.088-1.419,0.043-2.618,0.283-3.71c-0.119-1.304-0.434-2.421-0.283-3.995c0.436-4.316,1.32-8.188,1.139-13.123
			c0.014-0.531-0.219-0.604-0.572-0.284c-0.09,0.458-0.402-0.022-0.283-0.571c-0.154-10.519,0.504-20.228,0.283-30.811V38.05
			c-0.266-0.243-0.955-1.473-0.283-1.714h4.564c1.648-0.634,3.959-0.606,6.275-0.571c0.617-0.524,1.977-0.307,2.568-0.856
			c1.227,0.085,1.885-0.396,2.568-0.854c1.096-2.542-0.322-5.428-0.287-8.559c-0.807,0.047,0.24-1.758-0.568-1.712
			c0.219-1.075-0.346-1.362-0.285-2.282c-0.764-0.951-0.453-2.974-0.857-4.28c1.955,0.054,3.24-0.562,5.139-0.571
			c6.156,0.22,12.154,0.59,18.542,0.571c3.393,0.604,7.438,0.548,11.123,0.856h2.855c0.867,0.18,2.457-0.366,2.854,0.286
			c0.895,0.06,2.092-0.192,2.566,0.285h1.428c0.531,0.274,0.953-0.854,1.141,0c0.174,1.499-0.211,2.452-0.285,3.707
			c0.646,0.211,0.109,1.603,0.285,2.283c-0.062,0.92,0.506,1.208,0.287,2.282c0.477,22.445,0.152,45.685,0.855,67.899
			c-0.822,1.936-0.404,5.115-2.283,5.992c-1.721,0.008-1.852-1.571-3.994-1.142c-1.422-0.374-1.215,0.878-2.283,0.854
			c-0.465,0.586-2.104-0.012-2.564,0.572c-1.021,0.021-1.646,0.441-2.564,0.567c-1.24-0.188-0.773,1.325-0.859,2.283
			c-0.291,0.959,0.889,0.444,1.428,0.569c0.367,0.395,1.236,0.281,1.998,0.285h4.562c2.732,0.289,6.299,1.02,8.848,0.572
			c0.738-0.591,1.389-1.273,1.422-2.568c0.332-1.002,1.025-1.64,1.145-2.854C100.338,80.001,98.885,60.686,98.424,42.899z
			 M34.807,32.628c0.4-1.022,1.232-1.616,1.711-2.568c0.686,0.552,0.945,1.526,1.707,1.999
			C37.465,32.627,35.713,32.207,34.807,32.628z M43.936,22.356c-0.609,0.135-0.547-0.406-0.572-0.854
			C43.717,21.625,43.949,21.865,43.936,22.356z M41.367,30.631c-0.418-0.247-0.906-0.427-0.859-1.141
			c-0.766-0.562-1.361-1.298-1.709-2.281c1.107,0.223,1.086,1.578,1.998,1.996c0.355,0.881,0.941,1.532,1.711,1.999
			C42.252,31.976,41.459,30.963,41.367,30.631z M45.074,29.205c-1.338-0.088-1.152-1.7-2.283-1.996
			c-0.408-1.014-1.154-1.699-1.994-2.284c0.162-0.591,0.6-0.923,0.857-1.426h0.854c0.375,1.43,1.371,2.239,2.281,3.138
			C44.566,27.812,45.229,28.101,45.074,29.205z M73.891,93.966c-1.176-0.036-1.787,0.497-3.139,0.287
			c0.133-6.748,0.047-12.698,0.287-18.831c-0.721-0.92-2.498-1.572-3.998-0.855c-2.311,0.156-4.822,0.121-6.561,0.855
			c-0.857,1.139-0.959,3.037-0.855,5.135c-0.5,2.067-0.506,4.629-0.857,6.851c-0.18,1.054,0.369,2.844-0.283,3.423
			c-0.184,1.146,0.371,3.035-0.283,3.709c-2.764-0.002-5.641-0.121-7.42,0.854v3.424c2.867,5.312,7.346,9.016,9.699,14.84
			c1.212,0.212,1.52,1.328,3.139,1.139c1.233-0.002,1.127-1.345,1.998-1.71c0.065-1.171,0.969-1.505,1.139-2.569
			c2.349-2.027,4.084-4.664,6.563-6.562c1.187-1,2.005-2.369,3.14-3.424c0.386-1.572,2.06-2.855,1.427-4.565
			C77.312,94.537,75.244,94.611,73.891,93.966z M69.611,97.105c-0.859,0.854-1.221,2.203-2.283,2.854c0.271,1.186-0.852,0.059,0,0
			c0.072-0.977,0.723-1.373,0.57-2.568C68.77,97.598,68.939,97.1,69.611,97.105z M62.766,78.848
			c-0.047-0.332,0.062-0.509,0.283-0.572c0.77-0.562,2.496-0.168,3.707-0.285c-1.449,1.216-2.824,2.502-3.99,3.994
			C61.885,81.18,63.061,80.016,62.766,78.848z M62.191,91.688c0.785-2.451,2.594-3.877,3.141-6.563
			c-1.441,0.465-2.053,1.75-2.854,2.854c-0.785-0.711,0.207-2.062,0.854-2.283c0.354-0.881,0.703-1.769,1.429-2.282
			c0.848-1.623,1.727-3.218,2.852-4.563c0.136-0.545-0.879-1.229,0.285-1.141c-0.308,3.497-1.375,6.229-1.144,10.271
			c-0.776,0.024-0.573-0.478-1.139,0C64.121,88.859,63.439,90.555,62.191,91.688C62.223,92.03,61.775,91.861,62.191,91.688z
			 M55.918,98.246c-0.375-0.1-0.451-0.502-0.857-0.569c0.088-0.389,0.715-0.237,1.141-0.286
			C56.053,97.62,55.906,97.854,55.918,98.246z M58.484,101.384c-1.244-1.133,0.236-2.987,0.857-3.993
			c1.135,0.092,2.104,0.018,2.566-0.57c1.086-1.102,1.526-2.844,2.565-3.991c0.422-1.672,1.438-2.747,1.998-4.281
			c0.652,0.489,0.104,2.179,0.283,3.142c-0.553,1.44-1.82,2.17-2.854,3.137c-0.654,1.34-1.668,2.326-2.568,3.424
			C60.377,99.28,60.283,101.189,58.484,101.384z M63.049,102.812c-1.029-1.802,0.791-3.199,1.141-4.565
			c0.771-1.226,1.604-2.394,1.996-3.993c0.246-0.053,0.271,0.11,0.287,0.284c-0.027,1.17-0.057,2.339,0.283,3.14
			c-0.979,0.539-1.449,1.592-1.994,2.566C63.998,100.907,63.424,101.761,63.049,102.812z M64.189,109.087
			c-1.062-0.233-0.062-0.998,0.285-1.425c0.069-1.93,0.737-3.26,1.143-4.852c0.814,0.422,0.506,1.965,2.281,1.426
			C66.781,105.973,65.186,107.23,64.189,109.087z M71.895,100.243c-1.236,0.569-1.521,2.093-2.854,2.567
			c0.777-1.789,1.732-3.402,2.282-5.42c0.702-0.039,1.378-0.043,1.712,0.284C72.67,98.548,71.984,99.102,71.895,100.243z"/>
	</g>
</g>
</svg>
