<?xml version="1.0" encoding="utf-8"?>
<!-- Generator: Adobe Illustrator 16.0.0, SVG Export Plug-In . SVG Version: 6.00 Build 0)  -->
<!DOCTYPE svg PUBLIC "-//W3C//DTD SVG 1.1//EN" "http://www.w3.org/Graphics/SVG/1.1/DTD/svg11.dtd">
<svg version="1.1" id="Layer_1" xmlns="http://www.w3.org/2000/svg"  x="0px" y="0px"
	 width="120px" height="120px" viewBox="4 4 120 120" style="enable-background:new 4 4 120 120;" xml:space="preserve">
<g id="download">
	<g>
		<path d="M33.6,57.7C38,63.4,43.4,67.9,48.2,73.1c2.5,2.5,4.7,5.4,7,8.101c2.8,0.8,4,3.3,7.3,3.6c2.8-0.3,4.4-1.7,6.5-2.8
			c1.9-1.2,3.6-2.5,5.3-3.9c0.9-0.6,1.601-1.399,2.5-2c0.8-0.8,1.3-1.899,2.5-2.199c1.3-1.9,3.5-2.9,4.8-4.801
			c1.2-0.3,1.601-1.399,2.5-2c0.801-0.8,1.9-1.199,2.5-2.199c1.7-1.4,3.4-2.8,4.801-4.5c1.899-1.2,3.199-3,5.1-4.2
			c1.6-1.6,3.8-2.6,4.5-5.1c0.4-1.8-0.8-2-0.8-3.4c0.3-1.7-0.5-2.3-1.101-3.1c-3.399-1.4-7.899,0.1-11.8,0
			c-4.6-0.2-8.2,0.6-12.6,0.6c0-7.4,0.1-14.9-0.601-21.6c-1.8-2.2-5.399-1.3-8.699-1.1c-4.3,0.2-9.7-0.1-13.2-0.3
			c-0.3,0.1-0.6,0.3-0.8,0.6c-1.6,0.4-2.3,1.6-3.1,2.8c-0.1,5.7-0.4,11.2-0.3,17.1c-0.3,2,0.7,3.9,0.3,5.1H38.1
			c-2.7-0.3-6.8-1.7-9,0c-0.8,2.1,0,4.6,1.1,5.6C31.3,54.9,32.4,56.3,33.6,57.7z M36.9,52.6h14.3c1.2-0.4,2.4-0.8,3.1-1.7
			c1.3,0.2,1.7-0.6,2.5-0.8c0-0.5,0.2-0.7,0.6-0.8c0-0.4-0.1-1.1,0.3-1.1c-1-5.9-0.3-13.3-1.1-19.4c4.9-0.2,10.6,0.5,14.6-0.6
			c1-0.3,0.399,1.1,0.6,1.7v15.7c0.5,0.4,0.101,1.6,0.601,2c1.199,1.8,3.899,2.1,6.199,2.8c5.7,0.1,11.801,0.6,17.4,0
			c1.2,0,0,0.4,0,0.8c-0.4,0.3-0.8,0.5-1.1,0.8c-0.801,0.5-1.2,1.2-2,1.7c-1.4,1.3-2.9,2.3-4,3.7c-2.601,2.5-5.301,4.8-8.101,7
			c-2.5,2.6-5.3,4.8-7.899,7.3C71.6,72.9,70.2,74,68.7,75.1C67.3,76.2,66,77.4,64.2,78.2c0.3-1.9,2.3-5.101,0.6-6.5
			c-2-0.2-2,1.6-2.5,2.8c-0.4,1.4-1,2.6-0.8,4.5c-0.9-0.3-1-1.5-1.7-2c0.6-2.5,1.7-4.5,2.2-7c0.7-0.9,1.1-2.1,1.1-3.6
			c0.6-0.101,0.1-1.4,0.3-2c0.2-1-0.3-1.2-0.6-1.7c-2.3,0-3,1.7-4.2,2.8c-0.9,2.5-2.2,4.5-2.8,7.3C54.9,72,54,71.2,53.5,70
			c-0.1-2.7,1.4-5.4,0.3-7.3c-2.3,0.1-2.6,2.1-2.8,4.2C50.2,67.6,49.9,66,49,65.8c-0.3-0.899-1.4-0.899-1.4-2
			c1.6-1.4,1.5-5.6,2.2-8.4c-0.4-0.6-0.2-1.9-1.1-2c-3.7,0.2-3,4.9-4.8,7c-1.2-0.1-1.2-1.4-2-2c-0.8-0.5-1.4-1.2-2-2
			c-0.6-0.7-1.1-1.5-2-2c-0.3-0.4-0.5-0.8-0.8-1.1C37.4,53.1,36.1,52.8,36.9,52.6z M113.6,76.8c-0.899,0-1.1-0.8-2.199-0.6
			c-0.801-0.2-2.2,0.399-2.5-0.3c-2.101,0.1-3.4-0.5-5.601-0.301c-1.399,0.7-3.2,0.9-4.2,2c-1.5,2.9-0.6,7.9-0.6,11.801
			c-3.3,0.399-6.1,1.199-9,2c-4.4,0-9.2,0.199-13.2-0.301c-1.1,0.2-0.1-1.8-1.399-1.399C73.1,89.5,73,91,71.3,90.8
			c-1-0.3-2.1-0.5-3.399-0.6h-6.7c-9-0.5-20.3,0.3-29.8,0c-0.5-4.2,0.9-7.9,0.3-11.2c-1-0.9-1.7-2-3.9-1.7
			C26.3,76.9,24.3,77,22.5,77c-1.9-0.3-5.4-1.2-7,0c-1.2,1.5,1.3,2.2,0.6,3.4c-0.5,3-0.3,6.6-0.3,10.1s-0.2,7.1,0.3,10.1
			c0.3,1,1.2,1.4,2.2,1.7c0.6,0.101,0.1,1.2,0.8,1.101c0.1,0.699,0.9,0.6,1.1,1.1h7c11.9,1.1,25.7,0.3,38.5,0.6
			c6.3,0.5,12.8,0.301,19.1,0.301c3.2,0,6.2-0.301,9.3-0.601c3.2-0.3,6.2-0.399,9.301,0c1.8-0.1,3.3-0.5,5.3-0.3
			c0.2-0.6,2-0.3,2.2,0c1.199,0.2,1.3-0.5,2.199-0.6c1.2-1.601,1.4-4.2,2-6.5V81C115.2,78.9,114.2,78,113.6,76.8z M109.4,98.1
			c-0.9,0.2-2.2,0-3.601,0.301c-1.399,0-2.3,0.5-3.899,0.3c-1,0.2-1.801,0.6-2.801,0.8c-4.899-0.2-9.1,0.2-13.8,0.3
			c-1,0.101-1.6-0.3-2.2-0.6C82.2,98.9,82.9,100.1,82,99.8h-1.7c-1.1,0.4-0.899-0.6-1.7-0.6H75.2c0.1,0.5-0.2,0.5-0.601,0.6
			c-1.199,0.4-1-0.7-1.699-0.8c-0.5,0.5-1.601,0.2-2.5,0.3C69.1,99,69.3,100.1,68.2,99.9H66c-1.3,0.3-1.2-0.9-2.5-0.601
			C62,99.1,61,99.4,60.1,99.9c-3-0.101-6.4,0.3-9-0.301c-3.8,0.601-7.6,1-12.1,0.801c-1.4-0.301-3.4-0.2-4.5-0.801
			c-3.4,0.101-6.1-0.5-9.5-0.3c-1.1,0.101-0.1-0.2-0.3-0.8c-0.2-0.4-0.4-0.7-0.8-0.8c-0.8-0.3-1-1.3-1.4-2c-0.4,0.1-0.8,1.6-1.1,0.8
			c-0.3-2,0.7-2.7,0.6-4.5c0.2-1.4-0.4-2-0.6-3.1v-6.5c1.5,0.399,3.5,0.3,5.3,0.3c-0.2,4.1-0.8,9.899,0.3,13.5c2.8,0.8,5.8-0.4,9,0
			c5.9-1.4,12.9-0.601,19.1,0c1.4,0.2,2-0.5,3.4-0.3c0.7,0,1.4,0,1.7-0.301c0.4-0.199,1.5,0.301,1.4-0.3c1.4-0.2-0.5,1.101,0.8,0.8
			h1.7c1.3,0.5,0.4-1.1,1.4-0.8c2-0.1,3.7,0.101,5.1,0.601C76.8,96.1,83.2,96,89.1,96.5c2.101,0,3.5-0.5,5.301,0
			c0.6,0.2,0.399-0.5,0.8-0.6c0.399,0,0.8,0,0.8-0.301c2.1,0,4-0.3,5.6-0.8c1.7-1,1.601-3.8,2.2-5.899c-0.399-2.7-0.5-5.601-0.8-8.4
			c2.6-0.1,4.1,0.7,6.5,0.8C109.1,87.1,110.1,92.6,109.4,98.1z"/>
	</g>
</g>
</svg>
