<?xml version="1.0" encoding="utf-8"?>
<!-- Generator: Adobe Illustrator 16.0.0, SVG Export Plug-In . SVG Version: 6.00 Build 0)  -->
<!DOCTYPE svg PUBLIC "-//W3C//DTD SVG 1.1//EN" "http://www.w3.org/Graphics/SVG/1.1/DTD/svg11.dtd">
<svg version="1.1" id="Layer_1" xmlns="http://www.w3.org/2000/svg"  x="0px" y="0px"
	 width="120px" height="120px" viewBox="0 0 120 120" enable-background="new 0 0 120 120" xml:space="preserve">
<g id="wineglass">
	<g>
		<path d="M84.77,16.78c-2.31-1.981-6.324-2.253-9.943-2.925H60.792c-0.374,0.016-0.406,0.375-0.877,0.293
			c-2.18-0.228-3.491,0.41-5.555,0.291c-0.916,0.061-2.147-0.195-2.634,0.293c-0.949,0.025-1.8,0.151-2.338,0.586
			c-1.746,0.203-2.673,1.228-4.094,1.754c-0.855,1.095-2.408,1.493-2.632,3.217c-0.604,0.835-0.205,1.842-0.294,2.925
			c-0.003,0.057-0.256,0.279-0.291,0.585c-0.125,1.021,0.094,1.785,0,2.63v6.726c0.546,3.938,0.632,8.334,1.169,12.281
			c0.394,4.09,1.55,7.415,2.63,10.818c0.957,1.286,1.271,3.216,2.34,4.387c0.561,1.683,1.779,2.703,2.34,4.385
			c1.515,1.021,3.049,2.021,4.387,3.218c1.79,0.84,3.595,1.669,4.386,3.508c0.522,7.86,1.03,15.735,0.876,24.271
			c-2.053,0.285-4.289,0.39-6.432,0.584c-3.068,2.392-7.414,3.504-7.016,9.357c1.091,3.586,4.279,5.075,7.309,6.725
			c5.206,0.738,10.821,1.069,16.667,1.17c1.604-0.342,3.367-0.531,4.971-0.875c1.416-0.729,2.895-1.396,4.097-2.34
			c1.688-0.451,2.675-1.615,3.509-2.926c0.678-2.025-0.17-4.05-0.293-6.142c-0.518-0.263-0.484-1.074-1.172-1.168
			c-0.951,0.077-0.617-1.136-1.462-1.171c-0.666-0.987-1.616-1.696-2.923-2.047c-0.943-0.42-2.453-0.274-3.801-0.291
			c-1.348,0.132-2.328,0.533-3.219-0.293c-0.989-0.766-0.944-2.562-0.879-4.388c-0.188-1.565-0.865-2.641-0.873-4.384
			c0.272-6.062-0.621-13.292,0.582-18.425c0.551-1.787,2.6-2.078,3.51-3.509c1.727-0.61,2.316-2.359,3.803-3.215
			c0.064-0.229,0.009-0.576,0.291-0.586c4.094-8.676,9.076-16.458,7.896-30.409c0.412-2.024,0.979-3.894,1.166-6.14
			C86.102,22.074,85.452,19.409,84.77,16.78z M59.915,53.915c0.057-0.333,0.29-0.162,0.29,0
			C60.15,54.247,59.915,54.077,59.915,53.915z M68.688,103.33c1.414-0.678-0.092-2.338,0-3.508c1.211-0.336,1.141,0.613,2.045,0.584
			h5.851c1.403,1.227,3.086,2.179,2.63,5.264c-1.527,1.102-3.788,1.475-4.969,2.923c-6.072,0.894-12.975,0.687-17.546-1.461
			c-0.826-0.241-0.757,0.412-1.461,0.292c-1.68-0.367-3.049-1.045-3.802-2.34c-0.208-1.473,0.525-2.009,0.879-2.923
			c0.915-0.546,2.18-0.742,2.923-1.461c1.643-0.112,3.06-0.452,4.97-0.294c0.199,1.461,0.891,2.424,1.17,3.801
			c0.807-0.169,1.221-0.727,2.049-0.877c0.542-1.307,0.665-3.037,1.168-4.387c0.889,1.354,1.086,3.398,2.049,4.68
			c0.602-0.08,0.584-0.781,0.875-1.17C68.08,102.57,67.541,103.791,68.688,103.33z M61.961,63.855
			c1.109,0.061,1.109,1.229,2.34,1.17c1.492-0.455,1.967-1.933,2.631-3.217c0.612-0.361,1.098-0.851,1.461-1.461
			c0.885,0.713-1.879,1.797-0.584,2.924c-1.221,2.102-4.469,3.043-7.311,2.631C60.729,64.965,61.561,64.625,61.961,63.855z
			 M62.252,49.529c0.15,0.15-0.211,0.373-0.291,0.293C61.811,49.669,62.174,49.447,62.252,49.529z M64.592,53.038
			c0.781,0.427-0.121,1.604-0.877,1.462c0.032,0.353-0.427,0.18,0,0C63.576,53.582,64.502,53.727,64.592,53.038z M63.133,70.874
			c1.064-0.198,2.123-0.407,3.508-0.292c-1.053,4.895-1.746,10.146-1.757,16.082c-0.967-1.471-0.659-4.219-1.169-6.141
			c-0.354-1.989-0.414-4.265-0.879-6.143C63.479,73.432,62.796,71.426,63.133,70.874z M80.676,34.031
			c-0.553,0.812-1.35,1.381-2.048,2.047c0.088,1.844-0.046,3.462-0.292,4.972c-0.09,0.912,0.846-0.744,0.875,0.291
			c0.166,1.336-0.518,1.822-0.291,3.218c-0.688,0.712-0.654-0.328-1.17-0.586c-1.02,2.002-0.921,5.122-1.46,7.602
			c-0.974,1.66-2,3.266-3.217,4.68c0.716,2.215-1.304,3.342-2.048,4.972c-0.65-0.123-0.229-1.552,0-1.755
			c-1.131,0.058-2.154,0.011-2.924-0.292c-0.131-1.428-1.506-1.611-1.17-3.508c0.395-1.651,1.774-2.317,2.924-3.217
			c1.578-5.148,1.379-12.072,3.218-16.959c-0.104-0.97-1.687-0.46-2.634-0.586c-0.825,0.246-1.807,0.34-2.633,0.586
			c-6.065-0.95-14.678,0.643-19.884-1.17c-0.583,0.296-1.249,0.506-1.46,1.17c0.104,1.258,1.089,1.636,2.337,1.754
			c0.256,0.939-0.963,0.4-0.877,1.169c-0.557,0.126-0.528,0.837-1.46,0.586c-0.142-4.505-1.078-8.545-0.588-12.865
			c1.932,0.116,3.462,0.632,5.263,0.876h8.482c0.689,0.382,2.019,0.125,2.63,0.584h6.438c3.074-0.528,5.959-1.252,9.062-1.754
			c0.907-0.456,1.919-0.811,2.339-1.754c0.294-1.367-1.172-0.973-0.878-2.34c-1.88,0.363-3.703,0.779-5.554,1.17
			c-4.075-0.019-8.379,0.193-11.696-0.585h-6.726c-2.06-0.477-5.072,0.007-6.434-1.169c0.416-2.12,2.778-2.29,5.265-2.338
			c0.867-0.4,1.795-0.741,2.63-1.17c1.197,0.029,2.4,0.057,3.219-0.293h8.479c0.89-0.325,2.224,0.186,3.799,0
			c1.463-0.049,2.933,0.063,4.391,0c1.968-0.088,4.146-0.924,5.557,0.293c0.117,2.456-1.897,2.779-2.927,4.092H79.8
			c1.615-0.154,1.427,1.496,2.339,2.049C82.363,27.922,81.664,31.123,80.676,34.031z"/>
	</g>
</g>
</svg>
