<?xml version="1.0" encoding="utf-8"?>
<!-- Generator: Adobe Illustrator 16.0.0, SVG Export Plug-In . SVG Version: 6.00 Build 0)  -->
<!DOCTYPE svg PUBLIC "-//W3C//DTD SVG 1.1//EN" "http://www.w3.org/Graphics/SVG/1.1/DTD/svg11.dtd">
<svg version="1.1" id="Layer_1" xmlns="http://www.w3.org/2000/svg"  x="0px" y="0px"
	 width="120px" height="120px" viewBox="0 0 120 120" enable-background="new 0 0 120 120" xml:space="preserve">
<g id="beer">
	<g>
		<path d="M105.441,60.701c-0.986-5.653-3.31-9.971-5.375-14.547c-1.075,0.021-1.176-0.93-1.582-1.582
			c-2.619-0.539-4.213-2.107-6.955-2.529h-4.113c0.143-1.336,1.25-1.707,0.951-3.479c2.445-0.504,3.984-1.918,6.322-2.53
			c1.047-1.274,2.244-2.397,3.162-3.796c0.625-5.473-1.932-7.765-5.061-9.487c-3.393-0.122-5.52,1.017-8.223,1.581
			c0.109-1.375-0.766-1.764-0.947-2.847c-0.896-0.264-1.953-0.366-2.846-0.632c-0.428-1.789-1.436-2.992-2.85-3.796
			c-3.093-0.352-4.783,0.696-6.955,1.265c0.033-2.354-1.219-3.416-2.529-4.428c-3.35-0.185-6.015,0.312-8.542,0.951
			c-1.518,1.009-3.012,2.048-4.426,3.163c-0.693-0.891-1.261-1.901-2.844-1.898c-2.117,0.311-4.196,0.656-6.331,0.947
			c-2.918,1.296-4.629,3.803-6.957,5.693c-0.238,1.343-1.474,1.687-1.264,3.479c-1.558-1.185-2.816-2.663-6.006-2.214
			c-1.362,0.541-2.613,1.184-3.481,2.214c-0.735,0.214-0.847,1.052-1.579,1.265c-0.459,0.491-0.424,1.477-0.95,1.897
			c-0.132,1.503,0.461,2.282,0.634,3.48c-1.528,0.795-3.275,1.363-3.797,3.162c-0.02,0.19-0.047,0.374-0.317,0.315
			c-0.191,2.619,0.25,4.604,0.317,6.957c0.352,0.601,0.792,1.111,0.948,1.899c0.541,0.405,1.245,0.653,1.265,1.58
			c-1.36,0.854-1.378,3.05-1.265,5.376c1.396,2.402,3.561,4.033,6.01,5.377c2.165,0.059,4.23,0.016,6.006-0.315
			c-0.197,6.838,0.985,12.299,1.269,18.659c-0.347,1.973-0.439,4.199-0.635,6.325c0.249,1.405-0.42,1.897-0.318,3.159
			c-0.16,1.104-0.141,2.389-0.631,3.162c-0.003,2.424-0.451,4.396-0.947,6.328c0.221,1.381-0.537,1.778-0.318,3.162
			c-0.541,0.725-0.299,2.229-0.949,2.844c0.061,2.383-0.242,4.398-0.945,6.012c1.884,2.117,5.233,2.775,7.59,4.428
			c7.079,1.354,14.119,2.746,22.771,2.53c0.891-0.267,1.949-0.37,2.848-0.634c2.846,0.21,4.539-0.729,7.271-0.633
			c2.049-0.692,5.045-0.438,6.643-1.582c4.867-0.508,7.387-3.366,11.387-4.742c-0.953-4.318-1.524-9.018-2.213-13.598
			c0.459,0.486,1.619,0.275,2.529,0.312c2.127-1.452,4.541-2.622,6.955-3.794c1.012-1.418,1.93-2.92,3.166-4.11
			c0.377-2.046,1.027-3.815,1.896-5.376c0.279-0.883,0.395-1.926,0.949-2.529c0.344-0.92,0.295-2.234,0.946-2.848
			C105.486,70.02,105.486,65.383,105.441,60.701z M37.449,106.559c-1.48-0.102-2.547-0.615-3.163-1.58
			c0.003-0.631,0.864-0.401,0.635-1.267c0.405,0.435,1.89,0.55,1.895-0.315c0.742,0.104,0.711,0.979,1.265,1.266
			c2.221,0.217,2.1-1.905,3.161-2.848c0.167-0.252,0.335-0.512,0.32-0.948c0.564-0.04,0.664,0.388,1.264,0.315
			c-0.421,1.582-1.528,2.48-1.899,4.11C39.422,105.424,37.05,103.984,37.449,106.559z M37.767,96.755
			c0.164,0.163-0.229,0.403-0.317,0.317C37.288,96.908,37.679,96.667,37.767,96.755z M42.827,105.925
			c0.165-0.466,0.467-0.794,0.63-1.265C44.157,104.787,43.882,106.516,42.827,105.925z M86.154,106.559
			c-0.967,0.018-0.762-1.139-1.898-0.947c-1.209-0.051-1.027,1.289-1.58,1.896c-1.947,0.373-4.238,0.402-5.697,1.266
			c-1.004-0.26-0.438-2.088-1.895-1.896c-0.906,0.043-0.579,1.316-0.634,2.213c-1.589-0.219-2.202,0.536-3.791,0.317
			c0.183-1.027-0.218-1.476-0.318-2.216c-2.67-0.668-2.407,1.6-3.163,2.848c-0.615-0.648-0.986-1.542-2.213-1.581
			c0.373-1.208,1.221-1.942,0.948-3.796c-2.519-0.198-3.267,1.371-3.795,3.164h-4.109c0.455-0.704,0.79-1.527,0.63-2.848
			c-1.238-0.187-1.837,0.271-2.53,0.633c-1.309,0.481-1.17,2.414-3.476,1.896c-0.252-1.302,0.48-1.624,0.316-2.847
			c-1.658-0.073-2.15,1.016-2.531,2.215c-1.043-0.015-1.58-0.535-2.847-0.315c0.071-1.824,1.422-2.371,1.263-4.43
			c-0.066-0.354-0.35-0.49-0.632-0.631c0.031,0.381-0.458,0.191,0,0c0.068-0.248,0.268-0.368,0.632-0.316
			c1.75,0.572,3.835,0.808,5.693,1.267h6.958c3.817-1.035,8.431-1.269,11.703-2.849c0.892-0.261,0.815,0.446,1.578,0.315
			c3.024-0.771,5.467-2.122,7.909-3.478c1.153-0.529,1.552-1.819,3.159-1.897c0.241,4.502,1.823,7.668,2.532,11.701
			C87.343,106.059,86.896,106.457,86.154,106.559z M84.256,56.906c0.568-1.328,0.21-3.586,0.631-5.062v-0.948
			c2.029,0.606,3.922,1.351,6.01,1.899c0.568,1.328,1.692,2.104,2.215,3.477c0.498,1.398,0.933,2.863,1.58,4.112
			c-0.1,0.733,0.052,1.214,0.314,1.581v6.643c-0.693,2.887-1.335,5.828-2.845,7.906c-0.444,1.348-1.32,2.26-2.214,3.162
			c-0.973,0.818-1.641,1.942-3.162,2.213c-0.385-4.678-0.977-9.142-1.579-13.599c-0.021-2.086,0.147-4.366-0.319-6.011v-3.16
			C84.205,58.853,85.008,57.104,84.256,56.906z M102.913,72.087c-0.769,4.292-3.062,7.058-3.792,11.386
			c-0.742,1.049-1.869,1.717-2.215,3.162c-1.336,0.352-2.402,0.973-3.161,1.896c-1.183-0.021-2.005,0.32-2.849,0.634
			c-0.943,0.11-1.93,0.183-2.213,0.949c-0.879-0.912-0.826-2.761-0.949-4.429c1.891-0.746,3.431-1.842,5.377-2.528
			c5.188-3.775,6.363-11.558,6.324-20.558c-0.742-5.479-2.963-9.477-6.011-12.651c-1.044-0.532-2.271-0.888-3.161-1.578
			c-1.203-0.064-2.25-0.281-3.164-0.635c-1.092-0.064-1.49-0.449-2.213,0.316c-0.73-0.322-0.652-1.454-0.633-2.529
			c-1.17-0.223-0.546,1.353-1.266,1.58c0.254,1.099-0.473,1.218-0.314,2.214c-0.441,1.354-0.377,3.208-0.949,4.427v6.644
			c-0.568,3.02-0.386,5.341-0.314,8.538c0.781,7.441,1.744,14.699,3.162,21.507c-0.254,1.221-1.901,1.051-2.531,1.896
			c-1.557,1.604-3.439,2.886-6.322,3.163c-2.543,0.515-4.523,1.595-6.959,2.215c-2.092-0.19-3.242,0.552-5.376,0.313
			c-0.893,0.263-0.819-0.444-1.583-0.313c-6.004,0.312-10.727-0.656-16.128-0.949c0.242-0.745,0.624-2.186,0-2.847
			c-1.192-0.143-1.483,0.624-2.214,0.947c-0.511,0.438-0.392,1.504-1.58,1.266c0.52-2.159,2.57-4.328,1.58-6.957
			c-1.944,0.372-2.617,2.021-3.476,3.479c-0.674-0.104,0.049-1.381,0.315-1.582c-0.155-1,0.571-1.119,0.316-2.213
			c1.435-0.992,2.245-2.605,2.845-4.431c1.395,0.084,1.983,0.972,3.795,0.636c1.264-0.211,0.918-2.035,0.949-3.479
			c-0.448-0.934-1.874-1.078-2.845-0.635c0.312-0.95,1.119-1.409,0.945-2.846c-1.475-0.91-3.117,0.356-3.475,1.582
			c-0.956-0.875,0.754-1.76,0.63-2.848c0.74-0.527,0.814-1.719,1.269-2.529c0.766-1.867,1.959-3.311,2.211-5.693
			c-1.586-1.104-2.513,0.74-3.795,0.949c0.821-1.498,1.358-3.281,2.215-4.744c0.469-1.188,1.877-4.035,0-4.744
			c-2.353-0.139-2.345,2.083-3.479,3.164c-0.73-1.062-0.109-3.473-0.315-5.062c2.373,0.164,4.319-0.107,5.058-1.579
			c0.976,1.607,4.254,1.501,6.012,0.633c0.15,3.112,0.843,5.69,0.946,8.853c0.575,1.217,0.815,2.77,1.583,3.796
			c0.212,1.474,1.231,2.142,1.579,3.479c1.48,0.521,2.318,1.688,3.797,2.211c1.345,0.188,2.091-0.226,3.161-0.312
			c1.06-1.896,1.274-4.63,2.215-6.643c0.267-4.271-1.192-6.819-0.948-11.068c1.475,0.631,2.635,1.581,5.059,1.264
			c2.293-0.871,3.396-2.932,3.795-5.693c-0.055-1.383,1.072,0.298,1.268,0.633c3.428,2.555,7.278-1.184,6.957-5.373
			c-0.371-0.475-0.395-1.295-0.945-1.583c-3.234-0.178-0.896,5.22-4.115,5.06c-0.521-1.268-0.539-3.042-1.896-3.477
			c-5.309-0.672-2.186,7.09-6.322,7.59c-2.084-0.025-1.97-2.249-3.162-3.162c-0.58-0.475-0.791-1.322-1.584-1.584
			c-0.391-0.532-0.918-1.614-1.58-0.947c-1.547-0.176-0.754,1.984-0.948,3.163v4.11c0.397,2.657,0.813,5.299,1.266,7.905
			c-0.21,2.217-0.262,4.589-1.583,5.691c-1.731-1.113-2.377-3.315-3.476-5.062c-0.032-3.445-1.25-5.708-1.269-9.17
			c-0.383-1.619-1.169-2.834-1.262-4.744c-0.662-1.027-1.314-2.061-1.898-3.161c-0.903,0.044-0.579,1.318-0.63,2.212v2.848
			c-0.837,0.326-1.068,1.254-1.898,1.581h-1.582c-1.698,0.22-1.391-1.565-2.851-1.581c-1.23-0.072-1.639,0.68-2.528,0.948
			c-0.896-0.053-1.32-0.58-2.211-0.632c-1.263-0.742-0.977-3.031-2.217-3.796c-2.537-0.22-2.928,1.711-4.424,2.528
			c-3.192,0.239-5.48-0.42-7.275-1.58c-0.561-3.511,2.113-3.791,3.479-5.375c0.337-1.18-1.187-0.5-0.948-1.582
			c-0.695-0.047-0.682-0.796-0.633-1.582c-1.156,0.207-1.685-0.212-2.212-0.631c-0.033-1.658-0.527-2.848-0.316-4.744
			c0.94-0.734,3.256-1.459,4.741-0.633c0.863-0.508,1.989-0.753,1.896-2.213c-0.136-1.97-1.867-2.346-3.792-2.531
			c-0.394-3.135,1.782-3.698,3.476-4.744c1.305,0.382,1.757,1.619,2.846,2.214c1.154,0.536,1.271,2.104,3.163,1.898
			c1.615-0.179,1.495-2.089,1.583-3.795c0.679-1.11,1.13-2.455,1.583-3.796c2.351-2.073,4.891-3.963,9.802-3.478
			c1.317,0.687,2.209,1.798,3.164,2.846c0.78-0.276,1.372-0.735,1.263-1.898c2.195-0.019,2.613-1.815,3.797-2.845
			c1.875-0.654,3.625-1.434,6.324-1.267c0.523,2.101,0.847,4.412,0,6.325c0.908,0.678,2.229-0.346,2.848-0.948
			c0.491,0.458,1.23,0.666,1.896,0.948c0.05-0.584,1.07-0.193,1.265-0.631c0.177-0.457,0.492-0.773,0.949-0.948
			c0.315-0.845,1.274-1.044,1.899-1.582c2.424,0.419,4.199,1.488,4.741,3.794c1.188,0.314,0.689-1.553,1.58-0.633
			c-0.11,1.576-1.282,2.088-1.58,3.479c0.906,1.995,2.503,0.396,4.427,0.948c2.28-0.671,3.988-1.915,7.273-1.58
			c0.965,1.248,2.243,2.186,1.898,4.742c-1.545,0.883-2.84,2.014-4.746,2.531c-0.61,0.029,0.55,1.233-0.631,1.264
			c-0.104,0.74-0.383,1.308-0.635,1.898c-0.832,0.096-1.035-0.438-0.949-1.266c-1.459,0.435-0.84,2.955-1.58,4.113
			c-0.967,0.613-2.438,0.723-4.108,0.633c-0.067,1.965,1.492,2.299,3.162,2.527c-0.272,1.009,0.496,0.979,0.634,1.582h6.01
			c2.016,0.195,3.004,1.424,5.062,1.582c0.434,1.355,1.657,1.922,2.528,2.847c0.567,2.589,2.166,4.16,2.53,6.958
			c1.134,1.924,1.183,4.928,1.896,7.273C103.455,66.512,102.902,69.02,102.913,72.087z M46.621,82.208
			c1.133,0.19,0.42,2.021-0.632,1.896C45.521,83.113,45.975,82.811,46.621,82.208z M53.579,30.342
			c-0.245-0.072-0.626-0.009-0.63-0.318c-3.739-0.047-5.984,1.403-7.591,3.481c-0.087,2.087-0.044,4.046,2.214,3.794
			c0.786-0.479,1.12-1.406,0.946-2.847c1.102-0.479,1.961-1.199,3.48-1.267c0.072,1.406,0.479,2.473,1.896,2.531
			C56.214,34.885,54.847,31.254,53.579,30.342z M67.178,33.82c-1.434-0.477-2.594-0.206-4.109,0
			c-1.067,0.727-1.764,1.825-2.846,2.529c-0.284,0.56-0.767,0.924-0.953,1.582c0.007,0.941-0.026,1.926,0.953,1.898
			c1.07-1.882,2.482-3.423,5.377-3.48c0.92,0.764,0.135,3.237,1.896,3.163c1.705,0.226,1.659-1.289,1.58-2.847
			C68.686,35.476,67.855,34.722,67.178,33.82z M74.766,59.436c-0.574,0.478-0.742,1.365-1.262,1.899
			c-0.596,0.456-1.404,0.706-1.268,1.897c0.215,0.732,1.051,0.847,1.268,1.58c3.217,0.269,4.547-1.356,4.426-4.428
			C77.314,59.275,76.249,58.915,74.766,59.436z M50.734,67.975c-1.466-0.74-2.464,0.625-3.481,1.268
			c-0.027,1.609-0.139,3.301,0.634,4.109c1.303,0.698,2.171-0.431,3.475-0.633C51.734,70.948,51.847,69.02,50.734,67.975z
			 M49.468,70.822c-0.269-0.059-0.301,0.123-0.315,0.312h-0.636v-0.633c0.271,0.061,0.299-0.121,0.317-0.312h0.633L49.468,70.822
			L49.468,70.822z M71.289,70.504c-0.43,1.453,0.186,2.713,0.629,4.114c1.085,0.182,1.475,1.057,2.848,0.944
			c1.103-0.584,2.172-1.201,2.529-2.527c0.143-1.405-0.223-2.305-0.63-3.163C75.081,69.309,72.111,69.335,71.289,70.504z
			 M74.45,73.352c-0.69-0.045-0.679-0.797-0.632-1.58c0.511-0.09,0.547,0.297,0.947,0.315C74.811,72.65,74.382,72.754,74.45,73.352z
			 M57.059,79.359c-0.384,1.609-1.886,3.101-0.95,5.06c2.473,0.927,5.399,0.05,5.377-2.528
			C61.051,80.004,59.715,79.02,57.059,79.359z M58.009,82.208c-0.043-0.567,0.385-0.668,0.314-1.267
			c0.468,0.166,0.798,0.469,1.267,0.633C59.338,82.198,58.482,82.711,58.009,82.208z M67.494,89.797
			c-0.137,1.295,0.293,2.023,0.634,2.848c3.067,0.116,4.692-1.211,4.427-4.428C70.871,86.869,67.732,87.795,67.494,89.797z
			 M69.709,89.797c0.166-0.488,0.331-0.021,0.312,0.316C69.857,90.602,69.693,90.133,69.709,89.797z M50.102,89.164
			c-0.68,1.286-0.115,2.716,0.316,3.794h2.845c0.413-1.382,0.563-1.589,0.316-3.161C52.585,89.479,51.441,89.732,50.102,89.164z"/>
	</g>
</g>
</svg>
