<?xml version="1.0" encoding="utf-8"?>
<!-- Generator: Adobe Illustrator 16.0.0, SVG Export Plug-In . SVG Version: 6.00 Build 0)  -->
<!DOCTYPE svg PUBLIC "-//W3C//DTD SVG 1.1//EN" "http://www.w3.org/Graphics/SVG/1.1/DTD/svg11.dtd">
<svg version="1.1" id="Layer_1" xmlns="http://www.w3.org/2000/svg"  x="0px" y="0px"
	 width="120px" height="120px" viewBox="4 4 120 120" style="enable-background:new 4 4 120 120;" xml:space="preserve">
<g id="drops">
	<g>
		<path d="M50,56.3c0.1-0.2,0-0.5,0.3-0.5c0.3-5-0.3-9-1.9-12.1c-2.6-3.7-6.2-6.4-8.6-10.2c-1.3-2.4-2.4-5.1-3.8-7.5
			c-0.4-1.5-0.9-2.9-1.3-4.3c-1-0.3-0.3-1.6-0.5-2.2c-0.3-0.8-0.9-1.5-1.9-1.3c-0.4,0.1-0.5,0.4-0.8,0.5c-0.8,1.1-0.7,3.1-1.1,4.6
			c-0.4,1.8-1.4,3.9-1.9,5.1c-0.4,0.8-0.6,1.3-0.8,1.9c-0.2,0.4-0.1,0.7-0.3,1.1c-0.1,0.2-0.5,0.6-0.5,0.8c-0.1,0.4-0.2,0.8-0.3,1.1
			c-0.3,0.7-0.5,1.4-0.8,2.2c-1,2.7-2.4,5-3,8.1c-0.8,1-0.9,2.7-1.6,3.8c-0.3,1.6-1.4,2.3-1.9,3.8c-0.2,2.8-0.6,6.4,0,9.2
			c2.3,5.3,6.4,8.7,13.2,9.4c2.3-0.6,5-0.899,7.5-1.3c0.2-0.4,0.7-0.6,1.3-0.5c3.5-2.2,6-5.5,8.1-9.2C49.4,57.5,50,57.2,50,56.3z
			 M28.7,59.3c0-0.3,0.3-0.2,0.5-0.3C29.3,59.3,28.9,59.2,28.7,59.3z M32.8,47.7c-0.6,0.8-1.1,1.8-1.9,2.4c0,0.3-0.4,0.2,0,0
			c0.5-2.5,2.6-3.5,2.7-6.5c-0.2-0.8-0.6-1.4-1.6-1.3c0.4-1.1,0.7-2.4,2.2-2.4c0.1,1.9-0.3,4.2,0.3,5.7
			C34.2,46.6,33.2,46.9,32.8,47.7z M34.4,60.1c0-0.3,0.3-0.2,0.5-0.3C34.9,60.1,34.6,60,34.4,60.1z M43.5,53.4
			c-0.6-0.5-0.1-2.1-0.3-3c-0.2-0.9-0.6-1.6-1.1-2.2c-0.1-1.2-0.4-2.3-1.3-2.7c-1.9,0.5-0.8,3.6,0,4.6c-0.4,1.3-1.5,1.9-2.4,2.7
			c-1,0.8-1.3,2.3-2.7,2.7c0.4-1.4,1-2.6,1.6-3.8c0.6-1,1.8-2.6,1.1-4c-1.8,0-2,1.6-3.2,2.2c0.3,1.1-0.8,0.1,0,0
			c0.3-1.4,1.3-2.1,1.3-3.8c0.2-0.9-0.3-1.1-0.5-1.6c0-2.4,0.2-5.1-0.5-6.7c-0.2-1-0.9,0-1.3-0.5c-0.1-0.9,0.1-1.5,0.3-2.2
			c0-0.9-0.9-0.9-1.1-1.6c-0.1-1.3-0.6-2.3-0.8-3.5c1.1,1,1.2,2.9,2.2,4c0.5,1.6,1.3,2.8,2.2,4c1.8,2.5,3.6,4.8,5.9,6.7
			c0.6,1.2,1.2,2.4,1.6,3.8c-0.2,1.4,0.2,2.3,0.3,3.5C44.3,52.5,44.1,53.1,43.5,53.4z M107.1,41.2c-0.199-0.1-0.3-0.2-0.3-0.5
			c-2.399-4-5.8-6.9-8.1-11c-0.5-1.4-1.2-2.6-1.3-4.3c-0.9-1.1-1.101-2.8-1.301-4.6C94.7,20.3,94.7,18.4,92.9,18.4
			c-0.4,0.2-0.7,0.4-0.801,0.8c-0.1,2-0.699,3.4-1.3,4.8c-0.2,1.9-0.899,3.2-1.6,4.6c-1.5,2.7-2.601,5.6-3.8,8.6
			c-1.2,1.5-1.9,3.5-3.2,4.8c-0.5,2.3-1.101,4.5-2.2,6.2c0.5,2.5-0.5,6.6,0.3,9.4c1.7,3.4,4.7,5.6,7.5,7.8
			c3.5,1.8,8.8,3.1,14.3,2.199c1-1.1,2.801-1.3,3.2-3c1.3-0.8,1.4-2.7,2.4-3.8c0.3-2.7,1.2-4.7,1.3-7.5
			C108.8,48.9,108.1,45,107.1,41.2z M87.5,53.4c0.4,0.1,0.2,0.7,0.3,1.1C87.3,54.2,87.1,53.7,87.5,53.4z M99.6,49.1
			c0,0.9-0.899,0.8-1.3,1.3c-0.2,0.9-0.8,1.3-1.1,2.2h-0.3c-0.101,0.2,0,0.5-0.301,0.5c0,0.3-0.399,0.2,0,0
			c0.101-0.2,0-0.5,0.301-0.5c0.3-1.6,1.6-2.2,1.3-4.3c-0.2-0.4-0.4-0.7-0.8-0.8c-1.7-0.2-1.9,1.1-3,1.6c0,0.3-0.4,0.2,0,0
			c0.199-1.4,1.199-2,1.3-3.5c-0.101-0.4-0.4-0.5-0.5-0.8c-3.4,0.8-4.7,3.8-6.5,6.2c0,0.3-0.4,0.2,0,0c-0.2-0.4-0.5-0.2-0.5-0.8
			c0-0.3,0.399-0.6,0.5-0.8c0-0.8,0.6-1,0.8-1.6c0.6-1.1,1.2-2,1.9-3c0.899-2.4,2.699-4,3.8-6.2c-0.101-0.4-0.4-0.7-0.5-1.1
			c-1.8-0.2-2.601,0.7-3.5,1.3c0,0.3-0.4,0.2,0,0c-0.101-1.2,0.8-1.3,0.5-2.7c0-0.4-0.601-0.2-1.101-0.3c0.4-1.1,0.9-1.9,1.601-2.7
			c-0.7-1.5,0.7-2.6,0.8-4c0.7,0.9,0.6,2.6,1.3,3.5c0.4,1.3,1,2.4,1.9,3.2c1.3,2.1,2.6,4.3,4.3,5.9c-0.6,0.3-1.1,0.7-1.6,1.1
			c0,0.3,0,0.8-0.301,0.8C98.7,45.8,99.6,46.9,99.6,49.1z M77.2,86.2c-1.101-2-2.7-3.601-3.5-5.9c-1.9-1.1-3.5-2.6-4.9-4.3
			c-1.3-2.1-2.2-4.6-3.2-7c-0.199-1.6-0.199-3.2-0.8-4.3c-0.6-0.3,0.601-1.5-0.3-1.9c-0.1-0.8-0.6-1.2-1.3-1.3
			c-0.5,0-0.6,0.3-0.5,0.8c-1.3,3-3,5.601-3.8,9.2c-2.3,2.8-3.2,7-5.7,9.7c-0.5,2-2.2,2.899-2.7,4.8c-1.2,1.4-1.8,3.4-2.7,5.1
			c-0.3,2.5-0.5,5.9,0,8.301c0.4,0.699,0.8,1.5,1.1,2.399c1.5,2.2,3.4,4.2,5.4,5.9c0.9,0.1,1.3,0.6,1.9,1.1
			c1.3,0.2,2.5,0.601,3.8,0.8h4.6c0.7-0.399,1.801-0.3,2.7-0.5c1.3-0.699,2.9-1,4-1.899c1.8-0.101,2.5-1.4,4-1.9
			c0.7-1.5,2.2-2.3,2.7-4c1-1.3,1.5-3.1,1.9-5.1c0.3-1.4,0-1.7,0-3.2C79.1,90.6,78.3,88.2,77.2,86.2z M53.8,90.3
			c0.3,0.101,0.2,0.5,0.5,0.5c0,1.101-1,1.3-1.1,2.4C52.5,92.4,53.5,91,53.8,90.3z M53.8,98.3c0.8,0,0.7,0.8,1.1,1.101
			c0.5,0.199,0.9,0.5,0.8,1.3C54.6,100.4,54,99.6,53.8,98.3z M60.2,79.5c0.5-1.7,1.5-2.8,1.9-4.6c0.7,0.8,1,2.1,1.3,3.199
			C62.3,78.5,61.3,79,60.2,79.5C60.3,79.8,59.9,79.7,60.2,79.5z M70.2,100.8c-0.5-0.8,1.1-1.8,1.1-3c0.101-0.899-0.8-0.8-1.1-1.3
			C69.6,96.7,69,96.9,68.6,97.3C67.9,97.6,68,98.4,67.3,98.4c0.4-0.4,0.2-1.4,0.3-2.2C67,94.4,66.9,92.1,65.4,91.1
			c-1.5,0.301-2.5,1.101-3.2,2.2h-0.3c0,0.3-0.4,0.2,0,0c0.3-1.399,2-2.7,1.1-4.6c-1.9-0.2-2.6,1-3.8,1.6c0,0.3-0.4,0.2,0,0
			c0.4-1.7,1.9-2.3,1.9-4.3c0.4-0.2,0.9-0.4,0.8-1.1c1.2-1.2,2.8-1.9,3.8-3.2c2.399,2.7,6.1,4.1,7.8,7.5
			C73.9,94.6,72.9,98.5,70.2,100.8z"/>
	</g>
</g>
</svg>
