<?xml version="1.0" encoding="utf-8"?>
<!-- Generator: Adobe Illustrator 16.0.0, SVG Export Plug-In . SVG Version: 6.00 Build 0)  -->
<!DOCTYPE svg PUBLIC "-//W3C//DTD SVG 1.1//EN" "http://www.w3.org/Graphics/SVG/1.1/DTD/svg11.dtd">
<svg version="1.1" id="Layer_1" xmlns="http://www.w3.org/2000/svg"  x="0px" y="0px"
	 width="120px" height="120px" viewBox="0 0 120 120" enable-background="new 0 0 120 120" xml:space="preserve">
<g id="dumbbell">
	<g>
		<path d="M119.634,66.281c-0.159-0.508-0.149-1.187-0.575-1.428c-0.168-0.59,0.357-1.875-0.283-1.998
			c0.217-1.549-0.354-2.311-0.287-3.708c-0.467-0.958-0.262-2.59-1.424-2.854c-1.609-0.973-4.064,0.657-5.707-0.285
			c-0.482-3.605-0.053-8.125-1.998-10.271c-1.34-0.56-3.131-0.671-4.562-1.142c-0.594-1.402-0.938-3.057-1.715-4.277
			c-1.987-0.389-4.03-0.725-6.558-0.574c0.252-1.584-0.551-2.113-0.571-3.422c-1.985-0.869-3.626-2.082-5.994-2.568h-3.135
			c-0.341,0.139-0.65,0.305-0.859,0.57c-0.771,0.086-0.51,1.2-1.139,1.428c-0.599,0.355-1.205,0.697-1.714,1.141
			c-1.09,6.232-0.844,13.803-0.856,21.112c-9.184-0.419-19.231,0.022-27.958-0.856h-5.706c-1.474-0.521-4.043,0.05-5.135-0.855
			c0.17-3.089-0.11-7.278-0.283-9.701c-0.271-3.709,0.886-7.498-1.146-9.414c-3.886-0.574-10.247,0.113-14.832-0.57
			c-0.005,1.422-2.085,0.769-1.997,2.283c-0.855,1.449,1.664,1.672,1.141,3.708c-3.256,0.261-6.203,0.835-8.274,2.281
			c-0.46,1.724-0.101,3.006,0,4.853c-1.729,0.74-3.474,1.47-4.849,2.566c-0.198,2.194,0.483,3.512,0.284,5.706
			c-1.399,0.312-3.264,0.159-4.564,0.57c-0.252,0.796-0.358,1.736-0.858,2.282c-0.244,0.9,0.509,1.135,0.572,1.428
			c0.496,2.296-0.232,4.646,0.568,6.275c-0.236,0.617-0.736,0.976-0.568,1.998c-0.05,1.002,0.964,0.938,1.142,1.711
			c-0.292,1.239,0.589,1.312,0.854,1.998c0.715,0.047,0.893-0.438,1.141-0.856c0.036-0.63,1.21-0.121,1.712-0.285
			c1.12,1.638,0.153,5.364,0.857,7.418c1.362,0.729,3.999,0.187,5.135,1.142c-0.043,1.851-0.065,3.681,0.57,4.852
			c1.965,0.507,4.738,0.206,7.133,0.286c-0.261,1.973,0.544,2.88,0.569,4.563c1.509,1.061,3.443,1.693,5.138,2.565
			c1.788-0.493,3.894-0.668,6.274-0.57c0.893-0.344,1.781-0.69,2.566-1.141c0.586-0.267,2.189,0.268,2.855-0.57
			c0.949-1.334,0.803-3.762,1.142-5.707c-0.375-5.428-0.792-10.812-1.142-16.262c0.783,0.549,1.57,1.092,2.85,1.144
			c10.275,0.448,19.038-2.037,29.102-0.856h2.854c0.867,0.18,2.459-0.364,2.851,0.286v4.277c0.563,2.577,0.172,6.107,0.289,9.131
			c0.646,2.584,0.517,5.946,1.425,8.271c2.581-0.655,3.84,0.895,6.561,0.855c0.941-0.013,1.426-0.481,2.568-0.283
			c0.657-0.676,1.75-0.914,2.569-1.428c0.037-0.631,1.207-0.121,1.709-0.287c0.082-0.586,0.765-0.567,1.144-0.854
			c0.633-1.176-0.16-3.772,0.855-4.563c1.986-0.104,4.448,0.265,5.988-0.285c0.181-0.772,1.193-0.709,1.144-1.711
			c0.826-0.127-0.254-2.155,0.568-2.281c1.62,0.273,3.933,0.579,5.138-0.286c0.293-1.371,0.619-2.738,0.286-3.994
			c0.034-1.674-0.199-3.622,0.854-4.278c2.215,0.219,3.142,0.112,5.42,0c0.149-0.425,0.424-0.719,0.572-1.143
			c0.489-0.173-0.021-1.354,0.569-1.427C120.137,68.439,119.566,67.68,119.634,66.281z M13.501,69.421
			c-0.587-0.556-1.741-0.543-1.426-2c0.649-0.394,0.106-1.983,0.284-2.853c-0.01-0.938-0.482-1.42-0.284-2.566
			c-0.036-0.512,0.349-0.602,0.284-1.143c0.46-0.079,0.49,0.271,0.857,0.285C13.69,63.523,13.445,66.624,13.501,69.421z
			 M19.208,79.405c-0.593,0.168-1.876-0.354-1.998,0.284c-1.421-0.586-0.712-3.123-0.569-4.563
			c-0.154-7.453-0.33-14.887-1.142-21.684c-0.12-0.715,0.981-0.87,1.427-1.141c0.27-0.166,0.471-0.51,0.855-0.571
			c0.229,0.055,0.284,0.286,0.569,0.286c0.421,3.826,1.055,7.062,0.571,11.126C19.342,68.102,19.905,74.264,19.208,79.405z
			 M26.623,83.111c-0.9-0.139-1.006,0.517-1.993,0.287c-0.962,0.293-0.447-0.889-0.574-1.429c-0.628-0.034-0.12-1.209-0.283-1.712
			V68.562c-0.435-4.795-0.944-9.519-1.712-13.979v-5.136c0.809,0.048-0.238-1.758,0.57-1.712c-0.207-0.871,0.291-1.039,0.285-1.712
			c0.797-0.533,1.961-0.701,2.852-1.142h0.572c0.137,2.276,0,5.077,0,7.989v8.56c0.588,5.211,0.15,11.449,0.283,17.116
			C26.549,79.964,27.438,81.909,26.623,83.111z M34.043,88.818c-0.023-0.451,0.138-1.088-0.283-1.142
			c-0.502-1.928,1.662-1.188,1.426-2.854c0.438-1.199-1.477-0.046-1.426-0.857V81.4c-0.463-1.248-0.23-3.195-0.856-4.278
			c0.208-0.646,1.084-0.625,1.14-1.427c0.051-0.622-0.233-0.906-0.855-0.854c-0.77,0.196-0.551-0.591-0.855-0.856
			c0.022-0.403,0.046-0.808-0.286-0.854c-0.206-1.632,1.633-1.221,1.426-2.853c0.231-1.185-1.76-0.146-1.995-0.854
			c-0.086-1.703,0.115-3.116,0.569-4.28c0.163-8.343-0.963-15.396-1.144-23.395c1.869,0.153,3.25-0.177,4.852-0.284
			c0.488,0.059,0.739-0.487,0.856,0c0.243-0.055,0.269,0.109,0.284,0.284c0.549,3.935,0.008,8.579-0.284,12.554
			c0.386,2.371,0.284,5.231,0.856,7.416c-0.389,9.802,0.941,17.888,1.426,26.818C37.391,89.412,35.798,89.46,34.043,88.818z
			 M82.256,65.71c-1.406-0.981-4.494,0.256-6.559-0.569c-0.399-1.125-1.385-1.66-1.999-2.565c-1.865,0.131-1.04,2.952-3.706,2.28
			c0.211-1.03,1.125-1.535,0.566-2.566c-1.076-0.032-1.531,0.561-1.709,1.427c-0.408,0.544-0.883,1.021-1.43,1.427
			c-0.943-0.968,1.438-2.207,0.285-3.425c-1.688,0.021-2.023,1.398-2.854,2.283c-0.939-0.012-1.086-0.812-1.143-1.712
			c-1.02,0.122-1.564,0.716-1.994,1.427c-0.539,0.509-1.324,0.771-1.715,1.427h-3.423c-0.987,0.037-0.417-1.483-1.143-1.713
			c-0.848,0.006-0.364,1.348-0.853,1.713c-1.061-0.201-1.226,0.487-2.282,0.287c-0.077-0.972,0.218-2.313-0.288-2.854
			c-2.229-0.425-2.078,1.534-2.567,2.854c-0.684,0.172-1.302,0.407-2.282,0.282c-0.564-0.646,0.305-1.593,0-2.853
			c-1.684-0.065-0.433,2.8-1.999,2.853c-1.123,0.175-0.332-1.565-0.567-2.282c-0.147-0.806-0.689-1.212-0.856-1.996v-1.999
			c2.544,0.404,5.17,0.727,8.272,0.572c2.341,0.703,6.234-0.147,8.558,0.57H71.7c3.629,0,7.256-0.232,10.553,0.284L82.256,65.71
			L82.256,65.71z M94.241,88.534c-1.702,0.678-3.415,1.342-5.993,1.141c-0.613-4.045-0.133-9.188-0.285-13.692
			c-0.482-1.799-0.225-4.344-0.283-6.562c0.219-1.362-0.447-1.837-0.285-3.14c-0.4-1.182,0.812-2.204,0-2.854
			c0.01-4.574-0.285-8.843-0.568-13.123c0.111-2.395-0.1-4.469-0.287-6.562c-0.229-1.361,0.223-4.191-0.572-5.42
			c-0.137-0.213-0.451-0.457,0-0.57c0.209-0.266,0.521-0.432,0.859-0.57c2.586,0.172,4.588,0.926,5.701,2.566
			c0.084,1.511-0.49,2.359-0.565,3.711c1.14,6.945,2.188,13.979,2.281,21.969C94.504,72.872,95.455,81.34,94.241,88.534z
			 M98.807,81.117c-0.037-7.954-0.746-15.233-0.572-23.394c-0.525-4.898-1.639-9.206-1.709-14.553
			c-0.017-0.487,0.209-0.736,0.568-0.854c0.512-0.036,0.604,0.349,1.141,0.285c1.035-0.272,0.289,1.231,0.857,1.427
			c0.094,0.667,0.342,1.178,0.568,1.712c0.473,0.952,0.953,1.899,1.43,2.853c-0.113,3.628,0.357,6.679,0.854,9.7
			c-0.447,8.734,0.869,15.508,0.856,23.107C101.15,81.625,100.359,80.986,98.807,81.117z M108.791,77.691
			c-0.502,0.166-1.674-0.344-1.715,0.285c-1.031-0.199-0.389-2.078-0.568-3.138c-0.298-0.938-0.137-2.338-0.57-3.138
			c1.309-8.569-1.236-15.668-1.141-23.967V46.88c0.988-0.229,1.096,0.424,1.995,0.283c0.517,3.67,0.647,7.725,1.146,11.413
			c-0.013,2.104,0.328,3.854,0.568,5.706c-0.225,1.27,0.379,1.712,0.285,2.854c0.419,0.534,0.01,1.892,0.568,2.283
			C108.801,71.552,110.105,75.675,108.791,77.691z M115.354,65.427c-1.381-0.241-2.02,0.265-2.854,0.569
			c-0.09-1.626-0.549-2.875-0.57-4.564c0.867-0.179,2.457,0.366,2.854-0.285c0.637,0.123,0.113,1.405,0.285,1.998
			C115.004,64.062,115.57,64.35,115.354,65.427z"/>
	</g>
</g>
</svg>
