<?xml version="1.0" encoding="utf-8"?>
<!-- Generator: Adobe Illustrator 16.0.0, SVG Export Plug-In . SVG Version: 6.00 Build 0)  -->
<!DOCTYPE svg PUBLIC "-//W3C//DTD SVG 1.1//EN" "http://www.w3.org/Graphics/SVG/1.1/DTD/svg11.dtd">
<svg version="1.1" id="Layer_1" xmlns="http://www.w3.org/2000/svg"  x="0px" y="0px"
	 width="120px" height="120px" viewBox="4 4 120 120" style="enable-background:new 4 4 120 120;" xml:space="preserve">
<g id="eject">
	<g>
		<path d="M29.979,70.97c3.723,0.048,5.732,0.074,9.415,0c5.845-0.909,12.347-1.159,18.544-1.713
			c5.709-0.948,12.867-0.446,19.4-0.569c4.471-0.373,11.674-0.455,15.689,0c1.594,0.18,1.798-0.658,2.854-1.141
			c1.221-2.077,0.049-4.914-1.141-6.278c-1.09-1.764-2.079-3.627-2.855-5.705c-2.002-2.275-4.293-4.264-6.275-6.561
			c-2.424-1.855-4.119-4.439-6.274-6.562c-1.655-2.625-3.765-4.795-5.421-7.418c-2.234-2.047-3.666-4.895-6.275-6.564h-3.141
			c-0.335,0.143-0.646,0.307-0.855,0.573c-1.277,0.244-1.489,1.556-2.851,1.712c-5.536,5.949-11.569,11.568-17.118,17.117
			c-1.946,1.945-3.588,4.219-5.992,5.707c-0.588,0.932-1.479,1.564-2.283,2.281c-1.065,0.455-1.268,1.775-2.566,1.996
			c-1.428,1.615-3.133,2.953-4.85,4.279c-0.66,0.862-1.787,1.258-2.282,2.281c-1.39,0.231-2.147,1.088-1.997,2.854
			C23.918,70.372,27.09,70.525,29.979,70.97z M83.613,57.275c1.029,1.347,2.428,2.325,2.854,4.28H83.33
			c-0.182-1.531-0.229-3.199-0.573-4.567C83.221,56.91,83.246,57.259,83.613,57.275z M75.625,49.285
			c1.412,0.872,1.952,2.612,3.424,3.425c-0.773,1.48-1.373,4.436,0,5.707c0.838,0.326,1.061-1.369,1.428-0.572
			c-0.063,1.49,0.002,2.85,0.285,3.994c-1.248-0.199-1.607,0.486-2.854,0.285C77.74,57.253,75.215,54.737,75.625,49.285z
			 M69.35,42.155v-0.857c1.252,0.365,1.504,1.729,2.282,2.566c-0.164,2.598-0.483,5.034-0.571,7.705
			c0.316,4.246,1.572,7.556,3.424,10.27c-0.58,0.656-2.368,0.105-3.424,0.285c0.02-3.061-1.225-4.859-1.427-7.703V43.579
			C69.871,42.774,69.232,42.841,69.35,42.155z M65.068,58.702c0.053-0.324,0.287-0.16,0.287,0
			C65.301,59.025,65.068,58.86,65.068,58.702z M66.783,61.839c-0.696,0.859-1.148-0.924-1.143-1.711c-0.867-0.338,0.307-1.514,0,0
			C66.279,60.44,66.145,61.528,66.783,61.839z M64.213,36.731c0.413-0.158,0.697-0.441,0.855-0.854
			c0.461-0.08,0.492,0.27,0.856,0.285c-0.823,2.409-0.639,5.826-1.143,8.561v4.279c-0.22,0.518-0.307-0.174-0.285-0.574v-5.705
			c-0.078-1.674-0.408-1.783,0-3.137C64.596,38.446,63.989,38.003,64.213,36.731z M58.794,42.155
			c0.501-0.258,0.882-0.64,1.141-1.143c0.209,0.002,0.304,0.357,0.286,0.57c-0.533,5.885-0.718,13.06,0,18.828
			c-1.566-0.902-0.893-4.054-1.427-5.99C58.811,49.717,58.685,46.579,58.794,42.155z M53.372,47.575
			c0.243-0.051,0.271,0.111,0.287,0.285v9.128c-1.585,0.065-1.06-1.985-1.144-3.421c-0.185-1.338,0.374-3.419-0.284-4.282
			C52.418,48.521,53.047,48.201,53.372,47.575z M48.521,62.696c-1.339-0.469-2.498-1.114-3.707-1.712v-1.712
			c0.697,0.539,1.381,1.09,2.282,1.428C47.561,61.376,48.924,61.153,48.521,62.696z M45.667,55.278
			c1.145-0.002,0.95,1.336,1.715,1.71c-0.665,0.83-1.537-0.534-2.567-0.282C44.682,55.81,45.582,55.948,45.667,55.278z
			 M41.963,59.272c-0.057,0.322-0.287,0.158-0.287,0C41.728,58.947,41.963,59.114,41.963,59.272z M37.398,62.696
			c0.873,0.359,1.5,0.971,2.282,1.428c-0.942,0.767-2.886,0.537-4.565,0.567C35.904,64.056,36.604,63.33,37.398,62.696z
			 M100.73,89.229c0.828-3.343,2.949-8.002,0.285-10.843c-5.021-0.711-10.402,0-15.689,0H52.231c-5.391,0-10.86-0.692-15.978,0
			c-0.067-0.733-0.491,0.394-1.139,0h-5.137c-2.057,0.322-4.577,0.181-5.707,1.427c0.17,0.592-0.351,1.877,0.284,2
			c-0.212,0.975,1.162,0.36,0.857,1.424c-1.018,0.593-0.46,2.646-0.284,3.713c-0.229,0.986,0.424,1.094,0.284,1.992
			c0.169,0.594-0.353,1.877,0.287,2c-0.089,3.129-0.073,6.156,1.423,7.703c1.814,1.041,5.319,0.391,7.992,0.567
			c9.453-0.478,19.826-0.282,29.954-0.282c10.168,0,20.217,0.342,28.813-1.427c1.289-0.239,1.429,0.668,2.285,0.854
			c0.642,0.559,2.146,0.248,2.853,0c0.875-0.933,1.896-1.719,1.711-3.709v-5.42H100.73z M31.976,87.518
			c-0.895-0.722-0.912-2.32-1.142-3.711h2.284C32.811,85.12,32.074,85.997,31.976,87.518z M38.251,92.938h-3.136
			c1.144-2.849,1.81-6.179,3.136-8.845c0.692,1.306,1.812,2.183,2.853,3.14C40.412,89.395,39.064,90.896,38.251,92.938z
			 M44.814,92.652c0.047-0.809,0.521-1.19,0.568-1.997c0.969,0.362,1.814,0.852,2.568,1.428
			C47.916,93.284,45.764,92.364,44.814,92.652z M49.379,87.23c-1.043,0.188-1.094-0.616-1.997-0.571
			c-0.052-1.949,0.842-2.961,3.138-2.566C50.928,84.934,49.507,86.02,49.379,87.23z M55.371,90.655
			c-1.271-0.466-0.049-1.968,0-2.854c0.666-0.57,0.473-1.996,1.141-2.568c-0.082-0.459,0.267-0.489,0.283-0.854h1.713
			C57.322,86.329,56.244,88.391,55.371,90.655z M63.074,92.652h-3.426c0.992-2.814,2.008-5.6,3.14-8.272h3.995
			C65.68,87.27,64.033,89.618,63.074,92.652z M73.914,92.652h-5.137c0.418-3.293,2.254-5.168,2.854-8.272h5.991
			C76.152,86.902,74.449,89.193,73.914,92.652z M82.757,92.366c-1.144,0.28-2.504,0.349-3.993,0.286
			c0.971-2.645,1.797-5.432,2.566-8.272h2.855C83.775,87.105,82.35,88.818,82.757,92.366z M87.609,90.655
			c-0.494,0.172,0.02,1.352-0.571,1.428c-0.86,0.438-0.752-1.479-0.286-1.428c-0.164-0.929,0.195-1.328,0.286-1.998
			c0.091-1.337,0.608-2.242,0.854-3.425c-0.08-0.459,0.271-0.489,0.285-0.854h2.282c-1.142,1.139-1.711,2.852-2.567,4.277
			C88.122,89.646,87.471,89.753,87.609,90.655z M94.17,90.939c-0.939,0.013-1.421,0.48-2.568,0.285
			c0.606-2.25,1.588-4.119,1.426-7.133h2.283C94.939,86.385,94.21,88.316,94.17,90.939z"/>
	</g>
</g>
</svg>
