<?xml version="1.0" encoding="utf-8"?>
<!-- Generator: Adobe Illustrator 16.0.0, SVG Export Plug-In . SVG Version: 6.00 Build 0)  -->
<!DOCTYPE svg PUBLIC "-//W3C//DTD SVG 1.1//EN" "http://www.w3.org/Graphics/SVG/1.1/DTD/svg11.dtd">
<svg version="1.1" id="Layer_1" xmlns="http://www.w3.org/2000/svg"  x="0px" y="0px"
	 width="120px" height="120px" viewBox="4 4 120 120" style="enable-background:new 4 4 120 120;" xml:space="preserve">
<g id="star">
	<g>
		<path d="M112.363,50.31c-2.163-1.271-6.037-0.833-9.396-0.91c-5.433-0.336-12.104-0.557-17.879-0.302
			c-1.849,0.08-3.579,0.771-5.149,0c-0.599-1.018-0.996-2.235-1.211-3.637c-0.887-0.832-0.879-2.557-1.517-3.637
			c-0.302-1.416-0.914-2.523-1.211-3.94c-0.579-1.139-0.847-2.589-1.517-3.635c-1.594-5.174-3.58-9.958-5.457-14.85
			c-0.394-1.526-0.344-3.491-1.209-4.544c-1.207,0.22-1.221,0.22-2.426,0c-0.437,0.168-0.742,0.471-0.907,0.909
			c-1.187,2.755-2.205,5.674-3.033,8.789c-0.643,1.275-1.17,2.667-1.514,4.243c-0.693,1.223-1.272,2.565-1.517,4.243
			c-1.376,2.46-2.153,5.523-3.333,8.18c-0.434,1.485-1.081,2.759-1.517,4.244c-0.729,1.189-0.611,3.225-1.816,3.938
			c-2.599-0.025-5.4,0.147-7.577-0.302c-4.665-0.18-10.07,0.374-14.241-0.304c-2.547,0.122-4.747-0.101-6.968-0.304
			c-2.476,0.053-4.737,0.316-4.852,2.729c-0.016,2.34,2.028,2.62,3.94,3.03c0.99,2.445,3.808,3.062,5.149,5.151
			c2.115,1.323,3.745,3.125,5.76,4.546c1.879,1.555,3.712,3.154,5.755,4.544c0.815,0.909,2.045,1.391,2.73,2.425
			c1.04,0.677,2.257,1.182,2.726,2.424c-2.199,6.789-4.815,13.164-6.664,20.303c-1.001,3.445-1.766,7.127-2.729,10.607
			c-0.287,1.934-1.174,3.27-1.213,5.454c-0.516,0.125,0.066,0.392,0,0.909c-0.25,0.855,0.427,0.785,0.303,1.516
			c0.438,0.168,0.742,0.473,0.91,0.908c0.188,0.422,1.168,0.047,1.212,0.605c1.188-0.023,1.892-0.533,2.726-0.906
			c0.815-0.502,0.974-1.656,1.82-2.123c2.457-1.282,4.658-2.818,6.669-4.547c2.673-1.162,4.199-3.476,6.666-4.849
			c1.71-2.129,4.381-3.295,6.061-5.452c1.416-0.502,2.143-1.693,3.33-2.427c1.124-0.796,2.015-1.825,3.336-2.425
			c2.891,1.754,5.656,3.636,8.785,5.152c2.985,3.986,6.082,7.858,10.303,10.605c1.916,1.624,3.933,3.145,6.367,4.242
			c0.717,1,2.258,1.178,2.728,2.426c1.015,0.803,2.438,1.196,3.938,1.514c0.103-1.11,2.155-0.27,2.123-1.514
			c-0.131-0.98,0.398-2.623-0.607-2.729c-0.721-0.391-0.862-1.358-1.21-2.119c-3.948-10.701-7.534-21.764-10.913-33.033
			c1.734-2.003,4.225-3.254,6.367-4.85c2.002-1.832,4.519-3.154,6.664-4.846c1.396-0.426,2.244-1.396,3.638-1.82
			c1.009-0.913,2.515-1.324,3.335-2.424c1.419-0.5,2.143-1.695,3.334-2.425c0.838-1.079,1.766-2.069,2.423-3.334
			C113.568,53.751,113.695,51.301,112.363,50.31z M96.91,61.522c-1.48,0.942-3.161,1.686-4.244,3.03
			c-1.739,0.582-2.502,2.144-4.242,2.726c-0.63,0.986-1.258,1.979-1.814,3.033c-1.633,0.791-3.323,1.526-4.545,2.727
			c-0.028,2.146,1.178,3.062,0.903,5.453c1.732,4.031,2.651,8.867,4.245,13.031c1.08,4.678,3.037,8.477,4.241,13.03
			c-1.653-1.174-3.354-2.303-4.542-3.938c-1.65-1.18-3.133-2.525-4.549-3.939c-3.074-2.579-6.129-5.184-8.787-8.181
			c-2.582-1.154-5.021-2.451-6.971-4.245c-1.433,0.49-1.951,1.889-3.939,1.82c-3.086,3.48-7.115,6.013-10.301,9.395
			c-0.702,0.914-1.899,1.334-2.426,2.424c-1.13,0.484-1.348,1.885-2.726,2.12c-0.683,0.937-1.489,1.745-2.423,2.425
			c-0.9,0.719-1.504,1.73-2.731,2.121c1.598-8.002,3.809-15.383,6.364-22.424c-0.338-4.482,1.602-6.686,2.425-10
			c-0.208-1.51-1.284-2.15-2.124-3.031c-1.114-0.498-1.567-1.662-3.331-1.514c-0.101-0.523-0.566-0.629-0.91-0.91
			c-0.326-0.267-0.606-0.681-0.91-0.908c-0.106-0.082-0.52,0.102-0.605,0c-0.349-0.43-0.888-1.037-1.514-1.517
			c-0.32-0.244-0.918-0.368-1.212-0.605c-0.796-0.639-1.806-1.848-3.032-2.424c-2.646-2.1-5.326-4.167-8.181-6.061
			c0.884-0.767,2.917-0.102,3.939,0c4.54,0.104,9.563-0.268,13.636,0.304c1.396-0.02,1.965-0.862,3.032-1.213
			c1.992,0.074,3.302-0.533,5.453-0.303c1.203-1.021,1.554-2.889,2.425-4.243c0.779-1.342,1.518-2.726,2.424-3.939
			c2.045-7.623,4.671-14.759,6.362-23.031c0.261-0.056,0.289,0.12,0.304,0.303c2.424,7.979,4.349,16.463,6.971,24.243
			c-0.266,0.974,0.998,0.415,0.91,1.21c0.623,0.084,0.283,1.13,0.906,1.213c0.309,1.614,0.76,3.079,1.213,4.546h5.154
			c1.207,0.201,2.073,0.751,3.029,1.213c7.097-0.028,14.201-0.063,20.906,0.302C103.218,58.135,99.686,59.448,96.91,61.522z"/>
	</g>
</g>
</svg>
