<?xml version="1.0" encoding="utf-8"?>
<!-- Generator: Adobe Illustrator 16.0.0, SVG Export Plug-In . SVG Version: 6.00 Build 0)  -->
<!DOCTYPE svg PUBLIC "-//W3C//DTD SVG 1.1//EN" "http://www.w3.org/Graphics/SVG/1.1/DTD/svg11.dtd">
<svg version="1.1" id="Layer_1" xmlns="http://www.w3.org/2000/svg"  x="0px" y="0px"
	 width="120px" height="120px" viewBox="4 4 120 120" style="enable-background:new 4 4 120 120;" xml:space="preserve">
<g id="energy4">
	<g>
		<path d="M120.957,69.184c-0.495-0.574-0.182-1.955-0.266-2.936c0.479-3.348-0.471-7.278-1.334-10.142
			c-1.041,0.062-1.387-0.572-2.135-0.8c-1.031,0.052-1.97,0.009-2.671-0.268c-2.005,0.049-4.051,0.138-5.069-0.8
			c-0.881-1.877-0.428-5.088-0.533-7.741c-1.24-2.407-3.18-4.113-5.338-5.603c-4.072,0.157-6.785-1.042-10.676-1.067
			c-0.34,0.014-0.365,0.342-0.799,0.268c-19.193,1.382-41.177,1.304-61.379,0.8c-3.431,0.304-7.388,0.083-10.675,0.534
			c-0.599,0.468-1.5,0.635-2.135,1.068c-0.51,0.644-1.252,1.059-1.867,1.601c-0.422,0.647-0.954,1.18-1.601,1.602
			c-0.487,0.67-0.555,1.758-1.334,2.135c-0.75,3.252-1.8,6.207-1.602,10.407c-0.559,3.533-0.088,8.095-0.532,11.742
			c-0.036,4.039-0.056,8.06,0.802,11.207c0.201,1.844,0.637,3.451,1.333,4.804c1.069,0.975,1.439,2.653,3.203,2.937
			c0.992,0.61,2.655,0.549,4.27,0.533c5.521-0.529,11.158,0,16.811,0c5.637-0.001,11.307-0.722,16.814,0
			c12.979,0.637,25.601,0.393,38.959,0.268c2.983-0.482,6.312-0.629,9.875-0.533c0.812-0.521,1.833-0.838,2.668-1.334
			c1.008-0.416,1.66-1.188,2.668-1.602c-0.058-2.191,0.202-4.068,0.535-5.871c0.688-0.063-0.365-0.459,0-1.066
			c0.106-0.645-0.488-0.581-0.267-1.336c0.15-0.916,0.5-1.633,1.065-2.135c2.321-1.817,5.479,0.633,9.073,0
			c0.77-1.188,1.504-2.412,1.869-4.002C121.3,71.48,120.791,69.994,120.957,69.184z M102.545,77.455
			c-1.16,0.354-0.932,2.094-1.602,2.938c-2.868-0.11-4.81,0.703-7.205,1.066c-5.854,0.09-12.07-0.005-17.881-0.268
			c-5.92-0.271-11.55,0.66-16.276-0.535c-9.387-0.4-17.367,0.604-25.884,1.068c-1.284,0.404-3.081,0.303-4.005,1.066
			c-1.939-0.446-3.247-0.073-5.603-0.268c-0.995-0.694-2.057-1.323-2.936-2.133c-0.476-0.594-1.049-1.086-0.802-2.404
			c-0.031-1.034-1.308-0.823-1.333-1.866c-0.034-7.951-0.091-15.927,0.802-22.949c1.531-2.472,3.964-4.041,6.937-5.071
			c0.377,0.023,0.756,0.044,0.8-0.267h2.403c0.638-0.163,1.936,0.335,2.133-0.268c1.33-0.35,1.135,0.823,2.135,0.802
			c2.392-0.457,4.833-0.86,7.738-0.802c0.432,0.076,0.461-0.252,0.801-0.266c14.507-0.031,27.45,2.706,42.165,1.601
			c1.43-0.082,2.219-0.806,3.469-1.067c1.269,0.422,2.932,0.45,4.271,0.8c2.838,0.096,5.932-0.062,7.737,1.068
			c-0.13,0.839,0.817,0.604,0.534,1.602c-0.152,0.161-0.625,1.265,0,1.334c0.002,0.708-0.102,1.524,0.268,1.867
			c0.152,0.471-0.324,1.568,0.266,1.601c0.115,2.556,0.474,4.867,0.801,7.206C102.088,68.307,102.723,72.475,102.545,77.455z"/>
	</g>
</g>
</svg>
