<?xml version="1.0" encoding="utf-8"?>
<!-- Generator: Adobe Illustrator 16.0.0, SVG Export Plug-In . SVG Version: 6.00 Build 0)  -->
<!DOCTYPE svg PUBLIC "-//W3C//DTD SVG 1.1//EN" "http://www.w3.org/Graphics/SVG/1.1/DTD/svg11.dtd">
<svg version="1.1" id="Layer_1" xmlns="http://www.w3.org/2000/svg"  x="0px" y="0px"
	 width="120px" height="120px" viewBox="4 4 120 120" style="enable-background:new 4 4 120 120;" xml:space="preserve">
<g id="heart-empty">
	<g>
		<path d="M110.052,36.875c-0.897-1.089-1.011-2.96-2.085-3.87c-0.303-1.78-1.799-2.372-2.383-3.873
			c-0.973-0.285-1.604-1.273-2.383-1.787c-0.891-0.587-1.814-0.822-2.68-1.49c-2.267-0.514-4.842-0.717-7.742-0.595
			c-1.586,0.399-3.328,0.644-5.062,0.893c-1.597,0.787-3.211,1.559-5.062,2.085c-1.393,0.99-2.893,1.875-4.467,2.68
			c-2.59,2.181-5.264,4.272-7.742,6.553c-0.846,1.14-1.803,2.172-2.686,3.275c-1.045,0.94-1.635,2.337-2.68,3.277
			c-0.922-1.856-2.285-3.274-3.573-4.766c-1.364-1.517-2.205-3.558-3.574-5.063c-1.803-1.673-3.891-3.058-5.958-4.468
			c-0.763-0.031-1.418-0.167-1.784-0.595c-3.33-0.648-7.683-0.818-11.32-0.296c-1.059,0.827-3.017,0.756-3.872,1.786
			c-1.729,0.254-2.372,1.597-3.872,2.083C26.648,37.161,22.899,42.347,21,49.385v9.53c0.443,0.056,0.273,0.721,0.301,1.19
			c1.596,5.85,4.432,10.459,7.444,14.893c3.468,3.98,6.484,8.406,10.724,11.615c3.536,3.908,8.152,6.738,12.507,9.828
			c2.523,1.25,4.374,3.17,7.148,4.17c2.032,1.74,4.228,3.318,7.444,3.873c0.664-0.232,1.617-0.174,1.789-0.896
			c0.58-0.413,0.914-1.069,1.785-1.19c1.494-0.394,2.543-1.229,3.871-1.787c2.303-1.573,4.936-2.812,6.852-4.767
			c1.328-0.559,2.311-1.463,3.277-2.383c1.053-0.83,2.27-1.503,2.978-2.68c2.378-1.494,4.069-3.677,5.956-5.658
			c3.566-4.077,7.096-8.192,9.828-13.104c1.463-2.312,2.722-4.826,3.871-7.444c0.74-1.146,0.906-2.87,1.787-3.873
			c0.312-1.674,0.803-3.168,1.488-4.468c0.182-2.199,0.668-4.096,0.896-6.253C111.152,45.106,110.745,40.85,110.052,36.875z
			 M103.799,52.362c-0.441,0.451-0.48,1.308-0.598,2.085c-0.229,0.662-0.624,1.162-0.596,2.086
			c-0.657,1.028-0.828,2.543-1.487,3.571c-0.853,2.524-2.128,4.623-3.277,6.852c-2.366,4.383-5.358,8.142-8.339,11.912
			c-1.71,1.767-3.421,3.53-5.062,5.36c-1.774,1.602-3.814,2.936-5.362,4.766c-1.285,0.398-1.866,1.509-2.978,2.085
			c-0.975,0.713-2.102,1.272-2.976,2.085c-1.306,0.382-2.092,1.283-3.278,1.788c-1.055,0.634-2.389,0.985-3.277,1.786
			c-1.633,0.048-1.608-1.563-2.977-1.786c-0.564-1.024-1.663-1.515-2.681-2.084c-1.483-1.599-3.841-2.315-5.36-3.874
			c-3.798-2.355-7.45-4.86-10.425-8.04c-3.653-2.601-6.176-6.332-9.232-9.53c-2.555-3.604-5.133-7.178-6.851-11.616
			c-0.742-2.533-0.615-5.937-0.594-9.232c1.856-5.988,5.179-10.507,9.827-13.701c3.33-0.953,8.583-2.088,12.213-0.892
			c2.621,0.853,3.927,3.022,5.659,4.765c1.573,1.9,2.843,4.105,4.466,5.957c0.357,1.629,1.43,2.54,1.788,4.169
			c0.664,1.322,1.158,2.812,3.276,2.68c2.549,0.267,2.016-2.547,2.977-3.871c1.648-1.625,3.018-3.536,4.471-5.361
			c1.712-1.464,3.298-3.052,4.766-4.766c1.137-0.448,1.941-1.231,2.68-2.083c1.164-0.424,1.922-1.253,2.978-1.787
			c1.128-0.458,1.978-1.199,3.276-1.49c0.848-0.742,2.383-0.793,3.275-1.49c1.578-0.306,3.664-0.104,5.063-0.595
			c1.299,0.387,3.122,0.253,4.169,0.895c0.229,0.438,0.8,0.789,1.189,1.19c0.916,0.941,1.594,2.152,2.385,3.573
			c0.39,0.706,0.729,3.09,0.894,4.468C104.174,45.407,103.984,48.78,103.799,52.362z"/>
	</g>
</g>
</svg>
