<?xml version="1.0" encoding="utf-8"?>
<!-- Generator: Adobe Illustrator 16.0.0, SVG Export Plug-In . SVG Version: 6.00 Build 0)  -->
<!DOCTYPE svg PUBLIC "-//W3C//DTD SVG 1.1//EN" "http://www.w3.org/Graphics/SVG/1.1/DTD/svg11.dtd">
<svg version="1.1" id="Layer_1" xmlns="http://www.w3.org/2000/svg"  x="0px" y="0px"
	 width="120px" height="120px" viewBox="0 0 120 120" enable-background="new 0 0 120 120" xml:space="preserve">
<g id="file-ai_1_">
	<g>
		<path d="M98.352,47.066c0.078-1.723,0.719-2.884,0.854-4.557c0.167-3.848,0-7.743,0-12.248c0-4.396-0.04-8.845-0.854-12.538
			c-1.791,0.021-3.336,0.274-4.844,0.575c-0.818-0.512-1.652-1.012-3.132-0.856c-15.562-0.015-30.67-0.477-46.434-0.284
			c-0.411,0.157-0.698,0.446-0.856,0.854c-0.662,0.855-1.263,1.771-1.992,2.563c-0.533,0.503,0.338,0.831-0.287,1.427
			c-0.504,0.256-0.88,0.633-1.138,1.14c-1.536,1.5-3.019,3.052-3.991,5.127c-1.01,0.503-1.175,1.859-1.992,2.562
			c-0.803,0.715-0.901,2.134-1.708,2.852c-0.068,1.444-1.23,1.806-1.712,2.844c-0.705,0.99-1.95,1.513-1.989,2.852v6.551
			c0.193,1.703,0.759,3.039,0.854,4.842c-1.029,14.453-0.141,30.814-0.854,45.578c0.163,2.396-0.353,5.479,0.283,7.405v1.994
			c-0.17,0.505,0.837,1.185,0,1.425c-0.445,1.088-0.696,1.811,0,2.848c1.263,1.111,3.589,0.285,5.413,0.289
			c1.604-0.578,3.921-0.449,5.696-0.855c9.251-0.156,15.905,0.41,24.212-0.283c7.926-0.822,16.438-0.512,24.78-0.286
			c2.573,0.353,6.12,0.993,8.549,0.569c0.722-0.52,1.251-1.221,1.427-2.279c0.188-1.14,0.856-1.803,1.141-2.846
			C100.262,84.303,98.816,64.905,98.352,47.066z M43.942,26.559c-0.607,0.131-0.542-0.407-0.569-0.854
			C43.723,25.827,43.957,26.066,43.942,26.559z M41.664,27.699h0.852c0.382,1.428,1.374,2.233,2.279,3.131
			c-0.221,1.172,0.44,1.46,0.286,2.562c-1.337-0.087-1.15-1.699-2.278-1.992c-0.414-1.012-1.151-1.694-1.996-2.277
			C40.977,28.528,41.407,28.2,41.664,27.699z M40.807,33.393c0.354,0.882,0.944,1.53,1.709,1.994
			c-0.256,0.772-1.043-0.237-1.139-0.566c-0.416-0.249-0.902-0.428-0.854-1.139c-0.768-0.561-1.363-1.3-1.709-2.281
			C39.919,31.623,39.897,32.973,40.807,33.393z M36.535,34.247c0.688,0.55,0.943,1.524,1.709,1.995
			c-0.762,0.566-2.508,0.145-3.42,0.566C35.228,35.792,36.057,35.196,36.535,34.247z M92.652,104.895
			c-1.457,0.125-1.562-1.102-2.852-1.142h-5.982c-10.95-1.046-21.32,0.874-32.186,0.856c-1.153,0.266,0.358-1.545-0.574-1.994
			c-1.276-0.141-0.799,1.479-1.422,1.994h-3.986c-1.305-0.203-2.891,0.32-3.421,0c0.395-1.65,1.763-3.359,1.142-5.127
			c-1.83-0.314-2.047,0.987-2.85,1.707c-0.229,1.289-1.138,1.903-1.141,3.42c-1.213-0.117-2.934,0.273-3.705-0.283
			c0.229-2.521,2.33-4.393,1.716-6.84c-2.279,0.188-2.662,2.279-3.421,3.984c-1.054-0.6-0.442-2.383,0-3.13
			c0.7-0.727,0.652-2.2,1.422-2.853c0.436-2.412,1.815-3.883,1.999-6.551c-0.856-0.709-1.922,0.19-1.999,1.143
			c-0.582,0.191-0.934,2.074-1.422,1.422v-2.277c0.358-1.254,1.087-2.145,1.705-3.135c0.438-2.316,1.508-4,1.996-6.266
			c0.237-2.002,2.036-4.316,0.857-5.981c-1.262-0.123-1.997,0.282-2.566,0.855c-0.688,0.087-1.259,1.753-1.709,1.138
			c-0.146-11.064,0.505-21.334,0.284-32.473c0.179-1.316-0.642-1.641-0.567-2.85h4.271c1.929-0.35,3.829-0.729,6.271-0.568
			c1.896-0.567,4.254-0.68,5.691-1.711c0.263-0.498,0.101-1.422,0.571-1.711c-0.445-2.494-0.65-5.232-1.139-7.69
			c-0.414-2.525-1.229-4.661-1.422-7.404c2.905-0.173,6.147-1.073,9.111-0.284c10.745-0.208,19.886,1.195,30.481,1.139
			c1.885,0.154,4.148,0.968,5.979,0.285c0.009,1.237,0.098,2.561-0.28,3.418c0.54,1.071,0.027,3.2,0.567,4.272
			c0.455,22.708,0.158,46.179,0.854,68.647C94.111,100.845,94.527,104.016,92.652,104.895z M80.119,66.436
			c0.672,0.013,0.838-0.487,1.708-0.283c0.378-1.051,0.642-2.2,0.569-3.7c0.06-1.486-0.854-1.999-1.424-2.85
			c-4.277-0.57-5.688,1.716-7.693,3.423c-0.278,0.947-0.902,1.56-1.141,2.561c-0.189,1.039-0.394,2.07-0.283,3.419
			c0.334,0.046,0.31,0.45,0.283,0.854c1.975,2.203,6.611,1.746,7.407,5.127c-1.817,0.58-6.694-1.021-7.69,1.141
			c0,1.52,1.207,1.832,2.562,1.994h4.561c-0.127-0.791,1.554,0.225,1.422-0.571c0.896,0.134,0.754-0.767,1.427-0.854
			c0.063-0.219,0.009-0.562,0.284-0.566c0.086-1.039-0.045-1.854-0.284-2.562c-0.129-0.91-1.083-1.004-1.14-1.994
			c-0.961-0.459-1.697-1.148-2.562-1.709c-0.896-0.62-2.268-0.773-2.852-1.709c0.361-2.299,1.695-3.62,3.422-4.559
			C78.602,65.105,79.266,65.867,80.119,66.436z M63.025,61.025c-1.34,1.123-3.62,1.312-3.701,3.701
			c-0.126,1.457,1.67,0.989,1.423,2.562c-0.206,3.215-0.387,6.447-0.283,9.971c-0.007,2.098,0.343,3.833,2.274,3.99
			c3.431-0.466,1.486-6.305,1.998-9.686c2.229-1,4.185-2.272,5.13-4.562c0.062-0.221,0.008-0.562,0.28-0.569
			c0.052-2.136-0.412-3.766-1.137-5.125C67.648,60.01,64.872,60.51,63.025,61.025z M64.736,67.29
			c0.037-1.181-0.077-2.197-0.57-2.847c0.214-0.881,2.062-1.15,2.85-0.57C67.432,66.189,66.277,66.936,64.736,67.29z M55.053,61.025
			c-1.393,0.033-3.001-0.156-3.992,0.283c-0.563-0.002-0.359-0.778-1.137-0.565c-0.067,0.403-0.468,0.476-0.57,0.853
			c-0.473,0.004-0.159,0.789-0.572,0.854c-0.296,4.543-0.336,9.349-0.283,14.241c-0.449,1.103-0.449,3.229,0.283,3.992
			c1.467,0.75,2.75-0.252,3.992-0.574c0.841-0.865,2.763-0.657,3.984-1.14v-1.71c-1.539-0.779-3.721,0-5.123,0.285V71.85
			c2.021-0.066,4.409,0.23,4.844-1.424c0.531-0.545-0.172-0.516,0-1.423c-1.201-0.901-2.545-0.056-4.562-0.286
			c0.368-1.877-0.747-3.499,0-4.844c0.919-0.064,1.207,0.502,2.279,0.289c1.526-0.665,4.703,0.332,4.561-1.996
			C58.494,60.488,56.576,60.758,55.053,61.025z"/>
	</g>
</g>
</svg>
