<?xml version="1.0" encoding="utf-8"?>
<!-- Generator: Adobe Illustrator 16.0.0, SVG Export Plug-In . SVG Version: 6.00 Build 0)  -->
<!DOCTYPE svg PUBLIC "-//W3C//DTD SVG 1.1//EN" "http://www.w3.org/Graphics/SVG/1.1/DTD/svg11.dtd">
<svg version="1.1" id="Layer_1" xmlns="http://www.w3.org/2000/svg"  x="0px" y="0px"
	 width="120px" height="120px" viewBox="4 4 120 120" style="enable-background:new 4 4 120 120;" xml:space="preserve">
<g id="folder4">
	<g>
		<path d="M110.744,56.405V46.42c-0.223-0.06-0.332-0.239-0.285-0.567c-0.545-0.787-1.166-1.5-1.709-2.283
			c-0.551-0.783-2.168-0.498-2.566-1.43c-0.646-4.255,1.672-8.312-0.574-10.839c-5.452-0.634-12.211,0.036-17.401-0.858
			c-11.455,0.91-24.973-0.247-35.375,1.713c-0.918-2.316-2.021-4.449-3.711-5.989c-4.16-1.897-7.463-1.179-12.266-1.426
			c-3.154,0.652-6.375,1.233-9.703,1.712c-3.77,0.127-7.559,0.238-8.842,2.852c-0.482,0.938-0.172,1.824,0,2.852
			c-0.477,0.664-0.748,1.539-0.857,2.568c-0.164,3.736,0.344,8.142-0.287,11.41c0.65,0.308,0.111,1.792,0.287,2.568v9.131
			c0.545,4.305,1.092,8.607,1.711,12.838v7.418c0.389,2.369,0.494,5.023,0.855,7.418v3.994c0.408,1.878,0.223,4.343,0.857,5.99
			c0.484,1.799,1.25,3.316,1.998,4.849c0.566,0.292,1.219,0.495,1.426,1.144c1.738,0.548,3.492,1.074,5.422,1.428h10.84
			c8.75-1.237,20.088,0.113,28.531-1.428H82.5c0.939,0.199,1.824,0.459,2.855,0.572c6.379,0.144,12.817,1.555,19.399,0.567
			c1.42-0.86,2.076-2.487,3.138-3.709c0.604-2.675,1.801-5.974,0.569-8.842c-3.287-0.438-3.338,2.364-4.853,3.708
			c-0.594,1.115-0.286,3.137-1.424,3.708c-0.572,0.294-2.346-0.188-3.709,0c-1.305-0.122-3.143,0.292-3.994-0.282
			c-2.946,0-5.619-0.277-7.989-0.857c-3.722,0.656-8.646,0.103-12.839,0.283c-0.936-0.012-1.092-0.812-2.278-0.57
			c-2.41-0.033-4.621,0.141-6.563,0.57c-0.965-0.115,0.762-1.104-0.572-0.854c-0.762,0.471-1.5,0.968-2.566,1.142h-6.559
			c-1.086,0.161-3.297,0.683-4.281,0c1.584-2.979,3.23-5.897,4.564-9.131c0.602-1.681,1.363-3.204,2.285-4.565
			c0.254-0.881,0.707-1.567,1.135-2.281c0.744-0.213,1.17-1.602,0.572-2.281c-2.25-0.768-3.539,1.484-4.562,2.852
			c-0.818,1.941-2.086,3.432-2.855,5.422c-1.576,1.182-1.959,3.553-3.42,4.85c-0.225,1.109-0.9,1.768-1.43,2.57
			c-0.531,0.893-0.869,1.98-1.426,2.854c-2.387-0.012-4.312,0.441-6.561,0.566c1.178-3.193,2.502-6.242,4.277-8.84
			c0.658-1.531,1.564-2.814,2.283-4.281c0.771-1.188,2.432-2.815,1.713-4.566c-2.115-1.084-3.021,1.301-4.279,1.998
			c-0.818,1.463-2.127,2.439-2.855,3.994c-2.025,2.631-3.566,5.75-5.135,8.844v1.711c-0.039,0.385,1.16,0.861,0.285,1.143
			c-1.75-0.149-4.129,0.326-5.418-0.285c1.584-1.268,2-3.7,2.852-5.706c0.869-2.074,1.629-4.267,2.566-6.275
			c0.723-2.132,1.619-4.089,2.566-5.989c0.174-1.258,1.033-1.821,1.43-2.855c0.311-0.947,1.744-1.893,0.854-3.135
			c-2.414-0.939-3.574,1.707-4.85,2.852c-1.16,1.689-2.229,3.473-3.137,5.422c-1.795,3.909-3.543,7.869-4.85,12.266
			c-0.24,0.332-0.375,0.766-0.287,1.427c-0.371,0.71,0.838,1.187,0,1.429c-1.199-1.084-1.648-2.917-1.711-5.138
			c-0.053-0.621,0.234-0.905,0.855-0.856c0.039-0.529,0.188-0.951,0.572-1.138c1.008-4.511,2.941-8.094,3.992-12.556
			c1.09-1.67,1.395-4.12,2.283-5.988c0.619-0.812,0.811-2.047,1.428-2.855c0.184-0.992,1.049-2.381,0.285-3.422
			c-1.617-0.679-2.58,1.543-3.709,2.28c-0.562,1.718-1.717,2.854-2.283,4.563c-0.76,1.526-1.523,3.043-2.281,4.566
			c-0.666,1.618-1.096,3.469-1.998,4.852c0.309-0.906-1.107-2.399,0.283-2.568c0.551-0.593,0.902-1.383,1.428-1.999
			c1.004-3.845,2.133-7.565,3.426-11.125c0.607-1.863,1.223-3.723,1.996-5.42c0.324-1.814,2.398-3.244,1.426-5.422
			c-0.621-0.477-2.57-0.459-2.854,0.287c-0.848,0.021-1.184,2.025-1.713,1.424c0.58-1.419,1.057-2.937,1.43-4.563
			c0.605-1.159,1.746-2.993,0.568-4.28c-3.119-1.023-3.959,2.433-5.135,4.28c-0.875,2.547-1.596,5.253-2.854,7.416
			c0.158-4.214,1.191-7.559,0.857-12.265c-0.141-0.902,0.512-1.008,0.283-1.998c0.184-4.193-0.367-9.119,0.285-12.84
			c8.295,0.025,14.986-2.24,21.684-0.854c2.432,2.419,3.254,6.448,4.564,9.984c0.66,0.577,1.447,1.022,1.998,1.712
			c0.84,0.3,1.889,0.393,2.568,0.856c12.471,0.119,24.617-0.999,36.803-0.284c3.121,0.775,6.551,1.245,9.129,2.564
			c1.271-0.222,1.713,0.383,2.852,0.286c0.498,0.647,2.097,0.188,2.285,1.142c0.586,1.223,0.064,2.677,0,4.28
			c-0.137,3.543,0.103,7.859,0,11.698c1.373,0.147,1.89,1.15,3.42,1.141C111.371,63.095,110.744,59.651,110.744,56.405z
			 M101.33,41.285c-3.096-0.991-6.096-2.082-9.699-2.566c-7.748,0.415-15.764,0.183-23.398-0.288c-4.409,0.182-8.227-0.072-13.116,0
			c-0.553-1.063-0.906-2.327-1.146-3.707c1.18,0.037,1.787-0.496,3.141-0.285c5.74-0.481,13.375-0.461,19.118,0
			c7.321-0.192,14.09,0.173,20.254,1.141h5.137C101.404,37.367,101.227,39.185,101.33,41.285z M74.229,78.376
			c-1.485,2.131-4.086,3.14-4.565,6.274c0.403,2.548,1.75,4.146,4.565,4.281c2.963-0.651,4.125-3.104,5.99-4.854
			c2.475-1.137,3.283-3.943,5.992-4.85c2.029,1.965,3.707,4.279,5.705,6.276c2.199,1.795,3.006,4.983,6.562,5.418
			c1.51-0.01,2.17-0.871,3.139-1.424c0.727-1.176,1.049-2.754,1.424-4.278c-1.289-2.135-3.227-3.621-4.279-5.992
			c-1.07-0.83-2.021-1.781-2.854-2.853c-0.396-0.077-0.322-0.625-0.568-0.854c-0.489,0.015-0.729-0.224-0.854-0.571
			c-0.452-0.503-1.311-0.595-1.428-1.425c2.377-2.949,5.848-4.807,7.703-8.275c0.424-1.741,0.508-4.627-0.287-5.993
			c-1.748-0.915-4.096-0.209-5.701,0.573c-0.955,0.38-1.051,1.613-1.715,2.281c-0.787,0.546-1.449,1.211-1.998,1.995
			c-1.733,1.022-2.242,3.273-4.279,3.998c-2.045-1.377-3.536-3.312-5.42-4.85c-1.493-1.933-2.823-4.024-5.705-4.565
			c-1.381,0.332-3.094,0.332-3.993,1.141c-0.039,0.531-0.188,0.953-0.572,1.142c-0.254,2.25,0.56,3.434,1.713,4.278
			c0.609,1.482,1.865,2.318,2.568,3.709c1.062,0.457,1.266,1.775,2.565,1.995c0.455,1.067,1.775,1.271,1.998,2.571
			c-1.164,0.55-1.84,1.58-2.854,2.279C76.209,76.743,75.572,77.911,74.229,78.376z"/>
	</g>
</g>
</svg>
