<?xml version="1.0" encoding="utf-8"?>
<!-- Generator: Adobe Illustrator 16.0.0, SVG Export Plug-In . SVG Version: 6.00 Build 0)  -->
<!DOCTYPE svg PUBLIC "-//W3C//DTD SVG 1.1//EN" "http://www.w3.org/Graphics/SVG/1.1/DTD/svg11.dtd">
<svg version="1.1" id="Layer_1" xmlns="http://www.w3.org/2000/svg"  x="0px" y="0px"
	 width="120px" height="120px" viewBox="4 4 120 120" style="enable-background:new 4 4 120 120;" xml:space="preserve">
<g id="exchange">
	<g>
		<path d="M59.03,44.208c-0.188-1.048-1.049-1.42-1.712-1.998c-0.578-0.656-1.023-1.445-1.711-1.994
			c-1.026-1.354-1.784-2.973-2.57-4.568c-0.764-1.706-1.723-3.219-2.565-4.849c-0.974-1.497-2.303-2.644-2.853-4.565
			c-1.008-1.461-1.604-3.337-2.283-5.135c-0.941-1.435-1.305-3.451-3.421-3.707c-1.774-0.344-2.351,0.503-3.142,1.141
			c-0.052,1.276-0.893,1.768-1.426,2.566c-0.638,0.693-1.1,1.565-1.712,2.284c-0.742,0.589-0.818,1.845-1.426,2.566
			c-0.624,2.137-1.68,3.835-2.566,5.706c-0.967,1.695-1.591,3.737-2.853,5.135c-0.754,2.006-1.968,3.548-3.14,5.135
			c-0.945,1.721-2.341,2.988-3.14,4.852c-1.324,1.431-2.312,3.203-3.423,4.85c-1.399,1.262-2.578,2.747-2.282,5.705
			c1.051,1.811,4.562,0.991,6.846,0.857c1.633,0.203,2.551-0.307,3.995-0.286c0.376-0.29,1.052-0.278,1.427-0.571
			c0.382,0.043,1.062-0.957,1.144-0.281c-0.44,9.164-0.621,18.59-0.857,27.957c-0.234,7.061-0.383,13.809,0,20.828
			c-0.091,0.936-0.658,2.336,0,3.137c0.213,0.928,1.413,0.867,1.997,1.428h1.711c0.439-0.606,1.973-0.123,2.284-0.856
			c0.88-0.069,1.612-0.291,2.28-0.569c2.485-0.496,5.682-0.287,8.846-0.287c2.967,0,6.081,0.395,7.989-0.856
			c0.739-1.728,0.61-4.173,0-5.991c-0.059-1.082-0.254-2.027-0.573-2.851c-0.279-1.421,0.345-1.938,1.141-2.282
			c0.499-4.314,0.242-9.035-0.283-13.125c-0.475-4.186-0.016-9.305-0.857-13.124c-0.268-4.295-1.084-8.046-0.857-12.839
			c0.257-0.34,0.349-0.447,0.857-0.566c0.449-0.11,0.971,0.077,1.426,0h2.57c1.599-0.21,3.24-0.377,3.995-1.428
			c0.497-1.815,0.376-5.013,0-6.849C60.747,47.442,59.998,45.714,59.03,44.208z M48.473,52.481
			c-0.212,0.693-0.375,1.493-0.283,2.283c0.095,0.85,0.451,1.084,0.571,1.71c-0.73,0.317-0.559,1.534-0.571,2.569
			c1.708,11.034,0.998,24.49,1.142,37.088c-0.342,1.37-0.403,3.021-1.142,3.993c-0.034,1.179,0.495,1.788,0.283,3.142h-7.699
			c-2.284,0.377-4.166,1.16-6.563,1.426c-0.515-16.145,0.577-33.114-0.569-49.069c-0.294-0.303-2.037-0.59-2.283,0
			c-0.73-0.031-0.459-1.062-0.856-1.428c-0.028-0.734-1.111-0.407-1.141-1.143c-1.741,0.221-2.671-0.372-4.279-0.284
			c0.8-1.862,2.191-3.134,3.138-4.848c1.161-1.409,2.072-3.063,3.139-4.567c1.088-1.574,1.887-3.438,3.136-4.85
			c0.775-1.793,1.647-3.489,2.854-4.851c0.289-2.376,1.58-3.745,1.999-5.989c0.393-0.462,0.806-0.905,1.14-1.43
			c0.15-0.228,0.298-0.463,0.287-0.855c0.242-0.053,0.267,0.113,0.283,0.286c1.246,2.178,2.393,4.456,3.708,6.561
			c1.449,1.976,2.574,4.278,3.708,6.563c1.164,2.262,2.312,4.535,3.996,6.276c1.105,0.607,1.362,2.062,2.283,2.855
			c0.201,1.509,1.513,1.909,1.712,3.421C53.464,51.383,50.077,51.04,48.473,52.481z M105.818,66.462
			c-1.248-0.178-2.111-0.737-3.424-0.856c-1.045-0.095-1.584,0.317-2.281,0.571c-1.137,0.185-1.146-0.756-2.282-0.571
			c-1.601-2.819-0.726-8.324,0-11.411c0.185-4.287,0.323-8.617,0.571-12.84c-0.242-2.992-0.373-6.095-0.287-9.412
			c-0.344-2.417,0.466-5.439,0-7.421c-0.016-0.073-0.51-0.454-0.57-0.569c-0.205-0.402-0.118-0.734-0.287-1.143
			c-7.025,0.085-13.378-0.504-20.539-0.283c-0.408,0.16-0.695,0.445-0.854,0.856c-0.319,0.918-0.487,1.987-0.858,2.851
			c0.455,13.621-0.046,28.199,0.858,41.37c-2.053-0.093-4.625,0.625-5.991,0.285c-2.342-0.06-4.606-0.039-5.421,1.426
			c-0.216,1.451,0.283,2.188,1.141,2.568c0.961,0.276,1.424,1.051,1.997,1.712c0.304,1.691,1.396,2.601,1.999,3.994
			c0.842,1.248,1.941,2.242,2.567,3.709c1.112,0.882,1.842,2.149,2.565,3.425c0.752,1.336,1.885,2.299,2.567,3.707
			c1.017,0.982,1.457,2.538,2.567,3.424c0.48,1.609,1.802,2.385,2.281,3.996c1.051,0.946,1.549,2.446,1.996,3.991
			c0.741,1.353,1.227,2.961,2,4.28c0.221,3.199,1.148,5.695,4.848,5.421c2.297-0.271,2.334-2.806,3.709-3.994
			c0.379-2.282,1.645-3.682,2.281-5.707c1.619-3.61,3.393-7.069,4.852-10.842c1.895-3.336,3.044-7.416,5.137-10.556
			c1.146-4.088,4.055-6.406,4.277-11.411C110.186,66.091,107.699,66.579,105.818,66.462z M95.266,65.034
			c0.25,0.916-0.94,0.393-0.858,1.143c-0.566,0.005-0.361,0.778-1.138,0.57c0.213-1.306,1.125-1.917,1.424-3.137
			C95.118,63.851,95.307,64.327,95.266,65.034z M94.691,58.759v3.709c-0.871-0.205-0.838,0.493-1.711,0.284
			c-2.189,1.782-3.459,4.768-4.564,7.134c-0.411,0.88-0.938,2.919-1.714,2.853c0.274,1.188-0.853,0.061,0,0v-1.426
			c-0.504-0.533-0.722,0.231-1.709,0c0.39-1.32,1.302-2.123,2.282-2.854c0.076-1.349,1.248-1.604,1.709-2.565
			c0.322-1.107,1.396-1.46,1.715-2.57c1.031-0.395,1.049-1.801,1.996-2.279C93.303,60.22,93.448,58.94,94.691,58.759z
			 M92.695,67.604c-0.146-0.147,0.205-0.363,0.285-0.285C93.13,67.467,92.775,67.682,92.695,67.604z M81.568,68.173
			c0.26-0.598,1.611-0.1,1.711-0.854c0.73-0.031,1-0.523,1.428-0.855c1.206-0.048-0.004,0.438,0,0.855
			c-0.537,0.033-0.195,0.942-0.854,0.854c-0.58,0.66-0.951,1.525-2,1.713C81.688,69.384,82.199,68.208,81.568,68.173z
			 M82.997,44.777c-0.06,1.204-1.249,2.394-1.999,1.999v-2.281C81.986,44.267,82.098,44.92,82.997,44.777z M80.998,40.786v-1.715
			c0.672,0.008,0.842-0.49,1.713-0.283C82.247,39.562,81.936,40.485,80.998,40.786z M81.285,63.321
			c-0.232-1.466,0.727-1.742,1.994-1.71C83.13,62.695,82.17,62.971,81.285,63.321z M83.854,61.327
			c0.147,0.146-0.209,0.363-0.285,0.284C83.42,61.466,83.775,61.247,83.854,61.327z M84.424,61.042
			C84.395,60.694,84.839,60.866,84.424,61.042C84.452,61.388,84.008,61.216,84.424,61.042z M85.852,59.897
			C85.818,59.554,86.262,59.726,85.852,59.897C85.877,60.245,85.436,60.075,85.852,59.897z M93.839,53.052
			c0.56,0.676-0.083,2.555,0.567,3.141c-0.066,0.502-0.49,0.649-1.139,0.569c-0.396,0.842-1.319,1.153-1.711,1.997
			c-0.803-0.28,0.41-0.762-0.287-1.143c-1.395,0.793-3.332,1.043-4.852,1.714c1.846-3.196,5.645-4.438,6.85-8.274
			C94.354,50.827,93.627,52.405,93.839,53.052z M89.273,38.503c0.353-0.598,0.828-1.072,1.426-1.429
			c0.529-1.37,1.673-2.13,1.711-3.993c-0.148-0.422-0.422-0.717-0.57-1.139c-1.486-0.154-2.113,0.547-3.424,0.57
			c0.984-1.49,1.971-2.979,1.999-5.421c0.966,0.075,2.312-0.222,2.854,0.284v10.842c-0.688,0.203-1.055,0.135-2.287,0.285
			c-0.943,0.48-1.81,1.041-2.565,1.713C87.553,39.607,89.234,39.153,89.273,38.503z M89.273,45.636
			c1.16-1.024,2.34-2.032,3.422-3.138c0.152-0.229,0.299-0.465,0.285-0.856c0.254,0.127,0.513,0.25,0.57,0.568
			c-0.503,1.898,0.416,3.152,0.287,5.423c-0.382,0.405-1.62,0.405-1.999,0c-1.213,0.593-2.565,1.044-3.707,1.712
			c-1.302,0.79-1.909,2.273-3.426,2.852c-0.968,1.029-1.626,2.365-3.14,2.853c-0.504-0.538-0.207-1.882-0.282-2.853
			c1.616-0.471,2.7-1.482,3.991-2.283C86.766,48.642,88.227,47.346,89.273,45.636z M86.419,26.806
			c0.332-0.048,0.509,0.062,0.571,0.286c-0.09,0.958-0.955,1.136-1.713,1.426c-0.459,1.25-1.602,1.823-2.28,2.853
			c-0.194,0.662-0.952,0.764-1.144,1.428c-0.819,0.033-0.492,1.215-1.427,1.141v-1.996c0.515,0.037,0.603-0.35,1.142-0.287
			C83.07,29.924,84.688,28.309,86.419,26.806z M80.711,71.883c-0.052,0.325-0.283,0.157-0.283,0
			C80.482,71.561,80.715,71.727,80.711,71.883z M80.428,26.521h1.141c0.014,0.488-0.211,0.738-0.569,0.855
			c-0.291,0.184-0.295,0.655-0.854,0.57C80.052,27.284,80.189,26.853,80.428,26.521z M71.869,72.736
			c-0.046-0.616,1.012-0.127,1.429-0.284c0.472-0.476,1.675-0.228,2.565-0.282c-0.487,0.938-1.646,1.204-1.428,2.852
			c0.213,0.645,1.602,0.11,2.282,0.285c0.822-0.604,2.103-0.752,2.283-1.998c1.487,0.094-0.638,2.028,0.854,1.998
			c-0.629,1.558-2.209,2.164-2.279,4.279C75.247,77.729,73.85,74.941,71.869,72.736z M80.998,83.866
			c-1.07,0.213-0.618-1.093-1.425-1.142c-0.296-0.66-0.984-0.922-0.858-2c3.18,0.23,3.242-2.651,5.422-3.422
			c0.028-0.449-0.039-0.988,0.57-0.854c-0.139,0.335-0.307,0.645-0.57,0.854c0.146,0.889-1.971,2.512,0,2.569
			c-0.396,0.835-1.393,1.075-1.426,2.278h-0.57C81.835,82.798,81.493,83.409,80.998,83.866z M84.993,90.427
			c0.108-1.06-1.154-0.747-0.856-1.997c-0.846-0.391-1.246-1.224-1.713-1.996c0.378-0.574,0.938-0.966,1.713-1.142
			c1.666-1.74,3.307-3.647,4.85-5.137c0.588-0.562,1.175-1.216,1.996-1.427c0.19-1.711,1.883-1.924,2-3.709
			c0.884-0.065,0.891-1.012,1.142-1.711c0.583-0.367,0.301-1.602,1.142-1.713c-0.69-0.914-0.349-1.004,0-1.996
			c0.604-0.629,0.844,0.366,1.709,0.285c0.885,0.098,1.366-0.662,2,0c-0.826,0.79-1.675,1.559-2.566,2.284
			c-0.404,1.688-2.055,2.13-2.283,3.991c-3.775,3.357-7.223,7.044-9.986,11.413v0.854c4.562,0.566,4.182-3.805,7.703-4.28
			c-0.025-0.345,0.412-0.174,0,0c-0.017,0.369-0.363,0.396-0.283,0.858c-2.158,1.746-3.815,3.984-5.138,6.562
			C85.352,91.782,85.795,90.479,84.993,90.427z M90.699,100.125c-0.231-0.148-0.463-0.297-0.856-0.284
			c-0.041-0.897,0.73-0.979,1.427-1.142C91.482,99.577,90.486,99.249,90.699,100.125z M101.824,75.307
			c-2.238,5.846-4.984,11.182-7.418,16.832c-1.483-0.152-2.115,0.549-3.424,0.571c-1.428,0.17-1.806,2.647-3.424,1.711
			c-0.44-1.014,0.971-0.173,0.856-0.856c0.879,0.215,0.351-0.98,1.427-0.566c0.447-0.889,1.21-1.455,1.997-2
			c0.734-1.549,1.833-2.73,3.138-3.707c0.715-2.078,2.041-3.951,3.139-5.992c0.17-0.316,0.128-0.604,0.287-0.855
			c0.318-0.514,0.615-1.036,0.854-1.428c0.105-0.171,0.459-0.375,0.572-0.57c0.32-0.559,0.287-1.229,0.57-1.713
			c0.082-0.141,0.439-0.393,0.569-0.569C101.229,75.818,101.564,75.146,101.824,75.307C101.798,74.962,102.238,75.13,101.824,75.307
			z M103.252,73.309c-0.909-0.168-0.88,0.534-1.428,0c0.531-1.089,1.049-2.185,1.999-2.854
			C104.707,71.361,102.973,72.062,103.252,73.309z"/>
	</g>
</g>
</svg>
