<?xml version="1.0" encoding="utf-8"?>
<!-- Generator: Adobe Illustrator 16.0.0, SVG Export Plug-In . SVG Version: 6.00 Build 0)  -->
<!DOCTYPE svg PUBLIC "-//W3C//DTD SVG 1.1//EN" "http://www.w3.org/Graphics/SVG/1.1/DTD/svg11.dtd">
<svg version="1.1" id="Layer_1" xmlns="http://www.w3.org/2000/svg"  x="0px" y="0px"
	 width="120px" height="120px" viewBox="4 4 120 120" style="enable-background:new 4 4 120 120;" xml:space="preserve">
<g id="export">
	<g>
		<path d="M117.2,48.5c-0.7-0.8-1.601-1.4-2.4-2.1c-0.7-1.7-2-2.9-3-4.2c-1.5-0.9-2.1-2.7-3.899-3.3c-1.101-1.3-2.7-2.1-3.9-3.3
			c-1-1.5-2.6-2.4-3.9-3.6c-2.5-2.4-5.199-4.7-7.899-7c-1.601-0.8-2.8-2.1-4.2-3c-1.3-1.2-3.1-1.9-4.2-3.3H82.9
			c-0.101,0.4-0.5,0.5-0.601,0.9c-0.7,4.8-0.8,10.3-0.899,15.8C74.3,35.9,70,39.1,65,41.8c-4.4,3.1-8.4,6.7-12.1,10.6
			c-3.6,4-7.5,7.6-9.7,13c-1.6,2.199-2.5,5-3.3,7.899c0,1.5-1.4,3-1.2,4.5c0.2,1.601,1,2.601,2.7,3c1.5,0.101,1.5-1.3,2.7-1.5
			c0.7-0.8,1.9-1.1,2.7-1.8c1.1-0.4,1.9-1.2,3-1.5c0.6-0.9,2.2-0.8,2.7-1.8c2.1-1,3.6-2.5,5.1-3.9c2.1-0.899,3.6-2.5,5.8-3.3
			c0.7-0.4,1.5-0.8,2.7-0.6c1.2-1.2,3-1.9,4.5-2.7c1.601-0.8,3.2-1.6,4.801-2.4c1.1-0.2,1.899-0.7,3-0.9c0.5-0.2,1.3-0.2,1.5-0.6
			c0.8,0.4,1.3-0.9,1.5,0c-0.101,3,0,5.9,0.3,8.5c-0.601,2.101-0.8,4.7-1.2,7c-0.1,1.5,0.1,2.7,0.6,3.601c0.7,0.699,1,1.8,2.4,1.8
			c1.5,0.2,2.1-0.5,3-0.9c0.4-0.899,1.7-0.899,2.1-1.8c1.9-0.8,3.101-2.4,4.801-3.3c2.8-2.601,6.399-4.5,9.1-7.3
			c3.1-2.301,6-4.7,8.5-7.601c1.4-1.3,3-2.5,3.9-4.2c0.899-0.4,1.199-1.4,2.1-1.8c0.4-1,1.7-1.1,1.8-2.4C118.4,50,118,49,117.2,48.5
			z M107.2,54.2c-0.9,0.7-1.7,1.5-2.4,2.4c-2,1.2-3.399,3-5.2,4.5c-0.899,0.8-2.1,1.3-2.699,2.4c-1.4,0.3-1.7,1.6-3,1.8
			c-0.7,1-1.601,1.7-2.7,2.101C90.9,67.9,90.5,68.3,90,68.6c-0.1,0.301-0.6,0.2-0.6,0.601c-0.301,0.2-0.5,0.399-0.601,0
			c-0.399-4.3-0.399-9.1-0.6-13.6c-0.5-1.3-1.601-2-1.8-3.6c-2.9,0.7-5.2,1.9-9.101,1.5c-6.3,1.8-11.2,4.9-16.4,7.9
			c-2.6,1.5-5,3.1-7.3,4.8c-1.2,0.8-2.2,1.8-3.3,2.7c-0.6,0.399-1.1,0.899-1.5,1.5c-0.4,0.1-0.5,0.5-0.9,0.6
			c-0.1,0.3-0.5,0.8-0.6,0.3c1.7-4.2,3.7-8,6.4-11.2c2.9-2.9,5.2-6.5,8.5-9.1c3.1-2.8,6.399-5.3,10.3-7.3c1.7-1.3,4-1.9,6.1-2.7
			c2.5-0.4,4.301-1.6,6.7-2.1c0.7-1.1,1.2-2.4,2.101-3.3v-7.9c0.3-0.1,0.3,0.1,0.3,0.3c3,3.4,5.6,7.2,9.1,10c3.3,3.1,6.7,6,10,9.1
			c1,1.5,1.8,3,3,4.2C109.3,52.8,107.6,53,107.2,54.2z M106.9,83c-1-0.6-1.301-1.9-3.301-1.5c-1.5-0.1-1.199-2-3.3-1.5
			c-2-0.1-2.6,1.3-4.2,1.5c-1.1,1-3.399,0.7-3.6,2.4C91.6,84.6,92,86.6,91.9,88.1c-0.9,0.7,0.3,3.5-0.601,4.2
			C80.2,92.5,70,91.8,58.9,92c-4.8,0.6-11-0.1-15.8,0.6c-4,0-8.2,0.2-11.8-0.3c-1.4-0.2-3.1,0.3-3.6,0c-0.3-1.6-1.6-2.3-1.2-4.5
			c0.2-2.1-0.4-3.5-0.3-5.5C25.7,78.9,25.6,75,25,71.7c0.2-7.5-0.7-14.4,0.3-21.2c3.4,0.2,6.2-0.2,9.4-0.3c2-0.3,2.2,1.2,4.2,0.9
			c1.7-0.5,2.6-1.8,3.6-3c2-1.4,3.4-3.5,5.1-5.1c1.7-1.6,4.5-2.9,4.2-6.4c-0.7-0.6-0.8-1.9-2.1-1.8c-0.8-0.6-2.3-0.5-3.3-0.9h-8.2
			c-4.9-0.7-11.1,0-15.7-0.3c-0.4,0-0.4,0.4-0.9,0.3c-2,0-4.2-0.1-5.5,0.6c-1.1,0.7-2.2,1.5-2.7,2.7c-0.7,1.1-1.7,1.9-2.1,3.3
			c-0.9,4.7-1.8,9.4-1.8,14.8C9.4,61,8.8,66,9.1,71.8C10.5,80.4,10,90.9,11.2,99.7c0.4,0.1,0.3,0.7,0.3,1.2c1.2,1.699,1.9,3.8,3,5.5
			c0.9,0.3,1.6,0.8,2.4,1.199c0.8,0.4,1.7,0.601,2.4,1.2c0.4,0.2,1.6-0.399,1.5,0.3c7.6-0.1,14,0.4,20.9-0.3
			c20.3,0.5,42.1,1.2,61.2-0.899c4.5-2.9,4-10.801,3.899-18.2C107.1,87.6,107.5,85,106.9,83z M15.7,83.9c0.1-0.4,0.6-0.301,0.6,0
			C16.1,84.1,15.8,84.3,15.7,83.9z M15.1,72.4C14.6,72,14.9,70.8,14.5,70.3V67.9c-0.5-1.101,1-0.2,0.9-0.9c0.4-0.1,0.5-0.5,0.9-0.6
			c0.1-2.2,0.6-4,1.2-5.8c0.3-1.9,1.4-3,1.8-4.8c-2.6-1.1-4.1,1.3-4.8,3c-0.7-0.3-0.1-1.9-0.3-2.7v-2.7c0.3-4,1-7.5,1.8-10.9
			c0.8-0.9,1.6-1.9,2.1-3c0.9-0.1,1.4-0.7,2.1-0.9c6.2,1.2,13.7,1,20.9,1.2c-0.3,1.2-1.3,1.7-2.1,2.4c-0.5,0.9-1.4,1.4-2.1,2.1
			c-5.4-0.2-9.4,1.1-14.8,0.9c-1,0.5-2.1,0.9-2.4,2.1c-0.3,1.6,0.7,1.9,0.9,3c0.1,5.5-0.5,10.4-0.3,16.101
			C17.8,67.6,16,69.5,15.1,72.4z M18.4,86.6c0.8-1.1,1.5-2.3,1.5-4.199c0.1-0.7-1.6-0.9-1.8-0.301c-0.8-0.5,0.4-1.399,0-2.399
			c0.7-0.2,0-1.9,0.6-2.101c0.2-1.699,1-2.899,1.2-4.5c0.6,0.5,0.1,2.101,0.6,2.7c0.3,4.9-0.8,9.4,0,13.9c-1.9-0.2-2.2,1.3-3.6,1.5
			C17.5,89.7,18,88.2,18.4,86.6z M20,96.9c-0.6,0.699-0.8,1.8-1.5,2.399v1.8c-0.6-0.1-0.3-1.1-0.9-1.199c0.3-3.7,2.6-5.301,3-8.801
			c0.4,0,0.5,0.101,0.6,0.301c0.1,1.1,0.7,1.8,0.6,3C21.6,95.8,20.3,95.9,20,96.9z M22.7,101.5c0.2,0.4-0.4,1.6,0.3,1.5
			c-0.4,0.8-1.9,0.1-2.4,0c1.4-1.3,1.7-3.8,2.4-5.8c0.6,0.3,0.9,0.899,1.8,0.899C24.3,99.3,23.4,100.1,22.7,101.5z M25.7,103.3
			c0.2-1.899,1.5-2.5,1.5-4.5h3.6c-0.7,0.8-1.9,2.8-0.9,4.2C29.1,103.7,27,103.1,25.7,103.3z M46.3,102.4c-2.8-0.2-4.8,0.5-7.6,0.3
			c0.2-1.101-0.2-1.601-0.6-2.101c-2.8-0.5-3.3,1.4-4.2,2.7h-3c0.8-1.2,1.5-2.5,1.8-4.2h14.2C46.5,99.9,46.1,100.8,46.3,102.4z
			 M99.6,101.2c-2.199-0.101-4,0.2-5.8,0.6c-12.1-0.2-23.2,0.601-35.1,0.601c-1.4,0,0.1-0.9-0.3-1.801c-1.6-0.1-1.3,1.801-2.7,1.801
			h-6.4c0.3-1.101,1.2-1.601,1.2-3C65.1,99.3,80,99.6,94.2,99c1.8-0.6,3.7-1.2,4.5-2.7c0.2-2.3-0.4-3.8-1.2-5.1V89
			c0.4-0.7-0.8-1.1,0-1.2c0.1-1.1,1.8-0.6,2.1-1.5h0.9C99.8,90.9,100.2,96.5,99.6,101.2z"/>
	</g>
</g>
</svg>
