<?xml version="1.0" encoding="utf-8"?>
<!-- Generator: Adobe Illustrator 16.0.0, SVG Export Plug-In . SVG Version: 6.00 Build 0)  -->
<!DOCTYPE svg PUBLIC "-//W3C//DTD SVG 1.1//EN" "http://www.w3.org/Graphics/SVG/1.1/DTD/svg11.dtd">
<svg version="1.1" id="Layer_1" xmlns="http://www.w3.org/2000/svg"  x="0px" y="0px"
	 width="120px" height="120px" viewBox="4 4 120 120" style="enable-background:new 4 4 120 120;" xml:space="preserve">
<g id="eye">
	<g>
		<path d="M118.959,57.117c-0.967-0.537-1.777-1.348-2.305-2.363c-1.562-1.562-2.853-3.379-4.355-4.941
			c-2.363-1.562-4.512-3.281-7.031-4.668c-1.074-0.859-2.422-1.455-3.174-2.637c-1.553-0.43-2.578-1.289-3.818-2.041
			c-2.196-0.479-3.866-1.553-6.387-1.768c-0.859-0.488-2.09-0.645-3.223-0.859c-0.645-0.762-2.363-0.381-2.949-1.191
			c-4.57-0.479-9.189-0.908-13.701-1.445h-9.022c-0.43,0.488-1.504,0.273-2.363,0.322c-0.322,0.645-2.1-0.166-2.314,0.537h-2.627
			c-0.322,0.703-2.1-0.107-2.363,0.586c-3.652,0.059-6.23,1.191-9.619,1.455c-1.504,0.967-3.535,1.338-4.941,2.363
			c-2.197,0.381-3.535,1.553-5.527,2.041c-1.992,1.23-3.711,2.734-5.859,3.809c-0.586,0.918-1.934,1.191-2.627,2.051
			c-1.123,0.479-1.719,1.553-2.9,2.031c-1.562,1.67-3.115,3.34-4.668,4.941c-0.488,1.133-1.24,1.885-2.051,2.637
			c-0.527,1.133-1.23,2.09-2.09,2.9c0.273,0.859-0.371,0.752-0.273,1.455c-0.479,0.215,0.059,1.387-0.586,1.504
			C11.645,64.529,11,65.125,11,66.463c0.479,1.338,1.455,2.256,2.686,2.9c0.43,1.348,1.611,2.041,2.578,2.9
			c1.348,2.362,3.711,3.7,5.586,5.536c3.594,2.306,7.363,4.513,11.387,6.445c1.826,1.123,3.867,2.147,5.801,3.223
			c1.875,1.123,4.297,1.72,6.123,2.892c4.189,1.719,9.287,2.578,14.609,3.223c5.479,0.488,10.908,1.133,17.188,0.859
			c2.256-0.586,4.728-0.908,6.709-1.769c1.133-0.321,2.528-0.381,3.224-1.123c1.239-0.215,2.266-0.702,3.223-1.19
			c4.248-1.603,7.578-4.082,11.338-6.113c3.33-2.422,7.139-4.355,9.668-7.578c1.553-1.348,3.008-2.793,4.346-4.404
			c1.934-1.024,2.637-3.174,4.141-4.678c0.488-2.578,1.183-4.99,1.396-7.891C120.463,58.729,120.033,57.605,118.959,57.117z
			 M45.756,82.195c-2.529-1.289-5-2.578-7.9-3.486c-2.256-1.396-4.561-2.793-7.305-3.818c-0.107-0.858-1.338-0.586-1.719-1.172
			c-0.596-0.381-1.396-0.547-2.041-0.859c-1.016-0.858-2.52-1.19-3.223-2.313c-1.934-1.769-3.809-3.604-5.527-5.586
			c0.43-2.363,2.412-3.223,3.223-5.264c1.445-1.348,2.734-2.9,4.082-4.355c3.486-2.305,6.875-4.775,10.469-6.973
			c4.141-1.777,7.949-3.77,13.164-4.414c0.479,0.117,0.479-0.264,0.859-0.264h0.908c0.479-0.107,0.537,0.264,0.264,0.264
			c-0.264,0.166-0.527,0.273-0.586,0.596c-0.586,0.107-0.586,0.811-1.182,0.859c-0.859,0.479-1.289,1.455-2.041,2.041
			c-1.074,1.66-2.52,2.9-3.223,5c-2.256,3.164-3.438,7.402-4.082,12.245v6.113c0.537,2.637,1.611,4.678,2.637,6.719
			c0.693,0.859,1.338,1.777,2.031,2.638c0.273,0.479,0.703,0.908,1.191,1.123C45.756,81.717,46.986,82.254,45.756,82.195z
			 M45.482,69.363c-0.156,0.537-0.645,0.752-0.586,1.445C44.193,70.594,44.623,68.992,45.482,69.363z M87.162,71.082
			c0.859-0.537,0-1.826-0.273-2.305c-2.52,0.371-2.363,3.486-2.891,5.85c-0.811,2.041-0.918,4.727-1.777,6.66
			c-0.586,0.645-0.859-0.107-1.719,0c-0.586,0.596-0.156,1.396,0,2.1c-1.504,1.016-2.52,2.521-4.727,2.891
			c0.488-2.842,1.504-5.098,1.776-8.163c0.742-0.908,0.431-2.892,1.173-3.81c-0.05-1.396,0.811-3.115,0.272-4.082
			c-1.72,0.215-1.875,1.992-2.578,3.223c-0.586,1.396-1.073,2.853-1.504,4.355c-0.586,1.338-0.646,3.223-1.444,4.395
			c0,0.919-0.166,1.777-0.597,2.314v1.504c0.215,0.215,0.381,0.479,0,0.537h-1.72c-0.43-3.115,2.472-6.816,0-8.438
			c-2.686,0.166-2.041,3.604-2.959,5.537v2.627c-1.659,0.272-2.147-0.527-2.891-1.172c-1.24,0-1.885-0.703-3.223-0.597
			c-0.117-3.389,1.553-5.049,2.031-7.842c-1.338-1.562-2.842,0.431-3.75,1.133c-0.811,1.66-1.348,3.595-1.777,5.586
			c-0.967-0.487-2.207-0.762-2.9-1.504c0.215-1.885,1.182-3.065,1.719-4.678c0.049-0.537,1.611-2.256,0.908-3.761
			c-0.156-0.321-0.908-0.155-0.908-0.586c-2.1,0.156-2.627,1.816-3.486,3.224c-0.547,0.586-0.918,1.387-1.133,2.305
			c-0.645,0.273-0.586,2.041-1.504,1.183c-1.182-0.537,0.156-1.67,0.322-2.627c0.166-1.191,0.811-1.885,0.859-3.224
			c0.596-0.762,0.967-1.719,1.182-2.909c0.703-0.586,0.801-2.412,0-2.892c-1.934,0.371-2.578,2.09-3.223,3.75
			c-0.967,1.349-1.66,3.008-2.363,4.679c-0.322-0.107-0.586-0.382-0.537-0.859c-0.322-0.107-0.752-0.537-0.322-0.596
			c0.43-0.527,0.801-1.123,1.182-1.769c0.322-4.131,2.959-5.967,3.223-10.205c-2.041-0.215-2.363,1.182-3.223,2.041
			c-0.908,0.752-1.504,1.826-2.041,2.959c-0.645-0.117,0.059-1.289,0.273-1.455c-0.117-0.967,0.43-1.182,0.586-1.769
			c0.43-1.132,0.967-2.207,1.504-3.222c1.611-1.406,2.09-3.926,4.082-4.941c-0.586-0.547-0.107-1.074,0-1.777
			c1.348-1.23,1.66-3.545,2.9-4.941c0.215-1.992,2.627-3.115,1.719-5.264c-1.611-0.264-2.041,0.693-2.578,1.455
			c-0.908,0.43-1.24,1.338-1.768,2.031c-1.24,1.348-1.992,3.125-2.959,4.678c-0.811,1.768-2.041,3.223-2.578,5.264
			c-0.967,1.611-2.363,2.734-2.959,4.668c-0.479,0.215-0.479-1.387,0-1.172c0.166-0.43-0.312-1.504,0.332-1.455
			c-0.166-1.338,0.645-1.67,0.586-2.9c0.918-1.396,1.66-3.008,2.305-4.668c1.289-1.074,1.885-2.852,3.223-3.818
			c0.918-1.338,2.314-2.148,3.174-3.486c1.396-0.596,2.578-1.348,3.545-2.314c4.453-0.596,10.42-0.967,15.146-0.322
			c1.183,0.156,1.396,1.348,2.627,1.445c0.703,0.703,1.776,0.977,2.638,1.455c1.776,0.967,3.008,2.471,4.668,3.545
			c0.811,1.875,2.852,2.578,3.496,4.619c1.61,1.182,1.934,3.545,2.899,5.264c-0.05,1.074,0.049,1.934,0.321,2.637v4.668
			c-0.215,3.164-1.504,5.371-2.362,7.891C86.459,73.504,87.592,72.312,87.162,71.082z M110.521,66.463
			c-1.123,0.596-1.554,1.885-2.892,2.314c-1.621,1.981-3.604,3.594-5.537,5.254c-4.403,2.695-8.485,5.752-13.428,7.852
			c0,0.371-0.431,0.215,0,0c0.321-1.074,1.133-1.719,1.719-2.637c0.371-1.074,1.074-1.826,1.505-2.9
			c0.536-0.859,0.858-1.981,1.396-2.9c0.381-1.133,0.596-2.362,1.182-3.223c0.156-2.09,0.537-3.975,0.586-6.123
			c0-9.131-4.18-14.131-8.75-18.691c-0.37,0.049-0.645-0.107-0.858-0.264v-0.273c-0.371,0-0.215-0.43,0,0
			c4.238,1.074,8.701,1.934,11.66,4.355c2.948,2.305,6.229,4.297,9.336,6.387c1.024,1.229,2.1,2.422,3.223,3.545
			c0.811,1.504,2.207,2.412,2.91,4.082C112.621,65.008,111.117,65.281,110.521,66.463z M59.447,54.754
			c0.859-1.182,1.562-2.578,2.041-4.082c0.967-1.074,1.504-2.578,2.363-3.76c0.596-1.504,2.197-1.885,2.042-4.082
			c-0.968-0.479-1.289-0.107-2.364,0c-1.826,1.885-3.496,4.082-4.619,6.66c-0.967,0.967-1.553,2.197-2.041,3.545
			c-0.859,0.859-1.719,2.9-0.645,4.082C58.051,57.703,59.174,56.414,59.447,54.754z M69.115,47.771
			c0.156-1.396,1.66-1.455,1.445-3.223c-0.371,0-0.431-0.381-0.908-0.264c-0.479,0.908-1.396,1.445-1.719,2.627
			c-0.537,0.645-1.611,2.256-0.859,3.174C67.719,49.275,68.363,48.465,69.115,47.771z M77.279,59.422
			c-0.43,0.215-0.537,0.645-0.586,1.191c-0.646,0.43-1.289,0.801-2.051,1.123h-4.668c-1.017-0.811-2.041-1.611-2.363-3.174
			c0-1.123,0-2.148,0.322-2.949c0.537,0,0.166-0.967,0.596-1.133c0.479-0.049,0.645-0.527,0.586-1.172
			c-5.801-0.645-7.734,2.578-10.801,4.668c-0.645,1.133-1.338,2.148-2.09,3.223c-0.645,3.496,0,6.875,1.182,9.346
			c2.041,1.074,3.223,3.008,4.99,4.346c1.074,0.117,1.621,0.703,2.637,0.859c1.396-0.098,2.686,0.215,4.082,0
			c0.752-0.098,1.992-0.742,2.305-0.859c0.762-0.156,0.811-0.371,1.191-0.586c0.156-0.059,0.43,0.107,0.586,0
			c0.107-0.059,0.156-0.488,0.273-0.586c0.312-0.166,0.645-0.117,0.907-0.273c0.166-0.155,0.322-0.43,0.537-0.586
			c0.967-0.762,1.504-1.348,2.041-2.051c0.431-0.526,1.183-1.66,1.183-2.031c0-0.332,0.215-0.166,0.321-0.272
			c0.597-1.289,0.381-3.28,0.537-5c-0.371-1.66-0.802-3.271-1.183-4.941C77.338,58.514,77.172,58.836,77.279,59.422z"/>
	</g>
</g>
</svg>
