<?xml version="1.0" encoding="utf-8"?>
<!-- Generator: Adobe Illustrator 16.0.0, SVG Export Plug-In . SVG Version: 6.00 Build 0)  -->
<!DOCTYPE svg PUBLIC "-//W3C//DTD SVG 1.1//EN" "http://www.w3.org/Graphics/SVG/1.1/DTD/svg11.dtd">
<svg version="1.1" id="Layer_1" xmlns="http://www.w3.org/2000/svg"  x="0px" y="0px"
	 width="120px" height="120px" viewBox="4 4 120 120" style="enable-background:new 4 4 120 120;" xml:space="preserve">
<g id="eyedropper">
	<g>
		<path d="M115.5,20.8c-1.6-2.3-3.3-4.5-5.2-6.5c-0.8-0.2-1.399-0.6-1.8-1.2c-1.3-0.1-2.1-0.8-3.4-0.9c-2.5-0.2-4.1,0.6-6.1,0.9
			c-2,1.3-4.1,2.7-5.8,4.3c-0.9,0.9-1.8,1.7-2.8,2.5C89.6,20.8,89,22,87.6,22.4C86.2,24.5,84,25.7,82.4,27.6
			C80.1,28.8,79.1,31.2,76.6,32.2C75,31,73.5,29.8,71.4,29.1C69,29,66.8,29,65.9,30.3c-0.601,1.3-0.2,3.2,0,4.6
			c1.5,2.3,3.5,4.1,5.199,6.2c-2,0-2.3,1.8-3.699,2.5c-0.9,1.2-2.2,2.1-3.4,3.1c-1.9,2.3-4.4,4-6.5,6.2c-4.4,4.1-9,8-13.2,12.3
			c-2.1,2.1-4.5,3.899-6.5,6.2c-2.2,2.1-4.8,3.8-6.8,6.1c-1.5,0.5-2.1,2-3.4,2.8c0.1,1.101-1,1-1.2,1.8c-1,0.101-1,1.301-1.8,1.5
			c-2,2.301-4.2,4.4-5.2,7.7c-0.8,1.3-0.5,3.8-0.9,5.5c-0.6,1.5-1.3,2.8-1.8,4.3c-0.6,0.301-0.8,1-1.2,1.5s-1.1,1-1.5,1.5
			c-0.8,1.101-1.7,2.301-2.1,3.7c-0.2,2.7,0.2,4.9,1.2,6.5c1.7,1.2,4.4,1.3,7.4,1.2c0.1-0.4,0.5-0.3,0.9-0.3
			c2.7-1.101,4.8-2.8,7.1-4.3s5-2.601,8-3.4c3.7-3.4,7.8-6.4,11.7-9.5c3.7-3.4,7.1-7,10.8-10.5c2-1.4,3.8-3.2,5.5-4.9
			c1.8-1.8,3.5-3.699,5.2-5.5C73.4,73.7,76.2,69.2,79.9,65.7c1.199-0.101,1.3-1.4,2.5-1.5c0.5-0.8,1.6-1.1,2.199-1.8
			c1.7-1,3-2.4,4.601-3.4c0.1,1,0.899,1.3,1.5,1.8c0.399,0.8,0.899,1.5,2.2,1.5C93.3,63.1,94.3,61.9,95.1,62c0.4,0.8,1.9,0.1,2.5,0
			c1.5-1.2,1.801-5.4,0-6.5C97.4,54.3,96.2,54,95.8,53c-0.399-1.1-1.6-1.5-1.8-2.8c1.8,0.1,2.3-1.2,3.4-1.8c1.1-0.6,2-1.5,3.1-2.2
			c2.1-1.4,4.3-2.7,5.8-4.6c1.9-1.6,3.5-3.4,5.5-4.9c1.601-1.9,4-2.9,4.9-5.5C116.9,28,116.4,23.4,115.5,20.8z M78,56.2
			c-4.3,3.4-7.5,7.9-11.1,12c-3.5,4.2-7.101,8.3-11.4,11.7C52,84.1,48.1,87.9,44.1,91.6c-1.6,2.2-3.8,3.801-5.5,5.801
			c-1.6,2.199-3.6,4-4.9,6.5c-5.5,1.399-9.3,4.399-13.2,7.399c-1.2,0.3-2.5,0.4-4,0.3c-0.2-0.399-0.5-0.8-0.9-0.899
			c-0.3-3.5,2.4-4,3.4-6.2c1.4-1.7,2.1-4,3.4-5.8C22.3,97.6,22.7,97,23,96.2v-2.5c0.4-0.101,0.3-0.8,0.3-1.2c1.2-1.7,2.3-3.7,4-4.9
			c0.5-1,1.6-1.5,2.2-2.5c1-0.399,1.2-1.699,2.5-1.8c0.6,1.4,1.4,2.5,3.4,2.5c0.6-0.1,0.8-0.6,1.2-0.899c-0.2-2-2.7-1.9-2.8-4
			c0.6-0.301,1.3-0.5,1.5-1.2c1.3,0.6,1.5,2.399,3.7,2.2c1,0.1,0.8-0.801,1.5-0.9c-0.3-1.6-1.6-2.1-2.2-3.4c0.2-0.8,0.9-1.1,1.5-1.5
			c0.4-0.5,0.6-1.199,1.5-1.199c0.6,1.199,1.2,2.5,3.4,2.199c0.4-0.199,0.8-0.5,0.9-0.899c0.1-2.101-1.8-2.101-1.8-4
			c0.7-0.3,0.8-1.2,1.5-1.5c1.1-0.7,1.5,1.399,2.8,1.5c0.9,0,1.1-0.7,1.5-1.2c-0.1-1.5-1.5-1.6-1.5-3.1c1.1-0.7,2.1-1.4,2.8-2.5
			c0.8,0.199,0.6,1.399,1.2,1.8c0.8,0.3,1.2,0.8,2.2,0.899c0.4-0.3,1.1-0.3,1.2-0.899c-0.2-1.7-2.4-1.3-2.8-2.8
			c0-1.4,1.6-1.1,1.8-2.2c0.7-0.7,1.7-1,2.2-1.8c1.1,1.5,1.8,3.3,4.6,3.1c0.7-0.4,1.7-0.5,1.5-1.8c0.1-1.2-1.1-1.1-1.8-1.5
			c-1.1,0.1-1-1-1.8-1.2c0.5-1.5,1.8-2.1,2.8-3.1c1-0.9,2-1.7,2.8-2.8c0.601,0.5,0.2,2,1.2,2.2c0.3,0.7,1.2,1.5,1.8,0.9
			c1-1.7-0.899-3.2-2.2-3.7c2.601-2.5,5.4-4.6,7.7-7.4v-0.9c1.5,1.2,2.8,2.5,4,4c0.9,0.4,1.2,1.4,2.2,1.8c0.6,0.6,1.1,1.4,1.8,1.8
			C80.3,53.1,79.1,54.6,78,56.2z M82.9,45.4c-1.601-0.5-2.101-2.2-3.7-2.8c-0.8-0.9-1.4-1.9-2.5-2.5c-0.4-1.2-1.8-1.5-2.2-2.8
			c-1.2-0.4-1.5-1.8-2.8-2.2c-0.3-0.5-0.7-1-1.2-1.2c0.1-0.5-1.4-1-0.6-1.2c1.5,0.3,2.6,1.5,3.699,2.5c1.101,1,2.4,1.9,3.4,3.1
			c0.5,0.6,0.8,1.3,1.2,1.8C79.7,41.9,81.8,43.8,82.9,45.4C83.3,45.4,83.1,45.8,82.9,45.4z M109.1,25.7c-0.1,1.1,0,2,0.301,2.8
			c0.399,0,0.199,0.4,0,0c-1.4-0.7-1.801-2.5-3.7-2.8c-0.8-0.2-0.601,0.6-1.2,0.6c-0.3,2,0.8,2.7,1.2,4c0.5,0.5,0.6,1.3,1.2,1.5
			c0.1,0.7,1.399,0.8,0.6,1.5c-2.3-1-2.9-3.6-5.8-4c-1.601,0.9,0.2,2.8,0.6,3.7c0.601,1.1,2.5,2.1,1.8,3.4c-2-0.6-2.399-2.7-4-3.7
			c-1.1-1.5-1.899-3.5-4.3-3.4c-0.899,0.4-0.6,1.9-0.3,2.8c1.5,2.4,2.7,5.1,4.9,6.8c0,0.8-1,0.1-0.9-0.3c-0.8,0.2-0.6-0.6-1.2-0.6
			c-1.5-1.6-2.899-3.3-4.3-4.6c-0.5-0.5-1.1-1.1-1.8-1.2c-1.3-0.3-1.2,0.8-1.8,1.2C90.1,35.2,91,35.9,91.3,37.1c0.4,0,0.2,0.4,0,0
			c-1.399-0.9-2.1-2.5-3.7-3.1c-1-0.1-0.8,0.8-1.5,0.9c-0.199,1.4,0.5,2,0.601,3.1c-1.101-0.8-3-0.3-2.8,1.2
			c-1.301,0-1.2-1.4-2.2-1.8c-0.4-0.9-1.4-1.2-1.8-2.2c0-0.5,0.6-1,0.899-1.2c0.5-0.4,1.101-0.5,1.5-0.9c0.601-1.1,2-1.3,2.5-2.5
			c1.4-0.2,1.601-1.7,2.8-2.2c0.9-0.8,1.801-1.5,2.5-2.5C93.7,23,96.7,19.6,100.9,17.3c0.699,0.1,1.199-0.1,1.5-0.3h1.5
			c1.1,0.1,1.699,0.8,2.8,0.9c1.6,2,3.7,3.5,4.3,6.5C110.9,25.5,109.3,24.9,109.1,25.7z"/>
	</g>
</g>
</svg>
