<?xml version="1.0" encoding="utf-8"?>
<!-- Generator: Adobe Illustrator 16.0.0, SVG Export Plug-In . SVG Version: 6.00 Build 0)  -->
<!DOCTYPE svg PUBLIC "-//W3C//DTD SVG 1.1//EN" "http://www.w3.org/Graphics/SVG/1.1/DTD/svg11.dtd">
<svg version="1.1" id="Layer_1" xmlns="http://www.w3.org/2000/svg"  x="0px" y="0px"
	 width="120px" height="120px" viewBox="0 0 120 120" enable-background="new 0 0 120 120" xml:space="preserve">
<g id="face2">
	<g>
		<path d="M108.549,68.768c-0.773-2.168-2.386-3.494-4.262-4.562c-0.957,0.149-1.07-0.55-2.127-0.306
			c-0.631-0.181-1.997,0.377-2.131-0.306c0.457-2.178,1.123-4.152,1.521-6.387c0.066-3.979,0.019-6.236,0-10.342
			c-0.643-4.831-2.237-8.715-3.343-13.082c0.447-1.678,2.261-1.997,2.736-3.648c1.248-0.982,1.742-2.72,2.736-3.957
			c-0.269-1.6,0.256-2.79,0.303-3.648c0.091-1.576,0.32-1.915-0.303-3.044c-4.425-0.718-7.621,2.278-11.562,3.044h-4.561
			c-0.412-0.097-0.582-0.434-1.219-0.304c-2.826-1.13-5.6-2.311-7.906-3.954c-2.535-0.711-5.086-1.407-7.91-1.826
			c-11.412-0.56-20.233,1.467-26.769,5.78c-1.202-0.829-1.984-2.074-3.956-2.13c-2.143-0.012-3.571,0.687-5.171,1.216
			c-0.263,0.445-0.455,0.964-1.217,0.914c-2.654,3.631-5.638,6.935-7.908,10.951c-0.204,1.415-0.696,2.548-0.914,3.953v7.909
			c0.346,1.274,0.621,2.629,0.914,3.955c0.794,0.929,0.727,2.721,1.52,3.65c0.706,2.742,2.022,4.869,2.738,7.604
			c0.976,0.616,0.953-1.203,1.216-0.303c-0.491,2.953-0.065,6.828-0.607,9.732c-0.412,1.545,0.721,3.115,0,3.956
			c-1.136-0.386-2.65-0.394-3.347-1.218c-1.282-0.238-2.666-0.375-2.434-2.129c0.73,0.121-0.165-1.387,0.914-0.912
			c0.533-0.177,1.789,0.367,1.824-0.305c1.16-0.262,1.754-1.084,1.826-2.435c-0.238-2.806-3.207-2.879-6.39-2.737
			c-0.554,0.865-1.725,1.107-2.127,2.127c-0.64,0.779-0.646,2.192-1.216,3.043v4.259c0.237,0.067,0.354,0.256,0.303,0.606
			c2.344,3.641,7.943,4.024,12.168,5.781c1.386,3.883,2.791,7.754,4.868,10.948c1.618,3.657,4.26,6.286,6.387,9.433
			c5.495,5.153,11.029,10.264,20.686,11.256h5.475c1.276-0.348,2.629-0.617,3.957-0.914c2.918-1.642,5.646-3.477,8.211-5.475
			c0.965-1.367,2.371-2.294,3.348-3.65c1.082-1.25,1.857-2.808,3.041-3.955c0.685-1.547,1.627-2.834,2.435-4.26
			c0.794-1.539,1.442-3.224,2.131-4.867c0.701-1.627,1.119-3.539,1.823-5.17c-0.098-1.209,0.702-1.526,0.607-2.735
			c0.521-0.695,0.289-2.146,0.914-2.738c5.692-0.085,9.927-1.632,12.474-4.864C108.5,71.561,108.645,70.281,108.549,68.768z
			 M30.979,59.338c-0.158-0.158,0.219-0.388,0.307-0.305C31.439,59.191,31.065,59.421,30.979,59.338z M88.473,84.586
			c-1.146,3.109-2.582,5.938-3.957,8.823c-1.146,0.978-1.701,2.553-2.736,3.647c-1.016,1.215-2.17,2.293-3.043,3.649
			c-2.549,2.116-5.158,4.167-8.211,5.778c-0.443,0.166-1.57-0.354-1.521,0.305c-2.931,0.094-5.599-0.079-7.907-0.605
			c-2.326-0.615-4.588-1.298-6.088-2.738c-2.186-0.752-3.585-2.295-5.17-3.649c-1.531-1.407-3.215-2.663-4.257-4.562
			c-2.989-2.891-4.795-6.967-6.994-10.647c-0.741-2.201-1.76-4.125-2.13-6.69c-1.212-1.729-1.31-4.572-1.826-6.998
			c0.034-2.67,0.053-5.321-0.304-7.604c-0.393-2.005,0.804-3.735,0-5.17c-0.779-0.69-2.146-0.124-2.736,0.304
			c0.029,0.369-0.444,0.187,0,0c0.064-0.236,0.004-0.6,0.303-0.608c-0.38-1.401,0.482-0.517,0.913-0.608
			c0.851-0.184,1.347,0.084,1.824-0.607c2.22-3.155,1.958-8.793,3.039-13.082c0.214-1.529-0.514-2.118-0.303-3.65
			c4.444,1.135,8.234,2.919,13.082,3.65c4.567,1.111,10.13,1.229,15.816,1.217c0.535-0.173,1.784,0.367,1.823-0.303
			c0.537-0.176,1.789,0.368,1.828-0.305c4.004,3.296,9.623,4.976,17.032,4.867c-0.108,1.526,0.189,2.652,0.609,3.65
			c0.369,1.152,0.588,2.451,1.217,3.345c0.554,2.49,1.822,4.263,3.039,6.085C91.943,70.82,90.555,78.051,88.473,84.586z
			 M95.469,54.471c-1.719-0.397-1.432,1.208-2.738,1.219c-0.586-2.456-1.961-4.125-2.434-6.693c1.961-0.675,4.24-1.034,4.562-3.346
			c-0.344-2.331-3.322-0.652-4.562-0.305c-6.395,0.109-12.193-0.381-16.729-2.129c0.285-1.641,2.248-1.604,2.13-3.651
			c-0.106-1.008-0.914-1.318-1.523-1.824c-2.554-0.12-3.784,1.081-5.778,1.519H58.051c-3.642-0.312-6.928-0.975-10.647-1.216
			c-3.249-0.706-6.172-1.732-9.427-2.433c-1.41,0.312-2.372,1.077-3.347,1.824c-0.575,2.469-1.727,4.358-2.131,6.998
			c-0.428,2.613-0.738,5.342-1.213,7.906c-1.275-1.663-1.241-4.639-2.13-6.689c0.094-3.457-0.25-7.348,0.304-10.343
			c1.329-2.119,2.849-4.044,4.261-6.085c1.126-0.594,1.375-2.07,2.432-2.736c0.238-0.673,1.063-0.762,1.517-1.217
			c0.458-0.357,0.361-1.266,1.22-1.218c2.505,0.533,2.345,3.74,5.475,3.651c1.506,0.083,1.31-1.532,2.13-2.13
			c2.627-2.038,6.718-2.611,10.342-3.651c3.743-0.923,8.278-1.05,13.083-0.912c1.924,0.406,3.82,0.839,5.78,1.218
			c1.392,1.04,3.2,1.664,4.56,2.736c0.982,0.237,1.801,0.637,2.434,1.216c1.102,0.12,2.033,0.405,2.736,0.915
			c2.407,0.129,4.61,0.461,7.303,0.304c2.391-0.755,4.793-1.495,6.69-2.737c1.005,0.455-0.63,0.743-0.304,1.519
			c-0.624,0.086-0.607,0.812-0.909,1.219c-0.786,0.738-1.44,1.605-2.13,2.434c-1.727,0.709-3.596,1.276-3.959,3.347
			c0.254,1.065,1.154,1.483,2.436,1.521c0.645,4.428,2.098,8.044,2.738,12.473v8.212C97.035,56.887,96.445,54.199,95.469,54.471z
			 M100.338,71.811c-1.123,0.4-2.357,0.688-3.957,0.607c0.621-0.492-0.012-2.244,0.605-2.738c1.43-0.648,5.486-1.256,6.391,0.307
			C103.141,71.368,101.504,71.355,100.338,71.811z M79.043,53.559c-0.893,0.328-1.594,0.842-1.521,2.131
			c0.18,0.631,0.641,0.981,0.914,1.52c0.469,0.439,1.42,0.406,1.822,0.913c1.115,0.315,3.004,1.096,4.258,0.304
			C85.382,55.229,82.508,53.41,79.043,53.559z M46.189,55.079c-0.708,1.019-2.243,1.208-2.13,3.043
			c0.2,0.813,0.871,1.155,1.218,1.825c1.562,0.244,2.312-0.326,3.347-0.609c1.854,0.031,3.375-0.276,4.257-1.216v-2.433
			C51.742,54.242,48.208,54.796,46.189,55.079z M79.346,61.468c-2.869-0.03-2.275,4.688-1.824,6.995
			c0.927,0.395,1.42,1.219,3.043,0.914C82.922,67.842,83.207,61.543,79.346,61.468z M48.318,62.989
			c-0.621,0.597-1.057,0.95-1.52,1.825c-0.312,0.584-0.774,1.293-0.608,1.824c0.257,1.975,0.935,3.523,3.041,3.648
			c3.296-0.077,3.416-5.771,1.522-7.605C49.545,62.598,48.605,62.715,48.318,62.989z M62.616,78.807h3.952
			c0.051-0.354,0.481-0.33,0.914-0.305c0.211-0.801,1.385-0.643,1.521-1.521c0.603-0.636,0.233-2.021,0-2.734
			c-1.825-0.311-2.188,0.854-3.649,0.912c-2.328,0.4-3.187-0.666-4.868-0.912c-0.079,0.427-0.667,0.347-0.914,0.607
			c0.025,0.527-0.065,0.945-0.302,1.215c0.381,0.636,0.743,1.283,1.216,1.826C60.965,78.43,62.113,78.292,62.616,78.807z
			 M71.134,85.805c-2.45,1.703-5.796,2.52-10.342,2.127c-1.995-0.367-3.809-2.093-6.087-1.216c-0.589,2.696,1.362,3.322,2.13,4.259
			c0.077,0.094,0.498-0.062,0.606,0c0.173,0.094,0.404,0.525,0.61,0.607c2.015,0.79,4.74,0.811,7.303,0.912
			c1.121-0.483,2.438-0.225,3.648-0.607c0.107-0.035,0.469-0.533,0.607-0.609c0.304-0.159,0.673-0.188,0.914-0.303
			c0.99-0.469,1.854-0.773,2.433-1.217c0.746-0.572,0.979-1.597,0.915-2.738C73.35,86.223,72.762,85.493,71.134,85.805z"/>
	</g>
</g>
</svg>
