<?xml version="1.0" encoding="utf-8"?>
<!-- Generator: Adobe Illustrator 17.0.0, SVG Export Plug-In . SVG Version: 6.00 Build 0)  -->
<!DOCTYPE svg PUBLIC "-//W3C//DTD SVG 1.1//EN" "http://www.w3.org/Graphics/SVG/1.1/DTD/svg11.dtd">
<svg version="1.1" id="Layer_1" xmlns="http://www.w3.org/2000/svg"  x="0px" y="0px"
	 width="120px" height="120px" viewBox="0 0 120 120" enable-background="new 0 0 120 120" xml:space="preserve">
<g id="robot">
	<g>
		<path d="M113.971,99.494v-9.883c-0.435-1.543-0.25-3.704-0.283-5.646c-0.467-0.285-0.309-1.199-0.565-1.693
			c-1.548-2.953-5.972-3.836-9.315-2.823c-0.92,0.276-1.588,0.149-2.259,0.282c0.295-2.073-0.532-3.922,0-5.365
			c-0.707-0.704-0.532-2.288-0.848-3.389c-2.535-0.85-6.103-0.674-8.751-1.412c-6.59-0.295-11.198,0.58-16.941,0.566
			c-0.029-1.759-0.471-3.109-0.281-5.083c1.688-0.286,3.674-0.278,5.362-0.564c1.233,0.198,1.591-0.48,2.824-0.282
			c0.858-0.177,2.435,0.36,2.825-0.282c0.955,0.641,1.369,1.827,3.386,1.412c0.257-0.498,1.037-0.467,1.129-1.13
			c0.347-0.504,0.054-1.643,0.565-1.977V41.049c0.314-1.85,1.275-3.056,1.131-5.362c-1.063-1.95-4.071-1.956-5.93-3.108
			c-0.973,0.125-1.584-0.111-2.259-0.281c-11.634-0.058-22.232,0.919-33.036,1.693c0.429-2.122-1.317-2.068-1.977-3.106
			c0.51-1.463,2.049-1.901,1.977-3.952c-0.04-0.807-1.178-0.517-1.977-0.564c-0.318-0.529-1.094-0.6-1.411-1.13
			c0.8-0.985,2.113-1.462,3.104-2.259c0.944-0.682,1.108-2.92,0.567-4.234c-3.222-1.195-7.061,0.471-5.648,3.952
			c-1.468,0.32-3.087,0.487-2.822,2.541c0.066,1.155,1.176,1.269,2.26,1.413c0.414,0.902,2.031,0.6,2.821,1.13
			c-0.598,1.751-3.192,1.511-3.387,3.669c-0.008,0.948,0.389,1.494,0.848,1.977c0.243,0.348,1.815,0.782,1.129,1.13
			c-2.603,0.972-6.249,0.901-9.036,1.692c-1.394,2.842-0.882,7.586-1.41,11.296v9.316c-0.228,2.396-0.857,5.479,0,7.341
			c0.723,0.292,1.943,1.018,2.822,0.282c0.773,0.451,1.706,0.74,2.824,0.848h14.117c0.008,1.776,0.555,3.021,0.566,4.8
			c-2.828,0.098-5.397-0.066-7.91-0.283c-7.016,0.604-12.594,2.649-20.044,2.823c-0.047,0.329-0.445,0.308-0.849,0.28
			c-0.537,0.97-2.076,0.934-2.541,1.979c-0.289,2.408,1.25,4.332,0.85,5.928c-0.882-0.344-1.791-0.656-3.108-0.562
			c-2.954,0.713-5.279,2.059-6.775,4.233c-1.19,3.891-1.845,8.317-1.693,13.553c0.526,0.698,0.289,2.155,0.848,2.823
			c0.16,0.496-0.343,1.658,0.282,1.693c0.163,0.498-0.342,1.659,0.282,1.694c0.435,2.197,0.344,4.927,2.54,5.363
			c3.011-0.123,2.127-3.39,1.415-5.363c-0.391-2.53-0.841-4.995-1.415-7.341c-0.171-4.406,0.311-8.161,1.415-11.295
			c1.721-1.381,4.271-1.938,7.057-2.258c0.538,4.072,1.455,7.77,1.977,11.857c-0.271,4.786,0.464,8.567,1.127,12.424
			c0.28,0.941,1.469,0.979,1.695,1.976c0.129,1.095,0.729,1.717,1.975,1.694c1.361-0.051,1.857-0.968,1.979-2.26v-4.517
			c-0.508-0.812-0.542-2.095-0.851-3.106c-0.071-7.83-0.764-15.045-1.976-21.738c4.695-0.951,8.461-2.834,13.27-3.67
			c4.657-1.086,10.524-0.963,15.531-1.695c9.896-0.313,18.688-0.666,28.798-0.282c2.155,0.95,5.282,0.929,7.905,1.413
			c0.795,8.234-0.237,18.304,0.562,26.539v4.799c0.404,1.293,0.373,3.018,1.978,3.105c1.707-0.739,1.371-3.525,1.415-5.931V81.986
			c3.234,0.154,7.496-0.721,8.47,1.695v17.786c-0.286,1.589-0.944,5.021,1.13,5.084c1.711,0.113,2.409-0.791,2.258-2.544
			C113.889,102.611,114.074,101.198,113.971,99.494z M28.422,76.905h-0.566v-0.563h0.566V76.905z M69.641,65.613
			c-0.842-0.407-1.72,0.988-1.69-0.282h3.668c-0.084,1.778,0.046,3.343,0.28,4.8C69.104,70.669,70.439,67.075,69.641,65.613z
			 M69.359,60.812c-0.676,0.172-2.049-0.355-2.26,0.282c-6.905,0.036-13.25-0.489-20.325-0.282
			c-1.525,0.455-3.947,0.008-4.803,1.129c-0.792-0.284,0.081-1.198,0-1.693v-6.776c-0.128-2.884-0.425-5.598-0.281-8.752
			c-0.324-1.653-0.319-3.634-0.283-5.646c5.498-0.056,9.771-1.336,15.246-1.411c5.545,0.086,10.874-0.044,16.095-0.282
			c0.454,0.079,0.483-0.268,0.849-0.282c4.529,0.269,10.295-0.7,13.549,0.847c-1.553,6.146-0.631,14.688-0.562,21.738
			c-3.503-0.017-6.602,0.367-9.6,0.85c-2.004-0.215-3.227,0.351-5.086,0.281h-2.539V60.812z M82.062,42.178
			c-0.22-0.062-0.328-0.234-0.279-0.563c-0.291-0.742-1.121-0.951-1.414-1.693c-3.66-1.622-7.102,0.433-7.62,3.671
			c0.101,2.061,0.153,4.174,1.129,5.364C78.686,50.842,82.371,47.23,82.062,42.178z M79.242,44.438
			c-0.074,1.956-2.055,3.332-3.953,2.54C75.848,45.201,77.91,41.271,79.242,44.438z M56.373,43.024
			c-0.812-1.652-3.378-2.745-5.932-2.259c-1.078,0.206-1.792,1.008-2.54,1.412c0.017,0.487-0.214,0.725-0.563,0.847
			c0.044,1.739-0.609,2.779-0.562,4.52c0.415,0.051,0.255,0.681,0.281,1.128c0.353,0.115,0.574,0.364,0.562,0.848
			c1.016,0.583,1.95,1.252,3.39,1.41c1.557,0.054,2.599-0.412,3.67-0.846C55.955,48.44,56.577,46.149,56.373,43.024z M53.266,48.391
			c-1.139,0.492-2.708-0.047-3.669-0.564c0.252-1.161,1.06-1.764,1.129-3.106c0.642-0.488,1.577-0.681,2.823-0.566
			C53.865,45.424,54.106,47.519,53.266,48.391z M73.029,51.778c-2.004-0.608-4.324,0.432-6.494-0.282
			c-2.058,1.109-4.154,0.491-7.058,0.563c-0.603,0.526-1.876,0.384-2.259,1.13c-0.837,0.385-1.235,1.21-1.693,1.977
			c-0.168,1.582,0.149,2.673,0.566,3.67c1.718,1.395,5.058,0.683,7.339,0.283c3.729-0.037,7.837,0.308,9.88-1.411
			C74.488,56.44,74.561,52.686,73.029,51.778z M60.891,56.296c-0.559,0.457-2.055,0.908-2.826,0.282
			c0.103-1.593,1.395-1.997,2.826-2.26V56.296z M65.408,56.296h-1.697c0.228-0.98-0.417-1.087-0.28-1.978
			c0.365-0.39,1.226-0.278,1.978-0.28L65.408,56.296L65.408,56.296z M71.617,56.013c-0.912,0.577-1.924,0.621-3.105,0.283v-2.258
			h3.105V56.013z M46.775,92.434c3.498-0.828,7.355-1.301,11.29-1.692c1.022-4.989-0.135-10.206-3.386-11.857h-4.801
			c-3.371,1.237-6.23,2.992-8.754,5.082c-0.207,0.826-0.682,1.388-1.125,1.976c-0.05,0.424,0.099,1.045-0.285,1.131
			c0.324,1.904-0.539,3.869,0,5.082C41.241,93.034,44.145,92.127,46.775,92.434z M42.258,89.611c-0.191-1.6,0.255-2.565,0.562-3.672
			c1.545-1.744,3.887-2.699,5.928-3.953h4.799c1.218,1.326,1.625,3.462,1.411,6.213c-1.002-0.239-1.689,0.818-1.974-0.283
			c-0.426-0.422-1.19-0.504-1.411-1.129c-1.351-0.146-2.425-1.786-3.956-0.848c-0.165,1.016,0.329,1.365,0.563,1.977
			c0.315,0.191,1.465,0.939,0.85,1.131C47.194,89.657,44.74,89.646,42.258,89.611z M89.689,80.576
			c-0.879,0.99-0.881,2.418-0.566,3.951c0.752,1.277,3.635,1.437,5.365,0.849c0.418-0.996,0.734-2.09,0.566-3.671
			C94.18,80.436,91.335,79.348,89.689,80.576z M92.795,83.684c-0.734,0.17-1.018-0.115-0.847-0.848
			C92.211,83.137,92.988,82.923,92.795,83.684z M78.961,81.705c-0.393,1.82-0.494,4.24,0.562,5.365
			c1.182,0.699,3.174,0.592,5.08,0.564c1.459-0.992,2.541-2.355,2.26-5.083C85.648,80.345,80.75,79.398,78.961,81.705z
			 M81.783,83.965c0.375-0.402,1.599-0.402,1.979,0C83.916,84.646,81.552,84.986,81.783,83.965z M68.512,84.527
			c0.477,1.164,0.465,2.201,1.414,2.826c0.036,0.022,0.625,0.299,0.564,0.281c2.113,0.633,5.328-0.773,5.646-3.107
			c0.118-1.437-0.435-2.199-0.849-3.104C72.668,79.369,68.645,81.465,68.512,84.527z M71.898,83.965v-0.848
			c0.363-0.389,1.688-0.492,1.697,0.283C73.676,84.305,72.359,84.427,71.898,83.965z M108.039,84.527
			c-1.824-0.98-3.781,0.105-3.105,2.543c0.623,0.318,0.939,0.943,1.696,1.129c0.587-0.354,1.188-0.691,1.692-1.129
			C108.264,86.188,108.512,84.999,108.039,84.527z M21.361,90.459c0.893,0.387,0.943,0.061,1.978,0
			c0.988-0.962,0.853-2.377,0.282-3.672C21.512,85.573,20.538,88.771,21.361,90.459z M67.949,98.081
			c-0.619,0.606-2.314,0.133-2.823,0.849c-1.336-0.111-2.358,0.09-3.39,0.281c-2.53,0.012-4.484,0.598-7.057,0.564
			c-2.047,0.399-4.519,0.377-6.778,0.563c-1.419-0.194-1.966,0.479-3.384,0.283c-1.321-0.002-2.296,0.342-2.259,1.694
			c0.938,1.332,3.336,0.847,5.361,0.847h6.213c2.859-0.437,5.755-0.833,9.036-0.847c0.209-0.639,1.582-0.11,2.258-0.283
			c0.333-0.514,1.47-0.223,1.976-0.565c1.293-0.401,3.015-0.373,3.105-1.975C70.031,98.447,69.335,97.918,67.949,98.081z
			 M78.676,103.729c0.512,0.617,0.951,1.309,2.26,1.129c1.258-0.438,1.82-1.569,1.692-3.389
			C81.434,98.875,78.348,100.835,78.676,103.729z M56.936,105.422c-1.814,0.16-3.309,0.646-5.081,0.848h-3.388
			c-0.996,0.414-2.642,0.184-3.387,0.849c1.341,0.446,2.99,0.584,4.517,0.846h6.777c1.818-0.725,5.237,0.155,5.081-2.541
			C60.549,104.048,58.246,105.396,56.936,105.422z"/>
	</g>
</g>
</svg>
