<?xml version="1.0" encoding="utf-8"?>
<!-- Generator: Adobe Illustrator 16.0.0, SVG Export Plug-In . SVG Version: 6.00 Build 0)  -->
<!DOCTYPE svg PUBLIC "-//W3C//DTD SVG 1.1//EN" "http://www.w3.org/Graphics/SVG/1.1/DTD/svg11.dtd">
<svg version="1.1" id="Layer_1" xmlns="http://www.w3.org/2000/svg"  x="0px" y="0px"
	 width="120px" height="120px" viewBox="0 0 120 120" enable-background="new 0 0 120 120" xml:space="preserve">
<g id="face1">
	<g>
		<path d="M112.816,91.127c-0.113-0.863-1.729-0.234-2.062-0.884c0.932-3.199,1.68-6.578,2.062-10.318V67.542
			c-1.088-12.472-3.188-23.936-8.252-32.433c-2.349-4.434-5.855-7.707-9.141-11.203c-3.752-3.029-7.388-6.175-13.268-7.075h-6.779
			c-0.38,0.016-0.41,0.379-0.891,0.294c-2.305-0.146-3.758,0.563-5.893,0.59c-1.6,0.566-3.759,0.566-3.836,2.651
			c0.393,1.479,1.736,2.002,3.836,1.771c1.51-0.452,3.563-0.364,5.307-0.59c3.334,0.4,7.449,0.019,10.314,0.887
			c7.223,4.277,12.713,10.287,16.805,17.688c3.602,7.902,5.354,17.648,6.195,28.305v14.151c-0.294,1.87-0.744,3.581-0.885,5.602
			c-0.521,0.561-0.217,1.947-0.295,2.948c1.004,0.832-1.164,0.979-1.768,1.179c-0.679-0.601-0.109-2.447-0.297-3.535v-4.129
			c-0.753-2.392,0.656-6.947-2.062-7.371c-2.202,0.748-1.12,4.778-1.77,7.076v4.424c-0.19,1.381,0.385,3.528-0.295,4.422
			c-1.113-0.228-1.41,0.357-2.357,0.293v-15.92c-0.202-1.568-0.237-3.301-1.771-3.537c-2.645,0.992-1.968,5.308-2.064,8.846v10.909
			c-1.584-0.187-4.014,0.479-4.719-0.591c3.387-10.063,5.297-23.123,4.719-35.378c4.218-0.406,7.662-1.577,7.961-5.897
			c-2.158,0.3-3.87,1.041-5.896,1.474h-5.599c-9.514-2.186-16.379-7.01-20.938-14.15c-1.185-1.96-1.832-4.457-3.24-6.192
			c-1.4,0.123-2.416-0.144-3.244-0.589c-1.625,0.93-2.589,2.521-3.831,3.832c-1.403,1.155-2.683,2.433-3.835,3.832
			c-1.512,1.045-2.725,2.385-4.127,3.537c-1.393,1.264-3.11,2.196-4.422,3.541c-1.877,0.676-2.968,2.141-5.012,2.652
			c-1.422,1.232-3.794,1.514-5.308,2.653c-2.308,0.249-3.502,1.606-5.895,1.769c-1.604,1.05-4.533,0.777-5.896,2.064
			c-1.042,1.484,1.837,1.91,0.886,3.244c-0.128,1.347-0.452,2.5-0.297,4.127c1.132,5.256,2.199,10.576,4.125,15.036
			c1.101,2.145,2.152,4.339,3.248,6.484c0.479,0.761,1.166,1.566,1.47,2.062c0.168,0.268,0.105,0.602,0.297,0.884
			c0.289,0.429,0.833,0.701,1.18,1.179c0.354,0.492,0.73,1.158,0.883,1.771c-1.54-0.066-1.661,1.287-2.063,2.357
			c-0.054,3.595,1.072,6.005,1.18,9.436H31.74c-0.625-6.059-1.626-11.738-2.655-17.395c-0.106-1.17,0.271-2.825-0.293-3.539
			c0.075-1.449-0.258-2.489-1.474-2.652c-1.358,0.801-1.462,2.863-1.768,4.719c0.194,3.44,0.93,6.34,1.181,9.729
			c0.458,1.308,0.329,3.208,0.587,4.717c0.188,1.375,0.632,3.765,0.297,4.718c-2.105-0.177-4.959,0.262-6.193,0
			c0.615-2.042,0.81-4.498,1.181-6.781c-0.01-12.571-1.319-23.843-4.127-33.609c-0.232-4.945,0.415-9.017,0.292-13.856
			c0.345-0.051,0.321-0.466,0.295-0.884c1.332-3.187,2.717-6.327,4.717-8.845c0.83-1.43,1.649-2.874,2.951-3.835
			c0.948-1.312,1.974-2.541,3.537-3.241c0.894-1.367,2.682-1.839,3.832-2.949c1.629-0.629,2.665-1.855,4.421-2.359
			c1.067-1.195,2.924-1.597,4.128-2.652c1.771-0.588,3.068-1.65,5.011-2.064c0.407,0.014,0.647-0.139,0.886-0.295h5.308
			c3.946,0.838,7.053,3.859,11.791,2.949c-0.205-1.369-1.355-1.785-2.062-2.654c-1.038-0.533-1.712-1.434-2.951-1.771
			c-1.802-1.342-4.213-2.073-6.779-2.651h-5.308c-0.912,0.367-2.096,0.459-3.245,0.591c-1.671,1.076-4.118,1.385-5.599,2.652
			c-2.178,0.674-3.691,2.011-5.603,2.948c-3.661,2.038-6.905,4.493-10.025,7.075c-3.994,5.146-7.916,10.364-9.435,17.985
			c-0.179,2.735,0.23,4.881,0.296,7.371c0.119,1.393-1.211,1.345-0.884,2.948c1.96,11.695,4.172,23.146,3.835,37.146
			c0.368,2.283,0.727,4.58,1.177,6.781c0.109,2.348-0.605,2.814,0.293,4.422c3.868,0.448,9.938,0.74,15.333,0.59
			c3.733-0.299,7.23-0.826,10.318-1.769c0.695-0.583,1.535-1.021,2.358-1.476c0.565-0.571,1.253-2.07,2.064-1.476
			c5.676,3.663,11.437,7.238,20.638,7.37c5.326-1.554,9.021-4.734,12.68-7.96c0.609-1.153,1.572-1.964,2.357-2.946
			c0.848-1.021,1.172-2.562,2.357-3.244c1.262,0.803,3.387,0.739,5.012,1.181c3.279,0.159,6.721,0.157,9.729,0.59
			c1.594-1.256,4.312-1.384,6.484-2.063c2.279-0.668,5.105-0.791,5.309-3.537C113.645,92.268,113.641,91.29,112.816,91.127z
			 M39.112,102.331c-0.245-3.882-2.37-5.886-2.061-10.317c2.587,2.717,5.139,5.469,7.958,7.959
			C43.821,101.533,41.825,102.291,39.112,102.331z M84.518,87.294c-2.438,8.862-7.576,15.03-14.744,19.165
			c-12.443-2.393-20.393-9.285-27.71-16.807c-0.484-1.385-1.73-2.006-2.358-3.24c-0.87-1.001-1.475-2.262-2.359-3.246
			c-1.286-2.448-2.641-4.828-3.835-7.369c-2.111-5.258-4.841-9.898-5.304-16.807c14.365-1.26,22.911-8.336,30.956-15.919
			c0.381-1.289,1.681-1.66,2.065-2.95c0.898-0.669,1.146-1.992,2.062-2.652c-0.084-0.476,0.278-0.507,0.296-0.885
			c0.248-0.055,0.277,0.115,0.294,0.295c3.242,11.506,13.019,17.856,25.058,20.934C87.87,68.043,86.893,78.369,84.518,87.294z
			 M83.924,37.469c0.43,1.537,0.926,3.009,1.479,4.422c0.531,1.534,0.709,3.417,2.652,3.538c0.688-1.08,1.047-2.491,0.881-4.422
			c-0.58-2.854-1.705-5.171-2.65-7.666c-0.789-0.771-1.145-2.22-1.473-2.948c-0.045-0.094-0.517-0.188-0.594-0.295
			c-0.305-0.441-0.408-1.371-0.882-1.769c-0.483-0.407-1.132-0.636-2.063-0.589h-0.59c-0.092,0.397-0.422,0.561-0.293,1.178
			c0.121,1.842,1.547,2.387,1.77,4.128C83.006,34.262,83.277,36.054,83.924,37.469z M52.968,28.918
			c-0.508,0.473-0.862,1.103-1.176,1.771c-3.303,3.086-6.56,6.217-10.32,8.843c-2.005,1.241-3.744,2.745-6.191,3.54
			c-1.519,1.724-5.414,1.069-5.012,4.716c7.083,0.98,11.267-3.469,15.624-6.191c2.15-1.584,3.892-3.578,5.9-5.307
			c1.544-2.188,3.869-3.596,3.831-7.371c-0.708-0.273-0.78-1.185-2.064-0.884C53.487,28.455,53.072,28.531,52.968,28.918z
			 M96.014,47.494c1.088-0.882,1.522-2.412,1.771-4.128c-0.328-2.425-0.756-4.749-1.475-6.782c-0.938-1.814-0.897-4.604-3.539-4.717
			c-1.008-0.125-0.887,0.882-1.477,1.179c0.215,2.935,1.482,4.809,2.064,7.371C93.92,43.102,93.557,46.711,96.014,47.494z
			 M72.428,61.35c-0.324,0.44,0.068,1.006-0.59,1.181c-0.121,2.086,0.081,3.851,0.59,5.306c0.903,0.377,1.477,1.084,2.653,1.18
			c3.198-0.386,4.058-5.432,2.653-8.549C75.958,59.844,73.398,60.044,72.428,61.35z M51.497,68.129
			c0.149-2.314-0.014-4.664-0.591-5.6c-1.098-1.78-2.902-1.381-4.422,0.294c-0.579,2.169-0.891,5.021,0.297,6.782
			c0.904-0.223,0.565,0.809,1.47,0.588C50.176,70.35,50.603,69.008,51.497,68.129z M61.814,80.219c1.5-0.465,3.32-0.611,3.242-2.652
			c-0.17-1.687-2.492-2.156-4.125-1.477c-1.596,0.077-2.917,0.426-2.948,2.066C58.043,80.059,59.796,80.273,61.814,80.219z
			 M71.249,89.064c-1.003-0.864-1.413-2.323-2.356-3.246c-3.24-0.287-4.886,1.014-6.49,2.357c-0.754-1.203-1.631-2.295-3.828-2.062
			c-0.761,0.321-1.418,0.747-1.771,1.476c-0.96,0.221-0.898,1.462-1.477,2.062c-1.488-0.477-1.932-1.998-4.126-1.77
			c-0.492,0.489-1.194,0.771-1.179,1.77c0.519,1.959,2.975,2.811,5.012,2.358c0.184,1.487,1.086,2.255,1.77,3.241
			c2.543,1.852,7.329,2.285,10.908,1.477c1.116-0.752,1.992-1.739,3.246-2.358c-0.141-0.925,0.791-0.778,0.881-1.474
			c0.691-0.099,0.288-1.287,0.885-1.477c2.285-0.969,5.125-1.521,5.604-4.128C75.984,85.119,74.322,89.251,71.249,89.064z
			 M57.685,91.127c-0.259-0.947,0.976-0.404,0.889-1.18c1.615-0.047,1.595,1.549,2.947,1.77c3.119,0.562,3.242-1.865,5.601-2.064
			c0.039,0.552,0.194,0.986,0.59,1.182C66.296,93.836,59.369,93.914,57.685,91.127z"/>
	</g>
</g>
</svg>
