<?xml version="1.0" encoding="utf-8"?>
<!-- Generator: Adobe Illustrator 16.0.0, SVG Export Plug-In . SVG Version: 6.00 Build 0)  -->
<!DOCTYPE svg PUBLIC "-//W3C//DTD SVG 1.1//EN" "http://www.w3.org/Graphics/SVG/1.1/DTD/svg11.dtd">
<svg version="1.1" id="Layer_1" xmlns="http://www.w3.org/2000/svg"  x="0px" y="0px"
	 width="120px" height="120px" viewBox="0 0 120 120" enable-background="new 0 0 120 120" xml:space="preserve">
<g id="face-man">
	<g>
		<path d="M113.354,38.974c-2.115-0.101-3.195,0.839-5.144,0.909c1.039-1.781,2.492-3.737,1.817-6.355
			c-0.74-0.17-0.646-1.172-1.817-0.908c-0.271-1.1-1.708,0.631-1.815-0.305c0.033-3.963,0.576-8.441-3.026-8.775
			c-4.664,1.388-4.818,7.287-8.168,9.988c-0.677-1.244-1.604-2.231-2.119-3.632c-3.927-4.048-8.203-7.736-13.923-9.987
			c-5.115-2.854-10.754-5.185-17.854-6.053h-5.146c-1.628,0.089-3.114,0.318-4.239,0.909c-2.996,0.431-4.835,2.021-7.264,3.026
			c-4.16,2.797-8.567,5.35-12.102,8.775h-1.815c-0.029,0.778-1.184,0.433-1.214,1.211c-0.775,0.023-0.432,1.409-1.207,0.605
			c-0.254-2.37-1.563-3.684-1.816-6.054c-0.781-1.235-1.068-3.058-1.819-3.934c-0.365-0.429-0.805-0.41-1.208-0.908
			c-0.847,0.161-1.573,0.444-2.42,0.604c-1.437,1.896-1.238,5.424-1.214,8.776c-0.953-0.427-1.814-1.276-3.027-0.604
			c-1.894,1.563-0.375,5.21-0.3,7.565c-1.179-0.74-1.627-2.206-3.937-1.815c-1.22,0.695-0.889,2.942-0.905,4.842
			c-0.161,1.856,0.346,4.381-0.303,5.749c-0.949-0.911-3.326-0.787-3.937,0.304c-0.065,0.234-0.006,0.596-0.302,0.606
			c0.788,3.447,2.28,6.194,3.632,9.077c1.329,2.704,2.258,7.089,6.052,6.355c0.487-2.148-1.191-4.347-1.815-6.355
			c-0.771-2.151-1.742-4.109-2.422-6.355c3.452-0.181,3.039-4.224,3.027-7.868c0.951,0.634,2.529,1.319,3.934,0.604
			c1.282-1.14,0.855-3.986,0.909-6.354c1.638,0.023,2.33-0.899,3.028-1.815c0.195-1.319-0.396-3.422,0.303-4.237
			c0.634,2.09,1.609,3.834,2.119,6.053c-2.372,4.289-4.183,9.135-4.842,15.131c-0.019,2.509,0.13,5.173-0.306,7.264v2.421
			c-0.181,0.627,0.376,1.989-0.302,2.119c-1.382,0.17-1.884-0.537-3.33-0.302c-1.101,0.31-1.872,0.951-3.025,1.209
			c-1.633,2-3.525,3.739-3.025,7.868c1.954,3.38,5.92,5.714,11.194,4.843c1.347,6.503,4.654,12.64,7.871,16.947
			c0.358,0.479,1.193,1.221,1.21,1.514c0.029,0.573,4.37,4.528,4.542,4.538c0.35,0.02,0.132,0.191,0.301,0.305
			c0.579,0.383,1.107,0.599,1.514,0.906c0.218,0.168,0.339,0.424,0.606,0.604c0.906,0.631,1.828,1.307,2.723,1.817
			c0.432,0.247,1.046,0.347,1.512,0.604c1.181,0.652,3.176,1.853,4.235,2.117c0.777,0.193,0.958,0.467,1.517,0.604
			c0.388,0.099,0.638,0.237,0.905,0.306c0.39,0.098,0.643,0.233,0.908,0.301c0.522,0.132,0.715,0.162,1.212,0.305
			c1.167,0.328,2.829,0.747,3.632,0.906c1.092,0.219,2.87,0.414,3.631,0.604c1.602,0.402,2.833-0.296,3.936,0.305h4.232
			c3.561-0.479,6.874-1.199,9.384-2.726c2.849-1.289,4.781-3.491,7.263-5.146c3.265-3.599,6.381-7.342,8.776-11.801
			c1.158-2.273,2.332-4.529,3.029-7.264c0.6-1.111,0.832-2.598,1.207-3.934c0.536-1.184,0.313-3.116,1.213-3.936
			c5.071,1.018,8.969-1.71,11.196-4.54c0.664-1.512,0.638-4.11,0.302-5.446c-0.181-0.726,0.146-1.26,0-1.814
			c-0.031-0.132-0.534-0.74-0.607-0.909c-0.403-0.992-0.517-1.513-0.901-2.119c-0.435-0.673-0.672-0.663-1.213-0.906
			c-0.105-0.049-0.181-0.536-0.306-0.606c-0.312-0.182-1.159-0.052-1.207-0.604h-2.421c-0.689,0.22-1.549,0.269-2.12,0.604
			c-0.687-0.052-1.332,1.455-1.815,0.606V45.026c-0.322-2.397-0.828-4.617-1.207-6.96c1.051-0.661,1.422-2.008,2.42-2.725
			c0.119-0.785,0.9-0.911,0.904-1.814c0.672,0.13,0.76-1.818,1.213-0.908c0.035,1.477-0.162,3.189,0.305,4.237
			c0.566,0.032,0.207,0.999,0.904,0.906c-0.133,0.845,1.652-0.236,1.514,0.606c-1.038,1.08-1.995,2.241-2.116,4.236
			c0.511,1.616,3.005,1.795,4.843,1.21c1.385-0.933,2.351-2.289,4.537-2.42c-0.255,3.175-2.141,4.72-3.632,6.657
			c-0.849,0.869-1.344,2.088-2.422,2.725c-0.343,0.623-0.464,1.354-0.302,2.119c0.171,0.81,0.805,1.146,1.211,1.512
			c2.514-0.414,3.285-2.564,4.842-3.934c1.201-1.826,2.673-3.382,3.33-5.75C114.799,42.371,114.677,40.072,113.354,38.974z
			 M16.515,66.514c0.389-1.943,2.21-1.867,4.235-1.514c-0.181,1.593,0.225,2.6,0.306,3.934
			C19.121,68.545,17.793,67.555,16.515,66.514z M93.382,63.186c-0.675,0.131-0.122,1.49-0.302,2.117
			c-0.682,0.129-0.01,1.605-0.605,1.816c0.176,0.982-0.205,1.406-0.305,2.117c-0.273,0.531-0.104,1.512-0.604,1.816
			c-0.5,2.627-1.24,5.014-2.422,6.961c-3.82,8.99-9.386,16.239-17.855,20.578c-0.857,0.051-1.262,0.555-2.12,0.604
			c-0.254,0.654-1.928-0.113-2.114,0.606c-6.539,0.284-11.868-0.644-16.646-2.118c-0.964-0.649-2.39-0.84-3.331-1.515
			c-1.036-0.476-2.086-0.938-3.025-1.512c-2.032-0.994-3.551-2.501-5.446-3.634c-3.132-3.125-5.941-6.567-8.172-10.59
			c-2.006-4.148-3.431-8.877-4.841-13.621c-0.046-4.896-0.496-9.391-0.303-14.525c0.423-1.796,0.261-4.177,0.908-5.749
			c0.079-1.034,0.763-1.453,0.604-2.725c-0.799-0.665-0.485-1.299-0.3-2.42c0.696-0.512,0.398-2.02,1.208-2.422
			c-0.115-1.323,0.865-1.555,0.91-2.722c0.698-0.515,0.399-2.022,1.207-2.422c-0.183-1.297,0.989-1.235,0.913-2.42
			c2.367-2.473,5.287-4.396,8.472-6.055c3.592-0.973,5.825-3.532,9.383-4.842c2.239-0.48,3.905-1.537,6.654-1.512h0.607
			c-0.055-0.262,0.121-0.282,0.303-0.304c2.432-0.287,5.493,0.482,7.866,0.604c9.875,2.536,18.156,6.663,24.515,12.713
			c-0.082,1.193,1.297,0.924,1.211,2.118c0.92,0.188,0.592,1.628,1.513,1.816c0.401,1.415,0.881,2.751,1.516,3.934
			c0.117,0.79,0.152,1.66,0.604,2.118c0.182,0.628-0.375,1.986,0.301,2.117C93.672,50.561,93.814,57.162,93.382,63.186z
			 M98.525,59.855c2.088,0.706,2.953-0.365,4.842-0.604c0.8,1.117,0.596,3.238,0.607,5.146c-1.025,0.287-1.591,1.03-2.422,1.512
			c-1.291,0.021-2.115,0.506-3.634,0.303C98.376,64.346,98.234,61.884,98.525,59.855z M80.672,44.423
			c-3.588,0.142-8.135-0.669-8.775,2.42v1.21c0.945,2.08,4.209,1.844,7.262,1.816c1.277,0.337,1.479,1.748,3.33,1.513
			c1.05-0.464,1.938-1.088,2.117-2.422c0.07-2.085-1.371-2.662-2.117-3.934C81.714,44.993,81.045,44.854,80.672,44.423z
			 M44.053,45.936c-1.773-0.17-3.744,0.385-5.145,0.604c-1.811,1.62-5.02,1.841-5.446,4.842c0.226,1.891,1.279,2.958,3.024,3.329
			c2.568-0.157,3.052-2.396,5.447-2.725c2.395,0.176,4.377-0.062,5.449-1.209c0.312-0.798,0.362-1.859,0.303-3.027
			C47.019,46.455,45.801,46.104,44.053,45.936z M73.711,60.159c2.572,0.61,5.227-0.653,5.446-3.329
			c-0.11-1.503-0.64-2.586-1.209-3.634C73.325,51.212,70.922,57.375,73.711,60.159z M41.028,61.975
			c1.503-0.007,2.093-0.932,3.025-1.514c0.625-2.281,0.027-4.493-1.21-5.75C37.777,53.689,36.918,61.303,41.028,61.975z
			 M66.146,74.988c0.361-1.353,0.774-2.655,0.602-4.54c-0.98-1.339-0.977-3.664-2.115-4.843c-1.656-0.528-3.938-0.463-3.933,1.514
			c0.077,1.334,1.228,1.594,1.512,2.723c0.295,1.219,1.613,1.412,1.513,3.025c-2.248,0.777-4.99-0.413-7.868,0
			c-0.675-0.836-1.899-1.126-2.421-2.116c0.764-0.749,1.51-1.517,1.212-3.331c-2.366-1.926-4.166,0.689-4.844,1.816
			c0.163,1.172-0.541,1.479-0.304,2.727c0.794,2.333,3.148,3.107,4.843,4.537C58.259,76.997,63.99,77.205,66.146,74.988z
			 M66.146,84.369c-0.385,0.017-0.422,0.387-0.908,0.303c-1.051-0.244-1.165,0.451-2.118,0.303
			c-3.761,0.726-11.157-1.988-10.893,2.724c0.938,1.399,3.347,1.657,5.444,1.815c2.608,0.198,5.257-0.146,7.871,0
			c0.84-0.471,1.763-0.859,2.422-1.513c0.487-0.599,0.974-2.204,0.302-3.026C67.973,84.357,67.102,84.318,66.146,84.369z"/>
	</g>
</g>
</svg>
