<?xml version="1.0" encoding="utf-8"?>
<!-- Generator: Adobe Illustrator 16.0.0, SVG Export Plug-In . SVG Version: 6.00 Build 0)  -->
<!DOCTYPE svg PUBLIC "-//W3C//DTD SVG 1.1//EN" "http://www.w3.org/Graphics/SVG/1.1/DTD/svg11.dtd">
<svg version="1.1" id="Layer_1" xmlns="http://www.w3.org/2000/svg"  x="0px" y="0px"
	 width="120px" height="120px" viewBox="4 4 120 120" style="enable-background:new 4 4 120 120;" xml:space="preserve">
<g id="factory">
	<g>
		<path d="M116.145,102.59c0.054-2.915,0.103-5.837-0.888-7.711c-0.467-0.621-1.653-0.52-2.077-1.186
			c-0.959-0.127-2.562,0.391-2.666-0.594c0.381-3.121-0.066-3.804,0-7.709c0.439-6.281,0.59-12.852,1.186-18.98
			c-0.525-0.546-0.969-1.354-1.481-1.48c-0.957-0.238-0.626-0.452-1.187-0.892c-0.547-1.232-2.086-1.475-2.672-2.67
			c-1.971-1.486-3.998-2.919-5.633-4.743c-1.285-0.397-1.861-1.498-2.966-2.077c-0.944-0.834-2.052-1.508-3.267-2.075
			c-2.221-1.334-4.562-2.55-7.113-3.559c-1.04-0.875-2.357-2.146-3.262-2.668c-0.459-0.266-0.936-0.532-1.188-0.595
			c-0.752-0.185-0.711-0.345-1.481-0.296c-0.638,0.55-1.771,0.603-1.782,1.779c-0.898,0.783-0.327,1.692-0.294,2.967
			c-0.425,2.044-0.534,4.407-0.593,6.819c-2.709-2.235-6.504-3.378-9.489-5.339c-2.106-0.366-3.532-1.411-5.636-1.779
			c-0.635-0.649-1.632-0.938-2.967-0.889c-1.606-0.325-1.861,0.706-2.965,0.889c-1.209,2.071-0.252,7.154-0.591,9.192
			c-1.902-0.221-3.016,0.35-4.744,0.299c-0.325-5.508-1.511-10.158-2.077-15.421c-0.181-5.753-1.775-10.085-1.781-16.016
			c0.162-1.878,0.656-4.456,0-6.228c-1.845-1.514-5.444-1.273-8.302-1.775c-0.35,0.142-0.672,0.312-0.89,0.59
			c-0.963,0.124-0.854,1.319-2.077,1.185c-0.41,0.677-1.022,1.151-1.482,1.784c-1.753,9.613-3.396,19.338-3.557,30.543
			c-0.544,1.533-1.078,3.076-1.483,4.743c-2.049,1.708-6.186,1.326-7.118,4.151c-0.41,1.956,0.958,4.267,1.188,6.525
			c0.461,7.646,0.259,15.953,0.297,24.019c0.303,0.393,0.292,1.094,0.594,1.483c0.261,0.176,1.691,0.621,0.888,0.892
			c-5.587-0.352-10.006,0.472-12.455,3.262c-1.012,2.576,0.033,6.166,0.592,8.896c0.797,0.49,1.314,1.257,2.077,1.778
			c5.635,0.588,13.364-0.786,20.76-0.297c1.596-0.381,3.694-0.258,5.337-0.592h6.229c0.936,0.144,1.046-0.533,2.075-0.297h9.191
			c1.103,0.209,1.273-0.506,2.373-0.297c11.503,0.079,25.669-0.106,37.068,0c1.255,0.012,3.178-0.184,3.561,0.297
			c0.146,0.185,0.381-0.293,0.297-0.297c0.234,0.012,0.563,0.295,0.594,0.297c0.681,0.037,0.67-0.645,1.186,0
			c0.145,0.18,0.389-0.287,0.295-0.297c1.063,0.086,0.92,0.271,1.188,0c0.75-0.748,2.178,0.793,2.372,0
			c0.757,0.482,2.046-0.466,2.967,0.297c0.604-0.68,2.46-0.108,3.557-0.297c1.104-0.18,1.836-0.736,2.373-1.482
			C118.732,104.152,116.295,104.516,116.145,102.59z M22.437,101.107c0.811,1.268,1.402,2.75,1.778,4.447
			C21.065,106.188,21.824,102.746,22.437,101.107z M27.182,101.701c-0.594-0.494-1.379-0.797-1.481-1.781h2.669
			C28.659,101.199,27.255,100.785,27.182,101.701z M28.072,105.258c0.266-0.521,0.713-0.865,0.887-1.482
			c0.521,0.566,1.111,1.064,2.078,1.187C30.624,105.637,28.972,105.07,28.072,105.258z M32.224,104.961
			c0.048-0.347,0.542-0.248,0.89-0.297C33.064,105.014,32.573,104.914,32.224,104.961z M36.373,104.961
			c0.009-0.286,0.366-0.229,0.596-0.297C36.959,104.953,36.604,104.898,36.373,104.961z M41.118,101.999
			c-0.692-0.08-0.169-1.304,0-1.483c0.894-0.301,0.526,0.657,0.595,1.187C41.368,101.652,41.186,101.766,41.118,101.999z
			 M44.381,104.664c-0.901-0.283-3.007,0.637-2.967-0.592c0.279-0.17,0.452-0.822,0.595-0.297c0.392,0.104,0.466,0.523,0.89,0.594
			c1.694,0.012,3.382,0.02,3.559-1.483c0.8,0.091,0.531,1.249,1.187,1.483C47.136,105.047,45.381,104.479,44.381,104.664z
			 M45.565,100.516c0.155,0.149-0.212,0.377-0.294,0.297C45.117,100.657,45.487,100.432,45.565,100.516z M111.698,101.107
			c-8.298,0.994-18.745-0.162-26.099,1.777H69.883c-4.014-1.027-8.683-1.396-13.936-1.185c-1.715,0.362-3.357,0.792-5.34,0.889
			c-0.683-0.871-1.119-2.649-0.592-3.856c3.278-1.07,10.023,1.326,10.378-2.668c-0.104-2.955-3.776-2.349-6.819-2.371
			c-3.022,0.24-5.328,1.197-8.303,1.481c0.361-1.47,1.804-3.12,0.591-4.45c-3.363,0-3.892,2.83-5.039,5.045h-3.561
			c1.354-2.996,3.974-4.726,4.45-8.601c-1.088-0.718-2.127,0.713-2.967,1.185c-0.945,0.635-1.768,1.398-2.669,2.08
			c-0.666,0.912-1.456,1.705-2.373,2.368c-0.664,0.916-1.197,1.966-2.077,2.673c-0.775,0.305-1.817,0.353-2.963,0.295
			c1.273-1.199,2.432-2.515,3.854-3.559c1.07-1.798,2.469-3.27,3.559-5.042c1.319-1.448,2.175-3.358,3.559-4.743
			c0.05-1.338,2.271-0.499,2.077-2.078c0.043-0.933-0.76-1.019-1.483-1.186c-0.788,0.003-1.691-0.112-2.075,0.295
			c-1.227,0.455-1.643,1.725-2.964,2.077c-0.575,1.206-1.648,1.914-2.374,2.967c-0.203,0.688-0.984,0.793-1.189,1.481
			c-0.195,0.328-0.982,1.535-1.182,0.892v-3.265c0.766-1.11,1.555-2.201,2.073-3.559c0.896-0.887,1.529-2.027,2.075-3.262
			c0.531-0.762,1.22-1.424,1.779-2.373c0.147-0.247,0.12-0.588,0.299-0.891c0.617-1.062,1.868-1.974,1.482-3.855
			c-0.153-0.734-0.724-1.055-1.186-1.482c-4.051-0.293-4.621,2.896-6.229,5.041c-0.643-0.938-0.312-2.847-0.89-3.854
			c0.017-1.602-0.46-2.701-0.595-4.15c2.333-0.438,4.031-1.508,5.338-2.966c0.921-0.102,1.42,0.682,2.078,0
			c1.634-0.641,1.285-3.265,1.778-5.041v-8.305c0.52-7.392,1.009-14.808,1.779-21.944V26.08h2.966
			c0.514,3.834,0.864,7.834,1.484,11.563c0,6.618-0.113,13.358,0.296,19.575c-0.417,2.318-0.709,5.948,1.184,6.817
			c1.386,0.767,2.093-0.575,3.265-0.889c1.033,0.944,3.348,0.604,5.043,0.889c1.426,0.548,3.751,0.203,5.632,0.298
			c0.505-0.355,1.688-0.769,2.075-1.484c0.297-0.542-0.174-1.695,0.593-2.073c-0.446-1.927-0.7-4.046-0.593-6.524
			c4.752,1.278,8.39,3.668,12.455,5.633c1.531,2.028,2.575,4.542,6.229,4.448c0.791-0.196,1.123-0.849,1.777-1.187
			c0.318-1.82-0.171-3.765,0-6.227c0.23-1.843,0.412-3.74,0.596-5.633c2.092,0.966,3.756,2.37,5.926,3.259
			c2.271,0.793,3.988,2.142,5.637,3.559c1.839,1.226,3.641,2.488,5.041,4.154c1.71,1.255,3.535,2.396,4.745,4.149
			c1.021,0.269,1.848,0.721,2.669,1.188c-0.714,8.182-1.866,15.926-1.482,25.204c0.082,1.074-1.3,0.679-1.779,1.188
			c-0.506,0.382-1.166,0.613-1.186,1.484c-0.076,4.026,5.208,2.696,8.896,2.963v2.672H111.698z M63.955,69.971h-0.894
			c-1.908,0.557-2.836,2.1-2.963,4.447c0.324,0.766,0.747,1.425,1.484,1.777c0.686,0.402,0.979,1.195,2.372,0.89
			c1.039,0.056,0.976-0.999,1.778-1.187c-0.112-1.101,1.199-0.773,0.89-2.072C66.714,71.559,65.699,70.402,63.955,69.971z
			 M75.221,77.383c0.633-0.456,1.107-1.068,1.78-1.482c-0.134-1.221,1.062-1.112,1.187-2.073c-0.635-0.847-1.412-1.554-1.778-2.67
			c-1.58-0.396-2.474-1.483-4.745-1.187c-0.637,0.943-1.6,1.564-1.78,2.967c-0.25,2.027,0.75,2.81,1.486,3.854
			C72.527,77.111,73.544,77.582,75.221,77.383z M89.456,74.418c0.028-1.215,0.058-2.434-0.298-3.262
			c-1.158-1.062-3.104-1.379-5.039-0.889c-0.778,0.998-1.752,1.807-1.781,3.559c0.214,1.665,1.186,2.57,2.372,3.259
			C87.014,76.916,88.463,75.896,89.456,74.418z M100.133,74.711c0.061-1.143,0.01-2.182-0.298-2.961
			c-1.972-1.928-5.995-0.447-6.226,2.076v1.779c0.178,0.015,0.35,0.045,0.295,0.293c0.248,0.842,1.166,1.01,1.779,1.483
			C97.5,76.825,99.309,76.264,100.133,74.711z M89.456,81.535c-1.829-0.246-2.345,0.816-3.263,1.482
			c-1.118,0.562-1.701,1.657-1.483,3.559c0.349,1.338,1.658,1.703,2.671,2.373c1.93-0.348,3.229-1.319,4.15-2.67
			C91.322,84.219,91.387,81.876,89.456,81.535z M59.21,83.611c-0.629,1.246-0.162,2.832,0.295,3.854
			c1.608,0.646,2.896,0.206,5.041,0.593c0.681-0.507,1.274-1.098,1.781-1.779c0.132-1.713-0.134-3.03-0.892-3.854
			C63.379,81.105,60.353,82.242,59.21,83.611z M77.891,82.427c-2.832-1.112-4.533,1.099-4.447,3.854
			c0.433,0.653,0.959,1.215,1.48,1.778c1.412,0.314,2.245-0.324,2.668-0.592c0.17-0.104,0.768-0.152,0.893-0.297
			c0.089-0.102-0.098-0.511,0-0.594C79.73,85.557,78.607,83.611,77.891,82.427z M98.943,82.128c-1.228-0.252-1.69,0.337-2.075,0.593
			c-0.875,0.586-2.003,1.029-1.776,2.373c0.6,1.674,1.588,2.961,3.559,3.262c1.424-0.793,2.344-3.195,1.482-5.338
			C99.736,82.721,99.236,82.527,98.943,82.128z"/>
	</g>
</g>
</svg>
