<?xml version="1.0" encoding="utf-8"?>
<!-- Generator: Adobe Illustrator 16.0.0, SVG Export Plug-In . SVG Version: 6.00 Build 0)  -->
<!DOCTYPE svg PUBLIC "-//W3C//DTD SVG 1.1//EN" "http://www.w3.org/Graphics/SVG/1.1/DTD/svg11.dtd">
<svg version="1.1" id="Layer_1" xmlns="http://www.w3.org/2000/svg"  x="0px" y="0px"
	 width="120px" height="120px" viewBox="4 4 120 120" style="enable-background:new 4 4 120 120;" xml:space="preserve">
<g id="fb">
	<g>
		<path d="M108.643,62.572c0.924-9.73,3.793-19.018,2.566-29.953c-0.947-0.861-1.84-1.774-3.994-1.428
			c-0.336,0.14-0.648,0.305-0.854,0.57c-2.115,0.931-3.953,2.136-5.709,3.424c-1.771,1.365-3.846,2.43-5.42,3.993
			c-3.849,2.336-7.449,4.917-11.129,7.418c-3.769,2.41-7.236,5.124-10.556,7.988c-1.577,1.468-3.049,3.036-4.85,4.281
			c-0.521,1-1.851,1.194-2.281,2.281c-0.597,0.169-0.924,0.601-1.427,0.856c-0.088,0.422-1.2,1.228-1.427,0.568
			c-0.186-3.777,0.262-7.984,0.285-11.979c0.023-4.104-0.188-8.211,0.285-11.415c-0.5-0.86-0.254-1.824-0.285-2.566
			c-0.072-1.66-1.23-2.487-2.568-2.854c-2.928-0.074-3.888,1.818-5.42,3.139c-1.818,1.132-3.209,2.688-5.135,3.708
			c-3.395,2.502-6.79,5.004-10.557,7.134C32.911,52.18,26.139,57.1,19.341,62.003c-0.12,0.545-0.815,0.519-0.571,1.425
			c-0.754-0.09,0.27,1.6-0.855,1.145c-0.844,0.482-1.22,1.441-1.425,2.566c0.591,0.071,0.077,1.254,0.569,1.426
			c0.167,0.595,0.602,0.922,0.855,1.427c1.095,0.43,1.859,1.183,2.57,1.997c2.188,0.854,3.681,2.404,5.702,3.424
			c3.39,2.604,7.63,4.354,10.845,7.135c3.701,2.286,7.522,4.456,11.125,6.844c1.199,0.323,1.85,1.195,2.855,1.713
			c0.88,0.64,1.887,1.154,2.566,1.998c2.305,0.738,2.924,3.164,5.706,3.422c0.735,0.259,1.35-0.256,1.425-0.284
			c1.633-0.562,2.584-1.429,3.424-2.566c0.158-3.391-0.526-5.94-0.857-8.846V70.562c1.463,0.346,2.036,1.582,3.425,1.996
			c0.72,1.088,2.308,1.309,3.14,2.284c2.051,0.611,3.678,1.646,5.989,1.996C84.686,81.77,94.048,86.2,100.938,93.1
			c0.719,0.609,2.89-0.226,3.139,0.854c0.82,0.481,2.115,0.799,3.137,0.288c2.305-1.146,1.762-4.139,1.713-6.562
			C108.77,79.67,108.459,70.453,108.643,62.572z M23.623,66.284c-0.745,0.079-1.229-0.104-1.141-0.858
			c0.877,0.213,0.549-0.781,1.424-0.568C24.024,65.544,23.389,65.479,23.623,66.284z M31.039,60.291
			c-0.146-0.147,0.209-0.362,0.287-0.285C31.475,60.154,31.12,60.371,31.039,60.291z M39.315,54.871
			c-2.276,5.522-4.745,10.852-5.423,17.974c-1.852-0.222-0.873-2.485-0.571-3.708c0.294-1.611,0.957-2.85,1.144-4.563
			c0.728-1.08,0.643-2.973,1.428-3.996c-0.004-1.904,1.027-2.772,1.141-4.563C37.92,55.759,38.359,55.06,39.315,54.871
			C39.285,54.525,39.729,54.696,39.315,54.871z M45.59,54.3c-1.246,2.84-2.875,5.302-3.992,8.272c-0.838-0.239,0.371-0.716,0-1.425
			c0.24-0.332,0.374-0.764,0.285-1.425c0.588-0.554,0.545-1.739,0.856-2.569c0.509-1.773,1.325-3.241,1.427-5.421
			c2.253-1.643,4.784-3.013,6.848-4.851c0.727-0.013,0.346,0.214,0.283,0.569c-0.828,1.266-1.908,2.276-2.851,3.425
			C47.383,51.907,46.684,53.302,45.59,54.3z M56.719,80.548c-0.776-0.259,0.289-0.999,0.285-1.426
			C57.865,79.471,56.803,80.209,56.719,80.548z M57.574,62.29c0.208,0.871-0.492,0.838-0.287,1.712v5.135
			c-0.873,0.551-1.146,1.706-1.994,2.282c-1.631,3.787-3.565,7.278-4.852,11.41c-0.663-0.078-0.658-0.761-0.286-1.142
			c0.159-0.508,0.147-1.184,0.571-1.426c0.158-1.174,0.818-1.847,0.855-3.138c1.151-1.513,1.25-4.077,2.282-5.706
			c0.762-4.469,2.329-8.133,3.423-12.271C57.939,59.639,57.394,61.328,57.574,62.29z M57.859,44.028v5.991
			c-0.08,0.968-0.456,1.639-0.285,2.854c-1.067,0.172-1.236,1.235-1.998,1.712c-0.697,1.873-1.551,3.583-2.566,5.138
			c-0.064,0.22-0.008,0.562-0.288,0.568c-0.044,0.335,0.051,0.811-0.284,0.856c0.273,1.186-0.854,0.059,0,0
			c0.045-0.335-0.048-0.81,0.284-0.856c0.065-0.219,0.011-0.562,0.288-0.568c-0.005-1.621,1.15-2.085,0.854-3.997
			c0.086-0.751-0.394-0.933-1.143-0.854c0.51-1.491,1.173-2.822,1.999-3.995c-0.004-1.997,1.883-2.11,1.71-4.279
			c-0.358-0.972-1.202-1.458-2.566-1.425c1.019-1.172,2.665-1.712,3.71-2.854C58.202,42.354,57.695,43.528,57.859,44.028z
			 M68.699,65.713v2.566c-1.567-0.24-2.139-1.473-3.708-1.711c0.685-1.406,2.885-1.299,3.708-2.566
			C69.92,63.922,68.719,65.248,68.699,65.713z M86.959,51.162c1.775-0.697,3.291-1.654,4.566-2.853c1.201-0.048-0.008,0.438,0,0.854
			c-0.149,0.424-0.422,0.72-0.573,1.143c-0.341,0.896-0.964,1.51-1.142,2.566h-3.14C86.667,52.203,87.164,52.035,86.959,51.162z
			 M90.385,68.279c0.004,0.957,0,1.904-1.145,1.712c-0.471-0.443,0.1-1.112,0.285-1.712H90.385z M85.818,56.013
			c0.539,0.315,1.349,0.363,1.998,0.569c-0.219,1.591-1.002,2.613-1.428,3.994c-0.644,1.072-0.429,2.997-2.566,2.568
			C84.277,60.555,85.123,58.361,85.818,56.013z M75.264,71.132c0.008-0.276,0.35-0.221,0.567-0.286
			C75.824,71.125,75.482,71.068,75.264,71.132z M79.826,56.867c0.207,0.874-0.492,0.841-0.285,1.714
			c-0.629,0.702-1.413,1.25-1.711,2.281c-1.137,0.195-0.678,1.983-1.999,1.997c-0.509-1.363,1.425-2.507,1.144-4.564
			c1-0.899,2.344-1.459,3.139-2.569C80.784,55.805,80.088,56.79,79.826,56.867z M82.68,67.423c0.252,0.224,0.646,0.308,1.144,0.286
			c-0.05,0.807-0.523,1.189-0.57,1.997h-1.431C81.973,68.811,82.324,68.115,82.68,67.423z M82.68,73.7
			c0.262-0.777,0.894,0.397,1.709,0c0.371,0.396,1.35,0.176,1.715,0.571h2.566c1.52,0.192,1.83,1.594,3.711,1.426
			c-0.391,1.91,0.821,2.221,1.139,3.425C90.064,77.156,86.432,75.367,82.68,73.7z M92.951,60.576
			c-0.166,1.072-0.25,2.224-1.715,1.996c0.117-1.878,0.759-3.232,1.145-4.85h1.428C93.904,59.059,93.189,59.58,92.951,60.576z
			 M93.52,53.16c0.488-1.416,0.92-2.885,1.146-4.564c0.323-1.186-0.603-1.111-0.572-1.999c1.476-0.521,2.425-1.567,3.707-2.281
			c1.207-0.792,2.353-1.646,3.425-2.57c0.762,0.6-0.711,1.365-0.57,2.283H99.8c-1.288,3.276-3.083,6.05-4.28,9.416
			C94.848,53.354,94.445,52.994,93.52,53.16z M98.369,60.862C98.643,62.046,97.516,60.922,98.369,60.862
			C98.34,60.517,98.785,60.688,98.369,60.862z M102.934,63.429v21.397c-1.633-0.137-0.776-1.831-0.567-3.139
			c0.133-1.654-0.046-2.996-0.856-3.707c-0.705-0.045-1.184,0.146-1.427,0.567c-0.838-0.237,0.371-0.717,0-1.424
			c0.492-0.174-0.022-1.354,0.569-1.429c0.14-1.192,0.55-2.114,0.856-3.137c-0.149-0.707-0.694-1.018-1.144-1.429
			c0.861-3.325,1.943-6.425,2.568-9.984C103.67,61.539,102.998,62.896,102.934,63.429z M105.789,43.746
			c-0.553,3.821-1.17,7.578-1.711,11.41c-0.889-0.742-2.123-0.012-2.855,0.285c0.817-3.558,2.202-6.547,3.141-9.984
			c0.408-1.019,1.013-1.841,1.142-3.139C106.121,42.27,105.633,43.331,105.789,43.746z"/>
	</g>
</g>
</svg>
