<?xml version="1.0" encoding="utf-8"?>
<!-- Generator: Adobe Illustrator 16.0.0, SVG Export Plug-In . SVG Version: 6.00 Build 0)  -->
<!DOCTYPE svg PUBLIC "-//W3C//DTD SVG 1.1//EN" "http://www.w3.org/Graphics/SVG/1.1/DTD/svg11.dtd">
<svg version="1.1" id="Layer_1" xmlns="http://www.w3.org/2000/svg"  x="0px" y="0px"
	 width="120px" height="120px" viewBox="4 4 120 120" style="enable-background:new 4 4 120 120;" xml:space="preserve">
<g id="feather">
	<g>
		<path d="M105.1,22.7c-0.8-0.6-0.6-2.1-1.399-2.6c-0.3-1.1-1.2-1.5-1.4-2.6c-1.6-1.5-3.5-2.9-4.899-4.6c-1.2-0.3-1.7-1.4-2.9-1.7
			c-0.6-1-2.1-1.2-2.9-2c-0.399,0-1.1,0.1-1.199-0.3C88,9,85.1,8.6,83.2,9.2c-1.7-0.1-2.8,0.3-4,0.6c-4.8,2.1-8.7,5.1-12.4,8.4
			c-3.9,3-7.5,6.3-11,9.8c-3.7,3.2-6.9,7-10.4,10.4C42.3,42.1,38,44.8,35.3,49c-0.6,4.3-0.3,9.8,0.6,13.6c-1.7-1-2.4-2.9-3.5-4.6
			c-2.1,0.5-1.6-1.6-3.8-1.2c-1.7,0.9-2.4,2.7-3.2,4.6c-1,1.7-1.2,4.2-1.7,6.3c-0.1,3.1-0.5,5.899-0.3,9.2c0.4,1.1,0.3,2.6,0.6,3.8
			c1.2,3.8,2.9,7.1,4.9,10.1c0.7,0.4,0.9,1.2,1.4,1.7c0.5,0.7,1.6,0.7,1.7,1.7c-2.8,4.3-5.1,9.1-7.8,13.6c-0.5,3.2-2.1,5.4-2.3,8.9
			c0.9,1.399,2.2,2.399,4.9,2c2.1-0.8,2.7-3,4-4.601c0.8-2.1,2.2-3.5,3.2-5.5c1.3-1.6,2.4-3.399,3.7-4.899c0.5-1,1.1-1.8,1.7-2.601
			c0.5-1,0.9-2.199,1.7-2.899c1.5,0.2,2.6,0.899,4,1.2h4.3c1.2-0.2,2.2-0.7,3.7-0.601c0.8-0.6,2.1-0.8,3.2-1.2
			c0.2-0.6,1.3-0.199,1.4-0.899c0.8,0.1,0.9-0.7,1.7-0.601c1.9-1.199,4-2.199,5.8-3.5c2.2-0.899,3.899-2.3,5.5-3.8
			c2-1.1,3.5-2.7,5.2-4c1.3-2.1,2.8-3.899,3.5-6.6c0.899-0.8,0.8-2.7,1.399-3.8C81.2,73.1,81.9,72.1,81.7,70.1
			C81.1,69.8,80.9,69,80.3,68.7c-0.8-0.2-2.3,0.399-2.6-0.3C78.8,68.3,78.9,67.1,80,67c0.5-0.8,1.5-1,2-1.7c2-1.4,4-3.6,6.1-5.5
			c2-1.8,4.7-3.8,3.2-7.5c-0.3-0.6-1.3-0.4-1.7-0.9c-0.8-0.2-2.3,0.4-2.6-0.3c2.2-0.7,4.3-1.5,6.1-2.6c2.2-0.6,3.7-2.1,5.801-2.9
			c1.3-1.5,2.699-2.9,4-4.3c1-2.9,2.399-5.3,2.899-8.7C106.2,29,105.5,25.9,105.1,22.7z M100.2,32c-1.4,1.2-3.2,2-4.9,2.9
			c-2.2,0.3-4.899,0.1-5.8,1.7c-0.1,2.4,2.9,1.8,4.6,2.3c1.2-0.4,3.101-0.2,3.801-1.2c1,0.8-0.801,1.1-0.601,2
			c-0.5,0.5-1.3,0.8-1.7,1.4c-3.1,1.7-6.3,3.4-9.8,4.6c-1.7,0.7-3.3,1.5-4.899,2.3c-1.801,0.6-3.5,1.3-4.301,2.9
			c-0.699,4.3,3.5,3.8,6.301,4.6h3.5c1.199,0,0,0.4,0,0.9c-0.4,0.2-0.7,0.4-0.9,0.9c-0.7,0.4-1.6,0.7-1.7,1.7
			c-1.5,0.8-2.5,2.1-3.8,3.2c-2.8,1.9-5.3,4.1-8.1,6.1c-0.2,1.4-1.601,1.601-1.7,3.2c0.3,2.5,3.2,2.3,6.1,2.3
			c-0.3,2.2-1.3,3.7-2,5.5c-0.7,0.101-1.3,0.4-1.7,0.9c-0.699,0-1.399,0.2-1.699,0.6c-1,0.2-2.7-0.399-3.2,0.3
			c-0.9,0.2-2.5-0.399-2.9,0.301c-2.2-0.101-4,0.199-4.6,1.699c-0.1,1.7,1.7,1.601,2.9,2c1.8-0.1,2.8,0.5,4.6,0.301
			C67.6,86.5,66.2,86.2,66,87.1c-0.8,0.301-1.2,0.9-2,1.2c-1.1,1-2.9,1.3-4,2.3c-3.1,1.2-6,2.4-9.8,2.9c-2.5,0.2-4.5-0.1-6.1-0.9
			c1.3-3.5,4-5.6,4.3-10.1c1.3-1,1.7-2.9,2.9-4c0.8-1.5,1.7-2.7,2.6-4c1.8-2.7,3.3-5.8,5.2-8.4c0.7-1.6,1.6-3,2.6-4.3
			c0.8-1.4,1.5-2.9,2.6-4c0.7-1.6,1.7-2.9,2.601-4.3c0.899-1.3,2.3-2.1,2.6-4c0-1.3-1.1-1.6-2-2c-3.1,0.5-3.4,3.8-6.1,4.6
			c-0.7,2-2.4,3-3.5,4.6c-1.3,1.3-2.2,3-3.2,4.6c-1.2,1.4-1.8,3.3-3.2,4.601c-0.7,1.899-2.2,3-2.9,4.899c-1.4,1.2-2,3.2-3.5,4.3
			c-1,1.601-2.1,3-3.5,4.301C40.7,81.1,39.1,82.1,38.4,84c-1.3,1.3-1.7,3.5-3.2,4.6c-2.1-0.5-2.8-2.399-3.7-4
			C31,83.8,30.6,83,30.3,82c-0.7-0.6-0.5-2-1.2-2.6c-0.1-1.5-0.3-3-0.6-4.301c0-5.1-0.3-10.5,0.9-14.399c0.9,1.6,1.8,3.2,3.2,4.3
			c1.2,1.2,1.9,2.9,4,3.2c1.2,0,1.8-0.7,1.7-2c0.9,0,1.4-0.4,2-0.601c0.4-0.3,0.5-1.1,0.9-1.399c-1.1-3.8-1.3-8.3-1.4-13
			c1-2.3,3-3.6,4.6-5.2c0.4-0.5,0.6-1.1,1.4-1.2c0.2-0.6,0.6-1,1.2-1.2c0-0.8,0.9-0.7,0.9-1.4c0.7-0.1,0.5-1,1.4-0.9
			c-0.7,3.3-1.4,6.6-1.4,10.7c0.4,1.4,1.3,2.4,2.9,2.6c1.7,0,2.1-1.2,2.9-2c0.1-6.2,1.9-10.8,1.7-17.3c0.3-1.4,1.7-1.7,2.3-2.9
			c1-0.7,1.7-1.8,2.9-2.3c1.6-1.8,3.2-3.5,5.2-4.9c1.8-1.6,3.601-3.1,5.5-4.6c1.101-0.6,1.9-1.5,2.9-2.3c1-0.6,2.2-1.1,2.899-2
			c1.5-0.2,2.601-0.8,3.801-1.4c3,0,5.5-0.5,8.6-0.3c3.4,2.1,6.1,4.8,8.9,7.5C99.8,24.4,100.4,27.8,100.2,32z"/>
	</g>
</g>
</svg>
