<?xml version="1.0" encoding="utf-8"?>
<!-- Generator: Adobe Illustrator 16.0.0, SVG Export Plug-In . SVG Version: 6.00 Build 0)  -->
<!DOCTYPE svg PUBLIC "-//W3C//DTD SVG 1.1//EN" "http://www.w3.org/Graphics/SVG/1.1/DTD/svg11.dtd">
<svg version="1.1" id="Layer_1" xmlns="http://www.w3.org/2000/svg"  x="0px" y="0px"
	 width="120px" height="120px" viewBox="0 0 120 120" enable-background="new 0 0 120 120" xml:space="preserve">
<g id="files">
	<g>
		<path d="M104.943,72.257c-0.248-4.159-0.203-9.766-0.568-15.119c-0.324-2.435-0.383-5.134-0.572-7.705
			c-0.082-2.768,0.062-5.764-1.141-7.416c-1.543-1.155-3.363-0.389-5.992-0.572c0.051,0.619-1.01,0.131-1.424,0.287
			c-0.674-0.009-0.84,0.491-1.711,0.285c-1.217,0.019-1.998,0.477-3.424,0.284c0.291-2.099,0.562-4.874-0.289-6.56
			c-0.596,0.194-0.635-0.453-1.141-0.572c-1.715-0.407-3.562,0.309-5.137,0c-0.609,0.525-2.09,0.192-3.139,0.283
			c-0.688-0.114-0.619,0.523-1.428,0.289c-0.709-0.37-1.383,0.636-1.424,0c-0.055-6.986,0.432-14.51-1.715-19.402h-2.566
			c-1.162,0.213-0.982-0.92-2.281-0.569c-2.844,0.009-5.82-0.116-8.273,0.284c-4.041-0.334-8.088-0.659-12.553-0.571
			c-0.365,0.019-0.395,0.365-0.854,0.287H35.047c-0.908,0.896-1.906,1.706-2.281,3.136c-0.83,1.074-1.844,1.966-2.568,3.14
			c-0.92,0.885-1.605,2.011-2.281,3.14c-0.936,0.968-1.699,2.104-1.998,3.709c-0.686,0.546-1.135,1.339-1.713,1.995
			c-0.287,0.948-1.576,0.896-1.424,2.282c0.053,3.18,0.426,6.038,0.854,8.846c-0.918,13.08-0.412,27.364-0.57,40.511
			c-0.195,1.146,0.275,1.629,0.285,2.566c-0.641,0.516-0.674,1.439-0.285,2.283c3.311,0.852,6.686-0.48,9.988-0.57
			c3.826-0.219,6.779,0.444,10.551,0.284c-0.293,1.416-0.504,2.921-0.566,4.565c0.055,3.842-0.096,7.892,1.994,9.697
			c2.076,0.588,5.174,0.151,7.703,0.285c0.266,3.066-0.594,7.254,0.572,9.414c0.84,0.869,2.09,1.336,3.992,1.146
			c1.572-0.146,3.74,0.312,4.853-0.289c3.422-0.001,5.988-0.861,9.701-0.569c6.215-0.727,13.258-0.622,19.112-1.713h3.14
			c2.396-0.36,4.474-1.039,7.416-0.854c0.569-0.571,1.353-0.934,1.713-1.711c1.312,0.168,1.332-0.95,1.998-1.426
			C105.238,94.409,104.746,83.68,104.943,72.257z M34.477,22.33h0.57v0.571h-0.57V22.33z M33.336,23.755
			c1.205,0.318,1.117,1.929,2.283,2.284c-0.141,0.901,0.514,1.008,0.283,1.997c-1.535-0.555-2.012-2.173-3.137-3.138
			C32.559,24.118,33.33,24.324,33.336,23.755z M32.195,27.754c0.176,0.772,1.193,0.706,1.141,1.708c1.258-0.053,0.08,1.125,0,0
			c-1-0.707-1.795-1.63-2.283-2.852C31.857,26.565,31.77,27.417,32.195,27.754z M29.34,28.894c0.35,0.602,1.076,0.83,1.143,1.709
			c-0.979-0.126-1.598,0.115-2.283,0.286C28.205,29.848,29.012,29.606,29.34,28.894z M43.037,83.1
			c-1.195-0.037,0.473-1.623-0.287-2.285c-1.264-0.121-1.807,0.479-1.996,1.432c-1.521-0.382-0.76,1.521-2.285,1.14
			c-0.959,0.296-0.441-0.89-0.566-1.429c-0.287-0.375-0.271-1.061-0.857-1.143c-1.043,0.102-1.307,0.978-1.713,1.713
			c0.182,1.324-1.561,0.726-2.566,0.856c0.203-2.075,1.336-3.229,1.424-5.42c-1.207-0.614-2.449,0.886-2.85,1.996
			c-1.152,0.657-1.098,2.521-2,3.424c-3.463-0.674,0.055-3.692-0.283-6.278c-0.475-1.17-1.373,1.037-1.713,0
			c0.123-2.504,0.123-3.481,0-5.987c0.268-3.253,0.99-6.048,0.855-9.699c0.055-1.094-0.232-0.106-0.855-0.285
			c0.377-1.337-0.342-4.665,0.287-6.279c-0.164-7.062,0.344-14.799-0.287-21.395c0.939,0.011,1.422,0.479,2.57,0.284
			c3.148-0.845,7.783-0.202,9.982-1.997c0.871-4.532-1.367-8.297-1.428-12.84c1.414-0.015,2.518-0.335,3.709-0.569
			c1.594-0.164,2.527,0.329,3.709,0.569c7.059-0.302,13.062,0.445,19.689,0.569c2.377,0.443,6.314,0.312,7.984,0.575
			c0.477,19.538,0.424,40.323,0.855,59.055c-0.49,1.41-0.443,3.356-1.426,4.279c-1.541,0.398-1.514-0.771-2.568-0.855
			c-6.621-0.055-12.961-0.58-19.115,0.287c-0.82-0.035-1.867,0.152-2.281-0.287c-0.572-0.014-0.764,0.455-1.428,0.572
			C46.262,83.34,44.504,82.916,43.037,83.1z M47.316,97.934c-0.602-3.58-1.588-6.783-1.713-10.841c9.611-1.132,20.577-0.981,30.24,0
			c1.517-0.577,1.373-2.812,2.281-3.993c0.481-15.125-0.865-28.428-0.853-43.082c3.125-0.012,5.565-0.707,8.842-0.567
			c-0.254,2.027-0.198,4.362-0.567,6.273c0.283,14.457-0.455,27.887-1.144,41.369c-0.245,0.91,0.449,0.882,0.57,1.427
			c0.211,0.457,1.397-0.063,1.141,0.856c-0.239,1.853-0.37,3.812-0.284,5.99c-2.328,0.235-4.306,0.829-6.562,1.142
			c-2.064,0.407-4.92,0.024-6.848,0.569c-5.084-0.138-9.615,0.278-13.98,0.854H47.316V97.934z M100.951,104.209
			c-7.686,0.309-14.334,1.646-21.969,1.996c-3.381,0.613-7.631,0.361-11.125,0.857c-3.85,0.054-6.662,1.142-10.842,0.855v-3.141
			c-0.688-0.359,0.156-2.247-0.568-2.565c0.121-0.642,1.406-0.114,1.994-0.287c0.668-0.09,1.072-0.446,1.996-0.282
			c1.555,0.125,2.346-0.512,3.995-0.285c2.399-0.551,5.721-0.178,8.561-0.287c0.123-0.637,1.406-0.116,2-0.282h2.281
			c1.021-0.405,2.789-0.063,3.707-0.573c2.545-0.398,5.098-0.794,7.701-1.139c1.527-1.419,0.607-5.291,0.854-7.99
			c0.189-1.71-0.258-2.784-0.283-4.277c0.396-1.824-0.814-2.037-0.854-3.425c0.643-0.214,0.109-1.6,0.283-2.28
			c-0.199-1.06,0.486-1.226,0.289-2.283c-0.053-1.665,0.494-2.737,0.281-4.565c0.293-2.938,0.562-5.903,0.566-9.127
			c0.455-5.851,0.455-13.267,0-19.117v-0.569c0.26-0.176,0.514-0.347,0.574,0c3.248,0.575,5.916-0.096,9.129-0.285
			c0.623,1.562,0.127,4.247,0.283,6.275c1.305,13.286,0.029,27.658,0.285,41.653c-0.203,1.604-0.367,3.246-0.568,4.851
			c-0.115,1.448,0.623,2.041,1.428,2.567L100.951,104.209L100.951,104.209z M45.887,46.009h8.846
			c0.902-0.139,1.008,0.517,1.998,0.287h6.275c2.371,0.277,3.795-0.39,3.424-2.854c-1.379-1.663-4.832-1.252-7.703-1.426h-9.129
			c-0.363,0.014-0.396,0.363-0.855,0.284h-6.277c-1.693,0.494-4.652-0.277-4.85,1.713c0.078,1.629,2.031,1.392,3.422,1.71
			C42.838,45.638,44.416,45.769,45.887,46.009z M62.438,51.43H41.322c-1.184,0.432-2.904,0.327-2.854,1.997
			c1.07,1.406,3.848,1.104,6.281,1.144h7.699c2.758,0.571,6.496,0.161,9.7,0.282c1.441,0.182,3.672,0.768,4.279-0.567
			C66.969,51.465,64.189,51.961,62.438,51.43z M48.17,64.555h14.836c1.895,0.18,3.404-0.021,3.424-1.712
			c-0.061-1.846-1.771-1.811-3.137-1.998c-5.135-0.697-11.703,0.534-16.262,0c-0.363,0.019-0.396,0.366-0.855,0.287
			c-1.887-0.176-2.928,0.498-4.854,0.285c-1.311,0.397-3.484-0.063-3.135,1.994c0.049,1.471,1.951,1.092,3.422,1.144
			c0.123,0.637,1.406,0.116,1.994,0.286h2.572C47.076,64.979,47.18,64.325,48.17,64.555z"/>
	</g>
</g>
</svg>
