<?xml version="1.0" encoding="utf-8"?>
<!-- Generator: Adobe Illustrator 16.0.0, SVG Export Plug-In . SVG Version: 6.00 Build 0)  -->
<!DOCTYPE svg PUBLIC "-//W3C//DTD SVG 1.1//EN" "http://www.w3.org/Graphics/SVG/1.1/DTD/svg11.dtd">
<svg version="1.1" id="Layer_1" xmlns="http://www.w3.org/2000/svg"  x="0px" y="0px"
	 width="120px" height="120px" viewBox="0 0 120 120" enable-background="new 0 0 120 120" xml:space="preserve">
<g id="file1">
	<g>
		<path d="M98.402,47.042c0.08-1.727,0.724-2.891,0.853-4.566c0.228-4.447-0.051-7.063,0-12.266
			c-0.034-4.432-0.01-8.93-0.853-12.555c-1.795,0.015-3.34,0.271-4.851,0.57c-0.819-0.512-1.653-1.009-3.139-0.855
			c-15.584-0.016-30.713-0.477-46.504-0.284c-0.41,0.157-0.697,0.444-0.857,0.854c-0.662,0.857-1.27,1.775-1.998,2.568
			c-0.535,0.504,0.342,0.834-0.283,1.425c-0.502,0.259-0.881,0.641-1.141,1.142c-1.539,1.508-3.029,3.059-3.994,5.137
			c-1.016,0.506-1.18,1.861-1.998,2.568c-0.805,0.713-0.902,2.137-1.711,2.851c-0.072,1.451-1.234,1.812-1.713,2.854
			c-0.652,0.963-1.867,1.365-1.998,2.854V45.9c0.197,1.707,0.764,3.045,0.859,4.85c-1.027,14.475-0.143,30.861-0.859,45.646
			c0.168,2.399-0.346,5.484,0.289,7.42v1.998c-0.174,0.506,0.832,1.184,0,1.426c-0.449,1.087-0.697,1.814,0,2.852
			c1.264,1.114,3.594,0.284,5.418,0.284c1.607-0.577,3.928-0.446,5.707-0.854c9.266-0.154,15.93,0.408,24.25-0.285
			c7.937-0.82,16.463-0.512,24.818-0.285c2.575,0.355,6.127,0.994,8.561,0.57c0.718-0.519,1.255-1.219,1.429-2.279
			c0.188-1.146,0.854-1.807,1.142-2.854C100.316,84.333,98.872,64.909,98.402,47.042z M43.911,26.499
			c-0.611,0.133-0.543-0.408-0.572-0.857C43.692,25.769,43.927,26.009,43.911,26.499z M41.628,27.643h0.859
			c0.371,1.428,1.373,2.237,2.279,3.138c-0.225,1.174,0.438,1.463,0.287,2.566c-1.34-0.09-1.156-1.698-2.283-1.998
			c-0.414-1.014-1.156-1.695-1.998-2.283C40.938,28.473,41.372,28.146,41.628,27.643z M40.772,33.347
			c0.354,0.882,0.943,1.531,1.715,1.996c-0.262,0.775-1.053-0.238-1.146-0.571c-0.414-0.249-0.904-0.427-0.854-1.141
			c-0.77-0.56-1.365-1.296-1.715-2.282C39.884,31.573,39.858,32.927,40.772,33.347z M36.493,34.204
			c0.688,0.547,0.947,1.523,1.711,1.995c-0.764,0.567-2.516,0.147-3.422,0.571C35.187,35.746,36.013,35.151,36.493,34.204z
			 M92.698,104.956c-1.462,0.127-1.564-1.101-2.855-1.142h-5.989c-10.97-1.049-21.354,0.873-32.241,0.854
			c-1.152,0.269,0.361-1.545-0.57-1.998c-1.283-0.141-0.799,1.479-1.426,1.998h-3.994c-1.303-0.203-2.895,0.322-3.424,0
			c0.395-1.653,1.764-3.362,1.141-5.135c-1.832-0.314-2.047,0.991-2.852,1.711c-0.229,1.29-1.139,1.905-1.143,3.424
			c-1.215-0.114-2.936,0.276-3.707-0.285c0.223-2.522,2.33-4.396,1.713-6.849c-2.285,0.191-2.664,2.281-3.426,3.997
			c-1.055-0.607-0.441-2.396,0-3.144c0.701-0.725,0.652-2.199,1.426-2.851c0.438-2.418,1.816-3.894,2-6.562
			c-0.855-0.713-1.924,0.188-2,1.139c-0.582,0.193-0.936,2.082-1.426,1.428v-2.281c0.359-1.257,1.088-2.146,1.713-3.14
			c0.438-2.322,1.506-4.009,1.996-6.276c0.236-2.004,2.039-4.32,0.855-5.988c-1.26-0.121-1.996,0.279-2.566,0.854
			c-0.693,0.087-1.26,1.755-1.713,1.142c-0.145-11.08,0.504-21.365,0.287-32.521c0.176-1.318-0.643-1.644-0.572-2.855h4.279
			c1.93-0.349,3.834-0.728,6.277-0.57c1.902-0.566,4.266-0.678,5.705-1.711c0.264-0.5,0.096-1.423,0.572-1.711
			c-0.447-2.504-0.654-5.242-1.143-7.703c-0.414-2.535-1.23-4.669-1.428-7.418c2.912-0.173,6.158-1.072,9.129-0.285
			c10.764-0.205,19.917,1.197,30.532,1.142c1.887,0.155,4.153,0.968,5.989,0.286c0.006,1.239,0.095,2.566-0.285,3.422
			c0.544,1.073,0.025,3.205,0.568,4.281c0.459,22.744,0.159,46.248,0.856,68.756C94.157,100.9,94.573,104.076,92.698,104.956z"/>
	</g>
</g>
</svg>
