<?xml version="1.0" encoding="utf-8"?>
<!-- Generator: Adobe Illustrator 16.0.0, SVG Export Plug-In . SVG Version: 6.00 Build 0)  -->
<!DOCTYPE svg PUBLIC "-//W3C//DTD SVG 1.1//EN" "http://www.w3.org/Graphics/SVG/1.1/DTD/svg11.dtd">
<svg version="1.1" id="Layer_1" xmlns="http://www.w3.org/2000/svg"  x="0px" y="0px"
	 width="120px" height="120px" viewBox="4 4 120 120" style="enable-background:new 4 4 120 120;" xml:space="preserve">
<g id="heart">
	<g>
		<path d="M110.051,36.874c-0.893-1.089-1.008-2.96-2.082-3.87c-0.305-1.78-1.799-2.372-2.385-3.874
			c-0.973-0.285-1.6-1.273-2.381-1.787c-0.893-0.586-1.818-0.822-2.682-1.49c-2.267-0.513-4.844-0.717-7.744-0.595
			c-1.584,0.399-3.326,0.644-5.062,0.893c-1.596,0.787-3.207,1.558-5.062,2.085c-1.391,0.99-2.889,1.875-4.469,2.68
			c-2.582,2.181-5.258,4.272-7.742,6.553c-0.846,1.14-1.799,2.172-2.682,3.276c-1.045,0.94-1.635,2.337-2.68,3.277
			c-0.925-1.856-2.29-3.274-3.577-4.766c-1.362-1.517-2.198-3.558-3.569-5.063c-1.804-1.673-3.894-3.058-5.958-4.468
			c-0.765-0.031-1.421-0.167-1.788-0.595c-3.331-0.648-7.679-0.818-11.317-0.296C37.809,29.66,35.856,29.59,35,30.62
			c-1.731,0.254-2.375,1.597-3.873,2.083c-4.481,4.455-8.231,9.641-10.126,16.68v9.53c0.438,0.055,0.272,0.721,0.296,1.19
			c1.599,5.85,4.433,10.459,7.448,14.893c3.466,3.98,6.48,8.408,10.72,11.615c3.537,3.91,8.156,6.74,12.511,9.83
			c2.521,1.25,4.373,3.17,7.146,4.17c2.031,1.74,4.226,3.318,7.448,3.871c0.66-0.23,1.613-0.174,1.785-0.894
			c0.578-0.413,0.914-1.069,1.787-1.19c1.496-0.394,2.543-1.229,3.871-1.787c2.299-1.574,4.935-2.812,6.85-4.767
			c1.328-0.559,2.312-1.463,3.277-2.383c1.059-0.831,2.271-1.504,2.98-2.68c2.377-1.495,4.064-3.679,5.955-5.659
			c3.568-4.077,7.096-8.193,9.83-13.105c1.46-2.312,2.718-4.826,3.871-7.444c0.74-1.146,0.904-2.87,1.783-3.873
			c0.312-1.675,0.807-3.169,1.489-4.468c0.185-2.199,0.671-4.096,0.896-6.253C111.156,45.105,110.744,40.848,110.051,36.874z
			 M46.91,78.87v3.573c-0.985-0.104-1.29-0.892-1.787-1.487c-0.562-0.532-1.376-0.806-1.784-1.491
			c-1.349-0.936-2.318-2.248-3.279-3.572c-2.492-1.975-4.079-4.854-6.252-7.146c0.254-1.137,0.988-1.792,1.192-2.979
			c0.908-9.019,3.316-16.538,5.361-24.424c-0.328-1.759-0.328-3.845-2.384-3.872c-0.068,0.232-0.25,0.347-0.597,0.296
			c-0.064,0.233-0.249,0.348-0.595,0.298c-0.018,0.183-0.043,0.354-0.298,0.299c-0.015,0.181-0.047,0.353-0.297,0.298
			c-0.018,0.181-0.047,0.352-0.299,0.297c-0.206,0.296-0.13,0.526-0.298,0.895c-0.05,0.11-0.532,0.161-0.593,0.296
			c-0.15,0.316-0.162,1.102-0.301,1.49c-2.094,6.006-3.635,13.156-4.766,19.657c-1.839-2.227-1.461-6.678-1.49-10.722
			c0.785-2.394,1.681-4.674,2.981-6.552c0.668-0.921,1.203-1.973,2.083-2.681c0.83-0.76,1.013-2.166,2.383-2.383
			c0.017-0.181,0.047-0.352,0.299-0.297c0.016-0.183,0.042-0.353,0.297-0.298c0.02-0.182,0.045-0.354,0.298-0.299
			c0.066-0.231,0.25-0.346,0.595-0.298c0.065-0.231,0.251-0.345,0.597-0.296c-0.049-0.297,0.129-0.203,0.296-0.297
			c2.322-1.344,6.107-1.531,9.53-1.788c1.207,0.084,2.072,0.51,3.278,0.596c0.997,0.887,2.31,1.463,2.978,2.68
			c1.142,0.844,2.108,1.862,2.68,3.275c-1.2,0.388-1.954,1.226-2.68,2.086C51.145,55.107,48.615,66.575,46.91,78.87z M84.141,35.685
			C82.279,51.196,79.01,65.3,79.079,82.743c0.375,1.709,1.062,3.104,2.383,3.871c-4.269,4.173-9.483,7.396-15.192,10.127
			c-1.045,0.053-0.979-1.007-1.787-1.19c-0.445-0.547-1.244-0.744-1.487-1.49c-1.38-0.604-2.313-1.655-3.576-2.381
			c-2.329-1.545-4.785-2.961-6.85-4.766c0.679-3.395,0.577-7.566,1.19-11.021c0.275-1.812,0.378-3.793,0.894-5.361
			c0.009-0.936,0.154-1.793,0.297-2.682c0.131-0.809,0.23-1.731,0.597-2.383c0.718-7.323,2.395-13.686,3.573-20.551
			c1.87,2.106,2.859,5.084,4.17,7.744c-1.464,6.284-2.948,12.541-4.17,19.061c-0.596,3.277-1.442,6.303-1.489,10.127
			c-0.676,0.318-0.114,1.875-0.299,2.685v2.679c0.395,1.493,1.066,2.706,2.681,2.979c2.065-0.019,2.511-1.658,2.981-3.273
			c-0.208-2.293,0.503-3.669,0.296-5.958c0.62-0.474,0.099-2.085,0.594-2.683c-0.156-1.151,0.536-1.452,0.3-2.68
			c0.924-4.443,1.565-8.906,2.385-13.402c0.781-4.313,1.846-8.597,2.68-12.808c0.689-1,1.412-1.963,2.085-2.979
			c0.679-0.216,0.89-0.896,1.19-1.49c0.524,0.087,0.92-1.402,1.19-0.595c-2.176,14.406-5.854,27.304-5.657,44.08
			c0.782,1.402,0.75,3.617,2.977,3.574c2.615,0.035,2.869-2.295,3.277-4.468c0.649-1.934,0.348-4.815,0.894-6.85
			c0.392-4.772,0.915-9.408,1.487-13.999c0.656-9.572,1.91-18.546,2.682-27.997c0.92-0.985,2.695-1.948,3.871-2.68
			C83.256,35.977,84.323,34.829,84.141,35.685z M93.375,73.809c-1.204,1.674-2.391,3.365-3.871,4.766
			c-1.324,1.456-2.227,3.335-4.172,4.17c0.617-13.78,1.777-27.015,2.979-40.209c-0.143-3.453,0.295-6.044,0-8.934
			c1.564-1.216,4.606-0.954,6.85-1.49c0.24,0.057,0.297,0.298,0.598,0.298c-1.738,11.96-3.956,23.445-4.172,36.932
			C92.044,70.97,92.27,72.83,93.375,73.809z M103.798,51.768c-1.251,6.193-3.86,11.032-6.255,16.082
			c-0.887-1.098,0.166-2.801,0-4.168c-0.135-1.623,0.531-2.446,0.297-4.17c0.483-2.495,0.77-5.188,0.895-8.041
			c0.668-0.129,0.123-1.468,0.303-2.085c0.339-0.352,0.333-1.053,0.296-1.788c0.256-1.233,0.151-2.826,0.594-3.873
			c0.171-2.807,0.517-5.441,0.896-8.04v-0.893c1.331,0.651,1.35,2.618,2.382,3.573C104.076,42.43,104.234,47.148,103.798,51.768z
			 M49.292,36.279h-0.296c-0.354,0.146-0.677,0.318-0.893,0.595c-1.111,0.88-1.537,2.699-2.085,4.17
			c-1.679,4.513-3.145,9.373-4.172,14c-0.441,0.549-0.572,1.414-0.593,2.381c-0.521,0.477-0.647,1.34-0.598,2.384
			c-0.44,0.551-0.572,1.414-0.597,2.383c-0.471,0.52-0.398,1.585-0.595,2.383c-0.525,2.36-0.949,6.058,0,7.743
			c0.421,0.748,0.983,1.089,1.79,1.488c3.791-0.18,2.614-5.326,3.572-8.341c0.487-3.584,1.687-6.452,2.083-10.125
			c0.443-0.551,0.57-1.416,0.597-2.383c0.445-0.551,0.572-1.416,0.597-2.383c0.44-0.55,0.569-1.417,0.595-2.381
			c0.445-0.648,0.507-1.677,0.594-2.682c0.442-0.551,0.571-1.414,0.597-2.383c0.467-0.521,0.4-1.586,0.594-2.382
			c0.25-0.742,0.391-1.596,0.299-2.681C50.263,37.496,50.434,36.232,49.292,36.279z"/>
	</g>
</g>
</svg>
