<?xml version="1.0" encoding="utf-8"?>
<!-- Generator: Adobe Illustrator 16.0.0, SVG Export Plug-In . SVG Version: 6.00 Build 0)  -->
<!DOCTYPE svg PUBLIC "-//W3C//DTD SVG 1.1//EN" "http://www.w3.org/Graphics/SVG/1.1/DTD/svg11.dtd">
<svg version="1.1" id="Layer_1" xmlns="http://www.w3.org/2000/svg"  x="0px" y="0px"
	 width="120px" height="120px" viewBox="4 4 120 120" style="enable-background:new 4 4 120 120;" xml:space="preserve">
<g id="star-empty">
	<g>
		<path d="M112.363,50.31c-2.233-1.302-6.256-0.817-9.695-0.91c-5.412-0.34-12.117-0.565-17.881-0.302
			c-1.782,0.08-3.328,0.786-4.85,0c-0.599-1.018-0.994-2.235-1.211-3.637c-0.886-0.832-0.879-2.557-1.516-3.637
			c-0.298-1.416-0.914-2.522-1.212-3.94c-0.578-1.139-0.847-2.589-1.517-3.635c-1.594-5.174-3.58-9.958-5.451-14.85
			c-0.399-1.526-0.35-3.492-1.217-4.544c-1.201,0.22-1.217,0.22-2.424,0c-0.438,0.168-0.738,0.471-0.905,0.909
			c-1.187,2.755-2.208,5.674-3.032,8.789c-0.645,1.275-1.172,2.667-1.516,4.243c-0.694,1.223-1.271,2.565-1.516,4.243
			c-1.378,2.46-2.153,5.523-3.335,8.18c-0.432,1.485-1.078,2.759-1.513,4.244c-0.732,1.189-0.615,3.225-1.816,3.938
			c-2.604-0.025-5.399,0.147-7.58-0.302H31.454c-2.092-0.64-5.488,0.032-7.576-0.608c-2.835-0.006-5.616,0.042-5.758,2.729
			c-0.019,2.34,2.026,2.62,3.937,3.03c0.826,2.208,3.274,2.791,4.549,4.544c1.862,1.123,3.345,3.22,5.15,3.941
			c2.92,3.242,6.998,5.324,10,8.486c-0.453,0.655-0.515,1.703-0.605,2.727c0.681,0.126-0.042,1.66,0.91,1.515
			c0.025,0.783,1.296,0.321,0.908,1.517c-2.162,6.021-4.259,12.104-6.061,18.485c-0.618,3.422-1.539,6.539-2.421,9.695
			c-0.263,1.76-0.817,3.228-1.216,4.85c0.669,0.345,0.023,1.999,0.91,2.121c0.254,0.854,1.19,1.031,1.816,1.515
			c1.192-0.023,1.889-0.533,2.728-0.906c0.813-0.502,0.974-1.655,1.818-2.123c2.454-1.282,4.659-2.817,6.668-4.547
			c2.675-1.162,4.198-3.476,6.667-4.849c1.709-2.129,4.379-3.295,6.061-5.452c1.42-0.502,2.143-1.694,3.332-2.427
			c1.123-0.797,2.013-1.825,3.334-2.425c2.894,1.754,5.656,3.636,8.785,5.152c2.984,3.986,6.084,7.858,10.307,10.605
			c1.91,1.624,3.928,3.145,6.361,4.242c0.719,1,2.26,1.178,2.729,2.426c1.014,0.803,2.439,1.196,3.941,1.514
			c0.099-1.11,2.15-0.27,2.119-1.514c-0.131-0.98,0.399-2.623-0.604-2.729c-0.723-0.389-0.864-1.357-1.212-2.119
			c-3.949-10.701-7.535-21.764-10.911-33.033c1.732-2.004,4.221-3.254,6.361-4.85c2.008-1.832,4.524-3.154,6.672-4.846
			c1.394-0.426,2.238-1.396,3.632-1.82c1.008-0.913,2.519-1.324,3.335-2.424c1.419-0.501,2.143-1.696,3.334-2.425
			c0.839-1.079,1.768-2.069,2.425-3.334C113.568,53.751,113.697,51.301,112.363,50.31z M31.756,56.674
			c-1.248-0.166-1.772-1.056-2.727-1.517c0.507-0.583,2.797-0.387,3.335,0C32.588,56.09,31.531,55.74,31.756,56.674z M52.969,55.764
			v-1.817h1.517c-0.718,2.719-1.837,5.033-2.726,7.576c-1.29,2.146-1.785,5.086-3.032,7.272c-1.9-0.204-0.132-2.123,0-3.029
			c0.626-0.988,0.815-2.417,1.515-3.333C50.998,60.054,52.114,58.042,52.969,55.764z M39.027,62.431
			c-1.145-0.873-2.537-1.502-3.332-2.727c0.489-1.734,1.395-3.048,2.122-4.546h4.243C41.434,57.967,39.657,59.625,39.027,62.431z
			 M42.061,64.854c1.145-3.094,2.423-6.061,3.332-9.393c1.921,0.201,3.005-0.431,3.942-1.213c0.515-0.112,0.568,0.237,0.604,0.606
			c-2.437,3.321-4.124,7.391-6.06,11.21C43.065,65.869,42.726,65.199,42.061,64.854z M45.695,93.037
			c-0.75,1.27-1.05,2.99-1.816,4.244c0.289,1.257-0.906,0.06,0,0c-0.01-1.625,0.648-2.588,0.908-3.941
			c0.457-1.156,0.521-2.712,1.213-3.635c0.175-1.365,0.67-2.383,0.91-3.334c0.053-0.217,0.285-0.246,0.302-0.303
			c0.391-1.18,0.433-2.625,1.214-3.637v-3.638c0.574-0.94,1.845-1.185,2.117-2.424c1.298-4.763,2.964-9.158,4.244-13.94
			c1.104-4.958,3.319-8.802,3.637-14.545c0.714-0.498,0.863-1.562,1.516-2.122c0.886-3.962,2.281-7.415,3.332-11.212
			c1.111-3.834,2.128-7.773,3.03-11.819c1.423,2.82,1.899,6.587,3.031,9.697c0.278,1.183-2.183-0.398-2.728,0.608
			c-1.812,0.947-2.092,3.166-2.729,5.15c-0.639,1.996-1.274,4.138-1.814,6.062c-1.258,4.097-1.97,8.739-3.335,12.726
			c-1.368,3.887-2.702,7.807-4.242,11.515c-0.587,2.039-1.604,3.648-2.124,5.757c-1.035,1.688-1.402,4.052-2.726,5.456
			C48.965,84.792,46.857,88.439,45.695,93.037z M57.816,87.28c-0.13,1.04,0.122,1.698,0.301,2.425
			c-0.225,1.188-1.194,1.629-2.117,2.121c-0.089,0.617-0.822,0.594-0.911,1.211c-0.444-0.006-0.958,1.277-0.909,0
			c0.905-1.014,0.61-3.229,1.515-4.243c-0.106-1.7,1.298-3.464,0-4.546c-1.64,0.38-1.945,2.093-2.424,3.637
			c-0.695,1.227-1.268,2.568-1.511,4.242c-1.701,2.24-1.272,6.612-4.243,7.577c1.644-4.013,2.927-8.386,4.243-12.728
			c-0.098-1.207,1.398-0.819,1.511-1.818c0.343-0.77,0.747-1.477,1.215-2.12c0.468-1.653,1.35-2.894,1.818-4.548
			c1.252-3.09,2.668-6.014,3.636-9.395c0.846-1.375,1.307-3.137,1.818-4.848c0.561-0.548,0.392-1.829,0.908-2.425
			c0.047-0.962,0.688-1.332,0.605-2.423c0.783-1.339,1.126-3.118,1.517-4.849c0.604-1.515,0.847-3.392,1.514-4.848V47.28
			c1.083-3.972,2.149-7.954,3.335-11.82v-0.908c0.924,1.602,1.043,4.005,1.819,5.757c0.185,1.125,0.72,1.906,0.905,3.031
			c0.32,0.891,0.42,2.007,0.912,2.727c-2.9,6.596-5.522,13.471-8.185,20.303C62.495,73.17,59.648,79.717,57.816,87.28z
			 M68.727,85.764c-0.762-0.451-1.668-0.754-2.119-1.516c-1.362,0.154-1.319,1.715-3.03,1.516
			c3.761-11.994,8.013-23.5,11.513-35.757c0.809,0.908,1.061,2.373,1.215,3.939c0.649,0.562,2.219,0.206,3.332,0.303
			c-4.048,8.78-8.363,17.29-10.908,27.576v3.938H68.727z M74.787,89.4c-1.395-0.323-1.781-1.653-3.331-1.816
			c1.808-1.825,2.131-5.141,3.028-7.88c0.877-2.655,1.771-5.3,2.728-7.88c1.899-5.271,3.761-10.583,5.453-16.061
			c0.161-0.244,0.317-0.492,0.304-0.909c1.354,0.162,2.121,0.912,3.941,0.607c-1.893,4.977-4.15,9.59-5.152,15.454
			c-1.677,2.563-2.471,6.012-3.637,9.091C76.998,83.127,75.834,86.205,74.787,89.4z M81.15,88.493
			c-0.264,0.845-0.728,1.497-0.91,2.422c-0.516,0.599-0.346,1.876-0.906,2.425c-0.021,1.415-0.691-0.354-1.213-0.303
			c-0.098-0.711-0.939-0.678-1.211-1.211c0.059-1.762,0.775-2.859,1.211-4.242c0.525-1.294,0.829-2.809,1.516-3.939
			c0.775-2.858,1.82-5.455,2.727-8.184c0.658,0.557,0.641,1.787,0.605,3.029c0.566,0.849,0.745,2.085,1.217,3.031
			c0.051,1.064-1.028,0.998-1.217,1.817C82.559,85.252,81.497,86.516,81.15,88.493z M89.029,97.584
			c0.596,0.719,0.589,2.039,1.212,2.727c-0.265,0.846-0.726,1.498-0.907,2.424c-1.588-0.436-1.998-2.041-3.334-2.728
			c-1.092-0.827-1.939-1.899-3.031-2.726c0.643-3.301,2.088-5.793,2.729-9.092c0.864,0.549,0.974,1.85,1.213,3.028
			c0.639,0.776,0.473,2.355,1.211,3.03C88.158,95.624,88.863,96.336,89.029,97.584z M91.15,65.159
			c-0.785,1.03-1.834,1.801-3.029,2.425c-0.669,0.945-0.785,2.447-2.121,2.727c0.032,0.366-0.443,0.187,0,0
			c0.921-5.441,2.938-9.792,4.241-14.849h3.94C93.268,58.79,91.188,60.953,91.15,65.159z M102.971,57.885
			c-1.098,0.42-1.699,1.333-3.033,1.516c0.41-1.309,0.998-2.438,1.519-3.637h4.239C105.066,56.75,103.705,57.005,102.971,57.885z"/>
	</g>
</g>
</svg>
