<?xml version="1.0" encoding="utf-8"?>
<!-- Generator: Adobe Illustrator 16.0.0, SVG Export Plug-In . SVG Version: 6.00 Build 0)  -->
<!DOCTYPE svg PUBLIC "-//W3C//DTD SVG 1.1//EN" "http://www.w3.org/Graphics/SVG/1.1/DTD/svg11.dtd">
<svg version="1.1" id="Layer_1" xmlns="http://www.w3.org/2000/svg"  x="0px" y="0px"
	 width="120px" height="120px" viewBox="4 4 120 120" style="enable-background:new 4 4 120 120;" xml:space="preserve">
<g id="film">
	<g>
		<path d="M111,99.641c-0.214-6.401-0.146-13.082-0.562-19.283c-0.41-6.291-0.131-13.277-0.834-19.279v-19.84
			c0.371-2.984,0.211-6.493,0.557-9.501c0.064-1.613,0.267-3.086,0.561-4.472c0.221-1.899-0.285-3.068-0.839-4.191
			c-1.157-1.013-2.854-0.781-4.472-0.838c-5.309-0.187-11.035,0.069-15.648,0.28c-6.68,0.491-14.139,0.204-21.234,0.278
			c-13.791-0.557-27.824-0.866-41.916-1.118c-0.358,0.015-0.389,0.357-0.839,0.28c-1.952,0.283-2.709,1.762-3.913,2.793
			c-0.78,12.256-1.329,25.124-0.279,37.724c0.904,12.417,3.209,23.434,2.515,37.444c0.253,2.44-1.054,4.017-0.278,6.146
			c1.568,2.065,5.273,1.992,8.94,1.957c3.46-0.266,7.106-0.349,10.9-0.279c7.082-0.368,14.435-0.467,21.516-0.838
			c9.402-1.682,21.941-0.229,32.135-1.118c3.479-0.249,8.021,0.569,10.617-0.56c0.999-0.396,1.246-1.55,1.12-3.074
			C109.952,101.57,110.866,100.996,111,99.641z M105.41,100.198c-10.375-0.14-18.604,0.559-27.663,0
			c-8.235,0.239-15.484,1.47-24.031,1.396c-7.934,0.451-16.448,0.314-24.029,1.118v-2.516c0.245-1.021-0.495-1.488,0-1.957
			c-0.659-0.235,0.016-1.439,0.277-1.676c-0.136-0.883,0.504-0.987,0.278-1.957c0.176-6.135-0.179-11.743-0.838-17.045
			c-0.281-2.696-0.853-5.107-0.84-8.104c-0.59-0.45-0.195-1.215-0.278-1.957c-0.07-0.639-0.467-1.295-0.279-1.957
			c0.225-0.967-0.414-1.073-0.278-1.955c-0.161-0.492,0.338-1.642-0.278-1.676c-0.681-11.057-0.853-22.621-1.119-34.091
			c-0.357-0.062-0.365-0.834,0-0.84c13.079,0.426,25.726,1.289,39.4,1.118c0.209,0.632,1.567,0.109,2.233,0.279h17.606
			c6.361-0.342,12.486-0.924,19.281-0.838c-2.183,20.722-0.281,42.104,0,63.99C105.087,94.372,105.572,96.963,105.41,100.198z
			 M88.085,37.326c-0.665,1.29-1.095,2.817-1.674,4.19v4.191c1.126,1.294,2.425,2.415,3.909,3.353
			c3.99-0.1,9.564,0.926,11.457-1.955c0.383-1.78-1.047-1.749-0.838-3.354V33.133c-0.662-0.919-1.153-2.01-1.957-2.794
			c-1.131-0.261-2.832-0.494-3.912,0c-2.023,0.212-3.887,0.583-5.588,1.118c-1.527,0.708-3.527,0.943-3.631,3.074
			C86.018,36.041,87.729,36.006,88.085,37.326z M95.91,35.369v8.383c-0.918,0.572-2.831,0.151-4.192,0.279v-2.235
			c-0.784-1.729-1.415-3.613-1.956-5.588C91.895,36.01,93.689,35.477,95.91,35.369z M36.672,47.664
			c2.502-0.01,4.558-0.469,7.264-0.279c0.697-0.979,1.445-1.907,2.235-2.795c0.142-1.444-1.202-1.404-0.836-3.073
			c-0.196-3.063,0.492-7.013-0.561-9.222c-1.237-0.717-2.358-1.553-4.471-1.397c-1.859,0.099-4.159-0.247-5.59,0.28
			c-2.242-0.193-3.476,0.622-4.75,1.396c-1.011,1.972-0.39,5.573-0.56,8.384c0.729,1.879,0.979,4.24,2.235,5.589
			C33.498,46.739,35.028,47.257,36.672,47.664z M40.304,35.649v7.544c-1.396,0.281-2.699,0.658-4.473,0.559
			c0.091-3.257-0.776-5.555-1.395-8.103H40.304z M36.11,72.535c0.527-0.062,0.618,0.314,1.118,0.279
			c-0.198,0.756,1.317-0.199,1.116,0.559c3.17-0.838,7.012-0.999,8.944-3.074c-0.127-4.435-0.418-8.708-0.28-13.413
			c-0.524-0.823-1.217-1.249-1.674-1.677c-0.483-0.45-0.662-0.534-1.121-0.838c-3.741,0.076-7.854-0.218-11.178,0.279
			c-0.082,0.57-0.754,0.547-0.836,1.117c-0.771-0.119-0.264,1.041-0.84,1.118c0.325,3.494,0.596,7.041,1.957,9.501
			c0.033,0.806-0.152,1.828,0.279,2.236c0.218,0.992,1.538,0.881,2.234,1.396C35.069,70.863,36.026,71.684,36.11,72.535z
			 M37.229,59.121h5.028v4.471c-0.183,1.34,0.29,3.072,0,3.633c-1.76,0.103-3.258,0.467-4.468,1.117
			c-0.624-0.962-0.039-3.128-0.561-4.19L37.229,59.121L37.229,59.121z M92.836,69.461c2.135,0.195,3.086,1.572,5.868,1.117
			c1.021-0.467,1.254-1.729,1.956-2.514c-0.139-4.004,0.808-8.262,0-12.017c-2.038-2.342-6.575-1.606-9.499-0.56
			c-1.021-0.194-1.29-1.134-2.515-1.118c-0.535,0.119-0.707,0.603-1.399,0.56c-0.792,0.885-0.792,2.561-1.118,3.911v2.794
			c0.282,1.396,0.33,3.022,0.561,4.473c0.328,1.154-0.391,3.103,0.838,3.912C89.619,71.062,90.65,69.198,92.836,69.461z
			 M96.189,59.4c0.082,2.041-0.496,3.417-0.279,5.59c-0.758,0.408-2.426-0.256-3.914,0c-0.203-1.565-0.52-3.018-0.557-4.75
			C92.941,59.878,94.238,59.311,96.189,59.4z M38.628,80.916c-0.64-0.479-0.251-1.984-1.678-1.676
			c-0.694-0.043-0.863,0.439-1.396,0.559c-1.658,2.24-1.592,6.787-1.117,10.342c0.578,0.318,0.332,1.131,0.557,1.674
			c0.054,0.129,0.476,0.404,0.561,0.561c0.694,1.292,0.031,3.088,1.396,3.912c2.723,0.395,3.771-0.887,5.868-1.119
			c1.5-0.827,3.991-0.665,5.03-1.955c0.437-3.751,0.897-9.801-1.398-11.734C44.559,80.575,41.322,81.018,38.628,80.916z
			 M43.378,90.695c-1.014,0.572-1.737,1.43-3.074,1.679c-0.357-2.44-1.688-3.901-1.396-6.985h4.471L43.378,90.695L43.378,90.695z
			 M103.734,82.035c-1.053-0.626-1.473-1.883-3.074-1.955c-3.485,0.984-9.756-0.816-12.014,1.396c-0.271,0.735-0.541,2.393,0,3.073
			c0.301,1.134-0.129,1.75,0,3.353c0.301,1.283,0.896,2.27,1.113,3.633c0.749,0.929,0.309,3.047,1.121,3.912
			c2.241,1.285,5.021-0.158,6.985-0.838c1.686-0.269,3.348-0.562,5.028-0.84c1.176-1.061,1.603-2.869,1.396-5.309
			C104.404,86.021,104.254,83.844,103.734,82.035z M99.543,90.695c-0.757-0.079-1.6,1.17-2.236,0.279
			c-1.148,0.221-1.435-0.429-2.515-0.279c-0.526-1.801-1.341-3.314-1.396-5.586h5.867C99.361,86.967,99.7,88.586,99.543,90.695z"/>
	</g>
</g>
</svg>
