<?xml version="1.0" encoding="utf-8"?>
<!-- Generator: Adobe Illustrator 17.0.0, SVG Export Plug-In . SVG Version: 6.00 Build 0)  -->
<!DOCTYPE svg PUBLIC "-//W3C//DTD SVG 1.1//EN" "http://www.w3.org/Graphics/SVG/1.1/DTD/svg11.dtd">
<svg version="1.1" id="Layer_1" xmlns="http://www.w3.org/2000/svg"  x="0px" y="0px"
	 width="120px" height="120px" viewBox="0 0 120 120" enable-background="new 0 0 120 120" xml:space="preserve">
<g id="tree3">
	<g>
		<path d="M96.178,97.068c-0.24-1.281-1.438-1.601-2.281-2.283c0.078-1.121-1.221-0.869-1.141-1.994
			c-0.893-0.252-0.939-1.348-1.712-1.713c-0.622-1.66-2.188-2.373-2.854-3.996c-1.312-0.873-2.113-2.26-3.422-3.135
			c-0.254-0.891-1.347-0.938-1.713-1.713c-0.498-0.644-1.627-0.654-1.712-1.711c3.023-0.306,7.416,0.758,9.13-0.857
			c1.041-1.959-1.041-2.58-0.568-4.848c-2.406-2.543-4.549-5.344-6.563-8.273c-1.503-1.07-2.495-2.641-3.995-3.711
			c-0.123-0.662-1.26-0.764-0.568-1.426c4.238,0.246,7.748-0.236,8.271-3.711c-0.494-2.358-1.717-3.988-2.566-5.99
			c-0.61-2.244-1.728-3.977-2.854-5.705c-2.133-4.94-4.737-9.5-7.133-14.266c-1.177-2.342-2.229-4.76-3.42-7.131
			c-0.078-0.154-0.479-0.391-0.572-0.572c-1.217-2.375-1.804-4.455-3.14-6.561c-0.676-2.271-1.381-4.514-3.136-5.705h-1.998
			c-0.337,0.137-0.647,0.303-0.855,0.568c-0.599,0.152-0.686,1.229-0.855,1.715c-0.654,1.842-1.325,3.459-1.712,5.133
			c-1.197,1.848-2.112,3.979-3.423,5.707c-2.599,3.584-4.646,7.717-7.133,11.412c-1.934,4.154-4.461,7.709-6.848,11.411
			c-1.301,1.745-2.623,3.464-3.996,5.135c-1.236,1.343-3.499,4.216-1.426,6.276c1.371,0.773,1.929-0.643,3.709-0.285
			c1.791-0.172,3.02,0.217,4.564,0.285c-2.383,3.132-4.297,6.733-6.559,9.985c-1.449,1.313-2.301,3.218-3.424,4.849
			c-0.674,2.088-2.662,2.854-2.855,5.42c0.726,3.854,5.66,2.619,9.413,2.285c-0.939,1.53-2.223,2.721-3.134,4.278
			c-1.041,1.435-1.852,3.097-3.14,4.279c-0.823,1.65-2.194,2.754-2.853,4.562c-0.863,1.539-2.385,3.219-1.713,5.422
			c1.799,1.812,5.034-0.084,7.705,0c2.627-0.508,5.69-0.582,8.557-0.854c2.784,0.446,6.223,0.243,9.414,0.282
			c0.234,4.81,0.536,9.548,0.857,14.269c0.646,0.205,0.854,0.856,1.142,1.426c1.729,0.928,5.263,0.611,7.416,0.283
			c1.304-0.121,3.141,0.289,3.995-0.283c1.37-0.152,1.812-1.232,2.567-1.998v-4.279c0.407-1.209,0.11-3.121,0.568-4.279
			c-0.229-0.989,0.428-1.098,0.287-1.998c0.346-0.51,0.05-1.659,0.568-1.994c4.492,0.259,8.718,0.791,13.697,0.568
			c1.993,0.476,4.254,0.689,6.561,0.855c2.875,0.307,4.513-0.621,4.851-2.852C97.646,98.455,97.373,97.301,96.178,97.068z
			 M59.945,101.635v-1.711h1.428C60.929,100.523,60.862,101.504,59.945,101.635z M66.51,110.479
			c-1.775,0.228-3.601,0.398-5.422,0.572c0.839-1.729,2.167-2.967,2.853-4.852c-1.071,0.832-2.021,1.783-2.853,2.854
			c-0.645-0.211-0.111-1.6-0.283-2.283c-0.156-1.01,1.009-0.701,0.854-1.713c0.639-0.311,0.501-1.397,1.141-1.709
			c0.556-1.254,1.25-2.365,1.996-3.424c1.144-0.096,1.588,0.508,2.853,0.283C67.184,103.549,66.447,106.615,66.51,110.479z
			 M71.359,95.072c-0.896-0.299-2.396,0.176-3.996,0h-12.84c-1.041,0.188-1.092-0.617-1.995-0.57
			c-6.134-0.143-11.832,0.15-16.261,1.711c0.738-1.639,2.186-2.568,2.852-4.279c1.338-1.039,1.801-2.953,3.14-3.992
			c1.364-3.391,4.426-5.084,4.849-9.416c-0.373-3.231-4.525-2.584-7.418-1.995c0.303-2.267,2.06-3.078,2.855-4.851
			c1.227-1.244,1.983-2.961,3.139-4.279c0.674-1.895,2.176-2.958,2.851-4.852c0.976-1.494,2.203-2.74,1.999-5.418
			c-0.059-0.232-0.289-0.286-0.284-0.574c-1.354-1.881-5.265-1.205-8.276-1.428c0.514-1.768,1.919-2.643,2.854-3.992
			c0.991-1.287,1.669-2.895,2.851-3.994c0.664-1.619,1.774-2.789,2.571-4.277c0.704-1.482,1.748-2.627,2.279-4.281
			c1.126-1.154,1.748-2.818,2.569-4.281c0.955-1.23,1.625-2.748,2.567-3.99c1.803-2.672,3.441-5.498,5.134-8.275
			c-0.078-0.463,0.27-0.49,0.285-0.855c0.244-0.053,0.271,0.113,0.287,0.283c1.088,2.604,2.414,5.197,3.707,7.705
			c2.512,4.865,4.988,9.703,7.416,14.834c0.136,0.281,0.426,0.512,0.572,0.854c0.834,1.946,1.947,4.438,3.424,6.278
			c0.43,2.234,1.65,3.676,1.998,5.994c-1.758-0.143-2.727,0.506-4.564,0.283c-1.824-0.207-2.499,0.736-3.14,1.711
			c-0.11,1.729,1.624,1.609,1.143,3.709c2.044,2.233,4.171,4.39,6.274,6.562c0.611,1.482,1.865,2.318,2.57,3.709
			c0.506,0.537,0.769,1.32,1.426,1.713c0.158,0.408,0.443,0.695,0.857,0.855c-0.062,0.486,0.483,0.738,0,0.855
			c-3.209,0.025-6.672-0.199-8.277,1.428c-0.523,3.852,1.697,4.959,3.424,6.559c1.865,1.469,3.27,3.392,5.137,4.853
			c0.869,2.174,2.557,3.532,3.424,5.705L71.359,95.072L71.359,95.072z M67.078,40.297c0.374-2.307-0.248-5.922-1.424-7.135
			c-4.225-0.447-3.271,5.434-2.855,7.99c0.691,0.355,1.386,0.706,2.282,0.855c0.61-0.529,1.702-0.58,1.713-1.711
			C66.812,40.285,67.074,40.311,67.078,40.297z M53.1,41.723c-1.024-0.168-1.383,0.332-1.999,0.57
			c-1.536,2.267-2.464,5.144-3.423,7.988c-0.251,1.994,0.271,2.678,1.143,3.139c2.438-0.32,2.415-3.104,3.137-5.137
			C52.268,46.178,53.941,44.043,53.1,41.723z M60.805,42.578H59.09c-0.16,0.412-0.443,0.697-0.856,0.855
			c-0.979,2.568-4.657,7.262-1.71,10.271c1.102,0.055,2.102,0.01,2.851-0.285c1.044-1.238,1.239-3.326,1.714-5.137
			C61.199,46.289,62.35,43.816,60.805,42.578z M70.502,56.273c1.627-1.852,0.738-6.715,0-8.846c-3.568-0.145-2.73,4.115-3.139,7.133
			c0.426,0.242,0.414,0.92,0.57,1.428C69.092,56.248,69.311,56.601,70.502,56.273z M58.233,61.123h-1.427
			c-1.648,3.58-4.465,5.994-4.562,11.127c0.715,0.328,0.955,1.137,1.996,1.141c2.151-0.797,2.899-2.996,3.425-5.422
			C58.686,66.477,59.936,62.764,58.233,61.123z M49.96,66.258c-0.394,0.012-0.625-0.135-0.856-0.285
			c-1.852,1.287-5.22,3.445-3.42,6.562c0.538-0.064,0.626,0.32,1.139,0.283C49.412,72.178,49.6,69.13,49.96,66.258z M68.221,67.969
			c-0.896-0.134-0.754,0.768-1.427,0.857c-0.483,3.057,1.22,4.924,2.567,5.705c0.822,0.477,1.576,0.959,2.565,0.854
			c0.462-0.395,0.904-0.807,1.429-1.141c0.279-2.183-1.006-2.804-1.713-3.994C70.482,69.508,70.428,67.662,68.221,67.969z
			 M69.93,82.234c-0.404-0.734-0.666-1.615-1.709-1.711h-0.574c-0.545,0.879-0.754,2.096-0.853,3.424
			c0.735,2.877,0.12,7.104,3.423,7.416c0.836-0.209,1.229-0.863,1.711-1.428c-0.214-1.97-1.02-3.354-1.141-5.42
			C70.26,84.002,70.416,82.797,69.93,82.234z M48.25,87.082c0.488,0.371,0.572,1.143,1.141,1.428
			c1.582-0.129,2.436-0.984,2.566-2.566c0.584-0.928,1.742-2.516,1.143-3.709C49.929,80.057,48.205,84.578,48.25,87.082z
			 M59.374,85.088h-1.425c-1.213,1.992-2.771,4.938-1.999,7.99c0.686,0.172,1.305,0.41,2.283,0.283
			c0.601-1.019,1.023-2.209,0.856-3.994C59.443,88.154,59.945,86.373,59.374,85.088z M65.654,103.916
			C66.064,103.742,65.622,103.572,65.654,103.916L65.654,103.916z M65.654,103.916c-0.244-0.051-0.271,0.111-0.288,0.287
			C65.611,104.254,65.637,104.092,65.654,103.916z M65.366,104.203c-0.276,0.008-0.222,0.35-0.285,0.57
			C65.359,104.766,65.305,104.424,65.366,104.203z M65.081,104.773c-0.243-0.054-0.269,0.11-0.286,0.283
			C65.039,105.109,65.064,104.947,65.081,104.773z M64.795,105.057c-0.24-0.051-0.268,0.113-0.283,0.285
			C64.756,105.396,64.779,105.232,64.795,105.057z M64.512,105.342c-0.281,0.01-0.223,0.352-0.285,0.574
			C64.503,105.906,64.447,105.566,64.512,105.342z M64.227,105.916c-0.244-0.053-0.27,0.111-0.286,0.283
			C64.183,106.252,64.21,106.086,64.227,105.916z"/>
	</g>
</g>
</svg>
