<?xml version="1.0" encoding="utf-8"?>
<!-- Generator: Adobe Illustrator 16.0.0, SVG Export Plug-In . SVG Version: 6.00 Build 0)  -->
<!DOCTYPE svg PUBLIC "-//W3C//DTD SVG 1.1//EN" "http://www.w3.org/Graphics/SVG/1.1/DTD/svg11.dtd">
<svg version="1.1" id="Layer_1" xmlns="http://www.w3.org/2000/svg"  x="0px" y="0px"
	 width="120px" height="120px" viewBox="4 4 120 120" style="enable-background:new 4 4 120 120;" xml:space="preserve">
<g id="fire">
	<g>
		<path d="M114.523,58.044c-0.703-2.656-1.303-5.406-2.158-7.907c-0.791-0.886-0.799-2.553-1.438-3.591
			c-0.312-1.486-0.145-3.454-2.155-3.236c-2.318-0.164-1.877,2.438-2.517,3.953c-0.923,1.354-1.096,3.456-1.799,5.033
			c-1.438,0.351-1.673,1.917-3.593,1.796c-1.09,0.828-2.834,0.998-4.311,1.437c0.088-2.361-0.635-3.919-0.361-6.468
			c-0.854-3.095-1.061-6.844-2.516-9.346c-0.004-1.909-1.15-2.684-1.438-4.312c-1.051-0.986-1.305-2.767-2.518-3.591
			c-1.521-2.432-3.178-4.728-5.388-6.47c-0.776-1.259-1.979-2.092-3.237-2.873c-0.89-0.864-3.855-1.146-4.666,0
			c-0.492,0.48-0.689,2.505,0.358,2.511c-0.022,0.622,0.274,0.923,0.717,1.081c0.062,0.538-0.129,1.326,0.356,1.437
			c0.324,2.196,1,4.036,1.441,6.108c0.176,4.914,0.16,9.728-1.082,14.014c-0.479,0.239-0.666,0.768-0.717,1.439
			c-0.725,0.714-1.175,1.7-2.16,2.154c-0.195,0.518-0.557,0.878-1.074,1.082c-0.104,0.317-0.975,1.572-1.076,0.717
			c0.773-8.802-1.818-14.236-5.752-18.327c-4.01-1.74-8.746-2.757-12.217-5.031c-1.794-3.239-3.042-7.02-2.517-12.579
			c0.707-0.734,0.631-2.248,1.795-2.516c0.64-0.798,1.417-1.459,1.079-3.233c-0.809-0.629-1.193-1.679-2.875-1.437
			c-0.424,0.173-0.812,0.383-1.08,0.717c-1.048-0.093-1.103,0.814-2.153,0.719c-1.466,2.008-3.568,3.382-5.028,5.39
			c-1.917,1.681-2.946,4.245-4.318,6.47c0.07,3.185-1.111,5.115-1.077,8.264c0.646,8.103,4.326,13.166,6.827,19.408
			c0.077,2.946,0.006,5.754-0.36,8.264c-0.479,2.512-1.319,4.666-4.308,4.672c-0.969-0.35-1.737-0.904-1.8-2.159
			c-0.695-0.74-2.065-0.803-2.157-2.154c-1.687-1.185-2.651-3.095-3.591-5.033c-0.366-1.431-0.523-3.068-0.718-4.67
			c-0.239-2.282,1.217-5.032-0.359-6.47c-4.966-1.338-7.576,2.704-9.345,5.75c-1.809,3.578-3.944,6.838-5.029,11.14
			c-0.51,3.325-0.858,6.812-0.721,10.781c0.422,6.523,2.58,11.314,4.312,16.529c1.521,1.951,2.137,4.812,3.953,6.467
			c1.08,2.514,2.327,4.859,3.955,6.832c2.702,4.239,6.527,7.363,10.06,10.776c1.735,1.737,4.043,2.907,5.748,4.675
			c1.103,0.698,2.124,1.475,3.593,1.795c0.951,0.85,2.934,0.666,3.958,1.439c2.168-0.135,3.972,0.101,5.751,0.359
			c1.834-0.373,4.773-0.386,7.906-0.359c6.871-0.914,12.737-2.832,17.243-6.11c2.14-1.819,4.816-3.095,6.472-5.391
			c1.635-0.283,1.896-1.941,3.233-2.517c0.587-1.447,2.461-1.611,2.877-3.232c4.101-3.803,7.902-7.91,11.14-12.58
			c2.965-4.939,5.01-10.799,6.467-17.248C114.667,68.014,114.51,62.945,114.523,58.044z M73.555,105.121
			c-1.094,3.455-3.267,5.837-5.031,8.625c-4.414,0.884-8.744-0.309-12.938-0.721c-0.164-0.766,0.513-0.687,1.08-0.717
			c-0.452-0.992-1.835-1.041-2.516-1.802c-0.858-0.579-1.583-1.287-2.519-1.793c-1.039-2.192-1.75-4.719-1.432-8.266
			c0.619-2.597,1.901-4.947,3.233-7.188c0.14-0.244,0.155-0.809,0.359-1.078c0.119-0.162,0.617-0.205,0.715-0.356
			c0.316-0.494,0.417-1.353,0.721-1.8c0.187-0.278,0.503-0.371,0.719-0.719c0.282-0.462,0.656-0.752,1.077-1.438
			c0.31-0.497,0.772-0.907,1.438-1.437c0.307-0.065,0.341,0.139,0.363,0.361c0.743,0.09,0.097,1.576,0.716,1.796
			c0.84,1.313,1.933,2.376,2.875,3.593c0.958-0.18,1.485,1.117,2.155,1.438c0.285,0.138,0.798-0.152,1.078,0
			c1.059,0.576,1.781,1.384,2.875,1.798c1.787,1.211,3.363,2.625,4.674,4.312C73.592,101.25,73.609,103.148,73.555,105.121z
			 M109.133,69.543c-0.467,1.934-0.943,3.85-1.801,5.391c-0.99,1.401-1.229,3.562-2.155,5.029
			c-0.651,4.021-2.737,6.607-3.952,10.064c-4.029,4.355-7.617,9.152-12.935,12.219c-1.498,1.738-3.136,3.338-5.392,4.312
			c-1.694,1.418-3.26,2.969-6.107,3.231c0.303-1.369,1.066-2.283,1.434-3.595v-5.747c-0.656-2.337-1.767-4.222-3.233-5.75
			c-3.099-3.732-9.181-4.472-11.5-8.983c-0.632-3.117,2.108-6.238-0.358-7.908c-0.417,0.062-0.641-0.076-0.719-0.357
			c-2.863,0.492-3.718,2.992-6.107,3.951c-1.549,1.685-3.357,3.115-5.033,4.673c-1.639,5.188-5.107,8.551-6.108,14.376
			c0.227,1.328-0.464,3.578,0.356,4.311c-0.976,1.412-0.512-1.607-1.072-1.796v-4.672c-0.111-1.522-1.514,0.231-1.801-0.717
			c-0.007-2.39-0.055-4.737-1.434-5.749c-1.722,0.193-1.806,2.027-1.8,3.951c-0.725,1.072-0.203,3.389-0.359,5.033
			c-2.122-0.638-1.748-3.765-2.872-5.394c-0.55-2.086-0.613-4.658-1.081-6.827V83.2c-0.938-1.937,0.805-6.558-1.797-6.827
			c-2.235-0.196-1.675,2.396-2.515,3.59v5.395c-0.423-0.062-0.303-0.655-0.359-1.082V77.45c-0.091-1.582-0.576-2.781-0.358-4.671
			c0.12-1.684-0.998-2.119-1.799-2.875c-1.915,0.357-1.87,2.683-1.796,5.029c-1.333-0.824-0.749-3.561-1.438-5.029
			c0.493-4.062,0.548-8.558,0.72-12.938c0.532-0.306,0.518-1.157,0.718-1.796c0.946,0.104,1.181-0.498,1.08-1.438
			c0.807,0.15,0.01,1.905,0.716,2.155c0.21,0.753,0.893,1.028,0.72,2.157c0.398,1.521,0.887,2.946,1.438,4.314
			c2.335,1.74,4.668,3.476,6.468,5.749c2.193,1.043,4.097,2.375,6.108,3.594c0.836-0.604,1.533-1.346,2.875-1.438
			c3.346-2.287,3.992-7.269,5.392-11.499v-9.703c-0.772-8.812-5.361-13.806-6.468-22.283c0.594-0.36,0.391-1.525,0.716-2.154
			c0.635-0.327,0.659-1.259,1.08-1.797c0.308-0.064,0.342,0.139,0.359,0.36V27.5c0.278,0.318,0.387,0.812,0.362,1.439
			c0.594,1.2,1.199,2.392,1.792,3.592c3.048,4.862,10.129,5.684,14.737,8.983c1.615,2.34,2.464,5.441,3.234,8.624
			c0.312,4.866-1.92,7.183-2.154,11.499c0.105,0.736,0.971,0.707,1.076,1.439c2.242,0.082,3.725-0.586,5.391-1.077
			c1.757-0.64,2.643-2.153,4.312-2.876C78,55.784,81.348,53.498,82.9,49.42c1.947-3.563,3.026-7.994,3.232-13.293
			c2.904,3.68,3.986,9.191,3.594,16.169c-0.513,2.597-1.52,4.708-2.156,7.187c-0.375,1.575,1.218,1.178,1.08,2.516
			c0.021,1.053,0.822,1.333,1.438,1.796c4.486-0.421,8.031-1.791,11.856-2.877c2.32-0.549,3.019-2.997,5.75-2.154
			c1.207,0.585,0.896,2.692,1.439,3.952v6.827H109.133z"/>
	</g>
</g>
</svg>
