<?xml version="1.0" encoding="utf-8"?>
<!-- Generator: Adobe Illustrator 16.0.0, SVG Export Plug-In . SVG Version: 6.00 Build 0)  -->
<!DOCTYPE svg PUBLIC "-//W3C//DTD SVG 1.1//EN" "http://www.w3.org/Graphics/SVG/1.1/DTD/svg11.dtd">
<svg version="1.1" id="Layer_1" xmlns="http://www.w3.org/2000/svg"  x="0px" y="0px"
	 width="120px" height="120px" viewBox="4 4 120 120" style="enable-background:new 4 4 120 120;" xml:space="preserve">
<g id="flag">
	<g>
		<path d="M108.83,41.393c-1.188-2.129-1.463-5.167-2.764-7.182c-0.567-2.747-1.683-4.949-2.211-7.733
			c-0.719-2.595-1.49-5.138-1.933-8.011c-0.375-1.283-0.584-2.73-0.554-4.419c-0.211-1.444-0.141-3.174-1.102-3.867
			c-0.654,0.007-0.815-0.477-1.66-0.276c-0.325,0.133-0.627,0.295-0.828,0.552c-0.83,0.459-2.369,0.208-3.315,0.552
			c-0.948,0.708-2.053,1.26-3.312,1.658c-2.106,2.04-4.137,4.148-6.077,6.353c-1.152,0.417-1.8,1.333-2.761,1.933
			c-0.951,0.707-2.146,1.174-3.041,1.935c-2.119,1.104-4.431,2.014-6.906,2.763c-2.514-0.212-4.172,0.43-6.627,0.274
			c-6.444-0.277-10.25-3.192-15.744-4.417h-6.079c-8.427,1.237-12.665,6.67-17.677,11.325c-0.092-1.168-1.386-1.439-2.211-1.105
			c-0.688,0.417-1.263,0.947-1.382,1.932c0.052,1.06-0.224,0.1-0.826,0.277c-0.563,0.081-0.738,0.553-1.109,0.828
			c-0.485,1.381-0.325,3.835,0,5.248c-0.117,1.032,0.152,1.909,0.278,2.764c0.133,0.902,0.166,1.772,0.554,2.485
			c0.485,3.565,1.26,6.842,2.209,9.943c1.342,6.763,3.765,12.439,5.523,18.784c0.705,1.321,0.847,3.202,1.657,4.419
			c0.334,1.689,0.859,3.191,1.382,4.695c0.782,3.268,1.756,6.347,2.21,9.944c0.83,3.222,1.385,6.714,1.654,10.495
			c0.342,3.71,1.195,6.91,1.384,10.773c0.67,0.434,1.032,1.175,1.103,2.209c1.55,1.308,3.347,2.363,5.25,3.313
			c1.969,0.036,3.908,0.04,5.524-0.274c1.502-0.983,3.133-1.84,4.419-3.039c0.529-0.762,1.226-1.354,1.66-2.209
			c0.58-0.709,0.585-1.991,1.101-2.764c0.125-1.228-0.745-1.461-1.101-2.209c-0.265-0.84-0.561-1.652-0.831-2.486
			c-0.581-1.631-1.575-2.846-2.209-4.42c-0.705-3.254-1.905-6.015-2.485-9.391c-0.717-1.221-1.025-2.844-1.382-4.42
			c-0.88-1.146-0.778-3.273-1.659-4.42c0.719-0.661,1.454-1.311,1.934-2.21c-0.242-1.345,0.379-1.832,0.553-2.763
			c0.348-0.113,0.564-0.355,0.554-0.828c2.711-2.258,6.081-3.861,9.944-4.973c3.393,0.104,7.341-0.345,9.94,0.553
			c1.486,0.449,2.494,1.375,3.87,1.934c0.548,0.371,1.312,0.526,1.936,0.83c0.539,0.469,1.705,0.316,2.207,0.827
			c3.356,0.603,6.937,0.981,11.051,0.829c4.83-1.061,7.762-4.021,11.047-6.629c1.736-1.856,3.175-4.006,4.973-5.801
			c0.486-1.539,1.354-2.699,1.936-4.145c1.006-1.018,1.476-2.572,2.207-3.867c0.051-0.407,0.666-0.252,1.104-0.275
			c0.146-0.408,0.412-0.696,0.555-1.105c0.344-0.668,0.684-1.342,0.83-2.21C110.727,49.992,108.575,46.895,108.83,41.393z
			 M36.182,72.605c0.056-0.314,0.28-0.153,0.277,0C36.407,72.92,36.182,72.759,36.182,72.605z M47.233,107.408
			c-0.439,1.494-2.151,1.717-3.037,2.762c-0.438-0.575-0.574-1.451-0.555-2.484c-0.466-0.547-0.3-1.723-0.554-2.485
			c-0.191-1.39,0.47-1.925,0.279-3.314c0.014-1.303-0.486-2.092-0.553-3.313c-0.541-0.842-0.266-2.498-0.827-3.314
			c-0.017-1.367-0.328-2.438-0.553-3.592c-0.252-1.13-0.274-2.488-0.831-3.314c-0.549-4.879-2.414-8.447-3.311-12.981
			c-0.324-0.046-0.303-0.437-0.278-0.828c-0.322-0.046-0.3-0.438-0.276-0.829c-0.83-0.056,0.262-1.146,0,0
			c0.322,0.048,0.299,0.438,0.276,0.829c0.321,0.047,0.3,0.437,0.278,0.828c1.274,2.224,1.78,5.217,3.036,7.459
			c0.698,2.804,1.621,5.377,2.486,8.01C44.419,96.229,45.872,101.771,47.233,107.408z M103.305,55.756
			c-0.393,0.528-0.854,0.99-1.381,1.382c-0.797,0.122-0.652,1.188-1.381,1.38c-0.359,1.022-0.918,1.846-1.104,3.039
			c-0.562,0.363-0.935,0.906-1.105,1.657c-0.477,0.355-1.086,0.572-1.105,1.381c-0.944,0.712-1.772,1.541-2.487,2.486
			c-1.779,1.623-3.7,3.11-5.798,4.418h-8.287c-3.094-0.405-5.336-1.66-7.456-3.037c-2.037-0.448-3.923-1.051-6.079-1.381h-4.97
			c0.313-1.58,1.596-3.483,0.826-5.25c-1.669-0.675-2.484,1.696-3.589,2.486c-0.195,1.279-0.911,2.037-1.105,3.316
			c-2.334,0.337-4.118,1.225-5.8,2.209c-0.732-0.843,0.391-2.174,0.554-3.039c0.327-1.054,0.732-2.027,1.102-3.038
			c0.195-1.958,2.062-4.448,0.554-6.354c-3.065,0.058-4.223,3.095-5.524,5.25c-1.263,2.323-2.178,5.002-2.762,8.009
			c-0.247,1.26,0.46,1.566,0.551,2.486c-0.726,0.285-0.929,1.096-1.659,1.381c-0.469,0.393-0.642,1.808-1.379,1.105
			c-0.354-2.131-1.371-3.604-1.932-5.524c0.294-2.374,0.866-4.474,1.655-6.353c0.263-1.91,2.08-4.08,0.83-5.802
			c-2.139-0.295-2.194,1.491-3.316,2.21c-0.364,1.387-1.139,2.36-1.656,3.592c-1.201-0.87-1.236-2.94-0.831-4.697
			c0.251-1.775,0.923-3.128,1.108-4.972c0.777-1.243,0.872-3.175,1.379-4.694c0.328-1.393,1.733-2.966,1.105-4.42
			c-0.989-0.645-2.312,0.337-2.761,1.105c-0.739,0.642-1.295,1.468-1.659,2.487c-1.125,1.636-1.966,3.556-2.483,5.8
			c-1.025,0.195-0.477-1.179-1.106-1.38c0.072-0.809-0.625-0.85-0.554-1.659c0.138-4.833,1.907-8.036,2.209-12.705
			c-0.383-1.275-1.435-1.88-3.314-1.657c-1.917,0.659-2.126,3.03-2.761,4.972c-1.926-2.354,0.819-5.322,1.932-7.182
			c3.525-2.829,6.867-5.84,11.877-7.182h5.801c5.17,1.551,9.251,4.191,15.469,4.697H73.2c3.301-0.658,6.054-1.863,8.838-3.04
			c0.886-1.139,2.735-1.312,3.59-2.485c1.452-0.483,2.14-1.728,3.593-2.21c2.002-2.233,4.119-4.351,6.354-6.353
			c0.223-0.238,0.754-0.164,0.828-0.552c0.227-0.052,0.27,0.107,0.273,0.275c0.137,2.968,0.385,5.646,0.831,8.287
			c0.027,0.176-0.045,0.38,0,0.553c0.574,2.302,1.38,6.001,2.208,8.562c0.057,0.181,0.501,0.682,0.555,0.83
			c0.303,0.848,0.438,1.924,0.828,3.037c0.062,0.181,0.502,0.683,0.549,0.828c0.062,0.164-0.039,0.383,0,0.553
			c0.094,0.359,0.605,1.44,0.832,2.21c0.785,2.671,1.205,5.409,1.934,8.286C104.178,52.762,103.459,53.976,103.305,55.756z"/>
	</g>
</g>
</svg>
