<?xml version="1.0" encoding="utf-8"?>
<!-- Generator: Adobe Illustrator 16.0.0, SVG Export Plug-In . SVG Version: 6.00 Build 0)  -->
<!DOCTYPE svg PUBLIC "-//W3C//DTD SVG 1.1//EN" "http://www.w3.org/Graphics/SVG/1.1/DTD/svg11.dtd">
<svg version="1.1" id="Layer_1" xmlns="http://www.w3.org/2000/svg"  x="0px" y="0px"
	 width="120px" height="120px" viewBox="4 4 120 120" style="enable-background:new 4 4 120 120;" xml:space="preserve">
<g id="flashlight">
	<g>
		<path d="M93.1,27.1c1.9,0.2,1.9-1.9,3-2.7c0.601-1.4,1.5-2.4,2-3.9c-0.1-0.8,0.5-0.7,0.4-1.3c-0.3-0.4-0.1-1.2-0.1-1.9
			c-0.2,0-0.4,0-0.5-0.1c-1,0.5-2,1-2.9,1.6c-0.8,1.3-1.8,2.4-2.6,3.8C92,23.3,91.6,24,91.6,25.2C91.9,26,92,27,93.1,27.1z
			 M98.4,56.1c0.3-1.7,0.3-3.2,0.199-4.6C96.3,43.7,92.2,37.4,87.7,31.4c-1.8-1.2-2.8-3.1-5-4c-1.9-1.3-3.3-3.1-6.4-3.4
			c-0.3,0.1-0.6,0.2-0.899,0.5c-0.9,0.3-1.9,0.5-2.5,1.1C72.3,26.3,71,26.2,70.3,27c-1.5,1.1-3.1,2-4.6,3c-1.5,1.1-3.2,1.9-4.4,3.3
			C60.2,33.5,60,34.7,59,35c-0.7,0.6-1.6,1-1.9,2.2c-1.1,2.7-0.6,7.6-1.2,9.3c-0.4,1.6-1.8,1.9-2.7,2.7c-1,0.8-2.1,1.4-3.2,2.1
			c-0.9,0.9-1.9,1.7-3,2.4c-0.8,1.2-2.1,1.7-2.7,3c-1.9,1.7-4,3.2-5.9,4.8c-2.1,1.6-4.4,2.9-6.2,4.8c-4.2,3-7.9,6.5-11.9,9.9
			c-3.4,3.899-8,6.399-10.7,11.3c-0.5,1.4,0.3,1.9,0.2,3c-0.1,1.2-0.3,2.5-0.4,3.7c0.4,1,0.8,1.899,1,3.1c0.6,0.9,1.2,1.8,1.6,2.9
			c1.7,1.399,2.9,3.2,4.4,4.8c2.8,1.6,4.7,4.1,8.7,4.7c1.4-0.101,2.2-1.101,3.2-1.8c1.3-0.301,2.1-1.301,3.2-1.801
			c2.5-2.3,5.4-4.8,7.7-6.8c0.4-0.399,0.6-0.7,0.9-1c0.8-0.8,1.2-1.6,2.1-1.899c1.4-2.2,4-2.9,5.4-5.101
			C53.8,87.4,59.1,82.3,65,77.9c0.6-1.2,1.8-1.601,2.5-2.7C68.2,75.1,68.2,74,69,74c0.5-0.4,0.7-1.2,1.5-1.2
			c1.8,0.8,3.6,0.101,5.9,0.601c1.6,0.199,2.8,0.899,4.5,1c0.8-0.5,2-0.5,2.6-1.4c0.7-0.8,1.6-1.3,2.6-1.6
			c1.5-1.301,2.9-2.601,4.5-3.9c1.5-1.3,2.801-2.8,4.5-3.9c1.301-1.6,3.301-2.2,4.2-4.2C99.5,57.8,97.9,57.9,98.4,56.1z M61.2,38.9
			c-0.1,0.3-0.3,0.1-0.3,0C61,38.6,61.2,38.8,61.2,38.9z M56.6,75.6c-3.2,2.4-5.6,5.801-9,8C46.2,83.1,46,81.7,44.3,81.4
			c-1.2,0-1.8,0.8-2.1,1.899c-0.1,1.8,0.9,2.5,1.8,3.4c-0.5,0.8-1.4,1-1.8,1.7c-1.1-0.5-1.6-1.5-2.5-2.2c-0.6-0.9-1.1-1.9-2.2-2.4
			C36,83.6,35.6,84.9,35.1,86c0.2,1.3,1,2.2,1.6,3.1c0.6,0.2,0.6,1,1.2,1.2c0.1,0.601,1.1,0.8,0.4,1.4c-0.9,0.5-1.6-0.8-2.3-1.3
			c-0.6-0.7-1.3-1.301-2-1.801c-0.6-0.8-1.3-1.399-2-2.1c-0.6-0.7-0.7-1.7-2-1.8c-1.4-0.2-2.1,0.6-2.1,2.2
			c0.3,2.6,2.7,3.399,3.8,5.3c1.4,0.399,1.8,1.5,3.3,1.7c0.5,0.699-0.7,1.1-1.2,1.5C33.3,95.9,33,96.6,32.1,96.6
			C29.7,95.4,28.3,93.4,26.7,91.7c-0.6-1.101-0.8-2.601-2.1-3.2c-2.2-0.4-2.7,2.3-2.3,4.1c1.4,3,3.6,5.4,6.3,7.4
			c0,0.8-2.2,0.5-2.4,0c-1-0.2-1.4-0.8-2.3-1.1c-0.9-1.2-2.2-2.2-3.2-3.301c-0.5-0.8-0.8-1.699-1.1-2.5c-1.2-0.1-1.9,1.5-1.3,2.601
			c0.1,1.2,1.1,1.7,1.3,2.8c0.9,0.9,1.9,1.7,2.7,2.7c0.7,0.2,1.2,0.5,1.5,1c0.4,0.399,1.7,0.1,1.5,1c-1.8,0.8-2.9-0.8-3.6-1.7
			c-1.2-0.7-1.7-1.9-2.7-2.7c-1.6-2-2.9-4.2-3.9-6.6c0.1-1.2-0.2-2.101,0.1-3.5c0.8-1.4,1.8-2.4,3-3.2c0.8-1.3,2.1-1.9,3-2.9
			c2.4-1.5,4.7-3.1,6.7-5c4.5-3.3,8.8-6.899,13.5-10c3.7-3.899,8.1-6.899,11.9-10.7c1.4-1,2.2-2.8,3.6-3.7c0-0.4,0.3-0.4,0.4-0.8
			c0.2,0,0.2,0.1,0.2,0.3c2.3,5.3,4.4,10.7,7.9,14.899C63.1,70.8,59.2,72.3,56.6,75.6z M87.8,62c-2,2-4.2,3.9-6.1,6.1
			c-1.3-0.6-3.601-0.5-5.3-0.8c-0.9-0.2-2.2,0-2.601-0.5C73,66.4,72.1,67.4,71.7,66.6c-1-0.199-0.8-1.5-1.4-2
			c0.101-1.1-0.399-1.8-0.8-2.5c-0.1-2-1.1-3.4-1.3-5.3c-1.3-3.2-1.8-7-4.2-9.4c0.1-2.1,0.6-3.7,1.1-5.3c-0.1-1.2,0.601-1.5,0.5-2.6
			c0.4-0.5,0.2-1.8,0.801-2.1c0.3-1.1-0.4-1.3-0.301-2.2c1.801-1,3.5-2.2,5.2-3.2c0.2,0,0.2,0.1,0.2,0.3c0.2,0,0.2,0.1,0.2,0.3
			c0.5,4.3,1.6,8.2,3.399,11.5c2.5,3.7,6.101,6.5,8.4,10.3c2.4,1.9,4.2,4.4,7.8,5.4C90.3,60.7,89,61.3,87.8,62z M93.4,54.7
			c-3.5-1.2-4.9-4-7.5-5.9c-0.4-0.9-1.301-1.4-1.7-2.3c-0.3-0.9-1.3-1.2-1.4-2.3C81.4,43,81.1,41,79.7,39.8c-0.2-1-0.9-1.7-1.4-2.6
			c-0.5-0.7-0.7-1.7-1.399-2.3C76.8,33.8,76,33.3,75.8,32.3c-0.6-0.7-0.6-2-1.1-2.8c0-0.3,0.1-0.5,0.1-0.8c0.3,0,0.5,0.1,0.5,0.3
			c2.3,0.5,3.3,2,5.101,3c1.699,1,2.699,2.5,4.199,3.7c1.801,2.9,3.9,5.5,5.301,8.7c0.899,1.6,1.5,3.2,2.199,4.8
			C93,50.8,93.9,52.5,93.4,54.7z M110.1,34.6c1-0.6,2.101-1,2.9-1.9c1.2-0.4,2.2-0.9,2.2-2.8c-0.3-0.8-1.3-1.1-2.601-1.1
			c-0.1,0.3-0.3,0.4-0.6,0.5c-1.5,0.8-2.8,1.8-4.6,2.2c-1.301,1.1-3.4,1-3.801,3.1C104.9,37.1,108.5,35.4,110.1,34.6z M117.5,47
			c-1.1-0.1-2.1-0.2-3.2-0.3c-1.3-0.6-3.399-0.5-4.8-1c-2.1-0.1-4.4-0.4-4.8,1.7c0.8,1.2,2.3,1.5,3.899,2c1.5,0.5,3.4,0.9,5,1.3
			c2.601,0.3,5.4,0.8,5.801-1.6C119.5,47.8,118.2,47.6,117.5,47z M45.9,66.3c-0.5,1.9-0.7,4.101,0,5.7c0.8,1,2.5,1.3,4.2,1.5
			c0.9-0.1,1.8-0.6,2.3-0.8c1-0.5,1.5-0.8,2.3-1.7c0.5-0.5,1.1-1,1.5-1.5c0.1-0.1,0-0.4,0.1-0.5c0.1-0.2,0.5-0.1,0.6-0.5
			c0-0.3,0.2-0.1,0.3-0.2c0.5-0.8,0.8-2.2,0.9-3.399c-0.4-0.5-0.2-1.5-0.6-2C53,59.5,48,63.1,45.9,66.3z"/>
	</g>
</g>
</svg>
