<?xml version="1.0" encoding="utf-8"?>
<!-- Generator: Adobe Illustrator 16.0.0, SVG Export Plug-In . SVG Version: 6.00 Build 0)  -->
<!DOCTYPE svg PUBLIC "-//W3C//DTD SVG 1.1//EN" "http://www.w3.org/Graphics/SVG/1.1/DTD/svg11.dtd">
<svg version="1.1" id="Layer_1" xmlns="http://www.w3.org/2000/svg"  x="0px" y="0px"
	 width="120px" height="120px" viewBox="4 4 120 120" style="enable-background:new 4 4 120 120;" xml:space="preserve">
<g id="flash1">
	<g>
		<path d="M92.247,70.221c-2.61-2.426-5.624-4.525-8.69-6.582c-1.498-1.103-3.135-2.087-4.798-3.054
			c-0.692-0.552-1.717-0.836-2.411-1.387c-0.642-0.68-1.992-0.785-2.384-1.667c3.125-6.505,6.472-12.738,8.902-20.099
			c1.356-3.506,2.452-7.331,3.694-10.978c0.988-1.32,1.477-3.255,2.211-4.883c0.24-0.686,0.922-1.441,1.104-2.444
			c0.215-1.16,0.062-2.162-0.237-3.148c-0.695-0.681-1.434-0.757-2.25-0.233c-1.02-0.373-1.344-1.312-3.004-1.164
			c-0.39,0.048-0.578,0.342-1.152,0.165c-2.323,1.578-4.377,3.483-6.516,5.288c-0.982,1.009-1.886,2.115-2.879,3.111
			c-0.557,1.534-2.02,1.951-2.628,3.42c-3.338,2.228-6.103,5.161-9.308,7.556c-1.207,1.682-3.021,2.617-4.147,4.399
			c-1.612,1.29-2.541,3.42-4.179,4.678c-2.662,3.167-5.543,6.062-8.325,9.079c-0.573,0.881-1.214,1.679-1.95,2.354
			c-0.659,0.777-1.07,1.85-1.951,2.355c-0.423,1.06-0.987,1.952-1.694,2.665c-0.569,0.7-2.029,1.546-1.417,2.692
			c-0.293,2.557,1.876,3.111,3.246,4.314c0.985,1.604,2.757,2.564,4.146,3.839c1.917,0.847,2.896,2.45,4.767,3.335
			c0.841,0.52,1.591,1.113,2.692,1.416c0.537,0.766,2.066,0.727,2.383,1.67c-1.004,2.666-2.598,4.615-3.597,7.295
			c-1.775,1.723-2.89,4.26-4.353,6.365c-2.737,4.447-5.714,8.604-7.697,13.973c0.103,1.081-0.484,1.309-0.517,2.219
			c-0.208,1.545,0.633,2.23,0.154,3.994c-0.448,1.819,0.125,2.814,1.055,3.519c1.346,0.633,2.439,0.101,3.46-0.494
			c0.095-0.332,0.331-0.14,0.561,0.06c0.094-0.31,0.358-0.406,0.622-0.504c0.494-0.343,0.973-0.703,1.521-0.978
			c2.08-1.035,3.785-2.523,5.778-3.662c3.92-2.356,6.747-6.06,10.8-8.254c3.538-2.826,7.191-5.511,10.547-8.564
			c3.197-3.35,7.149-5.771,10.071-9.465c1.927-0.793,3.146-2.463,5.156-3.155c1.651-1.24,3.476-2.27,4.18-4.681
			C93.393,72.725,92.617,71.639,92.247,70.221z M77.502,80.907c-2.412,2.204-5.055,4.128-7.225,6.635
			c-0.907,0.146-0.946,1.367-1.858,1.511c-0.338,0.854-1.423,0.786-1.86,1.514c-1.103,1.285-2.649,2.018-3.752,3.304
			c-2.777,1.86-5.599,3.667-8.006,5.985c-0.094-0.011-0.188-0.02-0.281-0.028c-0.008,0.344-0.428,0.129,0,0
			c0.029-0.281,0.059-0.562,0.088-0.843c-0.849,0.095-1.326,1.693-2.086,0.918c-0.325,0.867-0.966,1.345-1.607,1.822
			c-0.418,0.754-0.643,1.744-1.86,1.512c-0.694-1.51,0.937-2.553,1.25-3.848c0.73-1.106,1.467-2.207,2.317-3.169
			c0.093-0.839,0.831-0.879,1.017-1.598c0.478-0.47,0.463-1.546,1.051-1.88c0.387-1.53,1.049-2.721,1.81-3.789
			c1.096-2.67,2.597-4.834,3.629-7.576c0.859-0.95,1.207-2.529,2.063-3.48c0.565-1.418,1.404-2.496,1.339-4.688
			c0.01-0.862-1.445-0.541-1.567-1.298c0.152-0.98-0.854-1.024-0.949-1.803c-0.485-0.037-0.7-0.295-0.784-0.65
			c-4.614-2.346-8.727-5.097-11.89-8.619c0.623-1.875,2.316-2.43,3.25-3.924c1.442-0.969,2.305-2.652,3.778-3.585
			c0.23-1.092,1.361-1.072,1.642-2.103c0.73-0.469,1.252-1.203,1.889-1.792c1.156-1.322,2.197-2.788,3.529-3.894
			c2.111-2.786,4.314-5.462,6.776-7.819c2.213-2.916,5.272-4.684,6.553-8.411c0.423-0.114,0.733-0.364,0.929-0.754
			c0.338,0.404,1.01,0.48,1.157-0.163c0.802-0.491,1.035-1.68,2.425-1.452c0.631,2.423-2.131,3.251-2.05,6.034
			c-2.983,3.299-4.464,8.449-6.961,12.346c-2.142,4.337-4.506,8.398-5.2,14.515c0.241,0.748,0.549,1.442,0.92,2.083
			c0.896,0.258,1.328-0.056,1.998-0.077c0.951,1.2,2.246,2.121,3.668,2.938c1.115,1.155,2.537,2.058,3.955,2.968
			c2.485,2.013,5.075,3.943,7.623,5.904C82.984,77.305,79.501,78.189,77.502,80.907z M54.606,98.982
			C55.03,98.852,54.613,98.641,54.606,98.982L54.606,98.982z"/>
	</g>
</g>
</svg>
