<?xml version="1.0" encoding="utf-8"?>
<!-- Generator: Adobe Illustrator 16.0.0, SVG Export Plug-In . SVG Version: 6.00 Build 0)  -->
<!DOCTYPE svg PUBLIC "-//W3C//DTD SVG 1.1//EN" "http://www.w3.org/Graphics/SVG/1.1/DTD/svg11.dtd">
<svg version="1.1" id="Layer_1" xmlns="http://www.w3.org/2000/svg"  x="0px" y="0px"
	 width="120px" height="120px" viewBox="4 4 120 120" style="enable-background:new 4 4 120 120;" xml:space="preserve">
<g id="flow-line">
	<g>
		<path d="M78.047,29.211c-1.363-2.568-2.467-5.387-4.505-7.28c-1.468-2.461-3.575-4.278-6.586-5.196
			c-0.935-0.683-3.029-0.205-4.503-0.348c-4.861,1.03-7.672,4.113-9.706,7.971c-0.448,2.786-0.358,6.109-0.345,9.357
			c0.58,0.807,0.904,1.867,1.037,3.119c1.538,2.393,3.422,4.436,5.199,6.586c0.87,0.399,1.16,1.379,2.427,1.387
			c0.343,0.926,2.112,0.427,2.081,1.732c-1.051,12.462-1.768,25.262-2.081,38.467c-2.413,0.355-3.565,1.977-5.546,2.771
			c-1.939,2.451-4.68,4.099-5.545,7.623c-0.741,1.567-0.162,4.459-0.345,6.586c2.04,3.967,5.27,6.742,9.009,9.011
			c1.191-0.151,1.942,0.136,2.773,0.347c2.195,0.113,3.509-0.646,5.544-0.693c1.777-1.34,4.299-1.938,5.546-3.812
			c2.062-1.172,2.819-3.646,4.158-5.544c0.188-0.505-0.404-1.792,0.345-1.734c0.188-3.069-0.22-5.552-0.689-7.97
			c-0.547-0.958-1.078-1.926-1.388-3.118c-1.028-0.472-1.438-1.565-2.079-2.427c-1.156,0-1.186-1.127-2.429-1.039
			c-0.377-0.893-2.237-0.303-2.772-1.041c-0.067-2.842,0-5.552,0.35-7.969c0.215-10.413,0.445-20.812,1.732-30.152
			c3.563-0.826,5.568-3.211,7.625-5.545c-0.025-0.603,0.076-1.077,0.348-1.386c0.479-0.212,0.051-1.333,0.689-1.387
			C78.445,34.585,78.428,31.718,78.047,29.211z M67.996,91.244c1.556,1.561,2.254,3.984,2.079,7.277
			c-1.438,2.723-3.081,5.233-7.278,5.197c-0.007-1.972,0.586-3.341,1.042-4.854c0.154-1.426-1.241-1.301-1.386-2.426
			c0.788-0.713,1.194-1.807,1.039-3.465c-0.053-0.758-0.875-0.744-1.734-0.692C63.092,90.785,65.754,91.009,67.996,91.244z
			 M70.075,35.447c-0.964,0.771-1.115,2.349-3.119,2.079c-2.177-1.858,0.698-3.895,0.69-6.583c-0.289-0.977-0.982-1.559-2.422-1.387
			c0.084-2.051,0.051-3.981-1.732-4.159c0.008-0.337,0.425-0.269,0.69-0.346c2.173,0.137,2.429,2.191,3.813,3.119
			c0.612,1.577,1.592,2.8,2.079,4.504L70.075,35.447L70.075,35.447z"/>
	</g>
</g>
</svg>
