<?xml version="1.0" encoding="utf-8"?>
<!-- Generator: Adobe Illustrator 16.0.0, SVG Export Plug-In . SVG Version: 6.00 Build 0)  -->
<!DOCTYPE svg PUBLIC "-//W3C//DTD SVG 1.1//EN" "http://www.w3.org/Graphics/SVG/1.1/DTD/svg11.dtd">
<svg version="1.1" id="Layer_1" xmlns="http://www.w3.org/2000/svg"  x="0px" y="0px"
	 width="120px" height="120px" viewBox="4 4 120 120" style="enable-background:new 4 4 120 120;" xml:space="preserve">
<g id="flow-branch">
	<g>
		<path d="M103.6,24.769c-0.727-0.68-0.672-2.138-1.053-3.155c-3.088-4.512-7.014-8.187-15.084-7.717
			c-0.443,0.02-0.482,0.449-1.049,0.35c-1.131,0.273-2.07,0.732-2.807,1.402c-1.385-0.096-1.072,1.501-2.455,1.404
			c-3.547,4.404-7.135,8.766-6.312,17.537c1.28,0.939,1.312,3.13,3.155,3.507c1.25,1.09,3.418,1.261,3.858,3.156
			c0.201,2.657-0.406,4.506-0.701,6.664c-4.733,6.491-11.34,11.108-19.292,14.382c-3.299,0.322-6.462,0.781-10.167,0.699
			c-3.793-0.21-7.19,0.377-10.175,0c0.035-6.93-1.093-12.699-0.699-19.991c7.635-2.3,12.167-7.705,11.223-18.589
			c-0.91-1.076-0.76-3.214-2.104-3.859c-0.438-1.548-1.701-2.271-2.458-3.506c-1.301-0.563-2.355-1.383-3.506-2.104
			c-2.359-0.21-4.156-0.986-7.013-0.701c0.058,0.763-1.247,0.16-1.754,0.353c-6.55,3.737-11.02,9.555-10.873,19.991
			c0.765,1.224,1.057,2.918,1.755,4.21c1.716,0.27,1.974,1.998,4.207,1.752c1.461,0.527,2.982,0.995,3.858,2.104v7.015
			c1.83,11.255,0.039,24.01,1.053,36.126c-1.467,1.455-3.881,1.964-4.563,4.207c-0.725,0.677-1.693,1.108-2.452,1.755
			c-1.141,0.381-1.324,1.717-2.103,2.454c-0.768,4.408,0.06,9.581,0.35,14.03c2.151,4.045,6.896,5.499,12.978,5.611
			c1.533-0.317,3.4-0.377,4.209-0.701c1.262-0.506,2.498-0.993,3.155-1.403c0.322-0.2,0.707-0.123,1.049-0.351
			c0.495-0.324,0.927-1.034,1.407-1.403c0.295-0.228,0.785-0.146,1.049-0.351c0.199-0.147,0.502-0.516,0.704-0.701
			c0.804-0.744,1.128-1.492,1.402-2.104c0.048-0.108,0.615-0.229,0.701-0.351c0.574-0.803,0.737-1.649,1.052-2.455
			c0.102-0.266,0.278-0.219,0.351-0.35c1.221-2.234,0.473-5.334,0.703-8.771c-0.522-0.297-0.754-0.883-0.703-1.754
			c-1.266-2.239-3.41-3.604-5.259-5.261c-1.132-0.271-2.072-0.732-2.807-1.402c-1.179-0.223-2.557-0.25-3.155-1.053
			c-0.7-5.381-0.81-11.35-1.407-16.836c5.042,1.974,12.49,1.541,18.942,2.104c1.187-0.096,2.012-0.557,3.506-0.35
			c1.993-1.049,4.555-1.525,6.312-2.807c2.069-0.97,4.117-1.964,5.61-3.508c2.117-0.925,3.531-2.548,5.263-3.856
			c1.849-1.312,3.067-3.248,4.912-4.561c0.823-1.746,1.821-3.32,2.808-4.91c0.391-2.529,1.245-4.6,1.049-7.716
			c2.479,0.37,3.59-0.619,5.612-0.7c0.445-1.074,2.011-1.033,2.455-2.104c1.037-0.485,1.418-1.62,2.455-2.105
			c0.117-0.816,0.356-1.511,1.051-1.754C103.027,33.082,103.938,29.549,103.6,24.769z M36.61,37.396
			c-0.662-0.686,0.487-2.537,1.054-3.158c0.054-0.411-0.062-0.995,0.348-1.052v-2.104c0.056-1.114,0.797-1.543,0.701-2.806
			c0.065-0.765-0.288-1.116-1.049-1.052c0.017-0.449,0.447-0.486,0.348-1.052c-0.268-0.905-1.118-1.22-2.456-1.052
			c0.615-1.842,2.173-2.739,4.211-3.158c4.956,0.022,5.566,5.863,4.207,10.171c-0.348,0-0.417,0.285-0.699,0.352
			c0.332,1.455-1.053,0.069,0,0c-0.199-0.505-0.55-0.854-1.056-1.053c-1.494,0.261-2.085,1.421-3.156,2.104
			c-0.155,0.896-0.491,1.613-1.051,2.104C38.182,36.862,37.136,36.867,36.61,37.396z M38.713,105.438
			c0.379,0.086,0.24,0.697,0.704,0.701C39.266,107.107,38.312,106.158,38.713,105.438z M44.325,94.564
			c0.939,0.816,2.305,1.203,3.155,2.104c0.917,2.991-0.603,5.712-2.104,7.365c-0.694-0.007-0.444-0.958-1.402-0.701
			c-1.488,0.382-0.665,3.074-2.804,2.806c-0.18-2.627-1.998-3.613-2.107-6.313c0.109-0.808-1.012-0.39-1.051-1.05
			c-0.031-1.944,4.032-2.184,1.755-4.209C40.963,93.504,42.776,94.812,44.325,94.564z M92.727,34.238
			c-1.134,0.314-0.492-1.143-1.05-1.402c-1.44,0.281,0.179,1.443-0.704,2.104h-3.158c0.228-1.881,0.281-3.931,0.703-5.611
			c-0.146-0.788-1.863-0.009-2.104-0.701c-0.014-1.99,1.003-2.812,0.35-4.56c0.99-1.234,2.791-1.652,5.264-1.402
			c1.043,0.706,1.729,1.776,2.806,2.456C95.721,28.59,94.846,32.68,92.727,34.238z"/>
	</g>
</g>
</svg>
