<?xml version="1.0" encoding="utf-8"?>
<!-- Generator: Adobe Illustrator 16.0.0, SVG Export Plug-In . SVG Version: 6.00 Build 0)  -->
<!DOCTYPE svg PUBLIC "-//W3C//DTD SVG 1.1//EN" "http://www.w3.org/Graphics/SVG/1.1/DTD/svg11.dtd">
<svg version="1.1" id="Layer_1" xmlns="http://www.w3.org/2000/svg"  x="0px" y="0px"
	 width="120px" height="120px" viewBox="4 4 120 120" style="enable-background:new 4 4 120 120;" xml:space="preserve">
<g id="flow-cascade">
	<g>
		<path d="M101.166,99.305c-2.582-4.822-8.372-6.438-16.157-6.059c-0.041,0.743-1.426,0.145-2.021,0.338
			c-0.283,0.5-1.084,0.486-1.682,0.671c-0.287,0.501-0.847,0.726-1.681,0.675c-0.571,1.113-1.815,1.553-2.694,2.356
			c-0.369,1.198-1.433,1.71-1.686,3.026c-0.811,0.871-0.564,2.797-1.68,3.367H44.622c-0.05-3.375-1.454-6.771-1.682-10.435
			c-0.207-3.351,0.346-6.687-0.336-10.099v-7.738c0.203-0.696-0.417-2.209,0.336-2.354c9.754,1.105,18.024-1.856,28.607-1.011
			c0.5,1.627,0.385,3.877,1.682,4.712c0.787,0.669,2.145,0.775,3.703,0.674c1.188,1.504,2.959,2.426,4.711,3.364
			c1.746,0.158,3.059,0.759,5.049,0.674c0.926-0.376,2.138-0.101,3.027-0.338c0.201-0.053,0.684-0.59,1.01-0.673
			c0.196-0.049,0.494,0.083,0.674,0c0.652-0.3,2.426-2.156,3.029-2.691c0.123-0.107,0.559,0.113,0.674,0
			c0.111-0.113-0.112-0.56,0-0.675c0.879-0.901,1.215-1.207,1.682-2.021c0.533-0.916,0.619-1.118,1.012-2.354
			c0.42-1.332,0.846-3.57,1.01-4.712c0.301-2.108-0.811-3.323-0.676-5.048c-0.91-0.858-1.293-2.214-2.354-3.365
			c-0.619-0.67-1.809-1.254-2.355-1.684c-0.281-0.217-0.38-0.805-0.674-1.009c-0.289-0.201-0.756-0.18-1.012-0.338
			c-0.619-0.386-1.158-0.768-1.68-1.01c-0.959-0.44-1.797-0.783-2.692-1.01c-0.21-0.051-0.315-0.329-0.339-0.335
			c-2.543-0.679-4.025-0.024-6.059,0.335c-3.771,1.84-5.721,5.502-7.74,9.088c-10.628,0.592-19.671,2.77-30.625,3.028
			c0.965-8.456-0.511-19.354,1.348-26.923c2.979,0.176,3.967-1.642,6.055-2.357c3.7-4.151,7.237-8.473,6.732-16.826
			c-0.682-0.215-0.221-1.572-1.012-1.683c0.09-0.986-0.76-1.034-0.67-2.021c-4.485-4.152-10.635-8.06-19.518-6.729
			c-1.218,0.467-1.887,1.479-3.369,1.682c-3.348,3.832-5.766,8.593-5.72,15.817c0.189,3.287,0.966,5.987,2.353,8.077
			c1.475,0.323,1.823,1.768,3.707,1.682c1.394-0.978,2.336,0.886,3.364,1.348c-0.627,6.273-0.666,14.771,0.67,20.192
			c-1.086,12.077-0.433,24.695-0.335,37.355c0.43,1.927,0.791,3.924,1.344,5.724c-0.341,3.481,0.453,5.832,1.685,7.737
			c2.421,1.048,5.299,0.675,8.078,0.675h26.252c0.957,0.835,2.039,1.551,3.029,2.356c0.495,0.398,0.52,1.271,1.006,1.682
			c-0.09,1.1,1.309,0.713,1.347,1.683c1.271,0.751,2.472,1.571,3.704,2.356c1.046,0.187,2.191,0.274,3.027,0.674h2.021
			c-0.343,1.012,0.749,0.596,1.343,0.675c2.254-0.44,4.266-1.121,6.396-1.687c0.615-0.957,1.91-1.227,2.356-2.354
			c0.836-0.738,1.185-1.957,2.017-2.693C101.303,109.617,102.061,104.107,101.166,99.305z M86.352,62.284
			c2.853,0.294,4.293,1.993,5.726,3.702c0.504,4.768-1.246,7.277-4.037,8.75c-1.229,0.22-1.791-0.227-2.356-0.674
			c-1.271-0.285-1.582,1.117-2.357,0.336c0.156-2.422,0.5-4.662,1.348-6.394c-0.5-1.071-0.662-2.479-2.354-2.354
			C83.078,63.944,84.118,62.516,86.352,62.284z M36.544,33.005c-0.44-0.119-0.525-0.592-1.005-0.673
			C35.671,31.494,36.842,32.312,36.544,33.005z M41.595,28.293c-0.652-1.983-2.208-3.9-1.348-6.395
			c-0.477-0.865-0.786-1.904-2.016-2.019c-0.329-0.01-0.265-0.41-0.338-0.673c4.201-1.141,7.553,1.396,10.095,3.027
			c0.252,2.386-0.376,3.888-0.671,5.723c-1.083,0.936-1.391,2.649-2.694,3.364c-0.861,1.159-1.33,2.706-3.363,2.692
			C41.055,31.791,41.845,30.564,41.595,28.293z M88.709,112.432c-0.264-0.871,0.178-3.524,0-5.385
			c-0.322-1.357-2.316-1.691-3.7-1.011c0.29-1.504,0.818-2.772,0.673-4.711c2.937,0.204,6.176,0.104,8.078,1.345
			C93.704,107.553,93.055,111.837,88.709,112.432z"/>
	</g>
</g>
</svg>
