<?xml version="1.0" encoding="utf-8"?>
<!-- Generator: Adobe Illustrator 17.0.0, SVG Export Plug-In . SVG Version: 6.00 Build 0)  -->
<!DOCTYPE svg PUBLIC "-//W3C//DTD SVG 1.1//EN" "http://www.w3.org/Graphics/SVG/1.1/DTD/svg11.dtd">
<svg version="1.1" id="Layer_1" xmlns="http://www.w3.org/2000/svg"  x="0px" y="0px"
	 width="120px" height="120px" viewBox="0 0 120 120" enable-background="new 0 0 120 120" xml:space="preserve">
<g id="flower">
	<g>
		<path d="M100.135,71.988c-1.428-1.887-3.062-3.563-6.324-3.615c-3.34,0.074-6.168,0.66-8.736,1.507
			c-1.189,0.517-2.312,1.101-3.611,1.506c-0.701,1.005-2.361,1.052-3.014,2.108c-2.344,1.07-4.17,2.656-6.024,4.216
			c-1.034,0.674-1.694,1.718-2.711,2.409c-0.666,0.24-0.753,1.055-1.202,1.507c-0.531-0.087-0.936,1.419-1.207,0.604
			c-0.312-5.312-1.248-9.996-2.109-14.76c1.39,1.635,5.08,2.406,7.533,1.205c1.414-1.496,1.672-4.154,1.506-7.23
			c1.602,0.893,4.24,1.655,7.531,1.206c0.075-0.012,0.321-0.287,0.598-0.302c0.691-0.039,0.537-0.437,0.906-0.604
			c0.463-0.207,0.728-0.145,1.205-0.603c0.543-0.517,0.729-1.179,1.205-1.505v-3.312c-0.373-0.934-0.994-1.617-1.808-2.108
			c0.051-0.756-0.465-0.943-0.904-1.206c0.162-0.433-1.174-0.735-0.304-0.904c2.664-0.385,5.663-0.679,6.932-2.408
			c0.318-0.438-0.082-0.973,0.604-1.204c0.22-1.428-0.34-2.072-0.305-3.315c-0.412-1.293-1.431-1.981-1.806-3.312
			c2.2-0.31,3.382-1.639,4.818-2.71c1.296-2.703,0.368-6.188-1.505-7.532c-4.729-0.95-9.041,0.686-12.65,1.809
			c1.605-1.909,3.545-3.483,4.82-5.723c-0.286-0.465,0.285-0.806,0.3-0.905c0.39-2.785,0.065-6.748-0.904-8.433
			c-0.534-0.168-1.252-0.155-1.505-0.603c-3.225-0.111-4.596,1.632-6.326,3.014c-0.984,0.518-1.422,1.586-2.408,2.107
			c-0.273,0.531-0.674,0.931-1.203,1.205c-0.09,0.266-0.816,1.317-0.904,0.602c0.02-4.942,0.254-10.096-3.916-10.844
			c-4.413,0.31-5.185,4.254-7.228,6.93c-0.028,0.475,0.142,1.148-0.301,1.203V25c-0.19,0.817,0.378,2.391-0.304,2.712
			c-1.776-4.452-3.75-8.699-7.529-11.146c-2.125-0.116-4.04-0.024-5.12,0.904c0.015,0.515-0.224,0.779-0.604,0.903
			c-0.227,3.139,0.283,5.54,0.903,7.831c1.136,1.576,2.357,3.066,3.316,4.818c0.365-0.03,0.184,0.438,0,0h-0.301
			c-1.688-1.024-3.39-2.031-5.724-2.41c-4.297-0.282-7.388,0.646-9.638,2.41c-0.92,3.226,0.67,6.015,2.107,7.832
			c0.752,0.252,1.184,0.824,2.107,0.903c0.294,0.709,1.738,0.271,2.109,0.904c-2.292,2.126-5.819,3.016-6.625,6.626
			c-0.121,5.996,7.469,5.714,12.952,5.12c-0.54,1.769-2.033,2.588-2.711,4.217c-0.976,1.334-1.659,2.962-2.107,4.819v3.313
			c0.293,0.008,0.233,0.369,0.302,0.604c0.624,0.58,1.459,0.951,2.108,1.507c1.897-0.009,3.933,0.118,5.421-0.302
			c1.398-0.908,2.677-1.939,3.915-3.014c0.604-1.303,1.58-2.236,2.109-3.614c0.232-0.669,0.632-1.174,0.602-2.108
			c0.862-0.041-0.26-2.068,0.604-2.108c1.127,1.681,1.631,3.991,1.805,6.627c0.71,0.693,0.247,2.563,0.904,3.313
			c-0.042,0.741-0.047,1.45,0.301,1.808c0.165,0.438-0.351,1.555,0.299,1.506c0.487,4.938,1.578,9.268,1.509,14.758
			c-7.747-4.735-16.734-9.733-29.52-8.434c-0.663,0.545-1.238,1.176-2.11,1.506c-1.756,3.166-3.272,6.566-3.01,11.747
			c0.407,0.095,0.247,0.755,0.3,1.205c0.403,0.198,0.56,0.644,0.602,1.204c1.136,1.477,2.568,2.654,3.919,3.916
			c2.798,1.314,5.803,2.428,9.333,3.014c3.69,0.428,7.227,1.006,10.543,1.805c2.263,1.554,5.152,2.479,6.926,4.521
			c0.739,1.87,0.706,4.514,2.108,5.723c-0.342,2.449,0.678,3.539,2.411,3.916c2.576-0.035,2.825-2.396,4.215-3.615
			c0.256-2.354,0.797-4.424,0.604-7.229c2.607-1.81,5.578-3.26,7.831-5.422c1.569-0.637,2.795-1.62,3.914-2.711
			c1.562-0.647,2.741-1.677,3.918-2.71c5.258-3.575,10.649-7.021,15.36-11.146c-0.051-0.752,0.463-0.94,0.902-1.203
			c0.116-0.786,0.157-1.653,0.605-2.109C100.934,75.404,100.439,73.793,100.135,71.988z M77.543,58.435
			c-2.607-1.805-5.955-2.878-7.527-5.723c0.713-0.694,2.702-0.108,3.916-0.303c0.943-0.143,0.797,0.812,1.506,0.903
			c0.967,0.265,0.621-0.781,1.205-0.903c1.279,0.53,2.182,1.433,2.711,2.712c0.89,0.816,2.021,1.394,2.41,2.71
			C81.105,58.781,79.059,58.341,77.543,58.435z M71.523,48.192c-0.373-0.404,0.022-1.743,0.299-2.408
			c-0.282-0.693,0.666-0.642,0.904-0.904c0.237-0.262,0.191-0.812,0.603-0.904c2.849-0.54,6.37,0.314,9.938,0
			c0.502,0.502,1.448,0.559,1.806,1.204c0.487,0.516,0.913,1.098,0.907,2.109C82.074,48.505,76.594,48.145,71.523,48.192z
			 M85.678,35.24c1.211,0.193,3.202-0.392,3.916,0.303c0.143,2.753-3.111,2.108-4.521,3.312c-0.798,0.004-1.722-0.113-2.106,0.303
			H71.523c0.889-0.618,2.697-0.314,3.61-0.904c1.319-0.186,2.232-0.783,3.616-0.904C80.826,36.414,83.355,35.931,85.678,35.24z
			 M69.713,31.93c0.68-0.732,1.16-1.654,1.811-2.411c1.316-1.493,2.797-2.825,3.914-4.519c1.424-0.987,2.679-2.141,3.916-3.312h0.9
			c0.048,1.651,0.035,3.245-0.301,4.518c-1.467,2.043-3.334,3.691-5.119,5.421c-1.385,0.321-1.77,1.645-3.311,1.809
			c-0.426,0.48-1.041,0.769-1.812,0.903c-0.271,1.007-0.67,0.263-1.203,0C67.812,33.42,69.664,33.039,69.713,31.93z M63.389,31.023
			c-0.634-2.379-0.151-5.872-0.303-8.734c1.075-1.337,1.585-3.233,3.014-4.217c0.256-0.055,0.285,0.117,0.303,0.302
			c-0.028,0.429-0.055,0.853,0.302,0.903v6.324c-0.384,1.324-0.437,2.977-1.209,3.917c-0.37,1.332-0.455,2.955-2.105,3.012
			C61.898,32.426,63.639,31.74,63.389,31.023z M39.291,35.844c-0.981-0.224-0.917-1.494-1.504-2.11
			c0.825-1.28,2.998-1.218,5.119-1.203c3.853,0.764,5.871,3.366,9.639,4.218c0.012,1.716-0.978,2.437-1.204,3.915
			c-0.669-0.234-1.635-0.175-1.807-0.904c0.235-1.042-0.335-1.271-0.603-1.807c-1.972-0.64-4.617-0.603-6.625-1.204
			C41.112,36.635,40.116,36.323,39.291,35.844z M45.917,48.795c-2.251-0.657-5.969,0.146-7.832-0.902
			c0.07-1.439,1.722-1.292,2.11-2.411c1.14-0.366,1.818-1.194,2.71-1.808c2.753-0.663,5.822-0.062,8.134,0.604
			c0.626,0.777-0.11,2.919,0.603,3.615c-0.324,0.684-1.897,0.114-2.712,0.3C48.186,48.65,46.594,48.267,45.917,48.795z
			 M53.448,56.326c-0.982,2.23-2.518,3.906-3.914,5.723c-1.024,0.278-1.767,0.843-3.313,0.603c0.701-4.519,3.844-6.599,5.723-9.939
			c0.424,0.025,0.851,0.049,0.902-0.303c0.684,0.221,0.901,0.907,1.205,1.507c0.515,0.386,1.188,0.622,1.204,1.507
			C54.088,55.16,54.183,56.158,53.448,56.326z M53.448,33.133c0.309-0.694,1.038-0.972,0.905-2.109
			c-1.378-3.744-4.801-5.442-4.819-10.542c0.487-0.085,0.519,0.284,0.901,0.304c1.196,1.914,2.734,3.492,3.314,6.021
			c1.004,0.601,0.857,2.354,1.807,3.012c0.281,1.229,0.839,2.175,1.81,2.712C56.64,33.826,54.754,33.923,53.448,33.133z
			 M61.884,98.493c-0.699,0.547-1.608-0.62-1.809-1.505c-0.89-0.418-1.22-1.391-2.111-1.809c-0.781-1.929-2.091-3.33-3.31-4.818
			c-1.408-0.198-2.74-0.473-4.219-0.604c-1.355-0.048-0.949-1.863-2.409-1.807c-2.002-0.495-2.01,2.269-3.313,1.507
			c0.291-1.795-0.559-2.455-1.207-3.315c-1.022-0.021-2.1-0.093-2.409,0.604c-0.663-0.036-0.127-1.276-0.301-1.807
			c-0.156-0.445-0.444-0.76-0.6-1.205c-0.731-0.877-1.95-1.265-2.71-2.108c-0.53,0.173-1.771-0.362-1.808,0.301
			c-0.291-0.006-0.233-0.368-0.301-0.602c-0.047-0.351,0.065-0.536,0.301-0.603h3.013c4.328,0.508,8.306,1.62,11.745,3.312
			c1.804,0.709,3.697,1.324,5.121,2.411c1.803,0.604,2.792,2.024,4.818,2.407c0.664,1.447,0.827,3.396,1.811,4.519
			C62.366,95.365,61.656,96.46,61.884,98.493z M62.785,52.107c-2.664,0.355-3.938-0.678-5.419-1.505
			c0.21-4.207-0.691-9.524,1.203-12.048c2.469-0.942,6.981-0.912,8.435,0.902c0.59,1.721,0.184,4.438,0.301,6.628
			c-0.406,0.093-0.25,0.754-0.301,1.204c-0.447,0.255-0.648,0.758-0.602,1.506c-0.819,0.387-0.869,1.542-1.81,1.808
			C64.342,51.453,63.41,51.628,62.785,52.107z M65.8,55.423c0.255-0.057,0.284,0.116,0.3,0.3c0.965,1.749,2.53,2.895,3.916,4.217
			v5.121c-2.641,0.234-2.768-2.052-3.916-3.313c-0.504-1.903-1.554-3.267-1.805-5.42C64.742,55.973,65.525,55.951,65.8,55.423z
			 M95.921,77.409c-1.946,2.071-4.462,3.573-6.93,5.12c-2.111,1.805-4.784,3.049-6.929,4.82c-4.877,2.95-9.553,6.107-14.158,9.336
			c-0.662-0.037-0.127-1.277-0.299-1.808V92.77c-0.373-0.975,0.975-0.229,0.603-1.203c-0.249-0.853,0.425-0.782,0.302-1.508
			c0.9-0.302,0.594-1.813,0.903-2.709c1.366-1.545,2.485-3.336,4.216-4.519c1.344-1.571,2.945-2.881,4.819-3.916
			c1.483-1.429,3.384-2.438,5.423-3.313c1.59-1.22,3.938-1.685,6.021-2.41c1.85,0.16,4.36-0.344,5.724,0.303
			C96.052,74.465,95.902,76.021,95.921,77.409z"/>
	</g>
</g>
</svg>
