<?xml version="1.0" encoding="utf-8"?>
<!-- Generator: Adobe Illustrator 16.0.0, SVG Export Plug-In . SVG Version: 6.00 Build 0)  -->
<!DOCTYPE svg PUBLIC "-//W3C//DTD SVG 1.1//EN" "http://www.w3.org/Graphics/SVG/1.1/DTD/svg11.dtd">
<svg version="1.1" id="Layer_1" xmlns="http://www.w3.org/2000/svg"  x="0px" y="0px"
	 width="120px" height="120px" viewBox="4 4 120 120" style="enable-background:new 4 4 120 120;" xml:space="preserve">
<g id="flow-tree">
	<g>
		<path d="M114.273,90.852c-0.932-0.598-1.193-1.867-2.301-2.299c-0.091-0.677-1.223-0.311-1.312-0.986
			c-0.631-0.14-1.415-0.119-1.318-0.985c-0.57-8.19,1.531-19.056-1.97-24.319c-2.519-1.425-5.771-2.115-9.202-2.628
			c-4.865,0.172-10.449-0.371-14.788,0.328c-2.772-0.254-4.596,0.443-7.228,0.33c-1,0.206-2.831-0.421-3.284,0.327
			c-1.108-0.207-3.054,0.425-3.62-0.327c-1.107-1.135-0.107-2.312,0-3.943c0.085-1.782,0.529-3.198,0.331-5.26
			c0.971-0.78-0.313-3.818,0.661-4.599c-0.129-1.985,0.089-3.633,0.326-5.259c3.24-0.731,4.922-2.612,6.57-4.601
			c1.006-3.049,1.106-6.997,0.985-11.173c-0.704-1.048-0.91-2.596-1.644-3.615c-0.549-1.313-1.33-2.396-1.973-3.615
			c-2.654-2.817-6.102-4.853-12.156-4.271c-6.286,1.753-9.927,7.389-8.872,15.445c0.771,1.085,0.768,2.955,1.969,3.615
			c0.627,1.346,0.81,3.133,1.646,4.271c0.902,0.628,1.606,1.46,2.628,1.972c0.823,0.711,2.397,0.67,2.957,1.645
			c0.097,2.617-0.244,4.796-0.66,6.901c0.486,1.847-0.266,3.998,0,6.571c0.234,1.436-0.555,1.85-0.326,3.287
			c-0.45,1.348,0.794,2.682,0,3.287c-6.238,0.332-12.803,0.342-19.06,0.656c-0.043,0.725-1.395,0.138-1.973,0.329
			c-0.771,0.104-1.232,0.519-2.299,0.326c-1.662-0.021-2.722,0.566-4.603,0.331c-3.223,0.172-5.978,0.81-8.215,1.973
			c-3.972,4.354-5.335,12.695-4.271,21.03c0.261,0.614,0.55,1.202,0.657,1.972c0.488,0.39,1.468,0.283,1.313,1.312
			c-5.54,0.374-8.35,3.48-10.188,7.561c-1.009,1.248-0.778,6.718-0.328,8.216c0.361,1.192,0.116,1.858,0.661,2.299
			c0.098,0.082-0.066,0.539,0,0.657c0.769,1.443,2.009,2.267,2.627,3.285c2.035,1.145,4.101,2.252,6.573,2.959h5.585
			c0.927-0.607,2.05-1.02,3.287-1.313c0.954-1.019,2.092-1.854,3.287-2.628c0.022-0.966,0.749-1.223,1.315-1.645
			c0.475-0.619,0.482-1.707,1.313-1.973c0.134-1.509,0.782-2.504,0.986-3.943c0.065-6.641-2.294-10.853-6.575-13.144
			c-1.778-0.522-3.803-0.797-6.243-0.657c0.948-1.354,1.292-3.309,1.644-5.26c-0.36-5.617,0.819-9.697,2.628-13.145
			c3.281-1.207,8.469-0.515,12.159-1.314c6.908,0.215,14.673-0.432,21.034,0.33c-0.204,5.934,0.414,12.684-0.329,18.072
			c-5.229,0.469-8.691,2.705-11.171,5.916c-0.713,2.91-1.1,7.496-0.333,9.529c0.142,0.373,0.164,0.553,0.333,0.985
			c0.401,1.067,1.005,1.563,1.31,1.972c0.226,0.299,0.109,0.728,0.328,0.987c0.418,0.49,1.241,0.673,1.318,1.312
			c2.819,1.453,5.826,2.718,8.543,4.271h5.584c0.785-0.641,2.021-0.826,2.959-1.314c1.025-0.396,1.429-1.418,2.628-1.642
			c1.139-1.821,2.616-3.303,3.616-5.258c0.208-1.87,0.919-3.244,0.985-5.259c0.193-1.728-0.578-2.486-0.327-4.271
			c-0.658-0.438-0.731-1.459-0.986-2.302c-0.401-0.693-1.239-0.951-1.315-1.971c-1.016-0.52-1.934-1.133-2.629-1.974
			c-1.408-0.233-2.75-0.536-3.614-1.313c0.138-6.16-0.582-11.465-0.329-17.744c4.598-0.881,10.553-0.404,15.443-0.986h8.217
			c2.686,0.057,5.775-0.3,7.229,0.986v18.072c-0.616,1.357-2.598,1.348-3.284,2.631c-1.344,0.736-1.979,2.184-2.959,3.285
			c-1.781,7.896,0.771,15.728,8.217,16.431c6.846,0.169,9.771-3.592,12.486-7.558c-0.035-1.019,0.148-1.823,0.655-2.301
			C115.861,96.057,115.258,93.266,114.273,90.852z M27.848,95.781c0.277,0.488,1.059,0.476,1.643,0.658
			c2.146,3.084,0.646,8.83-3.615,8.543c-0.078-1.623,0.88-3.553,0-4.93c-1.613-0.078-0.887,2.178-2.958,1.645
			c0.624-1.686,1.161-4.221-0.985-4.603c0.463-0.963,1.839-1.011,3.287-0.985C25.696,95.602,26.901,95.82,27.848,95.781z
			 M64.982,29.729c0.526-1.88,1.463-3.355,2.299-4.93c-0.208-0.992-0.51-1.896-1.643-1.971c0.911-0.996,1.916,0.697,2.629,0.984
			c1.556,2.607,2.924,5.4,2.957,9.53c-0.441,0.324-0.656,0.878-0.981,1.315c-1.069-0.357-0.483-2.368-2.302-1.973
			c0.219-1.75-0.26-2.812-0.987-3.614C65.729,28.721,66.02,29.889,64.982,29.729z M71.225,96.109
			c0.586,4.093-1.213,5.796-2.955,7.559c-0.49-0.496-0.531-1.441-0.658-2.301c-0.561-1.301-1.453-2.27-1.315-4.271
			C68.098,96.652,69.67,93.955,71.225,96.109z M109.016,96.768c-0.277,2.568-2.211,3.482-3.611,4.931
			c-0.721-0.05-0.707-0.829-0.659-1.644c-0.078-0.91-1.222-0.753-1.644-1.314c-0.058-1.698,0.203-3.71-0.328-4.93
			c1.465-0.399,3.369-0.356,5.259-0.33c0.485,0.39,0.513,1.242,0.983,1.645V96.768z"/>
	</g>
</g>
</svg>
