<?xml version="1.0" encoding="utf-8"?>
<!-- Generator: Adobe Illustrator 16.0.0, SVG Export Plug-In . SVG Version: 6.00 Build 0)  -->
<!DOCTYPE svg PUBLIC "-//W3C//DTD SVG 1.1//EN" "http://www.w3.org/Graphics/SVG/1.1/DTD/svg11.dtd">
<svg version="1.1" id="Layer_1" xmlns="http://www.w3.org/2000/svg"  x="0px" y="0px"
	 width="120px" height="120px" viewBox="4 4 120 120" style="enable-background:new 4 4 120 120;" xml:space="preserve">
<g id="folder1">
	<g>
		<path d="M115.499,43.748c-0.845-0.678-1.358-1.686-1.998-2.567c-0.426-0.334-1.166-0.355-1.426-0.856
			c-0.839-0.02-1.607-0.104-1.429-1.141c-0.651-4.248,1.605-8.248-0.287-11.127c-1.272-1.228-3.02-0.344-5.416-0.57H98.38
			c-1.557-0.153-3.006-0.419-4.563-0.57c-11.551,0.144-23.002,0.391-34.523,0.57c-2.455,0.395-4.918,0.785-7.416,1.141
			c-0.92-0.982-1.305-2.496-1.996-3.707c-0.6-1.398-1.814-2.182-2.852-3.14c-3.604-1.818-9.9-0.943-15.121-1.141
			c-4.113,0.833-7.688,2.202-12.553,2.282c-0.938,0.49-1.35,1.506-2.285,1.998c-0.779,0.646-2.393,0.455-2.85,1.426
			c-0.43,0.825-1.178,2.516-1.43,3.138c-0.621,1.561,0.029,3.779-0.568,5.706c0.014,10.921-0.41,22.281,1.424,31.382
			c1.139,6.363,0.412,13.033,1.428,19.686c0.133,3.606,0.068,7.124,0.572,10.272c0.508,3.163,1.686,5.862,3.139,7.985
			c0.934,0.109,1.258,0.834,1.996,1.142c0.68,0.461,1.828,0.454,2.568,0.856c2.006,0.273,3.875,0.688,6.275,0.57
			c4.562,0.092,8.922-0.018,12.838-0.57c6.871,0.215,12.863-0.449,19.686-0.285c6.459-0.957,13.922-0.914,21.398-0.855
			c3.772,0.789,8.062,1.068,12.552,1.141c0.631,0.514,2.034,0.25,2.852,0.571c3.371-0.053,7.033,0.183,9.988-0.285
			c1.155-0.759,2-1.94,2.567-2.854c0.106-0.173,0.466-0.373,0.57-0.571c1.45-2.688,1.432-5.968,2.28-9.128
			c0.115-8.54,1.105-16.205,1.429-24.537C115.665,61.08,116.064,51.931,115.499,43.748z M55.872,31.195
			c7.375-0.458,14.989-0.37,22.252-0.285c7.164,0.082,14.135,0.373,20.541,1.426h6.849c0.024,2.211-0.492,3.884-0.285,6.277
			c-4.023-0.924-7.115-2.774-12.267-2.568c-0.698-0.538-1.2,0.049-2.569,0H79.268c-1.181,0.223-1.466-0.438-2.566-0.286H56.726
			c-0.68-0.173-2.07,0.359-2.281-0.284c-1.15,0.198-0.482-1.42-1.143-1.711c0.076-1.029-0.527-1.377-0.568-2.283
			C53.907,31.516,54.519,30.983,55.872,31.195z M110.359,65.43c-0.125,3.299-0.133,6.07-0.567,9.7
			c-0.069,0.61-0.129,1.839-0.285,3.14c-0.192,1.619-0.387,4.754-0.856,7.133v4.85c-0.41,3.962-0.687,8.061-2.281,10.843
			c-6.275,0.38-10.953-0.84-16.832-0.856c-0.377-1.318,1.322-2.803,1.143-4.85c-0.391-0.943-0.574-2.093-1.711-2.283
			c-2.162-0.162-2.564,1.434-3.711,2.283c-0.281,1.523-1.25,2.364-1.426,3.993h-6.279c1.234-4.187,3.918-6.925,4.852-11.412
			c-0.256-0.502-0.637-0.883-1.141-1.141c-2.867-0.017-2.904,2.801-4.562,3.994c-0.853,1.907-2.043,3.475-2.854,5.419
			c-0.434,1.074-0.729,1.847-0.285,3.14c-3.26-0.121-6.014,0.265-8.848,0.57c0.021-1.226,0.885-2.088,1.428-3.14
			c1.479-2.857,2.84-5.992,4.564-8.844c0.693-1.896,2.133-3.984,3.141-5.99c0.229-0.455,0.299-1.164,0.57-1.713
			c0.619-1.258,2.232-2.729,0.568-4.277c-1.729-0.114-2.019,1.214-2.85,1.996c-0.714,0.906-1.365,1.871-2,2.854
			c-1.06,2.173-2.568,3.896-3.423,6.275c-1.476,1.761-2.256,4.214-3.424,6.277c-1.059,2.176-2.719,3.748-2.852,6.846
			c-3.461,0.379-6.879-0.014-11.129,0.57c0.576-1.992,1.746-3.387,2.566-5.135c0.748-1.723,1.736-3.211,2.283-5.137
			c0.891-1.582,1.518-3.424,2.566-4.85c0.18-1.058,0.805-1.67,1.143-2.566c0.398-0.84,1.504-0.971,1.424-2.282
			c-0.24-1.315-2.742-0.942-3.42-0.286c-0.756,0.768-1.123,1.922-1.996,2.568c-0.504,1.021-0.861,2.184-1.715,2.852
			c-0.379,1.146-0.736,2.307-1.711,2.855c-1.977,4.201-5.023,7.338-6.562,11.98c-2.781-0.217-4.684,0.448-7.416,0.286
			c1.359-3.586,2.943-6.946,4.85-9.985c0.709-1.764,2.033-2.911,2.566-4.852c0.986-1.001,2.836-3.249,1.428-4.85
			c-2.836-0.27-3.199,1.938-4.852,2.853c-0.193,1.134-1.254,1.408-1.709,2.283c-0.457,0.781-1.066,1.406-1.426,2.283
			c-1.145,1.428-2.125,3.01-2.855,4.848c-1.24,1.231-1.719,3.228-2.566,4.851c-0.258,1.305,0.475,1.617,0.572,2.569h-5.422
			c-1.334-0.021,0.332-0.653,0.283-1.143c0.414-0.443,0.381-1.332,0.857-1.711c0.188-1.431,1.084-2.15,1.141-3.712
			c1.184-2.047,1.941-4.522,2.852-6.844c1.162-2.17,1.758-4.903,3.141-6.849c0.43-1.188,0.809-2.425,1.711-3.14
			c0.242-1.148,1.531-2.438,0.287-3.424c-1.229-0.574-2.17,0.614-3.139,1.143c-0.791,0.828-1.361,1.877-2.283,2.566
			c-0.355,1.261-1.32,1.914-1.711,3.139c-0.77,0.852-1.104,2.129-1.711,3.139c-1.967,4.502-3.916,9.021-5.422,13.98
			c-0.047,0.9-0.012,1.722,0.57,1.996c-0.834,0.723-1.506-1.144-1.715-1.996c-0.475-0.949-0.516-2.338-0.854-3.424
			c-0.049-0.715,0.436-0.894,0.854-1.144c0.59-0.077,0.27-1.062,0.857-1.14c0.559-2.581,1.488-4.791,2.283-7.133
			c0.84-2.301,1.473-4.803,2.566-6.848c0.455-2.686,1.641-4.638,2.283-7.133c0.906-0.711,0.807-2.429,1.711-3.139
			c0.098-1.416,0.965-2.438,0-3.424c-2.4-0.131-3.002,1.842-4.279,3.14c-0.92,1.552-1.688,3.255-2.566,4.849
			c-1.438,3.416-3.178,6.523-4.279,10.271c-0.824-0.127,0.254-2.156-0.572-2.282c-0.072-0.933,1.107-0.604,1.143-1.427
			c0.771-0.086,0.512-1.2,1.139-1.428c0.434-2.23,1.172-4.152,1.715-6.275c0.838-1.729,1.02-4.117,2-5.707
			c0.451-2.205,1.445-3.874,1.994-5.99c0.523-0.805,0.883-1.779,1.139-2.853c0.809-0.431,0.998-1.479,1.145-2.568
			c-0.168-0.593-0.602-0.921-0.857-1.427c-1.52-0.189-2.441,0.221-3.137,0.857c-0.084,0.58-0.773,0.558-0.859,1.141
			c0,0.438-0.775,0.938-0.568,0c0.736-1.262,1.059-2.937,1.428-4.564c0.705-1.197,1.328-2.473,1.139-4.565
			c-2.055-1.417-3.607-0.064-4.564,1.426c-0.393,0.611-0.922,2.079-1.426,2.854c-0.914,2.794-2.057,5.361-2.854,8.274
			c-1.096-1.388-0.188-3.435,0.287-4.853c-0.021-3.253,0.488-5.977,0.285-9.413c0.789-4.632-0.234-11.077,0.568-15.692h4.564
			c3.221-0.299,5.877-1.16,9.131-1.426c3.299,0.126,7.139-0.292,9.986,0.285c0.008,0.279,0.35,0.221,0.568,0.284
			c2.604,2.913,3.43,7.603,5.137,11.413c0.715,0.617,1.766,0.899,2.283,1.711c0.742,0.111,1.561,0.146,1.994,0.572
			c13.826,0.336,26.621-0.957,39.943-0.286c3.172,0.442,6.219,1.009,8.844,1.997c2.543,0.975,6.021,1.02,8.271,2.283
			c0.564,1.448,0.086,2.988,0,3.994C110.223,55.286,110.555,60.506,110.359,65.43z"/>
	</g>
</g>
</svg>
