<?xml version="1.0" encoding="utf-8"?>
<!-- Generator: Adobe Illustrator 16.0.0, SVG Export Plug-In . SVG Version: 6.00 Build 0)  -->
<!DOCTYPE svg PUBLIC "-//W3C//DTD SVG 1.1//EN" "http://www.w3.org/Graphics/SVG/1.1/DTD/svg11.dtd">
<svg version="1.1" id="Layer_1" xmlns="http://www.w3.org/2000/svg"  x="0px" y="0px"
	 width="120px" height="120px" viewBox="0 0 120 120" enable-background="new 0 0 120 120" xml:space="preserve">
<g id="fonts">
	<g>
		<path d="M69.605,79.41c-1.842-4.915-3.152-10.357-4.854-15.407c-1.205-2.125-1.851-4.805-3.422-6.562
			c-0.982-2.441-1.957-4.894-3.138-7.132c-1.5-5.255-2.804-10.703-4.278-15.976c0.14-1.665-0.084-2.962-0.574-3.998
			c-0.9,0.047-0.951-0.755-1.996-0.569c-0.763,0.187-1.085,0.818-1.712,1.141c-3.814-0.501-8.284,0.342-11.126,1.714
			c-0.65,0.679-0.5,2.163-0.857,3.136c-2.285,3.896-4.177,8.187-5.989,12.554c-1.076,2.061-1.638,4.641-2.854,6.562
			c-0.168,1.352-0.796,2.248-1.142,3.424c-0.518,1.099-0.733,2.498-1.426,3.424c-2.134,7.186-4.645,13.994-6.846,21.113
			c-0.809,0.712-0.754,2.289-1.429,3.137c-0.221,1.396-1.055,2.178-0.854,3.993c-0.272,0.062-0.27,0.244-0.284,0.571
			c-0.019,0.308-0.229,0.156-0.287,0.286c-0.518,1.185-1.029,2.077-0.857,3.993c1.691,2.594,6.796,0.947,9.701,0.569
			c1.799-0.01,3.795,0.185,4.852-0.569c0.942-0.58,0.688-2.354,1.139-3.426c0.674-1.037,1.038-2.385,1.715-3.424
			c0.279-2.477,0.556-4.959,1.427-6.847c7.349,0.114,12.792-3.172,20.54-1.71c0.551,1.062,0.681,2.55,0.57,4.277
			c0.631,1.078,2.09,1.336,2.285,2.854c-0.176,1.789,0.213,3.019,0.283,4.563c0.752,1.054,0.779,2.832,1.709,3.709
			c1.123-0.264,0.209,1.504,0.857,1.711c0.235,0.715,1.001,0.901,1.426,1.429c3.012,0.16,4.883-0.823,7.133-1.429
			c1.774-0.086,3.42-0.125,4.565-1.428c0.063-0.222,0.009-0.562,0.285-0.566c0.744-2.936-1.317-5.018-1.715-7.705
			C71.714,84.146,70.676,81.761,69.605,79.41z M21.677,91.105c-0.56-0.7,0.604-1.506,0.567-2.569
			C22.725,88.943,22.886,91.445,21.677,91.105z M24.527,83.118c0.126-0.416,0.25,0.026,0.571,0
			C25.027,83.475,24.53,83.405,24.527,83.118z M25.099,90.535v-2.281c1.036,0.294,1.716,0.944,2.566,1.428
			C27.481,90.639,26.297,90.592,25.099,90.535z M49.349,38.897c0.331-0.048,0.508,0.063,0.57,0.286
			c0.275,2.196,0.646,4.3,1.142,6.273c0.252,0.918-0.941,0.392-0.855,1.143c-0.753-0.085-0.225,1.107-1.145,0.856
			c-0.071-1.733-0.411-3.201-1.425-3.995C48.095,41.83,48.886,40.529,49.349,38.897z M39.932,37.757
			c0.946-0.066,1.158,1.013,1.712,1.427c0.216,0.16,0.663,0.169,0.859,0.283c0.262,0.16,1.033,0.723,0.854,0.857
			c1.185-0.274,0.058,0.854,0,0c-1.563,0.069-2.703-0.924-3.993-0.286C39.18,38.902,40.119,38.891,39.932,37.757z M38.79,42.606
			c0.911,0.042,1.257,0.646,2.283,0.569c0.554,0.306,1.516,0.199,1.142,1.428c-1.433,0.58-2.721-1.205-3.994-1.713
			C38.23,42.615,38.569,42.67,38.79,42.606z M37.081,46.029c1.635,0.075,1.829,1.593,3.422,1.712
			c-0.021,1.117-0.501,1.778-0.855,2.568c-1.371-0.242-2.313-0.921-3.425-1.428C36.544,47.966,37.004,47.19,37.081,46.029z
			 M30.519,66.855c0.413,0.065,0.663,2.35-0.284,1.998C30.003,67.864,30.657,67.756,30.519,66.855z M31.944,76.841
			c-1.202-0.414-2.267-0.967-3.71-1.141c0.146-1.188,1.001-1.665,1.143-2.854c1.195,0.329,1.773,1.271,3.424,1.145
			C32.54,74.963,32.374,76.032,31.944,76.841z M34.228,68.282h-0.571v-1.142h0.571V68.282z M35.37,62.861
			c-0.714-0.235-1.122-0.781-1.997-0.854c-0.279-0.672-0.093-1.812-1.142-1.713c0.155-1.172,0.816-1.847,0.856-3.138
			c1.314,0.301,1.747,1.484,3.422,1.428C36.426,60.306,35.855,61.541,35.37,62.861z M37.649,56.014
			c-1.235-0.282-2.224-0.816-3.422-1.141c0.024-1.119,0.503-1.777,0.854-2.566c0.984,0.633,1.946,1.287,3.14,1.71
			C38.269,54.922,37.465,54.97,37.649,56.014z M41.644,74.271c-0.108-1.153,1.779-0.313,2.568-0.567
			C43.617,74.152,42.712,74.296,41.644,74.271z M39.647,67.711c-0.331-1.009,0.529-3.004,0.855-4.277
			c0.22-1.686,1.075-2.73,1.141-4.565c0.657-1.244,1.133-2.676,1.426-4.279c0.724-1.182,1.005-2.799,1.713-3.994
			c-0.08-0.46,0.27-0.49,0.287-0.857c0.312,0.073,0.191,0.57,0.569,0.573c0.047,4.326,1.73,7.021,2.283,10.841
			c1.019,2.022,1.83,4.257,2.566,6.561C46.944,67.668,43.035,67.031,39.647,67.711z M51.632,53.447c-1.562-0.986-0.555-3.56,0-4.851
			c0.592,0.074,0.074,1.253,0.569,1.428c-0.004,0.672,0.489,0.838,0.284,1.71C52.641,52.745,51.475,52.437,51.632,53.447z
			 M53.627,60.579c-0.729-1.507,0.117-3.093,0.288-4.565c1.065,0.455,0.779,2.263,1.71,2.854
			C55.047,59.528,54.677,60.392,53.627,60.579z M59.332,75.7c-0.359-1.062-0.91-1.942-1.139-3.14
			c0.107-1.41,1.084-1.955,1.139-3.425c-0.146-0.424-0.421-0.719-0.567-1.14c-0.983-0.126-1.604,0.109-2.283,0.283
			c-1.083-1.954,0.308-3.803,0.854-5.705c2.126,3.296,2.996,7.846,4.279,11.982C60.604,74.688,60.297,75.521,59.332,75.7z
			 M62.471,82.261c-1.695-0.887-0.303-3.188-0.285-4.851c1.07,0.738,1.116,2.498,1.713,3.71
			C63.33,81.409,62.68,81.613,62.471,82.261z M63.613,88.254c-0.648-0.396-0.104-1.984-0.283-2.854
			c0.496-0.645,0.674-1.604,1.136-2.282c0.908,0.522,0.996,1.858,1.431,2.852C64.705,86.302,64.326,87.441,63.613,88.254z
			 M67.036,91.391c-0.71-0.039-0.083-0.965,0-1.141C67.748,90.293,67.12,91.216,67.036,91.391z M112.113,85.114
			c0.381-10.363-0.65-19.317-2.854-27.104c-1.843-2.63-4.819-4.118-7.702-5.704c-6.17-1.59-15.369-1.136-19.398,1.996
			c-0.402,1.517,0,2.412-0.285,4.281c-0.176,1.979,0.537,3.072,2.281,3.136c1.062,0.114,1.672-0.228,1.713-1.141
			c0.539-0.411,1.262-0.638,1.141-1.712c1.536-0.461,1.758-2.235,3.424-2.566c3.707-0.096,6.07,1.154,8.557,2.283
			c1.49,2.028,2.664,4.373,3.141,7.416H97.85c-1.154,0.368-2.264,0.78-3.709,0.856c-0.733,0.787-2.527,0.513-3.425,1.142
			c-1.517,0.004-2.13,0.908-3.422,1.14c-0.996,0.619-1.666,1.568-2.853,1.997c-0.356,1.261-1.323,1.914-1.715,3.138
			c-0.406,1.211-0.812,2.422-1.427,3.424c-0.015,1.984-0.87,3.129-0.569,5.424c0.224,0.632,0.599,1.109,0.569,1.996
			c1.562,2.336,3.655,4.143,5.992,5.705c2.831,0.888,6.21,1.396,9.696,0.854c2.101-1.041,4.41-1.868,6.562-2.853
			c0.704,0.725,2.225,0.633,2.568,1.712c0.812,0.612,1.438,1.416,3.14,1.141C112.246,91.344,112.738,88.28,112.113,85.114z
			 M102.984,81.407c-3.479,1.086-5.621,3.51-10.271,3.424c-1.135,0.088-0.773-1.321-1.714-1.431c-0.208-0.832-0.688-1.4-1.14-1.993
			c-0.219-3.072,0.339-5.368,1.427-7.136c2.735-1.463,7.996-1.869,11.698-1.428V81.407z"/>
	</g>
</g>
</svg>
