<?xml version="1.0" encoding="utf-8"?>
<!-- Generator: Adobe Illustrator 16.0.0, SVG Export Plug-In . SVG Version: 6.00 Build 0)  -->
<!DOCTYPE svg PUBLIC "-//W3C//DTD SVG 1.1//EN" "http://www.w3.org/Graphics/SVG/1.1/DTD/svg11.dtd">
<svg version="1.1" id="Layer_1" xmlns="http://www.w3.org/2000/svg"  x="0px" y="0px"
	 width="120px" height="120px" viewBox="0 0 120 120" enable-background="new 0 0 120 120" xml:space="preserve">
<g id="apple">
	<g>
		<path d="M108.258,52.828c-1.066-3.566-3.08-6.184-4.831-9.062c-2.179-1.85-4.466-3.592-6.952-5.135
			c-2.949-1.181-5.82-2.438-9.361-3.023H75.631c-2.206,0.516-4.537,0.902-6.947,1.209c-0.549-0.764-2.359-0.258-3.021-0.907
			c-0.883-0.529-1.148-1.669-1.208-3.021c3.204,0.689,7.483,1.345,11.179,0.604c1.4-0.914,2.625-2.007,3.932-3.02
			c1.072-1.24,1.842-2.789,3.019-3.928c0.787-3.726,3.575-6.788,2.417-11.48c-3.703-1.533-9.327-1.145-14.501-1.209
			c-0.94,0.369-1.916,0.703-3.325,0.605c-3.473,2.267-6.099,5.381-8.458,8.76c-1.326-1.092-2.109-2.724-3.323-3.927
			c-1.64-0.776-2.088-2.745-4.831-2.417c-1.133-0.024-0.079,2.139-1.21,2.116c-0.384,0.722-1.104,1.11-0.908,2.417
			c2.7,5.354,8.138,7.973,10.272,13.896c-4.04-1.196-8.865-1.609-14.197-1.51c-7.044,2.119-12.912,5.415-18.43,9.063
			c-0.924,0.989-1.522,2.306-2.718,3.02c-0.021,0.887-0.69,1.123-1.21,1.512c-0.184,0.82-0.598,1.415-1.208,1.813
			c-0.2,1.208-0.751,2.069-1.206,3.021c-0.316,1.198-0.703,2.321-1.212,3.321c0.22,0.924-0.518,0.889-0.301,1.813
			c0.042,0.402-1.017,1.125-0.303,1.208c-0.06,1.449-0.465,2.557-0.602,3.928V74.88c0.469,6.781,2.117,12.386,4.529,17.224
			c1.385,2.241,2.445,4.806,4.229,6.646c1.738,1.986,3.509,3.943,5.137,6.043c3.941,2.906,7.297,6.396,12.385,8.155
			c3.535,0.799,8.085,0.579,12.086,0.907c1.449-0.264,2.106-1.316,3.925-1.209c1.789-1.336,3.513-2.732,6.043-3.323
			c2.43-0.212,4.106,0.323,5.438,1.209c1.295-0.188,1.233,0.983,2.416,0.905c0.098,1.015,1.91,0.306,2.115,1.209
			c1.078-0.028,2.072-0.143,2.416-0.906c0.75,0.357,1.778,0.438,2.721,0.604c1.506-0.812,3.811-0.823,5.74-1.208
			c2.143-1.384,4.695-2.353,6.645-3.93c2.123-1.504,3.854-3.402,6.047-4.833c2.428-3.713,5.654-6.629,7.246-11.179
			c2.104-4.041,3.414-8.873,4.229-14.198V64.309C110.168,60.184,109.611,56.105,108.258,52.828z M62.643,26.242
			c0.487-0.515,0.912-1.099,0.901-2.113c1.506-1.014,2.422-2.616,3.626-3.928c0.924,0.013,1.178-0.638,1.812-0.907h10.578
			c-0.19,2.634-2.019,3.627-2.418,6.043c-1.531,1.191-2.445,2.99-4.231,3.927c-4.274,0.048-8.632,0.172-11.478-1.208
			C61.475,27.093,62.549,27.158,62.643,26.242z M26.084,70.352c-1.032-0.162-0.463-1.455-0.3-2.115
			C27.137,68.213,25.598,69.355,26.084,70.352z M102.82,76.092c-0.399,2.42-1.23,4.407-1.51,6.949
			c-0.891,4.85-3.686,7.797-6.348,10.877c-0.182,0.721-0.436,1.376-0.303,2.415c-1.602,1.724-3.174,3.474-5.135,4.834
			c-2.756,0.972-6.182,1.272-9.064,2.114h-3.318c-1.111-0.199-2.033-0.586-3.324-0.604c-1.186,0.023-1.887,0.531-2.721,0.905
			c-3.25-0.936-6.746,0.229-9.666,0.604c-1.164,0.054-0.654-1.562-1.816-1.51c-2.074-0.062-2.264,1.764-3.019,3.021
			c-2.136-0.225-2.588,1.236-4.532,1.207c0.174-1.776,0.697-3.629-0.907-4.229c-1.313-0.207-1.673,0.543-2.112,1.209
			c-0.572,0.031-0.21,0.998-0.907,0.905c-0.068,0.438-0.902,0.104-0.908,0.604c-1.504-1.518,0.549-5.119-0.604-7.252
			c-1.752-0.34-2.198,0.623-3.324,0.907c0.127-1.438-0.438-2.18-0.602-3.325c-0.598-0.599-1.726-0.19-2.417,0
			c-0.192-1.117-0.211-2.406-1.211-2.718c-3.031-0.213-3.368,2.271-3.928,4.53c-0.687-0.417-0.112-2.104-0.3-3.021
			c0.629-0.479,0.103-2.113,0.606-2.719c-0.006-0.802,0.113-1.727-0.306-2.115c0.441-2.416,1.362-5.842,0.606-8.457
			c-2.549-0.336-2.357,2.072-3.022,3.625c-0.861-0.688,0.426-1.771,0-3.021c0.086-1.023,0.481-1.734,0.304-3.021
			c0.476-0.632,0.627-1.591,0.604-2.72c0.779-0.415,0.067-1.853,0-2.418c-2.334,0.082-2.807,2.028-3.324,3.929
			c-1.439-0.8-0.02-2.983-0.302-4.529c0.636-3.293,1.57-6.284,2.417-9.368c0.855-0.757,0.961-2.263,1.815-3.019
			c-0.201-0.812-0.867-1.148-1.21-1.813c-1.181-0.3-1.756,0.666-2.417,0c0.525-1.691,1.051-3.382,1.812-4.836
			c0.411-1.701,1.771-2.457,1.815-4.53c-0.285-1.228-1.247-1.775-3.022-1.509c1.06-2.566,4.17-3.079,6.042-4.836
			c0.918,0.014,1.175-0.638,1.811-0.903c0.47-0.438,1.414-0.405,1.815-0.908c1.524-0.289,3.014-0.612,4.533-0.907
			c5.032,0.205,10.987-0.516,15.103,0.606c0.545,1.366,0.213,3.61,0.302,5.437c-1.943,0.279-3.551,0.145-5.437-0.302
			c-1.981,0.032-4.465-0.437-4.532,1.51c0.144,1.874,1.633,2.397,3.325,2.72c1.144,0.867,3.012,1.016,4.53,1.51h7.854
			c3.334-0.996,6.492-2.17,9.67-3.321c0.844-1.073,1.68-2.149,1.812-3.93c-0.111-1.196-0.875-1.741-1.812-2.114
			c-2.006-0.089-2.961,0.865-3.93,1.812c-2.115,0.097-3.162,1.268-5.438,1.209c0.018-1.394-0.135-2.953,0.301-3.928
			c1.842-0.229,2.738,0.482,4.532,0.303c1.329,0.119,0.788-1.628,1.812-1.812c3.703-0.838,7.809,0.138,11.784,0
			c4.244,0.892,8.04,2.23,11.177,4.229c0.977-0.266,0.416,0.996,1.211,0.906c0.088,0.615,0.816,0.593,0.904,1.209
			c1.016,0.397,1.258,1.565,2.118,2.116c0.058,1.146,0.265,2.146,0.603,3.02c-0.182,6.525,1.33,11.359,2.416,16.615
			C103.291,70.72,103.014,73.365,102.82,76.092z M80.463,70.048c2.127-1.317,2.037-5.257,0.607-7.249
			C75.354,61.152,74.854,71.169,80.463,70.048z M94.363,64.007c-0.286,0.925-1.471,0.947-1.514,2.114
			c0.131,2.391,0.092,4.945,3.021,4.533C97.258,68.844,97.279,64.085,94.363,64.007z M88.016,70.048
			c-4.301-0.086-2.904,6.153-2.718,9.669c1.075,0.035,1.097,1.117,2.415,0.906c1.084,0.076,1.109-0.906,2.118-0.906
			C90.551,76.131,90.234,71.632,88.016,70.048z"/>
	</g>
</g>
</svg>
