<?xml version="1.0" encoding="utf-8"?>
<!-- Generator: Adobe Illustrator 17.0.0, SVG Export Plug-In . SVG Version: 6.00 Build 0)  -->
<!DOCTYPE svg PUBLIC "-//W3C//DTD SVG 1.1//EN" "http://www.w3.org/Graphics/SVG/1.1/DTD/svg11.dtd">
<svg version="1.1" id="Layer_1" xmlns="http://www.w3.org/2000/svg"  x="0px" y="0px"
	 width="120px" height="120px" viewBox="0 0 120 120" enable-background="new 0 0 120 120" xml:space="preserve">
<g id="hotdog">
	<g>
		<path d="M62.205,34.373c0.668,1.256,1.548,2.298,2.126,3.646c-0.16,1.274,0.532,1.696,0.608,2.734
			c-0.15,1.77,0.088,3.152,0.606,4.252c1.479,0.265,2.015-0.415,3.036-0.609c2.188-3.127,0.027-7.813-0.909-10.629v-5.163
			c0.62-0.49,0.767-1.462,1.212-2.127c0.7-0.318,1.574-1.374,0.914-2.125c-0.281-0.53-0.951-0.67-1.822-0.607
			c-1.076,0.531-0.748-0.201-1.826-0.306c-1.954,1.186-3.294,2.979-4.249,5.165C61.778,30.752,62.443,32.112,62.205,34.373z
			 M55.524,48.042c1.385-0.132,1.449-1.588,1.819-2.733c-0.216-2.618-1.726-3.944-2.122-6.379v-4.557
			c0.457-1.021,1.077-3.146,0-3.947h-1.219c-0.071,0.432-0.498,0.511-0.605,0.912c-1.289,1.543-1.382,4.287-2.127,6.377v1.821
			c0.63,1.396,1.391,2.661,2.127,3.95C53.722,45.391,53.287,48.05,55.524,48.042z M77.393,45.916
			c-0.014,1.836-0.147,3.792,0.606,4.859c2.407-0.023,2.733-2.127,3.341-3.949v-1.821c-0.275-1.646-1.541-2.308-1.822-3.948
			c0.371-1.148,1.019-2.021,0.91-3.646c-0.539-0.271-0.771-0.849-1.82-0.606c-1.805,1.029-2.709,2.963-3.037,5.467
			c0.505,0.403,0.473,1.349,0.91,1.822C76.751,44.734,77.404,44.99,77.393,45.916z M116.57,59.279
			c-1.875-0.351-2.711-1.74-4.553-2.125c-0.125-0.52-0.394,0.062-0.912,0c-0.734,0.125-0.662-0.556-1.519-0.306
			c-1.389,0.173-1.894-0.537-3.342-0.302c-1.461,0.361-2.713,0.93-4.252,1.215c-1.045-0.576-1.382-1.861-2.125-2.734
			c-0.981-0.742-1.92-1.524-2.433-2.733c-1.742,0.224-2.237-0.8-3.645-0.912c-3.99-0.241-6.666,0.827-10.025,1.214
			c-6.69,0.059-11.209-0.199-16.396,0c-5.111-0.255-9.045-1.687-13.973-2.125c-1.077-0.742-2.778-0.866-3.949-1.518
			c-3.4-0.041-6.383-0.5-10.022-0.305c-1.2,0.521-2.57,0.876-4.253,0.912c-2.5,1.248-4.904,2.586-7.593,3.645
			c-1.362,1.373-3.043,2.427-4.861,3.342c-2.813-0.079-5.44,0.023-7.895,0.302c-1.155,0.667-2.314,1.335-3.645,1.823
			c0.163,1.075-1.075,0.746-0.911,1.822c-0.681,0.332-0.532,1.491-1.217,1.822c-0.112,4.67-0.268,9.384,2.127,11.542
			c2.662,1.389,6.072,2.024,9.719,2.43c0.06,1.055-0.105,2.335,0.91,2.431c0.184-0.627-0.487-2.11,0.609-1.823
			c-0.054,3.188-0.953,5.526-0.609,9.111c0.479,0.842,0.944,1.689,1.219,2.734c0.848,0.564,1.169,1.662,1.517,2.732
			c1.397,0.436,2.059,1.846,3.037,2.735c0.543,0.491,1.218,0.706,1.819,1.214c0.516,0.426,1.029,1.055,1.522,1.518
			c4.489,1.184,7.589,3.75,13.364,3.645c1.065,0.553,2.328,0.912,3.644,1.216c1.362,0.259,2.59,0.651,4.252,0.607
			c1.291,0.833,3.142,1.11,4.859,1.52c7.461,0.132,14.725,0.46,22.475,0.304c0.049-0.354,0.48-0.33,0.91-0.304
			c1.594-0.534,2.775-1.476,4.256-2.127c5.764-1.622,9.943-4.837,14.574-7.591c2.553-3.02,5.155-5.984,6.379-10.328
			c0.361-0.753,1.861-0.365,1.521-1.822c0.719-1.352,0.131-3.686,0-5.164c2.27-0.057,3.789-0.865,5.769-1.215
			c1.282-1.248,2.788-2.271,4.253-3.341c0.199-1.015,0.945-1.485,1.215-2.431c0.199-1.114,0.59-2.04,0.605-3.34
			C118.887,63.445,117.418,61.672,116.57,59.279z M33.05,54.116c1.958-0.164,3.143-1.109,5.464-0.911
			c0.8-0.313,1.867-0.363,3.038-0.305c2.543,0.395,4.716,1.157,6.683,2.127h3.339c9.448,3.096,23.869,2.731,35.539,1.821
			c1.814-0.611,3.205-1.651,5.162-2.125c1.479,0.142,1.908,1.33,3.341,1.518c0.426,1.195,2.127,1.114,2.127,2.734
			c-7.179,1.937-15.37,2.855-23.691,3.645c-4.667-0.599-10.349-0.18-15.491-0.304c-3.185-0.561-6.567-0.923-10.022-1.216
			c-5.253-2.443-12.7-2.689-19.138-3.946C29.907,55.428,31.962,55.258,33.05,54.116z M83.161,72.643
			c-2.3,0.537-5.376,0.293-7.593,0.91c-1.479-0.139-3.559,0.318-4.559-0.303c-0.674,0.236-1.181,0.641-2.125,0.607h-2.43
			c-3.891-0.358-7.558-0.942-11.541-1.215c-0.746-0.57-2.079-0.552-3.037-0.912c-1.065-0.147-1.974-0.45-3.34-0.304
			c-1.944-0.487-3.56-1.297-5.466-1.821c-0.106-1.116,1.106-0.918,1.821-1.215c0.073-0.839,1.127-0.692,1.518-1.216
			c0.959-0.864,2.047-1.6,3.342-2.125c0.16-0.245,0.318-0.493,0.306-0.912c0.927-0.22,0.892,0.523,1.82,0.305
			c1.748,1.391,1.503,4.772,3.037,6.377c5.356,1.606,7.178-2.67,10.935-3.646c3.285,0.359,3.791,3.5,6.076,4.859
			c1.754,0.411,3.197,0.108,4.857-0.304c1.338-0.586,2.301-1.547,3.341-2.43c1.198-0.726,1.761-2.09,3.341-2.43
			c3.059,0.382,3.992,2.893,6.381,3.947c-0.535,0.885-1.682,1.156-3.039,1.215C85.912,72.557,84.616,72.68,83.161,72.643z
			 M86.197,74.77c-0.047,0.355-0.553,0.256-0.91,0.305h-0.911c0.05-0.356,0.556-0.258,0.911-0.305H86.197z M40.033,64.745
			c-0.392-0.619-1.471-0.552-1.215-1.821h1.824c0.958,0.359,2.292,0.341,3.036,0.912C43.449,65.127,41.443,64.637,40.033,64.745z
			 M56.739,65.658h2.125c-0.078,1.033-0.649,1.576-1.821,1.518C57.295,66.316,56.613,66.389,56.739,65.658z M72.533,65.96
			c1.66-0.463,3.975-0.274,5.769-0.606c0.124,1.545-1.188,1.646-2.43,1.822c-0.915,0.303-1.354,1.075-2.731,0.912
			C73.189,67.124,72.331,67.072,72.533,65.96z M19.988,69.303c-0.844-0.146-2.052,1.055-1.821-0.609
			c-1.287-0.069-1.144,1.289-2.43,1.216c0.178-1.898-0.273-3.169-0.912-4.25v-3.342c0.671-0.238,0.76-1.062,1.214-1.518
			c3.483-0.75,7.355-0.359,10.326,0.908c1.275,0.162,1.701-0.528,2.733-0.606c0.016,0.925-0.642,1.183-0.908,1.823
			c-0.713,0.1-0.298,1.324-0.913,1.52c0.106,0.397,0.534,0.477,0.609,0.91c3.327-0.012,3.602-3.079,6.982-3.037
			c0.57,0.849,0.747,2.088,1.216,3.037c0.372,0.641,0.84,1.185,1.214,1.822c0.337,0.205,1.578,1.01,0.913,1.215
			c-1.669,0.383-4.196-0.815-6.685-0.606c-2.768,0.772-5.471,1.612-6.07,4.556C22.665,72.293,20.84,71.283,19.988,69.303z
			 M100.777,82.97c-0.354,0.454-0.877,0.743-0.908,1.52c-1.547,0.888-2.158,2.704-3.952,3.341c-0.922,1.812-2.544,2.924-3.946,4.25
			c-2.269-0.344-2.701,1.146-3.646,2.13c-0.396-0.108-0.477-0.537-0.908-0.608c-1.068,1.26-2.383,2.273-4.559,2.43
			c0.168-1.684-0.053-2.98-1.215-3.342c-2.574,0.158-2.035,3.434-3.037,5.164h-2.433c0.134-1.646-0.243-2.793-1.211-3.343
			c-0.978,0.341-1.455,1.181-1.521,2.431c-0.627-0.789-1.351-1.481-2.732-1.518c-0.332,1.95,1.361,1.878,2.732,2.125
			c-0.422,0.694-2.115,0.114-3.035,0.305H67.37c-0.313-1.98,0.642-3.457,0-4.859c-2.511,0.023-2.503,2.561-3.039,4.556
			c-1.856,0.237-2.652-0.585-3.646-1.214v-3.646c-1.175-0.687-1.196,0.563-2.125,0.912c-0.042,1.172-1.025,1.402-0.911,2.733
			c-0.646,0.142-0.578-0.437-0.607-0.911c-1.156-0.447-0.061,1.357-1.215,0.911c-0.859,0.25-0.787-0.429-1.519-0.305
			c-0.519-2.229,1.295-4.927-0.608-5.771c-2.076,0.15-2.047,2.406-2.429,4.25c-0.609-0.102-0.952,0.062-0.909,0.607
			c-1.64,0.019-2.77-0.473-4.254-0.607c-0.276-2.387,1.127-5.349-0.304-6.984c-1.963,0.771-2.225,3.242-2.732,5.468
			c-1.373-0.147-2.067-0.972-3.341-1.216c0.008-1.324,0.181-2.812-0.609-3.34c-0.755,0.459-1.387,1.041-1.518,2.125
			c-1.254-0.264-2.086-0.949-3.343-1.215c0.074-2.303,0.848-4.754-0.909-5.771c-1.519,0.103-2.073,1.167-2.429,2.429
			c-0.188-0.088-1.171-0.755-1.214,0c-1.323-0.803-0.913-3.342-2.127-4.25c-1.216,0.201-1.329,1.506-1.216,3.037
			c-1.129,0.016-0.873-1.354-0.907-2.43c0.279-2.249,0.905-4.156,1.82-5.772c0.544-0.038,0.638,0.372,1.215,0.304
			c1.049-0.369,1.604-1.229,2.43-1.82c2.382-1.163,5.222-1.865,9.11-1.521c3.467,0.482,6.123,1.776,9.72,2.127
			c2.431,1.418,5.834,1.861,8.808,2.732h4.859c-0.129,1.045,0.12,1.703,0.304,2.431c0.718,0.231,2.1,0.599,2.733,0
			c0.796-0.403,0.581-1.349,0.308-2.125h18.523c3.061-0.89,6.645-1.257,9.418-2.431c2.257,0.173,5.223-0.363,6.982,0.304
			c0.526,0.185-0.022,1.44,0.608,1.521c-0.235,0.979-0.636,1.795-1.218,2.431C101.297,81.666,100.562,81.843,100.777,82.97z
			 M112.318,69.908c-0.312,0.701-0.627,1.398-1.213,1.822c-0.713,0.102-1.258,0.364-1.824,0.607
			c-1.207,0.098-2.243,0.018-2.732-0.607c-0.994,0.018-1.162,0.864-2.432,0.607c-1.456-0.062-2.283-0.753-3.34-1.216h-6.379
			c0.037-0.771,0.444-1.177,1.217-1.215c0.451-0.356,0.857-0.761,1.214-1.216c0.444-1.071,1.644-1.396,2.735-1.819
			c2.015,0.288,3.979,2.553,6.072,0.91c0.481-3.417-2.517-3.354-4.252-4.556c-1.435-0.12-2.533,0.097-3.644,0.304
			c-1.101,0.521-1.923,1.317-2.733,2.127c-1.402,0.114-1.523,1.516-2.732,1.821c-2.021-0.414-3.44-1.418-3.951-3.341
			c5.648-0.327,9.99-1.955,14.882-3.038c1.11-0.198,1.164,0.659,2.127,0.606c2.095-0.825,4.462-0.511,6.985-0.301
			c1.553,1.385,2.367,3.506,2.734,6.073C114.514,68.662,113.848,69.716,112.318,69.908z M38.817,79.629
			c0.419-0.013,0.669,0.141,0.913,0.305c1.279-0.856,1.499-2.586,1.214-4.254C38.396,74.516,37.606,77.811,38.817,79.629z
			 M50.967,80.236c-0.502,0.004-0.168,0.842-0.605,0.91c-0.146,0.953,0.816,0.803,0.909,1.518c0.276,0.637,0.897,0.929,1.823,0.913
			c0.82-0.293,1.466-0.761,1.518-1.821C54.372,80.386,52.401,79.436,50.967,80.236z M76.174,83.577
			c1.354,0.59,3.648,0.45,3.648-1.214c-0.131-0.58-0.656-0.766-0.609-1.521C77.15,79.686,75.052,81.55,76.174,83.577z
			 M71.314,83.577c-2.06-1.191-2.664,3.964,0,3.643c0.273-0.536,1.236-0.384,0.912-1.517C72.631,85.475,72.383,83.342,71.314,83.577
			z"/>
	</g>
</g>
</svg>
