<?xml version="1.0" encoding="utf-8"?>
<!-- Generator: Adobe Illustrator 16.0.0, SVG Export Plug-In . SVG Version: 6.00 Build 0)  -->
<!DOCTYPE svg PUBLIC "-//W3C//DTD SVG 1.1//EN" "http://www.w3.org/Graphics/SVG/1.1/DTD/svg11.dtd">
<svg version="1.1" id="Layer_1" xmlns="http://www.w3.org/2000/svg"  x="0px" y="0px"
	 width="120px" height="120px" viewBox="0 0 120 120" enable-background="new 0 0 120 120" xml:space="preserve">
<g id="spoon-fork">
	<g>
		<path d="M59.19,33.674c-0.014-3.315,0.022-7.697,0-11.458c-0.021-3.839,0.121-7.451-3.098-8.36h-1.236
			c-0.368,0.15-0.702,0.33-0.93,0.621c-0.715-0.098-0.346,0.895-0.929,0.926c-0.225,2.188,0.764,3.159,0.929,4.957
			c-0.397,2.957,0.214,5.857-0.312,8.979c0.685,0.06,0.029,0.786,0,0.929c-0.051,0.27,0.31,0.297,0.312,0.31
			c0.039,0.975,0.125,2.599,0,3.097c-0.212,0.851,0.07,2.313,0,3.717v3.406c-0.379,1.894-0.346,4.195-0.929,5.883
			c-0.347,0.793-0.58,1.694-1.24,2.169c-0.538-0.025-0.964,0.067-1.238,0.308c-0.445-0.164-0.757,1.208-0.931,0.309
			c-0.784-9.948,0.373-21.839-0.929-31.274c-1.605-0.163-1.557,1.333-2.166,2.169c-0.46,0.985-0.002,2.889-0.621,3.716
			c-0.121,2.874-0.305,5.682-0.617,8.363V44.82c-0.199,1.247,0.403,3.295-0.31,4.028c-1.807-1.91-2.688-4.742-3.718-7.433V35.84
			c0.22-1.147-0.528-1.327-0.31-2.476v-8.98c-0.236-2.756,0.579-6.565-0.617-8.361c-2.793,0.203-3.241,2.748-3.407,5.573
			c-0.155,2.944-0.281,5.911-0.618,8.671c0.167,4.731-0.24,7.377-0.312,11.458c1.333,3.831,2.841,7.481,4.954,10.527
			c0.806,0.437,1.429,1.048,2.168,1.55c0.737,0.604,2.085,0.6,2.786,1.238c-0.442,6.472-1.468,12.36-1.857,18.89v15.79
			c-0.824,4.954-0.994,10.568-1.545,15.796c0.768,1.396,1.467,2.863,2.168,4.334c1.164,1.002,1.531,2.803,3.405,3.096
			c3.972,0.156,5.666-1.969,7.43-4.021c0.158-2.523,0.82-4.547,1.239-6.812c0.309-1.754-1.034-1.854-0.62-3.715
			c0.06-0.976,1.227-0.84,0.929-2.168v-11.77c0.151-0.979-0.558-1.094-0.309-2.166c0.222-10.134-1.644-18.177-2.169-27.562
			c0.033-1.097,1.025,0.659,0.93-0.31c0.128-0.746-0.565-0.674-0.309-1.55c1.1-0.965,1.664-2.464,2.478-3.716
			c0.558-2.125,0.899-4.467,1.236-6.812v-6.504C58.727,34.865,59.438,34.749,59.19,33.674z M48.973,55.66
			c-0.062,0.35-0.312,0.174-0.312,0C48.72,55.308,48.973,55.488,48.973,55.66z M48.973,98.703c-0.179-0.648-0.77-0.885-0.62-1.857
			c0.054-1.807-0.541-2.97-0.309-4.953c-0.791-9.787-0.17-20.804,0.309-30.35c0.359-0.051,0.55,0.068,0.62,0.312
			c0.458,12.754,0.692,25.728,1.239,38.396C49.388,100.145,49.162,99.438,48.973,98.703z M88.916,52.253
			c0.333-1.63,1.49-2.434,1.552-4.335c0.067-2.097,1.782-2.551,1.546-4.954c-0.562-4.187-2.337-7.159-2.166-12.077
			c-1.367-2.656-2.789-5.264-3.717-8.359c-2.14-1.99-2.378-5.881-5.883-6.504c-0.018-0.188-0.047-0.364-0.309-0.31
			c-1.209,0.651-3.562,0.155-5.269,0.31c-0.794,1.476-3.03,1.51-3.405,3.407c-1.132,0.795-1.287,2.272-1.857,3.404
			c-1.811,3.604-4.023,6.882-4.645,11.458v2.788c0.041,1.713,0.881,2.626,1.236,4.025c-0.16,1.709,0.18,2.919,0.311,4.335
			c0.361,0.051,0.34,0.49,0.312,0.929c0.785,0.764,0.971,2.124,1.854,2.786c0.588,1.066,1.795,1.509,2.17,2.787
			c0.888,0.558,1.727,1.162,2.477,1.859c0.414,0.31,0.936,0.509,1.238,0.929c0.363,0.462,1.287,0.364,1.238,1.238
			c-0.271,3.444-0.73,6.698-0.617,10.529c-1.467,5.452-1.809,12.023-2.478,18.27c-0.642,6.277-0.96,12.873-1.241,19.51
			c0.672-0.055,0.143,1.1,0.312,1.55c0.604,1.565,1.615,2.715,2.479,4.022c0.941,1.326,1.896,2.642,3.405,3.407
			c1.854,0.617,4.36,0.816,6.5,0.308c1.604-0.973,2.437-2.724,3.406-4.332c0.825-1.758,1.646-3.518,2.168-5.574
			c-0.039-7.598-1.521-13.756-2.479-20.438c-0.589-7.152-1.109-14.371-3.097-20.13c0.165-2.334-0.545-3.788-0.31-6.193
			C85.85,55.789,87.355,53.996,88.916,52.253z M83.962,104.895c-1.618,0.072-3.089-0.004-4.335-0.307
			c-0.525-9.797-0.238-20.404-0.309-30.658c-0.109-0.695,0.588-1.146,0.93-1.855c0.158-0.328,0.812-2.688,0.927-1.549
			c0.386,5.81,0.399,11.985,1.241,17.342C83.27,93.206,84.23,98.436,83.962,104.895z M83.035,50.087
			c-1.885,0.379-4.695,0-6.506-0.622c-0.43-0.703-1.069-1.197-1.545-1.854c-0.32-0.815-0.371-1.901-0.312-3.097
			c-0.156-0.876-0.749-1.316-0.929-2.169c-0.479-7.187,0.841-12.58,2.166-17.96c0.817-0.833,2.771-0.539,2.788-2.169
			c1.523,1.056,2.501,2.661,4.025,3.716c0.06,2.729,1.475,4.101,2.168,6.195C84.766,38.605,85.518,45.963,83.035,50.087z"/>
	</g>
</g>
</svg>
