<?xml version="1.0" encoding="utf-8"?>
<!-- Generator: Adobe Illustrator 16.0.0, SVG Export Plug-In . SVG Version: 6.00 Build 0)  -->
<!DOCTYPE svg PUBLIC "-//W3C//DTD SVG 1.1//EN" "http://www.w3.org/Graphics/SVG/1.1/DTD/svg11.dtd">
<svg version="1.1" id="Layer_1" xmlns="http://www.w3.org/2000/svg"  x="0px" y="0px"
	 width="120px" height="120px" viewBox="0 0 120 120" enable-background="new 0 0 120 120" xml:space="preserve">
<g id="muffin">
	<g>
		<path d="M103.635,63.725c0.301-1.233,0.377-2.695,0.309-4.303c-0.219-2.341-0.643-4.48-0.922-6.76
			c-0.604-2.057-1.276-4.047-1.844-6.146c-0.775-1.89-1.689-3.638-2.459-5.531c-1.088-1.576-2.404-2.925-3.381-4.61
			c-2.936-2.389-5.129-5.521-8.297-7.68c-2.99-2.337-7.887-2.768-11.982-3.996c0.311-1.301,0.545-3.359,0-4.609
			c-0.586-1.46-1.535-2.558-2.457-3.688c-0.953-0.071-1.191-0.854-1.844-1.229c-0.816-0.208-1.564-0.484-2.152-0.922
			c-0.902,0.022-1.664-0.031-2.457,0c-0.9,0.034-1.777,0.358-2.457,0.308c-0.926-0.069-1.676-0.991-2.765-0.614
			c-3.793,1.639-6.204,4.655-5.84,10.446c-9.683,2.712-16.67,8.118-23.047,14.134c-1.372,2.42-3.351,4.228-4.302,7.068
			c-1.523,2.266-2.465,5.112-3.379,7.99c0.254,0.868-0.435,0.795-0.308,1.536v10.447c0.14,1.293,1.456,1.414,1.845,2.459
			c1.017,0.519,1.419,1.654,2.149,2.457c1.978,0.893,3.843,1.894,5.228,3.381v4.606c1.531,9.153,4.067,18.474,4.3,27.964
			c0.415,0.303,0.613,0.818,0.921,1.229c0.771-0.053,0.963,0.472,1.227,0.922c1.313,0.122,1.509,1.359,2.768,1.535
			c0.097,0.497,0.436-0.024,0.307-0.614c0.61-0.511,0.39,0.028,1.229,0c5.787,3.021,13.498,4.117,22.125,4.304
			c9.172,0.361,16.106-1.508,22.738-3.688c1.7-4.957,3.567-9.748,4.303-15.671c0.509-0.312,0.332-1.305,0.613-1.846
			c0.245-0.572,0.512-1.125,0.613-1.844c0.307-1.436,0.925-2.557,1.23-3.992c0.764-2.619,1.504-5.252,2.147-7.99
			c0.196-1.854,0.437-3.661,0.312-5.838c2.056-1.631,4.123-3.25,5.526-5.531C103.895,65.877,103.584,65.575,103.635,63.725z
			 M65.227,19.168c0.979-1.443,3.236-1.4,4.607-0.307c0.553,1.09,0.064,3.213,0.615,4.302c-1.482,0.465-1.986,1.904-4.301,1.536
			c-0.306-0.415-0.82-0.613-1.229-0.922C64.523,21.773,65.182,21.3,65.227,19.168z M88.887,89.844c-1.07,2-1.414,4.734-2.152,7.066
			c-0.233,1.303-0.381,2.691-0.611,3.994c-0.006,0.816,0.113,1.754-0.307,2.15c-0.184,0.538,0.367,1.807-0.311,1.844
			c-0.539,0.281-1.533,0.104-1.842,0.615c-0.502,0.221-0.502-1.447,0-1.229c0.021-0.486-0.152-1.173,0.307-1.229
			c-0.242-1.266,0.471-1.576,0.305-2.766c0.478-1.573,0.484-3.614,0.925-5.225c0.016-2.138,0.726-3.575,0.616-5.836
			c0.547-1.463,0.119-3.807-1.232-4.304c-2.494,0.164-2.996,2.326-3.068,4.916c-0.688,0.646-0.234,2.427-0.925,3.072
			c0.075,1.301-0.278,2.176-0.612,3.071c-0.201,2.361-0.879,4.238-1.229,6.453c-0.205,1.127-0.602,2.065-0.615,3.379
			c0.163,1.396-1.74,0.72-2.457,1.229c0.096-4.61,1.119-8.301,1.531-12.598c0.324-2.033,0.342-4.374,0.617-6.452
			c-0.159-2.059,1.062-4.782-0.309-6.146c-2.896-0.134-2.565,2.967-3.074,5.224c-0.467,2.301-1.273,4.257-1.535,6.761
			c-0.65,0.783-0.354,2.516-0.924,3.38c-0.018,1.313-0.41,2.251-0.611,3.381c-0.205,1.128-0.327,2.335-0.613,3.38
			c0.04,0.76,0.049,1.481-0.309,1.844c-0.169,0.447,0.355,1.589-0.307,1.537h-1.539c-1.168,0.248-0.391-1.453-0.614-2.15v-7.989
			c-0.446-2.315-0.2-5.33-0.61-7.683c-0.372-2.396-0.027-5.503-1.229-7.065c-1.689-0.358-1.455,1.207-2.151,1.845
			c0.149,1.379-0.158,2.302-0.308,3.379c-0.168,2.289-0.27,4.649-0.615,6.761v12.905c-2.083,0.237-3.267-0.42-5.223-0.31
			c-0.67-3.938-1.006-8.21-1.229-12.598c-0.166-2.089-0.451-4.058-0.612-6.146c-0.277-1.979-0.206-4.308-2.152-4.609
			c-1.367,0.578-1.954,1.938-1.846,3.994c-0.258,1.584-0.399,3.287-0.306,5.226c-0.248,1.065,0.457,1.181,0.306,2.149v5.225
			c0.303,1.85,0.472,3.831,0.617,5.839c-1.459,0.127-2.518-0.149-3.381-0.614c-0.464-1.994-0.435-4.482-0.614-6.761
			c-0.555-0.677-0.271-2.188-0.617-3.071c-0.157-1.074-0.138-2.32-0.611-3.076c0.095-2.554-0.876-4.041-0.923-6.45
			c-1.374-1.087-0.663-4.257-2.458-4.914c-1.16,0.374-0.91,2.161-0.92,3.688v4.303c0.419,5.107,1.363,9.69,1.534,15.056
			c-0.921-0.613-2.453-0.617-2.15-2.459c-0.231-1.306-0.381-2.688-0.616-3.995c-0.431-1.105-0.315-2.757-0.919-3.686
			c-0.107-1.433-0.397-2.683-0.923-3.688c-0.85-5.194-2.368-9.72-3.38-14.751c-0.242-0.033-0.931-1.016-0.306-0.921
			c7.958,3.308,18.176,4.356,28.883,4.915h11.98c6.438-0.323,11.562-1.96,16.289-3.994C92.023,80.486,90.214,84.926,88.887,89.844z
			 M79.664,73.559c-9.693-0.136-20.155,0.489-28.572-0.925c-4.328-0.587-8.139-1.692-11.985-2.763
			c-1.38-1.08-3.644-1.277-4.917-2.461c-0.769-0.456-1.691-0.766-2.151-1.535c-0.902-0.326-2.034-0.423-2.765-0.922v-8.91
			c1.833-6.773,4.845-12.364,9.528-16.287c2.117-2.183,4.765-3.838,7.373-5.529c2.516-1.686,5.28-3.12,8.601-3.997
			c0.555,0.04,0.649-0.374,1.234-0.306c1.208,0.02,1.483,0.971,1.842,1.844c0.58,0.549,1.421,0.83,1.842,1.535
			c2.011,0.553,3.251,1.87,5.533,2.152c2.226,0.071,3.703-0.602,5.226-1.229c1.545-0.713,1.653-2.851,2.769-3.997
			c3.524,0.367,6.569,1.214,9.522,2.151c4.894,3.404,8.726,7.868,11.981,12.906c1.562,4.787,3.084,9.621,3.385,15.671
			c-0.127,1.967,1.373,2.312,1.531,3.995C94.171,69.008,87.984,72.348,79.664,73.559z M52.012,37.299
			c-0.619-1.907-3.535-1.741-4.917-0.614c-0.924,1.999,0.216,3.907,2.153,3.993C50.688,40.072,52.33,39.666,52.012,37.299z
			 M78.439,35.761c-3.602-0.847-4.521,3.26-3.072,5.531C79.135,43.13,80.936,37.584,78.439,35.761z M57.543,44.673
			c-0.315-0.684-1.412,0.403-2.457,0c-1.71,1.34-1.744,4.142-0.616,6.146c0.331-0.123,0.493,0.249,0.616,0.309
			c1.391,0.657,2.856-0.253,3.994-0.924c0.048-0.361-0.055-0.871,0.306-0.922C59.332,47.187,59.314,45.054,57.543,44.673z
			 M81.205,47.13h-0.616c-1.413,1.354-3.062,2.468-3.071,5.226c0.601,1.552,1.885,2.414,3.994,2.458
			C84.602,54.387,84.434,47.281,81.205,47.13z M87.658,56.349c2.76,2.725,6.807-0.817,4.916-4.607
			C89.701,49.314,86.645,53.128,87.658,56.349z M45.868,51.432c-1.61,0.394-2.926,1.902-3.381,3.074
			c-0.541,1.034,0.208,1.576,0,3.072c1.031,0.707,1.59,1.892,3.688,1.538c1.913-1.035,3.032-5.373,1.231-7.375
			C46.661,51.867,46.734,51.18,45.868,51.432z M32.039,59.116c0.535,4.067,6.849,2.983,6.149-1.538
			C36.997,54.846,32.207,56.387,32.039,59.116z M70.145,62.494c1.854-0.885,1.893-4.589,0.613-6.146
			C65.902,53.762,65.115,63.547,70.145,62.494z M53.244,59.729c-0.579,0.434-0.775,1.348-1.232,1.537
			c-0.592,3.359,1.327,5.493,4.304,4.303c1.135-0.799,1.162-3.687,0.612-5.227C55.774,59.563,54.115,59.075,53.244,59.729z
			 M80.589,65.26c0.466,1.584,1.331,2.766,3.382,2.768c1.748-0.508,2.975-1.529,2.764-3.995
			C85.38,62.117,80.391,61.713,80.589,65.26z"/>
	</g>
</g>
</svg>
