<?xml version="1.0" encoding="utf-8"?>
<!-- Generator: Adobe Illustrator 16.0.0, SVG Export Plug-In . SVG Version: 6.00 Build 0)  -->
<!DOCTYPE svg PUBLIC "-//W3C//DTD SVG 1.1//EN" "http://www.w3.org/Graphics/SVG/1.1/DTD/svg11.dtd">
<svg version="1.1" id="Layer_1" xmlns="http://www.w3.org/2000/svg"  x="0px" y="0px"
	 width="120px" height="120px" viewBox="0 0 120 120" enable-background="new 0 0 120 120" xml:space="preserve">
<g id="chicken2">
	<g>
		<path d="M94.925,15.657c-3.544-0.857-7.294-1.513-11.407-1.802c-0.934,0.169-1.304,0.896-2.103,1.201
			c-4.742,0.962-9.668,1.741-13.212,3.902c-4.232,1.474-6.694,4.718-9.909,7.206c-0.59,1.513-2.093,2.108-2.402,3.903
			c-1.296,0.906-1.386,3.017-2.402,4.203c-0.426,1.676-1.101,3.104-1.8,4.506c-0.699,1.503-2.226,2.178-2.402,4.204
			c-0.757,1.256,0.652,1.338,0.3,3c-0.375,4.629-1.222,8.788-1.201,13.812c-0.464,0.437-0.265,1.537-0.303,2.403
			c-0.419,0.576-0.793,1.207-0.897,2.101c0.035,1.065,1.11,1.091,0.897,2.402v3.903c0.387,1.317,1.54,0.307,1.804,0.601
			c-4.908,5.2-11.166,9.054-15.013,15.313c-4.787-1.988-12.148-1.145-15.311,1.803c-0.776,1.627-1.553,3.254-1.804,5.4
			c-0.034,1.942,0.416,5.064,1.201,5.706c0.092,0.074-0.061,0.491,0,0.603c0.069,0.129,0.473,0.43,0.603,0.6
			c1.033,1.382,2.384,2.582,3.601,3.303c2.786,1.649,7.017,2.369,10.809,2.104c-0.262,1.862,0.467,2.733,0.901,3.901
			c2.139,1.666,4.297,3.31,7.506,3.903c3.102,0.097,5.676-0.334,8.407-0.603c2.888-2.219,4.647-5.562,4.503-10.809
			c-1.639-3.562-3.659-6.75-6.003-9.609c2.813-3.291,5.397-6.812,9.007-9.309c0.495-0.507,0.651-1.349,1.2-1.8
			c0-1.005,1.209-0.798,1.502-1.503c1.11,0.792,3.216,0.59,5.106,0.604c5.297-1.309,10.905-2.308,15.312-4.506
			c4.845-1.857,9.468-3.943,13.211-6.906c1.911-1.392,3.386-3.219,5.403-4.502c1.592-1.812,3.087-3.724,4.806-5.403
			c2.093-4.616,4.843-8.572,5.407-14.716v-3.903C108.391,29.215,103.191,20.9,94.925,15.657z M49.887,69.104h2.103
			c0.091,0.69-0.869,0.334-0.902,0.9c-0.972-0.372-0.228,0.973-1.2,0.6L49.887,69.104L49.887,69.104z M36.376,105.133
			c-0.157-0.154,0.217-0.383,0.302-0.3C36.831,104.989,36.46,105.217,36.376,105.133z M45.382,91.922
			c-0.117,1.421,0.1,2.505,0.304,3.604c0.465,1.334,2.01,1.593,3,2.402c1.188,2.213,2.317,4.488,2.704,7.506
			c-0.393,2.008-1.201,3.605-2.704,4.504c-3.792,0.09-6.95-0.455-8.708-2.401c0.172-1.369-0.53-1.868-0.3-3.304
			c0.248-1.146-0.64-1.162-1.199-1.502c1.323-0.987,2.157-5.648-0.603-5.703c-1.125,0.076-1.36,1.041-1.801,1.803
			c-0.067,1.135-0.942,1.458-1.201,2.4c-1.204,0.297-1.573,1.431-3.303,1.201c-1.918-0.183-2.958-1.248-4.202-2.103
			c-1.448-0.654-2.386-1.819-3.304-3.003v-4.203c0.741-1.459,2.017-2.387,3.304-3.305c1.148-0.252,2.405-0.393,3.901-0.299
			c1.269,0.332,2.465,0.74,3.604,1.2c1.696-0.204,2.048-1.755,3.301-2.399c1.43-0.373,2.09-1.521,3.307-2.104
			c3.371-2.929,6.232-6.374,9.605-9.308c0.979-1.022,2.458-1.545,3.006-3.002v-1.5c1.28-0.008-0.212,1.566,0.299,2.701
			c-0.689,0.418-0.112,2.091-0.299,3.002c0.226,1.074,0.692,1.908,1.799,2.103C52.206,83.934,48.271,87.402,45.382,91.922z
			 M104.535,48.983c-1.031-0.13-1.684,0.119-2.402,0.303c-0.164,1.364,0.155,2.247,0.901,2.7c-1.872,5.039-6.62,7.195-10.812,9.909
			c-1.652-0.347-1.75-2.251-3.603-2.398c-1.272-0.073-1.781,0.621-2.104,1.499c-0.006,1.808,1.453,2.151,2.104,3.303
			c-0.302,0.8-1.216,0.991-1.806,1.502c-0.787,0.413-1.031,1.369-2.103,1.501c-1.181,1.219-2.726,2.076-4.802,2.4
			c-1.184,1.121-3.223,1.383-4.807,2.104c-1.199,0-1.804,0.602-3.002,0.604c-0.688,0.514-2.115,0.283-2.701,0.898
			c-0.976-0.026-0.213-1.789-1.502-1.502c0.021,0.422-0.873,0.344-0.303,0.604c-0.022,0.818,0.502,0.603,0,1.199
			c-2.729,0.373-4.668,1.535-5.703,3.604h-4.805c-0.288-1.088,1.297-0.305,1.502-0.898c0.424-1.178,0.206-2.996,0.898-3.902
			c0.21-1.209-1.262-0.737-1.2-1.803c-0.358-0.742-1.028-1.174-1.801-1.502c0.617-1.582,2.412-1.99,2.403-4.201
			c-0.188-1.078-2.02-0.502-2.701-0.303c-0.388,0.814-1.54,0.863-1.804,1.803c-0.682-0.413,0.479-1.496,0.898-1.803
			c0.117-0.984,0.88-1.326,1.203-2.103c0.945-1.468,2.38-2.424,3.001-3.903c-1.126-1.473-3.984-0.164-4.504,0.902
			c-0.822-1.141,1.116-2.08,1.503-3.004c0.641-1.161,2.022-1.58,2.403-3.003c-0.76-1.329-3.523-0.354-3.906,0.601
			c-0.882-0.613,0.408-1.57,0.603-2.104c0.278-0.82,0.919-1.28,1.2-2.101c0.835-1.366,1.953-2.452,2.701-3.904
			c0.636-0.766,1.861-0.94,2.104-2.102c0.259-0.956-0.471-0.927-0.603-1.5c-3.535-0.235-4.08,2.521-6.005,3.903
			c0.288,1.247-0.897,0.061,0,0v-0.9c0.657-1.044,1.252-2.154,1.803-3.304c0.769-1.03,1.634-1.971,2.104-3.302
			c1.038-0.964,2.155-1.848,2.701-3.305c0.173-1.073-0.889-0.911-1.803-0.899c1.521-3.085,3.233-5.977,6.905-6.907
			c1.341-0.434,0.318-1.443,1.201-2.102c1.267-0.735,2.809-1.196,3.902-2.101c1.115,0.211,1.288-0.514,2.402-0.301
			c2.117-1.188,5.347-1.257,8.107-1.802h4.801c1.369,0.337,2.276,1.129,3.606,1.501c1.229,0.03,2.459,0.059,3.3-0.301
			c1.188-0.082,0.92,1.284,2.104,1.202c1.436,2.071,3.271,3.733,4.504,6.005c0.257,1.444,1.246,2.157,1.503,3.603
			c0.625,1.176,0.748,2.855,1.5,3.904c-0.211,1.311,0.513,1.691,0.299,3.002c0.396,0.807,0.81,1.596,1.205,2.402
			C105.378,45.225,104.823,46.971,104.535,48.983z M73.309,29.469c-0.656,2.505,2.271,3.438,3.603,2.104
			C77.127,29.576,75.041,28.537,73.309,29.469z M90.121,31.869c-0.1,1.879,2.316,2.584,3.902,1.803
			C94.859,30.969,91.027,30.074,90.121,31.869z M85.02,41.479c-0.229,2.13,0.567,3.234,2.703,3.004
			c0.416-1.358,0.164-2.678-0.604-3.605C86.188,40.848,85.686,41.244,85.02,41.479z M64,42.079
			c-1.252,1.089-1.725,6.419,0.898,6.304c1.512-0.789,1.545-3.059,1.504-5.401C65.738,42.539,65.109,42.066,64,42.079z
			 M73.006,61.896h1.202c1.213-1.293,0.155-3.166-0.299-4.504C70.393,56.623,70.852,61.494,73.006,61.896z"/>
	</g>
</g>
</svg>
