<?xml version="1.0" encoding="utf-8"?>
<!-- Generator: Adobe Illustrator 16.0.0, SVG Export Plug-In . SVG Version: 6.00 Build 0)  -->
<!DOCTYPE svg PUBLIC "-//W3C//DTD SVG 1.1//EN" "http://www.w3.org/Graphics/SVG/1.1/DTD/svg11.dtd">
<svg version="1.1" id="Layer_1" xmlns="http://www.w3.org/2000/svg"  x="0px" y="0px"
	 width="120px" height="120px" viewBox="0 0 120 120" enable-background="new 0 0 120 120" xml:space="preserve">
<g id="chicken1">
	<g>
		<path d="M49.111,29.529c0.785,1.41,3.753,0.637,4.078,2.508c-0.221,1.715-2.354,3.603-0.628,5.327
			c2.014,0.236,2.266-1.285,3.446-1.882c0.418-1.671,1.224-2.954,0.939-5.326c-0.243-0.069-0.363-0.262-0.312-0.627
			c-0.929-1.369-3.445-1.151-4.073-2.82c0.223-1.867,0.993-3.186,1.566-4.701c0.572-0.471,0.739-1.353,1.256-1.881
			c0.289-0.752,1.257-0.828,0.938-2.193c-0.371-0.359-1.107-0.353-1.884-0.313c-2.083,1.57-3.346,3.962-5.01,5.955
			c-0.232,1.753-0.585,3.384-0.628,5.327C49.045,28.972,49.165,29.166,49.111,29.529z M39.712,32.351
			c0.966,2.438-2.137,3.956-0.939,6.58c0.245,0.071,0.618,0.01,0.626,0.313c1.729,0.268,2.306-0.619,2.509-1.88
			c0.683-0.884,1.278-1.854,1.878-2.821c-0.264-1.719-0.925-3.041-1.567-4.387c-0.97-1.118-2.549-1.629-3.445-2.819
			c1.279-2.376,3.812-3.503,4.076-6.896c-2.083-1.485-3.565-0.197-4.391,0.627c-0.784,0.784-1.665,1.756-2.194,2.507
			c-0.334,0.475-0.39,1.281-0.937,1.253c-0.084,1.382-0.504,2.425-0.313,4.074C35.902,30.729,38.697,30.648,39.712,32.351z
			 M24.356,33.917c0.96,1.966,3.54,2.311,4.386,4.388c0.222,2.497-0.816,6.248,1.882,6.269c1.131-0.229,1.401-1.315,1.253-2.822
			v-4.073c-0.446-0.599-0.729-1.36-0.939-2.195c-1.058-1.343-3.18-1.624-3.445-3.758c-0.096-1.559,0.393-2.534,1.25-3.135
			c0.202-1.009,1.777-1.756,0.941-2.821c-0.033-0.801-1.048-0.62-1.879-0.627c-2.121,0.907-3.044,3.017-3.763,5.328v2.82
			C24.286,33.359,24.409,33.552,24.356,33.917z M118.373,57.107c-1.006-0.77-1.994-1.557-3.445-1.88
			c-0.719-0.954-3.121-0.221-4.076-0.939c0.215-1.666,1.752-2.011,1.567-4.074c0.218-2.517-0.698-3.898-1.567-5.329
			c-1.375-0.295-2.148-1.191-4.072-0.939c-1.916-0.243-2.932,0.411-4.701,0.312c-0.002,0.317-0.549,0.396-0.624,0h0.624
			c1.705-1.427,4.158-2.109,4.395-5.014c0.16-3.405-2.215-4.266-3.768-5.954c-0.951-0.195-2.699,0.401-3.135-0.313
			c0.06-2.982-0.68-5.17-2.191-6.582c-7.045-1.922-12.134,3.488-9.716,10.03c-2.271,0.76-4.104,1.953-5.954,3.132
			c-2.182,0.748-3.521,2.33-5.641,3.136c-1.049,0.789-0.312,2.145-1.258,2.507c-1.558-0.112-1.795-1.547-3.133-1.88
			c-0.215-0.622-0.953-0.718-1.255-1.254c0.276-1.007-1.032-0.43-0.94-1.253c-2.816-1.359-5.767-2.589-10.339-2.193
			c-4.413,0.912-7.987,2.667-12.221,3.76c-4.079,1.145-7.963,2.484-10.97,4.701c-2.04,0.567-3.292,1.93-5.014,2.82
			c-1.558,1.051-2.687,2.537-4.387,3.445c-2.564,2.658-5.568,4.88-8.149,7.522c-0.642,1.448-1.629,2.551-2.508,3.761
			c-0.627,1.357-1.642,2.328-2.19,3.762c-1.801,2.275-2.728,5.424-4.075,8.147C9.61,77.879,9.206,78.834,9,79.984V85
			c0.358,1.625,0.969,3,1.254,4.701c1.465,1.773,2.071,4.404,3.761,5.953c0.99,2.144,2.706,3.56,3.448,5.955
			c6.538,7.896,23.047,3.322,34.785,5.015c2.977,1.828,5.833,3.776,10.973,3.448c2.479-0.338,4.276-1.36,6.577-1.883
			c1.577-1.559,3.736-2.527,5.013-4.389c0.701,0.561,1.275,1.234,2.822,0.939c2.948-0.129,5.085,0.56,8.146,0.314
			c1.33-0.449,3.277-0.273,4.387-0.94c1.459-0.214,2.125-1.222,3.452-1.566c2.342-2.461,4.288-5.319,6.264-8.147
			c0.591-2.65,1.169-5.31,0.941-8.775c-0.242-0.277-0.337-0.707-0.312-1.252c-0.643-1.971-1.729-3.496-2.509-5.326
			c-2.167-2.432-5.562-3.631-6.271-7.521c1.259-1.146,2.869-1.938,5.015-2.192c1.438-1.274,2.959-2.478,5.327-2.821
			c1.215-0.271,1.115,0.768,1.884,0.94c0.367,0.464,1.185,0.485,1.563,0.938c1.604-0.143,2.179,0.748,3.447,0.94
			c3.842,0.394,6.068-0.826,8.148-2.194c0.398-1.062,0.934-1.988,1.564-2.82c0.027-0.496-0.149-1.194,0.312-1.254v-4.699
			C118.451,58.285,118.285,57.821,118.373,57.107z M80.141,45.513c1.92-1.006,4.008-1.842,5.639-3.134
			c1.99-0.938,3.965-1.889,5.33-3.448c-0.022-0.545,0.068-0.974,0.312-1.253c-0.184-1.803-1.429-2.54-1.568-4.388
			c0.6-2.538,2.812-3.456,5.328-4.074c0.019,1.446-0.138,3.063,0.316,4.074c0.271,0.458,0.467,0.993,1.251,0.94
			c0.092,0.639,0.628,0.834,0.94,1.252c3.471-0.334,5.254,1.014,5.953,3.448c-0.695,1.079-1.746,1.804-2.819,2.508
			c-1.326,0.552-3.368,0.391-3.446,2.192c0.042,1.42,1.666,1.262,3.135,1.254c0.065-0.938,1.303,0.301,0,0
			c-2.539,2.688-5.238,5.211-5.014,10.656c-1.768,0.322-2.775,1.402-4.389,1.881c-0.539,0.509-1.144,0.947-2.193,0.94
			c-0.221,0.694-1.473,1.042-1.882,0.626c-0.362-0.463-0.362-0.79,0-1.253c1.054,0.321,0.491-0.974,0.627-1.568
			c0.047-0.778-0.491-0.97-0.627-1.565c-0.742-1.033-1.868-1.683-3.132-2.195c-0.864-1.328-2.195-2.192-3.449-3.133
			c-0.615-0.533-1.566-0.733-1.879-1.565c-0.896-0.259-1.594-0.71-1.883-1.569C78.273,46.362,78.979,45.71,80.141,45.513z
			 M41.592,99.729c-3.431,0.194-5.462-1.013-9.086-0.625c-0.288-2.832,2.572-4.652,0.938-6.895c-2.801-0.398-3.5,1.307-4.073,3.133
			c-0.855,1.65-1.4,3.612-1.565,5.954c-1.086,0.22-1.125-1.098-0.628-1.567c-0.365-0.572-0.817-1.06-1.254-1.564
			c0.588-0.977,0.363-3.368,0-4.389c0.027-2.325,1.76-5.396,0.312-7.207c-1.027,0.432-1.615,1.309-1.878,2.508
			c-0.65,0.812-1.065,1.854-1.254,3.135c-0.453-0.384-0.475-1.195-0.941-1.566c-1.179-0.523-1.426,1.457-1.878,0.627
			c-0.017-3.358,1.015-5.67,0.938-9.088c-2.404-0.211-2.125,2.262-3.134,3.443c-0.261,0.787-0.856,1.23-0.938,2.196
			c-0.62,0.528-0.12,2.18-1.257,2.19c-0.03-1.852-0.441-3.318-0.938-4.699c-0.38,0.031-0.193-0.457,0,0
			c0.594,0.134,0.783,0.675,1.566,0.625c1.915-1.319,1.112-5.363,1.565-8.146c2.814-5.44,6.241-10.269,9.404-15.356
			c2.176-1.896,4.193-3.952,6.577-5.643c1.673-2.401,4.438-3.714,6.584-5.641c1.569-0.412,2.513-1.454,3.76-2.192
			c1.871-0.221,2.864-1.317,4.388-1.881c3.012-1.062,5.914-2.233,9.09-3.135c4.476-0.196,7.494,1.07,10.967,1.881
			c2.748,2.16,4.39,5.428,9.088,5.643c1.527,0.352,1.793,1.965,3.449,2.191c0.674,1.311,2.291,1.677,2.508,3.447
			c-5.176,1.094-11.443,1.094-16.299,2.507h-4.074c-2.114-0.392-3.667-1.351-5.64-1.879h-6.896
			c-3.014,0.644-5.525,1.785-7.209,3.761c-0.732,0.104-1.292,0.376-1.878,0.625c-2.058,1.394-3.045,3.854-4.701,5.642
			c0.069,1.012-0.556,1.327-0.313,2.51c-1.766,2.621-2.449,6.322-3.137,10.027v6.268c-0.128,0.756,0.573,0.683,0.313,1.565
			c1.425,3.279,3.48,5.927,5.329,8.775c0.213,0.729,1.039,0.838,1.255,1.565c0.349,0.064,0.487,0.349,0.625,0.629
			C41.622,99.178,42.032,99.618,41.592,99.729z M74.186,95.969c-0.387,1.807-1.574,2.812-2.508,4.073
			c-1.373,0.927-3.07,1.526-4.386,2.508c-0.972-0.106-1.499,0.726-2.194,0c-0.438,0.5-1.078,0.802-1.877,0.94
			c-3.198-0.043-5.295-1.186-8.781-0.94c-1.154-0.827-2.762-1.2-3.13-2.821c1.896,0.611,4.186,0.826,6.267,1.254
			c2.269-0.135,5.435,0.632,5.646-1.564c-0.269-1.824-2.685-1.499-4.703-1.566c-2.208-0.195-4.048-0.762-6.27-0.939
			c-1.235-0.083-2.18,0.121-2.507,0.939c-1.015-0.867-1.561-2.199-2.507-3.134c-2.486-1.381-4.15-3.581-6.27-5.327
			c-0.144-2.572-1.091-4.345-1.253-6.896v-3.762c0.395-1.381,0.387-3.166,1.566-3.762c-0.877-2.562,0.87-4.334,1.882-5.953
			c1.17-0.338,0.893,0.777,1.879,0.625c1.442-0.647,2.597-1.582,4.072-2.19c1.213-0.776,2.802-1.169,4.078-1.884
			c5.457-0.289,10.526-0.963,16.292-0.938c4.111,1.012,7.33,2.906,12.226,3.135c-0.183,1.019,0.215,1.459,0.312,2.192
			c1.943,0.983,4.396,1.457,5.644,3.136c-0.479,1.297-1.255,2.299-1.565,3.762c-2.188,0.844-2.828,3.229-4.699,4.387
			c-0.063,1.611-1.137,2.209-1.256,3.76c-0.781,0.891-0.836,2.507-1.565,3.448c-0.56,2.786-1.974,4.713-2.82,7.206
			C75.391,95.918,74.91,96.068,74.186,95.969z M96.125,87.193c-0.129,5.617-3.018,8.477-5.645,11.596
			c-0.739,0.117-1.164,0.579-1.877,0.939c-0.545,0.273-0.769,0.428-1.569,0.627c-0.319,0.078-1.349,0.353-2.194,0.627h-8.148
			c0.513-2.312,2.443-3.197,3.449-5.016c1.383-3.839,2.305-8.142,3.762-11.906c1.162-1.033,1.84-2.551,3.443-3.137
			c0.057-1.515,0.997-2.139,1.57-3.133c0.757,0.391,1.012,1.283,1.25,2.191C92.357,82.184,95.105,83.822,96.125,87.193z
			 M115.238,64.002c-0.883,0.259-0.809-0.441-1.566-0.312c-2.13,1.787-7.4,2.24-9.4,0h-2.506c-1.291,0.175-2.029,0.897-3.449,0.939
			c-1.11,0.874-2.228,1.742-4.071,1.881c-0.95,1.035-2.488,1.479-4.077,1.881c0.057-0.681-1.107-0.143-1.562-0.312
			c0.711-1.168,2.49-1.27,2.506-3.135c-0.109-2.291-3.409-1.396-5.643-1.566c0.172-1.395,1.469-1.666,3.137-1.566
			c2.316-0.813,4.608-1.654,6.896-2.507c0.7-0.866,2.151-0.979,3.131-1.566c0.897-0.566,2.384-0.545,3.138-1.253
			c0.19-1.445-0.705-1.805-0.629-3.137c0.28-2.33,1.666-3.558,2.508-5.327c1.104-0.46,2.318-0.815,4.072-0.626
			c0.102,0.735,0.973,0.701,1.256,1.253c0.242,1.706-0.482,2.445-0.939,3.447c-0.814,0.648-0.896,2.028-1.562,2.821
			c0.277,1.075,0.688,2.024,1.248,2.821c3.37-0.64,7.297-0.285,8.463,2.192C116.307,61.727,115.57,62.659,115.238,64.002z
			 M90.166,48.333c1.175-1.646,2.902-2.741,4.077-4.388c0.524-0.389,1.6-0.911,0.938-1.566c-0.398-0.018-0.434-0.401-0.938-0.313
			c-0.772,0.688-1.603,1.321-2.821,1.565c-1.093,1.312-2.623,2.185-3.761,3.449c-0.996,1.406-3.293,1.51-3.447,3.761
			c2.3,0.001,2.851-1.747,5.015-1.88C89.357,48.566,89.633,48.321,90.166,48.333z M43.785,83.745
			c0.585,0.044,1.049,0.208,1.254,0.628c2.885-0.24,2.95-4.645,1.566-6.58C43.156,77.251,43.189,81.208,43.785,83.745z
			 M65.727,83.119c2.565,1.402,4.256-1.471,3.133-3.762C66.498,77.236,64.391,80.616,65.727,83.119z M54.756,82.807
			c-3.105-0.494-3.732,1.49-3.762,4.073c0.577,0.365,1.061,0.819,1.567,1.253c1.526,0.275,2.081-0.428,3.134-0.626
			C56.402,85.867,55.616,83.833,54.756,82.807z M62.277,93.775c0.548,0.723,1.174,1.146,2.19,0.625c0.239-0.739,0.618-2.164,0-2.82
			C62.825,91.398,62.366,92.402,62.277,93.775z M55.384,96.908h1.251v-1.881c-0.591,0.07-0.69-0.354-1.251-0.312
			C55.231,95.43,54.758,96.316,55.384,96.908z"/>
	</g>
</g>
</svg>
