<?xml version="1.0" encoding="utf-8"?>
<!-- Generator: Adobe Illustrator 16.0.0, SVG Export Plug-In . SVG Version: 6.00 Build 0)  -->
<!DOCTYPE svg PUBLIC "-//W3C//DTD SVG 1.1//EN" "http://www.w3.org/Graphics/SVG/1.1/DTD/svg11.dtd">
<svg version="1.1" id="Layer_1" xmlns="http://www.w3.org/2000/svg"  x="0px" y="0px"
	 width="120px" height="120px" viewBox="0 0 120 120" enable-background="new 0 0 120 120" xml:space="preserve">
<g id="football1">
	<g>
		<path d="M105.496,30.08c-1.573-1.754-2.557-4.102-4.28-5.707c-1.643-1.111-3.43-2.084-5.135-3.138
			c-2.446-0.704-6.121-1.077-9.129-0.856c-0.171,0.015-0.339,0.046-0.284,0.287h-0.572c-11.851,1.366-22.465,3.971-31.666,7.986
			c-1.553,1.113-3.316,2.01-4.85,3.14c-0.79,0.546-1.496,1.167-2.283,1.712c-0.971,0.361-1.079,1.58-2.282,1.713
			c-1.589,1.928-3.749,3.725-5.134,5.42c-1.044,1.272-2.037,2.418-3.142,3.424c-0.27,1.156-1.324,1.525-1.709,2.566
			c-1.244,0.854-2.112,2.07-3.142,3.139c-0.486,0.506-1.686,1.22-1.709,1.711c-0.033,0.652-1.227,1.359-1.428,1.711
			c-2.845,6.191-5.966,12.106-7.133,19.973c-0.83,3.381-1.178,8.353-0.571,12.267c0.338,4.227,0.958,8.178,2.282,11.412
			c0.941,1.438,1.793,2.965,3.423,3.71c0.866,1.515,2.89,1.868,3.997,3.14c4.202,2.004,10.576,3.744,16.547,3.707
			c4.135-0.024,7.668-0.672,10.84-1.711c8.348-2.588,15.127-6.75,21.398-11.412c6.351-4.586,11.812-10.062,16.263-16.547
			c2.03-3.389,3.766-7.076,5.418-10.841c1.975-3.543,3.59-7.447,4.85-11.699c0.517-1.676,0.746-3.631,1.146-5.42
			C107.43,42.41,106.907,35.801,105.496,30.08z M43.873,101.404c-4.862-0.182-8.678-1.404-12.555-2.566
			c-1.293-1.37-2.162-3.163-3.136-4.85c-0.848-3.971-1.151-9.146-0.855-13.41v-0.855c0.241-0.053,0.267,0.109,0.283,0.283
			c3.38,0.521,5.405,2.396,8.274,3.424c2.063,2.404,4.214,4.727,5.706,7.703c0.59,1.602,1.364,3.012,1.71,4.852
			C43.547,97.607,44.427,99.912,43.873,101.404z M99.221,57.754c-0.229,1.388-0.498,2.732-1.141,3.709
			c-0.036,1.676-1.053,2.372-1.428,3.71c-0.41,1.204-0.984,2.246-1.713,3.136c-2.543,4.114-5.383,7.932-8.271,11.697
			c-0.865-0.084-0.801-1.099-1.712-1.139c-1.45,0.736-1.796,2.578-1.712,4.85c-1.314,1.537-2.738,2.967-4.279,4.279
			c-0.635-0.985-0.457-2.781-1.996-2.854c-2.23,0.068-2.308,3.426-1.713,5.422c-2.083,1.055-3.402,2.873-5.707,3.707
			c-0.009-1.674,0.512-4.168,0-6.562c-3.99,0.195-3.554,4.812-3.709,8.846c-2.509,0.721-4.111,2.355-6.562,3.139
			c0.241-1.852,0.375-3.812,0.285-5.99c0.081-0.969,0.455-1.641,0.286-2.854c0.245-1.192-0.771-1.133-1.14-1.714
			c-4.291,0.177-4.029,4.914-4.279,9.132c0.355,0.879,0.232,2.236,1.426,2.281c-0.861,0.852-2.621,0.803-3.995,1.141v-5.705
			c-0.17-1.066-1.236-1.237-1.713-1.994c-2.218-9.672-7.762-16.014-15.979-19.688c-0.328,0.048-0.505-0.062-0.566-0.284
			c-1.038,0.088-1.857-0.045-2.567-0.285c-1.113,0.315-2.658,0.195-3.708,0.569c0.499-6.344,3.685-10.006,5.134-15.404
			c1.286-1.143,1.805-2.771,2.854-4.281c0.27-0.391,0.849-0.711,1.137-1.142c0.326-0.477,0.532-1.179,0.861-1.712
			c0.113-0.188,0.461-0.4,0.568-0.567c0.266-0.429,0.523-0.854,0.854-1.429c0.31-0.531,0.866-1.51,1.146-2.283
			c1.545-1.305,2.971-2.732,4.276-4.278c0.934-0.489,1.346-1.505,2.282-1.999c0.093-1.332,1.618-1.233,1.71-2.564
			c1.283-0.241,1.703-1.349,2.856-1.714c0.692-0.731,1.647-1.204,2.283-1.997c1.798-0.674,3.501-1.442,4.848-2.568
			c6.007-1.221,11.314-3.141,17.974-3.709c-0.086,1.799,0.046,3.379,0.285,4.852c0.922,2.217,1.685,4.592,3.14,6.275
			c0.806,2.236,2.676,3.41,3.709,5.42c1.928,1.688,3.888,3.34,5.989,4.852c1.188,0.615,2.369,1.244,3.424,1.997
			c0.962-0.007,1.511,0.394,1.999,0.854c0.884-0.027,1.583,0.13,1.995,0.571c1.572-0.147,2.625,0.772,3.711,0.287
			C100.369,55.477,99.793,56.615,99.221,57.754z M101.789,48.625c-2.073-0.213-3.449-1.119-5.708-1.143
			c-1.286-0.994-2.864-1.699-4.28-2.566c-1.281-0.906-2.273-2.099-3.707-2.854c-1.384-2.136-3.279-3.756-4.566-5.99
			c-0.856-2.565-2.776-4.068-2.28-7.988c2.687-0.648,6.065-0.594,9.415-0.57c1.75,0.438,3.979,0.396,5.138,1.425
			c0.804-0.044,0.714,0.808,1.144,1.142c0.332,0.429,0.822,0.697,0.854,1.426c0.639,0.789,1.107,1.742,1.428,2.854
			c0.611,1.193,2.307,1.306,2.852,2.567C102.021,40.871,102.252,45.094,101.789,48.625z M74.971,57.469
			c1.67-0.521,2.649-1.725,3.137-3.424c-0.403-0.547-0.662-1.238-0.854-1.997c-0.96-0.181-1.467-0.817-2.854-0.571
			c-1.33,0.095-1.373,1.479-2.853,1.426c-0.679-1.604-1.603-2.961-2.565-4.277c-1.512-0.585-2.453,0.16-3.424,0.855
			c-0.047,0.338,0.045,0.809-0.289,0.855c0.258,2.598,1.596,4.113,2.282,6.277c-0.97,1.219-2.049,2.324-3.708,2.854
			c-0.9-1.574-2.042-2.903-4.566-2.854c-1.12,1.92-0.407,5.057,0.571,6.559c-0.476,0.855-1.305,1.36-1.996,2.001
			c-1.218,0.209-0.975,1.878-2.567,1.712c-1.529-1.324-1.536-4.172-3.992-4.566c-0.991-0.229-1.1,0.427-1.999,0.287
			c-1.618,3.273,1.317,5.549,1.999,8.271c-1.128,0.682-2.124,1.492-2.854,2.568c-1.278,0.627-2.33,1.473-2.569,3.138
			c0.207,0.651,0.257,1.458,0.569,1.997c3.726,1.266,5.21-1.959,7.704-2.854c1.229,1.907,1.913,4.361,4.851,4.564
			c0.78-0.268,1.216-0.877,1.998-1.145c0.044-0.336-0.052-0.811,0.284-0.854c0.119-3.066-2.016-3.882-2.567-6.273
			c0.394-0.846,1.315-1.156,1.71-1.998c1.318-0.015,1.038-1.625,2.57-1.428c0.822,2.121,1.539,4.354,4.279,4.564
			c1.164-0.262,1.977-0.877,2.279-1.998c0.079-3.125-2.039-4.047-2.566-6.562c1.269-1.014,2.279-2.283,3.996-2.854
			c1.475,2.645,3.695,7.156,7.986,5.137c0.824-1.979-0.361-3.87-1.426-4.852C76.818,60.377,75.432,59.386,74.971,57.469z"/>
	</g>
</g>
</svg>
