<?xml version="1.0" encoding="utf-8"?>
<!-- Generator: Adobe Illustrator 16.0.0, SVG Export Plug-In . SVG Version: 6.00 Build 0)  -->
<!DOCTYPE svg PUBLIC "-//W3C//DTD SVG 1.1//EN" "http://www.w3.org/Graphics/SVG/1.1/DTD/svg11.dtd">
<svg version="1.1" id="Layer_1" xmlns="http://www.w3.org/2000/svg"  x="0px" y="0px"
	 width="120px" height="120px" viewBox="4 4 120 120" style="enable-background:new 4 4 120 120;" xml:space="preserve">
<g id="forward">
	<g>
		<path d="M115.2,55c-0.8-0.8-1.4-1.8-2.2-2.5c-0.8-0.8-1.9-1.3-2.5-2.2c-3.7-1.5-6.3-4-9.5-6c-2.7-2.4-6.2-4.2-8.9-6.7
			c-1.8-0.7-2.899-2.2-4.399-3.2c-1.101-1.6-2.7-2.6-3.8-4.1c-1.601-1.1-2.5-2.8-3.801-4.1c-1.199,0-1.3-1.3-1.899-1.9
			c-0.5-0.2-0.8-0.5-1-1c-0.2-0.6-1.5,0-1.601-0.6H75c-0.4,0.2-0.7,0.3-1,0.6c-1,0-0.7,1.4-1.3,1.9c-0.5,0.6,0,2.1-0.601,2.5
			c-0.1,6-0.6,11.7,0,17.5c-1.6,0.4-3.3,0.7-5.1,1c-3.2,1.6-7.4,2.2-10.8,3.5c-3.9,0.9-7.2,2.5-10.5,4.1c-6.8,3-12,7.5-16.5,12.7
			c-2.4,2.5-4.3,5.4-6.7,7.9c-1.8,3-4.2,5.5-5.7,8.899c-1.1,1.4-1.7,3.2-2.5,4.8C13.5,89.7,13.1,91.7,12.1,93.2
			c-0.8,3.399-3.2,8.3-1,11.8c0.1,0.4,0.4,0.2,0.6,0c0-0.4,0.1-0.7,0.3-1c0.4-0.5,0.9-1,1.3-1.6c1.2-0.7,2.1-1.7,3.2-2.5
			c2.1-1.7,4.1-3.601,6.4-5.101c4.4-3.1,8.9-6.2,14-8.6c2-1.7,5.3-2.101,7.6-3.5c1,0,1.8-0.101,2.2-0.601c0.8-0.1,1.7-0.199,2.2-0.6
			c1.7-0.2,3.2-0.6,4.4-1.3c5.9-1.7,12.601-2.4,19.7-2.9V88.4c0.4,2.699,0.8,5.399,0.6,8.6c0.5,1.4,0.301,2.7,1,3.8
			c0.601,1,1.4,1.7,2.9,1.9c3.4-0.101,4.2-2.8,6.4-4.101C85.6,96.7,87.2,94.7,89,92.9c3.4-3.7,6.9-7.301,10.5-10.801
			c1.4-0.199,1.7-1.699,2.9-2.199c1.1-0.7,1.8-1.801,2.899-2.5c1.601-2,3.7-3.5,5.101-5.7c2.199-1.5,3.399-3.8,5.399-5.4
			c1.101-0.7,1.601-2,2.5-2.9c0.3-1.5,2.2-1.4,1.9-3.5C118.8,57.8,116.8,56.6,115.2,55z M36.7,79.2c0.1-0.4,0.3-0.2,0.3,0
			C36.9,79.5,36.7,79.3,36.7,79.2z M106.3,64.2c-1.2,1.2-2.3,2.5-3.5,3.8c-1,1.5-2.5,2.4-3.5,3.8C98.6,72.2,98.1,72.9,97.4,73.4
			c-0.5,0.199-0.801,0.5-1,1c-0.5-0.2-0.801,1.199-1,0.3c0.199-1.8,1-2.8,1.3-4.5c0.5-1.3,1.2-3.8-0.3-4.5
			C93.1,66.2,92.5,69.5,91.3,72.1c-0.7,1.2-1.2,2.601-1.6,4.101c-0.3,1.7-1.101,3-1,5.1c-1.7,2.101-4,3.7-5.4,6
			C82.4,86.9,83.5,85.9,83.6,85.4c0.2-0.801,0.301-1.801,1-2.2c0.4-1.7,0.9-3.101,1.601-4.5c0.7-3.3,2.399-5.601,3.5-8.601
			c-0.2-1.399-2.9-1.199-3.2,0c-1,0.801-1.7,1.9-2.2,3.2c-1.1,0.7-1.2,2.4-2.2,3.2c-0.3,1.5-1.3,2.3-1.6,3.8
			c-0.7-0.6-0.1-2.6-0.3-3.8c-0.101-1.1,1.1-1,1.3-1.9c-0.6-1.199-0.7-2.899-1-4.5c0-1.5,1.2-3.1,0.3-4.5c-1.5-0.3-1.899,0.5-2.2,1
			c-0.5,0.801-0.8,1.301-1.3,2.2c-0.3,0.5-0.6,0.9-1,1.3c-1-0.199-1.1,0.601-2.2,0.301c0.4-1.4,0.7-2.9,1.301-4.101
			c0-1.6,1.3-3.2,0.6-4.5c-1.8-0.3-1.8,1.2-2.9,1.6c-0.3,1.3-1.5,1.7-1.899,2.9c-1,0.601-1.2,1.9-2.2,2.5c-0.6,1-0.6,2.601-2.2,2.5
			C66.3,71.4,65.9,70.9,66.5,70.7c-0.1-0.8,0.6-0.7,0.3-1.601c0.601-0.699,1-1.5,1.3-2.5c0.7-0.5,0.4-2.1,1.301-2.5
			c-0.101-1.2,0.8-2.3,0-3.2c-1.601,0-2.2,1-2.9,1.9c-0.9,0.8-1.7,1.6-2.2,2.9c-0.8,0.5-1.2,1.6-1.6,2.2c-0.7,1.3-1.8,2.6-1.9,4.5
			c-1.1,0.199-2.4,0.1-3.2,0.6c-0.8-0.2,0.4-1,0.4-1.5c-0.1-0.9,0.7-1,0.6-1.9c0.7-1,1.5-1.899,1.3-3.8c-2.5,0.3-3.2,2.5-4.8,3.8
			c-0.7,0.801-1.2,1.801-1.9,2.5c-0.8,0.7-0.3,2.7-1.9,2.5c-1.3,0.2,0.1-1.3,0.3-1.6c0.2-0.8,0.5-1.6,1-2.2c0.4-1.8,1.8-2.6,2.2-4.5
			c-0.7-1.9-3.7-0.6-4.1,0.601c-1.4,0.899-2.1,2.3-3.5,3.199C46.6,71.5,45.7,72.7,45,73.9v2.5c-1,0-1.4,0.699-2.5,0.6
			c0.7-2.3,2.2-3.7,2.2-6.7c-1.2-0.8-1.9,1.101-3.2,1.3C40.4,73.4,38.7,74.5,38,76.7c-0.6,0.1-0.6-0.4-1-0.601
			c-1.5,0.5-2.2,1.801-3.2,2.9c-1.3,0.8-2.2,2.1-2.9,3.5c-1.1,0.7-2.4,1.4-3.2,1.9c-0.3,0.199-0.6,0.699-1,1
			c-0.1,0.1-0.5-0.101-0.6,0c-0.2,0.1-0.2,0.6-0.6,0.6s-0.1,0.2-0.3,0.3c-1,0.7-1.9,1.2-2.9,1.601c-0.1,0.399-0.4,0.699-1,0.6
			c0,0.4-0.5,0.2,0,0c0.1-0.2,0-0.6,0.3-0.6c2.2-5.101,5.7-8.9,8.9-13C33.7,70.8,37.3,67,41.3,63.8c4.3-3,9.4-5.3,14.6-7.3
			c2.8-0.9,5.9-1.6,8.6-2.5c3-0.7,5.8-1.6,7.9-3.2c2.5-0.2,4.199-1.1,6.699-1.3c-0.3-5.3-1.199-10-1.6-15.3c1.3,1.1,2.3,2.3,3.2,3.8
			c1.2,1.2,2.7,2.2,3.8,3.5c3,1.9,5.5,4.2,8.6,6c2.4,2.3,5.301,4.3,7.9,6.4c1.5,1,3.2,1.7,4.5,2.9c1.7,0.7,2.5,2.3,3.8,3.5
			C108.9,62.2,107.4,63.1,106.3,64.2z"/>
	</g>
</g>
</svg>
