<?xml version="1.0" encoding="utf-8"?>
<!-- Generator: Adobe Illustrator 16.0.0, SVG Export Plug-In . SVG Version: 6.00 Build 0)  -->
<!DOCTYPE svg PUBLIC "-//W3C//DTD SVG 1.1//EN" "http://www.w3.org/Graphics/SVG/1.1/DTD/svg11.dtd">
<svg version="1.1" id="Layer_1" xmlns="http://www.w3.org/2000/svg"  x="0px" y="0px"
	 width="120px" height="120px" viewBox="4 4 120 120" style="enable-background:new 4 4 120 120;" xml:space="preserve">
<g id="filter">
	<g>
		<path d="M112.967,22.68c-0.607-1.928-3.359-1.711-4.841-2.766c-16.819-0.419-32.946,1.609-49.473,0.344
			c-5.376,0.301-10.468-0.487-14.183,0c-0.14-0.592-0.446,0.072-1.035,0H24.407c-2.511-0.207-4.555,0.056-5.535,1.385
			c0.081,2.919,1.047,4.947,2.767,6.226c0.142,1.358,1.523,1.478,1.733,2.767c1.153,0.46,1.203,2.024,2.418,2.421
			c2.574,3.537,5.882,6.347,8.997,9.343c6.371,5.85,12.6,11.845,18.333,18.334c0.72,0.665,2.366,0.399,3.114,1.037
			c-0.791,0.592-0.125,2.641-0.348,3.804v4.5c0.264,3.146-0.538,5.225-0.346,8.302c-0.066,5.696,0.229,11.762-0.346,16.951
			c0.48,0.441,0.213,1.632,0.691,2.074c0.042,0.998,1.478,0.601,1.385,1.729c0.069,1.315,0.306,2.462,0.691,3.46
			c2.325,1.48,5.216,2.396,7.266,4.152c2.957,0.963,4.945,2.896,8.649,3.111c0.05-0.641,1.173-0.211,1.382-0.691
			c0.348-0.461,0.572-1.043,1.039-1.383c0.715-0.902,1.852-1.375,2.424-2.422c0.361-5.017-0.488-10.492,0-15.224
			c0.08-0.786,0.559-1.45,0.692-2.073c0.224-1.047-0.136-1.955,0.346-2.77c-0.81-9.591-0.638-13.023-0.346-21.793
			c0.846-0.589,2.923,0.516,4.147-0.346c1.31-1.691,2.541-3.458,3.461-5.536c5.201-4.945,9.748-10.545,14.184-16.258
			c2.24-2.833,4.132-6.019,6.227-8.995c0.793-1.746,2.069-3.003,2.766-4.843c0.707-0.567,1.236-1.32,1.73-2.076
			C112.368,24.781,113.561,24.345,112.967,22.68z M66.268,99.824c-1.313,0.275-0.44-1.637-0.69-2.422
			c0-0.92-0.134-1.976,0.345-2.422C66.719,95.914,66.044,98.316,66.268,99.824z M72.49,64.885
			c-0.266,13.067,0.479,25.125,0.351,38.055c-0.536,1.058-0.308-1.5-0.351-2.075c-0.776-0.146,0.057-1.898-1.033-1.731
			c-1.93-0.312-0.098,3.133-1.73,3.113c0.146-3.934-0.938-6.729,0-10.723c-0.412-0.742-0.373-1.934-1.037-2.424
			c-1.858-0.277-1.516,2.021-3.112,1.037c-0.87-0.514-1.313-1.459-1.732-2.42c-0.677-0.59-1.729-0.809-2.074-1.73v-3.459
			c2.915-0.084,5.446-0.549,5.538-3.459c-0.379-2.273-2.69-2.615-5.538-2.422v-2.768c2.701-0.874,6.392-0.76,8.304-2.422v-2.422
			c-1.249-2.549-6.182-1.021-8.652-0.692v-5.535h12.804C73.805,63.656,72.611,63.733,72.49,64.885z M90.831,42.052
			c-2.144,2.701-4.588,5.098-6.575,7.957c-2.039,2.689-3.292,6.163-5.533,8.649c-2.223-0.036-2.984,0.507-4.498-0.346
			c-4.472,0.536-11.104,0.589-15.571,0c0-1.498-0.801-2.196-0.69-3.806c2.193,0.114,4.183,0.031,4.5-1.73
			c0.197-2.159-1.572-2.351-3.461-2.42H53.12c-1.271-0.229-1.722-1.276-2.42-2.077c-0.709-0.102-0.68-0.935-1.386-1.038
			c0.184-0.496-1.347-0.843-0.344-1.038c1.637-0.255,2.378,0.39,3.803,0.348c4.558-0.173,9.438-0.018,11.765-2.423
			c-0.512-2.257-3.617-1.918-5.536-2.767H48.971c-1.348,0.269-2.636,0.594-3.462,1.383c-0.101,0.821-0.936-0.384-1.038-0.692
			c-0.942,0.252-0.693-0.688-1.382-0.691c0.705-0.793,2.869-0.126,4.149-0.346c1.044-0.46,2.649-0.352,4.155-0.347
			c0.04-0.763,1.464-0.146,2.075-0.346c-0.06-0.751,1.227-0.156,1.727-0.347c1.26-0.242,1.885-1.114,2.768-1.728
			c-1.089-3.526-6.814-2.413-10.377-3.46h-5.189c-1.395,0.453-3.312,0.377-4.497,1.038c-1.014-0.024-1.285-0.79-1.731-1.383
			c-0.379-0.234-1.794-1.15-1.035-1.385c7.666,0.709,14.796-0.16,22.83,0c1.625-0.684,3.979-0.633,4.152-2.768
			c-0.104-2.085-2.421-1.962-3.808-2.766c-8.775,0.036-16.395-0.56-24.904,0c-1.167,0.219-2.523,0.246-3.117,1.039
			c-1.392-0.336-1.943-1.514-2.768-2.423c-0.421-0.15-0.71-0.442-0.688-1.037c23.302,0.68,51.161,0.782,76.45,0.346
			C99.779,31.631,95.727,37.263,90.831,42.052z"/>
	</g>
</g>
</svg>
