<?xml version="1.0" encoding="utf-8"?>
<!-- Generator: Adobe Illustrator 16.0.0, SVG Export Plug-In . SVG Version: 6.00 Build 0)  -->
<!DOCTYPE svg PUBLIC "-//W3C//DTD SVG 1.1//EN" "http://www.w3.org/Graphics/SVG/1.1/DTD/svg11.dtd">
<svg version="1.1" id="Layer_1" xmlns="http://www.w3.org/2000/svg"  x="0px" y="0px"
	 width="120px" height="120px" viewBox="4 4 120 120" style="enable-background:new 4 4 120 120;" xml:space="preserve">
<g id="joystick">
	<g>
		<path d="M69.998,35.458c-0.021,0.498,0.062,0.889,0.287,1.143c0.191,1.712-0.258,2.783-0.287,4.278
			c-0.777,1.356-2.1,3.234-1.425,5.14c1.228,0.913,2.995,0.276,3.995-0.569c0.414-0.538,0.42-1.484,1.141-1.713
			c0.255-0.793,0.354-1.733,0.857-2.284c0.435-5.103-0.637-8.696-3.143-10.851c-2.014-1.409-4.643-2.203-6.852-3.423
			c-0.024-3.743,1.613-5.808,2.855-8.277c0.51-1.114,2.2-1.037,2.285-2.573c-0.623-0.903-1.359-1.681-3.145-1.425
			c-0.368,0.096-0.6,0.355-0.853,0.57c-3.374,2.812-6.779,8.594-4.856,14.56C63.735,32.016,68.539,32.062,69.998,35.458z
			 M111.678,64.574c-0.425-0.43-0.459-1.254-0.57-1.997c-0.404-0.543-0.664-1.239-0.856-1.997c-0.501-1.311-0.954-2.663-1.425-4.001
			c-0.889-0.823-1.611-1.815-2.287-2.851c-2.51-1.678-4.95-3.42-8.277-4.285c-4.462-0.752-9.729-0.089-13.701,0.576
			c-0.52,0.717-1.767,0.706-2.285,1.424c-1.063,0.171-1.159,1.311-2.283,1.425c-1.064,1.169-3.348,2.492-5.139,2
			c-0.15-2.039,0.426-4.802-0.568-5.994c-0.773-1.036-2.725-0.893-4.568-0.858c-2.009-0.204-3.48,0.137-4.283,1.143
			c-0.574,0.852-0.162,2.693-0.283,3.996c0.082,0.979,1.441,2.157,0.856,2.856c-1.417,0.562-3.756,0.335-4.57-0.572
			c-0.634-1.273-1.475-2.331-2.282-3.426c-0.99-0.052-1.086-1.01-1.998-1.142c-0.362-0.687-1.522-0.575-1.999-1.141
			c-1.653-0.44-2.473-1.713-4.282-1.997c-3.915-0.345-7.478,0.298-9.707,0.852c-0.176,0.048-0.401-0.055-0.571,0
			c-0.149,0.055-0.668,0.501-0.854,0.574c-1.281,0.491-2.176,0.761-3.14,1.143c-0.354,0.141-0.576,0.438-0.856,0.569
			c-3.376,1.546-6.213,3.512-8.85,5.425c-2.328,3.476-4.556,7.058-5.997,11.422c-1.224,4.673-0.774,11.019-0.856,16.839
			c0.281,0.67,0.499,1.403,0.569,2.284c1.461,3.964,3.196,7.662,5.14,11.134c1.011,1.651,1.531,3.803,2.856,5.143
			c0.574,2.184,2.07,3.439,2.855,5.422c0.719,0.613,1.899,0.764,2.568,1.43c0.788,0.545,1.396,1.262,2.286,1.711
			c1.614,1.045,3.058,2.264,5.136,2.854c1.498,0.502,4.179,0.349,5.713,0c0.062-0.224,0.235-0.332,0.568-0.287
			c1.843-1.106,2.586-3.31,3.711-5.138c0.261-0.562,1.133-0.902,1.427-1.141c0.226-0.188,0.377-0.363,0.57-0.572
			c1.217-3.166,1.76-6.996,2.856-10.275c1.786-2.592,1.757-6.996,4.854-8.278c3.739,0.22,6.646-0.396,10.274-0.288
			c0.883,1.497,1.688,3.071,2.569,4.566c0.967,4.65,3.077,8.154,5.14,11.705c1.012,0.512,1.691,1.352,2.569,2
			c0.88,0.638,1.892,1.152,2.567,1.999c2.629,0.7,4.678,1.983,7.137,2.854c2.48,0.754,6.393,0.789,8.854,0
			c3.768-2.699,6.687-6.259,8.279-11.135c0.188-1.716-0.264-2.786-0.289-4.281c1.321-4.392,2.512-8.908,2.287-14.847
			c0.602-2.062,0.945-4.378,1.425-6.565C111.943,71.354,112.098,67.677,111.678,64.574z M69.145,52.301h1.142v3.14
			c-1.035,0.273-0.291-1.231-0.856-1.429C69.436,53.341,68.936,53.169,69.145,52.301z M106.256,73.427
			c-0.482,3.229-1.3,6.124-1.715,9.423c-0.287,0.946-0.516,1.959-0.855,2.851c-0.303,0.842-0.393,1.891-0.856,2.569
			c-0.128,3.771-1.274,6.525-1.427,10.277c-0.651,1.348-0.266,3.733-1.141,4.854c-0.744,1.158-1.615,2.191-2.859,2.854
			c-3.512,0.279-5.676-0.793-7.705-1.998c-2.594-0.545-4.119-2.158-5.995-3.424c-3.603-5.534-4.968-13.303-9.992-17.417
			c-5.144-0.003-10.225,0.05-14.557,0.856c-2.226,1.011-3.609,2.858-4.854,4.854c-1.158,3.696-2.893,6.81-3.425,11.134
			c-1.337,1.897-1.873,4.596-3.708,5.993c-3.488,0.349-5.775-0.508-8.567-0.854c-0.653-0.869-1.389-1.657-1.997-2.569
			c-0.845-0.583-0.753-2.104-1.428-2.854c-0.883-2.067-1.832-4.072-2.855-5.996c-1.288-4.52-3.229-8.377-4.283-13.131
			c0.218-6.117-0.444-11.354-0.286-17.416c0.244,0.056,0.271-0.112,0.286-0.285c0.243-1.374,1.186-2.048,1.431-3.425
			C33.34,56.558,37.823,54,43.45,52.585h5.71c0.288,0.475,1.212,0.314,1.713,0.571c0.429,0.33,0.696,0.824,1.427,0.854
			c0.605,0.826,2.118,0.74,2.569,1.717c1.578,0.226,1.412,2.202,2.57,2.853c0.642,1.07,1.73,1.692,2.855,2.283
			c0.33-0.043,0.506,0.062,0.567,0.284c2.941,0.754,6.347,0.012,8.853-0.568c3.183,0.038,6.333,0.055,8.851-0.574
			c3.248-0.938,5.223-3.147,7.987-4.566c2.054-0.332,4.146-0.617,6.286-0.855c4.895,0.05,8.062,1.833,10.562,4.279
			c0.326,1.29,1.104,2.134,1.141,3.713c0.801,0.722,0.818,2.229,1.428,3.139C105.936,68.415,106.46,70.553,106.256,73.427z
			 M41.452,70.57c1.589-0.219,2.697-0.92,3.139-2.283c0.42-1.186-0.056-3.674-0.287-5.141c-1.97-2.241-6.685-0.936-6.561,2.286
			C38.564,67.559,38.942,70.129,41.452,70.57z M101.116,70.285c-1.964-0.364-3.673,0.787-5.14,0
			c0.172-1.693-0.194-2.846-0.572-3.997c-0.799-0.327-1.543-1.039-2.565-0.854c-0.069,0.012-0.457,0.531-0.571,0.566
			c-0.172,0.062-0.396-0.041-0.574,0c-1.096,1.443-1.422,2.805-1.711,4.854c-3.578-0.246-6.448,0.211-6.563,3.426
			c0.399,1.123,1.205,1.841,2.565,2.001c0.764,0.002,1.629-0.108,1.998,0.284c0.686,0.176,2.074-0.359,2.285,0.287v6.562
			c0.321,0.062,0.443,0.316,0.572,0.572c0.34,0.423,1.074,0.44,1.428,0.854c3.664-0.422,3.82-4.355,3.709-8.562
			c2.602,0.127,4.801-0.146,6.281-1.144c0.053-0.717,0.527-1.079,0.57-1.71C102.938,71.945,101.979,71.025,101.116,70.285z
			 M67.145,69.143c-2.17-0.268-3.542,0.269-3.71,2c-0.258,3.744,8.197,3.529,7.707-0.287C70.686,69.402,69.207,68.982,67.145,69.143
			z M36.316,71.428c-0.904,0.043-0.959-0.759-2-0.572c-1.283,0.148-1.965,0.894-2.854,1.431c-0.142,1-0.427,1.854-0.288,3.137
			c0.9,1.388,1.394,3.175,3.711,3.144c2.188-0.385,2.659-2.486,2.57-5.139C37.004,72.832,36.525,72.262,36.316,71.428z
			 M52.016,72.285c-0.583-0.162-0.998-0.473-1.717-0.573c-0.744-0.104-1.532,0.081-2.284,0c-2.09,0.595-2.758,6.046-1.426,7.138
			c0.095,0.078-0.069,0.467,0,0.572c0.78,1.137,2.425,1.42,4,1.426c1.103-0.688,1.446-0.896,1.996-2.283
			c0.594-1.496,0.637-2.836,0.286-4.284C52.66,73.41,52.286,72.848,52.016,72.285z M39.167,82.271c0.078,2.182,0.078,2.684,0,4.854
			c0.504,0.261,0.886,0.641,1.144,1.145c5.256,1.393,6.4-5.438,3.711-7.705C41.328,80.264,39.865,80.879,39.167,82.271z"/>
	</g>
</g>
</svg>
