<?xml version="1.0" encoding="utf-8"?>
<!-- Generator: Adobe Illustrator 16.0.0, SVG Export Plug-In . SVG Version: 6.00 Build 0)  -->
<!DOCTYPE svg PUBLIC "-//W3C//DTD SVG 1.1//EN" "http://www.w3.org/Graphics/SVG/1.1/DTD/svg11.dtd">
<svg version="1.1" id="Layer_1" xmlns="http://www.w3.org/2000/svg"  x="0px" y="0px"
	 width="120px" height="120px" viewBox="4 4 120 120" style="enable-background:new 4 4 120 120;" xml:space="preserve">
<g id="gauge1">
	<g>
		<path d="M56.928,42.502c1.647,1.79,5.842,1.034,7.609-0.293c0.936-2.085,1.146-4.898,1.46-7.607
			c-0.331-1.911-0.597-3.889-1.46-5.265c-0.998-0.272-1.718-0.821-3.221-0.586c-1.042,0.615-2.397,0.918-3.217,1.757
			c-0.354,1.305-0.75,2.565-0.587,4.387C56.778,36.795,56.223,40.098,56.928,42.502z M102.273,30.799
			c-0.309-1.351-1.412-1.902-3.219-1.755c-0.346,0.142-0.662,0.312-0.879,0.584c-2.014,1.983-3.498,4.499-5.85,6.144
			c-1.613,2.483-4.029,4.163-5.85,6.437c-4.229,3.962-6.965,9.421-11.119,13.458c0.051,1.027-0.987,0.962-1.17,1.755
			c-0.537,0.438-0.729,1.221-1.461,1.462c-0.642,1.406-1.893,2.205-2.636,3.511c-1.896,2.2-3.416,4.776-5.556,6.728
			c-3.63,4.564-6.892,9.495-10.242,14.334c-0.046,0.346,0.052,0.832-0.291,0.878c-0.399,3.405-1.854,5.752-1.463,9.946
			c2.371,4.26,6.366,6.896,13.165,6.729c0.71-0.363,1.421-0.725,2.341-0.878c2.473-1.329,4.08-3.524,5.852-5.558
			c0.511-1.537,1.139-2.957,1.461-4.682c5.932-8.5,8.893-19.974,13.164-30.134c0.849-2.76,2.119-5.098,3.221-7.604
			c1.027-2.581,2.77-4.447,3.511-7.313c1.483-2.124,2.317-4.896,3.802-7.021C99.805,35.326,102.932,33.732,102.273,30.799z
			 M63.947,88.723c-0.177-0.016-0.344-0.043-0.291-0.291c-0.365-0.121-0.598-0.377-0.583-0.88c0.367,0.12,0.597,0.378,0.583,0.88
			C63.835,88.445,64.002,88.475,63.947,88.723C64.304,88.691,64.13,89.148,63.947,88.723z M65.997,93.111
			c-0.544-0.327,0.589-2.309-0.583-2.633c0.497-0.668,1.646,0.478,2.633,0.293C67.686,91.873,66.777,92.426,65.997,93.111z
			 M74.773,80.824c-0.428-0.256-0.926-0.438-0.877-1.17h1.17C75.105,80.18,74.711,80.271,74.773,80.824z M87.645,48.644
			c-0.881,2.237-1.888,4.353-2.922,6.436c-0.963,2.161-1.314,4.928-2.634,6.729c-1.706,4.537-3.263,9.222-5.267,13.458
			c-0.666,0.211-1.495,0.26-2.049,0.584c-1.762,1.357-4.309,1.933-5.56,3.804c-0.379,3.014,1.414,3.851,3.22,4.68
			c-0.746,1.108-1.353,2.353-2.047,3.513c-1.166,0.092-0.795-1.354-1.759-1.464c-0.459-0.709-1.046-1.293-1.754-1.757
			c-0.22-1.123-0.806-1.827-1.169-2.339c-0.163-0.231-0.406-0.642-0.584-0.878v-2.633c-0.068-0.52,0.292-1.467-0.585-1.172
			c0.481-1.66,2.026-2.261,2.632-3.803c1.409-0.734,1.842-2.449,3.219-3.217c0.553-1.592,1.92-2.371,2.633-3.805
			c0.972-1.172,1.888-2.402,2.924-3.511c1.131-1.472,2.586-3.162,3.513-4.388c0.547-0.724,1.024-1.186,1.464-1.755
			c0.464-0.609,0.631-0.921,0.878-1.461c0.04-0.093,0.513-0.19,0.581-0.293c0.225-0.324,0.368-0.888,0.584-1.169
			c0.33-0.426,0.859-0.465,0.88-0.878c0.017-0.337,0.188-0.13,0.296-0.293C85.087,51.563,86.461,49.459,87.645,48.644
			C87.617,48.291,88.072,48.464,87.645,48.644z M39.96,43.672c-0.926-1.9-1.579-4.075-4.094-4.39
			c-1.489,0.266-2.896,0.617-3.804,1.464c-0.157,0.82-0.43,1.521-0.587,2.339c-0.29,1.658,0.88,1.854,0.587,3.51
			c0.627,1.045,1.467,1.724,2.048,2.34c0.3,0.318,0.341,0.894,0.585,1.17c0.913,1.025,2.088,2.155,3.512,2.632
			c0.982,0.288,3.641,0.02,4.68-0.583c0.342-0.438,0.364-1.196,0.88-1.464c0.143-1.605-0.947-1.981-0.88-3.51
			C41.654,46.267,40.866,44.914,39.96,43.672z M109.879,49.521c-0.34-0.049-0.316-0.462-0.291-0.877
			c-0.677-0.491-1.248-1.094-2.342-1.17c-0.18,0.018-0.346,0.044-0.29,0.292h-0.879c-1.72,1.402-3.251,2.991-4.39,4.973
			c-1.274,1.944-2.953,3.484-3.512,6.144c0.26,2.548,2.357,3.881,4.977,3.218c1.904-1.31,2.679-3.755,4.094-5.558
			C108.381,54.456,109.533,52.396,109.879,49.521z M18.021,68.83c0.832,0.338,0.959,1.381,1.755,1.756
			c2.209-0.146,5.518,1.234,7.607,0.584c0.095-0.029,0.46-0.509,0.582-0.584c0.74-0.458,0.559-0.165,0.879-0.879
			c0.049-0.105,0.524-0.16,0.588-0.291c0.193-0.413-0.028-1.29,0.293-1.756c-0.448-0.727-0.523-1.82-1.467-2.049
			c-0.605-0.662-1.493-1.039-2.341-1.461c-1.396-1.139-2.921-2.149-5.264-2.341c-1.751,0.395-3.646,0.646-4.681,1.756
			c-0.066,0.227-0.01,0.576-0.292,0.585c-0.029,1.198-0.058,2.397,0.292,3.216C16.407,68.102,17.205,68.475,18.021,68.83z
			 M105.49,77.021c0.016,1.934,0.916,2.985,1.756,4.095c0.345,0.048,0.831-0.05,0.88,0.293c1.272,0.008,2.708,0.175,3.217-0.585
			c0.921-0.445,1.858-0.873,2.927-1.17c1.617-1.113,3.521-1.938,4.682-3.512c-0.012-1.062,0.162-2.31-0.59-2.633
			c0.363-0.826,0.363-1.806,0-2.634c-0.661-0.405-1.131-1.012-1.752-1.461h-2.049c-0.617,0.149-0.896,0.585-1.463,0.877
			c-0.479,0.246-1.037,0.319-1.465,0.584c-0.847,0.531-1.621,1.217-2.34,1.756C107.701,73.832,105.873,74.979,105.49,77.021z
			 M27.09,89.602c-3.328-1.156-7.67-1.303-12.288-1.17c-1.781,0.949-3.55,1.907-3.802,4.387c0.18,2.552,1.419,4.041,2.924,5.267
			c3.824,0.661,9.02-0.049,12.874,0.586c1.852-0.976,3.042-2.612,3.217-5.266C29.65,91.523,28.27,90.664,27.09,89.602z
			 M114.854,92.234c-0.371,0.016-0.403,0.373-0.879,0.293c-4.632-0.149-9.302-0.334-9.654,3.801
			c0.281,2.312,1.906,3.438,4.099,3.804c2.423,0.405,5.378-0.565,7.897-0.293c0.074-0.606,1.287-0.08,1.463-0.584
			c0.549-0.233,1.07-0.489,1.755-0.585c0.587-0.875,1.528-1.398,1.464-2.926C120.498,93.025,117.91,92.395,114.854,92.234z"/>
	</g>
</g>
</svg>
