<?xml version="1.0" encoding="utf-8"?>
<!-- Generator: Adobe Illustrator 16.0.0, SVG Export Plug-In . SVG Version: 6.00 Build 0)  -->
<!DOCTYPE svg PUBLIC "-//W3C//DTD SVG 1.1//EN" "http://www.w3.org/Graphics/SVG/1.1/DTD/svg11.dtd">
<svg version="1.1" id="Layer_1" xmlns="http://www.w3.org/2000/svg"  x="0px" y="0px"
	 width="120px" height="120px" viewBox="4 4 120 120" style="enable-background:new 4 4 120 120;" xml:space="preserve">
<g id="gauge2">
	<g>
		<path d="M115.066,65.301c0.279-4.434-0.84-7.468-0.596-11.872c-0.783-4.063-1.85-7.843-2.076-12.462
			c-2.713-4.904-5.816-9.417-9.496-13.353c-1.029,0.104-1.125-1.508-2.075-0.594c-0.581-0.607-1.401-0.975-2.076-1.485
			c-1.397-0.978-2.706-2.043-4.454-2.672c-1.012-1.359-3.088-1.659-4.154-2.964c-1.896-0.477-2.796-1.953-4.748-2.375
			c-0.889-0.695-2.42-0.746-3.263-1.485c-0.761-0.031-1.416-0.168-1.782-0.591c-0.527-0.362-1.724-0.057-2.078-0.593
			c-7.783,0.055-12.379,0.144-19.879,0c-0.703,0.683-2.664,0.105-3.857,0.294c-0.299,0.493-1.26,0.323-1.78,0.595
			c-0.272,0.52-1.042,0.542-1.484,0.89c-1.053,0.63-2.381,0.979-3.263,1.781c-2.588,0.772-4.204,2.521-6.53,3.559
			c-3.556,3.172-8.173,5.282-11.869,8.31c-1.42,1.745-3.033,3.295-4.154,5.342c-0.82,0.762-1.228,1.937-1.779,2.967
			c-1.797-0.211-1.607,1.559-2.672,2.077c-1.824,4.013-2.946,8.723-3.265,14.244c-0.655,0.037-0.126,1.26-0.298,1.782
			c-0.405,0.382-0.292,1.287-0.295,2.076c0.232,1.715-0.429,2.539-0.295,4.155c0.191,1.294-0.39,3.354,0.295,4.154
			c0.191,1.294-0.391,3.354,0.295,4.153c0.529,5.312,2.025,9.646,4.158,13.354c0.521,2.444,1.925,4.01,2.966,5.938
			c0.95,2.013,2.515,3.416,3.56,5.341c1.488,1.18,2.694,2.647,4.153,3.856c1.825,0.848,2.444,2.899,4.157,3.859
			c2.316,3.025,5.969,4.709,9.199,6.822c4.289,1.646,8.902,2.963,14.244,3.562c6.313-0.282,11.228,0.841,17.211,0.89
			c1.233-0.348,2.792-0.371,4.154-0.592c1.239-0.74,2.976-0.979,3.854-2.078c1.26-0.72,2.495-1.461,3.859-2.076
			c1.812-0.265,3.379-0.774,5.045-1.188c2.396-2.053,5.16-3.74,6.825-6.529c2.424-2.125,4.173-4.923,5.933-7.713
			c3.547-5.459,5.919-12.086,8.311-18.695C114.65,72.298,115.527,68.052,115.066,65.301z M32.272,88.744
			c-0.788-0.104-0.998-0.781-1.184-1.485c-0.378-0.515-1.004-0.776-0.891-1.778c0.78,0.306,1.818,0.354,2.964,0.293
			C33.008,86.904,32.238,87.42,32.272,88.744z M37.319,95.566c-0.925-0.26-0.976-1.397-1.782-1.78
			c0.624-2.638,1.411-5.118,1.782-8.013h4.153C39.938,88.889,38.581,92.182,37.319,95.566z M45.629,102.984
			c-1.555-0.715-2.74-1.808-3.86-2.965c-0.075-0.867,0.673-0.91,0.596-1.781v-2.076c0.381-1.523,0.771-3.088,1.188-4.749
			c0.491-1.974,0.802-4.2,1.781-5.64c1.96-0.179,3.042,0.522,5.042,0.299c-0.521,1.357-1.135,2.621-1.483,4.154
			c-0.619,1.164-0.74,2.821-1.484,3.856C46.912,97.148,45.568,99.365,45.629,102.984z M52.156,106.251
			c-1.105-0.38-2.017-0.95-3.265-1.188c0.569-0.422,1.062-0.916,1.483-1.479c1.331-5.299,2.527-10.731,3.86-16.026v-0.89
			c1.795,0.082,3.567,0.188,5.042,0.593c-1.986,5.629-4.703,10.53-5.637,17.21c0.247,1.14,0.544,2.229,1.78,2.375
			C54.55,107.598,53.278,106.229,52.156,106.251z M72.631,93.492c-0.871,1.303-0.846,3.506-1.781,4.746
			c-0.551,3.803-1.974,6.729-2.373,10.684c-4.735,0.684-8.825-0.533-12.76-1.484c0.767-0.422,1.858-0.516,2.671-0.891
			c1.091-2.865,1.747-6.167,2.669-9.199c1.092-2.865,1.632-6.283,2.97-8.902v-0.891c1.321-0.229,1.778,0.397,2.967,0.299
			c-1.829,6.183-4.812,11.211-5.641,18.397c0.436,1.249,1.191,2.176,2.674,2.374c1.547,0.064,2.081-0.889,2.967-1.482
			c0.554-3.8,1.863-6.844,2.372-10.687c0.655-0.433,0.235-1.938,0.893-2.372c-0.157-1.242,0.517-1.656,0.593-2.671
			c0.553-1.624,0.448-3.902,3.265-3.265C74.105,90.416,72.799,91.389,72.631,93.492z M78.568,105.953
			c-1.453,0.133-2.557,0.611-4.155,0.594c1.479-6.035,3.017-12.017,4.45-18.104c1.729-0.047,2.846,0.521,4.746,0.301
			C81.936,94.488,79.076,99.045,78.568,105.953z M87.468,102.393c-0.817,0.863-2.38,0.98-3.263,1.779
			c-0.903-0.365,0.318-1.018,0-1.779c0.413-0.377,0.18-1.399,0.592-1.781c0.189-1.293,0.494-2.473,0.893-3.559
			c-0.239-1.031,0.442-1.143,0.297-2.08c0.512-0.18-0.024-1.406,0.593-1.479c0.019-1.47,0.292-2.677,0.89-3.562v-0.888h3.266
			C89.271,93.115,88.021,97.409,87.468,102.393z M100.229,89.93c-0.393,0.105-0.469,0.523-0.894,0.596
			c0.052,0.938-0.787,0.99-0.589,2.076c-0.832,0.951-1.229,2.334-1.487,3.854c-1.332,0.745-2.321,1.835-3.856,2.375
			c0.589-3.267,1.518-6.194,1.779-9.788c1.49,0.189,3.756-0.393,4.748,0.293C100.689,89.324,100.293,89.557,100.229,89.93z
			 M101.713,89.633c0.008-0.289,0.361-0.23,0.59-0.297C102.299,89.625,101.943,89.564,101.713,89.633z M104.085,84.588
			c-18.671-0.417-37.356-0.822-54.007-3.264c-7.246,0.174-15.304-0.467-21.66,0.595c-2.274-6.661-3.269-16.146-3.269-25.818
			c0-3.019-0.015-6.233,0.597-8.902c0.006-0.02,0.271,0.018,0.298,0c0.329-2.142,1.579-3.365,2.67-4.748
			c0.467-0.719,1.063-1.312,1.779-1.781c0.212-0.875,0.342-1.839,0.892-2.373c1.957-1.51,3.384-3.538,5.34-5.045
			c1.567-1.896,3.869-3.057,5.64-4.748c2.112-1.35,4.356-2.57,6.527-3.859c1.36-0.417,2.851-0.714,3.858-1.484
			c0.78-0.901,2.275-1.089,3.263-1.779c1.554-0.132,2.603-0.762,4.156-0.89c0.478,0.083,0.512-0.282,0.888-0.298h4.748
			c0.993,0.327,1.51,0.305,2.672,0.594c0.26,0.066,0.51,0.2,0.89,0.298c0.266,0.067,0.508,0.201,0.893,0.297
			c0.261,0.065,0.509,0.201,0.89,0.296c0.264,0.066,0.51,0.201,0.893,0.295c0.262,0.067,0.508,0.202,0.889,0.298
			c0.262,0.065,0.512,0.201,0.891,0.296c0.589,0.146,1.947,0.81,2.972,1.187c1.124,0.417,2.283,0.973,3.558,1.188
			c4.172,2.158,8.938,3.725,12.166,6.825c1.793,0.384,2.935,1.419,4.748,1.782c1.934,2.023,3.5,4.412,5.342,6.529
			c0.488,1.886,1.726,3.021,2.074,5.044c1.057,1.222,1.187,3.366,2.079,4.746c0.939,3.713,1.068,8.233,2.079,11.872
			C108.684,70.786,106.238,77.54,104.085,84.588z M65.214,35.328c1.517,0.035,2.091-0.875,3.263-1.184
			c0.033-0.76,0.545-1.039,0.89-1.485c0.049-0.347-0.05-0.841,0.299-0.891c0.272-2.942-0.418-4.925-1.781-6.232
			c-0.839-0.247-1.829-0.344-2.669-0.592c-0.181,0.017-0.352,0.045-0.297,0.297c-1.382-0.095-1.653,0.92-2.67,1.188
			c-0.166,0.527-0.154,1.233-0.595,1.482c-0.275,2.552,0.642,3.911,0.892,5.934C63.373,34.4,63.988,35.167,65.214,35.328z
			 M43.552,32.658c-0.045,0.735-0.057,1.439,0.591,1.485c0.514,0.178-0.023,1.404,0.596,1.483c0.172,1.208,0.867,1.902,2.074,2.075
			c1.7-0.083,2.472-1.091,3.266-2.075c0.244-2.321-0.434-3.719-1.187-5.045C46.674,29.817,43.723,30.431,43.552,32.658z
			 M88.062,34.737c-0.23,0.065-0.588,0.006-0.596,0.295c-0.517-0.022-0.924,0.067-1.188,0.295c-0.166,0.43-0.461,0.726-0.891,0.891
			c-0.869,0.219-1.273,0.902-1.779,1.483c-0.92,3.557,0.742,6.393,3.856,6.826c2.794-0.272,4.441-1.692,5.046-4.154
			C92.488,37.035,91.137,35.027,88.062,34.737z M88.654,39.782c-0.995,0.305-0.463-0.924-0.592-1.484
			C88.71,38.342,88.697,39.042,88.654,39.782z M76.789,64.41c-0.626-1.158-1.096-2.467-1.487-3.859
			c-2.763-4.26-6.108-7.934-8.901-12.166c-1.737-1.723-3.136-3.787-5.047-5.343c-0.769-1.008-1.317-2.241-2.374-2.964
			c-1.031-0.845-1.042-2.716-2.966-2.671c-0.427,0.164-0.722,0.461-0.888,0.891c0.043,0.737-0.156,1.23-0.595,1.484
			c0.146,1.331-0.151,2.221-0.295,3.261v6.826c0.474,4.079,0.966,8.132,1.481,12.167c0.502,0.587,0.325,1.853,0.593,2.671
			c0.148,1.039,0.443,1.932,0.298,3.264c0.758,0.329-0.119,2.295,0.592,2.672c-0.13,1.318,0.213,2.164,0.596,2.965
			c0.926,0.572,2.137,0.768,2.966,0c0.302,0.565,1.448,1.748,2.079,1.783c0.342,0.019,0.133,0.189,0.296,0.297
			c2.229,1.441,5.625,1.459,8.602,0.59c2.433-2.118,4.691-4.41,5.347-8.307C76.88,66.886,76.669,65.812,76.789,64.41z M60.169,64.41
			c0.056-0.338,0.297-0.164,0.297,0C60.409,64.746,60.167,64.574,60.169,64.41z M70.555,68.266
			c-0.361,0.631-1.115,0.863-1.188,1.782c-0.489,0.497-1.74,0.239-2.671,0.298c-1.129-0.75-0.192-3.562-0.891-4.75
			c-0.139-1.739-0.578-3.179-0.888-4.746c-0.596-3.166-1.835-5.687-2.373-8.903c-0.36,0.03-0.184-0.431,0,0
			c1.217,1.946,2.529,3.799,3.856,5.638c1.232,1.931,2.145,4.183,3.561,5.935C70.24,65.02,70.792,66.247,70.555,68.266z
			 M40.881,47.794c0.205-1.298-0.86-1.32-0.891-2.375c-1.302-0.782-3.745-0.782-5.045,0c-1.491,1.71-1.007,5.926,0.592,7.12
			c0.528,0.166,1.234,0.155,1.483,0.594c1.706-0.175,2.96-0.798,3.86-1.78c0.046-0.349-0.053-0.842,0.296-0.89
			C41.116,49.535,41.378,48.286,40.881,47.794z M99.633,50.166h-2.966c-0.179,0.017-0.351,0.045-0.296,0.297
			c-1.375,0.404-1.98,1.58-2.669,2.669c-0.272,3.437,0.841,5.489,3.262,6.232c2.806,0.433,3.761-0.985,5.044-2.076
			C102.889,54.114,101.734,51.258,99.633,50.166z M34.352,62.036c-1.661,0.812-2.647,2.299-3.263,4.153
			c-0.854,4.209,3.538,5.905,6.23,3.858c1.472-1.817,0.717-5.317,0-7.418C36.452,62.312,35.787,61.789,34.352,62.036z
			 M94.887,76.277c0.957,0.135,1.606,0.57,2.67,0.596c1.478-0.305,2.27-1.293,3.268-2.078c0.773-2.514,0.521-5.596-1.19-7.121
			C94.166,65.684,91.764,73.082,94.887,76.277z"/>
	</g>
</g>
</svg>
