<?xml version="1.0" encoding="utf-8"?>
<!-- Generator: Adobe Illustrator 16.0.0, SVG Export Plug-In . SVG Version: 6.00 Build 0)  -->
<!DOCTYPE svg PUBLIC "-//W3C//DTD SVG 1.1//EN" "http://www.w3.org/Graphics/SVG/1.1/DTD/svg11.dtd">
<svg version="1.1" id="Layer_1" xmlns="http://www.w3.org/2000/svg"  x="0px" y="0px"
	 width="120px" height="120px" viewBox="4 4 120 120" style="enable-background:new 4 4 120 120;" xml:space="preserve">
<g id="gears2">
	<g>
		<path d="M112.3,49.1c-5.1-0.9-11,0.2-16.2,0.3c0.5-1.5,1.601-2.3,2.4-3.4c0.9-1.2,1.9-2.2,3.1-3.1c-0.199-2.5,1.7-2.9,2.101-4.8
			c0-1-0.7-1.3-1-2.1c-0.8-0.2,0.1-2.1-0.7-2.4c-2.8-3.9-6.6-6.7-9.6-10.3c-1.5-0.8-1.801-2.8-4.101-2.8c-2.2,0.5-3,2.5-4.8,3.4
			c-0.7,1.2-1.2,2.4-2.4,3.1c-0.699,1.3-1.199,2.7-2.8,3.1c-1.5-0.1-2.899-0.4-3.8-1c-0.9-2.5,0-5.9,0-8.6c0.7-1.5,1.5-2.9,1.4-5.2
			c-1-1.4-3.301-1.5-5.9-1.4h-7.6c-2.7,1-7.7-0.4-10,1c-2.5,2.8-1,9.6-1.4,14.5c-1.4,0.4-2,1.7-3.4,2.1c-1-2.7-3.3-4.1-4.1-6.9
			c-1.1-0.7-1.3-2.4-2.1-3.4c-0.7-1.1-0.9-2.8-2.8-2.8c-2.1-0.2-2.3,1.6-3.8,2.1c-0.7,1.2-2,1.9-2.8,3.1c-2.3,1.7-3.9,4.1-6.2,5.9
			c-0.1,1.3-1.3,1.5-1.4,2.8c-0.3,1-2.1,0.7-1.7,2.4c1.5,5.5,6.1,8,8.3,12.7c-0.7,1.3-0.6,3.3-1.4,4.5c-2.4-0.1-5.1,0.1-7.6,0
			s-5.3-1.1-6.9,0.7c-0.7,1.5-0.3,4.6,0,6.2V65c0.3,3.6,1.4,6.4,2.8,9c5.4,0.2,9.7-0.9,14.5-1.4c-0.3,2.2,0.9,2.7,0.7,4.801
			c-2.4,3.399-5.6,6.1-8.6,9c-0.5,0.5-0.5,1.6-1,2.1c-0.6,0.6-1.4,0.9-1.4,2.1c1,3.801,3.9,5.7,5.9,8.601c3,2.1,4.5,5.7,8.3,6.5
			c2.9-1.101,4.8-3.2,7.2-4.8c0.9-1,2.1-1.801,3.1-2.801c1.2-0.5,1.9-3,3.8-1.699c0.7,0.3,0.4,2.399,0,2.8v3.8
			c-0.1,1.6,1.6,1.4,1.4,3.1c0.1,2,0.3,3.801,0.7,5.5c2.3,2.2,6.4,2.601,11,2.4c1.7-0.4,2.8-1.4,4.5-1.7h5.5
			c1.4-0.7,1.9-2.3,2.8-3.399c-0.7-3.601,0.5-6.7,0.7-10.301c1.4-0.199,2.7-0.5,4.1-0.699c1,1.699,2.101,3.399,3.4,4.8
			c1,1.8,2.7,2.8,4.8,3.399c1.4-0.3,1.7-1.8,3.4-1.699c2.1-2.101,3.7-4.601,5.899-6.5c0.801-1.301,1.5-2.601,2.801-3.4
			c0.399-1.6,2.399-1.8,2.8-3.4c0.7-0.1,0.1-1.5,0.7-1.699c0.399-0.4,0.399-1.2,0.3-2.101c-0.7-2.3-2.4-3.5-3.8-5.2
			C100.7,81.3,100.3,80.2,99.3,79.7c0-0.7-0.899-0.4-0.7-1.4c-0.3-0.1-1.5-0.899-0.699-1c4.8-0.2,7.3,0.5,11,0
			c0.5-0.8,1.199-1.3,1.699-2.1c-0.1-1.4,1.5-1.101,1.4-2.4c0.6-5,1-10.3,1.4-15.5C112.8,53.8,113.8,51.1,112.3,49.1z M22.7,67.7
			c-0.2-0.2,0.2-0.4,0.3-0.3C23.2,67.5,22.8,67.7,22.7,67.7z M106.7,60.8c-0.8,3-0.2,7.4-1.7,9.601c-3.2,0.1-7-0.301-9.6,0.3
			c-0.9,0.2-0.7-0.7-1-1C93.7,69.6,93.5,69,92.7,69c-3.2,0.2-3,3.9-4.101,6.2c0.801,3.2,2.601,5.5,4.801,7.2
			c1.699,2.5,3.5,4.699,5.5,6.899c-0.101,0.8-1.7,0.101-2.4,0.3C94.3,90.8,93,93,91,94.4C90.6,95.8,89.2,96.3,88.9,97.8
			c-2-1.5-2.9-4.3-4.5-6.2c-0.9-0.199-1.801-0.5-2.4-1C79.2,91.7,75.6,92,72.7,93c-1.101,0.4-1.3,1.7-2.101,2.4
			c0.4,3.8-0.699,6.1-0.699,9.6c-2,0.1-3.301-0.6-5.5-0.3c0.8-2.101,1.4-4.3,1.7-6.9c0.7-0.7,0.4-2.3,1-3.1c-0.1-1.3,0.9-2.7,0-3.8
			C65.7,91,65.3,92.1,65,93.3c-0.4,1.2-1.1,2.101-1,3.8c-1.2,2-1.2,5.2-2.1,7.601h-4.1c-0.1-0.8,0.1-1.3,0.3-1.7
			c1,0.1,0.3-1.3,1-1.4c0.1-4.3,2.2-8.3,1.7-12.1c-2.4-0.4-1.8,2.1-2.8,3.1C57.7,93.4,57.3,93.9,57.3,95c-0.8,0.2-0.1,2-1.4,1.7
			c-0.4-1.9-0.7-2.4-0.3-4.5c-0.6-2.3-2.7-3.3-5.2-3.8c-0.2-2.301,1.8-4.101,0.7-6.2C49.3,82,48.8,83.1,48.7,84.6
			c-0.7,0.9-0.9,2.301-1,3.801C45.2,90.6,43,93.1,40.1,94.9c0,0.399-0.5,0.199,0,0c0.4-3.5,2.6-7,2.1-10.301
			c-1.8,0.4-1.5,2.9-2.8,3.801C39.1,90.3,38.5,91.9,38,93.6c-0.1,1.101,0.4,1.7,1.4,1.7c-0.5,1.3-2.2,1.5-2.8,2.8
			C35.7,97.7,35.4,96.7,34.5,96.4c0.2-1,0.5-1.801,0.7-2.801c-0.2-2.8,0.5-4.5,0.7-6.899c0.6-0.101,0.2-1.2,0.7-1.4
			c0-0.7,0.9-0.399,0.7-1.399c-0.1-0.7-0.7-0.9-1-1.4c-4,0.6-3.9,5.3-4.8,9c-1.1-0.5-1.1-2.1-2.1-2.8c1.4-2.9,3.9-4.8,5.5-7.601
			C35.7,80.7,37,80.9,37.7,80.4C37.9,79.6,38.2,78.8,38,77.6c-0.2-1.1,1.1-0.8,0.7-2.1c-0.5-3.1-1.2-5.9-2.4-8.3
			c-0.6,0-0.9-0.3-1-0.7c-1.5-0.3-2.1,0.5-3.4,0.3c0.4-2.6,3.5-3.9,2.4-6.9c-3.1-0.3-3.3,2.2-5.2,3.1c-0.2,1.6-1.8,1.9-1.7,3.8
			c-1.3-0.3-1.6,0.4-2.8,0.3c0.9-1.1,1.8-2.399,2.1-4.1c0.8-1.4,1.6-2.7,2.1-4.5c-1.4-1.1-3.4,0.3-3.8,1.4c-0.8-0.3,0.7-1.8-0.3-2.4
			c-1.9-0.7-2.1,1.5-3.1,0.7v-2.1c2.6,0.6,6.8,0.6,9-0.3c1.8,0.4,2.6,0.2,4.5,0c0.6-0.3,1.1-0.8,1.4-1.4c0.3-1.5-0.7-1.6-1-2.4
			c1.1-2.3-1.1-4.7-0.3-6.5c-0.3-1.4,1.9,0.4,2.4-0.7c1-0.2,1-1.3,1.4-2.1c-0.4-2.4-2.4-3.1-3.8-4.5c-1.8-0.9-2.9-2.6-4.8-3.4
			c0.1-1.3,1.5-1.3,2.1-2.1c0.5-0.8,1.2-1.5,2.1-2.1c0.5-0.8,1.2-1.5,2.1-2.1c0.8-0.7,1.3-1.7,2.8-1.7c0.5,2.2,2.1,3.4,3.1,5.2
			c1.4,1.4,1.7,4,3.8,4.8h1c1.7,0,2-1.4,2.4-2.8c1.1-0.1,1.3-1,2.1-1.4c0.8,0,1,0.6,2.1,0.3c2.9-1.4,1.3-7.4,1.7-11.4
			c2.8,0.5,5.2,1.4,8.6,1.4c1.8-0.2,2.7-1.5,4.8-1.4v6.9c0.601,2.1,0,5.5,1.7,6.5c2,0.4,1.2-2.1,2.4-2.4c1.399-0.3,1.8,0.5,3.1,0.3
			c0.9,0.5,1,1.7,2.4,1.7c2.6-0.2,3.5-2,5.5-2.8c1.6-1,2.7-2.3,4.1-3.4c1.8-0.1,1.8,1.6,3.101,2.1c1.1,0.8,1.899,1.8,3.1,2.4
			c1,1.9,2.8,2.9,3.4,5.2C94.3,39.2,94.3,44,90,44.5c-0.8,3.4-0.7,8.7,2.1,9.6c1,0.1,1.801-0.1,2.101-0.7
			c2.899,2.3,8.5,0.3,12.7,0.7C107,55.9,106.6,58.8,106.7,60.8z M80.9,60.1c-0.5-1-1.101-1.9-1.4-3.1c-1-1.4-2.4-2.4-3.1-4.1
			c-0.9,0.1-1.101-0.5-1.4-1c-1.9-0.7-3.3-2-5.5-2.4c-1.9-0.8-4.6-0.9-6.9-1.4h-4.5c-0.2,0-0.4,0.1-0.3,0.3h-0.7
			c-0.9,0.5-2,0.7-2.4,1.7c-0.5,0.2-0.8,0.5-1,1c-0.5,0.2-1.8-0.4-1.7,0.3c-1,0.3-1.7,1-2.1,2.1c-1.5-0.2-1.8,0.9-2.8,1.4
			c-1.8,3.6-2.9,7.9-2.4,13.8c0.7,1.1,1,2.7,1.7,3.8c0.8,1.1,1.8,2.1,2.4,3.4c2,1.8,3.9,3.699,6.2,5.199
			c2.8,0.801,5.8,1.301,9.3,1.4c0.4-0.3,0.9-0.5,1.7-0.3c3.6-1.4,7.1-2.8,10-4.8c0.8-1.2,2.1-2,2.8-3.4c1-1.2,1.601-2.7,2.4-4.1
			C81.2,66.4,81.5,62.8,80.9,60.1z M67.8,75.9c-4,0.199-7.4-0.2-10.3-1c-2-1.601-4.1-3-5.2-5.5c-0.6-4-0.5-7.9,0-11.7
			c0.6-0.5,1.3-1,2.4-1.4c0.1,0,0.6,0.1,0.7,0c0.4-0.5,2.5-1.2,3.8-1.4c2.8-0.4,5.7,0.4,8.6,0.3c1.2,1.2,3.3,1.5,3.8,3.4
			c0.7,0.6,1.601,0.9,1.7,2.1c1.3-0.2,1.101,1.2,1.7,1.7C75.6,69.9,72.3,73.5,67.8,75.9z"/>
	</g>
</g>
</svg>
