<?xml version="1.0" encoding="utf-8"?>
<!-- Generator: Adobe Illustrator 16.0.0, SVG Export Plug-In . SVG Version: 6.00 Build 0)  -->
<!DOCTYPE svg PUBLIC "-//W3C//DTD SVG 1.1//EN" "http://www.w3.org/Graphics/SVG/1.1/DTD/svg11.dtd">
<svg version="1.1" id="Layer_1" xmlns="http://www.w3.org/2000/svg"  x="0px" y="0px"
	 width="120px" height="120px" viewBox="4 4 120 120" style="enable-background:new 4 4 120 120;" xml:space="preserve">
<g id="gears1">
	<g>
		<path d="M111.3,34.2c-0.7-1-2.3-1-3-2.1c1.9-0.3,3.101-1.3,4.4-2.1c0.399-2.4-1-3.2-1.2-5c-1.2-1-0.8-3.6-2.7-3.9
			c-2,0.4-2.899,1.9-4.7,2.4c0-0.8-1.199-0.4-1.199-1.2c0.699-1.7,1.6-3.3,2.399-5c-0.899-1.2-2.5-1.7-4.2-2.1
			C100.7,14.5,99.2,15,98.7,14.3c-1.4,0.1-1.7-0.5-2.7,0c-1.3,1.6-0.8,5.2-3.6,5.3c-0.301-1.1-0.7-2.1-0.9-3.3c0-1.2,0.1-2.5-0.6-3
			H90c0,0.3-0.5,0.3-0.9,0.3c-1.5,0.8-2.8,1.7-4.699,2.1C84.3,16.8,82.8,16.5,82.6,17.5c0.2,2.1,0.9,3.8,1.5,5.6
			c-0.8,0.1-0.5,1.2-1.199,1.5C80.6,24.4,79.6,22.9,77.3,22.8c-0.6,1-0.6,2.5-1.2,3.6c-0.3,1.3-0.899,2.3-0.899,3.9
			c0.399,0.1,0.3,0.7,0.3,1.2c0.8,0.3,1.8,0.4,2.4,0.9c1.199,0,2.199,0.1,3,0.6c0.5,2.5-1.7,2.2-2.7,3.3c-1.5,0.5-3,0.9-3.601,2.4
			c0.601,2.8,1.7,5,3,7.1c2.601,0,4.7-1.9,6.801-1.5c0.1,1.3-0.801,1.5-0.9,2.7c-0.2,0.8,0.6,0.6,0.6,1.2c-0.5,0.5-0.6,1.3-0.6,2.4
			c1,0.8,2.5,1.1,3.9,1.5c1.199,0.6,2.399,1.1,3.899,1.5c1.5-1.2,1.2-4.1,2.7-5.3c3,0.2,2.2,4.1,4.2,5.3c1.2-0.7,3-1,3.899-2.1
			c1,0,1-1,2.101-0.9c0.3-0.7,1.7-0.3,1.5-1.5c-0.5-2.3-1.8-4-2.4-6.2c1-1.3,2.101,0.3,3.601,0.3c1.1,0.6,2.3,1,3.899,1.2
			c1-2.7,2.2-5.1,3.3-7.7C113.4,35.4,112.2,34.9,111.3,34.2z M79.6,25.3c0.5,0,0.601,0.4,1.2,0.3C80.7,26.4,79.5,26.1,79.6,25.3z
			 M77.8,38.9c0.5-0.8,1.5-1.1,2.101-1.8c0.6,0.9-1.301,1.7-1.5,2.7C78,39.7,78.3,38.9,77.8,38.9z M79,43.1c-0.6-1.1,0.6-1.9,0.9-3
			c0.8,0.3,0.3,1.9,0.899,2.4C80.4,42.9,79.8,43,79,43.1z M83.1,28.2c0.2,0.2-0.199,0.4-0.3,0.3C82.7,28.4,83.1,28.1,83.1,28.2z
			 M82.9,29.7c0.6,0.1,0.5,2.1-0.601,1.5C82,30.2,82.7,30.3,82.9,29.7z M82,42.2C81.9,43.1,80.7,41.9,82,42.2c0-0.7,0.5-0.9,0.3-1.8
			c1-0.2,0.5,1.1,1.2,1.2C83.4,42.2,82.1,41.7,82,42.2z M82,39.5c-0.2-1.9,0.1-3.2,0.9-4.2c0.3,0,0.5,0.1,0.6,0.3
			C83.3,37.3,83.4,39.2,82,39.5z M83.7,41.3c0-0.3,0.399-0.2,0.6-0.3C84.3,41.3,84,41.2,83.7,41.3z M107.5,25.3c2-0.2,1.7,1.9,2.4,3
			c-0.801,0.3-1.2,1-2.4,0.9C107.1,28.2,106.9,26.1,107.5,25.3z M101.2,17.5c-0.7,0.7-2.7,0.1-3.9,0.3
			C97.6,15.7,99.9,17.4,101.2,17.5z M97.4,19.6c0.6-0.1,0.8,0.2,1.199,0.3c0.7,0.2,2.601-0.6,2.4,0.6c-1.1-0.5-3.1,0-4.2-0.6
			C96.8,19.6,97.2,19.7,97.4,19.6z M100.1,22.6c-0.1,0.3-0.3,0.2-0.3,0C99.8,22.2,100.1,22.4,100.1,22.6z M99.8,30.6
			c-0.7-0.1-0.7-0.8-0.3-1.2C99.9,29.5,99.7,30.2,99.8,30.6z M96.5,22h1.8c0.101,1.3,0.101,2.5-1.5,2.1C96.4,23.7,96.5,22.8,96.5,22
			z M90.9,21.1V22c-1.101-0.3-1.7,0.3-1.801-0.6C89.8,21.4,90,20.9,90.9,21.1z M88.5,28.8v-1.2C89.6,27.4,89.6,29,88.5,28.8z
			 M88.8,18.1h0.9c0.1,1.1,0.1,2-1.2,1.8C88.4,19.2,88.4,18.5,88.8,18.1z M88.2,38.6c0.2,0.2-0.2,0.4-0.3,0.3
			C87.7,38.7,88.1,38.5,88.2,38.6z M84.9,33.9c0-0.7,0.5-0.9,0.6-1.5v-3.9h0.6c1.2-0.1,0.601,1.5,1.2,2.1c-0.2,1-0.5,1.8-0.899,2.7
			c0.199,1.9,0.899,5.5-0.601,6.5C84.6,38.8,85,36,84.9,33.9z M85.8,41c0.3-0.1,0.5-0.3,0.601-0.6c0.899-0.1,0.6,1,0.899,1.5
			c1.4-0.3,1.9,0.5,2.101,1.5c-0.4,0-0.801-0.1-0.9,0.3c-0.5-0.1-0.3-0.9-1.2-0.6C87,42.1,85.9,42.1,85.8,41z M87,49
			c0-2.1,1.3-2.8,1.8-4.4c0.3,0.6,0.601,1.4,0.9,2.1C88.3,46.9,89,49.3,87,49z M92.3,44.5c-0.6,1-0.899,2.3-1.5,3.3
			c0.101,0.9-0.7,0.9-0.6,1.8c-0.2,0.9-1-0.2-1.5,0c0.8-1.7,2-2.9,3-4.4C91,44,91.9,42.4,92,41.3C93.1,42,91.4,44,92.3,44.5z
			 M94.1,45.1c-0.6-0.8-0.399-3.4,0-4.2C95.2,41.4,94.3,44,94.1,45.1z M89.4,35.6c-0.2-0.9-0.5-1.7-0.9-2.4
			c-0.1-2.8,0.8-4.5,2.7-5.3c-0.101-1.3-0.9-3.3-0.601-4.2c0.7,0.1,0.601-0.5,1.5-0.3c-0.1,1.4-0.6,2.9,0,4.2
			c1,0.1,1.301-0.5,2.4-0.3c-0.4-1.1-0.7-2.3-0.6-3.9C93.8,22.5,92.8,21.7,93.3,21c0.9-0.2,1.101,0.3,1.8,0.3
			c-0.1,1,0.4,2.6-0.6,2.7c0.5,0.6,0.2,2,0.3,3c0.4,0.4,1,0.6,1.8,0.6c0.801,0-0.3-2,0.601-2.1c1.5-0.1,0.7,2.1,0.899,3.3
			c0.101,0.9,0.801,1.2,1.2,1.8c-0.2,1.4,0.5,1.8,0.3,3.3C99.4,35.5,98.2,36,97.8,37.5C94.7,38.8,90.8,37.6,89.4,35.6z M97.4,45.4
			c-1.4-0.1-1.101-0.9-0.9-2.1c0-1.5-0.4-3.3,1.5-3C97.7,42,97.3,43.5,97.4,45.4z M100.4,44.8v-0.9
			C101.2,43.5,101.2,45.3,100.4,44.8z M102.1,47.8c-0.899,0.3-0.5-0.7-0.6-1.2C102.1,46.7,102.2,47.1,102.1,47.8z M104.2,38.6
			c-1,0.5-1.4,1.6-1.8,2.7c-0.9-1.2,0.199-2.9,0-4.4c0.1-0.7,0.5-1.1,0.3-2.1c-0.8-0.2-0.601,0.6-1.2,0.6c-0.3,1.5-1,2.5-0.9,4.4
			c-1.1,1.5-1.3,3.8-1.199,6.5c-0.4,1,1,0.2,0.6,1.2c0.1,0.7-0.1,1.1-0.6,1.2c-1,0.3-0.4-1-1.2-0.9c-0.2-0.9,0.8-0.6,0.6-1.5
			c0-1.4-0.2-3.1,0.3-4.2c0-0.8,0.101-1.7-0.3-2.1c0-0.9,0.7-1.1,1.2-1.5c0.3-1.3,0.4-2.7,1.5-3.3c0-3.2,0.6-6.8,0-8.9
			c-1.2-0.1-0.5,1.7-1.8,1.5c-0.4-1.6,0.6-1.8,1.5-2.1c0-1.1-1.5-0.7-1.5-1.8c0-1.3,1.2,0.6,1.5,0.9c0.7,0.1,1.2,0.4,1.8,0.6
			c-0.8,1.7-1,4-0.9,6.5c0.301,0.6,0.9,0.9,1.801,0.9c-0.101,1.1,0.5,1.5,1.199,1.8C104.8,36,104.1,36.9,104.2,38.6z M105.7,30.3
			c-0.5,0-0.601,0.4-1.2,0.3c0-1.5-0.2-3.3,0.3-4.4c1.2,0.3,0,1,0.3,2.1C104.9,29.3,106.4,29.6,105.7,30.3z M107.5,37.7
			c-0.7,0.3,0.2,2.2-1.2,1.8c-0.3-1-0.2-3.9,0.601-4.7c0.3,0.2,0.699,0.3,1.199,0.3C108.2,36.2,107.4,36.5,107.5,37.7z M109.3,38.6
			c-0.8-0.5,0.4-1.5,0-2.7c0.5-0.1,0.5,0.3,0.9,0.3C110.2,37.4,109.5,37.8,109.3,38.6z M87.6,69.2c-0.8-0.8-2.5-0.601-3.899-0.9
			c-0.9-0.8-2.9-0.5-4.2-0.899c-2.1-0.4-4.7,0.8-5.6-0.301c0-1.199,1.199-1.199,1.8-1.8c0.8-0.5,1.3-1.3,2.1-1.8
			c0.9-0.4,1.2-1.4,2.101-1.8c-0.2-0.8,0.6-0.6,0.6-1.2c0.5-0.2,0-1.4,0.6-1.5c0-0.9-0.3-1.5-0.899-1.8c-0.4-0.6-0.3-1.7-0.601-2.4
			c-1.5-1.8-3.3-3.2-4.699-5C73,48.3,72.3,45.7,69.3,45.3c-1.8,0-1.8,1.8-3.3,2.1c-0.5,1.2-1.4,1.9-2.1,3c-0.8,0.6-1.3,2.7-2.4,2.1
			c-0.7,0.1-0.6-0.5-1.5-0.3c-0.6-3-0.3-7.6,0-10.7c-0.5-0.6-0.9-1.5-1.5-2.1c-3.8-0.5-8.8,0.3-13.4,0c-1.1,0.5-1.8,1.4-3,1.8
			c-0.7,0.9-2.1,1.1-2.7,2.1c-0.2,2.2,0.2,3.7,0.3,5.6c0.5,1.2,0.8,4.5-0.9,4.5c-1.4-1.4-2.3-3.3-3.6-4.7c-0.9-1.8-1.3-4.3-3.3-5
			c-2.4,0.4-3.6,2.4-5,3.9c-1.5,1.5-3.2,3-4.7,4.4c-0.4,1.7-2.4,1.7-2.4,3.9c0.3,2.2,2,3.1,2.7,5c0.8,0.5,1.4,1.2,1.8,2.1
			c0.7,0.7,1.5,1.3,1.8,2.4c0,0.699-0.5,0.899-0.3,1.8c-0.6,0.2,0.1,1.7-0.6,1.8c-3.9,0.5-8.1-1-11,0.3c-0.6,1.5-0.2,3.8,0,5.3V79
			c0.3,2.6,1.1,4.7,2.1,6.5c4.2,0.2,7-0.9,11-0.9c-0.2,1.5,0.4,2.2,0.6,3.301C26,90.6,23.5,92.8,21.1,95c-0.2,0.5-0.2,1.2-0.6,1.5
			c-0.5,0.3-1,0.6-0.9,1.5c0.7,2.9,2.6,4.6,4.4,6.2c0.8,1,1.7,1.899,2.7,2.7c0.9,1,1.5,2.3,3.3,2.399c1.5,0,1.8-1.2,3-1.5
			c0.6-0.899,1.8-1.2,2.4-2.1c2-0.9,2.6-3.3,5.3-3.601c0.8,1.5-0.4,3.301,0,5.301c0.6,0.1,0.1,1.3,0.9,1.199
			c0.1,0.601,1.1,0.2,0.9,1.2c-0.1,1.601,0,3.2,0.6,4.2c4.6,0.5,11.1,0.5,15.7,0c1.8-2.7,0-7.7,0.9-11c1.4-0.1,3.3,0.3,4.2-0.3
			c0.9,1.1,1.5,2.5,2.7,3.3c1.2,0.9,1.301,2.8,2.7,3.6H72c1.2-0.6,1.2-2.3,2.4-3c0.8-1,1.699-1.899,2.399-3c1-0.8,1.5-2,2.7-2.699
			c0.4-1.5,2.2-1.601,2.1-3.601c-0.8-2.5-3-3.5-3.899-5.899c-0.9-0.7-1.4-1.801-2.101-2.7c-0.399-1-2.199-1.8-1.5-3
			c3.9,0.7,9,0.1,12.801-0.3C87.8,84.1,87.5,82.1,87.5,80.1s0-4.1,0-5.899C87.6,72.6,87.9,70.5,87.6,69.2z M20,80.7
			c-0.2-0.2,0.2-0.4,0.3-0.3C20.4,80.6,20,80.8,20,80.7z M71.6,81.3c-0.6,0.3-1,0.7-0.899,1.8c-1.3,0-1.9,0.7-2.4,1.5
			C68.2,88.1,70.6,89.2,71.9,91.4c0.6,1.1,1.5,1.899,2.1,3c0.6,1.199,1.6,2,2.1,3.3c-1.199,0.8-2.1,1.8-3.3,2.7
			c-0.8,1.1-1.5,2.5-3,3c-1.2-2.2-2.3-4.5-3.899-6.2c-1.601,0.1-2.101-0.3-3.3,0c-2.7,0.7-4.9,1.8-6.5,3.6c0.4,2.7-0.2,5.3,0,8.601
			c-1.3-0.4-3-0.301-4.7-0.301c0.1-1,0.7-1.399,0.6-2.699c0.7-0.4,0.2-1.9,0.9-2.4c0-1.1,0.3-1.9,0.6-2.7c-0.2-1.1,1-2.3-0.3-2.7
			c-1.1,0-0.9,1.301-1.5,1.801c0.1,1.199-0.7,1.5-0.6,2.699c-0.5,1.801-1.2,3.4-1.2,5.601c-1.6-0.2-3.4,0.899-4.7,0
			c-0.2-0.8,0.1-1.101,0.9-0.9c0.8,0.2,0.6-0.6,1.2-0.6c0.3-3.2,1.9-6.8,1.5-9.8c-1.7,0-1.6,1.8-2.1,3c-0.7,1-0.9,2.699-1.5,3.899
			c-0.7-0.2-0.1-1.7-0.3-2.399c-0.5-1,0.1-1.101,0-2.4c-0.6-1.6-1.8-2.6-3.9-2.7c-0.1-1.8,1.3-3.3,0.6-4.8c-1.6-0.4-1.4,1-2.1,1.5
			c0,1.3-0.7,1.9-0.6,3.3c-1.9,1.5-3.6,3.101-5.3,4.7c-0.9-0.4,0.3-1,0-1.8c0.4-0.4,0.2-1.4,0.6-1.8c0.3-1.301,0.7-2.4,0.9-3.9
			c-1-0.6-1.8,1.3-2.1,2.4c-0.5,1.199-0.9,2.5-1.2,3.899c-0.1,0.8,0,1.601,0.9,1.5c-0.4,1-1.5,1.2-2.1,2.101
			C28,103,30,99.6,29.7,96.8c0.4-0.1,0.3-0.7,0.3-1.2c0.6-0.399,0.4-1.199,0.6-1.8c0.1-0.399,0.8-0.1,0.3-0.6
			c-0.2-0.2,0-0.8-0.3-0.9c-1.8-0.2-2.3,1.101-2.7,2.4c-0.7,1.1-1.1,2.5-1.2,4.2c-0.9-0.301-1-1.301-1.5-2.101
			c0.4-1.1,1.2-1.899,2.1-2.7c0.4-1.3,1.4-1.899,2.1-3c1.1,0.2,1.4-0.3,2.1-0.6c0.1-1.1,0.4-1.1,0-2.1
			c0.6-0.301,0.6-1.101,0.6-2.101c-0.5-2-0.9-4.1-1.8-5.6c-0.8-0.4-2-0.3-3.3-0.3c0.3-2,2.1-2.4,1.8-5c-2.3-0.2-2.7,1.399-3.9,2.399
			c-0.3,0.7-0.7,1.3-1.2,1.8c0.1,1.2-0.8,1.301-2.1,1.2c0.4-1.2,1.3-1.899,1.5-3.3c0.6-1,1.2-2,1.5-3.3c-1.2-0.9-2,0.6-3,0.899
			c0,0.4-0.4,0.2,0,0v-1.5c-1.3-0.3-1.5,0.5-2.4,0.601c0.1-0.9-0.1-1.5-0.6-1.8c0.2-1.101,1.7,0.1,3-0.301h3.9
			c1,0.301,2.2,0.4,3.3,0.601c0.4-0.2,1.4-0.3,1.8-0.601c0.2-0.199,0.1-0.6,0.3-0.899c0.1-0.2,0.5-0.4,0.6-0.601
			c0.6-1.699-0.2-4.3-0.3-5.899c-0.2-1.3,1-1.2,0.9-2.4c-0.2-1.8-1.8-2.2-2.7-3.3c-1.3-0.8-2.4-1.8-3.6-2.7c0.7-0.8,1.6-1.4,2.4-2.1
			c0.7-0.8,1.2-1.8,2.4-2.1c0.9,2,2.2,3.5,3.9,4.7c0.8,0.3,1.2,0.3,2.1,0c0.2,0.8,0.9,1,2.1,0.9c1.4,0.1,0.9-1.6,1.8-2.1
			c0.9-0.9,2.3-0.3,3.3-0.6c0.9-0.2,1.3-0.9,1.8-1.5c-0.1-3.4-1.2-6.5-0.6-9.8h10.4c0.3,3.7-0.9,9,1.2,11h2.1
			c-0.2,1.1,0.2,1.6,0.6,2.1c1.3,0.5,3.3,0.2,5,0.3c0.3,0,0.4-0.2,0.601-0.3c0.899-0.2,0.699-1.4,1.199-2.1
			c2.101-0.5,2.5-2.6,4.5-3.3c2,2.3,4.2,4.4,5.601,7.1c0,1.1-1,1.1-1.5,1.8c-0.8,0.4-1.101,1.2-2.101,1.5C71.7,63.3,70,64,69.3,65.7
			c0,1.399,1.3,1.5,1.8,2.399c0.101,0.9-0.5,1-0.3,2.101C72.3,73.1,79,70.9,82.4,72c0.6,2.3,0.1,5.6,0.6,8
			C79.9,81.3,74.4,80,71.6,81.3z M65.4,75.4c-0.7-0.4-0.9,1.199-1.2,0.3c0.2-1.5-0.8-1.8-0.9-3c-1.9-1.3-2.9-3.7-5.3-4.5
			c-1.9-1.5-5-1.8-7.4-2.7h-5.9c-2.2,0.5-3.3,2.3-5,3.3c-0.7,1.5-1.5,2.8-2.4,4.2c-0.2,3.1-1.1,6.3-0.3,9.5c2.9,5.5,7.7,11,16.9,8.9
			c-0.3,1.3,0.9,1.1,1.5,1.5c0.1-0.601,1.3-0.101,1.5-0.601c0.6-0.2,1.1-0.5,1.8-0.6c0.8-0.8,2.1-1.101,3.3-1.5
			c2.4-2.601,4.7-5.2,4.5-10.4C65.9,78.4,65.2,77.3,65.4,75.4z M58.8,84.6c-0.8,1-2.4,1.2-3.3,2.101c-2.8,0.5-6.8,0.5-9.2-0.3
			c-1.1-0.9-2.2-1.801-3.3-2.7c-0.4-0.9-0.7-1.9-1.2-2.7c-0.1-3.3-0.1-6.6,0.9-8.9c0.9-0.699,1.1-0.399,2.4-0.899
			c0.2-0.4,0.5-0.7,0.9-0.9c6.5,0,10.5,2.601,13.6,5.9c0,1,0.5,1.5,0.3,2.7c0.2,1.3,1.1,1.8,1.5,3C60.5,82.7,60,83.9,58.8,84.6z"/>
	</g>
</g>
</svg>
