<?xml version="1.0" encoding="utf-8"?>
<!-- Generator: Adobe Illustrator 16.0.0, SVG Export Plug-In . SVG Version: 6.00 Build 0)  -->
<!DOCTYPE svg PUBLIC "-//W3C//DTD SVG 1.1//EN" "http://www.w3.org/Graphics/SVG/1.1/DTD/svg11.dtd">
<svg version="1.1" id="Layer_1" xmlns="http://www.w3.org/2000/svg"  x="0px" y="0px"
	 width="120px" height="120px" viewBox="0 0 120 120" enable-background="new 0 0 120 120" xml:space="preserve">
<g id="file-gif">
	<g>
		<path d="M98.352,47.066c0.08-1.723,0.719-2.884,0.854-4.557c0.169-3.848,0-7.743,0-12.248c0-4.396-0.035-8.845-0.854-12.538
			c-1.793,0.021-3.338,0.274-4.845,0.575c-0.815-0.512-1.653-1.012-3.136-0.856c-15.557-0.015-30.664-0.477-46.43-0.284
			c-0.41,0.157-0.693,0.446-0.855,0.854c-0.662,0.855-1.267,1.771-1.992,2.563c-0.537,0.503,0.34,0.831-0.287,1.427
			c-0.5,0.256-0.879,0.633-1.138,1.14c-1.533,1.5-3.026,3.052-3.989,5.127c-1.01,0.503-1.176,1.859-1.992,2.562
			c-0.807,0.715-0.902,2.134-1.711,2.852c-0.068,1.444-1.232,1.806-1.709,2.844c-0.65,0.963-1.86,1.367-1.992,2.852v6.551
			c0.193,1.703,0.757,3.039,0.851,4.842c-1.022,14.453-0.136,30.814-0.851,45.578c0.166,2.396-0.352,5.479,0.286,7.405v1.994
			c-0.172,0.505,0.833,1.185,0,1.425c-0.448,1.088-0.698,1.811,0,2.848c1.261,1.111,3.589,0.285,5.409,0.289
			c1.608-0.578,3.924-0.449,5.698-0.855c9.252-0.156,15.903,0.41,24.214-0.283c7.922-0.822,16.438-0.512,24.783-0.286
			c2.57,0.353,6.111,0.993,8.544,0.569c0.717-0.52,1.25-1.221,1.423-2.279c0.193-1.14,0.855-1.803,1.141-2.846
			C100.262,84.303,98.814,64.905,98.352,47.066z M43.941,26.559c-0.609,0.131-0.541-0.407-0.57-0.854
			C43.721,25.827,43.957,26.066,43.941,26.559z M41.662,27.699h0.855c0.372,1.428,1.369,2.233,2.277,3.131
			c-0.226,1.172,0.436,1.46,0.289,2.562c-1.339-0.087-1.158-1.699-2.279-1.992c-0.412-1.012-1.158-1.694-1.998-2.277
			C40.974,28.528,41.41,28.2,41.662,27.699z M40.807,33.393c0.357,0.882,0.939,1.53,1.711,1.994
			c-0.259,0.772-1.049-0.237-1.139-0.566c-0.418-0.249-0.906-0.428-0.853-1.139c-0.772-0.561-1.366-1.3-1.714-2.281
			C39.918,31.623,39.898,32.973,40.807,33.393z M36.533,34.247c0.688,0.55,0.947,1.524,1.712,1.995
			c-0.761,0.566-2.513,0.145-3.419,0.566C35.23,35.792,36.061,35.196,36.533,34.247z M92.65,104.895
			c-1.455,0.125-1.562-1.102-2.85-1.142h-5.98c-10.951-1.046-21.321,0.874-32.188,0.856c-1.152,0.266,0.362-1.545-0.567-1.994
			c-1.279-0.141-0.801,1.479-1.428,1.994H45.65c-1.301-0.203-2.888,0.32-3.421,0c0.398-1.65,1.766-3.359,1.143-5.127
			c-1.83-0.314-2.047,0.987-2.845,1.707c-0.235,1.289-1.14,1.903-1.144,3.42c-1.215-0.117-2.934,0.273-3.703-0.283
			c0.225-2.521,2.329-4.393,1.709-6.84c-2.277,0.188-2.658,2.279-3.418,3.984c-1.053-0.6-0.439-2.383,0-3.13
			c0.699-0.727,0.648-2.2,1.425-2.853c0.435-2.412,1.812-3.883,1.993-6.551c-0.853-0.709-1.918,0.19-1.993,1.143
			c-0.583,0.191-0.938,2.074-1.425,1.422v-2.277c0.361-1.254,1.084-2.145,1.709-3.135c0.437-2.316,1.508-4,1.996-6.266
			c0.234-2.002,2.033-4.316,0.851-5.981c-1.259-0.123-1.995,0.282-2.561,0.855c-0.69,0.087-1.259,1.753-1.711,1.138
			c-0.143-11.064,0.504-21.334,0.286-32.473c0.172-1.316-0.637-1.641-0.57-2.85h4.274c1.929-0.35,3.83-0.729,6.264-0.568
			c1.901-0.567,4.262-0.68,5.698-1.711c0.263-0.498,0.102-1.422,0.571-1.711c-0.445-2.494-0.653-5.232-1.142-7.69
			c-0.413-2.525-1.225-4.661-1.422-7.404c2.906-0.173,6.145-1.073,9.113-0.284c10.743-0.208,19.886,1.195,30.481,1.139
			c1.887,0.154,4.149,0.968,5.979,0.285c0.005,1.237,0.096,2.561-0.284,3.418c0.54,1.071,0.027,3.2,0.57,4.272
			c0.455,22.708,0.158,46.179,0.852,68.647C94.109,100.845,94.531,104.016,92.65,104.895z M61.029,67.577
			c-0.408-0.445-0.716-0.993-1.422-1.142h-2.563c-1.688,0.114-3.475,0.14-3.134,2.279c0.372,1.465,2.072,0.164,2.852,0.854
			c-1.24,1.322-2.348,2.783-5.413,2.281c-0.774-0.559-1.284-1.381-1.712-2.281c0.102-1.896-0.253-4.237,0.287-5.695
			c0.398-0.547,1.383-0.512,1.991-0.85c1.193-0.15,1.933,0.151,2.568,0.565c0.001-0.471,0.789-0.157,0.854-0.565
			c0.652,0.082,0.314-0.825,0.852-0.857c-0.148-3.082-4.175-2.818-6.836-2.565c-0.837,0.683-1.752,1.286-2.566,1.995
			c-0.456,1.062-0.928,2.109-1.138,3.415v5.415c0.356,0,0.167,0.317,0.287,0.57c0.664,1.406,1.638,2.542,2.56,3.704
			c0.732,0.028,0.998,0.519,1.428,0.851c0.424,0.051,1.05-0.1,1.141,0.287h3.13c2.966-0.549,4.486-2.538,5.982-4.556
			C59.445,69.318,61.225,69.652,61.029,67.577z M78.979,59.601h-4.844c-0.283-0.001-0.336,0.229-0.568,0.282
			c-0.82,0.131-0.672,1.229-1.424,1.428c0.152,1.75-0.328,4.123,0.285,5.414c-0.27,0.774-1.548,0.539-1.141,1.992
			c0.072,0.973,1.508,0.58,1.71,1.426c-0.081,1.604,0.325,2.711,0.854,3.703c1.041,0.061,1.096,0.389,1.994,0
			c0.979-0.744,0.522-3.074,0.284-4.275c2.515,0.049,5.009,0.074,5.412-1.991c-0.017-0.364-0.367-0.396-0.287-0.854
			c-1.463-1.223-3.206,0.539-5.694,0c-0.127-1.49-0.733-2.498-0.854-3.99c2.623-0.414,7.254,1.178,7.401-1.709
			C81.961,59.658,80.585,59.513,78.979,59.601z M63.311,61.025c-0.424,0.336-0.44,1.076-0.854,1.425
			c0.318,2.245,0.939,4.188,1.426,6.267c0.879,1.688,1.139,3.984,2.564,5.128c0.584-0.346,0.613-0.499,0.85-1.14
			c0.217-0.58,0.085-1.439,0.288-1.998c-0.778-3.396-1.272-7.08-2.849-9.682H63.311z"/>
	</g>
</g>
</svg>
