<?xml version="1.0" encoding="utf-8"?>
<!-- Generator: Adobe Illustrator 16.0.0, SVG Export Plug-In . SVG Version: 6.00 Build 0)  -->
<!DOCTYPE svg PUBLIC "-//W3C//DTD SVG 1.1//EN" "http://www.w3.org/Graphics/SVG/1.1/DTD/svg11.dtd">
<svg version="1.1" id="Layer_1" xmlns="http://www.w3.org/2000/svg"  x="0px" y="0px"
	 width="120px" height="120px" viewBox="0 0 120 120" enable-background="new 0 0 120 120" xml:space="preserve">
<g id="giftbox">
	<g>
		<path d="M110.859,46.259c-1.244-1.104-3.073-1.762-5.153-1.215c-2.479-0.153-4.337,0.315-6.372,0.607H86.6
			c-1.223-0.196-3.226,0.394-3.941-0.306c0.441-0.669,1.982-0.239,2.426-0.909c1.055-0.161,1.614-0.81,2.729-0.91
			c1.174-0.849,2.24-1.804,3.643-2.425c1.115-1.414,2.488-2.562,3.639-3.943c0.932-1.596,2.266-2.787,3.034-4.546
			c0.578-1.848,1.095-3.758,0.907-6.372c-0.354-0.051-0.329-0.479-0.301-0.908c-0.969-2.067-2.807-3.265-4.248-4.853
			c-1.937-0.291-3.28-1.168-5.155-1.518c-3.123-0.092-6.015,0.05-8.794,0.303c-0.52,0.494-1.104,0.92-2.12,0.909
			c-1.067,0.857-2.06,1.788-3.338,2.429c-1.298,1.63-2.731,3.13-3.943,4.851c-1.257,1.676-2.057,3.807-3.641,5.159
			c-0.192,2.229-1.431,3.419-1.818,5.458c-1.228-0.292-2.069-0.965-3.639-0.912c-1.181,0.248-3.157,0.933-3.941,0.607
			c-0.733-4.019-1.932-7.573-3.033-11.223c-1.39-3.462-3.016-6.687-5.763-8.796c-1.354-0.259-2.496-0.733-4.246-0.603
			c-2.518,0.715-4.672,1.797-6.67,3.029c-2.233,2.519-4.203,5.303-3.942,10.312c0.771,4.688,3.15,7.768,5.76,10.616
			c2.123,1.314,4.33,2.546,6.37,3.942c-2.93,0.608-6.903,0.173-10.312,0.302c-3.147,0.593-6.285,1.193-9.702,1.521
			c-1.423,0.498-3.148,0.695-4.853,0.908c-0.575,0.336-1.435,0.387-2.124,0.605c-0.744,0.268-1.75,0.273-1.82,1.215
			c-0.867,0.043-0.556,1.264-0.606,2.121c0.214,1.126-0.519,1.303-0.302,2.427v5.46c-0.685,0.228-0.119,1.702-0.306,2.426v2.731
			c0.012,1.906-0.192,4.033,0.607,5.154c1.134,0.586,2.713,0.724,4.551,0.604c1.221,0.597,3.726-0.088,4.853,0.604
			c-0.303,8.901-0.641,17.761-0.914,26.688c0.739,3.306,0.933,7.152,2.732,9.398c2.961,0.479,6.61,0.264,10.008,0.305
			c16.244,1.346,32.527,2.649,50.342,2.426c3.735,0.473,9.2,1.188,12.735,0c1.453-1.883,2.004-4.668,2.427-7.58V75.068
			c-0.447-0.06-0.279-0.733-0.303-1.217c-0.523-0.39-0.006-1.812-0.909-1.818c0.298-0.84-1.726-0.857-0.61-1.516
			c2.02,0.105,3.776,0.473,6.07,0.301c1.116-0.899,2.574-1.465,3.031-3.029C112.322,60.508,110.047,53.29,110.859,46.259z
			 M66.584,40.799c0.939,0.029,1.447-0.371,2.123-0.607c2.747-5.438,5.83-10.544,9.706-14.859c1.173-0.237,1.979-0.85,2.729-1.518
			c2.039-0.284,4.271-0.379,6.668-0.302c2.717,0.517,4.861,1.608,6.064,3.64c-0.419,3.723-2.271,6.018-4.248,8.188
			c-1.212,0.908-2.176,2.064-3.635,2.73c-1.108,0.91-2.725,1.319-3.645,2.426c-2.461,0.164-4.197,1.056-5.76,2.121
			c-0.38,1.507,1.967,1.854,1.516,2.427c-3.939-0.101-7.611-0.475-11.826-0.304C66.877,43.923,66.459,42.092,66.584,40.799z
			 M79.318,45.044c-0.006,0.295-0.369,0.234-0.604,0.302C78.721,45.049,79.082,45.112,79.318,45.044z M57.181,43.526
			c0.636-0.175,0.866-0.749,1.821-0.605c0.622-0.085,0.604-0.81,0.909-1.212c1.187,0.298,1.761-0.669,2.425,0
			c-0.208,1.22,0.292,1.729,0.305,2.728h-3.938c-1.024-0.192-2.818,0.393-3.338-0.3C55.152,43.287,56.874,42.853,57.181,43.526z
			 M42.321,35.946c-1.284-2.557-3.15-4.533-2.728-8.794c0.45-0.258,0.652-0.765,0.604-1.516c1.804-1.567,4.152-4.678,7.276-3.034
			c2.349,2.811,3.366,6.949,4.25,11.222c0.338,1.378,1.14,2.296,1.516,3.637c0.097,0.711,0.476,1.14,0.301,2.125
			c0.861-0.051-0.251,1.866,0.608,1.819c-0.926,0.805-2.387-0.433-3.336-0.606c-1.035-0.48-2.29-0.742-3.034-1.516
			C45.472,38.661,44.054,37.146,42.321,35.946z M21.397,65.97c-0.532-4.192-0.461-10.354,0-14.558
			c4.914,0.163,9.226-0.277,13.041-1.213c7.014,0.141,13.607-0.142,20.316-0.303c-0.696,4.256-0.636,9.271-0.605,14.252
			c0.419,0.994,0.977,1.854,2.428,1.82c-0.422,0.689-2.113,0.111-3.036,0.305H43.84C37.393,65.287,28.283,65.523,21.397,65.97z
			 M53.541,102.969c-0.13-0.982,0.401-2.627-0.604-2.732c-1.13-0.016-0.875,1.353-0.911,2.429c-2.162,0.038-4.288,0.044-6.064-0.304
			c0.264-1.438,1.829-2.383,0.606-3.639c-2.079,0.146-2.211,2.23-3.336,3.334c-0.873,0.412-2.863-0.26-4.55,0
			c0.264-2.361,1.983-3.271,2.427-5.459c0.686-0.632,0.868-1.762,1.514-2.425c0.482-0.737,1.134-1.296,0.912-2.729
			c-1.842-0.699-3.011,1.271-4.245,2.123c-0.67,1.451-1.755,2.49-2.426,3.941c-0.623,0.489-0.766,1.46-1.212,2.123
			c-0.534,0.477-0.399,1.624-0.912,2.122c-1.201,0.195-0.396-1.446,0-1.517c-0.076-0.887,0.687-0.932,0.606-1.817
			c0.468-1.155,1.222-2.015,1.518-3.337c0.994-0.623,1.156-2.076,1.818-3.032c0.438-0.899,1.925-1.946,1.213-3.032
			c-0.708-0.789-2.516-0.106-3.031,0.301c-0.735,0.479-1.339,1.088-1.82,1.824c-0.634,0.58-1.265,1.16-1.517,2.121
			c-0.952,0.258-0.675,1.75-1.818,1.818c-0.354-3.791,1.916-4.955,2.427-7.887c0.804-0.912,0.995-2.438,1.517-3.639
			c0.433-0.996,1.052-2.884,0-3.639c-1.928,0.195-2.957,1.29-3.641,2.729c-0.764-0.947,0.101-3.539-0.608-4.547v-4.551
			c0.224-0.928-0.522-0.893-0.303-1.818v-0.912c8.526,0.474,16.875,1.121,26.08,0.912c-0.826,10.606-0.109,22.094,1.215,31.537
			C56.529,103.417,55.496,102.729,53.541,102.969z M58.396,51.109c-0.099-0.704,0.05-1.163,0.306-1.516
			c0.349,0.254,0.812,0.398,1.513,0.303C59.893,50.585,59.293,51,58.396,51.109z M61.43,91.443
			c-0.668-0.038-0.131-1.289-0.302-1.819c0.33-1.483,1.837-1.8,2.425-3.034c0.35-0.049,0.54,0.067,0.604,0.307v4.547
			c-0.71,0.705-2.022,0.809-2.427,1.82C61.062,93.225,61.602,91.979,61.43,91.443z M63.553,94.475
			c0.942,0.066,0.51,1.51,0.604,2.431c-0.849-0.353-1.578-0.353-2.427,0C61.777,95.535,63.341,95.684,63.553,94.475z
			 M63.855,102.361c0.408,0.091,0.248,0.759,0.302,1.212C63.273,103.309,63.816,103.12,63.855,102.361z M64.157,101.449
			c-0.392-0.417-1.316-0.299-2.123-0.303c-0.167-1.886,1.603-1.834,1.821-3.334C64.549,98.43,63.96,100.33,64.157,101.449z
			 M64.157,82.951c-1.693-0.075-2.011,1.226-3.337,1.516c0.613-1.814,2.545-2.307,2.731-4.547c-0.952-1.029-1.798,0.609-2.731,0.604
			c0.092-1.424,1.244-1.789,2.125-2.424c-0.196-1.207,0.803-1.222,0.606-2.429c-0.278-1.017-0.567-0.147-1.519-0.303
			c0.463-1.354,1.586-2.052,1.82-3.638c0.35-0.053,0.541,0.063,0.604,0.302C64.527,75.841,63.926,78.98,64.157,82.951z
			 M64.157,66.273c0.325-0.787,1.098-1.131,1.212-2.125c0.094-0.797-0.417-0.996-1.212-0.908c0.114-1.432-0.023-2.604-1.519-2.428
			c0.117-1.502,1.75-1.487,1.519-3.335c0.226-1.336-0.982-1.243-1.212-2.122c-0.592-0.422-0.932-1.093-1.817-1.214
			c0.563-1.554,1.938-2.306,2.119-4.245c1.741,0.076,3.864-0.225,5.155,0.303c-0.379,5.041-0.451,10.744,0,15.771
			C67.497,66.578,65.539,66.139,64.157,66.273z M97.516,71.73c-0.101,0.709-0.363,1.252-0.605,1.818
			c-0.021,1.482,0.497,3.041,0.605,4.551c0.19,2.666-0.181,5.422-0.306,8.188c-0.263,6.035,0.388,12.25-0.302,17.893
			c-4.493-0.281-9.16-0.604-13.948-0.604c-4.72,0-9.507,0.679-13.95,0c0.059-10.874,0.006-21.64-0.607-31.843
			c2.453-0.073,5.279,0.223,7.279-0.305c2.93,0.608,6.903,0.174,10.312,0.305c2.001-0.221,3.956-0.49,6.062-0.607
			c1.03-0.082,2.463,0.234,3.033-0.307c1.111-0.096,2.686,0.262,3.336-0.301h0.604C98.794,71.188,97.969,71.275,97.516,71.73z
			 M104.794,64.148h-4.55c-8.331,1.571-18.32,1.492-27.9,1.82c-0.019-5.137-0.184-10.129-0.604-14.86
			c0.172-0.438,0.473-0.738,0.908-0.91c9.968,1.378,22.365,1.523,33.357,0.91C105.675,55.531,105.469,60.07,104.794,64.148z"/>
	</g>
</g>
</svg>
