<?xml version="1.0" encoding="utf-8"?>
<!-- Generator: Adobe Illustrator 17.0.0, SVG Export Plug-In . SVG Version: 6.00 Build 0)  -->
<!DOCTYPE svg PUBLIC "-//W3C//DTD SVG 1.1//EN" "http://www.w3.org/Graphics/SVG/1.1/DTD/svg11.dtd">
<svg version="1.1" id="Layer_1" xmlns="http://www.w3.org/2000/svg"  x="0px" y="0px"
	 width="120px" height="120px" viewBox="0 0 120 120" enable-background="new 0 0 120 120" xml:space="preserve">
<g id="glasses-mustache">
	<g>
		<path d="M113.357,38.129c-3.488-2.199-8.449-2.924-12.866-4.189c-9.431-0.154-17.802,0.751-25.438,2.393
			c-0.943,0.352-1.666,0.932-2.395,1.495c-0.422,0.978-2.119,0.677-2.695,1.498c-1.035-1.256-3.761-0.828-5.983-0.897
			c-1.833,0.36-3.227,1.162-4.788,1.793c0.55-2.045-2.086-0.905-3.292-1.197c-3.021-2.365-8.045-2.725-12.87-3.29
			c-10.754,0.716-23.371-0.429-29.028,5.388c-0.043,2.14,0.843,3.349,1.2,5.086c0.44,0.155,0.752,0.444,1.193,0.6
			c0.685,0.41,1.127-0.771,1.199,0c1.349,6.732,3.256,12.903,7.482,16.757c3.129,1.163,7.291,1.29,11.67,1.198
			c0.413,0.684,2.083,0.112,2.993,0.301c1.156-0.061,2.204-0.012,2.991,0.299c2.255-0.057,3.866,0.522,6.288,0.3
			c1.766-0.229,3.43-0.558,5.086-0.899c0.065-0.231,0.25-0.347,0.599-0.298c2.715-2.373,5.191-4.984,6.883-8.379
			c0.934-1.66,1.326-3.862,1.794-5.986c0.004-1.293,0.693-1.898,0.6-3.291c0.668-0.629,0.229-2.366,0.896-2.993
			c3.199-0.506,3.834,1.556,3.894,4.19c0.787,2.003,0.617,4.967,1.494,6.883v2.992c1.146,1.749,2.315,3.47,4.188,4.489
			c5.34,0.148,11.306-0.331,16.163,0.298c3.785-0.698,7.904-1.071,11.67-1.795c4.523-3.854,7.586-9.173,8.676-16.459
			c0.18-1.516,2.918-0.479,2.995-2.094C114.104,40.572,113.87,39.211,113.357,38.129z M58.294,48.9
			c-0.054,0.207-0.292,0.267-0.298,0.3c-0.291,1.393-0.159,2.911-0.6,4.19c-0.04,0.108-0.283,0-0.3,0.298
			c-0.041,0.81-1.493,2.807-2.096,3.592c-0.857,1.119-1.966,2.158-2.991,2.993c-4.917,0.782-10.047-0.426-14.962-0.6H32.26
			c-0.973,0.174-1.393-0.203-2.096-0.298c-0.621-0.179-1.967,0.368-2.096-0.3c-1.469-0.325-1.785-1.805-2.396-2.992
			c-0.846-0.949-1.006-2.586-1.792-3.592c-0.545-3.047-2.041-5.146-2.396-8.378c4.577-0.612,8.572-1.802,14.065-1.497
			c4.019-0.669,9.252-0.123,13.767-0.299c1.118,0.377,2.605,0.385,3.289,1.196c2.934-0.338,4.128,1.06,6.287,1.495
			C58.763,46.35,58.66,47.429,58.294,48.9z M104.382,50.996c-1.308,1.788-2.655,3.53-4.188,5.088
			c-3.877,0.639-8.892,1.307-13.17,0.598c-4.238-0.251-9.847,0.869-11.969-1.495c-0.628-4.264-0.765-9.015-1.197-13.467
			c5.037-1.549,12.349-0.82,17.654-2.096c4.594,0.791,11.562-0.788,14.066,2.096C106.719,45.25,104.863,48.118,104.382,50.996z
			 M108.271,73.143c-0.215-1.354-0.355-1.045-1.197-1.798c-2.764-0.067-2.607,2.78-4.787,3.294
			c-1.448,0.445-2.523,1.269-4.189,1.495c-0.224,0.675-1.681,0.116-2.394,0.3c-0.306,0.695-1.03,0.965-2.097,0.897
			c-1.325,0.328-1.484-0.507-2.395-0.599c-1.484-0.032-1.47,0.295-2.691,0c-4.793-2.691-8.676-6.289-13.467-8.978
			c-2.83-0.136-5.271,0.116-7.484,0.597c-0.705,0.592-1.557,1.039-2.396,1.498c-0.915,0.479-1.202,1.588-2.395,1.797
			c-1.955-1.974-6.324-2.504-9.574-1.498c-1.249,0.844-1.961,2.229-3.292,2.992c-2.823,1.563-4.788,3.989-8.078,5.09h-5.389
			c-1.775-0.52-3.824-0.767-5.687-1.198c-1.961-0.435-3.336-1.452-5.387-1.796c-0.677-0.918-1.89-1.305-2.691-2.096
			c-0.107-1.488-2.029-1.166-3.293-1.494c-2.321,3.398,1.59,6.775,2.995,9.275c2.534,1.455,4.235,3.744,5.982,5.984
			c1.381,0.713,2.394,1.796,3.591,2.691c0.998,0,1.021,0.976,2.096,0.898c0.377,0.722,1.592,0.604,2.096,1.197
			c3.287,0.899,6.827,1.553,11.072,1.496c3.126-0.564,5.356-2.025,8.38-2.693c1.516-1.375,3.192-2.59,5.688-2.993
			c1.305-0.209,1.684,0.511,2.989,0.3c1.669,1.225,3.32,2.467,5.089,3.592c3.719,0.869,7.177,2.002,11.373,2.395
			c1.092-0.204,2.175-0.416,3.59-0.298c2.85-0.845,5.896-1.486,8.08-2.994c2.508-1.283,4.492-3.087,6.88-4.489
			c1.128-1.767,2.916-2.874,4.192-4.488c1.847-1.146,2.686-3.299,4.19-4.787c-0.211-1.441,0.601-3.058,0.896-3.293
			C108.771,73.279,108.264,73.086,108.271,73.143z M36.447,82.118c-0.661-0.036-0.127-1.269-0.298-1.795h1.197
			C37.081,80.955,36.433,81.207,36.447,82.118z M39.443,81.818c-0.816,0.216,0.21-1.41-0.602-1.195
			c-0.05-0.648,1.062-0.137,1.496-0.3C40.162,80.947,39.711,81.291,39.443,81.818z M42.134,84.514
			c-0.154-0.154,0.219-0.383,0.301-0.301C42.589,84.369,42.217,84.596,42.134,84.514z M43.03,80.923
			c-0.875,0.077-0.919-0.677-1.795-0.6c0.398-0.599,1.33-0.667,2.094-0.897C43.08,79.773,42.938,80.229,43.03,80.923z
			 M43.631,88.105c0.307-0.693,1.374-0.621,2.394-0.602c1.281-0.505,2.789-1.917,4.188-0.598
			C48.703,88.21,46.218,88.674,43.631,88.105z M53.805,74.936c-0.744-0.045-0.086-1.012,0-1.196
			C54.551,73.785,53.893,74.754,53.805,74.936z M70.266,74.338c-0.934-0.385,0.754-1.679-0.602-1.795
			c0.309-0.691,1.376-0.619,2.395-0.6C71.68,72.961,70.4,73.078,70.266,74.338z M77.745,88.703
			C77.041,89.666,76.538,87.65,77.745,88.703L77.745,88.703z M78.044,78.826c-0.315-0.403-0.593-2.365-1.494-1.195
			c-0.596-0.714,0.53-2.246,0.597-3.293c1.289,0.41,1.974,1.422,3.293,1.796C79.82,77.213,78.663,77.749,78.044,78.826z
			 M87.021,80.623c0.574,0.125,1.287,0.107,1.201,0.896C87.438,81.604,86.725,81.621,87.021,80.623z M88.225,87.505
			c0.313-0.278,0.092-1.103,0.893-0.897C89.174,87.26,88.873,87.561,88.225,87.505z"/>
	</g>
</g>
</svg>
