<?xml version="1.0" encoding="utf-8"?>
<!-- Generator: Adobe Illustrator 16.0.0, SVG Export Plug-In . SVG Version: 6.00 Build 0)  -->
<!DOCTYPE svg PUBLIC "-//W3C//DTD SVG 1.1//EN" "http://www.w3.org/Graphics/SVG/1.1/DTD/svg11.dtd">
<svg version="1.1" id="Layer_1" xmlns="http://www.w3.org/2000/svg"  x="0px" y="0px"
	 width="120px" height="120px" viewBox="4 4 120 120" style="enable-background:new 4 4 120 120;" xml:space="preserve">
<g id="globe">
	<g>
		<path d="M111.639,38.224c-0.385-0.186-0.529-0.607-0.568-1.135c-0.637-0.688-1.19-1.458-1.702-2.271
			c-0.492-0.925-1.419-1.419-1.705-2.554c-1.44-1.206-2.767-2.529-3.972-3.973c-1.455-1.288-3.133-2.354-4.539-3.69
			c-1.342-1.306-2.866-2.435-4.258-3.688c-1.483-1.258-2.754-2.732-4.543-3.689c-2.031-0.332-3.481-1.247-5.674-1.418
			c-2.271-0.096-3.959-0.772-6.525-0.568c-4.131-0.254-10.008-0.59-14.192-0.283c-0.173,0.013-0.332,0.044-0.282,0.283H63.11
			c-3.67-0.263-6.117,0.696-9.081,1.135c-0.183,0.576-1.327,0.187-1.42,0.852c-0.9-0.047-0.948,0.755-1.986,0.568
			C47,19.847,43.565,22.084,40.124,24.32c-3.719,1.959-6.403,4.949-9.367,7.662c-1.17,1.953-2.721,3.522-3.69,5.676
			c-0.256,1.351-1.694,1.522-1.985,2.837c-0.984,0.623-1.215,2.001-2.27,2.554c-0.375,1.14-1.115,1.913-1.705,2.838
			c-0.49,1.116-1.012,2.201-1.699,3.123c-0.29,1.319-0.85,2.368-1.42,3.405c0.139,0.896-0.514,1.002-0.286,1.986
			c-0.75,0.102-0.254,1.446-0.849,1.703c-0.184,2.56-0.535,4.952-0.853,7.38c0.466,3.127,0.108,7.079,0.853,9.932
			c0.174,3.42,1.225,5.962,1.701,9.081c1.305,1.913,2.084,4.349,3.407,6.243c0.292,1.314,1.003,2.211,1.703,3.121
			c0.33,0.426,0.354,1.16,0.851,1.42c0.488,0.363,0.771,0.933,0.851,1.701c7.629,7.979,16.934,14.283,30.082,16.744
			c14.019,2.851,29.987,0.123,39.733-4.824c1.361-1.189,2.963-2.141,4.536-3.12c1.548-1.576,2.771-3.476,4.54-4.825
			c0.532-1.458,1.618-2.355,2.271-3.688c0.889-1.193,1.42-2.744,2.556-3.69c-0.043-0.704,0.146-1.177,0.567-1.419
			c0.154-0.504,0.144-1.178,0.564-1.419c0.357-0.968,0.611-2.038,1.139-2.837c0.599-2.047,1.263-4.033,1.985-5.961
			c1.108-4.281,2.042-8.742,2.556-13.62C116.424,55.006,114.936,45.71,111.639,38.224z M66.799,65.751
			c-6.417-0.112-13.325,0.271-19.299-0.284c-0.665-6.295,0.214-13.374,0.853-19.297c5.494,0.747,11.443,1.044,17.311,1.418
			C65.836,53.85,66.287,59.829,66.799,65.751z M54.595,22.615c1.743-0.716,4.111-0.809,5.675-1.703
			c1.05-0.181,2.829,0.367,3.408-0.285h0.851c-0.775,7.095,0.341,14.038,0.568,21.002c-5.079-0.504-10.771-0.393-15.611-1.136
			C50.598,33.943,52.49,28.171,54.595,22.615z M38.988,33.682c0.578-0.495,0.555,0.212,1.136-0.283
			c0.359-0.965,1.006-1.642,1.416-2.555c1.033-0.859,2.243-1.542,2.84-2.838c2.098-1.021,3.342-2.899,5.674-3.688
			c-1.885,4.83-3.798,9.636-4.824,15.325c-3.468-0.218-5.506-1.874-8.797-2.271C36.956,35.813,38.498,35.272,38.988,33.682z
			 M25.648,52.696c0.782-1.113,1.497-2.287,1.705-3.973c1.298-0.784,1.612-2.548,2.553-3.689c0.964-1.118,1.768-2.394,2.836-3.405
			c0.099-0.373,0.501-0.447,0.569-0.851c3.226,1.786,6.686,3.341,10.501,4.54c-1.047,6.142-1.579,12.801-1.701,19.866
			c-6.617-0.194-12.932-0.693-18.164-2.271C23.699,58.691,25.138,56.158,25.648,52.696z M33.595,90.725
			c-0.591-0.543-1.182-1.088-1.417-1.986c-1.366-0.904-1.751-2.79-2.841-3.973c-1.401-3.139-2.829-6.252-3.972-9.647
			c-0.169-0.737,0.112-1.021,0.853-0.853c-0.828-1.916-2.215-3.272-2.271-5.959c5.551,1.447,12.341,1.656,18.445,2.553
			c0.106,6.703,1.56,12.062,2.555,17.879c-3.087,1.266-6.444,2.259-9.364,3.688C34.539,92.241,34.169,91.381,33.595,90.725z
			 M45.23,100.656c-0.752-0.57-1.591-1.057-2.553-1.418c-0.519-0.809-1.561-1.09-2.271-1.703c-0.589-0.736-1.661-0.989-1.987-1.987
			c1.289-0.224,2.625-0.399,3.691-0.851c1.082-0.428,2.537-0.486,3.402-1.135c0.33-0.045,0.505,0.062,0.57,0.282
			c0.559,2.755,1.604,5.02,1.987,7.947C47.175,101.359,46.365,100.846,45.23,100.656z M47.5,70.859
			c6.315,0.308,12.912,0.33,19.583,0.283c0.188,4.256,0.681,8.211,0.853,12.486c-2.998,0.6-6.356,0.835-9.365,1.418
			c-1.113,0.688-3.147,0.451-4.259,1.137c-1.859-0.062-2.622,0.973-4.541,0.853C49.114,81.544,47.758,76.752,47.5,70.859z
			 M63.11,104.062c-1.06,0.305-0.81-0.705-1.704-0.568H58.57c-1.603-0.469-2.905-0.414-4.259-0.567
			c-0.445-0.782-0.79-1.668-1.134-2.554c-0.3-0.834-0.39-1.88-0.853-2.555c0-1.135-0.565-1.702-0.565-2.838
			c-0.49-0.647-0.269-2-0.853-2.555c0.794-1.097,2.65-1.137,4.259-1.419c1.306-0.583,3.382-0.397,4.823-0.852
			c2.48,0.209,4.078-0.462,6.53-0.283c0.457,0.08,0.487-0.271,0.85-0.284h0.568c1.146-0.013,0.237,2.03,0.852,2.555
			c-0.143,1.274,0.143,2.127,0.285,3.123v3.688c0.215,1.675,0.529,3.256,0.852,4.824C68.049,104.273,65.402,103.992,63.11,104.062z
			 M68.785,22.047c2.479,0.168,5.646-0.349,7.662,0.284c1.797,0.471,1.977,2.565,3.404,3.404c0.682,1.594,1.938,2.606,2.555,4.258
			c1.427,3.113,3.018,6.063,3.691,9.933c-4.609,1.257-9.724,2.008-15.895,1.703C69.619,35.214,68.943,28.89,68.785,22.047z
			 M70.486,47.588c6.201,0.241,11.623-0.299,16.178-1.703c0.331,0.046,0.505-0.062,0.57-0.284c0.24-0.052,0.265,0.112,0.281,0.284
			c0.976,5.455,1.215,11.65,1.135,18.163c-5.672,0.476-11.127,1.17-17.027,1.419C71.497,59.252,70.881,53.534,70.486,47.588z
			 M86.098,92.427c-0.164,1.353-0.854,2.175-0.854,3.689c-1.092,1.839-1.245,4.618-2.553,6.243c-2.416,0.801-5.871,0.564-8.229,1.42
			c-0.504-3.551-0.983-9.367-0.854-14.475c4.553,0.107,8.812-0.082,13.056-0.283C87.096,89.807,86.212,91.29,86.098,92.427z
			 M88.082,82.779c-5.096,0.012-10.021,0.19-14.759,0.565c-0.772-3.765-0.913-8.165-1.13-12.485
			c5.527-0.527,10.865-1.241,15.889-2.271h0.568C88.635,73.494,88.846,78.621,88.082,82.779z M87.799,29.993
			c-0.201-0.44-0.525-0.893-0.852-1.42c-0.264-0.422-0.52-0.845-0.85-1.417c-0.123-0.209-0.123-0.611-0.287-0.852
			c0.064,0.092-1.871-1.537-0.851-1.419c2.963,1.39,5.349,3.354,8.515,4.542c1.36,1.951,3.821,2.799,5.106,4.824
			c-0.822,1.068-2.415,1.368-3.401,2.27c-1.666,0.228-2.459,1.327-4.259,1.419C90.247,35.033,88.943,32.474,87.799,29.993z
			 M94.039,96.116c-0.703-0.044-0.875,0.446-1.416,0.567c-0.594,0.353-1.066,0.825-1.42,1.42c-0.658-0.867,0.508-2.322,0.566-3.406
			c0.297-1.219,0.518-2.514,0.854-3.689c-0.08-0.458,0.27-0.488,0.286-0.852c1.884,0.291,2.966,1.383,4.54,1.986
			C96.756,93.91,95.125,94.742,94.039,96.116z M107.096,68.872c-0.102,0.846-0.451,1.44-0.85,1.987
			c-0.51,6.396-2.572,11.242-4.824,15.893c-2.693-0.807-4.865-2.135-7.383-3.122c0.677-5.835-0.129-11.218,0.287-15.041
			c4.854-0.067,8.3-1.538,11.636-3.122c0.509,0.036,0.595-0.347,1.134-0.283V68.872z M99.717,63.481h-5.678
			c0.217-7.213-0.615-13.383-1.416-19.582c3.318-1.411,6.646-2.812,9.363-4.826c0.23,0.054,0.285,0.286,0.568,0.284
			c0.864,3.392,2.381,6.135,3.12,9.65c0.703,3.461,1.375,6.951,1.421,11.067C104.771,61.344,102.105,62.273,99.717,63.481z"/>
	</g>
</g>
</svg>
