<?xml version="1.0" encoding="utf-8"?>
<!-- Generator: Adobe Illustrator 16.0.0, SVG Export Plug-In . SVG Version: 6.00 Build 0)  -->
<!DOCTYPE svg PUBLIC "-//W3C//DTD SVG 1.1//EN" "http://www.w3.org/Graphics/SVG/1.1/DTD/svg11.dtd">
<svg version="1.1" id="Layer_1" xmlns="http://www.w3.org/2000/svg"  x="0px" y="0px"
	 width="120px" height="120px" viewBox="0 0 120 120" enable-background="new 0 0 120 120" xml:space="preserve">
<g id="graduation-cap">
	<g>
		<path d="M110.818,47.52c-2.435-1.084-4.664-2.375-6.848-3.707c-2.387-1.039-4.188-2.657-6.562-3.707
			c-2.086-1.573-4.312-2.883-6.562-3.995c-4.062-2.88-9.66-4.226-13.693-7.133c-2.637-0.79-4.352-2.497-6.848-3.424
			c-0.666-1.046-2.188-1.235-2.853-2.281c-1.319-0.488-1.647-1.971-3.425-1.999h-1.139c-5.995,2.662-10.912,6.398-15.979,9.986
			c-1.06,0.365-1.941,0.912-3.136,1.141c-0.921,1.08-2.397,1.599-3.427,2.568c-1.026,0.969-2.193,1.799-3.42,2.568
			c-2.462,1.534-4.549,3.441-7.42,4.562c-5.191,2.799-9.953,6.025-15.689,8.275c-0.748,1.727-2.397,2.549-2,5.42
			c0.291-0.074,0.189,0.162,0.285,0.285c0.531,0.667,1.362,0.371,1.715,0.856c0.404,0.733,0.666,1.614,1.71,1.713
			c2.173,1.251,4.567,2.28,7.13,3.137c1.984,1.441,5.005,1.846,6.564,3.708c-0.761,2.61,0.378,5.68,0.57,8.274
			c0.119,6.254,0.053,12.69,1.998,17.116c1.385,0.99,3.439,1.312,4.85,2.282c1.788,0.588,3.006,1.747,4.852,2.282
			c3.29,1.463,6.721,2.786,11.125,3.138c0.79,0.448,1.588,0.889,2.566,1.143c0.951-0.062,1.366-0.631,1.999-0.569
			c-0.032-0.005,0.136,0.248,0.284,0.284c0.164,0.041,0.402,0.002,0.572,0c3.95-0.069,8.29,0.054,11.979,0
			c6.979-0.914,13.244-2.541,18.545-5.135c0.94-0.481,1.053-1.804,1.998-2.283c1.385,0.058,2.727,0.063,3.422-0.569
			c1.062-6.226-1.644-11.078-1.14-17.688c-0.276-1.149-0.387-2.471-1.145-3.14c2.612-1.665,5.212-3.349,8.274-4.565
			c1.439,3.508,1.358,8.533,1.426,13.41c0.705,1.862,1.009,4.127,1.142,6.562c-0.256,1.263-0.959,2.083-1.142,3.425
			c0.595,0.072,0.078,1.252,0.57,1.426c0.564,0.197,0.76,0.763,0.855,1.427c-0.86,1.041-1.297,2.508-1.999,3.709
			c-0.744,1.252-1.416,2.573-1.14,4.851c2.168,4.09,12.619,5.481,13.979-0.283c-0.258-3.551-2.622-4.985-3.713-7.703
			c1.371-2.743,0.086-6.125-1.709-7.418c0.853-0.479,1.909-0.753,1.709-2.282c0.235-4.319-1.132-7.043-1.709-10.557
			c-0.435-1.66-1.138-3.05-1.429-4.852c-1.139-0.954-1.506-2.68-1.711-4.564c1.656-1.48,3.517-2.762,5.705-3.708
			c1.271-1.868,4.229-2.049,5.422-3.995v-3.138C115.141,50.047,112.67,49.098,110.818,47.52z M33.502,61.217
			c-0.038-0.803,0.701-0.824,1.43-0.856C34.669,60.859,34.4,61.352,33.502,61.217z M37.498,85.75
			c-0.148-0.146,0.207-0.363,0.283-0.283C37.932,85.613,37.576,85.83,37.498,85.75z M38.066,85.18
			c-0.144-0.146,0.207-0.363,0.286-0.283C38.502,85.043,38.146,85.26,38.066,85.18z M85.427,87.749
			c-0.923,0.407-1.28,1.382-1.142,2.853c-1.483,0.513-2.836,1.154-4.562,1.426c0.487-1.405,1.055-3.709-0.57-4.276
			c-1.836-0.122-2.697,0.728-3.141,1.996c-1.039,0.769-1.353,2.259-1.709,3.708c-1.674,0.04-2.76,0.668-4.566,0.57
			c0.441-1.461,1.619-2.186,2-3.709c-0.149-0.422-0.426-0.719-0.572-1.143c-2.053-0.242-2.882,0.733-3.423,1.998
			c-1.208,0.693-1.636,2.174-2.566,3.139h-3.139c0.19-1.328,1.491-1.551,1.426-3.139c-0.249-1.082-2.144-0.457-2.282,0.285
			c-0.867,0.461-1.214,1.447-1.713,2.281c-1.391-0.785,0.496-2.305,0.572-3.422c0.018-1.354,0.146-2.811-0.859-3.141
			c-1.84-0.416-1.508,1.344-2.851,1.428c-0.684,0.742-1.584,1.27-1.999,2.281c-0.57-0.285-0.449-1.262-1.426-1.142
			c-1.2,0.032-1.441,1.028-2.28,1.427c-0.346,0.891-0.534,1.938-1.996,1.713c0.915-2.984,2.862-4.938,3.709-7.986
			c-0.272-1.348-0.971-2.268-2.854-2c-1.932,0.826-2.814,2.703-3.709,4.564c-1.066-0.021-1.631,0.459-1.995,1.143
			c-0.587-0.367-0.302-1.602-1.144-1.713c-1.022-0.166-1.379,0.334-2,0.57c0.033,0.346-0.411,0.178,0,0
			c0.375-1.718,2.066-2.119,2-4.277c-0.068-0.406-0.471-0.48-0.57-0.855c-1.422-0.186-1.68,0.791-2.568,1.141
			c-0.016,0.174-0.042,0.338-0.283,0.285c-0.018,0.174-0.045,0.338-0.287,0.285c0.031,0.344-0.416,0.176,0,0
			c0.016-0.174,0.043-0.338,0.287-0.285c0.014-0.174,0.04-0.338,0.283-0.285c0.032-1.014,1.055-1.037,0.855-2.283
			c-0.065-0.404-0.471-0.479-0.568-0.854c-1.63-0.298-1.67,0.994-2.852,1.143c0.688-1.818,3.012-3.398,2.281-5.705
			c-2.006-0.293-1.96,1.465-3.426,1.711c-0.05-3.465-1.307-5.729-1.139-9.414c4.682,2.545,9.379,5.076,13.692,7.986
			c1.397,0.409,2.122,1.49,3.423,1.997c0.912,0.896,2.228,1.388,3.14,2.282c2.519,1.096,4.042,3.188,7.417,3.424
			c0.693,0.828,2.146,0.896,3.139,1.428c7.393-3.354,14.105-7.386,20.827-11.41c0.771,0.336,0,1.484,0,1.996
			c0.056,1.102,0.011,2.103-0.286,2.854c0.359,3.062,0.613,6.23,1.145,9.13C87.104,89.086,86.493,87.164,85.427,87.749z
			 M36.357,62.643c1.437-0.94,3.169-1.586,4.85-2.282c0.062-0.224,0.238-0.331,0.57-0.286c-0.03-0.344,0.414-0.176,0,0
			c-0.062,0.223-0.24,0.332-0.57,0.286c-0.992,1.102-2.168,2.015-3.426,2.852C36.906,63.426,37.236,62.43,36.357,62.643z
			 M87.141,89.174c0.15-0.438,0.299-0.018,0.283,0.287C87.273,89.898,87.127,89.479,87.141,89.174z M108.823,99.73
			c-1.722,0.008-3.517,0.09-4.853-0.285c0.406-1.971,1.455-3.299,1.996-5.135c0.333-0.047,0.51,0.062,0.572,0.281
			C107.023,96.582,108.412,97.667,108.823,99.73z M106.541,90.316c-0.9-0.242-0.814-1.473-1.713-1.713
			c0.041-0.623,0.72-0.612,1.426-0.57C106.695,88.447,106.506,89.494,106.541,90.316z M106.254,84.609
			c-0.123,0.789-0.896,0.016-0.572-0.57C105.994,84.109,105.877,84.607,106.254,84.609z M105.682,82.613
			c-0.148,0.438-0.295,0.018-0.283-0.285v-1.143C105.794,80.277,105.682,82.193,105.682,82.613z M105.398,80.33
			c-0.224,0.521-0.311-0.169-0.285-0.57C105.336,79.24,105.419,79.932,105.398,80.33z M104.828,78.904
			c-0.148-0.146,0.205-0.365,0.285-0.285C105.262,78.768,104.906,78.982,104.828,78.904z M101.404,55.509
			c-1.406,0.593-2.24,1.753-3.707,2.283c-1.334,0.189-1.836-0.449-2.854-0.57c-0.584-0.462-1.872-0.224-2.282-0.855
			c-1.74-0.352-3.545-0.639-4.852-1.427c-1.967-0.219-3.167-1.209-5.136-1.426c-1.191-0.901-3.312-0.875-4.563-1.713
			c-2.146,0.054-3.505-0.681-5.708-0.57c0.181-3.221-2.118-3.967-4.848-4.279c-3.365,0.346-4.49,2.929-7.704,3.424
			c-2.087,2.832-0.12,6.543,3.139,6.847c3.248,0.014,5.396-1.069,7.418-2.282c3.614,1.138,6.776,2.734,11.127,3.139
			c3.881,0.777,7.028,2.291,10.84,3.139c-0.262,1.258-1.676,1.365-2.566,1.995c-0.755,0.671-1.621,1.231-2.566,1.713
			c-1.639,1.312-3.547,2.354-5.137,3.709c-3.48,2.417-7.316,4.476-11.125,6.562c-0.922,0.127-1.547,0.547-2.568,0.569
			c-0.088,0.672-0.99,0.53-0.854,1.426c-0.977,0.121,0.432,1.565-0.285,1.429c-2.863-0.563-4.872-1.978-7.992-2.283
			c-0.835-0.776-1.916-1.313-2.851-1.996c-0.743-0.778-2.233-0.812-2.569-1.998c1.541-1.12,3.996-1.329,3.998-3.993
			c0.084-0.656-0.825-0.315-0.86-0.854c-2.615,0.328-3.714,2.181-5.418,3.424c-2.76-1.047-4.771-2.84-7.417-3.994
			c1.099-0.989,2.892-1.293,3.992-2.28c1.305-0.694,2.967-1.028,3.139-2.854c-0.177-1.378-1.75-1.091-2.853-0.856
			c-0.79,0.541-1.883,0.779-2.567,1.429c-0.994,0.231-1.486,1.407-2.282,1.995c-0.778,0.576-1.259,1.545-2.569,0.856
			c-0.827-0.862,0.882-0.797,1.143-1.427c1.022,0.072,1.043-0.857,1.998-0.855c0.999-1,2.899-1.094,2.852-3.139
			c-0.002-1.421-2.132-1.266-3.136-0.855c0.29-0.658,0.979-0.92,0.854-1.997c-0.45-1.506-3.148-1.333-3.998-0.286
			c-0.923-0.118-0.82-1.271-1.994-1.142c-1.612,0.386-2.943,1.05-3.992,1.999c-1.244,0.754-1.998,1.997-3.425,2.566
			c-0.7-0.728-1.878-0.975-2.853-1.425c2.47-2.383,7.117-2.583,8.845-5.707c-0.236-1.718-3.258-1.224-3.996-0.286
			c-1.595,0.404-2.665,1.328-3.993,1.998c-0.744,0.68-1.801,1.052-2.283,1.996c-0.746,1.027-2.19,0.361-3.137,0
			c0.272-0.866,1.66-0.621,2.281-1.142c0.764-0.374,1.517-0.765,2.283-1.14c1.385-0.801,3.103-1.274,3.424-3.139
			c-0.178-1.186-2.219-0.941-3.141-0.57c-0.655,0.674-1.75,0.912-2.566,1.426c-1.541,1.124-2.863,2.463-4.281,3.709
			c-0.801-0.34-1.64-0.641-2.565-0.855c1.204-1.078,2.729-1.837,4.565-2.283c0.414-0.725,1.729-0.552,1.997-1.426
			c1.056,0.012,1.021-1.07,1.713-1.428c5.101-2.884,8.938-7.033,14.548-9.414c2.189-1.805,5.365-2.621,7.702-4.278
			c2.846-1.151,5.212-2.776,7.991-3.994c1.741-1.206,3.125-2.771,5.134-3.71c0.254-0.126,0.508-0.25,0.57-0.569
			c0.331-0.048,0.505,0.063,0.571,0.284c0.899,0.237,1.446,0.832,1.993,1.427c0.719,0.425,1.574,0.712,1.998,1.427
			c1.681,0.604,2.699,1.867,4.279,2.567c2.573,1.897,5.582,3.356,8.273,5.136c1.509,0.771,2.945,1.618,4.279,2.567
			c1.522,0.759,3.078,1.485,4.279,2.567c3.027,1.439,5.516,3.426,9.129,4.279c1.06,0.939,2.267,1.731,3.422,2.568
			c1.145,0.764,2.006,1.799,3.426,2.282C104.16,54.082,102.604,54.618,101.404,55.509z M68.023,52.086
			c-1.057,0.562-1.771,1.461-3.424,1.428c-0.086-0.754,0.598-0.737,1.144-0.857c0.649-0.49,1.44-0.842,1.995-1.426
			C68.074,51.276,67.979,51.751,68.023,52.086z"/>
	</g>
</g>
</svg>
