<?xml version="1.0" encoding="utf-8"?>
<!-- Generator: Adobe Illustrator 16.0.0, SVG Export Plug-In . SVG Version: 6.00 Build 0)  -->
<!DOCTYPE svg PUBLIC "-//W3C//DTD SVG 1.1//EN" "http://www.w3.org/Graphics/SVG/1.1/DTD/svg11.dtd">
<svg version="1.1" id="Layer_1" xmlns="http://www.w3.org/2000/svg"  x="0px" y="0px"
	 width="120px" height="120px" viewBox="4 4 120 120" style="enable-background:new 4 4 120 120;" xml:space="preserve">
<g id="chart2">
	<g>
		<path d="M116.214,33.282c-0.542-0.979-0.913-2.128-1.825-2.74c-0.635-0.498-2.328-1.509-3.35-0.608
			c-2.936-0.208-5.611-0.679-8.824-0.607c-5.253,0.192-11.847-0.126-17.96,0c-6.418-0.48-12.239-1.561-18.26-2.436
			c-9.101-0.171-17.323,0.536-26.481,0.303c-1.518,0.304-1.489-0.944-2.739-0.912c-0.82-0.6-2.661-0.181-3.954-0.305
			c-0.391,0.019-0.421,0.39-0.915,0.305c-2.861,0.287-6.048,0.304-9.437,0.304c-3.369,0-6.804-0.341-9.434,0.608
			c-0.908,0.616-0.781,2.264-1.215,3.348c-0.496,1.13-0.255,2.995-0.307,4.566c0.191,3.057,0.566,5.926,0.608,9.131
			c0.512,5.983,0.24,12.744,0.304,19.174c0.702,0.82,0.109,2.935,0.303,4.262v4.869c0.686,0.132,0.125,1.499,0.307,2.13v2.436
			c-0.235,1.859,0.4,2.849,0.303,4.564c0.218,3.031,0.422,6.076,0.309,9.438c0.386,1.233,0.16,3.084,0.606,4.261
			c-0.089,1.655-0.546,2.783,0.305,3.957c1.464,2.188,5.444,1.86,9.132,1.826c3.292-0.358,6.508-0.796,9.739-1.218
			c10.843,0.922,24.001-0.467,34.393,0.912c11.343,0.424,23.429,0.108,34.394,0.914c2.229-0.205,4.443-0.426,6.996-0.307
			c2.463,0.025,4.644-0.229,5.786-1.52c1.13-1.826,0.079-4.881,0-7.307c1.011-3.857,0.447-9.291,0.912-13.695
			c0.393-7.035-0.617-13.955-0.912-21.001c-0.3-7.1,0.371-14.309,0-21.304C114.25,34.453,117.445,34.972,116.214,33.282z
			 M109.82,95.066c-13.535,2.039-28.836,0.735-43.522,0.608c-14.258-0.491-30.271-0.565-44.131,0.306
			c-0.055-10.799-1.364-20.347-2.133-30.438c0.038-5.516-0.067-10.886-0.608-15.827c0.367-5.743-1.149-9.604-1.217-14.916
			c-0.025-0.432-0.049-0.859,0.307-0.911c16.17,0.39,32.716,0.962,48.693,0.304c1.016-0.041,2.143-0.172,3.354,0
			c0.254,0.036,0.607,0.304,0.607,0.304c0.41,0.009,1.023-0.282,1.52-0.304c0.484-0.021,0.539,0.338,0.914,0.304
			c0.061-0.006,0.338-0.296,0.608-0.304c-0.021,0,0.063,0.352,0.304,0.304c0.029-0.006,0.076-0.28,0.305-0.304
			c3.587-0.381,7.953,0.341,11.869,0.304c7.014,0.899,14.562,1.266,22.521,1.217c-0.434,9.577-0.637,20.982,0.309,30.134
			C109.979,75.244,111.109,85.753,109.82,95.066z M96.43,43.933c-3.273,2.712-4.641,7.331-6.086,11.871
			c-0.685,2.364-1.445,4.644-2.434,6.695c-0.989,2.058-1.578,4.515-3.045,6.088c-1.102-1.942-2.213-3.878-3.653-5.479
			c-1.334-1.81-1.749-4.537-4.567-4.871c-2.129-0.205-2.362,1.494-3.647,2.132c-0.17,1.251-0.875,1.967-0.917,3.347
			c-0.881,1.251-1.589,2.673-2.128,4.263c-0.611,0.403-0.679,1.352-0.912,2.131c-0.817,0.301-0.38,1.854-1.522,1.824
			c0.104-1.83-1.021-2.43-0.914-4.26c-1.222-1.725-1.994-3.89-3.042-5.784c-0.742-1.696-0.805-4.067-2.133-5.173
			c-1.359-0.535-2.327-0.666-3.955-0.304c-1.341,1.197-1.932,3.138-2.131,5.477c-0.623,0.594-0.391,2.043-0.914,2.74
			c-0.188,1.13-0.723,1.912-0.91,3.044c-0.99,1.551-1.146,3.928-2.132,5.479c-0.381,2.156-0.853,4.22-1.829,5.783
			c-1.155-2.496-2.54-4.764-3.955-7.002c-0.4-0.574-0.582-1.222-0.914-1.824c-0.996-1.822-1.51-3.998-4.26-3.957
			c-3.003,0.442-3.499,3.396-5.48,4.869c-0.877,2.672-3.632,3.471-3.953,6.696c0.42,0.49,0.861,0.966,1.215,1.521
			c2.836,0.402,3.745-1.123,4.87-2.435c1.149-1.388,2.053-3.02,3.349-4.261c1.182,3.079,3.249,5.275,4.26,8.521
			c1.926,2.438,2.24,6.486,7.003,6.088c2.529-1.935,2.718-6.209,4.261-9.133c0.429-1.801,1.447-3.013,1.824-4.869
			c0.789-0.323,0.428-1.805,1.218-2.131c0.121-0.994,0.267-1.967,1.219-2.129c1.223,3.851,2.22,7.924,4.562,10.651
			c1.215,0.207,2.072,0.771,3.654,0.608c0.369-0.44,1.16-0.461,1.521-0.914c0.354-0.555,0.796-1.029,1.219-1.521
			c0.439-1.387,1.043-2.606,1.826-3.651c0.32-1.402,1.131-2.316,1.824-3.351c0.594-1.235,0.712-2.94,2.128-3.348
			c1.276,3.395,3.03,6.305,3.96,10.046c1.584,0.849,2.555,2.314,5.175,2.129c3.05-0.905,3.465-4.45,5.173-6.696
			c0.362-1.666,1.465-2.595,1.827-4.261c1.034-0.994,1.203-2.854,2.132-3.956c0.982-2.973,2.346-5.565,3.043-8.827
			c0.602-1.427,1.094-2.965,1.824-4.26c0.562-1.467,1.934-2.124,1.826-4.261C101.592,44.591,99.168,43.307,96.43,43.933z"/>
	</g>
</g>
</svg>
