<?xml version="1.0" encoding="utf-8"?>
<!-- Generator: Adobe Illustrator 16.0.0, SVG Export Plug-In . SVG Version: 6.00 Build 0)  -->
<!DOCTYPE svg PUBLIC "-//W3C//DTD SVG 1.1//EN" "http://www.w3.org/Graphics/SVG/1.1/DTD/svg11.dtd">
<svg version="1.1" id="Layer_1" xmlns="http://www.w3.org/2000/svg"  x="0px" y="0px"
	 width="120px" height="120px" viewBox="4 4 120 120" style="enable-background:new 4 4 120 120;" xml:space="preserve">
<g id="drive1">
	<g>
		<path d="M113.99,77.42c-0.194-1.202-0.68-2.111-1.284-2.902c-0.658-0.852-0.343-2.67-0.972-3.549
			c-0.325-2.572-0.955-4.848-1.934-6.771c-1.316-4.601-3.208-8.622-4.838-12.903c-3.554-8.169-6.716-16.72-10.32-24.833
			c-0.666-1.055,0.027-3.468-0.971-4.192c-0.758-0.852-1.451-1.769-2.254-2.58c-0.604-0.044-1.08-0.211-1.294-0.645
			c-3.306-0.526-8.627-0.526-11.931,0c-11.207,0.621-21.796,1.856-33.542,1.936c-1.898,0.468-4.023,0.707-5.803,1.29
			c-1.217,0.167-1.47,0.407-1.938-0.645c-0.757-0.762-1.583,0.052-2.579,0c-1.925,0.981-2.271,3.535-3.549,5.161
			c-0.59,2.31-1.661,4.14-2.255,6.45c-1.647,4.158-3.146,8.467-4.518,12.899c-0.952,1.953-1.568,4.238-2.259,6.452
			c-1.131,1.769-1.366,4.438-2.58,6.128c-0.45,2.451-1.507,4.295-2.258,6.449c-0.196,1.198-0.766,2.024-0.967,3.226
			c-0.789,0.719-0.61,2.399-1.287,3.226c-0.961,11.052-1.548,24.771,3.226,31.93c-0.051,1.638-1.912,2.19-0.972,3.87
			c1.886,1.663,6.043,1.052,9.034,1.611c11.002,0.146,21.544-0.17,31.928-0.645c6.785-0.419,13.831-0.574,20.319-1.291
			c7.273-0.031,14.867,0.247,21.283-0.646h10.322c0.678-1.79,1.003-3.938,1.934-5.481c-0.024-0.562,0.072-1.003,0.322-1.289
			c-0.351-0.077-0.771-0.532-0.322-0.646c-0.227-1.408,0.552-1.817,0.322-3.227c0.557-1.697,0.672-3.842,0.969-5.805
			C113.512,85.968,114.081,82.023,113.99,77.42z M21.752,69.68c3.05-2.113,6.321-4,9.031-6.451c1.898-0.682,3.05-2.111,4.839-2.902
			c1.177-1.294,3.208-1.738,3.548-3.87c-3.481-0.972-5.715,1.997-8.387,2.902c-2.066,1.912-4.648,3.306-6.772,5.159
			c-0.877-0.292,0.328-1.127,0.322-1.609c0.107-0.755,0.388-1.333,0.645-1.935c0.261-1.354,0.879-2.349,1.292-3.548
			c3.388-2.204,7.945-3.235,9.999-6.773c-1.132-1.481-3.06,0.176-4.517,0.323c-1.04,0.893-2.549,1.32-3.549,2.258
			c-0.981-0.398,0.35-1.109,0-1.937c0.464-0.397,0.611-1.108,0.646-1.935c1-0.502,2.164-0.844,2.902-1.611
			c1.93-1.617,3.627-3.47,5.805-4.837c1.358-2.084,3.941-2.94,4.194-6.129c-0.291-2.193-2.928-1.517-4.517-0.966
			c-1.432,0.826-3.218,1.298-4.192,2.579c-0.904-0.618,0.445-1.682,0.321-2.579c0.52-0.66,0.253-2.115,0.969-2.581
			c0.308-1.953,1.033-3.481,1.612-5.16c-0.093-0.522,0.305-0.555,0.324-0.969c12.422,0.369,24.806,0.78,37.732,0.646
			c3.983,1.5,10.142,0.824,15.481,0.968c4.781,15.213,11.803,28.19,16.123,43.862c-4.074,0.061-8.408,1.076-13.543,0.967
			c-4.857,0.842-9.91,1.488-15.805,1.291c2.688-2.043,6.092-3.371,7.421-6.773c-1.125-0.993-2.709,0.291-3.55,0.646
			c-1.146,0.465-2.078,1.146-2.904,1.936c-2.197,1.029-3.402,3.047-5.162,4.515H61.746c-1.359,0.055,0.004-0.496,0-0.967
			c0.429-0.324,0.974-0.533,1.29-0.968c1.079-0.32,1.502-1.295,2.581-1.613c1.525-1.374,3.121-2.684,3.865-4.838
			c-1.467-0.061-2.45,0.012-3.545,0.646c-0.99,0.572-2.826,1.806-3.87,2.902c-2.066,1.481-3.868,3.229-5.807,4.838
			c-3.089,0.117-5.677,0.472-9.675,0.321c1.562-1.663,3.996-2.453,5.484-4.191c1.296-0.312,1.976-1.251,2.902-1.936
			c0.966-0.541,2.158-0.85,1.934-2.58c-0.061-0.262-0.325-0.321-0.321-0.646c-1.329-1.555-3.391,0.33-4.515,0.968
			c-1.078,1.074-2.692,1.609-3.548,2.904c-1.32,0.582-2.589,1.626-3.549,2.9c-1.552,0.6-2.494,1.806-3.87,2.58h-12.9
			c2.336-1.748,5.748-2.424,8.065-4.192c2.794-1.183,5.734-2.219,6.447-5.483c-0.256-1.033-1.122-1.457-2.579-1.291
			c-1.351-0.169-1.802,0.566-2.902,0.646c-1.902,0.57-3.236,1.709-5.16,2.258c-3.211,1.63-6.553,3.125-9.354,5.16
			c-1.488,0.555-1.492,2.594-3.226,2.902C20.566,73.868,21.146,71.761,21.752,69.68z M104.316,99.674
			c-13.35,0.627-27.133,0.817-40.314,1.612c-6.186,0.8-13.273,0.702-19.671,1.29c-0.138,0.723-1.59,0.13-2.258,0.322h-2.58
			c-1.061,0.662-3.269,0.174-4.839,0.321H24.333c-0.965-3.551-2.862-6.169-3.224-10.319c-0.548-0.64-0.354-2.015-0.645-2.902
			c0.171-1.248-0.576-1.574-0.322-2.902c0.037-2.188-0.561-3.742-0.323-6.128c19.841,0.907,41.311,0.188,60.953,1.288
			c6.533-0.24,12.054-1.488,18.707-1.611c2.144-0.653,5.412-0.178,8.066-0.321C106.602,86.904,105.582,93.412,104.316,99.674z"/>
	</g>
</g>
</svg>
