<?xml version="1.0" encoding="utf-8"?>
<!-- Generator: Adobe Illustrator 16.0.0, SVG Export Plug-In . SVG Version: 6.00 Build 0)  -->
<!DOCTYPE svg PUBLIC "-//W3C//DTD SVG 1.1//EN" "http://www.w3.org/Graphics/SVG/1.1/DTD/svg11.dtd">
<svg version="1.1" id="Layer_1" xmlns="http://www.w3.org/2000/svg"  x="0px" y="0px"
	 width="120px" height="120px" viewBox="4 4 120 120" style="enable-background:new 4 4 120 120;" xml:space="preserve">
<g id="head-question">
	<g>
		<path d="M109.639,38.256c-0.553-1.659-0.957-3.472-1.812-4.837c-0.576-1.64-1.739-2.696-2.418-4.23
			c-1.438-1.183-2.748-2.491-3.929-3.928c-1.681-1.044-3.199-2.245-4.535-3.63c-3.071-2.268-6.657-4.02-9.975-6.041
			c-5.641-0.307-8.625-3.264-13.904-3.932c-4.432-0.099-9.328,0.264-13.297-0.303c-0.387,0.017-0.42,0.39-0.908,0.303
			c-3.666,1.473-7.679,2.598-11.182,4.231c-1.48,1.037-3.146,1.891-4.835,2.721c-1.621,1.003-2.937,2.304-4.536,3.326
			c-4.012,4.853-7.261,10.47-9.369,17.228c-0.747,3.242-0.107,7.234,0.305,10.275c-0.212,1.203-1.333,1.492-1.812,2.417
			c-0.599,0.919-1.219,1.804-1.814,2.723c-1.323,1.701-2.32,3.727-3.93,5.138c-1.229,1.794-2.992,3.051-3.627,5.44
			c-1.401,2.168-0.29,5.538,1.207,6.649c1.909,0.715,5.389-0.149,7.252,0.603c0.426,3.005,0.872,5.981,1.514,8.765
			c0.658,0.654,0.854,1.766,1.211,2.723c0.447,0.959,1.456,1.362,1.51,2.721c-0.515,1.297-1.03,2.597-0.906,4.533
			c0.794,3.941,1.567,7.899,3.625,10.58c2.293,1.23,5.699,1.35,9.372,1.209c1.938-0.381,3.244-1.391,5.739-1.209
			c1.678,1.947,1.827,5.429,3.325,7.554c0.813,2.917,2.179,5.276,4.232,6.952c3.579,0.529,7.252-0.846,10.883-1.209
			c3.477-0.752,6.765-1.695,10.274-2.416c0.373-0.637,1.821-0.196,2.117-0.908c1.265,0.161,1.688-0.529,2.72-0.604
			c0.709-0.299,1.482-0.533,2.416-0.606c0.441-0.666,1.977-0.237,2.418-0.905c1.819-0.299,3.354-0.88,4.535-1.812
			c1.59-0.521,3.325-0.908,4.836-1.514c-0.337-1.779-0.759-3.474-0.906-5.439c0.375-6.139-0.742-11.982,0-17.527
			c0.824-1.093,1.14-2.691,2.414-3.327c0.024-0.887,0.691-1.122,1.213-1.511c0.183-0.821,0.598-1.415,1.205-1.812
			c1.613-3.321,3.192-6.684,4.836-9.978c0.664-1.854,1.609-3.43,2.42-5.138c0.16-1.046,0.81-1.607,0.904-2.719
			c0.709-0.604,0.508-2.113,1.211-2.719c0.23-1.987,0.674-3.762,0.908-5.744C110.699,45.859,110.359,41.871,109.639,38.256z
			 M95.131,74.828c-1.886,1.842-3.59,3.865-5.138,6.045c-2.507,5.45-1.71,14.208-1.812,22.064
			c-4.145,1.797-8.955,2.934-13.902,3.928c-0.922,0.594-2.381,0.646-3.325,1.21c-0.949,0.562-2.044,0.979-3.325,1.208
			c-2.42,0.504-4.541,1.304-6.651,2.115c-1.047-2.073-2.123-4.121-3.323-6.043c-0.429-1.89-0.88-3.754-1.815-5.14
			c-0.6-1.614-0.97-3.459-2.416-4.231c-0.351,0.051-0.54-0.065-0.604-0.299c-1.404,0-2.823,0.002-3.929,0.299
			c-0.204,0.057-0.447,0.518-0.606,0.604c-0.107,0.062-0.525-0.094-0.603,0c-0.481,0.591-2.268,0.802-3.324,1.208
			c-0.087,0.037-0.064,0.244-0.303,0.303c-1.169,0.291-2.584,1.051-4.229,1.213c-1.479-0.441-1.589-2.246-2.116-3.627
			c-0.854-0.963-1.019-2.611-1.814-3.629c-0.01-1.904-0.592-3.234-0.604-5.138c3.925,0.295,6.692-0.563,7.255-3.627
			c-0.882-1.308-2.011-0.524-3.628-0.306c-1.232,0.48-2.731,0.695-4.534,0.604c-1.812-2.585-2.168-7.325-2.418-10.577
			c0.081-1.392-1.269-1.353-1.511-2.416c-0.557-0.658-0.479-1.654-1.513-2.115c-2.544-0.178-5.811,0.369-7.858-0.303
			c0.271-2.451,1.322-4.121,2.719-5.441c1.058-1.565,2.381-2.859,3.632-4.231c2.571-2.669,4.607-5.868,6.647-9.067
			c-0.249-3.762-0.133-8.525,0.302-12.996c1.35-2.072,2.272-4.579,3.326-6.951c1.364-1.456,2.564-3.076,3.927-4.535
			c5.832-4.24,12.222-7.928,21.459-8.766c1.372-0.544,3.616-0.214,5.442-0.302c4.197,0.74,8.66,1.214,12.393,2.421
			c3.934,0.999,6.535,3.335,9.973,4.833c2.628,2.511,5.424,4.854,8.464,6.952c1.664,3.476,3.58,6.697,4.838,10.581
			c-0.203,5.335,0.269,10.003,0.3,15.111C102.18,62.937,98.535,68.762,95.131,74.828z M73.37,23.144
			c-1.279-0.434-2.729-0.699-4.229-0.906c-0.572,0.536-2,0.222-3.024,0.302c-0.548,0.56-1.824,0.392-2.419,0.908
			c-1.048,0.16-1.608,0.807-2.721,0.908c-1.391,0.925-2.729,1.903-4.23,2.719c-2.335,2.398-5.251,4.219-6.348,7.857
			c-0.226,2.242,0.234,3.799,1.211,4.839c1.522,1.425,4.988,0.945,6.648,0c-0.114-1.827,0.089-3.342,0.302-4.839
			c1.968-2.567,3.865-5.204,7.856-5.743c1.771,0.821,1.526,2.52,1.212,3.93c-0.234,1.039-0.645,2.108-0.904,2.719
			c-0.469,1.15-1.219,2.009-1.516,3.327c-1.046,0.564-1.074,2.148-1.814,3.021c-0.163,0.439,0.355,1.562-0.301,1.51
			c0.204,3.225-0.521,7.371,0.604,9.672c0.958,0.421,2.67,0.421,3.63,0c0.892-0.516,2.373-0.447,2.417-1.811
			c0.889-2.752-1.419-4.793-0.908-8.161c-0.076-1.388,1.369-1.251,1.209-2.719c0.904-1.315,2.356-2.079,3.325-3.327
			c0.754-1.461,1.877-2.556,2.72-3.931c0.72-2.974,0.142-6.342-0.907-8.462C74.451,24.481,73.848,23.876,73.37,23.144z
			 M70.348,57.901c-0.234,0.07-0.599,0.009-0.604,0.304c-1.932,0.285-2.583,1.852-3.021,3.627c-0.041,3.798,3.586,5.291,6.949,3.927
			c0.141-0.966,1.15-1.065,1.209-2.112C74.784,60.318,73.174,58.505,70.348,57.901z"/>
	</g>
</g>
</svg>
