<?xml version="1.0" encoding="utf-8"?>
<!-- Generator: Adobe Illustrator 16.0.0, SVG Export Plug-In . SVG Version: 6.00 Build 0)  -->
<!DOCTYPE svg PUBLIC "-//W3C//DTD SVG 1.1//EN" "http://www.w3.org/Graphics/SVG/1.1/DTD/svg11.dtd">
<svg version="1.1" id="Layer_1" xmlns="http://www.w3.org/2000/svg"  x="0px" y="0px"
	 width="120px" height="120px" viewBox="4 4 120 120" style="enable-background:new 4 4 120 120;" xml:space="preserve">
<g id="headphones">
	<g>
		<path d="M110.244,80.459c0.684-6.114,0.111-13.488,0.3-20.096c-0.731-6.171-1.963-11.838-3.301-17.401
			c-0.479-0.419-0.767-1.032-0.899-1.797c-1.484-2.115-3.271-3.929-4.802-5.999c-1.366-2.235-3.228-3.974-4.798-6.003
			c-0.928-0.372-1.607-0.988-2.096-1.798c-1.321-0.387-2.111-1.292-3.303-1.8c-0.816-0.885-2.503-0.897-3.299-1.802
			c-7.062-1.637-13.301-4.093-22.199-3.896c-0.384,0.015-0.414,0.382-0.899,0.299c-6.72,0.379-12.252,1.942-17.099,4.2
			c-2.721,0.879-5.045,2.151-7.499,3.3c-0.828,0.968-2.106,1.492-2.998,2.4c-1.15,0.65-1.638,1.96-2.999,2.401
			c-1.492,2.004-3.885,3.116-5.102,5.396c-1.945,1.651-2.967,4.233-4.498,6.297c-1.044,2.429-2.236,5.033-3.001,7.803
			c-0.794,2.889-1.154,5.893-1.797,8.996v9.302c0.518,3.578,1.201,6.993,1.498,10.796c0.472,0.526,0.401,1.6,0.598,2.4
			c0.55,0.449,0.707,1.295,1.2,1.801c-0.803,0.496-1.075,1.522-1.798,2.098c0.196,1.563-0.354,2.711,0,3.604
			c1.088,3.611,4.518,4.878,8.4,5.696c1.293,6.405,4.294,11.104,10.196,12.899c0.529,0.174,1.764-0.365,1.802,0.301
			c1.304-0.396,2.878-0.52,3.597-1.5c1.807,0.105,3.438,0.039,4.201-0.898c0.851-1.053,1.044-2.753,0.897-4.803v-5.999
			c0.632-7.981-0.46-17.624,0.302-26.996c-0.87-0.728-1.26-1.938-2.101-2.698c-1.955-0.945-5.394-0.613-7.797-0.299
			c-2.335,1.163-4.232,2.768-6,4.496c-0.371,0.927-0.739,1.861-1.502,2.4c-0.498,1.7-1.108,3.293-1.799,4.801
			c0.095,1.19-0.691,1.506-0.6,2.697c-0.418,0.635-0.386,0.467-1.197,0.602c-0.588,0.1-1.216-0.074-1.802,0
			c-0.863-0.637-0.229-2.77-0.898-3.6c0.235-1.734-0.438-2.564-0.303-4.199c-0.66-0.037-0.126-1.271-0.3-1.801
			c-0.412-0.388-0.296-1.302-0.299-2.102c0.228-1.823-0.481-2.718-0.303-4.499c-0.005-1.807,0.516-3.087,0.303-5.096
			c1.265-6.139,2.685-12.118,6-16.203c2.983-4.514,7.177-7.816,11.397-11.095c3.521-2.082,7.796-3.404,11.699-5.099
			c3.249-0.554,6.282-1.318,9.599-1.801h5.699c6.912,1.19,13.476,2.723,18.896,5.399c2.318,1.979,4.536,4.064,6.301,6.599
			c1.709,2.691,4.096,4.706,5.398,7.799c1.221,7.042,3.473,14.438,2.398,22.798v4.199c-0.193,1.306,0.395,3.392-0.301,4.198
			c-1.674-7.123-8.014-9.584-15.597-10.799c-0.479,1.324-1.097,2.504-1.499,3.901c-0.5,0.397-0.467,1.33-0.9,1.798
			c-0.136,0.865-1.062,0.938-0.9,2.102c-0.967,5.135-0.664,11.531-1.198,17.099v8.998c0.194,1.308-0.392,3.392,0.301,4.201
			c0.375,1.222,0.759,2.437,2.101,2.698c1.365,1.15,2.041-0.943,3.598-0.603c0.732,0.869,2.66,0.539,4.199,0.603
			c0.053-0.348,0.475-0.326,0.898-0.301c6.188-2.612,8.641-8.957,10.2-16.197c3.664,0.689,6.763-1.584,7.5-4.803
			C112.047,83.454,110.876,82.225,110.244,80.459z M43.95,103.256c-0.933-0.167-1.955-0.245-2.698-0.602
			c0.495-2.006,1.657-3.34,2.398-5.098C44.346,98.861,43.752,101.455,43.95,103.256z M36.151,90.959
			c0.194-1.404-0.392-3.596,0.301-4.502v-1.198c0.097-1.103,0.738-1.661,0.9-2.698c1.25-0.554,1.488-2.108,2.698-2.699
			c0.578-1.225,2.068-1.534,2.4-3.002c-1.224-0.6-2.785,0.726-3.601,1.5c-0.77-0.506,0.256-1.721,0.603-2.102
			c0.063-1.132,0.942-1.457,1.195-2.398c1.755-1.348,3.499-2.703,6.304-3c-0.117,2.582-1.051,4.352-1.201,6.898
			c-2.238,0.661-3.722,2.08-5.4,3.301c-1.074,1.33-2.27,2.396-2.998,3.603c-0.309,0.508-0.612,1.733-0.9,1.797
			c-0.173,0.976,0.205,1.397,0.302,2.103c2.474,0.174,3.07-1.528,4.498-2.398c0.946-1.354,2.231-2.369,3.3-3.6
			c0.692,0.615,0.205,2.59,0,3.295c0.006,1.307,0.1,2.699-0.3,3.6v2.704c-0.058,1.241-1.584,1.015-1.801,2.098
			c-0.886,0.415-1.215,1.386-2.101,1.802c-0.069,0.929-0.834,1.164-1.198,1.799c-0.262,0.735-0.271,1.729-1.203,1.802
			c-1.488-2,0.588-4.259,1.804-5.401c0.643-2.156,3.004-2.594,3.298-5.101c-1.809-1.101-2.77,1.225-3.898,1.803
			c-0.682,1.517-2.052,2.349-2.7,3.897C35.762,94.148,36.342,92.166,36.151,90.959z M28.952,87.658
			c1.145-0.141,0.567,2.346,0.3,2.699c-0.571-0.129-0.755-0.646-1.498-0.599C27.529,88.436,28.726,88.53,28.952,87.658z
			 M88.646,72.357c0.269-0.184,0.537-0.361,0.6,0c2.604,0.697,4.688,1.914,6.602,3.301c0.098,1.102,1.188,1.213,0.897,2.701
			c-2.084-0.625-5.649-0.297-7.798,0C88.912,76.293,89.107,73.997,88.646,72.357z M94.044,98.759
			c-0.728,0.47-1.326,1.072-1.797,1.796c-0.562,0.043-1.004,0.199-1.203,0.602c-0.474,0.025-1.142-0.143-1.198,0.302
			c-1.203-1.194-0.338-4.463-0.601-6.601v-8.1c2.267,1.039,5.229,1.374,8.103,1.803C97.46,93.174,95.654,95.867,94.044,98.759z
			 M97.645,85.259c-2.834,0.136-5.821-0.835-8.398,0c0.229-1.628-0.369-2.429-0.299-3.899h7.498c0.35,0.047,0.533-0.065,0.602-0.301
			c0.256-0.056,0.281,0.116,0.301,0.301C97.273,82.83,97.873,83.631,97.645,85.259z M104.544,85.259c0.29-1.229-0.739-1.922,0-2.698
			c1.115,0.283,2.104,0.695,2.099,2.101C105.979,84.893,105.475,85.287,104.544,85.259z"/>
	</g>
</g>
</svg>
