<?xml version="1.0" encoding="utf-8"?>
<!-- Generator: Adobe Illustrator 16.0.0, SVG Export Plug-In . SVG Version: 6.00 Build 0)  -->
<!DOCTYPE svg PUBLIC "-//W3C//DTD SVG 1.1//EN" "http://www.w3.org/Graphics/SVG/1.1/DTD/svg11.dtd">
<svg version="1.1" id="Layer_1" xmlns="http://www.w3.org/2000/svg"  x="0px" y="0px"
	 width="120px" height="120px" viewBox="4 4 120 120" style="enable-background:new 4 4 120 120;" xml:space="preserve">
<g id="head-idea">
	<g>
		<path d="M108.924,39.396c-0.691-0.599-0.492-2.09-1.189-2.686c-0.188-1.108-0.838-1.746-1.192-2.688
			c0.008-1.596-0.638-2.543-0.894-3.876c-1.844-2.832-4.196-5.152-6.268-7.757c-2.042-1.237-3.917-2.641-5.665-4.178
			c-5.437-2.119-9.61-5.5-15.81-6.857H67.463c-0.383,0.016-0.413,0.384-0.895,0.298c-3.767,0.211-7.568,0.386-11.334,0.596
			c-0.694,0.5-1.609,0.779-2.686,0.894c-0.694,0.5-1.607,0.779-2.684,0.896c-2.175,1.898-5.146,3.01-7.157,5.07
			c-2.114,1.965-4.333,3.823-5.969,6.265c-2.004,2.071-3.666,4.487-4.773,7.456c-1.655,2.521-2.424,5.931-2.983,9.547v2.982
			c-0.104,1.698,0.625,2.561,0.599,4.177c-0.29,1.202-1.303,1.68-2.089,2.386c-0.29,1.202-1.305,1.684-2.086,2.386
			c-0.929,2.059-2.783,3.188-3.583,5.37c-1.629,1.354-2.596,3.366-3.577,5.371c-0.898,2.627-0.047,5.709,1.491,6.859
			c1.922,0.663,5.259-0.093,7.156,0.598c0.713,3.765,1.154,7.794,1.495,11.933c0.524,0.27,0.492,1.098,1.192,1.191
			c-0.054,0.848,1.95-0.359,1.491,0.896c-0.505,1.084-0.78,2.399-0.896,3.877c1.244,3.824,1.385,8.758,3.876,11.332
			c2.539,0.847,5.749,1.019,9.247,0.898c1.665-0.425,2.855-1.324,5.073-1.195c2.452,1.326,1.926,5.635,3.579,7.756
			c0.93,2.949,2.42,5.338,4.475,7.16c7.274-1.178,14.374-2.529,21.179-4.176c1.494-0.599,3.34-0.839,4.772-1.49
			c1.074,0.076,1.438-0.553,2.386-0.6c0.588-0.507,1.848-0.343,2.387-0.895c1.822-0.271,3.819-0.354,5.068-1.194
			c1.189,0.094,1.502-0.687,2.689-0.595c0.57-0.521,1.834-0.352,1.789-1.491c0.615-0.259,0.313-2.075,0-2.388
			c-0.062-0.934,0.199-2.189-0.297-2.685c-0.387-1.604-0.264-3.715-0.599-5.368c-0.1-3.979-1.108-7.048-1.194-11.037
			c0.443-0.059,0.273-0.72,0.301-1.194c1.218-2.761,3.562-4.392,4.473-7.454c1.605-2.373,2.889-5.068,4.475-7.461
			c1.185-2.793,2.439-5.516,3.879-8.055c0.717-3.256,1.891-6.062,2.387-9.545C109.934,46.739,109.549,42.952,108.924,39.396z
			 M103.557,58.188c-0.551,0.838-0.818,1.965-1.191,2.981c-0.355,0.938-1.006,1.579-1.192,2.686
			c-1.456,1.229-1.587,3.781-3.282,4.773c-0.592,2.093-2.222,3.147-3.281,4.772c-1.543,1.041-2.449,2.721-3.875,3.877
			c-0.271,1.123-0.642,2.145-1.196,2.984c0.099,1.893-0.249,4.229,0.3,5.666c-0.234,1.229,0.459,1.53,0.301,2.686
			c0.182,0.81-0.381,2.369,0.297,2.685c-0.233,2.224,0.42,3.558,0.299,5.668c0.471,0.522,0.398,1.589,0.598,2.386
			c0.184,0.811-0.38,2.368,0.296,2.687c-1.26,1.623-3.892,1.877-5.669,2.981c-2.294-0.205-3.876,0.299-5.965,0.299
			c-3.735,0.736-6.735,2.214-11.038,2.388c-4.108,0.26-7.683,1.063-11.63,1.489c-0.314-3.465-1.518-6.043-2.089-9.247
			c-1.031-1.354-1.576-3.197-2.981-4.177c-3.116-0.229-5.118,0.654-7.458,1.194c-3.396,0.22-6.071-0.687-8.652,0.298
			c-0.656-2.922,0.026-7.185-0.597-10.143c2.931-0.548,5.637-1.324,6.266-4.176c-0.041-0.854-2.049,0.258-2.089-0.598
			c-0.926-0.027-1.654,0.135-2.087,0.598c-2.071-0.277-2.532,1.052-4.475,0.896c-0.683-3.793-0.112-8.845-0.301-13.127
			c-0.221-0.874-0.902-1.281-1.492-1.791c-0.552-0.043-0.178-1.011-0.595-1.191c-0.509,0.015-0.771-0.224-0.896-0.597
			c-1.969-0.616-5.259,0.087-7.16-0.599c0.548-3.729,3.86-4.69,4.775-8.05c2.103-2.174,3.902-4.649,5.368-7.461
			c0.638-3.637,1.555-6.999,1.192-11.631c0.774-0.918,0.652-2.734,1.791-3.285c0.339-1.253,1.413-1.768,1.792-2.982
			c0.581-1.008,1.23-1.947,1.49-3.28c0.739-0.853,1.364-1.819,1.789-2.982c1.319-1.069,2.512-2.264,3.579-3.579
			c1.432-0.461,1.987-1.791,3.58-2.089c0.687-1.202,2.631-1.147,3.58-2.089c1.666-0.225,2.661-1.117,4.475-1.19
			c1.241-0.647,3.347-0.435,4.774-0.896h6.56c0.483,0.084,0.514-0.283,0.896-0.3c7.756,0.896,14.303,3,19.688,6.266
			c4.985,3.469,10.499,6.401,14.021,11.335C103.809,40.941,104.346,49.992,103.557,58.188z M63.288,28.357
			c0.296-1.264,0.527-3.262,0-4.476c-1.106-0.606-1.748,0.23-2.688,0.597c-0.204,1.2,0.288,1.703,0.303,2.686
			C61.663,27.597,61.656,28.797,63.288,28.357z M84.169,29.253c0.521-0.797,1.961-1.845,1.194-2.983
			c-0.069-0.233-0.254-0.346-0.6-0.299c-0.195,0.402-0.637,0.556-1.193,0.597c-0.445,1.542-2,1.976-2.084,3.876
			C82.368,31.037,83.379,29.695,84.169,29.253z M74.027,31.043h-6.266c-3.086,0.693-5.931,1.628-8.351,2.98
			c-2.497,1.286-4.46,3.104-6.565,4.774c-1.956,2.518-3.915,5.034-4.474,8.948v3.281c0.562,3.416,3.33,4.626,4.176,7.757
			c1.156,1.228,2.766,2.005,3.878,3.281c0.354,0.442,0.262,1.331,1.194,1.192c-0.169,0.609-0.9,0.584-0.298,1.194
			c1.117-0.224,1.452,0.335,1.491,1.192c0.555,0.041,0.996,0.196,1.192,0.598h7.456c0.741-0.354,1.758-0.434,2.684-0.598
			c0.707-0.174,2.295-0.981,2.39,0c-0.211,1.879-2.841,1.334-4.476,1.789h-5.964c-0.98,0.018-1.142,0.848-2.387,0.594
			c-0.629-0.461-1.083-1.103-0.895-2.383c-0.243-0.058-0.299-0.3-0.599-0.3c-0.889,0.532-1.123,2.181-0.595,3.282
			c-0.067,1.458,0.909,1.875,0.895,3.279c0.554,1.037,1.799,1.384,2.085,2.685c-0.191,1.785,0.79,2.397,1.192,3.582
			c0.713,0.383,1.426,0.765,2.092,1.192h3.281c0.344-0.252,0.799-0.394,1.491-0.299c1.142-1.047,3.076-1.301,3.58-2.984
			c1.066-1.018,2.593-1.579,2.387-3.874c-0.713-0.942-2.162,0.704-2.387-0.601c-2.728-1.287-6.404-0.088-9.846-0.297
			c-0.986-0.268-1.294,1.657-1.791,0.896c-0.316-0.776-0.721-1.465-0.594-2.688c1.06,0.032,1.084,1.104,2.385,0.895
			c3.646-0.035,7.605,0.245,10.439-0.594c0.08,0.871-0.675,0.914-0.595,1.785h0.299c0.184-1.011,1.904-0.478,1.791-1.785
			c-0.223-1.174-1.164-1.621-1.495-2.687c1.606-0.567,0.788-4.179,0.599-5.67c4.646-6.092,9.547-11.931,9.547-22.669
			C82.08,34.123,78.691,31.944,74.027,31.043z M71.045,73.698c0.532-0.085,0.609,0.28,0.298,0.298
			c-0.35,1.74-1.95,2.229-2.983,3.281c-1.192-0.098-1.655,0.531-2.983,0.298c-1.611-0.675-3.504-1.069-3.878-2.983
			C64.604,75.232,68.873,74.939,71.045,73.698z M74.922,51.922c-2.367,2.903-3.672,6.871-6.562,9.247
			c-2.473,0.411-5.179,0.589-7.456,1.192c-0.323-1.468-0.739-2.838-1.491-3.873c-0.998-0.896-2.272-1.51-3.283-2.39
			c-0.178-0.425-0.084-0.772-0.301-1.192c-0.214-0.421-0.668-0.93-0.893-1.789c-0.049-0.188,0.047-0.41,0-0.599
			c-0.308-1.229-0.386-4.354-0.296-6.86c0.96-1.026,1.175-2.8,2.384-3.579c0.553-1.335,1.96-1.819,2.389-3.281
			c4.63-1.892,11.104-5.491,17.299-2.983c1.072,1.016,1.769,2.407,2.088,4.176C78.468,44.929,76.756,48.487,74.922,51.922z
			 M50.462,38.497c-0.142-2.25-2.313-4.09-4.179-4.174c0,0.593-0.811,0.378-0.596,1.192C45.93,37.707,48.021,39.486,50.462,38.497z
			 M88.941,44.165c0.91,0.851,5.272,1.227,5.369-0.595c-0.982-0.211-1.908-0.479-2.981-0.596
			C90.506,43.344,88.977,43.01,88.941,44.165z M44.198,48.045c-0.945-0.066-2.368-1.194-3.283-0.299
			c-1.434-0.037-2.714,0.069-2.981,1.192v1.194C40.033,51.559,44.088,50.521,44.198,48.045z M69.85,47.746
			c-2.969-0.68-1.955,2.614-3.58,3.281c-1.15-0.158-1.455,0.532-2.686,0.299c-1.249-0.337-0.843-2.338-2.383-2.388
			c-0.461,0.435-0.264,1.53-0.298,2.388c0.69,1.599,1.099,3.474,1.786,5.071c0.456,1.931,0.722,4.052,2.686,4.474
			c1.021-0.074,0.607-1.579,1.493-1.788c0.519,0.021,0.929-0.069,1.192-0.299c0.158-2.227,0.807-3.966,0.893-6.266
			c0.47-0.024,0.234-0.761,0.896-0.597c0.08-0.871-0.675-0.914-0.595-1.789C69.943,49.829,69.87,48.762,69.85,47.746z M66.27,56.697
			c-1.277-0.414-1.631-1.75-1.789-3.284c0.352-0.343,1.057-0.336,1.789-0.296V56.697z M83.271,58.188
			c0.291,1.6,2.142,1.64,3.58,2.086c1.699,0.008,3.567,0.188,3.58-1.489C89.048,57.216,84.979,57.031,83.271,58.188z M42.41,65.941
			c0.13,1.061,1.206,1.179,1.788,1.791c3.024-0.574,5.784-2.934,5.071-6.267C46.221,61.084,43.041,62.934,42.41,65.941z"/>
	</g>
</g>
</svg>
