<?xml version="1.0" encoding="utf-8"?>
<!-- Generator: Adobe Illustrator 16.0.0, SVG Export Plug-In . SVG Version: 6.00 Build 0)  -->
<!DOCTYPE svg PUBLIC "-//W3C//DTD SVG 1.1//EN" "http://www.w3.org/Graphics/SVG/1.1/DTD/svg11.dtd">
<svg version="1.1" id="Layer_1" xmlns="http://www.w3.org/2000/svg"  x="0px" y="0px"
	 width="120px" height="120px" viewBox="4 4 120 120" style="enable-background:new 4 4 120 120;" xml:space="preserve">
<g id="head-exclamation">
	<g>
		<path d="M109.936,38.49c-1.072-2.805-2.524-5.232-3.881-7.752c-1.084-0.804-1.537-2.24-2.682-2.982
			c-1.107-0.883-2.139-1.839-3.279-2.684c-1.486-2.391-3.697-4.057-5.666-5.963c-2.473-0.809-4.637-1.926-6.859-2.982
			c-0.096-0.701-0.926-0.67-1.19-1.193c-0.209-0.59-1.663,0.073-1.792-0.599c-1.312-0.377-2.243-1.133-3.277-1.787
			c-2.375-0.112-4.037-0.934-6.265-1.192H64.311c-3.36,0.717-7.129,1.021-10.439,1.787c-0.365,0.628-1.794,0.195-2.086,0.896
			c-1.056,0.038-1.697,0.489-2.385,0.896c-1.916,0.174-2.721,1.458-4.474,1.787c-2.392,2.184-4.789,4.357-7.158,6.562
			c-0.058,1.034-1.055,1.133-1.192,2.088c-0.684,0.407-0.698,1.485-1.49,1.789c-0.594,1.693-1.595,2.978-2.684,4.173
			c-0.046,0.351,0.05,0.847-0.297,0.897c-0.682,2.798-1.842,5.117-2.387,8.051c-0.068,3.245-0.049,6.408,0.596,8.944
			c-0.124,1.173-1.312,1.274-1.492,2.388c-0.637,0.652-0.929,1.655-1.79,2.086c0.133,0.833-0.998,1.237-1.192,1.492
			c-0.197,0.264-0.11,0.66-0.296,0.895c-0.537,0.67-1.406,1.258-1.792,2.086c-1.501,1.081-2.399,2.77-3.575,4.175
			c-0.8,0.493-1.073,1.513-1.79,2.087c-0.438,0.958-1.463,1.322-1.192,2.982c0.427,0.865,0.714,1.869,1.786,2.087
			c0.602,0.796,1.189,1.596,2.089,2.088c2.17,0.118,4.858-0.283,6.562,0.301c0.881,2.597,0.729,6.229,1.191,9.241
			c0.723,1.863,2.418,2.755,2.982,4.772c-0.44,1.148-0.928,2.254-0.895,3.876c0.422,2.062,0.495,4.477,1.492,5.964
			c0.257,2.327,1.096,4.072,2.386,5.369c2.359,1.017,5.804,0.951,9.243,0.892c1.791-0.293,2.819-1.352,5.07-1.188
			c1.159,0.729,1.583,2.191,1.789,3.877c0.895,1.092,1.081,2.889,1.787,4.172c0.424,1.466,1.261,2.518,1.792,3.879
			c1.043,0.941,1.171,2.803,2.386,3.577c1.187,0.096,2.201,0.019,2.683-0.595c0.247-0.848,1.829-0.359,2.385-0.896
			c6.743-0.809,12.672-2.439,18.488-4.175c3.011-0.769,5.748-1.806,8.943-2.388c2.238-1.64,5.571-2.185,8.053-3.576
			c0.359-5.826-2.062-8.87-2.385-14.02c-0.219-3.203,0.336-5.626,0.598-8.346c0.855-0.932,1.178-2.401,2.387-2.982
			c-0.168-0.849,0.825-1,1.188-1.492c0.1-0.125-0.062-0.451,0-0.598c0.048-0.096,0.527-0.188,0.601-0.296
			c0.229-0.349,0.042-0.892,0.599-0.896c3.646-8.576,8.737-15.712,10.436-26.241C110.869,45.709,110.967,41.532,109.936,38.49z
			 M102.777,59.066c-0.256-0.055-0.282,0.116-0.299,0.298c-0.224,1.17-1.166,1.623-1.492,2.685
			c-0.741,0.651-0.868,1.914-1.791,2.385c-0.133,1.257-1.407,1.371-1.788,2.384c-0.644,0.748-0.94,1.846-1.787,2.389
			c-0.812,1.973-1.925,3.643-3.28,5.07c-0.467,0.924-1.221,1.562-1.789,2.386c-0.775,0.614-0.855,1.927-1.492,2.685
			c-0.496,7.752,0.979,13.532,1.192,20.573c-1.894-0.104-3.28,0.297-4.769,0.599c-2.379,0.602-4.241,1.725-6.858,2.086
			c-1.372,0.121-2.272,0.709-3.581,0.895c-0.996,0.396-2.52,0.262-3.279,0.896c-5.103,0.761-9.018,2.711-13.718,3.875
			c-1.039-2.041-1.729-4.434-2.386-6.858c-0.454-1.331-0.726-2.94-1.488-4.175c-0.396-0.637-0.834-0.902-1.791-1.49
			c-4.666-0.352-9.98,1.121-14.612,1.789c-0.852-1.338-1.146-3.227-1.79-4.77c0.414-1.776,0.146-4.231,0.598-5.967
			c1.502-0.087,2.949-0.23,3.875-0.894c1.629,0.135,2.856-0.126,3.282-1.194c0.306-2.885-2.164-2.863-4.473-2.383
			c-0.683,0.514-1.747,0.638-2.982,0.596c-0.731,0.902-1.941-0.226-2.983,0c-0.887-4.085,0.502-10.445-1.189-13.718
			c-0.85-1.242-2.666-1.513-4.177-2.087c-2.409,0.32-3.446-0.729-5.069-1.193c0.912-2.666,3.453-3.703,4.475-6.264
			c1.295-0.494,2.023-1.551,3.279-2.085c0.986-2.095,2.034-4.13,3.28-5.964c0.347-1.642,0.118-3.856,0.895-5.071
			c-0.251-1.142-0.391-2.395-0.301-3.878c0.312-2.273,0.969-4.2,1.194-6.561c1.201-1.777,1.744-4.221,3.279-5.664
			c0.811-2.074,2.465-3.301,3.58-5.068c2.648-2.025,4.897-4.444,8.35-5.666c2.75-1.821,6.748-2.396,10.736-2.984h4.171
			c0.483,0.085,0.516-0.281,0.896-0.295c2.601-0.115,4.438,0.529,7.156,0.295c2.155,0.232,3.705,1.069,5.963,1.191
			c1.771,1.213,3.894,2.076,6.264,2.688c0.803,0.785,2.156,1.023,2.98,1.788c0.74,0.753,1.924,1.056,2.984,1.491
			c5.206,5.331,9.419,11.651,10.734,20.873c0.244,0.746,0.815,1.174,0.893,2.089c0.28,0.219,0.453,0.542,0.6,0.894
			c0.506-0.108,0.562,0.232,0.594,0.598C105.219,52.961,102.915,54.93,102.777,59.066z M70.868,24.773
			c-2.745,0.535-5.073,1.487-7.154,2.683c0.208,8.542,2.142,15.354,2.685,23.559c0.805,0.586,1.807,0.973,2.385,1.788
			c1.838,0.082,2.129,0.215,3.877,0c2.314-2.054,2.111-6.631,2.98-10.139c-0.396-6.46,0.582-11.545,0.896-17.293
			C75.432,24.386,72.834,24.896,70.868,24.773z M70.57,59.066c-0.781,0.547-1.829,0.721-2.385,1.492
			c-0.324,0.447-0.377,1.249-0.599,1.788c-0.224,2.81,1.247,3.923,3.28,4.472c2.807,0.121,4.229-1.141,3.877-4.174
			C73.975,60.83,72.805,59.418,70.57,59.066z"/>
	</g>
</g>
</svg>
