<?xml version="1.0" encoding="utf-8"?>
<!-- Generator: Adobe Illustrator 16.0.0, SVG Export Plug-In . SVG Version: 6.00 Build 0)  -->
<!DOCTYPE svg PUBLIC "-//W3C//DTD SVG 1.1//EN" "http://www.w3.org/Graphics/SVG/1.1/DTD/svg11.dtd">
<svg version="1.1" id="Layer_1" xmlns="http://www.w3.org/2000/svg"  x="0px" y="0px"
	 width="120px" height="120px" viewBox="0 0 120 120" enable-background="new 0 0 120 120" xml:space="preserve">
<g id="love-symbol">
	<g>
		<path d="M116.264,44.07c0.452-1.785,2.786-3.56,1.18-5.604c-3.258-0.406-3.817,1.882-5.897,2.655
			c-0.881,0.594-1.458,1.493-2.36,2.064c-0.289,0.397-0.787,0.589-1.18,0.884c-0.395-0.044-1.097,0.992-1.182,0.295
			c1.008-2.532,4.262-2.818,3.836-6.783c-0.946-0.662-2.779-0.163-3.836,0c-1.467,0.794-2.254,2.27-3.833,2.946
			c0.028,0.36-0.433,0.185,0,0c0.291-1.476,2.135-1.401,1.769-3.538c-3.686-0.341-4.621,2.066-6.781,3.246
			c-1.496,1.75-3.188,3.306-4.723,5.014c-0.023,0.645,0.809,1.908,0.295,2.066c-1.093,0.125-2.457,1.09-3.244,0.59
			c0.801-10.436-5.189-14.082-13.863-15.045c-1.131,0.248-2.367,0.385-3.836,0.294c-1.039,0.335-1.838,0.915-3.242,0.885
			c-1.738,1.216-3.941,1.959-5.606,3.245c-2.12,0.828-3.408,2.494-5.312,3.54c-0.462,0.715-1.054,1.307-1.769,1.771
			c-0.662,0.515-0.677,1.681-1.769,1.771c-1.604-2.33-3.536-4.331-5.311-6.49c-0.901-0.373-1.549-1.004-2.356-1.475
			c-0.704-0.479-1.696-0.662-2.361-1.179c-1.863,0.089-3.496-0.047-5.017-0.297c-4.495,0.521-6.833,3.192-9.438,5.604
			c-0.498,1.963-2.071,2.85-2.656,4.722c-0.83,1.529-1.064,3.655-2.062,5.015c0.016,1.593-0.462,2.688-0.592,4.13v2.655
			c0.672,2.377,1.375,4.72,2.062,7.08c0.93,0.646,1.328,1.819,2.066,2.653c0.317,1.261,1.668,1.48,1.772,2.949
			c-3.82,1.395-7.883,2.541-11.506,4.129c-0.159-2.197-0.724-3.992-2.655-4.424c-3.265,0.373-3.518,3.754-5.602,5.312
			c-0.981,2.66-3.185,4.094-3.25,7.668c1.66,1.193,4.429,1.277,7.378,1.182c2.839,0.799,5.894,1.381,9.437,1.477
			c0.3-0.489,1.255-0.321,1.771-0.59c0.353-0.828,0.324-2.036,0.294-3.248c-0.876-0.594-1.725-1.221-3.241-1.18
			c-0.467-0.714-1.058-1.304-1.773-1.768c-0.423-0.166-0.72-0.463-0.881-0.889c-0.341-0.104-0.75-0.52-0.297-0.59
			c4.336-1.465,8.576-3.025,12.979-4.425c6.46,4.945,10.518,12.292,17.11,17.108c0.816,1.348,2.007,2.32,2.949,3.541
			c1.809,0.551,2.636,2.082,5.309,1.77c2.129-0.92,2.842-3.256,4.426-4.721c1.111-1.84,2.246-3.652,3.834-5.014
			c2.062-3.842,4.582-7.221,7.08-10.621c1.466-1.581,2.533-3.562,4.131-5.014c0.871-2.078,2.666-3.233,3.537-5.312
			c1.668-1.282,2.263-3.639,3.838-5.015c0.2-1.271,1.138-1.812,1.474-2.95c0.851-0.626,0.766-2.187,1.771-2.655
			c2.237-0.713,4.535-1.365,6.785-2.064c1.689,1.357,3.05,3.046,4.721,4.425c1.299,1.265,3.662,3.407,5.604,1.475
			c0.062-2.322-1.494-3.025-2.36-4.425c-0.758-0.323-1.416-0.747-1.769-1.475c-0.603-0.322-1.873-0.744-1.18-1.476
			c0.934,0.144,1.041-0.531,2.064-0.295v2.065c1.343,0.229,1.551,1.594,2.652,2.064c0.235,1.24,1.58,1.371,1.771,2.655
			c1.591-0.019,1.529,1.616,3.537,1.18c0.201-0.685,0.979-0.79,1.184-1.475c-0.481-0.602-0.623-1.545-1.184-2.065
			c-0.771-0.303-0.993-1.17-1.77-1.475c-0.767-1.399-2.431-1.896-2.951-3.54c1.338-0.531,3.527-0.208,5.312-0.297
			c0.009-0.282,0.36-0.226,0.591-0.293C113.029,46.541,114.771,45.432,116.264,44.07z M15.967,75.93
			c-0.171,0.611-0.621,0.951-0.886,1.477C14.297,76.973,15.208,75.786,15.967,75.93z M15.967,79.175h-0.886
			c-0.094-0.685,0.05-1.133,0.297-1.476C15.959,77.934,16.437,78.73,15.967,79.175z M56.972,88.908
			C56.614,88.939,56.787,88.479,56.972,88.908C58.196,88.626,57.029,89.793,56.972,88.908z M84.995,49.675
			c-4.539,1.462-8.964,3.035-13.864,4.13c-1.604,0.46-2.227,1.906-4.131,2.065c-0.428-0.852-0.303-2.255-1.477-2.36
			c-1.633-0.357-1.791,0.766-2.654,1.182c-0.073,0.91-0.301,1.666-0.588,2.358c-0.61,4.495,1.617,8.791,5.602,6.785
			c0.463-2.33-1.165-2.569-1.178-4.427c5.408-0.885,9.667-2.92,15.338-3.538c-1.5,2.628-3.283,4.978-5.014,7.373
			c-1.91,2.22-3.443,4.819-5.604,6.786c-1.623,2.508-3.63,4.63-5.312,7.08c-0.747,1.314-1.504,2.625-2.654,3.539
			c-0.193,0.789-0.846,1.121-1.18,1.77c-0.693,0.291-0.49,1.477-1.477,1.477c-0.255-1.73,0.85-3.342,0-4.72
			c-3.181-0.526-2.493,2.813-3.244,4.72c-2.044-1.299-4.396-2.289-5.901-4.129c0.318-2.078,1.663-3.91,0.887-6.195
			c-1.636-0.161-2.897,0.055-3.247,1.182c-1.064,0.312-0.452,2.299-1.767,2.357c-1.062,0.283-0.577-1.323,0-1.18
			c0-0.785-0.113-1.684,0.294-2.064c-0.273-3.026,0.815-4.69,0.882-7.375c-3.991,0.035-3.375,4.688-3.831,8.262
			c-2.155-1.092-3.744-2.748-5.31-4.426c0.193-2.692,1.615-5.617,0.884-8.26c-1.351,0.127-2.453,0.498-2.653,1.771
			c-0.929,0.546-0.511,2.438-1.183,3.245c-1.282-0.293-1.181-1.965-2.063-2.657c0.885-0.78,0.354-2.987,0.885-4.128
			c-0.179-1.789,0.474-4.408-0.591-5.309c-1.051-0.067-1.769,0.197-2.066,0.884c-0.852,0.011-0.694,1.666-1.474,0.885
			c-0.149-1.717-0.436-3.3-0.294-5.31c0.498-2.353,1.809-3.893,2.36-6.195c1.477-0.881,2.159-2.561,3.243-3.835
			c1.358-0.019,1.916-0.838,2.952-1.179c3.023,0.121,4.522,1.769,7.373,2.065c0.482,0.796,1.154,1.401,2.067,1.77
			c0.995,1.854,2.587,3.112,3.539,5.015c0.427,1.05,1.051,1.9,1.768,2.655c0.166,0.523,0.153,1.225,0.591,1.475
			c-0.472,1.161,1.275,0.104,1.178,0.885c1.211-0.236-0.15-1.214,0.591-1.77c0.507-0.379,0.368-1.403,1.18-1.474
			c-0.224-1.113,0.36-1.412,0.295-2.361c0.634-0.938,1.656-1.492,2.065-2.653c3.457-2.543,6.557-5.442,11.505-6.49
			c1.985,0.119,3.474-0.265,5.015-0.59c0.346,0.047,0.526-0.066,0.592-0.295c1.061,0.316,2.012,0.741,3.244,0.885
			c0.127,0.361,0.377,0.604,0.887,0.59c1.713,1.725,3.111,3.77,4.426,5.9C85.463,46.997,85.676,48.784,84.995,49.675z
			 M102.398,41.415c-0.018,0.182-0.045,0.35-0.297,0.295c-0.018,0.18-0.041,0.35-0.293,0.295c-0.205,1.085-0.513,2.243,0,3.245
			c-0.525,0.164-1.228,0.151-1.477,0.592c-0.521,0.17-1.73-0.357-1.771,0.293c-0.722-0.032-0.062-0.976,0.295-0.885
			c0.297-0.392,0.485-0.891,0.888-1.18c0.562-0.813,1.251-1.502,2.063-2.065c0.016-0.18,0.043-0.348,0.293-0.295
			C102.119,41.53,102.146,41.36,102.398,41.415C102.368,41.06,102.828,41.233,102.398,41.415z M110.952,49.97
			c0.101,2.753,1.597,4.109,4.131,4.425c0.506-0.281,0.595-0.978,1.181-1.18c-0.17-2.777-1.44-4.457-4.129-4.72
			C112.098,49.346,110.876,49.008,110.952,49.97z"/>
	</g>
</g>
</svg>
