<?xml version="1.0" encoding="utf-8"?>
<!-- Generator: Adobe Illustrator 16.0.0, SVG Export Plug-In . SVG Version: 6.00 Build 0)  -->
<!DOCTYPE svg PUBLIC "-//W3C//DTD SVG 1.1//EN" "http://www.w3.org/Graphics/SVG/1.1/DTD/svg11.dtd">
<svg version="1.1" id="Layer_1" xmlns="http://www.w3.org/2000/svg"  x="0px" y="0px"
	 width="120px" height="120px" viewBox="4 4 120 120" style="enable-background:new 4 4 120 120;" xml:space="preserve">
<g id="info-circled">
	<g>
		<path d="M111.301,41.772c-1.629-2.291-2.689-5.147-4.115-7.641c-1.264-2.75-3.261-4.771-4.994-7.053
			c-2.344-2.16-5.057-3.956-7.639-5.877c-1.604-0.454-2.738-1.376-4.408-1.762c-0.713-0.366-1.43-0.728-2.352-0.881
			c-0.577-0.5-1.814-0.338-2.352-0.883c-2.666-0.173-5.021-0.66-7.937-0.585c-0.981-0.388-2.196-0.543-2.644-1.471
			c-0.899,0.213-0.866-0.507-1.764-0.293c0.133-0.818-1.604,0.231-1.471-0.587h-6.756c-0.064,0.229-0.248,0.341-0.589,0.293
			c-3.841,0.271-6.634,1.595-9.99,2.351c-1.202,0.855-3.087,1.027-4.114,2.057c-1.846,0.31-3.763,0.547-5.289,1.176
			c-2.742,1.763-5.61,3.401-7.934,5.583c-1.539,0.716-2.368,2.137-3.82,2.939c-0.908,1.344-2.764,1.738-3.821,2.938
			c-1.328,2.099-2.762,4.094-4.112,6.17c-1.469,2.059-3.069,3.984-4.409,6.171c-0.131,0.751-0.413,1.352-0.882,1.762
			c-3.112,7.958-4.273,17.863-3.819,29.387c0.339,0.346,0.333,1.037,0.292,1.762c0.779,3.335,1.384,6.844,2.938,9.402
			c0.416,1.642,1.37,2.746,2.057,4.114c0.927,1.128,1.426,2.688,2.644,3.526c1.537,2.576,3.711,4.52,5.878,6.465
			c1.037,1.021,2.281,1.832,3.233,2.938c1.019,0.059,1.114,1.041,2.055,1.176c0.405,0.673,1.466,0.691,1.765,1.471
			c0.732-0.046,0.911,0.462,1.468,0.587c-0.046,0.832,1.813-0.243,1.765,0.587c1.386,0.184,1.803,1.336,3.23,1.471
			c1.908,1.229,3.859,2.412,6.174,3.232c5.384,2.059,12.031,2.854,19.687,2.645c4.312-1.072,9.316-1.455,14.396-1.764
			c0.271-0.615,1.663-0.104,1.767-0.881c0.75-0.132,1.35-0.413,1.762-0.882c1.369-0.396,2.502-1.026,3.234-2.058
			c1.258-0.504,2.205-1.319,2.936-2.352c0.927-0.84,2.025-1.502,2.648-2.645c2.016-1.512,3.19-3.859,5.287-5.289
			c0.428-1.334,1.713-1.815,2.352-2.938c0.816-0.948,1.392-2.137,2.352-2.938c0.248-1.613,1.633-2.09,1.76-3.82
			c1.11-0.85,1.094-2.828,2.058-3.82c0.478-1.484,1.354-2.564,2.062-3.818c0.727-1.229,1.018-2.897,1.764-4.114
			c0.565-5.897,2.199-10.729,2.348-17.043C115.961,52.783,113.896,47.012,111.301,41.772z M23.146,80.266
			c-1.046,0.457-0.179-0.996-0.881-0.881c0.048-0.345,0.534-0.248,0.881-0.295V80.266z M107.479,70.273
			c-0.351,4.451-2.359,7.24-3.229,11.168c-0.8,0.278-1.099,1.057-1.765,1.471c-1.646,3.84-3.828,7.139-5.879,10.578
			c-2.097,3.287-4.513,6.263-7.346,8.812c-0.65-0.423-1.414-0.736-2.645-0.587c-5.244,1.023-8.016,4.522-13.223,5.582
			c-8.781,0.165-17.15-0.086-24.682-1.175c-0.664-0.516-1.653-0.7-2.353-1.176c-0.711-0.365-1.43-0.729-2.353-0.881
			c-0.433-0.811,0.5-3.02-0.881-3.526c-1.573-1.127-1.941,1.08-3.231,1.176c-0.913-0.85-2.132-1.396-3.232-2.057
			c0.166-2.388,1.68-4.642,0.881-7.054c-1.57-0.299-2.142,0.404-2.644,1.177c-0.349,0.924-0.994,1.555-1.177,2.644
			c-0.971-0.104-1.272-0.88-1.761-1.469c-0.729-0.352-1.149-1.005-1.469-1.764c0.002-2.149,0.398-3.909,0.882-5.582
			c0.079-1.518,1.039-4.719-0.59-5.291c-2.263-0.206-2.601,1.514-3.233,2.939c-0.887-0.445,0.244-1.289,0-2.058
			c-0.062-0.945,0.52-1.243,0.298-2.351c0.245-1.518,0.776-2.748,0.877-4.408c0.386-2.426,2.506-5.688,0.883-8.228
			c-1.925,0.815-2.623,2.862-3.526,4.701c-0.768-0.505,0.414-1.521,0-2.646c0.553-0.428,0.032-1.924,0.588-2.351
			c0.317-1.739,0.735-3.381,1.178-4.995c-0.409-0.375-0.184-1.388-0.591-1.765c-0.261-0.128-0.526-0.257-0.587-0.587
			c-0.526,0.083-0.604-0.278-0.295-0.294c0.656-2.871,2.417-4.637,3.233-7.346c0.854-0.908,1.246-2.284,2.058-3.233
			c0.227-1.187,0.746-3.197-0.589-3.818c-2.85-0.014-3.093,2.585-4.407,4.114c-0.798,1.943-1.996,3.487-2.646,5.583
			c-0.734-0.95-0.144-3.072,0.295-3.821c0.235-1.231,0.799-2.138,1.177-3.232c0.603-2.333,1.757-4.122,2.936-5.877
			c2.96-3.013,5.674-6.275,9.109-8.815c0.582-0.203-0.071-1.639,0.587-1.763c4.828-1.736,9.441-3.684,14.106-5.583
			c4.325-2.237,8.926-4.197,14.104-5.582c2.771,0.362,5.955,0.314,9.109,0.292c3.57,0.249,6.798,0.843,9.99,1.471
			c4.508,2.251,8.852,4.666,12.342,7.934c1.797,2.608,3.414,5.401,4.994,8.228c1.146,3.163,1.93,6.691,2.352,10.577
			c-0.092,4.208,0.035,8.195,0.588,11.754c0.143,1.424,1.489,1.646,1.764,2.938v6.172H107.479z M57.232,46.179
			c1.885,2.126,6.349,2.927,10.284,2.059c1.78-0.964,3.211-2.273,4.405-3.821c0.451-1.9,1.065-3.638,0.884-6.171
			c-0.541-0.043-0.183-0.996-0.587-1.176c-0.395-0.193-0.549-0.627-0.59-1.174c-2.11-1.905-4.747-3.283-9.105-2.939
			c-1.073,0.302-1.821,0.925-2.94,1.176c-2.009,2.302-3.602,5.018-3.232,9.697C56.866,44.392,56.974,45.36,57.232,46.179z
			 M63.698,39.715c1.493-0.026,3.067-0.129,3.817,0.587c-0.082,0.476,0.28,0.505,0.297,0.881c0.023,2.515-2.938,3.472-5.289,2.645
			C62.742,42.288,63.02,40.799,63.698,39.715z M75.451,69.395c0.633-0.543,1.447-0.903,2.055-1.47
			c1.491,0.218,1.82-0.729,2.645-1.176c1.043-3.105,1.732-9.84-0.584-12.048c-5.137-1.23-12.437-0.297-18.511-0.586
			c-3.794,1.007-10.4-0.797-12.931,1.469c-0.729,1.328-0.656,3.457-1.175,4.995c0.901,2.818,0.261,7.182,2.351,8.815
			c0.822,0.352,2.026,0.322,3.231,0.295c0.642,1.093,2.407-0.688,2.939,0.291c-0.352,4.645-0.046,9.947-0.589,14.398h-5.287
			c-0.46,0.518-0.962,0.684-1.471,1.176c-0.68,0.66-1.115,1.469-1.47,2.059c-0.119,4.72,0.154,9.054,2.646,11.166
			c0.862,0.31,1.944,0.404,2.644,0.882c7.934,0.196,15.19-0.283,21.747-1.472c2.209-0.041,4.764,0.263,6.168-0.586
			c1.231-1.607,1.279-4.403,1.175-7.346c-0.554-2.091-0.858-4.432-2.349-5.584c-0.896-0.281-1.761-0.594-2.646-0.881
			c-0.99-0.188-2.729,0.376-3.233-0.294V69.1C73.943,68.941,74.24,69.625,75.451,69.395z M56.351,91.139
			c-0.251-0.054-0.277,0.113-0.295,0.295c-0.32-0.072-0.2-0.584-0.585-0.589c0.046-0.345,0.533-0.249,0.881-0.295L56.351,91.139
			L56.351,91.139z M68.104,69.689c-1.112,2.021-0.896,5.367-1.469,7.932v2.059c0.243,0.829-0.412,0.76-0.293,1.469v4.113
			c0.213,0.898-0.506,0.863-0.293,1.762v0.883c0.276-0.018,0.221,0.089,0.293,0.294c0.381,1.092,1.018,1.821,2.059,2.351h3.521
			c0.993,0.188,2.73-0.378,3.234,0.295c0.546,2.311-2.303,1.223-3.819,1.471c-1.397,0.268-2.661,0.668-4.41,0.586
			c-0.165-1.791-1.192-2.721-0.878-4.995c-0.378-0.015-0.408-0.376-0.881-0.293c-1.728,0.134-1.671,2.052-2.645,2.938
			c-0.084,0.995-0.467,1.688-0.296,2.94h-2.644c0.58-1.87,0.578-4.322,1.472-5.878V77.327c0.623-1.921,1.681-3.409,2.054-5.582
			c0.064-1.527-1.312-0.739-1.762-1.177c-0.413-1.588,0.794-1.558,0.881-2.645c-1.265-0.888-1.144-3.165-3.524-2.939v-1.468
			c-2.066,0.288-4.185,0.519-5.88,1.175c-0.413-1.542-0.87-3.045-0.879-4.996c7.863,0.004,15.54,0.641,23.212,0
			c-0.003,1.278-0.101,2.644,0.295,3.527c-2.412,0.161-3.986-0.519-6.468-0.293c-0.129,1.111-0.602,1.917-0.584,3.819
			c-0.164,0.524-0.151,1.22-0.588,1.47C67.689,68.926,68.348,68.857,68.104,69.689z"/>
	</g>
</g>
</svg>
