<?xml version="1.0" encoding="utf-8"?>
<!-- Generator: Adobe Illustrator 16.0.0, SVG Export Plug-In . SVG Version: 6.00 Build 0)  -->
<!DOCTYPE svg PUBLIC "-//W3C//DTD SVG 1.1//EN" "http://www.w3.org/Graphics/SVG/1.1/DTD/svg11.dtd">
<svg version="1.1" id="Layer_1" xmlns="http://www.w3.org/2000/svg"  x="0px" y="0px"
	 width="120px" height="120px" viewBox="4 4 120 120" style="enable-background:new 4 4 120 120;" xml:space="preserve">
<g id="home">
	<g>
		<path d="M105.146,107.059c-2.418-0.149-5.64,0.502-6.854-0.854c0.314-11.496,0.824-25.033-0.57-35.703
			c5.664-0.084,9.379,0.074,14.282,0.569c-0.567-1.435,0.067-2.088,0.288-3.428c-0.501-1.69-1.506-2.877-2.287-4.285
			c-0.475-1.717-1.98-2.399-2.857-3.712c-1.823-2.558-4.192-4.568-5.998-7.142c1.16-1.219,0.312-4.447,0.568-6.569v-7.427
			c0.498-1.883,0.217-4.545,0.287-6.854c0.174-2.649-0.072-4.879-1.428-6c-1.993-0.766-4.846-0.675-7.426-0.856
			c-0.742-0.766-2.73,0.151-3.146-0.287c-1.366,0.059-2.144,0.71-3.138,1.143c-0.891,2.064-1.057,4.849-1.432,7.426
			c-0.914-0.798-2.022-1.403-2.285-2.856c-1.078-0.731-1.889-1.728-2.57-2.856c-1.055-0.942-2.372-1.624-3.139-2.857
			c-1.356-0.739-1.84-2.352-3.432-2.854c-0.787-1.209-2.129-1.87-3.139-2.858c-1.314-0.783-1.876-2.314-3.717-2.57
			c-0.117-0.635-1.516-0.223-1.713,0c-0.508-0.254-0.727-0.797-1.713-0.571c-0.359,0.117-0.587,0.368-0.572,0.857
			c-0.935,0.777-1.677,1.75-2.286,2.857c-2.204,1.89-4.087,4.098-6.566,5.711c-1.263,2.737-3.213,4.786-5.143,6.855
			c-1.73,2.366-3.736,4.455-5.428,6.856c-4.404,3.784-7.501,8.873-11.711,12.853c-1.602,0.398-2.238,1.761-3.712,2.286
			c-2.064,2.316-4.272,4.487-6.569,6.568c-0.647,0.347-1.116,0.953-1.714,1.43c-0.682,0.541-1.458,0.819-2.001,1.427
			c-0.088,0.103,0.058,0.444,0,0.572c-0.039,0.09-0.499,0.186-0.569,0.286c-0.563,0.812-1.029,1.52-1.142,2.285
			c-0.089,0.581,0.06,1.027,0,1.715c0.662,0.535,1.216,1.18,2.285,0.569c1.428-0.192,2.209,0.266,3.427,0.286
			c1.056,0.184,2.844-0.37,3.426,0.287c1.056,0.182,2.846-0.371,3.43,0.283c-0.545,6.502-0.594,13.498-1.715,19.426
			c0.53,5.457,0.006,10.406,0.286,16.279c-0.176,0.774,0.362,2.266-0.286,2.57H20.6c-0.966,0.079-1.641,0.454-2.855,0.284
			c-0.715,0.428-1.285,0.999-1.716,1.715c-0.285,2.383,1.576,2.617,2.285,3.999c8.392,0.378,16.938,0.252,24.566-0.855h6.857
			c10.202-0.793,21.628,0.797,31.417-0.285c1.552-0.22,2.215,0.451,3.715,0.285c1.389,0.245,1.467-0.818,2.855-0.572h7.998
			c1.092,0.24,2.293,0.373,3.713,0.287c0.67,0.758,3.067-0.211,3.715,0.569c2.887-0.221,4.951,0.382,7.709,0.286
			c3.19,0.426,4.883-0.643,5.141-3.145C115.594,106.139,109.115,107.854,105.146,107.059z M90.869,29.082
			c2.344-0.062,4.352,0.215,6.279,0.571c0.558,5.983-1.203,9.649-1.713,14.568c-1.437-0.182-2.062-1.174-2.572-2.286
			c-0.915-0.698-1.805-1.431-2.281-2.57C90.742,36.001,90.996,32.734,90.869,29.082z M70.018,107.059
			c-4.865,0.187-9.692,0.404-14.854,0.287C55.341,99.656,57,92.127,56.02,84.209c0.713,0.145,1.172,0.541,1.712,0.855
			c4.564,0.196,8.747,0.776,13.711,0.574C70.348,91.982,69.616,100.165,70.018,107.059z M90.582,106.773
			c-1.215-0.168-1.893,0.207-2.857,0.285c-0.291-1.859,1.33-2.524,0.572-3.998c-2.652-0.894-4.427,1.442-4.568,3.998h-4.86
			c0.569-2.67,2.733-3.742,2.858-6.854c-2.385-0.642-3.471,2.147-5.143,3.142c-0.836-0.242,0.374-0.72,0-1.428V96.49
			c0.27-4.967,1.1-9.373,1.145-14.567c-0.057-0.229-0.287-0.284-0.283-0.569c-0.188-0.864-1.301-0.797-1.717-1.429
			c-4.182-0.181-9.141,1.117-12.28-0.571c-3.442,0.178-7.604-0.365-10.571,0.285c-1.017,0.314-0.748,1.918-1.142,2.856
			c-0.254,1.075-0.245,2.418-0.571,3.428c-0.172,2.397-0.463,4.677-0.858,6.854c-0.557,4.677-1.351,9.121-1.424,14.279
			c-1.903-0.431-3.708-0.637-5.715-0.283c0.56-2.106,2.202-3.133,2.571-5.428c-0.168-0.596-0.6-0.924-0.856-1.428
			c-2.875-0.111-3.565,1.956-4.857,3.427c-0.623,0.806-1.065,1.788-1.711,2.569c0.043,0.712-0.452,0.887-0.574,1.43
			c-0.501,0.164-1.679-0.346-1.712,0.285c-0.958-0.792,0.736-1.336,0.854-1.999c0.442-0.608,1.034-1.063,1.432-1.714
			c0.991-1.102,2.192-1.994,1.998-4.284c-0.915-1.882-3.15-0.641-4.569,0c0.684-1.124,1.535-2.081,1.998-3.428
			c0.701-1.106,1.88-1.74,1.716-3.714c-0.126-0.826-0.604-1.303-1.429-1.428c-2.958,0.279-3.634,2.84-5.142,4.569
			c-0.718-0.462,0.504-1.375,0.572-2c0.421-0.625,0.557-1.539,1.14-1.998c0.19-1.812,1.489-2.512,1.145-4.854
			c-0.379-0.75-1.267-0.547-2-0.287c0.989-2.344,3.195-3.467,3.713-6.285c-0.003-1.041-0.812-1.281-1.143-1.998
			c-1.537-0.202-2.442,0.225-3.427,0.572v-9.143c1.724,0.086,3.846-0.229,5.142,0.285c6.833-0.019,13.885,0.178,19.991-0.568
			c4.23,0.369,8.256-0.823,12,0c4.859-0.006,9.541,0.166,13.994,0.568h5.713c0.117,9.406-0.447,19.491,0.857,27.706v9.144H90.582z
			 M94.012,63.073c-2.541-0.034-5.299,0.152-7.43-0.286h-9.137c-2.069-0.313-4.332-0.43-6.286-0.856
			c-13.629-0.202-26.373,0.475-39.988,0.284c-0.731,0.013-0.35-0.212-0.288-0.571c0.254-0.125,0.51-0.25,0.572-0.571
			c0.503-0.258,0.883-0.639,1.143-1.142c2.547-2.118,4.591-4.736,7.14-6.855c4.157-5.225,9.481-9.225,13.712-14.568
			c1.348-1.705,2.466-3.542,3.998-5.14c2.621-3.569,6.009-6.37,9.14-9.428c0.16-0.411,0.447-0.697,0.857-0.855
			c0.242-0.054,0.268,0.111,0.287,0.285c1.416,0.581,2.272,1.726,3.427,2.571c0.987,0.915,1.677,2.13,2.854,2.857
			c1.91,1.992,4.197,3.612,5.715,5.997c3.887,3.92,7.455,8.16,11.142,12.283c1.351,2.836,2.75,5.626,4.567,7.998
			c0.555,1.541,1.684,2.507,2.57,3.712c0.626,1.468,1.816,2.371,2.857,3.428c-0.766,0.571-2.52,0.148-3.43,0.572
			C96.303,62.892,94.7,62.524,94.012,63.073z"/>
	</g>
</g>
</svg>
