<?xml version="1.0" encoding="utf-8"?>
<!-- Generator: Adobe Illustrator 16.0.0, SVG Export Plug-In . SVG Version: 6.00 Build 0)  -->
<!DOCTYPE svg PUBLIC "-//W3C//DTD SVG 1.1//EN" "http://www.w3.org/Graphics/SVG/1.1/DTD/svg11.dtd">
<svg version="1.1" id="Layer_1" xmlns="http://www.w3.org/2000/svg"  x="0px" y="0px"
	 width="120px" height="120px" viewBox="4 4 120 120" style="enable-background:new 4 4 120 120;" xml:space="preserve">
<g id="slider2">
	<g>
		<path d="M118.6,98.4C118.2,97.1,118,95.7,117.7,94.3C117.5,75.4,118,53,117.4,36.5c0.1-3.4-0.301-6.3-0.601-9.4
			c0-3.3,0.3-7-1.2-8.7c-1.5-1.4-3.6-1.2-5.6-1.2c-16.3-0.5-33.6,0.4-49.3,0c-0.4,0-0.4,0.4-0.9,0.3C51,17.3,43,18,35.1,18.8
			c-4.1,0.2-8.9-0.3-12.5,0.3c-4.3,0.1-9.2-0.5-11.9,1.2c-1.3,2.2-1,6.1-1.6,9.1v10.9c0.4,6.8,0.8,13.6,1.3,20.3
			c0.8,6.4,0.9,13.5,1.2,20.3c0.2,3.399-0.4,7.699,0.3,10.6c0,3.7,0.1,7.2,0.9,10c0.8,1.1,1.6,2.4,3.7,2.2c-1.2,1-3,1.399-2.5,4.1
			c1.1,1.5,2.6,2.601,5.3,2.5c2.1,0.601,5.2,0.2,7.8,0.3c5.5-1.1,11.9-1.199,17.5-2.199h33.7c5.5,0,11.101,0.3,16.601,0.3
			c5.899,0,11.6,0.3,16.899-0.3c1.7-0.301,2.101-1.9,2.8-3.101c2.301,0,3.7-0.899,4.101-2.8C119.6,101.4,118.4,99.8,118.6,98.4z
			 M105.2,24.1h1.899c-0.3,2.1-1.6,3.2-1.899,5.3c-1.101,1.2-1.101,3.5-1.9,5c-0.7,0-0.899-0.5-1.899-0.3
			C102.3,30.4,104.2,27.7,105.2,24.1z M87.4,25c0.1-0.4,0.5-0.5,0.6-0.9h1.9c-1.101,3.1-2.9,5.4-2.5,10H84
			C84.7,30.7,86.5,28.3,87.4,25z M78,24.1h4.1c-0.699,1.8-2,3-2.5,5c-1.199,1.2-1.399,3.4-2.199,5H74C74.8,30.3,76.7,27.5,78,24.1z
			 M69,24.1h2.8c-1.8,3.2-3.8,6.2-5,10H64C65.4,30.6,66.9,27,69,24.1z M57.7,30.7c0.1-0.2,0-0.6,0.3-0.6c0.1-0.2,0-0.6,0.3-0.6
			c-0.1-1.4,0.9-1.6,0.9-2.8c0.8-0.6,0-2.7,1.9-2.2c-0.8,1.8-1.8,3.4-2.8,5c-0.1,0.2,0,0.6-0.3,0.6C58,30.3,58,30.7,57.7,30.7
			C58,32,56.8,30.7,57.7,30.7z M57.4,31.6c0.2,0.2-0.2,0.4-0.3,0.3C56.9,31.8,57.3,31.5,57.4,31.6z M56.8,32.2
			c0.8,0.4-0.2,1.6-0.3,2.2C55.5,33.8,57,33.1,56.8,32.2z M49,30c0.9-1.6,1.7-3.3,2.8-4.7c-0.1-0.5,0.3-0.5,0.3-0.9H54
			c-1.7,3.3-4,6-4.7,10.3c-1.2-0.1-2.3,0-3.1,0.3c0.3-1.1,1.1-1.6,1.6-2.5C48.1,31.7,48.6,30.9,49,30z M43.4,25
			c0.3-0.1,0.3-0.3,0.6-0.3c0.5-0.5,1.8-0.2,2.8-0.3c-1.1,3.7-6.2,6-4.1,10.9c-1.9-0.2-2.9,0.4-4.7,0.3c1.2-1.5,2.1-3.3,2.8-5.3
			C41.9,28.8,42.7,27,43.4,25z M32.7,30.7c0.9-1.6,1.3-3.7,2.2-5.3c1.3,0.2,2.1-0.2,3.1-0.3c-1.2,3.4-6,6.1-3.7,10.9
			c-1.4-0.2-1.9,0.6-3.4,0.3C31.2,34.1,32.4,32.8,32.7,30.7z M25.2,25.4h3.4c-1.3,4.2-4.3,6.7-4.7,11.9h-2.8
			C22.2,32.9,23.9,29.3,25.2,25.4z M15.2,28.5v-3.1h4.1c-1,2.6-2.8,4.3-3.4,7.2C15.1,31.7,15.9,29.4,15.2,28.5z M16.2,37.8
			c0.2,0.2-0.2,0.4-0.3,0.3C15.7,38,16.1,37.8,16.2,37.8z M77.7,100.9c-11.3,0-22.8-0.601-33.4,0c-1.5,0.1-2.9,0.5-4.4,0.6
			c-4.5,0.5-9.2,0.5-13.4,1.6c-3.3,0-6.5-0.1-9.1,0.601c-0.8,0-0.5-0.4,0-0.3c0.1-0.4,0.5-0.5,0.6-0.9c0.7-0.3,0.9-0.9,0.9-1.9
			C18.3,91,18.5,80.5,17.7,71c-0.3-10-1.7-18.9-1.9-29c2.5-0.1,4.2,0.6,6.6,0.6c6.7-0.2,12.8-0.9,19.4-1.2c0.5,0.1,0.5-0.3,0.9-0.3
			c11.5-0.1,22.8,0.1,33.7,0.6c10.8,0.6,23.199-0.3,33.399,0.9c0.2,2,0,4.1,0,6.2c-0.1,14.9,0.101,31.3,0,46.5
			c0.3,2.101,1,3.8,1.2,5.9C100.3,101.6,89,100.9,77.7,100.9z M83.6,55.7c-1.6-0.2-3.899,0.3-5-0.3c0.601-1.8,0.301-4.7,0-6.6
			c-1-0.7-1.6-1.7-3.399-1.6c-0.4,0-0.4,0.4-0.9,0.3c-1.7-0.2-2.399,0.5-4.1,0.3c-0.101,0.9-1.5,0.6-1.9,1.2
			c-1.1,0-1.2,1.1-1.899,1.6c-0.2,2,0.399,3.2,0.3,5c-4.4,0.1-9.5-0.3-13.4,0.3H41.8c-3.8,0-7.9-0.6-10.3,1.2
			c-0.1,0.9-0.6,1.3-0.6,2.2c0.2,0.6,0.5,1.1,0.6,1.9c2.1,1.8,5.5,1.2,9.1,1.2h10.3c1,0.2,1.1-0.6,2.2-0.3H59c0.8,0.4,1.3-0.9,1.6,0
			c2.7,0.2,5.6-0.3,7.5,0c0.301,3.3,0.9,6.2,2.801,7.8c1.6,0.399,2.1-0.101,4.1,0c2,0.3,2.4-0.9,3.4-1.601c1-1.8-0.5-4.6,0.3-6.2
			c2.8-0.2,6.2,0.3,8.399-0.3c0.5-1,1.7-1.2,1.601-2.8c0.3-1.3-0.601-1.5-0.601-2.5C87.1,55.8,85.6,55.4,83.6,55.7z M73.6,55
			C73,54.5,73,53.4,73,52.2C74.3,52.1,73.4,54.2,73.6,55z M82.1,76C80,75.9,77.9,76,76.2,76.3h-7.8c-2,0.601-5.2,0-7.2,0.601h-3.7
			c-1.2-0.2-3.1,0.399-3.7-0.301c-0.5-2.3-0.2-5.399-1.6-6.899c-1,0-1.2-0.9-2.5-0.601C48,70.3,45.9,69.5,44,70
			c-0.2,0.4-0.5,0.8-0.9,0.9c-0.9,1.8,0.7,4.6-0.3,6.6c-4,0-8.6-0.7-8.4,3.4c1.1,2.3,5.5,1.399,8.7,1.6c0.5,2.4,0.8,5,2.2,6.6
			c2.5,0.9,6.9,0.601,8.4-1.199c0.7-1.9-0.2-3.4,0-5.601c8,0.601,17.399-0.399,25.3,0c3,0.101,6.3,1.101,8.4-0.899
			C88.1,80,87.6,78.1,87.1,77C86,76,84.2,75.8,82.1,76z"/>
	</g>
</g>
</svg>
