<?xml version="1.0" encoding="utf-8"?>
<!-- Generator: Adobe Illustrator 16.0.0, SVG Export Plug-In . SVG Version: 6.00 Build 0)  -->
<!DOCTYPE svg PUBLIC "-//W3C//DTD SVG 1.1//EN" "http://www.w3.org/Graphics/SVG/1.1/DTD/svg11.dtd">
<svg version="1.1" id="Layer_1" xmlns="http://www.w3.org/2000/svg"  x="0px" y="0px"
	 width="120px" height="120px" viewBox="4 4 120 120" style="enable-background:new 4 4 120 120;" xml:space="preserve">
<g id="promote">
	<g>
		<path d="M115.365,55.56c0.139-0.904-0.52-1.012-0.288-2.003v-7.728c-0.874-5.903-0.228-13.321-2.291-18.033
			c-1.289-0.428-1.974-1.462-3.722-1.431c-1.945,0.038-2.53-1.283-4.578-1.146c-0.409,0.068-0.48,0.471-0.86,0.573
			c-0.503,0.543-1.417,0.677-2,1.145c-0.007,0.472-0.796,0.159-0.86,0.572c-0.447,0.124-0.244,0.902-1.145,0.57
			c-0.862,1.334-2.229,2.164-3.721,2.864c-5.588,0.612-10.426,1.98-15.742,2.862c-3.1,0.814-6.34,1.485-9.731,2.002
			c-0.198,0.565-1.595-0.07-1.718,0.574c-0.992-0.23-1.1,0.425-2.003,0.286c-0.513,0.347-1.665,0.053-2.005,0.572
			c-5.357,0.937-9.785,2.806-14.596,4.293c-4.791,1.507-9.078,3.519-14.6,4.295c-1.964,1.66-5.178,2.07-7.729,3.146
			c-1.647-2.438-5.173-4.251-9.156-3.434c-0.121,0.543-0.619,0.721-0.574,1.433c-0.808-0.049,0.239,1.763-0.574,1.716
			c-0.029,0.731-0.523,1.001-0.856,1.432c-0.263,0.502-0.098,1.427-0.572,1.717c0.175,5.451-0.362,11.62,0.288,16.601
			c0.451,0.693,1.023,1.268,1.715,1.719c0.411,0.828,1.957,0.521,2.291,1.433c1.324,0.024,2.792,0.563,4.579,0.856
			c1.472,0.291,2.296-1.144,3.15-0.574c1.96,0.615,3.726,1.427,5.724,2.007c1.176,0.157,1.852,0.819,3.146,0.856
			c0.625,0.715,2.258,0.412,2.579,1.432c-0.888,4-0.625,9.621-0.288,14.025c0.611,0.629,0.335,2.144,1.145,2.574
			c0.08,1.16,0.492,1.989,0.574,3.151c1.465,1.394,2.28,3.438,4.005,4.578c9.174,0.182,19.455,1.842,28.05,0
			c0.793-1.308,1.252-2.944,1.145-5.151c0.181-0.871-0.367-2.466,0.289-2.861c0.18-0.871-0.367-2.469,0.285-2.864
			c2.062-0.155,2.166,1.651,4.293,1.431c1.334,0.666,2.586,1.424,4.293,1.717c0.688,0.937,1.736,1.512,2.574,2.293
			c1.027,0.166,1.389-0.336,2.006-0.574c0.057,0.896,0.738,1.171,1.145,1.716c4.895-0.601,5.906,2.684,10.305,2.577
			c0.354,1.078,1.242,1.619,2.005,2.291c2.998,0.723,4.511,2.933,7.726,3.435c2.904-1.011,4.418-3.405,4.58-7.155
			c0.062-0.347,0.318-0.175,0.574,0c0.332-0.048,0.312-0.451,0.285-0.859c0.521-2.243,0.895-4.641,1.432-6.868
			C116.229,77.785,115.443,67.023,115.365,55.56z M22.912,68.152h-2c-0.537-4.712-0.636-9.863-0.574-15.169
			c0.225-1.492,1.515-1.922,2.002-3.15c0.335-0.045,0.512,0.064,0.572,0.288c-1.015,4.129-0.631,10.881-0.284,15.455
			c0.02,1.318,1.386,1.285,1.431,2.576C24.27,69.248,23.002,68.479,22.912,68.152z M70.713,95.918
			c-1.021,1.463-4.031,1.793-6.298,1.143c-5.423-0.014-10.229-0.646-15.456-0.86c-0.076-0.589-1.266-0.064-1.143-0.854
			c-0.569-0.005-0.364-0.783-1.146-0.574c-0.19-0.383-0.613-0.531-1.145-0.571c-0.66,0.087-0.319-0.827-0.858-0.859
			c-0.282-4.871-0.87-9.434-1.146-14.31v-0.86c1.46-0.122,2.232,0.44,3.149,0.86c0.527,2.144,0.191,5.148,0.286,7.729
			c0.541,1.938,0.917,4.043,1.43,6.008c0.615,1.104,1.58,1.857,2.575,2.58h4.295c1.47-0.537,2.887-1.125,4.579-1.434
			c2.661-0.184,4.466,0.495,7.156,0.286c0.995-0.626,1.782-1.464,1.717-3.149c-0.142-0.902,0.517-1.012,0.288-2.002
			c0.311-0.732-0.872-1.365,0-1.717c1.83-0.113,1.328,2.104,1.43,3.719C70.537,92.657,70.868,94.043,70.713,95.918z M50.105,75.594
			C50.45,75.566,50.277,76.01,50.105,75.594C49.759,75.625,49.93,75.178,50.105,75.594z M51.534,80.459
			c0.744-0.113,1.928,0.412,2.576,0.572c0.313,0.078,0.651,0.498,0.86,0.572c0.992,0.364,2.19,0.498,3.151,0.858
			c0.072,0.029,0.061,0.231,0.284,0.287c0.725,0.183,1.708,0.494,2.574,0.854c0.096,0.043,0.049,0.229,0.286,0.289
			c0.691,0.172,1.407,0.657,2.29,0.858c0.361,0.501-0.288,1.728,0.287,2.577c0.283,0.764,0.59,1.508,0.571,2.574
			c-1.936-0.321-4.951,0.002-7.153,0.287c-1.738,0.646-2.62,2.147-5.439,1.715C51.168,88.65,51.714,84.191,51.534,80.459z
			 M100.195,90.764c0.088,1.142,0.014,2.115-0.574,2.575c-3.008,0.054-3.506-2.409-6.012-2.86c0.927-1.012-0.854-1.051-1.43-1.432
			c0.243-0.807,0.924-1.176,0.858-2.289c-0.235-1.287-2.479-0.936-3.147-0.287c-0.844,0.342-1.567,1.873-2.58,1.146
			c-1.242-0.057-0.52-0.5-0.569-1.434c-1.153-0.181-1.446-1.224-2.862-1.145c0.676-2.284,3.247-2.668,3.146-5.725
			c-0.101-0.379-0.504-0.45-0.57-0.859c-2.271-0.075-3.146,1.243-4.579,2.003c-1.112,0.8-1.979,1.838-2.862,2.862
			c-1.762-0.338-3.197-0.998-5.152-1.146c1.054-2.477,3.688-3.37,4.295-6.297c-1.1-1.729-3.729,0.31-5.153,0.858
			c-0.375,0.103-0.448,0.506-0.856,0.574c-1.504,1.068-2.504,2.649-4.008,3.72c-2.261-0.412-4.257-1.091-6.584-1.431
			c0.086-1.06,1.217-1.074,1.718-1.717c0.365-0.785,1.148-1.145,1.716-1.719c1.177-1.02,2.435-1.957,3.15-3.436
			c-0.377-1.461-2.02-1.062-3.437-0.859c-0.946,0.678-2.344,0.9-3.148,1.719c-1.338,0.28-1.809,1.436-3.146,1.717
			c-0.841,0.784-1.129,2.117-2.865,2.006c-0.833-0.92,0.654-1.252,0.86-2.006c0.578-0.565,0.935-1.353,1.721-1.717
			c0.822-1.367,2.449-1.932,2.858-3.719c-0.51-1.184-2.502-0.926-3.433-0.287c-1.37,0.254-2.112,1.131-3.151,1.719
			c-1.182,0.725-1.869,1.945-2.862,2.859c-1.89-0.303-2.938-1.447-4.863-1.717c1.005-0.81,1.941-1.685,3.146-2.289
			c0.802-1.012,2.381-1.244,2.291-3.149c-0.321-0.575-2.213-0.328-2.577,0c-0.878,0.075-1.287,0.621-2.004,0.859
			c-1.164,0.837-2.616,1.388-3.436,2.575c-0.489-0.367-0.574-1.142-1.145-1.43c-0.968-0.083-1.644-0.457-2.86-0.285
			c0.956-1.43,2.63-2.146,3.721-3.438c1.284-1.102,2.98-1.789,3.436-3.721c-0.43-1.24-2.524-0.845-3.722-0.57
			c-0.803,0.815-2.428,0.815-3.148,1.713c-2.657,0.494-3.935,2.364-6.296,3.151c0.784-0.935,1.94-1.497,2.86-2.29
			c0.555-1.164,1.974-1.462,2.291-2.863c-1.289-0.896-2.747,0.491-4.007,0.572c-1.064,0.561-2.005,1.237-3.148,1.718
			c-1.057,0.564-1.693,1.549-3.149,1.719c-0.52-3.17,0.317-7.263,0-11.163c5.724-0.766,10.301-2.674,16.028-3.435
			c2.63-0.612,5.333-1.156,7.729-2.004c1.197-0.423,2.803-0.439,3.72-1.144c1.324-0.206,2.477-0.578,3.435-1.145
			c1.503,0.167,2.168-0.506,3.721-0.288c9.628-3.25,20.98-4.777,31.77-6.868c0.231-0.056,0.284-0.289,0.573-0.288
			c0.854-0.004,0.975-0.745,1.717-0.856c0.242-0.617,1.256-0.462,1.719-0.86h0.286c1.032-0.272,0.399,1.125,0.574,1.716v2.006
			c0.235,0.808-0.408,0.741-0.288,1.429c-0.071,12.53-0.889,26.358,0.288,38.353v3.724c-0.011,0.676,0.491,0.842,0.284,1.719
			c0.041,1.104,0.966,1.322,0.859,2.574C101.549,89.641,100.628,89.958,100.195,90.764z M110.21,82.463v9.16
			c-0.341,2.877,0.396,5.292-0.284,8.012c-1.701,0.271-2.08-0.779-3.15-1.143c-0.224-1.465,0.404-2.08,0.287-3.436
			c-1.088-7.881-1.131-16.804-2.004-24.9V58.421c0.183-1.058-0.371-2.852,0.289-3.435c-0.984-1.785-0.437-5.101-0.572-7.73
			c-0.414-1.081,0.783-0.549,0.572-1.429c-0.041-0.706-0.049-1.381,0.283-1.718c0.446-1.208-1.59,0.064-1.145-1.145v-2.862
			c-0.037-0.514,0.349-0.606,0.287-1.145c0.229,0.2,0.785,0.444,0.856,0c-0.401-2.949,0.327-6.553,2.574-7.73
			c0.247-0.051,0.272,0.112,0.29,0.288c-0.154,1.107,0.508,1.397,0.285,2.576c0.301,0.296,0.591,2.045,0,2.289
			c-0.254,0.921,0.941,0.392,0.859,1.146c0.528,0.042,0.174,0.968,0.569,1.145v6.295c1.228,9.915-0.179,21.111,0.286,32.058
			c0.004,1.145,0.574,1.717,0.574,2.863C111.468,81.43,109.98,81.088,110.21,82.463z"/>
	</g>
</g>
</svg>
