<?xml version="1.0" encoding="utf-8"?>
<!-- Generator: Adobe Illustrator 16.0.0, SVG Export Plug-In . SVG Version: 6.00 Build 0)  -->
<!DOCTYPE svg PUBLIC "-//W3C//DTD SVG 1.1//EN" "http://www.w3.org/Graphics/SVG/1.1/DTD/svg11.dtd">
<svg version="1.1" id="Layer_1" xmlns="http://www.w3.org/2000/svg"  x="0px" y="0px"
	 width="120px" height="120px" viewBox="0 0 120 120" enable-background="new 0 0 120 120" xml:space="preserve">
<g id="horseshoe">
	<g>
		<path d="M98.682,87.846c0.461-1.062,1.125-1.916,1.711-2.854c0.416-1.105,0.768-2.277,1.428-3.139
			c0.881-2.162,1.799-4.285,3.139-5.988c0.309-3.121,1.605-5.242,2.285-7.99c0.156-8.525-1.771-14.965-3.141-21.967
			c-2.422-3.857-5.393-7.16-7.416-11.412c-4.994-3.281-9.613-6.932-14.84-9.986c-1.699-0.195-2.854-0.943-4.561-1.141
			c-1.748-0.252-3.234-0.76-4.566-1.426c-4.691-0.443-9.519-0.75-14.833-0.572c-0.365,0.018-0.396,0.367-0.855,0.287
			c-5.658-0.141-8.869,2.162-13.408,3.139c-2.227,1.672-4.294,3.502-6.848,4.85c-2.015,1.98-4.168,3.818-6.276,5.705
			c-1.216,2.02-2.858,3.607-3.995,5.705c-1.357,1.969-2.633,4.023-3.992,5.992c-0.347,2.031-1.211,3.547-1.713,5.42
			c-0.229,6.412,0.398,11.965,1.141,17.402c1.669,4.609,3.781,8.773,4.85,13.98c1.859,1.658,2.777,4.262,3.71,6.848
			c-0.818,0.514-1.91,0.752-2.569,1.428c-0.708-0.045-1.182,0.146-1.426,0.57c-0.729,0.031-1.467,0.053-1.426,0.854
			c0.046,2.811,1.254,4.453,1.143,7.42c1.062,1.885,1.727,4.166,3.422,5.42c3.256-0.266,6.115-0.922,8.844-1.713
			c1.062,0.268,1.487,1.178,3.14,0.857c4.015-0.646,7.778-1.541,9.413-4.564c0.156-0.416-0.331-1.475,0.285-1.428
			c0.036-2.127-1.115-3.068-1.426-4.85c-0.898-1.193-0.874-3.312-1.711-4.564c-0.036-1.012-0.468-1.625-0.856-2.283
			c-0.251-0.795-0.356-1.736-0.855-2.283c-0.509-1.678-0.975-3.396-1.711-4.848c0.628-3.518-1.259-6.637-1.427-10.271V56.75
			c0.313-1.877,1.049-3.328,0.855-5.707c1.062-1.697,1.668-3.848,2.854-5.422c1.184-1.668,2.48-3.223,4.277-4.277
			c3.021-0.879,5.703-2.098,8.846-2.854c2.847,0.553,6.354,0.734,9.414,0.285c4.828,1.354,9.472,2.893,13.125,5.42
			c0.604,1.771,2.106,2.646,2.567,4.564c0.628,0.512,0.693,1.588,1.138,2.283c0.174,1.064,1.076,1.4,1.146,2.566
			c0.433,2.611,0.713,5.371,0.567,8.561c-0.383,1.897-1.289,3.272-1.426,5.42c-0.906,1.375-1.613,2.953-1.998,4.851
			c-0.463,0.679-0.556,1.729-0.856,2.567c-0.338,0.804-0.642,1.642-0.854,2.568c-0.871,1.411-1.314,3.25-1.713,5.133
			c-0.775,1.319-1.562,2.621-2.283,3.996c0.021,0.971,0.09,1.989-0.566,2.28c0.742,2.599-0.307,5.236,0,8.274
			c0.725,0.318-0.115,2.205,0.566,2.566c-0.076,1.125,1.227,0.873,1.143,1.998c6.625,1.077,12.014,3.393,18.832,4.278
			c1.77-1.75,2.938-4.101,3.992-6.562c1.135-0.863,1.469-2.526,2.566-3.422c1.188-0.82,1.229-3.297,0.855-4.853
			C104.504,89.443,100.963,89.277,98.682,87.846z M99.254,96.689c-1.141,0.764-1.338,2.465-2.566,3.139
			c-2.475-0.758-4.105-2.359-6.848-2.854c-1.889-1.346-5.133-1.332-7.133-2.566c-0.102-1.434,0.074-2.588,0.57-3.424
			c0.559-0.68,0.551-1.92,1.141-2.568c0.299-3.123,1.678-5.17,1.994-8.273c2.332-4.139,4.463-8.473,5.711-13.691
			c0.504-7.068-1.023-12.104-1.998-17.689c-0.238-0.713-0.781-1.119-0.857-1.996c-1.748-2.91-3.684-5.637-5.705-8.273
			c-0.979-0.547-2.025-1.016-2.566-1.998c-2.348-0.506-3.916-1.787-6.562-1.996c-0.863-0.562-2.394-0.457-3.42-0.855
			c-1.502,0.166-2.164-0.502-3.712-0.287c-4.651-0.258-10.566,0.385-14.264,1.998c-4.038,2.049-6.873,5.301-10.272,7.988
			c-0.445,0.885-0.791,1.871-1.71,2.281c-0.974,2.643-2.427,4.803-3.427,7.42c-0.736,2.873-0.568,6.656-0.854,9.983
			c0.305,7.021,2.478,12.168,3.424,18.543c0.558,1.345,1.125,2.681,1.427,4.281c0.792,1.106,0.838,2.967,1.712,3.993
			c0.072,0.878,0.618,1.283,0.855,1.996c0.43,0.521,0.303,1.601,0.855,1.998c0.497,1.312,1.49,2.123,1.143,4.279
			c-0.674,0.944-1.75,1.483-3.141,1.711c-1.209,0.403-2.699,0.535-3.992,0.854c-3.105,0.034-5.209,1.067-7.988,1.428
			c-0.994-1.479-0.924-4.021-1.711-5.704c0.812-0.994,2.305-1.31,3.136-2.283c0.589-1.22,2.384-1.233,2.282-3.14
			c0.841-1.353-1.283-1.854-1.14-3.422c-0.64-0.979-1.092-2.144-1.711-3.142c-1.071-2.164-2.149-4.317-3.423-6.276
			c-0.869-3.979-2.112-7.591-3.142-11.41v-9.7c0.776-5.119,2.194-9.598,3.997-13.693c0.762-1.139,1.797-2.004,2.281-3.422
			c2.74-2.49,5.236-5.227,8.271-7.42c3.275-1.859,6.506-3.766,9.703-5.705c1.82-0.176,3.127-0.867,4.85-1.141h4.564
			c0.46,0.08,0.49-0.27,0.855-0.285c4.192-0.008,8.46-0.092,12.267,0.285c2.459,1.248,5.727,1.693,8.562,2.566
			c1.107,0.41,2.037,1.006,2.854,1.713c0.896,0.623,2.264,0.775,2.85,1.711c1.064,0.459,1.922,1.125,2.855,1.711
			c1.256,0.172,1.82,1.033,2.854,1.428c2.793,3.102,4.564,7.223,6.846,10.84c2.082,3.812,3.637,8.158,4.566,13.125
			c0.104,2.703,0.062,3.801,0,6.562c-0.506,4.351-1.783,7.92-2.57,11.983c-1.473,1.76-2.49,3.974-3.709,5.99
			c-0.58,2.561-2.594,3.684-2.854,6.562c1.816,1.51,5.01,1.648,6.85,3.139C101.09,94.723,99.635,95.17,99.254,96.689z
			 M61.025,27.363c-2.296,1.141-1.975,5.402,0.854,5.707c2.651-0.01,3.665-1.66,3.422-4.566
			C64.208,27.793,63.137,27.057,61.025,27.363z M95.543,46.193c0.375-1.248,0.51-1.436,0.287-2.854
			c-0.947-0.67-1.854-1.379-3.707-1.141c-0.416,1.012-0.416,2.982,0,3.994C93.289,46.83,94.42,46.771,95.543,46.193z M32.494,44.48
			c-0.005,1.242-0.095,2.566,0.284,3.424c2.59,1.02,4.729-0.494,4.85-2.852c-0.372-0.768-0.764-1.518-1.137-2.283
			C34.652,41.928,33.247,43.355,32.494,44.48z M32.778,61.029c0.955-0.691,1.119-2.953,0.573-4.279
			c-2.473-1.633-5.509,0.127-4.564,3.707C30.033,61.23,31.126,61.186,32.778,61.029z M94.689,60.174
			c0.266,2.014,1.316,3.246,3.992,2.852c0.383-0.948,1.176-1.487,1.143-2.852c-0.379-0.955-0.889-1.777-1.711-2.283
			C95.932,57.611,94.742,58.324,94.689,60.174z M32.494,71.584c-1.429,0.283-1.504,1.92-1.425,3.709
			c0.597,1.02,1.144,2.09,2.567,2.283c1.671,0.053,2.424-0.809,3.138-1.711c0.318-2.033-0.523-2.902-1.141-3.994
			C34.833,71.527,33.665,71.555,32.494,71.584z M95.258,72.154c-2.41-0.225-3.738,0.637-4.564,1.998
			c0.27,1.125,0.496,2.471,1.432,3.139c0.021,0.014,0.641,0.307,0.566,0.285c1.369,0.426,2.592-0.279,3.709-0.855
			C97.08,74.857,96.256,73.164,95.258,72.154z"/>
	</g>
</g>
</svg>
