<?xml version="1.0" encoding="utf-8"?>
<!-- Generator: Adobe Illustrator 16.0.0, SVG Export Plug-In . SVG Version: 6.00 Build 0)  -->
<!DOCTYPE svg PUBLIC "-//W3C//DTD SVG 1.1//EN" "http://www.w3.org/Graphics/SVG/1.1/DTD/svg11.dtd">
<svg version="1.1" id="Layer_1" xmlns="http://www.w3.org/2000/svg"  x="0px" y="0px"
	 width="120px" height="120px" viewBox="0 0 120 120" enable-background="new 0 0 120 120" xml:space="preserve">
<g id="file-eps">
	<g>
		<path d="M98.348,47.066c0.084-1.721,0.726-2.884,0.856-4.556c0.169-3.853,0-7.743,0-12.253c0-4.396-0.033-8.84-0.856-12.53
			c-1.791,0.013-3.334,0.273-4.843,0.569c-0.817-0.512-1.649-1.007-3.131-0.857c-15.562-0.01-30.668-0.475-46.435-0.283
			c-0.409,0.161-0.692,0.447-0.855,0.854c-0.659,0.859-1.262,1.776-1.989,2.564c-0.539,0.504,0.336,0.833-0.291,1.424
			c-0.498,0.257-0.879,0.637-1.137,1.139c-1.535,1.508-3.021,3.056-3.986,5.127c-1.012,0.51-1.18,1.86-1.996,2.566
			c-0.803,0.712-0.902,2.136-1.707,2.846c-0.072,1.452-1.234,1.809-1.711,2.85c-0.65,0.964-1.863,1.365-1.993,2.85v6.55
			c0.196,1.706,0.758,3.041,0.854,4.847c-0.736,12.677-0.568,26.84-0.568,39.879c0,4.524-0.729,8.88,0,13.104v1.991
			c-0.17,0.51,0.834,1.183,0,1.425c-0.446,1.085-0.694,1.812,0,2.85c1.262,1.11,3.589,0.28,5.413,0.28
			c1.603-0.575,3.921-0.444,5.694-0.852c9.256-0.156,15.908,0.405,24.215-0.286c7.927-0.822,16.438-0.512,24.781-0.284
			c2.571,0.354,6.114,0.994,8.545,0.57c0.716-0.521,1.251-1.218,1.426-2.278c0.189-1.139,0.854-1.803,1.142-2.85
			C100.26,84.305,98.812,64.909,98.348,47.066z M43.939,26.56c-0.607,0.131-0.542-0.408-0.567-0.858
			C43.722,25.83,43.954,26.068,43.939,26.56z M41.662,27.697h0.856c0.375,1.427,1.368,2.238,2.277,3.135
			c-0.224,1.172,0.436,1.464,0.285,2.562c-1.336-0.087-1.154-1.693-2.279-1.994c-0.411-1.012-1.153-1.696-1.998-2.278
			C40.972,28.531,41.407,28.203,41.662,27.697z M40.804,33.394c0.357,0.88,0.943,1.53,1.715,1.996
			c-0.262,0.772-1.051-0.241-1.14-0.573c-0.417-0.247-0.907-0.423-0.854-1.139c-0.77-0.562-1.363-1.293-1.711-2.278
			C39.918,31.628,39.896,32.973,40.804,33.394z M36.534,34.251c0.686,0.545,0.945,1.522,1.707,1.988
			c-0.758,0.571-2.51,0.153-3.418,0.573C35.228,35.791,36.062,35.197,36.534,34.251z M92.648,104.895
			c-1.453,0.127-1.558-1.101-2.849-1.138H83.82c-10.948-1.052-21.321,0.87-32.188,0.853c-1.153,0.268,0.359-1.545-0.567-1.99
			c-1.286-0.145-0.801,1.479-1.424,1.99h-3.99c-1.303-0.2-2.891,0.318-3.42,0c0.392-1.649,1.759-3.356,1.141-5.129
			c-1.832-0.312-2.047,0.994-2.848,1.709c-0.229,1.289-1.133,1.904-1.141,3.42c-1.216-0.112-2.936,0.273-3.703-0.284
			c0.225-2.521,2.33-4.386,1.708-6.834c-2.279,0.188-2.657,2.272-3.416,3.985c-1.056-0.605-0.444-2.391,0-3.137
			c0.696-0.722,0.651-2.195,1.423-2.846c0.436-2.416,1.812-3.885,1.993-6.555c-0.853-0.705-1.921,0.19-1.993,1.143
			c-0.584,0.193-0.936,2.077-1.423,1.424v-2.281c0.356-1.252,1.083-2.14,1.708-3.13c0.434-2.321,1.506-4.004,1.994-6.271
			c0.236-1.998,2.035-4.312,0.853-5.982c-1.257-0.117-1.996,0.284-2.563,0.856c-0.689,0.089-1.258,1.751-1.705,1.139
			c-0.146-11.063,0.501-21.335,0.283-32.474c0.175-1.313-0.64-1.638-0.569-2.846h4.269c1.931-0.354,3.832-0.729,6.271-0.572
			c1.898-0.568,4.261-0.678,5.696-1.707c0.262-0.502,0.1-1.426,0.57-1.711c-0.446-2.497-0.652-5.235-1.137-7.69
			c-0.42-2.528-1.23-4.659-1.428-7.404c2.908-0.173,6.147-1.075,9.115-0.286c10.743-0.205,19.883,1.198,30.479,1.138
			c1.887,0.157,4.149,0.966,5.979,0.286c0.006,1.238,0.099,2.564-0.283,3.42c0.543,1.069,0.03,3.199,0.568,4.268
			c0.456,22.716,0.159,46.181,0.854,68.655C94.109,100.842,94.527,104.016,92.648,104.895z M55.337,65.016
			c-1.334-0.006-1.727,0.936-1.995,1.992c-0.577,0.752-0.3,2.355-0.854,3.133c-0.412,0.441-1.459,0.25-2.279,0.285
			c-0.109-3.398,0.233-7.256-1.143-9.4c-0.535,0.065-0.626-0.319-1.137-0.283c-0.836,0.21-1.226,0.861-1.709,1.423v10.254
			c0,3.588-0.858,7.869,1.994,8.545c0.592-0.165,0.92-0.594,1.428-0.848c0.256-0.505,0.096-1.425,0.566-1.716v-2.562
			c0.174-0.679-0.358-2.066,0.284-2.277h1.71v3.418c-0.207,1.439,0.416,2.054,1.14,2.564c2.688,0.127,2.312-2.814,2.278-5.413
			c0.326-1.478,0.289-3.315,0.57-4.842C56.415,67.764,56.927,65.424,55.337,65.016z M61.889,64.727
			c-2.222,0.441-5.14,0.185-5.127,2.852c0.898,1.117,2.32,0.747,3.985,0.568c0.057,2.711-0.265,5.055-0.567,7.405
			c-0.064,2.442-0.291,5.039,1.994,5.13c3.113-0.214,1.56-5.089,2.277-7.688c-0.394-1.509-0.095-3.703-0.568-5.132
			c1.582-0.411,3.646-0.346,3.7-2.278C67.124,63.113,63.811,64.609,61.889,64.727z M78.979,65.581
			c-1.854,0.237-1.486,2.69-3.135,3.136c-0.523-1.473-1.562-2.424-2.279-3.701h-1.99c-1.871,1.641-2.074,4.951-2.282,8.26
			c-0.235,0.994-0.951,1.52-0.854,2.847c0.783,0.728,1.57,1.003,2.848,0.573c0.945-1.529,1.062-3.879,1.141-6.27
			c1.447,0.932,1.626,3.121,4.275,2.85c1.012-0.225,0.896-1.568,1.424-2.277v4.557c0.083,1.438-0.443,3.483,1.141,3.424
			c1.494,0.108,1.244-1.279,1.424-2.566c0.184-1.32,0-3.021,0-4.271C80.688,69.4,81.318,65.6,78.979,65.581z M91.796,75.27
			c-1.455-1.395-3.461,0.408-5.411,0.282c-0.312-2.728,0.768-6.845-0.857-8.258c-1.649-0.325-1.893,0.763-2.562,1.423
			c0.325,3.477-0.874,8.467,1.142,10.26c0.336,0.041,0.811-0.054,0.855,0.279c2.676-0.832,6.803-0.22,7.121-3.419
			C91.859,75.775,91.748,75.602,91.796,75.27z"/>
	</g>
</g>
</svg>
