<?xml version="1.0" encoding="utf-8"?>
<!-- Generator: Adobe Illustrator 16.0.0, SVG Export Plug-In . SVG Version: 6.00 Build 0)  -->
<!DOCTYPE svg PUBLIC "-//W3C//DTD SVG 1.1//EN" "http://www.w3.org/Graphics/SVG/1.1/DTD/svg11.dtd">
<svg version="1.1" id="Layer_1" xmlns="http://www.w3.org/2000/svg"  x="0px" y="0px"
	 width="120px" height="120px" viewBox="0 0 120 120" enable-background="new 0 0 120 120" xml:space="preserve">
<g id="icecream">
	<g>
		<path d="M93.148,41.824c-0.578-0.415-0.445-1.539-0.896-2.084c-0.248-0.743-0.812-1.166-0.896-2.079
			c-1.086-1-1.984-2.178-2.974-3.275c-1.434-0.55-2.929-1.037-3.87-2.084c-1.385,0.198-1.908-0.468-2.973-0.593
			c-0.842,0.244-0.771-0.419-1.488-0.299c-0.523-0.17-1.748,0.36-1.783-0.298c0.433-1.733,0.135-3.448,0-4.463
			c-0.052-0.389,0.062-0.802,0-1.189c-0.381-2.322-1.479-4.052-2.084-5.652c-2.314-1.452-4.08-3.461-7.143-4.165
			c-2.579-1.388-6.3-1.636-10.114-1.787c-7.491,1.934-12.074,6.773-11.902,16.365c0.501,1.777,1.713,2.852,2.381,4.463
			c-2.374,0.604-3.891,2.061-6.249,2.678c-1.261,1.615-3.017,2.736-4.463,4.166c-0.787,1.888-1.986,3.369-2.978,5.058
			c-0.562,2.212-1.127,4.426-0.888,7.438c0.453,1.131,0.862,2.312,1.187,3.568c0.375,0.125,0.611,0.385,0.598,0.895
			c1.581,1.391,3.464,2.486,5.355,3.57c2.002,0.277,3.672,0.889,5.355,1.487c3.038,8.17,4.941,17.474,7.438,26.185
			c1.016,4.537,2.724,8.386,3.866,12.791c0.994,1.789,1.64,3.918,2.381,5.953c0.534,0.854,0.782,1.991,1.487,2.678
			c0.407,1.082,0.528,2.447,2.083,2.381c0.74,0.908,1.852-0.312,2.084-0.895c1.258-0.008,1.921,0.577,2.975,0
			c0.362-1.025,1.043-1.736,1.489-2.676c0.353-1.137,0.79-2.186,1.187-3.273c0.621-2.354,1.572-4.381,2.084-6.844
			c1.535-4.318,3.336-8.369,5.06-12.496c3.646-8.16,6.495-17.106,8.632-26.779c0.26-1.447-0.406-1.975-0.598-2.977
			C91.211,54.17,93.7,49.518,93.148,41.824z M51.791,23.674c0.47-0.814,1.204-1.373,1.487-2.379
			c1.065-0.521,2.092-1.082,2.975-1.785c3.039,0.164,4.897-0.854,8.032-0.596c1.793,1.085,3.527,2.224,5.058,3.57
			c0.142,0.955,1.136,1.049,1.191,2.084c0.715,0.374,0.599,1.58,1.188,2.081c0.104,1.979-0.264,4.431,0.299,5.952
			c-0.799,0.391-1.582,0.799-2.381,1.189c-0.568,0.621-1.062,1.322-2.084,1.489c-0.468,1.515-1.654,2.312-2.082,3.866
			c-0.867-0.123-0.967-1.017-1.488-1.485c-0.365-0.628-0.825-1.163-1.192-1.788c-1.792-0.98-3.438-2.115-5.947-2.379
			c-1.819-0.23-2.787,0.389-4.465,0.297C52.006,30.598,51.56,27.475,51.791,23.674z M44.053,47.774c0.157-0.458,0.311-0.019,0.3,0.3
			C43.82,48.155,43.741,47.791,44.053,47.774z M43.161,45.692c-0.104-1.493,1.316-1.46,1.489-2.679
			c0.879-0.409,1.204-1.373,2.084-1.786c0.281-0.604,0.605-1.175,0.89-1.784c2.953-0.715,5.133-2.204,8.928-2.082
			c1.722,0.459,3.055,1.306,4.163,2.379c0.074,1.414,0.912,2.066,1.192,3.273c-0.142,1.646,0.418,3.99-0.595,4.761
			c-1.857-1.308,0.363-3.51-0.598-5.355c-1.774-0.287-1.155,1.823-2.676,1.786c-0.128,1.063-0.749,1.632-1.487,2.082
			c0.238,1.033-0.446,1.143-0.298,2.084c-0.839-0.353-0.908-1.477-1.193-2.381c-0.869-0.078-0.913,0.674-1.782,0.595
			c-0.992-0.101-1.322-0.862-2.681-0.595c0.682-1.108,2.09-1.485,2.977-2.381c-0.128-0.664-1.467-0.121-2.084-0.298
			c0.125-1.163,1.659-0.921,2.68-1.189c-0.284,1.276,0.833,1.148,0.89,2.083c0.041,0.952,0.676,1.309,1.789,1.19
			c0.593-0.397,0.663-1.322,0.89-2.084c0.933,0.139,0.841-0.747,1.192-1.189c-0.04-1.349-0.625-2.153-0.893-3.273h-5.952
			c-0.835,0.257-0.634,1.548-1.188,2.084c-0.761,0.132-1.369,0.417-1.785,0.892c-0.952,0.255-0.921-0.469-1.49-0.597
			c-0.966,0.523-1.487,1.489-2.084,2.382C44.436,43.994,44.583,45.625,43.161,45.692z M55.954,50.155
			c0.475-0.22-0.066-1.456,0.895-1.189C56.928,49.744,56.737,50.245,55.954,50.155z M46.136,46.884
			c-0.155-0.154,0.216-0.381,0.298-0.299C46.586,46.739,46.218,46.964,46.136,46.884z M45.837,47.479
			c-0.152-0.154,0.216-0.381,0.299-0.299C46.29,47.334,45.921,47.561,45.837,47.479z M46.434,46.287
			c-0.155-0.152,0.216-0.381,0.299-0.297C46.884,46.145,46.518,46.369,46.434,46.287z M46.136,58.486
			c0.609-0.597,0.585,0.131,1.19,0.297C47.42,59.31,45.658,59.315,46.136,58.486z M46.733,54.32
			c-0.239-1.03,0.442-1.143,0.295-2.081c-0.122-0.872-1.017-0.966-1.489-1.489c0.518-1.611,1.949-0.34,3.273-0.299
			c0.965-0.225,1.888-0.491,1.784-1.783c0.484-0.085,0.511,0.281,0.893,0.298c-0.125,0.566-0.85,0.538-0.592,1.485
			c-1.346,0.641-2.103,1.869-3.274,2.68C47.498,53.699,47.516,54.41,46.733,54.32z M48.518,59.379
			c-0.225-1.117,1.137-0.648,1.188-1.487c0.699,0.094,0.667,0.921,1.192,1.189C50.676,59.753,49.227,59.199,48.518,59.379z
			 M50.3,52.537c0.917-0.223,0.575,0.814,1.491,0.594c0.89-0.297,1.487-0.892,1.783-1.786c0.999-0.008,1.573,0.411,2.083,0.896
			c0.238-0.257,0.816-0.177,0.895-0.597c0.464,1.021,2.741,0.232,3.567,0.895c-0.178,1.507-1.325,2.047-1.784,3.272
			c-0.669-0.523-2.238-0.143-2.976-0.597c-1.351-0.161-0.791,1.587-2.081,1.489c0.721-0.758-0.299-1.45-0.597-2.084
			C51.355,54.457,50.049,54.276,50.3,52.537z M53.574,57.592v1.191h-0.596v-1.191H53.574z M57.739,78.719
			c-1.106,0.018-0.855-1.324-0.89-2.381C57.61,76.873,58.165,77.798,57.739,78.719z M57.739,74.852
			c0.602-2.574,2.024-4.321,2.976-6.547c1.008,0.68,1.729,1.646,2.081,2.978c-0.58,2.394-1.741,4.204-3.864,5.058
			C58.729,75.646,57.942,75.541,57.739,74.852z M72.021,69.496c0.069,1.216,1.012,1.568,1.188,2.676
			c-1.188,0.895-1.838,2.328-2.975,3.273c-1.014-0.077-0.842-1.34-1.486-1.784c-0.338-0.653-0.996-0.987-1.191-1.786
			c0.577-2.396,2.469-3.484,3.271-5.652c0.967,0.127,0.943,1.236,1.786,1.486C72.759,68.646,71.703,68.384,72.021,69.496z
			 M67.855,78.422c-1.057,1.126-1.988,2.375-2.978,3.57c-1.118,0.224-0.646-1.137-1.487-1.189c-0.201-0.593-0.906-0.683-1.189-1.191
			c0.957-1.617,2.229-2.93,2.977-4.76C66.439,75.674,67.296,76.902,67.855,78.422z M61.012,84.074
			c-0.258-0.866-0.443-0.334-1.188-0.299c0.293-0.695,0.523-1.461,0.596-2.379c1.254,0.133,1.322,1.453,2.081,2.082
			c0.082,1.174-1.271,0.907-1.188,2.082C60.666,85.611,61.175,84.506,61.012,84.074z M62.203,97.463
			c-1.219-1.137-0.335-4.691,0.893-5.949V89.43c0.76-0.628,1.316-1.461,1.784-2.38c1.075,0.214,0.851,1.728,2.083,1.784
			c-0.268,1.561,1.46,1.12,1.189,2.68c-0.275,0.217-0.45,0.539-0.596,0.893c-1.043,0.555-0.979-0.227-1.785-0.596
			c-1.326,0.258-1.709,1.463-2.082,2.676C62.93,95.216,62.674,96.445,62.203,97.463z M70.534,99.249
			c-0.421,1.065-0.851,2.124-0.894,3.569c-0.746,0.742-0.473,2.504-1.785,2.678c0.045-1.585,0.776-3.196-0.598-3.866
			c-1.479,0.603-2.225,1.938-2.38,3.866c-1.481-0.002-1.321-2.223-0.892-3.271c0.513-1.074,1.035-2.141,1.189-3.572
			c0.289-0.006,0.232-0.361,0.299-0.596c1.738-1.336,2.855-3.291,4.463-4.76c0.681-0.408,1.119,0.766,1.19,0
			c-0.174-1.064,0.878-0.902,1.786-0.893C72.175,94.739,71.152,96.794,70.534,99.249z M72.021,90.32c-0.801-0.352,0-1.549,0-2.081
			c-0.922,0.071-1.156,0.829-1.785,1.188c-1.317-1.356-2.534-2.819-3.273-4.76c0.773-1.108,1.852-1.919,2.38-3.271
			c0.48-0.086,0.513,0.28,0.896,0.295c1.41,1.961,1.957,4.785,4.162,5.953C74.234,89.164,72.455,89.068,72.021,90.32z
			 M75.592,86.157c-1.002-0.884-1.617-2.152-2.381-3.272c0.754-1.863-0.371-3.048-1.189-4.166c0.737-1.644,2.461-2.298,2.978-4.168
			c1.929,0.453,1.755,3.01,4.165,2.977C77.631,80.062,76.834,83.332,75.592,86.157z M79.756,76.04
			c-1.188-0.892-1.836-2.326-2.975-3.271c2.654-4.029-2.656-6.26-3.57-9.523c0.459-0.633,1.073-1.107,1.486-1.784
			c1.412-0.22,2.049,0.335,3.273,0.296c1.981-0.154,4.141-1.538,6.246-0.595C82.898,66.289,81.529,71.367,79.756,76.04z
			 M85.111,52.832c-1.567,1.605-3.663,2.683-5.949,3.57c-4.232,0.167-7.566-0.566-10.711-1.486
			c-0.702-0.007-0.877,0.513-1.785,0.297c-0.221,1.906,0.367,3.007,1.486,3.57c0.629,0.266,0.879,0.907,1.785,0.893
			c0.096,0.701,1.41,0.178,1.19,1.191c-1.19-0.167-1.886-1.158-2.978-0.595c-0.213,1.501,0.406,2.171,0.598,3.271
			c-1.336,1.443-2.504,3.052-3.572,4.762c-1.212-0.476-1.893-1.479-2.382-2.678c0.106-1.878,1.606-2.363,1.192-4.761
			c-1.922,0.259-3.078,1.284-3.869,2.677c-0.64-0.249-1.013-0.771-2.081-0.595c-0.34,1.233,0.626,1.159,0.593,2.084
			c-0.228,1.256-1.444,1.526-2.08,2.379c-0.257,1.432-1.236,2.139-1.491,3.569c-1.112-1.761-1.483-4.269-2.082-6.547
			c1.654-0.824,4.015-0.939,5.06-2.379c1.872-0.509,2.721-2.041,4.165-2.976c1.191-1.683,2.193-3.559,3.271-5.354
			c0.243-1.345,0.508-2.669,0.896-3.869c0.097-1.094-0.257-2.633,0.297-3.272c-0.569-0.72-0.188-2.392-0.297-3.571h1.188
			c0.566-2.805,2.83-3.916,4.465-5.652H74.4c0.942-0.248,1.515-0.869,2.084-1.488c2.455-0.174,4.127,0.438,6.246,0.597
			c0.051,0.743-0.455,0.931-0.894,1.191c-0.655,0.034-0.125,1.259-0.296,1.782c0.252,0.64,0.73,1.053,1.785,0.895
			c0.943,0.034,1.902-1.446,1.188-2.084c0.238-0.687,1.398,0.154,1.49,0.595c0.762,0.028,0.424,1.163,1.189,1.191
			c0.375,1.31,0.779,2.591,1.188,3.866C88.031,47.619,86.775,50.433,85.111,52.832z M71.427,43.609
			c0.421,0.867,1.251,1.325,2.677,1.189c0.82-0.534,0.698-2.341,0.297-3.271C72.531,41.346,71.246,41.745,71.427,43.609z
			 M78.865,46.884c0.265-0.729,0.691-1.291,0.593-2.381c-1.449-0.919-2.956,0.312-2.677,2.082
			C77.164,46.996,78.073,46.878,78.865,46.884z M86.6,45.99c0.006,0.301,0.523,0.375,0.599,0
			C86.861,46.021,86.734,45.557,86.6,45.99z M69.343,48.966c-0.137,0.929,0.636,0.951,1.487,0.892
			C71.165,48.654,69.917,48.385,69.343,48.966z M76.781,52.239c0.328,0.959,0.949,1.63,2.381,1.487
			c0.966-0.426,1.337-1.444,1.189-2.977C79.002,49.754,76.791,50.27,76.781,52.239z M70.534,93.893c0.284,0.557-0.892,0.996,0,1.19
			C70.621,94.9,71.275,93.938,70.534,93.893z"/>
	</g>
</g>
</svg>
