<?xml version="1.0" encoding="utf-8"?>
<!-- Generator: Adobe Illustrator 16.0.0, SVG Export Plug-In . SVG Version: 6.00 Build 0)  -->
<!DOCTYPE svg PUBLIC "-//W3C//DTD SVG 1.1//EN" "http://www.w3.org/Graphics/SVG/1.1/DTD/svg11.dtd">
<svg version="1.1" id="Layer_1" xmlns="http://www.w3.org/2000/svg"  x="0px" y="0px"
	 width="120px" height="120px" viewBox="4 4 120 120" style="enable-background:new 4 4 120 120;" xml:space="preserve">
<g id="image1">
	<g>
		<path d="M113.973,34.575c-0.908-0.187-0.584-1.61-1.494-1.795c-0.598-0.604-1.416-0.979-1.797-1.795
			c-3.137,0.464-5.705-0.162-8.979-0.298c-8.012,0.364-17.375-0.011-26.027-0.599c-3.064-0.924-6.768-1.213-10.172-1.796h-7.479
			c-0.383,0.016-0.416,0.384-0.898,0.299c-12.735-0.27-24.444,0.49-36.502,0.899c-1.334,0.115-0.499,1.264-0.896,1.794
			c-1.012-0.87-2.469-1.559-4.19-0.897c-1.761,1.18-1.56,4.024-1.498,6.882c0.438,2.355,0.521,5.064,0.599,7.777
			c0.501,5.186,0.237,11.132,0.302,16.756c0.608,10.661,0.644,21.892,1.794,32.013c0.664,0.631,0.821,1.771,1.794,2.097
			c0.789-0.091,0.981,0.414,0.897,1.196c0.087,0.609,0.811,0.586,0.899,1.197c1.173-0.279,1.111-0.652,2.393-0.301h3.59
			c1.567,0.027,2.694,0.499,4.486,0.301c9.336-0.643,19.805-0.145,29.624-0.301c1.491,0.303,3.232,0.355,4.783,0.6
			c13.706,0.367,28.496,1.213,42.19,0.599c2.234,0.142,4.158-0.027,5.086-1.197c1.203-1.829-0.082-4.414,0.299-7.181
			c2.046-16.317-1.351-33.135,0-49.666c-0.164-1.334-0.293-2.698-0.602-3.889C112.141,35.735,114.264,36.36,113.973,34.575z
			 M27.804,31.881c0.972-0.173,1.393,0.205,2.095,0.3h2.394c0.426-0.025,0.847-0.05,0.896,0.299h-3.587
			C28.98,32.3,27.521,32.964,27.804,31.881z M107.689,93.218c-12.166,1.87-26.31,0.923-39.494,0.597
			c-13.104-0.437-27.287-0.437-40.391,0c-2.195,0.203-4.349,0.44-6.282,0.898c0.418-1.771,0.792-3.594,0.899-5.686
			c0.412-9.145,0.133-17.928-0.302-26.926c-0.386-6.83-0.044-13.294-0.898-20.047c-0.278-2.221-1.036-4.042-0.895-6.282
			c-0.012-0.513,0.222-0.776,0.596-0.897c6.233,0.501,12.634,0.094,19.149,0.596c6.215,0.483,12.572,0,18.85,0h19.747
			c6.21,0,12.316,0.833,18.251,1.197h10.171C105.118,55.958,109.404,74.324,107.689,93.218z M36.183,55.22
			c0.599,0.498,1.39,0.803,1.494,1.795c0.84,1.256,2.107,2.082,3.293,2.992c1.716,0.307,4.011,0.499,5.686,0
			c2.996-1.689,4.828-4.542,4.787-9.275c-0.46-3.034-2.218-4.763-4.49-5.984c-1.705-0.19-3.126-0.664-5.086-0.598
			c-0.183,0.017-0.356,0.044-0.301,0.299h-1.495c-0.422,0.478-1.03,0.765-1.796,0.898c-1.75,1.837-3.273,3.907-2.991,7.779
			C35.79,53.617,35.655,54.748,36.183,55.22z M41.566,48.339c0.985-0.614,3.029-0.164,4.489-0.301
			c0.769,0.527,1.292,1.301,2.092,1.796c0.023,1.273,0.504,2.093,0.301,3.59c-0.35,0.048-0.251,0.545-0.301,0.898
			c-0.877,0.916-1.905,1.682-2.991,2.394c-1.255-0.454,0.522-1.733,0-3.292c0.094-0.69-0.863-0.332-0.895-0.898
			c-1.575-0.378-1.776,0.621-2.995,0.6c0.075-1.569-0.728-2.265-0.897-3.59C40.896,49.263,40.864,48.434,41.566,48.339z
			 M103.5,81.85c-0.516-1.082-1.041-2.152-1.195-3.592c-1.795-1.6-2.918-3.865-4.188-5.984c-1.212-2.08-2.78-3.805-4.19-5.684
			c-1.785-1.508-3.021-3.563-4.488-5.386c-0.502-1.189-1.412-1.98-1.793-3.292c-0.521-0.346-0.564-1.033-0.898-1.497
			c-0.354-0.486-0.696-0.832-1.194-1.196c-2.877-0.382-3.933,1.056-4.786,2.692c-1.14,1.256-1.856,2.933-2.994,4.189
			c-0.658,1.836-2.123,2.864-2.994,4.489c-1.102,1.293-1.879,2.905-2.99,4.188c-1.637-1.152-2.6-2.986-4.787-3.592
			c-0.254,0.057-0.281-0.115-0.297-0.299c-7.435-0.752-10.968,2.396-14.363,5.687c0,0.997-0.971,1.021-0.896,2.094
			c-0.784,0.213-0.288,1.708-1.2,1.795c-1.153-0.841-2.155-1.835-3.889-2.095h-2.092c-3.892,1.096-7.486,2.488-9.874,5.088
			c-1.101,0.195-1.493,1.102-2.095,1.795c-0.725,0.471-1.323,1.07-1.795,1.795c-0.978,1.173-2.622,3.088-2.097,4.785
			c0.077,0.326,0.597,0.204,0.602,0.602c0.623-0.176,0.969-0.631,1.495-0.898c0.66-0.688,0.748,0.52,1.196,0.898
			c-0.226,0.494-2.466,0.494-2.691,0c-0.244,0.055-0.299,0.301-0.602,0.297v0.898c2.505,0.488,5.47,0.516,8.08,0.896
			c12.853-1.311,27.873-0.453,41.29-1.196c4.989,0.38,10.426-0.519,15.262-1.196c2.861,0.172,5.179-0.207,7.775-0.301
			c0.824-0.572,1.651-1.143,2.991-1.197C103.641,84.756,103.176,83.497,103.5,81.85z M33.189,86.633
			c-0.172-0.969,0.205-1.39,0.299-2.092c1.155-0.059,0.321,1.875,0.9,2.395C33.85,86.973,33.757,86.568,33.189,86.633z
			 M38.275,80.949c0.057-0.338,0.301-0.164,0.301,0C38.52,81.291,38.275,81.117,38.275,80.949z M43.663,86.936
			c-0.663-0.039-0.126-1.271-0.3-1.797c-0.345-0.354-0.338-1.059-0.301-1.795c0.281-0.22,0.457-0.545,0.601-0.896
			C44.208,83.307,44.09,86.055,43.663,86.936z M44.858,79.455c-0.69,0.092-0.334-0.865-0.897-0.898
			c0.094-0.406,0.748-0.248,1.196-0.299C45.194,78.794,44.79,78.889,44.858,79.455z M47.55,80.352
			c0.486-0.086,0.515,0.283,0.898,0.299c0.565,1.629,0.124,4.267,0.899,5.687C46.79,86.301,48.428,82.066,47.55,80.352z
			 M81.658,64.494c0.816-0.879,1.379-2.012,2.096-2.993c0.35-0.047,0.533,0.067,0.598,0.3c0.438,1.258,1.553,1.839,1.795,3.291
			c-1.483,0.309-2.063,1.525-3.291,2.094c-0.295,1.002-1.198,1.396-1.494,2.395c-1.2,0.003-0.993-1.402-1.797-1.793
			C79.955,66.381,81.195,65.825,81.658,64.494z M84.951,77.061c-0.021,1.576-0.996,2.197-0.896,3.89
			c-0.921-0.076-1.349-0.647-2.097-0.896c0.491-1.104,1.642-1.553,1.497-3.294C84.299,76.516,84.229,77.184,84.951,77.061z
			 M78.068,70.479c0.104,1.616,2.143,2.127,1.197,3.89c-0.799-1.298-1.668-2.521-2.097-4.188
			C77.654,70.095,77.686,70.462,78.068,70.479z M78.369,81.25c-0.157-0.156,0.218-0.383,0.299-0.301
			C78.82,81.105,78.451,81.332,78.369,81.25z M77.17,78.855c-0.152-0.154,0.217-0.381,0.303-0.299
			C77.626,78.711,77.256,78.938,77.17,78.855z M77.17,77.957c-0.055,0.34-0.299,0.168-0.299,0
			C76.93,77.618,77.174,77.793,77.17,77.957z M75.975,74.367c0.445,0.849,0.739,1.855,0.896,2.992
			C76.021,76.912,76.039,75.6,75.975,74.367z M75.676,72.273c0.25-0.949,0.395,0.529,0.299,0.896
			C75.725,74.122,75.578,72.641,75.676,72.273z M55.03,86.037c-2.773,0.382-2.458-2.328-2.989-4.188
			c0.508-0.488,1.058-0.937,1.493-1.498c-0.014-1.793-0.605-2.733,0.6-3.591c0.533-0.083,0.615,0.284,0.298,0.3
			c-0.189,1.806-0.424,3.566-0.298,5.686C54.21,84.062,55.164,84.507,55.03,86.037z M59.22,84.84
			c-2.079-1.312-1.758-5.025-2.394-7.779c-0.45-0.446-0.09-1.705-1.196-1.496c0.924-1.469,2.532-2.256,3.89-3.291
			c0.686,0.326-0.299,1.47-0.598,1.795C58.544,77.717,57.871,81.799,59.22,84.84z M89.736,84.541
			c-1.74,1.152-5.234,0.549-7.48,1.197h-6.881c-0.846-0.248-0.773,0.42-1.493,0.299H63.709c-0.273-0.66,0.04-1.287-0.302-2.395
			c-0.663-0.434-0.412-1.781-0.897-2.394v-8.08c0.503-1.126-1.39-1.362-0.598-1.794h3.29c1.129,0.771,1.901,1.891,2.694,2.991
			c-0.271,4.108-0.91,9.713,2.693,10.771c4.012-0.682,0.354-5.873,1.195-8.378c1.552,2.441,1.527,6.449,5.086,6.884
			c1.27-0.026,1.888-0.707,1.797-2.096c1.217,0.878,2.025,2.162,3.891,2.393c1.301,0.207,1.654-0.539,2.092-1.195
			c1.193,0.164,0.9,0.164,2.096,0c0.761-0.734,1.07-1.923,0.898-3.592c0.441-0.553,0.572-1.42,0.599-2.394
			c0.519-0.478,0.647-1.347,0.596-2.394c-1.194-0.977-1.669,0.767-2.987,0.6c-0.086-0.615-0.804-0.598-1.201-0.898
			c0.291-2.903,1.768-4.618,2.394-7.181c0.487-0.084,0.517,0.284,0.903,0.298c1.467,2.922,4.365,4.41,5.384,7.781
			c-0.942-0.145-1.171,0.426-1.798,0.598c-1.051,2.039-2.627,3.558-2.99,6.285C88.512,83.171,88.975,84.006,89.736,84.541z
			 M95.123,84.242c-0.438,0.462-1.531,0.263-2.395,0.299c-0.224-0.922,0.821-0.576,0.601-1.496
			c-0.777-2.242,0.661-4.402,0.597-6.882c0.91,0.786,1.188,2.206,2.096,2.991C95.141,80.518,94.734,82.395,95.123,84.242z
			 M97.518,84.242c-0.25-0.782,0.902-1.643,0-2.096c0.803-0.59,1.938,1.043,2.096,2.096H97.518z M65.504,76.163h-0.898
			c-1.943,2.723-1.076,10.433,3.59,8.378c-0.072-1.523-1.278-1.914-1.493-3.291C66.369,79.484,66.572,77.189,65.504,76.163z"/>
	</g>
</g>
</svg>
