<?xml version="1.0" encoding="utf-8"?>
<!-- Generator: Adobe Illustrator 16.0.0, SVG Export Plug-In . SVG Version: 6.00 Build 0)  -->
<!DOCTYPE svg PUBLIC "-//W3C//DTD SVG 1.1//EN" "http://www.w3.org/Graphics/SVG/1.1/DTD/svg11.dtd">
<svg version="1.1" id="Layer_1" xmlns="http://www.w3.org/2000/svg"  x="0px" y="0px"
	 width="120px" height="120px" viewBox="4 4 120 120" style="enable-background:new 4 4 120 120;" xml:space="preserve">
<g id="incoming1">
	<g>
		<path d="M38.5,48.6c0.5,2.2,3,3.1,3.8,4.7c5.4,3.6,9.3,8.7,14,12.9c2.8,1.8,3.9,5.2,7.6,6.1c1.7-0.399,2.9-1.3,3.8-2.6
			c0.7-1.4,2.399-1.9,3.2-3.2c2.399-2,4.3-4.5,6.699-6.4c0.7-1.5,1.9-2.4,3.2-3.2c0.9-1.2,2-2.3,3.2-3.2c1.2-0.9,1.9-2.4,3.2-3.2
			c1-1.2,2.3-2.1,2.3-4.4c-2.7-1.9-9.4,0.1-12.6-1.5c-1-0.3-1.7,1.2-2.301,0.3c0.101-8.2,1.601-17.1,0.9-24.2
			c-0.6-0.6-1.7-0.7-2-1.5c-1.5-0.4-2.2,0.9-2.9,0.3C69.7,19,68.7,18.6,67.4,18.6c-2.5,0.2-5.2,0.6-7.601,0
			c-1.5,1.3-4.6,0.9-6.7,1.5c-0.3,1.7,0.3,4.9,0.6,7c0,2.8,0.4,5.3,0.6,7.9c-0.1,1.3-0.5,2.3-0.3,3.8c0.4,2.1,0.9,4.2,0.9,6.7H43.5
			c-1.3-0.2-2.7-1-4.1-0.3c-0.9,1-0.8,2-1.2,2.3C38.3,47.4,38.4,48.4,38.5,48.6z M81.1,49.5c0,0.6-1,0.2-0.899,0.9
			C79.4,50,80.3,49.1,81.1,49.5z M74.4,52.4c0.899-0.2,1.8,1.1,2,0.6c0.8,0.4-0.5,1.2-0.9,1.5c-0.2,0.7-1,0.8-1.2,1.5
			C73.6,55.1,74.5,53.5,74.4,52.4z M60.1,40.8H61c0,0.7-0.5,0.9-0.6,1.5C59.8,42.3,60.3,41.2,60.1,40.8z M70.6,54.2
			c0.801,0.9,0.7,2.8,1.5,3.8c-0.6,0.6-0.899,1.5-1.8,1.8c-0.1-1.1,0-2.2,0.3-2.9C70.9,55.6,70,54.8,70.6,54.2z M69.7,45.1h-1.5
			c0.1-0.8,0.899-0.9,0.899-1.8C70.2,43.1,69.6,44.5,69.7,45.1z M67.4,30.2c-0.2,0.4-0.301,0-0.301-0.3
			C67.3,29.5,67.4,29.9,67.4,30.2z M68,34.9c0.9,0.3,0.6,1.8,0.9,2.6c0.1,0.7,0.5,1.1,0.3,2C68.1,39.1,68.1,37.7,66.6,37.7
			C66.5,36.4,67.5,35.9,68,34.9z M63.6,63.8c1.9,0.1,1.3-2.2,2-3.2c0.4-1.2,0.4-2.9,0.9-4.1v-0.9c0.9-0.1,0.2,1.3,0.9,1.5
			C67.3,59.2,67.8,60.8,68.3,62.4c-1.2,0.1-1.3,1.4-2.3,1.8c-0.4,1-1.6,1.1-1.8,2.3c-1.7-0.6-2.2-2.3-3.8-2.9
			c0.3-1.3,1.1-2.2,1.5-3.5C62.7,61,61.9,63.7,63.6,63.8z M60.7,33.2c0.3,0,0.2,0.5,0.3,0.9c-0.6,1-1,2.2-1.2,3.5
			c-0.6,0-0.6-0.7-0.6-1.5c-0.3-0.8-0.6-1.5-0.6-2.6C59.4,33.8,60.1,33.8,60.7,33.2z M59.2,27.3c0,1.5-1,2.1-0.9,3.8
			c-0.9-1.3-0.6-3.9-1.2-5.5C58.1,25.9,57.6,27.7,59.2,27.3z M57.8,60.3c-0.1,0.4-0.3,0-0.6,0C57.3,60,57.8,60,57.8,60.3z M50.8,51
			c0.6-0.1,0.9,0.1,0.9,0.6h-0.9V51z M117.1,74.1c-0.199-0.3-1.899-0.6-2,0c-1.3-0.3-1,1-2,0.9c-1.6-1.4-3.3-2.6-5-3.8
			c-1.399-1.601-3.5-2.601-5-4.101c-2-1-3.399-2.6-5.3-3.8c-1.5-1.2-3-3.7-5.8-2.6c-0.8,1.9,1.1,3.3,1.8,4.7
			C94.6,67,96,68.1,97,69.5c1.3,1.1,2.4,2.2,3.8,3.2c0.9,0.3,0.9,1.399,2,1.5c0.2,0.399,0.5,0.7,0.9,0.899c0,0.4,1.2,0.9,0.3,1.2
			c-6.5-0.3-14.2-1-20.7-0.3c-0.899,0.5-0.899,1.8-1.5,2.6C81.1,79.3,80.9,80.4,80.3,81.2c-0.5,2.3-1.1,4.5-2,6.399h-4.1
			C67,89,57.6,88.4,50,89.4C48.9,87.6,47.9,85.6,47.1,83.6c-0.9-2-1.2-4.699-2.6-6.1c-4.8-0.8-10.2,0.3-14.3,1.2
			c-4.7,0.7-8.7,2-13.1,2.899c1.5-1.899,3.5-3.3,5-5.3c1.9-1.6,4-3,5.8-4.7c2.1-1.3,4.2-2.6,6.1-4.1c2-1.6,4.8-2.5,4.7-5.8
			c-0.2-1.9-2-2.8-3.8-2.3c-1.3,0.7-2.3,1.6-3.2,2.6c-1.3,0.7-2.4,1.5-3.5,2.3c-1.4,0.601-2.3,1.601-3.5,2.3
			c-1.3,0.7-2.1,1.801-3.5,2.301c-2.9,2.899-6,5.6-8.8,8.8c-0.8,0.2-0.7,1.2-1.8,1.2c-0.7,0.3-0.9,1.199-1.5,1.8
			c0.5,8.3,1.7,16,4.1,22.5c0.4,2.2-0.3,3.7,0.9,5.3c1.9,1.2,5.9,0.3,8.8,0.6c1.2,0,2,0.5,3.5,0.301c1.9-0.2,4-0.301,5.8-0.601
			c10.1-0.3,20.2-0.399,29.5-1.5c11.5-0.1,22.7-0.399,34.2-0.6c4.899-1,11-0.9,16.899-0.9c3-1.8,3.8-5.7,4.101-10.2
			c0.5-0.699,0.399-1.899,0.6-2.899c0.4-0.9,0-2.5,0.6-3.2c0-2.5,0.601-4.2,0.9-6.4C118.4,79.2,120.3,75,117.1,74.1z M109.2,98.9
			c-8.3-0.4-14.8,1-22.8,0.899c-7.601,0.4-15.7,0.5-23.7,0.601c-1.3,0.1-2.5,0.399-4.1,0.3c-0.1-1.5,0.4-3.601-0.9-3.8
			c-2.5-0.101-2.6,2.1-2.6,4.399c-3.1,0.101-5.8,0.5-9.1,0.3c0.2-2.1,2-4.3,0.6-6.1c-2.8-0.6-4.4,1.9-5.5,3.8
			c0.1,0.7-0.5,0.601-0.3,1.5c-0.4,0.7,0.8,1.101,0,1.2h-1.2c-1.1,0.3-0.5-1.3-0.3-1.5c0.3-0.5,0.1-1.5,0.6-1.8c0-1.2,0.7-2.8,0-3.8
			c-1.4-0.7-2.2,0.8-3.2,1.5c-0.8,1-1.5,2-2.3,2.899c-0.1,1-0.8,1.601-0.6,2.9h-2.6c0.6-2.7,2.9-5,2.3-7.9c-3-0.3-3.4,2-5,3.2
			c-0.4,1-1,1.7-1.5,2.6c-0.3,0.4-0.3,1.101-0.6,1.5c0.1,0.801,0.1,1.5-0.9,1.2c-1.4-0.2,0.2-1.6,0-2.3c0.3-0.8,0.4-1.8,0.9-2.3
			c0-1.9,1.1-3.7,0.6-5.3c-2.2-0.2-2.8,1.3-3.8,2.3c-0.9,1.1-1.5,2.6-2.3,3.8c0,0.9-0.4,1.4-0.6,2c-0.2,0.7,0.5,2.3-0.6,2
			c-1.4,0.4-0.7-1.2-0.9-2c0.9,0,1.1-0.7,1.5-1.2c0-0.3,0.1-0.5,0.3-0.6c0.2-2.101,1-3.4,1.5-5.3c0.2-1.601,1.6-3.9,0.3-5.301
			c-1.7,0.101-2.3,1.2-2.9,2.301C18.9,92,18.1,92.8,17.7,94.1C17,93.4,18.1,92,18,90.9c0.4-0.9,0.6-2.2,0.9-3.2
			c-0.2-1-0.6-1.8-1.5-2c1.4-0.8,3.7-0.8,5.5-1.2c2-0.2,3.7-0.6,5.6-0.9c4.1-0.3,7.7-1.1,12-1.199C42,86.6,43.6,90.5,45.8,94.1
			c0.5,0,1,0.2,1.2,0.601c9.6-0.4,19.9-0.2,28.3-1.8c2,0.1,3.601-0.101,5.3-0.301c1.101-0.399,1.4-1.5,2.301-2
			c0.8-3.3,2-6.199,2-10.199v-0.9c9.8-0.1,15.899,0.7,24.199,0.9c0.601,0.3,1,0.699,1.801,0.899c0.3,0.601,0.899,0.9,1.8,0.9
			C111.3,87.5,110.9,93.8,109.2,98.9z"/>
	</g>
</g>
</svg>
