<?xml version="1.0" encoding="utf-8"?>
<!-- Generator: Adobe Illustrator 16.0.0, SVG Export Plug-In . SVG Version: 6.00 Build 0)  -->
<!DOCTYPE svg PUBLIC "-//W3C//DTD SVG 1.1//EN" "http://www.w3.org/Graphics/SVG/1.1/DTD/svg11.dtd">
<svg version="1.1" id="Layer_1" xmlns="http://www.w3.org/2000/svg"  x="0px" y="0px"
	 width="120px" height="120px" viewBox="4 4 120 120" style="enable-background:new 4 4 120 120;" xml:space="preserve">
<g id="infinity">
	<g>
		<path d="M117.4,49.3c-2-3.6-4.2-7.2-7.101-9.9c-1-0.1-1.2-0.9-1.899-1.3c-0.9-0.2-1.601-0.8-2.2-1.3c-0.8,0-1.5-0.2-1.9-0.6
			c-0.5-0.1-1.2,0.1-1.3-0.3h-8.3c-5.5,0.7-9.9,2.5-14.101,4.5C79,41.9,77,43,75.5,44.6c-1.6,1.1-3.2,4.2-1.3,6.1
			c1.2,1.1,1.899-0.4,2.6-1c0.4-1.1,2.101-0.9,2.9-1.6c1.899-1.1,4.3-1.7,6.1-2.9c4.601-1.4,9.7-2.3,16-1.9
			c4.2,2.2,6.601,6.2,8.3,10.9c0.601,4.2,0.801,8.7,0,12.8c-1.399,2.2-2.399,4.6-4.199,6.4c-2.5,1.199-4.7,2.8-7.7,3.5
			c-1.3,0.6-2.2-0.7-3.8-0.601c-1.2-0.3-1.101,0.8-1.9,1h-3.2c-0.6-0.5-1.7-0.399-2.6-0.6c-2.8-1.101-4.3-3.601-6.4-5.5
			C79.7,69.6,78.6,68.6,78.1,67c-0.899-1.2-1.5-2.8-2.199-4.2c-1.2-3.1-3.2-5.6-4.5-8.7c-1.9-1.7-3.301-3.9-5.101-5.8
			c-3.9-3-7.9-6-13.5-7.4c-3.4-0.6-7.7-0.2-11.5-0.3c-7,0.7-12.1,3.3-17.3,5.8c-0.9,1-2.3,1.5-3.5,2.2c-0.9,1-2.3,1.6-3.2,2.6
			c-2.1,1.8-3.7,4-5.5,6.1c-0.4,1.2-1,2.2-1.6,3.2c0.2,1-0.6,0.9-0.3,1.9C9,62.6,9.7,64.2,9,64.3V74c0.5,1.5,0.4,3.7,1,5.1
			c0.3,1.9,1.3,2.9,1.6,4.801c1.1,1.3,2.1,2.6,3.2,3.8c1.1,1.2,2.6,2.1,3.8,3.2c1.9,0.399,4.1,0.699,6.1,1
			c2.8-0.301,5.5-0.7,8-1.301c2.8-1.399,6.1-2.399,8.7-4.199c2.8-1.5,5.1-3.5,7.7-5.101c1.1-1.6,2.8-2.6,3.8-4.2
			c1.6-1.199,2.4-3.199,3.8-4.5c0.9-1.8,2.3-3,3.2-4.8c1.3-1.2,2.5-3.9,1.3-5.8c-3.6-1.8-6.9,1.4-8.7,3.5c-2.3,2.3-4.5,4.7-6.7,7.1
			c-1.1-0.1-1.1,1.101-1.9,1.301c-0.6,0.6-1.5,0.899-1.9,1.6c-1.3,0.9-2.7,1.8-4.2,2.6c-2.8,1.801-5.7,3.5-9.6,4.2h-3.8
			C24.3,82,24.1,81.9,23.8,82c-2.1-0.9-3.6-2.4-4.5-4.5c-0.5-2.6-0.3-5.9-0.3-9c0.3-2.8,0.8-5.4,1.6-7.7c0.9-1.6,2.3-2.6,3.2-4.2
			c2-0.4,2.3-2.6,4.2-3.2c4.7-2.5,9.8-4.7,17-4.8c3.1,0.1,5.9,0.6,8.3,1.3c3.2,1.8,6.1,3.9,8.7,6.4c1,1.7,2.2,3.1,3.2,4.8
			c1.1,1.7,1.8,3.7,2.899,5.5C68.7,68.7,69.9,70.1,70.7,72.1c1,1.801,2.399,3.2,3.2,5.101c1.3,1,2.5,2.2,3.5,3.5
			c1.199,1.2,2.6,2.1,3.8,3.2c1.3,0.3,2.1,1.1,3.2,1.6c1-0.2,0.899,0.6,1.899,0.3c-0.1,0.9,2-0.3,1.9,0.601c6,0.199,11-0.5,16-1.301
			c0.5-0.5,1.1-0.8,1.899-1c1.2-1,2.9-1.6,3.801-2.899c1.199-1.101,2.6-1.9,3.199-3.5c2.4-2.101,3.5-5.4,5.101-8.3
			c0.1-0.5-0.101-1.2,0.3-1.301c0.2-0.5-0.4-1.699,0.3-1.6V57C118.6,54.3,118.1,51.7,117.4,49.3z"/>
	</g>
</g>
</svg>
