<?xml version="1.0" encoding="utf-8"?>
<!-- Generator: Adobe Illustrator 16.0.0, SVG Export Plug-In . SVG Version: 6.00 Build 0)  -->
<!DOCTYPE svg PUBLIC "-//W3C//DTD SVG 1.1//EN" "http://www.w3.org/Graphics/SVG/1.1/DTD/svg11.dtd">
<svg version="1.1" id="Layer_1" xmlns="http://www.w3.org/2000/svg"  x="0px" y="0px"
	 width="120px" height="120px" viewBox="4 4 120 120" style="enable-background:new 4 4 120 120;" xml:space="preserve">
<g id="info">
	<g>
		<path d="M57.729,31.777c0.38,0.219,0.551,0.646,0.514,1.283c2.47,3.615,7.683,5.8,14.1,4.616c5.286-1.987,8.214-7.39,7.438-14.615
			c-0.719-1.333-1.371-2.731-2.307-3.847c-1.054-0.998-2.234-1.868-3.334-2.82c-0.889-0.225-1.777-0.445-2.309-1.026
			c-1.243,0.046-2.055-0.338-3.079-0.513h-3.588c-0.158,0.015-0.304,0.04-0.255,0.257c-1.365,0.004-1.92,0.819-3.081,1.024
			c-2.209,2.062-3.693,4.854-4.357,8.462C57.56,26.991,57.248,29.78,57.729,31.777z M67.984,25.625
			c0.429-1.116,1.852-2.003,1.024-3.59c2.247,0.23,3.562,1.395,4.871,2.563c0.166,1.548,0.366,3.056,0.261,4.871
			c-0.302,0.042-0.218,0.469-0.261,0.771c-0.694,1.011-1.526,1.891-2.307,2.82c-1.089,0.193-1.619,0.941-3.076,0.769
			c0.201-1.254,0.948-1.957,0.771-3.589c0.121-0.577-1.393-0.792-1.539-0.256c-0.5-0.699,0.81-2.056,1.024-3.078
			C68.725,26.253,68.707,25.588,67.984,25.625z M85.678,95.625c-2.714-1.048-7.07-0.45-10.254-1.025
			c-0.188-7.277,1.094-13.092,1.021-20.258c0.172-0.684,0.773-0.937,1.285-1.281c0.213-0.641,0.701-1.006,0.766-1.795
			c0.146-1.822-0.303-4.235,0.259-5.641c2.195-0.199,4.524-0.264,6.155-1.025c1.541-1.365,1.292-4.521,1.281-7.437
			c0.291-1.937,0.49-5.023,0-6.922c-0.396-0.545-0.926-0.956-1.281-1.539c-2.396-0.851-5.732-0.764-8.975-0.769
			c-1.43-0.796-3.457-0.989-5.386-1.282h-8.72c-1.129-0.272-1.98,0.508-2.562,0c-2.155,0.578-5.369,0.1-7.95,0.256
			c-2.578,0.211-5.163-0.38-6.409,1.537c-0.766,1.354,0.426,2.079,0.254,3.592c-0.548,1.675-0.967,3.477-1.282,5.386
			c-0.559,1.547-1.208,4.063-0.254,5.64c1.271,0.865,3.097,1.176,5.384,1.025h3.076c0.949,0.164,2.556-0.332,3.078,0.256
			c-0.931,8.558-1.345,17.632-2.307,26.155v6.411c-3.644,1.141-8.399,1.172-10.002,4.358c-0.077,2.299,0.041,4.401,0.256,6.407
			c0.392,0.722,0.246,1.979,0.514,2.823c-0.074,1.268,0.485,1.904,0.769,2.818c0.737,0.115,0.803,0.908,1.796,0.77
			c0.12,0.818,1.704,0.176,2.048,0.77h7.181c4.186-0.772,9.316-0.598,13.076-1.795c4.52-0.074,8.796,0.094,12.822,0.515
			c1.119-0.522,1.289-1.687,1.793-2.565c1.459,0.008,2.05-0.855,2.822-1.537C86.361,105.139,88.625,98.805,85.678,95.625z
			 M53.37,103.061c0.113-0.314,0.328-0.526,0.769-0.513C54.028,102.863,53.812,103.074,53.37,103.061z M80.294,107.675
			c-1.907,0.06-3.521,0.414-5.64,0.257c-1.26,0.233-0.98-1.074-2.053-1.022c-0.899-0.048-0.845,0.864-1.539,1.022h-3.334
			c0.285-1.113,0.481-2.83-0.254-3.588c-0.363,0.021-0.729,0.042-0.771-0.258c-1.87,0.436-2.882,1.732-3.077,3.846
			c-1.03-0.176-1.463,0.246-2.308,0.258c-0.007-1.082,0.498-1.656,0-2.563c-2.054-0.09-2.156,1.774-3.076,2.819
			c-1.13,0.065-1.983,0.41-3.333,0.257c0.409-1.558,0.744-3.185,1.025-4.871c0.07-0.584-0.062-0.965-0.513-1.026
			c-0.146-0.238-0.713-0.388-0.256-0.513c1.073-0.433,1.481-0.423,1.282,1.283c-0.014,1.038,0.513,1.536,1.026,2.051
			c2.408-0.067,2.206-2.753,3.076-4.358c0.421-1.973,1.742-3.045,1.795-5.385c0.223-1.164-1.282-0.602-1.282-1.54
			c0.865-1.187,1.007-3.097,1.798-4.358c0.354-1.608,1.156-2.773,1.28-4.614c-0.258-0.511-0.444-1.095-1.027-1.282
			c-2.04,0.012-2.613,1.49-3.334,2.821c-0.695-0.234,0.264-0.898,0.259-1.282c0.147-0.536,0.633-0.732,0.511-1.539
			c0.668-0.697,0.917-1.82,1.281-2.818c0.894-1.759,1.217-4.086,2.053-5.898c0.031-1.348,0.385-1.874-0.256-2.819
			c-1.03-0.09-1.875,0.003-2.052,0.769c-0.514-0.034-1.19,1.744-1.28,0.514c0.687-1.021,0.829-2.59,1.28-3.846
			c0.536-1.178,0.836-2.584,1.286-3.848c-0.089-0.853-0.974-0.908-1.286-1.537c0.131-1.942,1.751-4.479,0.515-6.154
			c-1.352,0.017-1.362,1.375-2.564,1.539c-0.234-0.537-0.759-0.782-1.538-0.77c-0.062-1.22,0.326-2.89-0.771-3.077
			c-2.049,0.003-2.103,1.999-3.333,2.82c-0.639-0.216-1.374-0.335-2.306-0.256c0.909-1.826,0.925-4.543,1.538-6.667
			c6.737,0.354,13.95-0.221,20.257,1.027c0.482-0.285,1.21-0.329,1.792-0.514c2.134,0.261,3.989,0.797,5.899,1.282
			c-0.176,1.791-0.34,3.594-0.516,5.385c-1.145,0.395-2.566,0.509-3.844,0.77c-0.784-0.626-2.787-0.678-3.848-0.257
			c-0.355,1.525-0.269,3.491-1.024,4.615c-0.034,4.529-0.474,8.919-0.771,13.589c-0.31,4.898-1.17,8.84-1.281,14.104
			c-0.014,0.591,0.055,0.993,0,1.539c-0.086,0.876-0.156,1.418,0,2.563c0.393,0.888,0.923,1.643,2.052,1.795
			c0.228,1.054,1.256,1.308,1.795,2.052c2.358,0.372,4.64,0.831,7.437,0.77C81.361,102.629,80.236,105.198,80.294,107.675z"/>
	</g>
</g>
</svg>
