<?xml version="1.0" encoding="utf-8"?>
<!-- Generator: Adobe Illustrator 16.0.0, SVG Export Plug-In . SVG Version: 6.00 Build 0)  -->
<!DOCTYPE svg PUBLIC "-//W3C//DTD SVG 1.1//EN" "http://www.w3.org/Graphics/SVG/1.1/DTD/svg11.dtd">
<svg version="1.1" id="Layer_1" xmlns="http://www.w3.org/2000/svg"  x="0px" y="0px"
	 width="120px" height="120px" viewBox="0 0 120 120" enable-background="new 0 0 120 120" xml:space="preserve">
<g id="file-jpg">
	<g>
		<path d="M98.348,47.064c0.084-1.722,0.723-2.885,0.855-4.556c0.221-4.44-0.059-7.054,0-12.25
			c-0.039-4.425-0.018-8.912-0.855-12.531c-1.789,0.014-3.336,0.271-4.844,0.568c-0.814-0.512-1.65-1.008-3.133-0.855
			c-15.561-0.01-30.667-0.479-46.43-0.284c-0.413,0.157-0.694,0.445-0.857,0.856c-0.66,0.855-1.264,1.772-1.991,2.562
			c-0.535,0.503,0.338,0.833-0.287,1.423c-0.499,0.256-0.881,0.641-1.136,1.139c-1.537,1.506-3.027,3.055-3.988,5.127
			c-1.013,0.51-1.18,1.862-1.998,2.564c-0.801,0.716-0.902,2.136-1.705,2.851c-0.073,1.449-1.235,1.806-1.708,2.849
			c-0.71,0.989-1.958,1.508-1.998,2.849v6.552c0.198,1.703,0.759,3.039,0.856,4.842c-1.025,14.451-0.141,30.812-0.856,45.576
			c0.171,2.396-0.348,5.479,0.288,7.407v1.992c-0.173,0.509,0.832,1.185,0,1.427c-0.447,1.088-0.693,1.809,0,2.85
			c1.261,1.111,3.588,0.283,5.41,0.283c1.604-0.578,3.923-0.445,5.699-0.854c9.252-0.16,15.904,0.406,24.211-0.287
			c7.924-0.824,16.439-0.51,24.784-0.283c2.569,0.354,6.114,0.993,8.545,0.57c0.72-0.518,1.25-1.223,1.424-2.279
			c0.191-1.141,0.854-1.806,1.142-2.852C100.26,84.305,98.814,64.908,98.348,47.064z M43.941,26.557
			c-0.607,0.134-0.543-0.406-0.568-0.855C43.721,25.826,43.957,26.068,43.941,26.557z M41.66,27.697h0.855
			c0.378,1.428,1.372,2.232,2.279,3.131c-0.222,1.173,0.438,1.463,0.288,2.567c-1.338-0.091-1.157-1.697-2.278-1.996
			c-0.414-1.013-1.157-1.696-1.999-2.279C40.971,28.527,41.406,28.2,41.66,27.697z M40.805,33.396
			c0.356,0.878,0.941,1.528,1.71,1.991c-0.258,0.772-1.047-0.242-1.137-0.568c-0.416-0.246-0.903-0.43-0.855-1.14
			c-0.769-0.562-1.365-1.295-1.709-2.279C39.916,31.623,39.897,32.973,40.805,33.396z M36.535,34.248
			c0.686,0.547,0.947,1.521,1.71,1.993c-0.763,0.567-2.514,0.149-3.422,0.571C35.228,35.79,36.058,35.196,36.535,34.248z
			 M92.65,104.893c-1.459,0.127-1.561-1.098-2.85-1.14h-5.98c-10.951-1.046-21.323,0.877-32.188,0.853
			c-1.154,0.271,0.359-1.539-0.571-1.99c-1.281-0.145-0.799,1.479-1.421,1.99h-3.988c-1.307-0.198-2.891,0.324-3.422,0
			c0.395-1.646,1.762-3.357,1.143-5.125c-1.832-0.311-2.049,0.988-2.85,1.707c-0.229,1.289-1.133,1.905-1.143,3.418
			c-1.21-0.111-2.931,0.279-3.699-0.282c0.225-2.519,2.328-4.39,1.709-6.839c-2.279,0.191-2.66,2.279-3.42,3.99
			c-1.053-0.604-0.44-2.39,0-3.134c0.699-0.723,0.652-2.2,1.428-2.85c0.432-2.415,1.812-3.882,1.992-6.552
			c-0.854-0.711-1.922,0.188-1.992,1.142c-0.588,0.194-0.938,2.079-1.428,1.423v-2.279c0.36-1.255,1.086-2.144,1.711-3.133
			c0.434-2.32,1.504-4,1.992-6.269c0.236-2,2.038-4.315,0.856-5.979c-1.26-0.121-1.997,0.282-2.565,0.854
			c-0.689,0.09-1.26,1.751-1.707,1.142c-0.146-11.07,0.504-21.34,0.285-32.478c0.173-1.312-0.641-1.64-0.571-2.849h4.274
			c1.927-0.348,3.829-0.727,6.267-0.57c1.898-0.567,4.262-0.675,5.695-1.707c0.261-0.502,0.101-1.424,0.572-1.709
			c-0.444-2.5-0.653-5.233-1.139-7.689c-0.419-2.53-1.229-4.663-1.429-7.408c2.91-0.171,6.151-1.07,9.117-0.287
			c10.746-0.204,19.884,1.198,30.48,1.141c1.889,0.154,4.148,0.967,5.979,0.285c0.01,1.24,0.096,2.563-0.283,3.418
			c0.541,1.07,0.027,3.2,0.568,4.272c0.457,22.716,0.162,46.179,0.855,68.655C94.109,100.842,94.529,104.016,92.65,104.893z
			 M51.632,57.321c-1.08,0.345-2.062,0.79-1.992,2.279c0.817,1.462,4.152,0.398,5.695,1.139c-0.475,2.499,0.396,8.472-1.711,10.257
			c-0.665,0.568-1.811,0.656-3.133,0.568c-0.596-0.354-1.109-0.791-1.709-1.142c-0.037-0.915-0.643-1.252-1.709-1.14
			c-1.857,1.021-0.83,3.064,0,3.701c0.709,0.545,1.469,1.289,1.993,1.709c0.335,0.047,0.813-0.049,0.857,0.285h3.133
			c0.05-0.424,0.687-0.261,1.138-0.285c1.42-0.766,2.373-2,3.418-3.133c1.168-3.485,0.823-8.483,0.854-13.104
			C57.378,56.892,54.225,57.388,51.632,57.321z M69.863,58.745c-0.332-0.046-0.809,0.048-0.855-0.285
			c-2.26-0.339-5.27-0.543-6.549,0.856c-0.162,0.911-0.018,2.185,0,3.702c0.023,2.659-0.496,6.202,0,8.547
			c0.199,0.972-0.143,0.998,0.566,1.711c0.34,0.334,0.535,0.834,1.709,0.567c1.654-0.53,1.021-3.346,1.141-5.413
			c2.992-0.137,5.539-0.727,7.121-2.279c0.049-0.424-0.102-1.049,0.285-1.14c0.213-1.349-0.32-1.962-0.285-3.134
			C72.123,60.664,70.924,59.775,69.863,58.745z M65.875,65.579c0.09-1.604-0.504-2.529-0.283-4.271
			c2.871-0.31,4.258,0.867,4.271,3.416C68.684,65.164,67.361,65.454,65.875,65.579z M85.812,65.579h-3.129
			c-0.519,0.53-1.724,0.371-2.279,0.858c-0.588,0.457-0.661,1.43-0.569,2.561c0.888,1.229,2.983-0.15,3.985,0.57
			c-0.478,1.326-0.69,2.918-1.707,3.707c-1.579,0.15-2.801-0.058-3.131-1.143c-0.056-4.513-0.041-8.96,2.56-10.824
			c0.699,0.324,2.043,0.946,2.851,0.285c0.907-2.308-1.283-3.54-3.705-3.418c-3.037,0.941-4.278,6.012-4.56,10.254
			c-0.101,1.529,0.146,3.703,0.287,4.271c0.207,0.837,0.104,0.799,0.287,1.424c0.354,0.113,0.582,0.367,0.565,0.854
			c0.834,0.213,1.399,0.689,1.996,1.141c1.637-0.073,3.631,0.215,4.842-0.282c0.981-1.396,1.729-3.021,1.707-5.414
			c0.688-1.022,1.418-2.003,1.711-3.421C87.041,66.443,86.65,65.793,85.812,65.579z"/>
	</g>
</g>
</svg>
