<?xml version="1.0" encoding="utf-8"?>
<!-- Generator: Adobe Illustrator 16.0.0, SVG Export Plug-In . SVG Version: 6.00 Build 0)  -->
<!DOCTYPE svg PUBLIC "-//W3C//DTD SVG 1.1//EN" "http://www.w3.org/Graphics/SVG/1.1/DTD/svg11.dtd">
<svg version="1.1" id="Layer_1" xmlns="http://www.w3.org/2000/svg"  x="0px" y="0px"
	 width="120px" height="120px" viewBox="4 4 120 120" style="enable-background:new 4 4 120 120;" xml:space="preserve">
<g id="key">
	<g>
		<path d="M104.305,33.535c-0.584-0.695-0.654-1.899-1.367-2.464c-0.138-1.14-0.959-1.597-1.097-2.736
			c-0.603-0.675-1.151-1.401-1.368-2.463c-0.551-0.727-1.02-1.535-1.369-2.464c-4-4.301-10.039-6.566-16.42-8.486
			c-7.346-0.317-13.514,0.538-18.888,2.19c-0.714,0.745-1.996,0.922-2.462,1.916c-1.231,0.229-1.505,1.411-2.738,1.642
			c-1.388,1.625-2.953,3.069-4.38,4.653c-2.345,3.583-4.573,7.286-5.748,12.042v5.749c0.556,2.455,0.762,5.259,1.642,7.389
			c0.609,2.498,1.727,4.479,2.739,6.57c-1.331,1.315-2.052,3.24-3.011,4.925c-1.034,1.705-2.155,3.32-3.011,5.203
			c-0.6,0.673-1.156,1.398-1.37,2.461c-0.45,0.918-1.325,1.411-1.642,2.465c-1.399,1.335-1.969,3.503-3.284,4.928
			c-1.191,1.453-2.269,3.019-3.559,4.379c-1.232,1.502-2.245,3.229-3.556,4.652c-0.787,1.951-2.131,3.346-3.284,4.926
			c-0.372,0.998-1.386,1.354-1.644,2.465c-0.719,0.647-1.516,1.223-1.641,2.463c0.273,3.465,1.382,6.099,1.641,9.58
			c0.434,0.479,0.366,1.459,0.549,2.189c0.324,0.678,0.396,1.609,0.545,2.463c0.488,1.43,0.135,3.697,1.097,4.653
			c2.599,0.228,3.87-0.874,5.2-1.917c1.933-0.438,2.34-2.402,4.107-3.012c1.705,1.42,5.305,1.256,7.39,0.274
			c1.327-1.228,2.113-2.994,2.462-5.198c0.538-0.742,0.738-1.818,0.82-3.015c0.57-0.069,0.075-1.201,0.549-1.367
			c-0.135-0.864,0.493-0.967,0.272-1.916c1.163-1.391,2.441-2.669,3.832-3.832c1.283-1.271,2.022-3.088,3.832-3.832
			c0.979,0.757,1.839,1.63,3.833,1.369c1.911-0.278,2.784-1.597,4.377-2.188c1.906-2.748,4.08-5.229,5.75-8.211
			c2.047-2.606,2.236-7.068,4.652-9.307c2.068,0.151,3.191,0.286,5.201,0c3.414-0.874,6.166-2.408,9.029-3.832
			c0.498-0.779,1.559-0.999,1.918-1.917c0.793-0.573,1.063-1.673,2.188-1.915c1.448-1.197,2.636-2.66,4.104-3.833
			c0.869-1.688,2.016-3.093,3.285-4.379c0.067-1.3,0.838-1.898,1.097-3.011c0.261-1.199,0.282-2.633,0.545-3.832
			C105.227,44.108,105.082,38.505,104.305,33.535z M98.83,42.567v2.462c-0.66,2.26-0.107,5.731-1.094,7.665
			c-0.629-0.558-0.1-2.272-0.275-3.285c-0.199-0.802-0.828-1.177-1.367-1.642c-0.797,0.206-1.355,0.65-1.914,1.095
			c-0.043,0.323,0.045,0.777-0.275,0.82v4.38c-0.781,1.954,0.414,5.887-0.82,7.391c-1.02-1.354,0.861-5.605-1.368-5.749
			c-1.536,0.471-1.493,2.522-1.643,4.378c-0.472-0.351-0.339-1.302-1.095-1.368c-2.186,0.643-1.713,3.945-1.916,6.567
			c-0.863,0.418-1.739,0.816-2.737,1.096c0.284-1.304,0.696-3.839-0.548-4.379c-2.102,0.364-2.641,2.289-2.465,4.927
			c-0.707,0.295-1.019,0.99-1.914,1.095c-0.012-0.992,0.152-2.158-0.549-2.463c-1.44-0.162-1.269,1.285-1.642,2.189
			c-0.731-0.271-1.442-0.562-2.462-0.546c-0.963-0.05-0.902,0.922-1.645,1.094c0.219,0.949-0.406,1.052-0.272,1.914
			c-1.171,1.203-1.679,3.067-2.462,4.655c-0.557,1.906-1.368,3.559-2.189,5.199c-2.188,2.648-3.854,5.818-6.298,8.211
			c-1.695-0.772-2.558-1.959-4.104-2.463c-2.511-0.045-2.983,1.941-4.378,3.01c-1.114,1.443-2.605,2.507-3.559,4.106
			c-0.928,0.716-1.737,1.548-2.738,2.188c-1.177,3.293-1.499,7.441-3.011,10.402c-2.119,0.021-2.768-1.431-5.201-1.097
			c-0.403,0.142-0.688,0.405-1.091,0.55c-0.909,0.461-1.265,1.473-1.918,2.188c-0.48,0.246-0.847,0.611-1.096,1.095
			c-0.482-0.078-0.848,1.287-1.094,0.547c-0.747-3.446-1.279-7.114-1.916-10.673c0.275-1.096,1.167-1.572,1.644-2.465
			c0.787,0.056,1.39-0.07,1.641-0.548c0.613,0.118,0.11,1.35,0.274,1.917c-0.115,0.936,0.821,0.822,1.093,1.367
			c2.356-0.928,1.462-5.108,2.463-7.391c0.416,0.719,1.736,1.559,2.466,1.096c0.935,0.115,0.821-0.819,1.369-1.096V86.63
			c0.179-1.001-0.593-1.052-0.547-1.917c-0.182-1.002,0.592-1.05,0.547-1.915c0.531,0.835,0.777,1.958,2.463,1.642
			c0.858,0.132,0.722-0.736,1.37-0.82v-3.833c-0.172-1.321-1.003-2.535,0-3.558c0.534,0.377,0.145,1.678,0.545,2.189
			c0.292,0.621,0.83,0.994,1.646,1.094c1.205,0.202,1.116-0.885,1.913-1.094v-4.38c-0.214-0.88-0.374-1.813-0.82-2.463
			c-0.611-0.691,0.598-1.222,0.548-2.19c0.768,0.6,0.943,1.792,2.736,1.369c0.275,0.001,0.327-0.223,0.548-0.273
			c1.475-1.239,0.678-4.778,0.273-6.568c0.037-0.967,0.785-1.223,0.821-2.19c0.597,0.495,0.046,2.142,0.547,2.737
			c2.704,0.528,2.161-1.77,1.917-3.56c-0.123-0.97-0.923-1.265-1.094-2.188c0.569-0.89,0.933-1.986,1.367-3.011
			c-0.116-1.528-0.723-2.561-1.096-3.832c0.052-1.588,1.167-2.119,1.096-3.831c-0.56-0.584-1.084,0.076-1.642,0.273
			c0.027,0.33-0.398,0.167,0,0c-0.009-2.291,1.462-3.099,1.368-5.475c-0.83-1.162-2.297,0.773-2.464,0.275
			c0.639-3.47,2.629-5.583,4.104-8.212c-0.365-1.185-0.854-2.245-2.734-1.916c2.039-4.984,5.998-8.052,10.125-10.948
			c3.247-0.677,6.406-1.441,10.127-1.643c1.777,0.23,3.657,0.358,5.75,0.273c1.74,0.449,3.127,1.25,4.926,1.642
			c1.352,0.84,2.564,1.811,4.381,2.189c2.147,2.869,4.712,5.322,6.842,8.212c-0.167,1.809,0.477,2.806,0.271,4.652
			c0.188,1.183,0.74,1.999,1.096,3.012C98.878,40.605,99.327,42.058,98.83,42.567z M89.797,35.997
			c-2.125-2.982-5.232-4.984-10.398-4.927c-0.168,0.016-0.323,0.042-0.273,0.274h-0.548c-1.565,0.604-2.101,1.135-3.009,2.19
			c-0.75,0.864-1.271,1.494-1.645,2.188c-0.503,0.932-0.898,1.873-1.367,2.738c0.109,1.816-0.147,3.662,0,5.474
			c0.137,1.688,0.508,3.194,1.094,4.38c0.719,0.615,1.474,1.263,2.189,1.642c1.874,0.989,5.389,1.079,8.21,0.547
			c1.214-0.795,2.368-1.647,3.558-2.462c0.275-0.917,1.099-1.275,1.371-2.189c0.576-0.702,0.582-1.973,1.095-2.737
			C89.991,40.731,90.297,37.964,89.797,35.997z M85.419,42.02c-0.392,0.521-0.636,1.187-0.821,1.915
			c-0.812,0.649-1.549,1.371-2.461,1.917c-1.59-0.054-3.546,0.258-4.381-0.549c-0.512-1.772,0.514-3.929,0.547-6.02
			c0.773-0.78,1.146-1.958,2.191-2.464c1.953-0.693,3.975-0.022,4.925,1.095V42.02z M65.986,63.368
			c-0.066,0.391-0.453,0.461-0.549,0.82c-2.671,2.528-4.852,5.552-7.116,8.486c-1.357,1.196-2.322,2.787-3.559,4.104
			c-1.128,1.342-2.361,3.851-0.548,5.201c1.336-0.056,1.991,0.116,2.462-0.272c0.177-0.146,0.11-0.69,0.276-0.822
			c0.753-0.591,1.48-1.304,1.914-2.188c1.505-1.236,2.494-2.98,3.835-4.379c1.188-1.459,2.319-2.971,3.557-4.379
			c0.718-2.021,2.819-2.658,2.462-5.75C68.137,63.588,67.395,63.146,65.986,63.368z"/>
	</g>
</g>
</svg>
