<?xml version="1.0" encoding="utf-8"?>
<!-- Generator: Adobe Illustrator 16.0.0, SVG Export Plug-In . SVG Version: 6.00 Build 0)  -->
<!DOCTYPE svg PUBLIC "-//W3C//DTD SVG 1.1//EN" "http://www.w3.org/Graphics/SVG/1.1/DTD/svg11.dtd">
<svg version="1.1" id="Layer_1" xmlns="http://www.w3.org/2000/svg"  x="0px" y="0px"
	 width="120px" height="120px" viewBox="4 4 120 120" style="enable-background:new 4 4 120 120;" xml:space="preserve">
<g id="keyboard">
	<g>
		<path d="M119,42.3c-0.4-2.3-0.6-4.8-1.1-6.9c-0.301-1.2-0.601-1.9-1.101-2.9c0-0.1,0-0.2,0-0.3c0-0.3-0.2-0.1-0.3-0.3
			c-0.5-0.9-0.8-1.1-1.4-1.7c-3.1-1.1-8.1-0.3-12.1-0.6c-0.4,0-0.4,0.4-0.9,0.3C94.4,29.9,87.9,31,80.6,31.3
			c-8.1,0.4-15-0.5-22.7-0.6c-10-0.6-21.1-0.1-31.6-0.3c-0.8-0.2-2.3,0.4-2.6-0.3c-1.8,0.2-4.2-0.3-5.5,0.3c-2,0.1-4.3-0.3-5.5,0.6
			c-1.3,1.5-3,2.7-2.9,5.7c-0.8,0.6,0.3,3.1-0.6,3.7V45c-0.5,1,0,3-0.2,4.2v4.3c0.3,2.7,0.2,5.7,0.6,8.3c0.8,5,1.4,10.3,1.7,15.8
			c0.6,2.301-0.1,5.801,0.6,8c0.6,2.801-0.5,5.601,0.6,7.801c1.6,1.6,3.8,2.699,7.5,2.3c3.1,0.2,5.8,0.7,9.2,0.6
			c5.6,0.9,12.8,0.2,18.7,0.9c6.3,0.3,12.6,0.6,18.9,0.6s12.5-1,18.7-0.899c5-0.801,10.2-1.5,16.1-1.4c2.601-0.5,5.601-0.2,8-0.6
			c2.7-0.4,4.601-1.5,6.301-2.601C116.3,91.1,116.8,89.9,117.3,88.9c-0.2-1.101,0.5-1.2,0.3-2.301c-0.199-0.699,0.4-2.1-0.3-2.3
			c0-3.399,0.5-6.399,0.3-10c0.2-6.7,0.7-13.1,1.4-19.2V42.3z M114.1,55.2c-1.8,10.2-1,23-2.3,33.6c-10,1-20.7,1.3-31.899,1.101
			C70.4,88.6,59.4,88.8,48.6,88.8c-9.8-0.2-21.6-0.2-31,0.9c-1.4-2.601-0.9-7.2-1.4-10.601c0.1-4-0.6-7.199-0.9-10.899
			c-1.3-6.6-1.4-14.3-1.7-21.8c0-2.3,0.5-4.1,0.3-6.6c0.5-1.7,0-4.4,1.4-5.2c0.8,0.2,0.7-0.4,1.4-0.3c7.8,0.4,16.2,0.9,24.7,0.9
			c8.4,0,16.8-0.2,24.4,0.9c2.5,0.5,4.7-0.1,7.2,0.3c-0.1,0,0.1,0.5,0.3,0.3c0.4-0.5,0.4,0,1.101,0c-0.101,0,0.8-0.4,1.399-0.3
			c2.5,0.3,6.7-0.1,10-0.3c0.9,0,2,0.2,2.9-0.3c3.899-0.3,7.8-0.6,11.8-0.9c3.9,0.1,8.3-0.8,12.1,0C114.5,40.3,114.1,48,114.1,55.2z
			 M26.3,52.9c2.3-0.2,4.9-0.3,6.6-1.1c0.8-1.2,0.5-3.5,0.9-5.2c-0.1-2,0.3-4.5-0.6-5.7C32,39.8,29.6,40,27.4,40
			c-0.5-0.7-2.2-0.1-3.2-0.3c-1.1-0.1-2.5,0.2-3.2-0.3c-0.4,0-0.4,0.4-0.9,0.3h-0.9c-1.2,1.2-0.9,3.6-0.9,6c0,2.4-0.3,5.2,0.6,6.6
			C20.8,53.3,23.8,52.9,26.3,52.9z M21.4,43.2c3.3-0.2,5.7,0.4,8.9,0.3V49c-2.4,0.8-5.6,0.9-8.9,0.9V43.2z M42.3,53.2
			c2-0.3,4.3-0.3,6-0.9c0.9-1.4,0.6-3.7,0.6-6c0-2.2,0.2-4.7-0.3-6.3c-2.2-1.1-6.2-0.4-9.2-0.6c-0.8,0.4-2,0.5-2.6,1.1
			c-0.3,3.7-0.8,8.6-0.3,12.1C37.8,53.6,40.5,53.7,42.3,53.2z M39.5,42.9h6.3v6.9c-2.1,0.3-4.1,0.7-6.6,0.6
			C39.5,48,39.6,45.6,39.5,42.9z M73.4,52.9c1.899-0.6,4.8-0.2,6.3-1.1c0.5-1.4,0.2-3.6,0.3-5.5c-0.6-1.8-0.5-4.5-1.7-5.7
			C76.4,40,73.4,40.4,71.4,40.6C70.6,41.5,68.8,41.3,68,42c-0.7,2.8-1.6,6.8-0.9,10C68.2,53.3,71,52.9,73.4,52.9z M70.2,43.5
			c1.7,0.7,3.7-0.3,6,0c0.6,1.6,0.899,3.5,0.899,5.7c-2.1,0.6-4.6,0.7-7.199,0.9C69.3,48.2,70,45.4,70.2,43.5z M51.2,53.5
			c2.1,1.2,6,0.4,8.3,0c1.7,0,3.6,0.1,4.6-0.6c0.4-3.9,1.1-10.4-1.4-12.3c-1.2,0-2.6-0.1-3.4,0.3c-2.7,0.2-6.3-0.6-7.8,0.9
			c-0.9,1.3-0.6,3.5-0.6,5.7C51,49.6,50.8,51.9,51.2,53.5z M54.1,44.3c1.8-0.6,4.9-0.1,7.2-0.3v6.3c-2.4,0.3-4.6,0.7-7.5,0.6v-6.3
			C53.8,44.4,53.9,44.4,54.1,44.3z M104.6,41.2C97.2,41.6,91.2,40.7,84.2,40.6c-0.3,0.1-0.7,0.3-0.9,0.6c-0.399,0-0.6,0.1-0.899,0.3
			c-0.5,1.9,1.3,1.6,1.1,3.2c-0.5,0.7-0.2,2.3-0.6,3.2c0.199,1.9-0.301,4.5,0.3,6c3.1,0.8,6.399-0.4,9.5-0.6
			c3.8-0.2,8.399,0.4,11.8-0.3c1.1-1.3,0.6-4.2,1.1-6C106.4,44.7,106.1,42.2,104.6,41.2z M102.1,50.4C96.2,50.2,90.7,50.5,85.7,51.3
			c-0.3-2.4,0.6-4.9,0-6.6C85.6,44.2,86,44.2,86,43.8c4.7,0.4,10.8,0.8,16.9,0.6C102.8,46.5,102.5,48.5,102.1,50.4z M85.7,56.1
			c-3.5-0.3-6.8-0.8-10.601-0.9c-0.3,0.1-0.699,0.3-0.899,0.6c0,1.2-1.9,0.6-2.3,1.4C72,61,72,64.8,72.8,67.9
			c1.4,1,3.9,0.899,6.3,0.899c2.5,0.101,4.801,0,6-1.1c0.601-0.5,0.4-1.8,0.9-2.3c0.2-1-0.4-2.7,0.3-3.2
			C86.1,60.1,86.7,57.3,85.7,56.1z M82.8,65.6c-2,0.601-5.2,0.101-7.7,0.301c0.2-2.9-0.699-4.7-0.6-7.5c2.9,0.2,5.6,0.7,8.9,0.6
			C83.4,61.4,83.2,63.5,82.8,65.6z M101.2,67.9c0.899-1.7,0.899-4.3,0.899-6.9c0.4-1.3,0.5-4-0.3-4.9c-1.8-1-5.3-0.4-8-0.6
			c-0.7,0.2-1.2,0.7-1.399,1.4c-0.4-0.4-1.4-0.9-2-0.3C89.3,58.1,90,61.4,89.8,63.8c-0.1,1.3-0.6,2.3,0,3.4
			c1.101,1.1,3.601,0.8,5.5,1.1C97.3,68.4,99.9,68.8,101.2,67.9z M92.3,57.5c1.9,1.9,4.3,0.7,7.2,0.9c0.1,2.6,0,4.9-0.3,7.2h-6.9
			V57.5z M42.9,59c0.2,3.1,0,6.5,0.9,8.9c2.3,0.5,6.6,0.5,8.9,0c1.3-1,0.6-4,1.1-5.7c-0.1-2.2,0.4-5-0.9-6c-2.5-0.7-6-0.1-8.3,0.3
			C44,57.2,43.4,58.1,42.9,59z M51.2,58.7c0.1,2.6-0.1,4.8-0.3,7.2h-5.2c0-1.2-0.5-2-0.3-3.4c-0.3-0.8-0.1-2-0.6-2.6
			C46.5,58.9,49,58.9,51.2,58.7z M38.9,68.2c0.9-1.3,0.6-3.601,0.6-5.7c0-2.2,0.3-4.5-0.6-5.7c-1.8-1-6.1-0.7-8.3-0.3
			c-1.7,0.1-3.9-0.3-4.9,0.6c-0.5,3.2-0.5,8.3,0,11.5c1.2,1.301,4.2,0.801,6.6,0.9c0.6-0.7,2.5,0,3.2-0.6
			C36.9,68.8,38.2,68.8,38.9,68.2z M36.3,65.6c-2.9,0-4.9,0.801-8,0.601v-6.3c2.7-0.1,5.1-0.5,8-0.3V65.6z M60.1,56.7
			c-0.4,0.2-0.7,0.4-0.9,0.9c-0.4,0.5-1.1,0.6-1.4,1.1c0.5,2.8,0,6.5,0.6,9.2c0.8,1,2.9,0.8,4.3,1.1c1.8-0.1,4.1,0.2,5.5-0.3
			c0.899-1.2,0.899-3.3,0.899-5.5c-0.1-2.1,0.301-4.7-0.6-6C66.6,56.2,62.9,56.9,60.1,56.7z M66.5,59.6c0,3,0.5,4,0,6.9
			c-1.8-0.2-3.6-0.4-5.7-0.3c0.2-2.5-0.2-4.4-0.3-6.6H66.5z M84.3,71.9C68.8,71.6,53.4,73.2,38.7,71.3C38.4,71.4,38,71.6,37.8,71.9
			h-0.3c-1.1,2.399-1.1,7.699-0.9,10.6c0.9,1,3.1,0.8,4.6,1.1c1.8,0.2,3.5,0.5,5.5,0.601c3.7,0.1,7.9,0.7,11.5,0
			C65.7,83.7,74,84,82,84c1.7,0.2,4.6,0.6,6.3,0c1.2-2.4,1.5-7.1,0.9-10.3C88.1,72.5,86.8,71.5,84.3,71.9z M86,81.4
			C78.5,80.7,69.8,81.3,61.9,81.1c-0.4,0.7-2,0.101-2.9,0.301c-1.3-0.2-1.6,0.5-2.9,0.3h-6c-4,0-7.3-0.7-11.2-0.9v-6
			c0-0.399,0-0.8,0.3-0.899c2.5-0.101,4.2,0.6,6.3,0.899c13.4,0.3,27,0.3,40.8,0.3C86.1,77.1,86.6,79.8,86,81.4z M96.9,71.3
			C96.2,72,94.6,71.7,94,72.5c0.2,3.4-1.1,7.8,0.3,10.6c0.9,0.9,3.101,0.5,4.9,0.601c1.6,0.399,4.3,0.5,5.5-0.3
			c0.7-3.101,0.899-8.101,0.3-11.5C103.2,70.8,99.5,71.6,96.9,71.3z M102.3,80.8C100.9,81.4,98.4,80.9,96.6,81.1
			c-0.3-2.1-0.3-4.5-0.3-6.899h6V80.8z M21.4,72.5c-0.3,0.1-0.7,0.3-0.9,0.6c-1,0.9,0,3.601,0,5.2c0,2-0.1,4.101,0.9,5.2
			c3.4,0.6,8.8,0.6,10.6-1.4c0.5-2.6,0.5-6.6-0.3-8.899C29.1,72,24.8,72.7,21.4,72.5z M30,80.5c-2,0.6-4.3,0.9-6.9,0.9
			c0.2-2.301-0.4-3.801-0.3-6h6.9C30.2,76.6,29.9,78.8,30,80.5z"/>
	</g>
</g>
</svg>
