<?xml version="1.0" encoding="utf-8"?>
<!-- Generator: Adobe Illustrator 16.0.0, SVG Export Plug-In . SVG Version: 6.00 Build 0)  -->
<!DOCTYPE svg PUBLIC "-//W3C//DTD SVG 1.1//EN" "http://www.w3.org/Graphics/SVG/1.1/DTD/svg11.dtd">
<svg version="1.1" id="Layer_1" xmlns="http://www.w3.org/2000/svg"  x="0px" y="0px"
	 width="120px" height="120px" viewBox="0 0 120 120" enable-background="new 0 0 120 120" xml:space="preserve">
<g id="lab-bottle">
	<g>
		<path d="M106.316,87.193c-1.022-2.385-3.067-4.527-4.27-6.264c-0.211-0.309-0.293-0.346-0.57-0.57
			c-0.097-0.077,0.078-0.469,0-0.57c-0.377-0.482-1.014-0.932-1.422-1.421c-1.508-1.785-2.492-3.751-3.988-5.413
			c-0.918-1.834-2.453-3.051-3.414-4.838c-2.803-2.606-4.91-5.912-7.689-8.544c-0.908-1.843-2.443-3.062-3.418-4.841
			c-0.816-0.51-1.413-1.243-1.707-2.276c-0.916,0.249-0.393-0.941-1.139-0.855c-0.088-0.671-0.99-0.528-0.857-1.423
			c-0.957-1.225-3.312-1.051-3.697-2.849c-1.074-4.339-0.266-10.558-0.854-15.376c0.916-1.36,2.996-1.562,3.985-2.848
			c0.986-0.724,2.773-0.644,3.703-1.424c0.979-0.729,1.889-1.529,2.276-2.848c0.231-2.415-0.489-3.877-1.427-5.125
			c-0.779-0.545-1.986-0.67-3.129-0.854c-0.366,0.016-0.396,0.365-0.857,0.285c-6.24,0.306-12.887,0.208-18.792,0.854h-9.68
			c-3.487-0.166-6.606,0.037-8.257,1.709c-0.505,1.352-0.324,3.737,0,5.125c1.041,1.047,2.085,2.088,3.7,2.563
			c0.99,1.1,3.655,0.524,4.558,1.708c0.633,5.2,0.29,11.602-0.285,16.514c-0.745,0.964-1.226,2.191-1.994,3.133
			c-0.624,1.084-1.066,2.35-1.994,3.133c-0.524,1.182-1.318,2.1-2.277,2.846c-0.558,1.246-1.604,2.002-2.277,3.135
			c-3.275,3.749-6.283,7.76-9.682,11.388c-0.189,1.045-0.304,2.166-0.567,3.133c-2.143,2.226-3.636,5.099-5.696,7.403
			c-0.353,1.449-0.924,2.685-1.708,3.701c-0.318,2.148-0.939,3.998-1.425,5.979c0.105,3.657-0.327,6.124,0,9.396
			c0.831,1.263,1.905,2.271,2.844,3.418c0.552,0.494,1.448,0.646,1.996,1.141c0.431,0.708,0.975,1.3,1.994,1.421
			c2.328,0.522,4.855,0.841,7.401,1.142h19.08c0.994-0.397,1.823,0.799,2.279,0c6.557,0.75,13.665,0.953,21.07,0.854
			c7.854-1.065,15.821-2.021,23.347-3.415c0.377-0.575,0.938-0.965,1.707-1.143c0.713-0.998,1.479-1.941,2.277-2.846
			C106.277,97.311,107.161,92.057,106.316,87.193z M47.658,57.01c1.771,0.059,3.088-0.332,3.708-1.423
			c0.604-1.476-1.821-1.386-1.143-1.992c0.429-1.946,3.507-1.242,5.413-1.71c1.074-0.442,2.421-0.614,2.275-2.277
			c-0.102-2.081-3.388-0.979-4.842-1.709c-0.084-1.033,1.521-0.378,1.994-0.852c0.918,0.061,1.207-0.505,2.279-0.287
			c0.877-0.926,2.955-0.652,2.848-2.562c-0.041-1.289-1.515-1.146-2.848-1.139c0.238-0.712,0.779-1.117,0.855-1.994
			c-0.128-1.581-3.109-0.309-3.988-1.139c-0.261-1.879,1.815-1.413,2.85-1.992c0.343-0.891,1.054-1.411,0.852-2.848
			c0.855-0.383,1.916-0.55,1.994-1.708c0.134-0.895-0.769-0.753-0.856-1.425c-1.965-0.343-3.692,1.043-5.125,0.287
			c-0.006-1.688,0.988-0.683,2.278-0.856c0.941-0.292,1.275-1.19,1.708-1.992c0.916-0.064,1.204,0.503,2.278,0.284
			c1.701-0.674,4.998,0.252,6.265-0.855c0.145-1.188-0.157-1.928-0.572-2.562c-1.918-0.021-3.904-0.106-5.121,0.569
			c-3.076,0.152-6.784-0.325-9.396,0.285c-1.429-0.285-2.749-0.669-4.56-0.569c-0.224-0.628-1.337-0.37-1.423-1.139
			c-0.497-0.257-1.096-0.64-0.571-1.141c3.064-0.187,7.281-0.658,10.251,0c4.941-0.159,11.222-1.126,15.662,0
			c2.065-0.308,4.282-0.462,6.549-0.569c-0.183,1.334-1.904,1.133-2.562,1.992c-0.69,0.451-1.26,1.02-1.711,1.71
			c-1.291,0.039-1.959,0.696-3.129,0.854c-0.8,3.474-0.812,7.729-0.854,11.96c-0.562,2.57-0.17,6.095-0.285,9.11
			c0.151,0.23,0.302,0.464,0.285,0.856c0.75,1.337,1.793,2.382,3.131,3.132c1.049,3.507,3.563,5.55,5.692,7.973
			c0.501-0.165,1.677,0.343,1.709-0.284c1.089,0.432,1.281,1.756,2.277,2.277c0.229,1.193,1.528,1.322,1.711,2.562
			c-2.435-0.32-4.562-0.941-7.403-0.855c-0.113-1.496-1.111-2.111-1.992-2.842h-2.563c-1.55,0.819-3.146,1.596-3.415,3.698
			c-1.777,0.215-2.996,0.992-4.559,1.423c-2.062,0.066-3.361-0.621-4.836-1.138c-2.46-0.088-4.706,0.041-6.552,0.567
			c-1.643,0.727-2.854,1.893-4.558,2.562h-1.99c-1.975-0.398-1.635-3.105-4.271-2.848C43.272,63.062,46.452,61.02,47.658,57.01z
			 M73.572,64.982c-0.148,0.951-2.561,0.646-3.135,0.285C71.025,64.557,72.668,64.585,73.572,64.982z M37.695,71.247
			c1.614,0.19,1.922-0.927,3.135-1.138c1.072,0.353,1.466,1.377,2.277,1.992c-0.782,0.928-2.23,1.185-3.988,1.138
			c-1.367,0.532-2.271,1.524-3.7,1.993C35.896,73.625,37.218,72.855,37.695,71.247z M39.405,79.789
			c0.148-1.366,1.528-1.512,3.13-1.421c-0.037,0.509,0.351,0.599,0.285,1.139C41.781,79.822,40.394,80.232,39.405,79.789z
			 M39.689,82.922c0.051-0.23,0.285-0.283,0.285-0.568h0.569C40.674,82.961,40.136,82.895,39.689,82.922z M29.723,95.736
			c-1.049,0.186-1.419,1.047-1.99,1.707c-0.998-0.65,0.671-1.01,0.283-1.993c0.801-0.526,1.713-0.941,1.994-1.992
			c1.136-0.097,1.579,0.507,2.848,0.284c-0.102,0.943-1.646,0.447-2.563,0.568C29.869,94.555,29.682,95.029,29.723,95.736z
			 M32.857,98.582c-0.971,0.361-1.08,1.58-2.279,1.708c0.567-0.854,1.068-1.776,1.992-2.276c0.741-0.587,0.667-1.99,2.279-1.709
			C34.648,97.53,33.171,97.477,32.857,98.582z M36.272,85.199H34.85c0.082-0.58,0.77-0.559,0.852-1.139
			C36.204,84.129,36.351,84.55,36.272,85.199z M36.84,100.29C36.871,100.635,36.431,100.468,36.84,100.29
			c-0.207-0.774,0.567-0.571,0.571-1.138C38.013,99.241,37.473,100.503,36.84,100.29z M42.82,101.145
			c-0.87-0.207-0.834,0.492-1.708,0.287c0.549-1.162,1.089-2.33,2.561-2.562C43.748,99.984,42.645,99.926,42.82,101.145z
			 M73.572,95.45c-0.66-1.729,0.199-3.825,1.141-4.841c0.867,0.205,1.035-0.291,1.709-0.284c0.996-0.048,0.895,1.002,1.42,1.423
			c0.117,1.445-0.99,1.665-1.42,2.562C75.508,94.727,75.157,95.705,73.572,95.45z M100.908,94.881
			c-0.801,1.291-2.357,1.822-3.7,2.562c-7.614-0.396-13.511,0.918-20.786,0.854c1.414-1.622,3.34-2.732,3.984-5.126
			c-0.165-3.155-1.455-5.188-4.84-5.125c-1.871-0.096-2.262,2.584-3.988,1.709c-1.217,1.493-1.873,3.205-1.421,5.694
			c0.315,1.203,1.022,2.014,1.421,3.132c-4.59,0.252-8.846,0.835-13.666,0.854c-1.244-0.144,0.826-1.287,0.569-2.275
			c-0.606-1.729-3.158-0.84-3.988,0.283c-1.606,0.479-1.874,2.301-3.7,2.562c0.632-0.982,1.69-1.536,1.709-3.133
			c-1.053-1.131-4.037-0.329-5.979-0.571c-1.091,0.054-0.105-0.229-0.285-0.854c0.207-0.776-0.567-0.573-0.571-1.14
			c-0.799-0.342-1.967-0.312-3.132-0.287c0.072-2.355,2.306-0.808,4.271-1.139c1.401,0.309,2.651,0.764,4.271,0.855
			c0.67-0.705-0.56-1.115-1.141-1.424c-0.458-0.584-1.37-0.72-1.99-1.138c-3.635-0.313-6.263,0.377-9.396,0.565
			c0.156-0.889,1.651-0.438,2.279-0.854c1.109,0.065,1.474-0.609,2.277-0.854c0.696-0.671-0.427-0.53-0.287-1.425
			c2.969,0.117,5.565-0.135,7.973-0.569c0.376,1.237,1.318,1.912,1.994,2.849c3.655,0.868,6.39-1.044,7.688-3.416V83.77
			c-0.53-1.459-1.598-2.389-3.132-2.847c-1.685-0.168-2.714,0.319-3.702,0.854c-1.319,0.769-1.965,2.213-3.13,3.133h-5.98
			c0.113-1.121,1.253-1.219,1.423-2.279c2.632-0.122,5.489-0.018,6.55-1.707c-0.499-1.969-3.616-1.318-5.979-1.423
			c0.138-0.899-0.515-1.008-0.285-1.994c1.914,0.017,3.811,0.017,4.554-1.139c-0.636-0.884-2.53-0.505-3.417-1.142
			c0.378-0.819,1.805-0.586,2.561-0.285c0.918-0.409,2.39-0.27,3.704-0.283c0.681-0.459,2.062-0.215,2.279-1.139
			c-0.696-1.486-3.575-0.793-5.127-1.426c1.762-2.521,7.298-2.438,9.969-0.854c3.702,0.289,6.213-0.62,8.54-1.707
			c3.212,0.173,5.851-0.227,8.828-0.285c1.181,0.434,2.507,0.721,4.271,0.568c1.092-0.525,2.1-1.129,1.992-2.849
			c0.375,0.103,0.449,0.502,0.854,0.569c1.292,1.842,2.726,3.54,4.271,5.126c0.707,0.812,1.312,1.729,1.992,2.562
			c0.307,1.215,1.608,1.432,1.713,2.85c2.572,3.594,5.494,6.842,7.971,10.535C101.391,90.996,100.711,92.501,100.908,94.881z
			 M57.343,84.348c0.085,1.793-0.08,3.334-1.994,3.131C54.549,85.891,54.577,83.725,57.343,84.348z M59.337,63.275
			c2.625,0.255,4.136-0.607,5.413-1.709c-0.072-1.21,0.74-1.531,0.564-2.849c-0.281-1.092-0.989-3.362-1.994-3.415
			c-0.312-0.018-0.146-0.222-0.285-0.286c-1.602-0.759-4.437-0.279-5.694,0.854C56.621,58.773,57.327,62.203,59.337,63.275z
			 M61.9,57.865c0.179,0.651,0.564,1.718,0,2.277c-1.548,0.312-1.569-0.899-1.71-1.992C60.525,57.822,61.198,57.826,61.9,57.865z
			 M74.426,73.811c-0.586,1.879,0.059,4.834,0.854,6.266c0.432,0.333,1.164,0.354,1.43,0.854c3.491,0.172,5.068-1.57,5.979-3.986
			c0.08-2.264-0.651-3.717-1.424-5.127C78.604,71.174,74.932,71.413,74.426,73.811z M77.559,77.229
			c0.033-0.819-0.151-1.864,0.283-2.277c0.256,0.221,0.646,0.308,1.143,0.283C78.984,76.374,78.834,77.361,77.559,77.229z"/>
	</g>
</g>
</svg>
