<?xml version="1.0" encoding="utf-8"?>
<!-- Generator: Adobe Illustrator 16.0.0, SVG Export Plug-In . SVG Version: 6.00 Build 0)  -->
<!DOCTYPE svg PUBLIC "-//W3C//DTD SVG 1.1//EN" "http://www.w3.org/Graphics/SVG/1.1/DTD/svg11.dtd">
<svg version="1.1" id="Layer_1" xmlns="http://www.w3.org/2000/svg"  x="0px" y="0px"
	 width="120px" height="120px" viewBox="4 4 120 120" style="enable-background:new 4 4 120 120;" xml:space="preserve">
<g id="erase">
	<g>
		<path d="M115.641,96.502c-0.224-1.107-1.854-0.809-2.567-1.427c0.598-1.114,1.556-1.866,1.425-3.71
			c0.16-4.131,0.287-8.122,0.287-12.268c0-3.957-0.459-7.973-0.571-11.982c-0.229-8.338,0.173-16.718,0-25.391
			c-0.944-4.752,0.55-11.97-0.856-15.976c-1.344-1.605-3.623-2.276-6.848-2.001c-2.461-0.486-5.605-0.289-8.273-0.569H80.55
			c-0.366,0.015-0.396,0.365-0.856,0.286c-4.779-0.121-9.215,0.105-13.695,0.283c-4.75,0.007-9.748-0.238-13.407,0.858
			c-1.152,0.465-1.909,1.327-2.282,2.567c-2.729,2.309-4.979,5.103-7.705,7.419c-3.416,3.333-6.961,6.539-10.271,9.982
			c-1.854,1.473-3.346,3.312-5.418,4.567c-0.574,1.041-1.69,1.542-2.566,2.282c-0.849,0.865-1.65,1.772-2.855,2.281
			c-1.431,1.897-3.739,2.919-5.138,4.851c-1.294,0.415-1.759,1.662-2.85,2.283c-0.915,0.797-2.021,1.4-2.284,2.852
			c0.32,1.502-0.049,1.936,0,3.708c0.605,1.968,2.482,2.655,3.14,4.566c5.16,5.018,11.177,9.174,17.119,13.409
			c2.989,2.144,5.865,4.403,8.272,7.131c2.615,2.521,4.688,5.584,7.416,7.99c0.854,1.053,0.451,3.354,2.284,3.423
			c0.122,0.639,1.406,0.114,1.996,0.284c0.67,0.091,1.07,0.45,1.995,0.284c4.579,0.015,9.211,0.082,13.41-0.284
			c11.205-0.556,24.405,0.596,35.949-0.284c2.904-0.141,5.738-0.348,8.271-0.854c2.852-0.291,5.527-0.752,5.707-3.713
			C116.818,97.982,116.564,96.908,115.641,96.502z M17.784,65.977c-0.779,0.205-0.576-0.57-1.143-0.574
			c0.171-1.444,1.777-1.454,2.281-2.566C19.475,63.686,17.755,64.701,17.784,65.977z M106.509,96.502
			c-1.396-0.066-2.159,0.501-3.707,0.283c-1.282,0.234,0.062-2.153-1.141-1.997c-1.488-0.06-0.992,1.864-2,2.282H96.24
			c0.765-1.435,2.057-5.057,0-5.991c-2.331-0.332-2.727,1.272-3.711,2.282c-0.493,1.425-0.594,2.365,0,3.709
			c-2.694-0.033-4.834,0.494-7.7,0.283c0.128-1.863,1.528-2.461,1.426-4.562c0.134-0.896-0.769-0.754-0.856-1.428
			c-2.746-0.367-3.57,1.182-5.135,1.997c-0.803,1.386-1.791,2.584-2.566,3.992h-3.711c0.418-1.387,1.183-2.432,1.142-4.278
			c-0.101-0.375-0.502-0.448-0.569-0.854c-1.957-0.558-3.496,1.329-4.565,2.566c0.071,1.21-0.744,1.537-0.57,2.854
			c-1.789-0.173-3.016,0.217-4.563,0.286c0.115-1.788,0.957-2.846,1.141-4.565c0.838-0.663,1.314-3.168,0.287-3.994
			c-2.822-0.159-3.055,2.271-4.565,3.426c-0.562,2.004-1.909,3.227-1.995,5.705c-1.84-0.223-2.811,0.424-4.567,0.284
			c0.583-2.078,1.217-4.108,1.714-6.276c0.406-2.257,1.742-3.58,1.711-6.275c-2.598-1.119-3.758,1.527-4.85,2.851
			c-0.986,1.683-1.972,3.354-2.569,5.422c-1.207-0.717-1.638-1.376-1.427-3.137c0.065-0.526,0.232-2.343,0.572-3.14
			c0.061-0.141,0.539-0.466,0.568-0.569c0.246-0.8-0.072-1.536,0.286-1.997c-0.286-0.566-0.491-1.219-1.14-1.428
			c-2.974-0.025-3.475,2.425-4.564,4.281c-2.623-1.188,1.055-7.754-1.712-9.13c-2.17,0.206-2.743,2.015-3.14,3.992
			c-1.35-0.074-1.75-1.103-2.568-1.712c0.047-0.33-0.061-0.508-0.284-0.568c-0.373-2.615,1.552-4.811,0.284-6.562
			c-1.76-0.241-1.738,1.304-2.852,1.71c-0.379,0.88-0.739,2.902-1.713,2.281c-0.328-0.262-0.469-0.33-0.57-0.854
			c-0.08-0.432-0.059-1.104,0.285-1.144c0.061-0.893-0.191-2.092,0.285-2.567c-0.16-1.608,1.09-3.976-0.57-4.562
			c-2.694,0.535-3.052,3.412-4.279,5.418c-2.375-0.551-0.221-3.447-0.284-5.137c0.466-1.664,2.116-3.211,1.425-5.135
			c-0.332,0.047-0.508-0.063-0.568-0.284c-2.085,0.102-2.473,1.904-3.711,2.854c-0.263,0.78-0.873,1.217-1.139,1.997
			c-0.619,0.427-0.458,1.637-1.43,1.712c-0.385-0.66-1.146-0.947-0.854-2.281c0.487-0.562,0.327-1.767,0.854-2.285
			c-0.089-1.132,0.66-1.432,0.573-2.566c0.669-0.28,0.255-1.645,0.856-1.995c-0.34-0.711-0.303-1.792-1.713-1.428
			c1.16-1.503,2.955-2.371,4.279-3.71c1.613-0.953,2.629-2.502,4.277-3.422c2.549-2.685,5.659-4.803,7.989-7.703
			c1.052-0.281,1.413-1.252,2.282-1.714c0.373-0.956,1.479-1.185,1.997-1.995c1.48-1.089,2.523-2.615,3.993-3.711
			c2.848-2.287,4.915-5.355,7.99-7.416c0.072-0.311,0.567-0.193,0.57-0.57c0.462-0.08,0.488,0.269,0.857,0.285
			c14.39,0.219,27.937-0.401,42.224-0.285c0.807-0.234,0.739,0.4,1.426,0.285c2.396-0.114,4.471,0.095,6.563,0.285
			c0.067,20.754,0.565,41.084,0.567,61.908c0.068,1.168,0.97,1.504,1.141,2.569C107.725,95.241,106.895,95.648,106.509,96.502z
			 M88.537,46.003c-1.73,0.266-2.12,1.874-3.424,2.568c-0.836,1.257-2.108,2.077-3.139,3.138c-0.601,0.382-1.137,0.971-1.713,1.428
			c-0.779,0.615-1.686,1.155-2.283,1.424c-0.211,0.097-0.205,0.552-0.569,0.571c-0.329,0.017-0.125,0.183-0.284,0.286
			c-0.911,0.589-1.665,1.096-2.568,1.428c-1.632-2.174-3.104-4.504-4.564-6.849c-1.777-2.023-2.67-4.938-4.852-6.562
			c-0.749-0.295-1.75-0.342-2.852-0.285c-1.981,0.773-2.533,2.983-4.28,3.993c-0.637-1.1-1.963-0.247-2.853,0
			c-0.04,0.531-0.187,0.956-0.567,1.142c-0.102,2.383,1.379,3.18,2.281,4.564c1.139,1.236,2.318,2.437,3.135,3.996
			c2.404,2.162,4.687,4.445,6.849,6.846c-3.571,3.18-6.81,6.692-10.556,9.702c-0.489,1.696-1.936,2.437-1.709,4.849
			c1.092,3.091,3.433,4.933,6.559,5.989c1.381,0.054,2.285-0.375,3.426-0.568c0.873-0.932,1.555-2.059,1.996-3.422
			c1.598-1.35,3.01-2.887,4.85-3.996c0.52-1,1.846-1.193,2.282-2.283c1.065-0.454,1.269-1.773,2.567-1.995
			c1.926,1.69,4,3.228,5.422,5.419c0.924,0.881,1.468,2.145,2.851,2.568c0.751,1.056,1.286,2.327,2.854,2.568
			c3.268,0.035,5.061-1.403,5.705-3.996c-0.056-1.657-0.843-2.582-1.142-3.991c-2.583-2.08-5.045-4.276-7.703-6.278
			c-0.28-1.337-1.432-1.803-1.711-3.139c2.396-1.595,4.402-3.584,6.562-5.42c1.217-0.781,1.922-2.072,3.139-2.853
			c1.005-1.088,2.779-1.406,2.852-3.424c-0.469-2.763-2.279-4.19-3.42-6.278C90.477,46.918,90.318,45.646,88.537,46.003z
			 M62.573,51.138c-0.625-0.598-0.625-1.112,0-1.714c0.725,0.704,0.898,1.958,1.713,2.57C63.678,52.854,63.224,51.178,62.573,51.138
			z M68.852,70.253c-0.818,0.797-1.968,1.267-2.566,2.282c-1.248,0.369-1.607,1.627-2.854,1.999
			c-0.255,0.503-0.638,0.884-1.141,1.141c-0.425,0.335-0.335,1.187-1.142,1.142c-0.688-0.664,0.447-0.765,0.571-1.428
			c0.673-0.089,0.531-0.99,1.427-0.854c0.773-0.846,1.319-1.914,2.568-2.284c1.407-1.821,3.238-3.228,4.849-4.853
			c0.332-0.045,0.512,0.063,0.571,0.287C70.964,69.134,69.357,69.143,68.852,70.253z"/>
	</g>
</g>
</svg>
