<?xml version="1.0" encoding="utf-8"?>
<!-- Generator: Adobe Illustrator 16.0.0, SVG Export Plug-In . SVG Version: 6.00 Build 0)  -->
<!DOCTYPE svg PUBLIC "-//W3C//DTD SVG 1.1//EN" "http://www.w3.org/Graphics/SVG/1.1/DTD/svg11.dtd">
<svg version="1.1" id="Layer_1" xmlns="http://www.w3.org/2000/svg"  x="0px" y="0px"
	 width="120px" height="120px" viewBox="4 4 120 120" style="enable-background:new 4 4 120 120;" xml:space="preserve">
<g id="tag">
	<g>
		<path d="M121,28.514c-0.453-6.633-1.797-12.373-4.621-16.635c-1.066-0.78-2.562-1.133-3.391-2.155
			c-3.283-0.516-7.354-0.245-11.088-0.308c-0.393,0.016-0.426,0.396-0.924,0.308c-0.867,0.366-1.77,0.692-2.774,0.926
			c-1.906,1.17-3.097,3.061-5.235,4.003c-0.727,1.632-2.391,2.333-3.08,4.004c-1.156,1.205-2.039,2.687-3.082,4.004
			c-0.476,1.68-1.369,2.94-1.846,4.622c-0.883,1.375-1.242,3.278-2.464,4.313c-7.593,0.624-14.956,1.474-22.488,2.155
			c-0.263,0.458-0.775,0.662-1.542,0.616c-2.169,1.529-4.62,2.771-6.161,4.932c-1.191,0.655-2.241,1.452-3.078,2.461
			c-1.35,0.604-2.296,1.608-2.775,3.081c-2.401,1.296-3.563,3.829-5.544,5.546c-1.115,0.732-1.786,1.911-2.466,3.08
			c-0.526,0.396-1.212,0.638-1.23,1.542c-0.839,0.188-1.443,0.61-1.851,1.229c-2.113,1.585-3.507,3.885-5.237,5.854
			c-2.22,1.58-4.093,3.502-5.85,5.544c-4.183,3.415-8.507,6.693-11.708,11.091c-0.462,3.648-1.771,6.445-1.54,10.783
			c2.145,4.014,5.903,6.416,8.934,9.549c1.253,2.338,3.368,3.818,4.621,6.158c1.803,1.791,3.356,3.831,4.929,5.854
			c2.311,1.796,4.871,3.34,6.777,5.545c1.728,0.428,2.988,1.324,4.311,2.154c1.576,0.586,3.368,0.95,4.929,1.541
			c0.425-0.603,1.89-0.166,2.465-0.615c1.038-0.088,2.104-0.153,2.775-0.615c1.514-0.643,3.275-1.035,5.234-1.23
			c1.617-1.568,3.29-3.078,5.235-4.313c1.534-1.65,3.34-3.027,5.238-4.312c3.254-3.115,6.644-6.091,9.858-9.242
			c2.761-2.064,5.442-4.205,8.317-6.162c0.724-1.123,1.856-1.832,2.771-2.771c0.729-1.222,2.074-1.826,3.081-2.771
			c1.85-1.95,4.387-3.211,5.854-5.547c1.23-5.645,3.021-10.736,3.08-17.557c0.916-0.727,0.592-2.693,0.922-4.005
			c0.238-4.999,0.705-9.767,0.926-14.787c6.014-1.172,10.621-3.756,14.477-7.083c0.688-1.271,1.781-2.123,2.467-3.39
			c0.914-1.14,1.385-2.721,2.153-4.006c0.058-0.458-0.104-1.135,0.31-1.231C120.874,30.032,120.312,28.646,121,28.514z
			 M83.107,47.305c0.494,2.429-2.248,1.895-3.692,1.54C79.195,46.995,81.828,46.665,83.107,47.305z M81.566,88.275
			c-0.014,0.188-0.043,0.365-0.305,0.308c-0.041,0.784-0.449,1.194-1.232,1.231c-0.021,0.188-0.047,0.365-0.307,0.31
			c-0.021,0.188-0.05,0.362-0.309,0.308c0.027,0.373-0.45,0.188,0,0c0.013-0.188,0.046-0.365,0.309-0.308
			c0.016-0.188,0.045-0.366,0.307-0.31c0.09-0.627,0.832-0.603,0.924-1.231h0.309C81.279,88.396,81.307,88.219,81.566,88.275
			c-0.053-0.674,0.256-0.98,0.929-0.926C82.548,88.021,82.24,88.331,81.566,88.275z M96.975,45.764
			c-0.216,1.223-1.356,1.521-1.852,2.465c-0.35,5.091-0.342,10.538-1.23,15.096c-1.697,1.794-2.11,4.87-2.156,8.313
			c-0.457,0.264-0.661,0.776-0.616,1.543c-2.422,1.786-2.947,5.471-6.16,6.469c0.086-1.836,0.072-3.562-1.231-4.004
			c-1.496,0.967-1.318,3.836-0.927,5.851c-0.157,1.692-1.771,1.926-2.157,3.39c-1.295,0.449-1.199,2.293-2.771,2.465
			c-0.201-2.367,0.609-5.742-0.92-6.776c-1.494,0.354-1.505,2.192-2.16,3.389c0.215,1.959-0.52,2.968-0.303,4.929
			c0.08,1.006-1.198,0.653-1.238,1.541c-0.449,0.575-0.011,2.043-0.613,2.465c-0.215,1.324-1.813,1.266-2.158,2.465
			c-1.045,0.389-1.166,1.707-2.463,1.846c0.021-3.104,0.021-6.18-1.23-8.007c-1.393,0.147-1.107,1.972-1.232,3.386
			c-0.746,0.796,0.055,3.139-0.615,4.007v4.005c-1.165,1.51-2.628,2.713-4.006,4.006c-1.642-3.084,1.004-10.453-2.464-11.707
			c-2.129,0.438-1.404,3.73-2.155,5.547v5.851c-0.283,1.619,1.405,1.261,1.538,2.466c-1.25,0.29-1.648,1.432-2.772,1.85
			c-0.868,0.672-1.929,1.149-2.772,1.85c-0.919-0.312-0.607-1.859-0.923-2.775v-3.389c0.255-0.871-0.435-0.799-0.307-1.541
			c-0.142-1.498,0.323-3.605-0.307-4.619c-1.712,0.342-1.578,2.534-2.16,4.006c0.238,2.699-0.451,4.478-0.306,7.084
			c0.107,0.916,0.177,1.875,0.925,2.155c-0.853,0.69-2.444,0.638-4.006,0.618c-0.283-3.418-0.884-6.512-0.617-10.477
			c-0.56-0.773-0.56-2.107-1.848-2.156c-3.699,0.248-2.796,5.888-2.465,9.244c-3.188-1.741-5.417-4.442-8.315-6.469
			c-0.923-1.543-2.315-2.615-3.389-4.007c-1.51-0.852-1.878-2.847-3.389-3.696c-0.688-1.773-2.17-2.758-2.773-4.621
			c-1.249-1.111-1.668-3.053-2.771-4.312c0.24-2.499-0.446-4.074-0.308-6.468c0.479-1.368,2.133-1.562,2.771-2.774
			c1.056-0.794,1.975-1.719,2.771-2.771c2.309-0.774,3.656-2.509,5.237-4.002c1.663-1.418,3.167-2.996,4.929-4.314
			c0.586-1.367,1.482-2.42,1.853-4.005c1.375-0.266,1.604-1.678,3.079-1.846c1.846-2.159,3.623-4.387,5.852-6.161
			c1.401-2.502,3.971-3.833,5.237-6.469c1.981-0.998,3.464-2.492,4.927-4.007c0.083-0.636,1.367-0.074,1.234-0.925
			c0.626-0.089,0.601-0.832,1.23-0.921c0.67-0.769,1.977-0.897,2.464-1.85c1.718,0.177,2.725-0.355,4.006-0.615
			c6.056,0.306,10.314-1.185,16.018-1.236c-0.012,2.043-1.15,2.962-0.924,5.238c-2.762,0.339-4.803,2.308-5.854,4.93
			c-0.236,0.589-0.17,0.797-0.31,1.849c-0.142,1.084-0.119,2.26,0.621,3.696c0.303,0.615,1.358,0.486,1.227,1.54
			c0.97,0.163,1.722,0.542,2.466,0.925c2.834-0.349,5.207-1.16,7.393-2.154c1.15-0.597,1.529-1.962,2.465-2.773
			c-0.139-1.403,0.193-2.606,0-3.696c-0.424-2.436-2.199-3.612-4.004-4.622c0.311-2.464,1.402-4.141,2.158-6.161
			c2.174-0.392,4.488-0.646,6.467-1.232c2.725,0.356,3.607,2.554,4.93,4.312C97.5,41.366,96.715,43.042,96.975,45.764z
			 M116.073,30.978c-1.196,1.788-2.375,3.582-3.699,5.236c-2.892,1.419-4.962,3.667-8.931,4.005
			c-0.082-0.901,0.693-0.944,0.611-1.846c-0.863-2.625-3.416-3.569-4.31-6.161c-1.481-0.471-2.356-1.547-3.39-2.465
			c-1.131,0.103-1.715-0.342-2.465-0.618c-2.018,0.039-3.26,0.848-5.236,0.925c1.541-6.055,5.5-9.695,8.933-13.864
			c1.545-0.609,2.813-1.498,4.006-2.463c3.707-0.313,8.205-0.681,11.089,0.617C115.314,18.285,117.146,24.319,116.073,30.978z"/>
	</g>
</g>
</svg>
