<?xml version="1.0" encoding="utf-8"?>
<!-- Generator: Adobe Illustrator 16.0.0, SVG Export Plug-In . SVG Version: 6.00 Build 0)  -->
<!DOCTYPE svg PUBLIC "-//W3C//DTD SVG 1.1//EN" "http://www.w3.org/Graphics/SVG/1.1/DTD/svg11.dtd">
<svg version="1.1" id="Layer_1" xmlns="http://www.w3.org/2000/svg"  x="0px" y="0px"
	 width="120px" height="120px" viewBox="4 4 120 120" style="enable-background:new 4 4 120 120;" xml:space="preserve">
<g id="popup">
	<g>
		<path d="M104.418,74.705c1.361-10.749,1.002-23.138,1.467-34.648c0.436-1.526,0.273-3.644,0.297-5.578
			c-0.316-2.055,0.855-3.934,0-5.581c-0.424-1.34-1.632-1.894-2.646-2.641c-1.982,0.121-1.993-1.725-3.814-1.762
			c-13.229-0.097-25.92-0.61-37.879-1.762c-4.184-0.404-8.517-0.814-12.919-0.587c-0.655,0.227-1.146,0.617-2.057,0.587
			c-0.737,0.729-1.827,1.109-1.761,2.644c-0.338,1.128-1.28,1.658-1.763,2.641c-0.641,9.05-1.833,17.549-2.349,26.721v22.021
			c-0.132,2.578,0.258,4.634,1.466,5.871c1.429,1.41,5.106,0.574,7.341,1.177h51.093c1.342-0.031,2.56-0.185,3.229-0.882
			c1.433-0.04,1.185-1.755,2.058-2.35c0.088-1.361-0.002-2.541-0.59-3.229C105.177,76.489,104.061,76.334,104.418,74.705z
			 M93.846,74.118c-7.391-0.144-15.394,0.319-22.312-0.294c-6.758-0.588-14.692-0.883-21.731-0.294
			c-0.896-7.267,0.152-15.109,0.295-22.315c0.669-0.313,0.113-1.847,0.293-2.643c-0.199-1.18,0.283-1.677,0.294-2.642
			c-0.182-2.14,0.512-3.404,0.292-5.58c0.534-3.285,0.684-6.951,1.472-9.982c-0.015-0.503,0.218-0.762,0.585-0.883
			c8.771,0.725,17.009,1.979,25.841,2.644c6.341-0.177,12.001,0.332,17.614,0.88C95.529,46.634,94.926,60.613,93.846,74.118z
			 M59.493,95.846c-9.373-1.428-17.822,2.131-27.308,0.588c-0.335-5.146-0.839-10.127-1.175-15.269
			c-0.12-2.397-0.296-5.363-0.296-7.927c0-2.777,0.388-5.449,0-7.635c-0.642-0.826-1.169-1.766-2.642-1.763
			c-1.721,0.058-2.068-1.256-4.109-0.882c-0.347,0.145-0.667,0.313-0.882,0.588c-0.735,0.242-0.928,1.03-1.468,1.469
			c-0.385,2.041,0.302,4.781,0.587,7.047c0.215,6.051,0.393,12.137,1.174,17.617c0.047,1.521,0.216,2.92,0.589,4.111
			c0.002,0.779-0.112,1.678,0.292,2.055c0.176,0.608-0.361,1.932,0.294,2.057c-0.229,1.146,0.232,2.395,0.292,2.644
			c0.096,0.378,0.229,0.621,0.297,0.881c0.094,0.377,0.226,0.621,0.291,0.88c0.3,1.198,1.335,1.44,1.761,2.352
			c1.523,0.24,2.971,0.553,4.407,0.88c5.292-0.032,10.471-0.215,15.561,0c4.378,0.185,8.575,0.099,12.335-0.294
			c2.246-0.924,2.823-4.615,2.054-7.635C60.759,97.123,60.248,96.363,59.493,95.846z"/>
	</g>
</g>
</svg>
