<?xml version="1.0" encoding="utf-8"?>
<!-- Generator: Adobe Illustrator 16.0.0, SVG Export Plug-In . SVG Version: 6.00 Build 0)  -->
<!DOCTYPE svg PUBLIC "-//W3C//DTD SVG 1.1//EN" "http://www.w3.org/Graphics/SVG/1.1/DTD/svg11.dtd">
<svg version="1.1" id="Layer_1" xmlns="http://www.w3.org/2000/svg"  x="0px" y="0px"
	 width="120px" height="120px" viewBox="4 4 120 120" style="enable-background:new 4 4 120 120;" xml:space="preserve">
<g id="layout4">
	<g>
		<path d="M91.542,38.231c0.228-1.591-0.396-2.335-0.767-3.332c-1.045-0.665-2.797-0.622-4.355-0.768
			c-1.236-0.475-3.244-0.175-4.873-0.258c-9.249,1.43-20.767,0.59-30.244,1.796c-1.526,0.158-1.34-1.394-3.075-1.027
			c-3.719,0.385-8.524-0.324-11.023,1.281c-0.749,1.473-0.72,3.722-0.765,5.896c0.311,2.384-0.674,4.479,0,6.407
			c0.19,0.833,0.926,1.123,1.537,1.54c-0.053,1.078,1.146,0.903,1.537,1.536c1.756,0.049,2.912-0.505,4.612-0.511h15.893
			c7.756-1.129,17.765-0.006,25.631-1.025c0.632-0.034,1.234-0.041,1.535,0.258c0.043,0.568,0.646-0.336,1.283,0
			c1.182-0.017,2.504,0.111,3.333-0.258V41.82C91.818,40.522,91.359,39.696,91.542,38.231z M40.023,45.666v-1.794
			C40.455,44.24,41.396,45.691,40.023,45.666z M41.307,40.539c-0.302-0.041-0.216-0.469-0.256-0.77
			c0.435-0.094,0.484,0.2,0.514,0.513C41.347,40.234,41.322,40.382,41.307,40.539z M45.152,45.152h-1.026
			c0.259-0.34,0.244-0.953,0.771-1.026c-0.278-1.359,0.777-0.302,0,0C44.839,44.611,45.185,44.693,45.152,45.152z M45.152,43.103
			c-0.133-0.134,0.183-0.329,0.255-0.256C45.541,42.977,45.223,43.172,45.152,43.103z M45.922,41.307
			C46.164,42.374,45.152,41.359,45.922,41.307c0.027-0.653,0.047-1.318,0.77-1.279C46.39,40.409,46.371,41.074,45.922,41.307z
			 M48.997,45.152c-0.04-0.638,0.402-0.792,0.511-1.281c0.383,0.218,0.37,0.825,0.516,1.281H48.997z M50.793,40.282
			C51.034,41.346,50.025,40.334,50.793,40.282C50.765,39.972,51.162,40.124,50.793,40.282z M54.636,45.152
			c0.284-1.256,1.196-1.879,1.795-2.819c-0.028-0.309,0.373-0.158,0,0c-0.241,1.438,0.654,1.737,0.77,2.819H54.636z M61.041,42.333
			c0.669-0.688,0.776,0.312,1.541,0.255C62.577,42.98,60.682,43.151,61.041,42.333z M61.556,41.051
			c-0.311-1.335,1.057-0.993,2.052-1.023C63.07,40.517,62.384,40.852,61.556,41.051z M79.241,39.258
			c0.965,0.197,1.227-0.313,2.054-0.259C81.447,40.249,79.398,40.312,79.241,39.258z M84.879,40.027
			c-0.559-0.039-0.549-0.647-0.51-1.281c0.988,0.047,1.888,0.007,2.561-0.258C86.648,39.405,85.395,39.344,84.879,40.027z
			 M91.542,60.018c0.228-1.592-0.396-2.334-0.767-3.331c-1.045-0.664-2.797-0.622-4.355-0.771c-1.236-0.473-3.244-0.173-4.873-0.255
			c-9.249,1.429-20.767,0.589-30.244,1.796c-1.526,0.156-1.34-1.394-3.075-1.027c-3.719,0.383-8.524-0.324-11.023,1.281
			c-0.749,1.472-0.72,3.72-0.765,5.897c0.311,2.38-0.674,4.477,0,6.406c0.19,0.834,0.926,1.125,1.537,1.538
			c-0.053,1.08,1.146,0.903,1.537,1.54c1.756,0.047,2.912-0.507,4.612-0.516h15.893c7.756-1.125,17.765-0.006,25.631-1.024
			c0.632-0.032,1.234-0.038,1.535,0.259c0.043,0.568,0.646-0.336,1.283,0c1.182-0.016,2.504,0.111,3.333-0.259v-7.944
			C91.818,62.311,91.359,61.482,91.542,60.018z M40.023,67.453v-1.796C40.455,66.027,41.396,67.479,40.023,67.453z M41.307,62.325
			c-0.302-0.042-0.216-0.467-0.256-0.768c0.435-0.097,0.484,0.199,0.514,0.511C41.347,62.021,41.322,62.17,41.307,62.325z
			 M45.152,66.938h-1.026c0.259-0.34,0.244-0.951,0.771-1.023c-0.278-1.359,0.777-0.303,0,0
			C44.839,66.396,45.185,66.479,45.152,66.938z M45.152,64.889c-0.133-0.134,0.183-0.328,0.255-0.256
			C45.541,64.764,45.223,64.959,45.152,64.889z M45.922,63.093C46.164,64.16,45.152,63.146,45.922,63.093
			c0.027-0.652,0.047-1.317,0.77-1.279C46.39,62.197,46.371,62.86,45.922,63.093z M48.997,66.938
			c-0.04-0.638,0.402-0.791,0.511-1.28c0.383,0.218,0.37,0.825,0.516,1.28H48.997z M50.793,62.068
			C51.034,63.133,50.025,62.121,50.793,62.068C50.765,61.759,51.162,61.91,50.793,62.068z M54.636,66.938
			c0.284-1.254,1.196-1.879,1.795-2.818c-0.028-0.307,0.373-0.158,0,0c-0.241,1.438,0.654,1.736,0.77,2.818H54.636z M61.041,64.12
			c0.669-0.69,0.776,0.313,1.541,0.258C62.577,64.766,60.682,64.938,61.041,64.12z M61.556,62.839
			c-0.311-1.337,1.057-0.995,2.052-1.025C63.07,62.302,62.384,62.641,61.556,62.839z M79.241,61.043
			c0.965,0.198,1.227-0.312,2.054-0.258C81.447,62.036,79.398,62.098,79.241,61.043z M84.879,61.814
			c-0.559-0.039-0.549-0.647-0.51-1.281c0.988,0.049,1.888,0.007,2.561-0.258C86.648,61.192,85.395,61.13,84.879,61.814z
			 M91.542,80.779c0.228-1.592-0.396-2.336-0.767-3.332c-1.045-0.665-2.797-0.62-4.355-0.771c-1.236-0.473-3.244-0.173-4.873-0.255
			c-9.249,1.43-20.767,0.592-30.244,1.794c-1.526,0.158-1.34-1.393-3.075-1.024c-3.719,0.385-8.524-0.324-11.023,1.281
			c-0.749,1.473-0.72,3.717-0.765,5.895c0.311,2.383-0.674,4.48,0,6.41c0.19,0.832,0.926,1.121,1.537,1.537
			c-0.053,1.08,1.146,0.901,1.537,1.539c1.756,0.045,2.912-0.509,4.612-0.517h15.893c7.756-1.127,17.765-0.006,25.631-1.022
			c0.632-0.032,1.234-0.039,1.535,0.256c0.043,0.57,0.646-0.332,1.283,0c1.182-0.014,2.504,0.113,3.333-0.256v-7.947
			C91.818,83.068,91.359,82.246,91.542,80.779z M40.023,88.211v-1.793C40.455,86.789,41.396,88.238,40.023,88.211z M41.307,83.087
			c-0.302-0.04-0.216-0.469-0.256-0.769c0.435-0.096,0.484,0.199,0.514,0.512C41.347,82.782,41.322,82.93,41.307,83.087z
			 M45.152,87.701h-1.026c0.259-0.342,0.244-0.954,0.771-1.025c-0.278-1.359,0.777-0.303,0,0
			C44.839,87.158,45.185,87.242,45.152,87.701z M45.152,85.648c-0.133-0.133,0.183-0.326,0.255-0.254
			C45.541,85.525,45.223,85.72,45.152,85.648z M45.922,83.854C46.164,84.92,45.152,83.907,45.922,83.854
			c0.027-0.651,0.047-1.316,0.77-1.279C46.39,82.957,46.371,83.622,45.922,83.854z M48.997,87.701
			c-0.04-0.639,0.402-0.796,0.511-1.283c0.383,0.217,0.37,0.826,0.516,1.283H48.997z M50.793,82.83
			C51.034,83.895,50.025,82.885,50.793,82.83C50.765,82.521,51.162,82.672,50.793,82.83z M54.636,87.701
			c0.284-1.256,1.196-1.881,1.795-2.82c-0.028-0.311,0.373-0.158,0,0c-0.241,1.438,0.654,1.739,0.77,2.82H54.636z M61.041,84.881
			c0.669-0.689,0.776,0.312,1.541,0.256C62.577,85.529,60.682,85.699,61.041,84.881z M61.556,83.6
			c-0.311-1.336,1.057-0.994,2.052-1.024C63.07,83.062,62.384,83.402,61.556,83.6z M79.241,81.805
			c0.965,0.197,1.227-0.312,2.054-0.256C81.447,82.797,79.398,82.859,79.241,81.805z M84.879,82.574
			c-0.559-0.037-0.549-0.646-0.51-1.281c0.988,0.051,1.888,0.007,2.561-0.256C86.648,81.951,85.395,81.893,84.879,82.574z"/>
	</g>
</g>
</svg>
