<?xml version="1.0" encoding="utf-8"?>
<!-- Generator: Adobe Illustrator 16.0.0, SVG Export Plug-In . SVG Version: 6.00 Build 0)  -->
<!DOCTYPE svg PUBLIC "-//W3C//DTD SVG 1.1//EN" "http://www.w3.org/Graphics/SVG/1.1/DTD/svg11.dtd">
<svg version="1.1" id="Layer_1" xmlns="http://www.w3.org/2000/svg"  x="0px" y="0px"
	 width="120px" height="120px" viewBox="4 4 120 120" style="enable-background:new 4 4 120 120;" xml:space="preserve">
<g id="layout5">
	<g>
		<path d="M33.971,47.457c3.59-0.116,6.842,0.102,10.115,0.299c8.708-0.71,17.768-1.072,27.368-0.893
			c4.374-0.295,9.223-0.296,13.978-0.296c4.774,0,9.588,0.309,13.687,0c0.95-1.328,2.483-2.076,2.378-4.463
			c-0.36-3.01-2.284-4.457-5.354-4.76c-0.067,0.232-0.252,0.346-0.596,0.299c-13.044-0.349-24.131,1.251-36.885,1.188
			c-6.529-0.18-11.826,0.869-18.145,0.891h-4.762c-1.392,0.194-3.559-0.386-4.461,0.299c-3.471-0.299-5.057,1.288-4.76,4.758
			C27.391,47.299,30.545,47.515,33.971,47.457z M86.029,59.653c-15.309,0.66-31.988-0.057-47.298,0.596
			c-0.953,0.336-1.976,0.604-3.271,0.596c-0.611,0.776-2.987-0.211-3.57,0.593c-2.197,0.529-3.601,2-3.569,4.462
			c0.721,2.554,3.067,3.479,6.543,3.271c2.964-0.306,6.188-0.354,9.519-0.296c9.153,0.481,19.802,0.296,29.151,0.296
			c3.213,0,6.3,0.119,9.221,0c3.449,0.18,6.027-0.52,9.519-0.296c1.797,0.11,3.08-0.294,4.166-0.894
			c0.522-0.271,0.918-0.666,1.188-1.19c0.788-0.104,0.272-1.515,0.894-1.784c-0.146-2.731-1.739-4.011-3.271-5.354
			C92.719,59.223,88.542,59.14,86.029,59.653z M95.547,80.771c-10.763-0.051-21.303,0.117-31.532,0.598
			c-6.887,0.253-14.147,0.13-20.82,0.596c-3.512,0.061-6.438,0.705-9.52,1.189c-2.954,0.615-5.673,1.466-5.354,5.354
			c1.473,2.921,5.301,1.54,8.922,1.487c17.053-0.111,31.965,0.488,48.485,0h10.117c3.768,0.297,5.262-1.68,5.648-4.762
			C100.883,82.377,99.316,80.475,95.547,80.771z"/>
	</g>
</g>
</svg>
