<?xml version="1.0" encoding="utf-8"?>
<!-- Generator: Adobe Illustrator 16.0.0, SVG Export Plug-In . SVG Version: 6.00 Build 0)  -->
<!DOCTYPE svg PUBLIC "-//W3C//DTD SVG 1.1//EN" "http://www.w3.org/Graphics/SVG/1.1/DTD/svg11.dtd">
<svg version="1.1" id="Layer_1" xmlns="http://www.w3.org/2000/svg"  x="0px" y="0px"
	 width="120px" height="120px" viewBox="4 4 120 120" style="enable-background:new 4 4 120 120;" xml:space="preserve">
<g id="layout9">
	<g>
		<path d="M104.46,93.02c-0.063-10.054-0.284-20.675-0.284-31.04c0-10.591,0.284-21.054-0.857-30.752
			c-0.76-1.137-0.569-3.224-1.42-4.272c-0.183-1.715-0.877-2.921-0.854-4.842c-0.735-1.165-0.922-2.875-1.709-3.986
			c-0.808-1.186-1.928-2.059-3.133-2.847c-2.476-1.037-6.632-0.394-9.966-0.571c-3.731,0.222-6.635-0.39-10.254-0.285
			c-6.301-1.25-14.049,0.049-20.5-0.569c-0.063,0.223-0.238,0.332-0.571,0.285c-6.771-0.22-12.591,0.507-17.938,1.709
			c-0.811,0.615-2.042,0.807-2.849,1.423c-0.917,0.601-2.009,1.03-3.134,1.424c-1.949,0.993-3.503,2.381-4.84,3.986
			c-2.474,13.187-2.756,28.567-2.561,44.42c0.403,7.381,0.926,14.642,1.422,21.929c0.359,3.534,0.654,7.128,0.569,11.106
			c0.274,1.719,0.582,3.404,0.854,5.125c0.482,0.467,0.354,1.543,0.854,1.992c0.308,0.737,1.029,1.061,1.14,1.993
			c1.989,1.049,3.427,2.647,6.267,2.849c2.45,0.678,5.395,0.868,7.97,1.424c5.563-0.056,10.515,0.498,16.232,0.283
			c2.448-0.398,4.89-0.804,7.405-1.138c6.197,0.024,12.396,0.058,18.223-0.285c3.06,0.021,6.146,0.068,8.828-0.284
			c1.562,0.041,2.707-0.33,3.989-0.568c1.806,0.189,2.111-1.113,3.414-1.424c1.737-1.683,2.247-4.59,2.851-7.404
			c0.509-1.197,0.186-3.229,0.568-4.557v-2.562C104.352,94.811,103.814,93.323,104.46,93.02z M97.057,87.323
			c0,5.909-0.091,11.849-1.425,17.087c-3.397,0.779-7.804,0.55-11.959,0.568c-7.825,1.668-18.485,0.498-26.481,1.994
			c-7.986-0.652-17.316,0.036-23.352-2.562c-1.479-3.174-1.416-7.889-1.422-12.529c-0.76-5.127-0.99-10.783-1.427-16.232
			c-1.125-7.82-0.852-16.89-0.852-25.627c0-8.793,0.556-17.364,1.99-24.49c1.089-1.094,3.039-1.328,4.844-1.709
			c0.565-0.287,1.215-0.491,1.42-1.139c0.449-0.407,0.226-1.482,1.144-1.423c2.723-0.218,5.136-0.749,8.257-0.569
			c0.458,0.08,0.491-0.27,0.854-0.285c11.974-0.016,24.146-0.229,35.025,0.854c3.239,0.176,7.198-0.363,9.968,0.285
			c1.248,3.211,1.5,7.421,2.848,10.536c0.883,11.417,0.57,24.217,0.568,36.733C97.057,75.082,97.059,81.264,97.057,87.323z
			 M85.668,37.491c-1.854-0.996-5.277-0.419-7.979-0.569c-0.36,0.016-0.394,0.365-0.852,0.286h-0.57
			c-1.051,0.278-1.41,1.246-2.275,1.707c-1.445-0.113-1.666,0.997-2.562,1.424c-0.421,1.48-0.268,3.533-0.285,5.411
			c0.062,0.918-0.504,1.206-0.287,2.278c0.248,4.5,0.263,9.23,1.709,12.53c1.812,0.871,5.479,1.624,8.258,1.139
			c1.18-0.205,1.998-0.958,2.85-1.139c1.239,0.059,2.329,0.581,3.415,0c0.162-0.411,0.445-0.696,0.856-0.856
			c0.845-5.225-0.047-11.144-0.856-15.662C87.109,41.362,86.938,38.877,85.668,37.491z M77.123,44.895
			c-0.473-0.126-0.473-2.15,0-2.279C78.369,42.646,76.675,43.854,77.123,44.895z M81.68,45.464
			c-0.076,1.159-0.535,1.931-0.855,2.848c-1.059-1.125-0.348-4.019-0.854-5.696h2.276C82.506,43.723,82.766,45.048,81.68,45.464z
			 M53.772,45.179c4.059,0.001,8.787,0.372,11.391-0.569c0.146-0.9,0.835-1.25,0.854-2.279c-0.26-1.542-1.069-2.535-2.562-2.846
			c-5.333,0.175-11.37-0.361-16.232,0.285c-1.871,0.025-2.821,0.973-2.847,2.846C44.883,46.167,49.846,45.179,53.772,45.179z
			 M54.056,54.577c1.945,0,4.317,0.124,6.268,0c2.039-0.13,3.982-0.065,4.27-1.994c0.404-0.862-0.123-1.526-0.283-2.562
			c-0.842-1.153-3.162-0.825-5.129-0.854c-2.603,0.072-6.096-0.095-9.107,0c-2.864,0.09-5.958,0.047-5.981,3.133
			C44.911,55.094,49.99,54.577,54.056,54.577z M62.602,57.424c-0.356,0.066-0.401,0.328-0.855,0.286
			c-2.286,0.371-4.378,0.938-6.835,1.139c-2.068,0.112-4.637-0.272-6.264,0.285c-2.458-0.181-4.413,0.143-4.271,2.562
			c0.612,1.95,3.371,1.758,5.979,1.709h7.975c1.676-0.318,3.363-0.624,5.408-0.569c1.843-0.249,3.335-0.841,3.419-2.849
			C66.971,57.858,64.988,56.98,62.602,57.424z M77.406,67.674c-2.963-0.263-5.963-0.488-9.112-0.568
			c-6.275,0.181-13.272-0.364-19.077,0.287c-2.429-0.058-4.618,0.127-4.841,2.277c0.421,1.381,1.847,1.76,3.701,1.708
			c4.641,0.771,11.004-0.183,15.661,0.569c3.849,0.045,7.954-0.172,11.391,0.285c2.191-0.199,3.704,0.283,5.694,0.283
			c2.266,0.268,3.688-0.3,3.702-2.276C84.219,67.318,80.145,68.169,77.406,67.674z M77.123,75.079
			c-0.361,0.044-0.396,0.344-0.854,0.286c-2.404-0.031-4.375,0.371-6.551,0.566c-2.562-0.188-3.857,0.889-3.986,3.135
			c0.602,3.117,6.115,1.804,9.111,1.707c2.965-0.834,7.756,0.16,9.113-2.277v-1.992C83.207,74.865,79.584,74.783,77.123,75.079z
			 M47.223,79.35h5.125c1.924,0.356,3.926,0.633,6.266,0.57c0.306,0.473,2.54,0.473,2.847,0c1.442,0.205,2.052-0.416,2.564-1.139
			v-1.709c-1.233-2.15-4.718-1.424-7.689-1.424H46.94c-1.76,0.326-4.047,0.129-3.702,2.562
			C43.961,79.195,45.472,79.393,47.223,79.35z M48.361,85.331c-0.416,0.535-1.863,0.034-2.278,0.569
			c-0.789,0.156-0.796,1.101-1.139,1.709c0.666,0.472,0.69,1.589,1.994,1.423h3.7c1.406,0.396,3.329,0.276,5.129,0.286
			c0.646-0.777,2.124-0.721,1.993-2.278C56.72,83.796,51.94,85.629,48.361,85.331z M85.098,85.331h-15.66
			c-1.271-0.347-2.918-0.312-4.559-0.285c-1.068,0.45-2.014,1.024-1.71,2.849c0.659-0.09,0.317,0.822,0.855,0.854
			c0.175,0.395,1.095,0.043,1.139,0.57h3.702c0.486,0.65,2.176,0.104,3.133,0.283h10.82c2.42,0.045,5,0.254,5.127-1.992
			C87.823,86.021,87.049,85.088,85.098,85.331z M73.422,93.305H57.761c-2,0.66-5.427-0.111-7.405,0.57
			c-2.638,0.021-5.802-0.488-5.979,1.992c0.525,0.043,0.173,0.963,0.568,1.139c0.423,0.148,0.719,0.422,1.139,0.568
			c1.278-0.141,2.137,0.146,3.134,0.285h6.835c5.346,0.634,11.841,0.119,17.654,0.285c0.525-0.613,2.098-0.183,2.562-0.854
			c0.736-0.401,1.357-0.92,1.138-2.278C77.469,93.074,75.066,92.648,73.422,93.305z"/>
	</g>
</g>
</svg>
