<?xml version="1.0" encoding="utf-8"?>
<!-- Generator: Adobe Illustrator 16.0.0, SVG Export Plug-In . SVG Version: 6.00 Build 0)  -->
<!DOCTYPE svg PUBLIC "-//W3C//DTD SVG 1.1//EN" "http://www.w3.org/Graphics/SVG/1.1/DTD/svg11.dtd">
<svg version="1.1" id="Layer_1" xmlns="http://www.w3.org/2000/svg"  x="0px" y="0px"
	 width="120px" height="120px" viewBox="4 4 120 120" style="enable-background:new 4 4 120 120;" xml:space="preserve">
<g id="layout3">
	<g>
		<path d="M69.997,60.093c6.331,1.228,11.528-1.127,18.14-0.586c1.141,0.068,1.518-0.63,2.344-0.878
			c0.75,0.662,2.062,0.12,2.633-0.292c0.898-1.332,0.585-3.526,0.585-5.558c0-2.24-0.005-4.431-0.296-6.145
			c0-3.901,0.156-7.958-0.582-11.12c-0.654-0.448-1.521-0.725-2.34-0.878c-1.024-0.193-2.655-0.297-3.223-0.292
			c-0.893,0.008-1.746,0.31-2.632,0.292c-1.446-0.031-3.575-0.577-4.681-0.292c-0.377,0.015-0.405,0.375-0.881,0.292h-7.022
			c-1.048-0.076-1.069,0.881-2.045,0.878c-1.226-0.149-1.985,0.161-2.638,0.585c-1.096,1.438-0.961,4.11-1.17,6.437
			c0.41,4.078,1.021,7.955,0.879,12.583c0.637-0.047,0.134,1.038,0.291,1.463c0.436,0.25,0.629,0.737,0.588,1.462
			C68.711,58.646,69.111,59.611,69.997,60.093z M89.896,38.146v4.682c-0.979,0-1.002,0.954-2.051,0.878
			c-0.212-0.894,0.299-1.064,0.291-1.756c-0.371-1.171-1.105-1.532-0.582-2.927c-0.152-0.234-0.307-0.475-0.297-0.877H89.896z
			 M79.65,38.146h1.465c-0.525,0.94-1.188,1.743-2.051,2.342C78.41,39.999,79.604,38.899,79.65,38.146z M71.458,37.855
			c0.426,0.45,1.502,0.255,2.341,0.291c-0.312,0.665-0.662,1.288-1.17,1.756c-0.457,0.421-0.232,1.525-1.171,1.464V37.855z
			 M34.881,54.532c0.161,1.805-0.795,3.27,0.294,4.389c2.807,2.518,8.11,0.751,12.875,1.172c1.195,0.075,1.445,1.092,2.924,0.877
			c1.715-0.138,3.136-0.571,4.684-0.877c1.688-1.822,2.308-4.716,3.22-7.315c-0.244-0.826,0.412-0.758,0.292-1.463v-5.561
			c0.301-1.552,0.649-3.056,0.584-4.975c0.054-2.002,0.06-3.961-0.876-4.974c-1.282-0.963-3.606-0.882-5.855-0.876
			c-2.243,0.096-4.225,0.458-6.728,0.292c-2.466-0.355-5.884-1.021-8.485-0.292c-1.836-0.174-1.809,1.506-2.928,2.048
			c-0.342,1.935-0.209,4.219-0.585,6.729c0.413,1.637,0.215,3.882,0.585,5.563L34.881,54.532L34.881,54.532z M53.608,52.485
			c1.151-0.178,0.347,1.608,0.588,2.342c-1.74,0.175-2.61-0.515-4.393-0.294c0.755-0.515,1.265-1.272,2.05-1.754
			C52.366,52.609,53.572,53.13,53.608,52.485z M45.415,39.609c1.737-0.175,2.61,0.514,4.389,0.292
			c-0.01,0.963-0.495,1.458-0.291,2.633c-0.589,0.489-1.362,0.787-1.463,1.757c-0.897-0.608,0.685-2.176-0.294-2.926
			c-1.674-0.019-1.734,1.581-2.634,2.34C44.359,42.638,45.141,40.612,45.415,39.609z M41.023,54.827h-1.462V53.07
			C40.238,53.468,41.196,53.582,41.023,54.827z M38.683,39.609h2.051c-0.325,1.238-1.263,1.858-1.463,3.218
			C38.4,42.431,38.758,40.806,38.683,39.609z M93.697,84.088c0.025-2.66-0.356-4.912-0.586-7.314
			c0.164-3.674-0.516-6.51-0.291-10.244c-2.176-0.653-5.541-0.114-8.194-0.29c-4.604-0.369-9.274-0.673-14.046-0.88
			c-0.421,0.164-0.713,0.457-0.879,0.88c-0.48,0.005-0.161,0.812-0.584,0.877c-0.172,4.702,0.555,10.309-0.875,13.754
			c0.197,0.795,0.715,1.635,0.875,2.633c0.199,1.235-0.139,2.574,0,3.804c0.246,2.166,0.924,3.543,2.05,4.683
			c3.384,0.593,6.834-0.329,9.948-0.876c2.966-0.203,5.05,0.42,6.73-1.172c0.223-0.689,0.574-2.023,0-2.635
			c0.055-1.115-0.168-2.511,0.877-2.632c0.021,2.124-0.227,4.513,0.586,5.853c0.502-0.017,0.748,0.225,0.877,0.586
			c1.131,0.058,2.157,0.01,2.926-0.295C94.414,89.441,93.979,86.28,93.697,84.088z M86.382,70.629
			c-1.247-0.75-3.812,0.135-4.68-0.293c-0.243-0.828,0.409-0.76,0.29-1.465c1.961,0.332,4.648-1.168,5.854,0.295
			C87.958,70.25,86.438,69.705,86.382,70.629z M88.137,78.527c-1.531-0.246-0.514-1.752-0.291-2.633
			C88.512,76.207,87.958,77.734,88.137,78.527z M62.094,82.332c-0.727-2.492-1.445-4.992-1.17-8.487
			c-0.057-1.11-1.229-1.11-1.171-2.34c0.191-1.944-0.481-3.028-0.876-4.39c-1.581-0.43-4.087-0.958-5.855-0.293
			c-2.862-0.131-5.266,0.193-7.606,0.586c-3.296,0.121-7.207-0.379-9.656,0.586c-0.484,0.783-1.241,1.294-1.759,2.047v13.755
			c0.335,1.519,0.589,3.119,0.881,4.681c0.483,1.467,0.816,3.09,1.756,4.099c1.576,0.663,3.866,0.62,5.852,0.877
			c2.067-0.372,4.627-0.249,6.732-0.586c2.747-0.201,4.648,0.192,6.437-0.582c0.821-0.642,1.194-1.736,1.464-2.929
			c0.572-0.893,0.279-2.647,0.876-3.514c0.091,2.449-0.271,5.346,1.756,5.854c1.099-0.854,1.992-1.909,1.756-4.096
			C61.723,85.861,62.254,84.443,62.094,82.332z M38.979,71.797c-0.343-0.047-0.25-0.533-0.296-0.878
			c0.498-0.106,0.556,0.229,0.588,0.586C39.021,71.451,38.992,71.619,38.979,71.797z M42.781,89.355
			c-0.236-0.06-0.293-0.293-0.584-0.293c0.056-0.238,0.291-0.293,0.291-0.588c0.236,0.059,0.293,0.295,0.587,0.295
			C43.02,89.006,42.781,89.062,42.781,89.355z M45.122,71.213C45.096,70.857,45.549,71.033,45.122,71.213
			C45.15,71.564,44.697,71.393,45.122,71.213z M46.002,72.675c0.479,1.702-0.299,1.98-0.88,3.22
			c-0.468-0.41-0.747-1.006-0.877-1.756c0.174-1.096,1.022-1.511,1.462-2.342c0.402-0.765,1.076-1.266,2.343-1.168
			C47.516,71.461,46.385,71.693,46.002,72.675z M48.636,79.406c-0.892-0.361,0.317-1.008,0-1.756
			C49.286,77.773,48.862,79.203,48.636,79.406z M49.513,75.604c-0.521-0.217-0.043-0.533,0-0.881
			C50.034,74.939,49.554,75.256,49.513,75.604z M51.562,88.77h-0.589c0.156-0.233,0.309-0.475,0.295-0.879
			C51.877,88.057,51.888,88.35,51.562,88.77z M57.997,83.502c-1.237-0.32-1.155-1.964-1.755-2.926
			c-0.204-3.584,2.178-6.821,0.587-9.947c-0.16-0.648,0.558-0.418,0.583-0.88c0.475-0.083,0.503,0.276,0.878,0.292
			C57.824,74.16,58.041,78.962,57.997,83.502z"/>
	</g>
</g>
</svg>
