<?xml version="1.0" encoding="utf-8"?>
<!-- Generator: Adobe Illustrator 16.0.0, SVG Export Plug-In . SVG Version: 6.00 Build 0)  -->
<!DOCTYPE svg PUBLIC "-//W3C//DTD SVG 1.1//EN" "http://www.w3.org/Graphics/SVG/1.1/DTD/svg11.dtd">
<svg version="1.1" id="Layer_1" xmlns="http://www.w3.org/2000/svg"  x="0px" y="0px"
	 width="120px" height="120px" viewBox="0 0 120 120" enable-background="new 0 0 120 120" xml:space="preserve">
<g id="layout6">
	<g>
		<path d="M113.564,58.181c-1.979-1.69-5.445-1.116-8.896-1.116c-3.486,0-7.225,0.223-10.018-0.276
			c-0.172-5.573,0.355-11.85-0.275-16.966c-1.007-1.239-3.365-2.222-5.559-1.389c-0.603-0.609-1.354-1.06-2.784-0.834
			c-0.568,0.083-0.546,0.753-1.113,0.834c-1.144,5.437-0.556,12.61-1.112,18.631c-3.336,0.002-5.857,0.815-9.177,0.834
			c-3.221,0.12-5.728,0.946-6.95,3.062c-0.227,1.934-0.802,4.591-0.279,6.396c0.55,0.937,1.572,1.394,2.504,1.943
			c4.451-0.316,9.207-1.353,13.902-0.554c0.209,2.106,0.377,4.26,0.278,6.674c0.46,2.412,0.271,5.479,0.834,7.785
			c0.249,2.721,0.351,5.584,2.226,6.676c0.326,0.044,0.791-0.049,0.836,0.28c1.677,0.099,2.278-0.872,3.615-1.114
			c1.021-0.187,2.111-0.296,3.057-0.558c0.802-0.406,1.127-1.283,1.668-1.944c0.365-2.124-1.019-2.503-1.107-4.172
			c-0.056-3.254,0.071-7.312,0-10.29c-0.027-1.165-0.341-2.136,0-3.061c3.416-0.078,5.795,0.877,8.896,1.11
			c1.731-0.172,3.578,0.23,5.285,0c1.644-0.223,2.767-0.665,3.613-1.667C113.402,65.371,114.654,61.008,113.564,58.181z
			 M89.646,44.551v1.394c-0.215,0.503-0.299-0.168-0.276-0.558v-1.391C89.585,43.49,89.668,44.163,89.646,44.551z M105.223,64.298
			h-2.225c-0.657,0.005-0.82-0.479-1.672-0.278c0.387-0.637,1.938-0.104,2.781-0.276h3.062
			C107.393,64.798,105.852,64.095,105.223,64.298z M22.624,47.611c0.451-0.413,1.397,0.239,2.504,0h21.691
			c4.193,0.778,7.104-0.682,7.511-4.449c-0.511-3.662-3.382-4.961-8.065-4.449c-0.062,0.217-0.234,0.322-0.558,0.277
			c-9.261-0.083-18.053,0.301-26.973,0.556c-2.789,0.274-4.829,1.292-4.73,4.45C14.309,47.772,18.497,47.658,22.624,47.611z
			 M27.354,68.191c4.897-0.387,9.481-1.086,14.182-1.668c1.836,0.041,3.821-0.062,5.284,0c0.604,0.021,1.191,0.27,1.67,0.274
			c2.451,0.034,4.42-0.255,5.841-1.669c0.209-1.179,1.02-1.76,0.835-3.336c-0.149-1.796-1.413-2.484-2.226-3.613
			c-2.033-0.387-5.494-0.488-7.51,0h-6.117c-4.26,0.747-8.336,1.674-13.35,1.667c-1.9,0.602-5.004,0-6.952,0.557
			c-2.224,0.278-3.398,1.604-3.616,3.893C15.406,69.57,22.306,67.957,27.354,68.191z M52.939,79.594
			c-0.601-0.174-1.498-0.178-2.226-0.277c-1.54-0.213-3.372-0.148-5.007-0.276c-3.724,0.106-6.734-0.497-10.568-0.279
			c-0.058,0.22-0.232,0.323-0.554,0.279c-3.817-0.112-7.268,0.147-10.569,0.556c-4.315-0.146-8.529-0.188-8.342,4.174
			c0.157,1.047,0.941,1.467,1.667,1.943c0.501,0.798,2.348,0.249,3.059,0.836c2.704-0.107,5.107,0.084,7.51,0.277
			c3.827-0.36,9.274-0.535,13.07,0c4.618-0.219,8.822,1.035,12.514,0.556c0.976-0.782,1.967-1.556,2.226-3.059v-1.671
			c-0.125-0.985-0.938-1.284-1.111-2.225C53.945,80.424,53.603,79.783,52.939,79.594z"/>
	</g>
</g>
</svg>
