<?xml version="1.0" encoding="utf-8"?>
<!-- Generator: Adobe Illustrator 16.0.0, SVG Export Plug-In . SVG Version: 6.00 Build 0)  -->
<!DOCTYPE svg PUBLIC "-//W3C//DTD SVG 1.1//EN" "http://www.w3.org/Graphics/SVG/1.1/DTD/svg11.dtd">
<svg version="1.1" id="Layer_1" xmlns="http://www.w3.org/2000/svg"  x="0px" y="0px"
	 width="120px" height="120px" viewBox="4 4 120 120" style="enable-background:new 4 4 120 120;" xml:space="preserve">
<g id="layout7">
	<g>
		<path d="M100.118,96.719c0.832-6.199,0.604-12.396,0.606-18.736c0-13.34-0.305-26.215-0.305-38.376
			c0-6.48,0.234-12.952-0.303-19.341c-0.178-0.628-0.635-0.977-0.903-1.511c-0.354-0.452-1.26-0.355-1.212-1.208
			c-0.432-1.176-1.146-2.075-2.113-2.719c-5.869-1.686-14.517-0.596-21.759-0.907c-0.387,0.018-0.417,0.385-0.907,0.302
			c-7.363,0.492-15.499,0.215-22.662,0.904c-3.481,0.45-7.266,0.595-10.577,1.212c-2.123-0.21-3.316,0.509-5.439,0.3
			c-0.401,0.769-1.343-0.443-2.116-0.3c-1.181-0.175-1.752,0.259-2.417,0.602c-0.988,0.922-1.227,2.603-1.51,4.233
			c0.22,2.235-0.339,3.692-0.3,5.74c-0.127,3.909-0.271,7.792-0.608,11.485c-0.252,15.306-0.762,32.016,0.305,46.838
			c0,7.953,0.111,15.8,1.51,22.361c1.575,1.344,2.056,3.787,4.23,4.531c4.703,1.143,11.023,0.66,16.318,1.211
			c11.604,0.494,22.689,0.07,34.451,0c3.125-0.209,5.33,0.51,8.459,0.301c2.531,0.867,4.697-1.104,6.348-2.115
			C100.912,107.988,99.807,101.639,100.118,96.719z M92.564,61.061c0,12.724,0.311,25.269-0.907,36.563v7.554
			c-18.364,0-36.526,0.662-54.693,0c-1.184-5.768-1.254-12.646-1.211-19.639c-0.683-0.227-0.117-1.697-0.302-2.418V80.4
			c0.051-1.765-0.527-2.898-0.3-4.838c-0.107-16.927,0.259-35.216-0.305-50.767c5.584-0.962,12.257-0.84,18.435-1.208
			c6.002-0.546,12.879-0.214,19.34-0.302c6.177-0.41,14.824-0.746,20.547,0.302C92.789,35.585,92.564,48.402,92.564,61.061z
			 M51.465,42.625c4.161-0.232,7.401,0.457,11.485,0.304c3.418-0.119,7.135,0.213,10.88,0.301c2.738,0.065,5.484,0.098,6.646-0.907
			c0.844-0.726,1.407-1.892,1.515-3.021c0.294-4.812-4.334-5.159-8.769-4.835c-0.183,0.012-0.354,0.045-0.3,0.301h-0.604
			C66.693,34.683,61.277,34.805,56,35.071c-2.946-0.229-5.073,0.366-7.855,0.304c-2.708,0.113-4.703,0.936-4.835,3.626
			C43.568,42.67,47.928,42.237,51.465,42.625z M73.223,61.664c1.851-0.026,3.801,0.743,5.442,0c1.128-0.988,2.45-1.779,2.417-3.929
			c-0.035-5.103-5.158-5.12-10.273-5.138c-5.34-0.191-11.043,0.326-14.81,0c-1.046,0.591-2.478,0.246-3.928,0.304
			c-1.541,0.058-2.958,0.13-4.229,0.303c-2.518,0.402-4.238,1.601-4.233,4.53c0.382,2.34,1.627,3.815,4.534,3.627
			C56.838,61.13,64.611,61.815,73.223,61.664z M72.923,69.52H62.95c-0.387,0.021-0.42,0.39-0.906,0.305
			c-3.857,0.07-7.213,0.644-10.879,0.906c-0.556,0.449-1.438,0.58-2.418,0.604c-0.329,0.68-1.483,0.531-1.812,1.21
			c-1.301,0.392-2.024,2.695-1.208,4.229c1.802,2.224,5.175,1.033,8.157,0.906c4.014-0.169,8.593,0.303,12.994,0.303
			c3.556,0,8.896,0.449,10.878-0.604c0.374-0.198,0.773-0.396,1.211-0.604c0.031-0.773,0.551-1.058,0.906-1.51v-3.021
			C78.73,70.156,76.573,69.096,72.923,69.52z M70.809,84.934c-6.018-0.637-13.146-0.152-19.644-0.305
			c-0.184,0.02-0.355,0.048-0.302,0.305c-1.915-0.205-3.217,0.209-4.23,0.906c-0.677,1.035-1.712,1.715-1.508,3.625
			c0.033,1.879,1.487,2.336,2.414,3.324c5.824,0.357,13.966-0.436,20.247,0.303c3.18,0.348,6.708,0.34,10.274,0.303
			c3.864,0.338,6.703-0.35,7.25-3.326c0.229-3.446-1.555-4.889-4.531-5.135H70.809z"/>
	</g>
</g>
</svg>
