<?xml version="1.0" encoding="utf-8"?>
<!-- Generator: Adobe Illustrator 16.0.0, SVG Export Plug-In . SVG Version: 6.00 Build 0)  -->
<!DOCTYPE svg PUBLIC "-//W3C//DTD SVG 1.1//EN" "http://www.w3.org/Graphics/SVG/1.1/DTD/svg11.dtd">
<svg version="1.1" id="Layer_1" xmlns="http://www.w3.org/2000/svg"  x="0px" y="0px"
	 width="120px" height="120px" viewBox="4 4 120 120" style="enable-background:new 4 4 120 120;" xml:space="preserve">
<g id="layout1">
	<g>
		<path d="M35.618,49.306c2.262,1.264,5.845-0.199,9.128,0.285c0.365-0.491,1.139-0.574,1.426-1.143
			c-0.033-0.987,1.488-0.414,1.714-1.141c0.419-2.603,0.491-6.824,0-9.412c-1.233-1.24-3.443-1.503-5.991-1.428
			c-1.347-0.271-2.675-0.559-4.28-0.571c-1.501,0.116-2.116,1.114-2.851,1.999c-0.09,2.56,0.027,4.912,0.854,6.561
			C34.908,45.507,34.727,48.303,35.618,49.306z M44.746,40.177c1.093-0.135,0.543,2.226,0.288,2.567
			C44.386,42.439,44.921,40.951,44.746,40.177z M55.301,51.303c1.116,0.226,1.479,0.294,2.284-0.286
			c0.775-0.688,1.584,0.314,2.854,0c2.041-0.244,4.016-0.551,5.991-0.854c3.459,0.498,8.295,0.453,11.412-0.287H86.4
			c1.188-0.808,3.031,0.003,3.992-1.427c0.629-1.651,0.125-4.442,0.287-6.561c0.135-2.512-0.24-4.514-1.996-5.135
			c-0.216-0.472-2.353-0.472-2.566,0c-1.215-0.17-1.887,0.204-2.855,0.285c-5.182,0.051-10.639-0.179-15.406,0.284
			c-3.583-0.501-7.059-1.119-11.413-0.854c-0.336,0.138-0.646,0.304-0.855,0.57c-1.502,1.256-0.676,4.838-1.14,7.131
			C54.549,46.733,54.019,49.925,55.301,51.303z M79.84,42.459c-0.008,0.277-0.352,0.219-0.572,0.285
			C79.275,42.466,79.617,42.523,79.84,42.459z M70.711,42.172c0.039,0.897-0.736,0.982-1.43,1.142
			C69.318,42.496,69.639,41.961,70.711,42.172z M65.861,43.884c0.014-0.172,0.041-0.336,0.285-0.284
			c0.016-0.175,0.041-0.339,0.283-0.286c0.018-0.172,0.043-0.337,0.284-0.287c-0.026-0.342,0.416-0.172,0,0
			c-0.016,0.175-0.041,0.341-0.284,0.287c-0.017,0.175-0.041,0.338-0.283,0.286C66.129,43.774,66.102,43.939,65.861,43.884
			c0.133,0.896-0.771,0.753-0.855,1.428c-0.506,0.255-0.367,1.156-1.427,0.856C64.022,45.091,64.785,44.332,65.861,43.884z
			 M58.441,41.032h1.998c-0.578,0.661-0.949,1.527-1.998,1.713V41.032z M45.603,58.148c-0.289-0.47-1.211-0.309-1.713-0.569
			c-0.6-0.251-0.843-0.868-1.711-0.855c-0.174-0.015-0.337-0.041-0.285-0.285c-1.072,0.221-1.365-0.349-2.281-0.286
			c-0.659,0.389-1.594,0.502-1.426,1.714c-1.01-0.55-1.563,0.091-2.283,0.569c-0.611,2.708-0.242,6.632,0,9.416
			c0.868,0.653,0.948,2.096,1.71,2.852c2.174,0.082,4.194,0.012,5.706-0.57c1.921,0.117,3.36-0.252,4.85-0.568
			c0.465-1.061,0.237-2.807,0.284-4.28c0.735-1.662,0.985-5.81,0-7.416C47.188,57.642,46.745,58.244,45.603,58.148z M39.041,59.004
			c0.9-0.138,1.008,0.515,1.998,0.286c-0.159,0.594-0.446,0.605-0.857,0.285C39.675,59.511,38.753,59.863,39.041,59.004z
			 M39.326,67.564c0.115-0.549,1.107-0.228,0.855-1.14c0.717,0.439,0.957,1.154,1.998,0.568
			C42.032,67.988,40.315,67.414,39.326,67.564z M44.178,61.003c-0.571-0.287-0.452-1.262-1.428-1.143
			c-0.244-0.051-0.271,0.113-0.286,0.286c-1.061-0.718,1.084-0.6,1.714-0.571V61.003z M45.034,66.994
			c-0.19-1.043,0.617-1.094,0.569-1.998C46.091,65.23,45.787,67.061,45.034,66.994z M47.318,59.291
			c-0.092,2.18,0.043,4.14,0.283,5.991c-1.396-0.984-0.443-4.311-1.141-5.991H47.318z M47.601,67.279
			c-0.148-0.148,0.206-0.363,0.284-0.285C48.033,67.143,47.677,67.359,47.601,67.279z M83.832,57.292
			c-8.246,0.623-17.764,1.956-26.247,0.573c-0.273,0.529,0.854,0.953,0,1.139c-0.66-0.085-0.315,0.825-0.856,0.856
			c0.03,1.169,0.058,2.34-0.286,3.14c0.127,2.255-0.287,5.042,0.286,6.85c0.505,0.256,0.885,0.635,1.14,1.141
			c10.504,2.291,21.5-0.971,32.811-0.572c0.191-0.662,0.949-0.764,1.144-1.426c0.409-0.443,0.379-1.334,0.854-1.713
			c-0.145-3.186-0.456-6.198-0.569-9.414c-2.629-0.132-5.439-0.08-7.416-0.858C84.324,57.024,84.293,57.373,83.832,57.292z
			 M61.007,65.568c0.152-0.439,0.301-0.021,0.287,0.285C60.785,65.934,60.708,65.584,61.007,65.568z M71.279,60.147
			c-0.131-0.892,0.609-0.911,1.428-0.856C72.277,59.624,72.008,60.117,71.279,60.147z M75.275,61.003
			c0.012-0.486-0.213-0.738-0.574-0.856c0.215-0.643,1.6-0.111,2.283-0.286C76.609,60.437,76.049,60.828,75.275,61.003z
			 M79.84,60.147c0.008-0.277,0.35-0.22,0.57-0.286C80.4,60.138,80.061,60.083,79.84,60.147z M86.686,59.861
			c-0.033,0.728-0.414,1.107-1.143,1.143c-0.221-0.252-0.307-0.643-0.283-1.143H86.686z M49.599,77.549
			c-1.664-1.758-5.525-1.324-8.846-1.424c-1.046-0.383-2.178-0.676-3.424-0.857c-0.766,0.188-1.084,0.818-1.712,1.144
			c-0.417,1.44,0.839,2.155,0.286,2.853c0.141,0.899-0.515,1.006-0.286,1.997c0.085,1.64-0.116,3.642,0,5.421
			c0.158,2.461,0.114,3.293,1.429,4.276c2.854,0.002,5.455-0.248,7.987-0.567c1.093,0.332,1.784,1.065,3.42,0.854
			c1.04-0.961,1.182-2.813,1.431-4.563C49.733,83.691,50.208,80.076,49.599,77.549z M40.468,81.83
			c-0.502-0.07-0.651-0.49-0.572-1.141h1.143C40.89,81.111,40.617,81.406,40.468,81.83z M43.605,85.539
			c-0.836-0.244,0.17-0.92,0-1.426C44.442,84.354,43.436,85.031,43.605,85.539z M45.318,84.969v-1.713
			c-0.072-0.973-0.721-1.369-0.572-2.566h1.426c0.123,1.646-0.323,2.72-0.568,3.992C45.838,85.357,45.201,85.998,45.318,84.969z
			 M92.676,82.4c-0.125-1.586-0.08-3.34-0.854-4.279c-0.625-0.324-1.168-0.734-2.283-0.572c-0.582,0.273-1.129,0.584-1.713,0.855
			c-2.316,0.133-4.252-0.121-6.275-0.283c-5.781,0.494-11.904,0.648-18.259,0.572c-2.47-0.543-4.946-0.611-7.134-0.289
			c-1.172,1.395-0.801,4.338-1.141,6.563c-0.199,2.865,0.205,5.121,1.141,6.847c11.408-0.67,24.199,0.045,35.665-0.57
			c0.077-0.455-0.105-0.975,0-1.426c0.12-0.512,0.229-0.604,0.567-0.855c0.461-0.49,0.865-1.039,0.855-1.998
			C93.359,85.141,92.83,83.959,92.676,82.4z M59.583,85.539C58.776,84.246,59.46,82,61.58,82.686
			C61.025,83.75,59.965,84.305,59.583,85.539z M66.715,83.541c-0.49,2.172-1.789,3.537-2.567,5.422H62.15
			C63.796,87.277,64.816,84.973,66.715,83.541C66.441,82.357,67.568,83.484,66.715,83.541z M68.713,86.107
			c-0.805-0.287,0.078-1.211,0-1.709C69.576,84.748,68.402,85.379,68.713,86.107z M71.564,82.686
			C73.875,82.166,71.441,84.6,71.564,82.686L71.564,82.686z M72.422,88.963c0.15-0.23,0.299-0.465,0.285-0.857h0.57
			c0.149,0.23,0.295,0.463,0.283,0.857H72.422z M78.127,88.676c0.162-0.617,1.232-1.787,1.998-0.854
			C80.074,88.721,78.996,88.594,78.127,88.676z M84.117,88.105c0.008-0.275,0.35-0.222,0.572-0.283
			C84.682,88.098,84.338,88.041,84.117,88.105z M88.4,82.4h-0.574v-0.57H88.4V82.4z"/>
	</g>
</g>
</svg>
