<?xml version="1.0" encoding="utf-8"?>
<!-- Generator: Adobe Illustrator 16.0.0, SVG Export Plug-In . SVG Version: 6.00 Build 0)  -->
<!DOCTYPE svg PUBLIC "-//W3C//DTD SVG 1.1//EN" "http://www.w3.org/Graphics/SVG/1.1/DTD/svg11.dtd">
<svg version="1.1" id="Layer_1" xmlns="http://www.w3.org/2000/svg"  x="0px" y="0px"
	 width="120px" height="120px" viewBox="4 4 120 120" style="enable-background:new 4 4 120 120;" xml:space="preserve">
<g id="layout8">
	<g>
		<path d="M100.122,96.721c0.83-6.201,0.604-12.396,0.604-18.736c-0.004-13.342-0.305-26.213-0.305-38.379
			c0-6.476,0.236-12.947-0.301-19.337c-0.178-0.629-0.637-0.978-0.907-1.51c-0.354-0.451-1.254-0.359-1.21-1.212
			c-0.434-1.174-1.148-2.073-2.111-2.718c-5.871-1.684-14.518-0.596-21.758-0.907c-0.39,0.018-0.421,0.389-0.908,0.304
			c-7.362,0.492-15.497,0.214-22.667,0.907c-3.478,0.449-7.261,0.589-10.573,1.206c-2.122-0.209-3.316,0.514-5.438,0.305
			c-0.401,0.764-1.342-0.444-2.114-0.305c-1.184-0.174-1.758,0.261-2.419,0.605c-0.992,0.922-1.227,2.602-1.514,4.231
			c0.228,2.236-0.335,3.689-0.3,5.741c-0.122,3.909-0.267,7.79-0.604,11.484c0.006,7.962-0.513,15.399-0.3,23.568
			c-0.057,8.012,0.01,15.903,0.602,23.27c0.005,7.957,0.112,15.8,1.513,22.363c1.576,1.34,2.053,3.786,4.229,4.532
			c4.702,1.14,11.023,0.659,16.318,1.207c11.604,0.497,22.693,0.074,34.447,0c3.133-0.209,5.334,0.511,8.462,0.304
			c2.534,0.864,4.696-1.106,6.347-2.117C100.913,107.988,99.807,101.643,100.122,96.721z M92.564,61.061
			c-0.002,12.725,0.312,25.269-0.904,36.565v7.554c-18.365,0-36.529,0.661-54.694,0c-1.181-5.768-1.253-12.647-1.212-19.64
			c-0.679-0.226-0.119-1.696-0.3-2.419V80.4c0.053-1.765-0.527-2.896-0.302-4.834c-0.104-16.934,0.263-35.22-0.304-50.769
			c5.585-0.964,12.255-0.842,18.435-1.208c6.003-0.545,12.882-0.214,19.338-0.302c6.182-0.411,14.827-0.746,20.55,0.302
			C92.791,35.586,92.564,48.406,92.564,61.061z"/>
	</g>
</g>
</svg>
