<?xml version="1.0" encoding="utf-8"?>
<!-- Generator: Adobe Illustrator 16.0.0, SVG Export Plug-In . SVG Version: 6.00 Build 0)  -->
<!DOCTYPE svg PUBLIC "-//W3C//DTD SVG 1.1//EN" "http://www.w3.org/Graphics/SVG/1.1/DTD/svg11.dtd">
<svg version="1.1" id="Layer_1" xmlns="http://www.w3.org/2000/svg"  x="0px" y="0px"
	 width="120px" height="120px" viewBox="4 4 120 120" style="enable-background:new 4 4 120 120;" xml:space="preserve">
<g id="leaf">
	<g>
		<path d="M108.789,49.038c-0.908-0.782-1.26-2.801-1.877-3.449c-0.241-0.249-0.098-0.297-0.316-0.625
			c-0.393-0.594-1.103-0.995-1.563-1.567c-0.49-0.601-0.822-1.296-1.255-1.879c-1.148-0.735-2.074-1.688-3.135-2.509
			c-1.102-0.883-2.559-1.412-3.444-2.507c-0.806-0.14-1.445-0.44-1.882-0.941c-0.836-0.211-1.599-0.493-2.194-0.94
			c-1.504-0.483-3.151-0.818-4.39-1.568c-2.576-0.346-5.152-0.697-7.836-0.94c-5.57,0.383-11.195,0.714-16.608,1.254
			c-0.039,0.693-1.331,0.133-1.884,0.314c-0.368,0.36-1.104,0.354-1.879,0.312c-1.161,0.405-2.624,0.512-4.072,0.627
			c-2.263,0.77-5.427,0.633-8.463,0.627c-0.894-0.676-2.405-0.73-3.138-1.566c-1.271-0.398-1.814-1.526-3.132-1.881
			c-1.411-1.935-3.519-3.165-4.702-5.328c-1.698-1.645-2.662-4.022-3.76-6.268c-0.685-0.988-0.854-2.491-1.881-3.135
			c-0.531-1.246-1.177-2.376-3.137-2.193c-0.447,0.175-0.762,0.489-0.938,0.942c-0.99,0.368-1.091,1.624-1.881,2.192
			c-1.932,8.411-3.332,17.354-3.134,27.896c0.62,9.72,3.001,17.683,6.269,24.76c3.592,6.711,8.041,12.642,13.476,17.551
			c5.349,4.832,11.933,8.974,21.001,10.03c1.879,0,3.761,0,5.639,0c3.643-1.163,7.85-1.766,11.598-2.822
			c0.771-0.689,1.604-1.32,2.82-1.564c0.092-0.642,0.85-0.615,0.941-1.256c0.804-0.023,0.447-1.459,1.252-0.625
			c0.859,4.256,0.893,9.347,1.256,14.103c0.673,0.581,0.199,2.308,0.941,2.821c0.301,0.953,0.365,2.137,1.25,2.509
			c0.043,1.21,1.273,1.233,1.568,2.192c0.781,0.578,1.961,0.756,2.821,1.254c3.231-0.529,5.019-2.502,6.583-4.701
			c-2.262-0.771-3.396-2.664-4.389-4.701c-2.379-5.248-2.305-12.951-4.076-18.807c-1.082-1.947-1.879-4.182-3.135-5.953
			c-0.399-1.064-1.115-1.812-1.565-2.82c-0.64-0.932-1.5-1.637-1.88-2.822c-2.971-2.465-5.146-5.72-9.092-7.208
			c-1.459-1.256-3.713-1.719-5.642-2.508c-2.198-0.33-4.587-1.712-6.894-0.94c-0.041,3.382,3.42,3.265,5.639,4.387
			c1.046,1.463,2.956,2.061,4.076,3.448c1.568,0.938,2.66,2.354,4.076,3.447c1.359,2.293,3.384,3.928,4.389,6.582
			c1.592,2.168,2.41,5.108,3.446,7.836c-1.374-0.302-2.062-1.283-4.075-0.941c-5.988,1.641-12.314,2.938-20.375,2.507
			c-2.467-0.558-4.789-1.267-6.893-2.192c-4.494-3.027-8.357-6.688-11.907-10.656c-1.485-2.276-3.272-4.252-4.392-6.894
			c-1.619-2.142-2.369-5.153-3.76-7.524c-1.718-5.805-3.189-11.856-3.764-18.806c-0.215-5.424-0.436-10.848-0.312-16.61
			c0.544-1.444,0.05-3.922,1.565-4.387c1.847,3.064,3.256,6.565,5.644,9.089c2.116,2.897,5.193,4.836,8.46,6.582
			c2.189,0.422,4.218,1.01,6.585,1.255c9,0.224,15.536-2.016,23.504-2.822c5.213-0.093,10.312-0.072,14.418,0.941
			c6.342,3.166,10.945,8.067,12.535,15.983c0,1.567,0,3.135,0,4.701c-0.262,0.364-0.414,0.841-0.311,1.568
			c-1.396,4.037-2.993,7.873-5.328,10.968c-0.818,1.897-1.775,3.66-2.822,5.328c0,1.355-0.729,1.988-0.627,3.447
			c0,0.731,0,1.463,0,2.193c0.832-0.1-0.295,1.757,0.941,1.254c3.062,1.031,5.229-1.422,6.58-3.134
			c1.415-2.138,3.226-3.88,4.074-6.581c2.445-4.66,4.728-9.482,5.328-15.984c0-2.195,0-4.388,0-6.582
			C109.312,51.65,108.99,50.405,108.789,49.038z"/>
	</g>
</g>
</svg>
