<?xml version="1.0" encoding="utf-8"?>
<!-- Generator: Adobe Illustrator 16.0.0, SVG Export Plug-In . SVG Version: 6.00 Build 0)  -->
<!DOCTYPE svg PUBLIC "-//W3C//DTD SVG 1.1//EN" "http://www.w3.org/Graphics/SVG/1.1/DTD/svg11.dtd">
<svg version="1.1" id="Layer_1" xmlns="http://www.w3.org/2000/svg"  x="0px" y="0px"
	 width="120px" height="120px" viewBox="4 4 120 120" style="enable-background:new 4 4 120 120;" xml:space="preserve">
<g id="level-up">
	<g>
		<path d="M113.936,81.273c-0.44-3.853-0.291-8.295-0.307-12.567c-0.293-2.675-0.812-5.116-0.92-7.97
			c-0.705-1.138-0.721-2.962-1.532-3.986c0.032-1.975-0.927-2.956-1.226-4.599c-1.258-1.81-2.43-3.703-3.989-5.212
			c-0.235-0.069-0.603-0.009-0.612-0.307c-3.797-1.615-7.432-3.397-12.566-3.678c-0.831-0.498-2.26-0.396-3.373-0.613
			c-1.521,0.094-2.812-0.048-3.984-0.307c-7.141,0.017-13.721-0.16-20.23,0.307c-6.442,0.461-12.799,1.038-19.314,1.226
			c-1.886,0.258-3.712,0.577-5.823,0.614c-0.227-1.92-0.417-3.876-0.304-6.132c-0.064-1.184-0.013-2.261,0.304-3.066
			c-0.227-0.897-0.93-1.316-1.536-1.838h-0.609c-0.364,0.148-0.698,0.325-0.921,0.614c-1.245,0.451-1.479,0.011-2.758,0.305
			c-2.045,1.733-4.062,3.616-5.827,5.211c-0.688,0.623-1.46,1.2-2.147,1.84c-2.625,2.452-4.753,5.488-7.968,7.358
			c-1.433,1.939-4.141,2.602-4.29,5.823c0.41,4.594,4.16,5.854,6.743,8.277c2.94,2.065,6.404,3.608,9.198,5.825
			c1.509,1.651,2.883,3.447,3.984,5.518c1.159,0.475,2.658,0.609,3.372,1.532c1.139,0.391,2.27,1.377,3.675,0.612
			c3.205-1.908,1.061-9.16,2.148-13.182c11.687,0.747,24.8,0,36.787,0c3.05,0,6.672-0.407,9.196,0
			c0.943,0.153,1.483,0.787,2.451,0.919c0.977,3.624,2.133,7.066,2.148,11.649v13.795c0.638,0.484,0.102,2.145,0.609,2.759
			c0.23,0.894,0.729,1.521,1.228,2.146c5.274,0.334,13.522,1.086,17.474-0.918c0.145-1.069,0.566-0.683,0.614-1.535
			C113.79,88.812,114.146,84.337,113.936,81.273z M76.842,57.362c0.807-0.726,2.44-0.624,3.065-1.531
			c1.116,0.007,0.651,1.595,2.149,1.226C80.921,57.767,78.48,57.163,76.842,57.362z M99.219,62.574
			c-1.763-1.713-3.007-3.941-5.515-4.904c0.596-1.548,2.228-2.063,2.757-3.679c-0.865-1.291-2.426,0.169-3.066,0.918
			c-1.434,0.306-1.781,1.692-2.758,2.453h-8.275c0.408-0.511,1.361-0.476,1.839-0.919c0.678-0.242,0.768-1.071,1.226-1.534
			c0.578-0.442,1.362-0.684,1.227-1.84c0.13-1.047-0.916-0.919-1.227-1.529c-1.476,0.157-2.404,0.863-3.367,1.529
			c-2.306,0.256-3.953,1.165-6.136,1.534c0.031,0.371-0.444,0.189,0,0c0.364-0.963,1.688-0.965,1.841-2.145
			c-0.268-1.131-2.596-0.537-3.373-0.308c-1.007,0.422-2.058,0.805-3.062,1.227c-1.105,0.53-1.797,1.476-2.764,2.145
			c0.176,0.541-0.367,1.803,0.31,1.84c-1.263,0.782-3.49,0.599-5.521,0.612c0.883-2.391,4.54-2.003,4.906-4.905
			c-0.384-1.292-1.657-0.104-2.759-0.304c-1.842,0.917-3.679,1.838-5.517,2.757c-0.864,0.672-1.843,1.224-1.842,2.76h-2.758
			c0.948-1.71,3.431-1.88,3.985-3.985c-0.109-0.437-1.562-1.047-1.838-0.306c-0.95-0.03-1.702,0.138-2.147,0.612
			c-1.762,0.077-2.386,1.291-3.983,1.532c-0.019,0.188-0.046,0.363-0.311,0.308c-0.472,0.647-0.347,1.896-1.837,1.531
			c0.509-0.614,0.825-1.424,1.837-1.531c0.021-0.188,0.049-0.362,0.311-0.308c0.905-1.545,3.169-1.734,3.678-3.677
			c-0.99-1.857-3.288-0.185-4.907,0c-1.269,1.076-3.141,1.56-3.986,3.063c-0.132,1.054,0.124,1.72,0.309,2.452h-3.679
			c-1.384,0.057-0.756-1.898-2.452-1.531c-1.546-0.22-1.608,1.05-2.451,1.531c0.165,1.494-1.226,1.435-1.533,2.453
			c-0.835,0.223-0.617-0.609-1.227-0.612c0.078,1.76-0.231,3.907,0.305,5.211c-2.214-1.975-4.418-3.959-7.051-5.52
			c-2.372-1.918-4.59-3.991-7.662-5.211c0.64-1.811,2.659-2.245,3.679-3.68c1.511-1.044,2.476-2.633,3.983-3.678
			c2.377-2.63,4.848-5.167,6.746-8.277c0.685,0.133,0.125,1.512,0.305,2.147c0.176,0.995-0.208,1.425-0.305,2.146v4.293
			c1.368-0.267,2.523-0.747,4.29-0.615c1.375,0.259,2.426,0.846,3.373,1.532c3.944,0.396,9.578,0.579,13.49,0h3.985
			c0.865,0.256,0.793-0.431,1.531-0.307h22.685c6.766,0.389,12.825,1.481,17.782,3.682c1.467,1.592,2.646,3.481,3.062,6.13
			c-0.395,1.238-1.684,1.584-2.451,2.453c-0.701,1.648-1.795,2.902-2.453,4.596C99.585,64.456,99.792,63.124,99.219,62.574z
			 M107.498,77.594v11.344h-2.758c-0.18-2.379,1.848-4,0.918-6.131c-1.584,0.051-1.574,1.694-2.454,2.453
			c-0.175,1.358-0.992,2.07-0.917,3.678c-0.688-0.133-0.126-1.512-0.309-2.146v-2.145c-0.052-1.074,1.078-0.967,1.53-1.532
			c0.459-3.834,2.987-5.597,3.685-9.196C107.893,74.541,107.301,76.463,107.498,77.594z M107.498,73.305
			c-1.589-1.777-3.439,0.621-3.988,1.838c-0.947-1.067,0.746-2.103,0.309-3.679c0.601-0.831,0.824-2.034,0.923-3.372
			c-0.619-0.576-1.429,0.378-1.536,1.227c-0.74,0.384-0.99,1.258-1.227,2.146c-0.475-0.444-0.645-1.196-0.61-2.146
			c1.351,0.229,1.256-0.991,2.144-1.227c0.489-2.269,1.875-3.644,2.76-5.518c0.334,0.075,0.209,0.609,0.612,0.613
			C106.948,66.698,107.792,69.434,107.498,73.305z M100.75,59.199v1.229c0.811,0.094,1.01-0.424,0.922-1.229H100.75z M105.35,71.464
			c0.135-1.409,1.312-3.379,0.612-4.598C105.818,68.26,104.369,69.961,105.35,71.464z"/>
	</g>
</g>
</svg>
