<?xml version="1.0" encoding="utf-8"?>
<!-- Generator: Adobe Illustrator 16.0.0, SVG Export Plug-In . SVG Version: 6.00 Build 0)  -->
<!DOCTYPE svg PUBLIC "-//W3C//DTD SVG 1.1//EN" "http://www.w3.org/Graphics/SVG/1.1/DTD/svg11.dtd">
<svg version="1.1" id="Layer_1" xmlns="http://www.w3.org/2000/svg"  x="0px" y="0px"
	 width="120px" height="120px" viewBox="4 4 120 120" style="enable-background:new 4 4 120 120;" xml:space="preserve">
<g id="level-down">
	<g>
		<path d="M112.953,74.74c-0.863-0.494-0.657-2.055-1.693-2.372c-0.609-1.988-2.287-2.911-3.05-4.746
			c-3.981-3.921-8.194-7.614-12.536-11.179c-1.697-2.258-4.018-3.889-6.098-5.76c-1.205-0.831-2.012-2.056-3.387-2.71
			c-1.035-0.999-1.414-2.654-3.73-2.372c-1.887,0.371-0.945,3.571-2.371,4.404c0.262,3.196-0.438,5.435-0.338,8.471
			c0.248,3.024,0.607,5.944,0.676,9.146c-13.73-0.155-28.256,0.478-39.98-1.69c-1.682-1.933-2.529-4.699-3.048-7.796
			c0.423-1.604,0.822-3.243,1.016-5.08V39.165c0.439-3.802,1.344-9.15-0.34-12.198c-2.947-1.108-6.738-0.678-10.501-0.678H16.392
			c-0.691,0.101-0.666,0.917-1.354,1.017c-1.172,1.61,0.006,3.772-0.34,6.437c-0.775,0.472-0.123,2.358-0.336,3.391
			c0.265,1.506-0.455,2.032-0.341,3.387v7.454c0.092,1.15-0.263,2.747,0.341,3.389c0.213,1.029-0.438,2.918,0.336,3.386
			c-0.123,5.096,0.118,9.818,1.014,13.893c0.212,2.275,0.309,4.662,0.68,6.775c0.311,2.29,1.387,3.807,2.032,5.762
			c3.525,3.618,9.478,6.334,16.602,6.774c6.255,0.39,12.983-0.71,18.636-1.693h13.893c4.934,0,9.495-0.278,13.889,0.339
			c0.486,5.274-1.5,13.021,2.375,14.907c4.168-0.347,6.156-2.876,8.807-4.743c2.621-1.896,5.072-3.962,7.793-5.76
			c2.482-2.038,4.865-4.169,7.114-6.438c2.342-2.267,5.677-3.646,6.438-7.113C114.206,75.97,112.99,75.943,112.953,74.74z
			 M20.121,61.187c-0.463-0.472-0.732-1.673-0.342-2.032C21.325,59.144,19.796,60.343,20.121,61.187z M34.349,77.111
			c0.064-0.387,0.339-0.188,0.339,0C34.625,77.494,34.349,77.298,34.349,77.111z M104.48,78.805
			c-0.584,1.11-1.783,1.601-2.371,2.711c-0.82-0.193,0.16-2.192-1.017-2.033c-2.186,0.752-2.758,3.115-3.05,5.762
			c-1.169,0.412-1.788,1.367-2.71,2.031c-0.769-0.756,0.888-2.33,0-3.387c-0.306-0.6-0.756-1.051-1.354-1.356
			c-3.016-0.306-3.42,2.002-3.729,4.405c-1.168,1.537-0.476,4.941-2.031,6.099c-0.747-0.043-0.142-1.438-0.338-2.033V88.63
			c-0.235-0.909,0.699-0.655,1.019-1.017c0.287-0.273,0.199-0.928,0.678-1.016c0.227-0.902,0.531-1.726,1.016-2.373
			c0.264-1.774,2.061-3.031,1.354-4.744c-1.562-0.095-1.824,1.111-2.369,2.033c-0.637,0.829-1.401,1.536-1.695,2.711
			c-0.658-0.582-0.73-1.756-0.678-3.049c-2.705-0.008-4.848-0.57-7.795-0.34c-1.227,0.324-0.346-1.462-1.016-1.691
			c-1.478-0.238-1.508,0.978-2.709,1.015h-9.149c-0.724,0.157-0.646-0.482-0.675-1.015c-0.082-0.369-0.674-0.231-0.68-0.68
			c-3.797-0.634-4.554,1.77-7.453,2.034c-1.815,0.231-1.262-1.907-3.051-1.694c-1.247-0.006-1.496,0.986-2.033,1.694
			c-2.08,0.211-4.461,0.644-6.438,0c0.163-1.292-0.143-2.116-1.015-2.374c-2.604-0.002-3.524,1.671-4.064,3.729
			c-0.892,0.354-2.081,0.403-3.392,0.34c-0.032-1.051,1.068-0.969,0.679-2.373c-0.648-0.037,0.4-1.135,0-2.032
			c-0.385-1.192-0.743-2.417-1.692-3.048c-0.388-1.194-0.747-2.42-1.697-3.051c-3.148-0.323-3.566,2.078-4.741,3.727
			c-0.402,1.066-1.145,1.793-1.355,3.05c-1.267,0.089,0.097,2.808-1.356,2.711c-0.3-0.596-1.504-0.561-0.679-1.354
			c0.502-0.286,0.489-1.092,0.679-1.695c0.163-1.416,0.533-2.629,1.016-3.727c0.407-2.461,2.291-5.1,1.695-7.452
			c-1.916,0.229-2.31,1.979-3.729,2.709c-1.129,2.937-3.094,5.036-3.386,8.81c-1.529-0.57-0.898-2.881-0.338-4.064
			c0.119-1.801,0.795-3.043,1.015-4.744c0.688-3.149,1.982-5.699,2.372-9.146c-0.524-1.353-1.986,0.872-2.032,0
			c0.102-2.832,1.291-4.583,1.355-7.455c-0.974-1.236-2.355,1.032-2.71,0.338c0.072-2.411,0.725-4.241,1.015-6.438
			c0.166-1.761,0.957-4.937-0.338-6.098c-0.975-0.07-1.723,0.085-2.036,0.677c-0.677-0.594,0.463-2.232,0.342-3.387
			c0.653-0.825,0.325-2.836,0-3.727c-0.878-0.339-2.27-0.597-2.71,0.338c-0.573-0.67-0.373-2.115-0.68-3.05h13.553
			c0.669,0.771-0.357,1.893,0,3.389v4.066c0.279,0.958-0.478,0.877-0.339,1.693v15.925c0.325,2.498,0.81,4.839,1.357,7.114
			c0.399,0.951,0.762,1.948,1.018,3.05c0.701,0.648,1.41,1.299,1.691,2.369c1.05,0.082,1.318,0.944,2.032,1.357
			c0.902,0.229,1.729,0.533,2.373,1.016c2.765,0.172,5.277,0.6,7.793,1.017h2.71c0.954-0.28,0.875,0.479,1.694,0.339h7.113
			c5.024,0.732,11.367,0.155,16.939,0.339c1.037-0.204,1.768-0.719,2.711-1.016h7.119c0.744-0.042,0.141-1.438,0.336-2.034
			c-0.017-1.032,0.717-1.316,1.015-2.032c0.058-0.958-1.017-0.788-1.015-1.692c-0.027-4.263-0.774-7.812-1.019-11.86
			c1.547,0.266,1.785,1.831,3.05,2.374c0.784,1.021,2.125,1.49,2.711,2.709c2.09,1.524,3.424,3.807,5.762,5.083
			c1.863,1.75,3.813,3.413,5.418,5.42c1.973,1.646,3.597,3.638,4.744,6.099C106.061,76.997,105.721,78.35,104.48,78.805z"/>
	</g>
</g>
</svg>
