<?xml version="1.0" encoding="utf-8"?>
<!-- Generator: Adobe Illustrator 16.0.0, SVG Export Plug-In . SVG Version: 6.00 Build 0)  -->
<!DOCTYPE svg PUBLIC "-//W3C//DTD SVG 1.1//EN" "http://www.w3.org/Graphics/SVG/1.1/DTD/svg11.dtd">
<svg version="1.1" id="Layer_1" xmlns="http://www.w3.org/2000/svg"  x="0px" y="0px"
	 width="120px" height="120px" viewBox="4 4 120 120" style="enable-background:new 4 4 120 120;" xml:space="preserve">
<g id="lifebuoy">
	<g>
		<path d="M115.381,68.023v-1.789c-0.682-0.512-0.105-2.278-0.297-3.281c-0.432-2.056-0.594-4.381-0.596-6.863
			c-0.641-0.551-0.191-2.195-0.896-2.685c0.232-1.424-0.466-1.92-0.301-3.281c-1.352-2.624-2.443-5.509-3.576-8.353
			c-1.169-0.821-1.256-2.723-2.386-3.58c-0.663-1.328-1.541-2.438-2.39-3.581c-3.609-4.445-7.551-8.56-12.529-11.633
			c-1.119-0.57-3.354-0.031-4.473-0.598c-1.666-1.12-3.902-1.669-5.67-2.685c-1.123-0.269-2.145-0.64-2.984-1.194
			c-1.129-0.361-2.404-0.578-3.279-1.192C70.551,16.592,65.562,15.415,59,15.815c-0.068,0.232-0.251,0.347-0.601,0.298
			c-3.529,0.248-6.409,1.147-9.246,2.089c-2.938,0.84-5.091,2.466-7.759,3.579c-0.555,0.932-1.825,1.156-2.386,2.088
			c-1.25,0.237-1.386,1.597-2.685,1.79c-1.481,1.599-2.803,3.361-4.772,4.476c-2.92,3.241-5.928,6.401-8.649,9.844
			c-1.865,5.396-4.197,10.322-5.072,16.706c-0.542,0.354-0.234,1.556-0.598,2.089c0.212,1.106-0.509,1.279-0.298,2.386
			c-0.219,1.67-0.558,3.223-0.595,5.072c-0.169,3.512-0.437,6.927-0.302,10.74c0.531,0.564,0.22,1.969,0.302,2.982
			c0.807-0.214-0.214,1.406,0.595,1.193c-0.216,0.912,0.517,0.877,0.298,1.789c0.554,0.84,0.819,1.965,1.193,2.981
			c1.021,1.765,2.091,3.479,2.985,5.371c2.09,2.185,3.837,4.713,6.263,6.562c1.904,2.475,3.819,4.933,5.968,7.162
			c1.177-0.084,0.913,1.274,2.09,1.192c0.3,0.79,1.38,0.808,1.789,1.491c3.381,1.492,6.885,2.857,11.039,3.58
			c2.085,0.4,3.803,1.168,5.966,1.492c1.046,0.146,1.942,0.442,3.282,0.297c1.417-0.121,1.567,1.02,2.982,0.896
			c2.179-0.998,5.061-0.4,7.759-0.299c3.058,0.174,5.243-0.523,8.349-0.299c0.357-0.542,1.56-0.233,2.092-0.596
			c0.916-0.08,1.341-0.647,2.091-0.896c1.382-0.507,3.414-0.361,4.473-1.191c3.058-0.824,5.419-2.342,8.056-3.58
			c4.824-2.834,8.91-6.406,12.83-10.145c0.666-1.618,1.715-2.859,2.684-4.176c0.625-1.664,1.544-3.031,2.387-4.477
			c1.223-3.449,3.223-6.125,3.877-10.144c0.674-2.707,0.016-6.748,0.6-9.545C116.062,67.75,115.906,67.594,115.381,68.023z
			 M100.17,38.788c0.777,1.508,1.686,2.887,2.087,4.774c-0.557,0.04-0.998,0.194-1.196,0.594
			C100.189,42.942,100.096,40.948,100.17,38.788z M97.184,33.118c-0.432,0.761-1.584,0.801-2.086,1.492
			c-0.486,4.044-0.891,10.108,2.387,11.337c-0.893,0.899-1.897,1.684-3.282,2.088c0.455-1.533-0.287-4.227,0-6.564
			c-0.522-3.258-0.205-7.349-0.599-10.74C95.126,31.201,95.943,32.373,97.184,33.118z M88.234,27.75
			c1.054,0.138,1.634,0.753,2.387,1.193c-1.462,2.176-1.282,5.459-1.492,8.651c-0.113,1.697-0.521,4.896-0.299,7.458
			c0.58,2.008,0.889,4.284,3.281,4.475c-0.379,0.913-1.707,0.878-2.088,1.791c-1.027-0.563-0.976-2.206-1.789-2.985
			c0.654-1.404,0.395-3.254,0-5.069V32.521c-0.135-0.76-0.42-1.371-0.896-1.789C87.732,29.833,88.307,29.11,88.234,27.75z
			 M66.754,20.291c0.961-0.066,1.264,0.528,2.387,0.299c3.479,0.798,6.422,2.128,10.144,2.684c1.879,1.204,4.116,2.048,6.266,2.983
			c-0.46,1.331-1.618,1.963-2.386,2.983c-1.38,3.295-3.357,5.992-4.771,9.248c-0.935,0.062-2.192-0.201-2.686,0.3
			c-0.975-0.226-1.848-0.539-2.688-0.896h-8.354c-3.114,0.464-5.594,1.566-8.35,2.385c-1.322,0.128-0.649-1.739-1.792-1.79
			c-0.531-0.562-0.805-1.38-1.493-1.789c-0.557-1.73-1.648-2.926-2.385-4.474c-0.978-1.309-2.017-2.56-2.985-3.879
			c-1.162-1.122-2.26-2.315-2.984-3.878C50.327,21.364,57.439,19.729,66.754,20.291z M84.057,42.368
			c-0.608-0.09-0.584-0.809-1.19-0.896c0.133-1.358,0.766-2.216,1.19-3.28C84.609,38.956,84.477,41.58,84.057,42.368z
			 M47.064,42.962V39.98c-0.181-0.714-0.427-1.361-0.297-2.386c1.382,1.602,2.025,3.942,3.878,5.07
			c-0.749,1.438-2.497,1.88-3.285,3.283C46.683,45.534,47.252,43.87,47.064,42.962z M43.188,37.295
			c0.458-2.226,0.261-5.106,0.296-7.756c1.235,0.853,1.046,3.132,2.09,4.177c-0.899,1.289-0.985,3.392-1.491,5.072
			c-0.054,1.54,0.183,3.367-0.301,4.475v2.983c0.125,0.574-0.203,1.076-0.298,0.596v-7.458
			C43.724,38.349,43.043,38.237,43.188,37.295z M37.22,30.732c0.227-0.965,0.826-1.562,1.788-1.789
			c0.497-0.598,0.802-1.387,1.792-1.492c0.106-0.393,0.525-0.47,0.594-0.895c0.701,0.095,0.67,0.922,1.194,1.194
			c-0.22,1.168-1.757,1.023-1.788,2.387c-0.674,0.719-1.07,1.713-1.193,2.981c-0.643,2.046-1.142,4.231-1.194,6.862
			c-1.256-0.433-0.133-3.248-0.895-4.176v-2.088C37.21,32.93,37.161,31.884,37.22,30.732z M34.537,33.716
			c-0.325,3.608-0.229,6.501,0,10.144c-0.182,0.614,0.482,2.073-0.598,1.789c0.187-2.575-0.518-4.255-0.299-6.86
			c-0.412-0.982-0.13-2.655-1.192-2.984C32.964,35.117,33.883,33.279,34.537,33.716z M29.165,39.98
			c0.684,0.608,0.106,2.478,0.299,3.582c-0.846,0.244-0.773-0.423-1.494-0.299C28.117,41.915,28.924,41.232,29.165,39.98z
			 M32.447,90.1c-0.48-0.813-1.307-1.277-1.193-2.685c0.717,0.123,0.647-0.546,1.491-0.298C32.662,88.13,32.976,89.535,32.447,90.1z
			 M35.429,79.062c-0.876,0.812-2.003,1.373-2.981,2.088c-1.048,0.643-1.757,1.621-3.282,1.789c0.441-3.064,2.013-6.508,1.489-9.547
			c-1.431-0.142-1.335,1.248-2.083,1.791c-0.258,0.938-1.131,1.258-1.195,2.387c-0.806-0.354,0-1.557,0-2.09
			c0.271-0.521,0.102-1.487,0.594-1.789c-0.016-1.709,0.852-2.531,0.897-4.176c0.85-0.546,0.87-1.916,1.787-2.39
			c0.083-1.22,1.215-1.569,0.601-2.683c-2.432,0.252-3.391,1.979-4.477,3.581c-0.784-0.904,0.266-2.506,0.3-3.581
			c0.515-0.878,0.362-2.422,1.193-2.984c0.225-2.558,1.884-3.686,2.383-5.967c-0.104-0.391-0.523-0.469-0.594-0.895
			c-3.11-0.125-3.489,2.476-4.774,4.177c-0.879-0.523,0.173-1.59,0-2.387c-0.092-1.086,0.048-1.942,0.299-2.686
			c0.065-1.923,0.502-3.472,0.896-5.072v-0.895c2.821,0.76,5.083,2.079,7.754,2.983c0.339,0.971,0.406,1.871,1.495,2.388
			c1.36,0.269,1.688-0.497,2.684-0.598c1.38,0.21,2.201,0.983,3.58,1.194c-1.622,4.943-1.125,12.003-1.193,18.498
			c-0.08,1.072,0.551,1.436,0.594,2.387C39.414,76.084,37.561,77.712,35.429,79.062z M42.588,100.543
			c-0.231-0.068-0.585-0.01-0.595-0.3c-1.771-0.614-2.792-1.981-4.178-2.982c-0.65-3.903-1.135-8.956-0.595-13.128
			c0.664,0.128,0.12,1.471,0.298,2.09v2.685c0.579,4.69,2.22,8.321,4.475,11.337C42.224,100.311,42.582,100.25,42.588,100.543
			C42.951,100.512,42.773,100.977,42.588,100.543z M45.574,96.363c-2.158-3.881-3.621-10.713-2.09-16.406
			c0.29,0.008,0.233,0.365,0.298,0.596v5.967c0.345,1.646,0.708,3.269,1.195,4.773c0.69,0.702,0.976,1.805,2.383,1.791
			C47.036,94.445,46.157,95.258,45.574,96.363z M48.259,85.625c-0.596-0.996-0.635-2.548-0.598-4.178
			c0.738,0.355,1.165,1.021,1.493,1.791C49.002,84.182,48.275,84.549,48.259,85.625z M50.046,104.121
			c-0.535,0.039-0.627-0.366-1.189-0.297c-0.209-1.305,0.861-1.327,0.893-2.387C50.426,101.753,49.862,103.312,50.046,104.121z
			 M79.283,106.21c-0.906,0.108-0.617-0.972-0.893-1.493c-0.527-0.266-0.875-0.719-1.496-0.893
			c-1.623,0.062-1.349,2.029-1.787,3.279c-1.676,0.211-2.982,0.797-5.07,0.598c-0.924-1.465-0.391-4.383-2.387-4.774
			c-2.133,0.519-1.146,2.97-1.193,5.073c-1.955-0.033-4.21,0.23-5.37-0.596c-0.153-3.232,0.354-7.117-1.79-8.354
			c-2.982,0.397-1.792,4.972-2.982,7.16c-1.386,0.188-0.756-1.631-0.897-2.687v-3.58c-0.415-0.381-0.183-1.407-0.598-1.789
			c-0.32-0.871-0.821-1.562-2.085-1.492c0.476-1.512,1.152-2.824,2.085-3.877c0.362-1.53,1.656-2.125,2.089-3.58
			c2.942,0.539,5.165,1.798,8.354,2.088c4.938,0.166,9.19-0.354,13.127-1.193c0.338,1.451,0.855,2.725,1.49,3.879
			c0.133,0.763,0.418,1.373,0.896,1.791c0.23,0.662,0.174,1.617,0.894,1.787c0.788,2.697,2.832,4.133,3.582,6.863
			C83.208,104.963,81.486,105.825,79.283,106.21z M85.252,90.994c-0.9-1.088-1.355-2.622-2.089-3.877
			c0.063-1.127,1.534-0.854,1.789-1.791c0.347-0.049,0.53,0.066,0.597,0.299C85.52,87.482,85.055,88.909,85.252,90.994z
			 M81.373,81.447c-0.693,0.82-1.693-0.521-2.387,0.299c-1.36,0.23-1.299,1.885-2.389,2.387c-1.371,0.121-2.271,0.711-3.58,0.896
			c-4.031-0.342-8.465-0.286-11.634-1.493c-3.473-0.899-5.805-2.943-8.354-4.772c-1.573-1.805-2.97-3.793-4.771-5.369
			c0.015-0.512-0.223-0.772-0.598-0.896c-0.436-2.053-1.305-3.666-2.086-5.371c0.107-2.193-0.08-4.098-0.3-5.966
			c0.464-1.92,0.783-3.989,1.195-5.966c1.583-2.493,3.403-4.751,5.368-6.863c2.218-1.857,4.544-3.608,7.163-5.069
			c1.191-0.1,1.652,0.531,2.981,0.299c4.306-0.968,8.813-1.729,14.319-1.493c0.411,1.179,0.617,2.566,1.492,3.281
			c1.197,0.205,1.703-0.284,2.686-0.298c2.117,2.259,3.867,4.883,5.07,8.055c1.284,3.091,1.749,7.004,2.686,10.44
			c-0.34,4.335-0.047,9.303-1.49,12.53C85.059,77.977,83.3,79.795,81.373,81.447z M90.919,98.453
			c-0.345,1.497,1.899,1.465,0.896,2.686c-1.437,0.812-1.397-1.291-2.088-2.089c-0.651-0.842-1.117-1.868-1.789-2.687
			c0.707-0.582,1.649-0.934,2.086-1.787c-0.402-4.174-0.602-8.551-0.896-12.83c0.004-0.891,0.774-1.014,0.896-1.789
			c1.34,0.054,1.842,0.943,2.688,1.49C92.18,87.184,90.566,91.834,90.919,98.453z M96.885,97.855
			c0.208-4.23-0.498-7.655,0.299-11.037v-2.687h0.896c-0.271,2.812-0.378,5.789-0.298,8.951c0.202,1.385,1.475,1.707,2.684,2.088
			C99.549,96.342,98.361,97.244,96.885,97.855z M102.553,93.084c-0.689-1.297-0.102-3.877-0.296-5.669
			c-0.086-0.481,0.28-0.515,0.296-0.896c1.254,0.24,1.936,1.049,3.282,1.192C104.949,89.71,103.746,91.389,102.553,93.084z
			 M110.014,69.217c-0.367,2.02-0.605,4.168-1.195,5.967c0.179,2.461-0.207,4.365-0.596,6.265c-3-0.775-5.326-2.23-8.053-3.281
			c-2.463-1.313-5.164-2.397-7.76-3.578c0.082-3.004,1.139-5.03,0.895-8.354c-0.767-3.211-1.084-6.872-2.089-9.845
			c5.044-2.216,9.263-5.258,13.726-8.057h0.598c0.877,2.006,1.85,3.921,2.984,5.67C109.77,58.322,110.152,63.509,110.014,69.217z"/>
	</g>
</g>
</svg>
