<?xml version="1.0" encoding="utf-8"?>
<!-- Generator: Adobe Illustrator 16.0.0, SVG Export Plug-In . SVG Version: 6.00 Build 0)  -->
<!DOCTYPE svg PUBLIC "-//W3C//DTD SVG 1.1//EN" "http://www.w3.org/Graphics/SVG/1.1/DTD/svg11.dtd">
<svg version="1.1" id="Layer_1" xmlns="http://www.w3.org/2000/svg"  x="0px" y="0px"
	 width="120px" height="120px" viewBox="4 4 120 120" style="enable-background:new 4 4 120 120;" xml:space="preserve">
<g id="light-bulb">
	<g>
		<path d="M97.75,38.175c-0.971-2.527-1.544-5.447-2.914-7.574c-0.439-1.307-1.404-2.094-1.747-3.497
			c-0.749-0.999-1.584-1.91-2.038-3.204c-2.019-1.672-3.639-3.742-5.83-5.244c-3.156-1.306-6.451-2.481-9.902-3.496
			c-2.844-0.458-6.354-0.251-9.612-0.291c-0.063,0.227-0.246,0.337-0.583,0.291c-6.825,0.495-12.425,3.157-16.604,5.827
			c-0.263,0.166-0.605,0.102-0.877,0.292c-0.242,0.17-0.339,0.694-0.584,0.874c-0.262,0.191-0.644,0.115-0.87,0.292
			c-0.195,0.145-0.368,0.41-0.585,0.582c-2.456,1.935-4.249,4.294-6.408,6.409c-0.682,1.941-2.071,3.172-2.621,5.245
			c-0.792,0.567-0.615,2.104-1.459,2.621c0.046,0.725-0.456,0.903-0.582,1.458c-0.504,0.176,0.024,1.381-0.584,1.457v8.739
			c0.746,3.334,1.391,6.767,2.33,9.905c0.703,0.363,0.944,1.194,1.167,2.039c1.008,0.936,1.771,2.115,2.622,3.205
			c1.2,0.84,2.353,1.725,3.205,2.915c3.305,7.129,6.826,14.438,5.825,25.055c0.159,1.49,1.346,1.956,1.456,3.496
			c-0.134,2.466,0.084,4.58,0.586,6.41c0.818,1.604,2.228,2.627,3.785,3.496c-0.965,1.572,0.641,2.765,0.874,4.076
			c1.261,1.133,2.705,2.137,4.368,2.914c0.734,0.342,2.29,0.756,2.626,1.164c0.064,0.082,0.479-0.04,0.58,0
			c2.264,0.907,4.959,1.408,8.447,1.166c0.361-0.418,1.006-0.551,1.748-0.582c0.959-0.599,1.828-1.277,2.914-1.748
			c1.248-2.054,3.494-3.109,3.496-6.406c1.893-1.121,3.686-2.34,4.371-4.664c0.771-2.727,0.364-6,0-9.03
			c0.195-1.552,1.033-2.462,0.871-4.371c0.217-2.545-0.854-3.808-0.58-6.41c1.301-6.563,3.924-11.81,6.116-17.479
			c1.06-2.826,2.824-4.946,3.788-7.865c0.991-0.952,1.016-2.871,2.04-3.789c-0.188-1.159,0.771-1.17,0.58-2.33
			c0.604-0.464,0.358-1.778,0.875-2.331C97.999,44.527,98.209,41.019,97.75,38.175z M54.049,90.033
			c0.245-0.34,0.386-0.782,0.291-1.457c0.251-0.055,0.275,0.113,0.294,0.291c6.311,1.169,14.106,0.847,21.558,0.873
			c1.076-0.188,2.226-0.299,2.912-0.873c0.855,0.248-0.379,0.734,0,1.457c-0.6,0.08-0.576,0.777-0.875,1.165
			c-0.765,0.593-1.713,1.002-2.619,1.456c-1.938,0.682-4.229,1.017-6.408,1.457c-3.529,0.227-6.192-0.412-9.614-0.291
			c-0.391-0.484-1.297-0.453-1.746-0.875c-0.201-0.576-0.781-0.775-1.458-0.873c-0.343-0.437-0.364-1.191-0.873-1.457
			C54.969,90.672,54.328,90.531,54.049,90.033z M72.404,107.514H71.82v-0.584h0.584V107.514z M78.814,100.521
			c-0.513,0.652-1.748,0.584-2.334,1.164c-7.405-0.492-15.434,1.113-20.973-0.873c-0.477-0.887-0.856-1.863-0.875-3.207
			c0.977-0.006,1.542,0.403,2.037,0.875c0.764,0.113,1.601,0.15,2.039,0.584c3.696,0.189,7.001,0.771,11.073,0.582
			c3.169-0.323,5.901-1.092,8.739-1.746c0.069-0.317,0.578-0.198,0.58-0.584c0.34-0.047,0.521,0.064,0.584,0.289
			C79.924,99.105,79.452,99.898,78.814,100.521z M91.051,46.333c-1.636,5.65-4.533,10.036-6.99,14.857
			c-0.959,2.736-2.168,5.218-3.207,7.867c-0.459,1.385-1.092,2.599-1.457,4.078c-0.668,1.08-0.684,2.814-1.457,3.789
			c0.121,1.383-0.424,2.1-0.582,3.203c0.273,1.438-0.354,1.977-0.875,2.621c-3.09,0.527-6.639,0.291-10.197,0.291
			c-3.481,0-7.095,0.031-10.195-0.291v-3.786c0.019-1.476-1.366-1.546-1.455-2.914c-0.107-1.737-0.364-3.325-0.874-4.661
			c-1.267-3.395-3.333-5.992-4.952-9.031c-0.77-0.144-0.982-1.606-1.751-0.875c-1.023,0.052-0.955-0.982-1.747-1.165
			c-0.848-1.286-1.606-2.667-2.623-3.787c-0.371-2.054-1.129-3.726-1.747-5.534c-0.13-4.792,0.011-9.314,0.875-13.111
			c0.689-0.67,0.933-1.788,1.457-2.622c0.321-1.04,1.238-1.481,1.453-2.622c1.34-1.382,2.891-2.553,4.083-4.08
			c1.64-1.076,2.895-2.543,4.952-3.205c3.207-2.228,7.597-3.276,12.234-4.078h6.991c3.139,0.843,6.238,1.721,8.742,3.204
			c1.816,0.708,2.502,2.547,4.076,3.497c0.375,1.275,1.258,2.046,1.747,3.205c0.513,1.043,1.062,2.049,1.75,2.913
			c0.384,2.139,1.226,3.826,1.749,5.827V46.333z M76.191,57.694c-1.444-0.085-1.559,1.16-2.332,1.749
			c-0.318-0.847-0.93-1.4-1.455-2.04c-0.031-1.232-0.786-1.74-1.748-2.04c-1.561-0.204-1.533,1.187-2.623,1.458
			c-0.438-0.725-0.996-1.332-2.039-1.458c-1.728-0.31-3.437-0.639-5.243-0.873c-0.751,0.8-2.225,0.883-2.911,1.748
			c-0.041,0.542-0.192,0.974-0.584,1.165c-0.369,3.947,0.401,7.087,0.874,9.615c0.24,1.289,0.535,2.672,0.58,3.496
			c0.018,0.299,0.271,0.473,0.292,0.584c0.54,2.776,0.644,5.596,1.749,8.155c0.418,0.163,0.709,0.454,0.873,0.874
			c0.034,0.55,0.965,0.203,0.874,0.873c1.085,0.195,1.812-0.29,2.624-0.29c0.331,0,0.14,0.208,0.29,0.29
			c1.102,0.604,1.283-0.17,2.331-0.29c-0.043,0.915,0.748,0.999,1.457,1.165c2.389-0.451,2.538-3.258,3.204-5.244
			c0.758-2.261,1.631-4.461,2.33-6.41c0.66-2.25,1.828-3.996,2.041-6.699c0.568-0.887,0.617-2.294,1.162-3.205
			C78.09,58.708,77.52,57.823,76.191,57.694z M64.247,69.35c-0.618-0.744-0.337-2.385-0.875-3.207
			c-0.126-1.132-0.22-2.304-0.58-3.205v-2.621c-0.343-0.049-0.246-0.532-0.294-0.874h3.496C65.38,62.713,64.785,66.003,64.247,69.35
			z M72.697,64.395c-0.155,1.009-0.782,1.55-0.877,2.623c-0.975,1.258-1.52,2.947-2.329,4.369c-0.785-0.711,0.413-1.898,0-3.205
			c0.442-0.722,0.069-2.258,0.585-2.912c0.017-1.146,0.139-2.189,0.58-2.914v-0.875c0.57,0.131,1.8,1.082,2.328,0.292
			C73.723,62.341,72.826,63.729,72.697,64.395z"/>
	</g>
</g>
</svg>
