<?xml version="1.0" encoding="utf-8"?>
<!-- Generator: Adobe Illustrator 16.0.0, SVG Export Plug-In . SVG Version: 6.00 Build 0)  -->
<!DOCTYPE svg PUBLIC "-//W3C//DTD SVG 1.1//EN" "http://www.w3.org/Graphics/SVG/1.1/DTD/svg11.dtd">
<svg version="1.1" id="Layer_1" xmlns="http://www.w3.org/2000/svg"  x="0px" y="0px"
	 width="120px" height="120px" viewBox="4 4 120 120" style="enable-background:new 4 4 120 120;" xml:space="preserve">
<g id="flash2">
	<g>
		<path d="M99.282,35.905c-0.273-1.931-2.507-1.904-4.812-1.804c-1.66-0.646-3.533-1.078-5.414-1.502
			c1.51-1.997,3.182-3.836,5.115-5.414c0.536-1.063,1.239-1.966,1.801-3.008c0.791-0.815,2.047-1.164,2.106-2.707
			c-1.239-1.97-4.81-1.607-6.918-2.708c-3.208,0.002-5.159-1.253-8.117-1.503c-5.448-1.071-11.431-1.604-17.142-2.405h-2.708
			c-0.505,0.398-1.007,0.796-2.105,0.602c-1.101,3.613-3.046,6.375-4.812,9.321c-1.964,2.748-3.506,5.918-5.716,8.421
			c-0.711,1.592-1.873,2.737-2.706,4.21c-1.021,1.385-2.034,2.776-3.008,4.209c-0.883,1.423-1.924,2.689-2.706,4.211
			c-0.758,1.646-2.312,2.5-2.106,5.112c0.405,0.294,0.604,0.802,0.904,1.204c0.741-0.04,1.449-0.045,1.805,0.299
			c1.363,0.042,2.071,0.736,3.308,0.904c2.043,0.764,4.518,1.096,6.313,2.104c-2.889,4.125-5.435,8.599-8.417,12.631
			c-1.23,2.277-2.842,4.175-4.213,6.314c-0.847,2.66-2.841,4.174-3.305,7.219c1.17,1.232,3.648,1.16,5.411,1.805
			c1.788,0.719,4.65,0.359,6.014,1.503c-1.17,2.438-2.429,4.789-3.607,7.22c-2.321,4.998-4.744,9.891-7.219,14.734
			c-0.477,2.544-3.84,5.245-1.503,7.818c3.557,0.865,5.675-2.084,8.122-3.31c0.89-1.11,2.129-1.876,3.305-2.704
			c0.247-0.756,1.054-0.953,1.507-1.505c0.812-0.188,0.747-1.257,1.804-1.202c4.132-3.988,8.282-7.957,12.629-11.729
			c1.839-2.17,4.466-3.552,6.614-5.412c2.06-2.054,4.349-3.873,6.318-6.015c4.183-3.938,8.304-7.938,12.03-12.332
			c1.183-0.418,1.748-1.457,2.705-2.104c0.793-0.812,2.271-0.937,3.006-1.805c0.164-0.437-0.351-1.554,0.301-1.502
			c-0.026-1.176-1.467-0.938-1.504-2.106c-4.811-0.601-8.455-2.368-13.231-3.007c2.606-2.704,4.884-5.746,7.517-8.419
			c1.521-1.19,2.502-2.914,3.611-4.512c0.979-1.724,2.354-3.058,3.309-4.812c0.951-0.547,1.433-1.576,2.705-1.804
			c0.471-0.732,0.623-1.784,1.205-2.406C98.757,37.986,99.374,37.302,99.282,35.905z M85.148,66.58h1.199
			c-1.043,0.562-1.394,1.814-2.705,2.107c-0.812,0.888-1.393,2.016-2.705,2.404C81.875,69.123,83.841,68.182,85.148,66.58z
			 M86.951,42.522c-2.661,2.953-5.6,5.628-8.121,8.721c-1.811,1.899-3.463,3.954-5.109,6.015c-0.871,1.033-1.682,2.129-2.406,3.308
			c-0.451,0.453-0.906,0.901-1.504,1.203c-0.218,0.686-0.269,1.538-0.604,2.106c0.624,0.68,2.234,0.37,3.011,0.902
			c0.714,0.589,2.022,0.582,2.705,1.201c2.886-0.076,5.373,0.242,6.015,2.406c0.199,3.309-2.529,3.686-4.211,5.113
			c-5.473,3.85-9.451,9.193-14.134,13.834c-2.13,2.582-4.788,4.636-6.919,7.218c-0.791,0.712-1.811,1.194-2.102,2.405
			c-1.783,1.327-3.033,3.184-4.812,4.512c-0.902,0.605-1.487,1.523-2.407,2.104c-0.712,0.793-1.193,1.812-2.405,2.106
			c2.224-3.889,4.361-7.866,6.613-11.729c0.968-2.139,2.21-4.006,3.011-6.314c1.062-1.945,2.341-3.672,2.102-6.918
			c-0.501-1.602-1.902-2.305-3.907-2.406c-1.302-0.703-3.249-0.76-5.113-0.899c1.064-2.045,2.545-3.671,3.61-5.716
			c1.467-1.639,2.341-3.871,3.907-5.412c0.186-1.117,0.719-1.889,0.903-3.007c1.174-1.033,1.95-2.46,2.706-3.911
			c-0.124-1.881-0.177-3.833-0.602-5.412c-0.79-1.316-2.671-1.538-4.21-2.106c-1.521-0.485-2.845-1.165-4.812-1.203
			c0.846-3.262,3.034-5.185,4.208-8.119c1.177-0.931,1.465-2.746,2.709-3.609c0.399-1.603,1.798-2.212,2.104-3.909
			c1.939-2.172,3.324-4.895,4.81-7.52c1.523-2.486,2.895-5.124,4.214-7.817c0.158-0.243,0.312-0.489,0.299-0.904
			c4.165,0.646,8.271,1.352,12.329,2.105c4.53,0.083,7.215,2.008,11.729,2.106c0.728,0.698-0.47,0.803-0.604,1.502
			c-0.914,0.489-1.409,1.393-2.102,2.107c-0.609,0.624-1.703,1.026-1.807,2.103c-1.23,0.576-1.598,2.012-2.707,2.708
			c-0.449,0.451-0.537,1.267-1.203,1.503c-0.103,0.698-0.193,1.408-1.201,1.203c0.219,1.522-0.826,1.781-0.904,3.008
			c1.271,0.735,3.188,0.823,4.514,1.504c1.803,0.202,3.221,0.787,5.109,0.902C89.173,40.934,87.938,41.604,86.951,42.522z
			 M87.553,35.304c-0.009,0.293-0.367,0.234-0.602,0.302C86.962,35.313,87.318,35.371,87.553,35.304z"/>
	</g>
</g>
</svg>
