<?xml version="1.0" encoding="utf-8"?>
<!-- Generator: Adobe Illustrator 16.0.0, SVG Export Plug-In . SVG Version: 6.00 Build 0)  -->
<!DOCTYPE svg PUBLIC "-//W3C//DTD SVG 1.1//EN" "http://www.w3.org/Graphics/SVG/1.1/DTD/svg11.dtd">
<svg version="1.1" id="Layer_1" xmlns="http://www.w3.org/2000/svg"  x="0px" y="0px"
	 width="120px" height="120px" viewBox="4 4 120 120" style="enable-background:new 4 4 120 120;" xml:space="preserve">
<g id="light-down">
	<g>
		<path d="M64.941,38.11c2.024,0.044,3.509-0.455,4.754-1.188c0.934-1.2,1.963-3.377,1.188-5.35
			c-0.905-1.372-2.291-2.264-4.457-2.376c-2.142,0.631-4.105,1.442-4.459,3.861C62.166,35.537,63.193,37.184,64.941,38.11z
			 M88.715,44.946c-0.201-2.175-1.293-3.462-2.677-4.458c-6.661-1.389-6.519,9.677-0.295,8.619
			C87.387,48.372,88.377,46.982,88.715,44.946z M46.222,49.996c0.789-0.596,1.481-1.289,2.078-2.08
			c0.323-2.896-0.325-4.822-1.781-5.943c-0.733,0.04-1.435,0.046-1.787-0.296c-0.486,0.5-1.609,0.368-2.077,0.891
			c-1.052,1.447-1.093,3.673-0.891,5.645C42.687,49.37,43.813,50.323,46.222,49.996z M76.828,60.695
			c-1.236-1.638-1.924-3.486-3.564-4.756c-0.123-0.092-0.455,0.065-0.597,0c-0.104-0.046-0.172-0.524-0.298-0.594
			c-0.432-0.244-1.908-0.883-2.08-0.891c-0.299-0.016-0.184-0.257-0.295-0.298c-2.693-0.962-5.439-0.448-9.213-0.594
			c-0.182,0.018-0.353,0.045-0.299,0.298H59.89c-2.326,0.745-3.631,2.512-5.051,4.161c-1.532,3.423-2.234,7.674-2.083,12.777
			c0.444,0.55,0.569,1.411,0.595,2.378c0.895,1.186,1.427,2.732,2.376,3.863c0.784,0.309,1.004,1.178,1.785,1.486
			c0.182,0.904,1.598,0.58,1.782,1.484c2.788,0.958,7.354,1.305,10.399,0.297c2.369-1.296,4.285-3.046,5.945-5.052
			c1.295-2.619,2.481-6.799,2.08-10.696C77.566,63.085,76.939,61.975,76.828,60.695z M67.615,74.959
			c-0.42-0.025-0.842-0.049-0.893,0.297c-5.964,0.814-7.914-2.385-9.507-5.943c-0.344-1.23,0.625-1.157,0.592-2.08
			c0.694-0.097,0.289-1.295,0.893-1.483c0.282-2.989,1.329-5.21,3.268-6.538c4.429-0.98,8.534,0.448,10.104,3.269
			C73.32,68.256,71.062,72.902,67.615,74.959z M100.898,63.667c-1.071-1.407-2.229-2.724-5.051-2.377
			c-0.184,0.018-0.353,0.045-0.3,0.297c-0.741,0.245-0.938,1.041-1.485,1.486c0.021,1.506-0.512,2.459-0.297,4.159
			c0.506,0.682,1.104,1.275,1.782,1.783C99.596,69.494,101.473,67.807,100.898,63.667z M31.063,64.855
			c-0.339,1.545,0.774,2.963,1.189,3.565c0.262,0.379,0.477,1.068,0.593,1.188c0.144,0.145,0.741,0.192,0.892,0.299
			c0.021,0.012,0.262,0.256,0.3,0.297c0.246,0.238,0.636,0.352,0.891,0.593c0.479,0.459,1.067,0.573,1.784,0.595
			c1.066-0.317,1.946-0.826,2.672-1.483c0.809-2.899,0.125-6.582-1.483-8.026C34.78,60.953,31.522,62.167,31.063,64.855z
			 M44.14,82.982c-0.183,0.017-0.353,0.043-0.296,0.298c-2.768,0.401-3.5,2.84-3.566,5.942c0.328,0.562,0.74,1.043,0.889,1.781
			c0.709,0.385,1.419,0.764,2.082,1.189c1.946,0.164,3.369-0.198,4.457-0.892c0.349-0.444,0.371-1.217,0.894-1.487
			c0.157-2.932-0.853-4.694-2.08-6.238C45.57,83.531,45.209,82.9,44.14,82.982z M91.982,84.171
			c-2.533-0.252-4.229,0.327-5.053,1.783c-0.257,3.429,1.082,5.261,3.864,5.646C94.923,90.96,94.458,85.945,91.982,84.171z
			 M63.752,96.059c0.361,2.512,1.441,4.301,4.164,4.457c2.699-0.162,3.527-3.479,2.674-6.24
			C68.854,92.307,63.572,92.693,63.752,96.059z"/>
	</g>
</g>
</svg>
