<?xml version="1.0" encoding="utf-8"?>
<!-- Generator: Adobe Illustrator 16.0.0, SVG Export Plug-In . SVG Version: 6.00 Build 0)  -->
<!DOCTYPE svg PUBLIC "-//W3C//DTD SVG 1.1//EN" "http://www.w3.org/Graphics/SVG/1.1/DTD/svg11.dtd">
<svg version="1.1" id="Layer_1" xmlns="http://www.w3.org/2000/svg"  x="0px" y="0px"
	 width="120px" height="120px" viewBox="4 4 120 120" style="enable-background:new 4 4 120 120;" xml:space="preserve">
<g id="light-adjust">
	<g>
		<path d="M64.02,30.538c1.751-0.076,2.398-1.254,3.132-2.348c0.144-3.014-0.502-5.243-0.783-7.83
			c-0.293-1.186-0.414-2.544-0.784-3.653c0.019-1.497-1.098-1.859-1.824-2.61h-1.568c-1.022,0.195-1.256,1.179-1.826,1.827v10.179
			C60.703,28.46,61.323,30.535,64.02,30.538z M99.51,32.627c2.119-2.433,6.24-4.161,5.219-8.874
			c-0.541-0.847-1.905-0.875-3.392-0.782c-0.333,0.013-0.362,0.334-0.782,0.26c-2.455,1.284-4.303,3.179-6.264,4.959
			c-1.955,1.894-4.158,3.486-5.221,6.001c-0.483,1.369-0.094,2.69,0.523,3.654c0.485,0.036,0.874,0.17,1.043,0.522
			c2.549,0.112,3.43-1.444,4.961-2.351C96.941,34.928,98.331,33.883,99.51,32.627z M29.312,34.455
			c0.978,0.761,1.849,1.628,2.609,2.608c0.948,0.783,1.893,1.588,2.868,2.348c0.958,0.746,1.822,2.038,3.915,1.566
			c1.295-0.618,2.364-1.463,2.088-3.654c-0.773-2.272-2.982-3.106-4.175-4.957c-1.057-0.51-1.628-1.505-2.871-1.829
			c-0.678-0.888-1.934-1.197-2.872-1.826h-2.087c-0.158,0.014-0.307,0.039-0.262,0.26c-1.072,0.146-1.461,0.973-1.303,2.35
			C27.326,32.956,28.688,33.336,29.312,34.455z M82.811,41.761c-1.395-0.35-1.922-1.561-3.396-1.827
			c-0.847-0.979-2.687-0.964-3.651-1.826c-2.979-0.591-5.787-1.347-9.135-1.566h-7.567c-0.338,0.359-1.133,0.258-1.828,0.261
			c-3.602,1.009-6.578,2.64-8.871,4.959c-1.261,1-2,2.525-3.133,3.653c-0.163,0.968-0.732,1.528-1.044,2.348
			c-0.465,0.753-0.47,1.967-1.043,2.61c-0.061,1.68-0.418,3.061-0.262,4.958c0.46,0.758,0.409,2.028,1.046,2.61
			c0.362,0.937,0.873,1.734,2.087,1.827c2.376-1.278,2.856-4.45,3.651-7.308c1.355-2.299,2.548-4.76,4.699-6.262
			c1.958-1.433,4.131-2.655,7.828-2.349v6.001c0.41,5.508,0.644,11.188,0.785,16.962c0.596,0.881-0.047,3.004,0.52,3.916
			c0.157,0.541-0.322,1.713,0.264,1.826c0.157,0.625-0.33,1.895,0.26,2.088c-0.203,1.683,0.388,2.57,0.259,4.176v2.089
			c-0.216,0.682,0.791,1.432,0,1.825c-4.741,0.394-7.8-0.896-10.96-2.088c-0.759-0.979-2.142-1.334-2.871-2.35
			c-0.978-0.759-1.85-1.63-2.61-2.607c-1.742-1.735-3.005-3.951-4.176-6.264c-0.704-1.816-0.811-4.23-1.041-6.525
			c-0.372-2.047,0.946-4.217-0.263-5.479c-1.453-0.147-1.699,0.909-2.348,1.566c-0.5,0.891-1.217,1.565-1.306,2.87
			c-0.726-0.118,0.207,1.423-0.522,1.305c-0.155,0.54,0.324,1.715-0.261,1.827v4.175c0.302,0.308,0.296,0.924,0.261,1.565
			c1.281,4.549,3.489,8.168,6.264,11.223c4.193,3.81,9.104,6.9,16.442,7.568c4.704,0.269,8.222-0.649,11.22-2.088
			c2.369-1.722,4.774-3.406,6.787-5.48c1.112-0.977,2.03-2.143,2.867-3.395c0.659-0.387,1.08-1.008,1.311-1.826
			c0.542-0.5,1.085-1,1.302-1.825c3.37-4.982,5.772-10.932,5.479-19.574C89.559,48.754,86.266,45.174,82.811,41.761z M68.455,48.285
			c-1.082-0.573-0.173-3.135-0.782-4.176h2.086C69.465,45.641,68.602,46.604,68.455,48.285z M70.544,79.861
			c0.138-0.4,0.271-0.017,0.259,0.263C70.338,80.195,70.268,79.876,70.544,79.861z M74.721,47.762
			c-0.154-0.936,0.303-1.262,0.52-1.825c0.82-0.126,1.021,0.371,1.566,0.522C76.082,46.863,75.287,47.2,74.721,47.762
			C74.744,48.079,74.337,47.923,74.721,47.762z M74.721,60.029c-0.137-0.135,0.188-0.335,0.26-0.262
			C75.113,59.902,74.79,60.101,74.721,60.029z M82.811,58.985c0,4.61-1.705,7.518-3.135,10.699c-0.703-0.25-1.49-0.422-2.087-0.783
			c-0.261-0.605-0.897-0.84-1.825-0.781c0.91-1.699,1.676-3.542,2.607-5.221c0.762-1.851,1.855-3.365,2.089-5.742
			c-0.093-0.34-0.46-0.409-0.521-0.782c-2.722-0.108-3.32,1.9-4.701,3.132c-0.707-0.238,0.266-0.916,0.263-1.306
			c-0.04-0.649,0.41-0.807,0.522-1.304c0.358-0.859,0.683-1.751,1.043-2.61c0.73-1.792,1.607-3.438,2.088-5.482v-0.782
			c1.768,1.194,2.674,3.243,3.656,5.221c-0.174,1.564,0.233,2.547,0.262,3.913C83.223,58.005,82.893,58.373,82.811,58.985z
			 M115.952,61.595c-0.349-0.173-0.486-0.56-0.522-1.044c-1.066-1.022-2.949-1.227-4.957-1.305
			c-3.787,0.825-9.945-0.725-10.438,3.393c0.454,3.07,3.903,3.425,7.306,3.653c1.501,0.101,3.02-0.076,4.438,0
			c0.356-0.512,1.598-0.142,2.089-0.521c0.696-0.172,0.993-0.746,1.563-1.045C115.745,63.824,116.137,62.999,115.952,61.595z
			 M30.614,68.378c0.561-0.829,1.408-1.374,1.566-2.608v-1.563c-0.446-1.383-1.474-2.179-2.61-2.872h-5.742
			c-0.055,0.242-0.219,0.255-0.521,0.261c-3.239,0.066-6.92,0.247-7.307,3.394v1.044c0.398,2.646,3.444,2.643,6.002,3.131
			C25.183,69.213,28.306,69.203,30.614,68.378z M95.857,86.385c-2.322-0.318-3.275,0.729-4.176,1.829
			c-0.338,3.554,1.059,5.382,1.826,7.829c0.99,2.225,1.803,4.633,3.653,6.002c0.97,0.422,2.567,0.216,3.915,0.262
			c0.234-0.461,0.582-0.811,1.045-1.045c0.041-0.307-0.048-0.74,0.261-0.783c-0.198-3.196-1.428-5.358-2.61-7.567
			C98.85,90.354,97.621,88.1,95.857,86.385z M36.096,90.823c-0.308-0.04-0.742,0.046-0.783-0.261
			c-1.785-0.22-2.412,0.72-3.916,0.781c-1.568,1.387-3.078,2.838-4.435,4.438c-1.302,1.656-3.272,2.645-3.134,5.742
			c0.49,0.902,1.187,1.6,2.089,2.086c3.64-0.099,5.312-2.168,7.308-3.914c1.011-0.887,2.096-1.754,2.871-2.87
			c0.754-1.087,1.506-2.429,1.306-4.438C36.998,91.835,36.46,91.416,36.096,90.823z M66.889,99.174
			c-0.957-0.506-2.782-0.843-3.651,0c-0.306,0.391-0.754,0.639-0.784,1.305c-0.748,0.037,0.227,1.793-0.522,1.828v7.828
			c0.03,1.274-0.14,2.75,0.261,3.653c0.234,0.459,0.585,0.808,1.046,1.044c-0.127,0.822,1.196,0.195,1.302,0.781
			c1.223-0.174,2.177-0.609,2.872-1.305c0.583-3.418,0.108-7.896,0.262-11.74C67.943,100.906,67.307,100.146,66.889,99.174z"/>
	</g>
</g>
</svg>
