<?xml version="1.0" encoding="utf-8"?>
<!-- Generator: Adobe Illustrator 16.0.0, SVG Export Plug-In . SVG Version: 6.00 Build 0)  -->
<!DOCTYPE svg PUBLIC "-//W3C//DTD SVG 1.1//EN" "http://www.w3.org/Graphics/SVG/1.1/DTD/svg11.dtd">
<svg version="1.1" id="Layer_1" xmlns="http://www.w3.org/2000/svg"  x="0px" y="0px"
	 width="120px" height="120px" viewBox="4 4 120 120" style="enable-background:new 4 4 120 120;" xml:space="preserve">
<g id="thumbs-up">
	<g>
		<path d="M113.707,55.831c-1.174-1.883-2.951-3.165-4.297-4.873c-2.266-0.6-4.155-1.578-6.594-2.004
			c-2.627-0.333-5.529-0.392-8.022-0.86h-5.157c0.5-0.934,1.434-1.435,1.721-2.579c1.025-0.503,1.027-2.031,2.006-2.58
			c-0.168-1.219,0.203-1.895,0.285-2.865c0.963-0.95,1.395-2.429,2.293-3.439c0.562-1.442,1.998-2.013,2.293-3.724
			c0.024-3.702-0.213-7.664,0.572-10.602c-0.584-1.136-1.205-2.236-1.145-4.012c-1.749-0.927-2.581-2.768-4.585-3.438h-3.44
			c-3.341,1.243-4.537,4.63-8.021,5.73c-3.731,7.349-10.132,12.027-16.048,17.193c-2.761,2.774-5.534,5.545-8.594,8.023
			c-1.304,1.465-2.907,2.632-4.585,3.725c-1.664,1.201-3.163,2.566-5.156,3.438c-0.016-1.894-1.19-2.632-2.006-3.725
			c-3.386-0.914-6.433-2.166-10.604-2.292c-2.568,0.01-4.678,0.482-7.45,0.285c-0.432,0.427-1.254,0.462-2.006,0.574
			c-0.4,0.458-0.987,0.733-1.719,0.858c-0.546,0.791-1.216,1.458-2.007,2.007c-2.406,5.044-2.273,12.625-3.439,18.911
			c-0.318,11.33-0.324,22.977-0.284,34.67c0.465,0.682,0.555,1.736,0.86,2.578c0.645,0.598,0.818,1.665,1.432,2.293
			c1.744,0.742,3.644,1.324,6.017,1.434c3.283,1.781,8.718,1.405,13.755,1.433c1.27-0.354,2.135-1.112,3.438-1.433
			c1.839,0.215,2.072-1.176,3.152-1.719c0.261,1.457,1.372,2.062,2.293,2.865c1.079-1.486,2.87,0.568,4.297,0.572
			c1.249,0.756,3.406,0.604,4.869,1.146c5.641,0.474,11.063,1.164,16.907,1.433c2.474-0.486,5.697-0.223,8.595-0.285
			c4.062-0.623,7.742-1.619,11.461-2.58c0.601-0.453,1.169-0.937,2.008-1.146c2.286-2.316,4.408-5.156,4.87-9.455
			c0.281-2.602-0.205-5.435,0-8.596c1.514-1.449,3.383-2.541,4.87-4.012c0.247-0.994,0.894-1.59,1.435-2.293
			c0.813-4.439,1.474-9.032,2.004-13.752c1.892-2.221,3.594-4.625,4.301-8.023C114.299,61.542,114.422,58.267,113.707,55.831z
			 M25.167,60.701c0.079-0.973-0.22-2.323,0.287-2.866c-0.068-2.072,0.625-3.385,1.147-4.87c0.276,0.008,0.221,0.35,0.286,0.573
			c-0.625,3.196-1.407,6.234-1.721,9.742C24.59,62.962,24.838,61.063,25.167,60.701z M42.359,59.842
			c-0.514,0.537-0.631,1.469-1.147,2.004c-0.79,4.272-1.438,8.687-2.007,13.181c0.018,2.699-0.184,3.838,0,6.304
			c-0.748,3.987,0.343,8.124,0.289,12.321c0.646,1.457,1.063,3.139,2.003,4.299c0.242,2.338,0.837,4.324,1.15,6.59
			c-3.103,0.209-7.301,0.637-10.315,0c0.048-0.911,0.67-2.109,0-2.865c-2.067-0.445-2.107,1.141-3.726,1.146
			c0.438-1.758,1.565-2.826,2.005-4.584c0.749-1.131,1.999-3.076,1.433-4.586c-1.173-0.49-2.651,0.896-3.438,1.721
			c-1.285,0.32-1.651,2.824-2.866,2.29v-4.297c0.61-0.728,0.686-1.987,1.433-2.579c0.037-1.205,1.109-1.375,1.146-2.579
			c0.707-0.631,1.728-0.948,2.008-2.005c0.043-0.713-0.451-0.887-0.575-1.434c-0.092-0.67-1.251-0.277-1.433-0.859
			c-0.874-0.206-1.042,0.293-1.717,0.288c-0.416-0.155-0.701,1.114-0.861,0.284c1.356-10.104-0.613-23.535,3.44-30.944
			c0.229-0.055,0.284-0.287,0.57-0.287c0.231-0.054,0.286-0.288,0.575-0.286c1.266,0.463,2.502,0.031,3.438,0.286
			c0.764,0.194,1.458,0.451,2.008,0.861c3.086-0.128,4.522,1.397,7.448,1.432C42.734,56.779,42.609,58.37,42.359,59.842z
			 M107.402,65.572c-0.818,1.188-1.572,2.438-2.579,3.438c-0.356,0.979-0.615,2.058-1.146,2.863
			c-0.336,4.63-0.828,9.104-2.007,12.896c-1.642,1.317-3.295,2.627-5.157,3.726c-0.302,1.228-0.976,2.081-0.859,3.725
			c-0.063,1.116,0.615,1.486,0.859,2.292c-0.547,3.465-0.589,7.437-2.293,9.742c-1.726,1.617-4.646,2.042-7.447,2.578
			c-1.172-0.742-2.98-0.84-4.871-0.857c-1.092,0.2,0.298-1.492-0.862-1.721c-2.052-0.238-1.815,1.812-3.435,2.006
			c-1.564,0.129-2.354-0.51-4.017-0.285c-0.001-1.82,1.634-1.998,1.435-4.013c-0.102-0.375-0.502-0.451-0.57-0.86
			c-2.877,0.088-3.945,1.979-5.444,3.439c-0.858-0.576-2.702-0.162-4.012-0.287c0.116-1.246,1.017-2.158,0.285-3.438
			c-3.488-0.338-3.704,2.6-6.017,3.438c0.209-1.529,1.766-3.893,0-4.87c-1.572-0.235-1.222,1.454-2.292,1.718
			c-0.733,0.605-0.799,1.877-2.008,2.008c-0.627-0.518-1.174-1.118-2.004-1.434c0.925-1.844,2.179-3.361,3.151-5.156
			c0.726-1.526,2.681-3.709,1.431-5.444c-2.495-0.111-3.532,1.239-4.582,2.577c-0.693,0.451-1.269,1.025-1.719,1.722
			c-0.646,0.5-0.658,1.631-1.718,1.719c-0.725-2.577,1.907-3.653,2.292-6.018c0.885-0.548,0.802-2.062,1.718-2.579
			c0.182-1.186,1.204-1.969,0.574-3.151c-2.611-0.225-3.017,1.761-4.584,2.578c-0.23,0.92-1.043,1.252-1.436,2.007
			c-0.646,0.5-0.658,1.631-1.718,1.719v-5.443c0.923-2.23,2.055-4.25,3.438-6.02c0.874-2.179,2.902-3.207,3.151-6.017
			c-1.014-0.499-2.37,0.781-3.437,1.146c-1.051,0.67-1.749,1.69-3.153,2.008c0.462-1.065,0.237-2.819,0.286-4.301
			c0.932-0.975,1.681-2.139,2.577-3.151c0.354-0.601,0.794-1.115,1.147-1.72c0.806-0.053,1.222-0.498,1.146-1.432
			c-0.293-0.662-1.317-0.594-2.294-0.574c-0.604,0.351-0.83,1.08-1.717,1.146c0.354-2.702,0.959-5.15,1.432-7.736
			c5.709-3.173,10.798-6.967,15.473-11.175c0.282-1.148,1.19-1.674,1.433-2.864c2.908-1.869,5.547-4.003,8.021-6.305
			c2.792-1.981,5.221-4.331,7.451-6.877c0.334-0.239,0.77-0.375,1.433-0.285c-0.207-0.876,0.291-1.044,0.287-1.719
			c2.001-1.536,3.054-4.016,5.155-5.445c-0.123-0.984,0.115-1.604,0.289-2.292c0.51-0.255,0.728-0.8,1.719-0.573
			c0.33-1.36-0.666-2.344,0-3.152c0.465-0.081,0.493,0.271,0.859,0.287c1.154,1.616,1.77,3.768,2.007,6.305
			c0.169,0.976,0.786,1.504,0.858,2.578c-0.724,4.723-3.221,7.666-5.443,10.889c-0.906,1.867-2.061,3.482-3.438,4.871
			c-0.79,1.884-2.696,2.651-3.727,4.298c-1.286,0.527-2.317,1.315-3.438,2.005c-1.184,0.537-2.449,0.991-2.578,2.579
			c-0.252,1.876,1.36,1.886,2.293,2.579c2.205,0.203,3.672-0.336,5.155-0.859c3.818,0.578,8.627,0.161,12.896,0.287
			c2.004,0.289,4.078,0.503,6.303,0.572c0.436,0.427,1.258,0.461,2.006,0.575c0.354,0.41,0.986,0.542,1.721,0.572
			c0.5,0.834,1.356,1.318,2.004,2.005C107.611,60.813,107.913,63.599,107.402,65.572z M34.911,55.831
			c-2.617-0.456-5.024-0.163-6.593,1.146c-0.493,1.893-1.101,3.672-1.146,6.017c0.092,0.672,0.454,1.076,0.286,2.004
			c0.646,0.597,0.822,1.664,1.434,2.293c0.621,0.619,1.498,0.986,2.293,1.434c3.474,0.035,5.37-1.506,6.592-3.727
			c-0.13-0.983,0.111-1.605,0.285-2.291c-0.24-0.714-0.375-1.536-0.285-2.58c-0.661-0.485-0.382-1.913-1.15-2.293
			C36.287,56.939,35.468,56.515,34.911,55.831z M32.903,63.28c-0.795-0.349-0.533-1.759-0.571-2.865
			C33.116,60.735,33.195,62.781,32.903,63.28z"/>
	</g>
</g>
</svg>
