<?xml version="1.0" encoding="utf-8"?>
<!-- Generator: Adobe Illustrator 16.0.0, SVG Export Plug-In . SVG Version: 6.00 Build 0)  -->
<!DOCTYPE svg PUBLIC "-//W3C//DTD SVG 1.1//EN" "http://www.w3.org/Graphics/SVG/1.1/DTD/svg11.dtd">
<svg version="1.1" id="Layer_1" xmlns="http://www.w3.org/2000/svg"  x="0px" y="0px"
	 width="120px" height="120px" viewBox="4 4 120 120" style="enable-background:new 4 4 120 120;" xml:space="preserve">
<g id="chart1">
	<g>
		<path d="M22.937,68.48c1.566,0.957,3.045,1.444,4.692,1.174c0.399-0.064,0.589-0.443,0.88-0.586
			c0.397-0.193,0.83-0.051,1.175-0.293c0.281-0.201,0.576-0.824,0.88-1.174c1.149-1.32,1.913-2.535,2.051-4.399
			c3.509,0.551,9.116,0.724,10.56-1.759c0.731,1.321,2.082,2.023,3.812,2.347c3.249,0.212,4.923-1.144,6.162-2.935
			c0.661-2.916-0.339-5.386-1.469-7.332c1.024-1.324,2.349-2.344,3.228-3.812c1.299-1.049,1.855-2.836,3.227-3.813
			c1.949,1.284,4.688,0.06,6.451-0.588c0.717,1.239,1.559,2.354,2.348,3.52c0.612,0.364,1.104,0.853,1.465,1.468
			c0.185,0.794,1.229,0.729,1.177,1.759c-0.114,3.437,0.632,6.015,2.052,7.919c2.146,1.167,4.753,0.774,6.746-0.294
			c0.45-0.818,0.889-1.654,1.466-2.344c0.088-1.852-0.046-3.475-0.293-4.988c3.767-4.053,7.269-8.372,12.024-11.438
			c0.402,0.967,1.553,1.186,2.642,1.467c4.229,0.222,6.435-1.581,7.916-4.106c0.472-4.151-0.315-8.105-3.226-9.68
			c-2.26,0.077-3.438-0.426-5.574,0c-2.146,1.275-3.707,3.135-4.982,5.28v2.932c-2.019,1.795-4.031,3.596-6.16,5.28
			c-1.83,2.179-3.604,4.41-5.574,6.453c-0.68-0.721-2.313-0.935-3.225-0.587c-0.255-0.725-1.087-0.868-1.465-1.468
			c-0.304-0.771-1.165-0.986-1.468-1.758c-1.188-0.868-2.17-1.939-2.933-3.227c0.779-2.208,0.246-5.485-1.176-6.452
			c-1.027-0.55-2.484-0.123-3.811-0.293c-0.847-0.109-1.559-0.657-2.346-0.586c-1.441,0.418-2.561,1.157-3.522,2.052
			c-0.411,1.739-0.947,3.355-0.878,5.572c-1.221,1.341-2.158,2.881-3.229,4.4c-1.039,1.479-2.025,3.048-3.227,4.399
			c-0.839-0.918-1.934-1.586-3.812-1.466c-3.657,0.674-5.361,4.431-4.397,8.8c-2.89,0.239-6.152,0.104-8.801,0.584
			c-0.599-1.159-1.181-2.334-2.638-2.638c-3.728-0.207-5.239,1.804-7.624,2.933c-0.673,1.612-1.43,3.443-1.179,5.573
			C21.085,66.075,22.208,67.484,22.937,68.48z M94.209,33.581c0.939-0.431,1.628-1.109,3.227-0.881
			c0.473,1.213,0.928,3.257,0.293,4.693c-1,0.272-1.723,0.822-3.229,0.586C94.176,36.74,94.161,35.188,94.209,33.581z
			 M74.559,53.524c0.676,0.298,0.605,1.348,0.586,2.346C74.467,55.57,74.535,54.522,74.559,53.524z M63.118,39.447
			c-0.224,0.948-0.812,1.534-1.761,1.759C61.201,39.876,61.79,39.29,63.118,39.447z M46.107,54.404
			c0.709,0.854,1.526,1.601,1.76,2.934c0.353-0.031,0.18,0.426,0,0c-0.396-0.094-0.561-0.418-1.176-0.295
			C46.378,56.284,45.981,55.604,46.107,54.404z M26.752,61.149c1.222,0.088,0.516,2.694,0,2.933
			C25.682,63.84,26.132,61.49,26.752,61.149z M114.445,53.818c-5.26-2.02-9.51,1.483-8.799,7.331
			c-4.643,4.943-10.25,8.916-15.547,13.201c-0.597-0.676-2.434-0.107-3.517-0.293c-0.06,0.435-0.712,0.267-1.179,0.293
			c-0.485,0.486-1.411,0.541-1.758,1.172c-0.847,0.131-0.914,1.039-2.051,0.879c-4.888-0.785-9.291-2.051-12.908-4.104
			c-0.379-1.866-1-3.495-2.053-4.692c-0.729-0.148-1.203-0.556-1.758-0.881h-4.106c-0.813,0.461-1.63,0.913-2.64,1.174
			c-0.364,0.613-0.854,1.104-1.468,1.468c-0.376,0.696-0.753,1.397-1.173,2.053c-0.066,1.532,0.004,2.929,0.295,4.106
			c-4.16,2.781-7.896,5.987-11.44,9.386c-0.628,0.643-0.806,1.733-1.466,2.345c-1.867-1.045-5.415-0.633-7.038,0.293
			c-2.029-1.293-4.146-2.502-6.159-3.812c-1.779-1.547-3.793-2.855-5.574-4.398c0.221-2.468-0.341-4.154-0.881-5.865
			c-0.488-0.078-0.958-0.844-1.465-1.174c-0.035-0.021-0.655-0.312-0.587-0.293c-3.288-0.939-7.754,0.907-9.093,2.641
			c-0.025,1.049-0.456,1.693-0.584,2.639c0.055,1.607,0.542,2.781,0.879,4.105c0.724,1.035,0.765,2.756,1.76,3.521
			c0.227,0.064,0.576,0.006,0.587,0.292c3.237,0.206,5.013-1.05,7.334-1.761c1.192,0.566,1.495,2.022,2.932,2.347
			c0.729,1.03,1.674,1.845,2.931,2.347c1.804,1.717,4.629,2.413,6.454,4.106c-0.187,2.434,0.309,4.188,1.172,5.571
			c2.441,2.228,9.47,2.103,10.269-1.465c0.014-0.181,0.042-0.348,0.291-0.293c-0.052-1.515,0.181-3.311-0.291-4.399
			c0.719-0.646,1.284-1.451,2.346-1.761c0.549-0.772-0.77-0.987,0.293-1.761c0.957-0.505,1.383-1.548,2.348-2.052
			c1.016-0.548,1.358-1.771,2.638-2.055c0.45-1.112,1.893-1.231,2.347-2.344c1.315-0.248,1.615-1.515,2.932-1.763
			c1.249,0.022,2.054,0.49,3.519,0.294c0.652-0.229,1.145-0.615,2.054-0.587c0.318-0.658,1.439-0.517,1.759-1.174
			c0.798-0.183,0.731-1.226,1.763-1.173c3.819,2.338,9,3.318,13.785,4.693c0.791,0.479,1.395,1.146,1.758,2.051
			c0.347,0.928,1.522,1.021,2.052,1.761c5.684,0.599,8.354-1.816,7.628-7.623c0.99-1.16,2.604-1.697,3.52-2.937
			c1.666-0.483,2.268-2.033,3.812-2.638c1.02-1.134,2.23-2.071,3.52-2.935c0.353-0.725,1.006-1.146,1.764-1.467
			c0.486-0.588,0.785-1.362,1.759-1.467c0.817,0.648,1.592,1.344,3.228,1.174c1.934-0.215,3.18-1.119,4.398-2.054
			C117.24,63.078,116.887,56.062,114.445,53.818z M40.24,93.998c-0.656-0.126-0.116-1.445-0.293-2.053h0.88
			C41.019,93.016,40.628,93.507,40.24,93.998z M87.46,79.334c-0.472,0.082-0.504-0.277-0.876-0.294
			c-0.093-0.354,0.846-1.011,0.876-0.294V79.334z M111.217,59.097c0.4,0.09,0.244,0.735,0.293,1.174
			C110.833,60.187,110.84,59.486,111.217,59.097z"/>
	</g>
</g>
</svg>
