<?xml version="1.0" encoding="utf-8"?>
<!-- Generator: Adobe Illustrator 16.0.0, SVG Export Plug-In . SVG Version: 6.00 Build 0)  -->
<!DOCTYPE svg PUBLIC "-//W3C//DTD SVG 1.1//EN" "http://www.w3.org/Graphics/SVG/1.1/DTD/svg11.dtd">
<svg version="1.1" id="Layer_1" xmlns="http://www.w3.org/2000/svg"  x="0px" y="0px"
	 width="120px" height="120px" viewBox="4 4 120 120" style="enable-background:new 4 4 120 120;" xml:space="preserve">
<g id="link">
	<g>
		<path d="M115.963,35.805c-0.408-1.913-0.891-3.75-1.213-5.754c-1.382-2.449-2.807-4.863-3.936-7.567
			c-2.324-2.321-4.33-4.955-7.267-6.662c-2.565-0.661-5.772-0.684-9.084-0.605c-0.387,0.016-0.418,0.388-0.905,0.301
			c-6.33,1.041-9.957,4.782-15.141,6.966c-2.613,2.532-5.688,4.608-8.175,7.267c-1.438,1.184-2.752,2.496-3.937,3.935
			c-1.182,1.443-2.831,2.419-2.727,5.147c0.339,0.869,0.637,1.784,1.21,2.422c0.604,0.003,0.386,0.826,1.211,0.605
			c-0.216,0.822,1.431-0.216,1.212,0.605c2.484,0.061,3.207-1.639,4.846-2.421c1.278-1.356,2.297-2.934,3.938-3.635
			c2.375-2.565,5.377-4.508,8.172-6.659c1.836-1.193,4.146-1.91,5.754-3.332c2.29-0.738,3.871-2.185,6.961-2.12
			c1.944,0.986,2.721,3.136,3.635,5.147c1.135,1.793,2.455,3.401,3.029,5.752v8.176c-0.736,2.695-1.384,5.481-1.818,8.477
			c-1.924,2.215-3.817,4.457-6.356,6.055c-2.035,2.206-5.156,3.325-7.567,5.149c-2.412,1.827-4.98,3.496-7.268,5.448
			c-2.544,1.693-4.505,3.975-7.569,5.148h-6.057c-1.836-0.687-4.015-1.029-5.75-1.817c-2.751,0.292-4.441-1.276-6.964-0.304
			c-0.913,0.703-1.722,1.511-2.422,2.423c-0.658,1.683-0.048,3.333,0,4.239c0.014,0.301,0.266,0.194,0.302,0.304
			c0.216,0.644,0.112,1.41,0.301,1.815c0.613,1.299,2.114,2.534,3.026,3.33c0.497,0.43,0.817,0.971,1.213,1.211
			c1.037,0.633,2.57,0.471,3.33,1.514c4.715,0.357,9.608,0.463,13.323-0.907c2.304-1.028,4.319-2.34,6.357-3.634
			c2.137-1.295,3.941-2.922,6.055-4.238c1.279-0.639,2.551-1.285,3.937-1.816c1.134-0.785,2.25-1.586,3.637-2.119
			c2.324-1.608,4.628-3.241,6.962-4.846c3.124-3.437,6.081-7.037,9.081-10.596c0.404-1.214,1.19-2.042,1.818-3.028
			c0.569-1.146,0.959-2.471,1.819-3.331c0.056-1.556,1.09-2.134,1.207-3.632c0.795-0.926,0.724-2.709,1.517-3.633
			C115.83,41.729,116.1,38.97,115.963,35.805z M55.405,96.359c-0.256-0.715-1.327,0.252-1.815,0.303
			c-0.809,0.199-1.152,0.868-1.815,1.212c-1.245,0.672-2.234,1.603-3.633,2.119c-1.742,2.196-4.28,3.595-6.967,4.844
			c-2.182,0.644-4.551,1.103-7.568,0.909c-5.155-3.625-8.38-9.182-7.874-18.471c0.699-0.512,0.403-2.021,1.215-2.422
			c0.069-1.238,1.028-1.595,1.208-2.724c1.158-1.469,2.352-2.899,3.637-4.239c2.41-2.734,5.23-5.062,7.87-7.57
			c1.263-1.258,2.784-2.26,3.937-3.631c1.19-0.123,1.294-1.332,2.421-1.516c0.385-0.928,1.732-0.891,2.122-1.818
			c3.425-1.721,5.469-4.823,10.898-4.54c3.542,0.593,3.445,4.831,7.568,4.844c3.647,0.116,5.129-1.938,5.449-5.148
			c-0.308-2.721-1.99-4.064-3.633-5.45c-1.445-1.682-3.412-2.845-5.754-3.634c-2.038-0.685-4.815-0.633-7.569-0.605
			c-1.04,0.555-2.095,0.576-3.026,0.909c-2.136,0.762-3.62,2.077-5.755,2.725c-2.28,1.959-4.972,3.505-7.264,5.449
			c-1.338,0.785-2.357,1.884-3.636,2.726c-0.36,0.748-1.036,1.184-1.815,1.514c-0.502,0.608-0.814,1.408-1.815,1.515
			c-0.592,1.526-2.334,1.905-3.029,3.331c-1.235,0.982-2.348,2.094-3.332,3.329c-1.211,0.909-1.979,2.258-3.026,3.331
			c-1.165,1.057-1.839,2.603-3.026,3.634c-1.102,3.039-2.777,5.501-3.331,9.082c-0.587,12.497,4.32,19.497,10.293,25.435
			c2.069,0.855,3.695,2.159,6.056,2.725h5.45c2.878-0.553,5.433-1.43,8.175-2.118c1.123-1.198,2.962-1.681,4.237-2.726
			c1.356-1.066,2.611-2.233,3.939-3.33c0.785-1.537,2.188-2.455,2.421-4.543c0.362-0.849,0.331-2.088,0.303-3.33
			C56.125,98.064,56.779,96.199,55.405,96.359z"/>
	</g>
</g>
</svg>
