<?xml version="1.0" encoding="utf-8"?>
<!-- Generator: Adobe Illustrator 16.0.0, SVG Export Plug-In . SVG Version: 6.00 Build 0)  -->
<!DOCTYPE svg PUBLIC "-//W3C//DTD SVG 1.1//EN" "http://www.w3.org/Graphics/SVG/1.1/DTD/svg11.dtd">
<svg version="1.1" id="Layer_1" xmlns="http://www.w3.org/2000/svg"  x="0px" y="0px"
	 width="120px" height="120px" viewBox="0 0 120 120" enable-background="new 0 0 120 120" xml:space="preserve">
<g id="file2">
	<g>
		<path d="M98.689,55.029c0.146-1.475-0.809-1.854-0.57-3.425c-0.242-9.468,0.336-18.112,1.143-26.531
			c-0.645-0.119-0.01-1.514-0.572-1.712c-0.414-0.443-0.381-1.332-0.854-1.711c-0.092-1.621-1.07-2.353-1.426-3.709
			c-1.105-0.057-2.104-0.01-2.854,0.285c-0.736-0.408-1.363-0.921-2.568-0.856c-15.791,0.003-31.089-0.483-47.074-0.285
			c-0.412,0.159-0.697,0.446-0.855,0.856c-0.665,0.856-1.268,1.774-1.997,2.568c-0.537,0.503,0.336,0.832-0.287,1.426
			c-0.504,0.26-0.883,0.64-1.143,1.141c-1.535,1.506-3.027,3.059-3.992,5.137c-1.014,0.506-1.184,1.862-1.998,2.566
			c-0.807,0.717-0.904,2.139-1.711,2.854c-0.07,1.449-1.234,1.811-1.713,2.853c-0.654,0.963-1.867,1.364-1.994,2.854v6.56
			c0.193,1.705,0.758,3.043,0.852,4.85c-0.736,12.701-0.568,26.886-0.568,39.941c0,4.535-0.73,8.895,0,13.123v1.996
			c-0.172,0.51,0.836,1.187,0,1.429c-0.448,1.088-0.698,1.815,0,2.854c1.365,1.168,3.732,0.197,5.705,0.281
			c0.453-0.592,1.996-0.092,2.568-0.567c9.639-0.798,18.197,0.293,27.102-0.572c7.939-0.821,16.467-0.51,24.824-0.284
			c2.574,0.356,6.123,0.998,8.557,0.569c0.721-0.517,1.252-1.217,1.426-2.279c0.191-1.143,0.859-1.807,1.143-2.854
			C100.229,87.158,99.289,71.264,98.689,55.029z M43.915,26.5c-0.609,0.136-0.543-0.407-0.57-0.855
			C43.696,25.77,43.93,26.01,43.915,26.5z M41.631,27.642h0.855c0.379,1.431,1.373,2.241,2.283,3.138
			c-0.223,1.176,0.438,1.463,0.283,2.568c-1.334-0.09-1.15-1.698-2.281-1.999c-0.41-1.015-1.154-1.694-1.996-2.28
			C40.942,28.475,41.374,28.145,41.631,27.642z M40.776,33.348c0.354,0.882,0.941,1.531,1.711,1.997
			c-0.258,0.773-1.051-0.241-1.141-0.573c-0.418-0.245-0.902-0.424-0.855-1.139c-0.768-0.562-1.365-1.298-1.711-2.284
			C39.883,31.574,39.866,32.93,40.776,33.348z M36.497,34.203c0.686,0.551,0.947,1.527,1.711,1.996
			c-0.762,0.57-2.514,0.148-3.426,0.573C35.188,35.748,36.02,35.152,36.497,34.203z M92.697,104.957
			c-1.457,0.128-1.562-1.102-2.85-1.143c-8.33-0.092-16.986-0.695-24.822,0.285c-0.969-0.076-2.312,0.221-2.853-0.285
			c-1.141-0.282-0.858,0.854-1.998,0.569c-2.492-0.209-4.1,0.466-6.562,0.286c0.08-1.021,0.998-2.219,0.287-3.14
			c-1.168-0.513-2.213,0.571-2.568,1.713c-0.365,0.397-1.397,0.124-1.43,0.854c0.271,1.028-1.121,0.397-1.711,0.571
			c-1.029,0.271-0.396-1.125-0.57-1.712c-0.283-0.379-0.268-1.062-0.854-1.145c-1.477-0.621-2.213,1.719-2.854,2.854
			c-1.41,0.254-1.832-0.174-3.139,0.285c0.488-2.397,2.471-4.716,1.711-7.418c-2.021,0.161-2.559,1.817-3.707,2.853
			c-0.773,1.416-1.555,2.822-1.998,4.565c-0.896-0.149-1.59-0.5-2.283-0.856c-0.367-2.31,1.943-4.307,1.715-7.416
			c-0.379-0.369-1.053-0.369-1.432,0c-0.584-0.25-0.568,1.449-0.852,0.569c0.143-3.095,0.227-4.938,0-7.987
			c0.459-4.393,1.34-8.359,1.139-13.41c-0.084-1.008-0.77,1.004-0.855,0c-0.145-11.082,0.508-21.368,0.285-32.522
			c0.176-1.314-0.641-1.643-0.568-2.854h4.277c1.934-0.351,3.836-0.729,6.277-0.57c1.904-0.567,4.268-0.679,5.707-1.711
			c0.258-0.5,0.098-1.422,0.568-1.712c-0.445-2.502-0.652-5.243-1.141-7.703c-0.416-2.532-1.229-4.669-1.428-7.417
			c2.912-0.172,6.158-1.073,9.133-0.286c10.757-0.204,19.913,1.198,30.524,1.141c1.893,0.156,4.157,0.968,5.991,0.285
			c0.006,1.242,0.095,2.567-0.282,3.425c0.543,1.072,0.024,3.205,0.569,4.278c0.455,22.748,0.155,46.251,0.854,68.757
			C94.162,100.898,94.578,104.078,92.697,104.957z M80.719,51.604c-5.68-0.597-12.41-0.142-18.544-0.284
			c-0.366,0.017-0.396,0.365-0.856,0.284c-2.879-0.024-5.93-0.224-7.131,1.428c-0.029,2.122,1.116,3.067,2.854,3.423H63.6
			c4.166,0.588,9.359,0.153,13.98,0.286c2.941,0.487,7.535,0.876,7.131-2.853C84.42,52.088,82.977,51.438,80.719,51.604z
			 M47.338,58.74c2.015-0.268,3.246-1.318,2.854-3.996c-0.373,0.036-0.148-0.364-0.289-0.571c-1.027-1.541-3.738-1.287-4.561,0.287
			c-0.012,1.722,0.666,2.753,1.139,3.993C46.819,58.497,47.293,58.404,47.338,58.74z M45.913,69.01
			c2.105,0.016,3.303-0.882,3.707-2.566c0.461-3.885-4.512-4.188-5.135-1.143c-0.164,1.59,0.129,2.723,0.857,3.422
			C45.562,68.787,45.903,68.73,45.913,69.01z M80.719,63.589H69.02c-0.898,0.138-1.006-0.515-1.996-0.287h-9.697
			c-1.143,0.479-2.291,0.948-1.998,2.854c0.33,0.048,0.309,0.451,0.283,0.854c0.75,0.717,1.693,0.77,2.566,0.857
			c1.115,0.109,1.799-0.362,2.285-0.287c0.17,0.025,0.149,0.293,0.567,0.287c0.275-0.006,0.357-0.301,0.574-0.287
			c0.095,0.005,0.215,0.279,0.571,0.287c0.277,0.003,0.349-0.301,0.568-0.287c0.104,0.006,0.209,0.285,0.569,0.287
			c0.278,0.002,0.353-0.301,0.571-0.287c0.099,0.005,0.218,0.279,0.572,0.287c0.417,0.006,0.72-0.297,1.142,0
			c0.471-0.391,1.666,0.23,2.852,0h10.557c2.137,0.425,5.541,1.32,5.705-1.428c0.129-1.271-0.771-1.512-1.141-2.283
			C82.75,63.838,81.344,64.102,80.719,63.589z M80.145,75.572c-6.727-0.526-15.441,0.203-21.107,0.283
			c-0.4,0.071-0.324,0.627-0.572,0.854c-0.66-0.09-1.096,0.047-1.424,0.287c-0.389,0.658-1.15,0.943-0.857,2.279
			c0.332,2.58,4.01,1.559,5.992,1.145h18.828c1.805,0.859,3.727-0.396,3.707-2.279C84.395,75.874,82.203,75.73,80.145,75.572z
			 M46.768,76.427c-0.137,0.063-0.182,0.458-0.572,0.284c-0.529,1.079-0.742,2.364-0.283,3.711c0.846,0.576,1.668,1.182,3.139,1.143
			c1.033-0.584,1.744-1.49,1.424-3.424C49.686,76.839,47.93,75.874,46.768,76.427z M45.342,89.549
			c0.701,0.727,1.832,1.021,3.422,0.856c0.115-0.358,0.367-0.583,0.855-0.569c0.404-0.954,0.404-2.752,0-3.71
			C47.606,84.248,44.825,86.366,45.342,89.549z M82.143,86.698c-0.121-0.64-1.406-0.118-1.998-0.285H77.58
			c-0.365,0.013-0.395,0.362-0.855,0.285c-2.951-0.007-5.305,0.591-7.984,0.854h-7.99c-2.621,0-5.732-0.636-5.992,1.997
			c0.547,1.926,3.279,1.665,5.705,1.713h7.703c3.732-0.451,7.385-0.982,11.412-1.141c1.996-0.102,4.85,1.178,5.133-1.141
			C84.869,87.205,83.496,86.963,82.143,86.698z"/>
	</g>
</g>
</svg>
