<?xml version="1.0" encoding="utf-8"?>
<!-- Generator: Adobe Illustrator 16.0.0, SVG Export Plug-In . SVG Version: 6.00 Build 0)  -->
<!DOCTYPE svg PUBLIC "-//W3C//DTD SVG 1.1//EN" "http://www.w3.org/Graphics/SVG/1.1/DTD/svg11.dtd">
<svg version="1.1" id="Layer_1" xmlns="http://www.w3.org/2000/svg"  x="0px" y="0px"
	 width="120px" height="120px" viewBox="4 4 120 120" style="enable-background:new 4 4 120 120;" xml:space="preserve">
<g id="location">
	<g>
		<path d="M101.5,30.2c-0.5-0.5-0.4-1.8-0.9-2.3c-0.199-0.9-0.5-1.6-0.899-2.3c-0.5-1.7-1.8-2.7-2.3-4.4c-1.301-1-2.5-2.2-3.5-3.5
			c-1.5-0.7-2.7-1.6-4.101-2.3c-1.7-0.5-3.3-1.2-5.3-1.5h-8.2c-0.399,0-0.399,0.4-0.899,0.3c-3.2,0.1-5.7,0.9-8.5,1.5
			c-1.4,0.2-2.5,0.8-4.101,0.9c-0.9,0.8-2.9,0.6-3.8,1.5c-5.5,1.4-10,3.7-14.3,6.1c-4.6,2.2-7.9,5.6-11.1,9.1c-1.5,2-3,3.8-4.1,6.1
			c-0.8,0.9-1.1,2.2-1.8,3.2c-0.6,1.1-0.7,2.8-1.5,3.8c-1.5,8-1,18,2.3,23.7c1.2,3.5,3.2,6.2,5,9.101c0.9,1.399,2.1,2.6,2.9,4.1
			c1.2,1.101,2.3,2.3,3.2,3.8c1,0.101,0.8,1.301,1.8,1.5c0.5,0.7,1,1.301,1.8,1.801c1,1.3,2.2,2.5,3.5,3.5
			c2.3,2.3,4.8,4.5,7.3,6.699c1,1.4,2.5,2.101,3.5,3.5c1.4,0.9,2.2,2.4,3.5,3.5c0.4,0.801,1.5,0.801,1.8,1.801
			c0.8,0.399,0.8,1.5,1.8,1.8c1.2,1.1,1.801,2.899,4.101,2.899c1.8,0.2,2.8-0.3,3.8-0.899c0-1,0.8-1.101,0.6-2.3
			c-0.1-1-0.699-1.4-0.6-2.601c0.8-0.3,1,1.3,1.5,0.3c0.7-0.199,0.8-1,1.5-1.199c1.2-2.601,2.1-5.5,3.5-7.9c0.4-1.5,1.2-2.5,1.5-4.1
			c0.8-1.101,1-2.9,2-3.801c1.1-2.699,2.9-4.699,4.1-7.3c1.5-2.399,2.801-5,4.101-7.6c2.6-5,5-10.2,7-15.8
			c2.2-5.5,4.1-11.3,4.7-18.4C102.6,37.7,102,34,101.5,30.2z M94.2,43.1c-2,12.2-7.4,21-12,30.7c-0.9,0.9-1.5,2.2-2,3.5
			c-0.9,0.9-1.2,2.3-2,3.2c-1.101,2.4-2.8,4.2-3.8,6.7c-0.9,0.899-1.5,2-2,3.2c-0.7,1-1.601,1.899-2,3.199c-0.801,0.9-1.5,2-2,3.2
			c-1,0.8-0.801,2.8-2.301,2.9c-0.5-1.9-0.199-4.7-0.3-7c0-2.4,0.4-5.3-1.8-5.601C62.1,87,61.8,88.4,61.4,89.7
			c-0.4,0.399-0.5,1.3-0.6,2c-0.4,0.5,0.1,1.899-0.9,1.8c-0.6-2.1-0.2-5.3-0.3-7.9c-0.4-2-0.2-4.5-0.9-6.1c-0.2-2-0.7-3.7-2.6-4.1
			c-1.4-0.101-1.7,0.8-2.3,1.5c-0.3,0.899-0.4,1.899-0.9,2.6c0,2.3-0.7,4-0.6,6.4c-1.2-0.101-1-1.5-2-1.801
			c-0.5-0.8,0-2.5-0.6-3.199V77.1C49.4,75.2,49.4,72.9,49.1,71c-0.2-2-0.3-4-1.8-4.7c-2.1,0.4-2.3,2.601-2.3,5
			c-0.4,2-0.6,4.101-0.6,6.4c-0.8,0-0.4-1.101-1.2-1.2c-0.2-0.5,0.4-1.7-0.3-1.8c-0.4-5.3,0.5-12.5,0-18.4c-0.2-1.7,0-3.7-2-4.1
			c-5.8,0-4,7.6-4.7,12.899c-1.3-1.899-1.8-4.6-2.3-7.3c-0.4-2.8-0.7-5.7-0.6-9.1c0.4-2.1,0.9-4.2,2-5.6c0.6-1.9,1.6-3.5,2.9-4.7
			c2-3.1,5-5.2,7.6-7.6c9.2-4.3,18.8-8.3,31.3-9.4c1.9-0.2,3.801-0.5,5.801-0.3c1.1,0.2,2.199,0.5,3.5,0.6c0.8,0.6,1.6,1.1,2.6,1.5
			c0.9,1.1,2,2.1,2.9,3.2c0.199,0.9,0.6,1.7,1.199,2.3c0.101,1.1,0.4,1.9,0.9,2.6C94.3,35.2,94.2,39.2,94.2,43.1z M76.1,42.5
			c-2.6-4.7-7-7.6-13.399-8.5h-3.8c-0.2,0-0.3,0-0.3,0.3H58c-0.6,0.3-1.4,0.4-2,0.6c-0.7,0.8-2.4,1.9-2.9,2.6
			c-0.2,0.2-0.1,0.6-0.3,0.9c-0.3,0.4-1,0.8-1.2,1.2c-0.2,0.3-0.2,0.9-0.3,1.2C51.2,41,51,41.2,51,41.4c0,0.3-0.3,0.2-0.3,0.3
			c-0.3,1-0.7,3.4-0.9,4.1c-0.5,1.9-0.1,3.9,0,5c0.3,2,0.1,3.3,0.6,4.7c1,1.6,1.9,3.4,3.5,4.4c0.5,0,1,0.2,1.2,0.6
			c0.9,0.6,3.2-0.1,4.1,0.6c1.2,0.4,2.3,0.8,3.8,0.9h3.8c0.7-0.4,1.3-0.8,2.3-0.9c1.601-1.2,3.2-2.4,4.7-3.8
			c0.7-1.6,1.5-3.1,2.3-4.7C76.3,50.1,76.9,48,76.7,45C76.2,44.3,76.1,43.4,76.1,42.5z M65.3,54.5c-4.5,0.7-5.8-1.8-7.6-3.8
			c-0.2-3.7,0.3-6.7,2-8.5c0.5,0.1,0.8-0.5,0.9,0c4.1-0.2,6.5,1.3,8.2,3.5C69.2,50.2,67.7,52.8,65.3,54.5z"/>
	</g>
</g>
</svg>
