<?xml version="1.0" encoding="utf-8"?>
<!-- Generator: Adobe Illustrator 16.0.0, SVG Export Plug-In . SVG Version: 6.00 Build 0)  -->
<!DOCTYPE svg PUBLIC "-//W3C//DTD SVG 1.1//EN" "http://www.w3.org/Graphics/SVG/1.1/DTD/svg11.dtd">
<svg version="1.1" id="Layer_1" xmlns="http://www.w3.org/2000/svg"  x="0px" y="0px"
	 width="120px" height="120px" viewBox="4 4 120 120" style="enable-background:new 4 4 120 120;" xml:space="preserve">
<g id="lock">
	<g>
		<path d="M101.443,55.602c-0.654-1.69-2.168-2.521-3.812-3.224c-0.426-0.745-1.777-0.568-2.05-1.467
			c-0.666-0.507-2.459,0.115-2.638-0.878c0.277-7.804-0.254-14.796-1.467-21.106c-0.736-1.121-1.256-2.458-1.761-3.811
			c-0.87-1.083-1.597-2.312-2.346-3.518c-3.229-3.412-7.565-5.721-13.19-6.741h-8.793c-1.681,0.372-3.374,0.73-5.278,0.879
			c-1.938,1.09-4.152,1.906-6.157,2.931c-0.614,0.853-1.765,1.165-2.637,1.76c-1.488,0.076-2.039,1.089-3.225,1.464
			c-2.357,2.432-4.162,5.413-5.864,8.502c-1.272,4.099-1.806,8.941-2.637,13.486v7.327c-2.409,0.328-4.79,0.681-7.621,0.587
			c-0.168,0.514,0.352,1.722-0.295,1.759c-0.436,0.344-0.825,0.735-1.169,1.172c-0.833,7.222,0.4,14.81,0,22.572
			c0.125,1.531,0.749,2.57,0.876,4.103c-0.018,4.906,0.467,9.307,1.172,13.485c1.019,2.793,2.675,4.947,3.52,7.914
			c1.158,0.699,1.818,1.894,2.637,2.931c1.035,0.821,1.955,1.762,2.933,2.641c0.504-0.016,0.751,0.225,0.879,0.585
			c2.203,0.925,4.681,1.573,6.742,2.639c1.82,1.403,4.558,1.894,7.034,2.638c2.851,0.269,5.841,0.773,8.795,0.586
			c2.984-0.188,5.729-1.041,8.208-1.465h4.986c7.153-3.787,13.223-8.662,18.465-14.361c0.963-3.241,2.578-5.827,3.228-9.383
			c0.778-3.42,1.125-7.278,1.756-10.846V67.033C101.734,62.963,101.977,59.209,101.443,55.602z M45.744,41.824
			c1.659-1.959,3.857-3.376,4.692-6.155c-0.261-0.617-0.456-1.303-0.877-1.759c-0.514-0.271-1.573,0.01-1.468-0.88
			c1.125-1.611,2.196-3.279,3.812-4.396c-0.068-1.144,0.628-1.521,0.878-2.346c1.231-1.408,3.338-1.94,4.691-3.225
			c1.822-0.716,3.259-1.821,5.276-2.344h3.521c2.623-0.987,6.278-0.948,9.963-0.88c0.047,0.344,0.533,0.248,0.883,0.293
			c1.812,1.115,3.262,2.598,4.98,3.811c1.18,1.556,2.303,3.169,3.227,4.983c0.188,2.058,0.531,3.96,1.168,5.57
			c0.186,3.531,0.42,7.009,0.295,10.847c-0.004,1.07-0.834,1.315-1.172,2.051v1.759c-0.16,0.426,0.342,1.515-0.291,1.466
			c-1.418,0.438-1.225-0.73-1.176-1.758c-1.084-0.131-2.017-0.025-2.638-1.172c0.452-1.753,1.036-3.654,0.88-6.45
			c-0.182-3.211-1.002-6.68-1.466-9.381c-0.307-0.963-1.323-1.215-1.76-2.051c-0.414-0.76-0.992-1.354-1.468-2.053
			c-1.87-1.156-3.358-2.696-5.273-3.81c-2.572,0.228-4.261-0.431-6.742-0.292c-8.597,2.639-13.247,9.227-15.537,18.173
			c-0.229,1.207,0.449,1.504,0.292,2.636c0.247,1.227-0.568,1.386-0.583,2.346c-0.415,1.405,0.845,2.655,0,3.519
			c-1.216,0.042-0.308-2.041-0.588-2.932c-0.568,0.8-0.964,1.772-2.346,1.759c-0.511-0.483-0.867-0.547-1.174-1.173
			C45.018,46.487,45.771,43.799,45.744,41.824z M76.816,43.29v7.329h-19.93c-0.321-2.121-0.34-4.546-0.295-7.035
			c1.642-6.766,4.883-11.927,11.437-13.778c1.849,0.007,3.828-0.116,5.273,0.293C75.995,32.976,75.576,38.963,76.816,43.29z
			 M92.943,80.811c0.416,1.148,0.203,2.926,0.879,3.812c-0.363,1.592-0.422,3.484-0.588,5.275c-1.799,2.893-3.877,5.506-5.863,8.207
			c-1.798,1.428-3.648,2.801-5.569,4.104c-2.323,0.803-4.194,2.061-6.155,3.227c-2.938,0.258-7.096,0.621-9.967,0
			c-1.004-0.728,0.113-2-1.173-2.64c-1.5-1.082-2.288,1.779-3.517,0.881c-1.437-0.135,0.363-1.143,0.292-1.76
			c0.492-0.485,0.235-1.722,0.295-2.64c-0.423-1.238-1.338-1.983-3.225-1.758c-1.835,0.021-2.047,1.668-3.812,1.758
			c-1.567,0.681-1.54,2.955-3.224,3.519c-0.489-1.187,1.338-2.291,0.881-4.396c-0.096-0.688-0.908-0.657-1.175-1.174
			c-2,0.346-3.061,1.629-3.808,3.226c-1.014-0.216-0.196-0.884,0-1.466c0.405-0.473,0.247-1.512,0.877-1.76
			c0.316-1.443,1.263-2.252,1.468-3.812c0.923-1.067,1.045-2.474,1.463-3.812c0.062-0.19,0.533-0.726,0.588-0.879
			c0.06-0.174-0.043-0.408,0-0.586c0.087-0.352,0.513-1.606,0.293-2.932c-0.267-0.518-0.655-0.908-1.174-1.172
			c-3.324-0.295-3.604,2.451-5.276,3.81c-1.115,1.815-2.329,3.532-3.226,5.569c-0.69-0.246,0.244-1.285,0.295-1.759
			c-0.03-0.908,0.359-1.399,0.585-2.052c0.292-1.371,0.884-2.439,1.174-3.812c0.834-2.485,2.442-4.201,2.346-7.621
			c-0.294-0.881-0.883-1.467-1.758-1.759c-1.672,0.087-2.773,0.744-3.519,1.759c-0.746-0.391,0.432-1.303,0.293-2.052
			c0.226-0.652,0.615-1.145,0.584-2.053c0.617-1.145,1.082-2.438,1.468-3.812c-0.032-1.532-0.792-2.333-1.76-2.933
			c0.553-1.303,2.264-1.448,2.346-3.223c-0.168-1.202-1.106-1.63-2.054-2.052c-1.994-0.336-2.106,1.214-3.517,1.465
			c0.453-1.504,0.363-3.546,0.588-5.275c1.341-0.516,2.249-1.466,3.518-2.054c16.142,1.351,33.932,1.049,51.298,1.173
			C93.326,64.779,94.48,74.145,92.943,80.811z M70.369,68.792c-2.098-0.412-3.635-0.606-5.862-0.292
			c-1.668,0.969-3.621,1.654-4.983,2.932c-1.363,1.928-2.385,5.533-1.464,8.793c0.917,1.525,3.079,1.808,4.101,3.226
			c-0.642,3.08-0.876,7.772-0.291,11.139c0.636,0.634,1.53,1.011,2.345,1.468c1.09,0.182,1.344,1.198,2.932,0.879
			c4.133-1.338,2.679-8.267,2.931-13.484c1.639-1.391,2.848-3.209,3.521-5.569c0.223-2.079-0.365-3.349-0.296-5.274
			C72.395,71.264,71.543,69.865,70.369,68.792z"/>
	</g>
</g>
</svg>
