<?xml version="1.0" encoding="utf-8"?>
<!-- Generator: Adobe Illustrator 16.0.0, SVG Export Plug-In . SVG Version: 6.00 Build 0)  -->
<!DOCTYPE svg PUBLIC "-//W3C//DTD SVG 1.1//EN" "http://www.w3.org/Graphics/SVG/1.1/DTD/svg11.dtd">
<svg version="1.1" id="Layer_1" xmlns="http://www.w3.org/2000/svg"  x="0px" y="0px"
	 width="120px" height="120px" viewBox="4 4 120 120" style="enable-background:new 4 4 120 120;" xml:space="preserve">
<g id="login">
	<g>
		<path d="M110.081,24.803c-0.376-1.526-1.56-2.247-1.998-3.709c-0.731-0.217-0.99-0.912-0.854-1.997
			c-0.408-0.546-0.881-1.021-1.428-1.428c-3.465-1.764-9.506-0.955-14.549-1.142c-4.459-0.581-9.32-0.762-13.979-1.139
			c-1.549-0.025-2.373,0.67-3.998,0.568c-5.971-0.492-11.801-1.127-18.544-0.855c-1.406,0.496-3.197,0.606-4.564,1.142
			c-1.112,0.981-2.238,1.946-3.42,2.854c-0.415,1.3-0.983,2.442-1.714,3.424c-1.304,6.875-0.723,15.636-1.426,23.108
			c0.197,0.751,1.297,0.604,1.426,1.427c0.697,0.252,0.309,1.593,1.426,1.426c2.559-0.293,5.512-0.192,7.705-0.855
			c1.943-0.052,4.252,0.257,5.418-0.57c0.651-2.395,0.761-5.327,1.143-7.989c0.369-1.151,0.609-2.433,0.571-3.994
			c0.593-1.021-0.261-3.493,0.856-3.994c4.1-0.655,9.405-0.103,13.979-0.285c6.309,0.729,12.827,1.246,18.828,2.283
			c-0.197,10.846,0.264,22.01,0,32.238c-0.02,0.826-0.284,1.193-0.284,1.427c0,0.157,0.283,0.358,0.284,0.284
			c-0.014,0.4-0.268,0.608-0.284,0.855c-0.038,0.541,0.294,0.628,0.284,1.143c0.004-0.072-0.252,0.164-0.284,0.283
			c-0.103,0.409,0.284,0.616,0.284,0.856c0,0.354-0.396,0.408-0.284,0.856c0.192,0.776-0.003,0.271,0,1.141
			c0,0.372,0.319,0.386,0.284,0.855c0.004-0.045-0.251,0.146-0.284,0.284c-0.103,0.409,0.284,0.615,0.284,0.857
			c0,0.354-0.396,0.405-0.284,0.854c0.015,0.064,0.284,0.422,0.284,0.286c0.004,0.394-0.284,0.624-0.284,0.854
			c0,0.367,0.294,0.391,0.284,0.855c0.004-0.072-0.252,0.164-0.284,0.284c-0.103,0.409,0.284,0.615,0.284,0.856
			c0,0.354-0.396,0.406-0.284,0.855c0.021,0.088,0.294,0.387,0.284,0.286c0.029,0.401-0.289,0.621-0.284,0.854
			c0.013,0.509,0.433,0.422,0,0.854c-0.248,0.249,0.284,0.877,0.284,0.856c0.004,0.408-0.271,0.607-0.284,0.856
			c-0.019,0.401,0.288,0.619,0.284,0.854c-0.001,0.361-0.271,0.399-0.284,0.854c0,0.003,0.284,0.054,0.284,0.286
			c0,0.355-0.396,0.407-0.284,0.854c0.021,0.09,0.294,0.388,0.284,0.287c0.029,0.407-0.287,0.617-0.284,0.854
			c0.003,0.392,0.284,0.629,0.284,0.856c0,0.369-0.303,0.388-0.284,0.855c0.017,0.494,0.259,1.375,0.284,1.997
			c0.048,1.221-0.264,2.694-0.284,3.138c-0.019,0.402,0.288,0.619,0.284,0.856c0,0.065-0.348-0.021-0.284,0.284
			c0.021,0.106,0.283-0.023,0.284,0.287c0.01,0.496-0.052,0.885-0.284,1.141c-11.19,0.291-18.723-0.645-28.245,0
			c-1.326-0.48-3.562-0.049-4.85-0.571c-1.726-0.298-2.479,1.575-3.993,0.571c0.128-3.555-0.772-6.076-0.573-9.7
			c-0.374-1.338-0.291-3.13-0.283-4.851c0.342-2.15-0.844-2.771-1.143-4.28c-1.708-0.251-4.182-1.065-5.99-0.284
			c-2.137,0.24-4.598,0.158-5.99,1.143c-0.237,3.343-0.572,7.297-0.572,11.41c0,4.164,0.391,8.502,0.284,12.555
			c0.655,1.057,0.876,2.547,1.428,3.708c0.192,1.612,1.669,1.944,2.284,3.139c1.043-0.188,1.092,0.617,1.998,0.571
			c0.24,0.613,1.816-0.107,1.995,0.57h2.567c0.682,0.172,2.069-0.358,2.281,0.284c2.041-0.118,2.529-0.118,4.564,0h2.57
			c0.682,0.175,2.068-0.358,2.283,0.285c6.812,0.125,13.047,0.836,20.256,0.571c4.472,1.137,10.041,1.18,15.403,1.426
			c0.609-0.534,1.896-0.387,2.281-1.143c1.078-0.062,1.386-0.896,2.283-1.141c1.271-1.016,2.859-1.705,3.709-3.138
			c0.047-0.81,0.524-1.188,0.572-1.998c0.822-0.127-0.256-2.156,0.568-2.283C110.521,75.826,109.337,51.79,110.081,24.803z
			 M49.884,42.776c0.332,0.047,0.508-0.063,0.569-0.286c0.385,0.188,0.533,0.61,0.572,1.142
			C50.814,43.177,49.629,43.697,49.884,42.776z M80.98,106.111c0.041-0.623,0.719-0.611,1.428-0.569
			C82.607,106.529,81.407,106.564,80.98,106.111z M105.518,61.604v16.548c-0.256,1.074-0.613,2.051-1.144,2.853
			c-0.035,5.153-1.638,10.081-0.854,15.122c0.896-0.244,1.185-1.1,1.429-1.998c0.651,0.488,0.103,2.178,0.284,3.139
			c0.033,1.176-0.496,1.787-0.284,3.14c-0.784,0.739-1.261,1.782-1.999,2.565c-0.479,1.613-1.293,2.894-2.566,3.711h-2.566
			c-1.265,0.406-0.748-0.967-1.713-0.856c-1.252-0.302-0.938,0.965-1.998,0.856h-4.564c-1.23-0.004-1.127-1.348-1.998-1.713
			c-0.751-0.086-0.734,0.596-0.854,1.143c-0.037,0.63-1.209,0.121-1.713,0.283c-1.552,0.088,0.09-1.746-1.138-2.28
			c-1.425-0.375-1.217,0.878-2.284,0.854c-1.091,0.041-1.375-0.719-2.281-0.854c-1.17,0.067-1.508,0.968-2.57,1.141
			c-4.271,0.185-7.932-0.245-11.98-0.284c-1.967-0.318-3.897-0.668-5.705-1.143c-3.361-0.221-5.899,0.377-9.131,0.286
			c0.057-1.957-0.678-3.126-0.854-4.851V83.287c-0.051-0.807,0.245-1.956-0.572-1.996c0.851-0.613,2.258,0.384,3.424-0.286
			c0.92,1.909,0.568,4.53,0.568,7.134v7.701c0.258,2.028,0.441,4.125,1.998,4.852c4.127-0.473,9.651-0.95,13.979-0.284h3.997
			c6.618,0.987,14.304,0.909,21.966,0.854c0.908-0.322,1.91-0.306,2.854-0.57c0.789-0.221,1.592-0.569,2.281-0.855
			c0.041-0.531,0.188-0.952,0.572-1.141c0.033-1.178-0.496-1.788-0.287-3.139c0.576-4.752,0.16-10.492,0.287-15.692
			c-0.14-0.685,0.452-1.229,0.569-1.996c0.289-1.919-0.217-4.231,0-6.277c0.306-1.063-0.709-0.812-0.569-1.711v-5.421
			c0.631-2.884,1.823-5.21,1.996-8.56c-1.093-1.069-1.604,2.373-2.283,1.712v-4.277c0.39-1.896,1.041-3.525,1.711-5.137
			c0.176-1.659,1.705-3.941,0.287-5.42c-1.041,0.292-1.476,1.19-1.711,2.281c-0.648-0.303-0.111-1.793-0.287-2.567v-8.272
			c-0.012-0.938-0.482-1.422-0.285-2.567c-0.148-0.23-0.297-0.464-0.287-0.857c-0.211-1.309-1.754-1.286-1.709-2.853
			c-3.402-0.973-7.408-1.341-11.697-1.426c-0.984-0.226-1.203,0.316-1.711,0.57c-3.068-0.354-6.139-0.712-9.414-0.856
			c-1.35-0.245,1.1-1.019,0.568-2.282c-1.248-0.108-1.467,0.815-2.566,0.856c-0.475,0.572-0.768,1.325-1.713,1.426H69
			c-1.328,0.252,0.193-0.941-0.57-0.855h-5.417c-1.247,0.39-0.607-1.104-1.712-0.857c-1.324-0.086-1.384,1.093-1.714,1.999h-1.995
			c0.009,2.198-0.187,4.187-0.856,5.704c0.176,2.079-0.498,3.309-0.285,5.422c-0.497,1.395,0.049,3.391-2.281,3.424
			c-0.064-1.205,0.44-1.843,0.567-2.853c-0.251-0.908-1.144-0.968-1.997-0.571c0.092-0.66-0.045-1.095-0.285-1.427h-1.138
			c-0.257,0.176-0.513,0.345-0.573,0c-0.598-0.163-0.812-0.707-1.709-0.57v-6.562c0.475-1.521,0.445-3.549,1.423-4.566
			c0.373-1.046,0.038-1.955,0.286-2.566c1.008-0.855,2.68-1.393,4.277-0.855c3.667-1.054,7.664-0.137,11.986-0.285
			c4.562-1.21,8.971-0.814,13.407-1.141c6.081,0.291,11.351,1.393,17.976,1.141c1.66,1,3.5,1.822,4.848,3.138
			c0.156,1.173,0.818,1.846,0.857,3.139c0.215,0.927,1.842,0.44,1.995,1.426c0.478,0.381,0.097,1.616,0.571,1.999
			c-0.738,6.676-1.157,13.678-1.997,20.254C104.891,54.436,105.102,58.123,105.518,61.604z M57.299,73.873
			c1.657-0.533,3.712-0.664,5.994-0.571c0.487,4.271-1.313,10.824,1.711,12.554c4.326,0.427,5.262-2.539,7.133-4.563
			c1.911-1.989,3.619-4.181,5.139-6.562c0.842-0.396,1.154-1.318,1.996-1.713c0.283-0.951,1.483-0.987,1.711-1.996
			c1.533-0.94,2.309-2.639,3.709-3.709c0.181-1.057,0.774-1.698,0.567-3.139c1.048-0.764,2.005-1.611,1.998-3.423
			c-0.364-2.107-2.444-2.501-3.42-3.995c-1.185-0.055-0.97-1.507-1.999-1.712c-0.548-0.787-1.21-1.451-1.997-1.997
			c-1.071-1.402-2.769-2.177-3.709-3.709c-1.547-1.018-2.659-2.476-4.565-3.14c-0.896-1.479-1.308-3.443-3.424-3.708
			c-0.836-0.074-0.875,0.645-1.711,0.571c-0.793,0.892-0.259,1.415-0.285,2.853c-0.086,1.419,0.045,2.617,0.285,3.707
			c-0.229,1.201-0.809,2.047-0.854,3.426c0.241,0.91-0.449,0.883-0.573,1.426c-0.422,0.338-0.443,1.079-0.856,1.426
			c-0.834-0.494-1.99-0.672-3.422-0.569c-6.709,0.339-12.074-0.668-18.544-0.572c-3.348-0.551-7.001-0.798-10.559-1.141
			c-3.842,0.306-7.458-1.069-10.556-0.569c-1.02,0.119-1.373,0.909-1.425,1.997c-0.845,0.39-1.251,1.222-1.714,1.997
			c-0.251,5.121-0.933,11.813,1.144,15.406c0.665,0.76,2.042,0.811,2.853,1.426C33.561,73.104,45.26,74.16,57.299,73.873z
			 M25.921,67.312c-0.873-0.207-0.842,0.492-1.714,0.283c0.013-1.316,1.624-1.035,1.427-2.566
			C26.277,65.24,25.745,66.629,25.921,67.312z M27.347,61.604c0.443-0.885,0.845-1.815,1.424-2.565h2
			c-1.401,1.738-3.165,3.114-4.281,5.135C25.786,63.45,26.97,62.194,27.347,61.604z M29.915,67.025
			c0.467-1.053,0.711-2.33,1.139-3.424c0.838,0.4-0.268,2.74,0.569,3.14C31.591,67.371,30.413,66.861,29.915,67.025z M37.901,62.176
			c-0.694,1.397-1.877,2.308-2.281,3.994c-0.52-0.337-0.225-1.486-0.572-1.996c-0.773-1.508-1.42-3.148-1.996-4.851
			c2.238,0.233,4.098,0.85,6.561,0.856C40.084,60.931,38.804,61.898,37.901,62.176z M44.177,62.176
			c-0.048-0.427,0.104-1.053-0.284-1.142c0.489-0.652,2.179-0.104,3.14-0.283C46.228,61.373,45.124,61.694,44.177,62.176
			C44.208,62.521,43.763,62.352,44.177,62.176z M45.892,66.17c0.018,0.498-0.064,0.889-0.289,1.143
			C44.931,67.234,45.63,66.249,45.892,66.17c0.062-0.222,0.008-0.562,0.284-0.57c0.218-1.018,0.733-1.737,1.425-2.282
			c0.152-0.422,0.425-0.719,0.57-1.142c0.699-0.38-0.312-1.061,0.287-1.142c4.301,0.266,8.769,0.357,13.407,0.285
			c1.211-0.405,1.729-1.504,3.139-1.71c1.057-0.262,4.184,0.062,5.139-1.142c0.312-2.031-0.889-4.055,0-5.706
			c-0.019-0.535,0.217-0.604,0.567-0.286c0.159,0.412,0.448,0.696,0.856,0.857c0.449,0.688,1.019,1.261,1.709,1.711
			c1.022,1.261,2.166,2.401,3.425,3.424c2.196,0.846,4.729,1.357,5.138,3.993c0.208,0.873-0.492,0.84-0.286,1.713
			c-0.924,1.168-2.471,1.716-3.709,2.567c-1.657,1.384-3.024,3.062-3.993,5.135c-1.545,1.295-2.168,4.757-5.423,3.425
			c-1.198-1.312-0.12-3.212,0-4.852c-0.36-1.445-1.696-1.914-2.85-2.567c-3.528-0.021-6.153,0.053-8.846-0.285
			c-0.117-0.359-0.369-0.582-0.857-0.57c-0.449-0.691-1.062-1.217-0.857-2.567c-1.899-0.285-2.953-1.417-5.133-1.425
			C47.727,63.253,47.263,65.167,45.892,66.17z M51.025,67.596c-0.237-0.805,0.401-0.736,0.287-1.426
			c1.325-0.092,1.585,0.887,2.566,1.143C53.483,67.962,51.893,67.418,51.025,67.596z"/>
	</g>
</g>
</svg>
