<?xml version="1.0" encoding="utf-8"?>
<!-- Generator: Adobe Illustrator 16.0.0, SVG Export Plug-In . SVG Version: 6.00 Build 0)  -->
<!DOCTYPE svg PUBLIC "-//W3C//DTD SVG 1.1//EN" "http://www.w3.org/Graphics/SVG/1.1/DTD/svg11.dtd">
<svg version="1.1" id="Layer_1" xmlns="http://www.w3.org/2000/svg"  x="0px" y="0px"
	 width="120px" height="120px" viewBox="4 4 120 120" style="enable-background:new 4 4 120 120;" xml:space="preserve">
<g id="logout">
	<g>
		<path d="M80.673,80.689c-0.698-0.254-0.31-1.595-1.428-1.429c-2.56,0.296-5.517,0.193-7.701,0.855
			c-1.946,0.053-4.252-0.259-5.421,0.571c-0.79,5.105-1.812,9.98-1.999,15.691c-0.455,0.59-1.74,0.35-2.282,0.855
			c1.016-0.064,1.712,0.19,1.999,0.854c-8.637,0.363-14.279-2.271-22.255-2.567c-1.556-0.728-3.597-0.97-5.705-1.142h-1.999
			c-0.99-0.229-1.096,0.427-1.994,0.285c-0.43-0.006-1.169,1.062-1.43,0.285c0.307-13.511,1.078-29.738-1.139-41.652
			c0.785-6.918,0.387-15.02,1.139-21.969c13.718-0.594,24.545,1.707,37.662,1.711c0.364,3.818,0.69,7.68,0.856,11.699
			c0.157,0.826,0.441-0.438,0.854-0.287c0.247-0.416,0.427-0.902,1.141-0.855c1.488,1.744,5.393,1.076,8.274,1.428
			c0.708-0.434,1.731-0.551,2.854-0.572c-0.047-6.996,0.967-14.271-0.574-20.826c-0.726-0.986-1.312-2.113-1.996-3.137
			c-1.34-0.846-2.832-1.541-4.276-2.283c-2.526,0.146-4.702-0.053-6.274-0.855c-0.586,0.654-2.373,0.102-3.43,0.285
			c-0.646-0.543-1.72-0.275-2.565-0.285c-2.994-0.041-6.182-0.148-8.558,0.285c-2.991-0.623-7.102-0.127-10.558-0.285
			c-5.473-1.564-11.941-2.135-18.827-2.283c-1.669,0.965-3.132,0.477-5.138,0.857c-1.928,1.684-3.003,4.223-4.277,6.561
			c-0.09,2.479-0.449,4.688-0.289,7.418c-2.074,8.289-1.631,19.098-1.994,29.1c1.219,3.344,1.541,7.588,1.994,11.697
			c0.746,10.785-0.334,21.994,0.289,32.522c0.221,0.062,0.33,0.24,0.284,0.57c0.756,1.146,1.524,2.281,2.282,3.424
			c4.069,2.113,9.404,2.959,14.834,3.709c10.335-0.348,19.355,0.615,28.246,1.711h9.699c1.188-0.428,2.639-0.594,3.994-0.854
			c1.452-0.925,2.624-2.132,3.994-3.138c0.41-1.301,0.979-2.444,1.713-3.424c1.301-6.875,0.721-15.637,1.428-23.108
			C81.9,81.363,80.798,81.514,80.673,80.689z M76.68,95.523c-0.307,1.598-0.873,2.932-1.144,4.563
			c-0.692,0.927-1.118,2.115-1.998,2.854c-0.062,1.455-0.935,2.107-1.709,2.853c-5.24,3.233-13.072-0.207-20.259,0.57
			c-1.759-0.236-2.921-1.072-4.565-1.429c-8.232-0.321-17.639,0.523-23.678-1.994c-0.134-1.481-1.068-2.164-1.142-3.709
			c-0.354-6.039,0.448-11.348,0.286-17.403c-0.006-0.254-0.353-0.438-0.286-0.854c0.017-0.107,0.292-0.269,0.286-0.57
			c-0.02-0.625-0.26-1.127-0.286-1.713c0.003,0.024,0.33-0.066,0.286-0.285c-0.004-0.021-0.256-0.082-0.286-0.285
			c-0.226-1.723,0.012-4.652,0-6.848c-0.024-4.787-0.433-9.73-1.142-14.551c-0.004-10.455-0.836-20.084-0.568-30.811
			c0.184-1.623,0.598-3.016,0.854-4.564c0.246-0.232,0.171-0.783,0.572-0.855c5.174,0.055,10.723-0.264,15.12,0.57
			c6.524-0.059,12.942-0.008,19.114,0.285c2.924,0.785,6.584,0.832,9.7,1.426c3.463-0.041,7.03-0.182,9.417,0.855
			c1.455,1.684,2.158,4.117,2.281,7.135c-0.039,2.156,0.047,4.65,0,7.131c-0.014,0.625,0.26,1.559-0.286,1.996
			c-0.8-0.326-1.483-0.326-2.282,0c-1.156,0.111-0.314-1.777-0.57-2.566V34.47c0.08-2.078,0.086-4.08-0.856-5.135
			c-0.929-0.879-3.119-0.494-4.849-0.572h-5.422c-2.718-0.16-6.362-0.27-9.698-0.57c-6.441-0.689-14.129-0.139-19.973-1.426
			c-2.344,0.127-5.235-0.293-7.131,0.285c-0.5,0.26-0.99,0.529-0.857,1.428c-0.921-0.164-1.434,0.086-1.711,0.568
			c-0.666,2.059,0.832,2.74,0.855,4.852c0.104,9.6,1.074,18.324,2,27.104c-0.758,5.613,0.19,12.936-0.573,18.545
			c0.231,6.602-0.925,11.816-0.854,18.258c0.619,0.428,1.605,0.486,2.566,0.57c1.008,0.439,1.275-0.152,2.284,0.285
			c1.958,0.133,3.753,0.43,5.989,0.287c1.953,0.139,3.976,0.209,5.707,0.57c1.27-0.226,1.713,0.379,2.852,0.282
			c0.536,0.418,1.892,0.013,2.281,0.572c3.318,0.772,6.567,1.612,10.271,1.996c3.501,0.356,8.393,0.67,11.127-0.57
			c0.897-1.678-0.535-2.674-0.283-4.563c0.516-0.338,0.225-1.488,0.57-1.996c-0.203-1.061,0.486-1.225,0.287-2.283
			c0.069-0.877,0.614-1.283,0.853-1.998c0.666-0.285,0.347-1.555,0.856-1.996c0.498-1.4,0.914-2.891,2.852-2.854
			c1.969,0.127,2.304,1.883,2.855,3.424C76.428,91.592,76.863,93.246,76.68,95.523z M114.623,62.715
			c0.003-3.047-2.312-3.773-3.423-5.705c-3.306-2.021-5.919-4.736-8.847-7.135c-1.436-1.223-2.859-2.463-4.278-3.707
			c-1.724-1.033-2.39-3.125-4.566-3.709h-1.711c-0.336,0.139-0.646,0.305-0.856,0.57c-1.099,0.135-0.531,1.939-1.14,2.568v6.561
			c-0.171,0.592,0.354,1.875-0.286,1.998c-8.137-0.256-17.715-0.727-25.392,0.285c-0.53-0.041-0.95-0.188-1.141-0.572
			c-1.084,0.422-0.057-1.273-1.142-0.854c-1.153,0.174-1.678,0.982-3.138,0.854c-1.302,0.162-1.776-0.504-3.137-0.283
			c-3.188,0.807-8.392-0.402-11.129,0.855c-0.168,0.594-0.6,0.922-0.854,1.426c-0.112,0.746-0.148,1.566-0.572,1.996
			c0.423,3.193,0.084,7.148,1.141,9.702c0.049,0.809,0.525,1.188,0.57,1.996c0.672,0.28,0.256,1.646,0.855,1.998
			c0.496,1.311,0.893,2.723,2.284,3.139c0.21,0.643,1.603,0.111,2.282,0.285h2.853c1.536-0.783,2.909-0.256,4.565-0.57
			c1.129-0.297,2.018-0.834,3.422-0.857c0.74-0.688,2.014-0.84,3.139-1.141c6.998-0.338,12.692,0.625,19.399,0.572
			c0.875-0.207,0.84,0.49,1.715,0.285c0.498,0.164,1.673-0.347,1.709,0.283c1.365-0.033,2.582,0.081,3.426,0.571
			c-0.989,3.722,0.807,6.938,0.283,11.125c2.005,0.199,2.136-1.478,3.707-1.711c1.238-0.666,1.932-1.875,3.712-1.996
			c1.918-2.455,4.089-4.66,6.276-6.849c2.235-2.233,4.559-4.381,6.849-6.562c0.401-1.022,1.231-1.616,1.709-2.565
			C113.546,64.682,114.889,64.5,114.623,62.715z M49.859,61.004c-0.71-0.117-0.015-1.105,0.571-0.857
			C50.329,60.521,49.927,60.598,49.859,61.004z M50.431,70.988c0.35,0.125,0.587,0.365,0.572,0.854
			C50.011,72.094,50.022,71.406,50.431,70.988z M105.492,63.57c-0.391,2.911-2.206,4.745-3.707,6.562
			c-1.514,1.828-2.96,3.688-4.564,5.423c-0.679-0.181,0.047-1.759-0.572-2v-4.277c-0.273-0.582-0.584-1.129-0.855-1.713
			c-0.336-0.422-1.078-0.443-1.428-0.855c-1.693,0.492-2.709,1.664-2.566,3.994c-0.961-0.182-0.742-1.539-0.857-2.568
			c-1.137,0.096-1.58-0.508-2.85-0.285c-0.535-0.414-0.033-1.865-0.572-2.281c-1.633-0.396-1.816,0.652-2.852,0.855
			c-1.176,0.225-1.466-0.438-2.566-0.285c-0.811-0.049-0.56,0.965-1.715,0.57c-1.229-0.008,0.578-1.109,0.287-1.998
			c-0.26-0.502-0.639-0.883-1.143-1.141c-1.807-0.094-2.736,0.689-3.422,1.713c-1.334,0.283-2.379,0.857-3.711,1.141
			c0.307-0.738,1.033-1.061,1.141-1.996c-0.066-0.736-0.487,0.391-1.141,0c-0.51-0.037-0.601,0.35-1.142,0.283
			c-0.763,0.188-1.086,0.818-1.711,1.141c-0.927-0.164-1.328,0.195-1.998,0.287c0.146-1.186,1.935-0.729,1.998-1.998
			c-0.039-0.816-1.188-0.521-1.998-0.57c-1.041,0.006-1.28,0.811-1.999,1.141c-0.154,0.894-1.65,0.438-2.281,0.856
			c0.347-0.889,0.664-1.809,0.573-3.138c-0.367-0.488-0.59-1.121-1.428-1.143c-1.209,0.025-1.799,0.676-1.712,2
			c-2.103-0.201-2.421,1.383-3.425,2.281c-0.504-0.828-0.551-2.109-1.425-2.568c-1.073,0.068-1.114,1.17-1.426,1.996
			c-0.719,0.428-1.003,1.283-1.428,1.998c-1.421-0.412-0.485-1.76-0.571-3.139c0.074-1.35,0.654-2.199,0.571-3.709
			c4.204-0.803,8.57,0.25,13.125,0c0.914-0.248,0.591,0.74,1.142,0.857c0.487,0.012,0.738-0.213,0.855-0.57
			c0.451-0.023,1.088,0.135,1.143-0.287c6.732-0.494,13.787-0.664,21.11-0.57c0.636-0.123,0.114-1.406,0.284-1.996
			c4.074,1.541,3.48-3.637,3.423-7.133c0.462-0.08,0.491,0.27,0.856,0.285c2.763,3.037,6.242,5.359,8.844,8.561
			c1.41,0.492,2.156,1.645,3.424,2.279C107.018,62.623,106.154,62.994,105.492,63.57z M97.503,68.135
			c-0.04,0.338-0.506,0.648,0,0.857C97.546,68.654,98.014,68.346,97.503,68.135z"/>
	</g>
</g>
</svg>
