<?xml version="1.0" encoding="utf-8"?>
<!-- Generator: Adobe Illustrator 16.0.0, SVG Export Plug-In . SVG Version: 6.00 Build 0)  -->
<!DOCTYPE svg PUBLIC "-//W3C//DTD SVG 1.1//EN" "http://www.w3.org/Graphics/SVG/1.1/DTD/svg11.dtd">
<svg version="1.1" id="Layer_1" xmlns="http://www.w3.org/2000/svg"  x="0px" y="0px"
	 width="120px" height="120px" viewBox="4 4 120 120" style="enable-background:new 4 4 120 120;" xml:space="preserve">
<g id="loop">
	<g>
		<path d="M118.907,60.678c-1.259-4.365-1.319-9.935-2.546-14.329c-0.25-0.07-0.369-0.267-0.319-0.637
			c-1.188-1.785-3.097-2.845-4.774-4.14c-1.176-0.312-1.578-1.396-2.549-1.91c-0.346-1.137-1.906-1.065-2.549-1.911
			c-3.039-0.566-5.959-1.255-9.23-1.591c-4.711-0.148-7.938,1.19-11.782,1.909c-0.613,1.191-1.007,2.601-1.274,4.14v5.414
			c1.287,2.959,0.76,7.736,3.821,8.916c1.737,1.072,2.528-1.199,4.776-0.639c2.058,0.172,4.828-0.368,6.369,0.318
			c0.127,0.4,0.408,0.65,0.957,0.637c1.17,1.904,1.426,4.728,1.908,7.324c-0.186,4.379,0.502,9.629-0.639,13.055
			c-0.84,0.328-1.07,1.262-1.909,1.591c-3.547,1.547-9.405,0.782-13.376,1.911c-10.83-0.252-18.066,1.022-29.926,0.637
			c-1.289-0.09-2.215-0.547-3.502-0.637c-3.548,0.152-6.504-0.289-9.553-0.639c-3.037-0.359-6.333-0.462-8.279-1.91
			c-1.369-2.348-1.321-6.106-1.91-9.232v-5.412c0.381-1.975-0.679-3.846,0-5.095c1.752-0.048,3.164-0.442,4.774-0.636h2.548
			c0.493-0.914,1.484,0.662,1.909-0.32c1.833,0.027,3.679,0.069,5.094-0.317h4.14c0.549,0.124,0.816-0.475,0.954,0v6.048
			c-0.356,2.482,0.61,3.638,1.913,4.458c4.717-0.271,5.458-4.519,8.277-6.686c2.23-1.697,4.405-3.452,6.372-5.415
			c1.949-2.081,4.686-3.378,5.414-6.685c-0.94-0.759-0.529-2.868-1.596-3.503c-1.632-0.063-2-1.393-2.865-2.229
			c-1.992-1.512-3.42-3.585-5.413-5.096c-0.678-1.016-1.502-1.896-2.228-2.865c-0.687-1.121-1.833-1.777-2.232-3.184
			c-0.998-0.695-1.752-1.642-2.226-2.866c-1.308-0.495-1.03-2.576-3.187-2.228c-0.019-0.196-0.046-0.378-0.316-0.318
			c-0.457,0.178-0.778,0.497-0.957,0.954c-1.104,1.016-0.194,4.048-0.956,5.413v2.866c-0.196,0.863,0.404,2.526-0.317,2.864
			c-10.82,1.136-22.491,2.153-32.477,3.185c-0.796,0.798-2.278,0.902-3.185,1.594c-0.069,0.246-0.266,0.368-0.639,0.315
			c-0.542,1.367-1.975,1.845-2.228,3.503c-1.068,0.946-1.445,2.586-2.227,3.82c-1.012,2.916-1.438,6.421-1.909,9.873
			C8.744,71.92,9.674,81.605,11.924,89.97c0.503,0.665,1.038,1.296,1.271,2.229c1.314,1.129,2.573,2.311,4.142,3.186
			c1.261,1.178,3.538,1.344,4.456,2.862c2.947-0.183,4.534,0.985,7.003,1.274c10.116,0.713,20.941,0.719,30.886,1.594h32.481
			c5.185-1.076,10.946-1.577,15.92-2.868c0.677-0.488,1.183-1.147,1.909-1.589c0.599-0.573,0.383-1.955,1.273-2.23
			c1.887-0.765,3.385-1.923,4.775-3.184c1.57-3.338,2.628-7.612,2.865-12.419C119.199,72.992,118.691,66.682,118.907,60.678z
			 M57.135,58.448c-0.16-0.165,0.231-0.407,0.321-0.319C57.622,58.294,57.228,58.535,57.135,58.448z M112.54,80.736
			c-0.386,2.479-0.603,5.132-1.591,7.004c-1.43,0.697-2.426,1.824-3.822,2.549c-1.748,0.48-3.105,1.352-5.094,1.591
			c0.438-0.972,0.545-2.657-0.637-2.864c-2.646-0.201-2.332,2.551-3.504,3.819H92.48c0.492-1.417,1.61-2.208,1.908-3.819
			c-1.896-0.852-3.246,1.354-4.773,1.91c-0.598,0.891-1.252,1.721-1.594,2.863h-3.819c-1.649-0.156,1.374-1.605,0-2.545
			c-2.894-0.242-3.269,2.037-4.776,3.184h-3.818c-1.049,0.231-0.491-0.632,0-0.639c0.177-0.457,0.492-0.775,0.955-0.954
			c0.442-0.938,1.553-1.203,1.59-2.546c0.15-1.001-0.854-0.842-0.955-1.594c-3.869-0.361-4.521,2.481-6.686,3.82
			c-0.184,0.668-0.791,0.909-0.64,1.911c-1.888-0.188-2.835,0.56-4.774,0.318c-1.708-0.138,0.992-1.437-0.318-2.229
			c-1.75,0.162-1.988,1.834-3.501,2.229c-4.864-0.188-8.157-0.138-13.055,0c0.517-1.392,1.824-1.994,1.591-4.14
			c-3.409-1.139-4.717,2.471-6.367,4.14c-1.788-0.124-3.316-0.505-4.778-0.957c1.615-2.099,5.258-2.17,7.326-3.819
			c0.086-1.255-2.244-0.093-2.548-0.953c-1.563,0.559-3.841,0.405-5.414,0.953c-1.49,0.321-1.059-1.277-2.547-0.953
			c-1.563,0.025-1.788,1.396-2.548,2.229c-0.27,1.201,1.057,1.495,0.318,2.229h-3.183c0.194-0.807,1.886-2.289-0.317-1.91
			c0.041-1.655,1.218-2.177,0.953-4.142c-3.24-0.094-3.208,3.819-6.687,2.548c-0.089-2.007,1.458-3.324,0.639-5.093
			c-2.029-0.118-2.659,1.161-3.823,1.909c-0.126,0.828-0.948,0.959-0.953,1.908c-0.918,0.039-0.556,1.358-1.596,1.274
			c0.717-2.467,1.584-4.784,1.912-7.642c0.657-0.936,0.887-2.295,1.275-3.503c0.453-1.046,1.104-3.026,0-3.821
			c-1.297,0.297-2.298,0.889-2.867,1.912c-0.286,0.562-0.77,0.929-0.955,1.594c-0.748,0.098-0.192,1.508-1.276,1.272
			c0.219-5.091,1.893-8.724,2.549-13.373c0.625-0.863,1.328-1.646,1.273-3.187c-3.226-0.362-3.185,2.547-4.778,3.822
			c0.037,0.385-0.458,0.197,0,0c0.162-1.858,1.16-2.877,0.956-5.094c-1.607,0.301-1.732,2.086-2.227,3.502
			c-0.725-0.339-0.122-2.002-0.318-2.865v-3.503c0.466-5.159,2.3-8.948,4.776-12.101c1.795-0.645,3.433-1.451,5.095-2.228
			c9.474,0.028,18.06-0.832,27.382-0.957c0.959-0.32,0.564,0.711,0.636,1.275c1.201,0.138,1.452-0.673,1.912-1.275
			c0.729-0.333,1.918-0.2,2.548-0.635c0.015-3.107,0.17-4.402,0-7.323c1.271,1.168,1.781,3.1,3.182,4.14
			c0.714,1.727,2.433,2.45,3.186,4.14c0.876,0.607,1.671,1.301,2.548,1.909c0.354,0.876,2.027,1.56,1.272,2.546
			c-1.251,0.741-1.185-0.388-2.545-0.318c-1.881,0.672-2.455,2.645-2.548,5.097c-0.654,0.619-1.047,1.499-1.596,2.227
			c-0.734-0.963,0.661-2.51,0.639-3.82c0.584-0.918,1.069-3.061,0-3.819c-1.903,0.539-2.992,1.889-3.186,4.14
			c-1.257,0.014-1.843,0.7-2.865,0.955c-1.914-0.364-4.229-0.343-5.411-0.639c-0.239-0.059-0.244-0.29-0.318-0.316
			c-0.632-0.227-1.477-0.15-1.912-0.639c-5.917,0.343-11.772,0.752-17.194,1.594c-1.301,0.608-2.14,1.676-2.864,2.864
			c0.116,2.343-0.085,4.375-0.317,6.369c-0.248,1.199,0.39,1.521,0.317,2.546c-0.203,1.922-0.451,3.793-0.317,6.052
			c0.655,5.179,1.385,10.286,4.456,13.053c1.172,0.315,1.799,1.172,3.184,1.274c1.065,0.529,2.864,0.32,3.823,0.953h4.457
			c9.342,0.818,19.896,0.181,28.656-0.636c4.282,0.14,8.001-0.276,11.464-0.954c7.879,0.023,14.337-1.369,21.33-2.229
			c2.346-1.478,3.314-4.329,4.143-7.324v-11.46c-0.397-2.149-1.006-4.092-1.275-6.368c-0.555-1.353-1.387-2.435-1.909-3.82
			c-0.949-0.959-2.456-1.362-3.183-2.548c-0.814-0.033-1.521-0.182-1.91-0.637c-3.025,0.055-6.357-0.201-8.918,0.319
			c-0.235-2.097-1.108-3.563-0.953-6.051c0.941-0.489,0.935,0.053,2.548,0c3.276-0.649,7.681-0.174,11.459-0.317
			c0.063,0.469,0.772,0.289,1.276,0.317c1.176,0.946,2.512,1.733,3.82,2.546c0.473,0.8,0.793,1.753,1.594,2.23
			c1.019,3.013,1.308,6.758,2.228,9.87C112.789,65.641,112.416,72.261,112.54,80.736z"/>
	</g>
</g>
</svg>
