<?xml version="1.0" encoding="utf-8"?>
<!-- Generator: Adobe Illustrator 16.0.0, SVG Export Plug-In . SVG Version: 6.00 Build 0)  -->
<!DOCTYPE svg PUBLIC "-//W3C//DTD SVG 1.1//EN" "http://www.w3.org/Graphics/SVG/1.1/DTD/svg11.dtd">
<svg version="1.1" id="Layer_1" xmlns="http://www.w3.org/2000/svg"  x="0px" y="0px"
	 width="120px" height="120px" viewBox="4 4 120 120" style="enable-background:new 4 4 120 120;" xml:space="preserve">
<g id="love">
	<g>
		<path d="M120.053,37.132c-1.919-2.592-3.373-5.655-4.408-9.136c-1.338-0.766-1.737-2.463-3.147-3.15
			c-0.187-2.024-2.146-2.268-2.839-3.781c-2.926-0.542-4.876-2.05-7.874-2.52h-7.562c-0.404,0.017-0.437,0.403-0.947,0.315
			c-1.957,0.352-3.084,1.535-5.354,1.574c-1.879,1.48-4.228,2.495-6.614,3.467c-1.963,2.131-3.836,4.355-6.302,5.986
			c-0.918,1.18-1.97,2.232-3.147,3.149c-1.143,0.962-1.529,2.674-3.152,3.151c-1.371-0.204-1.514-1.639-2.834-1.889
			c-0.9-0.781-1.923-1.438-3.153-1.892c-0.522-1.788-2.186-2.435-2.834-4.094c-1.24-0.652-2.444-1.336-3.151-2.52
			c-1.407-0.481-2.461-1.319-3.466-2.207c-1.851-0.563-3.466-1.365-5.04-2.204c-3.843-0.36-7.143-1.26-11.657-0.947
			c-3.043,0.528-6.004,1.137-8.503,2.206c-2.563,1.111-4.479,2.875-6.619,4.411c-1.256,1.37-2.212,3.039-3.777,4.096
			c-0.237,1.236-1.232,1.712-1.577,2.834c-0.672,0.8-1.109,1.831-1.893,2.521c-0.128,1.445-0.687,2.463-1.256,3.466
			c-0.478,1.204-0.544,2.819-1.264,3.781c-0.302,3.583-0.85,6.919-0.628,11.025c0.406,2.64,0.982,5.108,1.259,7.876
			c1.194,1.434,1.489,3.766,2.52,5.355c0.796,0.57,0.781,1.949,1.577,2.521c0.475,0.893,1.387,1.343,1.577,2.52
			c2.295,3.164,5.202,5.721,7.245,9.139c2.67,1.108,4.26,3.299,6.614,4.727c2.326,1.454,4.687,2.872,6.3,5.04
			c1.814,0.077,2.457,1.325,4.096,1.573c1.38,1.352,3.19,2.273,4.727,3.467c1.778,0.951,2.666,2.796,4.729,3.465
			c2.537,2.924,6.078,4.841,8.189,8.189c1.401-0.139,1.665,0.855,2.521,1.263c0.843,0.417,1.564,0.954,2.52,1.26
			c1.331-0.246,1.374-1.774,2.519-2.205c1.142-0.437,1.488-1.662,2.521-2.205c0.74-0.838,1.334-1.815,2.521-2.206
			c0.687-0.888,1.179-1.972,1.893-2.835c1.569,0.313,1.541-0.979,2.834-0.946c3.357-3.675,6.895-7.176,10.71-10.396
			c5.634-3.084,10.002-7.429,14.177-11.972c2.309,0.205,2.795-1.407,4.096-2.204c1.603-0.604,2.314-2.099,3.783-2.837
			c2.496-3.278,5.01-6.538,6.93-10.395c1.482-4.399,3.117-8.643,4.096-13.547C120.943,45.064,120.01,41.588,120.053,37.132z
			 M113.438,53.829c-0.646,1.242-1.308,2.474-1.574,4.097c-0.741,1.148-1.485,2.295-1.889,3.78c-2.81,2.862-5.404,5.937-8.512,8.506
			c-0.396,0.966-1.07,1.657-1.57,2.521c-3.748,3.502-7.793,6.699-11.027,10.711c-1.754,1.082-3.114,2.557-4.727,3.779
			c-1.729,1.107-2.959,2.713-5.041,3.467c-2.931,3.16-5.535,6.642-8.508,9.766c-1.091,0.062-1.193,1.113-2.201,1.261
			c-0.367,0.267-0.845,0.416-1.574,0.314c-0.34-1.071-0.099,0.879-0.945,0.315c-0.004-0.939-0.821-1.07-0.946-1.892
			c0.138-1.083-0.123-1.765-0.315-2.521c0.141-2.134-0.354-3.637-1.573-4.41c-2.16-0.582-1.79,2.688-3.151,1.89
			c-0.984-1.64-0.695-4.556-1.262-6.614c-0.251-2.372-0.294-4.955-2.517-5.355c-1.199,0.168-1.39,1.343-1.577,2.521
			c-0.606,0.76-0.197,2.53-0.316,3.778c-1.485-0.823-2.676-1.943-3.78-3.151c-0.388-2.341-0.931-4.529-1.26-6.93
			c-0.39-2.449,0.076-5.75-2.207-6.301c-2.378-0.068-2.033,2.59-2.52,4.41c-0.024,1.812-0.069,3.638,0.315,5.039
			c-1.566-0.427-2.595-1.395-3.779-2.203c-1.037-2.533-1.921-5.221-2.52-8.191c0.169-2.061-0.197-3.586-0.318-5.355
			c0.177-2.17-0.208-3.78-1.887-4.094c-3.408,0.163-2.127,5.016-2.836,7.875c-0.141,1.717,0.562,2.588,0.315,4.41
			c0.382-0.032,0.191,0.457,0,0c-1.421-1.1-2.612-2.428-3.781-3.781c-0.6-2.443-0.695-5.393-0.944-8.19
			c-0.384-2.765,0.168-6.468-1.262-8.191c-2.925,0.752-2.64,4.71-3.149,7.877c-1.943-2.361-2.323-6.29-3.466-9.452
			c-0.016-4.635,0.338-8.901,0.627-13.231c1.018-1.503,1.859-3.186,2.521-5.04c0.93-1.592,1.975-3.069,2.835-4.726
			c3.708-2.7,8.802-4.01,15.755-3.466c4.722,0.949,8.488,2.853,11.34,5.67c1.646,1.193,3.273,2.4,5.042,3.466
			c1.262,1.68,3.094,2.787,5.041,3.781c0.891,1.628,2.296,2.744,3.146,4.409c1.593-0.298,1.752-2.03,2.836-2.834
			c0.377-1.618,1.927-2.065,2.207-3.781c1.435-0.244,1.656-1.7,2.834-2.204c0.651-1.137,1.873-1.702,2.521-2.836
			c1.399-0.492,2.386-1.395,3.468-2.204c1.414-0.58,2.545-1.445,3.779-2.205c2.967-0.918,5.264-2.507,8.189-3.466h3.781
			c1.002,0.467,2.938,0.001,3.779,0.629c0.555,0.183,1.852-0.38,1.893,0.316c0.555,0.18,1.849-0.382,1.89,0.314
			c1.483,0.406,2.104,1.676,2.521,3.15c1.286,0.602,1.648,2.134,2.206,3.464c1.66,2.224,2.755,5.017,4.409,7.247
			C114.518,44.471,113.843,49.522,113.438,53.829z"/>
	</g>
</g>
</svg>
