<?xml version="1.0" encoding="utf-8"?>
<!-- Generator: Adobe Illustrator 16.0.0, SVG Export Plug-In . SVG Version: 6.00 Build 0)  -->
<!DOCTYPE svg PUBLIC "-//W3C//DTD SVG 1.1//EN" "http://www.w3.org/Graphics/SVG/1.1/DTD/svg11.dtd">
<svg version="1.1" id="Layer_1" xmlns="http://www.w3.org/2000/svg"  x="0px" y="0px"
	 width="120px" height="120px" viewBox="0 0 120 120" enable-background="new 0 0 120 120" xml:space="preserve">
<g id="luggage">
	<g>
		<path d="M114.008,42.396c-0.477-1.739-1.162-3.271-1.936-4.709c-0.412-1.899-1.51-3.11-2.217-4.709
			c-0.817-0.384-1.121-1.28-1.939-1.661c-0.352-0.849-1.586-0.815-1.939-1.663c-0.688,0.041-1.146-0.145-1.386-0.554
			c-1.204-0.087-2.267-0.32-3.321-0.554H90.463c-1.752,0.234-4.688,0.598-6.369,0v-5.265c0.242-2.089-0.256-3.438-0.83-4.709
			c-5.588-3.472-15.762-3.804-24.656-3.047c-3.203-0.16-5.774,0.32-8.588,0.555c-0.871,0.604-2.855,0.097-3.6,0.831
			c-1.553,0.017-2.091,1.047-3.047,1.661c-0.475,1.557-0.692,3.37-0.554,5.54c0.491,0.525,0.201,1.83,0.275,2.771v1.383
			c-0.264,0.518,0.83,0.928,0,1.109c-4.269-0.209-7.685,0.438-11.908,0.277c-2.648,0.678-5.626,1.022-8.312,1.663
			c-0.727,0.693-2.416-0.602-3.324,0.274c-2.883,0.995-3.75,4.006-5.261,6.372c-0.355,4.078-1.496,7.37-2.497,10.803
			c-0.305,7.912-0.319,16.116-0.276,24.376c0.311,2.184,0.664,4.324,0.555,6.926c0.564,1.927,0.025,4.961,1.108,6.369
			c0.725,4.262,2.335,7.637,3.6,11.357c1.293,1.479,2.676,2.861,4.153,4.155c2.642,0.962,5.184,2.021,8.037,2.769
			c1.104,0.561,3.323,0,4.433,0.559c-0.186,1.845,0.318,3.002,0.828,4.15c0.938,0.268,1.457,0.945,2.215,1.387
			c1.271,0.021,1.882,0.705,3.324,0.555c2.754-0.115,4.863,0.674,6.648-0.555c0.823-0.562,1.383-1.391,1.664-2.492
			c0.998-0.48,0.515-2.439,1.384-3.045h13.85c3.074-0.812,8.096-1.342,11.358-0.279c-0.428,4.123,1.091,6.297,3.877,7.202
			c0.206,0.626,1.554,0.108,2.22,0.276h2.49c1.747,0.086,3.28-0.043,4.708-0.276c0.813-0.663,1.704-1.252,2.492-1.938
			c0.366-0.744,0.745-1.472,1.106-2.215c0.543-0.656-0.075-2.479,0.559-3.049c2.029-0.277,2.676,0.834,4.707,0.554
			c4.45-0.165,7.777-1.452,10.807-3.046c3.918-3.65,6.156-8.984,6.924-15.789c0.724-6.941,1.153-14.173,1.937-21.053V53.2
			C115.744,49.526,115.211,45.627,114.008,42.396z M28.693,63.172c0.547,12.189-1.013,23.727-0.279,35.18
			c-2.649-0.121-4.509-1.026-6.093-2.217c0.7-1.885,1.003-4.167,1.386-6.371c0.236-1.059,0.467-2.117,0.555-3.324
			c0.608-0.033,0.118-1.176,0.277-1.658c0.04-0.69,0.051-1.348-0.556-1.389c-2.042-0.197-1.721,1.973-2.769,2.771
			c-0.074,0.854-0.601,1.247-0.831,1.938c-0.476,0.449-0.108,1.74-1.109,1.662c0.169-1.096-1.082-1.604-0.276-2.492
			c1.167,0.06,0.976-1.239,1.661-1.664c0.161-3.625,1.252-6.316,1.939-9.416c0.211-1.637,1.043-2.648,1.109-4.433
			c0.642-0.966,1.356-3.237,0-3.878c-1.693-0.215-1.787,1.168-2.493,1.939c-0.565,0.91-0.865,2.092-1.384,3.046
			c-0.867,1.995-1.908,3.819-2.497,6.095c-1.007-1.299,0.477-2.471,0.833-3.324c0.693-3.275,1.53-6.412,2.492-9.416
			c0.01-1.932,0.931-2.949,1.107-4.712c0.459-1.116,1.677-3.14,0.555-4.154c-2.727,0.041-2.617,2.925-3.879,4.433
			c-0.355,2.414-1.728,3.81-1.937,6.37c-1.05-1.432,0.548-2.583,0.553-3.878c0.739-0.83,0.971-2.171,1.109-3.601
			c0.412-0.421,0.447-1.217,0.556-1.94c0.212-0.614,0.578-1.079,0.552-1.938c0.723-0.847,0.662-2.479,1.384-3.325
			c0.631-2.6,1.724-4.738,2.772-6.923c0.639-1.99,3.638-3.975,1.659-6.096c-1.354-0.775-2.016,1.223-3.044,1.661
			c-0.499,1.165-1.482,1.844-1.941,3.048c-1.461,1.862-2.34,4.309-3.323,6.647c-0.799-0.815,0.388-1.997,0-3.323
			c0.707-1.14,0.992-2.702,1.385-4.155c0.509-1.337,0.595-3.099,0.832-4.709c1.073-1.79,2.047-3.677,3.323-5.264
			c1.952-0.231,5.265-0.079,7.478,0.276c0.122,4.074-0.637,8.198-0.827,12.468C28.728,52.44,29.367,58.312,28.693,63.172z
			 M48.358,25.498c0.173-1.391-0.259-3.273,0-3.877c3.503-0.287,6.468-1.105,10.528-0.831c6.715-0.511,15.537-0.777,20.221,1.661
			c-0.16,2.149,0.336,4.952-0.278,6.649c-10.123,0.125-20.784-0.287-30.471,0.276C48.1,28.773,48.531,26.891,48.358,25.498z
			 M32.57,34.362h4.154v4.157c0.119,0.578-0.19,0.732-0.277,1.106c-0.227,0.694,0.539,2.384-0.552,2.216
			c-1.138,0.127,0.114-0.592-0.277-1.385V38.52c-0.361-0.654-0.118-1.917-0.555-2.494c-1.025,0.08-1.902,0.313-2.216,1.107
			C32.217,36.748,32.744,35.205,32.57,34.362z M35.896,44.611c0.146-0.426,0.287-0.018,0.276,0.277
			C36.025,45.315,35.882,44.906,35.896,44.611z M35.339,57.077c0.149-0.223,0.291-0.45,0.279-0.831
			C36.156,56.136,36.023,57.508,35.339,57.077z M32.294,52.646v-3.879c0.877,0.386,2.446,0.386,3.324,0
			c-0.492,1.63-2.26,1.989-2.771,3.602c0.32,1.354,0.879,2.213-0.276,3.048C31.94,55.031,32.467,53.486,32.294,52.646z
			 M32.294,69.82c0.577-0.119,0.736,0.188,1.11,0.277c-0.082,0.562-0.752,0.541-0.834,1.105
			C31.969,71.25,32.443,70.223,32.294,69.82z M32.294,60.68c0.067-0.349,0.55-0.28,0.552,0C32.602,60.85,32.352,61.014,32.294,60.68
			z M32.294,78.684c0.323-0.043,0.49,0.062,0.552,0.277c0.063,1.447-0.002,2.766-0.276,3.877C31.93,82,32.474,79.98,32.294,78.684z
			 M36.725,99.458c-1.78-0.063-3.956,0.265-4.986-0.553c0.038-1.548,1.271-0.192,2.493-0.556c2.267-0.317,1.74-3.433,2.215-5.539
			C37.449,94.682,36.671,97.04,36.725,99.458z M38.111,106.383v-1.105h5.818C44.071,107.655,39.605,106.52,38.111,106.383z
			 M76.615,102.229c0.033-1.513-0.176-2.783-1.385-3.047c-1.299-0.281-1.578,0.457-2.217,0.832c-0.375,0.645,0.036,2.07-1.107,1.938
			c-0.207-0.625-1.557-0.108-2.217-0.277c0.514-1.36,1.234-4.774-0.557-5.264c-1.293-0.093-1.634,0.769-2.217,1.386
			c-0.381,0.725-0.146,2.072-1.107,2.217c0.199-0.754-1.307,0.197-1.106-0.556c-0.945,0.331-0.209-1.166,0-1.384
			c0.028-0.709,0.157-1.322,0.555-1.663c-0.021-0.618,0.36-1.276,0.276-1.938c-0.11-0.888-0.133-0.934-0.831-1.387
			c-1.668,0.18-1.665,2.029-2.769,2.771c-0.33,1.427-1.338,2.17-1.94,3.324c-1.639-0.006-1.429,0.193-2.768,0.274
			c0.039-1.806,0.788-2.904,1.105-4.433c0.614-0.84,1.354-3,0.276-3.877c-1.843,0.277-2.351,1.896-2.769,3.602
			c-0.958,1.165-1.122,3.127-1.662,4.708c-1.436-0.133-3.439,0.299-4.433-0.274c0.462-2.492,1.538-4.371,1.939-6.926
			c0.723-0.755,0.864-2.092,1.384-3.05c0.244-1.024,1.014-2.308,0-3.046c-1.559,0.193-2.09,1.421-2.768,2.492
			c-0.821,0.936-1.107,2.402-1.942,3.322c-0.743,2.672-2.665,4.17-2.771,7.479h-4.152c-0.009-1.761,1.373-2.134,1.938-3.323
			c0.505-1.896,1.096-3.706,1.939-5.264c0.022-2.057,2.208-3.268,1.108-5.541c-2.283-0.25-3.038,1.025-3.601,2.494
			c-0.893,1.138-1.426,2.637-1.938,4.154c-0.632-0.385-0.104-1.928-0.279-2.771V68.157c0.223-0.962-0.412-1.065-0.275-1.938
			c-0.556-9.894-0.005-20.244,0-31.024v-0.833c14.959,0.493,31.559,0.399,46.535,0c0.276,1.665-0.405,2.365-0.558,3.602
			c0.796,2.81,0.472,6.734,1.111,9.696c0.083,1.102-0.644,1.391-0.556,2.491c-0.231,1.157,0.537,1.31,0.556,2.217
			c-0.203,15.588-0.129,31.45-1.111,46.259c-0.081,1.562,0.494,2.464,0.28,4.157C83.359,103.581,79.988,102.2,76.615,102.229z
			 M84.094,108.047c-1.438-0.135-3.437,0.298-4.433-0.279c-0.515-0.596-0.187-2.027-0.278-3.047c2.942,0.902,7.995-1.99,8.312,2.217
			C87.639,108.475,85.365,108.561,84.094,108.047z M93.787,34.087c0.102,0.839-0.9,0.573-1.385,0.831
			c-0.355,0.382-1.203,0.273-1.939,0.277c-0.145-0.225-0.286-0.451-0.273-0.833C90.934,33.818,92.607,34.197,93.787,34.087z
			 M89.635,101.952c-0.201-0.851,0.477-0.815,0.276-1.662c1.009-0.179,0.341,1.319,1.106,1.385
			C91.064,102.273,90.036,101.799,89.635,101.952z M91.57,88.102c-0.109-0.562-0.326-0.435-0.553-0.83
			c0.188-1.014,0.387-2.016,0.275-3.323c0.318-0.897,0.312,0.741,0.273,1.106c0.275,1.854,0.693,3.557,1.109,5.262
			C91.131,90.166,91.895,89.723,91.57,88.102z M92.128,39.349c-0.009-1.207,0.88-1.516,1.106-2.493
			c0.631,0.295,0.104,1.741,0.274,2.493H92.128z M93.234,47.66c0.231-0.881,0.365,0.49,0.274,0.83
			C93.277,49.37,93.146,47.998,93.234,47.66z M93.512,92.812c0.377-0.356,0.377-1.311,0-1.662c-0.337,0.025-0.171-0.405,0,0h1.108
			v4.707C93.52,95.572,94.479,93.229,93.512,92.812z M94.62,101.119c0.051-0.312,0.278-0.151,0.276,0
			C94.846,101.436,94.62,101.273,94.62,101.119z M110.134,72.866c-0.472,5.665-1.026,11.228-1.665,16.897
			c-0.449,0.654-0.537,1.678-0.828,2.492c-0.473,0.543-0.32,1.711-0.832,2.217c-0.182,1.848-1.399,2.662-1.938,4.152
			c-1.854,0.645-3.105,1.879-5.543,1.939c-0.043-10.629,0.15-20.799-0.275-30.471c0.448-10.883-1.555-19.312-1.383-29.917
			c-0.029-1.726-0.461-3.05-0.277-4.985c-0.143-0.705-0.475-1.076,0.555-1.108c2.135-0.104,3.988,0.072,5.541,0.552
			c0.529,0.671,1.3,1.1,1.938,1.664c0.172,1.027,0.777,1.621,1.104,2.492c0.556,1.758,1.633,2.988,1.939,4.986
			c0.795,1.514,1.105,3.513,1.387,5.541c0.639,1.669,0.691,3.924,1.105,5.816C111.256,61.422,110.604,67.191,110.134,72.866z
			 M54.178,42.95c-0.743,0.177-1.365,0.426-1.94,1.106c-0.426,0.508-0.94,2.131-1.385,2.496c-0.079,0.064,0.046,0.453,0,0.554
			c-0.062,0.132-0.415,0.717-0.552,0.831c-0.076,0.06,0.034,0.454,0,0.553c-0.439,1.158-0.489,2.885,0.275,3.878
			c1.41-0.161,2.336-0.802,2.493-2.217c0.702-0.868,1.145-1.993,1.385-3.323c0.501-0.885,1.679-1.092,1.386-2.771
			C55.542,43.431,54.999,43.052,54.178,42.95z M76.891,46.828c-1.764,2.852-3.104,6.127-4.432,9.418
			c-0.863,1.445-1.26,3.357-2.217,4.709c-0.203,1.682-1.922,4.548,0.554,4.986c1.804-0.602,2.116-2.687,3.05-4.154
			c0.729-1.676,1.307-3.494,2.217-4.986c0.555-1.848,1.195-3.606,2.215-4.987c0.234-2.002,2.389-3.179,1.386-5.539
			C78.439,46.16,77.52,46.35,76.891,46.828z M64.98,60.124c-1.676,3.249-4.796,6.431-3.879,11.358
			c1.381-0.004,1.539-1.234,1.938-2.217c0.821-0.564,0.728-2.041,1.386-2.771c0.098-2.43,2.436-3.98,1.662-6.37H64.98z"/>
	</g>
</g>
</svg>
