<?xml version="1.0" encoding="utf-8"?>
<!-- Generator: Adobe Illustrator 16.0.0, SVG Export Plug-In . SVG Version: 6.00 Build 0)  -->
<!DOCTYPE svg PUBLIC "-//W3C//DTD SVG 1.1//EN" "http://www.w3.org/Graphics/SVG/1.1/DTD/svg11.dtd">
<svg version="1.1" id="Layer_1" xmlns="http://www.w3.org/2000/svg"  x="0px" y="0px"
	 width="120px" height="120px" viewBox="4 4 120 120" style="enable-background:new 4 4 120 120;" xml:space="preserve">
<g id="magnet">
	<g>
		<path d="M105.629,56.103c-0.436-1.478-0.105-3.719-0.859-4.883c-0.386-3.215-1.681-5.865-2.871-8.329
			c-1.27-2.616-2.489-5.081-4.02-7.469c-0.715-0.339-1.125-0.98-1.438-1.723c-1.623-1.633-3.998-2.514-5.457-4.308
			c-1.851-1.501-3.342-3.363-5.172-4.882c-0.672-0.094-1.233-0.295-1.437-0.863c-5.465-2.387-11.553-4.145-19.817-3.731
			c-3.448,0.763-7.76,0.666-11.203,1.433c-1.917,0.958-3.794,1.952-5.457,3.162c-1.982,0.984-3.221,2.706-5.17,3.732
			c-3.405,4.211-7.017,8.06-10.339,12.063c-0.459,1.455-1.11,2.721-2.008,3.734c-0.493,2.19-1.697,3.665-2.012,6.031
			c-0.534,0.81-0.787,1.894-1.149,2.874c-0.699,0.64-0.544,2.135-1.149,2.869c0.167,6.923-0.343,14.516,0.289,20.967
			c0.465,6.62,2.253,11.913,2.873,18.383c1.209,2.411,2.764,4.675,4.02,7.179c1.249,2.48,2.026,5.299,3.735,7.469
			c3.87,0.234,6.789-0.485,9.766-1.147c1.476-0.343,2.899-0.735,4.305-1.147c0.891-0.074,1.625-0.293,2.297-0.576
			c0.711-0.248,1.992,0.071,2.012-0.859c1.581-1.502,0.553-4.764,0.288-6.893c-0.645-2.228-1.013-4.735-1.434-7.183
			c0.195-8.715-1.296-15.746-0.866-24.7c0.396-1.81,0.594-3.808,0.866-5.744c0.591-0.842,0.799-2.069,1.146-3.159
			c0.792-0.648,0.843-2.032,1.436-2.874c2.366-4.047,5.033-7.795,10.341-8.903c1.588-0.344,1.668,0.821,2.871,0.862
			c0.7,0.547,2.403,0.089,3.162,0.576c0.588,0.749,1.533,1.144,2.008,2.009c0.502,0.937,1.435,1.438,1.723,2.585
			c1.43,3.93,0.674,10.052,0.863,15.223c-0.404,2.277-0.67,4.693-1.147,6.89v17.521c-0.448,1.949-0.319,4.473-0.862,6.32
			c0.199,2.27-0.646,4.834-0.287,6.32c0.84,0.213,1.41,0.693,2.008,1.147c1.277-0.229,1.725,0.381,2.875,0.286h19.244
			c1.069-2.186,1.069-5.442,2.006-7.754c0.645-0.127,0.117-1.416,0.291-2.012c0.17-0.688,0.412-1.312,0.287-2.298
			c0.412-1.31,0.695-2.743,0.857-4.309c1.33-5.373,2.246-11.161,2.874-17.229V61.56C106.127,59.434,105.594,58.049,105.629,56.103z
			 M63.983,30.54c0.701,0.544,1.314,1.177,1.151,2.586C63.929,33.084,63.963,31.811,63.983,30.54z M62.833,24.796
			c0.089,1.173-0.396-0.047-1.147,0.288c-0.15,1.771,0.885,2.24,0.287,3.734c-1.143-1.058-2.17-2.233-2.584-4.021
			C60.634,25.07,62.398,24.378,62.833,24.796z M53.933,25.945c0.815-0.045,1.195-0.524,2.012-0.572
			c0.181,1.668,0.441,2.774-0.289,4.019c-0.761-0.099-0.97-0.754-1.15-1.435C53.925,27.679,53.885,26.854,53.933,25.945z
			 M52.209,31.976c1.079,0.262,1.173,1.506,1.723,2.298c-0.184,1.256-0.477,2.393-0.861,3.447c-0.561-0.781-1.373-1.306-1.724-2.298
			C51.369,34.004,52.19,33.394,52.209,31.976z M51.348,54.667c0.338,0.046,0.241,0.525,0.289,0.86
			c-0.579,1.048-1.144,2.113-1.437,3.448c-0.748-0.856,0.393-2.271,0.287-3.448C50.9,55.369,51.187,55.079,51.348,54.667z
			 M49.909,46.335c-1.648-0.795-1.4-2.465-0.858-4.304c1.119,0.025,1.137,1.158,1.723,1.72
			C50.683,44.808,50.066,45.342,49.909,46.335z M48.759,81.377c-0.875-0.173-1.491-0.611-2.292-0.861
			c0.55-2.029,0.727-4.439,1.433-6.317c0.334-0.048,0.515,0.063,0.576,0.282C48.258,77.096,48.925,78.822,48.759,81.377z
			 M50.2,27.958c1.23-0.045-0.301,1.17-0.291,1.72c-0.037,1.015-0.819,1.286-0.858,2.298c-0.597-0.55-1.196-1.099-1.435-2.009
			C48.591,29.412,49.568,28.859,50.2,27.958z M47.899,52.37c0.048,2.344-0.892,3.7-0.859,6.032
			c-1.255-0.373-1.804-1.449-2.583-2.298c-0.313-2.705,1.328-3.455,1.721-5.457C46.871,51.1,47.45,51.672,47.899,52.37z
			 M40.721,57.823c-0.081,2.025-0.975,3.244-0.86,5.462c-0.506,0.532-0.892-0.075-1.148-0.577c-0.676-0.091-0.643-0.888-1.152-1.148
			c0.443-2.047,0.731-4.25,1.152-6.317C39.699,55.784,40.014,57.002,40.721,57.823z M39.86,50.932
			c0.66-2.022,1.423-3.935,2.008-6.031c0.334-0.046,0.512,0.064,0.576,0.289c0.115,0.745,0.855,0.868,0.862,1.723
			c-0.298,2.19-1.293,3.686-1.438,6.032C40.858,52.612,40.606,51.526,39.86,50.932z M38.423,69.314
			c0.005,1.633-0.487,2.771-0.863,4.021c-2.163-0.616-1.335-4.133-0.86-6.033C37.474,67.773,38.069,68.424,38.423,69.314z
			 M39.284,81.377c0.996,0.248,1.591,0.896,2.297,1.438c0.209,2.218-1.63,2.386-3.158,2.869
			C38.659,84.197,38.966,82.781,39.284,81.377z M40.433,76.208c0.457-1.267,0.833-2.616,0.862-4.31
			c1.549-0.013,1.714,1.35,3.162,1.438c0.179,2.191-0.819,3.201-1.149,4.882C41.947,77.952,41.456,76.816,40.433,76.208z
			 M42.445,66.439c0.241-1.859,0.798-3.415,0.862-5.453c0.942,0.871,2.04,1.596,2.871,2.582c-0.343,1.667-0.485,3.539-0.86,5.171
			C43.988,68.348,43.178,67.432,42.445,66.439z M46.754,37.721c-0.325,0.923-0.788,1.704-0.862,2.871
			c-1.212,0.061-1.012-1.286-1.725-1.723c0.234-1.203,0.782-2.09,1.151-3.157C45.991,36.182,46.136,37.187,46.754,37.721z
			 M31.816,54.092c0.033-0.732,0.166-1.37,0.575-1.722c0.095-1.345,0.615-2.259,0.863-3.445c0.954-1.918,1.708-4.041,2.873-5.745
			c1.57-2.831,4.41-5.419,6.318-7.467c0.562-0.603,1.027-1.994,1.722-2.012c-0.029-0.346,0.419-0.178,0,0
			c-0.708,2.26-2.217,3.72-3.734,5.169v2.298c-1.475,1.876-2.335,4.369-3.161,6.894c-1.201,0.056-0.886-1.413-2.293-1.149
			c-0.068,1.595,0.877,2.186,1.147,3.448c-0.01,2.859-1.187,4.556-1.147,7.462c-1.472-0.25-1.153-2.296-2.014-3.156
			c-0.712-0.042-1.392-0.052-1.437,0.575C30.855,55.164,31.556,54.171,31.816,54.092z M35.264,80.229
			c-0.162,0.894,0.081,2.187-0.864,2.299c0.372-1.645,0.063-3.963,0.58-5.461c0.374,0.104,0.448,0.511,0.861,0.578
			C35.886,78.744,35.825,79.734,35.264,80.229z M30.67,74.77v-3.442c0.66-0.088,0.318,0.829,0.859,0.856
			C31.414,73.223,31.639,74.59,30.67,74.77z M32.391,86.834c0.071-0.363,0.572-0.288,0.575,0
			C32.838,87.251,32.714,86.805,32.391,86.834z M30.67,65.58v-8.329c0.242-0.052,0.27,0.112,0.284,0.29
			c0.561,2.404,1.911,4.024,2.875,6.029c-0.038,1.683-0.672,2.776-0.576,4.598C31.916,67.781,31.609,66.365,30.67,65.58z
			 M49.624,100.334c-1.461,1.023-3.839,1.137-6.03,1.436c-1.542,0.563-2.755,1.455-4.31,2.013c-1.34-0.099-2.108-0.765-2.868-1.439
			c-0.244-0.713-0.376-1.536-0.29-2.584c-0.489-0.561-0.671-1.436-1.436-1.724c-0.37-0.684-0.739-1.37-1.148-2.012
			c0.518-1.299,0.201-3.434,0.286-5.168c3.269-1.041,7.256-1.358,9.765-3.162c1.788-0.029,2.955-0.676,4.594-0.858
			c0.256-0.125,0.516-0.253,0.571-0.574c0.336-0.045,0.516,0.062,0.579,0.286c0.342,0.807,0.315,1.983,0.285,3.161
			c0.302,0.94,0.546,1.899,0.863,3.158c0.066,0.264,0.098,1.37,0.288,2.298c0.09,0.434,0.169,0.328,0.285,0.574
			c0.232,0.486,0.185,0.603,0.289,1.435c0.1,0.849,0.758,2.177,1.149,3.162C51.28,100.078,50.462,101.087,49.624,100.334z
			 M54.793,49.783c-0.427,0.337-0.337,1.194-1.146,1.149c0.21-0.783-0.573-0.578-0.575-1.149c-0.09-1.141,0.666-1.441,0.575-2.584
			c1.132-0.079,0.875,1.228,2.009,1.15C55.624,49.083,55.128,49.354,54.793,49.783z M57.668,43.18
			c-1.095-0.435-1.293-1.774-2.3-2.297c0.16-1.087,0.696-1.795,0.577-3.162c1.393,0.424,1.584,2.05,2.582,2.871
			C58.125,41.338,58.131,42.494,57.668,43.18z M57.379,32.265c0.212-0.654,0.256-1.467,0.575-2.01
			c0.85,1.581,3.421,3.044,2.009,5.168C58.798,34.676,58.417,33.143,57.379,32.265z M60.252,44.329
			c0.289-0.381,0.28-1.06,0.573-1.438c0.255,0.222,0.648,0.309,1.148,0.288C61.908,44.069,60.958,44.075,60.252,44.329z
			 M64.561,42.317c-0.879-1.229-1.501-2.714-2.587-3.733c0.286-0.675,0.502-1.416,0.577-2.298c0.965,0.663,1.898,1.356,3.157,1.721
			C65.998,40.115,64.406,40.344,64.561,42.317z M65.425,28.53c-1.128-0.763-0.323-2.975,0-4.021
			C66.128,25.424,65.553,27.502,65.425,28.53z M69.729,25.945c-0.756-0.085-0.225,1.117-1.147,0.863V24.51h2.012
			C70.421,25.108,69.986,25.439,69.729,25.945z M96.729,43.752c0.109,1.423,1.092,1.974,1.15,3.446c0.342-0.029,0.173,0.418,0,0
			c-0.852-0.777-1.929-1.329-2.299-2.583C96.332,44.699,95.803,43.5,96.729,43.752z M95.58,56.103
			c1.346,0.449,2.684,0.287,3.443-0.576c0.023-0.452-0.137-1.093,0.287-1.148c-0.398-0.365-0.125-1.409-0.861-1.435
			c0.08-0.586,0.775-0.565,0.861-1.15c0.848,1.449,0.854,3.747,0.86,6.029C99.1,58,99.005,59.146,97.879,59.261
			c-0.848-0.782-1.936-1.324-2.88-2.01C95.007,56.682,95.787,56.887,95.58,56.103z M82.079,75.633
			c0.769,0.19,1.091,0.822,1.726,1.147c-0.375,1.255-1.453,1.806-2.301,2.587c0.028,0.346-0.42,0.178,0,0
			C81.479,77.906,81.376,76.365,82.079,75.633z M82.654,67.879V67.02C83.492,66.596,83.492,68.303,82.654,67.879z M82.366,54.379
			c0.116-0.69-0.526-0.622-0.287-1.435c0.89,0.068,1.116,0.799,1.726,1.147c0.396,0.466,1.364,0.357,1.147,1.436
			C83.997,56.202,83.396,54.535,82.366,54.379z M83.229,44.901c0.148,0.151-0.209,0.366-0.289,0.289
			C82.792,45.042,83.148,44.822,83.229,44.901z M87.252,51.794c-1.191,0.042-1.65-0.652-2.3-1.148
			c0.325-1.205,1.358-1.704,1.722-2.873c0.696,0.454,1.271,1.027,1.725,1.723C88.333,50.584,87.494,50.893,87.252,51.794z
			 M89.547,58.112c-0.074,1.858-2.691,0.139-1.148-0.571C88.969,57.542,88.764,58.322,89.547,58.112z M86.674,62.422
			c-0.416,0.618-0.959,2.053-2.01,1.147c0.004-0.854,0.749-0.975,0.861-1.722C86.311,61.636,86.104,62.417,86.674,62.422z
			 M85.238,41.167c-0.688-0.478-1.355-0.772-0.861-1.724c0.587,0.088,0.566,0.778,1.148,0.862
			C85.373,40.537,85.227,40.772,85.238,41.167z M85.812,70.176c0.848,0.396,1.164,1.324,2.011,1.725
			c-0.128,1.019-1.038,1.257-1.437,2.011c-1.109-0.037-1.134-1.162-2.011-1.437C84.736,71.592,85.354,70.965,85.812,70.176z
			 M86.674,79.654c0.771,0.416,2.291,1.162,1.725,2.01h-3.16C85.641,80.918,86.211,80.338,86.674,79.654z M88.398,67.02
			c-0.129-1.09,0.565-1.352,0.861-2.014c1.166,0.268,1.536,1.334,2.581,1.723c-0.35,0.604-0.791,1.121-1.147,1.726
			C89.566,68.335,89.473,67.193,88.398,67.02z M90.406,54.092c0.277-0.586,0.586-1.138,0.863-1.722
			c0.932,0.221,1.502,0.792,1.723,1.722c-0.266,0.21-0.432,0.523-0.574,0.863C91.332,55.079,91.068,54.386,90.406,54.092z
			 M90.406,75.059c1.029,0.313,1.697,0.983,2.012,2.008c-0.504,0.263-0.889,0.646-1.148,1.151c-0.92-0.226-1.254-1.046-2.008-1.438
			C89.615,76.176,90.055,75.658,90.406,75.059z M92.131,60.698c1.6-0.066,1.824,1.242,3.16,1.438
			c0.137,0.901-0.773,0.756-0.859,1.434C93.701,62.568,91.471,62.215,92.131,60.698z M94.716,69.314
			c1.207,0.033,1.376,1.112,2.587,1.149c-0.104,1.431-1.42,1.646-1.723,2.871c-0.773-0.476-1.271-1.217-2.016-1.724
			C93.428,70.324,94.584,70.329,94.716,69.314z M91.842,36.574c1.249,0.858,2.119,2.097,2.874,3.445
			c-0.196,1.045-1.087,1.401-1.434,2.298c-1.011,0.05-0.947-0.969-1.726-1.15c-0.178-0.777-1.201-0.715-1.15-1.724
			C91.199,38.798,91.246,37.412,91.842,36.574z M90.693,46.048c-0.939-0.491-1.355-1.513-2.295-2.009
			C89.178,43.559,90.373,45.118,90.693,46.048z M86.674,32.265c0.811-0.047,0.721,0.81,1.149,1.149
			c0.382,0.286,1.067,0.271,1.147,0.859c-0.072,1.267-1.168,1.513-1.435,2.583c-0.82-0.231-1.13-0.976-1.726-1.435
			C85.786,34.056,86.348,33.279,86.674,32.265z M81.791,27.671c1.59,0.61,2.468,1.934,3.734,2.869
			c-0.582,0.854-1.047,1.828-1.721,2.586c-1.505-0.41-1.896-1.935-3.166-2.586C80.975,29.532,81.773,28.991,81.791,27.671z
			 M78.344,26.234c0.379,0.292,1.061,0.283,1.438,0.573c-0.193,0.666-0.955,0.77-1.147,1.435
			C77.548,27.939,77.789,26.942,78.344,26.234z M78.634,33.7c1.406,0.221,1.351,1.903,2.581,2.303
			c-0.002,0.565-0.779,0.36-0.574,1.147c-1.483,0.048-1.529-1.346-2.869-1.438C77.617,34.599,78.506,34.53,78.634,33.7z
			 M76.047,30.828c0.719,0.045,0.083,0.975,0,1.148C75.189,31.789,76.322,31.365,76.047,30.828z M75.762,44.04
			c-1.121,0.065-1.49-0.618-2.301-0.86c0.473-1.922,1.723-3.069,2.301-4.886c1.033,0.305,1.592,1.093,2.297,1.726
			C77.629,41.694,76.082,42.254,75.762,44.04z M80.641,42.602c0.28,0.013,0.226,0.354,0.291,0.578
			c-0.315,1.505-0.838,2.799-1.149,4.306C77.133,46.578,80.654,44.417,80.641,42.602z M95.865,101.193
			c-5.236,0.125-11.014-0.287-15.795,0.289c-0.364-0.881,0.23-2.931,0-4.599c0.645-0.209,0.109-1.608,0.287-2.297
			c-0.232-0.998,0.424-1.104,0.281-2.014c-0.14-2.244,0.155-4.056,0.293-6.028v-0.861c1.645,0.653,4.817-0.227,6.031,0.861
			c3.357-0.938,7.755,0.732,11.2-0.286c-0.496,3.816-1.437,7.181-2.013,10.912C96.027,98.482,96.441,100.336,95.865,101.193z
			 M94.716,81.091c0.609-2.487,2.403,0.118,3.448,0.573C97.126,82.496,95.652,81.312,94.716,81.091z M99.889,77.355
			c-0.587-0.084-0.563-0.775-1.15-0.861c0.109-0.943,0.835-1.266,1.15-2.014C100.447,74.882,100.236,76.921,99.889,77.355z
			 M100.172,67.303c-1.039-0.296-1.727-0.951-2.584-1.436c0.203-1.78,1.877-1.411,3.156-0.861
			C100.992,66.205,100.188,66.363,100.172,67.303z"/>
	</g>
</g>
</svg>
