<?xml version="1.0" encoding="utf-8"?>
<!-- Generator: Adobe Illustrator 16.0.0, SVG Export Plug-In . SVG Version: 6.00 Build 0)  -->
<!DOCTYPE svg PUBLIC "-//W3C//DTD SVG 1.1//EN" "http://www.w3.org/Graphics/SVG/1.1/DTD/svg11.dtd">
<svg version="1.1" id="Layer_1" xmlns="http://www.w3.org/2000/svg"  x="0px" y="0px"
	 width="120px" height="120px" viewBox="4 4 120 120" style="enable-background:new 4 4 120 120;" xml:space="preserve">
<g id="mail">
	<g>
		<path d="M118.5,27.4c-0.8-1.8-4.4-0.9-6-1.9c-1.7-0.4-1.7,1.1-3.2,1c-0.3-0.8-2.2,0.1-2.5-0.6h-3.2c-0.5-0.5-1.899-0.3-2.899-0.3
			c-0.9-0.2-2.5,0.4-2.9-0.3c-11.899-0.5-25.3-0.5-37.2,0c-7.5,0.2-15.3,1.9-23.6,1.9c-8.1,0-16.5-0.2-24.2,1
			c-1.4,1.1-1.9,3.2-3.2,4.5C9.2,35,9.5,38.3,9,40.8c1.4,15.1,2.2,30.9,3.5,46.2c0,1.3,1.2,1.5,1.3,2.9c0.2,2.199,0.7,4.199,1.3,6
			c1,0.3,1.4,1.1,2.9,1c0-0.4,0.5-0.2,0,0c-0.3,0.3-0.2,0.899-0.6,1c-0.1,3,2.5,3.199,4.8,3.8c2.6,0.2,5,0.5,8,0.3
			c2.4,0.4,5.1,0.6,7.6,1H66.4c6.8-1,14.3-1.2,21-2.2c7.8,0,14.1-1.3,21.3-1.899c1.5-0.301,0.399,1.899,1.6,1.899
			c0.2,0.8,1,1.101,2.2,1c1.4-0.3,2-1.399,2.2-2.899c0.399-1.301,0.399-3,0.3-4.801V83.8c0.4-6.399,0.9-12.7,1-19.4
			c0.7-6.1,0.3-13.2,1-19.4c0.1-3.3,0.6-6.2,1-9.2c-0.2-1.9,0.5-2.9,0.6-4.5C118.8,29.8,119.5,28.4,118.5,27.4z M20.8,33.5h21.6
			c8.3-0.9,16.7-1.8,26.1-1.6c0.5,0.1,0.8-0.5,1,0c0.3,0.3,1.6-0.3,1.6-0.3v0.3c1-0.1,1.301-0.2,1.9,0c0.2,0,0.5,0,0.6,0
			c0.801-0.1,1,0,2.2,0c0,0,0.101-0.4,0.3-0.3c0,0,0.101,0.3,0.301,0.3c0.6,0.1,1.8,0,2.899,0c-0.1,0,0.2-0.5,0.3-0.3
			c0.4,0.5,1.7,0.3,2.9,0.3c2-0.1,2.3-0.1,4.5,0c7.1,0,13.9,0.3,20.1,1.3c1.301-0.1,0,0.5,0,1c-0.399,0.3-1,0.5-1.3,1
			c-0.7,0.6-1.6,1.1-2.2,1.9c-1.899,0.9-3.399,2.1-5.1,3.2c-3.4,2.2-6.8,4.4-9.9,7c-0.8-0.3-0.6,0.6-1.3,0.6c-0.5,0-0.6,0.9-1.3,1
			c-0.3,0-1.2,0.7-1.6,1c-0.301,0.2-0.801,0.5-1,1c-2.101,0.7-3.2,2.4-5.101,3.2c-3,2.6-6.3,4.9-9.2,7.6c-2.1-1.2-4-2.6-5.7-4.1
			c-2.2-0.8-3.8-2.2-5.7-3.2c-1.6-1.2-3.6-2.1-5.1-3.5c-4.1-1.7-7.5-4-11.5-5.7c-7.9-3.5-15.2-7.7-22.9-11.5
			C18.7,32.6,19.7,33.9,20.8,33.5z M14.7,33.8c0-0.1,0.7-0.6,1-0.3C15.9,33.7,14.4,34.4,14.7,33.8z M25.6,97.1
			c0.1-0.699,0.4-1.3,0.6-1.899c0.5,0.6,0.7,1.399,1,2.2C26.4,97.6,25.9,97.4,25.6,97.1z M38,97.1h-3.5c0.8-1.8,2-3.3,2.9-5.1
			C38.6,92.7,37.7,95.5,38,97.1z M111.8,41.8c-0.6,9.6-1.1,19.3-1.899,28.601v4.1c0.3,0.9-0.4,0.8-0.301,1.6V80.9
			c-0.8,3.199,0.301,8.3-1,11.1c-2.399-0.2-3.899,0.6-6.399,0.3C94.4,93.9,84.9,93.8,77.1,95.5C77.4,93.6,78.7,92.8,79,91
			c-0.2-0.9-0.5,0.5-1,0.3c-0.3,0.4-0.3,1.2-1,1.3c-0.2,1.2-0.9,1.9-1.3,2.9c-3.101,0.3-6,0.8-9.2,1c1.3-2.4,3.4-4,4.1-7
			c-1-0.8-1.699,0.6-2.199,1.3C67.6,91.5,67,92.4,66.5,93.3c-0.9,0.5-1.4,1.4-2.5,1.601c0,0.8-0.5,0.899-0.3,1.899H51.3
			c0-1.3,1.6-2.2,1-3.2c-1.7,0.2-1.6,2.301-2.5,3.2c-2.9-0.1-5.4,0.2-8,0.3c-0.5-2.1-0.7-4.6-1.6-6.399c-0.7-1.4,0.5-2,0-2.9
			c-3.1,0.4-4.9,2.101-6.7,3.8c-0.5-0.5-0.6-1.3-1.9-1c-2.1,0.2-2.4,2-4.1,2.5c0.3-1.1,1.1-1.699,1-3.199C27,90,26.4,91.3,25.6,92.1
			C24.8,93,24.5,94.4,23.4,95c0,0.4-0.1,0.7-0.3,1c-0.1,0.5,0.5,0.8,0,1c-1.7,0-2.8-0.6-4.5-0.6c0.1-0.801,1.1-0.601,1-1.601
			c0.9,0,0.7,1,1.6,1c1.3-0.5,2.3-1.3,2.5-2.899c0.9-1,1.5-2.301,2.2-3.5c1.4-2.301,3-4.4,3.8-7.301c-3.8,0.801-5.1,4-7.3,6.4
			c0,0.4-0.5,0.2,0,0c1.1-2.6,2.6-4.8,3.8-7.3c1-2.4,4-4.3,2.9-8c-3.5-0.101-4.1,2.7-6,4.1c-1,2.5-3,4-3.8,6.7
			c-0.7-0.3,0-1.6,0.3-1.9c-0.1-1.1,0.6-1.5,0.6-2.5c0.9-1.199,1.1-3.1,1.9-4.5c0.3-1.699,1.2-2.8,1.6-4.5
			c0.5-1.6,1.8-2.399,1.9-4.5c-0.2-1-1.2-1.199-1.9-1.6c-1.8,0.1-2.3,1.5-3.5,2.2c-0.7,2.399-2.2,4-2.9,6.399
			c-0.7-0.3-0.1-2-0.3-2.899c0.4-0.601,0.3-1.8,0.6-2.5c0-1,0.7-1.4,0.6-2.5c0.7-0.3,0.3-1.8,1-2.2c0.5-3.3,3.4-5.9,2.2-9.9
			c-2.7-0.3-3.5,1.3-4.5,2.9c-0.7-0.2-0.1-1.8-0.3-2.5c-0.7-0.3-0.1-2-0.3-2.9c-0.6-5-1.1-10.2-1.6-15.3c0.7,0.4,1,1.3,1.6,1.9
			c2.4,1.1,4.2,2.8,6.4,4.1c2.4,1.1,4.2,2.8,6.7,3.8c4.1,2.9,9.1,4.9,13.4,7.6c2.6,0.9,4.6,2.4,6.7,3.8c2.2,1.3,3.9,3.1,6.4,4.1
			c1.8,1.7,4.5,2.5,6,4.5c1.4,0.5,2.1,1.5,3.2,2.2c1.601,0.2,2.301,1.3,4.5,1C70.9,67.9,71.7,67,72.1,65.8
			c2-0.7,3.301-2.3,5.101-3.2c1.3-1.5,3.5-2.3,4.8-3.8c2.1-0.7,3.2-2.4,5.1-3.2c1.601-1.3,3.4-2.3,5.101-3.5
			c6.2-5.2,14-8.7,19.7-14.3C112.5,38.7,112.1,40.9,111.8,41.8z M20.5,91.1c0.6,0.301-0.2,1.9-1,1.9C19.2,91.7,20,91.6,20.5,91.1z
			 M113.7,31.6c0.1-0.4,0.3-0.2,0.3,0C114,31.9,113.7,31.7,113.7,31.6z"/>
	</g>
</g>
</svg>
