<?xml version="1.0" encoding="utf-8"?>
<!-- Generator: Adobe Illustrator 16.0.0, SVG Export Plug-In . SVG Version: 6.00 Build 0)  -->
<!DOCTYPE svg PUBLIC "-//W3C//DTD SVG 1.1//EN" "http://www.w3.org/Graphics/SVG/1.1/DTD/svg11.dtd">
<svg version="1.1" id="Layer_1" xmlns="http://www.w3.org/2000/svg"  x="0px" y="0px"
	 width="120px" height="120px" viewBox="4 4 120 120" style="enable-background:new 4 4 120 120;" xml:space="preserve">
<g id="female">
	<g>
		<path d="M106.033,22.483c0.24-1.017-0.905-0.636-0.659-1.649c-0.672-0.099-0.646-0.891-1.317-0.987
			c0.137-0.912-1.229-0.312-1.32-0.991c-2.646,0.208-4.338,1.375-6.922,1.647c-1.213,0.219-2.219,0.642-3.627,0.66
			c-0.541,0.777-2.358,0.281-2.965,0.989c-2.746,0.113-4.766,0.953-7.26,1.318c0.15,0.919-1.794-0.257-1.646,0.66
			c-0.932-0.271-0.853,0.464-1.646,0.328c-1.057,0.262-1.439,1.199-2.309,1.65c-0.422,2.283-0.084,3.577-0.327,6.261
			c0.641,0.677,1.026,1.61,2.307,1.648c0.63,0.584,1.252,1.168,1.978,1.651h2.639c-0.034-0.398,0.479-0.203,0,0v0.329
			c-2.745,2.422-5.376,4.952-8.242,7.253c-0.986,0.775-1.167,2.351-1.979,3.3c-1.362-0.62-3.006-0.951-4.284-1.651
			c-1.907,0.04-2.291-1.446-3.959-1.648c-3.485-0.471-7.595-0.317-11.535-0.332c-4.059,0.672-7.88,1.573-11.869,2.311
			c-1.716,1.029-3.878,1.614-5.604,2.637c-0.646,0.676-1.555,1.082-2.309,1.65c-0.864,0.452-1.136,1.502-2.31,1.646
			c-2.534,2.739-5.229,5.319-7.251,8.572c0.052,0.383-0.072,0.586-0.327,0.656c-0.817,3.477-1.945,6.632-2.31,10.55v10.223
			c0.275,0.82,0.432,1.768,0.328,2.968c0.598,2.367,1.593,4.341,1.981,6.923c1.047,0.818,1.295,2.438,1.975,3.627
			c0.826,0.933,1.429,2.09,1.981,3.297c1.332,2.181,3.577,3.453,4.942,5.604c1.777,0.864,3.613,1.661,4.945,2.966h3.627
			c2.224,1.516,5.739,1.731,8.899,2.307h9.892c3.482-1.02,7.326-1.684,9.892-3.625c3.549-0.953,5.225-3.783,8.242-5.273
			c1.799-3.195,4.805-5.188,6.592-8.9c1.653-3.443,2.272-7.469,2.965-12.199v-7.582c-0.705-3.688-1.094-7.692-2.635-10.549
			c-1.188-3.208-3.121-5.669-4.615-8.571c2.426-1.534,4.058-3.856,6.265-5.602c0.862-1.121,1.862-2.094,2.64-3.3
			c0.765-0.223,0.881-1.096,1.646-1.319c0.37-0.217,1.277-1.528,1.646-0.659c-0.299,1.969-0.653,5.029,0,6.925
			c1.392,0.146,1.776,1.298,3.627,0.987c0.619-0.919,2.442-0.636,3.299-1.318c2.443-2.826,2.416-8.132,3.953-11.868
			c1.182-4.097,2.974-7.581,3.957-11.868C106.281,23.992,107.07,22.322,106.033,22.483z M77.682,86.771
			c-1.35,2.605-3.236,4.674-5.604,6.263c-1.232,0.745-2.288,1.671-3.626,2.307c-0.899,0.972-2.468,1.269-3.625,1.978H50.318
			c-4.598-0.348-8.063-1.823-11.867-2.969c-1.41-1.774-3.231-3.141-3.956-5.604c-0.727-0.812-1.391-1.686-1.65-2.966
			c-0.995-0.542-0.527-2.55-1.317-3.298c0.135-2.281,1.525-3.309,1.317-5.934c0.447-1.971,0.61-4.227,0.986-6.266
			c0.287,0.062,0.313-0.125,0.334-0.329c0.409-1.677,1.312-2.863,2.305-3.957c0.456-1.523,1.451-2.505,2.309-3.625
			c1.928-0.82,3.537-1.963,5.604-2.637c1.081-0.203,2.069-0.729,3.299-0.989c1.201-0.257,2.575-0.096,3.628-0.66
			c5.757,0.065,11.11,0.536,17.142,0.331c1.925,1.15,3.862,2.29,5.601,3.627c0.635,0.904,1.404,1.674,2.311,2.304
			c0.56,0.984,1.123,1.962,1.648,2.97C78.523,73.223,78.689,81.32,77.682,86.771z"/>
	</g>
</g>
</svg>
