<?xml version="1.0" encoding="utf-8"?>
<!-- Generator: Adobe Illustrator 16.0.0, SVG Export Plug-In . SVG Version: 6.00 Build 0)  -->
<!DOCTYPE svg PUBLIC "-//W3C//DTD SVG 1.1//EN" "http://www.w3.org/Graphics/SVG/1.1/DTD/svg11.dtd">
<svg version="1.1" id="Layer_1" xmlns="http://www.w3.org/2000/svg"  x="0px" y="0px"
	 width="120px" height="120px" viewBox="4 4 120 120" style="enable-background:new 4 4 120 120;" xml:space="preserve">
<g id="map1">
	<g>
		<path d="M115,35.1c-0.2-0.1-0.3-0.2-0.3-0.6c-0.4-1.4-1.4-2.2-2.4-3c-1.2-0.7-2-1.8-3.3-2.4c-0.6-0.8-2.2-1.3-2.7-1.8
			c-0.2-0.2-0.2-0.1-0.6-0.3c-1.2-0.7-2.2-1.6-3.601-2.1c-1.899-1.8-4.199-3.1-6.3-4.8c-1.2-0.6-2.3-1.2-3.3-2.1
			c-1.2-0.6-1.6-2.2-3.3-2.4c0-0.2,0-0.4-0.3-0.3c-0.4,0.1-0.601,0.4-1.2,0.3c-2.2,1.3-3.8,3.3-6,4.8c-1.8,1.4-4.101,2.3-5.7,3.9
			c-2.3,0.9-3.7,2.7-6,3.6c-0.4,0.9-1.3,1.2-2.1,1.8c-1,0.3-1.101,1.5-1.801,2.1C61.7,29,57.7,25.9,52.4,24.1
			c-1-1.1-2.9-1.5-3.9-2.7c-1.8-0.3-2.4-2-4.5-2.1c-2.7,0.7-5.5,1.5-7.1,3.3c-3.6,1.6-6.9,3.6-10.4,5.4s-7.3,3.1-10.4,5.4
			c-0.4,1.1-0.4,2.6-1.2,3.3c-0.4,4.7-0.2,9.5,0,14.3c0.6,13.4-1,28.7,0.9,42.6c0.2,2.601-0.5,6.101,0.6,7.7
			c1.5,0.5,2.2,0.5,3.9,0.3c0.3-0.699,1.7-1.399,0.9-2.399c0.1-1.2,1.4-1.2,1.2-2.7c-0.1-1.3-0.6-2.2-0.6-3.6
			C21.5,74.4,20.9,56.3,20,38.4c2.2-0.8,4.1-1.8,5.7-3.3c2.3-0.7,3.8-2.2,5.7-3.3c3.5-2.4,7.5-4.4,11.9-6c1.5,1.7,3.1,3.3,4.8,4.8
			c2.4,1.3,4.8,2.5,6.8,4.2c1.4,0.4,2.1,1.7,3.9,1.8c0.9,1,2.1,1.7,3.9,1.8c1.5,0.2,1.2-1.4,2.399-1.5c1.301-0.1,2-0.8,3.301-0.9
			c1.6-1.3,3.5-2.2,5.1-3.6c2-0.9,3.3-2.4,5.4-3.3c1.199-1.6,3.5-2.2,4.8-3.9c1.2-0.3,1.6-1.4,2.7-1.8c0.8-0.7,1.699-1.3,2.699-1.8
			c1.801,1.5,3.301,3.2,5.7,4.2c2,1.3,4,2.6,6.3,3.6c1.101,1.5,2.7,2.5,4.2,3.6c0.601,0.7,1.4,1.2,2.101,1.8c0,0.6,1,0.2,0.899,0.9
			c0.2,0.5,1.5-0.1,1.2,0.9c-0.3,4.2-0.6,8.6-0.9,13.1C107.8,63.5,108.7,78.4,108,92c-1.5-0.6-2.8-1.3-3.9-2.4
			c-1.699-0.1-2.5-2.399-3.899-1.8c0,2.601-1,4.2-1.2,6.601c1,0.6,1.4,1.8,2.7,2.1c0.8,0.9,1.399,2,2.7,2.4
			c1,0.699,1,2.399,2.699,2.399c1.101,0.601,1.601,1.8,3,2.101c0.7-1.301,2-0.2,3.301-0.9c0.8-4.9-0.2-11.8,0.6-16.7
			C114.3,69,114,51.4,115,35.1z M20,35.7c0.4-0.9,1.4-1.2,2.4-1.5C21.8,34.9,20.8,36.2,20,35.7z M22.7,34.2
			c-0.2-0.2,0.2-0.4,0.3-0.3C23.1,34.1,22.8,34.3,22.7,34.2z M88.8,58.6c0.3,1.2,0.4,2.5,2.101,2.4c1-0.2,1-1.4,0.899-2.7V46.7
			c0.2-1.2-0.5-1.5-0.3-2.7c0.1-6-0.4-12-0.6-17.3c0-0.2,0-0.3-0.301-0.3c0-0.2,0-0.4-0.3-0.3c0,0.4-0.399,0.4-0.3,0.9
			c0.2,0.8-0.4,0.8-0.3,1.5c-0.2,8.7-0.8,16.8-0.601,25.9C89,55.8,88.6,57,88.8,58.6z M45,30c-0.1-0.3-0.3-0.5-0.6-0.6
			c0,0.4-0.4,0.4-0.3,0.9c-1.1,6.3-0.9,13.4-0.9,20.6v21.7c0.1,2-0.3,4.5,1.8,4.5c2.1-0.5,1-2.3,1.2-4.5v-6.3
			C45.1,54.9,47,40.6,45,30z M69.1,40.8c-0.1-0.3-0.3-0.5-0.6-0.6c-0.1,0.4-0.7,0.3-0.9,0.6C67,49.9,67.1,59.6,66.7,66.1
			c0.6,1.601-0.3,4.601,1.8,4.801c1-1,0.9-3,0.9-5.101C69.2,58.9,69.7,51.4,69.1,45C68.8,43.2,69.8,41.8,69.1,40.8z M99.2,82.5
			c0.5-1.5,0.899-3.3,1.2-5.1C100.6,75,100.3,73,99.8,71.1C98.7,69.7,98.1,67.9,96.5,66.9c-1.1-1.4-2.9-2.101-4.5-3
			c-5.1-0.2-9.5,0.4-13.4,1.5c-2.6,1.6-4.8,3.8-6.3,6.5c-0.5,2.899-0.7,6.199-0.6,9.8C72.1,83.1,72.4,84.6,72.6,86.2
			c0.601,1.2,1.2,2.3,1.5,3.899c0.801,1,1.2,2.301,1.5,3.9c1.2,2.4,2.101,5,3,7.7c1.2,1.8,2.9,3.1,3.9,5.1c0.6,0.9,1.2,1.8,1.5,3
			c0.7,0.8,0.5,2.7,2.4,2.4c2,0,1.6-2.4,2.699-3.3c0.5-1.601,1.301-2.801,1.801-4.5c1.5-2.601,2.6-5.5,3.6-8.601
			c0.5-0.399,0.4-0.899,0.6-1.5c0.101-0.1,0.5-0.399,0.601-0.6c0.3-0.8,0.1-1.101,0.3-1.8c0-0.101,0.5-0.4,0.6-0.601
			C96.9,90.5,96.7,90.4,96.9,89.8c0.1-0.2,0.3-0.2,0.3-0.3c0.399-1.1,0.5-2.5,0.899-3.6c0-0.101,0.2,0,0.301-0.301
			C98.5,85.2,98.6,85,98.7,84.7c0.1-0.4,0.2-0.601,0.3-0.9C99.1,83.2,99.3,83.2,99.2,82.5z M84.3,70.5c0.3,0,0.5-0.1,0.601-0.3H86.1
			C86.4,70.3,86.4,70.1,86.4,69.9H89.1c0.5,0.199-0.199,0.3-0.6,0.3h-1.2c-1.399,0.6-2.2,1.8-3,3C84,73.1,83.5,71.6,83.1,72.6
			C82.3,71.9,84.2,71.3,84.3,70.5z M76.9,84.2C76.3,83.7,76.3,82.7,76.3,81.5c0.4,0.2,0.8,0.4,1.2,0.6
			C77.1,82.7,77.1,83.6,76.9,84.2z M80.2,69.6C79.7,71.1,78.6,72,78.1,73.5C77.7,75.1,76.7,76.1,76.6,78c-0.8-1.4-0.5-3-0.3-4.8
			C77.6,72,78.3,70.3,80.2,69.6C80.1,69.3,80.6,69.5,80.2,69.6z M86.1,106.3c-0.199-0.2,0.2-0.399,0.301-0.3
			C86.6,106.1,86.2,106.4,86.1,106.3z M86.7,105.1C87,106.3,85.8,105.1,86.7,105.1c-0.101-0.899,0.399-1.199,0.6-1.8
			C88,103.6,87,104.8,86.7,105.1z M90,94.7c-0.7,0-0.1-1,0-1.2C90.9,93.7,89.7,94.1,90,94.7z M87.3,84.8c-0.5,3.9-2.399,6.4-3.3,9.8
			C83.2,94,84.4,93,84.3,92.2c0.7-0.4,0.4-1.8,0.9-2.4c0.5-1.6,0.8-3.3,1.5-4.8c-0.101-0.6-1.3-0.1-1.5-0.6
			c-0.7-0.4-1.4,0.699-1.5,0c-1.7-0.2-2.101-1.601-3-2.7c0.2-1.601-0.2-2.8-0.3-4.2c0.199-2.6,2.3-4.7,5.1-3.9
			c1,0.101,1.3-0.5,2.4-0.3c1.199,0,1.5,0.9,2.1,1.5c1.1,0.3,0.6-1.5,1.5-0.6c-0.7,2.7,0.6,4.1,0.3,7.2
			C90.7,83.1,89.8,84.7,87.3,84.8z M92.1,92.3c0,0.4-0.1,0.7-0.6,0.601V92.3H92.1C92,91.9,92.5,92.1,92.1,92.3z M91.8,70.2
			c-0.2-0.9,0.8-0.601,0.601-1.5c1.1-0.3,1.1,0.7,1.8,0.899C93.7,70.9,93.1,70.3,91.8,70.2z M95.6,82.8c-0.5,0-0.6-0.399-1.199-0.3
			c-0.2-1.1,1.1-0.6,1.199-1.5C96.6,81.3,95.3,82,95.6,82.8z M96.8,77.4c0,0.699-0.399,0.5-0.3,0c0-2.2-0.4-4-0.9-5.7
			c1,0.2,0.7,1.7,1.2,2.399V77.4z M70.3,90.8c-0.3,0.5-0.7,0.9-1.2,1.2c-0.899,0.7-1.5,1.7-2.699,2.1c-3.5-2.6-7.3-4.8-11.601-6.6
			c-1.9-1.1-4.1-1.8-6.3-2.7c-2.6-0.7-4.4-2.1-7.7-2.1c-0.1,0.3-0.3,0.5-0.6,0.6c-1.3,1.9-3.6,2.7-5.1,4.5c-2,1.2-3.4,3.2-5.4,4.5
			c-1.4,1.9-3.4,3.2-4.8,5.101c-1.1,0.5-1.5,1.699-2.4,2.399c-0.6,1.101-1.8,1.601-1.5,3.601c1.5,0.899,2.9-0.601,4.5-0.601
			c3.1-2.5,6.3-5,9.2-7.7c1.7-1.1,3.5-2.1,4.8-3.6c2-0.9,3-2.8,5.4-3.3c2.8,1.3,4.8,3.3,7.7,4.5c2.4,1.6,5.1,3,7.1,5.1
			c1.2,0.3,2.2,0.8,3,1.5c0.7,0,0.9,0.5,1.5,0.601c0.5,0.3,0.399,1.199,1.5,0.899c1.7,0.101,1.899-1.3,3.3-1.5
			c0.7-1,2.1-1.2,2.4-2.7v-6C71.3,89.6,71.1,91.2,70.3,90.8z"/>
	</g>
</g>
</svg>
