<?xml version="1.0" encoding="utf-8"?>
<!-- Generator: Adobe Illustrator 16.0.0, SVG Export Plug-In . SVG Version: 6.00 Build 0)  -->
<!DOCTYPE svg PUBLIC "-//W3C//DTD SVG 1.1//EN" "http://www.w3.org/Graphics/SVG/1.1/DTD/svg11.dtd">
<svg version="1.1" id="Layer_1" xmlns="http://www.w3.org/2000/svg"  x="0px" y="0px"
	 width="120px" height="120px" viewBox="4 4 120 120" style="enable-background:new 4 4 120 120;" xml:space="preserve">
<g id="map2">
	<g>
		<path d="M113.8,38.8c-0.399-1.4-1.399-2.2-2.399-3c-1.2-0.7-2-1.8-3.301-2.4c-0.6-0.8-2.199-1.3-2.699-1.8
			c-0.301-0.2-0.301-0.1-0.601-0.3c-1.2-0.7-2.2-1.6-3.6-2.1c-1.9-1.8-4.2-3.2-6.3-4.8c-1.2-0.6-2.301-1.2-3.301-2.1
			c-1.199-0.6-1.6-2.2-3.3-2.4c0-0.2,0-0.4-0.3-0.3c-0.4,0.1-0.6,0.4-1.2,0.3c-2.2,1.3-3.8,3.3-6,4.8c-2.6,1.7-5.2,3.3-7.8,5.1
			c-1.3,0.7-2.3,1.8-3.9,2.4c-0.399,0.7-1,1.2-1.8,1.5c-0.6,0.3-1.1,1.5-1.8,0.9c-3.7-1.6-6.7-4-10.1-6c-1.3-1.4-3.6-1.8-5.1-3
			c-2.1-0.6-3.6-2-6.3-2.1c-1.9-0.1-2.7,0.9-4.5,0.9c-7.5,5-16.7,8.4-24.4,13.1c-0.4,1.1-0.4,2.6-1.2,3.3c-0.4,4.7-0.2,9.6,0,14.3
			c0.6,13.4-1,28.8,0.9,42.6c0.2,2.3-0.4,5.3,0.3,7.2c0.1,0.6,0.8,0.6,1.2,0.899c0.7-0.399,1.4,0.7,1.5,0c0.7,0.8,0.5,2.4,2.4,2.101
			c1.9,0.3,2.3-0.9,3.3-1.5c0.9-0.7,1.7-1.5,2.4-2.4c1.9-1.3,3.3-3,5.1-4.5c1.7-1.5,3.3-3,5.1-4.5c0.9-0.7,1.9-1.3,2.7-2.1
			c1.2-0.4,1.7-1.5,3-1.801c4.1,2,7.6,4.7,11.6,6.9c1.9,1.2,3.9,2.3,5.4,3.9c1.2,0.3,2.2,0.8,3,1.5c0.9-0.101,0.9,0.699,1.8,0.6
			c-0.1,0.9,0.6,1,1.5,0.9c2.301-0.9,4-2.4,5.7-3.9c1.9-1.3,3.8-2.6,5.4-4.2c2.3-0.899,3.399-3,5.7-3.899
			c0.699-0.9,2-1.2,2.699-2.101c1-0.5,1.7-1.399,3-1.8c4,2.6,6.801,6.5,10.4,9.5c1,0.6,1.4,1.8,2.7,2.1c0.8,0.9,1.399,2,2.7,2.4
			c1,0.7,1,2.4,2.699,2.4c1.101,0.6,1.4,2,3.301,1.8c1.199-0.601,1.5-1.5,1.8-3s-0.2-3.2,0-4.8c0.5-1.101,1-2.2,1.2-3.601
			c1.6-13.2,0.5-29.1,1.199-43.2c0.5-2,0.301-4.7,0.301-7.2C113.8,43.1,114.2,40.6,113.8,38.8z M20.5,103.2
			c-0.2-0.2,0.2-0.4,0.3-0.3C20.9,103.1,20.6,103.3,20.5,103.2z M107.6,54C106.9,67.4,107.7,82.6,107,96.3c-4-1.7-6.9-4.5-10.4-6.6
			C92.7,88,90.4,84.8,86.2,83.4c-2.5,0.5-3.7,2.199-5.7,3.3C79,88.1,77,89,75.7,90.6C72.1,92.9,69.1,95.7,65.9,98.4
			C64.7,98.2,64.6,96.9,63.8,96.3c-0.5-0.8-1.7-1.1-2.1-2.1c-2.4-1-3.9-2.8-6.6-3.601c-2.3-1.1-4.4-2.3-6.9-3.3
			C47.5,86.4,46.3,86,45.8,84.9c-0.9-0.601-1.6-1.301-3-1.5c-2-0.2-3.2,0.399-4.2,1.199c-0.5,1.2-2.2,1.2-2.7,2.4
			c-1.1,0.6-1.6,1.8-2.7,2.4c-0.8,0.899-1.4,2-2.7,2.399c-1.5,1.9-3.5,3.3-4.8,5.4c-1,0.7-1.6,1.8-2.4,2.7c-0.2,0.699-1,0.8-1.2,1.5
			c-0.3,0.1-0.9,1.699-0.9,0.3c0.9-1.2-0.4-2.8-0.3-4.2C20.6,79.1,20,61,19.1,43.2c-0.1-1,1.1-0.7,1.5-1.2c0.4-0.3,1.2-0.4,1.5-0.9
			c1.3-0.4,2-1.4,3.3-1.8c2.2-1.2,4-2.8,6.3-3.9c2-1.4,4.6-2.1,6.6-3.6c1.5-0.2,1.9-1.5,3.6-1.5c1-0.6,1.9-1.3,3-1.8
			c3,2.2,6.5,4.1,9.5,6.3c1.5,1.2,3.4,2,4.8,3.3c1.8,0.8,2.8,2.4,4.8,3c2.8-0.3,4.8-1.6,6.6-3c1.9-1.3,3.9-2.5,5.7-3.9
			c4-2.3,7.2-5.4,11-7.8c0.2-0.3,0.5-0.5,0.9-0.6c1.8,1.5,3.3,3.2,5.7,4.2c2,1.3,4,2.6,6.3,3.6c1.1,1.5,2.7,2.5,4.2,3.6
			c1.3,1.2,2.6,2.4,4.199,3.3C108.2,44.9,107.8,49.4,107.6,54z M91.2,46.5c-1.7-1.7-2.101-4.7-4.2-6c-1.8,0-2.1,1.5-2.4,3
			c0.2,2,1.301,3.1,1.801,4.8c-1.7,0.7-3.601,1.2-6,1.2c-0.801,1-2.5,1.1-2.4,3c0.5,0.6,0.7,1,1.5,1.2c0.8,0.2,2.1-0.2,3,0
			c1.9-0.5,3.6-1.1,5.7-1.5c1.399,1.2,2,3.2,3,4.8c1.1,1.5,1.399,3.8,4.5,3.3c0.399-0.5,0.8-1,1.2-1.5c-0.5-3.3-2.5-5-3.601-7.8
			c1.601-0.1,2.7-0.9,4.2-1.2c1.4-0.4,2.7-0.9,2.7-2.7C99.1,43,94,46.3,91.2,46.5z M85.8,53.4c-1.2,1.4-4.5,2.2-3.3,5.1
			c1.4,0.7,2.2-0.7,3.3-1.2c0.9-0.8,2.2-1.2,1.8-3.3C87,53.8,86.7,53.3,85.8,53.4z M47,53.7c-1.9,1.2-6.1,2.6-4.2,5.7
			c1.9,0.1,2.8-0.8,3.6-1.8c1.4-0.4,2-1.6,2.4-3C48.3,54.2,48.1,53.5,47,53.7z M55.1,60.9c-0.1-0.7-0.8-1.3-1.2-1.8
			c-0.5-0.6-0.9-1.5-1.8-1.5c-1-0.1-0.9,0.9-1.5,1.2c0.2,1.6,1.3,2.3,1.8,3.6c1,0.9,1.2,2.5,3,2.7c0.1-0.199,0.2-0.3,0.6-0.3
			C57,63.6,56.1,61.6,55.1,60.9z M75.7,62.6c-0.2,1.1-1.2,1.4-0.9,3C75.1,65.7,75.3,65.9,75.4,66.2c1.399,0.6,2.6-0.8,3.6-1.5
			c1.1-0.9,2.3-1.7,2.4-3.6C79.5,58.9,77,61.7,75.7,62.6z M37.8,61.4c-1.6,1.4-4.1,1.9-4.2,4.8c1.2,1.399,2.9,0,3.9-0.601
			c0.7-1.2,2.1-1.7,2.1-3.6C39,61.8,38.8,61.2,37.8,61.4z M72.4,67.4C71.8,67.2,71.3,66.9,70.6,66.8c0,0.3-0.5,0.3-0.899,0.3
			c-1.101,1-2.5,2-3.601,2.7C66,69.9,65.9,70.3,65.8,70.4c-0.1,0.1-0.5-0.101-0.6,0C65.1,70.5,65,71.2,64.9,71.3
			c-0.2,0.4-0.4,0.601-0.301,1.2c1,2.1,3.7,0.8,4.801-0.3c1.1-1.4,3.399-1.601,3.3-4.2C72.4,67.9,72.3,67.8,72.4,67.4z M27.9,71.3
			c0.6,0.3,0.5,1.3,1.5,1.2c1.6-0.6,2.9-1.4,3-3.6C30.6,67.4,27.9,69.1,27.9,71.3z M58.1,68.3h-0.6c-0.3,0.4-0.3,1.101-0.3,1.8
			c0.9,1.5,2.6,4.2,4.8,2.7c0.4-1.8-0.7-2.1-1.2-3C59.7,69.4,59.8,68,58.1,68.3z"/>
	</g>
</g>
</svg>
