<?xml version="1.0" encoding="utf-8"?>
<!-- Generator: Adobe Illustrator 16.0.0, SVG Export Plug-In . SVG Version: 6.00 Build 0)  -->
<!DOCTYPE svg PUBLIC "-//W3C//DTD SVG 1.1//EN" "http://www.w3.org/Graphics/SVG/1.1/DTD/svg11.dtd">
<svg version="1.1" id="Layer_1" xmlns="http://www.w3.org/2000/svg"  x="0px" y="0px"
	 width="120px" height="120px" viewBox="0 0 120 120" enable-background="new 0 0 120 120" xml:space="preserve">
<g id="microscope">
	<g>
		<path d="M103.092,109.414c0.122-0.717-0.545-0.646-0.297-1.488c-1.628-2.145-4.234-3.314-6.854-4.47
			c-1.207-0.683-2.522-1.249-4.174-1.487c-0.447-0.443-1.305-0.479-2.086-0.597c-0.556-0.437-1.974-0.013-2.383-0.597
			c1.688-2.273,0.641-7.176,0.598-10.428c2.938-0.338,4.278-2.274,6.854-2.979c0.848-0.743,2.382-0.793,3.273-1.488
			c0.695-0.099,1.231-0.356,1.787-0.597c0.43-0.467,1.555-0.234,1.49-1.192c0.471-0.521,0.397-1.587,0.596-2.382
			c-0.412-0.48-0.252-1.537-0.894-1.787c-0.063-0.336-0.333-0.464-0.596-0.596c-0.472-0.028-0.231-0.764-0.894-0.6
			c-2.83,0.42-4.888,1.98-7.15,2.98c-0.562,0.246-1.151,0.34-1.785,0.596c-1.831,0.73-3.596,1.909-5.963,1.786
			c-1.934,1.441-5.045,1.705-7.148,2.981c-0.936-0.146-1.162,0.423-1.785,0.594c-0.465,0.432-1.392,0.398-1.787,0.895
			c-0.846,0.051-1.238,0.545-2.086,0.596c0.174,1.07-1.781,0.009-1.492,1.191c-0.15,1.741,1.041,2.139,1.195,3.576
			c0.557,0.436,1.971,0.012,2.383,0.596c0.42,0.57,1.444,0.539,2.086,0.895c0.615-0.673,1.649-0.932,2.683-1.192
			c1.104-0.278,1.653-1.122,3.272-0.893c-0.176,2.233,1.016,4.995-0.297,6.553c-4.295,0.474-8.93,0.604-13.703,0.599
			c-3.439-1.158-6.91-0.444-11.316-0.599c0.472-7.235-0.019-13.696,0-21.149c-1.971-2.578-7.323-2.758-11.62-2.086
			c-1.208-3.162-2.908-5.832-3.576-9.533c0.064-2.844-0.002-5.559-0.301-8.043c0.377-4.015,0.862-8.348,2.385-10.723
			c0.161-0.25,0.413-0.602,0.597-0.895c0.869-1.393,1.513-2.107,2.385-2.979c1.109-1.109,1.951-2.432,3.575-2.68
			c0.391,1.494,1.229,2.543,1.788,3.871c0.908,1.075,1.211,2.759,2.382,3.576c1.138,2.835,3.678,4.267,4.769,7.149
			c1.823,2.048,2.983,4.761,4.169,7.446c2.078,1.894,2.753,5.192,4.768,7.149c1.108,0.18,1.461,1.121,2.682,1.191
			c1.861-0.227,3.639-0.531,5.064-1.191c1.893,1.086,2.326,3.631,4.766,4.172c2.625,0.34,3.686-0.881,4.768-2.086
			c1.805-0.48,2.858-1.707,4.168-2.683c0.045-1.349,1.326-1.454,1.196-2.979c-0.188-1.503-1.101-2.277-1.788-3.275
			c-0.271-0.526-0.67-0.924-1.193-1.192c-0.148-0.741-0.562-1.224-0.895-1.787c-0.062-0.959,0.527-1.26,0.297-2.383
			c-0.85-1.232-1.615-2.555-1.786-4.468c-0.612-0.321-0.51-0.928-0.895-1.491c-0.294-0.432-0.908-0.771-1.191-1.191
			c-0.178-0.266-0.153-0.662-0.296-0.893c-0.505-0.809-1.354-1.413-1.49-2.383c-1.684-1.692-2.518-4.237-4.171-5.959
			c-0.778-1.701-1.864-3.42-2.683-4.767c-0.169-0.282-0.453-0.374-0.594-0.596c-0.238-0.372-0.07-0.823-0.297-1.191
			c-0.273-0.442-0.938-0.793-1.194-1.192c-0.167-0.26-0.179-0.675-0.298-0.893c-0.766-1.419-1.916-2.604-2.383-4.171
			c1.225-1.161,2.987-1.777,3.276-3.874c-0.172-2.607-1.974-3.589-2.384-5.958c-2.045-1.132-2.393-3.962-5.365-4.17
			c-2.179,0.401-3.523,1.636-4.467,3.276c-0.806-1.113-3.306-1.126-4.468-0.298c-1.894-1.284-2.919-3.437-4.769-4.768
			c-0.433-0.459-1.522-0.262-2.382-0.297c-0.935-1.049-1.559-2.413-3.871-2.085c-0.004,0.394-0.521,0.272-0.595,0.596
			c-0.916,1.57-2.993,1.975-3.58,3.873c0.264,0.932,0.812,1.573,1.197,2.383c-0.643,0.753-1.391,1.395-1.197,2.979
			c0.8,1.984,2.417,3.147,3.279,5.064c-1.128,1.123-2.719,2.46-1.786,4.768c-1.813,0.372-2.754,1.617-4.47,2.085
			c-1.245,1.735-3.438,2.52-4.766,4.172c-1.2,0.288-1.679,1.301-2.384,2.084c-0.903,0.684-1.728,1.45-2.68,2.085
			c-2.696,5.35-4.063,12.028-3.577,20.557c1.568,4.489,2.224,9.896,4.17,14c0.821,2.259,1.627,4.534,2.98,6.259
			c0.707,2.368,2.742,3.411,3.278,5.959c-0.479,3.692-0.707,7.635-0.599,11.916c-0.949,1.435-1.965,2.799-2.68,4.467
			c-0.685,0.41-0.959,1.229-1.488,1.789c-1.184,0.01-1.236,1.147-1.789,1.785c-0.159,2.743,0.122,5.043,1.192,6.555
			c1.966,0.615,3.938,1.227,6.255,1.49c1.271,0.176,1.973-0.217,2.981-0.299c3.358,0.426,6.934,0.456,10.427,0.299
			c7.896-0.356,16.305-0.391,23.534,0c6.865-2.365,17.765-0.707,25.319-2.384c0.97-0.222,0.908-1.479,1.49-2.086
			c0.912,0.215,0.877-0.515,1.785-0.298c0.52-0.273,1.6,0.011,1.492-0.896C103.857,110.535,102.682,110.094,103.092,109.414z
			 M75.387,92.139c-0.464-1.061,1.01-0.182,0.893-0.896C77.146,91.575,75.902,92.212,75.387,92.139z M84.32,65.027
			c0.121,1.271,1.32,1.463,1.492,2.683c-0.651,0.638-1.654,0.926-2.086,1.785c-1.287,0.006-1.1,1.483-2.386,1.489
			c-0.791-0.6-1.485-1.291-2.086-2.084c1.425-1.359,2.976-2.59,4.175-4.17C83.908,64.645,83.943,65.012,84.32,65.027z M64.66,18.256
			c2.703,0.969,2.785,4.563,4.471,6.556c-0.21,0.884-0.98,1.205-1.492,1.787c-0.936,0.042-1.022-0.766-1.188-1.491
			c-0.516-0.383-1.174-0.616-1.197-1.488c-0.875-0.413-1.205-1.377-2.082-1.789c-0.283-0.908-1.449-0.933-1.488-2.085
			C63.123,19.695,63.717,18.802,64.66,18.256z M61.086,27.193c0.073-0.323,0.591-0.201,0.598-0.595h0.891
			c3.533,5.308,7.304,10.372,10.43,16.085c1.121,1.061,1.546,2.823,2.682,3.875c0.5,1.683,1.883,2.486,2.381,4.17
			c1.111,1.076,1.705,2.666,2.685,3.872c0.472,0.621,0.97,1.214,1.188,2.087c0.6,0.494,1.389,0.799,1.492,1.785
			c-1.492,1.688-3.822,2.536-5.66,3.873c-1.799,1.283-3.431,2.729-5.662,3.574c-1.467-2.205-3.198-4.147-4.471-6.552
			c-0.498-0.986-1.601-1.376-2.384-2.089c-0.172-1.513-1.196-2.174-1.784-3.274c-0.369-1.218-1.128-2.05-1.787-2.978
			c-0.979-2.301-2.439-4.115-3.577-6.258c-0.495-0.396-0.461-1.325-0.891-1.787c-0.27-0.527-0.721-0.869-0.896-1.49
			c-0.729-0.859-1.513-1.664-2.085-2.681c-0.63-1.057-1.898-1.478-2.084-2.979c-0.881-0.711-1.874-1.304-2.086-2.682
			c1.237-0.251,1.783-1.196,2.977-1.488c0.757-0.637,2.069-0.716,2.681-1.49C57.963,29.632,59.022,27.912,61.086,27.193z
			 M57.511,22.129c0.075-0.324,0.595-0.201,0.595-0.596c0.81,0.584,1.625,1.153,1.788,2.383c-2.19,1.086-4.231,2.324-5.959,3.873
			c-2.808,0.468-3.949,2.603-6.551,3.277c-0.351-0.445-0.375-1.218-0.895-1.489c0.232-1.555,2.114-1.462,2.68-2.683
			c1.271-0.418,2.13-1.243,2.981-2.083C54.478,24.458,55.694,22.994,57.511,22.129z M50.064,17.064
			c1.391,0.494,1.902,1.87,2.68,2.979c0.222,1.016-1.096,0.49-1.193,1.19c-0.444,0.35-1.217,0.372-1.486,0.895
			c-1.259,0.328-1.892,1.286-3.279,1.49c-0.406-1.281-1.412-1.961-1.785-3.277C46.729,19.29,48.077,17.86,50.064,17.064z
			 M44.104,16.469c0.249-0.747,1.044-0.941,1.489-1.49C46.509,15.72,45.081,16.631,44.104,16.469z M35.169,74.561
			c-0.146-2.733,0.321-6.082-0.298-8.341c-2.547-0.062-1.638,3.329-2.98,4.468v1.789c-0.695-0.099-0.288-1.3-0.894-1.49
			c0.62-3.75,0.714-8.023,1.491-11.616c0.047-0.841-0.845-0.748-1.193-1.192c0.477-1.607,1.523-2.646,1.49-4.767
			c0.117-0.741-1.86-0.881-2.086-0.298c-0.911-0.932,0.365-2.202,0-3.574c0.353-0.343,1.055-0.338,1.789-0.298
			c0.079-1.705-1.695-1.275-0.894-2.98c0.398-0.194,0.553-0.637,0.594-1.192c0.903,0.405,2.456,0.481,2.98-0.297
			c-0.044-1.149-1.009-1.375-0.894-2.682c1.196-0.205,1.697,0.287,2.68,0.299c0.804-0.838-0.527-1.223-0.297-2.383
			c2.28-1.094,3.558-3.193,5.958-4.171c0.277-0.815,0.915-1.271,1.192-2.085c0.48-0.085,0.512,0.281,0.895,0.297
			c0.448,1.537,1.68,2.29,2.082,3.872c0.465,1.059-1.01,0.182-0.895,0.895c-0.39,0.105-0.467,0.526-0.891,0.596
			c-4.505,3.64-7.769,8.519-8.939,15.491v12.81c0.412,2.667,1.333,4.824,2.086,7.148c-2.913-0.433-2.005,2.959-2.978,4.47
			C33.975,78.404,34.93,75.876,35.169,74.561z M37.552,110.311c-1.531,0.154-2.549,0.826-4.468,0.598
			c0.01-1.979,2.114-1.859,2.68-3.277h2.086C38.082,108.855,37.394,109.157,37.552,110.311z M38.742,75.156
			c-0.007,0.291-0.362,0.229-0.596,0.297C38.155,75.166,38.511,75.225,38.742,75.156z M91.176,107.33
			c-0.658,0.73-2.136,0.646-2.979,1.191c-5.713,0.444-11.557,0.762-17.879,0.597c0.094-1.78-0.43-2.942-2.381-2.681
			c-0.857,0.393-0.604,1.877,0,2.383c-1.127,0.91-2.598-0.373-4.172,0c-0.41-0.48-0.25-1.537-0.895-1.788
			c-1.48-0.291-1.178,1.204-2.085,1.489h-3.572c-0.957,0.259-0.933-0.459-1.193-0.895c-0.935-0.143-0.786,0.803-1.489,0.895
			c-1.034-0.238-1.147,0.442-2.085,0.299c0.059-1.448,0.066-2.85-0.595-3.575c-1.519,0.37-1.971,1.806-2.085,3.575H47.68
			c-0.69-0.5,0.286-2.67-1.19-2.383c-1.542,0.344-0.584,3.188-2.681,2.977c-0.972-1.947,0.719-3.585,0.296-5.958
			c-2.357-0.371-1.728,2.247-2.981,2.981c0.021,1.407,0.051,2.826-0.891,3.274c-1.489-0.271,0.123-1.869-0.297-2.979
			c0.59-0.7,0.7-1.877,0.892-2.979c-0.562-1.012-1.044,0.512-1.785,0.301c-0.014-0.598,0.463-0.804,0.599-1.492
			c0.22-1.189-0.177-2.854,0.295-3.873c-0.787-2.19-0.611-5.349-1.193-7.744c-0.176-1.271,0.215-1.969,0.3-2.979
			c0.142-0.938-0.426-1.165-0.597-1.789c-0.314-3.116,0.602-6.19,0.297-10.129c1.443,1.336,2.537,3.027,4.17,4.172
			c3.15,0.229,5.95,0.804,9.238,0.896c0.129,1.022-0.116,1.669-0.298,2.383c-0.169,5.615-0.216,9.899,0,15.491
			c0.235,1.646,0.786,2.982,1.486,4.171c3.198,0.18,6.757-0.004,8.938,1.188c3.681-0.19,7.506,0.174,11.322,0
			c0.948-0.041,2.252-0.408,3.871-0.295c5.413,0.366,10.969,1.567,15.193,2.979C92.457,107.967,91.867,107.42,91.176,107.33z
			 M60.489,46.855c0.625,0.57,1.24,1.142,1.492,2.083c2.162,0.343,4.235,1.613,6.553,0.896c1.596-1.084,2.689-2.674,2.382-5.66
			c-0.709-1.075-1.267-2.309-2.082-3.277c-0.671-1.218-1.981-1.793-2.979-2.682c-1.67-0.178-2.824,0.158-3.873,0.597
			c-1.213,1.768-2.045,3.915-1.788,7.151C60.541,46.012,60.516,46.432,60.489,46.855z M65.254,41.492
			c1.381,0.213,1.975,1.209,2.684,2.087c0.127,1.813-0.354,3.021-1.484,3.574c-1.126,0.128-1.359-0.629-1.791-1.19
			c-0.447-0.447-1.252-0.533-1.488-1.193C63.758,43.567,63.702,41.726,65.254,41.492z M48.871,84.391h-3.573
			c-1.685,0.403-2.166,2.008-3.278,2.979c-0.33,1.259-0.342,2.835-0.297,4.47c1.233,1.984,3.871,3.676,7.148,2.682
			c0.924-1.162,1.514-2.656,1.786-4.471C50.949,87.281,50.228,85.521,48.871,84.391z M47.087,91.242
			c-0.745,0.048-0.925-0.469-1.493-0.594c-0.174-1.469,0.288-2.295,1.79-2.086C47.662,89.739,47.615,90.29,47.087,91.242z"/>
	</g>
</g>
</svg>
