<?xml version="1.0" encoding="utf-8"?>
<!-- Generator: Adobe Illustrator 16.0.0, SVG Export Plug-In . SVG Version: 6.00 Build 0)  -->
<!DOCTYPE svg PUBLIC "-//W3C//DTD SVG 1.1//EN" "http://www.w3.org/Graphics/SVG/1.1/DTD/svg11.dtd">
<svg version="1.1" id="Layer_1" xmlns="http://www.w3.org/2000/svg"  x="0px" y="0px"
	 width="120px" height="120px" viewBox="4 4 120 120" style="enable-background:new 4 4 120 120;" xml:space="preserve">
<g id="minus">
	<g>
		<path d="M98.939,58.282c-0.697-0.13,0.045-1.697-0.932-1.544c-0.277-0.547-0.688-0.959-1.236-1.24
			c-0.625-1.023-0.982-2.314-2.781-2.165c-0.018-0.189-0.045-0.365-0.309-0.308c-0.396,0.02-0.43,0.398-0.931,0.308
			c-2.247-0.288-3.378,0.54-5.256,0.62c-9.79,0.105-20.063-0.271-29.381,0.311c-4.996-0.051-9.357,0.532-14.225,0.616
			c-2.049,0.423-4.638,0.31-7.109,0.312c-2.439,0.037-4.713,0.239-6.185,1.236c-0.959,0.692-1.009,2.294-1.238,3.71
			c-0.582,0.962-0.36,3.321,0,4.327c0.214,3.084-0.22,6.82,1.545,8.352c2.181,1.736,7.23,0.605,10.825,0.928
			c1.971,0.4,4.143,0.597,6.182,0.93h24.432c8.282,0,16.478,0.212,24.123-0.617C100.202,71.711,98.602,64.024,98.939,58.282z
			 M34.306,61.064c0.059-0.351,0.308-0.171,0.308,0C34.555,61.416,34.302,61.237,34.306,61.064z M41.108,64.465
			c-0.052,0.879-0.565,1.291-0.62,2.165c-0.702,0.228-0.09,1.765-1.232,1.548c0.851-2.443,1.374-5.22,2.473-7.423h1.234
			C42.517,62.166,41.9,63.403,41.108,64.465z M47.91,68.488h-2.163c-0.393-0.365-0.13-1.168,0.308-1.547
			c0.034-0.793,0.176-1.475,0.621-1.854c0.217-1.432,0.625-2.679,1.234-3.715c-0.085-0.499,0.293-0.532,0.313-0.925h4.326
			C50.8,62.923,49.257,65.604,47.91,68.488z M77.908,61.064c-0.184,0.645-0.648,1.001-0.926,1.547
			c-0.797,0.857-1.039,2.262-1.856,3.094v2.473h-3.091c0.355-1.705,1.525-2.595,1.547-4.639c-0.061-0.252-0.314-0.309-0.314-0.617
			c-2.353-1.966-4.166,1.188-5.562,2.167c-0.368,1.177-1.134,1.957-1.549,3.089h-4.328c0.449-1.404,1.087-2.623,1.546-4.021
			c0.665-0.844,1.482-2.819,0.31-3.708c-3.327,0.174-4.252,2.755-6.185,4.326c-0.248,1.298-1.089,2.006-1.236,3.401h-2.475
			c1.213-2.6,2.266-5.361,3.402-8.04h21.027C79.482,59.992,78.266,60.969,77.908,61.064z M83.164,61.374
			c-0.443-0.071-0.105-0.922-0.615-0.925c-0.059-0.265,0.118-0.293,0.309-0.312h0.619C83.516,60.693,83.098,60.789,83.164,61.374z
			 M92.443,61.374v6.804h-4.019c-0.172-3.984,1.854-5.77,2.781-8.657h0.621C92.945,59.226,92.258,60.736,92.443,61.374z"/>
	</g>
</g>
</svg>
