<?xml version="1.0" encoding="utf-8"?>
<!-- Generator: Adobe Illustrator 16.0.0, SVG Export Plug-In . SVG Version: 6.00 Build 0)  -->
<!DOCTYPE svg PUBLIC "-//W3C//DTD SVG 1.1//EN" "http://www.w3.org/Graphics/SVG/1.1/DTD/svg11.dtd">
<svg version="1.1" id="Layer_1" xmlns="http://www.w3.org/2000/svg"  x="0px" y="0px"
	 width="120px" height="120px" viewBox="4 4 120 120" style="enable-background:new 4 4 120 120;" xml:space="preserve">
<g id="mobile">
	<g>
		<path d="M94.5,29.7c0-2.4,0.9-3.8,0.6-6.5C94.6,21.7,94.4,20,93.9,18.5c-1.4-2.2-3.101-4-5.301-5.3c-2.1-0.5-4.6-0.7-7.399-0.6
			c-1.3,0.4-1.7-0.2-2.9,0.3c-0.5-0.9-3,0.3-3.5-0.6c-5.3-0.2-9.8-1.2-15.6-0.9c-0.1,0.2-0.2,0.3-0.6,0.3c-3.5,0-6.9,0-9.7,0.6
			c-3.7-0.2-7,0.1-9.4,1.2c-0.1,0.2-0.2,0.3-0.6,0.3c-0.9,1.3-2.7,1.6-2.9,3.5c-1.1,1.1-1.7,2.8-2.4,4.4c0.2,8.4-0.9,16.9-0.9,25.4
			c0,8.7,0.4,17.2,0.9,25.6c-0.4,3.899-0.3,8.3-0.3,12.7c0,4.399-0.2,8.8,0.3,12.699c-0.1,3.2,0,6.101,0.6,8.301
			c0.5,0.5,0.9,1.1,0.9,2.1c1.4,1.3,2.3,3,4.1,3.8c1.7,1.101,3.5,2,5.6,2.7c0.2,0.1,0.6,0,0.6,0.3c5.7,0.3,11.3,0.7,16.8,1.2
			c5.8-0.2,11.1-0.8,17.399-0.6c0.301-0.601,1.9,0,2.101-0.9c1,0.1,1-1,1.8-1.2c0.9-1.1,3.1-0.899,4.4-1.5
			c1.199-2.399,3.699-3.399,5-5.6c1.699-7.9,0.899-18.3,1.5-26.5C94.8,71,95.2,61.8,95.6,52.5C95,44.9,95.1,37,94.5,29.7z
			 M36.1,102.5c-2-0.3-0.9-3.4-0.3-4.4C36.5,99,36,101.1,36.1,102.5z M36.7,96.9c0.2,0.199-0.2,0.399-0.3,0.3
			C36.3,97,36.6,96.8,36.7,96.9z M36.7,103.1C36.4,103.1,36.6,102.7,36.7,103.1c0.5,0,0.9,0.101,1.2,0.301
			C37.8,104.1,36.8,103.4,36.7,103.1z M42,111.9c-0.8,0-0.7-1.4-0.3-1.801c0.6-0.1,0.8,0.2,1.2,0.301
			C43.2,111.6,42.3,111.4,42,111.9z M47,96.9c-0.5-0.2,0-0.5,0-0.9C47.6,96.2,47.1,96.6,47,96.9z M48.8,102.8
			c-0.7-0.899,0.7-2.3,0.9-3.2c0.5,0,0.6-0.399,1.2-0.3C50.4,100.6,49.1,101.2,48.8,102.8z M52.4,109c-0.1-0.3-0.3-0.5-0.6-0.6
			c-0.2-1.7,1.7-2.7,2.7-1.5C54.4,108.3,53.7,109,52.4,109z M53.5,99.6c0-0.3,0.4-0.199,0.6-0.3C54.1,99.5,53.8,99.5,53.5,99.6z
			 M52.7,97.5c-0.8,0.3-1.5,0.7-2.4,0.9c-0.3-2.7,3.1-2.101,5-1.801C54.9,97.4,53.7,97.4,52.7,97.5z M60.3,109
			c-0.8-0.6-1.5-1.5-2.7-1.8c-0.2-0.8-0.6-1.4-1.2-1.8v-4.7c1.3-2.5,4.8-2.9,7.4-4.101c1,0.4,2.101,0.601,2.9,1.2
			c0.899,2,1.899,4,2.1,6.8C68.2,108.4,64.7,109.8,60.3,109z M78.3,103.1c-0.5-1.5,0.4-4.3,2.4-3.199C80.4,101.4,80,103,78.3,103.1z
			 M84.8,98.7V98.1c0.3,0.101,0.3-0.1,0.3-0.3C85.7,97.7,85.5,99.1,84.8,98.7z M84.5,86.3c-0.9,1.2-2.1,2-3,3.2
			c-6.2,0.2-13.1-0.3-18.9,0.3c-3.4-0.2-5.8,0.5-9.1,0.3C52.3,90.4,50.7,90.4,49.1,90.4c-1.7,0.1-3.2,0-3.8-0.9
			c-1-0.1-1.2-1-1.5-1.8c-0.5-0.601-0.6-1.5-0.9-2.4c-0.7-3.6-0.1-7.2-0.3-10.899c0-0.2-0.3-0.301-0.3-0.601c0.1-0.5,0-0.399,0-1.5
			c-0.4-9.7,0.3-20.3,0-30.7c0.1-1.6,0.7-2.6,0.9-4.1c-0.1-1.7,0.1-3,0.3-4.4c-0.1-3.3-0.1-6.6,0.9-8.8c3.7-0.4,7.6-0.7,11.5-0.9
			c3.6-0.5,8-0.2,12.1-0.3c0.5,0.1,0.8-0.5,0.9,0c4.399-0.5,10.699-0.5,15,0c1,2.2,0.6,5.3,0.6,8.3v8.8c0,5.8,0.8,10.8,1.5,15.9
			C84.5,65.3,84.5,75.7,84.5,86.3z"/>
	</g>
</g>
</svg>
