<?xml version="1.0" encoding="utf-8"?>
<!-- Generator: Adobe Illustrator 16.0.0, SVG Export Plug-In . SVG Version: 6.00 Build 0)  -->
<!DOCTYPE svg PUBLIC "-//W3C//DTD SVG 1.1//EN" "http://www.w3.org/Graphics/SVG/1.1/DTD/svg11.dtd">
<svg version="1.1" id="Layer_1" xmlns="http://www.w3.org/2000/svg"  x="0px" y="0px"
	 width="120px" height="120px" viewBox="0 0 120 120" enable-background="new 0 0 120 120" xml:space="preserve">
<g id="money2">
	<g>
		<path d="M116.223,35.982c-0.134-1.815,0.379-4.277-0.509-5.339c-0.877-1.157-2.248-1.819-4.065-2.032
			c-2.053,0.021-2.881-1.186-4.83-1.27c-0.717,0.209-0.656-0.358-1.271-0.254C94.293,26.99,82.4,27.53,72.51,26.069H51.161
			c-0.324,0.015-0.352,0.326-0.762,0.254c-7.067-0.035-13.964,0.098-20.077,1.018h-3.559c-0.757,0.512-2.173,0.365-2.286,1.523
			c-1.058,0.74-0.193,2.543-0.256,3.812c0.479,1.131,0.572,2.648,0.509,4.319c-2.169,0.142-4.053-0.724-5.335,0.509
			c-1.441,1.02-0.294,4.62-1.017,6.354c-2.052-0.105-3.909-0.011-5.084,0.761c-1.759,1.883-1.848,5.436-1.779,9.148
			c0.44,1.679,0.889,3.346,1.272,5.084c-0.064,6.713-0.198,13.358-0.51,19.825c-0.229,6.631-0.361,13.36-0.763,19.821
			c5.197,2.342,12.572,2.51,19.569,3.051h34.054c11.26,0,22.301,0.539,32.531-1.021c-0.178-1.447,0.432-2.11,0.254-3.558v-1.778
			c0.721,0.041-0.211-1.565,0.508-1.523c2.838,0.212,4.916-0.338,6.862-1.018c0.056-0.198,0.212-0.293,0.51-0.256
			c0.546-1.146,1.397-1.987,2.287-2.793c-0.124-0.806,0.456-0.896,0.253-1.779c0.153-0.606-0.316-1.846,0.252-2.034h2.034
			c0.606-0.153,1.847,0.319,2.033-0.254c1.185-0.254,2.739-0.138,3.304-1.017c0.629-5.627,0.156-9.582,0-14.231
			c0-0.009,0.242,0.012,0.256,0c0.157-0.126-0.255-0.322-0.256-0.253c0.008-0.34,0.258-0.569,0.256-0.764
			c-0.011-0.356-0.393-0.47-0.256-1.019c0.012-0.053,0.253-0.379,0.256-0.253c-0.004-0.312-0.236-0.698-0.256-1.018
			c-0.017-0.323,0.284-0.35,0.256-0.764c0.002,0.043-0.224-0.131-0.256-0.255c-0.064-0.262,0.135-0.412,0.256-0.508
			c0.076-0.06-0.312-0.533-0.256-0.763c0.126-0.506,0.062-0.291,0-0.764c-0.049-0.373,0.245-0.533,0.256-0.762
			c0.271-7.193-1.041-14.357,0.254-21.856C116.553,39.376,116.438,37.631,116.223,35.982z M92.84,93.671
			c-10.189,1.498-21.451,1.931-33.037,2.034c-1.062,0.214-1.201-0.494-2.033-0.51c-0.664-0.102-1.395-0.129-1.779-0.508
			c-5.009,0.793-10.361,1.018-16.01,1.018c-5.501,0-11.23-0.447-16.773-0.256c-0.527-0.15-1.67,0.314-1.78-0.254
			c-0.914,0.104-1.968,0.062-2.288,0.764c-0.909,0.5-1.356-0.12-2.542,0c-1.042-1.416-0.977-3.939-1.016-6.354
			c-0.479-1.98-0.167-4.746-0.255-7.116c-0.362-1.556,1.178-2.539,0.255-3.81c0.099-1.431,0.392-2.66,0.253-4.324
			c-0.181-3.229,0.419-5.681,0.256-8.896c-0.614-5.314-1.407-10.453-1.27-16.52c-0.012-0.435,0.189-0.657,0.506-0.762
			c25.789,0.812,52.18,1.021,78.276,1.525C93.232,64.245,92.893,78.816,92.84,93.671z M98.178,89.35
			c-0.025-15.223-1.715-28.779-1.27-44.475c-5.74-0.611-11.909-0.796-18.301-0.76c-18.173-0.454-37.314,0.282-56.165,0
			c-0.533-0.993-0.127-2.925-0.256-4.32c3.063-0.161,6.766,0.324,9.406-0.256c6.344-0.161,12.213,0.153,17.789,0.763
			c5.653,0.532,11.642,0.729,17.537,1.016c12.261-0.021,24.781,0.217,36.088-0.761c-0.682,3.156-0.332,6.517,0,9.91
			c-0.612,5.98-0.694,12.854,0,18.807c-0.112,6.721,0.853,12.363,0.763,19.062C102.102,88.866,100.098,89.066,98.178,89.35z
			 M111.902,80.965c-1.329-0.059-2.541,0.004-3.561,0.252c-0.727-6.557-0.523-14.045-1.27-20.584
			c-0.219-1.146,0.593-1.27,0.763-2.034c0.812-0.119,0.173-1.69,0.761-2.033c-0.258-3.469-1.066-6.384-1.27-9.911
			c-0.531-0.4-0.088-1.777-0.512-2.287v-2.795c-0.215-0.295-0.334-0.681-0.254-1.271c-0.291-0.09-0.645-0.447-0.254-0.507
			c0.438-0.412,0.631-1.066,0.508-2.035c-0.682-0.672-1.412-1.298-3.049-1.016c-4.258-0.033-7.224,0.139-11.184,0
			c-15.207,1.515-31.943,0.44-47.779-0.254c-5.397-0.238-10.752,0.288-16.009,0.507c0.008-1.955,0.077-3.972-0.253-5.591
			c3.512,0.294,7.528-0.883,11.942-0.508c0.412,0.072,0.438-0.24,0.764-0.255h27.954c5.385,0.634,10.609,1.422,16.52,1.526h17.789
			c1.002-0.325,0.662,0.695,1.018,1.014c0.449,0.23,0.742,0.616,1.273,0.764h3.555c1.182,0.267,2.201-0.466,2.797,0
			C111.992,49.54,112.484,65.792,111.902,80.965z M45.571,82.999c0.989,0.28,2.415,0.123,3.05,0.759
			c-0.098,2.557-0.155,5.068,2.286,5.083c1.413-0.366,1.354-2.204,2.034-3.304c-0.169-0.575-0.656-2.131,0.253-2.284
			c1.331-0.062,0.984,1.56,1.019,2.795c0.642,0.204,0.647,1.046,1.014,1.524c0.551,0.38,0.408,1.459,1.273,1.523
			c0.372-1.998,0.656-4.088,0.506-6.607c2.904-0.991,5.057-2.736,6.605-5.083c-0.076-1.435,0.453-2.259,0.257-3.812
			c-0.315-0.7-0.743-1.291-0.763-2.286c-0.531-0.315-0.955-0.738-1.271-1.271c-0.763-0.425-1.901-0.472-2.286-1.271
			c-1.122,0.019-2.186-0.021-2.543-0.765c-0.058-1.328,0.005-2.538,0.253-3.558c0.137-0.881-0.377-2.412,0.51-2.543
			c2.178-0.201,3.023,1.906,5.084,1.018c0.679-0.929-0.09-2.165-0.254-3.05c-0.595-0.084-1.096-0.262-1.273-0.763
			c-1.148-0.372-2.904-0.146-3.557-1.016c0.117-1.672,1.862-4.605-0.51-5.083c-0.681,0.759-0.776,2.1-1.269,3.049
			c-0.12,1.32,0.007,2.888-1.524,2.796c-1.109-0.625-0.258-2.938-0.254-4.066v-1.271c-0.347-0.498-0.244-1.451-0.508-2.032h-1.778
			c-0.313,2.905-0.816,5.625-1.02,8.642c-1.121,0.825-2.285,1.61-3.304,2.542c-0.787,0.143-0.668,1.195-1.523,1.27
			c-0.403,0.619-0.909,1.125-1.525,1.524c-0.027,0.649-0.466,0.892-0.762,1.272c-0.201,0.955-0.447,2.148,0,3.05
			c1.216,1.153,4.362,0.38,5.59,1.522c0.416,0.543-0.275,1.606-0.256,2.541v2.795c-0.463,0.551,0.049,2.08-0.506,2.543
			c-3.167,0.371-3.924-1.67-6.607-1.779C40.309,80.359,43.822,81.867,45.571,82.999z M57.007,75.117v-3.557
			c1.712,0.235,3.022,0.875,3.56,2.287c-0.002,2.452-1.713,3.202-3.307,4.065C56.678,77.479,57.168,75.975,57.007,75.117z
			 M54.213,62.158h0.76c0.058,2.172-0.606,3.627-0.506,5.845c-1.03,0.011-0.214-1.819-0.762-2.287
			C53.624,64.28,53.771,63.07,54.213,62.158z M53.194,76.137c0.311-0.457,0.048-1.479,0.511-1.781
			c-0.425-0.42-0.202-1.488-0.255-2.287c0.296-0.037,0.214-0.461,0.255-0.76c0.294-0.041,0.451,0.057,0.508,0.252
			c-0.594,2.033,0.052,5.307-0.508,7.369C52.483,78.614,53.79,76.593,53.194,76.137z M49.383,68.003
			c-0.327-0.353-1.103-0.252-1.78-0.255c0.056-1.471,1.676-1.375,2.034-2.543C50.535,65.727,49.632,67.148,49.383,68.003z
			 M25.749,56.058c-0.668-1.368-1.472-2.593-2.288-3.811c-2.69-0.722-3.781,1.614-5.593,2.54c-0.089,1.872,0,3.561,0.763,4.574
			C21.737,60.652,25.613,59.319,25.749,56.058z M21.682,53.516c0.631-0.038,0.784,0.401,1.273,0.51v1.525
			c-0.364-0.023-0.722-0.043-0.767,0.253C21.466,55.617,21.154,54.172,21.682,53.516z M82.93,61.143
			c1.478,0.641,2.75,0.828,4.321,0.254c1.231-1.21,1.644-3.917,0.761-5.846c-0.979-0.717-2.088-1.301-3.812-1.271
			c-0.779,0.322-1.339,0.865-2.034,1.271c-0.09,1.265-0.695,2.012-0.508,3.557C82.076,59.789,82.457,60.514,82.93,61.143z
			 M25.749,73.085c1.041,0.024,2.083,0.051,2.796-0.254c0.365,0.991,0.966,1.743,1.777,2.286c0.944,0.182,1.09-0.434,2.033-0.252
			c0.407-0.441,0.949-0.746,1.525-1.018c0.232-0.701,1.455-0.41,1.527-1.271c0.581-0.52,0.089-2.108,0.253-3.051
			c-0.525-0.067-0.063-1.125-0.764-1.017c0.11-0.7-0.946-0.239-1.017-0.764c-1.202-0.34-1.443,1.589-2.033,1.019
			c-0.198-0.563-0.534-0.99-0.506-1.779c-1.113-0.243-1.671-1.041-3.306-0.764c-0.699,0.487-0.863,1.51-1.524,2.032
			c-0.353,0.92-1.119,1.427-1.27,2.541C25.109,71.859,25.38,72.521,25.749,73.085z M71.746,73.339
			c-0.064,0.912,0.766,0.933,0.764,1.778c0.912,0.021,1.469,0.396,2.289,0.512c0.037-0.474,0.86-0.158,1.014-0.512
			c0.506-0.002,0.322-0.693,1.021-0.508c0.515-0.588,0.843-1.357,1.776-1.524c1.271,1.384,4.742,1.159,5.849-0.254
			c0.125-1.567-0.353-2.528-1.524-2.795c-0.812,0.038-1.117,0.577-2.033,0.509c-1.004,0.069-0.777-1.088-1.778-1.018
			c-0.599,0.006-0.751-0.438-1.526-0.254c-1.334,0.527-1.272,2.455-3.049,2.543c0.135-1.066-0.445-1.422-0.508-2.289
			c-0.535-0.484-1.303-0.73-2.033-1.018c0.053,0.487-0.537,0.299-0.764,0.51c-0.199,0.188-0.088,0.521-0.254,0.764
			c-0.146,0.205-0.635,0.283-0.762,0.506c-0.615,1.053-0.861,2.977,0,4.066C71.082,74.369,71.324,73.766,71.746,73.339z
			 M29.051,82.488c-1.215-0.309-1.982-1.064-3.556-1.019c-1.828,0.466-2.719,1.855-3.813,3.052
			c-0.493,1.881-0.172,3.922,0.507,5.338c1.179,0.433,2.28,0.938,3.813,1.016c0.925-0.261,1.573-0.801,2.543-1.016
			c0.673-1.613,1.742-2.83,1.522-5.338C29.696,83.881,29.171,83.386,29.051,82.488z M24.478,87.572
			c-0.064-1.76,0.525-2.865,2.034-3.051C27.607,85.799,26.424,88.559,24.478,87.572z M84.456,81.979
			c-0.968,0.562-2.067,0.987-2.798,1.778c-0.674,1.529-1.2,3.205-1.27,5.339c0.752,1.618,1.902,2.84,4.065,3.053
			c3.032-0.354,5.065-1.711,5.589-4.575c0.156-2.36-0.854-3.556-1.779-4.829C87.104,82.383,85.879,82.082,84.456,81.979z
			 M85.979,87.825h-1.271c-0.112-0.871,0.101-1.423,0.257-2.034h1.014C86.352,86.162,86.352,87.455,85.979,87.825z"/>
	</g>
</g>
</svg>
