<?xml version="1.0" encoding="utf-8"?>
<!-- Generator: Adobe Illustrator 16.0.0, SVG Export Plug-In . SVG Version: 6.00 Build 0)  -->
<!DOCTYPE svg PUBLIC "-//W3C//DTD SVG 1.1//EN" "http://www.w3.org/Graphics/SVG/1.1/DTD/svg11.dtd">
<svg version="1.1" id="Layer_1" xmlns="http://www.w3.org/2000/svg"  x="0px" y="0px"
	 width="120px" height="120px" viewBox="0 0 120 120" enable-background="new 0 0 120 120" xml:space="preserve">
<g id="money3">
	<g>
		<path d="M113.955,42.337c-0.641-1.662-2.02-2.583-3-3.903c-2.688-1.314-5.68-2.328-9.307-2.701c-5.113-0.181-6.16-0.176-11.404,0
			c-2.008,0.594-4.312,0.895-6.305,1.5c-0.774,0.525-2.166,0.434-2.701,1.201c-0.557,0.041-1.004,0.197-1.199,0.6
			c-0.752-0.396-0.941,1.186-1.202,0.3c-0.606-2.394,0.03-6.034-0.599-8.402c-0.613-0.091-0.592-0.813-1.203-0.902
			c0.049-0.85-1.852,0.251-1.801-0.601c-0.824-0.974-1.977-1.627-3.002-2.402c-1.34-0.258-2.293-0.906-3.902-0.898
			c-1.008-0.992-2.592-1.411-3.902-2.102c-4.899-0.304-9.385-0.321-13.208,0.6c-3.921,0.946-6.926,2.752-9.303,5.102
			c-0.235,0.97-0.631,1.775-1.201,2.402c-0.594,6.383-1.008,14.16,0,20.414h-4.803c-0.347,0.252-0.808,0.395-1.5,0.298
			c-1.838,0.567-3.395,1.411-5.103,2.104c-0.74,0.661-1.319,1.483-2.402,1.798c-0.713,0.791-1.194,1.812-2.4,2.103
			c-1.68,1.226-3.206,2.597-4.803,3.902c-1.521,2.283-3.031,4.574-3.606,7.805c-0.677,3.121-1.737,5.867-2.098,9.307v5.103
			c0.267,0.731,0.699,1.304,0.598,2.4c0.82,0.774,0.943,2.036,1.5,3.003c0.394,0.68,1.181,1.381,1.504,1.803
			c0.181,0.241,0.099,0.654,0.299,0.896c0.65,0.802,1.609,1.312,2.401,2.104c0.726,0.727,1.375,1.812,2.103,2.4
			c0.117,0.094,0.457-0.062,0.599,0c0.1,0.046,0.188,0.525,0.299,0.601c0.141,0.095,0.449-0.065,0.603,0
			c0.094,0.043,0.191,0.524,0.298,0.603c2.127,1.471,4.273,2.435,6.604,3.304c0.163,0.06,0.703,0.539,0.904,0.598
			c0.171,0.054,0.415-0.01,0.598,0c0.337,0.019,0.45,0.259,0.6,0.302c2.741,0.75,5.68,0.842,9.007,0.9
			c3.356-0.445,6.118-1.482,8.703-2.702c1-0.899,2.285-1.518,3.304-2.401c0.481-0.414,0.947-0.851,1.5-1.198
			c0.555-0.445,0.448-1.552,1.499-1.502c1.147,0.649,2.851,0.753,4.204,1.2c0.976-0.176,1.396,0.205,2.101,0.302h8.104
			c1.457-0.548,2.939-1.063,3.902-2.104c0.619,0.086,0.074,1.332,0.898,1.203c0.396,0.387,1.104,0.387,1.504,0
			c1.438-0.562,0.729-3.271,0.899-5.104c1.069,0.43,1.935,1.066,3.3,1.201c0.854,0.648,2.451,0.553,3.305,1.203
			c2.838-0.037,5.084,0.519,8.104,0.299c4.08-0.521,8.283-0.918,11.105-2.703c1.717-0.58,2.838-1.762,4.201-2.698
			c0.879-1.524,2.494-2.312,3.002-4.204c0.746-2.341,0.105-4.784,0-7.204c-0.455-10.327,0.396-21.212,1.5-30.317
			C113.907,46.087,114.102,44.383,113.955,42.337z M48.518,31.229c2.867-1.538,7.065-1.74,10.209-3.002
			c2.789,0.19,4.682-0.519,7.501-0.299c1.573,0.927,3.609,1.389,4.502,3.003c0.324,1.534-0.125,1.977,0.303,3.299
			c-3.348,1.854-7.627,2.784-12.007,3.602c-0.038,0.666-1.274,0.13-1.803,0.302c0.054,0.652-1.062,0.138-1.499,0.301
			c-1.094,0.203-2.182,0.417-3.603,0.302c-2.578,0.073-4.086-0.917-5.103-2.402C46.722,33.835,47.538,32.45,48.518,31.229z
			 M56.625,74.455c-0.084,1.016-0.479,1.722-0.3,3.001c-0.44,0.562-0.01,1.987-0.601,2.403c-0.109,1.891-0.5,3.5-1.201,4.801
			c-0.581,3.521-2.54,5.664-4.203,8.104c-2.385,1.618-4.481,3.521-8.105,3.903c-1.467-0.101,0.457-0.31,0.3-0.899
			c0.705-0.1,0.294-1.312,0.901-1.502c-0.284-1.418-0.586-2.815-0.601-4.502c3.193-0.511,4.901-2.504,6.604-4.505
			c0.129-1.372,0.458-2.544,0.3-4.202c-0.707-3.692-4.4-4.401-8.103-5.104c-0.188-0.812,0.379-2.381-0.302-2.7
			c0.131-0.868,2.269,0.269,2.4-0.603c0.915,0.016,1.169-0.635,1.8-0.896c0.101-0.704,0.363-1.243,0.602-1.805
			c-0.251-2.648-2.226-3.575-5.402-3.299c-0.139-1.465,0.314-3.519-0.303-4.504c-0.241-0.203-0.351-0.728-0.601-0.901
			c-0.017-0.013-0.704-0.329-0.598-0.302c-1.69-0.499-3.239,0.599-3.904,1.5v5.707c-2.308,0.793-4.028,2.176-4.803,4.5
			c-0.206,1.209,0.288,1.717,0.3,2.705c0.281,0.819,0.922,1.28,1.202,2.101c0.617,1.083,1.78,1.62,2.402,2.702
			c1.356,0.24,1.728,1.473,1.5,3.304c-0.023,0.976-1.359,0.642-2.103,0.897c-0.204,0.697-0.998,0.805-1.201,1.5v2.102
			c0.542,1.562,2.438,1.77,3.903,2.4c-0.234,1.236,0.461,1.545,0.302,2.699c0.833,1.07,0.793,3.008,2.401,3.307
			c-0.417,0.59-2.548,0.363-3.002,0c-1.261,0.156-1.677-0.525-2.701-0.602c-1.754-0.449-2.827-1.574-4.503-2.102
			c-2.354-2.049-4.895-3.912-6.603-6.604c-0.436-2.568-0.988-5.021-1.503-7.509c0.373-3.604,0.381-8.438,2.102-11.704
			c0.443-0.841,1.186-1.714,1.802-2.402c0.64-0.717,1.685-1.184,2.101-2.1c1.932-0.369,2.737-1.863,4.502-2.402
			c1.001-1.301,3.079-1.522,4.503-2.398c2.26,0.158,3.67-0.533,6.004-0.302c5.596,0.708,9.064,3.543,12.307,6.603
			c0.059,1.141,1.263,1.141,1.201,2.402c0.721,0.379,0.604,1.598,1.2,2.104v5.104L56.625,74.455L56.625,74.455z M42.215,83.462
			v-1.504c0.917-0.215,1.094,0.308,1.805,0.3C43.584,82.824,43.346,83.59,42.215,83.462z M69.83,92.766
			c-3.705,0.006-7.527,0.121-10.505-0.6c0.099-1.104,0.739-1.664,0.899-2.704c2.336,0.169,4.152,0.853,6.606,0.901
			c1.633-0.168,3.131-0.471,4.502-0.901c1.471-0.332,2.936-0.667,2.7-2.7c-0.036-1.861-1.88-1.921-3.9-1.802
			c-2.696,0.802-5.593,1.41-8.702,1.802c0.187-1.311,0.497-2.502,0.896-3.602c4.646,0.646,11.222,0.881,12.009-3.301
			c-0.657-3.746-7.32-1.482-11.105-2.104c-0.283-0.654,0.185-2.695,0-4.205c4.431,0.129,8.304-0.302,9.004-3.898
			c-0.481-0.521-0.907-1.092-2.102-0.902c-0.783,0.115-1.646,0.156-2.104,0.604c-1.633,0.266-2.977,0.823-5.102,0.599
			c-0.902-2.601-1.755-5.245-3.602-6.902c1-0.604,2.93-0.272,3.902-0.899c1.676-0.428,3.101-1.103,4.502-1.802
			c1.041-0.958,2.356-1.646,2.701-3.301c-0.433-1.158-2.943-1.537-4.203-0.9c-1.625,0.171-3.029,0.57-4.203,1.198
			c-0.795,0.003-1.713-0.111-2.102,0.303c-2.52,0.119-4.704-0.103-6.901-0.303c-1.167-0.935-2.738-1.464-3.902-2.396
			c-0.922-0.079-1.351-0.654-2.103-0.904c-0.829-0.169-1.684-0.315-1.503-1.498c0.435-0.07,0.104-0.896,0.602-0.903
			c-0.09-1.223,0.626-0.157,1.201-0.299c0.354,0.347,1.062,0.341,1.803,0.299c0.615,0.686,2.588,0.011,3.299,0.603h6.307
			c1.865-0.238,3.785-0.417,5.701-0.603c0.545-0.554,1.811-0.39,2.402-0.899c0.828-0.175,1.253-0.746,2.102-0.897
			c0.076-1.167,1.521-2.091,0.603-3.305c-1.177-1.39-3.442,0.021-5.403-0.3c-1.662,0.338-3.789,0.216-5.402,0.602
			c-4.412-0.094-9.333,0.325-12.91-0.602c-0.399-0.9-0.305-2.298-0.302-3.601c8.643,1.828,20.309,1.578,26.715-2.402h0.9v6.604
			c1.405,9.799-0.379,22.791,1.502,32.117c-0.021,4.523,0.538,8.465,0.6,12.906C73.291,91.051,71.332,92.204,69.83,92.766z
			 M104.652,87.359c-1.375,0.529-2.48,1.324-3.604,2.103c-1.257,0.146-2.225,0.58-3.299,0.901
			c-5.308-0.014-9.289,0.346-14.108-0.299c-1.586-1.021-3.824-1.383-5.104-2.705c-0.1-1.195,0.533-1.664,0.299-3
			c3.979,1.324,8.419,2.188,13.807,2.101c3.94-1.163,8.463-1.744,11.406-3.899c1.309-0.307,1.385,0.621,2.104,0.901
			c0.979-0.079,1.443,0.354,1.502,1.198C107.619,86.529,105.527,86.335,104.652,87.359z M105.254,73.553
			c-0.255-0.881-0.968,0.18-1.504,0h-5.701c-1.043,0.24-1.156-0.445-2.102-0.299c-3.727,0.223-6.523-0.482-10.205-0.299
			c-2.528,0.021-3.735-1.271-6.307-1.2V67.85c0.994,0.51,2.16,0.846,3.004,1.504c2.021-0.121,3.535,0.268,5.103,0.599
			c3.378-0.621,7.849-0.155,11.705-0.3c1.104-0.197,2.282-0.32,3.308-0.602c0.74,0.047,1.242-0.152,1.495-0.601
			c0.438-0.162,1.554,0.354,1.505-0.3c0.447,0.449,0.903,0.896,1.5,1.203c0.219,1.191,0.219,1.205,0,2.399
			c-0.515,0.382-1.182,0.618-1.203,1.499v7.206c-0.846-0.257-1.229-0.974-2.398-0.903c-2.157,0.545-4.613,0.79-6.904,1.201h-7.505
			c-2.392-0.21-4.492-0.711-6.903-0.896c-0.752,0.048-0.729-0.674-1.197-0.902c-0.92,0.219-0.885-0.521-1.805-0.301v-3.004
			c0.771,0.035,1.053,0.554,1.504,0.902c0.768,0.031,1.43,0.17,1.801,0.601c2.504,0.501,5.498,0.503,8.104,0.901h9.006
			c1.322-0.479,3.154-0.449,3.9-1.502C105.186,76.789,106.131,74.971,105.254,73.553z M105.555,81.958
			c-0.156-0.156,0.215-0.383,0.297-0.298C106.01,81.814,105.635,82.042,105.555,81.958z M106.152,63.048
			c-5.045,1.761-10.844,2.763-18.01,2.4c-1.219-0.384-3.041-0.159-4.203-0.601c-1.586,0.372-3.068-0.922-4.203,0
			c-0.682-0.418-0.112-2.09-0.301-3.004v-3c1.942,0.858,3.969,1.636,6.307,2.1h7.203c2.396-0.405,4.447-1.151,6.604-1.799
			c1.562-1.237,4.762-0.841,5.4-3.001c-0.34-1.158-1.285-0.812-2.397-0.602c-0.454,0.746-2.024,0.376-2.702,0.9
			c-5.117,0.008-9.664,1.08-14.406,0.602c-2.278-0.328-3.709-1.498-6.008-1.802c-0.035-2.067,0.162-4.363-0.302-6.003
			c1.136,0.666,2.202,1.397,3.306,2.101c8.43,1.687,17.742-0.295,25.215-1.498C107.215,54.304,106.09,58.081,106.152,63.048z
			 M82.439,46.538c-1.106-0.896-2.703-1.299-3.604-2.402c-0.217-0.986,0.599-0.459,0.601,0h1.803c2.896-1.205,5.796-2.408,9.604-2.7
			c0.42-0.685,2.092-0.111,3.001-0.299h9.009c2.152,0.543,4.771,0.627,5.4,2.7C100.992,45.932,91.766,47.494,82.439,46.538z"/>
	</g>
</g>
</svg>
