<?xml version="1.0" encoding="utf-8"?>
<!-- Generator: Adobe Illustrator 16.0.0, SVG Export Plug-In . SVG Version: 6.00 Build 0)  -->
<!DOCTYPE svg PUBLIC "-//W3C//DTD SVG 1.1//EN" "http://www.w3.org/Graphics/SVG/1.1/DTD/svg11.dtd">
<svg version="1.1" id="Layer_1" xmlns="http://www.w3.org/2000/svg"  x="0px" y="0px"
	 width="120px" height="120px" viewBox="4 4 120 120" style="enable-background:new 4 4 120 120;" xml:space="preserve">
<g id="mouse">
	<g>
		<path d="M108.1,82c-1.1-4-2.3-7.8-3.199-12c-2.7-4.5-4.601-9.9-7.9-13.9c-3-4.4-6.3-8.4-10.1-12c-3.5-3.9-6.301-8.4-10.101-12
			s-8-6.7-13.9-8.2c-3-0.5-6.5-0.4-9.1-1.3c-5,0.7-9.6,1.9-12.6,4.7c-3-3.3-6.3-6.3-9.1-9.8c-1.2-1.6-3-3-4.7-4.7
			c-1.8-1.8-3.2-4.4-6-4.1c-0.8,0.5-1.4,1.1-1.6,2.2c-0.1,2.2,1.3,2.9,1.9,4.4c1.2,1,1.5,2.9,2.8,3.8c0.6,1.5,1.7,2.5,2.5,3.8
			c0.9,1.3,2.1,2.3,2.8,3.8c1.2,0.7,1.9,1.9,2.8,2.8c1,1,2.4,1.7,2.8,3.2c-1.1-0.8-2.5,0.2-3.5,0.6c-3.6,4.4-5.9,10-5.4,18.6
			c1.1,5.6,1.8,11.5,3.5,16.4c1.2,5.5,4.1,9.3,6,14.2c1.5,1.8,2.3,4.2,3.8,6c0.4,1.3,1.2,2.1,1.9,3.2c0.4,1.3,1.5,1.8,1.9,3.2
			c1.4,2,3,3.699,4.1,6c1,0.699,1.6,1.8,2.2,2.8c0.9,0.8,1.7,1.6,2.2,2.8c4.3,2.8,7.4,6.7,11.3,9.8c1,0.2,1.9,0.7,2.5,1.3
			c2.8,0.801,6.5,0.7,9.5,1.301C75.8,118.4,77,118.6,77.3,118c1,0,1.4-0.7,2.5-0.6c0.4-0.5,1.4-0.5,1.9-0.9c0.5-0.5,1.1-1,2.2-0.9
			c1.399-0.5,3.399-0.399,5-0.6c0.699-0.4,1.399-0.9,2.5-0.9c0.399-0.6,1-1.1,1.899-1.3c1.4-1.3,2.9-2.5,4.101-4.1
			c1.399-1.3,3.399-2.101,4.699-3.5C106.2,99.2,108.7,92.1,108.1,82z M45.7,77.9c-0.5-0.5-0.8-1.101-1.6-1.301
			c0.1-0.699,1.4-0.3,1.6-0.899C46.4,75.9,46,77.6,45.7,77.9z M40.3,72.5c-1.3,0-1.3-1.4-1.9-2.2c-0.5-0.899-1.3-1.5-1.3-2.8
			c-0.5-0.8-0.9-1.8-0.9-3.2c-0.7-0.5-0.3-2.3-0.9-2.8c-0.6-4.6-1.9-8.6-1.9-13.9c-0.1-0.9,0.5-1.1,0.9-0.6
			c-0.2-1.1-0.9-1.6-0.6-3.2c1.1-4.9,5.7-6.3,9.1-8.8h1.6c0.4,0.6,0.8,1.1,1.3,1.6c0.2,1-0.4,1.2-0.6,1.9c-0.1,1.2,1.3,0.8,0.9,2.2
			c-3,2.7-1.4,9.8,1.3,11.7c1.6,0.4,3.4,0.6,5,0.9c1,0,1.7-0.1,2.2-0.6c1.6,1.5,2.8,3.5,4.4,5c-0.2,1.2-1.7,1.2-2.2,2.2
			c-0.7,0.7-1.8,1-2.2,1.9c-1.9,0.8-2.8,2.7-4.7,3.5C47.1,68.2,44,70.7,40.3,72.5z M98.6,91.1C97.5,94.4,95.4,96.7,94.2,99.9
			c-2,1.8-4.3,3.3-6.3,5c-1.601-0.2-2.2,0.5-3.801,0.3c-1.3,0.5,0-1.601-0.899-1.601c0.1-0.8-0.5-1-0.9-1.3
			c-2.2-0.1-1.899,2.3-2.5,3.8H77.9c-1-0.699-0.801-2.6-1.301-3.8C76.3,100.9,76.2,99.4,75,98.8c-2.2,0.5-1.5,4-2.2,6
			c-0.7-0.1-1.2-0.5-2.2-0.3c-1-2.2,0-6.5-2.199-7.6c-1.4,0-1.2,1.5-1.9,2.199c-0.2,1.101-0.1,2.601-0.6,3.5
			c-1.7-0.1-0.801-2.8-1.601-3.8c0-1.7-0.4-3-0.6-4.399c-0.5-2.801-0.5-6.301-2.2-7.9c-2.1,0.6-1.8,3.6-2.5,5.7V96.6
			c0.2,1-0.6,0.5-0.6,0C58,96.5,57.8,96.2,57.8,95.7c-0.8-0.3-1-1.101-1.6-1.601c0.1-0.399-0.1-0.6-0.3-0.6c0-1.2-0.3-2-0.6-2.8
			C55.5,89,54.9,88.1,55,86.6c-0.8-0.6,0.3-3-0.9-3.199c-1.9,0.5-1.3,3.399-1.6,5.399c-1.7-0.5-0.9-3.5-1.6-5v-6.3
			c-0.3-1.5-1.1-2.5-1.6-3.8c2.9-1.5,5.2-3.601,7.9-5.4c2.2-2.2,5.1-3.7,7.2-6c1.7-0.5,2-2.4,3.8-2.8c0.899-1.3,2.3-2.1,3.2-3.5
			c2.399-1.9,4.1-4.5,5.699-7.2c0.301-2,1-5.6-0.899-6.3c-2.7-0.3-3.101,1.7-3.8,3.5C70.8,47.3,69.3,48.8,68,50.4
			c-2.1,0.7-2.6,3.1-4.7,3.8c-1.2-1.6-2.8-2.8-3.8-4.7c0.2-1.1,1-1.5,1.3-2.5c0.6-4.3-0.7-7.7-3.2-9.8c-1.1-0.3-2.3-0.4-3.5-0.6
			c-1.3,0.1-3-0.3-3.5,0.6c-1.1-0.4-1.2-1.8-2.2-2.2c0.5-1.2,0.5-1,0.3-2.5c1.2-1,2.8-1.6,4.4-2.2c1.5-0.6,3-1.4,4.7-1.6
			c1.4-0.1,2.8,0.4,4.4,0.3c2.2,1.6,4.899,2.7,6.899,4.4c2.101,1.6,4,3.4,6,5v1.9c2.601,3.2,5,6.6,7.9,9.5c0.8,2.1,3.1,2.8,3.8,5
			c1.4,1.4,2.4,3.3,3.5,5C95.1,66.4,98.1,74.9,102.9,81.5C101.4,84.8,100.4,88.4,98.6,91.1z"/>
	</g>
</g>
</svg>
