<?xml version="1.0" encoding="utf-8"?>
<!-- Generator: Adobe Illustrator 16.0.0, SVG Export Plug-In . SVG Version: 6.00 Build 0)  -->
<!DOCTYPE svg PUBLIC "-//W3C//DTD SVG 1.1//EN" "http://www.w3.org/Graphics/SVG/1.1/DTD/svg11.dtd">
<svg version="1.1" id="Layer_1" xmlns="http://www.w3.org/2000/svg"  x="0px" y="0px"
	 width="120px" height="120px" viewBox="0 0 120 120" enable-background="new 0 0 120 120" xml:space="preserve">
<g id="file7">
	<g>
		<path d="M83.76,79.852c-0.115,6.582,0.098,12.836,0.283,19.112c-0.82,1.937-0.398,5.115-2.281,5.993
			c-1.684,0.07-1.725-1.506-3.707-1.143c-7.785-0.112-16.096-0.709-23.394,0.285c-4.028,0.063-7.728,0.451-11.699,0.57
			c-3.19,0.896-7.265,0.911-11.411,0.854c-1.613,0.188-1.571-1.28-2.854-1.426c-0.411,1.012-2.438,0.412-3.707,0.57
			c-0.735-0.503-1.231-1.242-1.995-1.712c0.303-1.542-0.775-1.7-0.572-3.138c0.492-0.974-0.222-1.674,0-3.139
			c0.191-1.041,0.398-2.076,0.285-3.426c-0.099-5.14,0.339-9.743,0.571-14.55c-0.497-11.013,0.663-22.688,0.284-34.521
			c-0.17-0.594,0.351-1.877-0.284-1.996c0.306-0.733-0.869-1.361,0-1.713h4.277c1.788-0.495,3.895-0.671,6.276-0.571
			c1.699-0.679,4.092-0.664,5.424-1.714c1.096-2.541-0.324-5.425-0.288-8.556c-0.808,0.046,0.237-1.76-0.567-1.714
			c0.215-1.074-0.352-1.361-0.289-2.281c-0.76-0.951-0.45-2.973-0.855-4.279c1.846,0.038,3.129-0.486,4.852-0.569
			c6.273,0.188,12.338,0.596,18.827,0.569c3.391,0.604,7.439,0.548,11.129,0.854h2.852c0.869,0.18,2.459-0.365,2.854,0.286
			c0.895,0.06,2.094-0.193,2.568,0.287h1.426c0.531,0.272,0.955-0.855,1.145,0c0.168,1.501-0.215,2.45-0.287,3.707
			c0.646,0.213,0.111,1.601,0.287,2.284c-0.062,0.918,0.504,1.207,0.283,2.283c-0.104,7.046,0.508,13.376,0.287,20.537
			c0.572,0.377,0.965,0.938,1.139,1.714c0.674,0.28,0.477,1.43,1.43,1.428c2.783-1.492,1.199-4.607,1.426-7.99
			c0.211-1.406,0.598-2.637,0.855-3.993c0.168-3.918,0-7.793,0-12.269c0-4.532-0.012-8.988-0.855-12.838
			c-1.793,0.012-3.34,0.275-4.852,0.571c-0.783-0.452-1.492-0.983-2.854-0.855c-15.685-0.006-30.898-0.48-46.789-0.286
			c-0.41,0.159-0.697,0.445-0.857,0.856c-0.459,0.68-1.022,1.256-1.424,1.996c-0.937,0.629-0.474,1.169-0.858,1.999
			c-1.925,1.594-3.497,3.541-4.848,5.706c-1.506,2.109-3.339,3.888-3.995,6.848c-0.876,0.551-1.291,1.561-1.998,2.283
			c-0.45,0.973-1.732,1.117-1.712,2.566v6.846c0.3,1.413,0.646,2.776,0.856,4.28c-0.491,8.868-0.567,18.254-0.567,27.673
			c0,9.529-0.39,19.012,0,27.961c0.8,1.416-1.403,2.574,0,3.994c1.262,1.109,3.593,0.282,5.421,0.282
			c1.606-0.579,3.925-0.444,5.702-0.854c9.157-0.172,15.792,0.426,23.966-0.287c7.972-0.763,16.463-0.563,24.819-0.285
			c2.734,0.289,6.301,1.02,8.848,0.572c0.719-0.519,1.252-1.221,1.424-2.285c0.188-1.139,0.859-1.803,1.145-2.852V80.135
			C87.453,79.262,84.963,80.443,83.76,79.852z M32.976,26.5c-0.609,0.135-0.545-0.406-0.57-0.855
			C32.755,25.77,32.992,26.01,32.976,26.5z M30.695,27.643h0.855c0.376,1.429,1.374,2.24,2.281,3.136
			c-0.225,1.175,0.439,1.466,0.286,2.568c-1.337-0.088-1.155-1.697-2.282-1.996c-0.412-1.014-1.156-1.696-1.999-2.282
			C30.003,28.476,30.437,28.146,30.695,27.643z M29.836,33.347c0.354,0.883,0.942,1.532,1.714,1.999
			c-0.258,0.771-1.052-0.241-1.14-0.573c-0.42-0.245-0.905-0.425-0.858-1.139c-0.768-0.563-1.363-1.3-1.711-2.283
			C28.947,31.576,28.928,32.93,29.836,33.347z M25.56,34.203c0.686,0.551,0.945,1.525,1.708,1.997
			c-0.76,0.569-2.512,0.147-3.422,0.573C24.25,35.747,25.08,35.152,25.56,34.203z M110.861,63.02
			c-0.375-0.767-0.764-1.517-1.141-2.281c-0.715-0.427-1.572-0.714-1.998-1.43c-1.66-0.62-2.68-1.884-4.277-2.566
			c-0.969-1.314-2.285-2.281-3.707-3.14c-1.49-0.984-2.137-2.807-4.85-2.566c-0.361,0.116-0.588,0.369-0.574,0.857
			c-0.395,0.65-0.582,1.509-0.854,2.28c0.201,1.06-0.485,1.226-0.287,2.284c-0.176,0.772,0.363,2.264-0.284,2.567h-4.279
			c-2.846,0.292-5.467,0.812-8.562,0.856c-2.551,0.681-6.541-0.075-8.56,1.142c-0.903,1.186-0.659,3.521-1.141,5.135
			c0.37,3.777-1.076,7.632,1.141,9.416c3.359-0.064,5.724-1.125,8.847-1.426c4.914,0.334,9.349-1.287,13.694-0.572
			c-0.131,3.176-0.036,6.119,2.568,6.561c2.461-0.486,3.299-2.594,4.851-3.992c1.475-1.472,2.756-3.14,3.989-4.85
			c2.011-1.418,3.692-3.16,5.138-5.137C110.416,64.855,111.082,64.38,110.861,63.02z M104.873,67.014
			c-0.166,1.264-0.783,2.071-1.428,2.854c-0.695-0.232,0.566-1.508-0.287-1.996c-1.24-0.292-1.311,0.59-1.996,0.854
			c0,1.144-0.572,1.713-0.572,2.854c-0.381,0.662,0.041,2.132-1.141,1.996c-0.008-1.818,1.002-2.613,0.855-4.564
			c-0.689-0.606-1.262,0.636-1.709,1.14c-0.512-0.438-0.189-1.711-0.857-1.992c-0.666,0.759-1.986,0.861-3.139,1.14
			c-0.031-0.819,0.156-1.869-0.285-2.28c-2.285,0.187-1.814,3.127-4.85,2.564c0.271-1.247,1.164-1.876,0.854-3.707
			c-2.326,0.337-2.932,2.395-3.992,3.993h-2c0.08-0.966,0.457-1.638,0.283-2.854c-2.854-0.195-1.877,3.446-4.85,3.137
			c0.035-1.015,1.055-1.033,0.859-2.278c-0.162-0.41-0.445-0.697-0.859-0.854c-2.113,0.545-2.859,2.465-3.992,3.991
			c-0.508-0.208-0.043-0.519,0-0.856c-1.252-0.297-0.938,0.971-1.998,0.856c0.102-2.478-0.066-4.686-0.285-6.847
			c1.068-0.028,2.197-0.374,3.426,0c6.598-0.915,14.604-0.424,20.824-1.71c0.559-2.881-1.438-4.591-0.568-6.849h0.568
			c1.051,0.187,1.424,1.053,2,1.714c0.623,0.609,1.582,0.887,1.994,1.71c1.354,1.118,2.645,2.304,3.996,3.425
			c-0.365,1.312,0.521,1.383,0.855,1.995C106.307,65.595,105.477,66.191,104.873,67.014z"/>
	</g>
</g>
</svg>
