<?xml version="1.0" encoding="utf-8"?>
<!-- Generator: Adobe Illustrator 16.0.0, SVG Export Plug-In . SVG Version: 6.00 Build 0)  -->
<!DOCTYPE svg PUBLIC "-//W3C//DTD SVG 1.1//EN" "http://www.w3.org/Graphics/SVG/1.1/DTD/svg11.dtd">
<svg version="1.1" id="Layer_1" xmlns="http://www.w3.org/2000/svg"  x="0px" y="0px"
	 width="120px" height="120px" viewBox="4 4 120 120" style="enable-background:new 4 4 120 120;" xml:space="preserve">
<g id="note1">
	<g>
		<path d="M95.918,50.255c-1.874-3.784-3.389-7.928-5.659-11.311c-0.433-0.261-0.942-0.449-0.894-1.192
			c-2.139-1.536-4.021-3.324-6.254-4.763c-0.562-1.123-1.355-2.018-2.078-2.979c-0.604-1.186-1.614-1.958-2.086-3.275
			c-1.952-1.623-2.688-4.459-4.469-6.251c-1.547-0.137-2.814-0.776-5.357-0.597c-0.43,0.167-0.727,0.465-0.895,0.895
			c-0.297-0.001-0.354,0.241-0.597,0.298c-0.554,10.061-1.22,20.015-1.188,30.665c0.623,4.735,0.656,10.061,1.188,14.887
			c-0.204,2.883,0.504,4.855,0.3,7.741v3.869c-0.191,1.198,0.389,3.167-0.3,3.87c-1.575-0.406-2.536-1.434-4.465-1.488H58.7
			c-4.892,1.359-9.457,3.051-13.396,5.357c-3.602,2.656-7.337,5.17-9.232,9.528c-0.955,1.423-0.486,4.276-0.595,6.552
			c1.005,1.871,2.552,3.205,3.869,4.763c0.698,0.099,1.285,0.305,1.49,0.894c4.222,1.83,9.786,2.319,16.079,2.083
			c1.338-0.409,3.085-0.599,3.869-0.893c0.535-0.202,0.888-0.521,1.193-0.597c0.746-0.187,0.798-0.405,1.188-0.595
			c1.004-0.491,2.121-0.917,2.978-1.489c1.68-1.125,3.521-2.795,4.764-4.166c2.922-3.23,4.947-7.857,5.062-13.103
			c0.149-1.635-0.962-2.014-0.894-3.571c0-7.488,0.002-14.842,0-22.032c0-7.231-0.902-14.2-0.893-21.138
			c1.299,0.387,1.891,1.484,3.272,1.785c0.965,0.825,2.354,1.22,3.276,2.084c2.355,1.12,4.531,2.416,6.252,4.168
			c1.304,1.18,1.953,3.009,2.68,4.764v9.228c-0.645,1.042-0.639,2.736-1.486,3.574c-0.255,1.197-2.137,2.007-0.896,2.978
			c2.539,1.361,5.144-0.282,5.957-2.383c1.062-0.522,0.979-2.194,1.785-2.978c0.211-1.377,0.98-2.193,1.189-3.571
			c0.047-0.349-0.052-0.846,0.297-0.894C96.602,57.112,96.546,53.396,95.918,50.255z M47.387,103.25c0.058-0.337,0.3-0.166,0.3,0
			C47.626,103.588,47.386,103.414,47.387,103.25z M61.082,99.975c-0.065,0.231-0.008,0.588-0.297,0.596c0.323,1.58-0.905,0.354,0,0
			C60.852,100.34,60.795,99.984,61.082,99.975C60.797,98.738,61.974,99.914,61.082,99.975z M69.121,94.615
			c-1.133-0.059-1.129-1.252-2.381-1.19c-3.105,0.273-3.68,3.069-5.062,5.062c0.284,1.236-0.894,0.061,0,0
			c0.063-0.562-0.337-0.655-0.298-1.19c-1.701-0.312-1.743,1.038-2.978,1.19c-0.271-1.217-0.911-2.063-2.084-2.381
			c-1.563-0.078-1.655,1.32-2.383,2.084c-0.706-1.004,1.499-4.394-0.597-5.062c-1.568,0.318-2.488,1.28-3.273,2.383
			c-0.812-0.273,0.417-0.932,0-1.785c0.41-0.385,0.296-1.293,0.299-2.086c0.497-0.693,0.776-1.604,0.895-2.68
			c0.952-0.73,2.167-1.202,3.273-1.785c1.163,0.026,0.928,1.453,2.083,1.488c1.773-0.016,2.85-0.725,4.169-1.189
			c3.844-0.174,7.224,0.115,9.524,1.486C70.434,91.361,69.693,92.909,69.121,94.615z"/>
	</g>
</g>
</svg>
