<?xml version="1.0" encoding="utf-8"?>
<!-- Generator: Adobe Illustrator 16.0.0, SVG Export Plug-In . SVG Version: 6.00 Build 0)  -->
<!DOCTYPE svg PUBLIC "-//W3C//DTD SVG 1.1//EN" "http://www.w3.org/Graphics/SVG/1.1/DTD/svg11.dtd">
<svg version="1.1" id="Layer_1" xmlns="http://www.w3.org/2000/svg"  x="0px" y="0px"
	 width="120px" height="120px" viewBox="4 4 120 120" style="enable-background:new 4 4 120 120;" xml:space="preserve">
<g id="note2">
	<g>
		<path d="M106.137,90.746c0.066-3.916-0.371-7.324-2.072-9.473c0.384-0.9,1.186-1.383,0.89-2.961
			c0.267-18.224-0.974-34.945-1.777-52.103c0.041-1.321-0.651-1.913-1.184-2.662c1.212-0.65,1.391-2.591,0.889-4.146
			c-0.86-1.441-3.146-2.594-5.327-1.775h-4.146c-3.038,1.008-6.619,1.473-9.181,2.959c-2.955,1.089-5.926,2.164-8.58,3.553
			c-3.272,0.776-5.676,2.417-8.883,3.256c-2.565,1.579-5.785,2.503-8.584,3.849c-1.57,0.089-1.419-1.542-3.258-1.184
			c-1.031,0.549-2.032,1.125-2.368,2.367c-0.719,0.861-2.787,0.37-2.663,2.073c-0.545,2.32,2.196,1.356,2.368,2.96
			c-0.261,16.021-0.381,32.185-0.296,48.548c-0.187,0.899,0.377,2.549-0.296,2.962H41.307c-3.868,0.474-7.229,1.454-9.769,3.255
			c-1.167,1.006-2.325,2.017-3.258,3.256c-1.022,1.146-1.522,2.82-2.368,4.146v4.438c-0.261,1.838,0.461,2.699,0.89,3.852
			c1.178,0.697,2.571,1.176,4.438,1.184c1.151,1.317,2.977,1.959,4.442,2.961c0.613,0.178,1.945-0.365,2.072,0.295h5.622
			c3.857-0.584,7.495-1.386,10.067-3.256c2.922-1.518,4.988-3.894,6.51-6.808c-0.201-1.19,0.286-1.69,0.298-2.666
			c0.219-1.401-0.33-2.035-0.298-3.256c-0.133-1.642-1.034-2.515-1.477-3.849c0.777-0.998,1.743-1.807,1.774-3.552
			c-0.06-12.196,0.2-25.196-0.298-36.117c1.481,0.249,1.771-0.049,3.555,0c1.011-0.764,2.56-0.993,3.849-1.479
			c1.334-0.442,3.015-0.54,4.146-1.184c3.12-0.533,6.062-1.236,8.879-2.072c6.167-1.038,11.178-3.231,17.762-3.85
			c-0.66,11.501,0.037,22.375,0.297,34.044c-9.107-0.658-17.266,2.027-20.428,8.289c-0.328,3.856-0.56,8.916,0,12.729
			c1.063,1.996,2.365,3.752,4.146,5.03c1.05,0.039,1.687,0.488,2.37,0.888c11.277,0.328,16.859-5.044,21.017-11.84
			C105.389,92.17,106.062,91.756,106.137,90.746z M53.738,99.924c-0.061,0.135-0.541,0.186-0.59,0.295
			c-0.057,0.123,0.09,0.504,0,0.594c-0.192,0.185-0.68,0.138-0.889,0.295c-0.228,0.176-0.318,0.404-0.592,0.593
			c-1.054,0.722-3.112,1.856-4.736,2.073c0.043-0.942,0.67-1.305,0.592-2.368c0.589-0.3,1.266-0.513,1.478-1.187
			c-0.737-1.597-3.497-0.746-3.847,0.594c-0.246,0.742-0.812,1.162-0.889,2.072c-0.507,0.479-0.112,1.859-1.186,1.775
			c-1.134,0.053-0.104-0.243-0.295-0.887c0.412-0.187,0.047-1.143,0.591-1.187c0.231-0.955,0.621-1.75,1.188-2.369
			c-0.18-1.104,0.756-1.87,0-2.663c-1.964,0.012-1.847,2.102-3.257,2.663c-0.078,0.909-0.645,1.333-0.89,2.074
			c0.14,0.756-1.047,1.678-0.295,2.069c-0.328,0.597-2.291,0.343-2.663,0c0.428-1.346,1.039-2.512,1.48-3.848
			c0.416-1.262,1.311-2.045,1.771-3.256c0.046-0.933-0.755-1.018-1.478-1.186c-0.143-0.932,1.357-0.221,1.478-0.887h4.146
			c0.505,0.062,0.769-0.506,0.886,0c2.459-0.162,6.633-0.343,7.995,1.479c-0.05,0.346,0.067,0.527,0.3,0.594
			C53.991,98.203,54.048,99.26,53.738,99.924z M59.953,43.382c-0.979-0.105-0.462-1.706-0.589-2.665
			c-0.307-0.779-0.354-1.816-0.295-2.961c-0.166-0.655,0.563-0.419,0.59-0.887c0.344-0.047,0.528,0.066,0.592,0.298
			C60.309,39.394,59.734,40.988,59.953,43.382z M67.948,44.861c-0.941,0.047-1.304,0.671-2.369,0.592
			c0.019-3.666-0.353-6.948-0.888-10.064c1.229-0.546,2.281-1.274,3.85-1.479C68.133,37.351,67.885,40.95,67.948,44.861z
			 M75.055,31.838c-0.041,0.55-0.193,0.987-0.595,1.182c-0.075,1.998-0.933,3.211-0.886,5.33c-1.139-0.343-0.367-2.594-0.594-3.849
			c0.065-0.954-0.524-1.252-0.295-2.369c0.823-0.259,1.801-0.369,2.369-0.888C76.027,31.029,75.507,31.833,75.055,31.838z
			 M95.186,37.756c0.112-1.69-0.028-3.129-1.188-3.552h-1.183c-1.803,0.37-1.647,2.691-1.777,4.737
			c-1.059,0.025-1.705,0.46-2.662,0.595c-1.089,0-1.137-1.04-1.777-1.481c-0.619-0.369-1.111-0.861-1.479-1.481
			c-0.617-0.368-1.111-0.859-1.479-1.479c-0.525-0.458-1.156-0.814-1.777-1.184c-1.394,0.382-2.205,1.344-2.367,2.959
			c-0.68-0.603-0.105-2.457-0.296-3.552c-0.249-1.229-1.188-1.772-1.48-2.962c7.191-1.886,12.177-5.979,21.611-5.622
			c-0.759,3.779-0.361,8.712-0.89,12.728C97.516,37.678,95.717,38.074,95.186,37.756z M99.328,90.45
			c-1.744,2.401-3.669,4.62-6.809,5.624c-0.121-1.5,1.03-1.729,1.478-2.664c-0.222-0.762-0.718-1.254-1.478-1.48
			c-1.854-0.272-2.041,1.118-2.961,1.777c-0.228,0.758-0.295,1.679-0.889,2.072c-0.007,0.883,0.028,1.805-0.887,1.775
			c-1.247,0.102,0.197-1.078,0-1.775c-0.081-1.067,0.546-1.428,0.591-2.369c0.747-1.227,1.646-2.303,2.071-3.85
			c0.068-1.941-1.213-2.535-2.662-2.957c-0.86,0.225-1.706,0.467-2.073,1.184c-0.918,0.166-0.776,1.393-1.776,1.479
			c0.787-2.664,3.396-3.511,5.92-4.439c2.504-0.538,6.42-0.971,9.179-0.297C100.031,85.951,99.514,88.549,99.328,90.45z"/>
	</g>
</g>
</svg>
