<?xml version="1.0" encoding="utf-8"?>
<!-- Generator: Adobe Illustrator 16.0.0, SVG Export Plug-In . SVG Version: 6.00 Build 0)  -->
<!DOCTYPE svg PUBLIC "-//W3C//DTD SVG 1.1//EN" "http://www.w3.org/Graphics/SVG/1.1/DTD/svg11.dtd">
<svg version="1.1" id="Layer_1" xmlns="http://www.w3.org/2000/svg"  x="0px" y="0px"
	 width="120px" height="120px" viewBox="4 4 120 120" style="enable-background:new 4 4 120 120;" xml:space="preserve">
<g id="navigation">
	<g>
		<path d="M113.5,57.8c-2.1-0.7-4.6-1-7-1.5c-1.7,0.1-3.1-0.1-4.5-0.3h-4.2c-2.3-0.4-4.8-0.6-7.3-0.9c-1-0.4-2.3-0.6-3.6-0.6
			c-0.7-0.7-3,0.2-3.301-0.9c1.601-2.2,3.2-4.3,4.5-6.7c1,0.5,1.7,0.2,2.4-0.3c0.1-1.1,0-2-0.3-2.7c1.2-1.4,2-3.2,2.7-5.2
			c0.899-1.4,2.5-3.6,1.199-5.5c-0.8-0.6-2.8-0.4-3.3,0.3c-0.899,0.6-2.399,0.7-3,1.5c-2.5,0.5-4.3,1.8-6.399,2.7
			c-1.101,0.4-1.9,1.2-3,1.5C77.8,40.1,76.2,40,75.7,41c-1.101,0.4-2,1-2.7,1.8c-0.6,0.1-0.6,0.8-1.2,0.9
			c-0.1,0.4-0.899,1.4-1.2,0.6C69.4,32,66.9,21.1,65.4,9.2C64.8,8.4,62.5,7.7,61.8,8.9h-0.3c-0.7,2.4-1.2,5.2-1.8,7.9
			c-0.4,1.2-0.4,2.8-0.9,3.9c-0.2,1.5-0.2,3.2-0.9,4.2c-0.3,2.9-1.2,5.3-1.5,8.2c-0.5,1.1-0.7,2.6-0.9,3.9c-0.7,1.1-0.2,3.2-1.2,3.9
			c-4.1-0.7-7.3-2.2-10.6-3.6c-1.5-0.9-3.3-1.5-4.8-2.4c-2-0.4-2.8-2-5.5-1.8c-0.5,0.8-1.2,1-0.6,2.1c0.5,0.1-0.1,0.3-0.3,0.6
			c-0.5,0.1-0.7,0.5-0.6,1.2c0.7,1.6,2.1,2.6,2.7,4.2c0.9,1.5,2.1,2.7,3,4.2c1.3,1,1.9,2.8,3,3.9c1,0.3,0.9,1.6,1.8,1.8
			c-0.1,1.3,1.5,0.9,1.2,2.4c-5.2,1.1-10.7,1.8-15.5,3.3C23,58,17.8,59,13.2,60.7c-1.6,0.5-4.1-0.1-4.2,1.8c0.3,1,0.8,1.8,2.1,1.8
			c0.5,0.9,1.3,1.4,1.8,2.101c3.9,1.899,8.4,3.1,13.3,3.899c4.9,0.9,9.2,2.5,13.9,3.601c-2.6,3.5-3.4,8.699-5.5,12.699
			c-0.8,2.301-2,4.101-3.6,5.5c-0.3,1.2-1.3,1.7-2.1,2.4c-0.5,1.1-0.9,2.7,0,3.6c2.3,0.9,3.7-1.199,5.2-2.1c1.4-1.2,2.8-2.5,4.2-3.6
			c4.6-2.801,9-5.801,13.9-8.2c1.7,5.8,3.2,11.7,4.2,18.2c0.6,3.199,1.9,5.6,2.4,8.8c0.4,1.399,0.2,3.5,0.9,4.5
			c-0.1,2,0.6,3.2,2.7,3c1.4-0.3,1.8-1.601,1.8-3.3c0.7-1.101,0.6-3,1.2-4.2C66,108.1,66.6,105.1,67.2,102.1
			C67.6,100.8,67.7,99.2,68.1,97.9c-0.1-1,0.5-1.301,0.301-2.4c0.699-0.2-0.101-1.9,0.6-2.1c-0.1-1,0.1-1.7,0.3-2.4
			c0.101-0.8,0.2-1.7,0.601-2.1c0.1-1.7,0.5-3.2,1.199-4.2c2.7,1.5,5.801,2.5,7.9,4.5c2.7,1.5,5.5,3,8.5,4.2c1.7,1.5,2.3,4,5.8,3.6
			c0.4-0.7,1.2-1,0.9-2.4c0.3-1.5-1.3-1.199-1.2-2.399c0.2-1-0.2-1.4-0.3-2.101c-2-2.6-3.4-5.699-5.5-8.199
			c-1.7-3-3.8-5.5-5.2-8.801c6.1-2.1,12.8-3.5,19.4-5.199c1.3-0.7,2.899-1.101,4.5-1.5c2.8-1.4,6.3-2,9.1-3.3c2-0.1,3.6-0.7,3.6-2.7
			S116.3,57.9,113.5,57.8z M88.4,38.7c0.5,0.2,0,0.5,0,0.9C87.9,39.4,88.4,39.1,88.4,38.7z M34.2,36.9c-0.2-0.2,0.2-0.4,0.3-0.3
			S34.2,37,34.2,36.9z M38.7,41.4c-0.6-0.6-0.9-1.5-0.9-2.7c0.6,0,0.4,0.8,1.2,0.6C38.9,40,38.5,40.4,38.7,41.4z M85.7,40.2
			c-0.3,1.4,1.2,2.3,0.3,3.3c-0.7-0.8-1.2-1.8-1.2-3.3H85.7z M82,41.7c1,1.2,0.9,3.3,1.8,4.5c0.2,0.9-0.8,0.6-0.6,1.5
			c-0.8,0-0.2,1.3-1.2,1c-0.8-1.9-1.7-3.8-2.4-5.8C80.6,42.7,81.4,42.3,82,41.7z M77.8,44.2c0.4,3,1.8,4.9,2.7,7.3
			c-0.7,0.2-0.9,2.5-1.5,1.8c-1.1,0.1-0.4-1.6-0.9-2.1c-1-1.7-1.3-4.1-2.399-5.8C76,44.6,76.9,44.4,77.8,44.2z M73.2,45.7
			c0.3,0,0.2,0.4,0.3,0.6c0.5,2.4,1.7,4.2,2.1,6.7c-1-0.4-2.3-0.6-3.6-0.6c-0.3-2.2-1.1-4-1.2-6.4C71.4,46.5,72.7,46.1,73.2,45.7z
			 M52,45.4h1.5c0,1.5-0.2,2.8-0.6,3.9c0,1.4,0.2,3-1.2,3C52.1,50.3,52,47.8,52,45.4z M47.2,48.7v-5.2c0.3,0.2,0.7,0.3,1.2,0.3
			c-0.2,2.8-0.2,5.9-0.6,8.5C46.7,52.1,47.4,49.9,47.2,48.7z M43.2,46.6c-0.8-0.1-0.7-1.1-1.2-1.5c-0.2-1.1,0.4-3-0.3-3.6
			c0.6-0.9,1.3,0.5,2.1,0.3C43.5,43.2,43.1,44.6,43.2,46.6z M39,87.8c0.1-0.899,0.7-1.399,0.9-2.1c0.5,0.3,0.4,1,0.6,1.5
			C39.9,87.3,39.8,87.8,39,87.8z M42.9,85.4c-0.7-1.4-0.8-3.4-1.8-4.5c0.1-1,0.8-1.5,0.6-2.7c0.9,0.7,1.1,2.1,1.5,3.3
			c0.7,0.8,1.2,1.9,1.5,3C44.1,84.7,43.9,85.4,42.9,85.4z M48.1,82.6c-0.9,0-0.8-0.899-1.2-1.199c-0.1-0.601-0.7-0.801-0.6-1.5
			c-0.6-0.9-1.3-1.5-1.5-2.7c-0.5-0.3-0.9-0.7-1.2-1.2h-1.2c0-0.4,0.1-0.9-0.3-0.9c0.4-0.699,1.8,0.2,2.4,0.301
			c1,0,1.3,0.699,2.4,0.6c-0.2,1.6,0.4,2.4,0.6,3.6C47.8,80.7,49.2,81.8,48.1,82.6z M50.5,79c-0.5-0.6-1.1-1.1-1.2-2.1h1.5
			C50.4,77.3,50.5,78.2,50.5,79z M77.2,83.9c-2-0.2-2.9-1.601-4.8-1.801C72.6,81.3,72.7,80.4,73.3,80c0.5-1.5-0.2-4.2,1.8-4.2
			c-0.199,0.7-0.3,1.5-0.6,2.101c0.4,1.899-1.2,4.199,0.6,4.8c1.2-0.2,0.9-1.9,0.9-3.3c0.3-1.2,0.4-2.7,0.3-4.2
			C77.1,75.1,78,75,78.4,74.6c1,0.4,0.6,2,1.5,2.4C78.8,79,77.8,81.2,77.2,83.9z M84.5,85.1c0.9,0.9,1.7,1.9,2.1,3.301
			C85.7,88.3,85.2,87.7,84.5,87.5V85.1z M82.9,82.3c-0.4,1.4-1.5,1.9-1.2,3.9C80.1,86.1,80.4,85.4,80.2,84.1
			c-0.2-1.1,0.2-2.699,0-3.6c0.1-0.7,0.5-1.1,0.3-2.1C81.4,79.6,82,81.2,82.9,82.3z M105.1,62.3c-2.6,0.5-4.5,1.5-7,2.1
			c-3.399,0.7-6.5,1.8-9.699,2.7C87.2,68,85.3,68.3,83.9,68.9C82.2,69.2,81,70,79.1,70.1C76.4,71.5,72.5,71.7,70,73.4
			c-0.7,1.1-0.8,2.8-1.2,4.199c-0.2,1.5-1.1,2.4-1.2,3.9c-0.8,1.1-0.899,2.8-1.5,3.9c0.101,1-0.5,1.3-0.3,2.399
			c-0.899-0.1,0.3,1.9-0.6,1.8c0.1,7.101-1.5,12.4-2.7,18.2c-1.2-2.1-1.6-5.1-2.4-7.6c-0.2-3-0.9-5.5-1.5-8.2
			c-1.2-5.3-3.1-9.9-4.5-14.8c-0.9-1.2,1.2-1.7,0.6-3.601c-0.5-0.6-0.9-1.3-1.8-1.5c-1.2,0.101-2.2,0-3-0.3
			c-4.7-2-11-2.399-15.8-4.2c-5.6-1.1-11.6-1.8-16.4-3.6c0.6-0.5,1.4-0.6,2.4-0.6c0.6-0.4,2,0,2.4-0.6c1.2,0.2,1.7-0.3,2.7-0.3
			c0.5-0.4,1.8-0.1,2.1-0.6c3.3-0.6,6.8-1.1,10-1.8c3.7-0.3,6.3-1.6,10-1.8c3.4-0.4,7-0.7,9.1-2.4c1.6-4.7,2.1-10.4,3-15.8
			c0.7-0.1,0-1.6,0.6-1.8c-0.1-1,0.5-1.1,0.3-2.1c0.5-1,0.6-2.5,0.9-3.6c0.5-2.6,1.1-5.1,1.5-7.9v-0.9c0.4,0,0.5,0.1,0.6,0.3
			c0.4,5.3,1.601,9.7,1.8,15.2c1,4.6,0.9,10.4,2.7,14.2c0.101,0.8,1.3,0.5,1.5,1.2c0.101,0.7,0.9,0.7,1.2,1.2
			c3.6-0.1,5.7,1.3,9.1,1.5c3,0.4,6,0.9,9.101,1.2c5.399,1.6,12.2,1.7,18.5,2.4C107,62.1,105.5,61.6,105.1,62.3z M66,62.9
			c-0.3-0.7-0.6-1.5-0.9-1.8c-0.3-0.2-1,0-0.899-0.6c-2.6-0.8-5.8-0.1-7,1.5c-0.3,0.5-0.1,1.5-0.6,1.8c-0.3,4.2,1.4,6.4,3.9,7.9
			c2.8,0.3,4.5-0.5,5.8-1.8c0.9-1.5,0.601-4.5,0.3-5.5C66.3,63.5,66.2,63.5,66,62.9z M62.9,67.2c-1.7,0.3-1.8-2.101-1.2-3
			C63.1,64.2,63.4,66.3,62.9,67.2z"/>
	</g>
</g>
</svg>
