<?xml version="1.0" encoding="utf-8"?>
<!-- Generator: Adobe Illustrator 16.0.0, SVG Export Plug-In . SVG Version: 6.00 Build 0)  -->
<!DOCTYPE svg PUBLIC "-//W3C//DTD SVG 1.1//EN" "http://www.w3.org/Graphics/SVG/1.1/DTD/svg11.dtd">
<svg version="1.1" id="Layer_1" xmlns="http://www.w3.org/2000/svg"  x="0px" y="0px"
	 width="120px" height="120px" viewBox="4 4 120 120" style="enable-background:new 4 4 120 120;" xml:space="preserve">
<g id="share1">
	<g>
		<path d="M106.209,87.439c-1.721-1.338-3.957-3.711-6.045-4.231c-0.389-0.097-0.643-0.235-0.908-0.304
			c-0.387-0.098-0.639-0.234-0.906-0.301c-1.5-0.375-2.32-0.152-3.93-0.304c-0.672-0.063-1.424-0.327-2.113-0.303
			c-0.891,0.03-1.725,0.571-2.726,0.303c-1.256,0.757-2.812,1.22-3.927,2.115c-0.678,0.33-1.516,0.5-2.114,0.907
			c-0.972,0.141-1.067,1.148-2.118,1.21c-2.188-1.847-4.857-3.205-6.953-5.138c-1.414-0.604-2.623-1.41-3.629-2.42
			c-1.412-0.602-2.623-1.408-3.626-2.418c-2.738-1.293-4.803-3.262-7.558-4.537c-0.917-1.099-2.521-1.508-3.627-2.418
			c-1.146-0.867-2.851-1.18-3.627-2.418c0.302-0.808,0.623-1.594,0.605-2.721c0.621-1.394,2.466-1.562,3.323-2.719
			c1.532-0.587,2.427-1.808,3.93-2.419c0.881-1.136,2.487-1.546,3.326-2.722c1.506-0.61,2.4-1.83,3.93-2.417
			c2.174-1.956,4.758-3.507,7.256-5.139c1.133-0.982,2.492-1.739,3.627-2.721c1.735-0.384,2.908-1.324,3.629-2.72
			c0.933,1.483,2.558,2.281,3.929,3.325c2.092,0.527,4.201,1.041,6.651,1.209c2.551-0.342,4.781-0.589,6.648-1.512
			c1.875-0.923,3.223-2.314,4.535-3.628c1.312-1.311,2.713-2.713,3.627-4.534c0.973-1.933,1.305-4.101,1.512-6.649
			c-0.129-1.483-0.404-2.821-0.602-4.233c-4.266-7.073-11.096-13.022-22.979-11.487c-0.257,0.448-0.76,0.65-1.509,0.604
			c-3.407,3.145-5.462,7.642-6.047,13.604c-2.196,1.53-4.555,2.902-6.651,4.536c-2.519,1.31-4.506,3.149-7.252,4.231
			c-0.846,1.07-2.441,1.39-3.326,2.417c-1.479,0.435-2.251,1.578-3.627,2.117c-0.967,0.948-2.359,1.471-3.326,2.418
			c-1.374,0.538-2.146,1.681-3.628,2.116c-1.241-1.274-3.028-2.01-4.536-3.023c-3.198-0.628-6.543-1.109-10.577-0.907
			c-0.057,0.449-0.73,0.279-1.21,0.305c-0.257,0.447-0.758,0.647-1.51,0.603c-0.976,0.738-1.883,1.545-3.025,2.116
			c-3.388,3.562-5.975,7.927-6.95,13.907c-0.073,3.493,0.22,6.63,0.602,9.671c2.152,6.612,7.022,10.512,16.022,10.277
			c2.667-0.355,4.873-1.173,6.648-2.419c-0.271,1.886,0.555,2.67,1.514,3.326c1.608,0.664,2.259-0.269,3.628-0.603
			c1.073,0.738,1.791,1.832,3.021,2.418c0.896,0.914,1.747,1.879,3.023,2.418c0.558,1.256,2.124,1.504,2.72,2.718
			c1.453,0.362,1.831,1.798,3.324,2.116c0.739,1.076,1.997,1.634,3.024,2.418c1.037,0.779,1.984,1.646,3.324,2.117
			c0.832,0.982,2.178,1.451,3.324,2.116c1.168,0.747,2.701,1.128,3.933,1.813v7.557c0.663,1.05,1.021,2.404,1.812,3.325
			c0.707,1.108,1.68,1.95,2.721,2.72c1.795,1.734,4.767,2.292,7.861,2.723h5.44c8.382-1.593,14.194-5.758,15.719-14.207V95.6
			C109.365,92.143,107.695,89.883,106.209,87.439z M94.118,41.49c0.183-0.724,0.434-1.378,0.302-2.417
			c1.066,0.042,0.862,1.354,1.209,2.115C94.9,41.065,94.973,41.741,94.118,41.49z M91.398,24.562c0.594-0.631,0.229-2.007,0-2.72
			c5.521,0.12,7.795,3.491,10.881,6.047c0.301,1.011,0.961,1.66,1.211,2.72c0.213,3.842-1.846,5.411-3.326,7.555
			c-1.381,0.638-2.027,2.003-3.63,2.42c-0.734-1.782-1.283-3.752-2.114-5.442c-0.921-0.013-1.177,0.64-1.812,0.909
			c0.029,0.364-0.439,0.185,0,0c0.486-1.511,0.324-3.333-0.605-4.232c-0.922-0.219-0.889,0.521-1.812,0.302
			c0.595-2.127,1.502-3.94,2.72-5.442C92.777,25.599,92.148,25.02,91.398,24.562z M90.791,39.979
			c0.594,0.138,0.544,2.121-0.604,1.511C90.318,40.915,90.84,40.732,90.791,39.979z M53.007,52.675
			c0.955,0.051,1.009-0.802,2.114-0.603c0.633,0.174,0.862,0.75,1.815,0.603c1.733-0.482,2.631-1.801,2.72-3.93
			c3.107-1.729,5.651-4.021,9.071-5.44c1.086-1.333,3.197-1.636,4.23-3.022c1.604-0.713,3.083-1.551,4.23-2.721h0.906
			c0.086,1.424,1.235,1.786,1.512,3.022h-2.418c-2.371,1.053-4.242,2.607-6.35,3.931c-1.814,1.506-4.062,2.584-5.744,4.229
			c-1.191,0.522-2.169,1.254-3.021,2.118c-1.36,0.254-1.664,1.559-3.022,1.812c-0.589,1.123-2.058,1.37-2.723,2.419
			c-1.221,0.39-1.665,1.56-3.021,1.815C53.545,55.16,52.87,54.324,53.007,52.675z M31.847,75.045
			c0.157-0.445,0.447-0.762,0.602-1.208c0.706,0.205,0.811,1.003,1.513,1.208C33.603,75.859,32.386,75.044,31.847,75.045z
			 M36.38,75.348c0.414-0.795,1.274-1.146,1.51-2.115c0.503,0.306,0.329,1.283,0.608,1.812
			C38.106,75.462,37.183,75.346,36.38,75.348z M47.564,60.535c0.053,1.063-1.02,0.995-1.21,1.814
			c-0.094,1.206-0.015,2.234,0.606,2.721c-0.934,3.498-2.364,6.504-4.836,8.464c-1.343-2.388-0.953-6.504-3.025-8.16
			c-1.188,0.524-2.711,0.715-3.322,1.812c-0.497-0.207-0.104-0.565,0-0.906c0.091-0.305,0.157-0.741,0.301-1.209
			c0.051-0.161,0.579-0.791,0.604-0.906c0.085-0.385-0.065-0.821,0-1.209c-0.335-0.977-0.961-1.659-2.419-1.512
			c0.103-1.107,1.199-1.22,0.907-2.719c-0.283-1.183-1.525-0.259-2.417-0.304c0.814-1.703,3.018-2.02,3.627-3.929
			c0.02-1.835-1.284-2.346-2.721-2.72c0.66-0.75,1.759-1.065,2.419-1.814c3.846-0.221,6.974,0.279,9.369,1.512
			c0.274,0.534,0.677,0.935,1.211,1.208c0.134,0.773,0.424,1.391,0.906,1.815V60.535z M56.937,81.091
			c-1.822-0.681-0.155-2.853-0.303-4.532c0.634,0.371,1.177,0.834,1.813,1.209C58.154,79.084,57.399,79.941,56.937,81.091z
			 M59.957,83.208c0.433-0.979,0.763-2.063,0.909-3.325c1.123,0.792,0.588,3.24,1.208,4.533
			C61.082,84.301,60.74,83.532,59.957,83.208z M78.096,92.578c-0.617,0.646-1.197-0.084-1.812-0.303
			c-0.472-0.438-1.413-0.402-1.813-0.906c-1.264,0.068-1.43-0.492-2.419,0c-1.183-1.234-3.024-1.816-4.231-3.021
			c-1.844-0.574-2.657-2.18-4.535-2.723c0.571-1.639-0.119-3.116-0.302-4.835c0.258-0.058,0.284,0.116,0.302,0.301
			c2.83,1.705,5.531,3.538,8.163,5.442c1.288,0.926,2.737,1.693,3.931,2.719C76.455,90.164,79.111,90.511,78.096,92.578z
			 M82.936,105.576c-1.056-0.154-0.444-1.973-0.608-3.021C83.514,103.281,83.634,104.301,82.936,105.576z M103.49,103.159
			c-0.208,0.353-0.309,0.362-0.607,0.604c-0.099,0.082,0.081,0.497,0,0.604c-0.537,0.712-1.566,1.508-2.417,2.114
			c-0.958,0.686-2.1,1.432-3.325,1.513c-0.645-1.071-1-2.425-1.812-3.324c0.408-0.892,0.377-1.872-0.303-2.419
			c-3.235-0.039-4.769,4.471-3.023,6.65c1.152,0.52,1.891-0.896,2.117-0.301c0.04,1.25-2.105,0.312-3.021,0.604
			c-1.201-0.112-2.896,0.273-3.627-0.305c-0.104-2.821,1.286-4.152,1.812-6.348c0.575-0.84,0.825-1.996,1.511-2.721
			c0.564-0.848,1.35-1.477,1.516-2.723c0.021-1.029-1.123-0.895-2.119-0.904c0.468-1.952,2.051-2.791,2.721-4.535
			c-0.335-1.402-2.444-1.869-3.928-1.209c0.027,0.365-0.441,0.186,0,0c1.082-1.158,2.445-1.916,4.229-2.116
			c2.169-0.241,5.796,0.23,6.35,0.905c0.073,0.092,0.496-0.053,0.605,0c0.359,0.178,0.659,0.805,1.208,0.607
			c1.297,1.324,2.362,2.875,3.326,4.531C104.949,98.172,104.543,101.35,103.49,103.159z"/>
	</g>
</g>
</svg>
