<?xml version="1.0" encoding="utf-8"?>
<!-- Generator: Adobe Illustrator 16.0.0, SVG Export Plug-In . SVG Version: 6.00 Build 0)  -->
<!DOCTYPE svg PUBLIC "-//W3C//DTD SVG 1.1//EN" "http://www.w3.org/Graphics/SVG/1.1/DTD/svg11.dtd">
<svg version="1.1" id="Layer_1" xmlns="http://www.w3.org/2000/svg"  x="0px" y="0px"
	 width="120px" height="120px" viewBox="0 0 120 120" enable-background="new 0 0 120 120" xml:space="preserve">
<g id="file4">
	<g>
		<path d="M89.898,75.579c-0.047-0.427,0.102-1.054-0.287-1.144c0.207-0.772-1.344,0.205-1.137-0.568
			c-1.121-0.167-0.732,1.172-1.432,1.427c0.328,0.623,0.738,1.164,0.572,2.282c-0.721,2.704-0.984,5.859-1.715,8.558
			c-0.217,4.593,0.365,8.386,0.287,12.839c-0.896,1.955-0.275,5.435-2.568,5.993c-1.293-0.042-1.395-1.272-2.854-1.143
			c-8.322-0.142-16.961-0.646-24.819,0.286c-1.104,0.056-2.102,0.007-2.854-0.286c-0.885-0.028-0.814,0.896-1.998,0.569
			c-2.383-0.199-3.893,0.481-6.275,0.284c0.08-1.021,1-2.217,0.285-3.137c-1.164-0.515-2.213,0.569-2.568,1.71
			c-0.361,0.396-1.398,0.124-1.424,0.857c0.229,1.084-1.352,0.359-1.998,0.567c-0.678-0.747,0.141-2.993-1.428-2.854
			c-0.391-0.646-1.174,0.704-1.713,0.854c-0.352,0.694-0.238,1.854-1.141,1.998c-0.908-0.17-0.883,0.535-1.428,0
			c-0.707-0.371-1.182,0.836-1.424,0c0.648-2.137,2.428-4.567,1.711-7.135c-2.193,0.188-2.66,2.101-3.994,3.144
			c0.072,1.116-1.031,1.061-0.855,2.28c-0.854,0.193-0.184,1.906-1.141,1.998c-0.822-0.321-1.684-0.603-2.283-1.144
			c0.561-2.483,2.01-4.077,1.998-7.135c-0.377-0.363-1.051-0.363-1.428,0c-0.586-0.246-0.566,1.45-0.855,0.573
			c0.182-3.182,0.182-5.094,0-8.274c0.529-4.228,1.32-8.191,1.143-13.123c-0.09-0.948-0.992,1.224-0.857-0.284
			c-0.139-10.982,0.506-21.178,0.287-32.238c0.174-1.316-0.641-1.643-0.572-2.854H29.7c1.791-0.495,3.895-0.667,6.275-0.569
			c1.701-0.68,4.09-0.666,5.422-1.711c1.1-2.544-0.324-5.428-0.283-8.562c-0.809,0.049,0.236-1.756-0.572-1.709
			c0.219-1.074-0.346-1.365-0.283-2.283c-0.764-0.951-0.451-2.974-0.859-4.279c2.588-0.075,4.512-0.816,7.42-0.57
			c0.898-0.139,1.008,0.515,1.994,0.284c10.75-0.189,19.887,1.229,30.529,1.142c0.619,0.521,2.337-0.055,2.853,0.57h1.716
			c0.528,0.273,0.95-0.855,1.141,0c-0.182,2.643-0.104,3.866,0,6.562c0.466,0.863,1.203,1.459,1.427,2.568
			c-0.056,2.527,0.722,4.223,0.567,6.846c0.072,0.438,0.474,0.042,0.572-0.283c0.405-0.07,0.479-0.471,0.856-0.573
			c0.293-0.75,1.129-0.961,1.424-1.712c-0.687-0.257-0.121-1.608,0.287-1.711c0.744-4.631-0.781-8.429-0.856-13.693
			c-0.556-0.871-0.894-1.959-1.427-2.854c-1.17-0.029-2.34-0.055-3.141,0.287c-0.656-0.389-1.271-0.82-2.279-0.856
			C66.5,17.383,51.013,16.89,34.836,17.092c-0.066,0.407-0.467,0.48-0.57,0.855c-0.48,0.654-1.002,1.307-1.424,1.997
			c-0.148,0.241-0.799,0.683-0.857,0.856c-0.125,0.363,0.605,0.85,0,1.139c-3.188,2.521-5.084,6.33-7.705,9.417
			c-0.131,1.295-1.16,1.69-1.141,3.138c-0.951,0.379-0.994,1.67-1.994,1.997c-0.23,1.2-1.529,1.326-1.713,2.568
			c-0.047,4.042-0.133,8.12,0.855,11.126c-0.963,16.82-0.279,35.29-0.855,52.495c0.445,1.075,0.029,3.014,0.568,3.995
			c-0.26,1.293-1.15,1.689-0.568,3.138c1.002,1.33,3.584,0.752,5.422,0.569c1.785-0.493,4.086-0.477,5.988-0.854
			c8.328-0.047,14.229,0.125,21.686,0c6.287-0.654,12.885-0.996,19.971-0.856c0.897-0.139,1.006,0.517,1.994,0.287h5.135
			c2.733,0.287,6.3,1.021,8.849,0.569c0.741-0.59,1.392-1.271,1.424-2.566c0.332-0.999,1.027-1.643,1.146-2.852V82.997
			c-0.397-1.697-0.801-3.39-1.146-5.136C89.719,77.208,89.334,76.139,89.898,75.579z M35.123,26.508
			c-0.609,0.133-0.543-0.408-0.572-0.856C34.902,25.776,35.137,26.017,35.123,26.508z M32.842,27.649h0.854
			c0.377,1.428,1.373,2.24,2.281,3.139c-0.223,1.174,0.439,1.461,0.285,2.568c-1.338-0.092-1.152-1.7-2.279-1.999
			c-0.412-1.015-1.16-1.696-1.998-2.282C32.152,28.481,32.584,28.153,32.842,27.649z M31.984,33.356
			c0.355,0.881,0.941,1.527,1.711,1.995c-0.256,0.773-1.051-0.239-1.141-0.571c-0.418-0.247-0.906-0.426-0.855-1.141
			c-0.77-0.562-1.365-1.297-1.713-2.282C31.096,31.583,31.072,32.937,31.984,33.356z M27.705,34.211
			c0.688,0.55,0.945,1.524,1.711,1.995c-0.764,0.57-2.516,0.15-3.424,0.573C26.395,35.755,27.227,35.159,27.705,34.211z
			 M108.156,46.764c-0.408-0.443-0.379-1.333-0.854-1.712c-0.426-1.379-1.211-2.404-1.997-3.424
			c-0.931-2.588-2.343-4.697-3.707-6.848h-3.709c-0.951,0.477-2.277,1.775-3.712,0.858c-5.78,5.626-11.331,11.49-17.399,16.829
			C71.133,58.24,64.838,63.354,59.66,69.589c-0.248,1.396-1.107,2.751-1.428,3.705c-0.875,2.631-0.859,5.177-1.998,7.42
			c-0.615,1.761-1.217,3.536-1.996,5.136c-0.693,1.697-1.883,3.56-0.857,5.42c4.018,0.914,6.031-2.48,9.416-3.137
			c3.053-1.322,6.17-2.578,9.416-3.71c1.014-0.884,1.402-2.399,2.279-3.424c1.799-0.959,2.863-2.658,4.568-3.709
			c1.209-1.549,2.891-2.623,4.275-3.996c2.807-2.707,5.998-5.028,8.846-7.703c1.363-1.393,2.809-2.705,4.275-3.991
			c1.318-1.439,2.502-3.019,4.279-3.995c1.365-1.393,2.404-3.111,3.996-4.28c0.457-0.968,1.799-1.054,1.996-2.282
			c0.902-0.521,1.891-0.965,1.996-2.281C108.895,47.736,108.396,47.381,108.156,46.764z M98.172,39.917
			c1.682-0.35,1.543,1.119,2.283,1.711c0.143,1.188,1,1.666,1.143,2.854c0.359,0.115,0.582,0.366,0.568,0.855
			c0.346-0.027,0.176,0.416,0,0c-0.357-0.117-0.582-0.368-0.568-0.855c-1.264-0.828-1.76-2.428-2.283-3.995
			C98.809,40.422,97.887,40.773,98.172,39.917z M64.793,83.566c-1.043-0.188-1.094,0.617-1.996,0.568
			c-0.094,0.667-1.248,0.277-1.428,0.854c-1.15-0.275-1.609-1.244-2.281-1.994c0.506-2.636,1.525-4.752,1.428-7.989
			c1.133,0.958,2.342,1.842,2.853,3.424c0.907,0.897,2.127,1.488,2.85,2.567c0.695,0.353,1.854,0.239,2,1.144
			C66.846,82.386,65.689,82.845,64.793,83.566z M95.322,57.604c-2.369,2.678-4.939,5.145-7.705,7.417
			c-5.475,4.606-10.713,9.448-15.977,14.265c-1.291-0.609-2.637-1.169-3.992-1.71c-0.803-1.008-1.715-1.901-2.572-2.854
			c-0.494-1.312-1.865-1.746-2.279-3.139c3.75-3.518,7.57-7.37,11.41-11.127c1.254-1.225,2.686-2.251,3.996-3.424
			c2.523-2.266,4.764-5.008,7.416-7.417c0.217-0.196,0.65-0.093,0.857-0.286c2.043-1.902,4.471-4.865,6.848-6.848
			c0.252-0.213,0.48-0.473,0.854-0.569c1.061,1.509,2.176,2.96,3.424,4.28c2.395,0.459,3.387,2.317,5.135,3.423
			C100.645,52.653,97.781,54.932,95.322,57.604z M75.064,67.021c2.383-2.277,4.963-4.357,7.418-6.562
			c2.617-2.042,5.193-4.122,7.416-6.562c1.254-1.029,2.369-2.196,3.709-3.138c1.018-1.362,3.293-1.461,3.424-3.709
			c-0.506-0.254-0.725-0.797-1.709-0.571c-0.006,0.377-0.504,0.263-0.574,0.571c-1.299,0.412-1.83,1.594-3.139,1.995
			c-1.67,2.324-4.27,3.721-5.99,5.994c-1.371,0.627-2.148,1.846-3.424,2.566c-0.863,1.131-2.449,1.545-3.135,2.854
			c-1.5,0.5-1.93,2.066-3.43,2.566c-1.879,2.117-3.873,4.115-5.988,5.992c-0.846,1.152-2.688,1.312-2.566,3.424
			c1.955,0.929,3.074-1.243,4.279-1.996C72.592,69.305,73.885,68.22,75.064,67.021z M91.326,55.606
			c-2.25,2.219-4.941,3.998-7.416,5.992c-2.289,2.183-4.938,4.002-7.133,6.277c-1.531,0.657-2.4,1.975-3.713,2.852
			c-0.713,1.569-2.922,1.643-2.566,4.28c2.035,0.918,2.598-1.916,4.281-2.282c1.266-1.105,2.713-2.041,3.992-3.137
			c2.633-2.127,5.188-4.326,7.705-6.564c2.885-1.866,5.338-4.171,7.986-6.274c1.373-1.004,2.328-2.429,3.707-3.425
			c0.666-1.383,3.285-2.158,2.283-4.28h-1.143c-0.004,0.377-0.498,0.263-0.57,0.573c-1.527,0.655-2.396,1.976-3.709,2.851
			C93.861,53.58,92.674,54.673,91.326,55.606z"/>
	</g>
</g>
</svg>
