<?xml version="1.0" encoding="utf-8"?>
<!-- Generator: Adobe Illustrator 16.0.0, SVG Export Plug-In . SVG Version: 6.00 Build 0)  -->
<!DOCTYPE svg PUBLIC "-//W3C//DTD SVG 1.1//EN" "http://www.w3.org/Graphics/SVG/1.1/DTD/svg11.dtd">
<svg version="1.1" id="Layer_1" xmlns="http://www.w3.org/2000/svg"  x="0px" y="0px"
	 width="120px" height="120px" viewBox="4 4 120 120" style="enable-background:new 4 4 120 120;" xml:space="preserve">
<g id="moon">
	<g>
		<path d="M112.35,71.271c-0.822-1.383,0.391-2.002,0.584-3.196c-0.66-0.696-1.113-1.601-1.164-2.905
			c-0.396-4.931-0.164-10.489-1.455-14.528c-0.353-5.07-1.472-9.372-3.482-12.783c-3.23-7.618-8.76-12.938-13.657-18.887
			c-0.989-0.757-2.192-1.292-2.903-2.325c-1.158-0.686-1.619-2.065-3.78-1.744c-0.416,0.163-0.709,0.454-0.87,0.873
			c-0.387,1.548-2.403,1.469-2.323,3.484c1.113,7.604,3.483,13.951,5.229,20.922c0.328,5.752-0.992,9.855-1.453,14.818
			c-0.938,1.87-1.67,3.95-2.906,5.521c-0.802,2.006-2.13,3.483-3.193,5.229c-1.287,1.521-2.535,3.082-3.779,4.648
			c-0.961,0.49-1.338,1.564-2.033,2.324c-1.076,0.426-1.344,1.805-2.323,2.034c0.257,0.933-0.958,0.398-0.871,1.161
			c-0.593,0.088-0.569,0.786-1.163,0.873c-0.548,0.908-1.777,1.126-2.326,2.033c-2.062,0.842-3.537,2.269-5.81,2.906
			c-3.879,1.834-8.064,3.364-13.366,3.776h-5.521c-4.067-0.676-8.773-0.715-12.201-2.034c-1.836-0.486-3.348-1.302-4.938-2.035
			c-1.495-0.593-3.67-1.873-5.522-1.16c-0.942,0.414-1.305,1.408-1.162,2.906c-0.178,1.178-1,1.709-0.872,3.194
			c0.723,1.406,1.386,2.875,2.323,4.067c0.989,1.144,1.93,2.332,2.907,3.488c2,2.357,4.402,4.311,6.39,6.682
			c4.765,3.953,9.323,8.113,15.69,10.46c0.776,0.292,0.961,1.173,1.456,1.743c0.633,0.43,1.562,0.565,2.034,1.162
			c5.258,0.744,11.587,0.422,17.142,0.871c3.367-0.213,6.272-0.893,9.008-1.744c2.402-1.277,5.922-1.437,8.427-2.613
			c2.759-0.827,4.912-2.252,7.265-3.486c2.422-1.259,3.986-3.374,6.681-4.359c1.325-2.064,3.159-3.621,4.942-5.229
			c0.346-1.395,1.725-1.762,2.03-3.195c0.642-0.229,0.728-1.016,1.163-1.453c0.337-0.944,0.76,0.009,1.16-0.873
			c0.65-1.869,1.314-3.724,2.327-5.229c0.722-3.928,1.284-8.01,2.323-11.623v-2.033C112.27,72.507,113.167,71.566,112.35,71.271z
			 M103.346,68.075c-1.182,5.118-2.998,9.595-5.234,13.657c-1.286,1.91-2.332,4.055-3.483,6.1c-1.192,1.908-2.887,3.316-4.067,5.23
			c-3.506,2.789-5.775,6.817-9.877,9.01c-3.635,2.568-8.826,3.574-13.369,5.229h-7.841c-3.361-0.518-6.06-1.689-9.59-2.033
			c-1.137-0.805-1.812-2.063-2.907-2.906c-1.584-0.447-2.705-1.359-4.358-1.742c-0.753-1.087-2.284-1.396-2.904-2.616
			c-1.333-0.409-1.873-1.614-3.197-2.032c-0.91-1.222-1.531-2.731-2.905-3.486c-0.404-0.662-1.006-1.125-1.454-1.743
			c-0.161-0.419-0.453-0.71-0.87-0.87c-0.323-0.359-0.253-0.598,0.291-0.583c1.573,0.944,4.147,0.888,6.1,1.453
			c2.266,0.254,4.088,0.95,6.684,0.872c4.596,0.822,9.649-0.165,13.656-0.872c8.155-2.888,15.793-6.286,20.92-12.203
			c5.607-5.435,10.24-11.841,13.947-19.178c1.006-3.059,1.494-6.641,2.033-10.169v-4.068c-0.206-1.465,0.895-1.624,0.581-3.194
			c-0.276-6.797-2.956-11.187-4.358-16.854c1.947,1.637,3.146,4.019,4.938,5.812c0.28,1.946,1.168,3.288,1.744,4.938
			c0.358,0.803,0.848,1.476,0.874,2.616c0.717,0.347,1.132,0.995,1.449,1.744c0.104,1.931,0.453,3.616,0.291,5.811
			c0.353,1.102,0.562,2.345,1.162,3.196c0.362,0.992,0.625,2.087,1.162,2.906C103.609,56.698,104.012,62.878,103.346,68.075z"/>
	</g>
</g>
</svg>
