<?xml version="1.0" encoding="utf-8"?>
<!-- Generator: Adobe Illustrator 16.0.0, SVG Export Plug-In . SVG Version: 6.00 Build 0)  -->
<!DOCTYPE svg PUBLIC "-//W3C//DTD SVG 1.1//EN" "http://www.w3.org/Graphics/SVG/1.1/DTD/svg11.dtd">
<svg version="1.1" id="Layer_1" xmlns="http://www.w3.org/2000/svg"  x="0px" y="0px"
	 width="120px" height="120px" viewBox="4 4 120 120" style="enable-background:new 4 4 120 120;" xml:space="preserve">
<g id="warning1">
	<g>
		<path d="M115.98,99.93c-0.721-1.756-1.461-3.492-2.477-4.955c-0.579-1.897-2.252-2.703-2.754-4.68
			c-1.203-1.271-1.791-3.162-3.025-4.402c-1.002-1.568-2.177-2.963-2.752-4.955c-0.806-0.389-0.875-1.513-1.377-2.203
			c-0.512-0.774-1.16-1.406-1.375-2.477c-1.316-1.158-1.832-3.123-3.031-4.402c-2.211-2.832-4.188-5.9-6.328-8.809
			c-1.168-1.309-2.225-2.729-3.301-4.127c-0.398-0.794-0.754-1.634-1.377-2.202c-0.108-1.176-1.218-1.351-1.377-2.478
			c-1.218-1.261-2.086-2.868-3.029-4.403c-1.305-1.924-2.275-3.984-3.299-6.056c-1.328-2.684-3.059-5.99-4.683-7.981
			c-2.435-2.989-4.028-6.458-6.052-9.634c-0.615-1.313-1.176-2.677-1.654-4.126c-0.748-1.18-1.456-2.397-3.3-2.478
			c-0.666-0.113-0.602,0.501-1.379,0.275c-0.936,0.714-1.637,1.666-2.203,2.752c-0.854,0.888-2.204,1.282-3.024,2.202
			c-1.062,1.968-2.956,3.102-3.854,5.23c-1.661,1.366-2.361,3.693-3.857,5.229c-0.957,2.066-2.111,3.943-3.299,5.781
			c-0.751,2.278-2.115,3.938-2.753,6.329c-0.601,1.051-0.606,2.696-0.829,4.128c-5.03,7.904-8.935,16.936-14.034,24.771
			c-2.623,3.89-4.629,8.399-7.154,12.388c-0.238,1.324-1.146,1.979-1.377,3.303c-0.842,0.812-1.007,2.296-1.928,3.027
			c-0.068,1.58-1.159,2.143-1.376,3.578c-0.44,0.385-0.703,0.946-0.826,1.649c-0.727,0.099-0.249,1.403-0.823,1.651
			c-0.381,1.302,0.862,1.81,0.274,2.478c-0.419,0.502-0.419,2.25,0,2.753c1.863,2.173,5.495,2.578,9.356,2.751
			c3.561,0.783,7.816-0.057,11.286-0.274c11.002-0.752,22.771-1.092,34.679-0.552c12.022,0.546,24.076,0.154,34.953,0
			c2.954-0.62,6.375-0.778,8.257-2.475c0.484-1.017,0.241-2.507,0-3.578C115.705,102.402,116.094,101.417,115.98,99.93z
			 M28.18,88.645c0.782-0.229,0.718,0.389,1.379,0.273c-0.366,0.92-1.609,0.96-1.927,1.928C26.901,90.27,28.32,89.531,28.18,88.645z
			 M105.25,104.332H82.956c0.524-1.398,1.802-2.049,1.925-3.854c-1.377-2.037-3.994,0.405-4.68,1.651
			c-0.42,0.876-0.098,1.211,0,2.202c-4.059-0.068-7.473-0.784-11.836-0.551c-1.082-0.02-0.188-2.016-1.374-1.926
			c-1.8-0.24-1.753,1.367-2.753,1.926h-9.359c0.149-1.779,1.76-2.096,2.203-3.578c-1.206-2.266-4.261-0.38-5.504,0.552
			c-0.473,0.995-1.227,1.71-1.377,3.026H47.45c0.484-1.074,1.352-1.77,1.374-3.305c-0.079-0.561-0.745-0.537-0.825-1.099
			c-2.61,0.229-3.729,1.957-3.852,4.679c-1.865-0.216-2.925,0.375-4.677,0.274c-0.908,0.201-0.425-0.547,0-0.551
			c0.08-0.562,0.745-0.539,0.826-1.101c1.861-1.896,4.208-3.312,5.227-6.057c-0.019-0.807-0.63-1.021-1.101-1.376
			c-2.603,0.056-3.424,1.896-5.231,2.752c-1.281,1.469-2.654,2.851-3.852,4.405c-0.166,0.658-0.396,1.255-0.274,2.201
			c-1.603,0.142-3.08,0.405-4.955,0.273c-0.516,0.016-0.582-0.211-0.275-0.55c0.396-0.154,0.675-0.431,0.826-0.825
			c0.723-0.377,1.041-1.159,1.925-1.377c0.916-1.286,2.501-1.904,3.305-3.303c0.873-0.229,1.398-0.803,1.925-1.376
			c1.151-0.042,1.151-1.234,1.654-1.927c-0.035-1.067-0.812-1.392-1.376-1.928c-1.854-0.132-3.029,0.273-3.855,0.826
			c-0.736,0.494-1.292,0.911-1.926,1.377c-0.367,0.268-0.887,0.812-1.1,0.824c-0.32,0.018-0.124,0.178-0.278,0.275
			c-0.588,0.381-0.941,0.731-1.375,1.101c-1.205,0.999-2.346,2.06-3.578,3.028c-0.436,0.666-0.982,1.217-1.651,1.65
			c-0.58,0.521-0.617,1.583-1.376,1.928c-1.163,0.061-1.777-0.425-2.75-0.552c0.501-1.239,0.832-2.651,1.649-3.579
			c0.649-0.005,0.811,0.477,1.651,0.277c3.084-1.505,4.554-4.62,7.43-6.331c0.713-0.938,1.492-1.812,2.204-2.752
			c0.9-0.842,2.033-1.455,2.476-2.754c1.669-1.726,3.87-2.918,4.683-5.503c-0.484-1.225-2.267-0.196-3.03,0
			c-0.895,0.57-1.648,1.287-2.752,1.65c-0.017,0.168-0.042,0.325-0.275,0.274c-0.015,0.168-0.042,0.326-0.274,0.276
			c0.027,0.332-0.402,0.168,0,0c0.016-0.17,0.041-0.327,0.274-0.276c0.016-0.167,0.04-0.325,0.275-0.274
			c1.863-1.897,3.418-4.104,5.504-5.778c0.953-0.978,1.65-2.203,2.754-3.029c0.635-1.291,2.354-1.498,2.202-3.576
			c-0.829-1.241-1.96,0.148-3.027,0.274c-0.786,0.775-1.581,1.54-2.756,1.927c-1.667,1.54-3.364,3.056-5.227,4.404
			c0.027,0.329-0.402,0.168,0,0c0.387-1.908,1.915-2.673,3.302-3.578c0.353-0.747,1.41-0.793,1.653-1.652
			c1.187-0.005,1.012-1.37,2.199-1.375c1.971-2.616,5.475-3.702,6.608-7.155c-0.119-0.984-0.692-1.514-1.377-1.927
			c-2.143-0.126-3.172,0.862-4.128,1.927c-0.648-0.076,0.024-1.026,0.277-1.102c-0.042-0.686,0.429-0.853,0.549-1.377
			c0.349-0.935,0.976-1.591,1.376-2.477c0.741-1.827,1.979-3.159,2.753-4.955c0.55,0.277,0.434,1.217,1.375,1.102
			c1.707-0.678,2.578-2.194,3.304-3.855c0.018-1.119-1.019-1.183-2.204-1.1c2.688-3.917,4.104-9.106,6.606-13.209
			c0.792-2.511,2.856-3.749,3.852-6.056c0.81-0.845,1.015-2.291,1.929-3.028c0.718-1.024,1.188-2.297,2.476-2.752
			c2.377,7.804,7.889,12.477,10.736,19.816c1.717,3.324,3.486,6.603,5.504,9.633c2.131,3.004,3.771,6.5,6.053,9.357
			c2.34,2.707,4.305,5.787,6.332,8.808c1.289,1.278,2.107,3.028,3.029,4.679c1.246,1.32,1.803,3.333,3.021,4.678
			c1.156,3.894,4.104,5.989,5.506,9.635c1.021,1.549,2.238,2.902,3.029,4.679c1.049,1.646,1.948,3.356,2.477,5.229
			C108.557,103.602,107.047,104.113,105.25,104.332z M76.348,51.212c-2.201-3.21-6.41-4.416-12.109-4.128
			c-2.07,0.5-4.102,1.036-6.331,1.375c-0.558,0.914-0.733,2.2-1.099,3.303c0.083,1.198,0.721,1.846,0.826,3.028
			c0.09,5.138,0.731,9.728,0.551,15.137c0.462,2.38,1.97,3.718,2.201,6.33c0.931,0.812,2.107,1.377,3.025,2.202
			c-0.21,1.678,0.188,2.749,0.826,3.579c0.807-0.072,0.846,0.621,1.651,0.549c2.719-0.032,3.01-2.494,3.855-4.401
			c0.968-1.873,1.669-4.019,2.75-5.781C74,68.314,76.025,64.742,76.9,60.02c0.179-2.779,0.102-5.419-0.275-8.257
			C76.408,51.702,76.303,51.533,76.348,51.212z M67.268,66.9c0.07,0.807-0.625,0.847-0.552,1.649
			c-0.797-0.726,0.616-1.567,0.275-2.751c0.448-0.652,0.532-1.667,0.825-2.477c1.07-0.063,1.428,0.591,2.201,0.825
			C69.848,65.814,68.043,65.842,67.268,66.9z M71.67,58.369c-0.766,0.125,0.217-1.499-0.553-1.375v-1.652
			c-0.307-0.515-0.326-1.325-1.372-1.101c0.147-0.974-0.235-1.419-0.828-1.65c-2.038,0.438-1.336,3.618-1.926,5.504v3.302
			c-0.644,0.092-1.187,0.282-1.378,0.825c-0.68-0.701,0.119-2.251,0.275-3.027c-0.013-1.299,0.483-2.086,0.553-3.302
			c-0.072-0.806,0.621-0.847,0.55-1.652c0-1.511-2.08-1.636-3.306-1.101v-0.826c2.814-0.669,6.995-0.408,8.26,1.376
			C71.715,55.108,71.585,56.633,71.67,58.369z M70.293,85.893c-0.322-0.045-0.781,0.047-0.824-0.274
			c-0.771-0.33-1.9-0.304-3.027-0.276c0-0.152-0.223-0.312-0.277,0c-1.301-0.107-2.296,0.09-3.299,0.276
			c-1.067,0.86-2.23,1.627-3.302,2.477c-0.171,0.748-0.547,1.289-1.103,1.65c-0.247,1.987-0.522,4.68,0,6.606
			c0.815,1.021,1.732,1.937,2.751,2.752c4.952,1.396,9.486-0.976,11.286-4.403c0.409-1.748,0.409-4.584,0-6.33
			C71.863,87.439,70.907,86.838,70.293,85.893z M66.441,93.875c-0.455-0.279-0.301-1.17-0.553-1.654
			c-0.703-0.029-0.543-0.92-0.549-1.648h2.75C68.455,92.583,67.244,93.023,66.441,93.875z"/>
	</g>
</g>
</svg>
