<?xml version="1.0" encoding="utf-8"?>
<!-- Generator: Adobe Illustrator 16.0.0, SVG Export Plug-In . SVG Version: 6.00 Build 0)  -->
<!DOCTYPE svg PUBLIC "-//W3C//DTD SVG 1.1//EN" "http://www.w3.org/Graphics/SVG/1.1/DTD/svg11.dtd">
<svg version="1.1" id="Layer_1" xmlns="http://www.w3.org/2000/svg"  x="0px" y="0px"
	 width="120px" height="120px" viewBox="4 4 120 120" style="enable-background:new 4 4 120 120;" xml:space="preserve">
<g id="code1">
	<g>
		<path d="M118.08,61.065c-0.596-1.444-1.479-2.604-2.624-3.501c-1.554-2.527-4.28-3.883-5.833-6.416
			c-1.29-0.653-2.256-1.634-3.5-2.334c-2.456-2.697-4.783-5.521-7.586-7.875c-1.152-1.375-2.029-3.026-3.497-4.084
			c-0.916-1.712-1.972-3.281-3.502-4.375h-2.626c-0.432,0.154-0.73,0.432-1.164,0.582c-1.873,1.631-3.622,3.381-5.252,5.252
			c-1.114,0.634-1.59,1.907-2.919,2.333c-0.237,1.509-1.825,1.675-2.039,3.207c0.915,4.725,4.272,7.006,6.416,10.501
			c0.876,1.945,1.955,3.688,3.209,5.252c0.651,0.81,1.392,1.526,2.041,2.334c0.396,1.064,1.479,1.443,1.751,2.625
			c-1.458,1.652-2.744,3.479-4.082,5.25c-1.332,1.877-3.141,3.278-4.377,5.25c-1.051,0.506-1.451,1.658-2.334,2.334
			c-0.465,1.09-1.812,1.299-2.042,2.625c-1.528,1.678-3.666,2.75-3.791,5.834c0.178,1.865,1.987,2.096,2.915,3.209
			c1.244,0.799,1.966,2.119,3.209,2.916c1.099,0.945,2.211,1.871,3.501,2.625c0.955,1.188,1.889,2.39,3.794,2.625
			c3.908-1.532,5.923-4.965,9.042-7.293c2.819-2.719,5.451-5.629,8.167-8.457c3.128-2.414,6.023-5.061,8.75-7.877
			c1.428-1.295,3.264-2.176,4.084-4.082c1.507-1.312,3.188-2.45,3.209-5.25C120.721,62.508,119.16,62.029,118.08,61.065z
			 M83.373,85.566c-0.68-0.199-0.782-0.973-1.461-1.168c0.404-0.859,1.35-1.182,1.753-2.039
			C84.389,83.1,83.539,84.742,83.373,85.566z M87.163,49.981c-1.325-0.23-1.281-1.831-2.333-2.333
			c-0.624-0.934-1.373-1.74-2.043-2.625c0.089-0.985,1.295-0.846,1.458-1.75c0.771-0.3,0.981-1.156,1.753-1.458
			c1.191-0.948,2.258-2.017,3.206-3.208c1.052,0.115,0.894,1.442,1.46,2.04C89.455,43.715,87.922,46.463,87.163,49.981z
			 M88.329,88.773c-0.888-0.357,0.317-1.002,0-1.752c-0.231-1.01,0.437-1.119,0.293-2.039c0.136-1.323,0.524-2.392,0.582-3.791
			c0.763-2.258,0.885-5.146,1.751-7.293c0.285,0.008,0.229,0.355,0.292,0.584c-0.418,1.234-0.114,3.19-0.583,4.375v4.082
			c0.51,0.559,0.343,1.799,1.457,1.752C91.393,86.585,89.484,87.305,88.329,88.773z M90.664,54.065
			c-0.786-0.782,0.371-1.111,0.583-1.751c0.05-0.827,0.537-1.217,0.585-2.042c0.511-1.333,0.971-2.721,1.455-4.083
			c0.154-0.235,0.306-0.475,0.292-0.875c1.231,0.133,1.344,1.38,2.334,1.752c-0.616,1.424-1.871,2.21-2.334,3.789
			C92.285,51.603,92.331,53.69,90.664,54.065z M95.913,81.482c-0.873-0.192,0.278-0.625,0-1.166v-1.752
			c-0.08-0.472,0.276-0.5,0.291-0.873v-2.334c-0.08-0.472,0.278-0.504,0.293-0.875v-0.877c0.7,0.176,1.331,0.418,2.334,0.293
			c-0.054,1.414,0.386,2.338,0.583,3.5C98.707,79.219,96.861,79.905,95.913,81.482z M97.665,66.898
			c0.291-1.071,1.073-1.648,1.166-2.917c0.282,0.008,0.226,0.358,0.29,0.583c0.121,0.703-0.532,0.634-0.29,1.459
			c-1.091,0.756-1.207,2.49-2.627,2.916c0.067-0.519-0.291-1.461,0.586-1.166C96.586,66.986,97.391,67.209,97.665,66.898z
			 M99.707,62.523c0.861-2.697,3.579-4.895,2.916-8.169h-1.458c-0.374,0.019-0.405,0.377-0.876,0.292
			c-2.064,1.144-3.337,3.08-4.376,5.253c-0.675-0.197-0.782-0.971-1.457-1.167c0.381-1.66,1.312-2.772,2.041-4.085
			c0.683-1.356,1.63-2.453,2.04-4.081c1.21,0.054,0.986,1.54,2.044,1.748c0.489,0.873,1.335,1.389,2.042,2.04
			c1.613,0.625,2.507,1.968,3.792,2.918c-1.546,1.955-3.31,3.691-4.959,5.541C100.77,62.82,100.598,62.313,99.707,62.523z
			 M102.913,74.771c-0.655-0.215-0.114-1.633-0.29-2.332c0.143-0.922-0.523-1.031-0.29-2.041c0.745-1.783,2.081-2.977,2.914-4.668
			c1.011-1.517,1.644-3.411,2.916-4.667c-0.081-0.473,0.276-0.502,0.293-0.877c0.471-0.08,0.503,0.278,0.876,0.293
			c1.143,1.578,2.195,3.246,3.499,4.667C109.835,68.664,106.172,71.514,102.913,74.771z M49.536,48.521
			c1.712-1.3,3.677-2.35,4.082-4.958c-0.245-1.409-1.412-1.893-2.039-2.918c-0.91-0.743-1.428-1.879-2.043-2.916
			c-1.851-1.55-2.649-4.155-5.25-4.96c-1.172-0.2-1.667,0.281-2.627,0.291c-4.812,4.423-8.826,9.644-13.709,14.004
			c-5.191,4.138-9.968,8.701-13.705,14.292c-0.714-0.569-2.521-0.36-2.92,0.29c-0.978,1.997,0.491,3.422,1.167,4.667
			c0.947,1.192,1.746,2.531,2.333,4.084c1.669,1.832,3.456,3.545,4.377,6.125c2.221,1.283,3.132,3.867,5.249,5.25
			c1.5,2.002,3.833,3.172,5.25,5.248c0.198,0.681,0.969,0.785,1.169,1.461c0.225,0.648,0.61,1.14,0.581,2.041
			c1.355,0.59,1.769,2.121,2.915,2.918c0.663,1.384,1.89,2.199,2.919,3.209c1.334,0.125,2.475,0.443,4.083,0.291
			c2.271-1.326,4.274-2.922,6.127-4.668c1.375-0.467,2.145-1.551,3.207-2.334c1.183-0.66,1.626-2.067,1.461-4.082
			c-0.536-0.438-0.688-1.258-1.169-1.75c-0.633-0.336-1.887-0.057-2.039-0.873c-1.847-3.406-3.945-6.557-6.127-9.629
			c-0.86-1.764-1.776-3.473-2.92-4.957c-0.609-2.107-2.117-3.323-2.916-5.248c2.209-2.366,4.306-4.838,6.419-7.295
			C45.415,53.536,47.713,51.269,49.536,48.521z M40.786,81.191c-0.085,0.619,0.592,0.992,0.873,1.459
			c0.748,1.24,1.357,2.818,2.043,4.371c-1.54,0.401-2.169,1.724-3.5,2.336c-1.021,0.05-0.917-1.026-1.458-1.459
			c-0.506-0.467-0.857-1.09-1.166-1.75c0.253-2.273,1.907-3.146,2.33-5.25C40.383,80.816,40.413,81.176,40.786,81.191z
			 M38.453,77.691c-0.707,0.748-1.541,1.377-2.334,2.041c-0.279,0.986-0.994,1.533-1.459,2.334
			c-0.953,0.076-0.843-0.908-1.456-1.168c-0.502-0.373-1.147-0.604-1.17-1.459c0.487-0.389,0.453-1.295,0.876-1.748
			c0.168-0.611,0.726-0.832,0.584-1.754c0.73-0.822,1.158-1.953,1.459-3.205c0.339-0.049,0.519,0.062,0.585,0.291
			C36.633,74.456,37.124,76.49,38.453,77.691z M35.538,53.481c0.007,1.059-0.166,2.302,0.581,2.624
			c-0.919,1.196-2.002,2.302-2.915,3.5c-0.931,1.217-2.267,2.4-2.044,4.667c-0.078,1.248,0.846,1.487,1.46,2.042
			c-0.037,1.301,0.718,1.81,0.874,2.916c-1.267,2.914-3.337,5.023-4.667,7.875c-1.697-0.734-2.574-2.289-3.794-3.5
			c2.244-3.881,4.08-8.172,6.127-12.25c-0.015-1.309-2.595-1.606-3.21-0.583c-1.051,0.601-1.573,1.731-2.624,2.333
			c-0.39,1.261-1.475,1.832-2.041,2.917c-0.758,0.996-0.998,2.502-2.336,2.916c1.061-4.874,4.069-7.795,4.669-13.126
			c-0.045-0.823,0.826-0.729,1.168-1.167c0.262-0.511,0.652-0.901,1.164-1.165c0.867-0.69,1.448-1.668,2.626-2.042
			c-0.028-0.353,0.426-0.18,0,0c-0.596,2.612-2.644,3.77-2.626,7c0.373,0.501,0.604,1.148,1.46,1.167
			c1.74-0.012,2.175-1.327,2.624-2.626c0.747-1.001,1.33-2.169,1.751-3.498c1.559-2.041,1.889-5.306,3.5-7.293
			c-0.172-0.52,0.855-1.212,0-1.459c1.287-1.727,3.09-2.941,4.374-4.666h0.293c0.016-0.18,0.044-0.346,0.292-0.292
			c-0.032-0.354,0.424-0.179,0,0c-0.018,0.176-0.042,0.345-0.292,0.292c-1.059,2.246-2.218,4.389-3.499,6.416
			C37.601,48.936,36.396,51.037,35.538,53.481z M42.534,48.521c-0.258,0.349-0.614,1.022-0.875,0.875c0.031,0.354-0.422,0.181,0,0
			c0.765-2.737,1.917-5.082,2.919-7.582c0.922,0.341,1.015,1.514,1.747,2.038c-0.308,1.239-1.604,1.777-2.333,2.627
			c-0.179,0.21-0.137,0.672-0.29,0.874C43.314,47.867,42.835,48.123,42.534,48.521z"/>
	</g>
</g>
</svg>
