<?xml version="1.0" encoding="utf-8"?>
<!-- Generator: Adobe Illustrator 16.0.0, SVG Export Plug-In . SVG Version: 6.00 Build 0)  -->
<!DOCTYPE svg PUBLIC "-//W3C//DTD SVG 1.1//EN" "http://www.w3.org/Graphics/SVG/1.1/DTD/svg11.dtd">
<svg version="1.1" id="Layer_1" xmlns="http://www.w3.org/2000/svg"  x="0px" y="0px"
	 width="120px" height="120px" viewBox="0 0 120 120" enable-background="new 0 0 120 120" xml:space="preserve">
<g id="open-sign">
	<g>
		<path d="M72.924,70.374c-1.268-0.761-1.377-2.683-3.842-2.242c-0.085,0.45-0.703,0.365-0.963,0.642
			c-0.441,0.195-0.049,1.231-0.639,1.279c0.357,7.192-1.025,12.641-0.645,19.855c1.018,0.267,1.629,0.934,2.244,1.602
			c3.062,0.184,5.201-0.562,8.322-0.32c0.523-1.078,1.838-1.365,1.924-2.883c-0.331-0.843-1.271-1.078-1.604-1.922h-6.084
			c0.078-1.309-0.312-3.087,0.645-3.521c2.438-0.124,5.623,0.501,6.723-0.962v-2.239c-0.867-1.802-4.979-0.361-6.723-1.281
			c-0.033-1.312-0.062-2.625,0.318-3.522c1.609,0.225,2.229-0.543,3.84-0.318c1.517,0.02,2.279-0.712,2.885-1.602
			c0.211-1.172-0.692-1.229-0.641-2.242C76.795,69.852,75.41,70.471,72.924,70.374z M109.432,54.682
			c-4.035-3.65-11.707-3.666-19.535-3.521c-1.467,0.077-0.021-2.752-0.961-3.203c-1.762-0.586-2.881-1.818-4.48-2.562
			c-0.322-0.854-1.293-1.055-1.922-1.602c-0.533-0.643-0.859-1.488-1.924-1.601c-2.053-2.537-4.67-4.509-6.726-7.046
			c-1.595-0.539-2.276-1.992-3.843-2.562c-0.908-1.118-2.396-1.659-3.523-2.561c0.877-0.725,0.795-2.411,1.282-3.523
			c0.072-1.566-0.976-2.012-0.962-3.522c-3.092-2.716-9.699-1.451-11.527,1.602c-0.66,2.484-0.272,5.235,0.96,6.725
			c-0.396,1.526-1.786,2.056-2.882,2.882c-0.588,1.334-2.25,1.594-2.881,2.883c-2.374,1.47-4.032,3.654-6.406,5.124
			c-1.855,1.986-3.852,3.835-6.084,5.443c-1.744,2.1-3.772,3.914-6.085,5.444c-4.168-0.112-7.857,0.254-10.888,1.281
			c-1.784,0.565-2.324,2.373-3.844,3.202c-0.873,2.224-1.548,4.644-2.241,7.046c0.142,7.186-1.06,13.029-0.641,20.496
			C14.125,85.872,14.72,87.43,14,87.668v7.366c0.721,0.239,0.125,1.796,0.319,2.562c0.479,2.082,1.754,3.371,2.882,4.805
			c2.781,0.955,5.741,1.73,8.967,2.24c9.823-0.105,18.334,1.096,27.221,1.922c13.521-0.178,24.621,2.065,38.429,1.604
			c2.617-0.689,5.815-0.805,8.646-1.282c3.563,0.364,5.365-1.038,8.007-1.601c1.926-1.49,3.463-3.368,4.805-5.443
			C114.527,84.343,114.668,65.68,109.432,54.682z M60.434,26.5h1.921C62.512,27.637,60.16,27.914,60.434,26.5z M42.18,51.799
			c0.031-0.822,1.252-0.456,1.282-1.28c0.987-0.72,1.843-1.573,2.562-2.562c1.397-0.31,1.77-1.646,2.883-2.242
			c0.871-0.729,1.783-1.418,2.561-2.242c1.805-1.505,3.602-3.017,5.445-4.483c1.798-1.509,3.325-3.292,5.442-4.482
			c0.115-0.421,0.564-0.504,0.641-0.962c0.372-0.051,0.57,0.071,0.643,0.321c1.899,0.66,2.768,2.356,4.481,3.202
			c1.008,1.449,2.42,2.492,3.844,3.522c2.179,2.732,4.734,5.087,7.045,7.686c0.982,0.406,1.687,1.091,2.562,1.602
			c0.348,0.808,2.453,0.91,1.603,1.921c-5.866,0.104-11.332-0.195-16.651-0.639c-8.793,0.384-15.843,2.516-25.619,1.92
			C40.851,52.176,41.806,52.278,42.18,51.799z M107.83,87.025c0,4.311,0.043,8.654-0.961,12.17
			c-3.58,2.719-10.617,1.979-15.691,3.201c-13.203,0.395-24.078-1.539-36.828-1.602c-5.627-0.777-12.117-0.693-17.613-1.604H27.13
			c-2.688-0.406-5.989-0.199-7.686-1.602c-1.188-5.645-0.425-13.238-0.641-19.855c0.889-5.834,0.207-13.24,1.922-18.25
			c0.833-0.863,0.966,0.391,1.921,0.319c0.466,0.495,1.64,0.282,2.562,0.319c1.651-0.269,3.424-0.417,5.444-0.319H42.18
			c7.279-0.407,13.969-1.403,20.496-2.562c9.399,0.4,19.863,0.61,28.822-0.32c0.518,0.091,0.551-0.303,0.961-0.32
			c4.512,0.186,8.934,0.46,12.169,1.922c1.515,4.569,2.679,9.491,3.202,15.052V87.025z M43.462,74.537
			c-1.503-1.594-2.255-3.939-4.483-4.805c-0.939-0.558-2.234-0.754-3.843-0.642c0.001-0.178-0.26-0.362-0.321,0
			c-1.939-0.337-2.463,0.74-3.843,0.96c-1.085,1.157-1.855,2.631-2.882,3.846c-0.108,4.052-0.883,9.014,0.32,12.486
			c1.018,1.439,2.311,2.602,3.842,3.523c2.195,0.059,4.289,0.018,6.086-0.32c3.855-2.336,6.251-6.131,5.764-12.811
			C43.834,76.086,43.272,75.686,43.462,74.537z M33.854,86.064c-2.642-0.772-1.802-5.027-1.921-8.326
			c0.431-1.598,1.372-2.684,2.562-3.521C42.419,73.256,41.291,87.382,33.854,86.064z M62.035,71.014
			c-1.418-0.716-2.821-1.449-4.484-1.921c-3.6-0.29-5.581,1.035-8.005,1.921c-0.287,1.207-0.276,2.713-0.64,3.844v9.287
			c-0.031,3.125-0.187,6.377,2.561,6.727c3.539,0.016,2.854-4.193,2.883-7.688c1.971,0.155,3.059-0.568,5.124-0.319
			c2.894-1.911,5.637-3.968,5.764-8.646c-0.399-0.667-0.784-1.352-1.28-1.922C63.283,71.9,62.709,71.409,62.035,71.014z
			 M54.67,78.699c-0.587-1.256-0.412-4.156,0-5.443c2.319-0.684,4.422,0.666,5.764,1.922C59.955,77.793,57.418,78.352,54.67,78.699z
			 M94.7,67.172c-0.459,1.463-0.781,3.061-0.962,4.805c0.229,1.188-0.545,1.373-0.318,2.562c-0.389,0.57-0.061,1.861-0.641,2.24
			c-2.107-1.096-3.246-3.158-4.805-4.803c0.469-0.98,0.086-1.67-0.32-2.562c-4.369-0.74-3.857,3.4-4.483,6.404v7.365
			c-0.101,0.752-0.505,1.201-0.319,2.242c0.438,2.229,0.021,5.315,2.881,5.123c3.229-1.15,1.465-7.29,1.922-11.209
			c1.715,1.172,2.818,2.948,3.846,4.805c0.091,1.828,0.631,3.213,1.279,4.482c1.016,0.445,2.826,0.445,3.843,0
			c1.751-2.199,1.271-6.626,2.241-9.605c0.344-3.606,1.395-6.508,1.281-10.567c-0.584-0.481-0.754-1.384-1.281-1.922
			C97.25,65.953,95.869,66.471,94.7,67.172z"/>
	</g>
</g>
</svg>
