<?xml version="1.0" encoding="utf-8"?>
<!-- Generator: Adobe Illustrator 16.0.0, SVG Export Plug-In . SVG Version: 6.00 Build 0)  -->
<!DOCTYPE svg PUBLIC "-//W3C//DTD SVG 1.1//EN" "http://www.w3.org/Graphics/SVG/1.1/DTD/svg11.dtd">
<svg version="1.1" id="Layer_1" xmlns="http://www.w3.org/2000/svg"  x="0px" y="0px"
	 width="120px" height="120px" viewBox="0 0 120 120" enable-background="new 0 0 120 120" xml:space="preserve">
<g id="book1">
	<g>
		<path d="M113.664,87.764c0.186-4.848-0.422-8.899-1.145-12.838c-0.131-16.265,0.739-33.701,0.57-49.642
			c-0.021-2.243,0.217-4.468-1.145-6.279c-3.059-1.691-8.104-1.401-12.836-1.424c-0.361,0.015-0.395,0.366-0.854,0.285
			c-2.589-0.114-4.322,0.624-6.562,0.856c-1.896,0.953-4.062,1.643-5.989,2.566c-2.132,0.82-3.938,1.956-6.276,2.568
			c-1.74,1.111-3.646,2.062-5.707,2.851c-1.589,1.358-3.353,2.545-5.134,3.712c-0.51,1.107-1.838,1.396-2.282,2.567
			c-0.591,1.027-1.397,1.834-2.566,2.28c-2.271-1.059-4.035-2.624-5.992-3.992c-3.511-1.245-6.315-3.199-10.271-3.996
			c-3.549-2.728-8.193-4.356-14.265-4.562c-6.204-0.184-11.956-0.84-17.403,0.286c-0.475,5.231-0.766,10.645-1.141,15.976
			c-0.094,2.761-0.182,5.521-0.572,7.988c-0.172,2.774,0.357,6.251-0.283,8.559c-0.377,11.882,0.693,22.315,0.568,33.95
			c-0.299,2.268-0.648,4.483-0.568,7.133c0.068,1.166-0.281,2.748,0.568,3.139c0.377,0.958,1.479,1.188,1.998,1.999
			c0.924,0.351,0.219-0.923,1.141-0.571c0.869,0.204,1.041-0.292,1.715-0.287c0.703-0.628,1.457-1.201,2.566-1.425
			c1.461-1.104,3.588-1.549,5.418-2.28c4.445-0.597,9.938-0.146,14.838-0.285c1.289,0.039,1.963,0.696,3.139,0.854
			c1.25,0.747,1.854-1.067,3.135-0.287c1.149,0.47,1.99,1.244,3.139,1.716c1.176,0.533,1.919,1.504,3.139,1.994
			c1.104,1.657,2.371,3.146,3.709,4.562c0.613,0.723,1.072,1.593,1.713,2.283c0.433,0.992,0.667,2.188,2.28,1.998
			c3.207,0.639,3.703-1.434,5.135-2.565c1.117-1.454,2.484-2.655,3.994-3.711c0.32-0.06,0.449-0.315,0.574-0.571
			c2.631-1.077,5.104-2.312,7.416-3.707c2.541-1.262,5.791-1.816,8.271-3.139c6.169-1.35,11.599-3.43,19.4-3.141
			c1.08,0.348,2.305,0.555,3.141,1.145c0.945,0.398,2.662,1.041,3.425,0C115.029,92.753,113.664,89.782,113.664,87.764z
			 M60.883,54.669c-0.271,14.522-0.93,29.997-0.568,44.222c0.212,1.101-1.092,0.104-1.143-0.283c-0.43-0.43-1.203-0.514-1.426-1.145
			c-1.076-0.54-1.935-1.301-2.854-1.998c-1.434-0.373-2.436-1.175-3.709-1.709c-0.76-0.195-1.453-0.449-1.998-0.859
			c-0.744-0.107-1.566-0.144-1.996-0.565c-2.783,0.114-5.248-0.078-7.42-0.572c-6.662-0.007-12.838,0.478-18.543,1.427
			c-0.083-19.42-0.545-38.629,0-57.916c0.064-1.492-0.004-2.847-0.283-3.992v-1.999c-0.037-0.714-0.547-0.894,0.283-1.141h0.857
			c0.459,0.08,0.49-0.271,0.855-0.284h8.559c3.773,0.791,7.17,1.959,11.127,2.568c3.242,1.797,6.717,3.362,9.699,5.419
			c3.319,0.862,6.521,1.85,8.559,3.995C61.73,44.5,60.498,49.514,60.883,54.669z M108.527,82.629
			c-0.035,1.203-1.027,1.441-1.428,2.281c-0.707-0.045-0.883,0.447-1.426,0.568c-0.156,0.418,0.33,1.477-0.283,1.429h-9.416
			c-6.283,1.229-10.705,4.321-16.55,5.989c-2.462,1.346-5.274,2.33-7.7,3.711c-1.082,0.816-2.689,1.112-3.425,2.283
			c-0.884,0.067-1.106,0.793-1.714,1.141c-0.521-0.016-0.965,1.462-1.426,0.57c0.68-19.104,0.576-38.985,0.572-58.772
			c0.363-0.865,1-1.47,1.426-2.281c0.502-0.733,1.238-1.23,1.711-1.997c0.881-0.355,1.531-0.941,1.998-1.712
			c0.654-0.579,1.445-1.024,1.998-1.712c2.025-0.826,3.475-2.226,5.701-2.852c1.584-1.177,3.258-2.263,4.852-3.424
			c4.54-1.452,8.081-3.904,14.553-3.426c0.459,0.083,0.492-0.268,0.854-0.284c2.767,0.185,5.493,0.403,8.562,0.284v3.71
			c0.332,0.998,1.1,1.561,1.139,2.854c0.117,12.947-0.283,26.104-0.283,39.37C108.243,74.516,108.988,78.639,108.527,82.629z
			 M75.146,49.248c0.481-0.944,1.537-1.316,2.285-1.995c0.139,1.187,1.289,1.371,2.281,1.712h2.281
			c0.398-0.459,0.98-0.73,1.71-0.859c0.996-0.904,1.351-2.457,2.854-2.854c3.229,1.041,4.885-1.699,6.846-2.851
			c0.697,0.635,2.039,0.624,3.425,0.569c0.368-0.771,1.271-1.012,1.142-2.28c-0.461-0.777-0.679-1.792-1.996-1.712
			c-0.511-0.729-1.307-1.167-2.567-1.143c-2.446,0.407-3.65,2.054-5.419,3.14c-2.989,0.435-4.19,2.654-6.85,3.423
			c-0.767-0.28-0.703-1.391-1.425-1.713c-0.81-0.048-1.19-0.521-2-0.569c-2.046,0.329-3.168,1.585-4.563,2.568
			c-0.926,1.449-2.649,2.104-2.853,4.28c0.328,1.381,1.095,2.327,2.853,2.28C74.202,50.965,74.518,49.95,75.146,49.248z
			 M46.618,48.105c-1.358-0.73-1.392-2.792-3.14-3.137c-2.801-0.234-3.406,1.727-5.99,1.711c-0.586-2.171-1.559-3.956-2.852-5.418
			c-3.746-1.04-6.822,0.682-8.272,2.85c-0.226,2.032,0.2,3.414,1.425,3.994c1.373,0.14,0.7-1.77,1.711-1.995
			c0.867-0.465,1.404-1.259,2.854-1.142c0.645,2.111,1.221,4.296,2.568,5.707c2.053,1.038,5.222,0.453,6.847-0.572
			c0.661,0.859,1.421,1.62,2.282,2.284c0.335,0.043,0.811-0.05,0.857,0.284c1.797,0.088,3.375-0.045,4.85-0.284
			c1.156,0.232,3.293,0.679,3.992-0.286c0.064-0.221,0.008-0.564,0.287-0.57C53.993,47.758,50.027,46.899,46.618,48.105z
			 M92.838,53.242c-1.188,0.51-2.32,0.426-3.424,0.858c-0.129,0.045-0.416,0.488-0.57,0.568c-0.4,0.207-0.751,0.086-1.146,0.285
			c-0.178,0.09-0.311,0.441-0.565,0.571c-0.407,0.202-0.729,0.119-1.144,0.283c-1.137-0.767-2.416-1.391-4.562-1.14
			c-1.95,0.615-3.382,1.755-4.85,2.854c-0.953,0.634-2.009,1.589-2.283,2.566c-0.328,1.149-0.008,1.254,0.284,2.284
			c3.794,1.332,5.104-2.064,7.704-2.854c1.038,0.196,1.313,1.155,2.565,1.141h2.851c0.245-0.424,0.924-0.413,1.43-0.571
			c0.431-0.33,0.699-0.823,1.429-0.856c0.719-0.704,1.377-1.476,2.565-1.71c0.965,0.078,1.64,0.455,2.854,0.284
			c1.362-0.443,2.754-0.86,3.709-1.712c1.135-0.671,2.728-0.885,2.853-2.568c-0.863-3.953-5.093-0.697-7.132,0
			C94.256,53.726,93.771,53.254,92.838,53.242z M50.897,61.516c-0.213-1.02-0.661-1.812-1.712-1.996
			c-0.174-0.015-0.338-0.045-0.285-0.287c-3.51-0.372-4.516,1.76-7.988,1.428c-0.875-0.835-1.529-1.895-2.568-2.568
			c-0.527-0.04-0.953-0.186-1.141-0.569c-3.556-0.415-4.988,1.285-7.131,2.282c-1.261-0.117-2.203,0.077-2.855,0.57
			c-0.385,0.86-0.385,2.274,0,3.138c0.977,0.735,2.402,1.024,4.281,0.856c1.527-0.661,2.75-1.622,4.279-2.281
			c1.149,1.034,1.825,2.55,3.424,3.138c0.851,0.574,2.691,0.159,3.992,0.285c1.162-0.646,2.611-1.007,3.711-1.713
			c0.381,2.975,6.842,3.128,6.846-0.285C53.306,62.342,52.478,61.552,50.897,61.516z M99.684,68.079
			c-2.338,0.608-3.812,2.08-5.99,2.851c-4.24-2.689-7.143,2.012-9.985,3.424c-0.741-0.97-2.092-1.33-3.991-1.141
			c-0.742,0.114-0.861,0.854-1.715,0.855c-0.896,1.291-2.234,2.139-2.854,3.709c-0.965-0.014-1.236,0.662-1.711,1.141
			c0.24,1.28,1.002,2.041,2.28,2.283c2.33-0.715,3.032-3.057,4.851-4.279c0.882,0.831,1.867,1.559,3.426,1.711
			c3.104-0.415,4.289-2.746,6.562-3.994c0.979,0.26,1.237,1.233,2.565,1.145c3.063,0.212,4.356-1.348,6.272-2.283
			c1.041,0.088,1.86-0.045,2.569-0.285c0.479-0.66,1.068-1.214,1.146-2.281C102.609,69.338,101.564,68.289,99.684,68.079z
			 M45.762,75.495c-2.232-0.24-4.574-0.37-7.133-0.285c-1.166-0.067-1.606-0.862-2.852-0.856c-3.934,0.062-8.738-0.748-8.271,3.711
			c1.176,2.302,4.371,0.838,7.416,1.142c2.844,1.343,7.373,0.994,11.123,1.428c2.359-0.401,5.523,0.002,5.994-2.28v-1.715
			C51.107,74.688,48.199,75.326,45.762,75.495z"/>
	</g>
</g>
</svg>
