<?xml version="1.0" encoding="utf-8"?>
<!-- Generator: Adobe Illustrator 16.0.0, SVG Export Plug-In . SVG Version: 6.00 Build 0)  -->
<!DOCTYPE svg PUBLIC "-//W3C//DTD SVG 1.1//EN" "http://www.w3.org/Graphics/SVG/1.1/DTD/svg11.dtd">
<svg version="1.1" id="Layer_1" xmlns="http://www.w3.org/2000/svg"  x="0px" y="0px"
	 width="120px" height="120px" viewBox="4 4 120 120" style="enable-background:new 4 4 120 120;" xml:space="preserve">
<g id="outgoing1">
	<g>
		<path d="M49,44.4c1.2-0.2,1.4,0.6,2.3,0.6c1,0.3,1.7-1.2,2.3-0.3c-0.3,2-0.4,4.1-0.3,6.4c0.4,1.4,0.5,3,0.9,4.4
			c-0.2,1.1,0.5,1.3,0.3,2.3c0.5,2.3,0.9,4.6,1.2,7c0.5,1.601,0.2,3.601,0.9,4.7c0.4,0.3,1.2,0.4,1.5,0.9c0.5,0.3,1.5,0.1,1.8,0.6
			c2.9,0.1,5.8-0.8,8.5,0c0.8-0.3,1.6-0.7,2.6-0.9c1.5-0.3,3.2-0.1,4.7-0.6c0.5-0.8,1.2-1.3,1.8-2c0.4-1.6-0.2-3.8-0.6-5.5
			c-0.101-2.3-0.7-4-0.9-6.1c-1-3.7-2.1-7.2-2.3-11.7H85.1c1.301,0.2,2.7,1,4.101,0.3c0.899-1,0.8-2,1.2-2.3
			c-0.101,0.1-0.2-1-0.301-1.2c-0.5-2.2-3-3.1-3.8-4.7c-5.399-3.6-9.3-8.7-14-12.8c-2.6-1.7-4.399-5.8-7.9-6.1
			c-0.6,0.1-0.7,0.6-1.5,0.6c-2,2.1-4.1,4.1-6.1,6.1c-1.2,0.8-2,2.1-3.2,2.9c-0.8,1.3-2.3,2-2.9,3.5c-2.3,1.8-4.3,3.9-6.4,5.8
			c-0.9,1.1-2,2.1-2.9,3.2c-1.3,0.8-2.2,2.1-2.3,4.1C41,45,45.5,44.2,49,44.4z M76.8,38c0.601-0.1,0.9,0.1,0.9,0.6h-0.9V38z
			 M61,59.3c0.2-0.4,0.3,0,0.3,0.3C61.1,60,61,59.6,61,59.3z M60.4,54.6c-0.9-0.3-0.6-1.8-0.9-2.6c-0.1-0.7-0.5-1.1-0.3-2
			c1.1,0.4,1.1,1.8,2.6,1.8C61.9,53.2,60.8,53.6,60.4,54.6z M71.2,29.2c-0.101,0.4-0.601,0.3-0.601,0C70.7,28.8,70.9,29.3,71.2,29.2
			z M71.2,64c-1-0.3-0.4-2.1-2-1.8c0-1.5,1-2.1,0.899-3.8C71,59.7,70.6,62.3,71.2,64z M68.6,52c0.601,0,0.601,0.7,0.601,1.5
			c0.3,0.8,0.6,1.5,0.6,2.6c-0.8-0.3-1.5-0.3-2,0.3c-0.7-0.2,0-1.5,0.3-1.8c0-0.7,0.2-1.4,0.601-1.8V52H68.6z M67.4,48.8
			c0-0.7,0.5-0.9,0.6-1.5C68.6,47.5,68.5,49.4,67.4,48.8z M63.9,24c0.2-0.2,0.3-0.5,0.3-0.9c1.7,0.6,2.2,2.3,3.8,2.9
			c-0.3,1.3-1.1,2.2-1.5,3.5c-0.8-1-0.2-3.3-1.5-3.8c-1.9-0.2-1.8,1.5-2,2.9c-0.7,1-0.8,2.5-0.9,4.1c-0.4,0.1-0.2,0.7-0.3,1.2
			c-1.1-0.8-0.8-3.1-1.2-4.7c0-0.8-0.5-1.2-0.6-2C61.8,26.6,62.4,24.8,63.9,24z M58.6,44.4h1.5c-0.5,0.6-0.5,1.6-1.5,1.8V44.4z
			 M57.5,29.8c0.3,0,0.5,0.1,0.6,0.3c0,0.8,0.2,1.9-0.3,2.3c-0.3,1.3,0.6,2.3,0,2.9c-0.8-0.9-0.7-2.8-1.5-3.8
			C56.5,30.8,57.5,30.8,57.5,29.8z M52.8,35.1c0.2-0.7,1-0.8,1.2-1.5c0.8,0.9-0.1,2.4,0,3.5c-0.9,0.2-1.8-1.1-2-0.6
			C51.1,36.1,52.4,35.3,52.8,35.1z M48.1,39.2c0.9,0.4,0,1.3-0.9,0.9C47.3,39.5,48.2,39.8,48.1,39.2z M117.1,75.4
			c-0.199-0.301-1.899-0.601-2,0c-1.3-0.301-1,1-2,0.899c-1.6-1.399-3.3-2.6-5-3.8c-1.399-1.6-3.5-2.6-5-4.1
			c-2-1-3.399-2.601-5.3-3.801c-1.5-1.2-3-3.7-5.8-2.6c-0.8,1.9,1.1,3.3,1.8,4.7c0.8,1.6,2.2,2.7,3.2,4.1c1.3,1.101,2.4,2.2,3.8,3.2
			c0.9,0.3,0.9,1.4,2,1.5c0.2,0.4,0.5,0.7,0.9,0.9c0,0.399,1.2,0.899,0.3,1.199c-6.5-0.3-14.2-1-20.7-0.3
			C82.4,77.8,82.4,79.1,81.8,79.9c-0.7,0.699-0.899,1.8-1.5,2.6c-0.5,2.3-1.1,4.5-2,6.4h-4.1C67,90.3,57.6,89.7,50,90.7
			c-1.1-1.8-2.1-3.8-2.9-5.8c-0.9-2-1.2-4.7-2.6-6.101C39.7,78,34.3,79.1,30.2,80c-4.7,0.7-8.7,2-13.1,2.9
			c1.5-1.9,3.5-3.301,5-5.301c1.9-1.6,4-3,5.8-4.699C30,71.6,32.1,70.3,34,68.8c2-1.6,4.8-2.5,4.7-5.8c-0.2-1.9-2-2.8-3.8-2.3
			c-1.3,0.7-2.3,1.6-3.2,2.6c-1.3,0.7-2.4,1.5-3.5,2.3C26.8,66.2,25.9,67.2,24.7,67.9c-1.3,0.699-2.1,1.8-3.5,2.3
			c-1.9,2-4.2,3.6-5.8,5.8c-1.1,0.8-2.1,1.8-2.9,2.9C11.7,79.1,11.8,80.1,10.7,80.1C10,80.4,9.8,81.3,9.2,81.9
			c0.5,8.3,1.7,16,4.1,22.5c0.4,2.199-0.3,3.699,0.9,5.3c2,1.2,5.9,0.3,8.8,0.6c1.2,0,2,0.5,3.5,0.3c1.9-0.199,4-0.3,5.8-0.6
			c10.1-0.2,20.2-0.4,29.5-1.5c11.5-0.1,22.7-0.4,34.2-0.6c4.9-1,11-0.9,16.9-0.9c3-1.8,3.8-5.7,4.1-10.2
			c0.5-0.7,0.4-1.899,0.6-2.899c0.4-0.9,0-2.5,0.601-3.2c0-2.5,0.6-4.2,0.899-6.4C118.4,80.5,120.3,76.3,117.1,75.4z M109.2,100.2
			c-8.3-0.4-14.8,1-22.8,0.899c-9,0.601-18.801,0.301-27.7,0.9c-0.1-1.4,0.4-3.6-0.9-3.8c-2.5-0.101-2.6,2.1-2.6,4.399
			c-3.1,0.101-5.8,0.5-9.1,0.301c0.2-2.101,2-4.301,0.6-6.101c-2.8-0.6-4.4,1.9-5.6,3.8c0.1,0.7-0.5,0.601-0.3,1.5
			c-0.4,0.7,0.8,1.101,0,1.2h-1.2c-1.1,0.3-0.5-1.3-0.3-1.5c0.3-0.5,0.1-1.5,0.6-1.8c0-1.2,0.7-2.8,0-3.8c-1.4-0.7-2.2,0.8-3.2,1.5
			c-0.8,1-1.5,2-2.3,2.899c-0.1,1-0.8,1.601-0.6,2.9h-2.6c0.6-2.7,2.9-5,2.3-7.9c-3-0.3-3.4,2-5,3.2c-0.4,1-1,1.7-1.5,2.601
			c-0.3,0.399-0.3,1.1-0.6,1.5c0.1,0.8,0.1,1.5-0.9,1.199c-1.4-0.199,0.2-1.6,0-2.3c0.3-0.8,0.4-1.8,0.9-2.3c0-1.9,1.1-3.7,0.6-5.3
			c-2.2-0.101-2.8,1.3-3.8,2.3c-0.9,1.1-1.5,2.6-2.3,3.8c0,0.9-0.4,1.4-0.6,2c-0.2,0.7,0.5,2.3-0.6,2c-1.4,0.4-0.7-1.2-0.9-2
			c0.9,0,1.1-0.7,1.5-1.2c0-0.3,0.1-0.5,0.3-0.6c0.2-2.1,1-3.4,1.5-5.3c0.2-1.601,1.6-3.9,0.3-5.3c-1.7,0.1-2.3,1.199-2.9,2.3
			c-0.6,1.1-1.4,1.899-1.8,3.2C17,94.7,18.1,93.3,18,92.2c0.4-0.9,0.6-2.2,0.9-3.2c-0.2-1-0.6-1.8-1.5-2c1.4-0.8,3.7-0.8,5.5-1.2
			c2-0.2,3.7-0.6,5.5-0.899c4.1-0.301,7.7-1.101,12-1.2C42,88,43.7,92,45.8,95.5c0.5,0,1,0.2,1.2,0.6c9.6-0.399,19.9-0.199,28.3-1.8
			c2,0.101,3.601-0.1,5.3-0.3c1.101-0.4,1.4-1.5,2.301-2c0.8-3.3,2-6.2,2-10.2V80.9C94.7,80.8,100.8,81.6,109.1,81.8
			c0.601,0.3,1,0.7,1.801,0.9c0.3,0.6,0.899,0.899,1.8,0.899C111.3,88.9,110.9,95.2,109.2,100.2z"/>
	</g>
</g>
</svg>
