<?xml version="1.0" encoding="utf-8"?>
<!-- Generator: Adobe Illustrator 16.0.0, SVG Export Plug-In . SVG Version: 6.00 Build 0)  -->
<!DOCTYPE svg PUBLIC "-//W3C//DTD SVG 1.1//EN" "http://www.w3.org/Graphics/SVG/1.1/DTD/svg11.dtd">
<svg version="1.1" id="Layer_1" xmlns="http://www.w3.org/2000/svg"  x="0px" y="0px"
	 width="120px" height="120px" viewBox="4 4 120 120" style="enable-background:new 4 4 120 120;" xml:space="preserve">
<g id="outgoing2">
	<g>
		<path d="M113,94.7c0.7-0.3,0.1-2,0.3-2.9c-0.3-0.8-0.399-2-0.3-3.2c-0.1-2.3-0.3-4.399-0.6-6.399c-0.7-13.3-0.2-27.8-1-41
			c-0.2-0.9-0.9-1.2-1.301-1.9c-1.399,0.3-1.6-0.5-1.899-1.3c-1.7-3-3.7-5.7-5.8-8.3c-1.2-1.1-1.801-2.9-3.2-3.8
			c0.1-1.3-1.4-1-1.3-2.2c-0.101-1.2-0.5-2.1-1.601-2.2c-0.5-0.7-2.399-0.1-3.5-0.3c-1.3-0.1-3.1,0.3-3.8-0.3H64.6
			c-0.399,0-0.399,0.4-1,0.3c-8.1,0-15,1.3-23.4,1c-1.8,0.1-3.2,0.6-5.1,0.6c-1.8,1.2-1.9-2.4-3.8-1c-2.7,0.4-3.4,2.8-4.8,4.5
			c-1.1,2-2.8,3.4-3.8,5.4c-1.7,1.4-2.6,3.6-4.5,4.8c-1,2.1-3.3,2.9-3.8,5.4c0.5,1.8,0.3,4.4,0.3,6.7c-1.1,7.9-0.7,17.7,0,25.6
			c0.6,8.5,0.4,17.8,1,26.3c-0.1,2.6-1,4.1,0,6.4c12.9,0.699,24.9-2.2,38.8-1.601c13-0.7,27.3,0,40.4-0.6c2.5-0.5,5.399-0.601,8-1
			h6.399c1.101,0,1.5-0.601,2.2-1c1.4,0.3,1.5-0.7,2.2-1C114.4,99.5,113.9,96.3,113,94.7z M23.3,39.6c0.4-0.7,0.9-1.2,1.3-1.9
			c1.3-0.8,1.8-2.2,2.9-3.2c1.7-2.5,3.4-4.9,5.1-7.4c5.1,0.9,10.2-0.3,15.7,0c13.3-0.7,28.101-0.1,40-1.3
			c1.601-0.3,1.601,0.9,3.2,0.6c1.1,0.1,1.1-1.1,1.9-1.3H94c1,3.1,3.2,4.9,4.5,7.7c1.2,0.8,1.8,2.3,2.6,3.5c1,1,1.9,2.2,2.2,3.8
			C95.1,42,84.5,40.3,76.7,42H65.6c-1.5-0.2,1-1.2,1-1.9c0.7-0.5,1.601-1.8,1-2.6c-1.3-1.5-3.2,0.5-4.2,1.3
			c-1.2,0.9-2.2,2.1-3.2,3.2h-3.5c-1.3,0.2,0-0.9,0.3-1c-0.1-1,0.9-0.8,1-1.6c0.9-0.7,1.9-1.3,1.9-2.9c-1-1.4-3,0.3-3.8,1
			c-1.7,1.3-3,3-4.5,4.5h-4.8c0.3-1.8,2.1-2.1,2.2-4.2c-1.2-0.7-2.7,0.8-3.5,1.6c-1.1,0.7-1.8,1.8-2.9,2.6h-6.4
			c1.2-2.7,4-3.9,5.1-6.7c-1.1-1.4-2.2,0.1-3.5,0.3c-0.6,1-1.8,1.4-2.6,2.2c-1.9,1.3-3.1,3.3-5.4,4.2c0-0.7-1.4-0.1-1.9-0.3
			c1.2-2.1,3-3.6,4.5-5.4c1.1-0.6,1.5-1.7,2.6-2.2c0.4-1.2,2-1.2,2.2-2.6c0-1.3-1-1.6-1.9-1.9c-2,0-2.6,1.4-3.8,2.2
			c-0.9,1.2-2.2,1.9-2.9,3.2c-2.2,1.9-4.1,4-6.1,6.1C21.5,40.7,22.9,39.9,23.3,39.6z M66.6,98.5c-3.8,0.8-8.399,0.8-12.5,1.3
			c-3.4,0.101-5.4-0.2-8.3,0h-2.9c0.4-1,1.1-1.7,1.3-2.899c0.4-0.2,0.6-0.7,0.6-1.301c0.7,0.101,1-0.3,1-1
			c-0.1-0.699-0.6-0.899-1-1.3c-0.7,0.4-1.2-0.8-1.3,0c-1.3,0.101-2,0.8-2.6,1.601c-1.5,1.3-2.3,3.3-3.2,5.1c-1.4,0-2.9-0.1-3.8,0.3
			C34,97,37.5,95.4,36.5,92c-2.8-0.2-3.4,1.9-4.8,3.2c-1,1.6-2.4,3-2.6,5.399h-4.2c0.5-1.199,1.3-2.1,2.2-2.899
			c0.4-1.3,1.3-2.2,1.9-3.2c0.5-1.2,1.3-2.1,1.6-3.5c0.5-1,1.7-1.9,1-3.2c-2.8-0.2-3,2.4-4.8,3.2c-0.9,1.8-2.4,2.9-3.5,4.5
			c-0.9-0.3,0.3-1.1,0.3-1.6c0.3-0.601,0.8-0.9,1-1.601c0.7-1,1.3-2.1,1.9-3.2c0.6-1.1,1.5-1.899,1.6-3.5c0.6-0.8,1.8-2.3,1-3.5
			c-2.3-0.1-2.2,2.2-3.8,2.9c-0.3,1-1.4,0.9-1.3,2c-0.4,0.1-0.5,0.6-1,0.6C22.9,88,22.4,88.4,22.4,87.9c0.2-3.601,3-4.4,4.2-7
			c0.9-0.9,1.5-2.2,2.2-3.2c0.3-1.2,1.9-2.4,1-3.8c-2-0.9-3.3,1.3-4.2,2.6C25,77,24.7,77.9,24,78.4C23.7,79.3,23.3,80,22.4,80.3
			c0.1-1.5-0.1-2.7-0.3-3.8c1.6-1.7,2.3-4.3,3.8-6.1c0.6-2.7,3-3.4,3.2-6.4c-0.1-1.1-1.8-0.5-2.9-0.6c-0.4,0.7-0.9,1.2-1.6,1.6
			c-0.7,1.5-1.9,2.6-2.6,4.2c-0.7-0.5-0.1-2.2-0.6-2.9c-0.1-1.1,0.3-2.6-0.3-3.2c0-2.2-0.4-4.1-0.6-6.1c-0.1-2.2-0.4-4-0.6-6.1
			c0.1-1.9-1.4-4.2,0-5.4c0.9-0.6,2.2,0.4,3.5,0.3c1.2,0.3,2.7,0.3,3.8,0.6c2.7,0.2,5.5,0.2,8,0.6c14.7,0.5,28.1-0.6,42.3,0
			c0.9,0,2,0.3,2.9,0.3c-0.101,0,0.199-0.5,0.3-0.3c0.2,0.3,0.399,0.3,1,0.3c-0.101,0,0.2-0.5,0.3-0.3c0.6,0.7,0.9,0,1.6,0
			c0.301,0,1.5,0.3,2.601,0.3c2.399,0,4.899,0,7.7,0C95,47.6,95.1,46.8,96.1,47h4.5c1.7-0.4,3.4-0.7,4.801-1.3
			c-0.101-0.5,0.3-0.6,0.3-1c0.399-0.1,0.6,0.1,0.6,0.3c0,2.1,0.2,4.4-0.3,6.1c0.2,12.8-0.7,26.7,1,38.1v4.5
			c0.2,1.5,0.8,2.7,1.3,3.8C94.2,97.8,80.5,98.3,66.6,98.5z M79.4,69.1c-0.2-0.3-0.101-0.699-0.301-1c-0.3-0.399-0.899-0.5-1.3-1
			c-0.399-0.399-0.2-1.199-1-1.3c-1.3-1.6-2.399-3.6-4.2-4.8c-1.199-1.7-2.3-3.5-3.8-4.8c-1.6-1.6-2.6-3.8-6.1-3.5
			c-0.1,0.5-0.5,0.5-0.6,1c-2.8,2.7-5.8,5.3-8.6,8c-1,1.8-2.5,3.1-3.5,4.8c-1,0.5-1.6,1.3-2,2.3c-0.5,0.3-1,0.5-1,1.3
			c-0.8-0.1-1.1,0.4-1,1.301c0.4,0.399,0.4,1.1,0.3,1.899c3,0.9,6.5,0.9,9.9,0.601c-0.5,2.199,0.3,5.3,0,8.3
			c-0.4,2.6-1.8,6.399-0.3,9c2.6,1.5,6.6,0,9.9,0.3c0.101-0.4,0.5-0.3,1-0.3c0.5-0.4,0.9-0.8,1.3-1.3c1,0.199,0.801-0.9,1.601-1
			c0.6-4.9-0.8-10.101-0.3-16h3.8c2-1,5.899-0.101,7-1.9C80.6,69.9,79.6,69.3,79.4,69.1z M65.3,80h0.3c0-0.4,0.5-0.2,0,0
			c0,0.4-0.199,0.7-0.3,1C64.8,80.8,65.1,80.2,65.3,80z M64,58.2c0.4,0.1,0.5,0.6,1,0.6c-0.8,0.5-1.3,1.3-1.3,2.6
			c-0.8-0.2-1.5-0.5-2.6-0.3C61.9,59.9,63,59.1,64,58.2z M64.3,74.8c-1-0.399,0.2-1.2,0.3-1.6C65.5,73.5,64.3,74.4,64.3,74.8z
			 M57,69.1C55.7,69.4,54.4,69.7,52.8,69.7c0.9-2.101,3-3,4.2-4.8C57.9,66,56.7,67.7,57,69.1z M58.9,63.3c0.3-0.6,0.7-1,1.3-1.3
			c0-0.4,0.5-0.2,0,0v1.6C59.5,63.7,59.4,63.3,58.9,63.3z M66.6,87.3c-2.3,0-4.5,0-6.399,0.3c-0.2-2.199,0.9-3,0.6-5.1
			c0.4-0.1,0.6,0.1,0.6,0.3C61.3,84.5,62,85.4,63,86c1.6-0.2,1.9-1.8,3.2-2.2C66.2,85.1,66.8,85.8,66.6,87.3z M70.4,69.1H68.8
			c0-0.6,0.4-0.699,0.3-1.3C70.1,67.6,70.6,68.1,70.4,69.1z"/>
	</g>
</g>
</svg>
