<?xml version="1.0" encoding="utf-8"?>
<!-- Generator: Adobe Illustrator 16.0.0, SVG Export Plug-In . SVG Version: 6.00 Build 0)  -->
<!DOCTYPE svg PUBLIC "-//W3C//DTD SVG 1.1//EN" "http://www.w3.org/Graphics/SVG/1.1/DTD/svg11.dtd">
<svg version="1.1" id="Layer_1" xmlns="http://www.w3.org/2000/svg"  x="0px" y="0px"
	 width="120px" height="120px" viewBox="4 4 120 120" style="enable-background:new 4 4 120 120;" xml:space="preserve">
<g id="palette">
	<g>
		<path d="M115.9,43.5c-1.301-2.7-3.101-5-4.4-7.7c-1.8-1.3-3-3.1-4.4-4.7c-1.1-0.5-2-1.2-3-1.8c-1.5-0.2-1.899-1.5-3.3-1.8
			c-1.6-1.7-4.3-2.5-6.2-3.9c-2.899-0.7-5.1-2.1-8.6-2.1c-2.7-0.8-5.7-1.4-8.3-2.4H70c-0.4,0-0.4,0.4-0.9,0.3
			c-2.899-0.2-5.1,0.3-7.7,0.3c-4.5,1.1-9.1,2.2-12.7,4.2c-4.4,1.3-8.2,3.3-12.2,5c-0.5,0.9-1.8,0.9-2.4,1.8c-1,0.5-1.6,1.4-2.7,1.8
			C30,34,28.1,35,27,36.6c-3.3,2.4-5.7,5.8-8.6,8.6c-0.6,2.1-2.2,3.2-2.7,5.3c-0.1,0.3-0.3,0.7-0.6,0.9c-0.5,4.2-1.7,7.8-2.4,11.9
			c-0.5,0.7-0.4,1.9-0.6,3c0,1.2-0.5,1.9-0.3,3.3c0,2.4-0.5,4.5-0.3,7.101c0.5,0.6,0.3,1.8,0.6,2.7c1.5,3.8,3.7,7,5.3,10.699
			c1.4,1.2,2.3,2.801,3.9,3.9c1.2,1.3,2.3,2.8,3.6,4.2c0.8,0.8,2.4,0.899,3,2.1c0.7,1,1.8,1.601,3,2.101
			c1.8,1.3,4.2,1.899,6.5,2.699c1.1,0.4,2.3,0.7,3.6,0.9c1,0.6,2.6,0.5,3.6,1.2c5.2,0.5,10.8,0.7,15.7,1.5h7.4
			c0-0.7,1.3-0.101,1.8-0.3c0.8-0.601,2-0.801,3-1.2c0.6-0.8,1.5-1.2,2.7-1.5c1-0.601,2.6-0.5,3.6-1.2c1.7,0,2.2-1.1,3.9-1.2
			c4.1-2.6,8.5-4.899,11.3-8.899c1.4-4.101,2.7-8.301,2.4-14.2c-0.801-2.5-2.301-4.2-3-6.8v-5.9c2.699-3.6,7.3-5.4,13-5.9
			c1.3-0.9,2.699-1.8,4.399-2.4c2.2-2.7,4.7-5.2,5.9-8.9C116.4,47.8,116.1,45.7,115.9,43.5z M106.7,54.8c-0.5,0-0.8,0.2-0.9,0.6
			c-2.8,0.9-6.1,1.2-8.6,2.4c-2.7,1-5.4,2.1-8.3,3c-1.7,3-1.801,8.9-1.2,13.3C88.9,75.8,90,77.7,91,79.7v7.1
			c-0.5,1.7-1.7,2.601-2.1,4.4c-2,1.7-4.101,3.2-6.2,4.7c-0.9-0.2-1.101,0.3-1.8,0.3c-1.801,1-4,1.8-5.601,3c-1.1,0.3-2,0.7-3,1.2
			c-1,0.1-2.6,1.199-3.6,0.3c-0.7,0.5-1.7,0.7-2.7,0.899c0.6-1.6-1.1-0.899-1.5-1.5c-3.8-0.3-5.6,1.5-9.2,1.5
			c0.2-1.1,0.8-3.3-0.6-3.6c-1.9,0-1.9,2.1-2.4,3.6c-2.9,0-5.9,0.101-8-0.6c-0.3-2,0.9-3.9-0.6-4.7c-2.3,0-1.9,2.7-2.7,4.2
			c-1.8-0.2-2.5-1.4-3.6-2.4c0.6-3.8,2.9-7.399,2.1-11.6c-1.6-0.4-1.8,0.9-2.4,1.5c-0.7,0.7-1.2,1.3-1.8,2.1
			C34.6,92,33.7,93.7,33.2,95.7c-1.3-0.4-0.5-1.5-0.3-2.7c0.3-1.1,0.5-2.3,0.9-3.3c0.1-2.4,1.6-4.9,0.9-7.101
			c-1.5-0.5-1.6,0.7-2.1,1.2c-0.5,0.601-1.2,1.3-1.2,2.101c-1,1.199-1.5,2.899-2.1,4.399c-1.2-0.2-1-2-0.6-3c0.5-1,0.7-2.3,1.2-3.3
			c0.2-1.2,0.8-1.9,0.9-3.3c0.6-0.101,0.1-1.3,0.6-1.5c0-0.8,0.2-1.7-0.6-1.8C29.1,76.6,28.2,79.1,27.2,80.1
			c-0.1,1.101-0.9,1.4-1.2,2.4c-0.6,0.5-0.2,2.1-1.5,2.1C23.9,80.9,25.8,77.2,26.6,73.9c0.5-1.601,1.2-3.2,1.8-4.7
			c0.4-1.8,2-2.601,1.8-5c-0.2-0.7-0.9-0.9-1.5-1.2c-2.8,0.1-3.2,2.5-4.4,4.2c-0.6,2.399-1.7,4.2-2.4,6.5C21,73.1,22.2,72,21.9,71
			c0.3-0.8,0.7-1.7,0.9-2.7c0.8-1.5,1.4-3.3,2.1-5c1-1.3,1.5-3,2.4-4.4c0.6-1.4,2.4-3.1,1.5-5c-1.7-0.6-2.9,1.1-3.9,2.1
			c-0.8,1.6-1.8,3-2.7,4.4c0,0.4-0.4,0.2,0,0c-0.2-2.3,0.7-3.4,0.9-5.3c1.1-1.4,2.7-2.4,3.3-4.4c-0.1-0.7-1.1,0-1.2,0.3
			c-0.7-0.5,0.5-1.4,0.6-2.1c0.4-0.8,0.8-1.6,1.2-2.4c1-1.4,2.1-2.7,3-4.2c0.9-0.5,1.3-1.5,2.4-1.8c0.4-0.8,0.9-1.4,1.2-2.4
			c3.5-2.6,6.9-5.3,11.9-6.5c1.4-0.9,3.2-1.6,4.4-2.7c2.5-0.8,5.4-1.4,8.3-1.8h3c0.9,0.1,1-0.5,2.1-0.3c1.5,0.2,3.2,0.4,5,0.3
			c0.4,0,0.4-0.4,0.9-0.3c0.5,0,0.2-0.8,0.6-0.9H79c0.7-0.1,0.6,0.5,1.5,0.3c1.8,0.8,4,1.1,5.6,2.1c1.5-0.2,2.2,0.4,3.601,0.3
			c1.1,0.9,2.8,1.2,4.399,1.5c1.4,1.1,3.4,1.6,4.7,2.7c1.8,0.6,3,1.9,4.7,2.7c1.4,1.6,2.9,3,4.2,4.7c0.2,1.3,1,2,0.899,3.6
			c-0.1,0.9,0.801,0.8,0.9,1.5c0.4,0.5,0.4,1.4,0.9,1.8C110.2,50.6,108.7,52.9,106.7,54.8z M78.8,74.7c-0.399-1.101-1.1-1.8-1.5-3
			c-2.3-2-4.6-3.9-8.899-3.9c-0.2,0-0.4,0-0.301,0.3c-0.8-0.199-0.8,0.4-1.5,0.301C65,69.2,64.3,70.8,63,72c-0.2,1-0.9,1.5-1.2,2.4
			c-0.4,0.8-0.6,2-1.2,2.699c0.1,2.2-0.3,4.801,0.3,6.5c1,2.601,3.1,4,5.3,5.301c2.1,0.399,5.3,0.5,7.399,0c2.2-1.101,3.801-2.9,5-5
			C79,81.4,78.9,78.3,78.9,75.3C78.9,75.2,78.8,75,78.8,74.7z M75.6,81.5c-1,1.7-2.199,3.4-4.399,3.9c-1.4,0.199-1.9-0.5-3.3-0.301
			C66.2,83.9,64.4,82.8,64,80.4c0-2.601,1.6-3.801,2.4-5.601c0.899-0.3,0.899-1.399,2.1-1.5c0-0.3,0.4-0.2,0.6-0.3
			C69,72.7,69.2,72.7,69.4,72.7H71.8c1,0.7,2.101,1.3,3,2.1c0,0.5,0.2,0.8,0.601,0.9C75.7,77.2,75.6,79.5,75.6,81.5z"/>
	</g>
</g>
</svg>
