<?xml version="1.0" encoding="utf-8"?>
<!-- Generator: Adobe Illustrator 17.0.0, SVG Export Plug-In . SVG Version: 6.00 Build 0)  -->
<!DOCTYPE svg PUBLIC "-//W3C//DTD SVG 1.1//EN" "http://www.w3.org/Graphics/SVG/1.1/DTD/svg11.dtd">
<svg version="1.1" id="Layer_1" xmlns="http://www.w3.org/2000/svg"  x="0px" y="0px"
	 width="120px" height="120px" viewBox="0 0 120 120" enable-background="new 0 0 120 120" xml:space="preserve">
<g id="tree2">
	<g>
		<path d="M104.227,45.465c-0.186-1.068-0.297-2.213-0.869-2.896c-0.488-2.018-1.821-3.194-2.894-4.632
			c-1.083-1.522-2.681-2.532-3.763-4.054c-1.292-1.221-2.741-2.278-4.055-3.474c-0.975,0.008-1.528-0.398-2.028-0.868
			c-0.419-0.158-1.494,0.338-1.445-0.291h-9.555c-0.784-0.178-2.296,0.368-2.604-0.288c1.016-2.265,1.99-4.572,2.896-6.948
			c1.75-1.82,4.709-2.431,4.921-5.791c-0.354-1.091-1.257-1.636-2.028-2.316c-2.048-0.217-3.343,0.324-4.919,0.579
			c-2.339,1.622-5.003,2.916-7.528,4.344c-1.026,1.002-2.44,1.612-3.186,2.895c-0.727,0.238-0.916,1.015-1.447,1.447
			c-0.508,0.456-0.381,1.55-0.869,2.028c0.002,1.156,0.578,1.736,0.578,2.893c0.57,0.404,0.508,2.306,1.448,1.449
			c0.647-0.125,0.119-1.428,0.29-2.027c0.23-0.541,0.486-1.062,0.579-1.738c2.467-2.745,5.614-4.807,9.265-6.367
			c-0.994,1.899-2.021,3.767-2.604,6.08c-0.988,1.809-2.257,3.341-2.609,5.79c0.71,1.124,1.152,2.517,2.609,2.895
			c1.913,0.133,4.407-0.014,6.946,0c2.53,0.013,4.75,0.101,6.658,0c-0.047,0.628,1.028,0.131,1.45,0.289
			c2.354,1.602,4.183,3.73,6.077,5.791c0.592,0.084,0.566,0.784,1.16,0.868c-0.155,0.417,1.128,0.707,0.289,0.869
			c-3.459-0.691-6.965-1.334-10.713-1.737c-2.305-0.182-3.742,0.502-6.08,0.29c-0.688,0.47-1.752,0.561-2.604,0.868
			c-0.539,0.622-1.553,0.765-2.027,1.449c-0.906,0.251-0.951,1.363-1.737,1.733c-0.694,0.781-0.046,1.974,0.579,2.317
			c0.513-0.065,1.449,0.292,1.158-0.579c-0.162-0.642,0.552-0.412,0.576-0.867c0.664-0.304,1.748-0.185,2.317-0.58
			c0.741,0.028,0.464,1.079,0.868,1.447c0.386,0.29,0.875,0.477,1.158,0.869c1.154,0,1.738,0.578,2.894,0.579
			c3.78,3.748,7.082,7.973,9.556,13.028c0.771,2.222,1.023,4.96,1.448,7.527v3.184c-0.631,2.267-0.467,5.324-1.737,6.949
			c-0.511-3.641-1.586-6.715-3.184-9.264c-0.972-3.084-2.729-5.381-4.056-8.107c-1.505-1.487-2.916-3.065-4.343-4.633
			c-1.162-0.383-1.953-1.135-2.895-1.735c-1.037-0.024-1.674-0.451-2.605-0.582c-2.678,0.028-5.012,0.395-7.528,0.582
			c-1.313,0.808-2.652,1.591-3.476,2.893c0.16-1.413-1.059-1.449-1.735-2.025c-2.161-0.27-5.135-0.548-7.238,0
			c-3.694,1.708-6.848,3.96-9.554,6.658c-1.779,0.923-2.765,2.643-4.342,3.766c-0.555,0.797-1.183,1.519-1.735,2.315
			c-0.594,0.081-0.578,0.772-0.87,1.158c-0.416-0.154-0.707,1.128-0.869,0.289v-3.476c1.061-3.667,2.398-7.06,4.344-9.844
			c2.619-2.01,5.018-4.248,8.974-4.922c0.439-0.721,1.954-0.362,2.608-0.868c1.007-0.146,2.184-0.13,2.894-0.578
			c2.373,0.151,3.942-0.5,4.053-2.606c0.076-0.849-0.656-0.891-0.58-1.737c-0.741-0.705-2.29-0.604-3.763-0.578
			c-3.239-2.747-7.076-4.892-13.319-4.632c-0.341,0.333-1.022,0.327-1.736,0.287c-1.475,0.748-3.026,1.412-4.632,2.03
			c-0.803,0.355-1.471,0.842-2.606,0.866c-0.307,0.391-1.718,1.147-2.025,0.579c0.919-1.619,2.037-3.126,3.185-4.632
			c0.555-0.732,1.125-1.59,1.736-2.316c0.273-0.328,0.887-0.537,1.157-0.869c0.302-0.371,0.269-0.823,0.58-1.157
			c0.605-0.653,1.365-1.434,2.026-2.026c0.22-0.198,0.659-0.094,0.867-0.289c0.299-0.277,0.655-1.023,1.16-1.449
			c0.229-0.194,0.606-0.091,0.868-0.288c0.152-0.112,0.152-0.474,0.289-0.579c0.938-0.713,2.117-1.393,3.476-2.028
			c2.036-0.565,5.233-0.867,7.525-0.287c1.371,0.947,3.121,1.512,4.056,2.896c0.276,0.592,0.591,1.145,0.866,1.737
			c0.401,2.398,0,5.599,2.897,5.5c1.935-0.287,2.504-1.936,2.314-4.343c-0.345-1.873-0.733-3.702-1.737-4.923
			c-0.457-1.762-1.873-2.565-2.604-4.051c-1.266-0.861-1.995-2.254-3.766-2.607c-2.012,0.416-3.37,0.105-5.498,0
			c-4.807,0.212-8.166,1.872-11.581,3.475c-1.378,1.9-3.494,3.07-5.502,4.343c-1.829,1.838-3.328,4.008-5.213,5.789
			c-0.886,2.395-2.175,4.387-3.183,6.662c-0.444,1.194-1.16,2.12-1.449,3.472c-0.306,0.563-0.692,1.174-0.867,1.736
			c-0.014,0.046-0.241,0.094-0.289,0.291c-0.079,0.318,0.054,1.057,0,1.737c0.47,0.589,0.606,1.514,1.156,2.025
			c1.381,0.37,2.055,0.511,3.477,0.291c1.725-0.493,2.741-1.699,4.34-2.316c3.8-1.122,7.142-2.704,10.713-4.054
			c2.15,0.067,4.785-0.347,5.79,0.868c-2.5,0.876-4.864,1.889-6.657,3.475c-2.325,0.957-3.504,3.06-5.211,4.632
			c-2.41,4.828-4.331,10.148-5.212,16.501v8.688c0.45,2.927,0.483,6.271,3.764,6.37c1.674-0.644,2.589-2.043,2.315-4.634
			c0.346-1.875,0.726-3.715,1.158-5.502c1.893-3.803,4.497-6.89,7.238-9.842c3.134-2.559,5.972-5.417,9.845-7.237
			c1.247-0.297,2.34-0.748,4.052-0.58c1.011-0.918,2.97,0.41,3.765-0.288c-0.067-0.493,0.328-0.717,0.287,0h-0.287v0.288
			c-0.704,5.765-2.136,10.797-3.185,16.213c-1.102,2.181-1.624,4.938-2.606,7.235c-0.864,2.321-1.638,4.733-2.896,6.662
			c-0.867,2.414-2.156,4.406-3.185,6.657c-0.757,0.88-1.189,2.093-2.025,2.896c-0.365,1.177-1.411,1.679-1.736,2.896
			c-1.758,1.428-2.84,3.527-4.634,4.922c-1.326,1.855-3.514,2.854-3.762,5.788c0.656,1.253,1.362,1.466,3.471,1.738
			c1.615,0.208,3.554-0.159,5.213,0c4.891-1,10.871-0.903,16.792-0.87c1.039-0.406,2.579-0.314,3.475-0.868
			c0.312-0.749,1.048-1.075,1.158-2.024c0.924-0.139,0.199-1.926,0.869-2.317v-8.976c0.698-4.512,1.209-9.211,1.737-13.896
			c0.052-9.222-0.36-17.978-1.737-25.769c1.743-0.008,3.564-0.09,4.92,0.291c5.685,3.677,8.158,10.562,11.006,17.081
			c0.346,2.353,0.695,4.707,0.576,7.526c0.006,1.64-0.91,2.238-0.289,3.765c0.512,0.262,0.896,0.647,1.158,1.16
			c2.352,0.321,3.37-0.685,4.342-1.737c0.826-1.105,1.971-1.89,2.313-3.476c2.056-0.844,2.787-3.005,4.058-4.633
			c0.159-0.421-0.34-1.497,0.287-1.447c0.057-3.822-0.02-7.51-0.576-10.713c-0.362-3.403-0.916-6.614-2.316-8.975
			c-0.991-2.772-2.721-4.808-4.344-6.948c-0.811-1.025-1.461-2.204-2.605-2.896c-0.357-0.605-0.842-1.087-1.447-1.446
			c-0.104-0.381-0.513-0.456-0.58-0.869c-0.518,0.082-0.595-0.273-0.287-0.288c3.207,0.264,6.121,0.824,9.265,1.157
			c0.635,0.583,1.354,0.64,2.315,1.158c0.821,0.442,2.519,1.807,4.34,0.867C104.104,48.043,104.421,47.008,104.227,45.465z
			 M30.403,39.094c-0.018,0.177-0.045,0.344-0.291,0.291c-0.065,0.223-0.01,0.569-0.288,0.578c0.013,0.498-0.226,0.742-0.583,0.867
			c-0.062,0.227-0.005,0.571-0.288,0.581c0.276,1.201-0.868,0.058,0,0c0.064-0.226,0.008-0.571,0.288-0.581
			c-0.011-0.398,0.137-0.634,0.289-0.867h0.293c0.062-0.225,0.006-0.571,0.288-0.578C30.128,39.207,30.153,39.043,30.403,39.094
			C30.371,38.745,30.821,38.916,30.403,39.094z M49.799,108.868c0.714-1.216,2.103-1.757,2.604-3.185
			c1.301,0.34,1.403,1.877,2.606,2.314C53.717,108.734,51.464,108.508,49.799,108.868z M65.145,105.684
			c-0.039,0.834,0.158,1.896-0.291,2.315c-0.479,0.483-1.702,0.231-2.604,0.289c-1.216-0.478-2.147-1.631-3.185-2.604
			c-1.137-0.694-1.755-1.912-2.895-2.605c-0.054-0.245,0.112-0.271,0.291-0.289c2.142-0.02,4,0.248,5.79,0.579
			c0.787-0.179,2.297,0.368,2.604-0.29C65.51,103.385,64.965,104.896,65.145,105.684z M65.432,99.023
			c-2.205-0.688-4.431-1.361-7.237-1.447c0.763-1.748,1.851-3.166,2.316-5.209c1.626,0.304,3.517,0.342,5.502,0.287
			C66.02,94.977,65.322,96.6,65.432,99.023z M66.88,87.732h-4.345c0.617-2.086,1.392-4.017,2.027-6.08h2.897
			C67.521,83.936,67.415,86.048,66.88,87.732z M67.749,72.968v2.896c0.276,1.241-0.207,1.726-1.448,1.448
			c-0.873,0.291-0.515-0.646-0.578-1.16c0.627,0.05,0.131-1.025,0.291-1.446c0.625,0.049,0.129-1.026,0.287-1.447
			c0.244-0.337,0.383-0.776,0.29-1.448c0.521-1.699,0.411-4.027,0.87-5.789v-6.081c-0.163-0.641,0.551-0.412,0.576-0.869
			c0.246-0.051,0.277,0.113,0.291,0.291c0.165,2.229,0.047,5.771-0.291,7.817v4.053C68.248,72.114,67.743,72.287,67.749,72.968z"/>
	</g>
</g>
</svg>
