<?xml version="1.0" encoding="utf-8"?>
<!-- Generator: Adobe Illustrator 16.0.0, SVG Export Plug-In . SVG Version: 6.00 Build 0)  -->
<!DOCTYPE svg PUBLIC "-//W3C//DTD SVG 1.1//EN" "http://www.w3.org/Graphics/SVG/1.1/DTD/svg11.dtd">
<svg version="1.1" id="Layer_1" xmlns="http://www.w3.org/2000/svg"  x="0px" y="0px"
	 width="120px" height="120px" viewBox="4 4 120 120" style="enable-background:new 4 4 120 120;" xml:space="preserve">
<g id="attach">
	<g>
		<path d="M92.5,65.6C91.6,61.1,92.7,54.7,91.9,50.2c0-2.6-0.2-5-0.601-7.1c0.2-1.5-0.5-2.1-0.3-3.5c-0.6-0.8-0.2-2.5-1-3.2
			c-0.9-4.5-2.8-7.9-3.9-12.2c-0.3-0.1-0.399-0.3-0.3-0.6c-1-1.2-1.899-2.6-2.899-3.9c-1.4-0.9-1.801-2.9-3.9-3.2
			c-0.8-1.2-3.8-0.2-4.8-1.3c-1.4-0.8-3.4-0.9-5.101-1.3h-5.5c-0.4,0-0.4,0.4-1,0.3c-1.5-0.2-2.1,0.5-3.2,0.6c-4.1,2-7.1,5.1-10.3,8
			c-1.4,2.1-2.9,4-4.2,6.1c-1.2,2.3-2.3,4.6-3.2,7.1c-1.9,5-3.1,10.8-3.9,17c-1.5,12.9-0.3,27.3,1.3,39.2c0.6,0.6,0.7,1.7,1,2.6
			c0.3,1,1,1.601,1,2.9c3.5,5.7,6.1,12.1,11.9,15.399c3.9,1.2,9.8,0.601,13.5-0.3c2.3-1.399,4.5-2.8,6.4-4.5
			c0.8-1.2,1.6-2.3,2.6-3.2c1.4-3.199,2.8-6.399,3.2-10.6c0.5-2.9,0.3-6.6,0.3-10c-0.2-1,0.4-2.8-0.3-3.2c-0.601-9.1,0.1-17.7,0-27
			c-0.4-0.1-0.3-0.5-0.3-1C77.6,49.7,76.3,46.6,74.5,44s-3.5-5.3-7.1-6.1c-4.8-0.7-8.7,2.2-10.9,5.1c-0.8,5-1.7,9.9-2.6,14.8
			c0.2,7-0.3,13.2-0.3,19.9c0.6,0.8,0.4,2.399,1,3.2c0.6,0.899,0.8,2.199,1.6,2.899c1.3,1.5,4.3,2.5,6.4,1.3
			c1.5-0.899,1.5-3.199,1.9-5.1c-0.7-0.5-0.1-2.2-1-2.6c-0.5-0.7-0.2-2.101-0.6-2.9V53.4c0.9,0.1-0.3-2,0.6-1.9
			c-0.2-1.2,0.4-1.6,0.6-2.2c0.9-1,0.6-3.2,2.6-3.2c2.3,0.2,2.899,2,3.5,3.9c0.6,1.9,1.8,3.3,2.3,5.5c-0.2,1,0.3,1.2,0.3,1.9
			c-1,12.9,1.3,26.4,0.3,39.2c-1.1,3-4.1,4-5.8,6.4c-1.7,2.3-4,4.1-8,4.2c-4.6-0.3-6.4-3.4-8.4-6.4C49.7,97,47.6,94,46.5,90
			c0-0.4-0.2-0.7-0.3-1c-0.6-13.4-1.7-27.6,0.3-40.2c0.9,0.1-0.3-2,0.6-1.9c-0.2-1,0.2-1.5,0.3-2.3c0-1.8,1-2.7,1-4.5
			c1.2-2.3,1.6-5.5,3.2-7.4c0.9-2.6,2.5-4.5,4.2-6.4c0.7-1,1.6-1.8,2.6-2.6c1-0.8,2.8-0.8,3.2-2.3c1.5-0.1,1.5,1.3,3.2,1
			c1.601-1.7,4.601-2,7.7-2.3c3.8,2.1,6.1,5.7,8.4,9.3c0,0.3,0.3,0.4,0.3,0.6c1.5,3.2,2.7,6.8,3.5,10.6c0.399,2,0.6,4.1,1,6.1
			c-0.3,1.4,0.399,1.9,0.3,3.2c0.2,1-0.4,2.8,0.3,3.2c-0.2,5,0.4,9,0.3,13.8V74c0.801,1.6,0.7,4,3.2,3.9
			c2.2-0.4,2.601-2.5,2.9-4.801C92.9,70.5,92.2,68.5,92.5,65.6z"/>
	</g>
</g>
</svg>
