<?xml version="1.0" encoding="utf-8"?>
<!-- Generator: Adobe Illustrator 16.0.0, SVG Export Plug-In . SVG Version: 6.00 Build 0)  -->
<!DOCTYPE svg PUBLIC "-//W3C//DTD SVG 1.1//EN" "http://www.w3.org/Graphics/SVG/1.1/DTD/svg11.dtd">
<svg version="1.1" id="Layer_1" xmlns="http://www.w3.org/2000/svg"  x="0px" y="0px"
	 width="120px" height="120px" viewBox="4 4 120 120" style="enable-background:new 4 4 120 120;" xml:space="preserve">
<g id="paper-box">
	<g>
		<path d="M114,36.4c0.1-1.9-0.8-2.8-0.6-4.8c-0.7-1.1-0.4-3.2-1.2-4.2c0-1.8-0.5-3-0.9-4.5c0.101-1.8,0.101-3.6-1.8-3.6h-0.3
			c-0.4,0.2-0.8,0.4-1.2,0.6c-16.7-0.7-30.4,1.5-46.7,1.2c-7.8,0.3-15.1,0.9-22.9,1.2c-7.6,0.2-16.3-1.1-23.2,0.3
			c-1.1,4.1-0.9,9.6-1.2,14.6c0.8,0-0.3,2,0.6,2.1c-0.2,1.2,0.8,1.2,0.9,2.1c1.1,0.7,3.7-0.2,4.8,0.6c-0.7,8.2,0.4,16.8,0,25.6
			c0.9,6.801,0.9,14.4,1.2,21.7c0.3,1.7-1,1.8-0.6,3.601c-0.3,1.5,1,1.399,0.6,3v4.8C22,102,21.7,104.1,23,104.6
			c-0.1,0.7-0.9,0.7-1.2,1.2c-0.3,0.9-0.3,0.9,0,1.8c1.2,1.301,3.8,0.7,5.7,0.301c2.3,0,4.1-0.601,6.2-0.9c3,0.2,5.2-0.3,7.7-0.6
			h16.4c1.7,0.5,4,0.5,6,0.899c1.601-0.2,3.2-0.6,4.8-0.899c7-0.2,13.301,0.199,19.601,0.6c2.7,0.5,6.399,0.3,9.8,0.3
			c3.5,0,7.2,0.5,9.2-1.2c1.1-2,0-4.3,0.3-7.1c0.1-8.4,0-16.6-0.6-24.4c-0.5-10.399-0.4-22.3,0-32.7c1.3,0,2.699,0.1,3.6-0.3
			c0.5-0.8,1.5-1.3,1.2-3C113,38.3,113.9,37.8,114,36.4z M27.1,41.7c0.5-0.1,0.6,0.2,0.6,0.6c-0.3-0.1-0.3,0.1-0.3,0.3
			C27,42.6,27.1,42.1,27.1,41.7z M101.8,90.2c0,2.7,0.101,4-0.3,6c-0.8,0.6-1.3,1.7-2.4,2.1v1.8H93.4
			c-0.801,0.2-1.301,0.7-2.101,0.9C81,100.5,71,99.7,60.7,99.2c-1.1-0.3-2.4-0.4-3.3-0.9c-3.5,0-6.3-0.7-9.8-0.6
			c-1.3,0.1,0.3-1,0.6-1.2c0.3-0.7,1-1,0.9-2.1c-0.9-1.9-3.5-0.101-4.5,0.6c-1.2,0.9-2.4,2-3.6,3c-2.1-0.2-3.3,0.4-5.4,0.3
			c0.8-1.5,2.1-2.5,3-3.899c0.8-1.5,2.6-2,2.7-4.2c-1-1.3-2.4,0.3-3.6,0.6c-0.6,1.101-1.8,1.5-2.7,2.4c-0.6,1.1-1.8,1.6-2.4,2.7
			c-0.2,0.699-1,0.8-1.2,1.5C30.9,97.3,30.5,98.8,30.2,98c0.1-1-0.1-1.7-0.3-2.4c1.3-1.6,2.7-3.1,3.9-4.8c1.1-1.7,2.6-3,3.3-5.1
			c-1.8-1-2.9,1.2-4.2,1.8c-0.3,0.8-1.2,1-1.8,1.5c-0.2,0.4-0.5,0.7-0.9,0.9c-0.1,0.3-0.5,0.8-0.6,0.3c-0.3-0.9-0.5-1.8-0.6-3
			c-0.4-0.9,1.4-1.2,1.5-2.101c0-0.6,1.5-1.199,1.8-2.1c1-1.5,2.7-2.3,3-4.5c-1.3-0.7-2.8,0.7-3.6,1.5c-1.1,0.6-2.2,1.4-3,2.4
			c-0.7-0.2-0.1-1.7-0.3-2.4v-2.7c1-0.8,1.5-2,2.7-2.7c0.6-1,1.8-1.5,2.1-3c-0.2-0.8-0.7-1.3-1.5-1.5c-2.3-0.3-2.2,1.801-3.9,2.101
			c-0.6-8.2,0-17.5-0.6-25.6c3.7,0.1,2.6-4.7,6-5.1c-0.3,1.3-1.5,1.7-1.2,3.6c0.1,0.9,1,0.5,1,1.1c2.7-0.3,2-4,4.5-4.5
			c-0.2,1.5-1.2,2.2-1.5,3.6c0.4,0.7,0.6,1.6,1.5,1.8c1.9,0.2,2.3-1,2.7-2.4c0.9-0.8,1.5-1.9,2.1-3h2.1c1.5,0.1-0.7,0.6-0.3,1.5
			c-0.6,0.3-0.9,0.9-0.9,1.8c-0.1,1,0.9,0.9,1.2,1.5c1.5-0.2,2.1-1.5,2.7-2.7c1.2-0.5,1-2.4,3-2.1c1.2-0.1-0.1,0.9-0.3,1.2
			c-0.2,0.7-0.6,1.2-0.6,2.1c0.2,0.9,0.7,1.5,1.8,1.5c1.5-0.1,1.5-1.6,2.4-2.4c0.4-1.1,1.3-1.7,1.8-2.7h2.7c1.3,0-0.6,1.2-0.9,1.5
			c-0.3,0.9-1.3,1.1-1.2,2.4c-0.1,1,0.9,0.9,1.2,1.5c2.5-0.8,3.1-3.4,4.5-5.4c1.1,0.2,1.5-0.5,2.7-0.3c-0.5,1.5-1.8,2.1-2.1,3.9
			c0.1,1,0.7,1.5,1.5,1.8c1.6-0.1,1.8-1.5,2.4-2.7c1-0.7,1.3-2.1,2.1-3h4.5c1.301,0,0,0.5,0,0.9C72.2,42.3,72,42.8,71.7,43.2
			c-0.9,0.4-0.7,2.2,0,2.7c2.1-0.9,2.7-3.3,4.2-4.8c1.5,0.1,3.5-0.3,4.5,0.3c1.5,0.1-0.7,0.6-0.301,1.5
			c-0.6,0.3-0.899,0.9-0.899,1.8c-0.101,1,0.899,0.9,1.2,1.5c2.199-0.4,2.399-2.7,3.3-4.5c2.1,0,4,0.2,5.7,0.6
			c1.399,0-0.301,0.4,0,1.2c-0.7,0.4-0.5,0.7-0.301,1.5c1.801,0.7,2.601-1.6,3.601-2.7c2,0.2,3.1-0.5,5.1-0.3
			c-0.5,1.2-0.899,2.8,0.3,3.6c1.801,0,1.7-1.9,2.4-3c0.7,0.5-0.4,1.8,0,3c-0.1,1-0.4,1.9-0.3,3.3c-0.3,1,1,0.4,0.899,1.2
			c0,0.4-0.1,0.8,0.301,0.9c-0.101,2.2,0,4.1,0.6,5.7c-0.1,10.5,1.1,22-0.6,31.5C100.7,89.3,101.7,89.4,101.8,90.2z M99.7,34
			C89.2,34.3,80.1,33.2,69.6,33.4c-1.5-0.2-1.899,0.7-3,0.9c-14.899-0.7-31-0.1-45.8,0.3v-9.5c8.4,0.3,17.6,1.1,26.2,0.3
			c8-0.3,18.2-1.1,25.3-0.3c7.8-0.6,15.601-1,24.101-0.9c0.5,0.1,0.5-0.3,0.899-0.3h10.4c0.5,3.2,1,6.4,1.5,9.5
			C105.8,33.3,102.6,33.5,99.7,34z M80.7,65.8c0.2-1.1-1.101-0.7-0.9-1.8c0.7-0.1,0.101-1.5,0.3-2.1v-2.4c0-1.6-0.199-3-0.899-3.9
			C78.1,54.7,76.5,55.1,75,55c-4.9-0.2-10,0.1-14.6,0c-2.9-0.4-5.9-0.7-9.2-0.6c-1.4-0.1-2.1,0.4-3.3,0.6c-0.5-0.6-0.9-1.3-2.1-1.2
			c-0.6,0.1-0.6,0.8-1.2,0.9c-0.9,4,0.7,7.6,0.9,11.3c0.6,0.6,1,1.4,1.2,2.4c1.5,0.399,2,1.699,3.3,2.399h17
			c1.9-0.5,4.2-0.6,6.2-0.899C75.6,69.8,78.4,70.1,79.7,69.3c0.6-0.3,0.6-1,1.2-1.5C80.8,67.3,81.3,66,80.7,65.8z M75.9,63.5h-7.7
			c-5.8,1.2-13,1.1-19,2.1c-0.2-2.899-0.9-5.2-1.2-8c8.5,1.2,18.1,1.3,28,1.2C76.2,60.8,76.1,61.6,75.9,63.5z"/>
	</g>
</g>
</svg>
