<?xml version="1.0" encoding="utf-8"?>
<!-- Generator: Adobe Illustrator 16.0.0, SVG Export Plug-In . SVG Version: 6.00 Build 0)  -->
<!DOCTYPE svg PUBLIC "-//W3C//DTD SVG 1.1//EN" "http://www.w3.org/Graphics/SVG/1.1/DTD/svg11.dtd">
<svg version="1.1" id="Layer_1" xmlns="http://www.w3.org/2000/svg"  x="0px" y="0px"
	 width="120px" height="120px" viewBox="4 4 120 120" style="enable-background:new 4 4 120 120;" xml:space="preserve">
<g id="paper-plane">
	<g>
		<path d="M119,20.2c-1.2-1.5-4.1-1.4-5.9-2.3c-0.399,0-0.5,0.4-1,0.3c-1.199,0.2-1.899,0.9-3,1.3c-0.8,0.7-2.3,0.8-3,1.6
			c-2.3,0.6-4.3,1.6-6.3,2.6c-2.399,0.6-4.1,1.8-6.6,2.3c-1.9,1-4.3,1.6-6.3,2.6c-4.7,1.2-8.5,3.4-13.2,4.6
			c-4.5,1.5-8.601,3.2-13.5,4.3c-0.8,0.6-2.3,0.6-3.3,1c-1.1,0.5-2.4,0.6-3.6,1c-2.2,0.8-4.3,1.6-6.9,2c-1.8,1.2-4.7,1.2-6.6,2.3
			c-1.5-0.1-2.2,0.7-3.6,0.7c-0.8,0.7-2.6,0.5-3.3,1.3c-5.1,0.8-8.9,3-13.8,4c-1.1,0.4-2,0.9-3.3,1c-0.7,0.8-2.5,0.6-3.3,1.3
			c-1.5,0.1-2.5,0.6-3,1.6c-0.9,0.7-1.9,1.1-1.6,3c2,2.3,5.8,2.8,8.6,4.3c2.5,1.8,6.2,2.4,8.9,4c3.4,0.8,5.8,2.8,9.2,3.6
			c1.1,1,2.9,1.301,3.9,2.301c1,0.1,1.5,0.699,2.3,1c0.3,0.8,1.8,0.399,1.6,1.6c-0.5,6.1-1.1,12.1-1.3,18.4c0.2,3.5-0.5,6-0.3,9.5
			v4.899c-0.4,2.101,1.1,2.4,2,3.3c4.3,0.601,5.1-2.399,7.2-4c0.5-1.3,1.7-2,2.3-3.3c0.7-1.3,1.8-2.2,2.3-3.6c2.2-1.9,4.3-4,6.3-6.3
			c1.2-0.801,1.9-2.2,3-3.301c1.5-0.699,1.9-2.5,3.6-3c4.3,2.101,9,3.7,13.2,5.9c2.3,0.9,4.5,1.9,6.6,3c2.2,0.9,4.101,2.3,6.3,3.3
			c0.801,1,2.101,1.4,2.601,2.601c1.2,0.6,1.5,2.199,3.6,2c1.4,0.199,1.8-0.601,2.601-1c0.399-0.9,1.699-1,2.3-1.601
			c0.3-1.7-0.601-2.5,0-3.6C107.6,91.9,108.6,85.2,109.6,78.6c1.5-6.3,2.601-13,3.601-19.8c0-1.8,0.7-3,0.7-4.9
			c0.699-1.3,0.5-3.5,1.3-4.6c0.1-1.8,0.7-3,1-4.6c0.5-1.5,0.6-3.3,1.3-4.6c-0.1-2,0.8-3,0.7-4.9c0.7-0.3-0.101-2.1,0.7-2.3
			c0.199-0.8-0.4-2.4,0.3-2.6c0-0.9-0.2-2.2,0.3-2.6c0.2-0.8-0.4-2.4,0.3-2.6C120.1,23.1,119.3,21.8,119,20.2z M27.8,58.4
			c-2.7-0.5-4.5-1.9-7.2-2.3c0.6-1.1,2.8-0.4,3.6-1.3c1.6,0.1,2.3-0.8,4-0.7C28.4,55.9,27.6,56.7,27.8,58.4z M36,62
			c-1.7-0.8-3.7-1.3-4.6-3v-5.9c1.9-0.1,2.8-1.1,4.9-1C36.1,55.2,35.9,58.5,36,62z M39.7,63.7c-1.1-3.7-1-8.6-2.3-12.2
			c1.9-0.2,3.6-0.5,4.9-1.3c0.4-0.1,0.6,0.1,0.7,0.3c-0.3,4.5-1,10.8,0.3,14.8C41.8,65,40.9,64.2,39.7,63.7z M55.5,46.5
			c1.3-0.2,2.4-0.7,3.6-1c0.1,3.2-0.6,7.2,2.3,7.6c2.4,0,2.1-2.8,2.3-4.9c-0.1-1.3-0.2-2.6-1-3.3c1.6-1,3.399-1.4,5.3-2
			c1.6-0.5,2.9-0.9,4.3-1.3c0.4-0.1,0.5-0.3,1-0.3c0.3,0,0.2-0.3,0.3-0.3c1.801-0.6,3.801-1,5.601-1.6c1.899-0.7,3.6-1.7,5.6-2
			c0-0.4,0.5-0.2,0,0c-4.6,3.6-9.5,7-13.8,10.9c-2.4,1.7-4.6,3.7-7,5.5c-1,1.1-2.2,2-3.3,3c-1.3,0.8-2.1,2.1-3.6,2.6
			c-0.8-1.6-1.4-3.4-1.6-5.6V46.5z M46.6,49.2c1.6-0.6,3.6-0.8,4.9-1.6c0.4-0.1,0.6,0.1,0.7,0.3c0,4.1-0.9,8.2,0,11.5
			c0.3,0.6,0.8,1,1,1.6c0.6,0.1,1.4,0.1,1.3,1c-2.1,0.8-3.1,2.6-5.3,3.3c-2.6-1.8-2.4-6.4-2.3-10.9C46.5,53,46.5,51.1,46.6,49.2z
			 M62.7,82.8c-1,0.3-1.3,1.3-3,1c-1.9,1.9-3.5,4.8-5.3,6.3c-0.3,0.301-1,0.301-1.3,0.7c-0.5,0.5-0.8,1.4-1.3,2
			c-0.6,0.7-1.5,1-2,1.601c-0.1,0.1,0.1,0.5,0,0.699c0,0.101-0.6,0.2-0.7,0.301c-0.8,1.1-1.3,2.199-2,3.3c-1-0.7,0.3-1.9,0-3V84.4
			c0.7-4.4,0-8.5,1.3-11.9c0.9-1.1,2.7-1.3,4-2c0.9-1.1,2.4-1.6,3.6-2.3c2.2-1.9,4-4.1,6.3-5.9c0.6-0.6,1.8-0.6,2.601-1
			c2.899-2.4,5.699-4.8,8.6-7.2c1.5-1.2,3-2.2,4.3-3.6c1.7-1.1,3.3-2.2,4.601-3.6c1.199-0.1,1.399-1.2,2.3-1.6
			c1-0.4,1.6-1.1,2.3-1.6c1.6-1,3-2.2,4.9-3c1.3-1.3,3.3-2,4.6-3.3c2.1-0.7,3.1-2.4,5.3-3c0-0.4,0.5-0.2,0,0
			C95,42.2,89,50.8,81.7,58.1c-0.3,1.5-1.8,1.7-2.3,3c-1.2,0.7-1.801,2-2.601,3c-1.2,0.5-1.399,2.1-2.6,2.6
			c-0.5,1.399-1.9,1.8-2.3,3.3C68.2,73.5,66.2,78.9,62.7,82.8z M70.3,80.1c0.5-0.699,0.9-1.5,2-1.6c-0.3,1.2,0.4,1.6,0.3,2.6
			C71.8,80.8,71.3,80.2,70.3,80.1z M107.2,55.1c-1.2,8-2.4,15.8-4.3,23c-0.301,1.301-1,2-1.601,3c-0.399,4.5-1,8.9-2.3,12.5
			c-1.4-0.399-2.1-1.399-3.3-2c-1.101-0.6-2.4-1.1-3.3-2c-2.801-0.6-4.5-2.3-7.2-3c-0.5-1.199-0.3-3-1.3-3.6
			C82,82.6,82.3,84.2,81.3,84.6c-1.8-0.5-3.1-1.5-4.899-2C75.8,80.5,74.8,78.8,74.1,76.7c0.801-2.7,3.5-3.5,4.601-5.9
			c1.7-1.7,2.899-3.899,4.6-5.6c2.8-4.1,6.5-7.3,9.5-11.2c3.601-3.3,6.5-7.3,9.9-10.9c0.2-0.7,0.899-0.8,1.3-1.3
			c0.8-1,1.3-1.9,2.3-3c0.2-0.3,1-0.4,1-1c0-0.5,2-2.3,2.601-3c0.899-0.9,1.6-2.2,2.3-2.6c0.2-0.1,0.399,0.2,0.3,0.3
			C110.8,40.3,108.3,47,107.2,55.1z"/>
	</g>
</g>
</svg>
