<?xml version="1.0" encoding="utf-8"?>
<!-- Generator: Adobe Illustrator 16.0.0, SVG Export Plug-In . SVG Version: 6.00 Build 0)  -->
<!DOCTYPE svg PUBLIC "-//W3C//DTD SVG 1.1//EN" "http://www.w3.org/Graphics/SVG/1.1/DTD/svg11.dtd">
<svg version="1.1" id="Layer_1" xmlns="http://www.w3.org/2000/svg"  x="0px" y="0px"
	 width="120px" height="120px" viewBox="4 4 120 120" style="enable-background:new 4 4 120 120;" xml:space="preserve">
<g id="pause">
	<g>
		<path d="M95.363,68.291c-0.684-10.35-1.328-20.735-1.997-31.097c-0.113-2.835,0.37-6.269-0.569-8.273
			c-0.979-0.641-1.62-1.615-3.423-1.428c-0.365,0.017-0.396,0.365-0.856,0.285c-3.451,0.541-7.563,0.424-11.125,0.856
			c-2.195-0.199-3.711,0.286-5.709,0.286c-1.967,0.027-4.291-0.301-5.134,0.856c0.011,1.034-0.159,2.251,0.571,2.566
			c0.27,0.778,1.549,0.543,1.143,1.995c0.012,4.103,0.077,8.262-0.285,11.983c0.27,8.768,1.39,16.68,1.711,25.392
			c0.594,6.253,0.61,13.086,0.571,19.974c-0.143,1.278,0.142,2.137,0.283,3.137c-0.047,1.188-0.101,2.381,0.569,2.854
			c1.101,1.373,3.326,1.617,5.423,1.995c2.685-0.114,4.628,0.509,7.417,0.287c1.922-0.455,3.954-0.803,5.706-1.428
			c1.104-0.152,1.174,0.726,1.995,0.856c1.041,0.088,1.857-0.047,2.57-0.287c-0.074-0.547,0.618-0.33,0.855-0.569
			c0.098-0.099-0.084-0.46,0-0.569c0.279-0.378,0.412-0.23,0.568-0.855c0.266-1.062,0.276-2.976,0.287-4.565
			C95.98,84.129,95.624,75.583,95.363,68.291z M83.953,36.624c0.455-0.4,0.729-0.983,0.855-1.712
			c0.396-0.246,0.289-0.437,0.855-0.573c0.449-0.104,0.969,0.082,1.427,0c0.61,1.294,0.134,3.67,0.284,5.424
			c-3.954,1.75-5.594,5.817-8.273,8.842c-0.063,0.225-0.009,0.563-0.283,0.571c0.025,0.346-0.418,0.177,0,0
			c0.062-0.221,0.009-0.562,0.283-0.571V47.75c1.451-2.068,1.975-5.063,3.424-7.132C82.704,38.987,83.671,38.147,83.953,36.624z
			 M71.398,33.77c1.104-0.152,1.396,0.512,2.567,0.288c-0.536,1.172-1.425,1.998-1.711,3.423
			C71.352,36.861,71.464,35.229,71.398,33.77z M75.395,72.568c0.069-0.357,0.565-0.286,0.569,0
			C75.714,72.745,75.455,72.915,75.395,72.568z M73.111,49.46c-0.623-0.515-0.049-2.231-0.569-2.851
			c0.776-0.363,1.138-1.147,1.711-1.712c0.955-3.707,2.029-7.291,3.14-10.84c0.987,0.436,2.602,0.248,3.994,0.281
			C78.273,39.029,75.415,43.968,73.111,49.46z M83.667,93.684c-0.172,0.491-1.353-0.022-1.424,0.569h-3.142
			c-0.789-0.256-2.678,0.586-2.565-0.569c2.317,1.004,3.93-0.701,4.276-2.569c0.72,0.517,1.494,0.98,2.854,0.858V93.684z
			 M83.953,78.848c-0.092,0.67-0.452,1.071-0.286,1.996c-0.219,1.112,1.056,1.479,0.286,2.281c-0.411-0.35-0.434-1.089-0.857-1.425
			c-0.375-0.287-1.061-0.271-1.138-0.856c0.688-2.066,1.713-3.8,2.28-5.99C84.999,75.913,83.665,77.314,83.953,78.848z
			 M83.953,61.159c-1.03,0.679-1.657,1.771-2.282,2.854c-0.806,0.812-1.598,1.635-1.996,2.851c-0.812-0.38,0.218-1.27,0.284-1.71
			c-0.075-0.837,0.646-0.877,0.568-1.711c0.438-1.085,1.148-1.896,1.431-3.14c1.181-1.861,2.192-3.894,2.565-6.562
			c-0.039-0.912-0.646-1.255-1.713-1.14c1.373-3.001,2.614-6.137,4.28-8.845V42.9c0.31,0.07,0.192,0.564,0.568,0.568
			c-0.134,4.225,0.427,7.755,0.573,11.697c-0.508,1.205-1.418,2.007-2.283,2.855C85.505,59.288,84.323,59.817,83.953,61.159z
			 M86.809,63.156c-0.656-0.312,0.283-1.401,0.567-1.712c-0.187-1.044,0.619-1.094,0.567-1.998c1.035-0.271,0.4,1.123,0.572,1.713
			v1.997C88.318,62.933,86.923,62.521,86.809,63.156z M88.805,67.148c-1.277-0.146-0.699-1.293-0.57-2.282
			C88.893,65.158,88.82,66.18,88.805,67.148z M89.089,85.691c-0.731-0.025-0.405-1.11-1.146-1.14
			c0.189-0.382,0.611-0.53,1.146-0.569V85.691z M88.805,81.129h-1.429c0.351-2.79,0.942-5.335,1.142-8.273
			c0.238-0.904,0.377,0.506,0.287,0.856v1.427c-0.236,0.809,0.402,0.739,0.284,1.428C88.902,77.996,89.464,80.173,88.805,81.129z
			 M54.282,64.866c-0.921-8.59-0.203-18.816-0.855-27.672c-0.139-0.901,0.514-1.008,0.285-1.998
			c-0.172-0.592,0.354-1.875-0.285-1.998c0.332-0.928,0.535-3.105,0-3.992c-1.008-1.056-2.271-0.116-3.707-0.571
			c-0.123-0.638-1.408-0.116-2-0.287h-2.566c-2.935-0.392-6.379-0.277-9.699-0.284c-0.367,0.016-0.396,0.367-0.855,0.284
			c-0.545,0.123-0.717,0.618-1.428,0.573c-1.088,3.159-0.418,6.81-0.571,10.268c-0.411,9.356-0.82,19.321-0.284,28.531
			c0.98,8.815,1.062,18.527,1.995,27.392c0.401,1.963-1.11,2.738-0.284,4.279c4.621,2.229,11.371-0.744,16.546,0.282
			c1.318-0.586,2.505-1.298,4.565-1.141c0.158-2.156-0.186-3.81-0.285-5.704C54.979,83.188,54.665,73.992,54.282,64.866z
			 M38.306,44.04c-0.457,0.399-0.729,0.982-0.857,1.713c-0.646-0.306-0.107-1.793-0.283-2.566c0.529-0.04,0.951-0.188,1.141-0.573
			C39.578,42.572,38.05,43.348,38.306,44.04z M49.72,72.854v9.416c-1.332-0.188-1.266,1.02-2.283,1.143
			c0.295-0.809,0.295-1.189,0-1.999c-1.781-0.259-2.127,0.922-2.855,1.712c-0.828-0.398,0.504-0.98,0.288-1.712
			c0.577-0.181,0.187-1.332,0.853-1.425c0.057-1.467,1.034-2.012,1.143-3.424c0.634-0.987,0.885-2.353,1.425-3.424
			c0.347-1.177,0.976-2.07,1.145-3.424C50.087,70.207,49.536,71.896,49.72,72.854z M46.864,35.481
			c0.267-0.209,0.432-0.52,0.572-0.855c0.896-0.139,1.006,0.516,1.997,0.286v4.565c-0.468,1.338-1.673,1.939-2.282,3.136
			c-0.92,0.889-1.607,2.011-2.282,3.14c-1.54,1.978-2.835,4.203-4.282,6.275c-0.502-0.336-0.529-2.602,0.285-2.568
			c0.779-0.36,1.14-1.144,1.715-1.71C43.837,43.483,45.522,39.657,46.864,35.481z M40.587,39.478
			c0.02-1.314,0.811-1.853,1.144-2.854c0.504-0.827,0.296-2.367,1.993-1.998C42.7,36.264,41.69,37.917,40.587,39.478
			C40.617,39.821,40.173,39.651,40.587,39.478z M40.304,40.045c0.145,0.148-0.207,0.365-0.284,0.288
			C39.868,40.183,40.225,39.966,40.304,40.045z M39.448,95.111c0.047-0.336,0.518-0.243,0.855-0.288
			C40.257,95.157,39.782,95.064,39.448,95.111z M40.872,61.159c0.422-0.723,1.012-1.275,1.143-2.283
			c1.012-1.174,1.715-2.659,2.282-4.279c0.733-1.338,1.744-2.703,2.567-4.28c0.056-0.103-0.087-0.498,0-0.569
			c0.348-0.287,0.801-1.016,1.141-1.711c0.139-0.286,1.039-3.135,1.14-1.999V61.73c-0.655,1.815-2.071,2.872-2.566,4.849
			c-1.026,1.351-1.608,3.146-2.281,4.851c-1.139,1.049-2.333,2.043-2.855,3.709c-0.642-0.212-0.11-1.602-0.284-2.283
			c-0.048-0.713,0.441-0.894,0.857-1.142c0.658,0.089,0.318-0.823,0.856-0.854c0.519-1.287,0.897-2.717,1.71-3.709
			c0.377-1.334,0.828-2.596,1.426-3.708c0.4-2.674,2.631-4.943,1.713-7.989c-2.467,0.007-2.865,2.08-3.708,3.71
			c-1.171,1.299-2.128,2.814-2.854,4.562C40.257,63.671,40.497,61.617,40.872,61.159z M41.157,84.268
			c0.592-0.17,1.875,0.354,1.998-0.283c1.367,0.1-0.607,0.853-0.568,1.426c-0.325,0.627-0.955,0.947-1.146,1.711
			C40.795,86.727,41.335,85.135,41.157,84.268z M49.72,93.684c-0.709-0.043-1.184,0.146-1.431,0.569
			c-2.248-0.062-4.327,0.046-5.991,0.57c-1.246,0.051,0.268-0.964,0.573-1.14c0.236-0.717,0.782-1.123,0.853-1.998
			c0.938,0.203,0.961,1.321,1.998,1.426h1.143c1.916-0.459,1.881-2.875,2.569-4.564C50.092,89.691,49.53,92.062,49.72,93.684z"/>
	</g>
</g>
</svg>
