<?xml version="1.0" encoding="utf-8"?>
<!-- Generator: Adobe Illustrator 16.0.0, SVG Export Plug-In . SVG Version: 6.00 Build 0)  -->
<!DOCTYPE svg PUBLIC "-//W3C//DTD SVG 1.1//EN" "http://www.w3.org/Graphics/SVG/1.1/DTD/svg11.dtd">
<svg version="1.1" id="Layer_1" xmlns="http://www.w3.org/2000/svg"  x="0px" y="0px"
	 width="120px" height="120px" viewBox="0 0 120 120" enable-background="new 0 0 120 120" xml:space="preserve">
<g id="file-pdf">
	<g>
		<path d="M98.352,47.064c0.084-1.723,0.724-2.885,0.854-4.555c0.224-4.439-0.052-7.051,0-12.25
			c-0.037-4.426-0.015-8.912-0.854-12.533c-1.791,0.014-3.336,0.271-4.848,0.57c-0.814-0.512-1.646-1.01-3.13-0.855
			c-15.562-0.012-30.666-0.479-46.433-0.285c-0.407,0.158-0.695,0.447-0.852,0.857c-0.661,0.855-1.269,1.77-1.997,2.562
			c-0.533,0.504,0.34,0.832-0.281,1.422c-0.506,0.256-0.885,0.639-1.143,1.143c-1.533,1.502-3.023,3.051-3.986,5.125
			c-1.015,0.508-1.18,1.861-1.995,2.562c-0.804,0.717-0.905,2.137-1.706,2.852c-0.072,1.447-1.234,1.805-1.711,2.846
			c-0.652,0.963-1.866,1.369-1.998,2.85v6.551c0.201,1.705,0.761,3.039,0.859,4.844c-1.028,14.451-0.145,30.812-0.859,45.576
			c0.17,2.398-0.346,5.475,0.287,7.406v1.994c-0.17,0.51,0.835,1.184,0,1.424c-0.447,1.09-0.695,1.811,0,2.852
			c1.264,1.111,3.588,0.283,5.412,0.283c1.607-0.58,3.924-0.445,5.697-0.854c9.256-0.156,15.902,0.408,24.214-0.285
			c7.925-0.82,16.438-0.512,24.78-0.281c2.574,0.354,6.117,0.994,8.549,0.566c0.715-0.518,1.251-1.221,1.42-2.279
			c0.191-1.137,0.857-1.801,1.143-2.848C100.262,84.305,98.818,64.91,98.352,47.064z M43.941,26.559
			c-0.607,0.133-0.544-0.408-0.569-0.857C43.723,25.828,43.956,26.068,43.941,26.559z M41.661,27.699h0.858
			c0.377,1.428,1.369,2.232,2.274,3.129c-0.22,1.174,0.439,1.465,0.288,2.566c-1.337-0.088-1.154-1.697-2.282-1.996
			c-0.41-1.012-1.152-1.695-1.988-2.279C40.977,28.529,41.407,28.201,41.661,27.699z M40.812,33.395
			c0.352,0.881,0.939,1.529,1.708,1.994c-0.259,0.77-1.05-0.244-1.14-0.57c-0.416-0.248-0.902-0.428-0.855-1.139
			c-0.77-0.562-1.364-1.297-1.712-2.281C39.92,31.625,39.898,32.971,40.812,33.395z M36.534,34.248
			c0.688,0.547,0.947,1.525,1.711,1.992c-0.762,0.568-2.512,0.148-3.416,0.57C35.229,35.791,36.059,35.195,36.534,34.248z
			 M92.652,104.893c-1.455,0.127-1.562-1.098-2.851-1.141H83.82c-10.95-1.047-21.319,0.875-32.188,0.854
			c-1.15,0.271,0.362-1.541-0.568-1.99c-1.281-0.145-0.799,1.479-1.421,1.99h-3.991c-1.303-0.197-2.892,0.324-3.418,0
			c0.393-1.646,1.758-3.355,1.139-5.125c-1.83-0.312-2.043,0.99-2.848,1.709c-0.229,1.287-1.136,1.904-1.142,3.416
			c-1.214-0.111-2.931,0.279-3.7-0.281c0.224-2.52,2.326-4.391,1.708-6.838c-2.28,0.189-2.656,2.277-3.419,3.988
			c-1.049-0.604-0.437-2.387,0-3.135c0.701-0.725,0.65-2.197,1.424-2.85c0.438-2.414,1.814-3.881,1.995-6.549
			c-0.854-0.711-1.921,0.188-1.995,1.141c-0.585,0.193-0.934,2.076-1.424,1.422v-2.281c0.363-1.252,1.083-2.141,1.711-3.129
			c0.434-2.322,1.506-4,1.992-6.27c0.24-2,2.035-4.314,0.855-5.982c-1.258-0.119-1.996,0.285-2.562,0.857
			c-0.693,0.09-1.262,1.75-1.713,1.139c-0.143-11.066,0.507-21.336,0.286-32.477c0.177-1.311-0.638-1.637-0.569-2.844h4.273
			c1.929-0.354,3.828-0.729,6.268-0.574c1.898-0.568,4.258-0.678,5.697-1.707c0.262-0.5,0.097-1.422,0.57-1.711
			c-0.446-2.498-0.654-5.232-1.138-7.688c-0.415-2.531-1.229-4.662-1.429-7.408c2.908-0.17,6.148-1.068,9.116-0.285
			c10.746-0.205,19.883,1.197,30.481,1.139c1.883,0.156,4.146,0.967,5.979,0.287c0.005,1.238,0.095,2.562-0.288,3.418
			c0.544,1.068,0.028,3.199,0.573,4.271c0.451,22.713,0.154,46.181,0.854,68.652C94.111,100.844,94.525,104.018,92.652,104.893z
			 M55.335,59.6h-1.139c-0.756,0.381-2.188,0.09-2.564,0.857c-0.896,0.242-1.751,0.527-1.989,1.422
			c-0.665,0.428-0.44,0.695-0.289,1.426c-0.222,0.631-0.598,1.109-0.569,1.994c0.281,1.145,0.351,2.5,0.285,3.986
			c0.59,1.023,0.35,2.881,0.852,3.988c-0.154,1.773,0.181,3.049,1.711,3.133c2.986-0.045,1.029-4.643,1.422-5.98
			c2.656-0.01,4.191-1.131,5.699-2.279c0.146-0.711,0.54-1.17,0.856-1.709c0.033-2.123-0.278-3.896-0.856-5.414
			C57.536,60.629,56.782,59.768,55.335,59.6z M52.2,67.004v-2.279c0.117-0.98-1.336-1.867-0.85-2.273
			c1.503-0.385,3.99-0.51,5.122,0.287C56.993,66.1,55.36,67.314,52.2,67.004z M84.393,61.023c-0.41-0.538-0.636-1.26-1.707-1.142
			c-2.354-0.07-3.836,0.729-5.129,1.713c-0.262,2.017-0.643,3.919-0.572,6.265c-0.205,0.875,0.492,0.841,0.287,1.711v2.565
			c0.619,1.939-0.188,5.316,2.847,4.843c1.87-0.729,0.805-3.375,0.854-5.414c2.637-0.021,5.416,0.099,5.414-2.562
			c-0.52-1.856-3.834-0.92-5.982-1.144c0.197-1.623-0.479-2.362-0.286-3.985c2.059-0.226,5.096,0.541,6.271-0.567V61.88
			C86.173,61.145,85.477,60.889,84.393,61.023z M72.143,63.02c-1.113-0.596-2.127-1.289-3.133-1.996
			c-1.859,0.234-4.725-0.544-5.697,0.572c-0.029,0.021-0.271-0.033-0.281,0c-0.613,1.6-0.506,4.693-0.575,7.121
			c-0.072,2.713,0.073,5.393,0.287,7.121c1.339,1.035,4.356,0.393,6.553,0.568c0.054-0.418,0.687-0.262,1.138-0.283
			c2.096-1.041,3.488-2.783,4.561-4.844c0.143-2.23-0.084-4.096-0.57-5.697C73.632,64.756,72.859,63.91,72.143,63.02z
			 M69.581,72.988h-3.706c-0.146-2.984,0.323-6.59-0.282-9.115c1.494-0.176,2.587,0.133,3.702,0.852
			c0.157,0.105-0.044,0.271,0.286,0.287c0.373,0.021,1.909,1.787,1.992,1.992c0.366,0.918,0.245,1.953,0.284,3.137
			C71.509,71.502,70.499,72.197,69.581,72.988z"/>
	</g>
</g>
</svg>
