<?xml version="1.0" encoding="utf-8"?>
<!-- Generator: Adobe Illustrator 16.0.0, SVG Export Plug-In . SVG Version: 6.00 Build 0)  -->
<!DOCTYPE svg PUBLIC "-//W3C//DTD SVG 1.1//EN" "http://www.w3.org/Graphics/SVG/1.1/DTD/svg11.dtd">
<svg version="1.1" id="Layer_1" xmlns="http://www.w3.org/2000/svg"  x="0px" y="0px"
	 width="120px" height="120px" viewBox="4 4 120 120" style="enable-background:new 4 4 120 120;" xml:space="preserve">
<g id="pen">
	<g>
		<path d="M108.8,15.4c-2.399-0.2-4.2,0.3-6.1,0.6c-0.601,0.5-1.101,1.1-2.101,1.2c-1.1,1.7-3,2.7-4.3,4.3c-1.8,1.1-2.6,3.1-4.6,4
			c-0.3-1.6-2.2-1.7-3.7-2.1c-1-0.1-1.3,0.5-2.4,0.3c-2.3,1.4-4.3,3.2-6.399,4.9c-0.7,1.6-2.5,2.2-2.4,4.6
			c0.8,2.9,4.101,3.2,5.8,5.2c2.4,1.4,4.4,3.2,5.801,5.5c-0.9,0-1.601,0.3-1.801,0.9c-0.399,0.5-1.699,0.1-2.1,0.6
			c0.1,1.1,0.8,1.1,0.3,2.1c-0.7,0.6-0.8,1.6-1.5,2.1c-0.6-0.5-1.2-1-2.1-1.2c-0.4-0.7-2.4-0.3-2.101,0.6
			C78.4,49.3,79.4,50.5,80,50.5c0.1,0.9,1.3,0.7,1.5,1.5c-0.6,0.4-1.1,0.9-1.5,1.5c-0.9,0.2-0.8,1.4-1.8,1.5
			c-1-0.6-1.7-1.4-3.101-1.5c-0.5,0.7-1.5,0.7-1.5,1.8c-0.399,2.1,1.5,1.9,1.801,3.4C74,58.8,74.1,60.4,72.6,60.5
			c-0.699-0.7-1.5-1.2-2.8-1.2c-1.3,0.4-2.2,1.2-2.399,2.8c0.3,1.3,1,2,1.8,2.8c-0.8,0.6-1.601,1.3-2.4,1.8
			c-0.899-0.4-1.899-0.4-2.8,0c-1.1,0.899,0,2.7-0.6,3.7c-0.8-0.2-0.6,0.6-1.2,0.6c-1.5-0.6-3.2-1.4-4.3,0c-0.3,1.7,0.7,2.2,1.2,3.1
			C57.8,74.6,57.4,75.9,56,76.2c-1.3-0.2-1.9-1.7-3.4-0.9c-1,1.4,0.4,2.5,0.6,3.7c-1.4,0.8-1.9,2.3-3.4,3.1
			c-0.8-0.899-1.9-1.6-3.7-1.5c-0.8,0.5-1.4,1-1.5,2.101c0.1,1.6,1.7,1.8,2.4,2.8c-1.3,0.4-1.2,2.3-2.8,2.4
			c-1.3-0.5-1.8-1.7-3.7-1.5C40.2,86.8,39.7,87,39.3,87.3c-0.3,2.4,1.1,3,2.1,4C41,92.2,40,92.5,39.6,93.4
			c-1,0.399-1.2,1.699-2.4,1.8c-1.4-0.9-2.3-2.4-3.7-3.4c-0.7-1.6-2.9-1.8-3.4-3.7c1.1-0.699,2-1.6,3.1-2.399
			c1.4-2.3,3.5-3.8,4.9-6.101c0.7-0.199,0.8-1,1.5-1.199c-0.1-1,1.2-0.601,1.2-1.5c1-0.801,2-1.7,2.8-2.801
			c2.1-1.5,3.8-3.5,5.8-5.199c1.2-0.601,1.6-2.101,3.1-2.4c0.9-1,1.6-2.3,3.1-2.8c1.7-2,3.6-3.8,5.5-5.5c1.9-1.8,3.4-3.9,5.5-5.5
			c1.7-1.9,3.4-3.9,5.2-5.8c0.8-1.1,1.9-1.8,2.4-3.1c1.1-0.9,2.2-1.6,2.399-3.4c-0.3-1.7-1.199-2.9-3.1-3.1c-3.6,0.5-4.2,4-6.7,5.5
			c0.101,1.1-1,1-1.2,1.8c-0.899,0.1-0.699,1.3-1.5,1.5c-0.8,1.3-2.2,2.1-3.1,3.4c-0.9,1.1-1.9,2.2-3.1,3.1
			c-0.1,0.9-1.3,0.7-1.5,1.5c-0.5,0.6-0.8,1.4-1.8,1.5c-2,2.2-3.9,4.4-6.4,6.1c-1.9,2.3-4.1,4.3-6.4,6.1c-2.1,2.101-3.8,4.5-6.1,6.4
			c-1.7,2.5-3.8,4.6-5.5,7c-1.9,2.3-3.6,4.7-6.1,6.399c-1.8,3.9-5.2,8.801-3.4,14.4c-1.2,1.4-2.5,2.8-3.7,4.3
			c-1.1,1.601-3.3,2-3.1,4.9c0.4,0.2,0.7,0.5,0.9,0.899c2.6-0.1,3.8-1.5,5.2-2.8c1.8-0.899,3-2.3,4.6-3.399c0.6,0.5,1.5,0.6,2.4,0.6
			c0.8,0.3,1.9,0.4,3.1,0.3c3.2-1,5.7-2.7,6.7-5.8c0.9,0.2,1.1-0.3,1.8-0.3c0.4-0.8,0.8-1.601,1.2-2.4c3.3-2.6,6.1-5.7,9.2-8.6
			c3.1-2.8,5.8-6,9.5-8.3c1.4-1.5,3.3-2.601,4.9-4c1.5-1.5,3.1-2.801,4.6-4.301c3-2.899,6.4-5.399,8.9-8.899
			c3.8-2.4,5.8-6.6,9.5-9.2c0.6-1.5,2.1-2.1,2.399-4c1.101-1,1.8-2.5,2.8-3.7c0.601,1.1,1.9,1.5,2.101,3.1
			c-3.9,4.2-7.3,8.8-11.3,12.8c-1.801,2.2-3.9,4-5.5,6.399c-1,1-2,2.101-2.801,3.4c-1.199,0.6-2.399,2.2-1.5,4
			c2.801,1.1,4.4-1.2,6.101-2.1c1.5-1.5,3.1-3.101,4.6-4.601c3-3,5.601-6.4,8.9-9.2c0.2-1.2,1.3-1.5,1.8-2.4
			c0.8-0.8,1.2-1.9,2.1-2.4c1.101-1.9,3.101-3.1,4-5.2c1.601-1.5,2.4-3.8,3.7-5.5c0.7-2.3,1.8-4.3,1.5-7.6c-0.8-0.2-0.8-1.3-1.8-1.2
			c-0.1-0.9-2.3,0.3-2.4-0.6c0-1.1,1.101-1,1.5-1.5c0.301-0.8,1.2-1,1.5-1.8c1.5-0.6,2.2-2.1,3.7-2.8c1.9-2.4,4.5-4.1,6.101-6.7V20
			C112.9,17.9,110.8,16.7,108.8,15.4z M25.6,100.1c0.1-0.399-0.1-0.5-0.3-0.6c0.1-2.7,0.9-4.6,1.5-6.7c1.2,0.8,1.8,2.101,2.8,3.101
			c0.8,0.3,0.9,1.1,1.5,1.5c0.5,0.399,1.2,0.6,1.2,1.5C30.8,100.2,27.7,102.3,25.6,100.1z M98.4,25.2C99.5,26.1,97.5,26.2,98.4,25.2
			L98.4,25.2z M97.5,45.7c-2.4-2.1-4-5.1-6.4-7.3C90.3,37,88.9,36.1,87.7,35c-1.2-1-2.601-1.8-4-2.8c0.1-0.9,1-1,1.5-1.5
			c0.5-0.4,1-0.9,1.5-1.2c0.3-0.1,0.5-0.3,0.6-0.6c0.5-0.1,0.5,0.3,0.9,0.3c1.399,2.6,3.3,4.6,4.899,7c2.301,1.7,3.7,4.3,5.5,6.4
			C98.7,44,97.8,44.6,97.5,45.7z M98.1,33.1c-1-0.8-1.6-2.1-2.8-2.8c0.2-0.9-0.8-0.6-0.6-1.5c0.399-0.2,0.7-0.5,0.899-0.9
			c1.601,0.6,2.301,2.1,4,2.8C99.4,31.8,98.5,32.2,98.1,33.1z M103.3,24c-1,0-1-1-2.1-0.9C101.5,21.8,102.9,23.4,103.3,24
			C103.7,23.9,103.5,24.4,103.3,24z M105.4,24.9c-0.2-0.2,0.199-0.4,0.3-0.3C105.9,24.7,105.5,25,105.4,24.9z M106.4,24.3
			c-0.4-0.1-0.301-0.8-0.301-1.2c-0.899-0.6-1.8-1.3-3.1-1.5c0.5-1.5,2.1-1.7,4-1.8c0.6,0.5,1.1,1.1,1.8,1.5
			C108.5,22.7,106.9,23,106.4,24.3z"/>
	</g>
</g>
</svg>
