<?xml version="1.0" encoding="utf-8"?>
<!-- Generator: Adobe Illustrator 16.0.0, SVG Export Plug-In . SVG Version: 6.00 Build 0)  -->
<!DOCTYPE svg PUBLIC "-//W3C//DTD SVG 1.1//EN" "http://www.w3.org/Graphics/SVG/1.1/DTD/svg11.dtd">
<svg version="1.1" id="Layer_1" xmlns="http://www.w3.org/2000/svg"  x="0px" y="0px"
	 width="120px" height="120px" viewBox="4 4 120 120" style="enable-background:new 4 4 120 120;" xml:space="preserve">
<g id="pencil">
	<g>
		<path d="M115,32.7c0.2-1.6-0.5-2.3-0.3-3.9c-3.101-3.9-6.2-7.7-9.601-11.3c-1.399-0.7-2.699-1.5-3.899-2.3
			c-3.3-0.3-5.601,0.5-7.601,1.4c-2.5,2.6-4,6.2-6.5,8.7c-0.699-1.1-0.899-2.7-2.8-2.5c-2.1,0.1-2.5,1.8-3.7,2.8
			c-1.199,1-2.399,2.1-3.699,3.1c-2.101,2.4-4.601,4.4-6.5,7c-1.4,0.8-2.601,2-3.7,3.1c-1.101,1.1-2.2,2.3-3.1,3.7
			c-2.5,2-4.7,4.4-7.1,6.5c-4.5,4.5-9,9-13.7,13.3c-2.4,2.1-4.6,4.4-6.8,6.8c-1.3,1-2.2,2.301-3.1,3.7c-0.7,0.4-1,1.3-1.4,2
			c-0.6,0.5-1.2,1.101-1.4,2c-1.2,0-1.7,0.7-2.5,1.101C27.5,78.8,26.8,79,26.5,79.6c-0.2,0.9-0.6,1.5-0.8,2.301
			C25.1,83.3,24.3,84.6,24,86.4C23.3,87.6,22.9,89.3,22.3,90.6c-0.4,1.7-1.1,3-1.7,4.5c-1.2,2.801-2.2,5.9-3.7,8.5
			c-0.6,2.9-3.5,6.801-0.6,9c3.8,0.301,5.4-1.5,8.2-2.3c0.9-0.8,2.8-0.6,3.7-1.399c0.9,0,1.3-0.301,2-0.601c0.5-0.399,1.6-0.3,2-0.8
			c2.7-0.8,5-1.9,7.6-2.8c2.7-0.9,5.7-1.5,8.2-2.5c0.5-0.8,0.8-1.8,1.1-2.8c1.1-0.2,1.6-1.301,2.3-2c2.2-2.2,4.3-4.2,6.5-6.2
			c1.1-0.8,1.8-1.9,3.1-2.5C65.9,82.1,72.4,77,78.5,71.5c6.6-5,13-10.3,19.2-15.8c0.2-0.7,0.399-1.3,0.3-2.3
			c1.4-0.5,2.4-1.3,2.5-3.1c-0.3-1.4-1-2.4-2.3-2.8c-1.101-0.6-1.9-1.5-3.101-2C94.6,44.3,93.2,44,92.6,43
			c-1.199-0.5-1.399-2-2.5-2.5c-1.5-1.9-3.1-3.7-4.5-5.6c-0.699-1-1.5-1.9-2.3-2.8s-1.7-2.2,0-2.8c0.601-0.6,0.601,0.1,0.8,0.6
			c0.7,0,0.4,1.1,1.101,1.1c0.399,1.1,1.1,1.9,2,2.5c0.899,2.1,2.8,3.2,3.7,5.4c1.6,1.3,2.5,3.3,4.199,4.5
			c1.4,1.6,2.9,3.1,5.101,3.9h3.399c1.5-1,2.5-2.4,3.7-3.7c1.9-1,3.601-2.2,5.101-3.7c0.1-1.5,0.899-2.2,1.1-3.7
			c0.5-0.4,0.4-1.3,0.8-1.7C114.3,33.7,115.2,33.8,115,32.7z M31.2,102.4c-1.7-1.4-3.3-2.9-5.6-3.7c2.3-5.7,4.2-11.8,6.8-17.2h5.1
			c-0.1,1.6-1.1,3.8-0.6,5.6c0.3,1.2,1.3,1.601,2,2.301h3.9c0.3,2.699,0.5,5.5,0.9,8.199C39,98.7,35.6,101,31.2,102.4z M89.9,48.2
			c-0.301,1.5-2,1.6-2.301,3.1c-1.199,0.5-1.5,1.9-2.5,2.5C79.8,59,74.5,64.1,69.6,69.7c-3.5,3.5-6.7,7.2-10.1,10.7
			c-0.3,0.899-1.1,1.6-1.7,2.3c-1.8,1.8-4.1,3.7-5.9,5.899c-1.1,0.601-1.3,2.101-2.5,2.5c0.1-1.399,0-2.6-0.3-3.699
			c0.4-1.101,1.2-2,2-2.801c2.1-2.199,4.7-4.399,7-6.8c3.1-3.1,5.8-6.6,9-9.6C70,64.9,73,61.7,75.6,58c1.7-1.4,3.2-3,4.801-4.5
			c1.5-1.6,3.699-2.5,4.199-5.1c0-1.2-0.8-1.7-1.699-2c-1.801-0.2-2.4,0.8-3.101,1.7c-0.6,1-1.7,1.5-2.3,2.5c-2,1.1-3.2,3.2-5.1,4.5
			c-3.7,5.7-8.8,9.9-13,15.2c-4.5,4.8-9.3,9.3-13.8,14.101c-1.5-0.2-2.1,0.5-3.7,0.3c-0.2-1.5,0.5-2.101,0.3-3.7
			c-0.3-0.9,0.6-0.5,1.1-0.6c0.6,0,0.4-0.801,1.1-0.601c0.4-1.2,1.4-1.8,2.3-2.5c0.5-1,1.4-1.6,2-2.5c1.4-1.7,3.1-3.1,4.5-4.8
			c3-3.2,5.9-6.5,9-9.6c1.1-2,3-3.2,4.5-4.8c1.8-1.3,3.2-3,5.1-4.2c1.5-1.6,2.9-3.3,4.5-4.8c0.2-1.3,1.5-1.5,2-2.5
			c0.5-0.7,1.9-1.7,1.101-2.8C79.3,41.1,79.1,41,79.1,40.7C78.4,39.6,76.3,40.3,75.7,41c-0.9,0.7-1.5,1.7-2.3,2.5
			C68.8,48.5,63.8,53,58.7,57.6c-0.5,1.1-1.3,1.8-2.3,2.5c-0.5,1.1-1.3,1.8-2.3,2.5c-0.6,1-1.7,1.5-2.3,2.5
			C51,65.9,49.9,66.4,49.5,67.6c-0.9-0.1-0.6,1.101-1.4,1.101c-0.3,0.5-0.6,0.899-1.1,1.1c-0.7,0.9-1.2,2-2.3,2.5
			c-1.2,2-3.3,3.101-4.2,5.4c-0.8-0.3-1.5-0.8-2.8-0.601h-3.4c-0.7,0-0.3-0.199-0.3-0.6c0.4-0.1,0.4-0.5,0.8-0.6
			C37,73.3,39.6,71.1,42.1,68.6c0.8-0.8,1.4-1.899,2.5-2.3c3.6-3.8,7.5-7.3,11.3-11c3.8-3.7,7.7-7.2,11-11.3
			c2.899-2.7,5.8-5.5,8.5-8.5c1.199-0.6,1.6-2,2.8-2.5c-0.101-0.5,0.3-0.5,0.3-0.8c0.2-0.1,0.3,0.1,0.3,0.3c0.2-0.1,0.3,0.1,0.3,0.3
			C81.9,39.2,85.6,44,89.9,48.2z M108.8,35.5c-1.3,0.9-1.5-1.4-2.8-1.4c-0.6-1-1.6-1.6-2.5-2.3c-1-0.1-1.6,0.1-2.3,0.3
			c0,0.3-0.101,0.5-0.3,0.6c-0.2,1.9,0.6,3,1.699,3.7c0.4,1,2.601,1.4,2,2.5c-1.5-0.1-1.899-1.5-3.1-2c-1.1-0.6-1.5-1.9-2.8-2.3
			c-2.101,0.3-0.8,3.3,0,3.9c0.7,0.3,1,1.1,1.7,1.4c0.199,0.9,1.3,0.7,1.399,1.7c-0.899,0.8-1.2-0.6-2-0.8c-0.7-0.4-1.2-1-1.7-1.7
			c-1.199-1-2-2.4-3.1-3.4c-0.8-1.4-2-2.6-2.8-3.9c-1-1.2-2.2-2.1-2.8-3.7c2.5-2.6,3.899-6.3,6.8-8.5h3.7c0.699,0.9,1.8,1.2,2.3,2.3
			c0.7,0.7,1.7,1.1,2,2.3c1.6,1.2,2.399,3.3,3.899,4.5c-0.3,0.6-1.3-0.4-2.3,0c-0.7,0.1-0.6,0.9-1.1,1.1c0.2,1.6,1.2,2.4,2.3,3.1
			c0.2,0.7,0.9,0.8,1.1,1.4C108.4,34.7,109.4,34.9,108.8,35.5z"/>
	</g>
</g>
</svg>
