<?xml version="1.0" encoding="utf-8"?>
<!-- Generator: Adobe Illustrator 16.0.0, SVG Export Plug-In . SVG Version: 6.00 Build 0)  -->
<!DOCTYPE svg PUBLIC "-//W3C//DTD SVG 1.1//EN" "http://www.w3.org/Graphics/SVG/1.1/DTD/svg11.dtd">
<svg version="1.1" id="Layer_1" xmlns="http://www.w3.org/2000/svg"  x="0px" y="0px"
	 width="120px" height="120px" viewBox="0 0 120 120" enable-background="new 0 0 120 120" xml:space="preserve">
<g id="phone">
	<g>
		<path d="M103.262,16.608c-1.539-0.161-2.473-0.925-4.459-0.637c-0.369,0.268-0.854,0.421-1.594,0.32
			c-5.544,1.993-9.575,5.497-13.374,9.234c-1.472,2.458-3.528,4.329-4.778,7.007c-1.572,2.458-3.604,4.462-3.82,8.278
			c0.177,1.628,1.492,2.116,2.549,2.868c0.406,1.396,1.369,2.236,1.91,3.502c0.938,0.869,1.668,1.944,2.551,2.867
			c0.5,1.301,2.23,1.376,2.229,3.184c-1.41,2.096-3.131,3.878-4.457,6.051c-1.395,0.412-2.004,1.606-2.865,2.548
			c-1.139,0.669-1.659,1.953-2.549,2.865c-3.613,3.5-6.672,7.556-10.51,10.828c-1.552,0.681-2.886,1.574-4.462,2.229
			c-0.882,1.031-2.237,1.586-3.184,2.549c-1.232,0.676-1.896,1.93-3.502,2.229c-1.197-2.308-2.583-4.427-3.822-6.687
			c-1.247-2.263-2.094-4.914-4.462-6.054c-2.552-0.114-3.918,0.961-5.413,1.91c-1.547,0.891-3.481,1.399-4.457,2.866
			c-1.753,0.688-2.701,2.181-4.14,3.185c-1.464,0.979-2.359,2.524-3.821,3.504c-2.159,2.937-4.418,5.774-6.37,8.917
			c-0.881,1.667-1.552,3.546-2.864,4.776c-0.849,1.7-1.264,3.833-1.595,6.051c0.771,1.461,1.5,2.957,3.188,3.505
			c0.982,1.241,2.397,2.059,3.82,2.864c1.619,0.61,2.99,1.469,4.138,2.548c1.212,1.02,2.87,1.591,4.142,2.55
			c3.252,0.992,6.967,1.525,11.466,1.273c3.014-0.597,5.643-1.576,8.917-1.912c1.54-0.792,3.264-1.404,5.093-1.911
			c1.639-0.801,3.459-1.427,5.095-2.229c3.117-1.768,6.363-3.406,9.234-5.414c5.903-3.863,11.663-7.868,17.197-12.104
			c1.361-0.977,2.482-2.188,3.505-3.504c0.599-0.568,1.474-0.859,1.909-1.592c0.641-0.639,1.619-0.932,1.914-1.909
			c2.622-2.263,4.824-4.938,6.688-7.965c2.293-2.593,4.112-5.648,6.053-8.599c1.871-3.01,3.27-6.495,4.139-10.509
			c1.824-2.527,2.779-5.927,3.504-9.555v-12.1C114.031,26.219,109.544,20.515,103.262,16.608z M107.719,45.589
			c-0.781,4.631-1.543,9.286-3.502,12.738c0.223,1.392-0.545,1.793-0.32,3.184c-1.367,1.498-2.26,3.47-3.5,5.097
			c-1.194,1.673-2.523,3.209-3.819,4.778c-2.368,3.259-5.36,5.895-7.646,9.234c-3.05,2.471-5.658,5.381-8.914,7.644
			c-1.365,1.396-2.887,2.637-4.777,3.502c-1.379,1.275-2.973,2.338-4.779,3.187c0.354-1.382,0.602-3.517-0.318-4.458
			c-0.449,0.027-0.898,0.053-0.955-0.318c-3.418-0.062-3.821,4.971-2.545,7.645c-0.891,0.49-1.797,0.964-2.545,1.593
			c-0.906,0.052,0.26-1.964-0.64-1.911c0.28-1.023-0.826-0.659-0.958-1.271c-2.397,0.146-2.428,2.899-1.906,5.096
			c-2.146,0.931-4.134,2.023-6.372,2.863v-2.863c0.08-0.932-0.6-1.102-0.957-1.594c-2.557,0.312-3.231,3.836-2.547,6.369
			c-1.322,0.481-2.638,0.974-3.822,1.594c-0.885-0.701,0.049-2.271,0-3.186c-0.405-0.974-0.098-2.66-1.272-2.867
			c-1.768,0.039-2.081,1.529-2.548,2.867c-0.941,0.758-0.089,3.309-1.275,3.821c-1.699,0.065-0.156-1.69-0.636-3.187
			c0.091-1.078,0.504-1.828,0.318-3.185c-0.322-0.634-0.55-1.36-1.273-1.593c-2.121-0.215-2.216,1.604-3.184,2.546
			c-0.051,0.903-0.587,1.327-0.639,2.229c-0.424,0.53,0.117,2.026-0.956,1.912c0.182-2.16,1.029-3.646,1.275-5.734
			c0.299-1.516,1.314-4.229,0-5.412c-2.195,0.351-2.308,2.783-3.819,3.82c-0.582,1.859-1.579,3.309-1.911,5.414
			c-1.234-0.379-0.239-2.634,0.317-3.185c-0.007-1.603,0.858-2.327,0.957-3.822c0.656-0.934,0.886-2.297,1.272-3.504
			c0.367-1.332,0.548-2.948-0.635-3.503c-2.329,0.538-2.796,2.938-4.141,4.459c-0.485,1.003-1.063,1.91-1.276,3.186
			c-0.472,0.271-0.459,1.024-0.635,1.594c-0.764-0.128,0.179,1.449-0.955,0.953c0.455-2.625,1.279-4.879,2.23-7.006
			c0.306-1.58-0.85-1.697-0.958-2.864c2.329-2.451,4.357-5.199,6.69-7.644c2.48-2.191,5.332-4.012,7.642-6.371
			c2.736,2.15,4.541,5.228,6.369,8.279c-0.204,1.494-2.167,1.229-2.228,2.866c-0.092,1.471,1.042,1.717,1.911,2.229
			c4.261-0.517,6.76-2.797,10.191-4.143c1.135-1.309,2.974-1.907,4.139-3.186c1.471-0.862,2.593-2.076,3.823-3.185
			c5.062-4.385,10.072-8.821,14.332-14.013c0.979-0.082,1.434-0.691,2.229-0.956c2.032-1.466,3.241-3.763,4.459-6.051
			c1.604-1.896,2.438-4.567,3.818-6.688c-0.213-2.124,1.054-2.771,0.955-4.778c0.916-0.581,1.354-2.939,0.637-4.14
			c-0.799-0.055-0.996,0.488-1.273,0.955c-0.197,0.543-0.963,0.524-1.271,0.956c-1.677-0.293-1.306,1.457-2.552,1.592
			c-0.405-1.606-2.17-1.864-2.547-3.502c-1.248-0.768-1.805-2.229-2.865-3.185c2.017-4.036,4.888-7.215,7.322-10.829
			c2.933-3.122,6.799-5.304,10.512-7.644h0.638c1.719,0.725,2.634,2.252,3.819,3.505c1.24,1.202,2.078,2.807,3.187,4.139
			c-0.09,1.999,0.086,3.738,0.638,5.097C107.865,38.119,107.641,41.537,107.719,45.589z"/>
	</g>
</g>
</svg>
