<?xml version="1.0" encoding="utf-8"?>
<!-- Generator: Adobe Illustrator 16.0.0, SVG Export Plug-In . SVG Version: 6.00 Build 0)  -->
<!DOCTYPE svg PUBLIC "-//W3C//DTD SVG 1.1//EN" "http://www.w3.org/Graphics/SVG/1.1/DTD/svg11.dtd">
<svg version="1.1" id="Layer_1" xmlns="http://www.w3.org/2000/svg"  x="0px" y="0px"
	 width="120px" height="120px" viewBox="4 4 120 120" style="enable-background:new 4 4 120 120;" xml:space="preserve">
<g id="camera">
	<g>
		<path d="M118.5,45.326c-0.289-0.734-0.332-1.712-0.277-2.792c-0.576-0.819-0.781-2.011-1.119-3.069
			c-0.373-1.022-1.062-1.726-1.394-2.791c-1.011-0.292-1.549-1.059-2.231-1.674c-1.244-0.153-2.519-0.275-3.631-0.559
			c-1.522,0.036-2.977,0-3.906-0.558c0.061-2.2,0.05-4.33-0.562-5.861c-0.747-0.46-1.233-1.184-1.95-1.674
			c-4.01-0.294-9.832-0.221-12.002,2.232c-0.322,0.907-0.525,3.037,0,3.906c0.164,0.582,0.586,0.903,0.838,1.396
			c0.332,0.413,1.053,0.434,1.395,0.836c1.253-0.237,2.238-0.737,2.513-1.953c0.515-1.069,2.356-0.804,3.908-0.837v3.071
			c-7.944,0.453-15.896,0.222-23.444,0c-0.57-2.127-1.41-3.986-2.232-5.863c-1.199-1.499-1.332-4.062-3.35-4.744
			c-0.591-0.713-2.058-0.545-3.352-0.557c-0.751-0.548-2.436-0.167-3.626-0.28c-0.661-0.642-2.507-0.098-3.627-0.279
			c-6.588-0.02-13.341,0.128-19.536-0.278c-0.623,0.216-1.09,0.584-1.956,0.557c-2.336,1.851-2.143,6.232-3.627,8.931
			c0.161,0.491-0.339,1.64,0.279,1.677c-0.363,0.691,0.623,1.353,0,1.395c-1.695,0.098-3.527-0.134-5.025,0
			c-1.953,0.172-4.923,1.092-6.139,1.395c-0.701,0.176-0.931,0.294-1.396,0.558c-0.633,0.361-1.022,0.979-1.676,1.116
			c-2.007-0.237-2.738,0.798-4.183,1.118c-1.243,1.177-1.928,2.912-2.793,4.465c-0.547,7.081-1.082,14.175-0.836,22.048
			c0.109,7.613,0.759,14.686,1.674,21.49c-0.118,4.865,0.273,9.216,1.114,13.117c2.305,2.439,5.749,3.742,10.328,3.906
			c0.685,0.435,1.814,0.418,2.791,0.561c0.84,0.367,2.391,0.027,3.07,0.559c2.572-0.154,4.488,0.348,6.697,0.559
			c12.237,0.52,24.604,0.234,36.282-0.559c5.531-0.195,12.021-0.559,18.142-0.559c4.708,0,9.823,0.407,13.679-0.28
			c1.32-0.235,2.447-0.577,3.626-1.116c0.419-0.789,1.229-1.188,1.396-2.231c0.891-0.319,0.779-1.64,1.396-2.231
			c0.253-0.953,0.417-2,0.836-2.791c-0.23-0.789,0.393-0.724,0.281-1.396c0.479-0.168-0.023-1.321,0.557-1.395
			c0.164-4.115,1.019-7.543,0.838-12.002c0.416-1.725,0.105-4.172,0.556-5.861v-3.068c0.178-0.939-0.355-2.593,0.28-3.07
			C117.195,61.328,118.535,54.014,118.5,45.326z M55.984,28.86c4.312-0.128,8.097,0.274,12,0.558
			c1.113,1.397,1.604,3.418,2.512,5.024c-0.533,0.532-1.551,0.271-2.234,0.278c-1.875,0.027-4.494-0.017-6.696,0v-1.953
			c-1.984-0.31-1.703,1.645-2.794,2.234h-3.348C55.721,33.065,56.126,31.236,55.984,28.86z M47.05,30.536v-1.398
			c1.62-0.612,4.347-0.119,6.422-0.278c-0.7,1.718-0.786,4.053-1.116,6.141c-0.407,0.153-1.443-0.327-1.398,0.277
			c-1.043-0.451,0.232-2.507,0.282-3.626c-0.153-1.15-0.519-2.086-1.396-2.514C48.607,29.299,47.816,29.904,47.05,30.536
			C47.079,30.872,46.645,30.707,47.05,30.536z M40.913,35.278c-0.056,0.319-0.281,0.157-0.281,0
			C40.686,34.962,40.913,35.125,40.913,35.278z M111.521,57.608c-0.814,6.347-1.26,13.067-1.396,20.092
			c-0.646,7.17-0.42,15.207-3.066,20.376c-11.531,0.562-24.31-0.121-35.166,1.115c-0.787,0.041-0.807-0.685-0.838-1.396
			c-0.089-0.653-0.863-0.625-1.119-1.116c-1.901,0.145-2.332,1.758-3.348,2.79c-3.177-0.202-5.495,0.46-8.65,0.279
			c0.729-1.967,2.334-3.062,2.229-5.86c-3.019-0.939-4.97,1.516-6.416,3.068c-0.399,0.997-0.991,1.8-1.118,3.072H47.61
			c0.144-1.319,0.993-2.559,0.279-3.909c-1.045-0.996-3.007-0.437-3.908,0.278c-0.698,0.23-0.882,0.979-1.394,1.396
			c-0.653,0.371-0.128,1.918-1.118,1.953h-1.954c0.056-1.809,1.295-2.426,1.117-4.467c-1.483-1.241-3.143,0.527-4.467,1.117
			c-0.581,0.348-1.047,0.812-1.393,1.396c-0.656,0.272-0.467,1.396-1.396,1.396c0.762-1.377,1.126-3.152,1.953-4.465
			c-0.009-1.475,0.835-3.55-0.281-4.468c-1.666,0.009-2.169,1.179-3.068,1.956c-1.368,0.309-1.653,1.692-2.792,2.23
			c-0.784,1.354-1.749,2.527-2.511,3.906c-0.818-0.235,0.362-0.699,0-1.396c0.4-0.343,0.529-0.958,0.561-1.675
			c0.645-0.838,0.987-1.986,1.393-3.067c0.734-1.496,2.461-4.882,0.558-6.421c-1.998-0.139-2.794,0.93-3.628,1.953
			c-0.655,1.204-1.582,2.139-1.954,3.629h-0.278c0.267,1.16-0.834,0.057,0,0c0.37-2.051,1.174-3.663,1.677-5.582
			c0.268-1.914,1.812-3.893,1.393-5.583c-1.286-1.36-3.674-0.041-4.462,0.839c0.025,0.337-0.41,0.172,0,0
			c0.307-2.206,1.365-3.658,1.671-5.861c0.55-0.658,0.658-1.762,0.839-2.789c0.75-0.957-0.141-2.137-0.839-2.515
			c-2.091,0.237-2.65,2.001-3.349,3.63c-0.962-0.898-0.295-3.426-0.836-4.746V56.211c0.403-3.689,0.483-7.702,1.117-11.164
			c0.802-0.629,2.068,0.449,3.067-0.279c2.206-1.051,4.347-2.167,6.978-2.791c14.909,0.106,30.297-0.969,45.493-0.279
			c6.896,0.312,14.115,0.299,20.934,0c2.991-0.133,6.065-0.731,8.93-1.117c1.943-0.084,3.254,0.468,5.023,0.56
			c0.305,0.81,0.262,1.97,0.836,2.511C111.967,48.563,111.591,52.931,111.521,57.608z M103.986,44.489
			c-0.832-0.562-2.635-0.157-3.906-0.279c-0.172,0.017-0.331,0.042-0.277,0.279c-1.74,0.03-2.271,1.266-3.353,1.954
			c-0.712,1.43-1.013,3.266-0.837,5.582c1.088,1.757,2.922,3.261,5.582,3.349c1.425,0.048,2.805-0.507,4.185-0.839
			c0.603-0.702,1.05-1.555,1.679-2.231c0.031-1.904,0.055-3.631-0.281-4.464C106.236,46.482,105.195,44.78,103.986,44.489z
			 M102.035,50.072c-0.85,0.011-1.842,0.16-1.678-0.839c0.66,0.006,0.824-0.479,1.678-0.277V50.072z M86.961,47.839
			c-0.045,0.324-0.441,0.302-0.837,0.278c-0.325,0.512-0.729,0.945-1.116,1.395v2.513c0.373,0.279,0.844,0.46,1.116,0.837
			c2.463,0.044,3.849-0.99,4.187-3.069C89.691,48.643,88.38,48.19,86.961,47.839z M82.495,63.468
			c0.083-1.477-0.481-2.306-0.556-3.628c-0.635-0.764-1.067-1.724-1.676-2.51c-0.462-0.283-0.306-1.187-0.56-1.676
			c-0.25-0.493-0.672-0.815-0.837-1.395c-2.782-2.522-7.105-3.5-11.721-4.186c-2.35-0.166-5.368,0.34-7.26-0.279
			c-0.354,0.014-0.383,0.357-0.835,0.279c-6.55,0.053-10.385,2.825-14.234,5.581c-0.407,1.271-0.745,2.374-1.117,3.07
			c-0.963,1.817-1.951,3.189-2.511,5.302c0.229,0.789-0.392,0.724-0.277,1.394c0.609,3.461-0.593,6.371-0.281,10.328
			c0.235,0.322,0.367,0.748,0.281,1.396c0.436,0.815,0.694,1.685,1.116,2.511c0.408,0.809,0.771,1.306,1.116,1.674
			c0.202,0.221,0.088,0.587,0.278,0.84c0.459,0.603,1.304,1.31,1.954,1.954c0.653,0.646,1.364,1.502,1.951,1.952
			c0.317,0.241,1.025,0.327,1.395,0.559c0.192,0.116,0.31,0.414,0.562,0.56c0.277,0.16,0.525,0.104,0.836,0.277
			c0.106,0.061,0.164,0.475,0.28,0.559c0.183,0.137,0.677,0.203,0.838,0.281c0.62,0.301,1.425,0.53,1.674,0.834
			c0.062,0.076,0.458-0.035,0.559,0c3.058,1.153,6.972,1.592,11.162,1.396c1.635-0.413,3.434-0.661,4.747-1.396
			c1.539-0.601,2.625-1.65,4.185-2.23c0.082-0.57,0.756-0.549,0.838-1.117c0.328-0.416,1.16-0.328,1.115-1.117
			c1.004-0.481,1.391-1.586,2.232-2.231c0.271-0.757,0.814-1.714,1.117-2.233c0.666-1.15,1.216-2.447,1.953-3.626
			c5.617,0.56,8.211-4.131,6.418-9.211C86.115,65.617,84.295,64.553,82.495,63.468z M74.682,74.632
			c-0.033,0.084-0.223,0.054-0.279,0.276c-0.041,0.167,0.064,0.406,0,0.561c-0.073,0.176-0.493,0.416-0.557,0.559
			c-0.236,0.519-0.309,1.246-0.56,1.674c-0.065,0.113-0.515,0.185-0.558,0.279c-0.066,0.144,0.084,0.432,0,0.56
			c-0.07,0.103-0.518,0.188-0.56,0.278c-0.062,0.133,0.088,0.445,0,0.559c-1.274,1.614-3.467,2.898-5.306,4.188
			c-1.721,0.509-3.814,0.648-5.858,0.838c-6.926-0.332-10.885-3.627-13.956-7.814c-0.965-2.943-0.884-6.932-0.837-10.886
			c0.693-1.26,1.268-2.641,2.511-3.349c0.465-1.491,2.174-1.738,2.794-3.07c2.553-0.982,4.549-2.52,6.978-3.628h0.558
			c-0.052-0.239,0.107-0.264,0.278-0.279c4.693-0.227,8.562,0.369,11.724,1.675c0.949,0.911,2.147,1.572,2.791,2.791
			c0.418,0.51,1.205,0.656,1.672,1.117c0.437,0.497,0.77,1.093,1.117,1.675C76.852,67.257,76.077,71.152,74.682,74.632z
			 M70.775,64.026c-1.406,1.851-1.594,4.917-3.91,5.86c-1.098,0.317-1.938-0.841-2.231,0.278c-1.183,0.066-2.208-0.021-2.513-0.836
			c-0.973-1.477,0.729-2.34,0.279-4.186c1.011-1.042,1.109-2.983,2.513-3.627c0.478-0.548,0.653-1.396,1.396-1.676
			c0.219-0.9,1.262-0.971,1.953-1.396c-0.927-0.84-2.634-0.902-4.464-0.836c-1.902-0.042-3.621,0.103-4.746,0.836
			c-3.16,0.467-4.263,2.995-6.697,4.187c-0.712,1.523-1.758,2.707-2.793,3.906c-0.212,1.463-0.934,2.414-1.115,3.907v3.908
			c0.4,0.342,0.529,0.959,0.56,1.674c1.771,2.412,3.718,4.654,7.255,5.302h5.582c1.823-0.722,3.892-1.261,5.58-2.232
			c1.068-0.61,4.417-2.991,4.469-3.905c0.027-0.514,0.537-0.715,0.556-1.116c0.018-0.306,0.215-0.144,0.282-0.28
			c0.559-1.182,0.49-3.21,0.557-5.023c-0.979-2.463-0.68-6.202-2.512-7.812V64.026L70.775,64.026z"/>
	</g>
</g>
</svg>
