<?xml version="1.0" encoding="utf-8"?>
<!-- Generator: Adobe Illustrator 16.0.0, SVG Export Plug-In . SVG Version: 6.00 Build 0)  -->
<!DOCTYPE svg PUBLIC "-//W3C//DTD SVG 1.1//EN" "http://www.w3.org/Graphics/SVG/1.1/DTD/svg11.dtd">
<svg version="1.1" id="Layer_1" xmlns="http://www.w3.org/2000/svg"  x="0px" y="0px"
	 width="120px" height="120px" viewBox="0 0 120 120" enable-background="new 0 0 120 120" xml:space="preserve">
<g id="file-css">
	<g>
		<path d="M98.352,47.066c0.078-1.721,0.722-2.885,0.854-4.558c0.226-4.44-0.056-7.054,0-12.249
			c-0.035-4.427-0.013-8.914-0.854-12.531c-1.791,0.013-3.338,0.273-4.845,0.566c-0.813-0.512-1.647-1.006-3.135-0.853
			c-15.56-0.015-30.666-0.479-46.43-0.286c-0.408,0.162-0.697,0.445-0.856,0.854c-0.659,0.855-1.265,1.772-1.995,2.562
			c-0.532,0.508,0.341,0.835-0.283,1.424c-0.5,0.26-0.877,0.64-1.141,1.141c-1.532,1.506-3.021,3.053-3.983,5.126
			c-1.017,0.509-1.181,1.86-1.998,2.567c-0.804,0.712-0.901,2.133-1.708,2.846c-0.069,1.451-1.23,1.807-1.708,2.849
			c-0.65,0.964-1.862,1.364-1.995,2.849v6.553c0.195,1.703,0.76,3.038,0.854,4.845c-1.023,14.451-0.139,30.812-0.854,45.576
			c0.168,2.396-0.351,5.479,0.286,7.407v1.992c-0.172,0.508,0.835,1.183,0,1.426c-0.447,1.083-0.696,1.812,0,2.847
			c1.265,1.111,3.589,0.285,5.411,0.285c1.604-0.58,3.922-0.447,5.695-0.854c9.256-0.154,15.906,0.407,24.213-0.284
			c7.925-0.823,16.438-0.511,24.787-0.285c2.571,0.357,6.112,0.994,8.542,0.569c0.718-0.513,1.253-1.22,1.428-2.275
			c0.188-1.141,0.854-1.803,1.137-2.853C100.264,84.307,98.816,64.909,98.352,47.066z M43.942,26.559
			c-0.607,0.131-0.543-0.41-0.57-0.854C43.722,25.829,43.957,26.066,43.942,26.559z M41.663,27.696h0.854
			c0.377,1.428,1.371,2.237,2.279,3.136c-0.225,1.172,0.438,1.462,0.287,2.562c-1.338-0.089-1.152-1.695-2.279-1.996
			c-0.413-1.013-1.156-1.693-1.996-2.279C40.976,28.531,41.409,28.201,41.663,27.696z M40.808,33.395
			c0.355,0.877,0.939,1.528,1.709,1.994c-0.259,0.771-1.049-0.242-1.139-0.571c-0.415-0.244-0.904-0.426-0.854-1.14
			c-0.769-0.562-1.364-1.296-1.708-2.279C39.919,31.626,39.896,32.976,40.808,33.395z M36.536,34.25
			c0.688,0.543,0.945,1.523,1.71,1.99c-0.763,0.568-2.515,0.149-3.419,0.572C35.231,35.79,36.058,35.195,36.536,34.25z
			 M92.65,104.893c-1.455,0.129-1.562-1.1-2.849-1.137H83.82c-10.948-1.05-21.32,0.872-32.19,0.852
			c-1.148,0.271,0.363-1.543-0.563-1.991c-1.284-0.146-0.8,1.478-1.429,1.991H45.65c-1.301-0.2-2.889,0.32-3.419,0
			c0.396-1.648,1.763-3.354,1.141-5.129c-1.828-0.311-2.049,0.994-2.849,1.711c-0.229,1.289-1.136,1.904-1.138,3.418
			c-1.217-0.112-2.935,0.275-3.702-0.284c0.224-2.519,2.325-4.386,1.705-6.831c-2.278,0.188-2.656,2.271-3.417,3.982
			c-1.051-0.604-0.439-2.39,0-3.136c0.699-0.721,0.65-2.194,1.426-2.846c0.436-2.415,1.809-3.886,1.991-6.556
			c-0.85-0.705-1.917,0.189-1.991,1.143c-0.589,0.191-0.938,2.08-1.426,1.424v-2.277c0.362-1.256,1.086-2.145,1.712-3.134
			c0.433-2.321,1.503-4.002,1.993-6.267c0.236-2.002,2.033-4.316,0.854-5.984c-1.261-0.115-2,0.283-2.564,0.855
			c-0.688,0.089-1.258,1.753-1.709,1.141c-0.145-11.066,0.506-21.335,0.285-32.475c0.174-1.315-0.639-1.64-0.57-2.848h4.274
			c1.929-0.352,3.828-0.729,6.264-0.571c1.901-0.569,4.263-0.675,5.699-1.708c0.262-0.5,0.097-1.42,0.569-1.71
			c-0.443-2.499-0.652-5.232-1.141-7.691c-0.413-2.528-1.223-4.658-1.424-7.406c2.906-0.172,6.146-1.07,9.115-0.284
			c10.746-0.203,19.887,1.197,30.482,1.141c1.885,0.154,4.146,0.963,5.979,0.285c0.004,1.239,0.095,2.562-0.285,3.422
			c0.543,1.067,0.029,3.194,0.568,4.268c0.455,22.713,0.158,46.181,0.854,68.652C94.113,100.841,94.527,104.016,92.65,104.893z
			 M87.242,59.598c-0.762-0.189-1.452-0.446-1.997-0.852c-2.382-0.009-4.92-0.171-6.267,0.852c-1.563,0.814-3.91,0.838-3.701,3.421
			c0.687,0.967,1.509-1.115,2.274,0c-0.188,2.277,1.08,3.101,0.856,5.414c0.986,1.099,1.251,2.922,1.708,4.557
			c-0.201,2.197,0.299,3.688,2.278,3.703c2.563-1.118,0.91-5.107,0.569-7.405c2.575-0.656,4.511-1.95,5.979-3.706
			c0.103-1.796,0.248-2.273,0-3.984C88.447,60.859,87.71,60.366,87.242,59.598z M81.543,65.58c-0.572-1.039-0.96-2.268-1.137-3.703
			c2.328-0.05,4.732-0.175,5.123,1.712C84.471,64.523,83.218,65.264,81.543,65.58z M59.608,59.598
			c-0.869,0.207-1.037-0.286-1.708-0.282c-0.673,0.374-1.97,0.119-2.563,0.57c-0.896,0.246-1.759,0.517-2.279,1.142
			c-0.688,1.229,0.037,2.309,0.568,3.129c-0.652,0.675-0.102,2.561-0.281,3.705c0.281,1.806,0.717,3.459,0.852,5.412
			c0.725,1.463,0.043,4.326,1.994,4.561c1.852,0.282,2.365-1.482,1.71-2.854c0.068-1.873-0.778-2.83-0.571-4.84
			c1.601-0.49,2.795-1.387,4.277-1.996c0.029-0.728,0.518-0.996,0.85-1.426V62.45C61.648,61.357,60.698,60.409,59.608,59.598z
			 M59.608,65.868c-0.993,0.43-1.77,1.081-3.131,1.139c0.051-1.569-0.447-2.595-1.141-3.418c0.65-0.676,1.73-0.925,3.133-0.854
			C59.083,63.547,59.882,64.17,59.608,65.868z M72.998,62.164c-0.04-0.911,0.279-2.182-0.855-1.992
			c-2.093,0.479-2.131,3.516-1.711,5.696c-0.688,0.354-1.384,0.705-2.279,0.852c-0.502-1.956-0.252-4.681-2.562-4.843
			c-0.877,0.074-0.87,1.027-1.422,1.425c0.419,2.998,1.382,5.458,1.711,8.55c-0.098,2.184-0.254,4.434,2.272,3.986
			c1.861-0.879,0.842-3.827,0.856-5.982c0.899,0.142,1.005-0.516,1.996-0.281c0.453,2.771,0.375,6.078,1.993,7.688
			c1.255,0.121,2.2-0.076,2.848-0.564c0.629-4.477-1.642-8.391-2.279-12.538C73.223,63.648,73.516,62.5,72.998,62.164z"/>
	</g>
</g>
</svg>
