<?xml version="1.0" encoding="utf-8"?>
<!-- Generator: Adobe Illustrator 16.0.0, SVG Export Plug-In . SVG Version: 6.00 Build 0)  -->
<!DOCTYPE svg PUBLIC "-//W3C//DTD SVG 1.1//EN" "http://www.w3.org/Graphics/SVG/1.1/DTD/svg11.dtd">
<svg version="1.1" id="Layer_1" xmlns="http://www.w3.org/2000/svg"  x="0px" y="0px"
	 width="120px" height="120px" viewBox="4 4 120 120" style="enable-background:new 4 4 120 120;" xml:space="preserve">
<g id="image2">
	<g>
		<path d="M111.467,99.596c-0.139-9.092,0.315-18.771-0.296-27.391c-0.292-4.271-1.075-8.055-0.894-12.802
			c0.238-2.407-0.424-4.525,0-6.251c0.41-1.221-0.721-2.431,0-2.977c0.402-1.304,0.037-1.531-0.301-2.679
			c-0.611-0.774-1.32-1.453-2.681-1.489c-0.647-0.738-1.623-1.15-2.377-1.786c-1.896-0.882-3.306-2.252-5.063-3.275
			c-1.453-1.322-3.228-2.326-4.463-3.87c-1.769-1.109-2.99-2.764-5.062-3.573c-1.505-1.276-3.072-2.482-4.762-3.573
			c-1.338-1.444-3.365-2.191-5.063-3.273c-1.646-1.132-3.651-1.906-5.062-3.275c-1.894-0.984-4.244-1.51-5.357-3.275
			c0.029-2.012,0.145-4.111-0.594-5.357c-1.135-0.952-2.162-2.006-4.465-1.788c-0.402,0.096-0.572,0.426-1.191,0.298
			c-2.862,1.803-4.85,4.483-5.659,8.337c-1.613,1.263-3.525,2.228-5.357,3.273c-4.398,4.236-9.522,7.749-14.887,11.016
			c-5.357,3.275-9.999,7.268-15.482,10.421c-1.43,0.604-2.538-0.318-3.868,0.297c-1.548,3.119-1.831,7.497-2.084,11.909
			c0.462,16.307,0.328,33.209,0.892,49.417c-0.355,2.539,0.58,3.789,1.491,5.062c1.241,0.572,1.63,0.468,2.976,0
			c0.774,0.613,2.148,0.631,3.573,0.597c7.948,0.687,17.162,0.104,25.602,0.297c1.557-0.229,3.083-0.487,4.763-0.596
			c2.646,0.335,5.614,0.342,8.633,0.299c1.329,0.257,2.438,0.737,3.868,0.894c2.766-0.183,4.932,0.231,7.442,0.297
			c4.305-0.266,8.257-0.877,12.803-0.894c4.243,0.425,9.043,0.285,13.694,0.298c2.316-0.859,5.422-0.929,8.039-1.488
			c0.236-1.266,0.5-2.658,0.597-4.168c0.101-1.58-0.075-3.18,0-4.764C111.07,102.372,111.339,101.057,111.467,99.596z
			 M61.154,18.322c0.565-0.661,1.327-1.683,2.383-2.085c0.389-0.146,1.316-0.368,1.787-0.295c0.049,0.005,1.182,0.642,1.486,0.891
			c0.389,0.314,0.619,0.851,0.895,1.191v2.679c-0.789,1.421-2.87,2.685-4.763,2.085c0.066,0.022-0.565-0.279-0.594-0.297
			C61.237,21.709,61.046,20.552,61.154,18.322z M36.445,40.649c2.751-1.714,5.507-3.425,8.336-5.061
			c2.659-1.807,5.188-3.742,7.742-5.658c2.013-2.452,5.154-3.776,8.039-5.357c1.598,0.387,2.869,1.1,5.058,0.893
			c1.69-0.199,2.442-1.334,3.276-2.381c0.254-0.054,0.281,0.116,0.297,0.297c2.361,2.305,4.765,4.563,8.039,5.955
			c3.303,1.26,5.857,3.27,8.635,5.061c2.773,1.791,5.482,3.647,8.037,5.655c2.148,2.418,5.176,3.957,8.037,5.657
			c-0.414,0.68-2.073,0.112-2.977,0.298h-8.934c-3.75-0.517-8.338-0.195-11.908-0.893c-5.672,0.321-10.867-0.429-16.669,0
			c-3.017,0.222-8.298-0.207-12.206,0.297c-1.093-0.194-1.145,0.646-2.083,0.596H28.109C30.812,44.145,33.822,42.589,36.445,40.649z
			 M23.048,48.985c7.688,0.65,16.541,0.132,24.711,0.297c5.216-0.489,11.444-1.386,16.97-0.594
			c6.317-0.025,11.111-0.09,16.373,0.594c5.021-1.229,12.518,0.017,17.266-1.488c2.043-0.056,3.73,0.24,4.467,1.488h2.381
			c1.217-0.14,0.045,0.801-0.295,0.894c-0.527,0.268-0.872,0.719-1.49,0.894c-0.664,0.822-1.869,1.107-2.38,2.083
			c-1.147-0.24-1.448-1.329-2.979-1.19c-22.598-0.271-43.724,0.931-65.792,1.19c-1.347,0.538-3.858-0.087-4.764,0.893
			c-1.472-0.214-1.405-1.969-2.379-2.678c-0.511-0.383-1.171-0.616-1.193-1.488C23.36,50.019,22.418,49.076,23.048,48.985z
			 M97.475,102.869c-9.752,0.977-19.127-0.615-29.177-0.299c-6.072-0.672-12.07-1.424-19.05-1.189
			c-6.143,0.506-12.188,1.109-19.055,0.895c0.149-4.416-0.401-8.133-0.894-11.909V72.801c0-5.717-0.349-11.474,0-16.67
			c-0.022-0.422-0.045-0.844,0.297-0.895c22.397,1.062,44.497-0.002,68.177,0.3c0.019,8.005,0.668,15.989,0,23.815
			C97.025,87.201,97.898,94.893,97.475,102.869z M20.667,50.771c-0.056,0.337-0.3,0.164-0.296,0
			C20.425,50.434,20.67,50.607,20.667,50.771z M21.561,107.037c-0.856,0.035-0.518,1.27-1.49,1.191
			c-0.406-1.975-0.293-4.47-0.297-6.849c0.503-0.927-0.084-3.002,0.597-3.871c0.165-0.209,0.608-0.2,0.596-0.595
			c0.14-1.134-1.38-0.605-0.896-2.084c0.54-14.146,0.163-29.21,1.192-42.869c0.25-0.055,0.281,0.116,0.297,0.298
			c0.954,0.533,1.017,1.96,1.788,2.679c0.236,1.25,1.593,1.382,1.787,2.678c-1.184,0.902-0.208,3.963-0.895,5.359
			c-0.037,8.529-0.432,16.056,0,24.414c0.735,4.62,0.989,9.728,0.895,15.18c-0.145,1.646-1.512,2.062-2.383,2.979
			C22.551,106.24,21.762,106.346,21.561,107.037z M87.951,110.312c-4.672,0.871-9.646,1.006-14.891,0.596
			c-5.117-0.402-10.369-0.225-15.477,0c-2.996,0.132-5.842-0.4-8.636,0c-1.365,0.273-1.439-0.744-2.678-0.596
			c-7.582,0.256-15.577,0.1-22.922,0.596c0.491-1.395,1.663-2.105,2.382-3.275c1.135-0.648,1.625-1.947,2.977-2.381
			c2.294,0.283,4.529,0.628,6.848,0.893c5.072-0.201,10.405-0.297,15.774-0.297c5.41,0,10.671,0.079,15.481,0
			c4.899-0.543,10.334-0.299,15.779-0.299c5.355,0,10.661,0.229,15.48-0.297c0.166-0.43,0.462-0.729,0.894-0.893
			c0.238,0.055,0.297,0.297,0.595,0.295c1.063,0.92,2.147,1.824,2.979,2.979c0.688,0.315,1.031,0.939,1.488,1.489
			c0.391,0.469,1.107,1.046,1.188,1.786C100.18,109.99,93.811,110.404,87.951,110.312z M107.6,98.105
			c-0.41,2.565-0.488,5.471-0.896,8.039c0.052,1.303-1.005-0.279-1.19-0.597c-0.871-0.021-1.104-0.68-1.488-1.188
			c-1.321-0.467-2.254-1.318-3.275-2.086c0.184-4.578,0.205-9.323,0.6-13.695c-0.346-8.748-1.314-19.495,0-27.982
			c-0.025-1.268-0.498-2.083-0.299-3.573c0.305-1.282,1.508-1.667,2.678-2.083c0.562-1.025,1.824-1.351,2.68-2.085
			c0.266-0.131,0.531-0.261,0.595-0.594c0.251-0.056,0.286,0.115,0.296,0.297c0.403,5.433-1.023,11.782,0.303,16.969v28.578H107.6z
			 M41.21,72.504c0.238,1.447,1.583,1.791,2.381,2.678c1.461,0.41,3.598,0.41,5.061,0c2.262-1.178,4.123-5.012,3.276-8.631
			c-0.012-0.051-0.242-0.082-0.3-0.299c-0.224-0.893-0.52-0.627-0.595-1.488c-1.596-1.58-3.952-2.401-7.442-2.083
			c-0.183,0.015-0.353,0.043-0.298,0.296H42.7c-0.926,0.466-1.563,1.218-2.383,1.787c-0.563,1.424-1.314,2.657-1.192,4.764
			C39.534,70.805,40.097,71.928,41.21,72.504z M47.76,65.657c1.225,0.782,2.063,1.946,2.083,3.274
			c0.019,1.155-0.558,1.75-1.191,2.381c-0.196,0.195-0.372,0.761-0.594,0.893c-1.16,0.688-3.126,0.76-4.466,0.299
			c-0.47-0.82-0.83-1.75-1.191-2.68C42.433,66.682,44.012,65.086,47.76,65.657z M93.904,92.451
			c-0.588-0.506-0.803-1.385-0.895-2.383c-2.81-2.748-3.97-7.146-7.145-9.526c-1.042-1.737-2.465-3.094-3.574-4.765
			c-1.236-1.539-1.214-4.344-3.869-4.465h-0.3c-0.438,0.153-0.748,0.44-1.188,0.597c-1.597,1.774-2.834,3.911-4.168,5.954
			c-1.578,1.896-2.662,4.285-4.469,5.953c-1.417-0.963-2.197-2.562-4.165-2.978c-1.782-0.188-4.132,0.14-4.764,0.297
			c-0.382,0.097-0.631,0.23-0.892,0.3c-0.761,0.188-0.793,0.379-1.19,0.596c-0.324,0.172-0.634,0.143-0.896,0.297
			c-2.626,1.553-3.971,3.599-5.061,6.25c-1.137-0.748-1.982-1.786-3.869-1.786c-3.869,0.198-6.118,2.019-8.633,3.573
			c-2.021,2.048-4.618,3.519-5.356,6.849c0.715,0.687,0.453,0.96,0.295,2.083c3.739-0.084,7.515,0.768,11.015,0
			c13.413-0.675,28.793,0.611,40.788-1.488h5.953c0.729-0.561,1.455-1.123,2.68-1.19C93.908,95.422,93.833,94.005,93.904,92.451z
			 M34.36,98.404c-0.262-0.956,0.984-0.41,0.896-1.19c0.956-0.263,0.411,0.979,1.189,0.894
			C36.317,98.771,34.979,98.227,34.36,98.404z M38.233,96.915c-1.124-0.312-0.873-1.347-0.299-2.084
			C38.601,94.959,38.056,96.3,38.233,96.915z M41.21,93.046c0.299-0.004,0.217-0.371,0.295-0.595
			c0.189-0.539,0.304-0.52,0.598-0.895c0.346-0.048,0.529,0.063,0.596,0.299c-0.159,2.143,0.087,3.881,0.594,5.357
			C40.651,97.768,41.27,95.066,41.21,93.046z M45.972,96.915c-0.706-0.187,0.047-1.831-0.592-2.084v-4.763
			c0.907,0.216,0.872-0.514,1.785-0.299C46.158,91.623,46.189,95.146,45.972,96.915z M50.143,96.318
			c-1.326-0.262-0.763-2.412-0.895-3.867c-0.159-0.241-0.312-0.484-0.3-0.895c0.815-0.218,0.599,0.592,1.194,0.594
			C49.194,93.455,50.695,95.508,50.143,96.318z M52.821,94.236v-1.19c0.07-0.921,0.827-1.155,1.188-1.785
			c0.047-0.741-0.153-1.237-0.595-1.489c-0.09-0.688,0.863-0.33,0.895-0.894c0.696,0.075,0.171,1.308,0,1.487v3.275
			c0.23,0.764,0.297,1.688,0.893,2.082C53.976,96.832,53.065,95.094,52.821,94.236z M58.178,94.831
			C59.068,94.893,57.894,96.068,58.178,94.831c-1.479-1.101-1.261-3.897-1.788-5.953c0.052-0.746-0.454-0.931-0.891-1.19
			c0.833-1.054,1.812-1.959,3.273-2.383C57.671,87.895,57.378,91.93,58.178,94.831z M78.123,76.375
			c0.676,0.914,1.508,1.671,1.787,2.977c-1.85,0.633-2.83,2.133-3.869,3.572c-0.678-0.217-0.891-0.896-1.191-1.488
			C75.684,79.49,77.139,78.166,78.123,76.375z M78.423,92.15c-0.905,0.016-1.159-0.627-1.784-0.891
			c0.45-0.838,1.409-1.172,1.188-2.683c0.535-0.034,0.629,0.366,1.193,0.3C79.05,90.199,78.184,90.625,78.423,92.15z M73.061,83.221
			c0.592,1.098,1.619,1.76,1.494,3.571c-0.589-0.205-0.796-0.792-0.895-1.487C73.359,84.674,72.34,83.979,73.061,83.221z
			 M72.172,88.281c0.348,0.051,0.32,0.471,0.299,0.893c0.889,0.061-0.285,1.238,0,0C72.123,89.125,72.146,88.705,72.172,88.281
			c-0.646,0.053-0.135-1.055-0.297-1.489C72.52,86.742,72.008,87.85,72.172,88.281z M71.575,85.008
			c0.249-0.945,0.392,0.527,0.3,0.893C71.626,86.846,71.479,85.373,71.575,85.008z M82.591,95.129
			c-5.938,1.307-13.698,0.794-20.841,0.895c0.615-0.834-0.375-2.047-0.595-2.978c0.387-2.619-0.676-5.21,0-7.146
			c0.343-0.873-1.428-1.106-0.593-1.49c2.863-0.482,3.877,0.887,4.763,2.382c0.174,1.269-0.216,1.97-0.298,2.979
			c0.425,2.354,0.104,5.449,2.679,5.656c2.685-0.795,0.558-4.174,0.593-6.55c1.004-0.108,0.499,1.29,0.895,1.785
			c0.285,0.608,0.609,1.179,0.895,1.788c0.653,0.835,1.189,1.788,2.68,1.785c0.955-0.039,1.312-0.676,1.191-1.785
			c-0.359,0.029-0.186-0.436,0,0c1.074,0.713,1.691,1.881,3.275,2.082c0.936,0.141,1.217-0.371,1.488-0.893
			c0.965,0.174,1.385-0.203,2.084-0.298c0.25-0.741,0.389-1.596,0.297-2.681c0.442-0.45,0.479-1.307,0.597-2.085
			c0.407-0.414,0.641-1.468,0.298-1.786c-0.387-0.831-1.419,0.139-1.491,0.6c-0.886-0.008-1.01-0.775-1.784-0.896
			c0.396-2.187,1.396-3.769,2.086-5.656c0.969-0.08,0.631,1.154,1.485,1.191c-0.052,1.045,1.009,0.977,1.19,1.786
			c0.922,1.062,1.902,2.068,2.384,3.572c-2.671,0.106-2.694,2.863-3.87,4.465v2.084C81.908,94.463,83.396,94.861,82.591,95.129z
			 M87.354,94.533c-0.127,0.665-1.469,0.121-2.084,0.298c0.732-0.896,0.383-1.329,0.299-2.681c0.24-1.242,0.58-2.396,0.595-3.869
			c0.916,0.473,0.938,1.84,1.789,2.382C87.307,91.322,86.55,93.421,87.354,94.533z M90.629,94.831h-1.488v-2.084
			c0.955-0.263,0.408,0.981,1.189,0.894C90.498,94.248,91.227,94.225,90.629,94.831z M63.537,88.281h-0.894
			c-1.726,2.592-0.022,8.686,2.976,6.55c-0.195-0.994-0.926-1.455-1.189-2.38C64.038,91.158,64.345,89.163,63.537,88.281z"/>
	</g>
</g>
</svg>
