<?xml version="1.0" encoding="utf-8"?>
<!-- Generator: Adobe Illustrator 16.0.0, SVG Export Plug-In . SVG Version: 6.00 Build 0)  -->
<!DOCTYPE svg PUBLIC "-//W3C//DTD SVG 1.1//EN" "http://www.w3.org/Graphics/SVG/1.1/DTD/svg11.dtd">
<svg version="1.1" id="Layer_1" xmlns="http://www.w3.org/2000/svg"  x="0px" y="0px"
	 width="120px" height="120px" viewBox="4 4 120 120" style="enable-background:new 4 4 120 120;" xml:space="preserve">
<g id="chart4">
	<g>
		<path d="M23.346,59.745c9.251,0.239,19.43,0.144,28.244,0c0.558-0.008,1.458,0.274,1.998-0.284
			c1.071,0.187,1.813,1.828,3.136,0.856c0.973-0.63,1.98-2.479,1.144-3.995v-5.706c0.553-3.651,0.101-7.348,0-11.125
			c-0.722-1.467-0.853-3.528-1.144-5.422c0.13-5.086-0.834-10.562,0-15.405c-1.334-0.662-0.742-3.251-1.996-3.994
			c-0.973-0.266-1.674-0.8-3.138-0.571c-0.366,0.015-0.396,0.365-0.857,0.284c-5.526,0.842-11.1,1.643-15.12,3.994
			c-4.579,1.886-7.389,5.544-10.84,8.56c-1.397,1.74-3.031,3.247-3.993,5.42c-1.571,1.664-2.147,4.319-3.427,6.276
			c-0.391,1.225-1.475,1.759-1.426,3.424c-0.783,0.832-0.828,2.401-1.141,3.707c-0.592,2.643-0.692,5.777-0.855,8.846
			c0.472,0.288,0.312,1.211,0.57,1.711c0.594,0.167,0.921,0.599,1.426,0.856c0.229,0.533,0.477,1.045,0.572,1.712
			c0.033,0.728,0.051,1.468,0.854,1.427c1.23,0.55,3.006-0.528,4.281-0.856C22.06,60.031,22.755,59.731,23.346,59.745z
			 M23.63,42.342c0.611-0.909,0.629-2.415,1.427-3.138c0.314-1.11,0.789-2.062,1.425-2.853c0.933-2.017,2.59-3.309,3.711-5.136
			c2.551-2.297,5.107-4.592,7.988-6.562c2.795-1.105,5.639-2.158,9.128-2.567c0.464,0.08,0.49-0.27,0.858-0.286
			c0.241-0.051,0.27,0.111,0.286,0.286c2.068,9.72,1.825,21.757,3.993,31.383c-3.898,0.857-9.008,0.502-13.697,0.571
			c-4.479,0.179-8.913,0.405-13.692,0.285C24.259,50.653,23.284,47.158,23.63,42.342z M112.928,49.189
			c-1.052-3.323-2.98-5.766-3.99-9.13c-0.957-1.235-1.431-2.945-2.283-4.279c-0.797-1.489-1.906-2.661-2.57-4.278
			c-3.457-3.58-7.312-6.76-11.98-9.13c-2.041-0.336-3.28-1.474-5.707-1.426c-0.528-0.614-2.098-0.185-2.567-0.856
			c-1.231-0.002-1.812-0.661-3.14-0.571c-0.437-0.511-1.67-0.229-1.711-1.141c-0.446-0.501-1.526-0.374-1.996-0.855h-5.135
			c-2.914,0.508-5.881,0.969-8.847,1.426c-0.101,5.627,0,11.7,0,18.26c0,6.497-0.097,12.933,1.144,18.258
			c-0.531,2.14,0.069,4.868,0.284,7.131c-0.218,1.551,0.352,2.312,0.288,3.71c-0.21,0.871,0.49,0.838,0.284,1.711
			c-0.399,0.82,0.776,1.449,0,1.713c-2.671-0.186-4.597-1.11-7.133-1.428c-9.175-0.432-17.511-1.697-27.39-1.426
			c-0.778,0.208-0.574-0.568-1.141-0.57c0.047,0.617-1.014,0.127-1.427,0.283c-0.753-0.482-1.628-0.843-2.854-0.854
			c-0.79,0.441-1.661,0.81-2.282,1.425c-0.227,1.104-1.766,0.896-1.995,1.997c-0.282,3.886,0.513,8.053,1.138,10.557
			c0.045,0.174-0.059,0.402,0,0.57c0.055,0.15,0.508,0.67,0.572,0.855c0.23,0.68,0.325,1.377,0.572,1.998
			c1.531,3.877,3.73,7.418,5.986,10.27c1.588,2.004,3.33,3.648,5.139,5.422c0.425,0.416,0.701,1.029,1.141,1.426
			c0.512,0.463,1.163,0.686,1.713,1.141c0.196,0.164,0.352,0.396,0.57,0.57c0.893,0.729,1.585,1.275,2.282,1.999
			c1.177,0.246,1.675,1.179,2.851,1.427c0.898,0.53,2.131,0.726,2.855,1.426c1.352,1.595,3.519,2.378,5.422,3.425
			c4.129,1.764,8.97,2.819,14.264,3.424h5.704c7.699-0.862,13.099-4.021,19.113-6.562c0.119-0.359,0.369-0.584,0.857-0.57
			c0.914-0.989,2.07-1.735,3.139-2.566c0.797-1.106,1.832-1.974,2.854-2.854c1.07-0.83,2.023-1.782,2.855-2.853
			c0.748-0.199,0.603-1.299,1.424-1.428c0.174-0.773,1.191-0.709,1.142-1.711c2.05-1.758,3.364-4.243,4.851-6.562
			c1.631-2.174,2.668-4.94,3.995-7.418c0.487-2.557,0.869-5.213,1.427-7.703c0.826-2.311,0.963-5.313,1.426-7.987V54.325
			C113.583,52.719,113.452,50.757,112.928,49.189z M106.081,58.604c0.041,5.369-0.144,10.507-0.856,15.121
			c-0.562,1.627-1.293,3.082-1.425,5.135c-1.666,2.807-3.2,5.744-5.424,7.99c0.265,0.498,0.894,0.629,1.715,0.57
			c-0.096,1.334-1.618,1.234-1.715,2.568c-0.931,0.49-1.347,1.505-2.28,1.996c-0.277,1.148-1.246,1.605-1.996,2.281
			c-0.662,0.67-0.937,1.729-2.283,1.713c0.129-0.98-0.113-1.601-0.287-2.283c-0.268-0.584-0.92-0.791-1.426-1.141
			c-2.692,0.256-2.351,3.543-2.852,5.99c-1.357,0.546-2.559,1.245-3.993,1.712c-0.239-1.567-0.469-3.146-1.998-3.424
			c-2.167,0.308-2.215,2.731-2.282,5.135c-1.602,0.966-3.564,1.57-5.992,1.712c-0.338-1.75,0.166-4.35-1.139-5.135
			c-3.166-0.214-2.429,3.471-3.14,5.706H65c-0.251-2.698,0.673-6.567-0.856-7.985c-2.877,0.547-2.465,4.381-3.141,7.131
			c-1.925-0.262-2.896-1.479-4.564-1.998v-5.99c0.131-1.338,0.748-3.197-0.568-3.709c-2.916-0.348-2.252,2.884-3.424,4.279
			c-0.107,1.32-0.205,2.649-0.572,3.707c-1.003-0.338-2.597-1.25-1.711-2.565c-0.008-2.134,0.014-4.763,0-7.132
			c-0.014-2.35,0.452-4.701-1.141-5.707c-1.948,0.525-1.752,3.193-2.852,4.564c-0.215,2.164-1.201,3.557-1.146,5.991
			c-0.908,0.558-1.697-1.035-2.566-1.428v-6.847c0.134-1.625,0.611-3.153-0.568-3.994c-3.207-0.069-2.953,3.322-3.424,5.99
			c0.012,0.73-0.211,0.351-0.571,0.286c-0.101-0.376-0.503-0.45-0.569-0.855c-0.647-0.21-0.854-0.858-1.142-1.427
			c-0.276-0.932,0.167-2.619,0-4.28c0.096-1.296,1.187-2.783,0-3.708c-2.321-0.135-3.104,1.271-3.423,3.139
			c-0.852-1.24,0.842-2.382,0.569-3.993c0.424-0.434,0.46-1.254,0.571-1.997c0.226-0.533,0.478-1.046,0.568-1.713
			c7.344-0.099,14.044,1.913,21.4,0.854c6.188,0.196,11.092-0.89,16.263-1.71c-0.863-16.447-2.592-32.029-3.996-47.93
			c3.997-0.092,7.411-0.769,11.694-0.571c1.759,0.336,3.19,0.998,5.14,1.142c5.295,2.692,10.159,5.815,13.979,9.985
			c0.641,1.451,1.526,2.659,2.282,3.994c0.807,1.19,1.074,2.92,1.996,3.994c0.828,3.166,2.483,5.504,3.139,8.844
			C106.262,54.6,106.632,57.062,106.081,58.604z"/>
	</g>
</g>
</svg>
