<?xml version="1.0" encoding="utf-8"?>
<!-- Generator: Adobe Illustrator 16.0.0, SVG Export Plug-In . SVG Version: 6.00 Build 0)  -->
<!DOCTYPE svg PUBLIC "-//W3C//DTD SVG 1.1//EN" "http://www.w3.org/Graphics/SVG/1.1/DTD/svg11.dtd">
<svg version="1.1" id="Layer_1" xmlns="http://www.w3.org/2000/svg"  x="0px" y="0px"
	 width="120px" height="120px" viewBox="0 0 120 120" enable-background="new 0 0 120 120" xml:space="preserve">
<g id="pilcrow">
	<g>
		<path d="M86.807,92.102c0.147-3.191-0.625-5.465-0.855-8.272c-0.635-6.214-1.694-11.999-2.282-18.261
			c-0.642-0.123-0.114-1.404-0.287-1.995c-0.671-0.851-0.228-2.813-0.854-3.708c-0.155-2.888-0.651-5.438-1.143-7.988
			c-0.6-5.489-1.6-10.572-1.998-16.264h4.281c0.074-0.586,1.264-0.066,1.143-0.854c0.969,0.209,0.467-1.053,1.142-1.143
			c0.472-3.516-2.113-3.976-4.563-4.564h-9.132c-0.362,0.016-0.394,0.365-0.854,0.283c-6.943,0.475-13.689,1.147-18.83,3.424
			c-1.854,1.383-3.689,2.777-5.42,4.281c-0.59,1.027-1.696,1.541-2.281,2.568c-0.924,0.79-1.317,2.106-2.282,2.852
			c-0.72,2.516-1.597,4.873-1.715,7.988c0.154,2.034,0.747,3.627,1.142,5.42c0.754,0.957,1.454,1.969,1.996,3.141
			c2.277,1.907,4.266,4.104,7.418,5.134c2.477,1.803,6.29,2.27,9.415,3.422c0.395,5.506,1.565,10.229,1.998,15.693
			c0.629,0.035,0.12,1.21,0.286,1.71c0.091,0.671,0.447,1.071,0.287,1.997c0.187,1.333,0.444,2.596,0.567,3.996
			c0.537,0.891,0.638,2.215,1.427,2.85c0.544,0.98,1.414,1.631,3.139,1.43c2.332-0.426,2.783-2.73,2.853-5.422
			c0.039-0.701,0.045-1.375-0.284-1.711c-0.169-0.592,0.353-1.877-0.283-1.998c-0.166-0.5,0.345-1.674-0.285-1.711
			c-0.174-0.592,0.353-1.875-0.286-1.998c-0.363-5.344-1.15-10.26-1.427-15.689c-0.798-10.611-1.412-21.414-3.14-31.098
			c3.104,0.225,7.191-0.535,9.416,0.572c-0.535,17.471,1.865,34.451,4.277,49.924c0.473,2.572,0.772,5.316,1.143,7.99
			c0.688,2.354,1.474,4.609,4.564,4.562c0.887-0.537,1.104-1.748,1.426-2.852c0.395-0.369,0.281-1.236,0.287-2
			C86.494,93.082,87.671,92.451,86.807,92.102z"/>
	</g>
</g>
</svg>
