<?xml version="1.0" encoding="utf-8"?>
<!-- Generator: Adobe Illustrator 16.0.0, SVG Export Plug-In . SVG Version: 6.00 Build 0)  -->
<!DOCTYPE svg PUBLIC "-//W3C//DTD SVG 1.1//EN" "http://www.w3.org/Graphics/SVG/1.1/DTD/svg11.dtd">
<svg version="1.1" id="Layer_1" xmlns="http://www.w3.org/2000/svg"  x="0px" y="0px"
	 width="120px" height="120px" viewBox="4 4 120 120" style="enable-background:new 4 4 120 120;" xml:space="preserve">
<g id="pin">
	<g>
		<path d="M89.8,60.9c0-1.3-0.6-1.9-0.6-3.2c-0.5-0.9-1.2-1.6-2-2.3c-2.2-0.8-4.3,0.2-6.8,0c-2.101-6-3.601-12.6-5.2-19.2v-2.6
			c0.3-0.8-1.101-1.4-0.3-1.6c3-0.4,5.3-1.7,7.1-3.2c0.1-0.2,0-0.6,0.3-0.6c1-2.8,1-8.6-0.3-11c-1.2-1.3-2.6-2.3-4.2-3.2H73
			c-3,1.1-7.3,0.7-10.4,1.6c-4.8-0.2-8.5,0.6-13.3,0.3c-0.6,0.4-1.1,0.8-1.9,1c-0.2,0.7-1.9,0.1-1.6,1.3c-0.9,0.6,0.2,3.2-0.7,3.9
			V27c1.2,1.9,2.5,3.8,4.5,4.9c1-0.1,1.4,0.6,2.6,0.3c0.9,0.2,2.6-0.4,2.9,0.3c-1.6,7.6-4.1,14.3-3.9,23.7c-2-0.3-1.7,1.5-3.6,1.3
			c-0.1,0.7-1.6,0.1-2.3,0.3c-0.1,0.7-1.6,0.1-2.3,0.3c-2,1.4-3.8,3.1-5.5,4.9c0,2.2-0.6,3.8-0.3,6.2c0.4,0.1,0.4,0.5,0.3,1
			c1.2,2,2,4.3,3.9,5.5c3.1,0.6,7.6,0.399,10.4-0.3h3.9c1.1,0.199,3-0.4,3.6,0.3v5.2c0.8,6,1.8,11.8,2.3,18.199
			c0.4,2.9,0.6,6.101,1.6,8.4c0.6,2.9,0.9,6,3.899,6.5c3.5-0.3,2.5-5.1,2.601-8.8c0.6-6,1-13.5,0.3-19.8c0.6-2.9,0.2-7,0.3-10.4
			c4.8,0.1,9.101-0.2,13.3-0.7C85.9,72.9,88.7,72,90.1,69.8c0.2-0.6,0.2-1.3,0.7-1.6C90.8,65.4,90.9,62.6,89.8,60.9z M49.3,21.3
			c0.3-0.3,0.1-1.2,1-1C49.9,20.7,50.1,21.5,49.3,21.3z M54.4,27.2c-0.5-0.5-0.3-1.7-0.3-2.6c0.1-1.1-1-1-1.3-1.6
			c0-1.5,1.5-1.5,1.6-2.9c8,0.4,14.1-1,22.1-0.7c1.3,1.2,1.4,3.6,1.3,6.2c-1.3,0.5-2.899,0.8-4.2,1.3c-1.1,0-1.5-0.9-2.6-1
			C65.5,26.1,59.9,27.9,54.4,27.2z M70,51.8c-2.7,0-3.3,2.1-4.5,3.6c-1-0.7,0.6-1.5,0.6-2.3c0.5-0.8,1.101-1.5,1.301-2.6
			c-0.2-1.2-1.9-1.1-2.9-0.6c0.2-1.7,2-1.9,1.9-3.9c-0.101-1.7-1.9-1.7-3.9-1.6c0.2-1.8,2.4-3.1,1.3-5.2c-2.6,0.1-3.4,2-4.9,3.2
			c0,0.4-0.5,0.2,0,0c0.6-2.1,2.1-3.4,2.9-5.2c-1.5,0.1-1.8,1.4-3.2,1.6c0.3-1.7,0.2-3.9,1-5.2c4-0.4,8.6-0.2,12.3-1
			C70.1,40.6,72.3,49,74.2,55.3H69C69.5,54.4,70.2,53.5,70,51.8z M47.3,62.9c0.6,0.9-1,2.5-1,3.9C45.6,65.8,46.5,63.5,47.3,62.9z
			 M65.8,87.9c-0.5-0.7-0.6-1.801-0.6-2.9c-0.3-0.7-0.2-2-0.7-2.6c-0.2-2-0.7-3.601-1.3-5.2v-2H66.1C66.3,79.7,66.1,83.8,65.8,87.9z
			 M85.3,67.1C77.8,67.2,70.7,67.6,62.9,67.4c-0.3-1.101,0.6-1.4,0-1.9c-1.6,0-1.7,1.5-2.6,2.3c-0.8,0-1,0.601-2,0.3
			c0.1,0.9-1.8-0.3-1.6,0.601c-1.1-1.4,0.8-4-0.3-5.5c-1.9,0-2,1.7-2.9,2.6c-0.2,0.9-0.1,2-0.7,2.601c0.2,1.3-1,1.1-1.9,1.3
			c-0.4-2.601,1.8-4.9,0.3-6.5c-2.2,0.4-2.5,2.5-2.9,3.899c-0.2,0.5-0.1,1.801-1,1.601c0.4-2.9,1.9-4.6,2.3-7.5h-1
			c0,0.4-0.5,0.2,0,0c0.1-0.4,0.4-0.5,0.6-0.7c4-0.6,8.2-0.3,12.7-0.3h13c1.3,0,1.6,1,2.899,1c1.5,0.2,1.9-0.7,2.9-1h3.6
			C84.6,62.6,85.6,64.1,85.3,67.1z"/>
	</g>
</g>
</svg>
