<?xml version="1.0" encoding="utf-8"?>
<!-- Generator: Adobe Illustrator 17.0.0, SVG Export Plug-In . SVG Version: 6.00 Build 0)  -->
<!DOCTYPE svg PUBLIC "-//W3C//DTD SVG 1.1//EN" "http://www.w3.org/Graphics/SVG/1.1/DTD/svg11.dtd">
<svg version="1.1" id="Layer_1" xmlns="http://www.w3.org/2000/svg"  x="0px" y="0px"
	 width="120px" height="120px" viewBox="0 0 120 120" enable-background="new 0 0 120 120" xml:space="preserve">
<g id="pipe">
	<g>
		<path d="M26.619,46.397c-0.426,1.747-2.156,2.193-1.954,4.568c0.542,0.654,0.873,1.519,1.954,1.632
			c1.849,0.322,1.81-1.234,2.94-1.632c0.605-1.023,0.992-2.268,1.627-3.265v-5.22c-0.271-0.377-0.428-0.874-0.325-1.631
			c-0.886-1.643-1.499-3.252-2.281-4.895c-0.725-1.515-1.988-3.08-1.961-5.222c0.699-1.476,2.072-2.278,3.592-2.937
			c0.473-1.274,2.5-1.043,3.262-1.63c0.287-0.222,0.251-0.865,0.653-0.979c-0.022-1.607-1.343-1.922-2.609-2.284
			c-3.616,1.17-6.727,2.846-8.813,5.546c-0.317,1.312-0.399,2.861-0.323,4.568C23.886,37.386,27.058,40.088,26.619,46.397z
			 M35.433,50.314c0.468,0.182,0.798,0.509,0.977,0.979c3.618-0.189,5.39-2.228,6.201-5.224c0.101-3.364-1.689-4.836-1.632-8.157
			c-0.172-1.585,1.388-1.439,1.306-2.936c-0.626-1.124-1.703-1.961-3.264-1.633c-0.089,0.019-0.512,0.604-0.652,0.651
			c-0.195,0.064-0.454-0.049-0.651,0c-0.6,1.468-0.875,3.264-0.979,5.224c0.465,1.926,0.826,3.956,0.979,6.2
			C36.953,47.049,35.145,47.633,35.433,50.314z M12.588,45.745c0.586,1.153,2.049,1.433,2.61,2.611
			c0.479,1.59,0.7,3.429,2.938,3.262c1.377,0.071,1.15-1.461,1.957-1.957c0.39-3.76-1.929-4.813-2.938-7.181
			c0.722-0.475,0.646-1.746,1.633-1.956c0.78-0.415,1.33-1.065,1.305-2.284c-0.396-1.965-3.346-2.539-4.566-1.958
			c-0.158,0.074-0.208,0.523-0.654,0.325c-1.628,1.962-3.363,3.812-2.938,7.832C12.376,44.655,12.541,45.137,12.588,45.745z
			 M117.338,51.294c-2.896-1.515-9.256-1.114-13.053-0.654c-5.874-0.214-10.805,0.509-15.664,1.305
			c-2.604,1.532-5.859,2.406-7.833,4.567c-1.585,0.481-2.335,1.799-3.59,2.613c-1.22,0.844-2.023,2.107-3.263,2.937
			c-3.002,3.956-5.961,7.961-9.788,11.093c-2.9,4.062-6.733,7.19-12.076,8.812c-1.748-0.645-4.871,0.084-5.872-1.306
			c0.163-2.556-0.177-4.611-0.326-6.853c-0.849-2.851-1.584-5.817-2.285-8.812c-0.363-1.483-0.767-2.932-0.979-4.568
			c-0.796-1.165-0.206-2.354-0.98-3.917c-1.289-0.339-1.919-1.34-3.588-1.304c-1.888,0.255-2.79-0.473-4.569-0.327
			c-1.678-0.605-3.585-0.982-5.547-1.305c-5.704-0.049-11.181,0.13-15.338,1.632c-1.404,1.206-2.211,3.007-3.261,4.568
			C9.693,65.377,9.165,69.206,9,74.787c0.332,1.299,0.475,2.787,0.65,4.24c0.577,0.627,0.692,1.701,0.979,2.613
			c0.765,0.541,0.842,1.771,1.307,2.608c1.123,1.489,1.81,3.412,2.612,5.221c1.289,1.539,3.183,2.47,3.916,4.569
			c1.378,1.559,2.718,3.156,3.916,4.895c1.081,0.114,1.415,0.978,1.959,1.631c2.609,1.086,4.595,2.8,7.83,3.265
			c2.812,0.991,7.121,0.491,10.441,0.979c0.42-0.451,1.421-0.322,2.283-0.326c5.328-1.744,9.769-4.371,14.684-6.526
			c4.456-2.612,7.739-6.401,12.073-9.138c5.238-5.857,10.91-11.28,15.338-17.946c2.604-1.533,4.662-3.603,7.505-4.896
			c2.183-0.539,3.86-1.58,6.524-1.63c0.791-0.627,2.625-0.207,3.918-0.327c1.448,0.033,1.914-0.914,3.588-0.651h5.223
			c2.199,0.35,2.883-0.818,4.244-1.306c0-1.091,1.059-1.115,0.979-2.285v-3.265C119.186,54.01,118.256,52.654,117.338,51.294z
			 M18.137,59.125c1.332-0.1-0.054,0.451,0.327,1.304c-0.278,1.041,0.513,1.01,0.654,1.633c5.585-0.571,12.056-0.403,16.964,0.653
			c-0.561,1.067-1.881,1.38-2.609,2.282c-6.512,0.205-10.6-2.017-16.966-1.957c0.031-1.335-0.045-2.568-1.309-2.611
			C15.665,59.479,17.132,59.533,18.137,59.125z M95.473,59.45c-1.478,0.044-2.246,0.798-3.591,0.979
			c-1.479,0.804-2.881,1.686-4.239,2.611c-1.318,0.856-2.365,1.983-3.916,2.608c-2.852,3.022-5.175,6.572-7.832,9.793
			c-2.894,2.979-5.769,5.978-8.483,9.136c-2.798,1.769-5.492,3.644-7.506,6.198c-1.598,0.471-2.43,1.705-3.912,2.285
			c-1.252,0.819-2.746,1.391-3.92,2.283c-2.687,1.336-5.515,2.533-8.483,3.59h-6.526v-2.937c0.083-0.954-0.616-1.127-0.98-1.632
			c-1.711,0.463-1.515,2.839-2.609,3.915c-1.608-0.021-2.714-0.55-3.587-1.306c0.204-3.733,3.945-5.592,2.936-9.464
			c-2.63-0.128-2.899,2.106-4.571,2.938c-0.649,1.413-1.71,2.423-2.28,3.917c-1.329-0.658-2.118-1.936-0.655-2.938
			c0.32-1.423,1.13-2.349,1.634-3.59c0.92-0.815,1.034-2.444,1.957-3.261c0.462-0.979,1.509-2.653,0.654-3.916
			c-2.864,0.154-3.829,2.601-5.875,3.916c-0.304,0.892-1.003,1.392-1.305,2.281c-0.766,0.32-0.543,1.636-1.632,1.634
			c-0.049-1.151-0.936-1.459-0.98-2.61c0.078-1.48,1.236-2.646,1.961-3.915c1.018-1.79,2.723-3.76,3.586-6.202
			c-1.729-0.854-3.312,0.953-4.566,1.635c-0.683,0.403-1.23,0.947-1.63,1.629c-0.684,0.004-1.227,1.779-1.636,0.981
			c0.208-2.432,3.058-3.506,2.285-5.876c-0.591-1.511-2.782-0.869-3.915-0.324v-4.569c5.574,1.062,12.599,0.671,18.929,0.979
			c1.691-0.7,2.981-1.804,4.239-2.936c0.656,0.975,0.683,2.579,0.979,3.917c0.569,1.059,0.408,2.854,0.979,3.912
			c-0.086,2.916,0.01,5.647,0.651,7.832c0.114,0.431,0.573,0.515,0.654,0.979c2.15,2.744,6.602,3.188,11.748,2.937
			c2.354-0.799,4.425-1.881,6.524-2.937c5.386-3.86,9.634-8.856,14.035-13.706c1.864-2.703,4.038-5.096,6.522-7.178
			c2.253-2.317,5.423-3.718,8.157-5.546c1.565-0.068,2.39-0.875,4.246-0.655c0.766-0.104,1.226-0.514,2.283-0.327
			c0.57,0.189,1.915-0.393,1.956,0.327C98.393,59.102,96.32,58.667,95.473,59.45z M103.305,57.817
			c-1.095,0.336-0.508-1.015-0.652-1.631h0.979C103.452,56.662,104.014,57.874,103.305,57.817z"/>
	</g>
</g>
</svg>
