<?xml version="1.0" encoding="utf-8"?>
<!-- Generator: Adobe Illustrator 16.0.0, SVG Export Plug-In . SVG Version: 6.00 Build 0)  -->
<!DOCTYPE svg PUBLIC "-//W3C//DTD SVG 1.1//EN" "http://www.w3.org/Graphics/SVG/1.1/DTD/svg11.dtd">
<svg version="1.1" id="Layer_1" xmlns="http://www.w3.org/2000/svg"  x="0px" y="0px"
	 width="120px" height="120px" viewBox="0 0 120 120" enable-background="new 0 0 120 120" xml:space="preserve">
<g id="plane">
	<g>
		<path d="M117.32,63.047c-0.633-0.705-1.414-1.255-1.719-2.288c-1.811-1.146-3.473-2.441-5.721-3.146
			c-2.098-0.952-4.479-1.623-6.574-2.574c-4.168-1.841-9.779-2.234-14.873-3.145h-4.86c-1.819-0.148-3.089,0.278-4.292,0
			c-1.525-3.62-4.105-6.192-6.006-9.438c-1.945-3.201-3.539-6.76-5.721-9.724c-1.535-3.612-3.709-6.584-5.15-10.296
			c-2.198-2.947-3.071-7.225-6.863-8.58h-1.429c-0.367,0.016-0.394,0.366-0.859,0.286c-2.288,0.38-4.929,0.409-7.149,0.857
			c-2.502,0.261-5.04,0.487-6.005,2.288c-0.709,1.835,0.541,2.961,0.574,4.862c0.394,0.653,0.581,1.515,0.856,2.286
			c0.387,0.665,0.476,1.627,0.857,2.289c1.012,3.088,2.272,5.929,3.433,8.866c0.385,1.616,1.046,2.959,1.428,4.577
			c0.464,0.583,0.224,1.873,0.859,2.287c0.084,0.965,0.143,1.952,0.574,2.574c-0.045,2.046,0.803,3.199,1.145,4.861
			c0.282,0.766,0.587,1.508,0.57,2.574c0.261,0.633,0.635,1.903,0.285,2.288c-5.274,0.254-9.366,1.69-14.297,2.289
			c-0.664-1.244-1.761-2.055-2.574-3.148c-4.171-2.693-7.099-6.628-11.44-9.15c-1.65-0.221-1.421,1.438-3.146,1.142
			c-1.078-0.219-1.369,0.351-2.289,0.288c-2.847-0.108-5.737-0.709-6.865,1.43c0.054,2.235,1.355,3.224,2.577,4.291
			c0.237,0.904,0.834,1.453,1.427,2c0.239,0.907,0.835,1.456,1.432,2.004c0.732,1.557,1.684,2.892,2.858,4.004
			c0.626,1.662,2.441,2.134,2.577,4.291c-2.446,5.563-5.821,10.192-8.868,15.156c-0.232,1.191,0.39,2.389,0,2.859
			c-0.822,0.378-0.587,1.812-0.285,2.574c2.999,1.273,7.675,0.789,11.441,0.57c0.897-0.326,0.693,0.448,1.142,0.571
			c0.242,0.427,0.922,0.413,1.431,0.572c1.122-0.688,2.434-1.188,2.858-2.573c0.719-0.236,0.906-1.003,1.432-1.431
			c0.177-0.775,1.193-0.714,1.144-1.718c0.982-0.924,1.902-1.909,2.574-3.146c1.122-0.782,1.474-2.338,2.858-2.86
			c2.629,0.806,5.706,1.156,8.293,2.002c2.151,0.043,4.469-0.08,5.72,0.858c-1.294,2.231-2.052,4.999-3.432,7.149
			c-0.811,2.81-1.878,5.363-3.143,7.722c-0.73,2.896-2.238,5.008-3.148,7.722c-1.183,2.439-1.99,5.254-2.573,8.295
			c-0.188,1.521,1.308,1.357,1.715,2.285c-0.742,0.672-0.1,2.373,0.288,2.86c2.96,0.68,6.095-0.7,9.438-0.571
			c2.854,0.176,6.836,0.811,8.863-0.57c0.951-0.576,0.309-2.746,0.859-3.72c1.725-2.282,2.838-5.17,4.576-7.435
			c1.146-2.858,3.083-4.926,4.292-7.723c1.903-2.099,3.147-4.858,5.146-6.865c0.567-1.433,1.395-2.61,2.287-3.717
			c0.771-1.324,1.246-2.949,2.859-3.435c3.193,0.431,6.986,0.263,10.583,0.287c1.224-0.396,2.899-0.343,4.004-0.856
			c0.593-0.171,1.879,0.354,2.002-0.287c0.683-0.172,2.073,0.359,2.288-0.283c3.393,0.149,5.58-0.902,8.58-1.146
			c0.873-0.748,2.559-0.684,3.432-1.431c1.375-0.244,2.319-0.922,3.43-1.43c1.808-1.438,3.808-2.679,4.578-5.147
			c0.018-0.176,0.041-0.338,0.285-0.287C118.014,66.74,117.854,64.704,117.32,63.047z M109.023,66.764
			c-4.491,2.182-9.912,3.435-15.156,4.863c-3.557,0.161-6.799,0.637-10.01,1.145c-1.094-0.238-2.295-0.375-3.717-0.289
			c-4.066,1.182-7.656,2.832-12.299,3.436c-0.848,0.775-1.921,1.322-2.291,2.576c2.506-0.217,4.326,0.248,6.291,0.568
			c-0.256,1.646-1.34,2.475-2,3.717c-0.791,1.212-1.455,2.55-2.572,3.436c-0.569,1.336-1.332,2.479-2.287,3.434
			c-0.635,1.367-1.295,2.709-2.287,3.718c-1.075,2.835-2.763,5.055-4.007,7.721c-0.694,1.213-1.407,2.405-2,3.718
			c-0.973,1.028-1.222,2.782-2.001,4.004h-2.29c0.028-1.5,1.083-1.967,1.145-3.432c-0.354-1.124-2.632-0.48-3.147,0
			c-0.396,0.906-0.396,2.525,0,3.432c-1.793-0.172-3.023,0.219-4.576,0.286c0.671-1.425,2.064-2.132,2.003-4.29
			c-2.26-0.599-3.384,2.049-4.576,3.435c-0.096,0-0.191-0.003-0.286,0c0.271,1.188-0.857,0.057,0,0v-0.857
			c0.357-0.598,0.699-1.206,1.144-1.718c0.722-0.229,0.727-1.18,1.143-1.716c0.753-0.197,0.606-1.302,1.431-1.431
			c-0.079-1.127,1.222-0.875,1.144-2.002c1.274-0.634,1.586-2.226,2.857-2.858c0.62-1.076,2.569-2.103,2.003-3.433
			c-1.238-0.848-2.47,0.765-3.716,0.857c-0.018,0.174-0.043,0.338-0.286,0.285c-0.017,0.175-0.045,0.338-0.288,0.287
			c0.029,0.345-0.415,0.177,0,0c0.017-0.176,0.045-0.338,0.288-0.287c0.014-0.174,0.042-0.34,0.286-0.285
			c0.777-1.128,1.958-1.855,2.572-3.146c1.033-0.97,2.305-1.699,2.862-3.146c1.231-0.769,1.916-2.088,2.859-3.146
			c0.756-0.201,0.603-1.305,1.428-1.434c0.563-0.484,1.22-0.876,1.431-1.715c-0.343-0.466-0.343-0.656-1.144-0.855
			c-0.519-0.133-1.758-0.15-2.002,0.283c-1.18,0.346-1.589,1.461-2.573,2.003c-0.017,0.177-0.045,0.339-0.288,0.284
			c0.03,0.348-0.416,0.176,0,0c0.017-0.174,0.042-0.338,0.288-0.284c0.126-1.019,1.034-1.254,1.43-2.003
			c0.528-0.711,0.864-1.613,1.713-2.002c0.509-1.455,2.965-3.207,1.144-5.146c-1.493,0.316-2.231,1.39-2.857,2.574
			c-1.058,0.851-1.788,2.027-2.578,3.146c-0.559-0.308,0.191-1.697,0.575-2c0.036-1.017,0.47-1.629,0.859-2.289
			c0.421-1.674,1.045-3.149,1.713-4.576c-0.652-0.875-2.714-0.338-3.718-0.858H42.103c-1.077-0.256-2.423-0.244-3.432-0.57
			c-1.528-0.163-2.504,0.662-3.717,0c-1.524,0.287-2.014,1.609-3.147,2.285c-0.673,1.14-1.729,1.896-2.289,3.146
			c-1.854,1.864-3.391,4.043-4.861,6.293c-1.669-1.729-5.283-0.364-8.009-0.571c0.28-2.009,1.872-2.705,2.289-4.576
			c1.339-1.041,1.575-3.189,2.86-4.291c0.603-1.685,1.366-3.209,2.289-4.574c0.308-2.075,2.087-2.68,2-5.146
			c-0.048-1.668-1.307-2.127-1.716-3.433c-1.053-0.661-1.402-2.027-2.573-2.573c-0.374-1.343-1.561-1.874-2.002-3.146
			c-0.633-0.226-0.718-1-1.145-1.431c-0.401-0.074-0.327-0.626-0.573-0.856c-0.31-0.067-0.686-0.472-0.285-0.573h5.146
			c1.206,0.131,1.318,1.354,2.289,1.717c0.548,0.787,1.169,1.5,1.717,2.288c1.443,1.227,2.772,2.566,4.291,3.718
			c0.149,0.899,0.5,1.596,0.855,2.289c8.292,1.36,15.777-1.835,24.025-2.289c0.512-0.88-0.825-2.748,0-4.004
			c-2.297-5.711-3.433-12.584-5.436-18.589c-1.098-2.903-2.201-5.806-3.432-8.581c-1.249-2.751-2.79-5.215-4.001-8.006
			c3.708-0.108,6.959-0.669,10.582-0.859c0.906,3.477,2.26,6.51,3.716,9.438c1.519,2.963,3.968,4.998,5.72,7.722
			c1.407,3.073,3.49,5.475,5.15,8.294c0.828,1.365,1.592,2.793,2.572,4.004c0.718,1.572,2.221,2.354,2.574,4.289H72.13
			c0.812,1.477,2.423,2.153,2.288,4.577h13.155c3.81,0.765,7.112,2.036,10.866,2.86c4.145,0.527,7.656,1.688,10.869,3.146
			C109.377,64.255,109.309,65.615,109.023,66.764z M112.745,67.623C113.016,68.811,111.889,67.68,112.745,67.623
			C112.471,66.436,113.6,67.564,112.745,67.623z M66.412,57.042c0.223-0.065,0.564-0.009,0.57-0.287
			C66.762,56.82,66.422,56.763,66.412,57.042z"/>
	</g>
</g>
</svg>
