<?xml version="1.0" encoding="utf-8"?>
<!-- Generator: Adobe Illustrator 16.0.0, SVG Export Plug-In . SVG Version: 6.00 Build 0)  -->
<!DOCTYPE svg PUBLIC "-//W3C//DTD SVG 1.1//EN" "http://www.w3.org/Graphics/SVG/1.1/DTD/svg11.dtd">
<svg version="1.1" id="Layer_1" xmlns="http://www.w3.org/2000/svg"  x="0px" y="0px"
	 width="120px" height="120px" viewBox="0 0 120 120" enable-background="new 0 0 120 120" xml:space="preserve">
<g id="android">
	<g>
		<path d="M38.21,42.079c0.288,0.81,0.752,1.448,1.8,1.5c2.182,0.179,2.279-1.726,2.702-3.302c0.842-1.158,1.451-2.547,2.102-3.899
			c1.586-2.414,3.281-4.722,5.101-6.905c1.77-0.729,2.728-2.274,5.101-2.399c1.662-0.939,4.479-0.724,6.603-1.2h9.304
			c0.354,0.346,1.063,0.339,1.802,0.3c1.301,0.7,2.549,1.452,3.901,2.1c2.041,2.464,3.949,5.057,5.403,8.105
			c1.005,2.295,0.322,6.278,3.599,6.302c3.603-0.307,2.388-6.01,1.201-8.104c-0.256-1.646-1.468-2.334-1.8-3.901
			c-0.838-1.161-1.787-2.215-2.4-3.602c0.705-1.096,1.414-2.187,1.799-3.603v-4.199c-0.354-0.844-0.675-1.726-0.9-2.701
			c-0.779-0.518-0.647-1.952-1.799-2.102c-2.936-1.889-5.076,1.07-6.303,2.401c-0.049,0.851-0.553,1.249-0.6,2.1
			c-0.689,0.312,0.14,2.146-0.602,2.399c-1.104-0.197-2.018-0.581-3.304-0.598c-7.585-0.181-14.882-0.078-20.104,2.1
			c-0.594-0.566-1.288-1.309-1.804-2.1c-0.534-0.826-0.407-2.396-1.799-2.401c-0.982-0.688-2.814-0.152-3.603,0.3
			c-0.863,0.637-2.211,0.791-2.4,2.102c-0.502,0.497-0.241,1.761-0.299,2.699c0.654,2.047,2.46,2.94,3.901,4.202
			c-1.854,2.149-3.209,4.796-4.804,7.203c-0.359,1.64-1.348,2.654-1.5,4.502C37.83,39.698,38.395,41.264,38.21,42.079z
			 M79.025,19.869c0.349-0.049,0.535,0.068,0.602,0.301c0.118,1.42-0.1,2.506-0.303,3.602c-0.926,0.224-0.578-0.822-1.5-0.6
			C77.536,21.384,78.383,20.727,79.025,19.869z M45.111,22.27c0.82,0.982,1.826,1.777,2.103,3.304
			c-1.16-0.24-0.942-1.861-2.103-2.103C45.139,22.651,44.612,22.867,45.111,22.27z M53.814,31.875
			c-1.342,0.758-2.582,1.616-2.998,3.301c-0.166,2.363,0.396,4.002,1.498,5.102c2.359,1.074,5.492,0.348,6.9-1.199
			c0.725-2.371,0.365-5.857-1.197-6.904C56.31,32.384,55.523,31.665,53.814,31.875z M72.723,31.875
			c-1.854,0.248-2.386,1.815-2.699,3.602c0.504,1.892,0.922,3.881,3.599,3.602c1.589-0.516,2.135-2.069,2.702-3.602
			c-0.158-0.841-0.441-1.56-0.6-2.402C74.814,32.588,74.245,31.753,72.723,31.875z M103.335,54.382
			c-0.765-1.236-1.366-2.636-2.103-3.899c-1.03-0.672-1.688-1.713-2.699-2.401c-2.725-0.67-7.477-1.712-9.904,0
			c-0.302-0.597-0.518-1.282-1.199-1.5c-1.258,0.253-1.418-0.584-2.402-0.603c-1.104,0.199-2.019,0.586-3.301,0.603
			c-3.397-0.177-8.021-0.113-11.703,0.3c-11.603,0.598-20.365-1.644-31.514-1.5c-1.15,0.251-2.004,0.797-3.002,1.2
			c-0.09,0.706-1.042,0.559-0.901,1.5c-0.59,0.209,0.076,1.674-0.598,1.802c-1.184-0.921-3.69-0.514-5.702-0.603
			c-1.694,1.009-3.049,2.354-3.303,4.802c-0.514,0.886-0.635,2.166-0.601,3.602c-0.71,0.69,0.112,2.913-0.598,3.602
			c-0.047,5.727-0.473,9.673-0.298,15.906c0.443,0.453,0.479,1.315,0.596,2.102c0.673,0.327,0.529,1.475,1.202,1.801
			c0.526,1.473,1.77,2.232,3.001,3.002h3.001c0.835-0.266,1.825-0.377,2.401-0.902c0.752-0.348,1.004-1.194,2.102-1.198
			c0.047,2.053,0.752,3.446,0.897,5.399c-0.041,2.543-0.022,5.025,0.902,6.604c1.044,1.056,2.798,1.399,5.102,1.199h3.3
			c0.057-0.443,0.727-0.275,1.202-0.3c0.684,0.412,1.127-0.772,1.199,0c-0.797,3.304-0.677,7.526-0.899,11.404
			c0.472,5.586,5.715,9.069,12.004,6.9c3.631-4.059,1.471-13.036,1.799-19.807c1.492,0.08,3.533-0.854,4.803,0V99.7
			c0.533,2.671,0.982,5.42,2.102,7.503c0.893,2.308,2.437,3.968,4.203,5.4c1.438,0.062,2.197,0.805,3.898,0.602
			c0.67-0.23,1.175-0.629,2.102-0.602c3.963-3.738,1.872-13.535,2.4-20.707h3.302c0.044-0.556,1.021-0.185,1.201-0.6
			c0.073-0.529,0.516-0.684,1.2-0.602c1.06-0.141,1.644-0.76,2.399-1.198c1.169-3.032,0.078-7.226-0.3-10.507V54.684
			c1.045-0.955,1.946-2.055,3.604-2.399c1.701,0.095,3.021,0.575,4.502,0.897c0.949,1.278,1.484,2.871,1.801,4.802
			c0.34,2.092,0.205,4.255,0.601,6.304c-0.341,3.358,0.14,5.821,0,10.205c0.007,1.307,0.177,2.776-0.601,3.299
			c-1.717-0.683-2.499-2.306-3.303-3.901c-0.524-0.674-0.713-1.687-1.201-2.397c-0.758-0.443-1.342-1.062-2.398-1.202
			c-1.324,0.376-2.07,1.329-2.701,2.4c0.184,2.814,1.234,4.767,2.701,6.303c0.434,1.064,1.217,1.788,2.102,2.4
			c0.537,0.963,1.822,1.176,2.699,1.801c1.733,0.134,3.076-0.127,4.502-0.299c1.658-1.043,2.599-2.807,3.603-4.504
			C104.449,69.093,104.564,62.173,103.335,54.382z M34.908,73.59c0.048,1.148-1.226,0.977-1.802,1.502
			c-0.47,1.73-0.99,3.41-2.699,3.899c-0.796-0.103-1.013-0.786-1.202-1.499c-0.674-0.225-0.115-1.684-0.298-2.4v-5.104
			c-0.1-2.274-0.386-4.914-0.299-8.703c0.353-2.447,0.337-5.264,0.896-7.503c0.106-0.393,0.528-0.473,0.603-0.897
			c1.04,0.16,2.846-0.448,2.999,0.6c0.515-0.066,0.778,0.51,0.902,0c0.513,0.062,0.776-0.514,0.899,0L34.908,73.59L34.908,73.59z
			 M56.516,109.002c-6.077,1.152-4.007-8.512-4.802-13.805v-0.899h4.503c-0.033,2.734,0.213,5.188,0.601,7.503v3.899
			C56.627,106.713,57.201,108.488,56.516,109.002z M75.424,108.104c-3.381-1.72-3.766-6.438-4.503-10.808v-4.799
			c1.62-0.181,2.985-0.618,4.804-0.603C75.574,97.248,76.055,103.232,75.424,108.104z M83.827,86.494
			c-5.278,0.083-10.083-0.004-15.306,1.201h-3.301c-1.164,0.16-1.238-0.766-2.104-0.9c-0.123,0.676-1.646-0.043-1.502,0.9
			c-0.354,0.445-1.134,0.468-1.498,0.899c-1.488,0.017-2.647,0.354-3.902,0.601c0.229-2.573,1.52-4.079,1.801-6.604
			c-2.248-0.774-3.395,1.687-4.502,3.002c-0.287,1.413-0.998,2.401-1.201,3.903c-1.533-0.238-2.181,0.42-3.602,0.299
			c0.276-1.729,0.863-3.145,1.5-4.502c0.123-1.686,1.8-2.71,0.902-4.504c-0.232-0.064-0.594-0.006-0.601-0.298
			c-2.107-0.203-2.331,1.472-3.604,2.1c-0.288,1.272-1.306,2.829-1.497,3.603c-0.1,0.388-0.234,0.637-0.303,0.899
			c-0.097,0.388-0.232,0.638-0.298,0.901c-0.163,0.648-0.185,1.248-0.603,1.502c0.327,1.591-0.91,0.354,0,0
			c0.093-2.311,1.285-3.52,1.502-5.703c0.271-0.676,0.658-1.742,0.599-2.701c-0.072-1.227-0.284-1.951-1.2-2.4
			c-2.186,0.214-2.814,1.988-3.602,3.602c-0.668-0.307,0.394-1.379,0-2.398c0.412-0.593,0.289-1.715,0.6-2.4
			c0.26-1.521,1.385-3.516,0.603-5.104c-1.178-0.177-0.767,1.235-1.501,1.502c-0.04,1.059-0.859,1.344-0.901,2.4
			c-0.813-0.736,0.329-2.059,0.304-3.002c0.323-1.074,0.465-2.332,0.896-3.302c0.279-2.166,1.812-4.53,0.902-6.901
			c-1.513-0.015-0.849,2.151-1.5,3c-0.062,1.541-0.793,2.407-0.902,3.901c-0.836,0.136,0.235-1.636-0.6-1.5v-6.604
			c0.362-1.136,0.985-2.013,1.203-3.299c-0.318-3.086-0.746-6.059-2.104-8.104c0.225-0.678,1.682-0.117,2.402-0.302h2.699
			c4.849,0.752,10.021,1.181,15.006,1.802h12.604c0.854,0.248,0.78-0.424,1.504-0.3c4.352,0.051,8.077,0.002,11.401-0.3
			C82.896,62.037,82.203,75.676,83.827,86.494z"/>
	</g>
</g>
</svg>
