<?xml version="1.0" encoding="utf-8"?>
<!-- Generator: Adobe Illustrator 16.0.0, SVG Export Plug-In . SVG Version: 6.00 Build 0)  -->
<!DOCTYPE svg PUBLIC "-//W3C//DTD SVG 1.1//EN" "http://www.w3.org/Graphics/SVG/1.1/DTD/svg11.dtd">
<svg version="1.1" id="Layer_1" xmlns="http://www.w3.org/2000/svg"  x="0px" y="0px"
	 width="120px" height="120px" viewBox="0 0 120 120" enable-background="new 0 0 120 120" xml:space="preserve">
<g id="windows">
	<g>
		<path d="M105.891,38.99c0.152-1.828-0.406-2.945-1.771-3.258c-0.727-0.801-2.312,0.039-2.961,0.297
			c-1.219,0.164-1.909,0.85-3.251,0.888c-4.435-0.101-9.339,0.261-13.316-0.295c-3.118-1.616-5.513-3.958-8.284-5.918
			c-3.052-1.687-5.244-4.225-8.58-5.622c-4.01-0.926-7.812-2.055-13.021-1.777c-1.364,0.315-2.534,0.823-3.849,1.184
			c-3.188-0.032-6.003,0.31-8.581,0.889c-2.775,0.379-5.219,1.093-6.804,2.663C33.786,37.6,31.09,46.145,28.96,55.264
			c-0.615,0.075-0.082,1.3-0.592,1.479c0.007,0.697-0.51,0.871-0.295,1.775c-0.521,0.859-0.675,2.087-0.888,3.255
			c-0.614,0.074-0.081,1.301-0.593,1.479c0.008,0.697-0.511,0.872-0.296,1.776c-0.64,0.839-0.545,2.414-1.181,3.253
			c-1.054,4.672-2.326,9.118-3.26,13.907c0.12,1.398-0.091,2.471-0.293,3.55c-0.322,1.604,0.704,1.862,0.887,2.96
			c-0.628,0.755-0.494,2.267-0.887,3.257c-0.268,1.646,0.647,2.112,1.185,2.957c3.584,0.429,4.414-1.899,6.805-2.663
			c2.882-0.766,5.293-2.007,8.875-2.072c2.742,0.586,5.259,1.898,7.991,2.664c1.356,0.383,2.948,0.988,4.438,0.594
			c1.456,2.095,4.001,3.101,5.921,4.733c1.746,1.802,4.09,3.007,6.213,4.438c4.06,1.064,8.138,2.119,13.609,1.773
			c1.278-0.344,2.588-0.863,3.551-1.183c0.258-0.085,0.754-0.289,0.889-0.298c0.318-0.018,0.16-0.234,0.297-0.297
			c1.414-0.623,3.171-1.244,3.85-2.069c0.074-0.097,0.481,0.071,0.59,0c0.166-0.112,0.404-0.438,0.591-0.593
			c1.331-1.086,2.497-2.211,3.553-3.256c2.386-2.367,4.586-4.889,6.212-7.691c3.438-15.205,7.832-29.451,10.355-45.566
			C106.632,41.604,105.665,40.895,105.891,38.99z M35.765,55.263c0.342-0.349,0.336-1.046,0.295-1.774
			c0.557-0.729,0.539-2.028,0.889-2.96c0.458-2.106,0.864-4.267,1.479-6.213c0.793-4.437,1.427-9.03,2.367-13.316
			c4.773-0.554,10.46-0.194,15.687-0.295c5.428,0.882,9.573,3.048,13.313,5.622c-2.691,5.987-4.632,12.728-5.917,20.119
			c-2.065-0.796-3.891-1.83-6.217-2.368H45.53c-3.74,0.403-7.13,1.157-9.766,2.665C34.897,56.49,36.15,55.997,35.765,55.263z
			 M55.592,81.895c-0.467,2.396-1.886,3.836-2.665,5.92c-1.899-0.373-2.979-1.561-4.734-2.074c-1.453-0.812-3.357-1.18-5.03-1.773
			c-5.685-0.062-11.46-0.217-15.09,1.773c-0.804-0.727,0.034-2.312,0.295-2.957c0.157-1.124,0.927-1.643,0.89-2.959
			c0.772-1.691,1.16-3.772,1.774-5.622c1.05-3.981,2.201-7.858,2.958-12.132c3.36-1.569,6.904-2.96,11.245-3.551
			c4.073-0.229,7.246,0.449,11.246,0.296c0.298,0.49,1.255,0.321,1.772,0.592c0.253,0.438,0.745,0.636,1.479,0.591
			c0.688,0.793,1.93,1.031,2.368,2.072c-0.742,5.08-2.466,9.175-3.848,13.611C57.36,77.748,56.821,80.164,55.592,81.895z
			 M93.465,73.312c-0.438,1.334-0.538,3.012-1.186,4.143c-0.301,2.257-0.916,4.32-1.479,6.511c-0.139,0.548-0.167,1.33-0.589,1.773
			c-0.175,0.963,0.199,1.378,0.293,2.075c-0.574,1.492-1.893,2.248-2.96,3.252c-1.106,0.961-2.096,2.047-3.255,2.959
			c-2.062,2.084-4.914,3.371-7.986,4.438c-4.74,0.534-8.932-0.812-12.724-2.07c-2.183-1.966-4.167-4.119-6.805-5.621
			c4.207-7.037,6.998-15.488,9.468-24.265c1.763,0.751,3.74,2.088,5.915,2.959c2.008,0.806,4.12,1.476,6.513,2.072
			c3.512-0.136,7.604,0.305,10.65-0.297c1.906-0.56,3.473-1.459,5.324-2.07C94.096,70.393,94.018,72.09,93.465,73.312z
			 M101.455,44.315c-0.505,0.581-0.338,1.829-0.889,2.366c-0.445,1.724-0.707,3.632-1.479,5.031
			c-0.719,3.618-1.812,6.869-2.664,10.354c-3.138,0.906-5.562,2.525-8.577,3.552c-3.531,0.243-4.759,0.108-8.586,0
			c-4.525-0.997-8.3-2.747-11.24-5.327c1.361-7.218,3.354-13.809,4.731-21.008c0.265-0.183,0.53-0.356,0.597,0
			c1.567,1.39,3.118,2.796,4.733,4.144c0.821,0.359,1.756,0.607,2.366,1.184c0.468,0.024,1.129-0.144,1.182,0.294
			c7.768,0.073,15.523,0.136,20.122-2.959C102.4,42.334,101.4,43.548,101.455,44.315z"/>
	</g>
</g>
</svg>
