<?xml version="1.0" encoding="utf-8"?>
<!-- Generator: Adobe Illustrator 16.0.0, SVG Export Plug-In . SVG Version: 6.00 Build 0)  -->
<!DOCTYPE svg PUBLIC "-//W3C//DTD SVG 1.1//EN" "http://www.w3.org/Graphics/SVG/1.1/DTD/svg11.dtd">
<svg version="1.1" id="Layer_1" xmlns="http://www.w3.org/2000/svg"  x="0px" y="0px"
	 width="120px" height="120px" viewBox="0 0 120 120" enable-background="new 0 0 120 120" xml:space="preserve">
<g id="apple-logo">
	<g>
		<path d="M63.501,40.535c0.188,0.191,0.548,0.217,0.569,0.57c0.593-0.168,1.875,0.354,1.998-0.284
			c0.697-0.16,0.607-1.105,1.715-0.857h2.852c1.512-0.772,3.301-1.266,4.564-2.281c1.429-0.854,2.422-2.145,3.709-3.139
			c0.672-1.421,1.482-2.7,2.279-3.994c0.174-0.873,0.605-1.485,0.857-2.282c0.484-0.562,0.329-1.765,0.854-2.282
			c0.297-1.628,0.852-3.193,1.146-4.279c0.123-0.458,0.257-0.688,0.284-1.141c0.019-0.327,0.239-0.421,0.282-0.571
			c0.439-1.49,0.697-2.644,0.57-4.279c-0.798-0.534-1.289-1.37-2.568-1.426c-0.334,0.138-0.646,0.304-0.852,0.569
			c-0.783-0.207-0.576,0.567-1.145,0.571c-1.585-0.254-2.113,0.549-3.422,0.57c-2.576,1.516-4.877,3.301-7.131,5.135
			c-3.188,4.041-6.561,7.902-7.707,13.98c-0.043,1.635,0.037,3.216,0.285,4.278C62.758,39.867,63.343,40.371,63.501,40.535z
			 M68.066,32.833c0.754-0.769,0.979-2.063,1.713-2.853c1.082-2.058,2.686-3.592,3.992-5.42c1.047-0.605,2.22-1.732,3.426-2.569
			c0.382-0.267,0.795-0.36,1.14-0.571c0.006-0.002,1.029-1.104,0.856-0.285c-0.746,2.012-1.082,4.434-1.996,6.277
			c-0.549,2.115-1.893,3.434-2.854,5.135c-2.09,1.526-3.688,3.543-6.848,3.994C67.091,35.702,67.887,33.994,68.066,32.833z
			 M105.439,82.76c-1.146-1.426-2.991-2.145-4.853-2.854h-5.133c-0.881-0.354-2.031-0.443-3.14-0.57
			c-0.862-0.54-1.672-0.928-2.569-1.428c-0.396-0.219-0.959-0.251-1.423-0.568c-0.12-0.083-0.174-0.467-0.288-0.572
			c-0.218-0.203-0.615-0.088-0.854-0.285c-1.478-1.207-2.688-2.901-3.422-4.85c-0.168-2.258,0.29-3.891,0.568-5.706
			c1.104-1.271,1.99-2.764,3.425-3.71c0.549-0.688,1.338-1.131,1.994-1.711c0.469-0.77,1.114-1.356,1.998-1.711
			c1.01-1.463,1.958-2.99,3.424-3.994c0.651-0.489,1.442-0.842,1.997-1.427c1.092-0.144,2.214-0.259,2.284-1.427
			c0.646-0.305,0.106-1.793,0.282-2.567c-0.146-0.896-0.498-1.593-0.855-2.283c-0.831-1.257-2.105-2.075-3.137-3.138
			c-2.223-1.014-4.713-1.756-7.704-1.998c-4.634-0.162-8.56,0.384-12.271,1.142c-1.15,0.653-2.404,1.205-3.705,1.712
			c-1.016,0.891-2.511,1.296-3.994,1.712c-0.396,0.653-1.424,0.67-1.715,1.427c-0.992,0.148-0.563,1.715-1.996,1.427
			c-0.742-0.171-0.98-0.661-1.141-0.856c-0.078-0.096-0.475,0.081-0.57,0c-0.354-0.295-0.449-1.23-0.569-1.427
			c-0.454-0.735-1.089-1.046-1.427-1.712c-3.142-1.425-6.304-2.826-10.273-3.424h-7.131c-3.174,0.535-5.716,1.703-8.56,2.568
			c-7.177,4.615-11.019,12.562-12.269,23.108c0.246,3.545-0.152,8.221,0,12.553c1.475,7.279,4.337,13.162,8.276,17.976
			c1.735,2.638,4.331,4.418,6.275,6.847c1.61,0.579,2.274,2.103,3.993,2.567c1.11,1.174,2.734,1.829,4.564,2.282
			c0.85,0.578,1.49,1.365,2.567,1.712c0.514,0.914,1.735,1.118,2.569,1.711h3.425c1.573-0.336,1.981,0.491,3.135,0.569
			c1.452-1.119,3.842-1.295,5.711-1.996c0.6-0.635,1.686-0.784,1.994-1.711c0.969-0.362,1.08-1.582,2.284-1.713
			c1.69,2.586,4.967,3.59,8.271,4.564h7.131c0.34-0.328,1.013-0.32,1.716-0.286c0.548-0.5,1.485-0.604,2.28-0.854
			c0.6-0.545,1.361-0.92,2.283-1.142c0.117-0.358,0.367-0.584,0.854-0.569c2.598-2.918,5.313-5.719,7.991-8.562
			c-0.019-0.489,0.218-0.729,0.569-0.854c0.439-1.557,1.269-2.727,1.712-4.279c1.553-1.68,2.432-4.035,3.707-5.991
			c0.283-1.333,0.858-2.374,1.145-3.708c0.173-0.682-0.361-2.068,0.283-2.281C105.249,83.461,105.938,83.77,105.439,82.76z
			 M91.461,98.734c-1.686,1.549-2.896,3.57-4.852,4.852c-1.301,1.84-3.731,2.541-5.422,3.994c-3.804,0.283-6.826-0.209-9.127-1.426
			c-1.557-1.491-2.526-3.563-4.563-4.566h-1.713c-2.511,0.344-3.356,2.352-5.422,3.141c-1.707,1.049-3.15,2.365-5.135,3.139h-2.854
			c-0.156-2.887,0.557-6.646-1.711-7.418c-1.309,0.021-1.537,1.125-1.996,1.996c-0.612,0.629,0.052,2.521-1.144,2.568
			c-1.069-2.541-0.021-7.205-3.423-7.42c-1.531,0.088-0.34,2.893-1.141,3.711c0.133,1.166-0.768,0.041-0.854-0.285
			c-0.505-0.256-0.834-0.688-1.428-0.855c-0.989-3.881-0.866-9.344-1.14-13.124c-3.66,0.146-2.793,4.815-3.141,8.272
			c-2.412-1.391-1.979-5.627-2.568-8.845v-3.995c-0.094-1.369,0.738-2.391-0.283-3.137c-3.707-0.76-2.813,3.085-3.424,5.42
			c-0.975-1.402-1.192-3.564-1.711-5.42V69.064c0.834-7.248,3.705-12.46,7.416-16.833c1.156-0.556,1.781-1.643,3.14-1.997
			c0.672-1.04,2.104-1.317,3.139-1.997c8.041-0.721,13.2,1.441,17.688,4.279c2.396,0.17,3.681,1.455,6.56,1.143
			c2.45-0.787,3.729-2.742,5.994-3.711c2.069-1.159,4.614-1.851,7.131-2.566c2.922-0.311,6.135-0.332,9.416-0.286
			c1.543,0.265,2.879,0.735,4.28,1.142c0.466,0.568,0.961,0.851,1.425,1.427c0.455,0.566,0.623,1.194,1.144,1.712
			c-0.037,0.63-1.212,0.122-1.714,0.284c-0.87-0.206-0.838,0.492-1.711,0.286c-0.231,0.15-0.463,0.298-0.855,0.285
			c-4.477,2.465-7.719,6.165-11.413,9.415c-0.313,1.207-1.231,1.812-1.426,3.14c-0.545,0.979-0.481,2.562-0.854,3.708v3.709
			c0.239,0.807,0.332,1.762,0.569,2.566c0.757,1.904,2.177,3.152,3.142,4.852c0.914-0.25,0.59,0.738,1.137,0.855
			c0.584,0.082,0.562,0.771,1.146,0.854c0.361,0.874,1.633,0.84,1.994,1.712c3.514,1.718,7.246,3.213,12.555,3.141
			C96.855,91.197,94.035,94.846,91.461,98.734z"/>
	</g>
</g>
</svg>
