<?xml version="1.0" encoding="utf-8"?>
<!-- Generator: Adobe Illustrator 16.0.0, SVG Export Plug-In . SVG Version: 6.00 Build 0)  -->
<!DOCTYPE svg PUBLIC "-//W3C//DTD SVG 1.1//EN" "http://www.w3.org/Graphics/SVG/1.1/DTD/svg11.dtd">
<svg version="1.1" id="Layer_1" xmlns="http://www.w3.org/2000/svg"  x="0px" y="0px"
	 width="120px" height="120px" viewBox="4 4 120 120" style="enable-background:new 4 4 120 120;" xml:space="preserve">
<g id="play">
	<g>
		<path d="M90.244,61.553c-0.721-0.799-1.746-1.295-2.566-1.996c-0.889-0.632-1.688-1.359-2.854-1.713
			c-0.932-0.591-1.711-1.331-2.854-1.711c-1.199-1.176-2.438-2.318-3.709-3.424c-1.166-1.305-2.771-2.173-3.992-3.423
			c-5.834-2.824-11.383-5.926-16.834-9.13c-2.572-1.803-5.537-3.211-7.988-5.137c-1.678-0.509-2.441-1.93-4.278-2.282
			c-1.495-0.787-2.745-1.817-4.853-1.995c-1.238,0.377-1.913,1.318-2.852,1.995c-1.09,4.411-0.434,9.174-0.283,13.981
			c0.153,4.941,0.137,10.176,0,15.119c-0.277,9.963,0.029,19.532,1.994,27.674c-0.214,1.738,0.459,2.589,0.287,4.281
			c-0.104,1.625,0.484,2.556,1.712,2.853c1.028,0.825,2.665-0.18,3.708-0.283c0.695-0.928,1.875-1.359,2.568-2.284
			c1.775-1.363,3.606-2.672,5.42-3.993c1.92-1.219,3.688-2.586,5.705-3.71c0.842-0.776,1.922-1.315,2.855-1.996
			c0.848-0.769,2.148-1.085,2.852-1.999c2.231-0.904,3.934-2.342,5.708-3.707c1.934-1.3,3.42-3.046,5.705-3.996
			c1.744-1.395,4.08-2.191,5.707-3.708c1.711-1.518,4.096-2.368,5.705-3.993c2.221,0.318,3.26-0.545,3.994-1.711
			C91.312,63.53,90.824,62.496,90.244,61.553z M43.171,78.956c-0.631-0.035-0.122-1.21-0.285-1.712
			c-0.172-0.684-0.409-1.301-0.287-2.282c0.664,0.192,0.766,0.949,1.428,1.144C43.851,77.161,43.347,77.896,43.171,78.956z
			 M44.312,89.229v-1.427c0.512-0.036,0.602,0.349,1.142,0.282C45.417,88.812,45.039,89.191,44.312,89.229z M44.027,56.987
			c-0.063,0.223-0.007,0.564-0.286,0.573c-0.2,1.319-0.938,2.103-1.142,3.424c-0.9-1.296,0.112-3.115,1.142-3.424
			C43.804,57.338,43.75,56.996,44.027,56.987c-0.213-1.828,0.334-2.898,0.285-4.563c0.35,0.033,0.676,0.086,0.57,0.57
			c0.338,0.139,0.646,0.306,0.855,0.57C45.328,54.865,44.759,56.01,44.027,56.987z M49.735,47.003
			c-1.083-0.821-0.368-3.439-0.571-5.137c1.021,0.595,1.829,1.403,2.854,1.999C51.749,45.406,50.733,46.198,49.735,47.003z
			 M54.584,45.577c1.232,0.569,2.117,1.494,3.423,1.997c-0.035,0.629-1.212,0.121-1.714,0.284c-0.708,0.527-1.609,0.863-1.994,1.713
			C53.726,48.703,54.388,46.628,54.584,45.577z M54.012,61.553c1.399-4.59,2.525-9.456,5.706-12.267
			c0.842,0.501-0.164,1.521,0,2.282c-0.012,0.938-0.48,1.42-0.285,2.566C57.323,56.307,55.717,58.979,54.012,61.553
			C54.042,61.898,53.595,61.73,54.012,61.553z M54.584,81.811c0.417-1.578,1.353-2.642,1.425-4.565
			c0.08-1.22-0.873-1.411-0.572-2.854c0.545-0.121,0.719-0.611,1.43-0.568c-0.271,1.451-0.271,2.255,0,3.709
			c0.2,1.035,1.459,1.015,1.709,1.998C56.914,79.955,56.183,81.316,54.584,81.811z M59.718,66.118
			c-0.414,1.106-0.764,2.278-1.426,3.14c-0.03,0.73-0.161,1.357-0.572,1.71c0.245,0.582-0.449,1.57-0.568,0.856
			c-0.797,0.458-0.791-1.232-0.285-1.141c-0.207-0.873,0.49-0.841,0.285-1.714c0.769-0.95,0.658-2.071,1.141-3.424
			c0.064-0.18,0.52-0.711,0.567-0.856c0.513-1.533,0.724-3.179,1.428-4.562c0.153-0.229,0.299-0.463,0.287-0.858
			c0.655,0.294,0.917,0.983,1.995,0.858C61.751,62.255,60.722,64.174,59.718,66.118z M66.564,74.105
			c-1.467,0.627-2.461,1.727-3.708,2.567c-0.753-0.771,0.564-1.892,0.285-3.139c0.564-0.675,0.674-1.802,0.855-2.853
			c0.797-1.679,0.917-4.031,1.711-5.705V64.12c0.422,0.147,0.721,0.423,1.141,0.569c-0.381,2.283-1.516,3.807-1.996,5.992
			C64.914,72.332,66.135,72.823,66.564,74.105z M69.99,56.987c0.047,0.334-0.064,0.508-0.287,0.573
			c-0.354,1.737-1.307,2.875-1.713,4.563c-0.33-0.239-0.764-0.376-1.426-0.286c0.16-1.72,1.387-3.321,0.569-5.135
			c-0.936-0.463-1.088,0.063-2.28,0c-0.125-0.352-0.366-0.584-0.856-0.57c-0.438-1.844-0.73-3.836-1.141-5.707
			c3.012,1.555,5.987,3.142,8.842,4.852C71.438,56.154,70.559,56.416,69.99,56.987z M78.832,65.547
			c-0.934-0.494-0.863-1.988-1.711-2.566c-0.807-0.236-0.74,0.401-1.426,0.285c0.1-1.528-0.713-2.143-2.281-1.998
			c0.121-1.304,0.434-2.418,0.283-3.993c2.557,2.2,4.945,4.563,8.273,5.991C81.377,64.478,79.6,64.504,78.832,65.547z"/>
	</g>
</g>
</svg>
