<?xml version="1.0" encoding="utf-8"?>
<!-- Generator: Adobe Illustrator 16.0.0, SVG Export Plug-In . SVG Version: 6.00 Build 0)  -->
<!DOCTYPE svg PUBLIC "-//W3C//DTD SVG 1.1//EN" "http://www.w3.org/Graphics/SVG/1.1/DTD/svg11.dtd">
<svg version="1.1" id="Layer_1" xmlns="http://www.w3.org/2000/svg"  x="0px" y="0px"
	 width="120px" height="120px" viewBox="4 4 120 120" style="enable-background:new 4 4 120 120;" xml:space="preserve">
<g id="plus">
	<g>
		<path d="M98.409,57.313c-1.037-0.685-1.267-2.186-2.739-2.438c-1.413-0.688-3.387,0.385-5.479,0
			c-1.176-0.16-1.481,0.545-2.739,0.307c-0.825,0.188-2.413-0.388-2.739,0.304c-3.958-0.165-9.031,0.266-11.261,0
			c-0.043-4.507-0.038-8.968,0.303-13.087c-0.073-2.309,0.251-4.216,0.611-6.088c0.122-2.096,1.12-3.945,0.305-6.09
			c-1.019-0.604-1.413-1.83-3.348-1.52c-1.904,1.243-5.437,0.856-8.524,0.912c-1.39,0.336-2.936,0.512-3.958,1.217
			c-0.753-0.264-2.36-0.595-3.041,0c-1.142,0.992-1.336,2.925-1.219,5.175C54.383,42.502,54.98,49.8,54.276,55.79
			c-5.843,0.651-12.87,0.117-18.568,0.914c-0.89-0.022-1.129-0.697-1.519-1.219c-0.761-0.256-1.632-0.399-2.741-0.304
			c-1.912,1.029-2.318,3.564-2.129,6.697c-0.428,2.613-0.298,5.792-0.306,8.828c0.563,0.655,0.33,2.104,0.915,2.737
			c0.479,0.837,1.035,1.602,1.827,2.129c1.465,0.562,3.849,0.208,5.781,0.307c1.18,0.161,1.486-0.545,2.738-0.307
			c0.573-0.443,2.019-0.012,2.436-0.606c2.123,0.093,3.548-0.515,5.48-0.61h3.042c0.926,0.191,2.623-0.39,3.044,0.305v21.005
			c0.907,1.124,1.474,2.586,3.042,3.042c3.163,0.693,7.6,0.113,11.262,0.303c1.812-0.363,4.875-0.38,5.785-0.604
			c0.932-0.235,0.748-0.467,1.218-0.917c0.558-0.531,1.267-0.878,1.217-1.823c0.202-1.829-0.464-2.783-1.217-3.655
			c-1.032-0.688-0.788-2.659-1.522-3.651c0.215-5.086-0.318-9.42-0.307-14.305c4.994-0.49,10.703-0.256,16.133-0.306
			c1.383-0.446,3.348-0.306,4.568-0.912c1.182-0.746,3.127-0.728,3.954-1.828C99.971,67.018,97.883,62.218,98.409,57.313z
			 M44.234,65.529c-1.133,0.596-0.275,3.18-2.132,3.043c0.102-2.532,0.88-4.395,1.217-6.693h2.436
			C45.305,63.154,44.347,63.919,44.234,65.529z M50.318,67.661h-1.523c-0.019-2.052,0.718-3.341,0.915-5.173
			c-0.167-0.676,0.581-0.436,0.608-0.914c0.516-0.113,0.574,0.238,0.61,0.607C50.098,63.356,49.673,65.953,50.318,67.661z
			 M61.886,88.055c-0.269,0.744-0.273,1.756-1.216,1.826c1.593-5.713,4.449-10.161,6.086-15.828
			c0.692,0.326,0.114,1.914,0.305,2.737c0.428,1.702,0.228,4.038,0.604,5.784c-0.349-0.254-0.813-0.4-1.519-0.303
			c-1.451,0.781-1.936,2.525-3.043,3.651C62.654,86.589,62.509,87.562,61.886,88.055z M62.492,66.139
			c0.758,0.047,0.09,1.031,0,1.217C61.737,67.311,62.404,66.326,62.492,66.139z M67.975,91.1c-0.529,0.787-2.021,0.614-3.35,0.604
			c0.346-3.201,2.428-4.668,2.74-7.911c0.259-0.058,0.285,0.118,0.3,0.306c-0.319,1.342,0.603,2.354,0,3.043
			C67.874,88.455,68.506,89.924,67.975,91.1z M67.061,48.485c-0.723,1.408-1.346,2.915-2.436,3.955
			c-0.5,0.516-0.66,1.369-1.216,1.827c-0.252,0.767-0.399,1.632-1.523,1.522c0.46-2.788,1.429-5.064,2.131-7.609
			c0.622-2.151,2.5-4.55,1.521-7.306c-1.845,0.085-2.496,1.36-3.046,2.74c-1.041,0.888-1.671,2.184-2.13,3.651
			c-0.919-0.46,0.254-1.336,0-2.128c0.421-0.391,0.188-1.438,0.61-1.829c0.289-1.437,0.665-2.786,0.913-4.259
			c-0.244-1.564-1.775-0.21-2.132-0.611c0.064-0.949-0.205-2.232,0.304-2.738c2.125-0.652,5.7-1.354,8.22-0.609
			C67.527,39.215,67.336,43.891,67.061,48.485z M78.624,66.746c-0.96-0.146-1.075,0.55-2.127,0.309
			c-0.322-2.517-0.181-3.868,0.608-5.786h3.349C79.748,62.932,77.734,64.455,78.624,66.746z M92.02,66.441
			c-1.895,0.035-3.353,0.508-5.479,0.305c0.238-1.354-0.404-1.826-0.303-3.043c-0.719-0.297-0.275-1.756-0.915-2.129
			c1.343-0.991,4.184-0.484,6.392-0.609C91.561,63.048,92.254,64.279,92.02,66.441z"/>
	</g>
</g>
</svg>
