<?xml version="1.0" encoding="utf-8"?>
<!-- Generator: Adobe Illustrator 16.0.0, SVG Export Plug-In . SVG Version: 6.00 Build 0)  -->
<!DOCTYPE svg PUBLIC "-//W3C//DTD SVG 1.1//EN" "http://www.w3.org/Graphics/SVG/1.1/DTD/svg11.dtd">
<svg version="1.1" id="Layer_1" xmlns="http://www.w3.org/2000/svg"  x="0px" y="0px"
	 width="120px" height="120px" viewBox="0 0 120 120" enable-background="new 0 0 120 120" xml:space="preserve">
<g id="file-png">
	<g>
		<path d="M98.354,47.067c0.08-1.722,0.72-2.884,0.853-4.558c0.226-4.442-0.058-7.056,0-12.25
			c-0.037-4.423-0.013-8.913-0.853-12.532c-1.795,0.016-3.338,0.272-4.849,0.57c-0.815-0.515-1.646-1.007-3.131-0.854
			c-15.558-0.018-30.668-0.479-46.432-0.285c-0.412,0.158-0.695,0.44-0.854,0.853c-0.662,0.856-1.267,1.772-1.995,2.562
			c-0.533,0.507,0.34,0.833-0.283,1.426c-0.504,0.257-0.883,0.638-1.142,1.141c-1.534,1.502-3.021,3.054-3.987,5.129
			c-1.01,0.503-1.18,1.855-1.992,2.562c-0.807,0.712-0.903,2.135-1.709,2.849c-0.072,1.447-1.231,1.807-1.709,2.849
			c-0.652,0.963-1.865,1.363-1.992,2.847v6.555c0.195,1.699,0.755,3.037,0.852,4.842c-0.738,12.679-0.571,26.843-0.571,39.881
			c0,4.525-0.728,8.879,0,13.101v1.995c-0.169,0.507,0.836,1.182,0,1.424c-0.442,1.087-0.694,1.812,0,2.85
			c1.262,1.109,3.591,0.281,5.413,0.283c1.605-0.576,3.924-0.445,5.696-0.852c9.257-0.158,15.906,0.406,24.214-0.282
			c7.926-0.827,16.438-0.513,24.783-0.288c2.572,0.354,6.117,0.989,8.546,0.57c0.716-0.52,1.253-1.219,1.423-2.281
			c0.191-1.138,0.855-1.799,1.141-2.849C100.262,84.303,98.816,64.907,98.354,47.067z M43.942,26.56
			c-0.605,0.129-0.544-0.411-0.569-0.855C43.724,25.827,43.96,26.066,43.942,26.56z M41.663,27.695h0.856
			c0.374,1.429,1.368,2.24,2.279,3.136c-0.226,1.173,0.435,1.462,0.283,2.562c-1.335-0.088-1.149-1.695-2.281-1.993
			c-0.411-1.014-1.151-1.692-1.991-2.279C40.978,28.53,41.406,28.201,41.663,27.695z M40.81,33.393
			c0.352,0.88,0.94,1.528,1.71,1.997c-0.259,0.772-1.052-0.239-1.141-0.571c-0.415-0.247-0.902-0.424-0.856-1.139
			c-0.768-0.562-1.361-1.298-1.706-2.28C39.92,31.625,39.897,32.975,40.81,33.393z M36.537,34.25
			c0.686,0.549,0.944,1.521,1.708,1.994c-0.764,0.566-2.512,0.145-3.416,0.566C35.231,35.788,36.06,35.193,36.537,34.25z
			 M92.652,104.893c-1.454,0.129-1.562-1.1-2.851-1.14h-5.979c-10.953-1.043-21.324,0.874-32.19,0.858
			c-1.15,0.266,0.362-1.547-0.567-1.998c-1.281-0.139-0.803,1.478-1.426,1.998h-3.986c-1.303-0.207-2.892,0.318-3.42,0
			c0.393-1.654,1.76-3.359,1.14-5.129c-1.832-0.314-2.048,0.992-2.851,1.709c-0.229,1.289-1.135,1.9-1.14,3.42
			c-1.21-0.118-2.933,0.271-3.702-0.288c0.226-2.521,2.329-4.39,1.71-6.833c-2.28,0.188-2.661,2.277-3.419,3.984
			c-1.048-0.605-0.438-2.389,0-3.131c0.702-0.729,0.65-2.201,1.426-2.852c0.434-2.414,1.811-3.889,1.993-6.553
			c-0.854-0.709-1.921,0.189-1.993,1.14c-0.586,0.19-0.937,2.079-1.426,1.424v-2.276c0.361-1.258,1.088-2.145,1.709-3.136
			c0.434-2.315,1.508-4.003,1.998-6.263c0.236-2.002,2.033-4.322,0.852-5.986c-1.258-0.115-1.996,0.281-2.564,0.854
			c-0.691,0.089-1.258,1.759-1.708,1.14c-0.146-11.062,0.503-21.333,0.284-32.472c0.176-1.315-0.639-1.638-0.57-2.85h4.273
			c1.928-0.351,3.827-0.73,6.268-0.569c1.898-0.568,4.26-0.677,5.698-1.709c0.259-0.499,0.097-1.417,0.567-1.708
			c-0.443-2.498-0.652-5.237-1.139-7.692c-0.412-2.529-1.228-4.66-1.422-7.406c2.902-0.171,6.146-1.073,9.113-0.283
			c10.742-0.205,19.883,1.196,30.479,1.138c1.887,0.159,4.148,0.968,5.98,0.284c0.003,1.242,0.098,2.564-0.287,3.42
			c0.546,1.072,0.029,3.203,0.574,4.271c0.455,22.715,0.152,46.183,0.854,68.651C94.111,100.843,94.527,104.016,92.652,104.893z
			 M69.863,60.171c-0.764-0.61-1.512-0.61-2.278,0c-0.646,2.772-0.104,6.728-0.28,9.972c-1.203-1.078-1.906-2.653-3.14-3.707
			c-1.022-1.252-1.009-3.543-3.703-3.127c-1.621,1.36-1.235,5.78-0.854,8.258c0.271,2.861-0.971,7.238,1.994,7.404
			c1.77-0.035,1.823-1.783,1.709-3.699v-5.697c1.107,0.883,1.553,2.438,2.566,3.419c0.932,1.057,1.371,2.612,3.416,2.562
			c1.88-0.852,1.098-5.313,0.854-7.404C69.98,65.562,70.504,62.287,69.863,60.171z M80.973,69.572
			c-1.517-0.096-2.279,0.568-2.848,1.424c0.006,1.038,0.812,1.279,1.139,1.995c0.868,0.177,2.454-0.369,2.853,0.284
			c0.731,2.964-4.359,2.311-4.845,0.854c-0.752-2.138,0.108-4.974,0.285-7.121c0.401-0.816,1.028-1.299,1.707-1.997
			c0.221-0.218,0.182-0.87,0.571-1.136c0.554-0.379,0.89-0.201,1.707-0.284c1.453-0.429,0.881,2.106,1.998,1.138
			c0.972-0.354,1.328-1.33,1.137-2.847c-0.889-1.844-3.84-2.235-6.264-1.711c-0.567,0.571-1.353,0.931-1.713,1.711
			c-1.013,0.22-1.073,1.392-1.994,1.709c-0.22,0.916-0.595,1.685-1.144,2.278c-0.455,2.484-0.709,5.174-0.565,8.26
			c0.423,0.051,0.265,0.689,0.287,1.143c0.452,0.78,1.149,1.313,1.422,2.277c0.878-0.215,0.549,0.781,1.428,0.566
			c0.091,0.667,1.242,0.279,1.423,0.854h5.125c0.459-0.49,1.066-0.833,1.711-1.139c1.016-2.084,2.812-6.284,0.572-8.262h-3.992
			V69.572z M55.906,62.45c-2.313-0.832-4.814,0.202-6.553,0.856c-1.052-0.091-1.026-1.258-2.562-0.856
			c-2.13,3.012,0.596,6.962,0.852,10.257c0.547,1.54,0.68,3.501,1.142,5.125c0.469,1.718,0.073,4.292,1.993,4.559h1.424
			c1.146-0.99,0.294-3.297,0.285-4.842c-0.559-0.392-0.149-1.746-0.567-2.277c-0.241-0.808-0.331-1.76-0.573-2.562
			c1.328-0.371,2.236-1.463,3.136-2.277c0.968-0.886,2.2-1.688,2.562-3.139C57.181,65.164,57.021,63.332,55.906,62.45z
			 M50.778,69.288c-0.831-0.597-0.839-2.011-1.139-3.136c0.885,0.024,1.361-0.348,1.993-0.569c0.497-0.259,1.421-0.097,1.711-0.572
			c0.331-0.043,0.503,0.065,0.567,0.285C53.898,67.652,51.739,67.871,50.778,69.288z"/>
	</g>
</g>
</svg>
