<?xml version="1.0" encoding="utf-8"?>
<!-- Generator: Adobe Illustrator 16.0.0, SVG Export Plug-In . SVG Version: 6.00 Build 0)  -->
<!DOCTYPE svg PUBLIC "-//W3C//DTD SVG 1.1//EN" "http://www.w3.org/Graphics/SVG/1.1/DTD/svg11.dtd">
<svg version="1.1" id="Layer_1" xmlns="http://www.w3.org/2000/svg"  x="0px" y="0px"
	 width="120px" height="120px" viewBox="4 4 120 120" style="enable-background:new 4 4 120 120;" xml:space="preserve">
<g id="podcast">
	<g>
		<path d="M104.277,39.108c-1.479-2.827-2.871-5.734-4.305-8.609c-3.693-4.198-7.908-7.876-12.298-11.376
			c-1.503-0.856-3.284-1.432-4.614-2.459c-1.896-0.564-2.722-2.198-4.918-2.458c-3.425-0.675-8.066-0.133-11.99-0.309
			c-0.394,0.017-0.426,0.394-0.924,0.309c-2.598-0.136-4.314,0.605-6.456,0.921c-1.796,0.667-3.923,0.999-5.536,1.843
			c-3.884,1.042-6.848,2.995-10.76,4c-3.678,2.573-6.991,5.511-10.148,8.61c-0.84,1.822-2.076,3.251-3.075,4.92
			c-0.444,0.884-0.838,1.823-1.535,2.458c-0.352,1.084-0.678,2.193-1.539,2.766c-1.116,4.108-2.979,7.479-4,11.684
			c-0.2,1.129-0.324,2.338-0.612,3.385V66.78c0.771,5.483,2.961,9.543,4.919,13.836c2.284,2.333,4.155,5.069,6.763,7.073
			c0.808,0.318,1.038,1.222,1.846,1.537c0.581,0.65,1.768,0.691,2.151,1.537c1.863,1.049,4.382,0.663,5.229-0.613
			c0.452-2.194-0.84-2.646-1.539-3.69c-0.85-0.89-1.682-1.804-2.461-2.767c-1.997-1.486-3.397-3.569-4.917-5.535
			c-1.717-2.282-2.751-5.244-3.999-7.994c-0.295-1.553-0.621-3.066-0.92-4.612v-10.76c1.413-5.557,3.237-10.701,5.839-15.068
			c2.333-4.741,5.658-8.488,9.841-11.376c0.722-0.746,0.688,0.346,1.229,0.614c0.727-0.093,0.573-1.066,1.537-0.923
			c1.034-0.606,2.271-1.01,3.69-1.225c2.397-0.886,4.856-1.71,7.38-2.462c6.292-1.19,13.707-1.26,20.603-1.847
			c0.042,0.57,1.042,0.192,1.229,0.618c0.613,0.003,0.393,0.837,1.229,0.614c0.642,0.586,1.47,0.993,2.46,1.23
			c3.479,3.488,7.396,6.543,10.762,10.145c0.893,2.9,2.729,4.856,3.383,7.995c1.773,5.602,1.096,13.662,1.229,20.908
			c-1.248,4.797-3.385,8.709-5.227,12.915c-1.137,1.528-2.771,2.557-3.689,4.303c-1.061,1.332-2.543,3.422-1.537,5.846
			c0.715,0.922,1.5,1.779,3.073,1.843c2.909,0.243,3.31-2.024,4.614-3.382c0.994-1.773,2.516-3.014,3.688-4.611
			c2.387-5.506,5.357-10.428,6.459-17.219C106.318,54.901,106.404,45.896,104.277,39.108z M88.598,59.405
			c0.055-3.027,0.021-5.967-0.309-8.613c-0.449-0.666-0.85-1.857-0.922-2.15c-0.192-0.759-0.442-0.845-0.615-1.229
			c-0.523-1.191-0.787-2.623-1.846-3.384c-0.987-2.495-2.506-4.462-3.998-6.456c-1.374-1.288-3.106-2.223-4.611-3.384
			c-1.145-0.182-1.508-1.154-2.764-1.229c-0.789-0.647-2.217-0.652-3.075-1.229H60.003c-1.764,0.388-3.738,0.569-5.536,0.922
			c-0.916,0.828-2.292,1.191-3.378,1.848c-1.324,0.421-2.029,1.457-3.382,1.843c-1.04,1.321-2.305,2.41-3.385,3.691
			c-1.095,1.261-1.875,2.837-3.073,3.995c-1.263,4.782-3.957,8.138-4.307,13.835c-0.228,2.076,0.494,3.198,0.307,5.229
			c0.833-0.221-0.219,1.446,0.617,1.227c-0.126,0.744,0.562,0.671,0.306,1.541c0.728,0.502,0.654,1.804,1.231,2.459
			c0.706,1.854,1.434,3.691,2.766,4.916c0.648,1.818,2.391,2.535,3.69,3.693c2.24,0.559,4.61,0.071,4.919-2.15
			c0.082-1.725-1.839-1.438-2.46-2.463c-0.64-1.103-1.511-1.974-2.149-3.073c-1.185-2.302-2.206-4.766-3.077-7.378V56.02
			c1.076-3.028,2.37-5.83,3.383-8.917c1.785-2.112,3.296-4.496,5.534-6.148c1.776-1.099,3.665-2.078,5.843-2.77
			c3.978-0.549,7.729-0.299,11.684-0.307c0.258,0.665,1.586,0.263,1.847,0.923c0.917,0.003,1.044,0.801,1.844,0.923
			c1.334,0.51,2.092,1.602,3.383,2.154c0.191,1.272,1.789,2.346,1.845,3.38c0.017,0.34,0.233,0.158,0.31,0.307
			c1.193,2.469,2.104,4.531,3.07,7.072v7.381c-0.643,1.197-1.127,2.556-1.536,3.996c-0.864,0.977-1.366,2.322-1.229,4.304
			c0.932,0.914,1.375,2.314,3.386,2.15c2.444-0.012,3.208-1.707,3.688-3.688c1.049-1.511,1.539-3.584,2.151-5.532
			C88.064,60.307,88.604,60.124,88.598,59.405z M69.533,47.412c-1.316-0.322-2.234-1.047-3.996-0.923
			c-0.393,0.016-0.424,0.392-0.926,0.308c-2.445,0.524-5.4,0.544-7.685,1.227c-1.198,0.748-1.893,2.004-2.768,3.077
			c-0.278,4.261-1.267,8.286-0.613,12.606c0.872,0.559,1.069,1.795,1.844,2.461c0.772,0.66,1.713,1.152,2.458,1.843
			c2.313,0.645,4.258,0.78,6.458,0.923c0.715-0.516,1.657-0.803,2.766-0.923c3.056-3.296,5.207-7.501,5.535-13.526
			c0.08-1.725-1.297-1.986-0.924-4C70.959,49.475,70.418,48.271,69.533,47.412z M63.693,62.17c-1.101,0.552-2.391,0.1-3.383-0.307
			c-0.271-0.989,1.013-0.424,0.922-1.233c0.581-0.032,0.215-1.015,0.922-0.921c0.048-0.977,0.699-1.351,0.617-2.457
			c0.415-0.306,0.613-0.823,0.922-1.232c0.817,0.003,1.755-0.117,2.149,0.307C65.467,58.613,64.541,60.353,63.693,62.17z
			 M79.68,85.845c-0.791-1.259-0.994-3.104-1.844-4.306c-0.752-1.296-1.634-2.466-2.459-3.689c-1.172-0.363-1.949-1.125-3.077-1.537
			c-1.516-0.021-2.173-0.903-3.687-0.922h-2.461c-2.361,0.61-4.708,1.238-7.379,1.537c-4.492,2.684-7.325,7.027-8.302,13.223
			c-0.228,6.468-0.896,14.964,0.305,20.91c0.674,0.114,0.958,1.095,1.229,1.228c0.246,0.112,0.686-0.133,0.924,0
			c0.657,0.362,1.273,1.032,2.153,1.229c0.968,0.219,3.261,0.178,3.69,0.308c0.255,0.075,0.648-0.015,0.92,0
			c4.729,0.261,9.332-1.492,13.223-0.617c0.196-0.621,1.438-0.201,1.535-0.92c0.549-0.272,0.782-0.858,1.846-0.615
			c1.754,0.115,2.375-0.909,3.384-1.537c1.022-3.448,0.613-7.788,0.613-11.991C80.294,93.689,80.148,89.504,79.68,85.845z
			 M56.62,97.529c-0.476,0.652-0.884,1.369-1.229,2.152C54.539,98.91,55.212,97.062,56.62,97.529z M56.008,108.6
			c-1.726-0.022-0.602-2.886-0.924-4.308c0.769,0.257,1.646,0.401,2.766,0.31C57.281,105.975,55.73,106.373,56.008,108.6z
			 M58.464,85.23c-0.511,0.613-1.118,1.139-1.231,2.15c-0.968,0.059-0.39,1.657-1.535,1.537c0.899-3.407,2.547-6.062,4.917-7.993
			c0.524-0.114,0.581,0.237,0.617,0.613C60.03,82.492,59.247,83.857,58.464,85.23z M73.533,101.523c0,0.406-0.293,0.604-0.311,1.231
			c-0.033,1.248,0.025,2.606,0,3.994c-1.339,0.2-3.476-0.399-4.305,0.312c-0.932-0.377,0.217-1.179,0.309-1.539
			c0.358-0.461,0.383-1.258,0.924-1.539c0.192-1.545,1.483-1.996,1.229-3.994c-0.343-1.066-2.1-1.119-2.768-0.307
			c-0.834-0.279,0.312-1.08,0.307-1.539c0.541-0.278,0.507-1.133,1.23-1.229c0.265-1.478,1.34-2.144,1.229-3.997
			c-0.931-1.799-3.212-0.098-4.308,0.615c-2.512,2.51-4.725,5.32-6.762,8.3h-0.307c0.031,0.373-0.446,0.188,0,0
			c1.269-2.827,3.159-5.04,4.608-7.687c0.752-1.304,1.839-2.265,2.461-3.69c0.816-1.228,2.106-1.99,1.847-4.302
			c-0.075-0.438-0.507-0.522-0.616-0.922c-2.371-0.121-3.299,1.209-4.303,2.457c-1.275,1.188-2.008,2.914-3.385,3.996
			c0.036,0.375-0.446,0.19,0,0c1.566-3.968,4.116-6.955,5.538-11.068c2.096,0.263,3.447,1.269,4.92,2.154
			c1.979,3.026,1.871,6.506,2.15,10.45c0.096,1.349,0.092,1.048,0,1.849c-0.062,0.572,0.311,0.93,0.311,1.229
			c0-0.086-0.28,0.184-0.311,0.311c-0.041,0.172-0.004,0.435,0,0.615c0.029,1.012,0.158,0.897,0,1.535
			c-0.082,0.33,0.178,0.486,0.311,0.615c0.264,0.268-0.311,0.941-0.311,0.922C73.217,100.837,73.533,101.25,73.533,101.523z"/>
	</g>
</g>
</svg>
