<?xml version="1.0" encoding="utf-8"?>
<!-- Generator: Adobe Illustrator 16.0.0, SVG Export Plug-In . SVG Version: 6.00 Build 0)  -->
<!DOCTYPE svg PUBLIC "-//W3C//DTD SVG 1.1//EN" "http://www.w3.org/Graphics/SVG/1.1/DTD/svg11.dtd">
<svg version="1.1" id="Layer_1" xmlns="http://www.w3.org/2000/svg"  x="0px" y="0px"
	 width="120px" height="120px" viewBox="4 4 120 120" style="enable-background:new 4 4 120 120;" xml:space="preserve">
<g id="on-off">
	<g>
		<path d="M59.877,58.826c1.272-0.195,0.883,1.271,2.153,1.072c0.37,0.824,2.556-0.169,2.865,0.717
			c2.586,0.317,4.045-0.493,5.732-1.075c1.376-2.085,1.979-4.946,1.791-8.6c0.768-6.398,0.172-14.164,0.357-21.141
			c0.43-4.009-0.67-6.495-1.793-8.958c-1.719-0.668-3.397-1.376-6.088-1.075c-0.483,0.115-0.683,0.509-1.434,0.358
			c-2.664,2.116-3.965,5.593-5.02,9.316c-0.054,0.423,0.064,1.018-0.358,1.075c-0.093,7.547-0.568,14.72-0.357,22.575
			C57.943,55.508,58.863,57.21,59.877,58.826z M66.686,54.525C67.92,55.451,64.842,55.39,66.686,54.525L66.686,54.525z
			 M67.404,35.535c-2.27-0.354-0.592-3.836,0-4.659C67.996,31.609,67.996,34.799,67.404,35.535z M66.686,24.785h1.076v2.863
			c-0.418-0.299-0.96-0.472-1.789-0.354C66.232,26.476,66.291,25.463,66.686,24.785z M63.463,54.525
			c0.64-0.043,0.756,0.44,1.434,0.359C65.006,55.518,62.886,55.522,63.463,54.525z M101.085,49.149
			c-1.487-2.573-3.213-4.909-5.019-7.166c-2.295-1.527-4.116-3.525-6.805-4.658c-2.162-1.324-5.537-3.547-8.602-1.79
			c-0.819,3.959-0.133,9.422-0.36,13.971c0.854,1.657,3.034,1.987,4.304,3.228c1.709,0.792,2.793,2.221,3.94,3.581
			c1.45,2.255,2.435,4.97,3.584,7.526c-0.25,1.442,0.339,2.046,0.358,3.226c-0.115,3.947-1.16,6.961-1.437,10.752
			c-2.823,5.055-5.778,9.984-9.675,13.974c-2.105,0.282-2.596,2.181-4.658,2.507c-0.812,0.262-1.828,0.321-2.512,0.719h-9.312
			c-9.588-1.162-15.724-5.773-21.501-10.752c-0.789-1.834-2.116-3.135-2.867-5.017c-0.93-0.381-0.5-2.126-1.433-2.507
			c0.366-1.676-1.435-1.192-1.072-2.866v-9.317c1.266-3.512,2.041-7.515,3.585-10.75c0.836-1.791,3.284-1.97,3.938-3.942
			c1.043-1.583,4.377-0.883,4.301-3.582c0.856-0.649,0.201-2.808,0-3.586v-4.296c-0.819-0.614-0.13-2.738-0.355-3.943
			c-0.439-1.117-0.972-2.135-2.867-1.788c-0.521,0.197-0.879,0.554-1.078,1.073c-1.93,0.099-2.008,2.049-3.938,2.149
			c-0.979,1.172-2.201,2.103-3.585,2.868c-1.832,2.585-4.084,4.749-5.732,7.522c-2.158,2.383-3.304,5.771-5.377,8.242
			c-1.082,3.455-2.661,6.416-3.224,10.393v9.313c1.038,3.385,1.989,6.846,3.224,10.033c1.347,3.193,3.216,5.864,4.658,8.959
			c1.783,2.157,3.974,3.909,5.73,6.09c2.135,0.858,3.628,2.35,5.738,3.226c2.075,0.915,3.813,2.153,6.09,2.866
			c0.221,0.021,0.423,0.057,0.361,0.359c3.814,0.723,7.472,1.604,11.463,2.149c3.92,0.188,7.558,0.065,12.186,0
			c2.053-0.574,3.92-1.34,6.448-1.431c3.142-2.116,6.049-4.463,10.032-5.737c3.273-3.412,6.833-6.549,8.602-11.466
			c3.024-3.782,4.936-8.678,6.092-14.331V62.405C103.686,57.536,102.504,53.229,101.085,49.149z M43.755,40.549
			c0.417,0.059,0.302,0.655,0.358,1.075h-1.074C43.164,41.153,43.669,41.062,43.755,40.549z M30.496,74.23
			c0.068-0.405,0.357-0.197,0.357,0C30.785,74.639,30.496,74.432,30.496,74.23z"/>
	</g>
</g>
</svg>
