<?xml version="1.0" encoding="utf-8"?>
<!-- Generator: Adobe Illustrator 16.0.0, SVG Export Plug-In . SVG Version: 6.00 Build 0)  -->
<!DOCTYPE svg PUBLIC "-//W3C//DTD SVG 1.1//EN" "http://www.w3.org/Graphics/SVG/1.1/DTD/svg11.dtd">
<svg version="1.1" id="Layer_1" xmlns="http://www.w3.org/2000/svg"  x="0px" y="0px"
	 width="120px" height="120px" viewBox="4 4 120 120" style="enable-background:new 4 4 120 120;" xml:space="preserve">
<g id="_print">
	<g>
		<path d="M113.9,86.5v-21c0.1-1-0.5-1.1-0.301-2.1c0.301-7-1.1-12.3-2.399-17.7c-0.2-0.1-0.3-0.3-0.3-0.6
			c-1.301-1.5-3.5-2.2-5.101-3.3c-3.2-0.2-6.2-0.6-8.7-1.5H93.2V30c0.2-4.2,1.399-9.6,0.6-12.9C92.5,15.8,90.4,15.5,88.4,15
			c-11.4,0.3-24.3-0.8-34.3,0.9c-5.9,0-11.7,0.2-16.8,0.9c-1.7,0.3-1.9-1.5-3.3-0.6c-0.8,1-0.9,2.7-0.9,4.5v5.7
			c0.7,4.4,0.3,10,1.5,13.8c-1.9,0.4-4.3,0.4-6,0.9c-0.7-0.5-1.3-1.1-2.7-0.9c-3.2,0.9-5,3.2-7.2,5.1c-0.2,1.3-1.4,1.6-1.5,3
			c-0.7,0.8-1.1,1.9-1.8,2.7c-1.5,11.9-1.6,27-0.6,38.8c0.9,0.5,0.8,2,1.2,3c3.1,0.7,7.3,0.101,10.8,0.3c1.6-0.5,4-0.199,4.2-2.1
			c0.3-1.4-0.3-1.9-1.2-2.1C29.6,87.8,30.7,86.8,29.2,86.8c-1.3-0.1-0.5,1.9-1.8,1.8c-1-0.399-2.1,0.7-2.4,0
			c0.3-1.8,2.1-3.5,1.5-5.1c-1.8,0.2-2.2,1.8-3.3,2.7c-0.4,1.6-1,3-3,3c1.2-2.4,2.5-4.5,3-7.5c-1.1-0.601-1.9,0.399-2.4,1.2
			c-0.4,0.3-0.6,0.8-0.9,1.199C19.7,84.4,19.3,85.8,19,85c-0.3-3.3,1.2-4.8,1.8-7.2c0.5-2.1,2.7-4,2.1-6.3c-0.9-0.4-1.7,0.1-2.4,0.6
			c-0.9,0-1,2.2-1.8,1.2c0.4-4.1,2.7-6.3,3.3-10.2c-0.6-0.6-1.2,0.4-1.8,0.6C19.8,64,19.4,65.6,19,64.9c-0.3-4.8,0.4-8.601,1.2-12.3
			c2-1.9,3.2-4.6,6-5.7c2.6-0.5,6-0.2,9-0.3c1-0.4,2.3-0.5,3.3-0.9c4.5-0.4,9.5-0.3,14.4-0.3c3.3-1.2,8.8-0.3,12-0.3
			c2,0,3.699-0.5,5.699-0.3c5.4,0.4,12.301,0,16.5,1.2h8.4c2.8,0.6,4.8,2,8.1,2.1c1.801,1.9,2.601,4.8,3,8.1
			c0.301,10.7,0.101,22,0.9,32.2H103c-2.3,0.699-6.7-0.601-6.3,2.699c0.899,1.9,4.2,1.4,6.899,1.5c1.601,0.4,3.7,0.301,5.7,0.301
			c1.3,0.1,2.7,0.6,3.9,0C114.3,91,113.9,88.7,113.9,86.5z M92,21.2c0,1.3-0.7,1.9-0.6,3.3c-0.801,1.7-0.4,4.6-0.9,6.6
			c-0.2,2.9,0.4,6.6-0.3,9c-2.7-0.3-5.601-0.5-7.8-1.2C67.6,38.5,51.7,39.1,37,39.8c0.1-0.9,1-1,2.1-0.9c0.7-0.2,0.8-1,1.5-1.2
			c0-5.7-1-10.4-1.2-15.9h6c5.5-0.7,11.5-0.7,17.1-1.2h13.2c4.899-0.2,9.6-1.8,14.399-1.2c0.4-0.2,0.801-0.4,1.2-0.6h0.3
			c1-0.3,1,0.5,0.601,0.9C92.4,20.4,92.2,20.9,92,21.2z M101,56.1c0.4-0.3,0.9-0.7,0.9-0.9c0-0.3,0.199-0.2,0.3-0.3
			c0.5-1,0.2-2.7,0.3-4.2c-2-2.5-7.1-1.1-7.5,2.1C94.9,56.6,99,57.4,101,56.1z M90.8,51.9c-2.8-0.9-3,2.8-1.8,3.9
			C92,56.6,92.2,53.1,90.8,51.9z M93.5,71.5c-0.1-0.5-0.4,0.1-0.9,0c-0.3,0.1-0.5,0.3-0.6,0.6c-3.9-0.899-8.6,0-12,0.601
			c-15.2,0-30.4-0.101-45.1,0.3c-0.6,1.2-2,1.6-2.1,3.3c-0.7,0.2-0.1,1.7-0.3,2.4v3c0.2,3.5,0.5,7,0.6,10.5
			c0.3,3.399,0.5,6.899,0.6,10.5c-0.1,1.899,0,3.6,0.3,5.1c-0.8,1.9,0.4,2.9,0.6,4.5c6.7,1,13.2-0.5,19.9-0.6
			c2.2-0.101,3.7,0.5,6,0.3c1.7,0.1,2-1.2,3.6-1.2c5.8-0.2,11.5-0.5,16.5-1.5c2.601,0,5.5,0.3,6.9-0.899c1.5-0.2,0.5-2.9,1.5-3.601
			c1.3-0.8,2-2.2,3.3-3c0.601-1.6,2.8-1.6,3-3.6c0.3-9.601-0.6-18.101-1.2-26.8h-0.6V71.5z M90.5,98c-0.1,0.4-0.5,0.5-0.6,0.9
			c-0.801,0.3-1,1.199-1.801,1.5c-0.5,1.199-1.1,2.3-2.1,3c0.1,0.899-0.8,0.8-0.9,1.5c-0.1,0.699-1.5,0.1-2.1,0.3
			c-0.4-2.7-0.6-5.601-1.2-8.101C85,96.9,87.4,97.6,90.5,97.4C91.4,97.1,90.9,98,90.5,98z M79.3,94.1C77.4,96.8,79,101.6,79,105.2
			c-4.9-0.2-9.6-0.4-14.7-0.3c-5.7,0.699-10.9,2-17.5,1.8c-3-0.5-6.3-0.7-9-1.5c-0.7-4.4-0.1-10.101-0.3-15
			c-0.9-4.101-0.2-9.8-0.9-14.101h44.5c1.5-0.3,3.101-0.5,4.5-0.899h6c0.301,6.2,0.5,12.5,0.9,18.7C88.3,93.8,83,92.7,79.3,94.1z
			 M48.9,82.9H57c0.9-0.101,1.1,0.5,2.1,0.3H72c1.2-0.4,3-0.2,4.2-0.601h3.6c0.8-0.6,2.5-0.1,2.4-1.5c-0.5-2.5-4.101-1.699-6.9-1.8
			c-0.399,0-0.399,0.4-0.899,0.3C64.6,80,55,80.6,45,80.8c-1.1,0.2-3.2-0.6-3,0.9C43.2,83.5,46.3,82.9,48.9,82.9z M81.1,85.6
			c-0.399-0.5-1.5-0.3-2.399-0.3C77.6,85.6,76.2,85.6,75.1,85.9H69.4c-4,0.5-8.5,0.6-12.3,1.199C55,87.3,52.8,87.4,50.8,87.7
			c-1.7,0.6-4.8-0.2-5.1,1.8c0.6,1.4,2.8,1.2,4.8,1.2c2.2,0.2,3.6-0.4,5.7-0.3c3.5-0.601,7.5-0.7,11.1-1.2h6.9
			c1.6-0.3,3.3-0.5,5.1-0.601c0.9-1,3.8,0,3.601-2.1C83,85.6,82,85.6,81.1,85.6z"/>
	</g>
</g>
</svg>
