<?xml version="1.0" encoding="utf-8"?>
<!-- Generator: Adobe Illustrator 16.0.0, SVG Export Plug-In . SVG Version: 6.00 Build 0)  -->
<!DOCTYPE svg PUBLIC "-//W3C//DTD SVG 1.1//EN" "http://www.w3.org/Graphics/SVG/1.1/DTD/svg11.dtd">
<svg version="1.1" id="Layer_1" xmlns="http://www.w3.org/2000/svg"  x="0px" y="0px"
	 width="120px" height="120px" viewBox="0 0 120 120" enable-background="new 0 0 120 120" xml:space="preserve">
<g id="folder5_4_">
	<g>
		<path d="M108.223,93.208c-0.037-0.726-0.416-1.104-1.141-1.138c-0.49-0.653-1.609,0.464-2.568,0.283
			c-0.537,0.799-1.271,1.391-1.43,2.565c-0.499,0.736-0.113,2.354-1.139,2.565c-0.623,0.271-2.562-0.172-3.994,0
			c-1.393-0.031-3.01,0.152-3.996-0.28c-2.824-0.03-5.418-0.293-7.701-0.856c-3.721,0.655-8.646,0.103-12.838,0.282
			c-0.936-0.012-1.092-0.812-2.283-0.569c-1.217,0.116-2.938-0.274-3.709,0.287h-1.996c-0.547-0.134-1.229,0.877-1.145-0.287
			c-0.402-0.023-0.807-0.047-0.855,0.287c-1.211,0.217-2.496,0.354-3.705,0.57h-4.851c-1.085,0.161-3.3,0.684-4.28,0
			c1.584-2.979,3.232-5.896,4.564-9.131c0.602-1.682,1.361-3.204,2.283-4.564c0.259-0.882,0.711-1.567,1.139-2.281
			c0.744-0.213,1.168-1.603,0.569-2.281c-2.272-0.706-3.75,1.468-4.56,3.14c-1.197,1.56-1.863,3.655-3.141,5.134
			c-2.025,3.396-4.193,6.649-5.99,10.272c-2.391-0.013-4.313,0.44-6.563,0.567c1.134-3.338,2.709-6.229,4.28-9.129
			c1.002-1.188,1.369-3.004,2.566-3.994c0.328-1.541,2.275-2.778,1.428-4.565c-2.112-0.995-3.285,1.229-4.281,2.282
			c-1.23,1.053-1.934,2.63-3.137,3.71c-0.71,1.571-1.664,2.899-2.566,4.278c-0.189,0.955-0.889,1.396-1.143,2.283
			c-0.463,0.678-0.641,1.642-1.14,2.28v1.999c0.345-0.091,0.981,0.823,0.284,0.854c-1.752-0.148-4.129,0.326-5.421-0.285
			c1.567-1.379,2.159-3.734,2.854-5.989c1.031-1.817,1.598-4.104,2.566-5.991c0.682-2.265,1.803-4.093,2.568-6.275
			c0.324-1.103,1.229-1.623,1.424-2.854c0.572-0.607,1.645-1.789,0.855-2.854c-2.416-0.846-3.818,1.658-4.848,3.137
			c-1.371,1.484-2.371,3.336-3.139,5.422c-1.969,3.643-3.508,7.715-4.852,11.98c-0.326,0.336-0.322,1.011-0.283,1.713
			c-0.273,0.531,0.855,0.951,0,1.144c-1.201-1.084-1.648-2.917-1.711-5.138c-0.053-0.621,0.232-0.905,0.855-0.857
			c0.039-0.527,0.186-0.949,0.568-1.137c0.436-2.42,1.445-4.266,1.998-6.562c0.914-1.845,1.334-4.184,2.283-5.992
			c0.705-2.051,1.071-4.443,2.28-5.987c0.202-2.218,2.398-3.83,1.431-6.278c-1.609-0.574-2.837,1.484-3.711,2.566
			c-0.771,1.512-1.842,2.723-2.283,4.564c-1.879,2.588-2.742,6.198-4.277,9.131c0.306-0.905-1.107-2.398,0.283-2.567
			c0.551-0.593,0.902-1.384,1.428-1.999c0.979-3.965,2.271-7.62,3.424-11.41c0.738-1.734,1.35-3.596,1.997-5.42
			c0.446-0.791,0.886-1.589,1.142-2.568c0.701-0.256,0.771-1.996,0.283-2.568c-0.619-0.477-2.568-0.459-2.851,0.287
			c-0.853,0.021-1.187,2.025-1.714,1.424c0.576-1.419,1.058-2.938,1.427-4.563c0.606-1.159,1.747-2.993,0.571-4.28
			c-3.158-0.967-4.123,2.465-5.135,4.566c-1.031,2.297-1.57,5.085-2.854,7.13c0.158-4.214,1.189-7.559,0.855-12.265
			c-0.139-0.902,0.516-1.008,0.286-1.998c0.181-4.193-0.368-9.119,0.284-12.84c4.217,0.222,7.5-0.486,10.844-1.14
			c4.895,0.104,6.59-0.462,10.84,0.285c2.43,2.419,3.25,6.448,4.564,9.984c0.656,0.577,1.449,1.022,1.996,1.712
			c0.838,0.3,1.891,0.393,2.57,0.856c12.469,0.119,24.617-0.999,36.801-0.284c3.125,0.775,6.554,1.245,9.13,2.564
			c1.18-0.037,2.202,0.08,2.854,0.572c1.018,0.025,1.957,0.133,2.282,0.855c0.666,1.443,0,2.509,0,3.708
			c0.537,0.697,0.608,1.862,0.565,3.14c0.495,0.65,0.612,1.673,0.572,2.854c1.301-0.256,1.614,0.477,2.565,0.57
			c1.437-2.693,1.416-8.226,0.854-11.98c-0.544-0.787-1.164-1.5-1.711-2.283c-0.547-0.783-2.166-0.498-2.565-1.43
			c-0.644-4.255,1.672-8.312-0.572-10.839c-5.448-0.634-12.209,0.036-17.403-0.858c-11.451,0.91-24.974-0.247-35.375,1.713
			c-0.914-2.316-2.018-4.449-3.709-5.989c-4.049-1.874-7.391-1.186-11.983-1.426c-4.686,0.541-8.312,2.145-13.406,2.282
			c-0.844,0.394-1.157,1.316-1.999,1.71c-0.473,0.764-1.965,0.505-2.566,1.143c-0.488,1.605-1.403,2.777-1.713,4.563
			c-0.162,3.828,0.346,8.332-0.284,11.695c0.649,0.397,0.104,1.988,0.284,2.854v8.845c0.547,4.306,1.094,8.608,1.713,12.838v7.418
			c0.682,3.4,0.635,7.089,0.855,11.412c0.232,4.521,1.252,8.341,3.139,11.128c0.713-0.048,0.894,0.438,1.139,0.854
			c1.74,0.547,3.495,1.074,5.424,1.429h10.84c8.75-1.237,20.086,0.112,28.533-1.429H82.25c0.939,0.199,1.824,0.459,2.854,0.572
			c6.377,0.145,12.818,1.555,19.4,0.567c1.42-0.86,2.076-2.487,3.137-3.709c0.186-1.431,0.756-2.476,0.855-3.993
			C108.898,94.557,109.004,93.213,108.223,93.208z M56.868,34.438c5.741-0.481,13.372-0.461,19.114,0
			c7.324-0.192,14.094,0.173,20.254,1.141h5.137c-0.211,1.788-0.387,3.605-0.283,5.706c-3.098-0.991-6.097-2.082-9.701-2.566
			c-7.748,0.415-15.762,0.183-23.395-0.288c-4.412,0.182-8.229-0.072-13.122,0c-0.55-1.063-0.901-2.327-1.142-3.707
			C54.908,34.761,55.518,34.228,56.868,34.438z M110.789,78.089c-0.162-2.442,0.191-4.373,0.285-6.562
			c-0.586-1.258-2.016-1.41-2.852-2.282c-0.943-0.679-2.184,0.233-2.855-0.285c0.109-2.844-0.266-6.159,0.287-8.559
			c-0.541-0.79-0.779-1.884-1.426-2.568c-0.92-0.508-0.979-1.877-2.283-1.998c-0.035-0.631-1.211-0.12-1.713-0.284
			c-0.242-0.425-0.717-0.614-1.426-0.569c-1.938,0.34-3.979,0.584-6.277,0.569c-0.898,1.003-2.152,1.653-3.137,2.566
			c-0.957,1.515-1.729,3.22-2.57,4.85c0.199,2.387-0.479,3.895-0.283,6.278c-1.865,0.04-3.482,0.319-4.85,0.854
			c-2.623,4.521-0.299,11.021-1.145,16.832c0.039,1.104,1.156,1.127,1.428,2c0.17,1.062,0.998,1.473,1.428,2.279
			c4.156,1.739,10.342,1.449,16.264,1.428c1.84-0.633,3.377-1.568,5.135-2.283c1.217-1.732,3.174-2.721,3.99-4.851
			c0.83-0.821-0.553-0.892-0.283-1.997C109.816,82.255,110.229,80.098,110.789,78.089z M93.385,59.258
			c1.2-1.129,3.477-0.858,5.422-0.567c0.285,0.378,0.27,1.059,0.857,1.141c0.393,0.174,0.041,1.098,0.568,1.143v7.986
			c-2.586,0.664-6.148,0.146-8.844,0C91.277,64.949,92.156,61.93,93.385,59.258z M105.654,83.795
			c-0.654,0.771-1.012,1.841-1.998,2.282c-0.543,0.787-1.113,1.551-1.996,1.998c-2.127-0.457-4.592,0.237-6.85,0.282
			c-1.014,0.022-2.019-0.176-3.136-0.282c-1.204-0.118-2.61,0.03-3.425-0.286c-0.117-0.048,0.012-0.27-0.289-0.284
			c-0.479-0.026-0.574-0.828-1.143-0.854c-0.516-0.028-0.457-0.935-1.137-1.144c0.021-0.405,0.045-0.812-0.289-0.854
			c-0.209-2.303,0.465-3.723,0.289-5.99c0.068-0.977,0.719-1.371,0.568-2.566c0.176-0.773-0.363-2.269,0.285-2.566
			c0.779,0.207,0.574-0.567,1.141-0.569c6.28,0.278,12.686,0.438,18.826,0.854c0.404,1.901,0.068,4.062-0.566,5.705
			C106.064,81.165,105.82,82.438,105.654,83.795z M98.234,75.521c-1.361-0.648-3.036-0.037-4.279,0.285
			c-0.373,0.859-0.92,1.549-0.854,2.854c0.256,1.264,1.369,1.673,1.998,2.568c-0.445,0.414-0.604,1.108-0.572,1.994
			c0.633,0.508,1.156,1.123,2.564,0.854c0.812-0.709,0.991-2.056,0.857-3.709c0.545-0.783,1.09-1.57,1.141-2.853
			C98.781,76.88,98.621,76.091,98.234,75.521z M64.283,96.062C64.701,95.889,64.258,95.717,64.283,96.062L64.283,96.062z"/>
	</g>
</g>
</svg>
