<?xml version="1.0" encoding="utf-8"?>
<!-- Generator: Adobe Illustrator 16.0.0, SVG Export Plug-In . SVG Version: 6.00 Build 0)  -->
<!DOCTYPE svg PUBLIC "-//W3C//DTD SVG 1.1//EN" "http://www.w3.org/Graphics/SVG/1.1/DTD/svg11.dtd">
<svg version="1.1" id="Layer_1" xmlns="http://www.w3.org/2000/svg"  x="0px" y="0px"
	 width="120px" height="120px" viewBox="0 0 120 120" enable-background="new 0 0 120 120" xml:space="preserve">
<g id="file-psd">
	<g>
		<path d="M98.352,47.066c0.08-1.721,0.724-2.884,0.854-4.556c0.17-3.853,0-7.743,0-12.253c0-4.396-0.036-8.84-0.854-12.53
			c-1.791,0.013-3.336,0.273-4.844,0.569c-0.818-0.512-1.65-1.007-3.133-0.857c-15.559-0.01-30.668-0.475-46.434-0.283
			c-0.408,0.161-0.694,0.447-0.853,0.854c-0.662,0.859-1.269,1.776-1.993,2.564c-0.535,0.504,0.34,0.833-0.285,1.424
			c-0.504,0.257-0.884,0.637-1.142,1.139c-1.534,1.508-3.022,3.056-3.987,5.127c-1.012,0.51-1.178,1.86-1.992,2.566
			c-0.809,0.712-0.906,2.136-1.712,2.846c-0.067,1.452-1.228,1.809-1.709,2.85c-0.706,0.993-1.956,1.509-1.993,2.85v6.55
			c0.197,1.706,0.762,3.041,0.855,4.847c-0.5,9.847-0.68,20.014-0.57,30.477c0.396,7.953-0.721,15.617,0,22.507v1.991
			c-0.174,0.51,0.837,1.184,0,1.425c-0.446,1.085-0.696,1.812,0,2.849c1.264,1.111,3.591,0.282,5.412,0.282
			c1.604-0.577,3.921-0.444,5.696-0.853c9.254-0.156,15.905,0.404,24.212-0.286c7.929-0.822,16.438-0.511,24.784-0.284
			c2.574,0.354,6.119,0.994,8.549,0.57c0.714-0.521,1.25-1.219,1.426-2.278c0.187-1.139,0.854-1.803,1.135-2.85
			C100.26,84.305,98.818,64.909,98.352,47.066z M43.941,26.56c-0.605,0.131-0.544-0.408-0.566-0.858
			C43.725,25.83,43.959,26.068,43.941,26.56z M41.665,27.697h0.854c0.377,1.427,1.371,2.238,2.279,3.135
			c-0.222,1.172,0.434,1.464,0.282,2.562c-1.333-0.087-1.149-1.693-2.282-1.994c-0.408-1.012-1.146-1.696-1.988-2.278
			C40.977,28.531,41.404,28.203,41.665,27.697z M40.811,33.394c0.352,0.88,0.938,1.53,1.709,1.996
			c-0.259,0.772-1.047-0.241-1.143-0.573c-0.414-0.247-0.899-0.423-0.855-1.139c-0.764-0.562-1.361-1.293-1.703-2.278
			C39.92,31.628,39.901,32.973,40.811,33.394z M36.537,34.251c0.684,0.545,0.945,1.522,1.709,1.988
			c-0.761,0.571-2.512,0.153-3.418,0.573C35.229,35.791,36.057,35.197,36.537,34.251z M92.652,104.895
			c-1.457,0.127-1.557-1.101-2.853-1.138H83.82c-10.95-1.052-21.322,0.87-32.188,0.853c-1.153,0.268,0.358-1.545-0.571-1.99
			c-1.281-0.145-0.799,1.479-1.424,1.99H45.65c-1.303-0.2-2.888,0.318-3.417,0c0.392-1.649,1.757-3.356,1.14-5.129
			c-1.834-0.312-2.048,0.994-2.854,1.709c-0.227,1.289-1.135,1.904-1.136,3.42c-1.213-0.112-2.934,0.273-3.704-0.284
			c0.223-2.521,2.326-4.386,1.709-6.834c-2.275,0.188-2.656,2.272-3.418,3.985c-1.051-0.605-0.439-2.391,0-3.137
			c0.7-0.722,0.652-2.195,1.426-2.846c0.434-2.416,1.812-3.885,1.992-6.555c-0.854-0.705-1.918,0.19-1.992,1.143
			c-0.584,0.193-0.935,2.077-1.426,1.424v-2.281c0.359-1.252,1.088-2.14,1.709-3.13c0.433-2.321,1.506-4.004,1.995-6.271
			c0.235-1.998,2.034-4.312,0.853-5.982c-1.258-0.117-1.996,0.284-2.562,0.856c-0.693,0.089-1.257,1.751-1.706,1.139
			c-0.149-11.063,0.5-21.335,0.279-32.474c0.179-1.313-0.639-1.638-0.567-2.846h4.273c1.928-0.354,3.828-0.729,6.27-0.572
			c1.898-0.568,4.256-0.678,5.694-1.707c0.259-0.502,0.097-1.426,0.571-1.711c-0.446-2.497-0.656-5.235-1.141-7.69
			c-0.413-2.528-1.229-4.659-1.426-7.404c2.904-0.173,6.15-1.075,9.117-0.286c10.745-0.205,19.885,1.198,30.479,1.138
			c1.885,0.157,4.149,0.966,5.982,0.286c0.004,1.238,0.093,2.564-0.286,3.42c0.544,1.069,0.026,3.199,0.569,4.268
			c0.457,22.716,0.154,46.181,0.855,68.655C94.111,100.842,94.527,104.016,92.652,104.895z M55.623,61.598h-2.562
			c-0.392-0.942-0.213-2.448-1.711-2.281h-0.568c-0.067,0.406-0.471,0.479-0.571,0.857c-0.753,0.098-0.258,1.449-0.854,1.707v11.11
			c0.68,1.69,0.381,4.37,2.563,4.557c1.258,0.21,1.169-0.921,1.991-1.14c0.087-1.51-0.49-2.354-0.566-3.705
			c2.43-0.321,3.542-1.963,4.838-3.416c0.049-0.338-0.042-0.809,0.289-0.854C58.678,64.997,57.515,62.936,55.623,61.598z
			 M53.061,69.573v-5.132h1.42C55.982,65.916,55.493,69.591,53.061,69.573z M88.098,67.576c-2.07-3.762-6.654-6.874-11.965-5.979
			c0.006,0-0.029-0.341-0.289-0.283c0.121-0.028-0.277,0.274-0.281,0.283c-0.262,0.17-0.474,0.239-0.854,0.282
			c-0.157,0.502-0.148,1.183-0.57,1.421c0.049,4.983,2.228,7.846,2.848,12.25v1.996c0.033,0.727,0.056,1.467,0.855,1.428
			c1.129,0.916,1.445-1.396,3.137-0.856c0.771-0.746,2.018-1.019,3.129-1.423c1.289-1.375,3.051-2.274,3.703-4.276
			C88.409,71.309,87.953,69.145,88.098,67.576z M84.961,70.996c-0.342,1.179-1.089,1.945-1.992,2.562
			c-0.928,0.588-2.27,0.767-3.134,1.424c-0.646-0.301-0.11-1.791-0.283-2.564c-0.663-2.473-1.286-4.979-2.28-7.121v-1.139
			c3.598,0.49,6.058,2.113,7.689,4.559V70.996z M71.291,70.713c-0.787-0.545-1.449-1.211-1.996-1.996
			c-0.979-0.256-1.775-0.693-2.564-1.141c-1.105-0.221-2.33-0.327-2.85-1.139c0.223-0.826,0.451-1.643,1.141-1.996
			c1.522-0.424,1.627,1.582,2.852,0.574c0.781-0.992-0.419-1.904-0.566-2.854c-1.011-0.419-2.109-0.74-3.707-0.566
			c-1.582,1.168-2.545,2.959-2.85,5.41c0.091,0.389,0.406,0.542,0.287,1.141c1.248,1.221,2.947,1.994,5.125,2.277
			c0.596,0.451,1.163,0.93,1.998,1.141c0.312,1.484,1.986,1.619,1.99,3.418c-1.146-0.195-1.623,0.271-2.563,0.287
			c-1.647-0.293-4.708-1.944-5.126,0.565c0.014,1.688,1.549,1.869,2.562,2.562h4.844c0.056-0.422,0.688-0.26,1.141-0.281
			c0.83-0.596,1.756-1.096,2.276-1.997c0.212-1.349-0.317-1.955-0.283-3.129C72.188,72.469,71.904,71.425,71.291,70.713z"/>
	</g>
</g>
</svg>
