<?xml version="1.0" encoding="utf-8"?>
<!-- Generator: Adobe Illustrator 16.0.0, SVG Export Plug-In . SVG Version: 6.00 Build 0)  -->
<!DOCTYPE svg PUBLIC "-//W3C//DTD SVG 1.1//EN" "http://www.w3.org/Graphics/SVG/1.1/DTD/svg11.dtd">
<svg version="1.1" id="Layer_1" xmlns="http://www.w3.org/2000/svg"  x="0px" y="0px"
	 width="120px" height="120px" viewBox="4 4 120 120" style="enable-background:new 4 4 120 120;" xml:space="preserve">
<g id="pulse">
	<g>
		<path d="M113.542,62.759c-3.043-0.664-5.644-0.72-8.226,0.357c-0.922,0.635-1.545,1.558-2.502,2.151
			c-0.668,1.004-0.658,2.682-2.148,2.86c-5.113,0.369-10.576,0.396-15.385,1.07c-1.317-2.978-2.361-6.222-3.934-8.943
			c-1.021-3.397-1.596-7.227-5.367-7.87c-1.301-0.111-2.326,0.06-3.219,0.357c-1.93,1.17-1.785,4.414-2.863,6.442
			c-0.635,2.465-1.631,4.567-2.146,7.153c-0.355,1.19-0.641,2.458-1.066,3.579c0.289,1.012-0.509,0.927-0.36,1.787
			c-0.622,0.214,0.026,1.693-0.718,1.785c0.017,1.566-0.312,2.791-0.713,3.936c-0.252,1.412-0.446,2.898-1.075,3.938
			c-1.074-4.889-2.336-9.59-3.938-13.955c-2.093-3.858-3.573-8.348-4.648-13.235c-1.278-4.68-3.1-8.824-3.936-13.947
			c-1.488-4.596-1.198-10.961-5.007-13.238h-2.502c-1.688,0.461-2.517,1.774-3.581,2.861c-0.596,2.02-1.3,3.947-1.428,6.438
			c-1.03,1.473-1.543,3.471-2.509,5.006c-0.837,1.667-1.994,3.017-2.502,5.011c-0.917,1.584-1.3,3.711-2.147,5.367
			c-0.45,2.173-1.484,3.758-1.787,6.083c-1.271,1.231-1.394,3.608-2.859,4.65c-0.096,1.094-0.771,1.602-1.074,2.5
			c-0.672,0.643-0.427,2.193-1.433,2.503H14.093c-2.983-0.41-6.566-0.109-6.792,3.225c0.385,4.731,6.879,3.373,11.086,4.288h6.441
			c2.468,0.321,3.716-0.576,5.364-1.07c1.487-1.974,2.122-4.791,3.576-6.797c1.194-2.271,2.844-4.076,3.579-6.798
			c1.224-2.235,1.857-5.055,2.86-7.513c0.314-1.475,1.126-2.457,1.435-3.932c1.029-0.76,0.926-2.653,2.146-3.222
			c1.414,4.669,2.987,9.173,3.936,14.307c1.114,1.983,1.085,5.121,2.505,6.8c0.481,2.619,1.82,4.375,2.504,6.793
			c0.706,2.279,1.371,4.593,1.788,7.156c0.096,1.451,0.61,2.488,0.711,3.937c0.427,1.127,0.405,2.698,1.076,3.571
			c0.262,2.847,1.605,4.602,2.143,7.16c0.565,0.988,1.116,1.986,1.43,3.217c0.528,1.029,1.655,1.449,2.506,2.154
			c1.691,0.137,2.985-0.125,4.296-0.365c1.803-1.528,2.564-4.104,2.862-7.147c0.737-0.093,0.095-1.577,0.711-1.793
			c-0.008-0.84,0.615-1.056,0.354-2.146c0.746-0.09,0.104-1.57,0.72-1.787c-0.007-0.844,0.612-1.055,0.354-2.152
			c1.26-2.078,1.273-5.4,2.149-7.867c-0.123-1.791,0.833-2.498,0.711-4.29c0.745-1.048,0.562-3.024,1.435-3.937
			c0.887,1.807,1.379,3.773,2.506,5.365c1.095,1.549,2.589,2.604,4.291,3.58c5.813-0.273,11.318-0.851,17.527-0.72
			c1.09,1.418,2.076,2.935,3.578,3.938c1.83,0.675,2.407,2.601,4.651,2.863h3.935c0.602-0.715,2.055-0.572,2.506-1.434
			c1.383-0.047,1.41-1.45,2.502-1.791c0.701-0.604,1.527-1.1,1.789-2.145c0.789-0.646,0.873-1.992,1.433-2.861
			C120.393,69.504,117.775,65.327,113.542,62.759z"/>
	</g>
</g>
</svg>
