<?xml version="1.0" encoding="utf-8"?>
<!-- Generator: Adobe Illustrator 16.0.0, SVG Export Plug-In . SVG Version: 6.00 Build 0)  -->
<!DOCTYPE svg PUBLIC "-//W3C//DTD SVG 1.1//EN" "http://www.w3.org/Graphics/SVG/1.1/DTD/svg11.dtd">
<svg version="1.1" id="Layer_1" xmlns="http://www.w3.org/2000/svg"  x="0px" y="0px"
	 width="120px" height="120px" viewBox="4 4 120 120" style="enable-background:new 4 4 120 120;" xml:space="preserve">
<g id="help-circled">
	<g>
		<path d="M117.809,56.181c-0.412-0.386-0.299-1.301-0.299-2.095c-1.564-7.52-5.807-12.356-8.982-18.263
			c-0.68-0.217-0.897-0.899-1.198-1.496c-1.121-0.872-2.119-1.869-2.992-2.993c-1.455-0.543-2.037-1.954-3.594-2.395
			c-0.816-1.178-2.325-1.663-3.291-2.695c-0.379-1.617-2.095-1.897-2.995-2.992c-3.128-1.563-6.139-3.243-9.879-4.193
			c-1.667-0.726-3.605-1.18-5.688-1.496c-1.389-1.006-3.029-1.762-5.088-2.095c-2.619-0.876-6.453-0.534-9.88-0.599
			c-0.065,0.232-0.253,0.348-0.599,0.298c-3.31-0.114-5.397,0.992-8.683,0.9c-0.617,0.779-2.375,0.418-2.99,1.198
			c-1.361,0.039-2.062,0.732-3.294,0.897c-2.3,0.595-4.421,1.366-6.586,2.094c-6.599,3.681-12.349,8.208-18.264,12.574
			c-0.732,0.563-0.637,1.956-1.195,2.696c-0.379,0.916-1.021,1.574-1.498,2.395c-1.335,1.358-1.852,3.534-2.992,5.088
			c-0.334,1.861-0.927,3.463-1.198,5.389c-1.092,1.104-0.989,3.401-1.796,4.789c-0.562,3.829-0.722,8.061-0.599,12.574
			c0.881,3.511,2.082,6.698,2.395,10.777c0.553,0.543,0.389,1.807,0.899,2.396c0.156,0.939,0.524,1.67,0.896,2.394
			c0.482,1.715,1.379,3.012,2.097,4.489c1.463,2.931,3.581,5.203,5.386,7.785c0.716,1.48,2.096,2.297,2.998,3.594
			c1.242,1.052,1.869,2.719,2.394,4.488c2.168,0.527,3.189,2.201,4.791,3.293c1.449,1.344,3.243,2.349,4.79,3.594
			c6.096,2.982,12.772,5.386,20.954,6.285H75c2.035-0.356,3.867-0.918,5.986-1.196c1.465-1.028,3.582-1.408,5.089-2.396
			c1.739-0.852,3.476-1.713,5.089-2.693c3.166-1.924,5.781-4.399,8.982-6.287c1.492-2.098,3.832-3.352,5.088-5.688
			c1.897-1.694,3.062-4.118,4.793-5.987c0.822-2.266,2.043-4.14,2.693-6.586c1.317-1.771,2.199-3.985,2.99-6.285
			c1.477-4.557,2.216-10.613,1.498-16.464C117.098,59.262,117.852,58.119,117.809,56.181z M111.82,68.155
			c-0.582,3.407-1.752,6.229-2.396,9.579c-0.733,1.264-0.729,3.265-1.498,4.49c-0.473,1.521-0.901,3.092-1.796,4.19
			c-0.175,1.021-1.654,0.739-2.096,1.498c-4.777,6.698-10.827,12.121-17.663,16.764c-1.197,0-1.796-0.599-2.992-0.599
			c-11.562,1.195-21.414,0.965-32.629-0.299c-0.75-0.448-0.687-1.711-1.496-2.098c-1.143-0.142-1.868,0.127-2.099,0.898
			c-1.226,0.129-1.917-0.277-2.693-0.598c-0.785-1.41,0.446-4.836-1.499-5.09c-1.988-0.094-1.646,2.146-2.395,3.293
			c-2.183-0.312-2.957-2.029-4.488-2.994c0.196-4.041,2.155-7.76,1.198-11.975c-2.246-0.148-2.733,1.458-3.595,2.694
			c-0.66,1.532-1.601,2.789-2.094,4.489c-0.363-0.635-1.127-0.868-1.199-1.797c0.473-0.523,0.4-1.596,0.598-2.395
			c0.072-1.927,0.481-3.512,0.301-5.688c0.679-0.319,0.113-1.883,0.299-2.695c0.678-0.317,0.115-1.883,0.301-2.694
			c0.678-0.317,0.112-1.882,0.299-2.692c0.742-0.385-0.088-1.682-0.601-1.797c-0.962-0.668-1.783,0.873-2.396,1.498
			c-0.455,1.041-1.137,1.855-1.199,3.291c-1.175,1.914-1.371,4.813-2.096,7.186c-0.644-0.555-0.79-1.604-1.495-2.096
			c0.416-2.278,0.708-4.68,1.197-6.886c-0.063-2.312,1.795-5.038,0.298-6.886c-1.624,0.27-2.214,1.574-2.692,2.994
			c-0.906-0.453,0.248-1.314,0-2.096c0.41-0.59,0.287-1.711,0.601-2.396c0.521-1.474,0.872-3.118,1.495-4.492
			c0.308-1.589,1.121-2.669,1.496-4.19c0.417-1.266,1.953-2.726,1.196-4.192c-1.344-0.722-2.64,0.86-3.29,1.797
			c-0.954,1.044-1.493,2.5-2.396,3.593c-0.07,0.23-0.008,0.589-0.301,0.597c-0.23,0.967-0.623,1.77-1.197,2.395
			c0.032,0.364-0.435,0.185,0,0c-0.328-1.427,0.383-1.812,0.899-2.395h0.297c0.07-0.231,0.01-0.59,0.301-0.597
			c-0.067-0.964,0.526-1.268,0.299-2.395c0.435-0.562,0.012-1.985,0.598-2.395c-0.06-1.954,1.054-2.741,1.197-4.491
			c0.478-0.419,0.764-1.031,0.899-1.796c0.308-0.689,1.03-0.965,0.9-2.095c0.941-0.951,1.647-2.144,2.093-3.593
			c1.002-1.293,2.655-1.934,2.693-4.191c-0.041-1.157-1.164-1.227-2.395-1.198c0.96-2.831,4.063-3.521,5.989-5.388
			c2.252-1.639,4.831-2.951,6.883-4.791c1.52,0.022,1.937-1.058,3.293-1.197c0.596-0.901,2.4-0.594,2.995-1.496
			c6.656-0.728,12.864-1.906,20.354-1.796c3.397,0.993,6.625,2.159,10.481,2.694c1.091,1.004,2.728,1.461,3.89,2.395
			c3.295,0.5,5.687,1.897,8.383,2.994c1.025,1.271,2.729,1.86,3.592,3.293c1.287,1.107,2.523,2.267,3.894,3.292
			c1.021,0.077,1.438,0.757,2.692,0.6c1.929,2.164,4.393,3.79,5.988,6.286c1.529,3.661,2.726,7.65,4.49,11.077
			c-0.098,0.694,0.049,1.149,0.299,1.497c-0.024,1.723-0.063,3.458,0.299,4.791C111.643,63.587,111.866,66.006,111.82,68.155z
			 M82.482,33.73c-1.381-1.315-3.334-2.056-5.09-2.996c-2.031,0.057-3.285-0.21-4.49-0.299c-0.385,0.017-0.41,0.383-0.898,0.299
			c-6.307-0.121-10.072,2.301-14.069,4.491c-3.697,2.591-7.689,4.881-10.178,8.681c0.16,3.152-1.008,6.808,0.299,9.28
			c1.681,0.998,4.736,0.549,6.585,0c1.037,0.461,2.73,0.267,4.193,0.301c0.566-0.631,1.472-0.925,2.395-1.199
			c1.225-0.169,0.569-2.225,1.796-2.395c2.284-1.229,5.032-3.516,8.681-2.395c0.508,1.19,0.233,3.158,0.299,4.79
			c-1.407,2.583-3.996,3.986-6.287,5.687c-2.169,1.922-4.491,3.693-5.986,6.289c0.208,4.097-0.952,6.83-0.597,11.076
			c1.217-0.121,1.177,1.016,1.793,1.498c1.713,0.584,4.411,0.18,6.585,0.298h3.596c1.095-0.099,1.205-1.186,2.693-0.896
			c0.182-1.515,0.762-2.632,1.197-3.894c1.279-1.113,2.059-2.729,3.293-3.89c1.479-0.916,2.05-2.741,3.589-3.593
			c2.354-2.439,4.292-5.289,5.989-8.383c0.717-3.573,1.52-7.063,1.799-11.076c-0.549-3.145-1.781-5.605-2.996-8.085
			C85.15,36.248,84.207,34.601,82.482,33.73z M84.879,53.787c-0.355,4.538-3.115,6.667-5.393,9.28
			c-0.777,0.119-0.9,0.893-1.793,0.897c-1.541,1.853-3.258,3.531-5.09,5.091c-0.662,0.936-0.775,2.418-2.097,2.693
			c0.024-1.35,1.17-2.418,0-3.292c-1.386,0.11-2.058,0.935-2.69,1.794c-0.619,0.619-1.067,2.535-2.397,1.498
			c-0.983,0.217-0.459-0.596,0-0.6c-0.013-0.513,0.224-0.775,0.603-0.898c0.398-0.693,0.49-1.698,0.895-2.395
			c1.66-1.035,4.003-1.386,4.193-3.893c0.056-1.354-0.891-1.705-2.098-1.797c0.656-1.037,2.109-1.281,2.693-2.393
			c0.703,0.093,1.125,0.472,2.098,0.299c2.711-1.181,3.29-4.491,4.188-7.483c-0.064-0.433-0.892-0.106-0.897-0.601
			c0.034-3.427-0.685-6.1-2.093-8.083c-1.683-0.909-3.425-1.764-5.989-1.795c-4.474,1.517-8.414,3.558-11.076,6.886
			c-1.175-0.323-2.928-0.065-3.89-0.6c0.222-2.128,1.182,0.836,2.094-0.3c1.535-1.259,0.927-4.661,2.995-5.388
			c0.012-0.912-0.273-1.525-0.901-1.797c1.95-1.942,4.618-3.164,7.484-4.189c2.736-1.059,6.228-1.356,10.185-1.197
			c0.045,0.349,0.543,0.252,0.895,0.297c1.025,0.771,1.964,1.628,3.294,2.098c2.505,2.182,4.097,5.28,4.79,9.279v6.588H84.879z
			 M71.705,83.424c-1.832-0.52-6.154-1.025-7.483-0.3c-1.527-0.128-2.336,0.459-3.294,0.897c-0.93,0.468-1.569,1.224-2.397,1.795
			c-0.703,2.188-1.489,4.299-1.196,7.484c0.733,0.866,0.757,2.436,1.799,2.994c0.809,0.887,1.382,2.007,2.692,2.395
			c0.465,0.435,1.397,0.398,1.797,0.898c2.124,0.124,3.88-0.109,5.688-0.3c2.516-1.377,4.678-3.104,5.985-5.688
			c0.052-0.447-0.106-1.104,0.302-1.195C75.852,87.859,74.283,85.137,71.705,83.424z M70.508,91.807
			c-1.179,1.113-2.506,2.084-5.089,1.795c-0.547-1.348-1.433-2.36-1.496-4.19c1.276-1.021,3.634-0.955,5.984-0.899
			C70.506,89.213,70.598,90.418,70.508,91.807z"/>
	</g>
</g>
</svg>
