<?xml version="1.0" encoding="utf-8"?>
<!-- Generator: Adobe Illustrator 16.0.0, SVG Export Plug-In . SVG Version: 6.00 Build 0)  -->
<!DOCTYPE svg PUBLIC "-//W3C//DTD SVG 1.1//EN" "http://www.w3.org/Graphics/SVG/1.1/DTD/svg11.dtd">
<svg version="1.1" id="Layer_1" xmlns="http://www.w3.org/2000/svg"  x="0px" y="0px"
	 width="120px" height="120px" viewBox="4 4 120 120" style="enable-background:new 4 4 120 120;" xml:space="preserve">
<g id="quote">
	<g>
		<path d="M59.137,40.22c-0.668-1.057-1.442-2.008-1.829-3.35c-0.869-0.856-1.608-1.843-2.132-3.042
			c-1.107-0.615-1.645-1.804-2.435-2.741c-1.938-1.31-3.674-2.822-5.781-3.957c-2.273-0.674-4.735-1.151-7.916-0.915
			c-0.453,0.16-0.768,0.452-1.222,0.609c-2,0.535-2.72,2.353-4.259,3.35c-1.762,0.775-3.388,1.69-4.872,2.739
			c-1.753,1.7-3.093,3.809-4.262,6.089c-0.594,3.564-1.022,7.3-0.913,11.57c0.453,1.601,0.438,3.927,1.217,4.566
			c0.092,0.078-0.062,0.497,0,0.608c0.304,0.545,0.674,1.109,0.913,1.523c0.146,0.254,0.594,0.644,0.608,0.914
			c0.033,0.598,0.7,0.65,0.915,0.913c0.393,0.488,0.583,1.199,0.911,1.522c0.242,0.236,0.625,0.102,0.913,0.304
			c0.254,0.177,0.36,0.717,0.61,0.915c0.263,0.207,0.621,0.1,0.912,0.303c0.249,0.175,0.345,0.746,0.611,0.914
			c0.377,0.242,0.817,0.11,1.217,0.304c0.231,0.114,0.613,0.463,0.913,0.608c3.053,1.486,6.661,2.152,10.654,2.437
			c0.175,1.856,0.79,3.271,1.218,4.871v6.393c-0.477,0.844-0.947,1.695-1.218,2.742c-0.612,0.806-1.134,1.707-1.521,2.738
			c-1.387,1.453-2.299,3.386-3.957,4.567c-1.117,0.912-2.207,1.854-3.653,2.437c-0.712,0.1-1.256,0.363-1.829,0.607
			c-0.792,0.118-1.667,0.157-2.128,0.607c-2.005-0.178-3.526,0.13-4.568,0.914c-1.331,2.384-0.252,6.434,1.218,7.914
			c1.45,0.684,3.591,0.673,5.785,0.609c1.44-0.691,3.628-0.635,4.869-1.522c3.697-0.564,6.381-2.146,9.439-3.349
			c0.833-0.992,2.063-1.591,3.047-2.436c0.782-1.041,1.696-1.955,2.74-2.739c0.971-2.069,2.348-3.739,3.348-5.784
			c1.174-1.873,2.17-3.918,3.347-5.785c2.809-10.028,3.351-25.035,0.608-35.619C60.11,42.493,59.487,41.49,59.137,40.22z
			 M35.388,40.524c0.394-0.522,0.63-1.198,1.524-1.218c0.06-0.912,1.262,0.291,0,0C36.52,39.829,36.28,40.505,35.388,40.524
			C35.421,40.894,34.946,40.711,35.388,40.524z M49.698,56.659c-1.749-0.021-0.829,2.623-2.738,2.436v-2.739
			c-1.03-2.424-1.699-5.205-3.655-6.698c-1.831,0.403-2.194,2.271-3.348,3.35c-0.044,1.074-0.871,1.361-0.913,2.434
			c-0.494,0.624-0.239,1.997-0.917,2.437c-1.288,0.111-0.266-1.319-0.305-1.826c0.121-0.794,0.159-1.67,0.612-2.131
			c-0.191-1.915,0.872-2.576,0.915-4.262c0.964-0.758,0.855-2.59,1.825-3.348c0.079-1.353,1.55-2.556,0.609-3.958
			c-1.545-0.223-1.885,0.753-2.739,1.217c-2.924,3.167-5.056,7.125-6.395,11.872c-1.213-0.732,0.035-2.047-0.304-3.652
			c0.606-3.45,2.197-5.92,3.345-8.829c1.211-1.531,2.907-2.577,3.659-4.566c2.096-0.036,4.423,0.164,6.084-0.305
			c0.218-1.533-0.544-2.092-0.912-3.044c-0.643-0.674-1.998-0.64-1.829-2.131c4.864,1.229,7.374,4.808,9.744,8.524
			c-0.154,1.468-0.884,2.362-0.606,4.263c0.592,2.653,1.875,4.616,2.738,7.001c-0.586,0.825-0.673,1.867-1.216,2.739
			c-0.447,0.715-1.124,1.374-1.826,1.828C50.856,57.942,50.513,56.734,49.698,56.659z M52.741,64.574
			c0.792-0.12,0.921-0.908,1.828-0.913c-0.249,1.579-1.279,2.375-1.523,3.958C52.354,67.197,52.932,65.5,52.741,64.574z
			 M53.962,77.059c-0.909,1.323-1.645,2.82-2.435,4.26c-0.896-0.26,0.391-0.766,0-1.521c0.63-0.076,0.082-1.336,0.605-1.521v-3.35
			c-0.19-0.826,0.387-2.416-0.302-2.738c0.406-0.709,0.502-1.73,0.911-2.437c0.67,0.347,1.244,0.784,2.435,0.608
			C54.948,72.77,54.277,74.732,53.962,77.059z M108.146,55.746c-0.08-1.033,0.235-2.467-0.301-3.044
			c-0.021-1.197-0.146-2.289-0.611-3.044c-0.381-4.182-2.521-6.61-3.043-10.655c-0.887-0.837-1.461-1.987-2.133-3.045
			c-0.586-1.237-1.688-1.963-2.437-3.044c-0.231-0.068-0.601-0.007-0.604-0.303c-4.498-2-11.168-1.826-17.354-2.133
			c-0.392,0.019-0.423,0.391-0.914,0.306c-1.91,1.135-3.556,2.535-4.871,4.262c-1.629,1.315-2.694,3.189-3.958,4.872
			c-1.025,2.727-1.536,5.972-1.523,9.741c0.453,0.056,0.279,0.735,0.308,1.218c3.093,5.937,7.089,10.973,14.612,12.481
			c2.838,0.018,4.045,0.231,6.695,0c1.698,2.856,1.828,8.257,1.219,12.483c-0.719,1.007-0.955,2.492-1.824,3.349
			c-0.246,1.479-1.383,2.066-1.827,3.348c-1.228,0.498-1.364,2.086-2.741,2.438c-0.496,1.228-2.08,1.369-2.738,2.436
			c-2.736,1.121-5.343,2.37-7.914,3.652c-0.731-0.186-1.391-0.438-2.435-0.304c-0.347,1.896-2.576,0.202-3.657,1.521
			c-0.992,1.792-1.001,4.62-0.609,7.001c0.39,0.832,1.225,1.216,1.83,1.828c0.576,0.641,0.481,1.949,1.824,1.826
			c0.803,0.92,2.928,0.523,4.564,0.607c3.293-0.463,5.812-1.698,8.527-2.738c2.244-1.607,4.537-3.175,6.697-4.871
			c0.883-1.145,1.963-2.095,2.738-3.351c1.135-0.896,1.661-2.396,3.046-3.043c1.672-2.487,3.765-4.56,4.563-7.916
			c1.455-2.603,2.142-5.979,3.048-9.133c0.678-3.481,1.481-6.836,2.13-10.352v-3.348C108.262,57.865,108.842,56.169,108.146,55.746z
			 M84.1,94.713c-0.815,1.01-2.416,1.239-3.35,2.132c-1.473,0.052-2.705,1.619-3.959,0.913c-0.541-2.267,2.193-1.257,3.348-1.826
			C81.423,95.488,82.559,94.898,84.1,94.713C84.068,94.346,84.541,94.525,84.1,94.713z M82.271,38.089
			c-0.156-0.157,0.219-0.388,0.303-0.305C82.736,37.942,82.354,38.174,82.271,38.089z M85.316,56.355
			c-0.156-0.159,0.221-0.389,0.305-0.305C85.777,56.208,85.398,56.438,85.316,56.355z M94.753,54.224
			c-0.995-1.136,0.735-4.997-1.521-4.871c-1.865-0.14-1.594,1.858-2.437,2.739v2.436c0.011,0.717-0.524,0.896-0.304,1.827
			c0.488,1.199-1.314,0.105-1.219,0.913c-0.689-0.324-0.115-1.914-0.306-2.74c-0.45-1.173,0.109-3.355-1.215-3.653
			c-2.053,0.385-2.004,2.865-2.438,4.87c-1.775-0.699-0.858-2.519-0.914-4.565c0.787-1.246,0.984-3.076,1.828-4.263
			c0.347-1.681,2.078-1.979,2.131-3.958c-1.145-1.493-4.041-0.166-4.565,0.914c-0.887-0.427,0.541-1.049,0.306-1.826
			c0.715-0.097,0.678-0.944,1.217-1.218c0.644-1.083,1.846-1.604,2.129-3.045c-0.732-1.31-3.629-0.417-4.564,0
			c0.092-0.821,1.281-0.546,1.521-1.217c3.322,0.429,7.174,0.336,10.654,0.608c0.07,0.439,0.909,0.105,0.918,0.609
			c0.396,0.108,0.475,0.537,0.908,0.609c-0.762,2.165,1.405,3.534,1.521,5.784C97.629,47.966,96.08,50.986,94.753,54.224z
			 M99.018,65.488c-0.928-0.293-0.664-1.773-1.219-2.437c-0.268-0.85-0.729-1.504-0.915-2.436c0.405-0.305,1.134-0.287,1.22-0.912
			C99.219,60.822,99.04,63.232,99.018,65.488z"/>
	</g>
</g>
</svg>
