<?xml version="1.0" encoding="utf-8"?>
<!-- Generator: Adobe Illustrator 16.0.0, SVG Export Plug-In . SVG Version: 6.00 Build 0)  -->
<!DOCTYPE svg PUBLIC "-//W3C//DTD SVG 1.1//EN" "http://www.w3.org/Graphics/SVG/1.1/DTD/svg11.dtd">
<svg version="1.1" id="Layer_1" xmlns="http://www.w3.org/2000/svg"  x="0px" y="0px"
	 width="120px" height="120px" viewBox="0 0 120 120" enable-background="new 0 0 120 120" xml:space="preserve">
<g id="radiation">
	<g>
		<path d="M50.472,54.978c2.156-2.847,3.451-6.556,7.206-7.806c0.417-0.185,0.043-1.157,0.598-1.202
			c0.82,0.22,0.604-0.596,1.2-0.599c-0.289-1.209-1.165-1.838-1.798-2.701c-0.796-0.807-1.18-2.023-2.103-2.703
			c-0.904-2.197-2.654-3.551-3.303-6.001c-3.23-3.175-5.666-7.147-7.806-11.409c-1.293-0.395-0.372,1.43-1.499,1.2
			c-0.071-1.331-0.657-2.144-1.803-2.401h-1.201c-1.253,0.949-2.511,1.893-3.902,2.7c-1.176,1.425-2.425,2.778-3.602,4.203
			c-1.118,1.483-2.511,2.692-3.304,4.503c-2.772,2.527-3.716,6.894-5.701,10.207c0.159,1.162-0.538,1.464-0.3,2.703
			c-0.541,0.562-0.664,1.537-1.204,2.1c-0.02,1.18-0.144,2.257-0.599,3.004c0.393,1.305,0.321,3.08,0.599,4.5
			c2.127-0.122,3.923,0.084,5.406,0.602c6.343-0.238,11.195,1.012,17.409,0.9c1.859,0.544,3.266,1.537,5.405,1.803
			C49.963,57.069,50.68,56.486,50.472,54.978z M54.375,42.969c-0.37-0.131-0.617-0.384-0.603-0.896
			C54.141,42.198,54.389,42.451,54.375,42.969z M54.375,43.569c0.774-0.655,1.753,1.038,1.798,2.103
			c-1.056,0.041-1.342,0.861-2.4,0.898C53.767,45.547,55.199,44.416,54.375,43.569z M24.954,54.676
			c-0.494-0.466,0.103-1.17,0.3-1.801c0.62,0.383,1.524,0.479,1.502,1.502C26.051,54.371,25.872,54.893,24.954,54.676z
			 M36.361,35.763c-0.268,0.935-1.004,1.4-1.2,2.401c-0.715,0.488-0.479,1.926-2.101,1.502c-0.22-2.119,1.075-2.725,2.101-3.602
			c1.157-0.744,1.946-1.853,3.603-2.099C38.613,35.215,37.407,35.408,36.361,35.763z M39.361,54.676
			c0.05-0.35,0.551-0.253,0.904-0.299C40.217,54.727,39.718,54.631,39.361,54.676z M45.969,54.676
			c-0.156-0.154,0.217-0.382,0.299-0.299C46.422,54.533,46.052,54.76,45.969,54.676z M45.969,46.57
			c-0.087-0.783,0.111-1.292,0.901-1.199C46.953,46.154,46.761,46.662,45.969,46.57z M106.607,51.375
			c-0.334-1.269-0.346-2.857-0.299-4.505c-0.875-3.631-2.426-6.583-3.904-9.604c-1.172-1.13-2.043-2.559-3-3.902
			c-1.014-1.288-2.211-2.392-3-3.902c-1.76-1.146-3.055-2.752-4.805-3.902c-1.289-0.032-2.279-0.682-3.004,0.3h-0.604v2.7
			c-1.006,0.299-1.396,1.204-2.4,1.5c-1.078,2.623-3.18,4.227-4.201,6.906c-1.103,0.699-1.302,2.303-2.4,3.002
			c-0.365,1.537-1.665,2.139-2.1,3.603c-0.746,0.289,0.409,1.151,0,2.103c-1.332-0.13-1.902,0.499-2.104,1.5
			c0.065,3.337,2.448,4.353,3.3,6.903c1.08,0.623,1.4,2.006,2.104,3.003c0.765,0.938,0.521,2.881,2.104,3.001
			c1.091,0.876,1.854-0.585,3-0.599c0.962,0.74,2.882,0.519,4.203,0.9c3.643,0.061,7.604-0.204,10.806,0.3
			c1.173,0.069,1.558-0.646,2.4-0.899c0.333,1.207,2.095,0.318,3.005,0.299C107.197,58.367,106.421,54.388,106.607,51.375z
			 M79.292,46.57h-0.603c-0.158-0.241-0.314-0.486-0.303-0.898h0.903L79.292,46.57L79.292,46.57z M87.096,53.777
			c-0.629-1.475-1.479-2.726-1.802-4.504c1.147,0.254,1.005,1.799,1.503,2.7c0.531,0.868,0.54,2.262,1.197,3.004
			C87.562,55.864,86.788,54.62,87.096,53.777z M91.898,52.875c-0.157-0.943-0.527-1.673-0.899-2.401
			c-0.406-1.696-1.19-3.012-1.8-4.504c-0.158-0.242-0.314-0.485-0.303-0.899h0.601c1.258-0.057,0.974,1.428,1.502,2.102
			c0.401,0.697,0.495,1.705,0.899,2.4c0.498,1.705,0.765,3.639,1.199,5.405C91.898,55.074,92.465,53.408,91.898,52.875z
			 M97.602,54.978c-0.151-0.154,0.219-0.384,0.299-0.302C98.061,54.834,97.684,55.06,97.602,54.978z M98.803,42.67
			c-1.589-0.014-1.541-1.659-1.801-3.004c-0.254-0.646-0.738-1.061-1.803-0.901c-0.324-0.998-1.834-1.996-0.897-3.301
			c0.241,0.159,0.487,0.312,0.897,0.299c0.408,1.495,1.517,2.29,2.104,3.604C97.953,40.217,99.249,41.683,98.803,42.67z
			 M100.904,48.374c-0.688-0.514-0.711-1.693-0.901-2.702C100.881,45.994,100.979,47.1,100.904,48.374z M56.473,56.478
			c-0.391,3.896,0.72,6.29,1.803,8.706c0.828,0.573,1.527,1.275,2.104,2.104c0.646,0.755,1.854,0.945,2.401,1.801
			c2.021,0.279,4.228,0.376,6.603,0.303c0.386-0.72,0.979-1.224,2.104-1.201c0.466-1.438,1.473-2.328,1.798-3.901
			c0.635-1.37,0.914-3.09,1.204-4.804c-0.329-4.378-2.497-6.914-5.405-8.705c-1.614-0.286-3.429-0.375-5.405-0.302
			c-0.18,0.018-0.352,0.045-0.297,0.302h-0.9c-1.381,0.523-2.529,1.271-3.302,2.4C57.926,53.928,57.192,55.195,56.473,56.478z
			 M84.094,94.002c-0.482-2.12-1.613-3.592-2.402-5.402c-1.621-3.683-3.291-7.314-5.102-10.807
			c-0.525-1.381-0.693-3.111-1.502-4.204c-2.031-0.171-3.126-0.089-5.104,0.302h-5.104c-2.34-0.562-4.001-1.805-7.204-1.502
			c-0.436,0.166-0.735,0.469-0.902,0.9c-0.859,0.594,0.103,1.874,0,2.701c-1.795,3.107-2.246,7.564-3.902,10.807
			c-0.399,2.104-1.404,3.598-2.102,5.405c-0.655,1.848-2.264,2.741-2.402,5.103c0.312,1.092,1.182,1.622,2.103,2.103
			c-0.088,1.589,1.416,1.589,1.801,2.7c1.464,0.737,2.983,1.422,4.2,2.402c3.922,1.18,8.157,2.053,13.509,1.803
			c2.758-0.35,4.824-1.379,8.104-1.203c1.119-0.58,1.894-1.51,2.701-2.399c2.442-0.162,3.924-1.283,5.106-2.702
			c0.244-1.384-0.289-2.322-0.604-3.301C84.991,95.76,84.618,94.855,84.094,94.002z M54.071,95.805c-0.023,0.818,0.503,0.604,0,1.2
			c-1.109-0.039-0.751-0.438-0.599-1.2c0.705-0.097,0.179-1.424,1.201-1.199C54.759,95.287,54.601,95.732,54.071,95.805z
			 M60.078,77.189C61.188,78.102,59.165,78.203,60.078,77.189L60.078,77.189z M65.781,80.193c0.248-0.852-0.424-0.778-0.301-1.504
			h2.103C67.395,79.605,66.914,80.229,65.781,80.193z M71.486,78.395h0.602v0.6h-0.602V78.395z M72.686,90.4
			c-0.432-0.371-0.566-1.034-0.598-1.801h0.896C73.203,89.516,72.68,89.693,72.686,90.4z M73.889,84.098
			c0.443,0.254,0.432,0.965,0.6,1.498C73.479,85.905,74.018,84.664,73.889,84.098z"/>
	</g>
</g>
</svg>
