<?xml version="1.0" encoding="utf-8"?>
<!-- Generator: Adobe Illustrator 16.0.0, SVG Export Plug-In . SVG Version: 6.00 Build 0)  -->
<!DOCTYPE svg PUBLIC "-//W3C//DTD SVG 1.1//EN" "http://www.w3.org/Graphics/SVG/1.1/DTD/svg11.dtd">
<svg version="1.1" id="Layer_1" xmlns="http://www.w3.org/2000/svg"  x="0px" y="0px"
	 width="120px" height="120px" viewBox="4 4 120 120" style="enable-background:new 4 4 120 120;" xml:space="preserve">
<g id="record">
	<g>
		<path d="M95.669,46.589c-0.804-2.049-2.024-3.684-2.854-5.704c-1.562-1.385-2.229-3.667-4.562-4.281
			c-0.531-0.87-1.357,0.328-2.283,0c-3.092-2.617-6.638-4.775-11.127-5.99c-1.388-0.057-2.73-0.064-3.423,0.571
			c-0.513-0.769,1.255-0.552,0.284-0.856c-0.084-0.583-0.773-0.562-0.857-1.143c-0.729-0.031-0.998-0.523-1.426-0.855
			c-1.18-0.34-2.48-0.561-3.709-0.856h-3.423c-4.509,0.913-8.842,1.997-11.981,4.28c-1.912,0.752-3.415,1.912-4.853,3.138
			c-1.644,1.112-3.266,2.248-4.849,3.425c-5.52,6.844-10.913,13.811-11.982,25.104v8.561c0.676,2.105,0.998,4.263,1.714,5.992
			c0.066,0.172,0.479,0.656,0.567,0.855c0.152,0.336,0.08,0.722,0.285,1.143c0.258,0.52,0.811,0.859,1.143,1.426
			c0.16,0.273,0.163,0.627,0.287,0.854c0.184,0.343,0.362,0.546,0.568,0.856c0.302,0.451,0.396,0.754,0.569,1.141
			c0.04,0.088,0.502,0.188,0.573,0.284c3.411,4.69,8.055,8.19,13.979,10.271c0.594,0.93,1.875,1.17,2.567,2
			c1.136-0.187,1.147,0.756,2.282,0.568c0.277,0.673,1.646,0.256,1.996,0.855c0.971-0.021,1.99-0.088,2.283,0.57
			c0.965,0.085,1.949,0.146,2.568,0.572c3.496,0.402,6.84,0.958,10.84,0.855c0.598-0.451,1.898-0.199,2.566-0.571
			c0.734-0.408,1.809-0.476,2.283-1.142c0.533-0.039,0.953-0.188,1.145-0.57c0.713,0.379,0.893-1.127,1.137-0.285
			c0.051,0.488-1.617,1.122-0.283,1.141h2.854c4.498-2.062,7.027-6.098,9.416-10.271c1.649,0.322,2.072-0.586,3.138-0.856
			c3.522-4.368,5.279-10.506,6.276-17.399V59.996C98.811,54.858,97.658,50.305,95.669,46.589z M36.039,64.276
			c0.102-0.943,0.854-1.237,1.43-1.71c0.022-1.022,0.441-1.646,0.569-2.57c0.474,0.382,0.443,1.271,0.856,1.714
			c-0.667,1.899-2.028,3.106-2.571,5.133C35.678,66.543,36.217,65.052,36.039,64.276z M37.752,74.833
			c-1.055-0.37-0.774-2.077-1.429-2.854c0.167-0.691,2.122,0.688,2.571-0.285C39.443,72.544,37.725,73.559,37.752,74.833z
			 M78.549,55.719c-0.279,1.334-1.432,1.803-1.709,3.137c-1.43-0.378-2.322-1.293-2.854-2.566c0.861-1.039,1.297-2.508,1.996-3.709
			C77.175,53.291,77.375,54.991,78.549,55.719z M71.99,42.593h3.42c0.186,0.792-0.747,0.247-1.137,0.287
			C73.252,42.986,72.046,43.549,71.99,42.593C71.645,42.625,71.812,42.182,71.99,42.593z M63.145,47.444
			c-0.847,2.657-2.754,5.185-1.998,8.56c-0.061,1.077-0.898,1.385-1.141,2.282c-1.018-1.169-1.956-2.419-2.568-3.994
			c0.757-2.95,2.076-5.341,3.426-7.703C61.543,46.953,61.911,47.633,63.145,47.444z M50.592,38.602
			c1.355,0.215,1.562-0.72,2.282-1.142c2.553-0.586,5.616-0.661,8.841-0.571c-1.771,2.125-3.782,4.016-5.133,6.562
			c-0.357-0.596-0.699-1.203-1.141-1.711c0.342-1.085,0.607-2.247,0.855-3.424c-0.101-0.377-0.502-0.448-0.568-0.856
			c-2.441-0.158-3.064,1.504-3.712,3.136c-1.173-0.332-1.845-0.726-3.136-0.283C49.121,39.412,50.352,39.502,50.592,38.602z
			 M54.584,46.305c0.039,0.512-0.348,0.6-0.286,1.14c-0.8,0.041-0.821-0.697-0.852-1.425C53.955,45.983,54.045,46.366,54.584,46.305
			z M45.741,61.995c-0.427,0.335-0.338,1.188-1.142,1.143c0.506-2.634,2.21-4.069,3.137-6.277c1.217-1.828,2.48-3.607,3.428-5.706
			c0.328-0.048,0.506,0.062,0.568,0.287c-0.377,2.76-1.606,4.667-2.852,6.56c-0.991,0.628-1.226,2.011-2.283,2.569
			C46.732,61.466,45.828,61.323,45.741,61.995z M41.744,57.715c-0.504-0.539-0.938-1.151-0.855-2.282
			c0.357-1.259,1.388-1.848,1.999-2.853c0.789-0.828,1.354-1.877,2.282-2.568c1.229-2.003,3.152-3.313,4.564-5.136
			c0.736,0.503,0.595,1.882,0.857,2.854c-0.834-0.075-0.878,0.646-1.711,0.569c-1.322,1.439-2.587,2.934-3.995,4.281
			c-0.347,1.081-1.134,1.724-1.714,2.567C42.909,56.218,42.011,56.648,41.744,57.715z M52.301,85.96v1.997
			c-3.328-0.666-5.516-2.471-7.985-3.993c0.619-0.427,1.604-0.487,2.566-0.569c0.302,1.599,1.253,2.547,2.853,2.854
			c2.522-0.145,3.209-2.118,3.996-3.996c0.334,0.046,0.24,0.521,0.285,0.855C53.209,83.82,53.111,85.246,52.301,85.96z
			 M57.15,64.276c-0.502-0.259-0.468-1.051-1.138-1.139c-1.194-0.243-1.347,0.553-2.282,0.569c0.351-1.547,0.977-2.827,1.424-4.278
			c1.115,0.885,1.555,2.438,2.567,3.423C57.6,63.395,57.109,63.569,57.15,64.276z M60.863,84.532
			c0.043,0.71-0.451,0.885-0.574,1.428c-0.226,0.534-0.477,1.046-0.568,1.71c-0.758-0.088,0.265,1.6-0.855,1.145
			c-1.168,0.135,0.008-0.719,0-1.145c0.123-0.543,0.612-0.716,0.567-1.423c0.641-0.792,1.111-1.745,1.431-2.853
			C61.861,83.093,61.096,84.354,60.863,84.532z M62.572,72.551c-1.264,0.258-1.256,1.786-3.14,1.426
			c0.474-2.285,1.617-3.9,2.282-5.99c1.192,0.05,0.998,1.479,1.715,1.998C63.338,71.033,62.725,71.561,62.572,72.551z
			 M65.143,62.566c-0.553,0.114-0.227,1.105-1.144,0.854c-0.626-0.832,0.7-1.622,0.569-2.85
			C65.654,60.342,64.936,61.917,65.143,62.566z M66.281,42.88c-0.145-0.146,0.205-0.363,0.289-0.287
			C66.716,42.742,66.361,42.962,66.281,42.88z M65.426,37.46c1.039-0.528,3.494-0.357,4.566,0c0.16,0.499-0.346,1.677,0.283,1.71
			c-1.471,1.269-1.777-1.061-2.281-1.71C66.704,36.834,65.801,39,65.426,37.46z M68.277,73.691
			c-0.146-0.148,0.207-0.364,0.285-0.284C68.714,73.557,68.357,73.771,68.277,73.691z M68.277,47.16
			c-0.734-0.757,0.861-1.599,0.859-2.566c1.475,0.521,2.424,1.566,3.706,2.281c0.074,0.835-0.645,0.875-0.567,1.711
			c-0.77,0.197-0.555-0.589-0.856-0.856C69.759,48.332,69.118,46.43,68.277,47.16z M70.561,67.417
			c0.742-0.31,0.403-1.694,1.144-1.997c0.299-1.889,1.387-2.99,1.709-4.85c0.506,0.256,0.885,0.637,1.146,1.14
			c-0.578,3.036-2.808,4.424-3.139,7.703C70.115,69.292,70.333,68.503,70.561,67.417z M79.121,78.258
			c-0.887,0.028-0.812-0.898-1.998-0.57c-0.738,0.074-1.232,0.461-1.713,0.854c-0.43,0.354-0.946,0.88-1.137,1.428
			c-0.637-0.653,0.719-1.737,0.283-3.14c-0.101-0.373-0.502-0.448-0.572-0.855c-0.939-0.459-2.017,0.992-1.994-0.283
			c0.546-0.53,0.223-0.523,1.137-0.286c0.175,0.491,1.354-0.021,1.43,0.569c0.979-0.125,1.596,0.112,2.283,0.285
			c1.48,0.148,2.285-0.374,3.42-0.568c-0.662-1.808-2.91-2.034-4.277-3.141c-0.157-0.633,0.545-0.404,0.57-0.857
			c0.311-0.068,0.193-0.564,0.57-0.567c0.17-0.595,0.602-0.924,0.854-1.427c0.562-1.061,1.014-2.223,1.715-3.139
			c1.752,0.912,2.682,2.646,5.705,2.283C83.799,72.477,81.639,75.542,79.121,78.258z M81.402,63.42
			c0.041-1.006,0.815-1.273,0.854-2.281c0.779-0.206,0.574,0.567,1.142,0.571c0.09,1.134-0.657,1.433-0.569,2.566
			C81.936,64.412,82.074,63.511,81.402,63.42z M88.82,59.143c-0.637-0.971-2.115-0.99-3.424-0.572
			c0.047-0.714-0.438-0.892-0.855-1.141c0.271-1.25,1.064-1.976,1.711-2.852c0.157-0.633-0.546-0.407-0.57-0.857
			c0.299-1.414,0.506-2.916,0.57-4.563c-0.3-0.747-0.818-1.273-1.711-1.428c-1.334-0.097-1.682,0.792-2.283,1.428
			c-0.217,1.076,0.35,1.363,0.285,2.284c-0.598,0.353-1.072,0.827-1.428,1.425c-0.758-0.287-0.938-1.152-1.424-1.712
			c-0.346-0.605-1.074-0.83-1.144-1.711c0.746,0.079,1.229-0.104,1.144-0.857h1.996c0.334-2.045-1.295-2.13-2.279-2.854
			c0.32-1.767,1.705-2.474,2.279-3.992h0.854c4.013,2.93,7.11,6.773,7.42,13.407C89.619,56.519,89.086,57.699,88.82,59.143z"/>
	</g>
</g>
</svg>
