<?xml version="1.0" encoding="utf-8"?>
<!-- Generator: Adobe Illustrator 16.0.0, SVG Export Plug-In . SVG Version: 6.00 Build 0)  -->
<!DOCTYPE svg PUBLIC "-//W3C//DTD SVG 1.1//EN" "http://www.w3.org/Graphics/SVG/1.1/DTD/svg11.dtd">
<svg version="1.1" id="Layer_1" xmlns="http://www.w3.org/2000/svg"  x="0px" y="0px"
	 width="120px" height="120px" viewBox="4 4 120 120" style="enable-background:new 4 4 120 120;" xml:space="preserve">
<g id="user5">
	<g>
		<path d="M88.129,83.934c-5.631-2.985-13.029-4.436-19.971-5.135c-0.94-0.674-1.674-1.557-2.568-2.279
			c-0.102-2.373-0.347-4.601-0.857-6.563c1.322-1.726,2.559-3.529,3.996-5.136c1.539-3.691,3.578-6.882,4.566-11.125
			c6.914-0.017,8.162-7.803,6.846-14.268c-1.521-0.536-2.771,0.346-3.994-0.569c-0.057-7.075-1.662-12.603-3.994-17.401
			c-1.104-1.083-2.114-2.264-3.137-3.426c-0.992-0.245-1.584-0.89-2.283-1.426c-1.889-0.49-3.688-1.065-5.706-1.428h-3.708
			c-0.369,0.394-1.24,0.285-1.998,0.287c-2.137,1.096-4.85,1.615-6.277,3.425c-1.246,0.367-1.791,1.439-2.568,2.28
			c-1,0.71-1.791,1.628-2.283,2.854c-1.018,0.596-1.184,2.047-1.994,2.852c-0.225,1.486-1.355,2.068-1.427,3.711
			c-0.704,0.913-0.976,2.261-1.144,3.709c-0.516,0.337-0.223,1.485-0.568,1.997c0.061,0.916-0.506,1.205-0.285,2.28
			c-1.696,0.395-3.01,1.178-3.996,2.285c-1.582,2.281-1.707,5.646-1.426,9.127c0.846,0.869,1.794,1.631,2.57,2.568
			c0.368,1.34,2.405,1.017,2.852,2.283c-0.021,1.922,0.67,3.129,0.854,4.85c0.658,0.864,0.838,2.207,1.43,3.137
			c0.58,0.939,0.887,2.156,1.424,3.14c0.529,2.517,2.109,3.978,1.711,7.418c-0.535,0.981-0.951,2.085-1.994,2.565
			c-0.459,1.064-1.744,1.301-2.57,2c-1.141,0.566-2.594,0.826-3.992,1.141c-3.355,2.258-7.994,3.227-11.412,5.42
			c-3.998,1.61-6.84,4.381-9.699,7.133c-0.492,1.506-1.688,2.307-1.998,3.994c-0.807,1.191-1.918,2.076-2.282,3.708
			c-0.185,1.244,0.371,3.226-0.284,3.995c-0.41,1.359,1.189,0.707,0.855,1.997c-0.508,1.158-0.284,3.071,0,4.278
			c1.268,1.207,2.528,2.418,5.42,1.996c1.07-0.021,0.863,1.231,2.281,0.856c27.641-0.206,53.301-0.683,77.889-3.993
			c1.019-2.689,2.096-5.322,2.279-8.847C98.588,91.389,93.879,86.984,88.129,83.934z M75.863,43.138
			c1.309-0.265,1.377,0.713,2.566,0.568c-0.232,2.147-0.556,4.199-3.142,3.995C75.082,45.782,76.07,45.058,75.863,43.138z
			 M37.633,47.701c-0.885,0.03-1.364-0.349-1.998-0.571c-0.049-0.901,0.759-0.951,0.571-1.994c1.021-0.169,1.379,0.329,1.995,0.57
			C37.965,46.321,37.463,46.677,37.633,47.701z M91.84,103.335c-0.93,0.592-3.105-0.062-3.997,0.57
			c-0.833-0.074-0.874,0.645-1.71,0.569c-0.197,0.562-1.594-0.069-1.713,0.57c-1.104-0.055-2.1-0.008-2.852,0.286
			c-7.588-0.101-14.746,0.183-21.684,0c-3.634-0.078-6.761-0.657-9.983-1.144c-3.283-0.427-7.066-0.354-10.275-0.854
			c-5.33,0.468-11.375,0.227-16.83,0.57c-0.572,0.099-0.895-0.061-0.857-0.57h-1.425c-0.444-0.066-1.333-1.096-1.714-0.286
			c-0.865-0.353,0.312-0.981,0-1.71c0.004-0.76-0.107-1.63,0.287-1.999c0.018-1.504,0.949-2.093,0.857-3.708
			c2.86-2.75,5.831-5.388,8.842-7.986c2.748-1.344,5.506-2.676,8.846-3.426c1.166-0.83,2.996-0.996,3.993-1.999
			c1.602-0.396,2.235-1.755,3.712-2.278c-0.211-0.778,0.562-0.574,0.568-1.144c0.41-0.063,0.1-0.853,0.568-0.854
			c-0.006-0.961,0.395-1.51,0.857-1.998c0.32-1.581,1.687-2.115,1.996-3.707c-0.416-3.772-1.002-7.37-1.426-11.126
			c-0.578-3.512-0.566-7.615-1.428-10.842c0.144-3.853-0.312-8.301,0.285-11.699c1.4-4.972,4.093-8.65,6.562-12.552
			c1.9-1.05,3.057-2.839,5.135-3.707c0.754-0.298,1.75-0.343,2.854-0.288c0.511,0.037,0.603-0.35,1.142-0.285
			c2.959-0.297,3.345,1.979,4.849,3.14c0.042,1.29,1.271,1.392,1.142,2.853c1.017,0.314,0.718,1.945,1.429,2.566
			c0.455,7.406,0.955,16.08,0.284,23.68c-0.407,0.543-0.662,1.239-0.856,1.999c-0.455,0.397-0.728,0.979-0.854,1.71
			c-0.801,0.908-1.453,1.973-1.996,3.14c-0.524,0.427-0.709,1.188-1.43,1.425c-0.879,0.072-0.873,1.027-1.425,1.428
			c-0.701,1.201-1.137,2.666-1.996,3.708c0.215,1.549-0.452,2.211-0.286,3.709c0.013,0.967-0.666,1.236-1.142,1.711
			c-0.52,0.338-0.225,1.487-0.57,1.998v2.854c0.353,1.454,1.316,2.296,1.998,3.422c1.18,0.626,2.471,1.145,3.135,2.282
			c1.604-0.267,1.936,0.728,3.143,0.856c0.814,0.42,1.887,0.584,2.566,1.143c9.274,1.091,17.213,3.519,21.11,9.986
			C92.406,97.833,91.688,100.143,91.84,103.335z M117.803,52.552h-2.854c-0.656-0.294-0.921-0.979-1.995-0.856H96.975
			c-4.15,0.863-8.889,0.017-13.979,0.284c-0.918,0.891-2.162,1.454-2.854,2.568c0.551,3.24-1.136,9.203,1.43,11.126
			c0.684,0.176,1.299,0.412,2.283,0.287c0.682,0.173,2.065-0.355,2.28,0.284c1.212,0.501,3.212,0.213,4.851,0.287
			c0.213,0.645,1.6,0.11,2.283,0.284h7.987c2.771-0.75,5.67-1.368,8.845-1.713c2.516,0.141,4.623-0.131,6.276-0.854
			c0.353-0.881,0.938-1.532,1.709-1.998C118.162,58.848,118.057,55.622,117.803,52.552z M84.42,60.255
			c-0.559-0.949,0.252-2.973,0.285-4.278c0.918,0.062,1.207-0.505,2.281-0.285C86.281,57.36,85.031,58.489,84.42,60.255z
			 M88.129,59.4c-0.742,0.778-0.01,3.033-1.996,2.568c-0.371-1.944,1.898-3.581,1.71-6.277h1.427
			C89.215,57.25,88.316,57.968,88.129,59.4z M92.125,60.826c-1.078-0.221-1.367,0.347-2.283,0.286
			c0.137-2.051,0.865-3.51,1.424-5.136h2.568C93.594,57.926,92.453,58.967,92.125,60.826z M94.977,60.826
			c-0.09-0.661,0.047-1.098,0.285-1.426c0.49,0.365,1.119,0.587,1.143,1.426H94.977z M98.686,58.545
			c-1.203-0.036-1.369-1.107-2.567-1.144c-0.037-0.512,0.348-0.603,0.286-1.141h2.851C99.496,57.453,98.701,57.608,98.686,58.545z
			 M102.964,59.97c-0.415,0.439-1.458,0.249-2.282,0.285c0.15-1.087,0.598-1.877,0.857-2.854
			C102.672,57.695,103.486,58.849,102.964,59.97z M108.102,58.26c-0.664,0.567-2.271-1.064-1.428-1.999
			C107.939,56.136,108.227,56.991,108.102,58.26z M114.662,58.545c-1.307-0.218-1.9-1.144-2.854-1.713
			c0.438-0.607,1.971-0.121,2.282-0.855C114.648,56.467,114.706,57.453,114.662,58.545z"/>
	</g>
</g>
</svg>
