<?xml version="1.0" encoding="utf-8"?>
<!-- Generator: Adobe Illustrator 16.0.0, SVG Export Plug-In . SVG Version: 6.00 Build 0)  -->
<!DOCTYPE svg PUBLIC "-//W3C//DTD SVG 1.1//EN" "http://www.w3.org/Graphics/SVG/1.1/DTD/svg11.dtd">
<svg version="1.1" id="Layer_1" xmlns="http://www.w3.org/2000/svg"  x="0px" y="0px"
	 width="120px" height="120px" viewBox="0 0 120 120" enable-background="new 0 0 120 120" xml:space="preserve">
<g id="file6">
	<g>
		<path d="M100.48,79.279c-0.146-1.855-1.537-2.457-1.715-4.277c-0.643-9.082-0.824-19.421-1.143-27.959
			c0.082-1.727,0.725-2.891,0.855-4.567c0.17-3.854,0-7.751,0-12.267c0-4.403-0.031-8.854-0.855-12.553
			c-1.793,0.012-3.338,0.275-4.852,0.571c-0.816-0.513-1.65-1.011-3.139-0.856c-15.58-0.014-30.713-0.48-46.504-0.286
			c-0.408,0.159-0.695,0.445-0.852,0.856c-0.666,0.857-1.271,1.775-2,2.567c-0.533,0.503,0.341,0.833-0.283,1.428
			c-0.506,0.257-0.885,0.638-1.145,1.14c-1.535,1.506-3.028,3.059-3.994,5.136c-1.012,0.508-1.178,1.862-1.996,2.566
			c-0.808,0.719-0.904,2.14-1.711,2.855c-0.072,1.449-1.232,1.808-1.713,2.853c-0.652,0.964-1.864,1.364-1.999,2.854v6.559
			c0.199,1.707,0.764,3.045,0.86,4.852c-0.504,8.669-0.573,17.866-0.573,27.103c0,9.342-0.373,18.662,0,27.394
			c-0.037,1.194,0.52,1.593,0,2.565c-0.921,0.475-0.326,1.547,0,2.282c1.263,1.11,3.597,0.282,5.422,0.282
			c1.608-0.579,3.925-0.443,5.703-0.854c9.27-0.157,15.932,0.408,24.253-0.287c7.937-0.823,16.461-0.51,24.819-0.285
			c2.576,0.354,6.125,0.999,8.56,0.572c0.72-0.52,1.254-1.222,1.424-2.284c0.193-1.14,0.859-1.804,1.144-2.854V90.977
			c0.632-1.938,1.373-3.764,1.714-5.99V80.42C100.342,80.369,100.502,79.73,100.48,79.279z M43.132,26.5
			c-0.607,0.135-0.543-0.406-0.568-0.855C42.915,25.77,43.15,26.01,43.132,26.5z M40.851,27.643h0.857
			c0.375,1.429,1.373,2.24,2.28,3.136c-0.226,1.175,0.44,1.466,0.287,2.568c-1.339-0.088-1.153-1.697-2.282-1.996
			c-0.412-1.014-1.158-1.696-1.996-2.282C40.162,28.476,40.595,28.146,40.851,27.643z M39.998,33.347
			c0.35,0.883,0.939,1.532,1.711,1.999c-0.26,0.771-1.052-0.241-1.143-0.573c-0.419-0.245-0.902-0.425-0.855-1.139
			c-0.769-0.563-1.365-1.3-1.712-2.283C39.105,31.576,39.082,32.93,39.998,33.347z M35.716,34.203
			c0.688,0.551,0.947,1.525,1.711,1.997c-0.761,0.569-2.514,0.147-3.423,0.573C34.409,35.747,35.236,35.152,35.716,34.203z
			 M91.92,104.957c-1.461,0.13-1.562-1.102-2.852-1.143h-5.994c-10.965-1.047-21.354,0.877-32.237,0.855
			c-1.154,0.268,0.36-1.546-0.572-1.997c-1.279-0.142-0.801,1.482-1.426,1.997h-3.992c-1.307-0.203-2.897,0.322-3.426,0
			c0.395-1.65,1.762-3.361,1.143-5.135c-1.836-0.312-2.051,0.99-2.854,1.71c-0.23,1.291-1.136,1.905-1.143,3.425
			c-1.217-0.115-2.938,0.271-3.709-0.285c0.227-2.521,2.334-4.395,1.712-6.847c-2.282,0.188-2.661,2.28-3.421,3.992
			c-1.025-0.597-0.574-2.759,0.284-3.138c0.129-1.302,0.731-2.121,1.142-3.141c0.437-2.162,2.357-4.25,1.711-6.562
			c-1.307-0.166-1.328,0.955-1.998,1.432c-0.108,0.577-0.832,1.984-1.139,1.426v-2.281c0.359-1.258,1.084-2.149,1.709-3.143
			c0.438-2.321,1.512-4.008,2-6.273c0.236-2.007,2.036-4.322,0.855-5.99c-1.262-0.12-2.002,0.281-2.57,0.854
			c-0.688,0.088-1.261,1.757-1.71,1.145c-0.145-11.082,0.505-21.372,0.286-32.526c0.174-1.316-0.645-1.642-0.57-2.852h4.277
			c1.933-0.351,3.837-0.73,6.275-0.571c1.902-0.567,4.27-0.679,5.708-1.714c0.261-0.498,0.099-1.421,0.57-1.709
			c-0.446-2.504-0.653-5.243-1.142-7.702c-0.416-2.533-1.231-4.668-1.426-7.419c2.91-0.171,6.156-1.072,9.129-0.285
			c10.76-0.206,19.913,1.196,30.528,1.14c1.891,0.156,4.156,0.968,5.99,0.286c0.006,1.24,0.094,2.566-0.285,3.425
			c0.543,1.072,0.027,3.204,0.572,4.278c0.281,13.504,0.344,27.232,0.281,41.084c-2.855-1.327-6.469-1.899-10.842-1.714
			c-3.5,0.402-6.529,1.271-9.133,2.568c-2.369,1.146-3.713,3.32-5.701,4.851c-0.412,1.396-1.49,2.125-1.996,3.422
			c-0.604,1.211-1.244,2.371-1.715,3.711c0.189,1.9,0.142,4.047,0.572,5.706c0.342,1.561,1.47,2.334,2.283,3.423
			c0.465,1.437,1.163,2.638,1.711,3.994c0.608,0.913,1.344,1.698,1.998,2.567c2.452,1.635,5.172,3.008,8.846,3.425h5.134
			c2.071-0.4,3.989-0.958,5.422-1.999c0.89-0.344,1.237-1.23,2.282-1.426c0.082-0.584,0.771-0.562,0.855-1.145
			c0.409,0.152,0.694-1.107,0.854-0.281C93.58,100.723,93.789,103.88,91.92,104.957z M97.342,85.557
			c-0.295,1.608-1.385,2.422-2,3.711c-0.422,1.479-1.354,2.446-1.711,3.992c-1.109,1.076-2.795,1.579-3.709,2.854
			c-1.84,0.349-2.955,1.419-4.566,1.995c-0.445,0.023-1.088-0.137-1.137,0.287c-3.023,0.166-5.428-0.28-7.705-0.854
			c-0.01-0.278-0.348-0.224-0.572-0.286c-0.811-0.807-2.039-1.191-2.564-2.279c-1.148-0.468-1.283-1.953-2.283-2.568
			c-0.484-2.268-1.225-4.291-1.141-7.133c0.885-3.205,2.959-5.221,4.854-7.42c1.721-1.035,3.395-2.119,5.135-3.138
			c1.367-0.058,2.09-0.762,3.709-0.567c-0.053-0.244,0.107-0.271,0.283-0.285h4.854c1.75-0.231,2.453,0.587,3.709,0.854
			c0.426,0.521,1.189,0.711,1.424,1.426c-0.23,1.187,0.832,1.071,1.143,1.711c0.867,0.942,1.537,2.078,2.283,3.141v4.562h-0.004
			V85.557z M83.074,84.416c-1.662-0.048-2.736,0.496-4.564,0.284c-1.586,0.028-2.529,0.704-3.137,1.713
			c0.229,3.953,5.623,2.743,9.131,3.424c3.109-0.153,5.406,0.335,7.131-1.428c0.223-1.076,0.5-2.416,0-3.425
			C89.91,83.307,85.775,84.468,83.074,84.416z"/>
	</g>
</g>
</svg>
