<?xml version="1.0" encoding="utf-8"?>
<!-- Generator: Adobe Illustrator 16.0.0, SVG Export Plug-In . SVG Version: 6.00 Build 0)  -->
<!DOCTYPE svg PUBLIC "-//W3C//DTD SVG 1.1//EN" "http://www.w3.org/Graphics/SVG/1.1/DTD/svg11.dtd">
<svg version="1.1" id="Layer_1" xmlns="http://www.w3.org/2000/svg"  x="0px" y="0px"
	 width="120px" height="120px" viewBox="4 4 120 120" style="enable-background:new 4 4 120 120;" xml:space="preserve">
<g id="folder3">
	<g>
		<path d="M101.453,93.78c-0.598,1.116-0.287,3.137-1.428,3.708c-0.572,0.294-2.342-0.188-3.709,0
			c-1.303-0.122-3.14,0.292-3.992-0.282c-2.945,0-5.619-0.276-7.988-0.858c-3.721,0.657-8.648,0.104-12.838,0.284
			c-0.936-0.012-1.092-0.812-2.283-0.569c-2.412-0.033-4.619,0.14-6.562,0.569c-0.965-0.114,0.758-1.104-0.57-0.854
			c-0.764,0.472-1.504,0.969-2.566,1.143h-6.562c-1.086,0.161-3.299,0.684-4.279,0c1.584-2.979,3.23-5.898,4.564-9.131
			c0.602-1.68,1.361-3.204,2.281-4.564c0.258-0.882,0.713-1.568,1.141-2.281c0.74-0.215,1.168-1.603,0.574-2.282
			c-2.254-0.767-3.541,1.483-4.566,2.851c-0.82,1.942-2.084,3.432-2.854,5.422c-1.578,1.183-1.963,3.553-3.424,4.851
			c-0.225,1.108-0.898,1.768-1.428,2.571c-0.531,0.892-0.867,1.979-1.426,2.853c-2.389-0.013-4.312,0.44-6.561,0.567
			c1.178-3.194,2.502-6.243,4.279-8.842c0.658-1.529,1.562-2.813,2.281-4.281c0.771-1.188,2.434-2.814,1.711-4.565
			c-2.113-1.084-3.021,1.3-4.277,1.998c-0.82,1.463-2.125,2.438-2.855,3.994c-2.027,2.631-3.568,5.75-5.135,8.844v1.711
			c-0.039,0.386,1.16,0.861,0.287,1.142c-1.754-0.148-4.133,0.328-5.42-0.284c1.584-1.267,2.002-3.7,2.85-5.706
			c0.875-2.074,1.629-4.266,2.57-6.275c0.723-2.132,1.615-4.089,2.566-5.99c0.174-1.256,1.033-1.82,1.426-2.854
			c0.309-0.947,1.746-1.894,0.855-3.136c-2.412-0.938-3.572,1.707-4.848,2.853c-1.164,1.688-2.232,3.474-3.141,5.422
			c-1.791,3.909-3.543,7.869-4.848,12.265c-0.24,0.332-0.377,0.767-0.285,1.428c-0.373,0.71,0.836,1.186,0,1.429
			c-1.203-1.084-1.652-2.917-1.713-5.138c-0.051-0.621,0.232-0.905,0.855-0.857c0.039-0.529,0.188-0.951,0.57-1.137
			c1.008-4.511,2.941-8.094,3.996-12.557c1.084-1.67,1.395-4.119,2.281-5.987c0.617-0.813,0.809-2.047,1.426-2.854
			c0.188-0.994,1.049-2.381,0.285-3.424c-1.613-0.678-2.58,1.545-3.709,2.281c-0.562,1.718-1.715,2.854-2.281,4.564
			c-0.758,1.525-1.521,3.041-2.283,4.565c-0.664,1.618-1.09,3.47-1.996,4.851c0.309-0.905-1.107-2.398,0.287-2.567
			c0.547-0.593,0.898-1.383,1.424-1.999c1.004-3.846,2.133-7.564,3.424-11.125c0.609-1.863,1.223-3.723,1.998-5.42
			c0.328-1.814,2.396-3.244,1.426-5.422c-0.621-0.477-2.57-0.459-2.854,0.287c-0.85,0.021-1.184,2.025-1.711,1.424
			c0.578-1.419,1.057-2.937,1.428-4.563c0.607-1.159,1.744-2.993,0.566-4.28c-3.119-1.023-3.957,2.433-5.133,4.28
			c-0.877,2.547-1.596,5.253-2.852,7.416c0.158-4.214,1.188-7.559,0.854-12.265C21.14,46.096,21.797,45.99,21.568,45
			c0.182-4.193-0.371-9.119,0.285-12.84c4.213,0.222,7.5-0.486,10.84-1.14c4.896,0.104,6.59-0.462,10.842,0.285
			c2.432,2.419,3.25,6.448,4.566,9.984c0.654,0.577,1.447,1.022,1.994,1.712c0.84,0.3,1.893,0.393,2.57,0.856
			c12.469,0.119,24.614-0.999,36.801-0.284c3.123,0.775,6.556,1.245,9.13,2.563c1.271-0.222,1.715,0.383,2.854,0.286
			c0.495,0.647,2.092,0.188,2.28,1.142c0.588,1.223,0.062,2.677,0,4.28c-0.137,3.543,0.107,7.859,0,11.698
			c1.375,0.147,1.892,1.15,3.422,1.141c2.06-1.585,1.431-5.029,1.431-8.274V46.42c-0.226-0.06-0.332-0.239-0.285-0.567
			c-0.547-0.787-1.164-1.5-1.715-2.283c-0.545-0.783-2.162-0.498-2.565-1.43c-0.642-4.255,1.676-8.312-0.57-10.839
			C98,30.667,91.238,31.337,86.045,30.442c-11.455,0.91-24.973-0.247-35.375,1.713c-0.914-2.316-2.018-4.449-3.711-5.989
			c-4.156-1.897-7.457-1.179-12.266-1.426c-4.504,0.631-8.135,2.135-13.123,2.282c-0.842,0.394-1.154,1.316-1.998,1.71
			c-0.475,0.764-1.967,0.505-2.568,1.143c-0.486,1.605-1.4,2.777-1.711,4.563c-0.164,3.828,0.346,8.332-0.285,11.695
			c0.646,0.308,0.109,1.792,0.285,2.568v9.415c0.604,4.149,1.084,8.426,1.711,12.554v7.418c0.699,3.473,0.658,7.553,0.859,11.412
			c0.229,4.52,1.248,8.341,3.137,11.128c0.713-0.048,0.891,0.437,1.139,0.854c1.74,0.547,3.494,1.072,5.422,1.427h10.842
			c8.75-1.237,20.084,0.114,28.527-1.427h13.412c0.939,0.199,1.822,0.459,2.854,0.572c6.378,0.143,12.816,1.555,19.396,0.566
			c1.424-0.86,2.08-2.487,3.139-3.709c0.607-2.676,1.804-5.975,0.572-8.842C103.018,89.636,102.967,92.438,101.453,93.78z
			 M54.951,34.438c5.736-0.481,13.371-0.461,19.113,0c7.324-0.192,14.09,0.173,20.258,1.141h5.135
			c-0.215,1.788-0.389,3.605-0.285,5.706c-3.098-0.991-6.098-2.082-9.703-2.566c-7.748,0.415-15.762,0.183-23.393-0.288
			c-4.412,0.182-8.229-0.072-13.123,0c-0.555-1.063-0.904-2.327-1.141-3.707C52.986,34.761,53.598,34.228,54.951,34.438z
			 M112.578,72.956c-1.201-0.131-1.436-1.228-3.137-0.858h-3.996c-7.863-0.979-17.26-0.427-25.965-0.568
			c-0.332,0.136-0.642,0.302-0.853,0.568c-0.642,0.881-1.049,1.99-1.715,2.854c0.004,1.825-0.824,4.153,0.287,5.419
			c0.573,0.857,2.344,0.512,3.711,0.572c0.121,0.637,1.403,0.113,1.996,0.285H94.32c2.685,0.356,5.623,0.463,8.558,0.571h4.565
			c1.515-0.26,3.224,0.415,3.99,0c0.16-0.698,1.107-0.606,0.859-1.715c0.414-0.53,0.012-1.888,0.572-2.28
			C112.961,75.736,113.199,74.652,112.578,72.956z M80.055,75.807H79.48v-0.57h0.574V75.807L80.055,75.807z M87.758,76.094
			c-0.146-0.146,0.207-0.367,0.285-0.287C88.191,75.952,87.838,76.172,87.758,76.094z M102.592,77.805h-1.711
			c0.393-0.367,0.393-1.351,0-1.711c-1.391-0.158-1.428,1.042-1.996,1.711c-1.176,0.092-0.025-1.492,0-1.998
			c1.631,0.204,2.549-0.306,3.994-0.283C102.709,76.205,102.469,76.822,102.592,77.805z M106.873,76.094
			c-0.316,1.102,1.01,1.016,0.283,1.711h-1.139v-1.998c-0.187-0.287-0.658-0.293-0.572-0.854c0.504-0.164,1.678,0.343,1.711-0.287
			C108.438,74.645,106.766,75.504,106.873,76.094z M108.586,77.52C108.613,77.861,108.17,77.695,108.586,77.52
			C108.555,77.173,108.998,77.344,108.586,77.52z"/>
	</g>
</g>
</svg>
