<?xml version="1.0" encoding="utf-8"?>
<!-- Generator: Adobe Illustrator 16.0.0, SVG Export Plug-In . SVG Version: 6.00 Build 0)  -->
<!DOCTYPE svg PUBLIC "-//W3C//DTD SVG 1.1//EN" "http://www.w3.org/Graphics/SVG/1.1/DTD/svg11.dtd">
<svg version="1.1" id="Layer_1" xmlns="http://www.w3.org/2000/svg"  x="0px" y="0px"
	 width="120px" height="120px" viewBox="4 4 120 120" style="enable-background:new 4 4 120 120;" xml:space="preserve">
<g id="reply">
	<g>
		<path d="M117.1,92c-1-1.5-1.399-3.5-2.199-5.1c-0.9-1.5-1.5-3.4-2.5-4.801c-1.5-3.399-3.9-5.899-5.7-8.899
			c-2.3-2.5-4.3-5.4-6.7-7.9c-4.4-5.2-9.8-9.5-16.2-12.7c-3.399-1.4-6.7-3.1-10.5-4.1c-1.899-0.5-3.7-1.1-5.7-1.6
			c-1.8-0.6-3.8-1-5.399-1.9c-1.2,0.2-1.6-0.6-2.9-0.3c-0.2-0.8-2.4,0.2-2.2-1c0.6-6,0.3-12.7-0.3-18.4c-1.3-0.1-2.2-2.4-3.2-1
			c-1,0.4-1.7,1.1-2.9,1.3c-2,1.8-3.8,3.9-6.7,4.8c-2.4,2.9-5.4,5.2-8.6,7.3c-3.1,2.2-5.7,4.9-8.9,7c-3.2,2.1-5.3,5.3-8.9,7
			c-1.1,1.6-3.5,1.8-4.5,3.5C11.7,56.5,9.4,56.8,9,59c0,1.6,1.4,1.8,1.9,2.9c0.6,1.1,1.2,2.2,2.2,2.9c2,1.4,3,3.8,5.1,5.101
			c2.1,2.899,5,5.199,7.3,8c1.2,0.5,1.7,1.699,2.2,2.899c0.8,0.4,1.5,0.8,2.5,1c0.5,0.601,0.9,1.5,1.9,1.601
			c1.4,1.699,3,3.199,4.4,4.8c1.3,1.899,3.4,2.899,4.5,5.1c1.6,1.601,3.2,3.2,4.8,4.8c1.5,1.5,2.8,3.801,5.7,3.801
			c1.5-0.2,2.3-0.9,2.9-1.9c0.7-1.1,0.5-2.4,1-3.8c-0.2-3.3,0.3-6,0.6-8.9V79c0.2-0.8-0.4-2.3,0.3-2.5c2.9,0.3,6.3,0.3,8.9,1
			c1.8-0.2,2.7,0.5,4.5,0.3c0.899,0.8,3,0.4,3.8,1.3c5.4,1.2,10.3,2.801,15.3,4.5c0.3,0.4,0.9,0.601,1.3,1
			C89.8,85.7,90.5,85.9,90.7,86.5c1.6,0.5,2.399-0.9,3.2-0.3c4.399,2.8,9.199,5.2,13,8.6c1.399,0.4,2,1.601,3.199,2.2
			c0.801,1,2.101,1.5,2.9,2.5c0.9,0.9,2.2,1.4,2.9,2.5c0.699,0.1,0.699,1,1.3,1.3c0,0.4,0.399,0.4,0.3,1c0.4,0.101,0.7,0.5,0.6-0.3
			C120.4,100.2,117.8,95.2,117.1,92z M28.1,61.5c-0.1,0.7-0.3,1.4-1,1.6c0.1,0.7-0.6,1.1-1,1.6c-0.2,0.399-0.1,1.5-1,1.3
			c0.9-2,2.1-3.7,2.9-5.7C29.2,59.9,28.7,61.6,28.1,61.5z M44.9,84.7c0.1-0.4,0.3-0.2,0.3,0C45.2,85,44.9,84.8,44.9,84.7z M71.3,72
			c-0.2-0.2,0.2-0.4,0.3-0.3C71.8,71.8,71.4,72,71.3,72z M107.6,87.5c-1.899-0.7-3-2.1-4.8-2.9C101.3,83.4,99.7,82.4,98,81.4
			c-0.6-1.101-1.1-2.301-2.2-2.9c0.5-0.5,0.5-2.1,0-2.5c-1.2-0.2-1.7,0.2-2.2,0.6c0,0.9-1.399,0.601-1.3,1.601
			c-0.6-0.101,0-1.5-1.3-1c-0.3-0.601-1.1-0.601-1.6-1c-2.2,0.5-3.2,0.1-4.801-0.601c0.7-1.199,2-3.199,1-5.1
			c-2.899-0.3-3.5,1.6-4.5,3.2C79.8,73.8,79.5,73,78.2,73.1c-0.101-1.899,1.2-2.399,1-4.5c-0.101-0.5-0.5-0.5-0.601-1
			C76.7,67.4,75.7,68.1,75.1,69.2c-0.399,0.5-0.899,0.8-1,1.6c-0.5,0.9-0.8,0.4-1.899,0.3c-0.5-1,1.2-2,1.3-3.5
			c1-0.899,1.6-2.199,1.6-4.1c-0.1-0.5-0.5-0.5-0.6-1c-2.1-0.1-3.2,0.8-3.8,2.2c-1.3,0.8-1.8,2.399-2.9,3.5v2.2
			c-1.399,0-2.3-0.4-3.5-0.601c0.8-1.6,2-2.899,2.5-4.8c-0.3-2-1.399-3.3-4.1-2.9c-2.1,1.2-3.1,3.4-4.1,5.7h-3.8
			c-1.1,0.101,0.8,1.2-0.3,1.3c-1,0.2-0.9-0.5-1.9-0.3c-0.6-0.1-0.2-1.2-1.3-1c-1,1.4-0.8,4.101-1.3,6c-0.2,2.2-0.6,4.3-1,6.4
			c-1,0.8-1.9,1.7-3.5,1.899c0.3-1.8,1.2-2.8,1-5.1c-0.1-0.7-1-0.7-1.3-1.3c-2.5,0.399-3.3,2.6-4.5,4.5c-1-0.7,0.3-1.8,0-2.9
			c0.7-0.6,0.4-2.1,1-2.899c0.3-1.801,1.6-4,0.6-6c-2.1,0.199-2.6,1.899-3.2,3.5c-1,1.3-1.6,3.1-2.2,4.8c-1-1-2.3-1.7-2.9-3.2
			c0.6-0.6,0.7-1.7,1-2.5c0.5-0.7,0.8-1.7,1-2.9c0.6-0.6,0.7-1.699,0.9-2.5c0.2-0.8,1-2.1,0.3-2.899c-2.2,0.4-2.7,2.399-4.1,3.5
			c-0.2,1.1-1,1.6-1.3,2.5C31,69.5,31.3,71,30,71c-1.5-1.3,0.3-3,0.3-4.8c0.7-0.3,0.3-1.8,1-2.2c-0.1-1.3,0.7-1.6,0.6-2.9
			c-0.3-1.6-1.2-2.6-2.9-2.9c0.1-1.6-0.7-2.3-1.6-2.9h-1.3c-1.7-0.1-1.7,1.5-2.9,1.9c-0.5,1.6-1.5,2.8-2.2,4.1
			c-0.8-0.2-0.7-1.4-1.6-1.6c1.3-3.4,4.8-4.7,7.6-6.7c3-1.9,5.6-4.1,8.3-6.4C41,42.7,47.1,39,51,33.2c0.9,0.9-0.2,2.3,0,3.5
			c-0.2,1.3-0.2,2.8-0.6,3.8c0.1,2.8-0.5,5-0.6,7.6c0.8,0.6,2.2,0.6,3.2,1c1.4,0,2,0.7,3.5,0.6c2.9,2.2,7.2,3,11.1,4.1
			c4.101,1.1,7.9,2.5,11.4,4.1c7.3,3.1,12.9,7.8,17.5,13.7c0.9,0.5,1.6,1.2,2.5,1.601c0.6,1.1,1.1,2.3,2.2,2.899
			c0.2,0.7,0.3,1.601,0.6,2.2C103.9,81.3,106.2,83.9,107.6,87.5C108,87.5,107.8,88,107.6,87.5z"/>
	</g>
</g>
</svg>
