<?xml version="1.0" encoding="utf-8"?>
<!-- Generator: Adobe Illustrator 16.0.0, SVG Export Plug-In . SVG Version: 6.00 Build 0)  -->
<!DOCTYPE svg PUBLIC "-//W3C//DTD SVG 1.1//EN" "http://www.w3.org/Graphics/SVG/1.1/DTD/svg11.dtd">
<svg version="1.1" id="Layer_1" xmlns="http://www.w3.org/2000/svg"  x="0px" y="0px"
	 width="120px" height="120px" viewBox="4 4 120 120" style="enable-background:new 4 4 120 120;" xml:space="preserve">
<g id="reply-all">
	<g>
		<path d="M48.3,87.1c-0.7-0.699-1.9-1-3.1-1.3c-0.8-1.6-2.9-1.899-3.8-3.5c-1.4-1.1-2.7-2.3-4.1-3.5c-2.5-2.399-5.5-4.3-8.5-6.3
			c-1.3-2-3-3.7-5-5c-0.7-1-1.5-1.8-2.5-2.5c-0.5-1.2-2-1.4-2.2-2.8c1.9-0.5,2.5-2.3,4.4-2.8c1-1.5,2.8-2.2,4.1-3.5
			c2.6-2.4,5.5-4.6,7.9-7.2c1.4-1.1,2.6-2.4,3.8-3.8c0.8-0.5,1.3-1.3,1.9-1.9c0.5-0.7,1.5-1,1.9-1.9c2.6-2.4,5.5-4.6,7.9-7.2
			c0.6-3,2.6-6.1,1.6-9.7c-0.9-0.4-1.1-1.6-2.8-1.3c-0.4,0.2-0.8,0.5-0.9,0.9c-1.3,1.3-3,2.3-4.1,3.8c-0.8,0.4-1.2,1.3-2.2,1.6
			c-0.6,0.7-1,1.7-2.2,1.9c-2.4,3-5.9,4.7-8.5,7.5c-5.5,5.1-10,11.1-15.7,16c-1.2,1-3,1.4-3.8,2.8c-1.6,1-3.1,1.8-3.4,3.6
			c-0.1,1.2,0.7,1.4,1.3,1.9c0.4,0.7,0.6,1.7,0.9,2.5C17,71,21.7,77.7,27.5,83.3c2.5,3.3,5.5,6,8.5,8.8c1.6,1.2,2.7,2.9,4.7,3.801
			c1.4,1.6,2.9,2.899,6.3,2.5c0.9-0.7,1.8-1.4,2.5-2.2c0-0.4-0.1-0.9,0.3-0.9c0.3-2-0.4-3.2-0.9-4.399
			C49.1,89.2,48.7,88.2,48.3,87.1z M118.6,101.2c-0.199-1.3-0.5-2.5-0.6-3.8c-0.2-3.2,0.5-5.4,0.3-8.5c-0.5-1.601-0.5-3.7-1.3-5
			c0.2-1.301-0.5-1.601-0.3-2.801c-0.7-0.5-0.3-2.1-0.9-2.5c-0.7-3.6-1.7-6.899-3.1-9.699C110.6,62.4,106.6,57.8,102.3,53.5
			c-2.1-1.1-4-2.5-5.7-4.1c-2.5-0.3-4.1-1.4-6.6-1.6c-0.9-0.5-1.9-0.8-3.1-0.9c-0.601-0.7-2.2-0.5-2.801-1.3
			c-1.199,0.2-1.5-0.6-2.8-0.3c-0.2-0.8-2.3,0.2-2.2-0.9c0.601-5.9,0.2-12.5-0.3-18.2c-0.8-0.4-1.5-0.8-2.2-1.3
			c-0.5,0.2-0.8,0.5-0.899,0.9c-2.5,1.9-4.9,3.8-7.5,5.7c-0.7,0.9-2.3,0.8-3.101,1.6c-0.1,0.2-0.3,0.4-0.6,0.3
			c-1.1,1.4-2.4,2.6-3.5,4.1c-1.2-0.1-1,1.3-2.2,1.3c-0.5,0.7-1.7,0.6-1.9,1.6c-1.4,0.9-2.6,2-3.8,3.1c-1,0.1-1.8,0.3-2.5,0.6
			c-1.5,1.3-3.2,2.4-4.7,3.8s-2.8,2.9-4.7,3.8c-1.4,1.5-3.3,2.4-5,3.5c-1,2-4,1.9-4.4,4.4c-0.2,1.5,1.3,1.5,1.6,2.5
			c0.4,1,1.4,1.4,1.6,2.5c2,0.9,2.8,2.801,4.4,4.101c2.6,3,5.5,5.8,8.2,8.8c0.9,0.3,2,0.5,2.8,0.9c0.7,1.399,1.8,2.399,2.5,3.8
			c3.9,2.8,6.7,6.7,10,10.1c1.6,1.8,3.2,3.5,4.7,5.3c2.101,1.301,2.9,4,6.301,4.101c1.399-0.2,2.199-0.9,2.8-1.9
			c0.6-1.1,0.5-2.399,0.899-3.8C77.4,92.7,77.9,90,78.2,87.2V79c0.2-0.8-0.4-2.3,0.3-2.5c6.3,0.5,12.6,1,17.9,2.5
			c1.399,1.3,2.899,2.5,4.1,4.1c2.3,0.5,2.9,2.7,4.7,3.801c0.1,1.199,1.399,1.3,1.6,2.5c1,0.399,0.9,1.8,1.9,2.199
			c0.7,2.101,2.2,3.5,2.8,5.7c0.7,0.8,1.8,1.101,2.5,1.9c0.5,1.2,1.3,2.1,1.6,3.5c0.9,0.899,1,2.6,3.101,2.2
			C119.5,103.9,118.6,102.2,118.6,101.2z M50.5,62c-0.1,0.7-0.3,1.4-0.9,1.6c0.1,0.7-0.6,1.1-0.9,1.6c-0.2,0.399-0.1,1.5-0.9,1.3
			c0.8-2,2-3.6,2.8-5.7C51.6,60.4,51.1,62.1,50.5,62z M67.1,84.9c0.101-0.4,0.301-0.2,0.301,0C67.4,85.3,67.1,85.1,67.1,84.9z
			 M107.6,81.8c-0.6-0.7-0.899-1.6-1.899-1.899c-0.5-0.601-0.8-1.5-1.9-1.601c0.2-1-0.5-0.899-0.3-1.899c-1.4-1.2-3.1-1.9-4.1-3.5
			C97.8,73,97.4,71.8,95.6,72c-0.5-1.3-0.199-3.3-1.3-4.1C92.5,67.8,92.6,69.6,92.4,71H89.6c-0.1-3.7,0.101-7.9-2.5-9.1
			c-1.8,0-1.6,1.9-2.199,3.1c0,1.6-0.5,2.8-0.301,4.7c-1,0-0.8-1.101-0.899-1.9V65c-0.4-1.4-1.101-2.5-2.2-3.1
			c-0.7,0.2-1,0.7-1.6,0.9C79.6,63.3,79.8,64.4,79.3,64.7c-0.2,1.2,0.4,3.1-0.3,3.8c-1.4,0-0.8-2.1-0.9-3.5
			c-0.5-0.4-0.1-1.8-0.6-2.2c-3.3-0.2-2.5,4-2.2,6.601C73.9,69.8,74.6,68.2,73.4,68.5c-1,1.4-0.801,4.1-1.301,6
			c-0.199,2.2-0.6,4.2-0.899,6.3c-1,0.8-1.8,1.7-3.5,1.9c0.2-1.7,1.2-2.8,0.899-5c-0.1-0.7-1-0.7-1.3-1.3C64.8,76.8,64,79,62.9,80.8
			c-0.7,0.101-0.1-1.1-0.3-1.6c0.9,0.2-0.2-1.5,0.6-1.3c0-1.2,0.3-2,0.6-2.801c0.3-1.8,1.601-4,0.6-6c-2.3,0-2.3,2.301-3.5,3.5
			c-0.5,1.7-1.4,3-1.9,4.7c-1-1-2.3-1.7-2.8-3.1c0.7-0.5,0.4-2.101,1.3-2.5c-0.1-1.3,0.7-1.601,0.6-2.8c0.5-0.7,0.8-1.7,0.9-2.801
			c0.4-0.6,0.9-1.899,0.3-2.5c-2.2,0.3-2.6,2.4-4.1,3.5c-0.2,1-1,1.5-1.3,2.5c-0.8,0.4-0.6,1.9-1.9,1.9c-0.7-0.6-0.7-1.6-0.3-2.5
			c0.5-0.6,0.3-1.8,0.9-2.2c0.1-2,1.1-3.1,1.3-5c0.1-1.8-0.9-2.7-2.5-3c0.1-1.6-0.7-2.2-1.6-2.8h-1.3c-1.7-0.1-1.7,1.5-2.8,1.9
			c-0.5,1.6-1.4,2.7-2.2,4.1c-0.8-0.2-0.7-1.4-1.6-1.6c0.1-1,1-1.6,1.6-2.2c0.5-0.6,0.9-1.5,1.9-1.6c0.3-0.9,1.4-1.1,2.2-1.6
			c0.8-0.3,1.2-1.1,2.2-1.3c1.2-1.2,2.8-2,4.1-3.1c1.3-1.1,2.6-2.2,4.1-3.1c2.5-2.3,5.6-4,8.2-6.3C69,39.3,71.1,36.7,73.1,34
			c0.301,0,0.2,0.4,0.301,0.6c-0.5,4.7-1.2,9.3-1.601,14.1c0.8,0.6,2.101,0.6,3.101,0.9c1.399,0,2,0.7,3.5,0.6
			c2.8,2.1,7,2.8,10.699,4.1c4,0.9,7.5,2.2,10.7,3.8c1.5,1.8,2.9,3.6,4.101,5.7c1,1.601,1.6,3,2.5,5c0.1,0.2,0.6,0.5,0.6,0.601
			c0.1,0.3-0.1,0.699,0,0.899c0.2,0.4,0.4,0.5,0.6,1.3c0.101,0.4,0.4,0.9,0.601,1.9c0.2,0.7,0.899,2.7,1.3,4.1
			c0.7,2.5,1.5,5.101,1.9,7.9C109.9,84.5,109.2,82.7,107.6,81.8z"/>
	</g>
</g>
</svg>
