<?xml version="1.0" encoding="utf-8"?>
<!-- Generator: Adobe Illustrator 16.0.0, SVG Export Plug-In . SVG Version: 6.00 Build 0)  -->
<!DOCTYPE svg PUBLIC "-//W3C//DTD SVG 1.1//EN" "http://www.w3.org/Graphics/SVG/1.1/DTD/svg11.dtd">
<svg version="1.1" id="Layer_1" xmlns="http://www.w3.org/2000/svg"  x="0px" y="0px"
	 width="120px" height="120px" viewBox="4 4 120 120" style="enable-background:new 4 4 120 120;" xml:space="preserve">
<g id="resize-small2">
	<g>
		<path d="M112.43,22.194c-0.797-0.916-1.5-1.924-2.281-2.854c-0.799-0.914-1.549-1.877-2.567-2.57
			c-0.877-0.83-1.276-2.145-2.854-2.279c-1.754-0.141-2.724,0.507-4.562,0.284c-3.67,4.846-8.457,9.155-12.553,13.122
			c-0.615,0.599-0.978,1.62-1.998,1.714c-2.445-1.547-4.422-3.562-7.133-4.851c-1.215-1.162-1.523-3.229-4.277-2.854
			c-2.332,0.996-2.445,4.213-2.566,7.418c-0.645,0.212-0.113,1.6-0.289,2.284c0.203,1.056-0.484,1.222-0.283,2.28
			c0.215,1.925-0.459,2.966-0.287,4.85c-0.483,2.938-0.271,6.572-0.854,9.416c-0.008,3.432-0.327,7.178,1.427,8.843
			c3.756,0.688,8.403,0.122,11.983-0.284c2.185,0.223,4.289-0.184,6.562-0.285c4.041-0.178,8.236,0.125,11.695-0.855
			c1.098,0.021,2.043,0.782,3.137,0.571c0.98-0.188,1.713-1.069,1.998-1.998c0.312-2.307-1.111-2.879-1.998-3.994
			c-0.981-1.011-1.643-2.35-2.85-3.137c-0.555-1.443-1.826-2.171-2.855-3.141c-0.875-1.217-1.91-2.271-2.85-3.423
			c1.824-0.931,3.217-2.298,4.848-3.423c1.455-1.302,3.174-2.342,4.566-3.707c1.646-1.114,2.957-2.561,4.564-3.71
			c1.018-1.741,3.562-1.953,3.992-4.28C114.104,23.754,112.785,23.452,112.43,22.194z M105.584,26.188
			c-0.502,0.26-0.523,0.998-0.859,1.425c-1.283,0.996-2.279,2.284-3.707,3.14c-0.018,0.172-0.041,0.339-0.283,0.283
			c-0.018,0.176-0.047,0.34-0.282,0.285c-0.242,1.284-1.476,1.572-1.716,2.854c-1.016,0.507-0.825,2.218-2.282,2.281
			c0.03,0.345-0.416,0.176,0,0c0.187-1.242,1.483-1.368,1.713-2.567c0.729-0.793,1.334-1.707,1.996-2.568h0.289
			c0.012-0.174,0.041-0.336,0.282-0.285c0.017-0.172,0.041-0.337,0.283-0.283c0.359-1.545,1.826-1.979,1.713-3.996
			c-1.756,0.339-2.473,1.713-3.137,3.139c-3.203,1.458-4.434,4.887-7.42,6.562c-0.625,1.657-2.254,2.313-1.996,4.851
			c-0.523,0.33-0.967,0.746-1.426,1.143c0.285,0.662,0.982,0.92,1.994,0.854c1.023,1.261,2.164,2.401,3.424,3.423
			c0.271,0.872,1.391,0.896,1.43,1.996c0.408,0.162,0.693,0.447,0.854,0.857c0.254,0.084,1.25,0.771,0.567,0.855
			c-1.819,0.973-1.672-2.254-3.992-1.713c-0.895,0.488,0.32,2.004-0.282,2.283c-0.896-0.059-2.097,0.193-2.567-0.284
			c0.082-1.698,0.063-3.298-1.142-3.708c-1.627,0.18-1.002,2.612-1.429,3.992c-1.034,0.275-0.241-1.282-1.141-1.139
			c-0.207-0.648-0.859-0.854-1.428-1.145c-0.24-0.994-0.797-1.675-1.711-1.996c-0.918-0.25-0.592,0.742-1.141,0.857
			c-0.953-0.012-2.314-1.093-3.14-0.285c-0.668-0.071-0.166-1.254,0-1.427c0.158-0.508,0.146-1.187,0.572-1.429
			c-0.045-1.141,0.729-2.482,0-3.424c-1.61-0.084-1.578,1.471-2.567,2c-0.064,1.555-1.082,2.154-1.146,3.707
			c-0.647-0.395-0.104-1.983-0.285-2.854c0.174-0.68,0.412-1.301,0.285-2.281c0.877-1.505,2.043-2.712,2.282-4.848
			c-0.037-0.818-1.188-0.523-1.996-0.574c0.472-2.854,0.572-6.081,0.857-9.127c1.234,0.189,0.98,1.867,1.996,2.281
			c0.191,1.234,1.318,1.533,1.426,2.854c1.428,1.423,2.566,3.139,3.996,4.566c2.096-1.805,4.521-3.279,6.273-5.424
			c1.908-2.084,3.697-4.289,6.562-5.422c0.321-0.256-0.019-0.635,0.569-1.139c1.903-1.524,3.479-3.37,4.853-5.42
			c0.633,0.035,0.121,1.211,0.287,1.711c0.809-0.297,1.188-0.297,1.996,0c0.645,1.159,1.36,2.25,1.426,3.993
			C106.488,25.761,106.004,25.938,105.584,26.188z M55.371,25.045c-0.438-0.511-1.674-0.229-1.713-1.139
			c-0.625-0.325-1.164-0.737-2.283-0.573c-2.082,0.865-2.521,3.373-4.277,4.564c-0.641,0.881-1.402,1.643-2.281,2.282
			c-0.797,0.729-0.971,2.075-2.281,2.284c-3.451-3.114-6.488-6.637-10.561-9.131c-1.059-1.127-1.896-2.477-3.135-3.423
			c-1.723-0.543-3.123-0.972-5.137-0.569c-2.236,1.187-3.387,3.463-5.135,5.133c-1.047,0.668-1.236,2.189-2.281,2.855
			c-0.311,1.402-1.736,1.688-1.713,3.424c-0.229,1.464,0.602,1.871,0.568,3.137c1.152,0.94,2.312,1.875,3.711,2.567
			c1.643,2.066,3.869,3.55,5.139,5.993c1.287,0.611,2.008,1.791,3.133,2.567c0.646,1.254,2.16,1.646,2.568,3.138
			c-1.303,1.262-2.291,2.843-3.422,4.281c-1.174,1.488-2.662,2.662-2.279,5.703c0.355,0.117,0.582,0.369,0.566,0.857
			c0.379,0.287,1.061,0.269,1.141,0.854c0.594,0.169,1.875-0.352,1.998,0.286c9.988,0.095,18.191-1.59,27.102-2.566
			c0.328-1.561,0.059-3.391,0.287-4.852c0.191-1.201,0.775-2.125,0.855-3.139c-0.096-4.185,0.611-7.567,0.572-11.696
			C55.996,33.741,55.17,29.907,55.371,25.045z M23.416,32.179c-0.459,0.081-0.49-0.271-0.855-0.284
			c-0.088-0.347,0.826-0.985,0.855-0.285V32.179z M24.844,27.044c0.322-0.627,0.953-0.949,1.143-1.713
			c0.777-0.208,0.572,0.565,1.139,0.568C26.729,26.648,25.652,26.71,24.844,27.044C24.873,27.388,24.43,27.218,24.844,27.044z
			 M33.404,53.575c0.113-1.121,1.25-1.219,1.426-2.281c0.424,0.43,0.459,1.25,0.572,1.997
			C34.412,53.062,34.301,53.716,33.404,53.575z M51.664,32.179c0.119,0.596-0.195,0.754-0.289,1.143
			c-0.156,0.888-0.23,1.857-0.568,2.563c-0.262,1.736-0.43,3.567-0.857,5.135v2.284c0.236,0.808-0.402,0.739-0.283,1.429v6.273
			c-0.814-0.992-1.191-2.42-1.713-3.707c-0.793-1.017-0.756-2.857-2.283-3.14c-1.381,0.044-1.117,1.731-1.141,3.14
			c0.385,1.611,0.646,3.35,1.426,4.563c-0.1,0.946-1.643,0.45-2.566,0.573c-0.24-1.47-0.838-2.586-1.428-3.713
			c-0.52-1.096-0.311-2.92-1.711-3.136c-1.189,0.139-0.902,1.76-1.43,2.567v1.713c0.057,1.125,1.031,2.4,0.574,3.138
			c-1.877-0.31-1.014-3.36-1.998-4.564c0.004-0.567,0.779-0.363,0.572-1.142c-1.043-0.86-1.84-1.968-3.139-2.566
			c0.334-0.807,1.414-0.871,2.283-1.143c-0.52-0.718-0.693-1.78-2.283-1.426c-1.273-1.297-2.023-3.113-2.283-5.42
			c-1.24-1.326-0.865-4.272-2.283-5.424c-2.676,0.289-0.973,4.014-1.711,5.707c-3.152-0.272-1.861-4.988-3.709-6.561
			c-0.486-0.014-0.736,0.21-0.852,0.568c-1.02-1.131,1.58-1.064,2.279-1.425c0.604-0.26-0.539-1.146-0.285-1.998
			c0.336-0.423,0.715-0.804,1.139-1.14c1.926,0.169,1.928,2.258,3.711,2.567c0.477,0.565-0.027,0.36,0,1.139
			c0.598,0.354,1.072,0.832,1.428,1.43c0.174-0.085,1.096-0.711,1.141,0c1.049,0.186,1.418,1.051,1.998,1.712
			c0.688,0.448,1.262,1.019,1.711,1.709c3.23,0.765,4.514,3.475,7.131,4.852c2.58-2.839,5.176-5.668,7.42-8.846
			C52.518,31.224,51.391,31.647,51.664,32.179z M98.166,26.188c0.078,0.076,0.432-0.138,0.285-0.289
			C98.373,25.822,98.016,26.041,98.166,26.188z M110.434,97.225c-3.768-2.869-6.858-6.569-9.981-9.699
			c-1.078-1.069-2.55-1.896-3.144-3.426c1.547-2.445,3.564-4.424,4.853-7.129c1.162-1.217,3.229-1.527,2.854-4.279
			c-0.548-2.02-3.177-1.963-5.138-2.569c-2.608-0.049-4.885-0.437-7.416-0.57c-4.812-0.422-9.797-0.663-14.553-1.14h-4.851
			c-1.16,0.361-2.338,0.705-3.139,1.427c-0.797,6.082,0.438,12.457,0.572,18.544c-0.217,3.45,0.357,6.108,0.283,9.416
			c0.131,0.918,0.549,1.544,0.57,2.569c-0.179,1.053-0.773,1.692-0.57,3.135c0.684,0.554,0.873,1.601,2,1.712
			c2.307,0.311,2.879-1.113,3.992-1.997c1.014-0.983,2.35-1.646,3.139-2.85c1.443-0.558,2.17-1.827,3.137-2.856
			c1.217-0.876,2.271-1.914,3.426-2.853c1.893,3.241,4.416,5.854,6.561,8.844c1.06,1.511,2.523,2.613,3.425,4.278
			c1.631,0.941,2.271,2.865,3.709,3.994c0.717-1.373,2.389-1.797,3.139-3.137c0.535-0.513,1.318-0.772,1.714-1.428
			c0.868-0.178,0.559-1.533,1.426-1.711c0.959-0.373,2.324-0.336,2.567-1.427c1.181-0.247,1.595-1.257,1.992-2.282
			C110.977,100.104,110.174,99.199,110.434,97.225z M76.768,95.799c-1.143-0.693-0.281-2.234,1.426-1.713
			C77.898,94.838,77.062,95.049,76.768,95.799z M98.736,97.798c-0.832-0.598-1.189-1.665-1.998-2.282
			c-0.445,0.026-0.988-0.039-0.855,0.568c-2.467-1.43-0.424-7.373-4.564-7.133c-0.713-0.047-0.893,0.439-1.141,0.855
			c-0.9-0.142-0.105,1.416-1.141,1.142v-1.142c-0.896-0.132-0.803,0.719-1.141,1.142c-0.691-0.446-1.265-1.021-1.715-1.712
			c-0.394-0.747-1.302-0.98-1.425-1.995c-0.896-0.134-0.805,0.717-1.144,1.141c-1.438-0.844-0.93-3.636-3.424-3.423
			c-1.364,1.65,0.531,4.217,1.142,5.705c0.153,1.391-1.136,1.335-1.427,2.283c-0.618,0.047-0.127-1.012-0.282-1.428
			c-1.25-1.891-2.09-4.188-3.713-5.707c-0.166-2.877-0.854-5.228-0.568-8.558c0.955-1.896,3.298-2.41,6.277-2.282
			c-0.246-0.425-0.718-0.613-1.429-0.57c0.398-0.652,1.988-0.107,2.853-0.285c0.978,0.357,2.461,0.205,3.14,0.855h2.569
			c1.041,0.004,1.278,0.811,1.994,1.142v-1.427c2.86,0.469,6.086,0.573,9.131,0.854c-0.19,1.238-1.869,0.984-2.28,1.999
			c-1.236,0.19-1.533,1.317-2.855,1.426c-1.422,1.431-3.137,2.566-4.562,3.994c1.314,2.013,3.238,3.418,4.275,5.706
			c1.031,0.589,1.541,1.691,2.568,2.281c0.016,0.394-0.133,0.628-0.283,0.854c0.65,0.779,1.264,1.592,1.998,2.283
			C98.332,95.042,98.332,96.842,98.736,97.798C99.082,97.768,98.91,98.212,98.736,97.798z M103.586,101.791
			c-0.637-1.553-1.512-2.861-2.283-4.28c-0.357-0.118-0.578-0.366-0.568-0.855c-0.174-0.015-0.338-0.044-0.282-0.283
			c-0.349,0.028-0.181-0.416,0,0c0.17,0.017,0.332,0.041,0.282,0.283c0.4-0.073,0.324-0.626,0.568-0.855
			c2.119,1.781,3.83,3.97,6.277,5.423C106.674,101.836,104.607,101.289,103.586,101.791z M47.383,72.691
			c-1.076-0.258-1.998-0.668-3.139-0.856c-7.018-0.397-13.771-0.899-19.969,0.569h-4.566c-0.514,0.438-0.229,1.674-1.141,1.713
			c-0.326,0.626-0.738,1.166-0.572,2.281c0.865,2.086,3.377,2.521,4.564,4.278c0.881,0.642,1.645,1.402,2.283,2.283
			c0.729,0.794,2.074,0.97,2.281,2.283c-3.113,3.446-6.633,6.487-9.129,10.555c-1.127,1.058-2.475,1.897-3.422,3.14
			c-0.631,1.814-0.906,3.225-0.572,5.42c1.461,1.871,3.432,3.226,5.137,4.85c0.666,1.047,2.188,1.236,2.854,2.283
			c1.402,0.31,1.688,1.734,3.422,1.711c1.463,0.228,1.871-0.6,3.139-0.571c0.939-1.149,1.875-2.308,2.568-3.706
			c1.963-1.748,3.795-3.623,5.707-5.422c1.695-1.229,2.973-3.041,4.277-4.279c0.469-0.441,1.029-1.051,1.713-1.141
			c1.262,1.305,2.84,2.292,4.279,3.423c1.49,1.172,2.666,2.659,5.705,2.282c0.117-0.357,0.367-0.582,0.855-0.57
			c0.287-0.379,0.271-1.059,0.857-1.143c0.172-0.59-0.352-1.873,0.283-1.997c0.1-9.983-1.584-18.193-2.566-27.104
			C50.514,72.982,49.297,72.49,47.383,72.691z M21.707,102.934c-0.629-0.324-0.949-0.957-1.715-1.143
			c-0.205-0.779,0.57-0.574,0.574-1.143C21.311,101.045,21.373,102.123,21.707,102.934
			C22.055,102.902,21.879,103.348,21.707,102.934z M26.559,105.214c-1.125-1.063-1.426-2.952-2.566-3.993
			c-0.258-1.08-0.217-2.449-0.859-3.139c0.256-0.506,0.689-0.833,0.859-1.428c0.24-0.053,0.266,0.113,0.283,0.287
			c0.539,1.551,1.129,3.053,1.711,4.562C26.795,102.521,28.133,104.175,26.559,105.214z M45.102,92.09
			c-1.045-0.668-1.887-1.537-2.854-2.281c-1.137-0.091-0.775,1.318-1.713,1.428c-0.324,0.625-0.953,0.945-1.141,1.712
			c-1.217-0.593-0.795-2.82-1.998-3.427c-1.514-0.184-1.943,0.719-2.566,1.428v2.568c0.627,1.688,1.367,3.562-0.857,3.993
			c0.189-1.044-0.617-1.096-0.568-1.995c-0.67-0.095-0.279-1.246-0.857-1.43c-0.078-1.443-0.469-2.572-1.711-2.852
			c-2.158,0.234-1.449,3.992-0.855,5.42c0.445,1.078,1.111,1.932,1.711,2.854c-0.316,1.395-1.732,1.691-2.283,2.852
			c-1.848-1.762-2.512-4.711-3.422-7.414c0.637-2.025,2.385-2.944,3.707-4.28c0.816-3.084,3.207-4.59,4.852-6.849
			c-0.227-0.965-1.578-1.226-1.998-2.282c-0.885-0.443-1.494-1.165-2.283-1.711c-0.502-0.738-1.498-1.382-2.281-1.998
			c-0.488-0.384-2.895-1.902-1.996-1.996c2.982,0.914,6.471,1.325,9.701,1.996c1.312,0.018,2.789-0.123,3.707,0.286H47.1
			c-0.223,6.021,0.512,11.09,1.141,16.261C46.941,93.863,46.166,92.83,45.102,92.09z M78.479,79.252
			c0.176,0.014,0.34,0.043,0.287,0.288h0.57c-0.012-0.394,0.137-0.63,0.287-0.858C78.969,78.604,78.549,78.751,78.479,79.252z"/>
	</g>
</g>
</svg>
