<?xml version="1.0" encoding="utf-8"?>
<!-- Generator: Adobe Illustrator 16.0.0, SVG Export Plug-In . SVG Version: 6.00 Build 0)  -->
<!DOCTYPE svg PUBLIC "-//W3C//DTD SVG 1.1//EN" "http://www.w3.org/Graphics/SVG/1.1/DTD/svg11.dtd">
<svg version="1.1" id="Layer_1" xmlns="http://www.w3.org/2000/svg"  x="0px" y="0px"
	 width="120px" height="120px" viewBox="4 4 120 120" style="enable-background:new 4 4 120 120;" xml:space="preserve">
<g id="resize-small1">
	<g>
		<path d="M108.98,27.589c-0.867-1.806-2.701-3.214-4.34-4.851c-1.69-1.69-3.089-4.008-5.613-4.083
			c-0.381,0.132-0.646,0.377-1.022,0.51c-0.44,0.215-1.011,0.793-1.019,1.021c-0.019,0.297-0.164,0.114-0.256,0.255
			c-0.707,1.064-2.027,2.21-2.556,3.063c-0.168,0.272-0.327,0.297-0.511,0.51c-2.547,3.027-5.783,5.848-8.426,8.423
			c-0.623,0.611-1.041,1.625-2.043,1.789c-2.186-1.384-3.957-3.188-6.379-4.34c-1.086-1.038-1.363-2.889-3.83-2.553
			c-2.086,0.892-2.187,3.77-2.299,6.638c-0.572,0.189-0.101,1.431-0.252,2.041c0.18,0.947-0.437,1.096-0.256,2.044
			c0.189,1.721-0.41,2.651-0.256,4.339c-0.434,2.627-0.244,5.879-0.766,8.421c-0.008,3.072-0.295,6.422,1.275,7.913
			c3.359,0.617,7.521,0.11,10.721-0.253c1.955,0.2,3.837-0.167,5.871-0.256c3.615-0.158,7.369,0.112,10.467-0.764
			c0.982,0.016,1.826,0.7,2.808,0.509c0.876-0.168,1.531-0.957,1.786-1.785c0.279-2.067-0.996-2.576-1.786-3.576
			c-0.881-0.905-1.471-2.101-2.553-2.808c-0.495-1.288-1.631-1.942-2.552-2.807c-0.676-1.111-1.787-1.786-2.299-3.065
			c1.545-0.838,2.643-2.123,4.088-3.062c1.299-1.165,2.836-2.096,4.082-3.316c1.474-0.998,2.646-2.29,4.084-3.319
			c0.908-1.556,3.186-1.747,3.574-3.83C109.197,29.851,108.898,28.528,108.98,27.589z M93.41,52.861
			c-1.635,0.87-1.5-2.016-3.574-1.533c-0.801,0.438,0.288,1.793-0.256,2.042c-0.797-0.052-1.873,0.172-2.297-0.254
			c0.074-1.52,0.059-2.952-1.02-3.318c-1.455,0.163-0.898,2.338-1.279,3.573c-0.586-0.603-0.09-2.289-0.254-3.317
			c-0.263-0.843-0.263-1.95-0.766-2.552c-2.38-0.34-2.854,1.23-3.572,2.552c-0.691-0.301,0-1.331,0-1.789v-3.829
			c-0.262-0.507-0.442-1.088-1.023-1.274c-0.77,0.165-1.473,0.398-1.531,1.274c-1.125-0.185-1.046,0.829-1.785,1.023
			c-0.479,1.394-1.281,2.461-1.533,4.083c-0.58-0.353-0.096-1.775-0.254-2.551c0.155-0.613,0.367-1.166,0.254-2.042
			c0.783-1.347,1.828-2.43,2.045-4.34c-0.035-0.73-1.063-0.465-1.789-0.51c0.422-2.557,0.515-5.443,0.767-8.168
			c0.299-0.042,0.454,0.054,0.513,0.255c1.848,3,3.697,6.001,6.127,8.423c1.385-0.826,2.321-2.101,3.572-3.062
			c1.005-1.208,2.6-1.828,3.571-3.063c1.069,0.211,1.207-0.498,2.043-0.512c-0.31,1.137-0.276,2.614-0.254,4.085
			c-0.535,1.594-2.263,1.992-2.808,3.572c-0.994,1.134-1.851,2.407-2.301,4.085c0.169,0.853,0.795,1.25,1.021,2.042
			c0.852,0.086,1.135,0.741,2.297,0.509c0.818,0.713,1.679,1.386,2.299,2.3c0.562,0.201,0.639,0.893,1.021,1.275
			C92.926,52.012,93.969,52.688,93.41,52.861z M94.941,31.672c-0.25-0.006-0.198-0.312-0.254-0.508
			c-0.039-0.473-0.865-0.156-1.022-0.51c0.173-0.593,0.849-0.685,1.022-1.278C95.268,29.648,94.783,30.981,94.941,31.672z
			 M96.473,35.248c-0.785-0.191-0.488,0.7-1.274,0.509v-2.296c0.239,0.187,0.387,0.465,0.51,0.767
			C95.812,34.719,96.697,34.428,96.473,35.248z M98.771,26.313c-0.65-0.027-0.604-0.951-0.256-1.276
			C99.068,24.992,98.634,25.943,98.771,26.313z M99.027,32.694v-3.827c0.441,0.83,1.121,1.431,1.787,2.042
			C100.857,32.144,99.85,32.326,99.027,32.694z M48.995,72.771c-0.964-0.229-1.787-0.597-2.81-0.767
			c-6.278-0.356-12.32-0.804-17.867,0.511h-4.084c-0.459,0.395-0.206,1.498-1.021,1.532c-0.294,0.562-0.66,1.043-0.514,2.041
			c0.772,1.865,3.019,2.259,4.084,3.827c0.79,0.577,1.469,1.256,2.043,2.043c0.652,0.712,1.854,0.867,2.043,2.044
			c-2.785,3.084-5.938,5.806-8.17,9.444c-1.008,0.947-2.218,1.697-3.063,2.807c-0.561,1.624-0.807,2.887-0.51,4.852
			c1.308,1.674,3.071,2.885,4.595,4.338c0.597,0.938,1.958,1.107,2.554,2.043c1.256,0.277,1.511,1.554,3.062,1.533
			c1.312,0.203,1.677-0.537,2.808-0.512c0.843-1.029,1.68-2.064,2.3-3.316c1.753-1.564,3.396-3.242,5.103-4.852
			c1.517-1.099,2.661-2.72,3.829-3.828c0.421-0.396,0.921-0.941,1.535-1.021c1.127,1.168,2.541,2.052,3.827,3.062
			c1.334,1.05,2.384,2.384,5.105,2.043c0.104-0.319,0.33-0.521,0.766-0.51c0.259-0.34,0.242-0.949,0.767-1.021
			c0.15-0.531-0.316-1.679,0.255-1.789c0.084-8.935-1.421-16.279-2.298-24.25C51.795,73.033,50.705,72.594,48.995,72.771z
			 M26.021,99.83c-0.562-0.288-0.849-0.854-1.532-1.021c-0.186-0.693,0.507-0.512,0.51-1.02
			C25.666,98.143,25.723,99.105,26.021,99.83C26.328,99.803,26.176,100.201,26.021,99.83z M30.36,101.873
			c-1.009-0.952-1.273-2.641-2.297-3.573c-0.228-0.966-0.19-2.192-0.769-2.81c0.229-0.451,0.62-0.745,0.769-1.277
			c0.214-0.045,0.238,0.1,0.255,0.26c0.483,1.385,1.009,2.731,1.531,4.08C30.576,99.463,31.77,100.941,30.36,101.873z
			 M46.953,90.132c-0.935-0.6-1.69-1.377-2.554-2.045c-1.017-0.079-0.692,1.183-1.53,1.277c-0.291,0.562-0.855,0.848-1.023,1.532
			c-1.089-0.527-0.711-2.521-1.785-3.062c-1.355-0.166-1.74,0.639-2.296,1.273v2.3c0.559,1.511,1.22,3.185-0.767,3.571
			c0.167-0.935-0.553-0.979-0.512-1.785c-0.599-0.084-0.247-1.115-0.766-1.276c-0.07-1.292-0.422-2.303-1.534-2.553
			c-1.928,0.21-1.294,3.571-0.767,4.849c0.402,0.963,0.999,1.73,1.534,2.555c-0.283,1.248-1.55,1.514-2.042,2.553
			c-1.655-1.578-2.247-4.219-3.062-6.637c0.569-1.812,2.131-2.634,3.316-3.83c0.731-2.759,2.871-4.104,4.34-6.125
			c-0.199-0.862-1.413-1.098-1.785-2.043c-0.794-0.398-1.342-1.045-2.042-1.531c-0.45-0.659-1.339-1.237-2.042-1.788
			c-0.44-0.343-2.589-1.701-1.787-1.785c2.669,0.817,5.79,1.185,8.68,1.785c1.176,0.016,2.494-0.111,3.316,0.256h6.893
			c-0.198,5.389,0.461,9.924,1.02,14.553C48.6,91.717,47.906,90.792,46.953,90.132z"/>
	</g>
</g>
</svg>
