<?xml version="1.0" encoding="utf-8"?>
<!-- Generator: Adobe Illustrator 16.0.0, SVG Export Plug-In . SVG Version: 6.00 Build 0)  -->
<!DOCTYPE svg PUBLIC "-//W3C//DTD SVG 1.1//EN" "http://www.w3.org/Graphics/SVG/1.1/DTD/svg11.dtd">
<svg version="1.1" id="Layer_1" xmlns="http://www.w3.org/2000/svg"  x="0px" y="0px"
	 width="120px" height="120px" viewBox="4 4 120 120" style="enable-background:new 4 4 120 120;" xml:space="preserve">
<g id="resize-full2">
	<g>
		<path d="M108.191,33.188c0.104-2.673,0.023-5.159-0.854-6.847c-1.006-0.418-1.586-1.268-3.139-1.144
			c-0.89-0.534-2.648-0.202-3.421-0.854c-1.27-0.158-2.631-0.227-3.428-0.857c-0.703,0.039-1.373,0.045-1.711-0.285
			c-0.498-0.261-1.424-0.097-1.709-0.57c-4.891-0.819-8.861-2.555-14.264-2.854c-1.857,0.334-3.5,0.877-3.715,2.854
			c-0.094,1.713,1.447,1.787,1.43,3.422c0.826,0.887,1.207,2.219,1.996,3.142c0.717,2.611,2.523,4.13,3.424,6.561
			c-0.756,1.241-2.271,1.724-3.135,2.853c-1.246,0.756-2.338,1.66-3.715,2.283c-0.926,1.164-1.973,2.213-3.135,3.137
			c-0.607,1.581-2.5,1.873-2.854,3.711c0.065,2.5,1.211,3.926,2.283,5.421c0.409,0.917,1.062,1.599,1.424,2.566
			c0.634,0.704,1.412,1.251,1.715,2.282c0.703,0.629,2.188,0.477,2.281,1.712c0.492,0.839,1.338,1.325,2.565,1.43
			c2.004,0.003,2.746-1.253,3.992-1.999c1.016-0.988,2.408-1.591,3.141-2.854c1.509-0.494,1.984-2.012,3.425-2.568
			c0.235-0.715,0.998-0.9,1.424-1.428c0.83-0.216,0.744-1.35,1.998-1.141c2.031,3.484,4.455,6.578,6.565,9.989
			c2.041,0.045,2.824,1.354,5.134,1.138c1.213-0.592,1.237-2.373,2.28-3.137C108.384,50.843,108.852,41.402,108.191,33.188z
			 M78.809,52.873c-0.502-0.07-0.65-0.49-0.57-1.143C79.098,51.443,78.743,52.367,78.809,52.873z M102.486,52.873
			c-1.356-1.398-2.211-3.305-3.709-4.564c0.343-0.801,0.312-1.969,0.285-3.138c-0.069-0.883-0.291-1.613-0.567-2.284
			c-0.144-1.761-0.033-3.768-0.856-4.849c-3.195-0.343-3.607,2.103-3.707,4.849c-1.082,0.729-2.216,1.401-3.142,2.284
			c-0.802-0.153-0.526-1.375-0.854-1.997c-0.83-0.219-0.74-1.353-1.998-1.144c-2.371,0.104-2.049,2.896-2.568,4.851
			c-0.123,0.98,0.113,1.598,0.285,2.283c-0.404,1.114-1.166,1.876-2.283,2.283c-0.352-2.309,0.926-6.248-1.137-6.85
			c0.584-0.839,1.266-1.584,2.281-1.994c0.317-0.728,0.7-1.395,1.139-1.999c1.395-1.364,3.113-2.403,4.281-3.994
			c-0.906-1.662-2.209-2.927-3.14-4.562c-0.614-0.716-0.899-1.765-1.711-2.283c-0.112-1.22-1.265-1.4-1.426-2.567
			c-0.361-0.117-0.584-0.369-0.572-0.855c-0.344,0.027-0.174-0.416,0,0c6.263,1.823,12.34,3.828,19.115,5.133
			C102.991,37.911,102.934,46.071,102.486,52.873z M60.263,22.631c-2.449-0.024-5.082,0.139-7.133-0.283H34.872
			c-0.365,0.016-0.395,0.363-0.857,0.283c-2.818-0.064-5.631-0.113-7.416,0.855c-0.168,0.595-0.598,0.924-0.857,1.428
			c-0.344,0.509-0.049,1.66-0.57,1.996c0.125,0.982-0.111,1.601-0.285,2.284c-0.111,0.742-0.145,1.563-0.568,1.995
			c0.014,1.634-0.574,2.662-0.857,3.994c-0.426,1.285-0.521,2.904-1.141,3.995c-0.525,2.8-1.311,5.347-1.715,8.274
			c-0.514,0.337-0.221,1.486-0.568,1.996c0.174,0.681-0.357,2.069,0.285,2.281c-0.111,1.825,0.963,2.463,1.998,3.14
			c2.012,0.299,2.266-1.16,3.709-1.426c1.271-0.441,1.98-1.442,3.424-1.714c2.229-1.193,4.209-2.637,6.561-3.707
			c1.238,0.756,1.721,2.271,2.854,3.137c0.756,1.244,1.658,2.334,2.281,3.71c1.312,0.876,2.115,2.261,3.424,3.138
			c0.287,0.76,1.152,0.941,1.711,1.426c0.123,1.023,0.912,1.371,1.998,1.428c2.443-0.126,3.682-1.453,5.422-2.282
			c0.588-0.646,1.459-1.013,2.281-1.428c0.703-0.628,1.254-1.411,2.283-1.71c0.627-0.705,0.477-2.187,1.709-2.282
			c0.84-0.495,1.324-1.337,1.43-2.569c0.006-2.002-1.25-2.743-1.998-3.994c-0.986-1.01-1.59-2.401-2.852-3.138
			c-0.494-1.505-2.012-1.983-2.568-3.423c-0.715-0.235-0.902-1.001-1.428-1.428c-0.217-0.827-1.352-0.74-1.141-1.997
			c1.023-0.612,2.141-1.228,2.855-1.712c0.301-0.206,0.559-0.657,0.852-0.855c0.131-0.088,0.426,0.065,0.572,0
			c0.211-0.096,0.203-0.551,0.57-0.568c0.332-0.018,0.129-0.185,0.287-0.286c0.91-0.59,1.662-1.097,2.568-1.426
			c1.762-2.424,5.908-2.46,5.99-6.564C64.704,23.138,62.985,22.383,60.263,22.631z M53.13,52.017
			c-0.123,0.352-0.363,0.586-0.854,0.573C52.142,51.979,52.683,52.045,53.13,52.017z M45.997,42.887
			c-0.561-0.565-1.629-0.18-2.281,0c0.139-0.9-0.516-1.008-0.285-1.996c1.439,0.013,1.873-0.982,1.711-2.567
			C46.243,39.542,47.509,41.322,45.997,42.887z M51.419,48.309c-1.941-1.943-0.945,2.715-1.994,3.422
			c-0.77-0.693,0.404-1.859,0-3.136c0.482-0.754,0.027-2.445,0.566-3.141C50.907,46.211,52.081,46.723,51.419,48.309z
			 M50.563,30.333c-1.045,0.479-1.402,1.644-2.854,1.715c-0.295,0.751-1.133,0.96-1.428,1.708c-0.936,0.109-0.576,1.52-1.711,1.428
			c0.002-1.809,0.006-3.617-0.855-4.562c-1.199-0.062-0.436,1.846-1.141,2.281c-0.094,1.047,0.244,2.525-0.285,3.137v1.711
			c-0.184,0.623,0.809,0.91-0.285,0.857c-0.115-0.646-1.672,0.15-1.143-1.139c-0.568-0.289-0.451-1.266-1.424-1.145
			c-2.867-0.488-2.205,2.554-2.57,4.566c-0.883,0.449-1.68,0.984-2.283,1.713c-0.82-1.367,0.242-4.617-0.57-5.993
			c-4.391-0.396-3.264,4.725-3.424,8.561c-1.441,0.743-2.381,1.989-3.992,2.567c0.027,0.346-0.414,0.174,0,0
			c1.826-6.259,3.83-12.34,5.135-19.115c6.436-0.791,14.596-0.734,21.396-0.285C52.337,29.064,51.423,29.671,50.563,30.333z
			 M107.337,76.268c-0.637-0.789-1.646-1.205-2.282-1.996h-3.992c-1.146,0.948-2.433,1.754-3.711,2.565
			c-1.123-0.079-0.873,1.222-1.994,1.142c0.047,0.619-1.017,0.131-1.426,0.285c-0.57,0.006-0.365,0.778-1.144,0.571
			c-1.254-1.789-2.492-3.596-3.996-5.135c-1.388-1.752-2.664-3.609-4.565-4.851c-1.037-0.089-1.854,0.043-2.566,0.284
			c-0.91-0.987-1.525-2.278-3.422-2.28c-0.688-0.117-0.621,0.52-1.426,0.282c-1.338,1.232-2.656,2.48-3.994,3.709
			c-1.537,1.132-3.324,2.007-3.428,4.565c0.151,2.516,2.496,2.83,2.856,5.137c2.504,1.965,4.994,3.939,6.272,7.131
			c0.666,1.047,2.336,1.09,2.566,2.57c-2.08,1.338-3.934,2.908-5.701,4.562c-1.736,1.688-4.672,2.176-5.422,4.85
			c-0.316,1.551,0.967,1.504,0.855,2.852c0.279,1.055,1.252,1.414,1.711,2.285c10.311,1.1,19.99,2.834,31.098,3.137
			c1.037-0.869,1.803-2.002,2.566-3.137c0.336-3.188,0.916-6.123,1.143-9.416c0.201-5.621-0.287-10.555-0.285-15.977
			C107.016,78.229,107.548,77.618,107.337,76.268z M77.667,78.551c-0.771-0.468-1.356-1.115-1.715-1.999
			c0.164-1.36,1.93-1.114,2.284-2.28C79.137,75.65,77.366,76.814,77.667,78.551z M79.378,73.7c0.07-0.502,0.49-0.65,1.142-0.573
			C80.333,73.511,79.911,73.661,79.378,73.7z M80.805,76.268c1.077,0.221,1.364-0.347,2.282-0.285
			c0.021,0.834,0.651,1.062,1.14,1.428c-0.711,0.686-0.271,0.755-0.285,1.996c-0.338,1.656-0.469,3.523-0.57,5.419
			c-0.879-0.64-1.641-1.401-2.283-2.28C81.098,80.35,81.177,78.083,80.805,76.268z M83.37,87.395
			c-0.146-0.147,0.211-0.363,0.289-0.285C83.807,87.255,83.45,87.473,83.37,87.395z M102.202,85.967v4.565
			c-0.261,0.975-0.431,2.043-0.856,2.852c-0.232,1.861,0.549,4.733-0.566,5.707c0.287,0.658,0.979,0.92,0.854,1.996
			c-1.422,2.822-4.408-0.012-7.42,0.287c-0.357-0.974-0.496-2.17-0.854-3.14v-1.998c-0.48-1.326,0.067-3.684-1.146-4.28
			c-2.815-0.154-1.879,3.446-2.565,5.422c-0.097,1.144,0.51,1.586,0.287,2.853c-0.599-0.119-0.754,0.196-1.144,0.291
			c-1.306-0.027-1.021-1.646-1.426-2.569c-0.318-0.919-0.781-1.694-0.857-2.854c-1.004,0.038-0.811,1.276-1.141,1.998
			c-0.295,0.75-0.341,1.75-0.283,2.85c-1.853-0.236-3.604-0.578-5.707-0.568c0.463-0.87,1.447-1.215,2.281-1.712
			c0.7-0.536,1.291-1.181,2.28-1.427c1.312-1.26,3.07-2.064,4.566-3.137c-0.053-0.994-1.008-1.084-1.141-2
			c-0.109-3.599-0.402-7.016-0.857-10.271c0.461-0.079,0.49,0.271,0.857,0.286c0.111,0.779,1.318,1.217,0.57,1.997
			c1.354,0.737,1.836,2.348,3.426,2.853c0.553,1.442,1.82,2.17,2.85,3.139c1.914-1.228,3.674-2.606,5.42-3.992
			c0.072-1.264,0.207-2.459,1.43-2.568C102.646,82.48,102.118,84.527,102.202,85.967z M57.124,73.127
			c-1.344-1.504-2.221-3.482-4.564-3.992h-1.141c-1.893,0.58-2.486,2.46-4.566,2.854c-0.607,0.911-1.34,1.7-1.994,2.567
			c-1.064,0.457-1.268,1.774-2.568,1.995c-0.494,1.027-1.623,1.423-2.283,2.283c-1.062,0.554-1.619,1.615-2.854,1.996
			c-1.34-2.08-2.91-3.937-4.562-5.705c-1.689-1.733-2.182-4.668-4.85-5.422c-1.553-0.313-1.504,0.969-2.855,0.856
			c-1.053,0.279-1.412,1.25-2.281,1.713c-1.102,10.31-2.836,19.99-3.137,31.097c0.754,0.86,1.68,1.551,2.566,2.282
			c5.59,1.274,12.529,1.738,19.396,1.427c2.338-0.106,4.656-0.386,6.85-0.285c2.207,0.103,4.279,0.741,6.277,0
			c0.475-1.176,0.529-1.958,0.285-2.567c-0.354-0.888-0.168-0.943,0-1.713c-1.439-1.033-2.295-2.647-3.424-3.992
			c-0.568-0.861-0.717-2.139-1.711-2.568c-0.434-0.449-0.367-1.055-0.572-1.713c-0.189-0.616-0.34-1.209-0.572-1.709
			c1.793-1.254,3.598-2.494,5.139-3.995c1.748-1.388,3.609-2.668,4.85-4.565c0.088-1.039-0.047-1.855-0.285-2.568
			c0.99-0.911,2.281-1.522,2.283-3.424C60.19,75.579,58.241,74.77,57.124,73.127z M25.458,99.091
			c0.348,0.124,0.588,0.365,0.57,0.854C25.681,99.822,25.442,99.58,25.458,99.091z M30.308,100.23
			c-1.158,0.11-0.316-1.778-0.572-2.566C30.038,98.232,30.952,99.661,30.308,100.23z M39.149,100.23
			c-0.289-2.272-0.174-4.957-1.996-5.707c-1.93,0.639-1.865,3.271-1.996,5.707c-1.059,0.201-0.49-1.221-1.143-1.426
			c0.029-0.885-0.348-1.361-0.566-1.998c0.086-1.039-0.047-1.854-0.289-2.567c-0.154-1.984,0.484-2.984-0.285-4.278
			c-1.74-0.221-2.525,0.52-2.854,1.712c-0.793,0.129,0.227-1.556-0.568-1.424c0.043-0.713-0.449-0.886-0.572-1.429h-1.994
			c0.443-3.17,1.041-6.187,1.139-9.7c0.908,0.44,1.213,1.541,1.711,2.28c0.508,0.752,1.264,1.354,1.43,2.283
			c1.262,1.31,2.162,2.969,3.135,4.564c1.346-0.459,1.982-1.632,2.854-2.568c1.084-0.724,1.785-1.828,2.854-2.565
			c0.654,0.581,0.104,2.368,0.287,3.422c0.379,1.334,0.439,2.983,1.137,3.996c-0.26,0.879-1.139,1.141-1.709,1.711
			c-0.295,0.751-1.131,0.962-1.426,1.712c0.598,1.207,1.555,2.061,2.283,3.14c0.742,0.968,1.268,2.154,2.283,2.851
			C42.187,100.604,40.3,100.05,39.149,100.23z M44.571,87.966c-0.311-2.065-0.328-4.426-0.285-6.849
			c0.379-0.287,1.064-0.27,1.145-0.856c0.65,0.582,0.1,2.369,0.281,3.425c0.252,0.984,0.498,1.977,1.141,2.567
			C46.343,87.072,45.608,87.669,44.571,87.966z M51.419,78.835c-0.125,0.976-0.652,2.565,0,3.424
			c0.252,0.917-0.938,0.39-0.855,1.142c-0.582,0.16-0.561,0.856-1.139,0.285c0.057-2.248,0.049-4.426-0.572-5.99
			c0.213-1.119,1.127-1.537,1.994-2c1.361,0.164,1.115,1.93,2.283,2.283C52.733,78.438,51.724,78.283,51.419,78.835z M54.274,80.261
			c-0.387-0.186-0.533-0.608-0.572-1.141C54.204,79.188,54.351,79.609,54.274,80.261z M95.07,89.961
			c1.212,0.264,1.433-0.466,1.709-1.141C96.081,89.068,95.134,89.076,95.07,89.961z"/>
	</g>
</g>
</svg>
