<?xml version="1.0" encoding="utf-8"?>
<!-- Generator: Adobe Illustrator 16.0.0, SVG Export Plug-In . SVG Version: 6.00 Build 0)  -->
<!DOCTYPE svg PUBLIC "-//W3C//DTD SVG 1.1//EN" "http://www.w3.org/Graphics/SVG/1.1/DTD/svg11.dtd">
<svg version="1.1" id="Layer_1" xmlns="http://www.w3.org/2000/svg"  x="0px" y="0px"
	 width="120px" height="120px" viewBox="4 4 120 120" style="enable-background:new 4 4 120 120;" xml:space="preserve">
<g id="resize-full1">
	<g>
		<path d="M108.645,55.161c0.485-6.676,0.465-15.23,0-21.908c0.107-2.7,0.021-5.21-0.86-6.917c-1.021-0.424-1.603-1.282-3.173-1.153
			c-0.902-0.542-2.676-0.206-3.459-0.867c-1.282-0.156-2.655-0.226-3.459-0.863c-0.711,0.038-1.393,0.043-1.729-0.289
			c-0.507-0.261-1.437-0.099-1.729-0.575c-4.938-0.831-8.949-2.579-14.412-2.883c-1.873,0.338-3.534,0.886-3.746,2.883
			c-0.096,1.728,1.46,1.808,1.439,3.459c0.838,0.89,1.221,2.237,2.019,3.169c0.722,2.64,2.552,4.173,3.459,6.629
			c-0.765,1.256-2.298,1.741-3.171,2.883c-1.256,0.765-2.359,1.677-3.746,2.306c-0.938,1.176-1.993,2.235-3.174,3.173
			c-0.612,1.597-2.527,1.889-2.881,3.746c0.065,2.529,1.221,3.966,2.306,5.476c0.419,0.93,1.075,1.615,1.442,2.595
			c0.633,0.71,1.426,1.265,1.729,2.305c0.709,0.637,2.211,0.482,2.305,1.732c0.502,0.845,1.354,1.338,2.596,1.439
			c2.022,0.007,2.773-1.261,4.035-2.016c1.021-0.997,2.433-1.605,3.17-2.882c1.521-0.497,2.006-2.031,3.461-2.595
			c0.238-0.724,1.011-0.914,1.44-1.441c0.839-0.223,0.747-1.367,2.019-1.154c0.619,1.034,1.238,2.161,1.73,2.884
			c0.207,0.304,0.663,0.567,0.864,0.863c0.088,0.131-0.069,0.43,0,0.576c0.095,0.214,0.555,0.207,0.573,0.574
			c0.018,0.337,0.187,0.131,0.291,0.292c0.592,0.917,1.104,1.679,1.441,2.593c2.447,1.78,2.483,5.971,6.627,6.052
			C109.832,64.801,108.363,59.104,108.645,55.161z M78.957,53.143c-0.508-0.07-0.656-0.496-0.575-1.153
			C79.248,51.7,78.891,52.633,78.957,53.143z M102.883,53.143c-1.376-1.414-2.236-3.339-3.749-4.612
			c0.347-0.808,0.317-1.989,0.291-3.171c-0.071-0.89-0.294-1.629-0.577-2.305c-0.139-1.784-0.035-3.81-0.863-4.9
			c-3.231-0.347-3.645,2.124-3.748,4.9c-1.09,0.736-2.238,1.414-3.172,2.305c-0.809-0.152-0.535-1.388-0.864-2.015
			c-0.837-0.221-0.747-1.369-2.019-1.156c-2.395,0.104-2.072,2.927-2.596,4.9c-0.126,0.992,0.113,1.617,0.29,2.309
			c-0.412,1.127-1.183,1.895-2.308,2.306c-0.356-2.335,0.934-6.312-1.152-6.917c0.593-0.85,1.279-1.602,2.307-2.02
			c0.324-0.732,0.707-1.405,1.153-2.018c1.406-1.378,3.142-2.427,4.323-4.036c-0.913-1.681-2.23-2.957-3.174-4.611
			c-0.621-0.725-0.905-1.781-1.729-2.305c-0.113-1.231-1.273-1.415-1.439-2.594c-0.362-0.12-0.59-0.372-0.574-0.865
			c-0.35,0.029-0.182-0.42,0,0c6.322,1.843,12.464,3.868,19.309,5.19C103.395,38.026,103.333,46.271,102.883,53.143z M57.05,73.609
			c-1.359-1.522-2.24-3.521-4.609-4.037h-1.153c-1.911,0.588-2.512,2.484-4.611,2.881c-0.619,0.923-1.36,1.721-2.021,2.595
			c-1.075,0.462-1.279,1.796-2.594,2.019c-0.5,1.039-1.641,1.438-2.306,2.306c-1.076,0.562-1.635,1.634-2.884,2.021
			c-1.354-2.104-2.94-3.978-4.611-5.765c-1.706-1.754-2.2-4.717-4.899-5.478c-1.566-0.32-1.52,0.979-2.883,0.863
			c-1.062,0.283-1.429,1.264-2.303,1.731C21.061,83.16,19.309,92.941,19,104.162c0.762,0.872,1.703,1.566,2.598,2.305
			c5.646,1.287,12.654,1.76,19.599,1.443c2.36-0.108,4.702-0.391,6.919-0.29c2.229,0.101,4.321,0.75,6.341,0
			c0.482-1.188,0.534-1.978,0.287-2.593c-0.357-0.896-0.166-0.954,0-1.73c-1.454-1.044-2.317-2.678-3.456-4.035
			c-0.572-0.867-0.724-2.158-1.732-2.592c-0.439-0.461-0.37-1.066-0.574-1.73c-0.191-0.623-0.347-1.225-0.578-1.729
			c1.811-1.267,3.631-2.517,5.19-4.035c1.769-1.403,3.645-2.694,4.899-4.612c0.089-1.049-0.045-1.875-0.288-2.593
			c0.998-0.924,2.301-1.542,2.308-3.46C60.148,76.086,58.179,75.268,57.05,73.609z M25.055,99.838
			c0.355,0.126,0.592,0.369,0.578,0.866C25.277,100.578,25.041,100.335,25.055,99.838z M29.956,100.99
			c-1.17,0.111-0.317-1.797-0.578-2.592C29.684,98.973,30.606,100.414,29.956,100.99z M38.892,100.99
			c-0.296-2.299-0.178-5.01-2.02-5.762c-1.947,0.644-1.885,3.299-2.017,5.762c-1.067,0.203-0.497-1.23-1.152-1.439
			c0.028-0.895-0.352-1.378-0.576-2.018c0.087-1.049-0.046-1.876-0.287-2.596c-0.159-2.004,0.482-3.017-0.291-4.323
			c-1.76-0.222-2.549,0.526-2.881,1.729c-0.806,0.13,0.225-1.571-0.577-1.44c0.042-0.717-0.453-0.894-0.577-1.439h-2.019
			c0.45-3.201,1.054-6.25,1.156-9.802c0.876,0.468,1.226,1.462,1.727,2.308c0.543,0.706,1.195,1.305,1.442,2.305
			c1.273,1.32,2.188,3.004,3.172,4.611c1.357-0.466,2-1.648,2.88-2.594c1.094-0.73,1.804-1.848,2.884-2.594
			c0.66,0.586,0.104,2.393,0.288,3.459c0.383,1.347,0.444,3.011,1.152,4.033c-0.264,0.891-1.152,1.153-1.729,1.729
			c-0.297,0.759-1.145,0.974-1.442,1.729c0.605,1.223,1.571,2.078,2.307,3.17c0.748,0.981,1.282,2.179,2.306,2.885
			C41.956,101.365,40.053,100.807,38.892,100.99z M44.369,88.598c-0.316-2.087-0.334-4.471-0.288-6.92
			c0.38-0.289,1.071-0.271,1.148-0.863c0.665,0.588,0.106,2.396,0.29,3.459c0.254,0.996,0.502,1.998,1.156,2.596
			C46.155,87.695,45.414,88.299,44.369,88.598z M51.287,79.371c-0.129,0.986-0.658,2.596,0,3.459
			c0.254,0.93-0.951,0.398-0.865,1.156c-0.59,0.16-0.567,0.865-1.152,0.287c0.061-2.273,0.05-4.472-0.576-6.054
			c0.215-1.131,1.139-1.551,2.015-2.018c1.377,0.159,1.128,1.944,2.308,2.306C52.613,78.969,51.592,78.812,51.287,79.371z
			 M54.167,80.812c-0.385-0.19-0.534-0.614-0.574-1.151C54.1,79.73,54.25,80.156,54.167,80.812z"/>
	</g>
</g>
</svg>
