<?xml version="1.0" encoding="utf-8"?>
<!-- Generator: Adobe Illustrator 16.0.0, SVG Export Plug-In . SVG Version: 6.00 Build 0)  -->
<!DOCTYPE svg PUBLIC "-//W3C//DTD SVG 1.1//EN" "http://www.w3.org/Graphics/SVG/1.1/DTD/svg11.dtd">
<svg version="1.1" id="Layer_1" xmlns="http://www.w3.org/2000/svg"  x="0px" y="0px"
	 width="120px" height="120px" viewBox="4 4 120 120" style="enable-background:new 4 4 120 120;" xml:space="preserve">
<g id="retweet">
	<g>
		<path d="M118.791,74.734c-0.254-0.875-0.749,0.389-1.49,0c-0.039,0.66-1.267,0.127-1.791,0.301
			c-0.369-0.43-1.029-0.565-1.789-0.598c-0.272-0.521-0.934-0.66-1.791-0.598c-1.865,0.223-3.771,0.406-5.969,0.299
			c0.193-7.746-0.249-14.865-0.297-22.375c-0.665-4.604-1.762-8.777-2.686-13.126c-1.076-1.808-2.094-3.676-3.281-5.369
			c-2.84-2.133-6.52-3.425-11.037-3.879c-11.666-0.1-22.09,0.4-33.416,0c-1.79,0.596-4.287,0.484-5.367,1.789
			c-0.66,1.231,0.407,2.049,0.592,3.28c0.873,0.726,1.123,2.065,2.092,2.686c0.448,1.145,1.235,1.948,2.087,2.687
			c0.515,1.08,1.297,1.887,2.089,2.686c0.263,2.021,1.46,3.11,2.387,4.475c0.735,0.355,1.169,1.021,1.492,1.789
			c0.533,0.66,1.658,0.729,2.388,1.195c2.372-0.314,4.238-1.13,6.561-1.493c3.703,0.122,7.078-0.082,10.148-0.597
			c2.154,0.327,4.621,0.346,7.154,0.298c0.895,2.472,0.882,5.764,0.9,8.949c0.016,3.373-0.02,6.641,0,9.848
			c0.502,1.879,0.229,4.541,0.295,6.86c-2.156-0.364-2.508,1.073-4.179,1.194c-2.51-0.002-5.842,0-8.053,0
			c-0.894-0.002-1.644-0.453-2.088,0.297c-0.226,1.516,0.297,2.289,1.19,2.686c0.996-0.301,0.98,0.414,0.896,1.192
			c0.088,0.61,0.805,0.587,0.895,1.195c1.933,1.25,4.305,2.059,5.967,3.579c1.998,1.184,3.238,3.127,5.371,4.176
			c1.265,1.92,2.725,3.643,4.474,5.072c1.479,1.703,2.887,3.478,5.371,4.178c1.052-0.159,1.334-0.874,2.385-0.301
			c2.447-2.822,5.709-4.832,7.461-8.352c2.474-1.804,4.447-4.105,6.265-6.564c1.183-0.905,1.686-2.491,2.983-3.281
			C117.646,77.699,119.646,76.48,118.791,74.734z M100.293,88.16h-0.895c0.23-0.266,0.322-0.672,0.299-1.192
			C100.223,87.04,100.377,87.482,100.293,88.16z M109.245,79.509c-0.087,0.608-0.81,0.586-0.897,1.194
			c-0.849,0.543-1.086,1.697-2.088,2.088c-0.678,0.812-1.32,1.662-2.086,2.387c-0.762,0.633-0.936,1.85-2.089,2.088
			c-1.325-1.855-2.735-3.627-4.476-5.07c-1.127-0.129-1.357,0.631-1.789,1.193c-0.66-0.128-0.748,1.793-1.194,0.896
			c-1.081-1.931-0.021-3.374,0-5.667c-0.937-0.145-1.218,0.369-1.489,0.893c-0.97-0.172-1.391,0.206-2.09,0.301
			c-0.514,1.312-2.33,0.084-2.091-1.192c0.981,0.01,1.489,0.502,2.685,0.296c1.313-0.576,1.633-2.146,1.496-4.178
			c0.428-2.156,1.26-3.908,1.786-5.965c0.698-1.791,1.751-3.223,1.493-5.966c-0.939-0.049-1.799-0.013-2.088,0.597
			c-0.68-0.147-0.891,1.644-1.191,0.893c-0.232-2.316,1.107-3.066,1.489-4.772c0.593-1.494,1.708-2.471,2.089-4.178
			c-0.871-0.782-1.766,0.223-2.089,0.896c-0.737-0.018-1.167,1.785-1.489,1.192V54.15c-0.262-4.812-1.408-8.74-4.181-11.039
			c-0.792-0.201-1.517-0.471-2.089-0.895c-5.958-0.101-11.297,1.688-18.492,1.194c-1.499,0.392-3.16,0.623-4.773,0.895
			c-2.341-0.745-2.248-3.922-4.179-5.071c-0.386-1.207-1.381-1.802-2.089-2.684c-0.735-0.756-1.172-1.812-2.089-2.389
			c-0.053-0.254,0.119-0.283,0.3-0.299c10.653,0.066,20.836,0.422,32.816,0.299c1.615,0.375,3.261,0.718,5.072,0.896
			c0.887,0.706,1.914,1.269,2.982,1.789c0.518,1.173,1.064,2.314,1.79,3.282c0.774,4.696,1.954,8.982,2.387,14.021v15.812
			c1.372,2.723,2.569,6.479,2.089,10.143c1.859,0.271,2.633-0.545,3.279-1.487h3.582C110.764,78.473,109.586,79.417,109.245,79.509z
			 M76.727,92.039c-1.194-0.893-1.953-2.225-2.981-3.28c-1.961-2.315-4.042-4.512-5.072-7.757c-1.271-0.123-1.266-1.521-2.685-1.493
			c-0.256-0.874-0.963,0.179-1.493,0c-0.271,0.812-0.555-0.793-1.491-0.299c-3.508,1.269-8.742,0.806-13.426,0.896
			c-3.338-0.638-7.251-0.703-8.651-3.279c-1.121-3.258-2.146-6.609-2.388-10.741c-0.68-0.415-0.114-2.075-0.3-2.982
			c-0.336-2.678-0.871-6.646-0.596-8.951h3.283c0.907-0.188,2.569,0.382,2.982-0.297c2.418,0.131,4.455-0.12,5.372-1.492
			c0.194-3.201-2.284-4.672-3.881-6.267c-1.736-1.738-3.318-3.677-5.369-5.071c-1.456-2.024-3.46-3.499-4.773-5.668
			c-2.149-1.432-3.035-4.125-6.562-4.177c-0.354,0.146-0.678,0.319-0.896,0.597c-0.049,0.039-0.262-0.047-0.296,0
			c-4.499,5.833-8.766,11.924-14.321,16.707c-0.415,1.078-1.312,1.672-1.492,2.984c-1.28,0.608-2.726,1.054-2.688,2.982
			c0.647,0.447,0.695,1.492,1.793,1.49h6.861c1.005,0.19,2.771-0.382,3.28,0.3c-0.158,1.63-0.435,3.143-0.597,4.773
			c0.511,10.032-1.371,22.454,1.79,29.834c1.18,0.711,1.729,2.053,3.283,2.387c0.747,0.248,1.173,0.816,2.09,0.895
			c0.466,0.525,1.595,0.391,2.089,0.895c3.034,0.846,5.969,1.787,9.246,2.389c6.796,0.96,14.541,0.973,22.377,0.895
			c2.761-0.617,5.903-0.855,8.948-1.193c1.706,0.185,3.312-0.125,4.773-0.297c1.58-0.185,3.094-0.056,4.178-0.896
			C79.232,93.711,77.816,93.035,76.727,92.039z M27.798,89.354c-0.876-0.193-2.032-1.099-1.491-1.787
			C27.505,87.46,27.092,88.967,27.798,89.354C28.161,89.324,27.982,89.788,27.798,89.354z M53.455,89.354
			c0.273-0.524,1.1-0.49,1.193-1.192c-0.126-1.063-0.748-1.638-1.491-2.088c-2.547-0.158-3.362,1.409-4.174,2.983h-2.387
			c-1.085,0.288-0.25-1.342-1.197-1.193c-1.821,0.269-2.621,1.554-5.07,1.193c-0.525-0.399,0.488-1.728-0.298-2.387
			c-1.787-0.297-2.399,0.586-2.983,1.49c-0.716,0.12,0.165-1.358-0.895-0.895h-1.79c-0.345-2.438-1.526-4.043-2.984-5.369
			c-1.391,0.797-2.611,1.764-3.282,3.28c-0.38-0.067-0.393-0.89,0-0.895c0.026-0.474-0.143-1.14,0.296-1.194
			c0.076-0.921,0.306-1.686,0.599-2.386c0.173-1.718,1.36-2.418,1.493-4.179c-1.181-1.061-1.92,0.852-2.982,0.896
			c0.303-1.014,1.24-2.564,0.595-3.58c-0.167-0.984-1.928,0.376-1.789-0.299c0.292-2.096,0.843-3.932,1.194-5.965
			c0.932-1.106,1.471-4.444,0-5.37c-1.317,0.176-1.93,1.054-2.387,2.086c-0.677-0.316-0.114-1.873-0.298-2.684v-2.686
			c-0.531-2.054-0.215-4.955-0.3-7.457c-2.652,0.228-5.365,0.4-8.354,0.297c0.198-1.096,1.1-1.486,1.792-2.087
			c0.47-0.725,1.069-1.319,1.789-1.791c0.96-1.527,2.22-2.753,3.282-4.178c0.992-1.492,1.989-2.979,2.982-4.474
			c1.071-1.418,1.803-3.172,2.984-4.476c0.255-0.055,0.285,0.116,0.298,0.299C33,40.696,37.404,45.64,42.715,49.677
			c-0.473,0.62-2.088,0.101-2.685,0.595h-2.983c-1.089,0.204-2.169,0.417-3.583,0.298c-0.035,5.035-0.578,10.868,0,16.11
			c0.319,2.859,1.098,5.848,1.792,8.355c0.051,0.185-0.047,0.408,0,0.597c0.062,0.24,0.276,0.22,0.297,0.298
			c0.267,0.93,0.199,1.754,0.599,2.688c0.187,0.438,1.078,1.191,1.192,2.087c0.453,0.251,0.819,0.633,1.194,0.896
			c0.721,0.5,1.452,1.01,2.388,1.49c0.107,0.061,0.523-0.088,0.595,0c0.765,0.936,5.218,1.641,7.16,1.791
			c4.034,0.311,8.709-0.23,13.127,0c1.366,0.125,1.428,1.557,2.388,2.088c0.486,1.008,1.708,1.273,1.792,2.686
			C61.506,89.859,57.936,89.148,53.455,89.354z"/>
	</g>
</g>
</svg>
