<?xml version="1.0" encoding="utf-8"?>
<!-- Generator: Adobe Illustrator 16.0.0, SVG Export Plug-In . SVG Version: 6.00 Build 0)  -->
<!DOCTYPE svg PUBLIC "-//W3C//DTD SVG 1.1//EN" "http://www.w3.org/Graphics/SVG/1.1/DTD/svg11.dtd">
<svg version="1.1" id="Layer_1" xmlns="http://www.w3.org/2000/svg"  x="0px" y="0px"
	 width="120px" height="120px" viewBox="0 0 120 120" enable-background="new 0 0 120 120" xml:space="preserve">
<g id="rocket">
	<g>
		<path d="M58.339,86.952c-0.236-0.032-0.894-0.974-0.293-0.884c3.864-0.844,9.618,0.195,12.074-2.062
			c1.698-3.896,2.667-8.521,3.828-12.957c2.503,1.814,3.567,5.069,5.892,7.067c0.25,1.711,1.41,2.513,1.178,4.711
			c1.114,1.437,2.199,2.901,3.535,4.123c0.875-1.577,1.877-3.029,2.354-5.009v-4.416c-0.121-0.711,0.534-0.643,0.295-1.473
			c0.178-4.891-0.681-8.307-1.771-11.781c-0.795-2.543-1.521-5.082-2.942-7.067c-1.261-0.409-2.039-1.301-3.534-1.472
			c-0.346-0.047-0.836,0.05-0.885-0.296c-0.709-0.119-0.641,0.537-1.473,0.296c-0.73-0.384-1.222,0.864-1.474,0v-5.009
			c0.123-0.709-0.537-0.638-0.293-1.471V45.72c-0.783-7.27-2.289-13.812-4.124-20.028c-1.355-2.667-2.057-5.992-3.534-8.54
			c-0.521-1.538-1.208-2.913-2.059-4.123c-0.644-1.42-1.294-2.833-2.357-3.829c-0.692,0.006-0.87-0.506-1.771-0.294
			c-1.416,1.038-2.401,2.507-3.826,3.534c-0.369,1.301-1.363,1.974-1.767,3.24c-0.493,1.178-1.191,2.146-1.768,3.24
			c-1.199,2.139-2.104,4.572-3.24,6.771c-0.614,2.726-1.885,4.792-2.061,7.953c-0.605,1.063-0.553,2.783-0.885,4.123
			c-0.105,1.662-0.361,3.173-0.589,4.713v2.061c0.12,0.711-0.536,0.64-0.295,1.473v9.129c-1.941-0.174-2.408,1.129-3.829,1.474
			c-4.501,3.841-6.002,10.688-7.066,17.964c0.064,1.541-0.007,2.94-0.294,4.124v3.828c0.521,2.916,0.994,5.876,2.353,7.953
			c0.738,0.248,1.579,0.386,2.653,0.294c1.229-1.52,1.022-4.479,1.766-6.479c0.17-2.58,1.183-4.314,2.062-6.184
			c0.981,0.002,1.006-0.959,2.063-0.885c0.135-1.633,1.434-2.101,2.649-2.651c1.31,3.401,3.174,6.249,5.005,9.13
			c0.51,0.768,2.431,0.123,2.358,1.475c-0.405,0.578-1.804,0.157-2.358,0.588c-0.062,0.229-0.246,0.344-0.588,0.295
			c-0.074,0.804-1.238,0.945-1.474,1.18c-0.098,0.102,0.095,0.48,0,0.588c-0.476,0.548-0.879,0.665-1.175,1.182
			c-0.505,0.864-0.966,1.562-0.884,2.649c-0.102,1.572,1.589,1.354,1.766,2.647c-1.764,0.496-2.872,1.646-4.124,2.649
			c-0.246,0.735-0.384,1.579-0.296,2.652c-0.904,0.664-2.1,1.039-2.65,2.061c-0.028,1.206-0.057,2.414,0.295,3.24
			c-1.738,0.028-2.541,0.994-3.53,1.767c-0.354,1.32-1.049,2.291-0.886,4.125c-1.062,0.017-0.61,1.549-1.177,2.062
			c-0.498,0.339-1.153,0.263-1.77,0.589c-0.427,0.229-1.287,0.797-1.473,1.181c-0.21,0.438-0.392,1.911-0.293,2.354
			c0.004,0.025,0.272-0.021,0.293,0c0.246,0.244,0.049,0.934,0.297,1.179c0.092,0.093,0.467-0.062,0.588,0
			c0.476,0.233,1.036,0.938,1.473,0.591c0.03-0.559,0.973-0.205,0.885-0.887c0.506-0.178-0.024-1.396,0.586-1.473
			c1.43-0.336,2.907-0.629,3.832-1.473c0.148-1.229-0.167-1.994-0.591-2.65c0.763-0.707,0.965-1.979,0.884-3.533
			c1.322-1.523,4.36-1.332,4.123-4.416c0.428,0.454,1.505,0.258,2.355,0.293c1.27-0.989,1.707-2.807,1.472-5.303
			c0.906-0.273,1.785-0.906,2.65-1.471c0.65-0.428,2.631-1.649,2.652-2.062c0.017-0.333,0.208-0.137,0.293-0.293
			c0.44-0.796,0.77-1.635,0.885-2.355c-0.339-0.35-0.334-1.041-0.293-1.768c-0.561-0.034-0.207-0.975-0.885-0.883
			c-0.393-0.299-1.097-0.28-1.179-0.885c0.96-0.121,1.544-0.615,2.063-1.18C57.926,87.716,58.581,87.785,58.339,86.952z
			 M75.42,59.27c1.141-0.157,1.438,0.524,2.65,0.295c0.267,0.518,0.658,0.911,1.18,1.177c0.162,0.523,0.152,1.223,0.59,1.472
			c-0.215,0.9,0.299,1.075,0.292,1.769c0.509,0.179-0.022,1.396,0.589,1.473c0.479,2.373,1.428,4.268,1.475,7.068
			c0.215,0.969-0.588,0.451-0.588,0c-0.426-0.166-0.719-0.461-0.887-0.885c-0.727-0.353-1.148-1.009-1.471-1.767
			c-1.076-0.201-1.438-1.117-2.355-1.476c-0.922-0.258-1.556-0.799-2.354-1.176C75.117,64.857,74.805,61.596,75.42,59.27z
			 M42.14,73.405c-0.678-0.794-0.103-2.841-0.294-4.123c0.375-3.259,1.083-6.181,2.649-8.247c1.022,0.236,1.136-0.438,2.062-0.294
			c-0.04,3.084,0.467,5.618,0.884,8.245C44.554,69.34,42.925,70.951,42.14,73.405z M62.167,20.099
			c1.125,0.25,0.985,1.765,1.474,2.649c-1.082,0.195-2.018,0.543-2.652-0.292C60.928,21.216,62.105,21.218,62.167,20.099z
			 M55.099,75.174c-1.173-3.54-2.007-7.418-2.649-11.486c-0.375-11.772-0.797-25.352,2.649-35.342
			c0.155-0.237,0.309-0.478,0.296-0.883c1.265,0.5,2.225,1.309,3.825,1.474c2.536,0.077,4.254-0.661,6.482-0.885
			c1.878,6.76,3.36,13.916,3.827,22.088c0.207,9.04,0.015,17.009-2.062,23.855C63.65,74.689,58.278,73.837,55.099,75.174z
			 M66.288,78.706c-0.169,0.957,0.204,1.37,0.298,2.062c-1,0.084-1.689,0.469-2.945,0.295c-0.732,0.248-1.58,0.388-2.652,0.293
			c-0.038,0.845-2.021-0.252-2.06,0.59c-0.837-0.734-0.952-2.19-1.474-3.238L66.288,78.706L66.288,78.706z M60.988,35.119
			c-1.439,1.208-3.438,1.863-3.827,4.123c-0.265,1.344,0.49,1.669,0.591,2.649c0.78,0.2,1.497,0.464,2.061,0.886
			c1.266-0.208,2.564-0.379,3.533-0.886c1.299-1.205,1.395-3.767,0.586-5.595C63.127,35.73,62.312,35.172,60.988,35.119z
			 M61.873,49.256h-1.472c-0.07,0.419-0.486,0.496-0.589,0.883c-0.718,0.854-1.945,1.195-2.061,2.652v1.766
			c0.737,1.035,2.817,1.604,4.415,0.883c1.318-1.169,1.618-4.488,0.297-5.89C62.232,49.482,61.883,49.543,61.873,49.256z
			 M92.207,113.459c-0.641-0.637-1.538-1.014-2.355-1.473c0.154-1.53-0.391-2.36-0.588-3.533c-0.617-0.17-0.841-0.732-1.769-0.592
			c0.049-0.832-1.813,0.246-1.767-0.588v-2.062c-0.418-0.562-0.91-1.055-1.474-1.472c0.181-1.361-0.663-1.696-0.591-2.946
			c-1.253-1.396-2.989-2.312-4.121-3.83c-0.04-2.805-1.616-4.077-2.945-5.594c0.324-1.996-0.832-2.51-1.18-3.828
			c-1.314-0.256-2.249-0.895-3.827-0.885c0.117-1.102-0.235-1.729-1.179-1.768c-1.77,0.096-2.38,1.354-2.648,2.942
			c0.346,0.931,0.916,1.638,1.471,2.356c0.787,0.193,1.843,0.125,2.356,0.59c-0.116,1.393,0.095,2.457,0.293,3.533
			c0.401,0.291,0.593,0.787,0.886,1.18c0.75,0.035,1.141,0.428,1.179,1.178v2.945c1.231,1.908,3.379,2.904,5.302,4.123
			c0.1,1.861,1.573,2.352,2.357,3.533c-1.401,1.129,0.108,3.064,0.881,3.828h3.533c-0.018,0.967-0.838,1.127-0.59,2.355
			c0.519,0.27,0.541,1.029,0.885,1.472c0.826,0.354,2.033,0.325,3.24,0.295c-0.277,1.009-0.924,1.824-0.295,2.945
			c0.703,0.18,1.344,0.423,2.356,0.294C92.811,117.206,92.876,115.279,92.207,113.459z M69.529,105.507
			c-0.434-1.139-0.215-2.929-0.588-4.123v-2.651c-0.396-1.668-0.383-3.738-0.59-5.594c-0.703-1.357,0.039-4.164-1.768-4.418
			c-1.156,0.413-0.35,2.793-0.591,4.123c0.12,0.708-0.535,0.639-0.293,1.473v5.007c0.391,0.884,0.298,2.254,0.293,3.532
			c0.194,0.896,0.649,3.064,0.293,3.535c-0.828-2.215-1.582-4.502-2.058-7.067c-0.633-0.845-1.836-1.11-2.063-2.356
			c0.228-2.092-0.444-3.281-0.294-5.299c0.23-1.215-0.451-1.513-0.296-2.65c-0.038-0.94,0.294-2.254-0.882-2.062
			c-0.063-0.229-0.249-0.341-0.587-0.294c-0.081,0.415-0.648,0.335-0.889,0.589c-0.16,0.428,0.347,1.521-0.292,1.475
			c0.088,2.562-0.24,5.541,0.292,7.654c0.151,2.801-0.513,6.406,0.889,7.954c0.998,0.384,2.053-0.658,2.355,0
			c1.28,3.231,1.464,7.563,6.184,7.36C69.99,110.68,69.416,107.748,69.529,105.507z"/>
	</g>
</g>
</svg>
