<?xml version="1.0" encoding="utf-8"?>
<!-- Generator: Adobe Illustrator 16.0.0, SVG Export Plug-In . SVG Version: 6.00 Build 0)  -->
<!DOCTYPE svg PUBLIC "-//W3C//DTD SVG 1.1//EN" "http://www.w3.org/Graphics/SVG/1.1/DTD/svg11.dtd">
<svg version="1.1" id="Layer_1" xmlns="http://www.w3.org/2000/svg"  x="0px" y="0px"
	 width="120px" height="120px" viewBox="4 4 120 120" style="enable-background:new 4 4 120 120;" xml:space="preserve">
<g id="router">
	<g>
		<path d="M67.506,29.338c0.592,0.772,0.309,2.418,0.873,3.214c0.27,5.183,0.479,10.646,0,15.778
			c-0.365,1.435-1.999,3.55-0.582,4.968c1.414,0.805,3.367-0.051,4.092-0.876c0.146-0.73,0.551-1.203,0.875-1.755
			c0.193-0.78,0.123-1.824,0.582-2.337V34.597c-0.941-5.871-2.863-10.77-5.84-14.608c-1.016-0.156-1.559-0.781-2.631-0.878
			c-0.367,0.121-0.595,0.378-0.584,0.878c-0.131,2.954,1.339,4.308,2.337,6.135C66.668,27.448,67.342,28.135,67.506,29.338z
			 M59.029,34.891c-0.209,0.892,0.3,1.064,0.294,1.752c0.106,2.15-0.076,4.016-0.294,5.843c-0.594,1.596-3.178,2.6-2.337,4.675
			c1.947,1.655,4.39-0.468,5.553-1.46c0.034-0.745,0.537-1.023,0.877-1.46c0.046-0.344-0.051-0.83,0.292-0.877v-6.136
			c-0.692-3.106-1.745-5.852-2.628-8.766c-0.82-3.079-1.477-6.315-4.094-7.597h-0.874v0.877c0.895,1.832,0.701,4.75,1.461,6.72
			C57.634,30.832,58.521,32.672,59.029,34.891z M30.394,48.33c0.086-2.421-2.068-2.604-2.92-4.09
			c-1.314-1.023-2.8-1.875-3.506-3.507v-4.091c1-4.064,2.494-7.635,4.091-11.104c0.576-0.2,0.78-0.78,0.876-1.46
			c0.712-0.166,1.504-0.252,1.46-1.168c-0.646-1.458-3.324-1.404-4.674-0.585c-1.794,1.858-2.955,4.234-4.09,6.72
			c-1.119,2.455-2.113,5.18-2.631,8.182v4.675c0.458,0.808,0.906,1.624,1.169,2.63c1.445,1.084,2.516,2.548,4.384,3.215
			C25.53,48.909,28.906,49.453,30.394,48.33z M49.973,40.733c0.483,0.685,1.705,0.632,2.922,0.584
			c0.812-0.454,1.094-1.436,1.752-2.046v-5.55c-0.46-1.237-0.895-2.748-1.46-4.091c-0.532-1.259-0.842-3.176-2.628-3.214
			c-1.306,0.254-1.68,1.437-2.046,2.628c0.52,3.083,2.21,4.993,2.046,8.768C50.639,39.062,49.665,39.257,49.973,40.733z
			 M31.272,43.363c0.392-0.2,0.768,0.271,0.877,0.291c1.646,0.324,2.947-0.382,3.506-1.46c0.132-1.688-1.659-1.457-1.752-2.922
			c0.014-0.4-0.136-0.641-0.292-0.875V31.09c0.504-0.176-0.021-1.385,0.586-1.459c0.204-0.217,0.724-1.432-0.294-1.169
			c-0.016-0.18-0.044-0.346-0.292-0.293c-4.337,1.41-3.311,8.183-3.799,13.441C30.483,42.012,30.752,42.813,31.272,43.363z
			 M107.828,92.158c0.357-4.858,0.559-11.244,0-16.069c-1.504-1.89-5.13-2.079-7.891-1.169c-13.004,0.244-25.97,0.521-38.57,1.169
			c-5.682-0.386-9.506,0.804-14.608,0c-0.652-9.673-1.851-18.798-1.752-29.219c-0.352-1.307-0.089-3.226-0.586-4.384
			c1.594-0.452,2.532-1.56,3.216-2.92c0.176-3.49-0.428-6.199-2.048-7.891c-1.042-0.123-1.556-0.777-2.919-0.585
			c-1.651,0.591-3.01,1.475-3.508,3.215c-0.016,0.18-0.046,0.347-0.291,0.292c-0.009,1.762-0.091,3.599,0.291,4.969
			c0.326,1.521,1.888,1.813,2.338,3.213c-0.646,0.035-0.126,1.239-0.292,1.753c-0.094,0.686-0.462,1.097-0.292,2.044
			c-0.588,10.364-0.096,20.519,1.167,29.805c-3.132-0.214-5.361,0.479-8.472,0.292c-0.055,0.433-0.707,0.269-1.17,0.29
			c-1.595,0.158-2.601,0.904-3.507,1.755c-0.428-1.225-1.238-2.071-3.214-1.755c-1.511,1.738-1.18,5.038-0.875,7.893
			c0.51,2.604,0.315,5.918,0.875,8.473c0.154,2.965,0.748,5.486,0.88,8.474c0.612,2.503,0.592,5.642,2.628,6.72
			c4.555,0.427,9.712-0.969,14.317-1.461c4.853-0.696,10.295-0.806,15.194-1.459c12.67-0.223,25.342,0.849,37.693,0
			c4.301,0.017,6.889-1.686,11.105-1.754c-0.157-3.176,1.551-4.486,1.458-7.599C109.085,94.406,107.839,93.9,107.828,92.158z
			 M43.254,34.597c0.989,0.47,0.88,2.039,0.875,3.506C41.916,38.445,42.181,35.122,43.254,34.597z M101.984,98.004h-7.601
			c-10.36,0.838-19.993,2.408-31.555,2.044c-10.899,0.205-19.935,2.274-29.803,3.507c-1.057-7.318-1.792-14.961-3.215-21.914
			c8.982,0.66,19.17,0.114,28.634,0.293c1.177-0.188,3.109,0.379,3.798-0.293c10.885-0.121,21.669-0.341,32.141-0.875
			c2.218-0.611,5.499-0.15,8.183-0.295C102.387,86.327,101.827,91.807,101.984,98.004z M47.927,83.977h-4.382
			c-0.373,0.02-0.405,0.375-0.876,0.295c-0.787,0.385-1.551,0.783-2.339,1.168c-0.63,0.637-1.005,1.525-1.459,2.338
			c0.172,2.358,0.978,4.088,2.045,5.552c0.745,0.032,1.022,0.537,1.459,0.877c0.439,0.05,1.08-0.104,1.17,0.291
			c3.632,0.03,6.548-0.659,7.598-3.212C52.26,87.796,50.113,85.127,47.927,83.977z M43.254,89.236
			c-0.006-1.315,3.418-1.17,3.796-0.291C47.093,90.352,43.436,90.695,43.254,89.236z M97.014,85.73
			c-0.5-0.342-1.041-1.545-2.043-1.17c-0.591,0.774-1.837,0.89-1.752,2.338c0.252,1.402,1.061,2.252,2.338,2.631
			c1.748-0.197,3.053-0.84,2.922-2.922C98.344,85.785,97.598,86.127,97.014,85.73z M76.854,84.855
			c-4.586-1.293-4.655,5.614-1.752,6.135c1.616,0.156,1.937-0.985,2.92-1.461C78.2,87.408,77.977,85.682,76.854,84.855z
			 M85.621,90.406c1.87,0.218,2.564-0.746,3.506-1.461c0.083-1.545-0.018-2.906-0.583-3.801
			C85.169,83.367,83.57,88.508,85.621,90.406z"/>
	</g>
</g>
</svg>
