<?xml version="1.0" encoding="utf-8"?>
<!-- Generator: Adobe Illustrator 16.0.0, SVG Export Plug-In . SVG Version: 6.00 Build 0)  -->
<!DOCTYPE svg PUBLIC "-//W3C//DTD SVG 1.1//EN" "http://www.w3.org/Graphics/SVG/1.1/DTD/svg11.dtd">
<svg version="1.1" id="Layer_1" xmlns="http://www.w3.org/2000/svg"  x="0px" y="0px"
	 width="120px" height="120px" viewBox="4 4 120 120" style="enable-background:new 4 4 120 120;" xml:space="preserve">
<g id="rss">
	<g>
		<path d="M105.678,90.336c-1.056-3.096-1.854-6.443-2.025-10.419c-0.602-0.074-0.079-1.272-0.579-1.444
			c0.008-0.683-0.498-0.854-0.291-1.738c-0.649-0.7-0.609-2.09-0.865-3.184c-0.703-2.095-1.438-4.158-2.024-6.367
			c-1.103-1.603-1.529-3.873-2.315-5.787c-1.067-1.731-1.61-3.985-2.315-6.078c-1.891-2.932-3.701-5.945-5.787-8.682
			c-1.396-3.427-3.773-5.873-5.789-8.683c-1.873-1.506-3.717-3.035-5.498-4.628c-1.174-0.561-2.104-1.373-3.182-2.026
			c-1.035-0.703-2.512-0.965-3.475-1.739c-4.791-2.151-10.012-3.879-14.76-6.075c-3.665-0.676-7.073-1.606-10.417-2.606
			c-3.051-1.288-7.425-1.254-10.997-2.025h-6.076c-0.371,0.016-0.403,0.371-0.869,0.287c-0.817-0.237-0.75,0.41-1.447,0.291
			c-0.751,0.409-1.381,0.936-1.157,2.315c-0.358,0.447-0.721,0.29-1.157,0.579c-0.458,0.306-0.475,0.498-0.87,0.869
			c0.058,2.666-0.506,4.703-0.289,7.525c-0.719,0.042-0.085,0.98,0,1.157c-0.209,0.883,0.299,1.056,0.289,1.736
			c-0.285,1.638,1.096,1.604,1.446,2.604c4.875,0.432,10.12,0.496,15.34,0.579c2.848,0.912,5.854,1.67,8.969,2.316
			c2.51,2.025,5.361,3.707,8.104,5.5c1.387,0.828,2.214,2.224,3.763,2.893c0.435,0.726,1.299,1.016,2.025,1.446
			c0.759,0.401,0.997,1.32,2.025,1.448c0.855,1.65,2.232,2.783,3.475,4.052c0.979,1.524,2.715,2.299,3.471,4.05
			c1.17,1.338,2.141,2.877,3.185,4.342c1.286,1.318,2.614,2.594,3.474,4.34c0.963,1.453,1.387,3.439,2.313,4.92
			c0.68,1.83,1.532,3.484,2.028,5.5c0.508,3.444,0.521,7.388,1.156,10.707c0.303,3.651,0.154,7.75,0.868,10.994
			c-0.04,2.159-0.112,4.36,0.578,5.789c1.069,0.859,1.966,1.889,4.052,1.735c0.499,1.431,2.561,1.298,3.762,2.026
			c4.006-0.625,8.672-0.588,11.285-2.605c0.851-0.984,0.926-2.74,1.737-3.764C106.377,98.51,105.46,94.99,105.678,90.336z
			 M27.541,26.667c-0.702-0.743,0.11-3-0.867-3.472c0.34-0.78,1.509,0.001,2.027,0C28.203,24.242,27.694,25.278,27.541,26.667z
			 M33.909,31.59h-3.472c0.334-3.14,0.61-6.335,2.024-8.395c1.341,0.197,2.631,0.18,4.053,0.867
			C35.767,26.568,33.066,28.438,33.909,31.59z M42.879,31.878c-1.419-0.318-3.31-0.162-4.628-0.578
			c0.958-2.031,1.84-4.138,2.892-6.08c1.618,0.216,2.938,0.731,4.341,1.159C44.523,28.119,43.25,29.546,42.879,31.878z
			 M50.115,33.614c-1.076,0.205-1.243-0.494-2.314-0.288c-0.695-0.207,0.844-2.048-0.582-2.026c0.333-1.41,0.833-2.644,1.447-3.763
			c1.428,0.024,2.327,0.568,3.473,0.868C51.563,30.243,50.031,31.119,50.115,33.614z M54.455,35.929
			c-1.156-0.367-0.699-1.161,0-1.736c0.093-0.971,0.295-1.824,0.869-2.315v-0.869c0.892-0.024,0.862,0.876,0.869,1.739
			C55.737,33.932,54.861,34.697,54.455,35.929z M84.553,61.974c-1.141-0.109-1.334-1.175-2.025-1.736
			c0.535-0.907,0.937-1.956,1.156-3.183c0.086-1.725-0.604-2.675-0.865-4.052c-0.674-1.066-0.446-3.025-2.028-3.184
			c-1.415-0.162-1.386,1.125-2.024,1.736c-0.882,0.374-0.774,1.733-2.027,1.737c-0.34-0.721-0.838-1.282-1.445-1.737
			c-0.216-0.843-1.561-0.557-1.445-1.736c1.023-0.613,2.094-1.184,3.18-1.734c1.377-0.266,2.543-0.743,2.896-2.026
			c-0.094-0.969-0.499-1.624-1.158-2.026c-3.508-0.035-5.387,1.56-7.521,2.896c-1.22-0.134-1.334-1.371-2.315-1.739
			c-0.592-0.085-0.568-0.783-1.16-0.867c-0.912,0.142-0.107-1.438-1.156-1.158c0.375-0.933,0.623-3.007-0.579-3.184
			c-1.96-0.513-2.093,2.02-3.474,1.157c-0.06-0.226-0.242-0.337-0.577-0.289c-0.265-1.056,0.266-3.439-0.868-4.34
			c-0.939-0.168-1.349,0.197-2.026,0.288c0.031,0.351-0.425,0.178,0,0c0.092-2.213,0.64-4.364-0.29-6.076
			c-0.349,0.029-0.178-0.422,0,0h0.87c3.067,1.656,6.896,2.558,9.836,4.34c3.146,1.586,5.974,3.481,8.104,6.077
			c4.892,4.564,7.422,11.487,11.576,16.786c-0.449,0.515-1.738,0.192-2.026,0.869C86.084,59.646,85.007,60.498,84.553,61.974z
			 M89.76,66.895c-0.646,0.7-1.215,1.486-1.734,2.314c-0.973-0.938-1.771-2.331-1.155-3.761c0.077-0.185,0.505-0.429,0.575-0.579
			c0.527-1.103,1.679-3.607,2.314-4.342c0.247-0.054,0.275,0.115,0.291,0.289c0.199,1.537,1.135,2.336,1.447,3.762
			C91.366,65.798,90.129,65.911,89.76,66.895z M98.439,96.413c-1.365-0.212-1.901,0.411-2.604,0.868
			c-1.153,1.156-2.146,2.484-2.604,4.339c-0.809-0.83-0.226-3.05-0.864-4.05c0.555-0.604,0.909-1.403,1.444-2.026
			c0.056-1.958,2.102-4.069,0.58-5.788c-1.688-0.572-1.658,1.605-2.604,0.867c-0.378-5.971,2.694-8.488,3.472-13.312
			c-0.316-0.646-0.482-1.449-0.867-2.025c-2.279-0.446-2.625,1.042-4.052,1.449c0.113-3.267,1.997-4.754,2.604-7.525
			c0.246-0.053,0.271,0.114,0.287,0.289c0.246-0.053,0.275,0.115,0.287,0.289c1.258,3.087,1.854,6.831,2.896,10.13
			c0.62,3.72,0.918,7.765,2.023,10.996v5.5H98.439z M77.025,98.729c-0.006-3.563-0.754-6.381-1.445-9.261
			c-0.527-3.041-0.823-6.313-1.446-9.262c-1.101-1.312-1.538-3.286-2.315-4.921c-1.131-1.375-1.56-3.455-2.315-5.21
			c-1.512-3.499-3.562-6.467-5.496-9.548c-3.125-2.857-6.508-5.454-10.71-7.235c-1.851-1.135-4.353-1.628-6.657-2.314
			c-2.201-0.884-5.044-1.129-7.812-1.445c-1.672-0.229-2.475,0.417-4.054,0.286c-2.128-0.182-3.868-0.76-6.364-0.576
			c-0.368,0.401-1.42,0.123-1.447,0.868c-0.914,0.14-1.021-0.523-2.027-0.292c-1.079-0.308-0.822,0.719-1.733,0.581
			c-1.434,3.003-0.688,8.19-0.87,12.444c-0.169,0.938,0.198,1.347,0.288,2.026c0.685,0.089,0.173,1.369,1.158,1.155
			c0.727,1.164,2.146-0.069,3.762,0.291c0.795,0.651,2.679,0.215,3.475,0.867c1.716-0.173,2.576,0.508,4.339,0.289
			c2.482,1.572,4.84,3.267,8.104,4.051c1.576,1.607,3.964,2.403,5.207,4.343c1.989,1.29,2.605,3.954,4.63,5.211
			c1.562,1.715,2.983,3.575,4.053,5.787c1.094,2.186,1.972,4.586,2.894,6.944c0.646,3.041,0.787,6.359,0.869,9.262
			c0.687,0.66,1.242,1.453,2.314,1.734c0.964,0.482,0.777,2.118,2.316,2.024c0.224,0.067,0.568,0.008,0.58,0.291
			c3.085,0.192,4.906-0.878,7.234-1.446c2.114-0.876,4.639-1.344,5.207-3.764c0.075-0.848-0.652-0.889-0.578-1.735
			C77.371,100.121,76.951,99.67,77.025,98.729z M28.122,60.238c-0.159,0.419,0.337,1.496-0.289,1.444
			c-0.277,0.545,0.866,0.971,0,1.161c-1.322-0.036-0.159-1.643,0-2.027v-1.448c1.021-1.485,1.264-3.75,2.312-5.208
			c-0.08-0.465,0.274-0.495,0.292-0.868c1.005-0.234,1.112,0.43,2.024,0.291C31.102,55.887,29.443,57.896,28.122,60.238z
			 M34.197,62.843H32.17c0.272-1.272,1.104-1.987,0.87-3.764c0.861-1.549,1.656-3.162,2.315-4.919
			c1.165-0.198,1.652,0.278,2.604,0.292C36.871,57.412,34.618,59.211,34.197,62.843z M43.747,57.635
			c-0.649,1.282-1.62,2.236-2.315,3.472c-0.241,0.727-0.793,1.135-0.867,2.026c-0.643,0.228,0.054,1.792-1.16,1.446
			c-0.663-0.81,0.512-1.632,0.869-2.313c0.046-1.319,0.242-1.137,0-2.315c0.937-1.283,1.299-3.139,2.027-4.631
			c1.375-0.121,2.086,0.42,3.184,0.58C45.386,56.954,44.494,57.221,43.747,57.635z M46.064,63.712
			C46.091,64.061,45.643,63.889,46.064,63.712c-0.11-2.134,1.041-3.012,1.155-4.919c0.938,0.122,0.576,1.544,1.158,2.023
			C47.76,61.937,47.014,62.924,46.064,63.712z M59.953,69.787c-0.769,0.288-0.953,1.169-1.446,1.736
			c-1.148,0.877-1.573,2.478-2.314,3.762c-0.701-0.557-1.149-1.355-1.738-2.023c-0.262-2.871,1.42-3.793,1.444-6.367
			c-0.101-0.379-0.509-0.455-0.575-0.869c-3.047-0.15-3.976,1.814-4.92,3.763c-0.849-0.244,0.173-0.935,0-1.446
			c0.402-0.179,0.043-1.113,0.578-1.156c-0.131-2.35,0.997-3.443,1.449-5.21c-0.163-1.574-0.956-2.517-1.449-3.764
			c2.895,1.836,5.825,3.633,8.104,6.08c0.562,1.464,1.544,2.505,2.314,3.762C61.492,69.205,60.062,68.836,59.953,69.787z
			 M70.372,100.752c-1.011,0.244-1.542,0.967-2.896,0.868c-0.291-1.64,0.537-2.164,1.157-2.892c0.025-1.328,0.839-1.867,0.58-3.474
			c-0.401-1.042-1.88-0.146-2.315-0.58c-0.847-2.823,2.43-5.588,0.578-8.396c-1.728-0.377-2.156,0.549-3.183,0.869
			c0.012-1.266-0.724-1.783-1.16-2.603c0.297-2.503,1.597-4.003,1.738-6.659c-0.263-0.508-0.646-0.895-1.158-1.154
			c-1.294,0.056-1.961,0.74-2.604,1.445c-0.695-0.715,0.434-2.059,0.579-2.895c0.362-0.982,0.504-2.195,0.866-3.182v-0.869
			c0.261,0.129,0.519,0.256,0.579,0.58c0.798,1.809,1.16,4.051,2.316,5.496c0.766,1.743,1.499,3.52,2.313,5.211
			c-0.045,0.336,0.064,0.516,0.293,0.578c-0.131,1.577,0.514,2.379,0.289,4.051c0.661,3.293,1.422,6.485,2.024,9.84v3.764H70.372z
			 M38.541,78.76c-1.68-0.443-3.431-0.814-5.501-0.871c-0.062,0.229-0.239,0.34-0.579,0.291c-0.698-0.117-0.63,0.529-1.444,0.293
			c-1.082,0.172-1.181,1.327-2.315,1.444c-0.294,0.962-2.109,0.403-2.608,1.159c-2.651,3.518-5.103,7.242-4.918,13.6
			c1.136,5.812,5.37,8.521,12.445,8.395c6.062-0.594,9.947-3.366,12.153-7.813c1.427-7.008-1.814-11.631-4.917-15.05
			C39.874,79.934,39.331,79.219,38.541,78.76z M28.122,96.413c-0.396-0.761-1.22-1.101-1.447-2.028c-0.231-1,0.32-1.22,0.579-1.734
			c0.628-0.049,0.13,1.024,0.288,1.445c0.317,0.844,1.183,1.135,2.025,1.448c0.027,0.458-0.137,1.104,0.292,1.157
			C29.451,97.546,28.86,96.189,28.122,96.413z M34.485,93.229c-0.147-0.149,0.21-0.369,0.289-0.287
			C34.928,93.09,34.568,93.309,34.485,93.229z M39.405,94.676c-0.783-1.047-0.943-2.722-1.736-3.763
			c-0.931-0.804-1.193-2.278-2.314-2.896c-1.208-0.242-1.367,0.563-2.315,0.58c0.202-1.455-0.49-2.017-0.288-3.474
			c0.618-0.635,1.405-1.104,2.892-0.867C38.508,85.989,41.484,90.702,39.405,94.676z"/>
	</g>
</g>
</svg>
