<?xml version="1.0" encoding="utf-8"?>
<!-- Generator: Adobe Illustrator 16.0.0, SVG Export Plug-In . SVG Version: 6.00 Build 0)  -->
<!DOCTYPE svg PUBLIC "-//W3C//DTD SVG 1.1//EN" "http://www.w3.org/Graphics/SVG/1.1/DTD/svg11.dtd">
<svg version="1.1" id="Layer_1" xmlns="http://www.w3.org/2000/svg"  x="0px" y="0px"
	 width="120px" height="120px" viewBox="4 4 120 120" style="enable-background:new 4 4 120 120;" xml:space="preserve">
<g id="ruler">
	<g>
		<path d="M112.9,106.6c-0.9-1.199-1.9-2.199-3.101-3.1c-1.5-2.6-4.1-4.1-6.2-6.2c0.101-1.1-1-1-1.199-1.8
			c-0.601-0.5-0.801-1.3-1.5-1.5c-0.9-1.2-1.9-2.2-3.101-3.1c-1.899-2.2-3.7-4.5-5.899-6.5C91.8,83.6,91.1,83.1,90.7,82.6
			c-0.5-0.5-0.9-1.199-1.5-1.5c-0.8-1.3-1.601-2.5-2.8-3.399c-0.601-1.5-2-2.101-2.801-3.4C78.5,69.1,73.5,63.9,69.4,57.7
			c-7.2-9.2-16.5-16.3-25.3-24c-4.2-4-8.2-8.2-12.9-11.7c-1.2-0.9-2.6-1.5-3.4-2.8c-1.7-0.4-2.1-2-3.7-2.5c-0.9-1.2-2.1-2-3.4-2.8
			c-0.2-0.8-1.8-0.3-1.8-1.2c-0.3-0.9-1.2-1-2.2-1.2c-0.8,0-1,0.5-1.5,0.6c-1.8,0.9-0.7,4.6-1.8,6.2c0.8,4.6,1,10.8,1.2,15.1
			c0.2,3.6,0.6,7.5,0.9,10.2c0.1,0.4-0.3,1.3,0.3,1.5c-0.2,1.3,0.2,2,0.3,3.1c0,2.2,0.5,4,0.6,6.2c0.4,4,0.3,8.5,0.9,12.3
			c0.2,8.5,1,16.399,1.2,25c0.1,4.5,0,8.8-0.3,12.899c-0.2,2.4,0.5,3.801,0.3,6.2c0.2,0.7,1,1.8,0.3,2.5c0,1.101,0.8,1.5,0.9,2.5
			c2.1,0.9,4.9,0.601,7.7,0.601H36c1.9-0.2,4.1,0.3,5.2,0c6.5,0.6,14.3-0.2,20.3-0.301c4.5-0.1,8.5,0.101,12.9,0
			C85.6,115.9,97,115.9,107.7,115.2c0.399-0.4,1.2-0.5,1.5-0.9c0.8-0.6,0.7-0.399,1.8-0.3c0.4-0.5,1.5-0.3,1.8-0.9
			c0.8-0.1,0.601-1.3,1.2-1.5C114.9,108.9,113.8,107.7,112.9,106.6z M103.4,107.5H90.8c-0.1-3.2,0.601-7.2-2.2-7.7
			c-4.399-0.5-4.1,3.7-4,7.7c-2-0.2-4.699,0.3-5.899,0c-0.601-1.2,0-3.7-0.601-4.9c-0.1-1.6-1.5-2-2.8-2.5c-3,0.5-3.5,4.4-2.8,7.7
			h-7.1c-0.801-2.8,0.1-6.399-0.9-8.3c-0.7-0.7-2.8-0.1-4-0.3c-0.5,0.399-1.2,0.6-1.2,1.5c-0.9,0,0.3,1.899-0.6,1.8
			c-0.2,1.9,0.3,4.5,0,5.5h-4.9c-0.3-3,0.9-7.5-1.5-8.3c-3.8-0.101-1.3,6.1-2.5,8.6c-2.6-0.2-4.2,0.5-6.8,0.3
			c-0.1-2.8,0-5.3,0.3-7.699c-0.4-0.801-1.1-1.2-1.8-1.5c-3.5,0.6-3,5.199-3.1,9.199H35c-0.3-3.699,1.1-9.1-2.5-9.6
			c-3.6,0.5-2.2,6.1-2.5,9.9c-1.9-0.2-4.2,0.399-5.2,0v-7.7c-0.1-1.101-0.4-2.101-0.6-3.101c-0.1-5.699,0.5-10.8,0.3-16.6
			c-1-10-1.2-20.7-2.2-30.8c-1.5-9.5-2.7-19.2-3.4-29.6v-0.9c0.1,0,0.2,0,0.3,0c2,1.4,3.6,3.4,5.5,4.9c1.9,1.5,3.9,2.9,5.9,4.3
			c3.4,3.4,7,6.6,10.2,10.2c6.8,6.7,14.3,12.8,20.6,20c3.1,3.7,5.6,8,8.9,11.4c2.9,3.7,6.601,6.8,9.9,10.5
			c2.899,3.9,5.8,7.7,9.2,11.1C90.6,94.7,92.6,96.2,94.3,97.8c1.601,1.8,3.2,3.601,4.601,5.5c1,0.5,1.5,1.5,2.8,1.8
			C102.2,106.2,104.2,106.5,103.4,107.5z M68.6,84.4c-0.5-0.9-1.399-1.301-1.5-2.5C60.2,75.7,53.9,68.8,47.4,62.2
			c-2.3-2.1-4.2-4.7-7.1-6.2c-1.7,0.2-2.5-0.4-4-0.3c-0.8,0.3-1.1,1.1-1.8,1.5c0,4.3-0.5,8.1-0.3,12.6c0.6,2.9,0.7,6.2,1.2,9.2
			c0.3,4.8-0.6,10.7,0.6,14.5c1.1,0,0.7-1.6,2.2-1.2C39.3,92.4,40,93,41.3,92.9H68.4C69.6,92.7,69.6,91.3,70.9,91.1
			C72,90.9,72.1,91.8,73.1,91.7c-0.6-2-2.3-2.9-2.8-4.9C69.2,86.4,69.1,85.2,68.6,84.4z M64.9,87.8c-7,0.7-15.601,0.101-23.4,0.3
			c0.4-9.1-1.7-15.8-1.9-24.3c-0.1-0.6,0.3-0.6,0.3-0.3c0.9,1.1,1.7,0.8,3.4,0.6c3.3,3.1,6,6.8,10.5,8.6c2.2,2.2,4.2,4.7,6.5,6.8
			c0.4,0.7,1.1,1.3,1.5,1.9c0.5,0.6,0.8,1.199,1.2,1.8C63.8,84.2,65.4,85,64.9,87.8z"/>
	</g>
</g>
</svg>
