<?xml version="1.0" encoding="utf-8"?>
<!-- Generator: Adobe Illustrator 16.0.0, SVG Export Plug-In . SVG Version: 6.00 Build 0)  -->
<!DOCTYPE svg PUBLIC "-//W3C//DTD SVG 1.1//EN" "http://www.w3.org/Graphics/SVG/1.1/DTD/svg11.dtd">
<svg version="1.1" id="Layer_1" xmlns="http://www.w3.org/2000/svg"  x="0px" y="0px"
	 width="120px" height="120px" viewBox="0 0 120 120" enable-background="new 0 0 120 120" xml:space="preserve">
<g id="sale-tag">
	<g>
		<path d="M110.004,15.72c-1.163-0.603-2.318-1.216-3.35-1.951c-2.891-0.459-6.469-0.229-9.766-0.281
			c-0.359,0.017-0.391,0.357-0.842,0.281c-1.021,0.373-2.006,0.783-3.068,1.115c-4.031,2.946-7.23,6.722-10.047,10.884
			c-0.443,1.415-0.998,2.72-1.674,3.908c-0.615,1.338-0.877,3.032-1.956,3.905c-3.466,0.439-7.125,0.688-11.161,0.56
			c-3.062,1.029-7.268,0.922-10.328,1.953c-2.326,1.115-4.214,2.669-6.139,4.188c-1.536,1.905-3.939,2.946-5.303,5.021
			c-1.661,1.783-3.281,3.605-5.023,5.303c-1.856,1.683-2.693,4.376-5.304,5.303c-1.503,1.938-3.084,3.801-4.744,5.583
			c-1.847,1.596-3.807,3.076-5.303,5.021c-1.615,1.824-3.94,2.942-5.583,4.744c-1.578,1.957-3.666,3.403-5.022,5.582
			c-0.37,3.163-1.279,5.791-1.395,9.209c1.766,3.441,4.689,5.729,7.533,8.096c0.006,1.205,1.393,1.026,1.398,2.231
			c0.83,0.377,1.157,1.258,1.673,1.951c1.277,1.235,2.388,2.638,3.35,4.188c1.339,1.172,2.287,2.735,3.626,3.907
			c1.185,1.326,2.043,2.981,3.35,4.187c1.873,0.547,3.094,1.742,5.303,1.955c1.611,0.806,3.354,1.479,5.582,1.674
			c3.502-0.312,5.981-1.646,9.209-2.231c6.481-5.337,13.049-10.581,18.977-16.466c3.009-2.297,6.146-4.46,8.932-6.979
			c2.426-2.881,5.608-4.998,8.375-7.535c0.139-1.721,1.713-2.01,1.953-3.629c1.229-9.838,2.889-19.252,3.069-30.142
			c4.505-1.17,8.389-2.96,11.719-5.303c2.291-2.363,4.405-4.899,5.582-8.374c0.046-0.327-0.048-0.791,0.281-0.837
			C114.432,26.19,112.607,20.035,110.004,15.72z M79.582,47.816c-0.043,0.323,0.064,0.497,0.281,0.557
			c-0.317,1.775-2.275,1.293-3.631,0.837C76.484,47.88,77.857,47.672,79.582,47.816z M92.422,43.629
			c-0.014,0.843-0.751,2.391,0,3.07c-0.691,0.797-1.285,1.693-1.953,2.511c0.219,1.089,0.289,1.447-0.279,2.234v6.417
			c-0.819,4.112-1.09,8.774-1.955,12.84c-1.025,2.505-2.729,4.338-4.186,6.418c-1.429,2.015-3.154,3.729-4.744,5.582
			c-2.295-0.25-2.869,1.225-4.466,1.674c-0.995,1.053-2.489,1.604-3.349,2.792c-1.289,0.757-2.271,1.819-3.35,2.79
			c-1.302,0.654-1.932,1.977-3.353,2.514c-0.708,1.334-2.265,1.825-3.065,3.069c-1.088,0.961-2.272,1.824-3.072,3.069
			c-1.553,0.492-2.027,2.064-3.35,2.789c-0.675,1.277-2.222,1.686-3.07,2.793c-0.967,0.146-1.484,0.746-2.511,0.836
			c-0.37,0.748-1.761,0.473-2.232,1.115c-2.196,0.408-5.168,0.043-7.256,0.559c-2.23-0.932-3.554-2.771-5.583-3.906
			c-2.586-3.275-5.263-6.46-7.814-9.77c-3.062-2.703-4.86-6.672-6.698-10.604v-3.905c2.536-3.047,6.262-4.899,8.931-7.812
			c3.151-2.436,5.757-5.408,8.931-7.814c2.6-2.981,6.223-4.938,8.649-8.094c1.483-1.311,2.946-2.638,4.467-3.907
			c0.928-0.468,1.513-1.28,2.511-1.676c0.687-0.614,1.225-1.38,2.233-1.673c0.963-1.551,2.625-2.399,3.629-3.908
			c1.471-1.039,2.952-2.072,4.466-3.069c4.25-0.959,8.912-1.509,13.675-1.954c0.133,2.084-0.865,3.042-0.838,5.023
			c-3.688,0.594-5.448,3.109-5.582,7.257c0.047,0.789,0.516,1.161,0.559,1.952c0.619,1.338,2.152,1.756,3.352,2.514
			c2.668-0.311,4.635-1.317,6.977-1.955c0.691-0.795,1.284-1.692,1.953-2.511c-0.137-1.448,0.299-3.464-0.279-4.466
			c-0.119-0.996-0.701-1.531-1.395-1.953c-0.488-0.628-1.592-0.644-1.674-1.675c0.219-2.199,1.152-3.684,1.951-5.303
			c2.172-0.155,4.164-0.489,5.861-1.114c2.229,0.651,3.357,2.408,4.465,4.185C92.9,41.689,92.502,42.499,92.422,43.629z
			 M109.447,33.303c-0.162,1.143-1.285,1.32-1.398,2.512c-0.715,0.679-1.318,1.473-1.951,2.233
			c-2.604,1.304-4.596,3.218-8.094,3.629c0.085-0.845,0.863-0.999,0.557-2.233c-0.521-0.87-0.709-2.08-1.953-2.232
			c-0.017-1.471-1.494-1.481-1.674-2.791c-1.267-0.502-2.062-1.476-3.07-2.233c-0.496-0.153-1.156-0.144-1.395-0.558h-3.35
			c0.027,0.337-0.406,0.172,0,0c2.549-5.73,7.062-9.494,12.561-12.279c1.482-0.097,2.7-0.463,4.184-0.56
			c1.137,0.019,1.349-0.884,2.514-0.836c2.027,2.251,2.814,5.743,3.629,9.21C110.004,29.395,110.15,31.775,109.447,33.303z
			 M74.561,67.352c-1.65,0.489-2.484,1.793-3.906,2.513c-1.258-1.998-3.125-3.39-4.465-5.304c0.785-0.515,1.506-1.096,1.396-2.512
			c-0.454-0.85-0.857-1.744-1.954-1.954c-1.788-0.298-2.291,0.688-3.351,1.116c-0.2-0.633-0.84-0.834-1.393-1.116
			c0.057-0.989-1.312-0.551-1.119-1.674c1.216-1.855,4.142-1.999,3.628-5.583c-0.598-0.517-1.487-0.744-2.51-0.837
			c-2.341,1.848-5.097,3.278-5.583,6.978c1.315,1.384,2.604,2.792,4.187,3.907c1.529,2.285,3.604,4.024,5.581,5.86
			c0.76,1.102,1.911,1.811,2.513,3.07c1.365,0.588,1.458,2.449,3.068,2.791h1.675c0.989-0.401,1.657-1.131,2.231-1.955
			c0.824-0.663,1.998-0.979,2.232-2.23c0.086-1.018-0.044-1.816-0.277-2.513C75.494,68.094,75.441,67.305,74.561,67.352z
			 M63.675,75.443c-0.729,0.387-0.958,1.271-1.95,1.396c-1.688-2.312-3.418-4.585-5.583-6.419c-1.984-2.016-3.772-4.229-6.698-5.303
			c-1.647,0.215-2.061,1.662-2.233,3.349c0.839,1.763,2.306,3.144,3.628,4.468c1.389,1.389,2.825,2.773,4.465,3.905
			c0.76,1.287,1.682,2.411,2.789,3.351c0.385,0.641,1.151,0.896,1.675,1.396c0.102,1.015,0.662,1.572,1.676,1.675
			c1.881-0.164,2.416-1.677,3.346-2.793c1.05-0.998,2.402-1.691,2.794-3.348c-0.212-0.812-0.664-1.385-1.116-1.954
			C65.52,75.24,64.204,74.95,63.675,75.443z M55.861,82.701c-1.774-0.646-3.219-1.617-4.744-2.512
			c-3.573-1.266-6.652-3.021-9.767-4.746c-1.359,0.242-1.435-0.799-2.792-0.559c-0.385-0.013-0.613,0.133-0.838,0.278
			c-0.216,0.062-0.322,0.233-0.278,0.562c-0.629,0.207-0.11,1.563-0.279,2.23c1.315,2.498,2.829,4.797,4.744,6.695
			c0.913,1.043,1.533,2.375,2.512,3.351c0.904,1.049,1.932,1.979,2.791,3.071c0.97,1.447,1.352,3.482,4.188,3.068
			c1.214-3.664-1.979-5.26-2.792-7.812c1.403,0.006,1.417-1.377,2.511-1.679c1.009,1.039,2.838,1.259,3.908,2.232
			c0.854,0.98,4.111,1.465,4.188-0.556C59.158,84.057,57.116,83.773,55.861,82.701z M46.095,82.701
			c-0.65,0.674-0.749-0.436-1.395-0.559C44.901,81.52,46.291,82.007,46.095,82.701z M38.28,89.678
			c-1.442-0.232-2.61-0.74-4.188-0.836c-0.92-0.756-2.759-0.589-3.35-1.675v-3.63c1.338-0.057,3.069,0.277,3.631-0.557
			c0.241-1.823-1.387-1.777-1.954-2.791c-0.418-0.047-1.033,0.1-1.118-0.28h-1.953c-1.221,0.547-2.077,1.458-2.512,2.792v5.302
			c0.219,0.063,0.325,0.233,0.279,0.56c0.155,0.684,1.08,0.596,0.838,1.674c2.756,1.337,5.652,2.535,9.487,2.789
			c0.299,0.729,1.656,0.395,1.954,1.119c0.573,0.541,1.704,0.528,1.395,1.953c-1.921,0.031-3.543,0.361-4.466,1.396
			c-0.161,2.021,1.125,2.599,2.233,3.349c0.417,0.05,1.032-0.099,1.117,0.28c2.07-0.256,3.802-0.852,5.025-1.955
			c0.45-1.036,0.909-2.066,1.116-3.352c-0.207-1.096-0.584-2.021-0.838-3.066C42.928,91.542,41.083,90.129,38.28,89.678z"/>
	</g>
</g>
</svg>
