<?xml version="1.0" encoding="utf-8"?>
<!-- Generator: Adobe Illustrator 16.0.0, SVG Export Plug-In . SVG Version: 6.00 Build 0)  -->
<!DOCTYPE svg PUBLIC "-//W3C//DTD SVG 1.1//EN" "http://www.w3.org/Graphics/SVG/1.1/DTD/svg11.dtd">
<svg version="1.1" id="Layer_1" xmlns="http://www.w3.org/2000/svg"  x="0px" y="0px"
	 width="120px" height="120px" viewBox="4 4 120 120" style="enable-background:new 4 4 120 120;" xml:space="preserve">
<g id="save">
	<g>
		<path d="M111.164,45.441c-0.141-2.195-0.833-4.406-0.592-6.526c-2.174-3.464-4.678-6.596-6.528-10.381
			c-1.567-1.499-3.298-2.831-4.748-4.451c-2.211-0.852-2.718-3.41-5.337-3.856c-17.963-1.04-37.101,0.522-54.878-0.297
			c-3.639,0.677-8.32,0.996-11.567,1.187c-3.657,3.46-4.97,9.268-5.637,15.722v21.358c-0.087,1-0.148,2.027-0.591,2.669
			c-0.271,0.818-0.095,2.083-0.595,2.671c0.095,0.993,0.305,1.87,0.892,2.37c0.405,0.784,0.35,2.022,0.589,2.969
			c0.13,4.226-0.291,8.994,0.3,12.755c-0.414,4.766,0.928,7.771,0.891,12.162c0.632,1.046,0.775,2.585,1.482,3.559
			c0.125,1.655,0.783,2.776,1.187,4.153c1.179,1.59,2.77,2.767,4.449,3.854c1.387,1.479,2.906,2.83,5.044,3.562
			c4.838,1.306,10.246,0.353,15.722,0.595c5.402,0.234,11.013,0.436,16.608,0.295c5.269-0.664,10.664-1.199,16.315-1.482
			c0.036-0.656,1.256-0.127,1.78-0.297c0.695-0.096,1.109-0.469,2.074-0.297c0.988-0.492,2.271-0.694,3.263-1.188
			c2.619-0.445,5.514-0.619,7.713-1.482c2.709-1.147,4.321-3.391,6.229-5.34c1.217-2.736,3.279-4.631,3.855-8.009
			c0.76-0.332-0.118-2.294,0.594-2.67v-3.56c0.383-1.889,0.307-4.242,0.295-6.526c0.676-0.41,0.113-2.063,0.299-2.966
			c-0.027-1.217-0.059-2.432,0.297-3.264c-0.062-2.434-0.006-4.752,0.297-6.823C110.975,59.374,111.582,51.974,111.164,45.441z
			 M46.201,25.863c13.768,0.268,30.247,0.203,41.229,0.593c0.209,5.051-0.26,9.426-0.591,13.942
			c-0.678,0.604-0.106,2.462-0.296,3.559c0.146,1.332-0.148,2.223-0.298,3.264c-0.036,2.335-0.457,4.286-0.593,6.524
			c-4.907-0.16-8.772,0.719-12.758,1.485h-12.75c-1.939-0.238-3.562-0.788-5.337-1.188c-2.688-1.762-5.438-3.463-7.121-6.23
			c-2.007-5.605-1.178-14.05-1.781-21.06C45.573,26.325,45.587,26.03,46.201,25.863z M103.452,67.094v4.45
			c-0.599,7.216-0.749,14.876-1.481,21.95c-1.467,2.193-3.201,4.12-5.343,5.637c-1.407,0.171-2.733,0.43-4.448,0.296
			c-1.156,0.21-0.014-1.04,0-1.481c-0.098-0.693-0.354-1.227-0.594-1.78c-0.346,0.049-0.527-0.065-0.592-0.296
			c-3.287-0.419-3.465,2.271-4.154,4.449c-3.539,0.514-7.355,0.752-10.975,1.187c0.457-1.616,1.39-2.764,1.777-4.448
			c0.606-1.379,1.295-3.166,0-4.152c-2.705,0.059-3.457,2.078-5.043,3.262c-0.375,1.006-0.885,1.883-1.481,2.67
			c-0.321,1.062-0.462,2.307-0.89,3.262c-1.761-0.176-2.644,0.521-4.447,0.299c0.688-1.387,1.384-2.769,2.074-4.153
			c0.737-1.238,1.688-2.269,1.778-4.153c-0.108-1.175-0.856-1.709-1.778-2.074c-2.397,0.172-3.576,1.565-4.749,2.967
			c-0.716,0.566-1.253,1.313-1.481,2.371c-0.784,0.402-0.631,1.739-1.188,2.373c0.042,1.346,0.841,1.932,1.188,2.969
			c-2.156-0.182-3.728,0.227-5.637,0.295c0.463-1.911,1.421-3.325,2.077-5.042c0.483-1.675,1.785-3.685,0.594-5.341
			c-0.345,0.05-0.528-0.063-0.594-0.297c-3.272-0.01-3.916,2.61-5.93,3.856c-0.969,2.293-2.574,3.953-2.672,7.119h-4.447
			c0.729-2.731,2.087-4.832,2.966-7.415c0.471-1.309,1.083-2.477,1.481-3.855c0.573-0.877,1.013-3.117,0-3.857
			c-1.813-0.229-2.589,0.574-3.56,1.188c-3.351,3.273-5.033,8.215-7.12,12.754c-0.743-0.244-1.162-0.812-2.077-0.888
			c-0.218-1.013,1.096-0.489,1.189-1.187c0.609-0.082,0.278-1.105,0.887-1.188c1.312-3.928,3.123-7.358,4.452-11.271
			c1.09-1.48,1.746-3.396,2.668-5.043c0.626-1.438,2.041-4.287,0.595-5.935c-3.149-0.182-3.691,2.244-5.342,3.562
			c-0.352,1.131-1.085,1.879-1.481,2.966c-0.534,0.85-0.782,1.987-1.482,2.671c-0.187,0.584-0.281,1.156-0.592,1.779
			c-0.324,0.646-0.646,0.789-0.894,1.779c-0.145,0.59-0.615,1.053-0.888,1.777c-0.69,1.831-2.078,4.506-2.078,7.418
			c-1.607-1.261-2.605-3.128-2.668-5.934c-0.411-0.379-0.128-1.453-0.892-1.484c0.085-0.521-1.396-0.917-0.591-1.186
			c0.853-0.035,1.939,0.16,2.374-0.297c1.738-1.227,1.939-3.992,2.965-5.934c0.814-2.15,1.586-4.346,2.671-6.229
			c0.899-2.201,1.67-4.246,2.668-6.229c0.964-1.918,2.511-3.676,2.669-6.23c-0.197-1.287-2.569-0.962-3.561-0.593
			c-0.885,0.599-1.465,1.503-2.373,2.077c-0.594,1.283-1.554,2.201-2.075,3.559c-0.955,0.828-0.963,2.599-2.075,3.265
			c-0.674,2.983-2.606,4.715-3.264,7.712c-0.674-0.314-0.114-1.865-0.3-2.67V75.7c0.936-3.319,1.731-6.775,2.969-9.791
			c0.625-1.547,1.238-3.109,1.778-4.744c0.754-1.322,1.812-2.342,1.781-4.451c-0.026-1.456-1.3-1.664-2.078-2.373
			c-0.615,0.178-1.949-0.367-2.077,0.296c-0.743-0.391-0.929,1.174-1.184,0.296c0.372-2.54,2.794-5.364,1.184-8.008
			c-0.816-0.984-2.741,0.443-2.965,0c-0.64-7.176-0.278-14.829,2.076-19.875c0.493-0.403,1.731,0.242,2.966,0
			c0.508-0.678,2.265-0.108,3.264-0.295c0.957-0.429,2.485-0.282,3.856-0.297c-0.049,1.532,0.186,3.349-0.295,4.449
			c-0.14,4.787,0.139,9.156,0.295,13.646c0.662,5.171,2.985,8.681,5.637,11.866c2.908,2.924,6.909,4.758,11.862,5.635
			c4.448,0.103,9.36-0.261,13.351,0.297c4.376-0.272,7.568-1.725,12.459-1.483c1.281-0.301,2.711-0.451,3.854-0.89
			c1.629-0.746,2.592-2.157,3.561-3.559c0.715-9.713,0.01-19.28,0.296-29.07c1.501,0.576,2.257,1.896,3.265,2.967
			c1.219,0.754,2.149,1.804,3.265,2.669c1.544,3.793,4.118,6.559,5.928,10.085C103.539,50.571,104.645,59.981,103.452,67.094z
			 M79.721,49.89c1.949-1.749,1.486-5.854,1.486-9.492c0-3.874,0.395-8.019-0.893-10.382c-1.621-0.95-4.646-0.495-7.117-0.594
			c-0.354,0.144-0.674,0.317-0.893,0.594c-1.027,1.147-1.496,2.852-2.371,4.153c-0.381,4.813-2.203,11.042-0.3,15.425
			C71.697,51.068,77.195,50.645,79.721,49.89z"/>
	</g>
</g>
</svg>
