<?xml version="1.0" encoding="utf-8"?>
<!-- Generator: Adobe Illustrator 16.0.0, SVG Export Plug-In . SVG Version: 6.00 Build 0)  -->
<!DOCTYPE svg PUBLIC "-//W3C//DTD SVG 1.1//EN" "http://www.w3.org/Graphics/SVG/1.1/DTD/svg11.dtd">
<svg version="1.1" id="Layer_1" xmlns="http://www.w3.org/2000/svg"  x="0px" y="0px"
	 width="120px" height="120px" viewBox="0 0 120 120" enable-background="new 0 0 120 120" xml:space="preserve">
<g id="money4">
	<g>
		<path d="M72.994,35.734c1.136,0.184,1.148-0.756,2.281-0.57c1.101-0.709,2.752-0.865,3.711-1.713
			c1.488-0.316,2.145-1.469,3.707-1.711c1.627-0.18,3.197-0.418,3.426-1.997c0.611-1.124,0.281-3.419-0.284-4.28
			c-0.106-1.319-1.237-1.615-1.431-2.853c-0.518-0.812-1.62-1.041-1.993-1.997c-0.431-0.426-1.204-0.51-1.431-1.141
			c-0.748-0.296-1.748-0.342-2.852-0.285c-0.562,0.484-1.763,0.327-2.281,0.855c-0.578-0.848-0.22-2.636-1.142-3.139
			c-0.547-0.785-1.11-1.551-1.999-1.997c-4.911-0.604-9.328-1.704-15.121-1.427c-0.332,0.047-0.508-0.062-0.568-0.284H56.73
			c0.062,0.266-0.12,0.236-0.284,0.284c-1.273,0.369-2.344,1.067-2.852,2.282c-1.079,0.634-0.264,3.161-1.43,3.71
			c-4.977-0.223-8.496,1.012-10.552,3.709c-0.179,2.363,1.489,2.883,2.566,3.994c1.097,1.089,2.438,1.934,3.993,2.567
			c1.262,0.925,2.849,1.525,3.992,2.567c1.184,0.599,2.737,2.118,4.565,1.141c1.413-3.328-1.886-4.114-3.136-5.705
			c-1.2-0.324-1.85-1.195-2.854-1.712c-0.428-0.333-1.168-0.354-1.427-0.856c-0.255-0.166-1.626-0.6-0.855-0.855h3.138
			c0.868-0.179,2.459,0.365,2.853-0.284c1.259-0.372,1.169,0.015,1.998,0.569c0.452,0.706,1.998,0.116,2.567,0
			c0.747-0.768,0.747-2.655,0-3.424c-0.279-0.71-1.604-2.3-0.284-2.852c2.362,0.3,4.909,0.413,7.417,0.57
			c0.035,0.631,1.209,0.121,1.711,0.285c0.338,0.328,1.014,0.323,1.715,0.285c1.268,0.062,1.174,1.488,1.994,1.996
			c0.521,0.984,2.144,0.43,3.142,0.287c0.188,1.141,1.412,1.246,2.853,1.141c1.03-1.013,1.891,0.566,2.281,1.142
			c0.776,0.558,1.559,1.106,1.715,2.282c0.221,1.362-1.783,0.499-1.998,1.426c-1.009,0.135-1.563,0.721-2.283,1.141
			c-1.869,0.414-3.067,1.496-4.851,1.996c-1.544,0.147-2.243,2.412-1.428,3.994C72.059,34.77,71.743,36.035,72.994,35.734z
			 M102.665,94.221v-5.992c-0.397-3.594-0.577-7.41-1.142-10.84c-1.426-2.565-1.856-6.132-3.424-8.56
			c-1.185-2.813-2.521-5.468-4.279-7.703c-1.174-2.821-3.17-4.817-4.85-7.133c-2.203-1.788-3.992-3.993-5.99-5.991
			c-2.015-2.01-4.403-3.542-6.562-5.42c-1.221-0.777-2.732-1.262-3.994-1.998c-1.236,0.191-0.77-1.324-0.855-2.282
			c0.197-1.146-0.274-1.628-0.284-2.567c-0.149-0.23-0.3-0.463-0.286-0.857h-0.854c-0.563-0.48-1.781-0.31-2.567-0.57h-3.138
			c-1.742-0.349-3.877-0.307-5.992-0.283c-1.666-0.484-2.911,0.789-5.136,0.57c-1.246-0.199-1.606,0.486-2.853,0.283
			c-1.192,0.303-1.935-0.6-2.567,0c-0.767,0.377-1.518,0.768-2.283,1.143c-3.552,1.204-4.604,4.906-6.562,7.703
			c-1.992,0.576-3.385,1.748-5.135,2.568c-1.984,0.586-4.533,0.6-4.278,3.424c0.412,0.348,0.431,1.088,0.855,1.426
			c0.673-0.006,0.842,0.49,1.71,0.285c0.89-0.443,2.389-0.275,2.855-1.142c2.055-0.7,3.641-1.875,5.419-2.853
			c0.423-0.147,0.72-0.423,1.144-0.572c1.696-1.82,2.657-4.38,4.276-6.275c1.724-1.35,4.979-2.595,7.989-1.713
			c0.947-0.195,0.461,0.592,0.283,0.857c-0.529,0.039-0.949,0.188-1.139,0.57c-0.717,0.424-1.572,0.71-1.995,1.427
			c-1.474,0.81-2.755,1.812-3.713,3.14c-2.564,1.998-4.431,4.698-6.559,7.131c-1.792,2.773-3.859,5.271-5.422,8.273
			c-1.586,2.981-3.236,5.893-4.565,9.13c-1.339,3.225-2.12,7.009-3.138,10.556c-0.94,1.344-0.94,3.622-1.996,4.851
			c-0.021,2.26-0.804,3.762-0.856,5.991c-0.007,2.289-0.203,4.769,0.856,5.99c0.513,1.771,0.878,3.687,2.283,4.565
			c0.866,1.412,1.867,2.69,3.136,3.707c0.569,0.573,1.35,0.935,1.714,1.713c0.447,0.598,1.59,0.502,1.996,1.142
			c0.884-0.026,1.361,0.349,1.996,0.569c0.745,0.113,1.565,0.146,1.997,0.57c1.727-0.135,2.542,0.502,3.71-0.283
			c1.526,0.004,3.158,0.112,3.995-0.57c1.628,0.843,3.051,1.89,4.277,3.138c0.875,0.361,1.501,0.972,2.283,1.429
			c0.678,0.463,1.64,0.642,2.281,1.142c1.606,0.2,2.854,0.76,4.853,0.567c2.202-0.17,4.307-0.446,5.419-1.709
			c0.472-0.67,1.667-0.619,2.852-0.572c0.803-0.34,1.641-0.644,2.568-0.854c3.749-0.815,6.191-2.938,8.845-4.85
			c1.007,0.034,0.077,0.414,0.572,1.142c0.032,0.727,0.415,1.106,1.142,1.143c0.926,0.595,2.068,0.974,3.137,1.427
			c2.752,0.653,5.283,0.721,8.275,0.569c1.961-1.017,3.777-2.355,5.417-3.709c0.521-0.431,1.036-0.465,1.431-0.855
			c0.322-0.325,0.459-0.941,0.854-1.426c0.622-0.762,1.709-1.282,1.712-2.568c0.354-0.788,0.833-1.447,0.854-2.566
			C103.287,97.593,102.288,96.596,102.665,94.221z M29.914,89.084c0.658,0.865,0.1,2.943,0.288,4.28
			c-0.141,0.901,0.513,1.007,0.284,1.997C29.34,94.225,30.166,91.116,29.914,89.084z M30.486,95.646
			c0.423,0.242,0.612,0.719,0.569,1.427C30.635,96.83,30.442,96.355,30.486,95.646z M35.619,88.514
			C35.651,88.859,35.208,88.689,35.619,88.514C35.347,87.329,36.473,88.456,35.619,88.514z M65.859,41.44H63.58
			C63.54,40.23,65.812,40.416,65.859,41.44z M58.73,37.446c0.495-0.772,2.017,0.614,2.282,0c0.887,0.544-0.447,1.239-0.285,1.997
			c-0.172,1.027,0.871,0.841,0.856,1.711c-0.968-0.08-1.638-0.453-2.854-0.284C59.245,39.581,59.392,38.651,58.73,37.446z
			 M80.414,105.348c-0.211-0.779,0.564-0.576,0.566-1.142C81.677,104.385,81.137,105.646,80.414,105.348z M95.818,100.781
			c-0.678,0.464-1.643,0.643-2.283,1.141c-4.234-0.104-7.34,0.35-10.842-0.285c-0.387-0.941-0.569-2.089-1.713-2.281
			c-2.906-0.342-3.238,1.896-4.562,3.141c-0.885,0.064-1.109,0.794-1.711,1.143c-0.87-0.014-1.109,0.604-1.714,0.854
			c-1.144,0.568-2.28,1.143-3.421,1.712c-5.27,0.132-9.434-0.839-13.409-1.996c-1.264-0.12-2.004,0.283-2.568,0.854
			c-1.245-0.656-1.743-2.06-2.854-2.854c0.089-1.039-0.046-1.855-0.284-2.564c-0.451-0.691-1.021-1.264-1.71-1.715
			c-3.07-0.775-4.837,1.426-4.281,5.137c-0.441-0.605-1.03-1.062-1.426-1.711c0.292-0.75,0.341-1.752,0.284-2.854
			c0.186-1.524,0.923-2.499,1.142-3.993c-2.921-0.887-3.934,2.506-4.851,4.562c-0.854-0.479-1.354-1.305-1.996-1.995
			c-0.192-5.233,1.896-8.185,2.852-12.271c-0.819-0.736-1.682,0.215-2.283,0.57c-0.269,0.325-1.387,2.117-1.426,0.855
			c0.89-1.014,0.8-3.004,1.713-3.994c0.292-1.512,1.069-2.545,1.425-3.994c0.71-1.098,0.989-2.625,1.715-3.707
			c0.408-1.105,1.361-2.893,0.567-4.281c-2.95,0.096-3.727,2.361-4.849,4.281c-0.835-0.242,0.171-0.92,0-1.428
			c-0.045-0.711,0.448-0.883,0.57-1.426c0.153-1.084,0.892-1.582,0.855-2.854c0.425-0.241,0.413-0.919,0.572-1.429
			c0.422-0.24,0.611-0.719,0.568-1.426c0.538-0.699,1.077-1.395,1.142-2.566c-0.186-0.854-0.61,0.271-1.142,0
			c2.002-3.896,4.608-7.187,7.134-10.557c2.53-3.27,5.526-6.074,7.703-9.699c0.484,0.012,0.739-0.212,0.856-0.57
			c2.659,0.382,5.222,0.863,7.701,1.426c1.089,0.34,2.478,0.378,3.425,0.857c1.124,0.204,2.311,0.352,3.141,0.854
			c0.634-0.222,1.113-0.601,1.998-0.571c2.211,1.115,3.572,3.082,5.703,4.279c0.653,1.725,2.484,2.271,3.139,3.995
			c1.783,0.593,2.215,2.54,3.707,3.423c0.117,1.121,1.257,1.22,1.431,2.283c0.583,0.557,0.937,1.346,1.425,1.997
			c0.961,1.32,1.727,2.839,2.567,4.279c0.964,1.414,1.565,3.188,2.567,4.563c-0.109,1.248,0.812,1.466,0.855,2.566
			c0.766,0.379,0.48,1.801,1.141,2.282c0.188,2.187,1.517,3.236,1.428,5.705c0.613,1.67,0.352,4.215,0.854,5.991
			C96.451,91.332,97.301,97.225,95.818,100.781z M68.716,72.252c-1.823,0.113-2.594-0.828-4.565-0.57
			c-0.096-1.898-1.084-2.908-1.139-4.851c-0.84-0.114-0.23-1.673-0.857-1.997c-0.281-0.762-0.59-1.504-0.569-2.566
			c3.319-0.582,8.179,0.379,8.272-3.424c-0.832-3.01-7.209-2.089-9.985-1.427c-0.427-1.188-0.32-2.912-1.712-3.138
			c-0.062-0.223-0.239-0.332-0.571-0.286c-0.304,0.646-0.647,1.256-1.141,1.712c0.004,1.234,0.663,1.811,0.572,3.139
			c-0.542,0.315-1.347,0.363-2,0.57c-0.906-1.47-0.486-4.267-2.566-4.565c-0.636,0.601-1.522,0.95-1.424,2.282
			c0.149,1.18,0.415,2.246,0.567,3.426c-0.865,1.319-2.242,2.131-3.423,3.137c-0.362,0.97-0.852,1.812-1.427,2.568
			c-0.05,0.426,0.102,1.053-0.283,1.141v4.279c0.313,0.539,0.71,1,0.853,1.713c2.101,1.703,5.132,2.479,8.562,2.854
			c0.809,2.231,1.39,4.694,2.281,6.846c0.582,2.558,1.886,4.394,2.284,7.134c-3.11,0.809-6.58,0.596-9.414-0.285
			c-0.737,1.23-0.575,2.691,0,3.994c1.763,2.635,8.121,2.26,11.125,1.428c1.186,0.525,0.998,2.427,3.139,1.998
			c0.568-1.336,0-3.807,1.998-3.709c1.355,0.639,1.27,2.723,1.996,3.994c0.467,1.527,0.666,3.328,2.568,3.422
			c1.479-3.029-0.508-6.436-0.857-9.414c1.066-0.74,2.122-1.492,3.141-2.282c0.645-1.069,1.172-2.251,1.994-3.14
			c-0.131-1.652,0.479-2.566,0.571-3.993C76.146,76.803,72.238,74.72,68.716,72.252z M56.447,64.549
			c0.427-0.334,1.166-0.355,1.428-0.855c0.33-0.045,0.51,0.062,0.57,0.287c0.446,2.785,1.701,4.763,1.713,7.986h-1.999
			C57.882,69.201,56.563,67.477,56.447,64.549z M64.438,89.084c-1.217-1.256-1.608-3.336-2.283-5.135
			c-0.59-1.883-1.477-3.469-1.71-5.707c-0.337-0.045-0.24-0.52-0.285-0.854c0.671,0.09,1.069,0.447,1.995,0.283
			c1.219,3.633,2.601,7.104,3.707,10.842C65.354,88.673,64.68,88.661,64.438,89.084z M69.857,86.518
			c-0.887-0.064-0.893-1.012-1.144-1.713c-0.571-0.379-0.636-1.266-0.854-1.996c-0.605-1.201-0.805-2.807-1.426-3.994
			c-0.055-0.244,0.109-0.27,0.283-0.285c1.785,0.4,3.465,0.91,4.852,1.715C72.825,82.477,71.527,85.491,69.857,86.518z"/>
	</g>
</g>
</svg>
