<?xml version="1.0" encoding="utf-8"?>
<!-- Generator: Adobe Illustrator 16.0.0, SVG Export Plug-In . SVG Version: 6.00 Build 0)  -->
<!DOCTYPE svg PUBLIC "-//W3C//DTD SVG 1.1//EN" "http://www.w3.org/Graphics/SVG/1.1/DTD/svg11.dtd">
<svg version="1.1" id="Layer_1" xmlns="http://www.w3.org/2000/svg"  x="0px" y="0px"
	 width="120px" height="120px" viewBox="0 0 120 120" enable-background="new 0 0 120 120" xml:space="preserve">
<g id="scales">
	<g>
		<path d="M108.456,67.939c-1.407-0.254-2.94,0.189-4.358,0c-1.504-0.334-3.383-0.297-4.938-0.582H82.305
			c-0.695-0.176-2.109,0.365-2.324-0.291c0.129-1.904,0.672-3.396,1.162-4.939c0.375-1.657,0.703-3.365,1.453-4.648
			c0.816-3.25,2.104-6.031,3.486-8.715c1.031-3.04,2.475-5.663,3.197-9.01c0.562-0.404,0.432-1.504,0.869-2.033
			c0.072-0.992,0.733-1.397,0.584-2.615c0.865-1.169,0.557-3.512,1.74-4.359c1.113,1.116,1.057,3.399,1.743,4.939
			c0.519,1.711,0.991,3.464,1.745,4.94c1.014,3.442,2.449,6.458,3.482,9.88c0.57,1.659,1.31,3.148,1.744,4.939
			c0.392,0.674,0.482,1.65,0.871,2.325c0.309,0.854,0.4,1.926,0.871,2.614c0.409,1.82,0.893,3.566,2.037,4.65
			c0.453,1.446,1.771,3.371,3.774,2.323c1.552-1.437-0.456-2.828-0.869-4.067c-1.256-0.879-1.345-2.921-2.323-4.068
			c-0.812-3.449-2.059-6.465-3.197-9.589c-2.104-6.417-4.783-12.267-6.686-18.888c0.768-0.977,1.408-2.078,1.164-4.067
			c-0.553-1.287-0.74-2.94-2.326-3.196c-2.426-0.395-2.402,1.666-4.068,2.032c-4.584-0.887-9.635,0.116-13.655,0.293
			c-1.832,0.079-3.517-0.033-5.229,0c-1.543,0.028-3.096,0.265-4.357,0c3.004-4.404-0.188-9.775-2.615-11.623
			c-1.678-0.585-4.43-0.328-5.812,0.291c-1.645,1.48-1.255,5.791-0.871,8.426c0.537,0.626,0.894,1.431,1.452,2.034
			c0.432,0.152,0.733,0.43,1.167,0.579c0.108,0.153,1.407,0.433,0.578,0.583c-8.017,0.7-16.3,1.135-24.41,1.742
			c-0.562-0.403-0.431-1.503-0.872-2.032c-0.517-0.452-1.136-0.8-1.743-1.164c-1.828,0.307-2.835,1.427-3.776,2.616
			c-0.24,1.788,0.233,2.867,0.578,4.068c-0.782,1.152-0.885,2.985-1.741,4.067c-0.209,1.729-1.017,2.857-1.451,4.358
			c-1.138,2.741-1.882,5.87-3.198,8.427c-1.816,6.031-4.405,11.288-6.102,17.435c-0.193,1.549,0.123,2.589,0.87,3.194
			c-2.854,0.2-2.013,2.52-2.325,4.94c1.219,2.655,3.24,4.509,5.522,6.103c0.907,1.026,2.577,1.295,3.486,2.323
			c1.157-0.188,1.168,0.771,2.324,0.582c0.285,0.683,1.678,0.259,2.036,0.871c3.308,0.083,6.179,0.601,9.588,0.582
			c2.523-0.188,4.548-0.879,6.392-1.746c2.283-1.979,3.652-4.873,5.522-7.263c0.167-0.512-0.351-1.707,0.29-1.744
			c-0.374-1.148,0.957-0.593,0.583-1.743c0.197-1.69,0.156-2.287-0.583-3.485c1.274,0.205,1.981-0.151,2.325-0.871
			c0.068-2.299-1.586-2.867-2.035-4.649c-1.013-1.312-1.729-2.918-2.616-4.357c-3.327-5.97-6.519-12.077-9.298-18.598
			c-0.866-1.456-1.245-3.403-2.323-4.648c-0.064-1.1-0.913-1.412-1.162-2.326c-0.391-0.189-0.541-0.62-0.581-1.161
			c-0.353,0.089-1.005-0.84-0.291-0.872c3.616,0.548,8.345-0.016,11.914,0.582c2.293-0.609,5.664-0.146,8.426-0.291
			c1.251-0.02,3.272-0.779,4.358,0c-0.971,9.747,0.58,19.327,1.452,28.186c-0.056,8.192-0.097,16.368,0.873,23.537
			c-0.296,4.666,0.894,9.354,0,13.655c-7.229,0.134-12.189,2.536-17.435,4.649c-2.391,1.293-5.04,2.321-7.264,3.775
			c-2.595,1.088-5.142,2.221-7.267,3.777c-0.074,1.291-1.478,2.438-0.58,3.775c1.027,1.576,3.45,1.15,5.813,1.164
			c2.32,0.012,4.897-0.012,6.974,0c5.012,0.023,6.39,0.336,12.202,0.291c1.627-0.41,3.853-0.217,5.522-0.58
			c10.419,0.15,20.036-0.5,29.64-1.164c1.608-0.158,1.776,1.127,3.484,0.871c0.896-0.748,1.916-1.377,2.035-2.906
			c-0.188-3.397-4.104-3.064-5.23-5.521c-2.254-1.325-4.379-2.784-6.976-3.774c-1.408-0.332-2.177-1.312-3.776-1.453
			c-0.988-0.853-2.942-0.735-4.067-1.452c-1.712-0.031-2.962-0.524-4.357-0.873c-1.095,0.224-1.389-0.354-2.323-0.289
			c-0.776-0.192-1.815-0.123-2.324-0.582c-0.211-4.763,0.32-8.784,0.289-13.365c-1.014-7.024-0.899-15.176-0.873-23.247
			c-1.229-9.229-1.928-18.993-2.322-29.058c9.803,0.404,17.758-0.875,26.443-0.871c-1.553,2.711-2.26,6.262-3.776,9.008
			c-0.772,3.487-2.646,5.881-3.781,9.009c-2.862,5.656-5.041,12.002-6.392,19.177c-0.516,0.259-0.737,0.812-1.741,0.58
			c-0.435,0.344-0.819,0.729-1.165,1.162c-0.261,0.746-0.47,1.646,0.292,2.033c0.146,1.213-0.851,1.281-0.582,2.616
			c3.308,5.851,11.123,8.571,19.763,8.134c1.834-0.875,4.493-0.928,6.684-1.449c2.326-1.256,4.214-2.953,6.39-4.359
			c1.677-1.907,4.796-2.725,4.649-6.104C110.482,68.297,109.77,68.178,108.456,67.939z M23.898,75.204
			c-1.134-0.415-1.91-1.188-2.324-2.325h3.49C24.483,73.462,23.885,74.025,23.898,75.204z M26.513,76.366
			c-0.148-0.151,0.21-0.371,0.292-0.29C26.956,76.227,26.596,76.447,26.513,76.366z M43.658,78.107
			c-0.742,0.131-1.335,0.408-1.743,0.873c-2.738-0.123-5.117,0.11-7.555,0.291c-0.373-1.916,0.766-3.568,0-4.938
			c-1.543-0.187-1.981,0.728-2.614,1.452c-0.384,0.877-0.03,2.488-0.584,3.195c-3.013,0.496-0.335-4.699-2.032-5.521
			c-1.279-0.391-1.824,1.448-2.324,0.873c-0.125-0.555-0.627-0.729-0.582-1.454c7.655-0.097,12.999,0.501,20.921,0.292
			C46.003,74.836,44.972,76.611,43.658,78.107z M36.104,34.814c0.389,1.836,1.349,3.104,1.743,4.939
			c0.921,1.307,1.114,3.344,2.034,4.648c0.302,1.928,1.302,3.154,1.746,4.939c1.38,3.072,2.6,6.311,4.356,9.01
			c1.38,3.075,3.239,5.671,4.649,8.716c0.418,0.162,0.707,0.453,0.873,0.871c0.353-0.028,0.175,0.422,0,0
			c-10.027,0.436-20.678,0.244-30.801,0.582c0.438-0.819,0.703-1.815,0.581-3.194c0.886-2.989,2.145-5.604,2.904-8.72
			c1.44-2.53,2.15-5.792,3.49-8.426c0.67-3.298,2.205-5.737,2.903-9.009c0.716-1.219,0.927-2.947,1.452-4.357
			c0.047-0.924,0.661-1.279,0.583-2.325c0.39-0.675-0.04-2.17,1.162-2.034c0.004,0.48,0.804,0.164,0.873,0.582
			c0.4,0.178,0.043,1.119,0.58,1.163C35.347,33.249,35.619,34.139,36.104,34.814z M42.206,109.201h-2.325
			c0.455-0.706,1.236-1.087,2.325-1.162V109.201z M63.128,22.029c-1.021-0.336-0.894-1.82-0.873-3.196
			C63.21,19.347,64.275,21.119,63.128,22.029z M45.4,108.91c-0.045-0.924-0.679-2.139,0-2.906h0.872
			c-0.021,0.99,0.854,1.084,1.453,1.454c0.213,0.659,0.874,0.867,1.455,1.161C48.492,109.288,46.571,108.725,45.4,108.91z
			 M66.904,101.064c4.197,0.449,7.426,1.873,11.33,2.615c0.951,0.985,2.728,1.148,3.781,2.033c1.858,0.076,2.441,1.43,4.064,1.743
			c-0.035,0.642-1.232,0.123-1.742,0.29c-1.009-0.23-1.12,0.434-2.033,0.291H75.91c-4.773,0.843-10.708,0.523-16.272,0.58
			c-1.228,0.32-2.763,0.334-4.358,0.291c0.231-1.006-0.323-1.229-0.582-1.743c-1.16,0.096-1.61-0.521-2.904-0.29
			c-0.796-0.949-2.617-0.869-2.905-2.326c1.008-0.152,1.546-0.775,2.616-0.869c0.028,2.196,2.045,2.407,3.194,3.485
			c1.636,0.562,5.36,2.319,6.395,0c-0.102-1.836-2.075-1.802-3.487-2.325c-1.165-0.771-3.094-0.775-3.487-2.324
			c0.813-0.152,1.512-0.427,2.325-0.578c1.636,0.203,2.108,1.569,3.775,1.742c0.643,0.834,3.646,1.518,4.068,0
			c0.219-1.768-1.187-1.914-2.326-2.326c0.22-0.653,1.631-0.112,2.326-0.289H66.904L66.904,101.064z M77.945,72.588
			C77.975,72.939,77.523,72.768,77.945,72.588C77.916,72.238,78.369,72.41,77.945,72.588z M82.596,76.076
			c-1.984-0.523-0.063-3.151,0.289-4.068c0.34-0.046,0.518,0.062,0.584,0.29c-0.098,0.679-0.351,1.201-0.584,1.743
			C82.715,74.645,83.246,75.95,82.596,76.076z M97.994,74.041c-0.729,0.434-1.6,0.725-2.031,1.453
			c-1.92,0.502-2.979,1.865-5.523,1.745c-0.744-0.998,0.268-3.755-0.869-4.36c-1.037,0.125-1.596,0.73-2.034,1.454
			c-0.531,0.628,0.056,2.378-0.579,2.906c-1.553,0.388-0.623-1.703-0.873-2.616c0.417-0.744,0.273-2.049,0.873-2.615h12.781
			C99.508,73.036,98.284,73.072,97.994,74.041z"/>
	</g>
</g>
</svg>
