<?xml version="1.0" encoding="utf-8"?>
<!-- Generator: Adobe Illustrator 16.0.0, SVG Export Plug-In . SVG Version: 6.00 Build 0)  -->
<!DOCTYPE svg PUBLIC "-//W3C//DTD SVG 1.1//EN" "http://www.w3.org/Graphics/SVG/1.1/DTD/svg11.dtd">
<svg version="1.1" id="Layer_1" xmlns="http://www.w3.org/2000/svg"  x="0px" y="0px"
	 width="120px" height="120px" viewBox="4 4 120 120" style="enable-background:new 4 4 120 120;" xml:space="preserve">
<g id="scissors">
	<g>
		<path d="M111,84c-0.9-0.8-1-2.3-1.9-3.1c-0.199-1.5-1.8-1.5-1.899-3.101c-2.8-1.399-4.601-3.7-7.101-5.3c-2.699,0-4.5-0.9-7.1-0.9
			c-2.3,0.2-4.3,0.7-6.5,0.9c-1,0.8-2.1,1.7-3.7,1.9c-0.8,0.6-0.7,2-1.6,2.5c-1.4-1.4-2.601-3-3.4-5C76.8,71.6,76.9,70.3,75.9,70
			c-0.301-0.9-1.5-1-1.601-2.2C77,67,78.4,64.9,80.5,63.5c2.1-1.6,4-3.3,5.6-5.3c3.601-3.5,6.4-7.9,9.9-11.5
			c0.9-3.4,2.8-5.7,4.3-8.4c0.8-4.1,2.4-7.4,3.101-11.5c-0.101-2,0-3.9,0.3-5.6c-0.8-2.4,0.7-7.2-2.2-7.5c-2,0-2.7,1.5-4,2.2
			c-1.1,1-2.2,2.1-3.4,3.1c-2.399,1.9-4.199,4.3-6.5,6.2c-0.6,1.6-1.1,3.2-2.5,4c-0.3,1.9-1.6,2.7-2.199,4.4
			C81,36.2,79.1,38.7,77.3,41.4c-2,2.5-3.7,5.2-5.899,7.5c-1.7,2.8-4.4,4.5-5.9,7.5c-1.3-0.9-1.8-2.5-2.8-3.7
			c-0.8-1.5-2.1-2.5-2.8-4c-2.3-2.2-3.4-5.5-5.6-7.8c-1.6-2.8-3.6-5.3-5.3-8.1c-1.7-2.8-3.2-5.7-5.3-8.1c-0.4-1.1-0.7-2.2-1.6-2.8
			c-0.4-1.1-0.7-2.4-1.5-3.1c-1.1-1.9-1-5-4-5h-0.3c-4.1,2-6.2,6-7.5,10.9c-0.1,4.6,1.3,7.9,2.2,11.5c2,2,2.9,5.1,4.7,7.5
			c1.8,2.4,3.1,5.2,5,7.5c3.4,4.9,7.8,8.8,10.9,14c1.9,2.1,3.8,4.3,5.3,6.8c2.2,1.9,4.3,4,5.9,6.5c2.3,1.8,3.5,4.8,5.601,6.8
			c1.199,0.9,2.199,1.9,2.8,3.4c1.1,1,2.399,1.7,2.8,3.399c-0.9,1.301-0.5,4-0.6,6.2c0.8,3.8,2.3,6.8,4.699,9
			c1.4,0.9,2.101,2.4,3.7,3.101c0.3,0.8,1.3,1,1.9,1.6c0.8,0.4,1.1,1.4,2.2,1.6c5.199,1.2,8.899-1.3,13.399-1.899
			c0.9-1.3,2.9-1.4,3.7-2.8c1.7-0.5,2-2.301,3.7-2.801c0.7-2,2-3.399,3.1-5C111,96.2,111.8,90,111,84z M74.1,54.5
			c1.2-0.8,2.101-1.9,2.801-3.1c1.1-0.9,1.899-2,2.5-3.4c3.699-4.2,6.3-9.5,10.199-13.4v-2.5c0.9-1.2,2-2.3,2.2-4.3
			c2.101-2.2,2.9-5.6,4.4-8.4c0.6-0.4,1-0.8,1.5-1.2h0.6c1-0.1,0.8,0.8,1.5,0.9c0,1.6-0.5,2.8-0.3,4.7c-0.3-0.2-0.3-0.7-0.9-0.6
			c-0.8,1.3,0.601,1.7,0.301,3.4c-0.601,3.6-1.7,6.5-3.4,9c-1.5,2.5-3.9,4.2-4.3,7.8c-0.9,0.6-1.3,1.8-1.9,2.8
			c-0.6,1-1.6,1.5-1.899,2.8c-1.601,1.4-2.5,3.5-4,5C82.3,55.9,80.6,57.2,79.1,58.7c-1.399,1.6-3,3-4.3,4.7
			c-1.3,0.2-1.5,1.4-2.8,1.6c-1.2-0.1-1.3-1.4-1.9-2.2c-1.1-0.2-0.699-2-1.899-2.2C69.9,58.2,72.5,56.9,74.1,54.5z M105.1,96.5
			c-0.5,0.8-0.899,1.8-1.899,2.2c0.2,1.6-0.9,1.8-0.9,3.1c-3.399,3.2-7.6,5.7-13.7,6.2c-2.1-1.2-4-2.6-5.899-4
			c-0.8-1.3-1.8-2.4-2.8-3.4C80.1,99.4,79.6,98.8,79.3,98.1c-0.1-2,0-3.8,0.601-5C79.1,90.2,77.2,88.5,75.2,86.9
			c-0.4-1.4-1.5-2-2.2-3.101c-1.1-0.6-1.7-1.8-2.8-2.5c-1.7-2.7-3.601-5.1-5.601-7.5c0.4-0.6,1.601-0.5,2.2-0.899
			C67,72.1,68.1,72.1,68,71c0.2-1.3-0.3-2.5-0.9-3.4C67,67.2,66,66.3,65.4,66C64.6,65.7,64.8,65.9,63.8,66c-1.9,0.1-2.5,1.4-2.8,3.1
			c-1.7-0.5-2.3-2.3-3.7-3.1c-0.8-1.4-1.9-2.4-2.8-3.7c-2-2.3-3.6-5.1-5.6-7.5c-2.2-2.2-4-4.7-5.9-7.1c-0.1-1-0.7-1.6-1.2-2.2
			c-0.4-0.6-0.5-1.6-1.2-1.9c-0.4-1.8-1.6-2.7-2.5-4c-1.2-3-2.4-6.1-3.4-9.3v-5.6c0.1-1.3,1.4-1.3,1.2-2.8h0.9
			c1.7,3.8,4.1,6.9,6.2,10.2c2,3.3,4.1,6.6,6.2,9.9c1.6,1.1,1.9,3.5,3.4,4.7c1.4,1.3,2,3.4,3.4,4.7c0.2,1.1,1.1,1.5,1.9,2.2
			c0,1.3,0.9,1.8,1.5,2.5c0.8,1.9,2.6,2.8,3.1,5c2.5,2.2,4.1,5.5,6.8,7.5c0.8,1.7,1.8,3.2,3.101,4.301C72.5,74,73.2,74.6,74,75.1
			c0.6,0.601,0.8,1.4,1.6,1.9c0.7,1.8,2.5,2.5,3.4,4c1.3,0.7,2.7,2.8,4.7,1.9c0.899-0.4-0.8-2.5,0.3-3.101
			c0.1-1.2,1.6-0.899,1.9-1.899c1-0.2,1.699-0.5,2.5-0.9c0.6,0.1,0.8-0.2,1.199-0.3c2.9,0.1,5.5,0,7.801-0.601
			c2.5,0.801,3.5,3.101,5.3,4.7C104.1,85.3,105.7,89.8,105.1,96.5z M57,82.5c-1.8,1.3-3.1,3.1-4.7,4.7c-0.2,3.2-1.8,5-1.9,8.399
			c-2.8,3.7-5,7.801-9.6,9.601c-1.8,0.5-3.9,0.7-6.2,0.6c-2.5-0.2-4.1-1.3-6.5-1.6c-2-1.7-4.1-3.101-5.3-5.601
			c-0.6-2-0.7-4.399-0.6-7.1c1.7-6.6,4.2-12.4,10.9-14c3.9-0.3,6.7,0.5,10.2,0.6c0.7,0.301,1.4,0.7,1.9,1.2c1.2-0.1,1,1.3,2.2,1.2
			c3.3-2.6,9.1-4.3,8.1-10.2c-0.5-0.5-1.3-0.8-2.5-0.6c-0.4,0.2-0.7,0.3-0.9,0.6c-1.3,0.601-1.5,2.2-2.8,2.8
			c-0.4,0.5-0.6,1.2-1.5,1.2c-0.5,0.4-0.4,1.5-1.6,1.2c-1.1-0.7-2.5-1-3.4-1.9c-0.7-1-1.8-1.699-3.1-2.199h-6.2
			c-2.2,0.6-4.4,1.1-5.9,1.899c-1.1,0.601-1.9,1.5-3.1,1.9c-4.1,4.6-7.1,10.3-7.8,18.3c0.1,4.4,1.4,7.5,2.8,10.6
			c3.6,3.601,9.8,7.2,16.8,7.101c3.5,0,6.7-1.3,9.9-2.2c1.6-1.5,3.4-2.8,4.7-4.7c1.8-1.3,2.7-3.5,4.3-5c0.5-3.3,2.3-6,1.6-9.6
			c0.4-0.9,1.4-1.3,1.9-2.2c0.5-1,1.6-1.2,1.9-2.5c1.9-0.7,3.5-3,2.5-5.6C60.1,78.5,57.9,80.7,57,82.5z M98.3,81.6
			c-1.2-1-2.399-1.899-3.7-2.8c-1.6-0.2-3.199-0.5-4.699,0C88.6,79.2,88.2,80.4,87.1,81c-0.899,1.8-1.699,3.7-2.8,5.3
			c-0.399,3.7-2.1,6-1.899,10.2c0.5,0.1,0.3,0.7,0.3,1.2c0.399,0.2,0.6,0.7,0.6,1.2c0.7,0.5,1.5,0.8,2.8,0.6
			c0.9,1.5,2.601,2.2,4,3.1c2.9,0.2,5.2-0.1,7.101-0.899c1.7-1.7,2.2-4.601,3.1-7.101v-6.8c-0.399-1.5-0.899-3-1.2-4.7
			C98.9,82.6,98.3,82.4,98.3,81.6z M96.4,94.3c-1,1.3-2,2.8-3.4,3.7c-2.5,0.1-4-0.8-5.3-1.9C88.4,91.2,88.9,85.9,92,83.4
			c1.2-0.301,0.9,0.8,1.9,0.6C95.4,86.8,96.9,89.6,96.4,94.3z M43.7,80.9c-2.7-0.4-6.1-0.2-8.1,0.3c-0.9,0.3-1.3,0.7-2.2,0.6
			c-2.4,2.4-3.7,5.8-5.3,9c0,2.7-0.2,5.601,0.6,7.5c1,1,1.6,2.3,3.1,2.8c2.6,0.9,4.9,0.2,8.1,0.301c1.2-1.7,2.3-3.5,3.7-5
			c1.2-1.7,2.5-3.301,3.7-5c0.2-1.801,0.7-3.301,0.9-5c-0.5-0.301-0.7-1-0.6-1.9c-0.5-0.3-1.1-0.6-0.9-1.6
			C45.4,82.7,44.5,81.8,43.7,80.9z M35,97.4C34,96.8,33.7,95.6,33.1,94.6c0.2-3.8,2-6.1,3.4-8.699c1.7-0.601,4.8-0.4,6.5,0
			c0.2,1.1,0.9,1.8,1.2,2.8C42.8,93.2,40.9,97.4,35,97.4z"/>
	</g>
</g>
</svg>
