<?xml version="1.0" encoding="utf-8"?>
<!-- Generator: Adobe Illustrator 16.0.0, SVG Export Plug-In . SVG Version: 6.00 Build 0)  -->
<!DOCTYPE svg PUBLIC "-//W3C//DTD SVG 1.1//EN" "http://www.w3.org/Graphics/SVG/1.1/DTD/svg11.dtd">
<svg version="1.1" id="Layer_1" xmlns="http://www.w3.org/2000/svg"  x="0px" y="0px"
	 width="120px" height="120px" viewBox="4 4 120 120" style="enable-background:new 4 4 120 120;" xml:space="preserve">
<g id="screen">
	<g>
		<path d="M115.6,48.2c0.101-5.4-0.5-9.9-0.3-15.4c-0.5-2.1-0.1-5.1-0.6-7.3c0-1.4,0-2.6-0.601-3.3c-0.1-1.7,0.5-2.2-0.3-3.3
			c-0.6-0.1-0.899-0.4-1.5-0.6c-1.8-0.6-6-0.4-7.3,0c-6.3,0.3-12.4,0.9-18.4,1.5c-17.899,0.3-35.6-1-52,0.9
			c-4.4-0.2-7.9,0.4-12.1,0.3c-1.9,0.2-3.6,0.7-5.7,0.6c-1.9,0.3-2.9,1.3-4.2,2.1c-0.8,7.5-0.5,15-0.3,22.7c0,0.2,0,0.4,0,0.6
			c-0.2,0.7,0,0.5,0,1.5c0.1,5.2-0.2,10.3,0,15.1c0.1,1.9,0.4,3.8,0.3,5.7c-0.1,2.5-0.8,5-0.9,7.601C11.4,81,11.6,85.2,12,89.3
			c1,0.601,2,1.3,3,1.8c1.6-0.399,3.3-0.399,4.8-0.3c6.8,0.2,13.7,0.2,20.9,0c0.9,0,0.8,0.9,1.2,1.2c0.7,0.2,0.8,1,1.5,1.2
			c0.3,1.399,1.8,1.6,2.1,3c-0.5,0.5-1.3,0.6-1.8,1.2c-0.5,0.5-0.2,1.699-1.2,1.8c-0.8,1.2-2.3,1.7-3.3,2.7
			c-1.3,0.699-2.3,1.699-3.6,2.399c-0.8,1.3-3,1-2.4,3.601c0.5,1,2.5,0.5,3.9,0.6c1.7-0.1,2.5,0.5,4.2,0.3
			c7.9-0.6,16.6,0.2,24.8,0.3C74.2,109.3,83.2,110.5,90,108.2c1.8,0.1,3.1-0.101,4.2-0.601c1.3-0.399,3-0.399,2.7-2.399
			c0.1-0.7-0.2-1-0.9-0.9c-0.6-0.1-0.5-0.899-1.5-0.6c-0.8-0.5-1.7-0.9-2.7-1.2c-1.399-1.3-3.2-2.3-4.5-3.6
			c-1.8-1.101-3.7-2-5.1-3.301C82.8,94.5,84,94,84.6,92.9c1.301-0.5,1.2-2.4,2.7-2.7c2.5-0.3,5.3-0.4,8.2-0.3
			c4.3-0.801,9.1-1,13.6-1.5c2,0.5,4,0.199,5.7-0.301c1.2-2.6,1.4-6.1,1.8-9.399C116.5,68.3,115.8,58.5,115.6,48.2z M85.7,25.8
			c0.2,0.2-0.2,0.4-0.3,0.3C85.2,26,85.6,25.8,85.7,25.8z M53.6,74.5c-1.1-1.5-2.5,0.3-3.3,0.9c-0.8,1.1-1.8,2-2.7,3
			c-2.1,0-4.4-0.2-6,0.3c0.6-1.101,1.2-2,1.8-3c0.3-1.101,1.8-2.3,1.2-3.3c-0.6-0.801-2.2,0-2.7,0.3c-0.6,0.7-0.9,1.7-1.8,2.1
			c-0.6,1.9-2.1,2.9-2.7,4.8c-1-0.1-1.7,0.101-2.4,0.301c0.2-1.9,2.7-2.5,1.8-4.5C35,75.1,35,76.6,34,76.9c-0.4,1-1,1.899-1.2,3
			c-1.7,0-3.5-0.101-4.8,0.3c0.5-1.8,1.8-2.8,2.7-4.2c0.8-1.5,2.4-2.2,2.4-4.5c-1.1-0.5-2.2,0.2-2.7,1.2c-0.9,0.6-1.7,1.3-2.1,2.399
			c-1,0.5-1.3,1.7-2.1,2.4c-0.3,0.4-0.3,1.1-0.9,1.2c0,0.8-0.1,1.6-0.9,1.5c0-5.3,3.5-7.2,4.5-11.5c-1-0.8-2.1,0.1-2.7,0.6
			c-0.2,0.4-0.5,0.7-0.9,0.9c-0.1,0.3-0.8,1.3-0.9,0.6c-0.2-3.3,1.9-4.3,2.7-6.7c0.6-1,1.3-2,1.8-3c0.3-1.3,1.7-1.6,1.5-3.3
			c-1.4-1-2.5,0.7-3.3,1.2c-0.6,1.2-1.7,1.9-2.1,3.3c-0.8-0.9,0.4-2.4,0.6-3.3c0.4-1.1,0.6-2.4,1.2-3.3c0.4-2.6,1.9-4.2,2.1-7
			c-0.6-0.5-1.5,0.2-2.1,0.6c0,0.4-0.4,0.2,0,0v-1.2c-0.5-0.8-0.8,1.2-1.5,1.2c-0.1,1-0.9,1.3-1.2,2.1c-0.7,0-0.1-1.3-0.3-1.8v-2.1
			c0.9-1.2,1.6-2.7,2.1-4.2c0.6-0.5,0.5-1.7,1.2-2.1c0.1-1,0.9-1.3,0.6-2.7c-1.4,0-2,0.8-2.4,1.8c-0.9,0.6-1.2,1.7-1.8,2.4
			c-0.7-0.5,0.6-1.6,0.6-2.4c0.6-0.7,0.5-2.2,0.9-3c-0.5-0.8-1.6,2-2.1,1.2v-7.3c2.6,0.1,5-0.1,6.7-0.9c9.1,0.7,18.1-0.4,27.5,0
			c6.9,0.3,13.9-0.1,20.9,0c2.2-0.5,4.8-0.4,6.9-0.9c6.1,0,11.3-0.9,17.8-0.6c1,15.7,0.899,34.2-0.3,49.601
			C98.8,78.4,95,78.5,92.1,77.8C78,77.6,65.1,78.6,51,78.4c0.1-1,1.1-1.101,1.2-2.101C52.1,75.2,54,75.9,53.6,74.5z M19.2,70.9V67.6
			c-0.3-1.8-0.3-3.899-0.3-6c-0.2-4-0.4-8.1-0.9-11.8c0.1-4.2,0-8.6-0.3-12.7c-0.3-4.3,0-8.4-0.6-12.1h0.3c0.5,0.1,0.5-0.3,0.9-0.3
			c5.3,0.2,12,0.5,16.3,0c5,0.6,10.6,0.7,16,0.9c11,0.4,22.5,0.3,33.9,0.3c0.5-0.1,0.6,0.3,0.3,0.3C75.8,27,66.4,26.9,57,26.5
			c-9.4-0.4-18.8,0.4-27.5,0.9c-3.2,0.1-7-0.4-9.4,0.6c-1.2,1.6-1.1,4.6-1.2,7.3v4.2c0.8,0.5-0.2,2.8,0.6,3.3c0.5,5.1,0,11.1,0.6,16
			c-0.6,4.4-0.2,9.9-0.3,14.8C18.9,73.4,20,71.1,19.2,70.9z M49.7,104.4c-0.2-0.2,0.2-0.4,0.3-0.301
			C50.2,104.3,49.8,104.5,49.7,104.4z M49.4,93.3c-0.3-0.5-0.7-0.899-1.2-1.2c0.1-0.5-1.4-0.899-0.6-1.199
			c5.5-0.101,11.6,0.1,17.8,0c4.8-0.601,10-0.7,15.399-0.601c1.3-0.1,0,0.5,0,0.9c-0.7,0-0.7,0.8-0.6,1.5
			c-0.8,0.7-1.101,1.8-1.8,2.399c-2,0.9-4.801,1-7.301,0.601C64.8,96.6,58.2,96.1,51.8,95.7C50.4,95.5,50.6,93.6,49.4,93.3z
			 M87.2,102.9C81.6,103.6,75.6,104,69.7,104.4c-0.5,0.6-2.2-1.101-3-0.301c-0.3,0.301-0.3,0-0.9,0c-2.5,0-4.8,0.4-7.6,0.301
			c-1.1,0-0.1-0.4-0.6-1.2c-0.4,0-0.5-0.101-0.6-0.3c-0.5-0.4-1.8-0.101-2.1-0.601H53c-0.2,0.2-0.8,0.5-0.9,0
			c-0.2-1.8,2.7-0.5,3.9-0.899c0.1-1-1.4-0.2-1.5-0.9c-1.2,0.5-0.6-0.8-1.2-0.9c0.3-0.699,1.9-0.1,2.7-0.3
			c0.6-0.3,1.4-0.399,2.1-0.6c5.7,0.7,12.8,0.1,18.1,1.2C77.3,100,78.1,99.8,78.6,99.3C80.7,101.3,86.6,99.5,87.2,102.9z
			 M110.5,76.6c0.3,2,0.8,3.9,0.6,6.301c-5.6,0.3-10.3,1.399-15.699,1.8c-6.2,0.2-11.9-0.2-17.801-0.3C76,84.7,74,84.7,72.5,85H61.2
			c-1.3-0.1-1.6-1.2-3-1.2c-12,1.4-24.7,1.101-38.4,0.9v-4.2c0.7,0.4,1,1.2,1.8,1.5c0,1.2,1.2,1,1.8,1.5c7,0.1,13.7-0.2,19.3-1.5
			c18.8,0.5,36.8-1.2,55-0.3c1.8,0.399,1.8-1.101,3.3-0.9c1.9-0.1,3.1,0.5,5.1,0.3c0.7,0-0.399-0.8,0-1.5v-1.8
			c0-1.2,0.5-1.899,0.301-3.3V56.4c0-1.3,0.5-2,0-2.4c0.6-3,0.199-9.2,0.3-13.6c0.1-2.6-0.5-4.3-0.3-7c-0.301-2.2-1-3.9-1.2-6
			c-3.101-0.3-6.2-0.6-9.101-1.2c-3.899,0-6.8-0.2-10-0.3c0.101-0.9,2.301,0.3,2.4-0.6c0.8-0.2,2.4,0.4,2.7-0.3
			c2.2,0.2,3.7-0.3,5.7-0.3c3.6-0.3,7-0.9,10.6-1.2c0.5,0.1,0.5-0.3,0.9-0.3c0.199,0.1,0.3,0.3,0.6,0.3c0.4,0.6,0.8,1,1.2,1.5
			c0.399,0.9-0.9,1.7,0,2.1c0,1.8,0.5,3.1,0.6,4.8c0.2,2.4-0.5,3.9-0.3,6.3c0.9,5,0.3,11.6,0.9,16.9
			C110.4,61.4,111.7,70.4,110.5,76.6z"/>
	</g>
</g>
</svg>
