<?xml version="1.0" encoding="utf-8"?>
<!-- Generator: Adobe Illustrator 16.0.0, SVG Export Plug-In . SVG Version: 6.00 Build 0)  -->
<!DOCTYPE svg PUBLIC "-//W3C//DTD SVG 1.1//EN" "http://www.w3.org/Graphics/SVG/1.1/DTD/svg11.dtd">
<svg version="1.1" id="Layer_1" xmlns="http://www.w3.org/2000/svg"  x="0px" y="0px"
	 width="120px" height="120px" viewBox="4 4 120 120" style="enable-background:new 4 4 120 120;" xml:space="preserve">
<g id="screw-driver">
	<g>
		<path d="M113.9,29.2c-0.4-0.5-0.9-1-1.2-1.5c-0.5-0.4-1.8-0.1-2.101-0.6c0.4-0.4,0.4-1.4,0-1.8c-1.899-2.6-4.199-4.9-7-6.7
			c-0.8-0.8-0.8-2.4-2.399-2.4h-0.9C98.9,16.8,97,16.9,95.4,17.4c-2.5-0.2-3.101,0.8-5.2,0.3C81.6,24.9,73,32.2,64.7,39.9
			c-0.5,1.2-1.6,1.9-2.1,3c-0.5,0.4-0.6,1.2-1.2,1.5c-0.8,0.1-0.5,1.3-1.2,1.5c-0.5,2.9-0.4,6.5,0,9.4c-2.4-0.7-4.5-1.8-7.3-2.1
			C51.3,54,50,55,49.2,56.6c-1,1.3-2.1,2.5-3,3.9c0,3.1-0.1,6.2,0.6,8.5c0.9,1.5,1.9,2.8,2.7,4.3c-2.9,2.5-5.3,5.4-8.2,7.9
			c-2.7,2.8-5.3,5.6-8.2,8.2c-1.2,0.699-2.2,1.6-3.6,2.1c-1,1.2-2.2,2.2-3.6,3c-0.1-0.5-0.4,0.1-0.9,0h-1.8c-1.3-0.2-1.7,0.5-3,0.3
			c-1.2,1.8-2.1,3.8-3,5.8c-1.2,1.7-2.8,3.101-3,5.801c0.1,0.6,0.1,1.3,0.9,1.199c0,0.801,0.6,1.101,0.9,1.5
			c0.4,1.2,1.4,1.9,2.4,2.4c1.4-0.3,2.9-0.3,3.6-1.2c1.6-0.2,1.9-1.5,3.3-1.8c1.8-1.6,4-2.9,6.1-4.3c-0.1-2.101,1.4-3.9,0-5.5
			c6.1-4.5,11.2-10.101,16.4-15.5c1.2-0.601,1.5-2.2,2.7-2.7c1.2-0.6,1.5-2.1,3-2.4c1,0.7,0.7,2.5,1.5,3.301
			c3.2,1.1,9.6,1.399,13.1,0.3c1.101-0.3,0.7-2,1.5-2.4c0.7,0.7,1.7-0.1,2.4-0.3c1-1.5,1.2-3.9,1.5-6.1c0.2-1-0.4-2.801,0.3-3.301
			c2.3,0.7,5,0,7-0.6c0.9-0.7,1.2-2,1.8-3c1.601-0.8,2.7-2.2,4-3.3c1.301-1.2,2.801-2,4-3.3c2.9-2,5.4-4.4,8.2-6.4
			c2.5-2.4,4.7-5.1,7.3-7.3c2.601-2.4,5-4.9,7.601-7.3C113.5,35.1,114.2,32.6,113.9,29.2z M22.8,105.8c0-0.3,0.4-0.2,0.6-0.3
			C23.4,105.8,23,105.7,22.8,105.8z M68.7,75.4c-1,0.1-0.601-1.2-1.5-1.2c-0.2-0.601-0.601-1-0.9-1.5c-0.899-0.9-0.899-2.5-2.1-3
			c-0.9,0.1-1.1,0.899-1.5,1.5c0.3,2.6,1.6,4.1,2.399,6.1c-1.7-0.1-1.8-1.899-2.7-2.7c-1-0.8-0.8-2.8-2.4-3
			c-1.4,0.7-0.2,3.2,0,4.301c-1.6-0.601-0.5-3.7-2.1-4.301c-1.3-0.1-2.3,0.2-2.1,1.5c-2.3-0.8-2.4-3.8-4.9-4.6v-2.1
			c-0.2-0.7-0.4-1.4-0.3-2.4c-0.9,0,0.3-2.1-0.6-2.1c0.8-1.6,2.3-2.5,3.3-4c2.6,0.4,5,2,7.9,2.4c2.6,3.4,4.6,7.4,8.2,9.7
			C69.2,71.8,68.7,73.4,68.7,75.4z M108.5,36.2c-0.1,1.3-1.4,1.4-1.8,2.4c-0.601-0.2-1.2-1.3-1.8-0.6c-0.9,0-1.301,2.1-0.601,2.7
			c-0.399,0.6-0.899,1.1-1.5,1.5c-0.8,0.2-0.8,1.3-1.8,1.2c-0.1-0.6-0.1-1.3-0.9-1.2c-1.699,0.1-1.8,2.6-1.199,3.9
			c-1,1.5-2.801,2.1-3.601,3.6C94.4,49.4,94,47.3,92.9,48.2c-0.801,0.7,0,2.2,0,3c-0.101,0.9-1,1-1.5,1.5c-0.4,0.6-1,1-1.801,1.2
			c0.101-1-0.399-1.5-1.199-1.5c-1.801-0.1-1.301,2.8-0.9,4c-0.9,0.3-1,1.5-2.1,1.5c-0.5-0.8-0.601-1.8-1.5-2.1
			c-1.301-0.1-1,1.4-1.5,2.1c0.1,1.9,1,2.9-0.301,3.9c-1.5-0.3-1-2.6-2.699-2.7c-1.101-0.3-1,0.6-1.5,0.9
			C77.3,62.4,79.6,63.5,79.1,64.9C76.7,65,73.7,64.6,71.8,65.2c-1.2-0.3-1.7-1.3-2.399-2.1c-0.4-1-1.7-1.1-1.801-2.4
			c-1.5-1.4-2.899-2.8-4-4.6C64,53,63.7,48.6,64.1,45c2.7-1.7,4.5-4.4,7.3-6.1c1.1-1.2,2.699-1.8,3.6-3c1.5-0.7,2.3-2,3.6-2.7
			c4.7-4,9.601-7.8,14-12.2c3.101,0.7,6.2,0,8.801-0.6c0.6,1.7,2,2.5,2.699,4c1.301,0.8,2,2.2,3,3.3c0.601,0.2,0.9,0.8,1.801,0.6
			c-0.5,1.6-0.7,3.5-1.2,5.2C107.7,34.7,108.4,35.2,108.5,36.2z M86.6,36.2C87.9,35,89.9,34.5,90.9,32.9c1.199,0,1.199-1.2,2.1-1.5
			c0.3-0.8,1.3-1.9,0.6-2.7c-0.199-1-1.5-1-2.699-0.9c0,0.4-0.5,0.3-0.601,0.6c-2.1,1.8-4.1,3.6-6.7,4.9c-2.5,3.2-6.199,5.3-9.1,8.2
			c-1.1,0.2-1.7,1.2-2.4,1.8c-0.8,0.6-1.6,1.2-2.399,1.8c-1,1.4-4,3.1-2.101,5.5c3.2,0.4,3.4-2.1,5.5-2.7
			c1.2-1.6,3.101-2.5,4.601-3.9C80.8,41.5,83.7,38.9,86.6,36.2z M99.4,33.5c0,0.4-0.5,0.3-0.601,0.6c-2.5,1.6-4.5,3.8-6.7,5.8
			c-1.8,2.4-4.6,3.9-6.699,6.1c-2.5,1.7-4.5,3.8-6.7,5.8c-1.101,1-2,2.2-3,3.3c-0.7,1.1-2.5,2.5-1.5,4.3c1.899,1,3.399-0.8,4.3-1.8
			c1.4-0.8,2.4-2.1,3.6-3c2-2.5,4.801-4.1,7-6.4c2.601-1.9,4.9-4,7.301-6.1c1-1.2,2.1-2.4,3.3-3.3c1-0.9,3-2.1,2.399-3.6
			C101.9,33.7,101,33.3,99.4,33.5z"/>
	</g>
</g>
</svg>
