<?xml version="1.0" encoding="utf-8"?>
<!-- Generator: Adobe Illustrator 16.0.0, SVG Export Plug-In . SVG Version: 6.00 Build 0)  -->
<!DOCTYPE svg PUBLIC "-//W3C//DTD SVG 1.1//EN" "http://www.w3.org/Graphics/SVG/1.1/DTD/svg11.dtd">
<svg version="1.1" id="Layer_1" xmlns="http://www.w3.org/2000/svg"  x="0px" y="0px"
	 width="120px" height="120px" viewBox="4 4 120 120" style="enable-background:new 4 4 120 120;" xml:space="preserve">
<g id="search">
	<g>
		<path d="M108.514,88.678c-2.037-1.752-4.299-3.275-6.096-5.265c-1.693-2.188-4.525-3.238-6.377-5.267
			c-2.73-1.146-4.645-3.119-7.482-4.156c-0.857-1.083-2.529-1.35-3.326-2.496c-0.717-0.051-1.198-0.758-1.662-1.107
			c-0.572-0.432-1.361-0.678-1.663-1.386c4.075-4.612,6.625-10.743,7.206-18.845c-1.161-5.488-2.727-10.578-5.268-14.689
			c-0.425-1.053-0.801-2.154-1.105-3.325c-2.074-1.863-4.264-4.467-6.653-5.543c-0.086-0.039-0.174-0.485-0.274-0.555
			c-0.125-0.085-0.416,0.063-0.557,0c-0.086-0.041-0.173-0.486-0.275-0.554c-0.127-0.085-0.414,0.062-0.554,0
			c-0.096-0.043-0.17-0.486-0.276-0.555c-0.256-0.156-0.621-0.163-0.834-0.278c-1.104-0.596-2.592-1.466-3.324-1.938
			c-0.594-0.384-1.426-0.612-1.94-0.833c-1.547-0.663-3.065-1.341-4.711-1.938c-2.641-0.96-5.313-1.872-8.313-2.218h-3.05
			c-1.096,0.384-2.556,0.402-3.882,0.554c-0.983,0.771-2.802,0.707-3.601,1.664c-1.362,0.393-2.913,0.6-3.88,1.387
			c-3.017,0.492-4.876,2.144-7.76,2.77c-0.281,0.734-1.282,0.75-1.662,1.387c-0.889,0.129-0.979,1.055-1.941,1.108
			c-0.77,1.356-2.371,1.88-3.604,2.772c-1.144,2.18-2.663,3.988-3.602,6.374c-0.691,0.971-0.826,2.498-1.661,3.326
			c0.182,1.014-0.6,1.062-0.558,1.939c-0.582,0.341-0.177,1.669-0.829,1.941c-1.039,5.86-0.095,12.034-0.278,18.569
			c0.52,2.99,1.527,5.491,2.497,8.037c0.962,0.608,1.186,1.952,2.213,2.495c0.575,0.997,1.649,1.494,2.218,2.493
			c2.642,1.7,5.014,3.67,8.04,4.989c2.667,1.672,5.812,2.871,9.145,3.88c1.043,0.247,2.347,0.238,3.326,0.554
			c1.147-0.239,2.629-0.142,3.601-0.554c0.122,0.618,1.366,0.111,1.943,0.275c0.117,0.619,1.366,0.113,1.937,0.277
			c1.695-0.215,2.593,0.362,4.157,0.277c1.557-0.292,3.338-0.359,4.992-0.555c0.639-0.377,1.232-0.797,2.216-0.83
			c0.938-0.633,1.771-1.371,3.047-1.664c0.778-0.793,1.765-1.379,3.05-1.662c0.469,1.102,1.308,1.833,1.662,3.048
			c0.713,0.95,1.506,1.819,1.94,3.05c1.61,1.622,2.417,4.046,4.157,5.541c0.971,2.262,2.641,3.826,3.88,5.822
			c1.521,1.712,2.901,3.562,4.157,5.542c1.953,1.739,3.781,3.61,5.819,5.266c0.53,0.765,1.132,1.454,1.662,2.218
			c0.808,0.578,0.812,1.961,2.218,1.938c1.752,0.183,2.377-0.765,3.324-1.386c0.614-1.049,2.273-1.051,3.326-1.662
			c2.65-2.985,6.003-5.27,8.314-8.592c0.599-1.617,0.986-3.447,1.938-4.713C111.668,93.469,109.98,91.182,108.514,88.678z
			 M76.366,56.806c-0.412,0.237-0.4,0.894-0.556,1.387c-0.412,0.236-0.597,0.698-0.557,1.386c-0.775,0.517-1.068,1.518-1.384,2.495
			c-1.129,1.365-1.882,3.109-3.05,4.435c-2.184,2.896-5.055,5.105-7.482,7.759c-1.017-0.091-1.54,0.309-2.218,0.555
			c-0.503,0.419-1.554,0.295-1.939,0.832c-3.102-0.055-6.108-0.01-8.87,0.277c-7.107-1.574-12.554-4.812-16.907-9.146
			c-0.228-0.877-0.808-1.409-1.383-1.938c-0.104-0.915-0.649-1.387-1.11-1.941c0.041-0.688-0.143-1.15-0.552-1.385
			c-0.303-2.006-0.639-3.982-0.833-6.098c0.11-3.77,0.385-7.375,1.11-10.531c0.51-0.503,0.359-1.673,0.832-2.217
			c0.417-0.505,0.293-1.554,0.829-1.94c0.289-1.561,1.242-2.454,1.665-3.88c5.166-3.887,10.497-7.608,19.122-8.037
			c0.323,0.045,0.495-0.061,0.554-0.278c3.523,0.174,6.162,1.231,9.701,1.387c1.55,0.573,2.683,1.564,4.158,2.217
			c0.913,1.116,2.78,1.284,3.879,2.216c2.71,3.297,4.495,7.518,5.819,12.195C77.1,50.153,76.945,53.694,76.366,56.806z
			 M80.521,82.581c0.067-0.302,0.552-0.188,0.555-0.554C81.827,82.271,80.844,83.256,80.521,82.581z M105.744,98.656
			c-0.771,0.803-1.516,1.625-2.219,2.492c-1.248,0.233-1.56,1.399-2.217,2.219c-0.928,0.273-1.524,0.879-2.496,1.109
			c-0.996,0.162-1.34-0.324-1.94-0.557c-1.033-0.297-0.789,0.689-1.662,0.557c-1.382-3.146-2.911-6.144-4.987-8.594
			c-0.988-1.322-1.797-2.822-3.05-3.88c-0.229-0.878-0.808-1.41-1.385-1.94c-0.411-0.694-0.692-1.525-1.388-1.939
			c0.871-0.516,1.974-0.801,2.771-1.384c0.674-0.624,1.424-1.165,2.219-1.664c0.098-0.364,0.485-0.437,0.555-0.831
			c2.729,0.316,3.572,2.523,5.82,3.324c1.916,0.945,3.475,2.254,5.543,3.05c1.406,1.825,3.303,3.163,4.711,4.987
			C106.223,96.92,105.707,97.512,105.744,98.656z"/>
	</g>
</g>
</svg>
