<?xml version="1.0" encoding="utf-8"?>
<!-- Generator: Adobe Illustrator 16.0.0, SVG Export Plug-In . SVG Version: 6.00 Build 0)  -->
<!DOCTYPE svg PUBLIC "-//W3C//DTD SVG 1.1//EN" "http://www.w3.org/Graphics/SVG/1.1/DTD/svg11.dtd">
<svg version="1.1" id="Layer_1" xmlns="http://www.w3.org/2000/svg"  x="0px" y="0px"
	 width="120px" height="120px" viewBox="4 4 120 120" style="enable-background:new 4 4 120 120;" xml:space="preserve">
<g id="shield">
	<g>
		<path d="M111.9,35c-0.101-2.9-0.7-5.3-1.301-7.9c-0.199-1.3-0.199-2.7-0.6-3.8c0-1.6-0.2-3-1.6-3.2c-0.5-1-1.7,0.6-2.2-0.3
			c-0.5,0.6-1.5,0.8-2.5,0.9c-0.601,0.6-1.601,0.7-2.5,0.9c-0.8,0.4-1.5,0.8-2.5,0.9c-6.5,0.4-12.7,1.1-19.9,0.9
			c-3.7-0.7-7.1-1.7-10.1-3.2c-1.3-1.3-2.7-2.3-3.8-3.8c-1.5-1.1-2.101-3.1-5-2.8c-0.4,0.2-0.7,0.3-0.9,0.6
			c-1.2,0.4-1.9,1.2-2.8,1.9C55,17,53.9,17.5,52.7,18c-2.4,1-4.7,2-7.3,2.8C40.7,22,35.1,22.2,29,22.1c-1.7-0.6-3.3-0.4-4.7-0.6
			c-1.3-0.2-2.2-0.8-3.2-1.3c-1.2,0-1.7-1.8-2.8-0.9C17,23,17,28.1,16.1,32.2c-0.1,5-0.5,9.8-0.3,15.1C17.1,59.5,20,70,24.9,78.5
			c2.6,4.2,5.7,7.7,8.8,11.4c3.1,3.8,6.1,7.6,9.5,11c2.8,2.199,5.8,4.3,8.5,6.6c1.5,1,3,2,4.4,3.2c2.4,0.2,2.5,2.7,5,2.8
			c1.6-0.2,2.4,0.3,3.8,0.3c0.899-0.5,2-0.899,2.5-1.899c0.6-0.9,2.3-0.7,2.8-1.601c2.1-0.899,3.3-2.8,5.399-3.8
			c8.7-9.4,18.9-17.3,24.9-29.3c4.7-7.4,8.5-15.7,10.7-25.5C112,46.7,112.8,40.5,111.9,35z M97.1,36.3c-0.1-1.2,0-2.3,0.301-3.2
			v-5.7c0.3-0.3,0.899-0.2,0.899-0.6c0.3-0.1,0.3,0.1,0.3,0.3v9.5C98.4,37.3,99.2,39.1,98,38.8C96.5,39.2,97.3,37.2,97.1,36.3z
			 M94,29c-0.6,1.1-0.4,3-0.9,4.1v2.5c0.2,1-0.5,0.9-0.3,1.9c-0.399,0.7,0.8,1.2,0,1.3h-1.6c0.2-3.5-0.3-6.2-0.3-9.5
			C92.2,29.6,92.6,28.8,94,29z M87,29.3c0.3,0.6-0.1,2.5-0.3,3.5v6H82c-0.2-3.3-0.7-6.3-0.9-9.5H87z M74.7,28.4
			c1.3,0.3,2.5,0.6,4.1,0.6c-0.899,2.8-1.6,5.7-1.6,9.5h-2.5V28.4z M70.9,27.1c0.5,0.2,0.8,0.5,1.3,0.6c-0.5,1-0.8,2.1-0.9,3.5
			C70.5,30.5,71.1,28.4,70.9,27.1z M70.9,31.5c0.199,0.2-0.2,0.4-0.301,0.3C70.5,31.7,70.9,31.5,70.9,31.5z M63.7,37.2v-6.3
			c0.4-2,0.4-4.4,0.6-6.6v-0.9c1.101,0.5,2,1.4,2.8,2.2c-0.699,2.6-1,5.7-1.6,8.5c-0.4,1.6,1,5-1.3,4.7
			C63.3,39.1,63.8,37.8,63.7,37.2z M55.5,22.7c1.3-0.5,3-1.2,4.1-1.9c0.1-0.1,0.8-1,0.9-0.3c-1.4,5.4-2.3,11.4-2.2,18.3
			c-1,0.6-3,0.2-4.1,0.6C54.7,34,55.1,28.3,55.5,22.7z M47.9,38.2V36c0.5-1.5,0.1-3.9,0.6-5.4c0-2.1-0.2-4.4,0.3-6
			c1-0.1,1.7-0.6,2.8-0.6c-0.6,2.7-1.3,5.2-1.6,8.2c-0.4,1.2-0.6,2.5-0.6,4.1c-0.9,0.7,0.4,3.6-0.9,3.8
			C47.4,40.4,48.1,38.8,47.9,38.2z M43.5,29c0.1-1.1-0.2-2.6,0.3-3.2c1,0.8-0.4,1.9,0,3.2H43.5C43.8,30.7,42.5,29.4,43.5,29z
			 M36.9,36.6c0.2-3.1,0.3-5.9,0.6-8.5h0.3c-0.1-0.5,0.3-0.5,0.3-0.9h1.6c-0.6,3.4-1.4,6.6-1.9,10.1c-0.3,1.3,0.7,3.9-0.9,3.8
			c-1.2,0.3-0.6-1.7-0.3-1.9C36.6,38.2,36.4,37,36.9,36.6z M31.5,35.6c0.1-1.6-0.2-3.6,0.3-4.7c0-1.3-0.5-2-0.3-3.5
			c1.4-0.4,2.9,0.7,3.5,0c1,1.2-0.6,2.3-0.3,3.8c-0.6,0.9-0.9,2.1-0.9,3.5c-0.6,0.9-0.9,2.2-0.9,3.8c-0.8,0.7-0.1,2.8-1.3,3.2
			c-1.3,0-0.4-2.3-0.3-2.8C31.1,37.6,31.2,36.5,31.5,35.6z M24.9,37.5c0.6-3.1,0.7-6.6,1.3-9.8v-0.9c1.2-0.2,1.4,0.5,2.5,0.3
			c0.1,1.6,0,3.1-0.3,4.4c0,0.8,0,1.5-0.3,1.9c-0.2,0.6,0.4,1.9-0.3,1.9c0.2,1.7-0.5,2.4-0.3,4.1c0.2,1-0.5,0.9-0.3,1.9
			c0.3,1-1,0.4-1.3,0.9c-1.2,0.3-0.2-1.7-0.9-1.9v-2.8H24.9z M21.7,53.9v-2.5c0.3-0.1,0.3,0.1,0.3,0.3c0.2,2.5,0.9,4.6,1.3,6.9
			c0.5,2.3,1.6,3.9,1.6,6.6C23.3,62.1,22.7,57.8,21.7,53.9z M27.7,72.5c-0.3-0.9-1-1.3-0.9-2.5c1.2,1.2,2.1,2.7,2.5,4.7
			C28.2,74.6,28.4,73.2,27.7,72.5z M97.1,73.5h-0.3C96.5,75,95.6,75.9,94.9,77c0,0.4-0.5,0.2,0,0c0.1-1.6,1-2.4,1.6-3.5h0.3
			c0-0.4,0.101-0.7,0.3-0.9C97.6,72.6,97.3,73.2,97.1,73.5z M103.4,54.9c0,5.6-1.801,9.6-5.4,11.7c-1.4,4.4-3.5,8-5.7,11.7
			c-1,0.2-0.8,1.5-1.899,1.601C90,80.7,89.3,81.1,88.5,81.5c-0.5,1.7-1.9,2.6-2.5,4.1c-1.2,1-1.7,2.7-2.8,3.801
			c-1.8,2.699-4.101,4.8-6,7.3c-2.2,2.2-4,4.8-6.601,6.6c-1.8,2.2-4.699,4.7-8.5,3.8c-0.1-1.6,0.5-3.8-0.9-4.1
			c-1.8-0.2-2,1.1-2.5,2.2c-1.6-0.5-2.6-1.601-3.8-2.5c-0.1-1.7,0.4-4-0.6-4.7c-1.6-0.2-1.3,1.7-2.5,1.9c-1-1.2-2.5-1.9-3.5-3.2
			c-0.3-2.2,1.2-4.9-0.3-6.3c-2.1-0.2-2,1.8-2.5,3.199C44.2,93.4,44.2,92,43.3,91.4c0.2-2.301,0.7-4.301,0.6-6.9
			c0.1-1.6,0.9-3.1,0.3-4.4c-1.8-0.199-2.2,1.2-2.8,2.2c-0.5,1.101-1.1,2.3-1.3,3.8c-1-0.899-1.6-2.199-2.2-3.5
			c0.1-1.8,0.6-3.199,0.6-5c0.3-1,0.9-4-0.3-4.399c-1.7-0.2-1.4,1.7-2.2,2.5c-0.3,1.3-0.9,2.3-1,3.8c-1.3-0.9-2-2.4-2.8-3.8
			c0-2.601,0.7-4.601,0.6-7.3c0.6-0.4,0.3-1.601,0.6-2.2c0.2-0.601,1-1.2,0.3-1.9c-2-0.3-2,1.4-2.8,2.2c-0.3,1.4-1,2.4-0.9,4.1
			c-1.3-1.1-1.5-3.3-2.2-5C28,62,29.5,59.7,30,56.5c-2.7,0.4-2.5,3.6-3.5,5.7c-1-0.2-0.5-1.8-1.3-2.2c0-1-0.7-1.4-0.6-2.5
			c-0.7-0.5-0.3-2.1-0.9-2.5c0.3-1.2-0.7-1.8,0-2.5c-0.5-1.2-1.1-2.2-0.9-4.1c0.8-0.9,2.6-1,3.8-1.6c8.6,0.4,15.2-1.2,23.7-0.9
			c7.8-1.2,18.5-1.2,27.101-0.6H82c4.6,0.5,11.2,0.5,15.8,0c1.7,0.5,4.101,0.3,6.3,0.3c0.4,0.6,0.801,1.1,1.301,1.6
			C105.1,49.8,104.1,52.2,103.4,54.9z"/>
	</g>
</g>
</svg>
