<?xml version="1.0" encoding="utf-8"?>
<!-- Generator: Adobe Illustrator 16.0.0, SVG Export Plug-In . SVG Version: 6.00 Build 0)  -->
<!DOCTYPE svg PUBLIC "-//W3C//DTD SVG 1.1//EN" "http://www.w3.org/Graphics/SVG/1.1/DTD/svg11.dtd">
<svg version="1.1" id="Layer_1" xmlns="http://www.w3.org/2000/svg"  x="0px" y="0px"
	 width="120px" height="120px" viewBox="4 4 120 120" style="enable-background:new 4 4 120 120;" xml:space="preserve">
<g id="tools1">
	<g>
		<path d="M113.3,80c-0.5-1.1-0.899-2.3-1.2-3.5c-0.6-0.2-0.8-0.7-1.8-0.6c-0.7-0.101-0.5-1-1.5-0.9c-1.8-2.3-4.2-4.1-6.5-5.9
			C97.1,68.9,92.5,67.9,86.7,68.2c-1.3-0.2-1.5,0.7-2.4,0.899C83.8,67.7,82,67.5,81.4,66.2c1.399-0.3,1.899-1.4,2.899-2.1
			c1.2-2.2,3.2-3.7,4.4-5.9c2.1-1.4,3.2-3.8,5.3-5.3c0.4,0.4,1.4,0.4,1.8,0c1.5-1.1,2.5-2.8,3.8-4.1c1.5-0.7,2.601-1.7,3.5-2.9
			c0.2-1.5-0.3-2.2-0.6-3.2c1.2-0.9,2.6-1.7,3.5-2.9c1.2-1,2.7-1.6,3.5-2.9c0.2-0.8,0.4-1.5,0.6-2.4c-1.6-4.9-4.5-8.4-6.8-12.6
			c-1.2-1.1-2.399-2.1-3.8-2.9H96c-3.3,2-5.9,4.7-7.9,7.9C88,28,88.6,28.3,88.7,29.2c-1.5-0.8-1.9-2.8-4.101-2.9
			c-1.8,0.2-2.5,1.4-3.8,2.1c-0.6,1.2-1.5,2.1-1.8,3.5c-1.5,0.5-2.1,1.9-2.9,2.9c-1.5,0.4-1.899,2-3.199,2.6
			c-0.5,1.4-1.9,2-2.601,3.2c-1.1,0.8-2.1,1.8-3.2,2.6c-1.199,1.3-2,3.1-3.8,3.8c-0.6-0.9-1.2-1.8-2.1-2.4c-0.5-1.1-1.8-1.3-2.1-2.6
			c1-4.3-0.6-8.6-0.9-12.6c-1.7-1.8-2.9-3.9-4.7-5.6c-0.6-1.1-1.4-2.1-2.3-2.9c-0.4-1.3-1.8-1.7-1.8-3.5c-1.6-0.5-2.7-1.4-4.4-1.8
			c-1.5-0.6-3.5-0.8-4.7-1.8c-2,0.4-3.4,0.3-5.3,0c-0.1-0.5-0.4,0.1-0.9,0C32.4,14,31,14.6,30,15.6c0.1,1.1-0.5,1.4-0.6,2.4
			c2.2,2.5,6.5,2.9,8.2,5.9c1.6,2.2,2.5,5.1,3.5,7.9c-2.7,2.7-4.8,6-8.2,7.9c-1.7,0.5-3.3,1-5.6,0.9c-1.6-0.9-2.9-2.2-3.8-3.8
			c-1.4-1.1-2.5-2.6-3.2-4.4c-0.1-1.3,0.3-3-0.3-3.8c-1.6-0.8-3.6,0.1-5-0.3c-2.3,4.8-0.8,12.4,0.3,17.3c0.6,0.6,1.5,0.8,2.1,1.5
			c2.8,4.5,6.2,8.3,10.3,11.5c2.4,0,4.4,0.5,6.8,0.6c3.5-0.4,7.1-0.7,11.2-0.6c3.4,3.2,6.8,6.4,9.7,10c-1.9,0.4-2.5,2-4.1,2.601
			C49.1,74,46,76.1,43.7,78.8c-1.3,0-1.1,1.5-2.4,1.5c-0.4,0.9-1.4,1.2-1.8,2.101c-1,1.199-3.7,2.1-2.6,4.399
			c1.2,1,1.8-0.8,2.9-0.899c0.7-0.801,1.5-1.601,2.6-2.101c0.7-0.8,1.5-1.6,2.6-2.1c0.6-0.9,1.5-1.601,2.6-2.101
			c1.5-1.5,3.1-3,4.7-4.399c1.5-1.601,3.7-2.601,5-4.4c0.7,0.4,1.1,1,1.5,1.8c0.6,0.5,1.4,0.801,1.5,1.801c-0.4-0.4-1.9-0.4-2.3,0
			c-3.2,2.3-5.9,5-8.8,7.6c-1.6,1.2-2.9,2.6-4.4,3.8c-0.6,0.8-1.2,1.5-2.1,2.101C42.1,88.6,41.9,89.8,40.6,90
			c-1.5-0.6-2.5,0.2-4.4,0c0.3-1.5,0.4-2.7-0.6-3.5c-2-0.5-4.4-0.5-6.2-1.2c2.8-4,6.4-7.1,10-10.3c2.1-1.3,3.7-3.1,5.6-4.7
			c0.6-1.1,1.7-1.6,2.3-2.6c1.2-0.601,2.5-1,2.4-2.9c0-0.4-0.4-0.4-0.3-0.9c-1-0.9-3.5-0.8-3.8,0.6c-1,0.3-1.7,1.1-2.4,1.8
			c-1.1,1.101-2.5,3.101-3.5,3.8c-0.3,0.2-0.6,0.101-0.9,0.301c-0.8,0.699-1.2,1.8-2.4,2.1c-3.7,3.9-7.5,7.6-10.6,12
			c-0.9,8.5-4.8,14-6.2,22c-1.1,1.9-3.6,3.7-1.8,6.5c0.2,0.1,0.6,0,0.6,0.3c2.4,0.4,2.7-1.3,4.1-1.8c7.3-2.1,13.9-4.9,20.3-7.9
			c1.1-0.1,2-0.399,2.9-0.6c0.5-0.7,1-1.4,0.9-2.6c3.3-2.7,5.8-6.301,9.4-8.801c1.4-1.6,3.6-2.5,5-4.1c1.6-1.5,4.1-2,3.8-5.3
			c-0.4-0.3-0.9-0.5-1.2-0.9c-2.9,0.101-3.7,2.4-5.6,3.5c-0.8,0.8-1.8,1.4-2.6,2.101c-1,0.5-1.4,1.8-2.6,2.1c-1.4,1.7-3,3.3-4.7,4.7
			c-0.6,0.899-1.5,1.6-2.1,2.6c-1.3,0.3-1,2.101-2.6,2.101c-1.1-1-0.4-3.9-0.6-5.9c5.7-5,11-10.4,17-15c0.2-0.4,0.5-0.7,0.9-0.9
			c0.2-0.399-0.3-1.5,0.3-1.5c2.3,2.801,4.8,5.4,6.8,8.5C68,85,68.8,85.7,69,87c0.2,2.6,0.4,4.1,0.3,7.3c0.2,2.101,1,3.7,1.2,5.9
			c2.6,2.7,5.1,5.7,8.2,7.899c-0.101,1,1,1,1.2,1.801c0.5,0.6,0.8,1.399,1.8,1.5c4.1,0.5,6.8,2.399,11.2,2.6c1.1,0,1.3-0.8,2.1-1.2
			c0.9-0.2,1.3-0.899,1.8-1.5c-0.1-1.2-0.5-2-0.6-3.2c-1.2-1.6-2.8-2.8-4.7-3.8c-0.5-1-1.9-1-2.4-2.1c-1.199-0.3-2.199-0.7-2.6-1.8
			c0.1-1.9,0-3.5-0.3-5c1.3-1.2,2.7-2.4,4.399-3.2c1.7-1.7,3-3.8,5.301-4.7c2.199,0.3,3.6,0.1,5.6,0.9c2.2,2.8,1.7,8.3,3.8,11.199
			c2.8,0.5,6,0.2,7.9-1.5C115,93.2,113.4,85.7,113.3,80z M34.9,102.9c-1.1,1-3.1,1.199-4.4,2.1c-1.1,0-1.2-1.2-1.8-1.8
			c-0.6-0.5-1.4-0.8-1.5-1.8c-0.8-0.4-1.3-1.301-2.4-1.5c1-4.2,2.4-8,3.2-12.301c1.5,0.5,2.3,1.601,4.4,1.5c0,1.2-0.1,2.4,0.3,3.2
			c0.6,1.8,3.7,1,5.9,1.2c0.2,3.3-0.9,4.9,0.6,7.1C38.2,101.7,36.5,102.2,34.9,102.9z M98.6,35.9c0.2-1.6-0.199-2.6-1.199-2.9
			c0-0.3,0.5-0.2,0.899-0.3c0.9-0.5,1.3-1.5,2.4-1.8c-0.101-0.5,0.3-0.5,0.3-0.9c0.6,0.6,1.7,0.2,2.3,0c0.9,1.4,1.8,2.9,2.4,4.7
			c-2,1.4-3.8,3.1-5.601,4.7c-1.199-0.7-1.8-1.9-2.899-2.6C97.4,36.3,98.2,36.2,98.6,35.9z M83.9,30H84.8c2.101,2.9,5.3,4.7,7.3,7.6
			c1.2,0.7,2,1.7,3.2,2.4c1.2,1.8,3,2.9,3.8,5c-1.699,0.7-2.3,2.6-4.1,3.2c-4.2-4.7-9-8.8-13.7-13.2C81.8,33,82.9,31.5,83.9,30z
			 M69,46.5c2.4-2,4.8-4.1,6.8-6.5c1-0.4,1.101-1.6,2.4-1.8c0.2-0.4,0.5-0.7,0.899-0.9c4,4.1,7.7,8.5,12,12.3
			c-0.1,1-0.899,1.3-1.5,1.8c-0.1,1-0.899,1.3-1.5,1.8c-0.8,1.4-1.899,2.4-2.899,3.5c-1.601,2.7-3.9,4.7-5.3,7.6
			c-1-0.3-1.101-1.7-2.101-2.1c-0.399-1-1.6-1.1-1.8-2.4c1.4-0.4,1.9-1.8,3.2-2.3c0.899-1.2,1.7-2.4,2.899-3.2
			c0.7-1.4,2.4-1.7,2.9-3.2c0-0.7-0.5-0.9-0.6-1.5c-2.301-0.2-3.601,1.3-4.7,2.3c-1.2,1.1-2.101,2.6-3.5,3.5
			c-0.5,1.1-1.8,1.3-2.101,2.6C72.4,57.6,72.2,55.7,70.9,55.1c2.399-2.1,4.8-4.2,7.3-6.2c0.7-1.1,1.399-2.1,2.399-2.9
			c0.2-1.4,2-1.3,1.5-3.5c-0.3-0.4-0.8-0.6-1.199-0.9C80,41.5,78.3,42.2,78.3,43.1c0,0.6-1.6,1.7-1.8,2.6c-1.2,1.2-2.8,2.1-3.8,3.5
			c-1.3,1.1-2.5,2.2-3.2,3.8c-1.4-1.3-3.1-2.4-3.8-4.4C66.7,48,67.8,47.2,69,46.5z M39.3,19.7c-0.2-0.2,0.2-0.4,0.3-0.3
			C39.7,19.6,39.4,19.8,39.3,19.7z M59.9,65.3c-1-0.2-0.4-1.1-0.3-1.8C60.2,63.6,59.7,64.8,59.9,65.3C60.2,65.3,60,65.7,59.9,65.3z
			 M110.1,94.4c-0.699,0.3-1,1.199-2.1,1.199c-0.8-2.699-2.5-4.6-2.9-7.6c-0.1-0.4-0.5-0.5-0.6-0.9c-0.5-0.699-1.2-1.1-2.4-1.199
			c0.101-0.7,0-1.101-0.3-1.5C99,83.8,96.4,82.6,93.3,83.2c-1,0.8-2.1,1.6-2.6,2.899C90.3,86,90.1,85.7,90.1,85.2
			C90.2,84.6,89.7,84.6,89.5,84.3c-1.3,0.2-0.8,2.4-0.9,3.8c-0.699,0.5-1.5,0.9-2.1,1.5C85.8,88.9,86.3,86.9,85,86.7
			c-1.6,0.3,0.5,4.2-1.5,4.1c0-1.3,0-2.5-0.9-2.899c-1,0-0.899,1.1-0.899,2.1v2.9C81.5,93.8,82.2,93.8,82,94.7
			c0.1,1-0.1,1.6-0.3,2.3c0,0.7,0.5,0.9,0.3,1.8c0.9,2.4,2.5,4.2,3.8,6.2c1.101,0.5,1.7,1.6,2.9,2.1c0.3,0.5,1.1,0.5,1.2,1.2
			c0.699,0.2,1.399,0.4,1.5,1.2h-2.9c-0.3-1.2-0.8-2.1-1.8-2.6c-1.5,0.199-0.5,2.699-0.9,3.199c-2.6-0.399-2-4.1-3.5-5.6
			c-1.2,0.5-0.7,1.6-0.6,2.9c-1.5-0.301-1.2-2.301-2.101-3.2c-0.199-1.7-0.899-2.9-1.5-4.101c-1,0.101-0.5,1.7-0.6,2.601
			c-1-0.3-0.6-1.9-1.5-2.4c-0.5-3.5-1.2-6.899-1.8-10.3v-2.3c0.2-0.9-0.5-0.9-0.3-1.8C73.7,84.8,74.5,84.8,74.5,83.8
			c-0.2-4-1.4-7-1.5-11.2c-0.5-0.699-0.2-2.1-1.2-2.399C70.4,70.1,70.9,72,70.3,72.8v4.7c-1-0.4-1.3-1.7-2.1-2.4
			c-0.101-1.5-0.5-2.6-0.9-3.8C66.9,70.1,66.9,68.4,65.8,67.8c-1.4,0-1.2,1.8-1.2,3.2C62.7,69,62.7,65.1,61.7,62.2
			c-0.2-1.8,0.1-4.1-1.2-4.7c-1.9,0.4-1.2,3.3-1.5,5.3c-0.8-1.1-1.2-2.6-1.5-4.1c-0.8-1.1-0.6-3.3-1.5-4.4c-1.4-0.3-0.6,1.6-1.2,2.1
			c-0.2,1.9,0.3,3,0.3,4.7c-1.5-0.1-1.4-2.3-1.8-2.6c-0.1-0.1,0-0.5,0-0.6C53,57,52.7,56,52.4,55.3v-1.8c-0.3-0.4-0.4-1.2-0.9-1.5
			c-2.6-0.6-1.8,3.3-1.5,4.7c-1.4,0-1-1.7-1.5-2.6c-0.7-0.7-0.7-2.1-2.3-1.8c-1.2,0.4-0.4,2.3,0.3,2.6c-0.2,0.9-0.6-0.3-1.2,0H44
			c-0.5-0.8-1.8-0.7-2.6-1.2c-0.5-1.8-0.8-3.7-1.8-5c-2.4-0.1-1.1,3.6-1.5,5.6h-2.9c-0.8-1.6-0.6-4.3-2.1-5.3
			c-1.3-0.2-0.7,1.7-1.2,2.4c-0.1,1.3,0.7,2.8,0.3,3.5c-1.3,0.3-1.3-0.6-1.8-1.2c-0.2-0.7-0.8-1.2-0.9-2.1c-0.9-1.2-1.1-3-2.1-4.1
			c-1.7,0.6-0.7,2.3-0.9,4.1c-2.3-2.2-3.2-5.8-3.8-9.7c-0.5,0-0.9,0.1-1.2,0.3c0.3,1.4-0.9,2.8,0,3.8c-0.8,0.8-1.3-1.1-2.1-1.2
			c0-0.3,0.1-0.8-0.3-0.9c0.1-2.8-0.5-5-0.9-7.3c1.7,1.6,3,3.4,4.4,5.3c1.5,1,2.6,2.5,5,2.6c-0.2,1,0.3,1.2,0.6,1.8
			c0.8,0.2,0.8-0.4,1.5-0.3c-0.1,0.7,0.5,0.9,0.9,1.2c1,0.1,1.4-0.3,1.5-1.2c0.6,0.6,0.7,1.8,2.1,1.8c2.3-0.7,0.3-3.2,0.6-5.3
			c1.2-0.3,0.2,1.6,0.9,1.8c0.2,0.6,0.7,1,1.8,0.9c1-0.1,0.5-1.7,0.6-2.6c-0.1-1-0.4-1.9-0.3-3.2c-0.8-0.2,0.5-0.5,0.3-0.9
			c0.6,0,0.4-0.8,1.2-0.6c-0.1,1.6,0.1,3.1,1.2,3.5c3.3-0.4-0.7-4.7,1.2-6.2c0.9-0.3,0.4,1,0.9,1.2c0.1,0.6,0.8,0.6,1.2,0.9
			c1.7,0,1.1-2.1,0.9-3.2c-0.1-1.2,0.9-1.3,0.6-2.6c-0.3-1.6-0.9-3-1.8-4.1c-0.1-1.2,1.4-0.9,1.2-2.4c-0.3-3-3-3.5-4.7-5
			c0.3-0.9,0.7,0.4,1.5,0c0.2,0.4,0.9,0.4,1.5,0.6c1.4,0.2,1.3-1,2.6-0.9c0.2,0.4,0.9,0.4,1.5,0.6c1,2.9,2.9,4.9,4.4,7.3
			c1.1,1.1,1.8,2.5,3.5,2.9c0,3.9,0.4,7.5,0.6,11.2c0.8,1.6,1.8,3.1,3.2,4.1c0.1,1,1.1,1.3,1.5,2.1c0.6,0.6,0.9,1.6,1.8,2.1
			c0.8,1.7,2,2.9,2.9,4.4c0.8,1.7,2.2,2.7,3.2,4.1c2.6,2.3,5.1,4.7,7.6,7c1.3,1.1,2.4,2.5,3.8,3.5c1.101,1.4,2.301,2.6,3.801,3.5
			c3.6,0,6.3-0.9,10-0.9c2,0.7,5.199,1.2,7.3,0.9c1.399,0.5,2,1.7,3.2,2.3c0.699,1.2,1.899,1.8,2.6,2.9c1,0,1.1,0.8,2.3,0.6
			c0,0.8,0.2,1.4,0.601,1.8c0,2.4,0.199,4.5,0.6,6.5C110.2,89.7,109.9,92,110.1,94.4z"/>
	</g>
</g>
</svg>
