<?xml version="1.0" encoding="utf-8"?>
<!-- Generator: Adobe Illustrator 16.0.0, SVG Export Plug-In . SVG Version: 6.00 Build 0)  -->
<!DOCTYPE svg PUBLIC "-//W3C//DTD SVG 1.1//EN" "http://www.w3.org/Graphics/SVG/1.1/DTD/svg11.dtd">
<svg version="1.1" id="Layer_1" xmlns="http://www.w3.org/2000/svg"  x="0px" y="0px"
	 width="120px" height="120px" viewBox="4 4 120 120" style="enable-background:new 4 4 120 120;" xml:space="preserve">
<g id="share2">
	<g>
		<path d="M36.196,59.937c0.259-2.11-0.403-3.302-0.879-4.68c1.521-2.385,2.836-4.969,4.39-7.315
			c0.772-0.204,0.62-1.332,1.462-1.463c0.184-0.793,1.226-0.727,1.169-1.754c1.4-0.65,2.285-1.815,3.22-2.926
			c1.231-0.723,2.378-1.525,3.222-2.634c0.792-0.181,1.37-0.581,1.753-1.172c0.552-0.422,1.522-0.429,1.757-1.169
			c2.837-1.16,5.452-2.544,8.775-3.217c4.941-0.62,10.976-0.144,16.386-0.292c1.561,0.778,3.121,1.561,4.683,2.339
			c2.023,1.585,3.533,3.684,5.562,5.267c0.426,1.329,1.703,1.807,2.339,2.926c0.864,0.987,1.995,1.712,3.801,1.756
			c2.567-0.264,4.095-1.567,4.685-3.802c0.463-3.39-1.308-4.544-2.634-6.146c-0.95-0.513-1.461-1.462-2.051-2.339
			c-1.242-0.315-1.21-1.908-2.632-2.049c-0.119-1.341-1.523-1.4-2.045-2.341c-0.834-0.628-1.53-1.393-2.637-1.755
			c-1.516-1.505-3.942-2.1-5.85-3.219c-5.387-0.297-12.229-0.612-17.557,0c-5.251-0.277-9.317,0.63-13.168,1.757
			c-2.049,1.263-4.305,2.328-6.146,3.803c-1.329,0.424-2.48,1.029-3.805,1.464c-1.259,1.469-3.321,2.139-4.384,3.802
			c-1.49,1.243-2.854,2.609-4.099,4.096c-1.357,1.375-2.668,2.795-3.513,4.683c-0.901,0.463-0.924,1.808-1.753,2.341
			c-0.707,0.755-0.499,2.43-1.465,2.926c-4.917,0.348-10.545-0.015-13.163,2.633c-0.896,3.62-1.135,9.584,1.46,11.41
			c1.426,0.699,3.558-0.026,4.388,0c0.367,0.014,0.422,0.261,0.878,0.293c3.565,0.26,6.882-0.191,10.534,0
			c0.985-0.185,2.718,0.377,3.219-0.293C34.453,62.876,35.226,61.308,36.196,59.937z M52.874,76.323
			c0.661,1.106,1.687,2.116,2.341,2.927c0.717,0.885,1.095,1.254,1.757,1.756c1.033,0.778,1.861,1.432,2.925,2.047
			c0.583,0.338,1.252,0.852,1.757,0.879c0.312,0.017,0.16,0.234,0.291,0.293c1.04,0.447,2.33,0.838,3.218,0.877
			c2.524,0.109,5.453,0.754,8.487,0c0.049-0.342,0.459-0.317,0.875-0.293c5.553-2.738,8.814-7.768,10.533-14.338
			c0.541-2.971,0.201-6.823,0.295-10.24c-0.344-0.048-0.321-0.464-0.295-0.878c-1.703-5.026-5.106-8.349-9.067-11.119
			c-1.423-0.53-2.843-1.061-4.099-1.756c-2.496-0.139-4.494-0.775-7.315-0.584c-0.062,0.227-0.244,0.339-0.583,0.292
			c-1.016-0.234-1.128,0.436-2.049,0.292c-1.737,0.897-3.368,1.898-4.681,3.218c-1.35,1.283-2.235,3.032-3.512,4.391
			c-1.623,3.837-3.407,7.513-3.218,13.166c-0.005,1.5,0.521,3.009,0.878,4.392c0.377,1.457,0.738,3.502,1.461,4.096
			C52.967,75.812,52.811,76.217,52.874,76.323z M65.458,53.792h2.925c1.793,0.353,3.648,0.643,4.973,1.464
			c1.521,0.625,2.427,1.869,3.805,2.634c0.521,1.333,1.345,2.363,1.759,3.802c0.183,4.283-0.103,8.094-1.465,10.826
			c-0.616-0.257-0.863-0.89-1.755-0.875c-1.047,0.223-1.781,0.754-2.344,1.463c-1.301-0.037-1.811,0.723-2.924,0.877
			c0.151-2.883-0.59-4.875-1.172-7.022c-0.027-1.476,0.523-2.011-0.291-2.926c-1.484-0.216-1.811,0.726-2.633,1.17
			c0.029,0.354-0.426,0.181,0,0c-0.111-1.281,0.836-1.502,0.876-2.632c0.894,0.015,1.491-0.266,1.757-0.879
			c-0.156-1.403-0.643-2.478-2.049-2.633c0.855-2.29,0.021-4.976-2.925-4.39C63.853,53.749,65.336,54.451,65.458,53.792z
			 M120.758,64.912c-0.732-0.746-1.102-1.571-2.047-2.05c-3.089-1.561-8.682-0.042-12.582-0.584
			c-0.375,0.015-0.406,0.375-0.877,0.293h-4.975c-1.879-0.122-2.764,0.749-4.1,1.17c-3.582,6.044-3.713,15.327-6.437,21.944
			c-3.021,4.198-6.769,7.668-12.289,9.362c-0.403-0.012-0.644,0.14-0.877,0.295h-9.364c-3.763-0.526-7.815-0.768-10.534-2.342
			c-3.538-0.851-6.075-2.701-9.068-4.099c-1.101-0.948-2.074-2.021-3.22-2.926c-0.77-0.301-0.985-1.16-1.754-1.463
			c-0.126-0.949-1.566-0.58-2.048-1.17c-2.091-0.138-2.428,1.475-4.391,1.463c-2.106-0.154-3.014,0.889-4.096,1.756
			c-0.314,2.069,0.821,2.689,0.585,4.683c3.831,3.971,7.794,7.812,12.583,10.825c1.703,0.345,3.266,0.83,5.266,0.88
			c4.746,3.646,14.663,3.337,22.53,2.924c0.268-0.612,1.65-0.103,1.756-0.878c0.828-0.048,1.222-0.534,2.047-0.584
			c8.232-1.325,13.373-5.743,18.145-10.534c0.438-1.51,1.674-2.228,2.342-3.511c0.658-1.391,1.277-2.815,1.752-4.391
			c0.043-0.93,0.666-1.287,0.588-2.341c0.646-0.428,0.229-1.913,0.877-2.341c0.183-1.865,0.349-3.746,1.168-4.975
			c0.976,0.738,3.422-0.019,3.806,0c0.097,0.006,0.224,0.291,0.586,0.293c1.687,0.015,3.481,0,5.267,0
			c3.61,0,7.359,0.332,9.071-1.756C120.715,71.82,121.344,67.833,120.758,64.912z"/>
	</g>
</g>
</svg>
