<?xml version="1.0" encoding="utf-8"?>
<!-- Generator: Adobe Illustrator 17.0.0, SVG Export Plug-In . SVG Version: 6.00 Build 0)  -->
<!DOCTYPE svg PUBLIC "-//W3C//DTD SVG 1.1//EN" "http://www.w3.org/Graphics/SVG/1.1/DTD/svg11.dtd">
<svg version="1.1" id="Layer_1" xmlns="http://www.w3.org/2000/svg"  x="0px" y="0px"
	 width="120px" height="120px" viewBox="0 0 120 120" enable-background="new 0 0 120 120" xml:space="preserve">
<g id="sheriff-star">
	<g>
		<path d="M107.434,82.788c-1.354-1.981-3.293-3.376-6.877-3.126c-0.467,0.365-1.275,0.387-1.563,0.936
			c-0.726,0.139-0.834,1.385-1.56,0.625c-0.254-1.832-1.463-2.705-1.562-4.686c-0.785-1.303-0.668-3.502-1.564-4.692
			c-0.045-2.034-0.888-3.274-1.248-4.997c-0.502-0.539-0.154-1.935-0.939-2.189c0.152-1.192-1.104-0.979-1.561-1.562
			c-1.365,0.096-1.787,1.133-2.502,1.874c0.685,5.259,2.096,9.784,3.435,14.382c-3.546-0.32-1.79,4.66-5.625,4.062
			c-0.005-0.738,0.541-0.921,0.315-1.877c-1.147,0-1.201,1.097-1.875,1.562c-0.173,0.977-1.814,0.479-2.5,0.938
			c0.137-1.333,1.362-2.853,0.625-4.06c-1.225-0.623-2.062,0.513-3.125,0.935c-0.697,0.971-0.893,2.442-1.564,3.438
			c-1.137-0.098-2.035,0.053-2.812,0.315c-1.935,1.606-3.688,3.394-5,5.623c-1.084,0.688-1.339,2.203-2.5,2.812
			c-0.215,0.729-1.039,0.838-1.25,1.562c-0.729,0.141-0.839,1.381-1.562,0.628c-1.072-2.296,1.188-3.761,0.621-6.567
			c-1.463-0.316-1.776,0.519-2.498,0.939c-0.679,0.469-0.499,1.793-1.562,1.875c-0.755-2.896,2.925-5.553,1.872-8.749
			c-3.02,0.101-3.049,3.198-4.688,4.688c-1.188-1.522,1.036-3.326,0-4.688c-1.206-1.039-1.846,2.042-3.124,0.937
			c-0.397-1.963,0.771-3.668,0-5.002c-1.464-0.316-1.777,0.517-2.501,0.939c-0.214,1.139-1.243-0.067-2.499,0.314
			c-0.227-1.197,1.382-2.347,0-2.816c-0.643,0.712-2.134,0.576-2.188,1.877c-0.765,0.588-1.113,1.594-2.813,1.248
			c0.584-1.484,2.404-3.321,0.939-5c-3.855-0.312-4.1,2.986-5.313,5.312c-0.952-0.195-2.692,0.4-3.126-0.312
			c2.098-3.838,3.825-8.051,5.627-12.188c0.369,0.356,1.104,0.353,1.873,0.311c1.112-1.184,1.75-2.838,2.189-4.688
			c0.586-1.36,1.841-3.477,0.938-5.312c-1.875-0.714-2.515,1.43-3.128,0.938c0.126-1.541,0.159-3.175,0.939-4.064
			c-1.649-0.693-2.018,1.503-2.812,0.628c-0.97-1.292-0.092-2.568-0.315-4.689c-0.807-0.773-1.163,0.676-2.186,0.624
			c-0.645-1.125-1.854-1.686-2.499-2.812c-0.909-0.237-1.8-0.492-2.19-1.247c6.566-0.452,12.757-0.138,20.005-0.314
			c0.307-0.422,0.835-0.624,1.249-0.938c0.466-0.366,0.367-1.297,1.252-1.25c1.494,0.183,4.085,1.432,4.372-0.625
			c0.133-1.901-2.793-0.745-3.747-1.562c0.688-0.251,0.403-1.472,1.248-1.563c1.306,0.419,4.958,2.064,5.312-0.312
			c-0.084-1.999-2.917-1.249-4.062-2.188c0.438-0.082,0.355-0.688,0.625-0.939h1.562c1.244,0.202,1.688-0.394,2.188-0.938
			c0.248-1.497-0.978-1.522-1.562-2.188c0.656-0.589,0.699-1.797,1.562-2.187c1.968,4.184,5.154,7.14,7.813,10.628
			c0.799,0.037,1.095,0.571,1.562,0.938h2.499c-0.316,1.465,0.514,1.777,0.94,2.497h10.625c1.057,0.198,2.903-0.4,3.438,0.313
			c-1.722,4.739-4.89,8.034-5.312,14.062c0.685,0.879,1.307,1.821,3.125,1.564c1.945-0.868,2.188-3.441,3.123-5.315
			c1.07-1.741,1.552-4.076,2.816-5.625c0.148-1.305,0.602-2.314,0.937-3.438c2.062,1.228,4.647,0.714,6.25,0.312
			c1.002-0.25,1.032-0.672,1.563-1.251c0.488-0.528,1.002-0.821,1.25-1.25c-0.221-1.364,0.529-1.761,0.312-3.124
			c-0.262-0.363-0.413-0.838-0.312-1.562c-1.863-1.992-2.92-4.788-7.5-4.064c-1.983,0.936-2.332,3.503-3.438,5.314
			c-5.574,0.158-11.809-0.348-16.878,0.312c0.356-0.877,0.356-1.626,0-2.499c-2.24-3.702-5.5-6.383-7.817-10.003
			c-0.552-0.284-0.966-0.701-1.247-1.252c-0.396-0.435-1.53-0.135-1.565-0.938c3.166-0.067,4.389-2.073,5.629-4.063
			c0.468-4.842-2.146-6.604-4.689-8.439c-5.578-0.474-7.217,2.992-9.376,5.939c0.058,1.94-0.351,2.415,0,4.063
			c0.364,0.47,0.901,0.764,0.938,1.563c0.745,0.509,1.797,0.702,2.499,1.25c-1.82,2.029-3.834,3.876-5.312,6.249
			c-0.931,0.943-1.431,2.317-2.5,3.126c-0.688,1.293-1.123,2.835-2.188,3.753h-4.688c-1.414,0.562-3.736,0.22-5.627,0.311
			c-0.879,0.579-2.922-0.006-3.747,0.626c-0.551,0.18-1.837-0.377-1.877,0.313c-0.828-0.367-1.843,0.6-1.877,0
			c0.275-2.047-0.574-2.965-0.935-4.377c-1.609-1.102-3.445-1.974-5.628-2.502c-1.41-0.233-2.751,0.22-3.125,0.314
			c-0.418,0.105-0.685,0.068-0.938,0.312c-0.653,0.628-2.311,1.875-2.812,2.501c-0.098,0.122,0.067,0.478,0,0.623
			c-0.049,0.112-0.551,0.186-0.624,0.314c-0.378,0.652-0.888,2.337-0.938,2.5c-0.3,0.989-0.257,1.233-0.314,2.188
			c0.378,0.977,0.76,1.95,1.253,2.814c1.811,0.165,2.965,0.992,4.063,1.874c1.611,0.264,3.341,0.406,5.313,0.312
			c0.88-0.267,1.279-1.008,2.499-0.939c0.346,1.634,1.608,2.352,1.874,4.065c1.725,1.508,3.079,3.383,3.438,6.25
			c0.946,1.036,1.8,2.161,2.189,3.751c0.552,0.593,1.549,0.743,2.186,1.249c-0.186,0.747-0.446,1.426-0.313,2.503
			c-2.322,1.214-3.434,3.647-4.998,5.625c-0.527,1.242-1.475,2.066-1.875,3.438c-0.997,0.88-1.186,2.564-2.188,3.439
			c-4.63-0.156-7.082,1.872-9.063,4.375c-0.264,1.195-0.41,2.508-0.312,4.062c1.036,2.295,1.4,5.271,3.126,6.875
			c1.433,0.651,3.453,0.715,5.623,0.628c1.383-0.702,2.779-1.393,4.065-2.189c0.562-0.896,1.175-1.742,1.876-2.498
			c0.206-0.839,0.131-1.953,0.625-2.502c0.107-0.861-0.898-2.193,0-2.812c3.666,0.643,7.086-0.269,11.251,0
			c-0.062,2.147,1.707,2.46,1.874,4.373c1.06,1.024,1.69,2.478,2.501,3.752c1.73,2.438,3.85,4.487,5.626,6.877
			c-0.803,1.456,0.213,2.601,0.938,3.437c1.794,0.311,3.701-1.062,4.688,0.312c0.134,2.948-1.917,3.71-5.001,3.438
			c-0.962-0.914-0.777-2.975-1.251-4.375c-1.521-0.74-2.741,0.543-3.435,1.562c-0.123,1.726-0.123,1.712,0,3.44
			c0.837,1.242,1.677,2.485,2.812,3.438c0.368,0.047,0.886-0.055,0.936,0.312h5.312c0.055-0.365,0.496-0.34,0.938-0.312
			c1.573-1.031,2.869-2.341,4.063-3.75c0.332-1.755,0.371-3.801,0.312-5.939c-0.239-0.068-0.36-0.264-0.312-0.625
			c-0.346-1.218-1.969-1.154-2.188-2.502c1.42-0.457,1.932-1.82,3.125-2.498c1.711-2.875,4.012-5.158,6.25-7.505
			c0.289-0.545,0.107-1.557,0.625-1.872c3.338-0.003,6.139,0.53,9.691,0.312c1.009-0.45,2.621-0.294,4.064-0.312
			c1.338-0.222,3.668-0.772,4.687-0.312v3.123c0.666,0.545,1.049,2.047,2.188,2.812c0.362,0.245,0.846,0.149,1.248,0.314
			c0.088,0.035,0.101,0.227,0.313,0.311c1.177,0.471,3.426,0.16,4.062,0c1.006-0.25,1.109-0.849,1.877-1.25
			C107.448,89.381,108.23,85.688,107.434,82.788z M103.682,39.343c-0.002,1.141-0.617,1.675-1.248,2.188
			c-0.059,0.984-0.219,1.862-1.252,1.876c0.142-1.391-0.847-1.655-1.25-2.503C99.988,39.164,102.552,39.062,103.682,39.343z
			 M67.738,19.964h1.879c0.613,1.118-0.146,1.669,0,3.127c-1.08,0.797-2.73,1.024-4.381,1.248
			C65.143,21.948,66.857,21.376,67.738,19.964z M30.546,44.345c-1.304,1.656-4.099,0.729-4.688-0.938
			c0.377-1.907,2.519-2.679,4.688-1.876C30.973,42.457,30.364,42.891,30.546,44.345z M29.92,89.662
			c-0.164-1.188-0.975-1.73-0.938-3.123c0.271-1.398,1.536-1.799,2.814-2.191c1.688,0.084,2.171,1.375,2.501,2.814
			C33.912,89.072,32.457,89.91,29.92,89.662z M92.434,82.788H91.49c-0.225-0.96,0.543-0.922,0.316-1.878
			C92.248,81.382,92.965,82.258,92.434,82.788z M103.682,89.039c-1.014,0.179-1.453-0.215-2.188-0.316
			c-0.528-1.63-1.506-3.849,0-4.998c1.008,0.245,2.07,0.428,2.814,0.939C104.301,86.324,104.503,88.193,103.682,89.039z
			 M53.675,60.91c-1.019,2.214-1.459,5-1.251,8.438c0.765,0.903,0.793,2.543,1.878,3.125c0.242,1.422,1.686,1.646,2.185,2.812
			c1.377,0.502,2.059,1.697,3.751,1.875c0.263,0.672,1.37,0.504,1.878,0.938c0.583,0.457,2.07,0.012,2.5,0.625h6.56
			c0.953-0.608,2.465-0.666,3.443-1.248c1.201-0.355,1.775-1.35,3.122-1.563c1.59-1.743,3.259-3.411,4.375-5.628
			c2.616-9.481-2.46-15.589-7.497-18.75c-3.296-1.187-6.909-2.054-11.257-2.19c-0.067,0.244-0.259,0.365-0.623,0.314
			c-3.021,0.521-4.72,2.363-6.562,4.062c-0.584,0.98-0.954,2.173-1.562,3.127c0.152,0.987-0.562,1.104-0.312,2.188
			C53.684,59.249,54.375,60.776,53.675,60.91z M59.925,56.221c1.11-0.87,2.215-1.745,3.753-2.19c3.83-0.077,6.623,0.877,9.687,1.562
			c2.613,2.656,4.716,7.883,3.128,12.814c-1.946,2.014-3.962,3.955-7.815,4.064c-1.644,0.287-1.654-1.057-2.814-1.25
			c-0.508-0.738-1.608-0.894-2.184-1.564c-2.034-0.571-2.891-2.317-4.063-3.751C59.027,63.025,59.171,58.748,59.925,56.221z"/>
	</g>
</g>
</svg>
