<?xml version="1.0" encoding="utf-8"?>
<!-- Generator: Adobe Illustrator 16.0.0, SVG Export Plug-In . SVG Version: 6.00 Build 0)  -->
<!DOCTYPE svg PUBLIC "-//W3C//DTD SVG 1.1//EN" "http://www.w3.org/Graphics/SVG/1.1/DTD/svg11.dtd">
<svg version="1.1" id="Layer_1" xmlns="http://www.w3.org/2000/svg"  x="0px" y="0px"
	 width="120px" height="120px" viewBox="0 0 120 120" enable-background="new 0 0 120 120" xml:space="preserve">
<g id="shopping-bag">
	<g>
		<path d="M105.369,104.939c-0.264-1.072-0.646-2.02-0.857-3.143c-0.375-0.953-0.35-2.312-0.854-3.139
			c-0.162-0.5,0.346-1.676-0.284-1.71c-0.165-0.503,0.344-1.679-0.285-1.714c-0.165-0.502,0.347-1.676-0.284-1.711
			c-0.164-0.504,0.344-1.678-0.283-1.713c-0.144-2.521-1.006-4.321-1.431-6.561c-0.206-1.127-0.354-2.311-0.854-3.141
			c-0.104-1.325-0.367-2.484-0.858-3.424c-1.382-9.361-3.317-18.172-5.136-27.104c-2.026-2.82-2.275-7.422-4.848-9.7
			c-1.871-0.535-3.959-0.66-6.278-0.57c-2.138,0.082-4.4,0.745-6.275,0c0.271-2.486,0.847-4.671,1.142-7.132v-5.992
			c-0.526-2.896-0.881-5.966-2.28-7.988c-0.31-1.405-1.263-2.162-1.999-3.139c-0.559-1.245-2.088-1.525-2.852-2.567h-3.996
			c-2.121,0.539-3.275,2.045-5.135,2.852c-1.128-1.06-4.028-0.346-5.707-0.854c-1.991,0.956-3.528,2.369-5.134,3.709
			c-1.899,2.95-3.524,6.177-4.566,9.984c-0.434,3.75-1.104,7.266-1.138,11.413c-2.542,0.027-4.5,0.636-6.85,0.855
			c-2.26,0.254-3.889-0.633-5.705,0c-0.879,1.877-0.842,4.672-1.712,6.562c-0.451,2.305-0.813,4.703-1.428,6.848
			c-0.077,2.679-0.932,4.581-0.854,7.418c-0.63,0.035-0.122,1.209-0.284,1.711c0.005,0.672-0.493,0.841-0.288,1.713
			c0.208,0.87-0.292,1.04-0.283,1.71c-0.171,0.592,0.354,1.875-0.284,1.999c-0.933,10.1-2.872,19.191-3.423,29.67
			c-0.485,0.471-0.355,1.547-0.858,1.996c-0.355,0.691-0.707,1.388-0.857,2.281c-0.003,0.962,0.395,1.512,0.857,2
			c-0.439,0.904-0.102,1.256,0,2.281c0.798,0.969,1.961-0.004,2.854,0.569c0.854,1.427,2.057,2.507,3.422,3.425
			c2.298-0.107,4.265,0.11,5.994,0.569c4.476-0.563,9.921-0.158,14.549-0.569c15.056,0.424,30.869,0.623,43.935-1.713
			c4.13-0.056,8.621,0.249,11.697-0.855v-2.854C104.758,106.732,105.973,105.219,105.369,104.939z M67.139,18.778
			c0.168-0.041,0.413,0.068,0.572,0c0.268-0.114,0.473-0.556,0.854-0.57c1.136-0.045,1.975,1.091,3.143,1.142
			c0.24,1.276,1.557,1.487,1.709,2.853c0.829,0.693,0.896,2.146,1.432,3.138c-0.158,5.171,0.512,11.167-0.857,15.121
			c-0.651,0.489-1.442,0.841-1.997,1.427c-0.968-0.08-1.64-0.453-2.856-0.285c0.342-3.927-0.9-7.233-0.283-10.557
			c-0.65-4.102-0.729-8.778-3.422-10.841C65.669,19.771,66.498,18.938,67.139,18.778z M63.432,21.916
			c0.459-0.079,0.491,0.271,0.854,0.286c1.116,2.688,1.641,5.968,1.996,9.414c0.175,3.041,1.293,7.273,0,9.986h-6.846
			c0.05-4.517-0.176-9.307,0.283-13.409C60.975,26.12,61.891,23.706,63.432,21.916z M57.724,19.634h2.567
			c-1.973,2.783-3.602,5.91-4.563,9.7v12.269h-5.991C50.914,32.794,53.045,24.94,57.724,19.634z M34.327,102.656
			c-1.171,1.109-2.48,2.082-2.566,4.279c-1.704-0.617,0.222-1.832,0.284-3.14c0.86-0.854,1.474-1.954,1.999-3.14
			C34.682,100.781,34.16,102.064,34.327,102.656z M34.899,97.52c-1.63-0.299-1.671,0.994-2.854,1.143
			c-0.296,1.037-1.264,1.396-1.71,2.281c-0.682,0.746-1.053,1.803-1.995,2.283c0.05,1.256-1.125,0.08,0,0
			c1.399-3.164,3.617-5.509,4.565-9.129c-0.82-0.677-1.985,0.129-2.282,0.854c-0.413,0.159-0.699,0.444-0.859,0.856
			c-0.416-0.007-0.903,1.201-0.854,0c0.604-0.729,0.479-2.187,0.854-3.141c1.337-1.611,2.314-3.583,3.426-5.421
			c0.68-0.843,1.033-2.011,1.71-2.854c0.602-0.66,1.282-2.355,0.573-3.424c-2.567-0.095-3.277,1.67-4.28,3.141
			c-0.673-0.24,0.017-1.473,0.285-1.713c0.074-0.877,0.619-1.281,0.854-1.998c0.423-1.479,1.074-2.729,1.712-3.992
			c0.376-1.434,1.178-2.438,1.712-3.709c0.486-1.074,1.829-2.896,0.57-3.994c-1.911,0.086-2.737,1.255-3.421,2.566
			c-0.864-0.432,0.234-1.252,0-1.996c-0.226-1.176,0.435-1.467,0.284-2.566c0.062-1.842,0.509-3.295,0.57-5.137
			c0.642-3.068,0.881-6.535,1.713-9.416c-0.125-2.117,0.462-3.529,0.567-5.42c0.542-0.107,3.086-0.146,3.998,0.286v7.132
			C37.604,67.893,36.27,82.723,34.899,97.52z M101.089,106.08h-4.278c-0.963-0.107-1.218,0.494-1.713,0.855
			c-0.82,0.031-1.865-0.158-2.281,0.285c-5.635-0.039-9.842,0.135-15.121,0c-10.006,0.452-20.316,0.604-30.812,0.568
			c-1.355,0.166-2.632,0.412-4.279,0.285c-0.935,0.324-3.068,0.57-3.71,0.283c-0.826-5.084,0.959-9.827,1.145-14.834
			c0.626-4.889,1.285-9.743,1.71-14.836c0.661-10.367,2.125-19.938,1.996-31.099c0.076-1.633,2.889-0.535,4.278-0.855v4.851
			c0.134,1.58,1.184,2.241,1.714,3.425c-0.577,2.94-0.597,6.438-1.429,9.129c0.687,3.213,2.556,5.243,3.711,7.987
			c1.317,2.485,3.254,4.354,4.28,7.132c1.959-0.437,1.35,1.69,2.853,1.713c1.601-0.015,2.644-0.589,3.708-1.142
			c0.742-0.115,0.861-0.853,1.709-0.854c0.097-0.668,1.246-0.277,1.43-0.856c1.55-0.066,1.846-1.388,3.425-1.427
			c0.927-0.688,2.209-1.022,3.138-1.711c-0.492-3.312-2.338-5.271-3.996-7.42c-1.83-1.875-3.062-4.351-5.131-5.988
			c-0.447-0.937-0.427-1.258-0.572-1.998c-0.178-0.772-1.193-0.71-1.143-1.712c-2.986-0.817-6.351-1.254-8.274-3.138
			c-1.187,0.14-0.447-1.644-1.426-1.711c-0.136-0.914-1.087-1.005-1.142-1.997c0.124-1.302-0.287-3.141,0.283-3.993
			c0.574-0.293,2.342,0.187,3.71,0c9.495,0.197,18.544-0.411,27.104,0.284c1.946-0.331,4.285-0.277,6.272-0.57
			c1.597,9.248,3.491,18.193,4.853,27.675c2.012,8.732,4.131,17.361,5.989,26.246c0.446,0.939,0.776,1.75,1.146,2.566
			c0.168,0.383,0.726,0.543,0.854,1.142C101.216,104.969,100.999,105.26,101.089,106.08z M51.449,64.711
			c0.592-1.973,0.887-4.244,1.14-6.562c2.63,0.413,4.071,2.014,7.13,1.996c0.733,2.785,2.583,4.457,3.996,6.563
			c1.367,2.058,3.358,3.489,4.282,5.99c-3.153,1.317-6.177,2.766-8.562,4.851c-1.104-0.703-1.501-2.113-2-3.425
			c-1.041-0.663-1.23-2.187-2.28-2.853C54.276,68.729,52.865,66.715,51.449,64.711z M55.728,64.141
			c0.976-0.451,1.688-1.16,1.425-2.853c-1.075-1.385-4.431-1.118-3.709,1.712C54.165,63.422,54.37,64.357,55.728,64.141z"/>
	</g>
</g>
</svg>
