<?xml version="1.0" encoding="utf-8"?>
<!-- Generator: Adobe Illustrator 16.0.0, SVG Export Plug-In . SVG Version: 6.00 Build 0)  -->
<!DOCTYPE svg PUBLIC "-//W3C//DTD SVG 1.1//EN" "http://www.w3.org/Graphics/SVG/1.1/DTD/svg11.dtd">
<svg version="1.1" id="Layer_1" xmlns="http://www.w3.org/2000/svg"  x="0px" y="0px"
	 width="120px" height="120px" viewBox="4 4 120 120" style="enable-background:new 4 4 120 120;" xml:space="preserve">
<g id="shuffle">
	<g>
		<path d="M71.245,61.174c2.413-1.77,3.81-4.555,5.991-6.56c2.359-1.823,3.979-4.388,6.561-5.991c1.07-1.021,2.672-1.514,3.71-2.567
			c0.835-0.211,1.399-0.69,1.995-1.142c0.539,0.064,0.631-0.32,1.141-0.285c0.033-0.227,0.945-0.865,0.856-0.286
			c0.134,2.175-0.233,5.022-0.284,7.703c-0.051,2.704-0.451,5.598,2.281,5.993c2.779-0.075,3.279-2.427,4.852-3.711
			c1.689-1.258,2.873-3.02,4.564-4.277c1.111-1.744,2.531-3.172,3.992-4.566c1.26-1.689,3.021-2.875,4.281-4.564
			c1.041-0.289,2.09-0.572,2.281-1.711c0.602-0.729,1.866-0.797,1.996-1.998c-0.587-0.935-1.22-1.824-2.281-2.283
			c-0.369-1.246-1.439-1.793-2.281-2.566c-1.42-1.721-3.717-2.56-5.137-4.279c-1.093-0.43-1.859-1.183-2.568-1.998
			c-0.891-0.721-1.74-1.492-2.565-2.281c-1.028-0.59-1.54-1.693-2.567-2.283c-1.16-0.814-1.355-2.385-3.139-1.998
			c-0.412,0.162-0.695,0.445-0.857,0.857c-0.863,2.461-0.893,5.764-1.426,8.559c-2.613-0.139-4.438,0.508-7.131,0.285
			c-7.607,1.902-13.178,5.844-18.83,9.7c-4.258,5.062-9.146,9.493-13.979,13.979c-2.375,3.328-5.124,6.287-7.988,9.131
			c-2.896,2.807-5.129,6.283-8.273,8.844c-3.834,2.254-7.502,4.669-11.699,6.561c-1.021,0.025-1.646,0.443-2.567,0.57h-3.707
			c-1.762,0.334-2.042-0.812-3.709-0.57c-0.775,0.425-1.158,1.115-1.425,1.711c-0.159,0.351-0.534,0.205-0.574,0.857
			c-0.084,1.521-0.681,3.668-0.853,5.422c-0.056,3.371-0.87,7.492,0.569,9.982c2.911,2.41,8.417,0.406,11.98,0
			c3.9-0.855,7.367-2.143,11.697-2.564c0.804-0.529,1.78-0.885,2.854-1.143c5.032-3.336,9.044-7.695,14.265-10.842
			c2.129-2.057,4.766-3.603,6.562-5.99c2.162-2.023,4.08-4.289,5.99-6.562C67.863,66.165,69.495,63.613,71.245,61.174z
			 M55.836,71.445c-0.661-0.191-0.213-1.496-1.425-1.141c-2.272,0.2-1.091,3.854-2.568,4.851c-0.796,0.128,0.224-1.556-0.567-1.427
			c-0.082-0.586-0.766-0.568-1.145-0.856c-1.893,0.771-2.363,2.96-2.854,5.136c-0.662,0.096-1.227,0.293-1.424,0.857
			c-0.808,0.045-0.665-0.857-1.427-0.857c-1.177,0.156-1.724,0.939-2.282,1.713c-0.658,0.578-1.451,1.023-1.998,1.711
			c-1.012,0.062-0.564-1.337-1.713-1.141c-1.523,0.76-2.598,1.967-3.136,3.709c-0.943-0.663-1.708,0.822-2.855,0.855
			c0.16-1.041,0.692-1.705,0.288-2.566c-1.549-0.312-1.794,0.678-2.855,0.855c-0.006,1.229-1.42,1.051-1.426,2.281
			c-0.672,0.006-0.84-0.49-1.712-0.285c-2.135,0.907-1.955,4.131-4.851,4.279c-0.024-1.271,0.893-1.77,0.284-2.854
			c-3.429-0.575-2.382,3.322-4.278,4.278c-0.658-0.86-0.098-2.94-0.285-4.278c-0.205-1.631,0.307-2.549,0.285-3.994h5.135
			c3.731-0.738,6.816-2.123,9.415-3.994c1.527-0.66,2.754-1.621,4.279-2.281c0.539-0.604,1.643-0.641,1.999-1.426
			c1.124,0.077,0.87-1.221,1.995-1.143c3.236-4.184,6.944-7.892,10.56-11.695c3.518-3.805,6.393-8.252,10.84-11.129
			c0.568-0.854,1.07-1.779,1.994-2.281c0.409-1.02,1.667-1.19,1.999-2.281c1.594-1.262,2.892-2.814,4.279-4.281
			c2.254-1.359,4.43-2.799,6.563-4.279c1.271-0.533,2.274-1.336,3.707-1.711c0.967-0.84,2.791-0.822,3.709-1.711
			c2.646-0.305,5.005-0.891,7.989-0.857c1.021,0.024,1.646,0.445,2.566,0.57c1.119-0.213,1.549-1.111,2.566-1.426
			c-0.187-1.433,0.373-3.605-0.285-4.564c0.461-0.893,0.904,0.586,1.426,0.57c0.195,0.662,0.949,0.764,1.141,1.426
			c0.976,0.738,1.879,1.545,2.854,2.283c1.751,1.578,3.954,2.701,5.42,4.564c-0.554,1.441-1.823,2.17-2.853,3.139
			c-0.94,1.057-1.625,2.371-2.853,3.139c-0.502,1.496-2.067,1.926-2.569,3.422c-0.599,0.355-1.07,0.831-1.424,1.428
			c-0.377,0.1-0.449,0.502-0.857,0.57c-0.102,0.326-0.502,0.723-0.57,0.285c0.021-3.051,0.634-5.946,0.285-8.561
			c-0.338-0.609-1.235-0.664-1.71-1.139c-0.989,0.438-2.603,0.252-3.996,0.285c-2.246,0.225-3.687,1.258-5.989,1.426
			c-0.986,0.727-2.113,1.311-3.141,1.997c-1.133,0.576-1.879,1.546-3.135,1.997c-1.025,1.451-2.596,2.353-3.43,3.994
			c-2.261,1.351-3.794,3.432-5.418,5.42c-1.585,1.938-3.544,3.494-4.851,5.706C62.634,64.168,59.157,67.729,55.836,71.445z
			 M13.33,48.338c0.32,0.58,1.003,0.396,1.139,1.141c4.254-0.273,9.882-0.184,13.98,0.572c2.129,1.102,4.209,2.258,6.275,3.422
			c1.226,0.393,1.88,1.355,3.14,1.713c0.29,0.193,0.491,0.134,0.856,0.283c0.447,0.188,0.65,0.182,0.854,0.57
			c0.26,0.598,0.843,0.873,1.712,0.857c1.901-0.191,1.987-2.197,3.424-2.852c0.817-1.275,1.898-2.287,2.853-3.426
			c1.665-2.519,3.679-4.686,4.279-8.271c-0.567-0.288-0.452-1.262-1.425-1.143c-0.002-0.375-0.501-0.26-0.572-0.57
			c0.017-0.49-0.218-0.73-0.569-0.855c-0.694-1.02-1.65-1.771-2.567-2.568c-2.043-1.479-3.885-3.154-6.562-3.994
			c-2.24-1.185-5.216-1.633-8.272-1.996c-2.955-0.564-5.986-1.053-9.131-1.428h-6.847c-0.366,0.018-0.396,0.365-0.857,0.285h-0.852
			c-0.261,0.502-0.642,0.885-1.146,1.143c-0.741,3.344,0.177,8.352-0.568,11.696C12.96,44.662,12.656,47.124,13.33,48.338z
			 M17.607,34.643c2.306,0.264,4.775,0.359,7.419,0.285c2.724,0.605,5.387,1.271,8.558,1.428c0.338,0.518,1.488,0.225,1.998,0.57
			c0.666,0.094,1.177,0.342,1.709,0.572c1.377,0.242,2.053,1.182,3.425,1.425c1.915,1.608,3.58,3.458,5.706,4.85
			c-0.74,1.353-1.373,2.81-2.568,3.71c0.08,1.125-1.218,0.871-1.139,1.996c-0.773,0.178-0.71,1.191-1.711,1.141
			c0.174-1.629,1.283-2.33,1.426-3.994c-0.21-0.835-0.867-1.225-1.426-1.711c-1.449,0.073-1.984,1.061-3.14,1.428
			c-0.33-0.717-1.139-0.957-1.143-1.999c-0.295-0.751-1.129-0.962-1.424-1.712c-0.464,0.295-1.075-0.281-1.143-0.283
			c-0.511-0.019-0.605,0.346-1.142,0.283c-1.387-0.155-2.979-0.92-5.421-0.57c-1.122-0.113-1.22-1.254-2.282-1.426h-3.14
			c0.736-1.516-0.077-3.129-1.427-3.424c-1.609-0.188-1.57,1.283-2.852,1.426C17.453,37.65,17.641,36.037,17.607,34.643z
			 M102.342,41.49h-0.57v0.57h0.57V41.49z M116.322,86.566c-0.279-0.957-1.053-1.422-1.715-1.998
			c-1.02-0.312-1.449-1.211-2.566-1.424c-1.354-1.785-3.211-3.066-4.564-4.853c-1.897-1.146-3.525-2.56-5.422-3.709
			c-2.123-1.015-3.806-2.469-6.56-2.854c-1.106,0.549-1.164,1.351-1.429,2.569c-0.256,1.188,0.094,2.688-0.285,3.708V82
			c-7.049-1.414-14.465-2.463-18.828-6.561c0.521-0.84,0.805-2.355,0.283-3.424c-0.506-0.258-0.83-0.689-1.424-0.855
			c-0.386,0.09-0.545,0.404-1.144,0.283c-1.752,1.199-2.465,3.436-3.994,4.852c-0.679,0.746-1.053,1.799-1.995,2.281
			c-0.261,0.504-0.64,0.885-1.144,1.143c-0.423,0.338-0.44,1.078-0.854,1.426c0.461,2.006,0.49,3.189,0.571,5.138
			c3.119,3.44,7.132,5.989,11.697,7.985c2.563,0.668,5.251,1.217,7.985,1.713c1.271,0.347,2.724,0.511,3.994,0.855
			c1.059-0.201,1.228,0.488,2.283,0.285c0.682,0.174,2.07-0.357,2.281,0.287c0.318,4.148-1.076,10.013,2.566,10.84
			c2.334-0.617,3.389-2.51,4.852-3.995c1.689-1.259,2.873-3.021,4.564-4.278c0.875-2.074,3.227-2.672,4.279-4.565
			c1.967-1.074,3.09-2.996,4.85-4.277C114.764,89.193,116.723,89.062,116.322,86.566z M98.631,100.262
			c-0.861-0.975,0.204-2.445,0-3.709c0.453-0.705,0.197,1.682,0.572,1.997c1.343-0.257,1.729-2.728,1.427-3.71
			c-0.688-1.096-1.519,0.807-1.999,0c-0.047-0.807-0.521-1.188-0.568-1.995c-2.326,0.282-4.846,0.425-7.133,0
			c-1.129-1.155-2.68-1.886-3.423-3.424c-0.597,0.12-0.756-0.196-1.142-0.286c-0.883,0.072-1.614,0.289-2.283,0.57
			c-0.812,0.049-0.703-1.266-1.428-1.712c-1.541,0.401-1.512-0.771-2.568-0.854c-1.76-0.049-1.598,1.822-3.135,1.996
			c-0.076-0.834,0.645-0.877,0.566-1.711c-0.186-0.385-0.606-0.533-1.139-0.572c-0.13-1.487-0.704-2.528-0.857-3.992
			c-1.39-0.153-1.334,1.138-2.283,1.427c-0.539,0.69-0.602,1.871-1.709,1.998c-0.036-0.513,0.348-0.604,0.283-1.144
			c0.41-0.063,0.101-0.852,0.572-0.854c-0.562-1.414-0.482-4.41,0.569-5.138c1.114,0.789,2.29,1.517,3.138,2.568
			c4.271,2.1,9.485,3.258,14.266,4.85c2.246-0.916,5.883-0.559,8.559-0.282c0.777-0.265-0.396-0.894,0-1.716
			c0.156-0.412-0.332-1.473,0.287-1.424c0.133-0.896-0.768-0.754-0.855-1.428v-2.852c1.221,1.061,2.465,2.098,3.707,3.137
			c1.543,0.645,2.322,2.055,3.996,2.566c1.168,1.494,2.547,2.779,4.277,3.711C106.598,92.441,102.164,95.898,98.631,100.262z"/>
	</g>
</g>
</svg>
