<?xml version="1.0" encoding="utf-8"?>
<!-- Generator: Adobe Illustrator 16.0.0, SVG Export Plug-In . SVG Version: 6.00 Build 0)  -->
<!DOCTYPE svg PUBLIC "-//W3C//DTD SVG 1.1//EN" "http://www.w3.org/Graphics/SVG/1.1/DTD/svg11.dtd">
<svg version="1.1" id="Layer_1" xmlns="http://www.w3.org/2000/svg"  x="0px" y="0px"
	 width="120px" height="120px" viewBox="4 4 120 120" style="enable-background:new 4 4 120 120;" xml:space="preserve">
<g id="signal">
	<g>
		<path d="M108.598,43.675c-0.91-1.597-1.242-3.779-2.295-5.243c-0.646-1.86-1.455-3.567-2.621-4.914
			c-0.775-1.741-2.039-2.986-2.949-4.591c-1.687-1.047-2.282-3.179-5.244-2.952c-0.484,0.175-0.823,0.486-1.309,0.659
			c-1.385,3.936,2.006,5.826,2.621,8.847c1.586,2.567,2.98,5.319,3.932,8.525c2.418,5.699,3.134,13.601,3.279,20.646
			c-0.216,6.996-1.959,12.461-3.935,17.701c-1.278,2.321-1.815,5.391-3.606,7.207c-0.912,2.116-3.172,5.366-1.309,8.194
			c2.818,1.545,6.068-0.487,7.21-2.622c1.164-2.553,2.624-4.807,3.603-7.535c2.463-4.974,3.963-10.897,5.244-17.046
			C112.061,60.821,110.967,51.184,108.598,43.675z M30.268,37.125c0.379-1.915,1.782-2.81,2.291-4.591
			c0.763-0.583,1.578-1.885,1.969-2.295c0.475-0.494,0.575-0.65,0.654-1.312c0.042-0.322-0.029-0.66,0-0.982
			c-0.509-0.474-1.275-0.689-1.965-0.986c-0.441,0.105-0.628,0.468-1.311,0.33C23.527,35.409,18.145,46.522,16.5,61.377v13.764
			c0.599,3.332,1.133,6.732,1.968,9.832c0.824,3.109,1.507,6.358,2.951,8.851c0.422,1.542,1.194,2.735,1.963,3.933
			c0.774,1.195,1.995,1.942,2.948,2.947c1.515,0.458,2.661,1.281,4.919,0.984c0.722-0.401,1.388-0.494,1.967-0.984
			c0.552-0.464,1.079-0.817,0.981-1.964c-0.109-3.384-4.207-2.782-5.244-5.245c-6.387-10.646-8.059-33.362-2.949-46.868
			C27.178,43.209,28.427,39.872,30.268,37.125z M94.507,65.963v-6.881c-0.741-3.958-1.276-8.119-3.28-10.819
			c-0.465-1.829-1.524-3.062-2.291-4.588c-1.375-1.137-1.574-3.45-4.264-3.277c-0.484,0.17-0.828,0.486-1.309,0.655
			c-0.799,1.297-0.209,3.587,0.654,4.262c0.424,1.547,0.873,3.062,1.64,4.262c0.933,3,1.87,5.996,2.294,9.505v5.57
			c-0.453,0.424-0.324,1.424-0.331,2.296c-0.896,2.706-1.765,5.44-2.622,8.192c-0.705,1.149-1.167,2.545-1.635,3.935
			c-0.725,1.134-1.625,2.092-1.643,3.932c0.768,1.421,1.547,2.825,3.937,2.623c1.851-0.335,2.836-1.536,3.276-3.276
			c0.938-1.248,1.608-2.761,1.967-4.592c1.565-2.803,2.305-6.436,3.279-9.828C93.943,66.928,94.514,66.736,94.507,65.963z
			 M45.671,81.037c-1.337-1.077-2.453-2.107-3.28-3.602c-1.1-2.394-1.52-5.472-1.965-8.521v-9.833
			c0.392-3.323,1.198-6.231,2.295-8.849c0.696-1.159,1.088-2.632,1.964-3.607c0.234-1.311,2.484-1.938,1.315-3.603
			c-0.347-0.857-1.335-1.073-2.622-0.986c-0.391,0.16-0.744,0.351-0.988,0.657c-0.497,0.441-1.228,0.812-1.634,1.312
			c-0.354,0.426-0.489,1.132-0.657,1.309c-0.476,0.494-0.704,0.877-0.985,1.311c-2.189,3.38-3.851,7.519-4.259,12.126v12.454
			c0.482,3.341,1.276,6.37,2.293,9.178c0.253,0.074,0.384,0.276,0.328,0.652c1.551,1.4,2.522,3.381,4.586,4.267
			c1.097,1.39,4.232,2.82,6.229,1.31c-0.085-0.963,0.741-1.01,0.658-1.967C48.821,82.527,46.865,82.012,45.671,81.037z
			 M78.445,57.77c-0.088-0.188-0.584-0.412-0.326-0.984c-2.688-4.525-7.398-7.023-15.404-6.225c-0.2,0.019-0.391,0.049-0.328,0.328
			H61.73c-3.869,1.375-6.334,4.154-8.193,7.541c-0.609,2.116-0.787,4.672-0.656,7.534c0.552,0.765,0.857,1.767,0.982,2.952
			c1.901,3.126,4.513,5.539,7.867,7.209c2.21,0.521,4.645,0.818,7.54,0.657c0.279-0.49,1.056-0.478,1.639-0.657
			c1.809-0.6,3.938-2.859,5.242-3.936c0.106-0.084-0.082-0.532,0-0.655c0.283-0.414,0.752-0.554,0.986-0.979
			c0.381-0.697,0.799-1.886,0.982-2.621c0.053-0.209,0.316-0.301,0.326-0.33c0.576-2.062,0.475-5.862,0.328-7.539
			C78.664,58.859,78.723,58.375,78.445,57.77z M72.875,65.635c-0.577,0.738-0.783,1.846-1.312,2.625
			c-0.43,0.881-1.442,1.174-1.967,1.967c-0.617-0.586-0.238-2.164-1.637-1.967c-1.45,0.084-1.713,1.348-2.296,2.293
			c-0.832-0.035-0.776-1.221-0.326-1.638c0.181-0.586,0.166-1.364,0.651-1.642c0.008-1.635,1.176-2.103,0.984-3.934
			c-0.287-1.042-1.316-1.109-2.291-0.655c-0.218-1.197,0.703-1.257,0.654-2.293c-0.314-1.216,0.048-3.107-0.984-3.607
			c0.562-0.75,2.503-0.119,3.606-0.326c1.801,0.272,2.881,1.27,4.258,1.97c0.531,0.997,0.572,2.485,0.985,3.601
			C72.812,62.949,72.844,64.292,72.875,65.635z"/>
	</g>
</g>
</svg>
