<?xml version="1.0" encoding="utf-8"?>
<!-- Generator: Adobe Illustrator 16.0.0, SVG Export Plug-In . SVG Version: 6.00 Build 0)  -->
<!DOCTYPE svg PUBLIC "-//W3C//DTD SVG 1.1//EN" "http://www.w3.org/Graphics/SVG/1.1/DTD/svg11.dtd">
<svg version="1.1" id="Layer_1" xmlns="http://www.w3.org/2000/svg"  x="0px" y="0px"
	 width="120px" height="120px" viewBox="4 4 120 120" style="enable-background:new 4 4 120 120;" xml:space="preserve">
<g id="water">
	<g>
		<path d="M93.7,77.7c-0.4-0.8-0.601-1.8-0.8-2.8C92.6,73.9,91.8,73.4,91.8,72.1c-0.8-0.6-1.1-1.699-1.7-2.5
			C89.4,68.8,88.8,67.9,88.2,67.1c-0.7-0.699-1.101-1.8-1.7-2.8c-0.1-1.3-1.2-1.7-1.4-3c-2.8-3.3-5.3-7-8-10.5
			c-2.6-3.7-5-7.5-6.899-11.6c-1-3.5-1.9-7.1-2.5-11c-0.5-0.6-0.601-1.6-0.601-2.8c0-1.2-0.5-1.9-0.3-3.3c-0.6-0.5,0-2.2-0.6-2.8
			c0-1.2-0.4-2-0.601-3c-1.6-0.9-2.1-3-5.2-2.5c-0.5,0-0.4,0.8-1.1,0.6c-0.7,1.4,0.3,2.8-0.3,4.1c-1.1,2.1-1.5,5-2.5,7.2
			c-0.3,1.3-0.7,2.4-1.1,3.6c-0.5,1.2-0.7,2.6-1.4,3.6c-1,3.8-2.9,6.7-4.4,9.9c-0.8,0.8-0.9,2.4-1.9,3c-1.7,4.6-4.5,8.4-6.6,12.7
			c-1.1,2.1-2,4.5-3,6.6C37,67.4,35.6,69.4,35.1,72c-1.4,5-1.5,13.2-0.6,18.8c3.1,10,10.2,15.9,18.2,21c2.9,1.101,6.1,2,10.2,1.9
			c0.9,0,1.4-0.5,2.5-0.3c2-0.601,3.899-1.2,6.1-1.7c1.7-0.9,3.6-1.5,5.8-1.9c0.5-0.5,1.3-0.5,1.7-1.1c0.9,0,0.9-0.9,1.9-0.8
			c1.3-0.601,2.5-1.4,3.899-1.9c3.9-3.8,7.3-8.1,8.8-14.4c0-0.3,0-0.8,0.301-0.8V79.1C93.4,79.1,93.9,78.1,93.7,77.7z M40.7,86.8
			c0.1-0.399,0.3,0,0.3,0.3C40.8,87.5,40.7,87.1,40.7,86.8z M61.1,28.3c0.9,0.2,0.4,1.8,1.7,1.7c-0.3,0.9-1.7,0.7-1.9,1.7
			C60.1,30.8,61.2,29.4,61.1,28.3z M51.2,103.4C52.2,104.2,50.4,104.3,51.2,103.4L51.2,103.4z M52.9,87.9c-0.4,0-1.1-0.101-1.1,0.3
			c-0.7-0.5,0.3-1.7,0.3-2.5c0.4-0.601,0.5-1.601,0.8-2.2C53.7,84.6,53.4,86.7,52.9,87.9z M54.2,58.9c-0.1,0.2,0,0.5-0.3,0.5
			c0.1,0.6-0.1,1-0.5,1.1c0,0.3-0.4,0.2,0,0c-0.1-0.5,0.3-0.6,0.3-1.1H54C54,59.3,54,58.9,54.2,58.9C54,57.8,55.1,58.9,54.2,58.9z
			 M54.5,58.1c-0.1-0.1,0.2-0.4,0.3-0.3C54.9,58,54.6,58.2,54.5,58.1z M54.8,57.6c-0.1-0.1,0.2-0.4,0.3-0.3
			C55.2,57.4,54.9,57.6,54.8,57.6z M55.3,56.7C55.3,56.4,55.7,56.6,55.3,56.7C55.4,57.1,54.9,56.9,55.3,56.7z M55.3,105.6
			c0.3-0.6,0.9-0.899,1.1-1.699c0.5,0.5,0.1,1.899,1.1,1.899C57.1,106.5,55.9,105.7,55.3,105.6z M56.2,94c0.1-0.3,0.3-0.2,0.3,0
			C56.4,94.3,56.2,94.1,56.2,94z M57.5,74.1c0.1-1.1,1-1.6,1.1-2.8c0.9,0.3,0.6,1.8,1.4,2.2c-0.6,0.8-0.8,1.9-1.9,2.2
			C58.2,75,57.5,74.9,57.5,74.1z M59.8,58.7c0.1,0.1-0.2,0.4-0.3,0.3C59.3,58.8,59.7,58.6,59.8,58.7z M60,90.1
			c-1-0.899-1.4-3-0.8-4.699c0.3,0,0.5,0.1,0.6,0.3c0.4,0.7,0.9,1.3,1.4,1.899C61,88.7,60.4,89.2,60,90.1z M63.9,96.7
			c-1.8-1.2,0.1-3.601,0.3-5.2c0.899,0.1,1.2,0.8,1.7,1.4C65.4,94.4,64.2,95.1,63.9,96.7z M65.6,82.9C64.4,82.8,64.2,83.7,63.7,84.3
			c-1-1-1.7-2.3-2.5-3.6C61.3,79.6,62,79.1,62,77.9c0.4-0.101,0.5,0.3,0.8,0.3c0.5,1.399,1.7,1.899,2.2,3.3c1,0.6,1.5,1.6,2.5,2.2
			c0.4,1,1.7,1.2,1.9,2.5c-0.601,1-0.7,2.5-1.101,3.6c-1-0.8-1.899-1.5-2.5-2.8C66.1,85.9,67.1,83.5,65.6,82.9z M68.3,107.2h-1.7
			c0-1.3,1.2-1.4,1.7-2.2C69.6,105.2,68.2,106.5,68.3,107.2z M71.6,99.8v1.9c-1.199,0.2-1.399,1.5-2.8,1.7
			C69,101.4,70.5,100.8,71.6,99.8C71.6,99.4,72,99.6,71.6,99.8z M73,90.4c-0.4-1-0.5-0.801-0.3-2.2c1.1-0.101,1.399,0.6,2.2,0.8
			c-0.5,1.9-1.601,3.2-2.5,4.7C71.7,92.7,72.8,91.3,73,90.4z M72.7,105.8c-0.8-0.5,0.6-1.2,1.1-1.399c0.601-0.5,1-1,1.9-1.101
			C75.1,104.5,73.7,105,72.7,105.8z M81,89.6C80,90.9,79.8,93,78.5,94c-0.4,1.8-1.8,2.6-2.5,4.1c-0.7-0.6,0.6-1.6,0.6-2.5
			c0.101-0.6,0-1.1-0.3-1.399C76,94.1,75.6,93.7,76,93.6c1.8-4.1,4-7.699,4.7-13c0.899,0.5,0.5,2.301,0.8,3.301
			C81.4,85.9,81.2,87.7,81,89.6z M84,90.4c0.1-0.301,0.3-0.2,0.3,0C84.3,90.7,84,90.5,84,90.4z M85.7,85.7
			c-0.2,1.5-0.9,2.6-1.101,4.1C83.9,88.9,85,87.4,84.6,85.9c-0.3-2.2-0.5-4.5-1.399-6.101C82.7,79,81.9,78.5,81,78
			c-3.5,1.1-3.1,6.1-5,8.8c-1.1-0.5-1.8-1.3-2.5-2.2c0.4-1.8,0.3-3.899,0.3-6.1c-0.399-0.6-1.2-0.8-1.899-1.1
			c-0.5-0.5-0.7-1.301-1.4-1.7c-0.1,2.1-0.4,3.899-0.6,5.8c-3.9-3.9-7.2-8.4-9.4-14.1c0.8-0.7,0.9-2.101,1.7-2.801
			C61.8,62.2,61.4,57.3,63,56c0.8-0.3,1.4-0.3,2.2,0c0.6-0.6,0.899-2.5,0-3c-1.7-0.2-1.7,1.5-3,1.7c0.8-1.4-0.7-2.5-1.9-2.8
			c-1.7,0.2-2,1.8-3.3,2.5c-0.2,0.4-0.4,0.7-0.8,0.8c0,0.3-0.4,0.2,0,0c1.5-3.4,3.5-6.2,5.2-9.4c0.3-1-0.9-0.5-1.1-1.1
			c0.5-2,2.4-2.8,2.2-5.5c-0.1-0.9-1.3-0.4-1.9-0.3c0.4-0.7,0.7-1.5,1.4-1.9c0.5-0.7,0.6-1.8,1.7-1.9c0.5,5.1,2.1,9.1,4.1,12.7
			c1.7,4,4.101,7.3,7.2,9.9c-0.8,1.3-1.6,2.6-2.5,3.9c0.6,1.4,2,2.1,2.2,3.9c0.8-1.5,1.6-3,2.2-4.7c1.1,0,0.899,1.3,1.699,1.7
			c0.101,1,0.9,1.3,1.101,2.2C79.1,66.1,78.3,67.4,77.5,68.6c-0.2,1.4-1.8,3.2-0.6,4.4c1.399-0.2,1.8-1.5,2.199-2.8
			c0.801-1,1.2-2.3,1.7-3.601c1.101,0.301,1.4,1.4,1.9,2.2c0.899,0.5,0.8,2,1.7,2.5c0.3,2.9,1.5,4.7,1.399,8
			C85.6,79.9,86,80,86,80.5C86.2,82.5,85.6,83.7,85.7,85.7z M82.9,75.5c0.3-1.5,0.8-2.7,0.8-4.4h-0.8C82.4,72.3,81,75,82.9,75.5z"/>
	</g>
</g>
</svg>
