<?xml version="1.0" encoding="utf-8"?>
<!-- Generator: Adobe Illustrator 16.0.0, SVG Export Plug-In . SVG Version: 6.00 Build 0)  -->
<!DOCTYPE svg PUBLIC "-//W3C//DTD SVG 1.1//EN" "http://www.w3.org/Graphics/SVG/1.1/DTD/svg11.dtd">
<svg version="1.1" id="Layer_1" xmlns="http://www.w3.org/2000/svg"  x="0px" y="0px"
	 width="120px" height="120px" viewBox="0 0 120 120" enable-background="new 0 0 120 120" xml:space="preserve">
<g id="syringe">
	<g>
		<path d="M112.29,28.891c-1.808-1.713-3.788-3.25-5.706-4.85c-1.475-2.902-3.951-4.799-5.707-7.418
			c-1.634,0.019-1.709-1.522-3.425-1.427c-1.079,0.535-1.242,1.987-1.142,3.709c0.592,1.784,2.135,2.618,2.568,4.562
			c-0.312,0.831-1.166,1.118-1.998,1.426c-0.115,2.546-2.122,3.204-3.139,4.851c-1.4,1.262-2.162,3.162-3.709,4.279
			c-2.87-2.835-6.021-5.395-8.562-8.56c-1.352-0.071-1.459-1.388-3.136-1.142c-1.657-0.037-1.767,1.468-3.14,1.713
			c-0.736,0.977-1.594,1.831-2.566,2.568c-1.635,1.787-3.666,3.181-5.42,4.85c-3.596,3.158-7.848,5.657-11.127,9.129
			c-2.117,1.212-3.328,3.331-5.421,4.566c-1.426,1.997-3.653,3.193-4.849,5.42c-2.031,1.3-3.559,3.1-5.139,4.849
			c-1.159,0.551-1.838,1.583-2.85,2.282c-0.551,1.162-1.969,1.457-2.283,2.854c-0.154,1.559-0.42,3.006-0.572,4.564
			c2.267,2.968,4.381,6.081,6.848,8.844c0.951,1.714,2.479,2.848,3.709,4.28c0.445,0.885,1.169,1.493,1.711,2.282
			c0.459,0.871,1.514,1.146,1.713,2.281c-1.807,1.33-3.085,3.189-4.562,4.851c-2.434-2.703-5.254-5.019-6.85-8.56
			c2.088-0.703,5.301-1.695,3.994-4.851c-3.055-1.115-4.584,1.662-6.849,2.282c0.074,1.021-0.855,1.046-0.852,1.996
			c0.059,3.937,2.747,5.237,3.993,7.987c-3.859,4.035-8.035,7.755-12.271,11.412c-2.125,1.869-4.204,3.781-6.273,5.705
			c-0.941,1.06-2.318,1.677-2.855,3.14c-1.537,0.394-2.172,2.127-1.711,3.709c2.169,0.267,2.886-0.92,3.993-1.713
			c1.022-0.884,2.259-1.543,3.14-2.565c1.003,0.051,0.94-0.964,1.715-1.144c0.125-0.822,1.227-0.676,1.425-1.427
			c1.243-0.754,1.995-1.998,3.423-2.567c1.753-2.146,4.048-3.75,5.99-5.705c2.162-1.736,3.957-3.842,6.275-5.42
			c1.124,0.97,1.16,3.026,3.141,3.138c2.664,0.098,3.197-1.938,4.564-3.138c0.812-0.521,1.04-1.623,1.998-1.998
			c0.967-0.36,1.08-1.582,2.281-1.711c1.027,0.588,1.541,1.692,2.566,2.282c0.507,1.11,2.115,1.118,2.283,2.566
			c1.698,0.014,1.875,1.549,3.425,1.712c0.694-0.445,1.771-0.514,2.282-1.143c0.035-1.201,1.104-1.367,1.142-2.567
			c2.756-1.142,3.99-3.808,6.848-4.851c4.273-4.761,9.51-8.562,13.695-13.408c1.096-0.424,1.942-1.1,2.564-1.995
			c1.153-0.369,1.723-1.321,2.566-1.998c2.551-2.109,4.977-4.345,7.133-6.849c1.066-0.457,1.271-1.774,2.566-1.998
			c1.149-1.99,3.326-2.951,3.709-5.705c-0.063-1.074-1.074-1.207-1.144-2.282c0.394-0.366,0.286-1.238,0.287-1.996
			c-1.403-1.448-2.298-3.409-3.708-4.851c-1.211-1.643-2.523-3.184-3.712-4.85c1.329,0.092,1.589-0.885,2.567-1.141
			c0.494-1.316,1.739-1.877,1.998-3.425c2.336-0.327,2.387-2.94,4.28-3.708c2.498,0.45,2.911,2.982,5.423,3.422
			c1.899-0.477,3.566-1.184,3.991-3.138C113.145,31.076,112.613,30.089,112.29,28.891z M38.967,65.123
			c0.07-0.359,0.568-0.288,0.57,0C39.412,65.538,39.289,65.094,38.967,65.123z M93.46,37.449c-0.069,0.358-0.565,0.287-0.569,0
			C93.016,37.035,93.141,37.479,93.46,37.449z M95.744,50.859c0.787,0.922,1.804,1.617,1.992,3.137
			c-2.443,2.785-5.663,4.795-7.985,7.703c-2.578,2.559-5.517,4.756-8.276,7.133c-0.914,0.251-0.39-0.939-1.136-0.855
			c-1.833,0.736-2.495,2.646-4.282,3.422c0.195,1.148-0.271,1.631-0.285,2.568c-1.039,0.197-1.316,1.156-2.563,1.141
			c-1.125,0.688-1.731,1.885-2.854,2.568c-0.207,0.873,0.49,0.84,0.285,1.711c-1.15,0.279-1.604,1.247-2.283,1.999
			c-0.33-0.048-0.24-0.521-0.283-0.856c-1.17,1.019-2.422,1.951-3.139,3.426c-1.776-0.064-2.485,0.938-4.565,0.568
			c-1.708-0.385-2.364-1.817-4.278-1.996c-0.912-1.465-1.967-2.787-2.855-4.279c-1.02-1.262-2.16-2.398-3.421-3.424
			c-0.216-1.307-1.141-1.9-1.712-2.854c-0.756-0.767-1.123-1.921-1.998-2.567c-1.066-1.979-3.008-3.078-3.709-5.42
			c0.18-1.059,0.803-1.67,1.143-2.566c2.383,1.706,4.498,3.68,6.562,5.706c1.14-0.097,1.582,0.509,2.852,0.286
			c0.748-0.303,1.273-0.822,1.426-1.713c-0.05-2.326-2.358-2.395-3.138-3.994c-1.782-0.594-2.47-2.287-4.278-2.852
			c0.242-0.996,1.032-1.44,1.996-1.713c0.246-0.42,0.428-0.904,1.143-0.856c0.394-0.175,0.043-1.099,0.569-1.142
			c1.407,0.307,1.712,1.711,2.565,2.568c0.671,1.044,1.539,1.889,2.285,2.854c0.595,1.116,1.524,1.899,2.281,2.853
			c1.074,0.638,1.501,1.921,3.139,1.997c1.277-0.243,2.043-1.002,2.283-2.282c-0.779-2.267-2.91-3.178-3.996-5.136
			c-0.759-0.762-1.506-1.535-1.994-2.567c-0.751-0.677-1.723-1.133-2-2.282c1.065-0.555,1.619-1.616,2.853-1.996
			c1.761,2.424,3.93,4.44,5.709,6.846c0.977,0.26,1.766,0.706,2.852,0.857c1.144-0.412,1.689-1.156,1.711-1.997
			c-0.135-2.222-1.967-3.286-3.139-4.565c-1.229-1.348-2.158-2.969-3.71-3.994c-0.012-0.966,0.665-1.238,1.144-1.712
			c0.822-0.035,0.496-1.217,1.428-1.142c1.322,1.146,2.611,2.332,3.709,3.708c1.23,0.006,1.053,1.422,2.283,1.428
			c0.326,0.91,1.674,0.797,2.283,1.426c0.599-0.255,1.266-0.444,1.709-0.854c0.34-2.91-1.896-3.242-3.138-4.565
			c-1.351-1.124-2.425-2.522-3.995-3.423c0.057-1.467,1.814-1.231,1.996-2.566c1.354-0.078,1.607-1.248,2.568-1.715
			c1.538,0.648,2.359,2.016,3.424,3.139c1.762,0.808,2.664,2.471,5.137,2.568c0.375-0.102,0.445-0.502,0.854-0.572
			c0.361-2.928-1.965-3.17-3.141-4.562c-1.123-1.351-2.998-1.947-3.709-3.71c-0.061-1.584,1.696-1.348,1.998-2.566
			c1.355-0.26,1.529-1.704,2.854-1.998c3.353,3.114,6.217,6.716,9.7,9.7c0.699,1.677,2.15,2.603,2.854,4.279
			c0.643,0.88,1.402,1.641,2.281,2.281C94.005,48.982,95.252,49.543,95.744,50.859z"/>
	</g>
</g>
</svg>
