<?xml version="1.0" encoding="utf-8"?>
<!-- Generator: Adobe Illustrator 17.0.0, SVG Export Plug-In . SVG Version: 6.00 Build 0)  -->
<!DOCTYPE svg PUBLIC "-//W3C//DTD SVG 1.1//EN" "http://www.w3.org/Graphics/SVG/1.1/DTD/svg11.dtd">
<svg version="1.1" id="Layer_1" xmlns="http://www.w3.org/2000/svg"  x="0px" y="0px"
	 width="120px" height="120px" viewBox="0 0 120 120" enable-background="new 0 0 120 120" xml:space="preserve">
<g id="scull">
	<g>
		<path d="M98.9,67.665c-0.904-2.239-2.521-3.771-3.244-6.192c-0.559-3.177-0.189-7.276-0.295-10.907
			c0.572-1.198,0.798-2.739,1.475-3.833c0.051-0.833,0.539-1.228,0.591-2.063c0.692-0.29,0.263-1.701,0.882-2.063
			c-0.36-3.273-0.738-6.533-1.176-9.729c-1.371-1.774-1.771-4.518-3.246-6.192c-0.869-0.765,0.516-1.95-0.293-2.653
			c-3.926-3.547-8.514-6.425-12.09-10.317c-1.146,0.066-1.525-0.633-2.359-0.884c-0.801,0.213-0.594-0.587-1.174-0.591
			c-0.188-0.409-1.136-0.043-1.185-0.589c-2.017,0.053-3.943,0.014-5.601-0.295c-4.082,0.834-9.375,0.451-13.27,1.475
			c-1.702,0.229-2.124-0.822-3.828-0.591c-2.412,0.832-4.978,1.51-7.962,1.769c-2.194,1.344-4.552,2.522-7.076,3.538
			c-1.353,1.597-2.826,3.071-4.423,4.422c-1.21,1.835-2.653,3.439-3.833,5.308c0.142,0.927-0.421,1.152-0.587,1.767
			c-0.272,0.519-0.104,1.474-0.591,1.772v10.906c1.253,5.821,3.435,10.718,3.536,17.689c-1.06,2.87-3.127,4.732-3.83,7.96
			c-0.613,1.769,0.262,3.345,0,5.603c0.59,0.487,0.221,1.938,1.177,2.063c0.209,0.872,0.082,2.081,0.883,2.358
			c0.636,1.53,1.682,2.644,2.656,3.834c1.924,0.137,3.826,0.3,5.603,0.588c0.22,2.436,0.827,4.478,1.177,6.781
			c0.03,4.295-0.147,8.797,0.295,12.678c0.744,1.225,1.638,2.296,2.951,2.947c0.237,1.825,1.822,2.301,2.355,3.834
			c2.064,2.065,4.145,4.108,6.191,6.189c1.516,0.057,2.08,1.066,3.541,1.178c1.376,0.297,2.607,0.731,4.422,0.594
			c0.125,0.657,1.451,0.117,2.061,0.293h7.375c1.832-0.916,3.54-1.959,5.601-2.651c2.015-1.919,4.507-3.354,6.486-5.308
			c1.967-1.967,4.114-3.75,5.602-6.192c1.466-6.065-0.322-13.647,0.588-20.047C92.797,78.27,98.025,75.146,98.9,67.665z
			 M87.991,78.869c-1.498,1.251-2.874,2.629-4.128,4.127c-0.283,5.416-0.414,10.986-0.588,16.512
			c0.004,0.943-0.969,1.238-1.479,1.77c-1.436,1.5-3.135,3.266-4.717,5.012c-2.278,2.042-4.784,3.863-7.37,5.602
			c-6.354,0.064-12.849,0.271-15.919-2.947c0.201-1.079,0.41-2.145,0.297-3.539c-1.818-0.535-1.154,1.404-2.359,1.474
			c-0.741-0.446-1.372-1.339-2.064-2.063c-0.659-0.684-1.018-2.111-1.179-3.242c0.049-0.639-1.047-0.133-1.476-0.293v-2.064
			c-0.224-0.859-0.698-1.463-1.181-2.064c-0.322-2.326-0.375-4.931-0.588-7.369c0.715-0.629,1.305,0.656,1.769,1.18
			c0.49,0.591,0.791,1.369,1.769,1.473c0.664,2.482,1.37,4.922,3.245,6.191c0.685-0.094,1.128,0.048,1.474,0.296
			c1.205-0.271,1.556-1.392,2.949-1.476c0.905,0.078,1.323,0.64,2.062,0.887v2.947c1.42,0.544,3.73,0.201,5.603,0.294
			c0.64,0.05,0.131-1.046,0.292-1.474c0.237-0.255,0.808-0.176,0.887-0.589c1.869-0.198,2.189,1.152,3.537,1.472
			c1.621,0.244,2.014-0.737,3.539-0.586c-0.586-1.629,0.234-2.927,1.474-3.539c1.83-0.357,1.538,1.412,2.945,1.475
			c1.028-0.545,1.667-1.482,2.358-2.359c0.148-1.523-0.832-1.918-0.588-3.539c0.637-0.246,1.006-0.762,2.064-0.589
			c0.202-3.627,1.822-5.841,2.357-9.14c-0.885-0.596-1.986,0.628-2.654,1.18c-1.135,0.344-1.162,1.783-2.651,1.77
			c-0.166,1.8-1.11,2.82-2.653,3.242c0.17,1.154-0.256,1.713-0.592,2.359c-1.633,0.725-5.041-0.326-5.895,1.178
			c-0.93,0.142-0.779-0.793-1.479-0.883c-1.041,0.137-1.033,1.322-2.356,1.178c-1.32,0.146-1.314-1.041-2.358-1.178
			c-2.035,0.223-2.434,2.086-5.011,1.77c-0.621-1.051-1.055-2.284-0.883-4.127c-2.433-0.369-2.107,2.021-4.423,1.769
			c-0.882-0.006-1.005-0.769-1.771-0.886v-2.653c-0.492-0.882-1.352-1.401-2.064-2.063c-0.73,0.043-1.432,0.056-1.474-0.588
			c-0.644-0.056-0.938,0.241-0.886,0.885c-0.68-0.303-0.608-1.356-0.588-2.359c-0.877-2.658-2.896-4.18-4.718-5.896h-2.358
			c-0.878-1.383-2.177-2.342-3.538-3.241c-0.548-1.91-0.707-4.207-0.589-6.782c1.491-2.343,2.933-4.73,4.719-6.78
			c-0.093-1.664,0.521-2.623,0.293-4.422c-0.196-0.789-0.123-1.842-0.592-2.359c0.639-1.33,1.668-2.264,1.772-4.127
			c-0.331-0.949-1.625-0.933-2.947-0.884c-0.111-1.268,0.987-1.94,1.474-2.654c0.194-0.291,0.069-0.644,0.293-0.884
			c0.282-0.305,1.023-0.622,1.181-1.475c0.797-1.854,2.393-2.912,3.24-4.718c-0.088-0.601-0.796-0.577-0.882-1.179
			c-3.412-0.365-2.765,3.331-5.306,3.832c0.444-1.717,1.54-2.781,2.357-4.127c0.454-1.707,2.097-2.228,1.769-4.717
			c-0.066-0.918-1.47-0.5-2.359-0.59c0.884-2.656,3.105-3.97,4.127-6.486c-2.204-1.05-3.045,1.614-4.42,2.358
			c-1.065-0.19-0.104-1.339,0.293-1.77c0.335-0.646,0.986-0.979,1.181-1.768c2.167-0.192,3.338-1.379,5.304-1.771
			c1.24-1.118,3.49-1.228,4.719-2.357c4.088-0.236,7.352-1.295,10.91-2.063h3.535c0.505,0.062,0.764-0.504,0.887,0
			c6-0.007,11.246,0.743,16.511,1.474c2.344,2.176,5.055,3.982,7.37,6.191c0.157,1.217,0.752,1.998,1.472,2.654
			c-0.172,1.844,0.758,2.587,0.889,4.127c0.025,0.757,1.15,0.421,1.177,1.179c-0.026,3.564,0.552,6.527,0.591,10.025
			c-0.688,2.456-1.464,4.825-2.062,7.368c-0.072,2.529,0.319,3.688,0,5.898c0.61,4.399,2.479,7.539,2.946,12.087
			C93.152,73.413,89.868,75.439,87.991,78.869z M52.316,92.43h0.888c0.084,0.478-0.282,0.51-0.297,0.887
			C52.545,93.186,52.302,92.938,52.316,92.43z M54.383,95.082c0.581,0.206,0.782,0.788,0.881,1.477
			C54.309,96.652,53.697,95.766,54.383,95.082z M60.574,99.508c-0.618-0.173-0.842-0.732-1.769-0.591
			C58.929,97.918,60.52,98.698,60.574,99.508z M60.275,93.905c0.012-0.286,0.364-0.229,0.59-0.296
			C60.858,93.896,60.508,93.839,60.275,93.905z M62.341,93.905c0.154,0.151-0.215,0.377-0.294,0.295
			C61.895,94.046,62.262,93.822,62.341,93.905z M64.112,98.033c0.004-0.287,0.359-0.229,0.587-0.297
			C64.693,98.025,64.339,97.967,64.112,98.033z M67.057,94.2c0.01-0.288,0.364-0.23,0.594-0.295
			C67.643,94.191,67.289,94.134,67.057,94.2z M68.828,95.674c0.082,0.77-0.109,1.268-0.885,1.18
			C67.859,96.082,68.049,95.585,68.828,95.674z M71.775,93.905c0.151,0.151-0.215,0.377-0.295,0.295
			C71.33,94.046,71.695,93.822,71.775,93.905z M72.07,96.559c-0.09-0.68,0.852-0.328,0.885-0.885
			c0.238,0.057,0.294,0.297,0.592,0.295v0.59C72.605,96.384,72.635,97.111,72.07,96.559z M73.841,96.262
			c0.007-0.283,0.36-0.227,0.587-0.293C74.422,96.255,74.068,96.198,73.841,96.262z M75.021,95.674
			c0.151,0.151-0.217,0.375-0.297,0.295C74.573,95.816,74.936,95.593,75.021,95.674z M61.46,32.287
			c1.199-0.372,2.007-1.137,2.944-1.77c1.229-0.346,2.263-0.887,2.36-2.358h-2.36c-1.232,0.929-2.466,1.855-4.129,2.358
			c-0.61,1.847-3.609,1.304-3.239,4.129C59.105,34.457,60.126,33.218,61.46,32.287z M62.932,33.171
			c-0.764,1.398-2.428,1.896-2.949,3.538c1.676-0.488,2.912-1.412,4.422-2.062c0.895-1.268,3.095-1.23,3.246-3.245h-2.063
			C64.738,32.027,64.12,32.885,62.932,33.171z M67.057,35.235c-1.897,2.128-4.932,3.123-5.893,6.191
			c2.411,0.251,2.553-1.771,4.422-2.065c0.76-1.501,3.145-1.375,3.242-3.535C68.305,35.562,68.08,35.002,67.057,35.235z
			 M88.285,55.872c-1.031-0.735-2.012-1.525-2.946-2.358c-3.801,0.034-7.825-0.158-11.204,0.295
			c-0.732,0.643-1.154,1.598-2.654,1.474c-0.434,2.021-1.166,3.748-0.883,6.487c0.342,1.033,1.16,1.59,1.178,2.949
			c1.521,0.838,2.593,2.125,4.131,2.946c1.705,0.651,3.507,1.211,5.599,1.474h3.538c1.655-0.899,2.505-2.604,3.833-3.83
			c-0.08-2.247,0.793-3.532,0.592-5.897C89.1,58.203,88.698,57.032,88.285,55.872z M74.428,57.053h1.184
			c-0.196,0.982-0.918,1.441-1.184,2.357C73.669,59.006,74.365,57.604,74.428,57.053z M75.021,62.948
			c0.531-0.8,1.777,0.163,2.355,0.296C76.762,64.721,75.904,62.974,75.021,62.948z M80.622,63.244
			c-0.153-0.152,0.212-0.379,0.294-0.296C81.068,63.102,80.703,63.326,80.622,63.244z M79.145,61.18
			c-0.805-0.926,0.646-2.097,0.885-2.948h1.183C80.561,59.252,79.657,60.018,79.145,61.18z M84.156,59.706
			c-0.09-1.168-1.02,0.329-0.881-0.886c-0.836,0.244-0.767-0.416-1.479-0.295c-0.033-0.528,0.364-0.622,0.299-1.178
			c-0.593,0.099-0.924-0.061-0.886-0.59c3.322-0.181,4.533,1.758,4.423,5.012C84.312,61.908,84.156,60.886,84.156,59.706z
			 M58.806,58.525c-1.491-2.146-3.823-3.449-6.489-4.422c-3.732,0.492-7.911,0.537-10.613,2.064
			c-1.392,2.537-2.317,5.543-2.652,9.14c0.955,2.289,2.896,3.592,4.718,5.012c1.846,0.219,3.725,0.399,5.896,0.295
			C54.758,68.632,59.209,66.006,58.806,58.525z M48.779,61.473c-0.152-0.151,0.215-0.374,0.295-0.293
			C49.227,61.334,48.859,61.556,48.779,61.473z M52.024,60.59c0.611-0.648-0.468-1.267-0.295-2.358
			c1.201,0.171,2.002,0.749,2.359,1.769C53.152,59.951,53.104,60.784,52.024,60.59z M53.792,63.832
			c-0.955-0.975,0.647-1.893,0.591-2.946C55.854,61.615,54.006,62.955,53.792,63.832z M70.303,76.805
			c-1.047-1.408-1.119-3.794-1.769-5.601c-0.079-1.202-0.558-2.001-0.886-2.948c-0.371-0.906-0.445-2.107-1.475-2.359
			c-1.015-0.991-2.236,0.306-3.243,0.295c-0.757,2.387-2.238,4.052-3.538,5.896c-0.513,2.534-1.88,4.215-2.063,7.077
			c1.169,1.679,2.822,2.878,5.896,2.652c1.24-0.037,1.413-1.142,2.651-1.181c1.249,0.317,2.114,2.285,3.833,1.181
			C71.215,80.845,69.438,78.004,70.303,76.805z M65.291,72.087c-0.152-0.153,0.214-0.375,0.295-0.294
			C65.738,71.947,65.371,72.17,65.291,72.087z"/>
	</g>
</g>
</svg>
