<?xml version="1.0" encoding="utf-8"?>
<!-- Generator: Adobe Illustrator 17.0.0, SVG Export Plug-In . SVG Version: 6.00 Build 0)  -->
<!DOCTYPE svg PUBLIC "-//W3C//DTD SVG 1.1//EN" "http://www.w3.org/Graphics/SVG/1.1/DTD/svg11.dtd">
<svg version="1.1" id="Layer_1" xmlns="http://www.w3.org/2000/svg"  x="0px" y="0px"
	 width="120px" height="120px" viewBox="0 0 120 120" enable-background="new 0 0 120 120" xml:space="preserve">
<g id="sneaker">
	<g>
		<path d="M118.355,91.818c-0.15-0.7-1.515-0.676-0.615-1.545v-6.795c-0.647-0.281-0.11-1.748-0.926-1.855
			c-0.431-0.604-1.113-0.949-1.239-1.855c-0.382-6.932-3.288-11.334-7.724-14.211c-4.347-1.01-9.344-1.369-14.832-1.238
			c-7.608-1.656-15.727-2.811-23.172-4.632c-1.006-0.644-1.85-1.447-3.088-1.855c-4.968-5.847-10.004-11.628-9.58-22.863
			c-0.788-0.86-1.445-1.853-2.163-2.782c-3.712-0.717-7.594-1.263-12.051-1.234c-2.152,0.629-4.581,0.979-6.798,1.544
			c-4.539-0.009-8.735,0.327-12.666,0.927c-2.497-0.229-3.933,0.598-6.181,0.617c-1.258,1.111-3.911,0.825-4.324,2.781
			c-0.046,0.767-0.058,1.5,0.616,1.547c0.684,0.035,0.13,1.309,0.311,1.854c-1.8,15.311,1.001,30.208,1.545,45.11
			c-2.036,0.127-4.73-0.403-5.87,0.618c-1.037,3.57-0.854,8.919,1.545,10.812c11.971-1.521,26.271-0.713,38.312-2.162
			c3.373,0.641,7.464,0.566,11.122,0.926c7.229-1.012,15.984-0.494,24.104-0.616c1.531-0.399,1.517,0.747,2.777,0.616
			c0.689-0.445,1.491-0.775,2.78-0.616c6.936,0.171,14.579-0.366,21.012,0.307c1.411-0.131,2.621-0.47,4.324-0.307
			c1.522-0.021,2.94-0.153,3.092-1.547C119.419,93.166,118.712,91.918,118.355,91.818z M94.259,69.264
			c-0.061-0.264,0.121-0.291,0.31-0.309c0.248-0.059,0.309-0.311,0.617-0.311c3.435,0.479,7.597,0.229,10.813,0.926
			c1.453,1.326,3.108,2.453,3.709,4.637c0.556,0.887,0.983,1.898,0.925,3.398c0.682,0.039,0.133,1.311,0.307,1.854
			c0.36,0.457,0.36,0.777,0,1.234c-1.269,0.244-1.584-0.473-2.779-0.308c-4.414,1.044-10.439,0.476-15.756,0.618
			C92.966,77.035,93.293,72.83,94.259,69.264z M42.349,34.968h4.329c1.178,0.26,2.477,0.404,4.015,0.309
			c-1.052,1.318-3.706,1.028-5.255,1.854c-2.175,0.088-3.481,1.049-5.869,0.928c0.256-0.226,0.828-2.138-0.308-1.854
			C39.582,35.084,41.655,35.712,42.349,34.968z M27.827,36.82c2.224-0.56,5.349-0.215,8.035-0.309
			c-1.938,1.355-4.548,2.041-7.725,2.162c0.16-0.455,0.455-0.776,0.619-1.236C28.848,36.611,27.556,38.26,27.827,36.82z
			 M21.956,37.13c2.096,0.24,3.286-0.421,5.254-0.31c-0.942,0.91-2.146,1.562-3.087,2.471c-0.588-0.23-0.218-0.92-0.93-0.309
			c-0.685,0.171-0.438-0.588-0.928-0.615c-1.051-0.229-0.507,1.135-1.235,1.235c-1.445-0.307-2.571-0.929-4.017-1.235
			C17.933,37.225,20.557,37.787,21.956,37.13z M17.014,93.055c-1.499-0.056-2.478,0.407-3.707,0.619
			c-0.422-1.433-1.001-2.71-0.928-4.637h4.635C16.324,90.32,17.265,91.33,17.014,93.055z M24.43,92.438
			c-0.833,0.606-2.702,0.185-4.02,0.309c0.098-1.538-0.049-2.835-0.307-4.018c1.244-0.196,3.287,0.402,4.02-0.312
			C25.307,88.826,23.97,90.835,24.43,92.438z M26.902,92.745c-0.412-0.636-0.586-3.101,0-3.708c0.171-1.576,2.81-0.691,4.323-0.928
			c-0.16,1.709,0.179,2.914,0.311,4.326C29.683,92.23,28.522,92.715,26.902,92.745z M38.642,91.818
			c-1.602,0.252-3.4,0.307-4.944,0.617c-0.293-0.938,0.575-3.041,0.62-4.631c1.241-0.203,3.285,0.398,4.016-0.314
			C39.493,87.934,38.187,90.15,38.642,91.818z M46.986,91.199c-1.318,0.537-3.006,0.703-4.945,0.619
			c0.235-1.678-0.38-2.502-0.308-4.014c1.746-0.521,4.223-0.309,6.177-0.623C47.471,88.391,46.805,89.371,46.986,91.199z
			 M56.252,90.891c-2.102-0.146-3.761,0.152-5.56,0.31c-0.152-1.386,0.154-2.314,0.309-3.396c-0.372-0.408-0.121-0.488,0-0.93h5.872
			C56.468,88.016,56.595,89.688,56.252,90.891z M65.521,90.583c-1.777-0.026-3.566-0.067-4.943,0.308
			c-0.967-1.522,0.301-3.096,0.618-4.324h5.255C65.568,87.334,65.379,88.792,65.521,90.583z M76.336,90.273
			c-2.244-0.121-5.031,0.293-6.795-0.311c-0.445-1.1-0.532-2.558-0.93-3.706h8.345C76.201,87.047,77.092,89.484,76.336,90.273z
			 M85.296,91.199c-1.476-0.169-3.103-0.188-4.323-0.616c0.24-1.713,0.123-3.79,0.928-4.944c1.74,0.096,2.746-0.547,4.634-0.308
			C85.626,86.791,85.164,88.701,85.296,91.199z M86.844,81.005c-0.73-0.008-0.912,0.532-1.855,0.308
			c-0.822,0.004-1.764-0.117-2.163,0.312c-0.543,0.176-1.812-0.374-1.853,0.31c-3.291-0.199-5.648,0.53-8.961,0.31
			c-5.756,0.425-12.256,0.104-17.919,0.616c-11.394,0.863-23.48,1.033-34.607,2.162c0.382-15.727-2.623-28.068-2.779-43.256
			c2.261,0.829,4.91,1.268,7.108,2.164c2.922-0.474,6.495-0.298,8.648-1.544c7.922,0.093,13.947-1.709,20.082-3.401
			c0.502,0.089,0.532-0.292,0.928-0.309c0.256,5.305,1.707,9.419,3.708,12.977c2.589,4.209,5.554,8.043,9.271,11.124
			c6.83,2.953,15.819,3.746,23.788,5.561c-0.491,2.289-0.967,4.597-1.543,6.8c0.09,2.07-0.854,4.129,0.308,5.561
			C88.872,81.387,87.484,80.82,86.844,81.005z M91.477,91.199h-3.088v-2.782c-0.106-0.617,0.062-0.964,0.615-0.927
			c-0.472-0.561-1.088-1.907-0.615-2.471h4.323c0.087,2.316,0.41,4.27,1.854,5.871C94.139,91.598,92.416,91.007,91.477,91.199z
			 M97.348,91.199c0.756-2.178-0.619-3.842-0.615-6.18c6.516,0.442,11.271-0.877,17.611-0.617c0.065,2.404-0.218,5.158,0.309,7.104
			C108.716,90.955,103.564,91.018,97.348,91.199z M48.84,52.271c0.709,1.038,1.784,1.715,3.397,1.853
			c0.052-0.359,0.489-0.334,0.928-0.307c0.996-0.783,1.7-2.707,0.928-4.327C52.103,48.174,48.299,49.136,48.84,52.271z M34.01,51.65
			c-0.191,0.02-0.369,0.047-0.312,0.309c-1.967-0.113-2.576,1.13-3.708,1.857c-0.864-0.357-1.604-0.357-2.472,0
			c-1.365,0.794-1.897,2.424-3.088,3.396c-0.033,0.792-0.176,1.473-0.615,1.854v4.326c0.608,0.52,0.488,1.772,1.23,2.163
			c0.062,1.075,1.096,1.172,1.239,2.162c2.539,2.096,4.963,4.307,9.885,4.018c5.727-1.139,8.553-6.603,7.108-13.903
			C41.328,54.629,38.734,52.073,34.01,51.65z M36.479,55.05c1.435,0.319,2.406,1.096,3.397,1.855
			c-0.749,0.586-2.466,0.209-3.397,0.617V55.05z M29.065,55.977c2.036,0.886,2.704-0.84,4.632-0.927
			c-0.15,1.083-0.459,2.011-0.309,3.398c-1.215,0.228-2.238,0.646-3.399,0.928c-0.056,1.397,0.919,1.762,2.165,1.854
			c-0.575,1.588-1.833,2.494-2.472,4.018C26.523,64.053,27.356,58.146,29.065,55.977z M31.846,67.409
			c0.284-1.056,1.48-1.197,1.543-2.472c0.699-0.642,0.965-1.713,1.237-2.78c0.997-0.277,0.435,1.009,0.926,1.235
			c0.585,1.474,2.226,1.895,2.781,3.398C36.702,68.107,34.045,68.141,31.846,67.409z M40.186,63.393
			c-0.888-0.555-1.532-1.351-1.853-2.471c0.939,0.014,1.576-0.281,1.853-0.929C41.021,60.746,40.198,62.462,40.186,63.393z
			 M55.944,58.141c-0.1,1.41-0.317,1.713,0.308,2.781c1.934,0.178,3.135-0.371,3.092-2.164
			C59.03,57.387,56.909,57.199,55.944,58.141z M61.508,64.629c0.132,0.893,0.65,1.409,1.541,1.545
			c0.236,0.795,0.988,1.075,2.164,0.926c1.27-1.133,0.874-3.581-0.309-4.634C62.934,62.35,61.61,62.879,61.508,64.629z
			 M67.377,70.189c0.488,1.059,1.256,1.832,3.088,1.545c0.176-0.444,0.483-0.754,0.928-0.926c0.224-1.562-0.342-2.341-0.928-3.092
			C68.434,67.54,67.363,68.322,67.377,70.189z M78.809,74.825c2.522-0.235,3.008-3.513,1.545-5.255
			C76.48,67.783,74.842,74.531,78.809,74.825z"/>
	</g>
</g>
</svg>
