<?xml version="1.0" encoding="utf-8"?>
<!-- Generator: Adobe Illustrator 16.0.0, SVG Export Plug-In . SVG Version: 6.00 Build 0)  -->
<!DOCTYPE svg PUBLIC "-//W3C//DTD SVG 1.1//EN" "http://www.w3.org/Graphics/SVG/1.1/DTD/svg11.dtd">
<svg version="1.1" id="Layer_1" xmlns="http://www.w3.org/2000/svg"  x="0px" y="0px"
	 width="120px" height="120px" viewBox="0 0 120 120" enable-background="new 0 0 120 120" xml:space="preserve">
<g id="football2">
	<g>
		<path d="M107.775,59.735c-0.334-1.184-0.354-2.688-0.568-3.992c-1.618-5.894-4.02-11.007-6.562-15.976
			c-0.222-0.065-0.328-0.241-0.285-0.569c-2.86-3.418-5.855-6.697-9.697-9.131c-0.626-0.9-1.602-1.446-2.566-1.997
			c-0.812-0.804-1.64-1.597-2.854-1.999c-1.55-1.59-4.056-2.221-5.991-3.425c-1.088-0.199-2.045-0.367-2.852-0.569
			c-0.146-0.037-0.311-0.289-0.285-0.284c-3.188-0.634-7.385-0.411-10.844-0.571c-1.39-0.062-3.621-0.691-3.996,0h-0.569
			c-7.236-0.202-12.893,1.182-17.974,3.139c-0.062,0.222-0.237,0.332-0.569,0.287c-1.005,0.705-2.021,1.4-3.137,1.996
			c-1.144,0.663-1.839,1.775-3.138,2.281c-9.246,9.394-15.812,21.471-15.694,40.228c0.766,6.275,2.92,11.156,5.423,15.69
			c0.225,0.062,0.334,0.24,0.284,0.57c0.595,0.547,1.19,1.095,1.429,1.998c0.659,0.575,1.523,0.946,1.71,1.996
			c6.165,5.627,12.91,10.674,21.111,14.267c3.904,1.602,8.882,3.094,13.979,3.137c7.614,0.067,15.126-2.107,20.255-4.562
			c0.062-0.226,0.24-0.333,0.572-0.287c1.465-1.297,3.158-2.354,4.279-3.991c2.641-2.973,5.646-5.574,8.273-8.562
			c1.68-1.173,2.506-3.198,3.99-4.563c0.064-0.222,0.01-0.562,0.287-0.57c1.637-3.405,3.455-6.625,4.277-10.84
			c0.646-0.595,0.354-2.121,0.855-2.854c0.09-1.244,0.33-2.335,0.57-3.426C107.667,64.761,107.898,62.427,107.775,59.735z
			 M88.947,32.919c0.148,0.148-0.206,0.365-0.285,0.284C88.518,33.058,88.868,32.84,88.947,32.919z M79.816,27.497
			c0.925-0.252,0.4,0.934,0.858,1.143c1.306,1.544,2.729,2.973,4.277,4.279c-0.416,0.763-1.565-0.121-1.427-0.855
			c-1.774-0.319-2.157-2.029-3.996-2.283C79.564,28.958,79.374,27.913,79.816,27.497z M79.247,32.349
			c0.628,0.323,0.948,0.953,1.715,1.141c-0.18,0.61-1.758,0.268-1.999,0C79.184,33.236,79.271,32.845,79.247,32.349z M53.003,27.214
			c4.725-0.248,8.618-2.752,13.69-1.714c3.437-0.2,5.99,0.479,9.131,0.571c0.699,0.672-0.428,0.531-0.284,1.426
			c-0.644,0.121-0.011,1.516-0.573,1.715c0.225,2.312-0.408,3.771-0.283,5.988c-2.199-0.01-2.478,1.899-3.709,2.854
			c-3.636,0.119-6.244-0.793-9.986-0.568c-1.126-0.369-0.579,0.938-1.711,0.568c-2.725-0.129-3.939-1.766-6.273-2.28
			c-0.703-1.01-1.965-1.461-2.57-2.57C51.038,30.956,52.555,29.62,53.003,27.214z M63.843,81.704
			c0.173,0.019,0.339,0.042,0.284,0.286c0.344-0.03,0.175,0.415,0,0C63.952,81.975,63.79,81.947,63.843,81.704
			C63.497,81.732,63.668,81.29,63.843,81.704z M62.417,54.601c-0.502-0.733-1.242-1.231-1.715-1.995
			c0.005-0.761-0.104-1.63,0.284-1.999c0.894,0.728,1.396,1.84,2,2.854c0.535,0.319,0.604,1.106,1.141,1.428
			c-0.145,0.896,0.984,0.752,0.288,1.425C63.042,56.447,63.131,55.122,62.417,54.601z M61.843,58.597
			c-1.2-0.131-1.365-1.297-1.993-1.998c-0.388-0.279-0.573-0.761-0.86-1.141c-0.344,0.088-0.98-0.824-0.283-0.857
			c0.762-0.727,0.942,0.736,1.43,1.143C60.469,56.834,62.628,57.3,61.843,58.597z M64.415,50.894
			c-1.123-0.973-1.758-2.43-2.854-3.423c-0.113-1.35,0.092-2.384,0.282-3.425c1.076,0.923,1.947,2.049,2.572,3.425
			c1.817,1.604,2.683,4.16,4.562,5.704c-0.322,0.535-1.104,0.604-1.427,1.143C65.904,53.778,65.531,51.962,64.415,50.894z
			 M68.12,48.324c-1.452-1.684-2.737-3.538-4.277-5.134c0.212-0.646,1.601-0.112,2.282-0.287c1.621,2.658,3.188,5.374,5.135,7.703
			c-0.195,1.148,0.274,1.631,0.287,2.568C70.157,51.806,69.175,50.028,68.12,48.324z M70.975,46.043
			c-0.945-0.86-1.545-2.067-2.565-2.853c0.563-0.482,1.78-0.313,2.565-0.57C71.296,43.149,70.771,44.738,70.975,46.043z
			 M56.138,52.319c-0.781-0.006-0.674-1.346-0.283-1.713C56.484,50.644,55.977,51.819,56.138,52.319z M46.155,29.212
			c-0.009,0.275-0.352,0.22-0.573,0.284C45.591,29.218,45.932,29.275,46.155,29.212z M45.011,32.349
			c-1.125-0.109-1.311-1.159-1.995-1.712C43.962,29.8,45.006,31.3,45.011,32.349z M40.733,31.777
			c0.506-0.53,0.834,0.124,1.426,0.286C42.21,32.529,40.292,32.639,40.733,31.777z M29.894,44.333c1.363-2.44,2.779-4.83,3.992-7.42
			c4.992,0.207,10.156-0.831,14.551-0.285c1.948,1.666,2.887,4.342,5.705,5.137c-1.217,2.397-2.551,4.672-3.137,7.701
			c-0.771,0.274-1.379,0.716-1.428,1.711c-0.65-0.137-1.457-0.562-1.996,0c-2.254,1.076-4.26,2.396-6.276,3.711
			c-1.908,1.327-3.904,2.559-5.707,3.992c-1,0.053-0.939-0.962-1.712-1.14c-0.597-0.354-1.071-0.83-1.426-1.428
			c-0.911-0.897-2.126-1.485-2.851-2.566c-0.978-0.073-1.374-0.721-2.57-0.571C27.789,50.027,28.994,47.333,29.894,44.333z
			 M25.897,59.167c0.242-0.052,0.268,0.111,0.284,0.285c1.491,0.225,1.917,1.509,3.141,1.996c0.859,0.853,2.357,1.067,1.997,3.137
			c-2.081-0.866-3.463-2.433-5.422-3.422V59.167z M26.469,63.73c1.204,1.459,3.109,2.213,4.279,3.707
			c-0.621,0.604-1.83-0.627-2.283-1.141c-0.916-0.411-1.598-1.062-2.567-1.426c-0.221-0.252-0.308-0.645-0.284-1.143L26.469,63.73
			L26.469,63.73z M25.613,67.438c1.063-0.67,2.254,0.973,2.852,1.713c0.965,0.178,2.203,0.08,1.998,1.43
			C28.448,69.932,27.22,68.495,25.613,67.438z M29.609,73.718c-0.15-0.149,0.204-0.364,0.284-0.284
			C30.039,73.578,29.688,73.796,29.609,73.718z M25.897,72.573v-1.994c1.509-0.084,1.509,1.344,2.567,1.711
			C27.906,73.294,27.036,72.501,25.897,72.573z M27.61,79.139c-0.025-0.929-0.147-1.755-0.571-2.283
			c0.971-0.949,1.375,1.082,2.57,0.854C29.485,78.732,28.698,79.083,27.61,79.139z M53.003,99.68
			c-2.816-0.703-5.082-1.957-7.705-2.854c-0.446-0.41-0.993-0.719-1.141-1.426h-1.429c-0.646-0.879-1.8-1.242-2.568-2
			c-0.673-0.84-1.685-1.355-2.566-1.995c-1.312-1.729-3.043-3.04-4.85-4.279c-1.087-2.048-2.841-3.437-3.994-5.421
			c-0.047-0.619,1.011-0.129,1.428-0.283c0.187-0.383,0.607-0.535,1.142-0.57c0.118-0.359,0.366-0.586,0.856-0.57
			c-0.029-0.346,0.412-0.176,0,0c-0.187,1.229,0.492,1.6,0.855,2.283c4.6,1.77,10.144,2.596,14.55,4.562
			c1.363,0.035,2.68,0.021,3.424-0.569c1.248-0.05-0.268,0.965-0.572,1.143c-0.125,0.822-1.225,0.676-1.426,1.428
			c0.515,0.682,2.231,0.159,2.851,0v3.139c0.13,1.396,0.589,2.453,0.573,3.992C52.667,97.275,53.354,98.975,53.003,99.68z
			 M56.708,91.12c-0.221-0.636-0.598-1.113-0.57-1.996c1.137,0.185,1.147-0.756,2.282-0.572
			C57.706,89.264,58.069,91.055,56.708,91.12z M56.138,82.273c-0.771,0.181-0.707,1.192-1.711,1.144
			c-0.365,0.587-0.454,1.447-1.424,1.426c0.291-1.337-0.473-1.622-0.858-2.28c-2.849-0.291-5.253-1.024-8.272-1.142
			c-0.956-0.853-2.688-0.928-3.712-1.715c-1.132-0.578-2.208-1.211-3.418-1.71c-1.436-0.196-2.305,0.169-3.141,0.57
			c0.17-1.407-0.741-1.731-0.57-3.141c0.38-0.475,1.617-0.095,1.996-0.57c0.16-1.396-1.108-1.363-1.713-1.994
			c0.535-1.844,0.38-4.377,0.857-6.277c1.952-0.329,2.871-1.693,4.278-2.566c1.221-0.968,2.375-1.998,3.709-2.854
			c2.283-2.092,5.185-3.565,7.988-5.135c0.102-0.377,0.502-0.447,0.572-0.854c0.24-0.055,0.268,0.109,0.285,0.284
			c0.502,0.256,0.831,0.688,1.426,0.854c1.111,1.552,2.377,2.946,3.707,4.283c0.957,1.61,1.982,3.153,3.712,3.989
			c0.897,0.047,1.717,0.013,1.993-0.567c0.646,0.213,0.113,1.6,0.289,2.28c-0.002,3.806-0.742,8.074,0,11.698
			c-0.631,0.227-1.141,0.572-1.145,1.428c-0.708,0.043-0.881-0.449-1.425-0.572C57.963,79.535,57.082,80.936,56.138,82.273z
			 M60.136,86.555C60.161,86.898,59.718,86.729,60.136,86.555c0.066-0.502,0.489-0.649,1.137-0.57
			C61.562,86.843,60.639,86.491,60.136,86.555z M61.843,95.969c-1.539-0.468-0.993-2.074-0.569-3.423
			C62.695,93.092,62.387,94.698,61.843,95.969z M67.551,100.818c-1.139,0.091-2.107,0.019-2.566-0.567
			c-0.139-1.282,0.146-2.14,0.285-3.142c0.838,0.396,1.08,1.395,2.281,1.428V100.818z M71.547,100.251
			c-0.697,0.252-1.238,0.662-2.281,0.567v-3.137c-0.615-0.733-1.597,0.235-1.998-0.285c-0.175-1.352-1.101-1.947-1.713-2.854
			c0.141-1.663-0.082-2.961-0.57-3.994c-1.646-0.621-1.278,1.713-2.28,0.854c0.104-0.483-0.226-0.537-0.57-0.57
			c-0.377-1.609,1.13-1.34,1.14-2.566c2.49,1.979,3.658,5.282,7.131,6.276c0.721-2.478-2.344-3.519-3.137-5.42
			c-1.004-0.711-1.648-1.777-2.566-2.57c-0.699-0.916-1.848-1.386-2.281-2.565c0.421-0.329,0.717-0.329,1.139,0
			c2.566,2.664,4.988,5.477,7.705,7.988c-0.351,1.741-0.309,3.875-0.285,5.991C70.79,99.104,71.73,99.113,71.547,100.251z
			 M71.547,89.407c-2.177-1.724-3.795-4.005-5.709-5.99c-0.173-0.019-0.335-0.044-0.283-0.287c-0.347,0.031-0.175-0.414,0,0
			c0.174,0.019,0.338,0.044,0.283,0.287c2.168,0.781,3.569,2.327,5.993,2.854C71.971,87.55,71.686,88.407,71.547,89.407z
			 M90.943,90.834c-1.461,1.009-2.987,1.956-3.991,3.423c-2.152,0.609-4.011,1.509-5.707,2.568c-1.933-0.486-3.49,0.296-5.134,0.856
			c-0.038-4.134-0.187-7.72-0.287-11.13c1.629-1.129,4.225-1.288,5.99-2.28c1.982-0.679,2.969-2.357,4.851-3.138
			c0.396-0.844,1.315-1.157,1.712-1.998c0.07-0.311,0.566-0.192,0.57-0.569c1.32-0.146,2.65,0.777,3.711,0
			c0.941,0.099,1.236,0.854,1.711,1.427c0.538,0.508,1.318,0.771,1.71,1.428C95.134,85.32,92.591,87.632,90.943,90.834z
			 M98.648,77.71c-2.031-0.44-2.532-2.412-4.565-2.854c-0.036-0.7-0.041-1.373,0.286-1.709c0.46-0.082,0.488,0.269,0.855,0.285
			c0.601,0.715,1.271,1.241,1.998,1.995C97.633,75.855,99.012,76.011,98.648,77.71z M99.79,74c-2.06-0.223-2.444-2.118-4.28-2.566
			c-0.156-1.271-0.277-2.569-0.568-3.709c1.187,0.433,1.854,1.379,2.853,1.998c0.882,0.642,1.892,1.155,2.565,1.998
			C100.438,72.748,99.835,73.095,99.79,74z M101.216,68.866c-2.416-0.912-3.594-3.062-5.989-3.994
			c0.127-1.201,1.352-1.312,1.711-2.281c0.66,0.575,1.524,0.945,1.713,1.994c1.354,0.263,1.526,1.707,2.851,1.999
			C101.704,67.643,101.012,67.811,101.216,68.866z M100.075,63.161c-0.489-0.272-0.575-0.947-1.144-1.142
			c-0.358-0.381-0.855-0.562-0.283-1.143c0.783-0.578,1.451,0.871,1.994,1.425c1.088,0.247,1.646,1.019,1.715,2.282
			C101.423,65.243,101.009,63.405,100.075,63.161z M102.357,60.595c-0.991-0.057-1.084-1.012-2-1.143
			c0.317-1.207,1.233-1.812,1.429-3.14c-0.121-1.018-0.716-1.563-1.429-1.995c-3.252-0.102-4.885,2.604-6.562,4.279
			c-1.77,1.771-4.043,3.36-4.85,5.988c-0.145,0.656,0.467,1.277,0.57,1.999c0.215,1.463-0.176,2.948-0.283,4.28
			c-0.705,0.533-1.582,0.891-2.281,1.426c-2.905,3.656-6.48,6.643-10.557,9.131c-0.982-0.126-1.604,0.111-2.281,0.283
			c-2.613-1.098-5.303-2.114-6.85-4.281c-0.264-6.098,0.44-11.791-0.855-17.114c1.369-0.342,1.91-1.515,3.424-1.712
			c0.92-0.791,2.254-1.168,3.143-1.998c1.262,0.136,1.416-0.395,2.277,0c1.377,0.139,0.824-1.648,1.996-1.711
			c2.658,1.339,5.76,2.233,8.275,3.709c0.826,0.312,2.023,0.256,2.853,0.57c0.938-0.393,2.438-0.225,2.854-1.143
			c0.133-2.032-1.871-1.933-2.854-2.851c-1.733-0.169-2.388-1.416-3.995-1.714c-2.314-1.391-5.367-2.048-7.699-3.421
			c0.09-3.607-0.641-6.399-1.143-9.417c0.104-1.365-1.535-2.106-0.855-3.137c0.914-0.832,1.438,0.457,2.564,0.283
			c4.021,0.218,7.162-0.446,11.128-0.283c0.737-0.311,1.374-0.723,1.714-1.43c0.457-0.08,0.492,0.271,0.854,0.289
			c2.424,2.427,4.168,5.529,5.992,8.557c1.914,2.938,3.061,6.641,5.137,9.416C102.443,56.132,102.37,58.397,102.357,60.595z"/>
	</g>
</g>
</svg>
