<?xml version="1.0" encoding="utf-8"?>
<!-- Generator: Adobe Illustrator 17.0.0, SVG Export Plug-In . SVG Version: 6.00 Build 0)  -->
<!DOCTYPE svg PUBLIC "-//W3C//DTD SVG 1.1//EN" "http://www.w3.org/Graphics/SVG/1.1/DTD/svg11.dtd">
<svg version="1.1" id="Layer_1" xmlns="http://www.w3.org/2000/svg"  x="0px" y="0px"
	 width="120px" height="120px" viewBox="0 0 120 120" enable-background="new 0 0 120 120" xml:space="preserve">
<g id="pinterest">
	<g>
		<path d="M93.95,30.945c-0.695-0.918-1.458-1.773-1.995-2.848c-1.13-0.959-2.297-1.883-3.42-2.85
			c-0.725-0.316-1.389-0.699-1.994-1.141c-0.674-0.463-1.633-0.641-2.277-1.139c-1.811-0.279-2.801-1.375-4.272-1.992
			c-1.351-0.832-3.159-1.205-4.558-1.994c-3.062-0.162-5.729-0.73-9.111-0.57c-0.364,0.018-0.397,0.363-0.856,0.285
			c-4.764,0.27-8.73,1.334-12.535,2.564c-3.34,1.883-6.18,4.262-9.117,6.551c-2.184,2.941-4.895,5.359-6.833,8.547
			c-1.268,3.48-1.999,7.494-2.567,11.68v3.984c0.252,1.744,0.539,3.451,0.858,5.131c0.82,1.264,0.968,3.207,3.136,3.131
			c1.562-0.807,1.441-3.303,1.423-5.695c0.733-1.451,1.386-2.98,1.991-4.559c0.715-1.564,1.58-2.978,2.281-4.559
			c2.016-1.779,4.41-3.186,6.836-4.555c4.678-1.781,9.035-3.877,14.527-4.846h4.271c1.574,1.184,3.205,2.303,3.992,4.271
			c0.711,0.713,0.805,2.043,1.424,2.854c0.557,0.867,1.494,1.348,1.707,2.562c0.828,2.303,1.722,4.545,1.709,7.691
			c-0.09,0.387-0.404,0.541-0.285,1.139c-0.74,2.393-2.217,4.049-3.988,5.412c0.156,1.006-1.005,0.699-0.855,1.709
			c-0.433,0.068-0.041,0.469,0.289,0.57c-0.076,0.398-0.629,0.322-0.856,0.568c-1.117,0.973-3.741,0.436-5.697,0.57
			c-2.098,0.008-3.973-0.205-5.125-1.139c0.849-4.18,3.343-6.723,3.132-11.965c-0.722-0.516-0.807-1.66-1.708-1.994
			c-0.325-0.91-1.676-0.797-2.277-1.424c-1.822-0.748-3.063-2.068-5.985-1.709c-5.042,1.412-6.274,6.639-9.114,10.252
			c-2.84,3.715-4.053,9.051-6.265,13.389c-0.694,2.539-1.851,4.607-2.565,7.121c-1.318,2.006-1.709,4.938-2.852,7.123
			c-1.365,5.184-2.469,10.635-3.986,15.666c-0.503,1.584,0.028,4.209-0.568,5.701c0.174,1.139-0.247,2.229,0,3.131
			c0.254,0.924,0.818,1.203,1.422,1.709c2.762,0.387,2.995-1.754,4.275-2.848c1.171-1.205,2.134-2.615,3.133-3.988
			c1.998-2.752,3.754-5.744,5.414-8.83c1.992-2.756,3.471-6.025,5.41-8.83c0.66-1.713,1.786-2.965,2.561-4.562
			c1.134-1.34,1.627-3.313,3.136-4.272c5.985,3.516,11.65,7.34,21.65,6.838c2.031-0.436,3.853-1.086,5.697-1.707
			c0.688-0.74,1.58-1.268,2.562-1.711c1.517-1.715,2.485-3.971,4.272-5.412c0.383-1.232,1.439-1.787,1.996-2.848
			c0.582-1.031,1.451-1.773,1.707-3.133c0.899-0.716,1.278-1.949,1.709-3.136c0.717-0.896,1.053-2.176,1.426-3.418
			c1.121-2.105,1.594-4.863,1.994-7.691v-7.406C97.471,40.529,95.633,35.814,93.95,30.945z M39.541,92.76
			c-0.273,0.582-0.582,1.127-0.854,1.707c-0.748,1.057-1.438,2.168-1.994,3.418c-0.863-0.697,0.217-1.852,0-2.846
			c0.944-1.525,2.174-2.768,3.136-4.273C40.549,91.146,39.409,92.027,39.541,92.76z M91.672,51.74
			c0.062,0.539-0.322,0.629-0.283,1.141c-1.342,4.459-3.211,8.373-5.697,11.678c-2.297,3.592-4.743,7.033-7.979,9.685
			c-2.364,0.957-5.553,1.098-8.545,1.424c-3.04-0.185-5.635-0.817-7.694-1.99c-2.089-1.139-3.606-2.848-5.692-3.989
			c-1.215,0.168-1.885-0.203-2.85-0.283c-1.229,1.051-1.691,2.863-2.281,4.557c-0.663,0.662-1.844,0.814-2.562,1.424
			c-1.896,4.848-4.811,8.674-6.837,13.389c-0.537,0.314-1.346,0.367-1.992,0.57c-0.193,0.316-0.948,1.479-1.141,0.854
			c0.555-3.146,2.543-4.867,3.992-7.121c0.896-0.996,1.453-2.341,2.561-3.134c0.344-1.555,2.184-1.61,2.279-3.42
			c-0.042-1.1-1.111-1.166-2.279-1.139c0.027,0.344-0.416,0.176,0,0c0.964-2.168,2.865-3.402,3.99-5.412
			c0.971-0.545,2.021-1.016,2.56-1.992c-0.56-2.407-3.709-0.991-4.555,0.285c-0.671-0.08,0.022-1.062,0.284-1.141
			c-0.043-0.711,0.446-0.883,0.568-1.424c0.479-0.85,1.129-1.533,1.423-2.566c0.646-0.395,1.104-0.982,1.708-1.422
			c0.813-1.846,1.521-3.801,2.281-5.697c-0.02-0.971,0.841-1.061,1.423-1.424c0.27-1.062,0.142-2.518,0.855-3.133
			c0.771,0.084,0.515,1.195,1.141,1.424c0.477,0.867,1.371-0.018,1.711,0.57c0.089,3.613-0.21,5.428-1.427,7.975
			c0.086,1.506-0.018,2.834-0.567,3.703c0.188,1.189,1.659,0.02,1.994,0.57c1.396,2.49,4.337,3.447,7.688,3.986
			c4.908,0.162,8.878-0.617,11.395-2.849c1.344-1.026,2.238-2.506,3.418-3.705c0.588-0.553,0.938-1.342,1.428-1.99
			c0.556-0.68,0.55-1.92,1.139-2.566V55.73c0.201-1.32,0.938-2.1,1.137-3.416c-0.683-5.492-1.711-10.635-3.986-14.531
			c-1.729-2.16-3.965-3.818-5.695-5.98c-3.74-1.578-8.354-2.285-12.82-3.131c-2.408,0.15-4.357,0.768-6.268,1.422
			c-0.803-0.045-0.708,0.807-1.14,1.141c-1.956,0.414-3.561,1.186-4.841,2.277c-1.688,0.781-2.853,2.082-4.561,2.85
			c-0.354,1.256-1.316,1.91-1.705,3.131c-0.846,0.771-0.981,2.25-2.279,2.568c-1.39,0.057-1.146-1.516-1.138-2.855
			c0.525-0.799,0.88-1.771,1.138-2.844c0.18-0.486,0.859-0.471,1.143-0.857c0.58-0.076,0.264-1.061,0.849-1.139
			c0.493-0.936,1.507-1.346,1.993-2.279c1.654-0.908,2.986-2.145,4.561-3.133c1.437-1.125,3.547-1.578,4.841-2.848
			c1.657-0.434,3.241-0.939,4.275-1.996c4.125-0.145,7.394-1.152,11.964-0.852c0.799,0.15,1.48,0.416,2.277,0.568
			c0.447,0.504,1.525,0.373,1.994,0.855c1.048,0.092,2.523-0.244,3.137,0.283c1.132,0.293,1.982,0.863,2.561,1.709
			c1.115,0.408,1.875,1.168,2.28,2.279c1.292,0.512,2.103,1.506,3.132,2.281c2.697,3.947,4.979,8.314,5.699,14.24v6.267
			C91.677,51.74,91.672,51.74,91.672,51.74z"/>
	</g>
</g>
</svg>
