<?xml version="1.0" encoding="utf-8"?>
<!-- Generator: Adobe Illustrator 17.0.0, SVG Export Plug-In . SVG Version: 6.00 Build 0)  -->
<!DOCTYPE svg PUBLIC "-//W3C//DTD SVG 1.1//EN" "http://www.w3.org/Graphics/SVG/1.1/DTD/svg11.dtd">
<svg version="1.1" id="Layer_1" xmlns="http://www.w3.org/2000/svg"  x="0px" y="0px"
	 width="120px" height="120px" viewBox="0 0 120 120" enable-background="new 0 0 120 120" xml:space="preserve">
<g id="google-plus">
	<g>
		<path d="M67.611,74.17c-2.078-2.506-4.911-4.256-7.773-5.979c-1.342-0.95-2.957-1.631-4.486-2.395
			c-1.111-1.279-3.189-1.591-3.292-3.885c0.661-0.833,1.932-1.062,2.993-1.497c0.664-0.83,1.665-1.324,2.393-2.092
			c2.044-0.947,3.379-2.598,4.779-4.186c0.872-1.775,1.034-3.396,1.2-5.681c0.063-0.868,0.316-1.576,0.299-2.393
			c-0.078-3.942-1.68-7.588-2.988-10.167c0.883-1.107,1.65-2.334,2.09-3.885c0.618-2.177,0.855-4.729,1.195-7.177
			c-0.706-1.685,0.293-5.075-1.195-5.981h-1.791c-0.434,0.168-0.731,0.467-0.899,0.896c-2.003,3.184-4.568,5.799-8.671,6.88
			c-2.006-0.387-3.552-1.232-5.681-1.496h-7.475c-2.117,0.771-3.901,1.879-6.277,2.391c-5.778,5.187-9.541,12.386-11.063,21.829
			v4.484c0.444,0.452,0.482,1.312,0.596,2.092c2.032,3.351,5.502,5.265,8.97,7.177c2.241,0.45,3.69,1.692,6.281,1.794
			c0.819,0.479,1.978,0.615,3.287,0.599c1.442-0.045,1.328,1.464,2.095,2.093c-2.462,0.426-4.72,1.061-7.773,0.898
			c-0.955,0.641-2.365,0.826-3.291,1.492c-1.258,0.438-1.837,1.551-3.29,1.795c-1.714,1.674-3.667,3.108-5.381,4.783
			c-0.258,1.037-0.934,1.657-1.494,2.394c-0.235,1.16-0.942,1.849-1.494,2.688c-0.667,2.125-1.965,3.619-2.392,5.981
			c-0.526,1.817-0.392,5.033,0,6.875c1.69,4.387,4.123,8.035,7.772,10.467c1.861,0.729,3.872,1.31,6.279,1.494
			c1.658,0.871,3.692,1.828,6.278,2.092c2.831,0.293,5.965-0.438,8.674,0.302c1-0.593,2.205-0.984,3.585-1.195
			c2.866-1.92,6.436-3.135,9.271-5.083c3.129-1.653,5.387-4.185,7.475-6.878c0.673-2.516,1.339-5.039,2.093-7.475
			c0.129-4.738,0.688-9.559-0.596-13.455C67.678,74.704,67.561,74.52,67.611,74.17z M26.348,52.943
			c0.161-0.463,0.312-0.021,0.302,0.299C26.492,53.7,26.337,53.258,26.348,52.943z M63.724,89.42
			c-0.444,0.057-0.274,0.723-0.299,1.195c-2.078,4.002-5.222,6.939-8.972,9.271c-3.629,0.356-5.889,2.084-9.271,2.691
			c-2.352-0.065-4.536,0.048-6.276,0.598c-4.569-0.714-8.741-1.827-11.363-4.485c-0.982-0.666-1.316,0.623-2.093,0
			c-1.278-1.611-2.347-3.434-3.289-5.383c-0.301-3.789,0.561-6.416,0.895-9.566c0.979-1.42,2.055-2.732,3.291-3.887
			c2.036-4.644,5.539-7.817,10.466-9.567c0.692,0.094,1.147-0.05,1.494-0.302c1.35,0.547,3.773,0.017,3.888,1.796
			c0.354,1.253-1.262,0.534-1.496,1.194c-0.862,0.037-1.956-0.164-2.392,0.299c-2.342,0.55-2.885,2.896-5.682,2.99
			c-1.269,1.422-2.009,3.371-3.287,4.784c-0.217,0.681-0.27,1.526-0.6,2.095c-0.522,0.471-0.391,1.601-0.896,2.092
			c0.039,3.442-0.539,6.06,0,9.269c0.784,1.707,2.874,2.113,4.188,3.29c2.151,0.337,4.712,0.268,6.277,1.195
			c2.752-0.037,5.089-0.491,8.074-0.299c2.223-0.769,3.873-2.108,5.978-2.989c0.067-0.232,0.251-0.349,0.599-0.3
			c0.067-0.231,0.251-0.348,0.6-0.299c-0.032-0.36,0.433-0.186,0,0V95.4c1.597,0.082-0.106-1.279,1.494-1.195
			c0.473-0.725,1.068-1.324,1.793-1.795c1.029-1.264,1.877-2.708,2.689-4.186v-7.477c-0.368-1.523-1.105-2.682-1.792-3.889
			c-0.436-0.758-1.588-0.799-2.094-1.493c-0.472-0.726-1.066-1.322-1.793-1.793c-1.427-1.068-2.654-2.331-4.187-3.289
			c-0.669-1.523-2.121-2.267-2.691-3.888c-0.94-1.352-1.997-2.587-2.392-4.484h-3.588c-2.43-0.463-4.331-1.447-6.576-2.095
			c-2.171-2.217-4.504-4.27-5.684-7.475v-6.876c-0.213-1.347-0.335-2.659-0.298-3.888c0.202-6.767,3.6-11.368,8.373-13.753
			c2.854,0.164,4.34-1.044,6.878-1.195c0.702,0.389,2.063,0.125,2.689,0.596c1.908,0.487,3.052,1.729,4.786,2.393
			c0.938,0.256,1.259,1.13,2.391,1.198c0.573,0.621,1.146,1.244,2.091,1.492c0.261-1.354-0.33-1.863-1.196-2.093
			c1.525-0.868,2.816-1.969,4.487-2.691c0.127,1.522-0.459,2.333-0.898,3.292c0.178,1.271-0.213,1.975-0.298,2.988
			c-0.04,0.736-0.044,1.44,0.298,1.793c0.988,0.448-0.62,0.732-0.298,1.496c1.366,2.422,2.111,5.463,1.792,9.567
			c-0.298,0.997-0.534,2.056-0.895,2.991c-0.616,1.082-0.43,1.608-0.6,2.689c-1.085,1.306-2.868,1.916-3.885,3.291
			c-1.22,1.171-2.322,2.461-4.188,2.986c-0.392,1.4-1.699,1.89-2.392,2.991c0.484,0.915,0.519,2.27,0.899,3.292
			c0.573,1.188,1.404,0.349,2.092,1.194c0.964,1.327,2.035,2.552,3.289,3.589c0.719,0.377,1.809,0.385,2.394,0.896
			c1.478,1.609,2.949,3.229,4.784,4.484c1.164,2.322,2.137,4.838,2.689,7.773v6.582h0.003V89.42z M52.662,77.16
			c2.265,1.619,4.524,3.249,4.185,7.476c0.086,1.581-1.408,1.583-1.793,2.692c-0.768,0.725-1.412,1.576-2.094,2.393
			c-1.652,0.637-2.608,1.975-4.483,2.391c-0.725,0.373-1.457,0.742-2.392,0.896c-0.592,0.51-1.852,0.344-2.392,0.896
			c-2.516-0.118-4.686,0.101-6.878,0.301c-1.749-1.145-2.687-3.098-3.89-4.785v-4.784c1.998-3.087,4.535-5.631,7.775-7.476
			C44.335,76.85,49.08,76.592,52.662,77.16z M45.486,72.078h1.791C47.31,72.793,43.658,72.248,45.486,72.078z M49.969,56.531
			c0.479-0.521,1.12-0.878,1.794-1.197c0.302-0.396,0.285-1.113,0.899-1.195c0.761-3.128,0.85-6.925,0.897-10.765
			c-0.491-2.6-1.239-4.941-1.796-7.476c-0.861-0.43-1.151-1.438-1.794-2.092c-1.551-1.042-3.517-1.666-5.381-2.391
			c-4.982-0.399-8.826,0.344-10.462,3.287c-0.221,1.414,0.426,1.965,0.892,2.691c-0.376,0.418-1.575,0.017-1.191,1.195
			c0.167,0.971-0.205,1.393-0.302,2.094c-0.441,6.818,1.094,11.666,4.185,14.951c1.498,0.496,2.749,1.238,4.487,1.494
			c2.123-0.172,4.151-0.434,6.579-0.299C48.828,56.387,49.498,56.556,49.969,56.531z M46.682,52.344
			c-2.106,0.09-4.86-0.473-5.382,1.197c-1.803-1.888-2.796-4.583-3.59-7.476c0.194-3.384-0.515-5.862-0.299-9.271
			c0.471-0.521,0.592-0.883,1.196-1.195c0.974-0.502,2.104-0.244,3.59-0.299c1.331,0.764,2.168,2.018,3.29,2.99
			c0.436-0.164,1.545,0.35,1.493-0.299c1.141,1.251,2.013,2.771,2.392,4.784v5.979C48.542,50.018,47.642,51.211,46.682,52.344z
			 M110.666,67.895c0.496-1.002,0.104-2.891,0.6-3.89c-0.213-1.38-0.799-2.391-1.791-2.991c-1.621-0.32-1.785,0.813-3.291,0.599
			c-1.783-0.562-4.541-0.885-6.578-0.297v-3.589c-0.362-2.032-0.612-4.169-0.6-6.578c-0.381-1.37-0.316-3.182-0.602-3.888
			c-0.278-0.704-1.021-0.882-1.189-1.494h-1.797c-3.059,1.126-5.193,3.179-8.373,4.187c-0.861,1.428-0.557,4.029-0.598,6.277
			c-0.439,1.554-0.275,3.711-0.299,5.683H80.17c-0.555,0.913-1.42-0.347-2.393,0c-0.006,0.493-0.828,0.165-0.897,0.598
			c-0.427,0.071-0.506,0.493-0.896,0.598c-0.469,1.376,0.317,1.938,0.297,3.588c-0.381,2.312-0.581,4.8-0.594,7.474
			c0.613,0.482,0.752,1.439,1.192,2.094c2.202,1.109,6.255,0.494,8.97,0.299c-0.158,4.045,0.418,7.357,0.898,10.767
			c1.135,0.759,1.868,1.916,2.992,2.69c1.832-0.16,4.326,0.343,5.678-0.299c0.592,0.713,2.083,0.707,2.986,0.299
			c1.404-1.311,0.889-3.881,0.9-6.279c0.014-2.482,0.188-5.152,0.301-7.178c1.93-0.061,3.721-0.264,5.381-0.598
			c1.262,0.334,1.586,1.604,3.588,1.195c1.141-0.751,2.021-1.762,1.794-3.887C110.521,71.533,110.812,69.93,110.666,67.895z
			 M82.262,66.995c0.4,0.196,0.559,0.639,0.6,1.196C81.93,68.332,81.791,67.439,82.262,66.995z M82.562,69.387v-0.598
			c0.252,0.057,0.28-0.117,0.299-0.297C83.439,68.371,83.297,69.854,82.562,69.387z M90.932,64.902
			c0.649-0.051,0.137,1.06,0.299,1.494h-1.192C89.893,65.458,90.842,65.607,90.932,64.902z M105.583,71.48
			c-1.786-0.672-3.288,0.143-5.38,0c-0.664,0.164-0.428-0.571-0.898-0.601h-3.289c0.158-0.44,0.443-0.752,0.6-1.192
			c-1.27-0.373-0.799,0.994-1.494,1.192v13.755c-0.633-0.264-0.885-0.908-1.796-0.896c0.175-1.072-0.347-1.447-0.597-2.095
			c0.479-1.711,1.31-3.071,1.793-4.783c-0.125-1.07-0.953-1.438-2.092-1.494c0.088-0.79-0.627-0.771-1.199-0.896v-1.793
			c-0.438-1.139,1.34-0.062,0.896-1.197c0.023-1.02-1.107-0.887-2.09-0.896c0.252-0.644,0.736-1.06,1.794-0.896
			c0.636-0.143,0.569,0.426,0.599,0.896c0.239,0.258,0.818,0.179,0.896,0.599c1.024,0.125,0.899-0.896,1.497-1.197
			c-0.141-1.756-0.422-3.367-1.199-4.483c-0.333-1.431,0.46-2.383-0.895-2.99c-0.942-0.043-1.03,0.766-1.195,1.494
			c-0.702-0.624-0.318-2.691,0.595-2.689c-0.224-2.471,2.168-3.744,1.197-5.981c-1.45-0.256-1.696,0.696-2.095,1.496
			c-0.686-0.611-0.104-2.482-0.299-3.588c0.146-0.943-0.537-1.057-0.299-2.094c1.258-0.537,2.633-0.956,3.59-1.793
			c0.348-0.05,0.531,0.064,0.6,0.299c-0.229,5.207,0.361,9.604,0.299,14.651c0.841,0.45,2.062,0.528,3.285,0.598
			c1.142,0.354,2.599,0.394,3.593,0.895h2.09c0.841-0.156,1.554-0.438,2.394-0.598C105.898,67.01,106.025,69.533,105.583,71.48z
			 M53.559,95.4h-0.6v0.299C53.307,95.749,53.492,95.635,53.559,95.4z M52.959,95.699H52.36
			C52.437,96.074,52.957,96.003,52.959,95.699z"/>
	</g>
</g>
</svg>
