<?xml version="1.0" encoding="utf-8"?>
<!-- Generator: Adobe Illustrator 17.0.0, SVG Export Plug-In . SVG Version: 6.00 Build 0)  -->
<!DOCTYPE svg PUBLIC "-//W3C//DTD SVG 1.1//EN" "http://www.w3.org/Graphics/SVG/1.1/DTD/svg11.dtd">
<svg version="1.1" id="Layer_1" xmlns="http://www.w3.org/2000/svg"  x="0px" y="0px"
	 width="120px" height="120px" viewBox="0 0 120 120" enable-background="new 0 0 120 120" xml:space="preserve">
<g id="skype">
	<g>
		<path d="M108.158,71.841c-1.567-3.278-3.9-5.784-5.417-9.114c-0.273-2.387-0.89-4.433-1.138-6.841
			c-1.535-2.543-1.84-6.321-3.422-8.826c-1.244-2.841-2.594-5.569-3.984-8.264c-0.358-0.115-0.581-0.366-0.567-0.851
			c-2.968-2.448-5.705-5.127-9.118-7.123c-1.586-1.169-3.121-2.384-5.129-3.135c-1.361-1.39-3.619-1.886-5.412-2.847
			c-6.662-0.906-12.511,0.786-17.659,2.276c-1.119-0.114-1.215-1.254-2.277-1.423c-0.535-0.798-1.563-1.097-2.564-1.426
			c-4.029-1.191-8.047-2.397-13.675-1.993c-0.362,0.013-0.393,0.365-0.855,0.287h-0.565c-4.263,1.338-6.086,5.118-9.974,6.834
			c-1.305,1.542-2.728,2.967-4.271,4.272c-0.345,1.077-1.127,1.718-1.708,2.563c-0.532,0.895-0.869,1.98-1.425,2.852
			c-0.155,0.41,0.335,1.473-0.285,1.423c-0.226,5.448,0.86,9.584,2.277,13.386c0.692,0.927,1.218,2.017,1.713,3.136
			c0.652,1.055,1.812,1.606,1.993,3.135c-0.646,6.533,0.154,12.553,1.139,18.229c0.627,0.701,0.63,2.025,1.141,2.849
			c0.43,0.896,0.846,1.809,1.141,2.85c1.168,1.486,1.453,3.856,2.275,5.696c0.921,0.79,1.422,1.999,2.279,2.847
			c1.08,0.726,1.783,1.832,2.849,2.565c1.065,0.646,1.973,1.439,3.134,1.99c1.065,0.742,1.839,1.771,3.133,2.282
			c1.395,0.884,3.361,1.195,4.559,2.278c1.813,0.562,3.105,1.641,5.127,1.995c3.366,0.43,7.303,0.29,9.968,1.424
			c0.396-0.745,2.419,0.14,2.853-0.569c1.456,0.227,2.067-0.402,3.417-0.287c2.311-0.062,4.166-0.58,5.98-1.139
			c4.705,1.846,10.533,2.568,17.375,2.28c0.261-0.597,1.609-0.103,1.711-0.854c0.318-0.058,0.445-0.318,0.566-0.57
			c0.006-0.469,0.791-0.163,0.856-0.57c1.817,0.014,2.704-0.906,3.985-1.424c1.354-1.309,3.008-2.314,3.707-4.27
			c0.504-0.828,1.325-1.336,2.279-1.713c0.646-0.775,1.26-1.584,1.992-2.279c1.21-2.871,2.457-5.709,3.136-9.114
			C109.232,80.062,109.71,74.938,108.158,71.841z M28.397,56.172c0.064,0.538-0.323,0.629-0.283,1.14
			c-0.385-0.185-0.533-0.605-0.574-1.14H28.397C28.368,55.826,28.808,55.998,28.397,56.172z M104.17,85.229
			c-1.038,0.957-1.527,2.463-1.71,4.273c-1.438,1.885-2.955,3.695-4.276,5.696c-2.172,0.676-4.004,1.692-5.408,3.134
			c-0.799-0.547,0.391-1.484,0.285-2.279c0.305-0.74,0.69-1.396,0.569-2.562c-1.418,0.195-1.396,1.834-2.278,2.562
			c-0.49,1.129-1.043,2.189-1.428,3.42c-1.408,0.203-2.835,0.391-4.554,0.283c-0.032-2.012,1.948-4.125,0.567-5.695
			c-1.604,0.201-2.047,1.562-2.85,2.563c-0.189,0.757-0.445,1.449-0.855,1.991c0.086,1.212-1.52,0.292-1.992,0.285
			c0.007-1.92,2.752-4.258,0.568-5.695c-2.435,0.318-2.391,3.119-3.418,4.844c-0.711,0.201-1.172-1.258-1.709-0.283
			c-1.443-0.36-1.959-1.651-3.135-2.279c-1.248,0.268-1.973,1.062-2.848,1.703c-1.352,0.271-2.516,0.721-3.703,1.144h-3.988
			c-6.951-0.456-11.848-2.967-16.521-5.699c-2.424-1.276-4.296-3.112-5.981-5.125c-1.965-1.739-3.624-3.78-4.557-6.553
			c-1.47-2.233-2.861-4.547-3.42-7.688c-0.787-2.918-2.182-5.225-2.279-8.834c0.17-0.604,0.747-1.031,1.139-1.422
			c0.477-0.473,1.09-0.812,1.425-1.425c0.452-1.683-0.999-1.469-0.854-2.848c0.59-0.74,0.97-1.688,1.137-2.853
			c0.562-0.534,1.203-2.008,0.572-2.845c-2.152-0.162-2.367,1.617-3.704,2.277c0.028,0.346-0.413,0.176,0,0
			c-0.14-1.942,0.515-3.093,0.571-4.842c0.283-1.426,1.062-2.354,1.141-3.988c-1.587-1.613-2.959,0.584-3.42,1.423
			c-0.195,1.802-0.939,3.048-0.856,5.13c-1.624-1.438-0.101-3.363-0.282-5.699c0.76-1.043,0.822-2.782,1.71-3.701
			c0.318-1.581,1.784-2.013,1.708-3.99c-1.257-0.017-1.789,0.685-2.279,1.426c-0.58,0.082-0.558,0.769-1.139,0.854
			c-0.084,0.256-0.771,1.248-0.856,0.572c0.195-1.705,1.083-2.716,1.139-4.557c0.999-1.758,2.368-3.146,3.706-4.561
			c1.621-1.034,3.465-1.853,4.553-3.42c1.173-0.06,1.869-0.602,2.568-1.139c2.209-0.066,3.799-0.762,6.27-0.568
			c3.362,0.241,5.918,1.295,8.542,2.279c2.528,1.076,5.29,1.925,6.839,3.988c0.806-0.429,1.873-0.595,2.846-0.856
			c6.977-0.327,12.924,0.372,18.232,1.713c1.951,1.842,4.153,3.438,6.836,4.555c0.526,1.564,2.069,2.106,2.563,3.704
			c1.086,1.001,2.057,2.117,2.562,3.701c1.518,2.757,2.785,5.762,4.273,8.544v5.13c0.229,1.192,1.382,1.465,2.279,1.994
			c-0.229,2.789,0.295,4.833,2.561,5.129c1.098,3.271,2.885,5.851,3.42,9.687C104.527,80.459,104.432,82.927,104.17,85.229z
			 M74.542,42.215c-2.103-1.029-5.338-0.932-8.263-1.139c-2.522,0.799-5.712,0.934-8.542,1.426
			c-0.928,0.779-2.332,1.084-2.849,2.276c-0.883,0.831-1.758,1.663-2.85,2.281c0.114,2.865-1.296,4.212-1.708,6.549v3.42
			c0.374,1.903,1.023,3.53,1.708,5.126c0.489,0.366,1.12,0.588,1.138,1.425c2.022,1.587,4.166,3.055,6.267,4.56
			c1.563-0.043,2.713,0.326,3.993,0.568c1.832,1.389,4.105,2.35,4.554,5.125c-0.594,0.074-0.077,1.255-0.569,1.427
			c-0.256,0.503-0.637,0.88-1.142,1.138c-0.391-0.014-0.625,0.135-0.852,0.289c-3.121,0.076-4.699-1.379-6.84-2.28
			c-0.701-1.188-1.947-1.863-2.846-2.851c-0.43-0.467-0.641-1.22-1.142-1.707c-0.557-0.547-1.112-1-1.993-1.141
			c-1.312-0.364-2.242,0.336-3.133,0.57c-0.984,0.258-1.983,0.271-2.852,0.852c-0.801,0.338-0.863,1.414-1.136,2.278
			c-1.66,0.437-2.858,1.325-3.136,3.138c-0.013,1.244,0.715,1.756,1.145,2.562c1.262,0.062,0.859,1.797,1.704,2.279
			c1.519,1.139,3.242,2.078,4.559,3.418c2.931,0.867,5.019,2.579,7.409,3.986c1.936,0.338,3.398,1.154,5.691,1.139
			c1.654,0.038,2.695-0.535,4.277-0.565c1.551-0.824,3.121-1.63,4.557-2.565c0.363-0.779,1.146-1.137,1.709-1.709
			c0.394-0.842,1.318-1.154,1.709-1.996c2.127-2.621,3.156-6.339,3.133-11.105c-0.225-2.723-1.062-4.826-2.276-6.556
			c-2.437-2.217-5.883-3.417-9.114-4.84c-1.64-1.779-4.034-2.805-4.271-5.983c0.432-0.627,0.756-0.919,1.709-1.139
			c0.863-0.2,2.138,0.15,3.131,0c2.469,0.663,3.766,2.5,6.551,2.849c2.305-0.544,3.568-2.125,4.559-3.989
			c0.465-2.479,2.669-3.219,2.279-6.551C79.861,42.786,76.898,42.805,74.542,42.215z M73.118,51.329
			c-1.415,0.279-1.694-0.581-2.562-0.853c-0.625-0.608-1.684-0.783-2.279-1.426c-0.428-0.047-1.051,0.102-1.139-0.283
			c-1.912-0.201-3.129,0.294-4.845,0.283c-3.047,1.161-6.036,4.344-4.557,8.261c2.713,5.646,11.717,4.998,15.666,9.401
			c-0.129,0.644,0.642,0.918,0.855,1.425c0.324,0.776,0.403,1.866,0.569,2.85c0.173,1.05,0.409,2.169,0.282,3.418
			c-0.42,3.57-2.68,5.291-4.555,7.404c-2.031,0.914-4.111,1.779-6.837,1.996c-1.689-0.307-3.365-0.628-5.131-0.855
			c-1.888-1.152-3.729-2.346-5.412-3.702c-1.273-1.767-3.211-2.866-3.701-5.415c0.402-1.021,0.959-1.891,2.281-1.991
			c0.188,1.14,0.705,1.954,1.137,2.847c0.979,0.734,2.269,1.152,3.135,1.998c0.866-0.016,1.109,0.6,1.709,0.854
			c0.365,0.016,0.396,0.363,0.852,0.286c-0.021,0.401,0.83,0.321,0.289,0.567h-0.856c-0.063-0.224-0.239-0.33-0.571-0.285
			c0.484,1.227,1.772,1.646,2.851,2.281c0.413,0.154,1.472-0.336,1.423,0.284c3.785-0.325,6.283-1.472,8.26-3.42
			c1.252-1.235,2.492-2.946,2.279-5.128c-0.304-2.634-2.509-3.378-3.986-4.842c-1.242-0.277-2.051-0.989-3.137-1.424
			c-0.931-0.594-2.267-0.771-3.132-1.428c-1.174-0.222-1.461,0.438-2.565,0.287c-1.699-0.481-2.718-1.648-3.987-2.564
			c-0.288-1.514-0.711-2.891-1.135-4.27v-3.136c-0.182-0.961,0.365-2.647-0.287-3.134c1.746-3.287,5.144-4.918,8.826-6.268
			c2.819,0.448,4.862-0.094,7.978,0c2.052,0.707,4.501,1.012,5.13,3.137C75.561,49.973,74.611,50.924,73.118,51.329z M57.169,77.824
			c-0.056,0.238,0.109,0.267,0.281,0.283C57.503,77.863,57.339,77.839,57.169,77.824z"/>
	</g>
</g>
</svg>
