<?xml version="1.0" encoding="utf-8"?>
<!-- Generator: Adobe Illustrator 17.0.0, SVG Export Plug-In . SVG Version: 6.00 Build 0)  -->
<!DOCTYPE svg PUBLIC "-//W3C//DTD SVG 1.1//EN" "http://www.w3.org/Graphics/SVG/1.1/DTD/svg11.dtd">
<svg version="1.1" id="Layer_1" xmlns="http://www.w3.org/2000/svg"  x="0px" y="0px"
	 width="120px" height="120px" viewBox="0 0 120 120" enable-background="new 0 0 120 120" xml:space="preserve">
<g id="git">
	<g>
		<path d="M75.395,72.805c3.232-0.092,5.096-1.549,7.693-2.279c2.114-1.301,5.561-1.272,7.689-2.562
			c2.8-0.621,4.5-2.338,6.551-3.701c1.924-1.496,3.74-3.096,5.699-4.559c1.383-2.418,3.179-4.414,3.701-7.695v-7.402
			c-0.484-3.312-1.453-6.145-2.277-9.117c-0.574-0.373-0.963-0.936-1.141-1.707c-0.972-0.734-1.828-1.59-2.562-2.561
			c-1.299-0.51-2.457-1.16-3.138-2.281c0.644-0.209,0.113-1.6,0.285-2.277c0.646-0.213,0.112-1.602,0.285-2.279
			c0.817-0.041-0.248-1.955,0.568-1.996c-0.221-1.176,0.439-1.463,0.289-2.564c0.516-2.568,2.285-6.289,0.568-8.543
			c-0.367-0.396-1.24-0.283-1.996-0.287c-0.336,0.137-0.646,0.305-0.854,0.57c-1.163,0.451-1.745,1.482-2.848,1.996
			c-0.752,0.859-2.015,1.213-2.563,2.279c-1.955,1.365-3.371,3.271-5.414,4.555c-1.308-0.072-1.769,0.697-2.847,0.854
			c-1.217,0.016-2.088,0.383-3.136,0.574c-2.159,0.303-4.309,0.627-6.553,0.852c-0.979,0.125-1.594-0.113-2.278-0.285
			c-0.896-0.139-0.646,0.873-1.707,0.572c-2.825-0.371-6.92,0.234-10.541,0c-1.134-0.293-2.432-0.418-3.703-0.572
			c-1.461-0.91-2.766-1.98-3.705-3.422c-2.373-0.754-4.038-2.221-6.549-2.846c-1.457-0.439-1.552-2.248-3.703-1.994
			c-2.42,0.143-2.676,2.451-3.416,4.273c0.068,4.389-0.49,7.834,0,11.965c-0.104,0.943-0.854,1.232-1.425,1.711
			c-0.511,0.535-0.774,1.314-1.425,1.707c-0.854,1.236-1.439,2.74-2.281,3.986c-0.145,1.756-0.697,3.102-0.855,4.84v7.125
			c0.57,0.965,0.307,2.109,0.57,3.133c0.031,0.123,0.513,0.695,0.57,0.857c0.151,0.422,0.188,0.854,0.287,1.137
			c0.279,0.836,0.537,1.375,0.566,1.996c0.016,0.283,0.254,0.182,0.287,0.285c0.539,1.58,0.783,3.195,1.426,4.557
			c0.254,0.543,0.771,1.119,1.139,1.711c0.479,0.77,0.612,0.992,1.141,1.42c0.094,0.078-0.082,0.474,0,0.574
			c0.988,1.206,2.428,1.838,3.133,3.131c2.387,1.123,4.455,2.567,7.975,2.563c0.211,0.642,1.596,0.109,2.281,0.283
			c0.412,0.441,1.455,0.254,2.274,0.287c1.399,0.408,2.989,0.621,4.847,0.568c-0.652,0.775-1.262,1.586-1.996,2.279
			c-0.538,0.979-1.779,1.258-1.996,2.563c-0.9,0.81-0.505,2.91-1.424,3.703c-3.181,0.139-5.988-0.091-7.975-1.142
			c-2.75-3.037-3.968-7.612-7.691-9.686c-2.846-0.516-5.75,0.219-8.831,0.285c-1.202,0.979-2.782,1.588-3.987,2.562
			c-1.449,0.735-3.121,1.252-3.135,3.42c2.914,2.176,5.346-1.806,8.549-1.994c1.871-0.068,3.105,0.502,5.127,0.285
			c1.205,1.547,2.09,3.414,2.85,5.409c0.988,1.195,2.035,2.334,2.85,3.705c0.709-0.051,0.887,0.438,1.137,0.854
			c2.019,1.019,4.277,1.798,7.121,1.994h4.273c1.477,1.629,1.758,4.047,1.422,6.549c-0.057,0.439-0.413,0.937-0.566,1.429
			c-0.287,0.877-0.408,1.623-0.573,2.274c-0.253,1.013-1.192,1.884-1.14,2.851c-1.831,1.396-3.32,3.131-6.552,3.135
			c-1.958-0.036-1.927-2.059-4.271-1.713c-0.254-1.071-0.396-2.258-1.994-1.991c-1.221,0.5-1.365,2.913-0.856,4.276
			c0.468,1.43,1.165,2.631,1.71,3.981c2.193,1.795,6.561,1.42,10.54,1.427c0.599-0.544,1.356-0.919,2.28-1.142
			c2.018-2.445,3.775-5.146,5.695-7.69c0.203-1.316,0.939-2.101,1.139-3.416c0.332-0.927,1.471-2.162,2.279-1.707
			c0.557,4.19,0.174,9.315,0.285,13.955c-0.629,0.983-0.881,2.352-1.424,3.418c-1.592-0.076-2.637,0.403-3.42,1.143
			c0.281,1.619,1.217,2.582,2.279,3.414c2.973,0.316,4.619-0.698,6.269-1.707c0.789-1.776,1.531-3.596,1.992-5.694
			c0.108-3.609-0.06-7.912,0-12.248c0.383-1.619,0.854-3.14,0.856-5.131c0.604-1.392,0.037-3.947,0.854-5.125
			c0.063,1.832,0.455,3.34,0.287,5.409c0.989,6.511,4.521,10.482,6.547,15.953c2.011,1.886,3.97,3.818,7.691,3.986
			c0.244-0.425,0.92-0.414,1.426-0.568c0.668-0.944,1.377-1.853,1.139-3.7c-0.223-0.064-0.33-0.24-0.282-0.574
			c-0.785-1.683-3.239-1.697-4.56-2.847c-0.787-2.534-2.347-4.301-3.418-6.555c-0.694-2.152-1.25-4.445-2.283-6.265
			c0.084-1.506-0.733-2.112-0.565-3.7c-0.59-0.074-0.075-1.252-0.571-1.427c-0.211-0.975,1.158-0.362,0.858-1.424
			c1.19,1.176,1.646,3.096,2.278,4.838c1.854,2.804,3.562,5.744,6.264,7.693c2.238,2.514,5.178,4.322,9.118,5.129h3.7
			c0.047-0.525,0.968-0.176,1.14-0.57c0.19-0.383,0.612-0.53,1.142-0.569c1.032-1.054,1.721-2.453,2.562-3.705
			c0.577-1.322,1.092-4.285-0.283-5.125c-3.571-0.062-3.897,3.131-6.838,3.703c-5.34-1.229-8.856-5.509-11.106-9.4
			c-0.168-0.282-0.109-0.53-0.287-0.854c-1.568-2.883-3.459-5.752-4.56-8.831c-0.841-0.679-1.353-1.685-1.991-2.562
			c-0.5-0.258-0.885-0.641-1.138-1.139C75.695,73.795,74.794,72.895,75.395,72.805z M92.203,29.795
			c0.012,0.018,0.26-0.537,0.285-0.572c0.016-0.02-0.023-0.283,0-0.283C93.502,28.762,92.516,30.205,92.203,29.795z M90.492,36.916
			c-0.582-0.086-0.559-0.773-1.141-0.855c0.401-1.5,1.283-2.516,1.709-3.986c0.513-0.039,0.602,0.344,1.143,0.285
			C92.672,34.916,90.9,35.23,90.492,36.916z M92.488,39.764c-0.016-1.246,0.709-1.758,1.139-2.564
			c0.502,0.26,0.521,0.996,0.854,1.424c0.071,1.021-0.854,1.045-0.854,1.998C93.045,40.537,93.068,39.846,92.488,39.764z
			 M101.031,50.873c0.605,0.09-0.043,1.242-0.281,1.424c0.135,0.898-0.41,1.113-0.572,1.709c-0.846,0.674-0.799,2.24-2.279,2.279
			c-1.328-0.021,0.336-0.652,0.285-1.141c0.26-0.504,0.689-0.832,0.857-1.422C99.927,52.994,100.432,51.889,101.031,50.873z
			 M98.752,48.307c-0.014-0.867,0.604-1.105,0.857-1.705C100.988,46.965,99.402,49.113,98.752,48.307z M99.041,36.916
			c0.715,1.037,2.072,3.336,0.852,4.555c-1.139-0.287-1.141-1.707-1.994-2.277C98.031,38.186,98.619,37.635,99.041,36.916z
			 M98.184,50.303c-0.996,0.996-1.84,2.146-2.562,3.42c-0.92-0.756,0.239-1.83,0.569-2.279c0.58-0.557,0.933-1.346,1.422-1.996
			C97.963,49.572,98.201,49.814,98.184,50.303z M97.328,34.92c-0.005,0.568-0.776,0.363-0.568,1.141
			c-1.078-0.154-1.256-1.213-1.426-2.279C96.502,33.66,96.824,34.381,97.328,34.92z M96.191,41.76
			c0.947,0.695,1.961,2.256,0.854,3.416c-0.901-0.242-0.812-1.471-1.713-1.711C95.605,42.885,95.918,42.334,96.191,41.76z
			 M94.48,48.307c-1.045-0.584-0.017-1.484-0.287-2.844c0.633,0.223,0.715,0.992,1.141,1.422
			C95.473,47.779,94.57,47.635,94.48,48.307z M95.051,17.26c0.824,0.936-0.551,2.098-0.285,3.42
			c-1.217,0.076-1.238-1.041-1.994-1.428C93.409,18.467,94.561,18.195,95.051,17.26z M90.777,20.393h0.854
			c0.013,1.945,2.867,2.043,1.994,3.99c-1.472-0.525-2.123-1.867-3.135-2.85C90.373,20.936,90.688,20.779,90.777,20.393z
			 M89.068,24.1c0.461-0.084,0.49,0.266,0.854,0.283c0.094,1.326,1.617,1.229,1.71,2.561c-0.385,0.281-0.571,0.762-0.854,1.141
			c-1.445-0.168-1.45-1.773-2.564-2.277C88.326,25.066,89.064,24.945,89.068,24.1z M89.068,39.193
			c-0.987,0.199-1.021-0.998-0.568-1.426C89.076,37.975,89.66,38.627,89.068,39.193z M86.508,23.525
			c0.148-0.439,0.293-0.018,0.283,0.285C86.281,23.893,86.206,23.541,86.508,23.525z M86.791,28.367
			c0.461-0.078,0.488,0.271,0.854,0.285c0.004,1.23,1.42,1.049,1.424,2.281c-0.892,1.197-1.438,2.74-2.276,3.986
			c-1.278-0.145-1.961-0.887-2.853-1.422C84.947,31.842,85.783,30.023,86.791,28.367z M85.363,38.053H81.66
			c0.009-0.852,0.744-0.971,0.857-1.711c0.729,0.035,0.996,0.527,1.422,0.857C84.668,37.234,85.404,37.254,85.363,38.053z
			 M83.088,25.807c-0.08-0.463,0.27-0.49,0.283-0.857c1.105-0.246,1.016,0.697,1.71,0.857c-0.413,1.199-1.479,1.748-1.71,3.133
			c-1.096,0.518-0.854,2.373-2.278,2.564c-1.12-0.84-0.128-2.201,0.567-2.852C81.979,27.545,82.451,26.594,83.088,25.807z
			 M80.809,25.234c-0.811,1.186-1.58,2.408-2.277,3.705C76.34,28.039,77.758,24.295,80.809,25.234z M78.814,33.498
			c0.563,0,0.361,0.773,1.138,0.566c-0.104,1.695-1.208,2.4-0.851,4.559c-0.254-0.221-0.646-0.307-1.144-0.283
			c0.608-1.066-0.032-1.619-0.569-2.279C77.686,35.027,78.335,34.344,78.814,33.498z M76.818,31.504
			c-0.313,1.486-1.463,2.137-1.711,3.701c-0.576-0.271-1.127-0.582-1.707-0.855c0.521-1.471,1.606-2.381,1.992-3.986
			C76.23,30.381,76.451,31.012,76.818,31.504z M75.682,25.521c0.146,0.145-0.207,0.361-0.287,0.285
			C75.248,25.656,75.604,25.443,75.682,25.521z M70.839,30.078c0.609-0.527,0.753-1.529,1.423-1.994
			c-0.082-0.461,0.271-0.488,0.289-0.857c0.58,0.086,0.555,0.773,1.135,0.857c-0.191,1.039-1.078,1.391-1.424,2.279
			c-0.639,0.596-0.693,1.773-1.71,1.996C69.611,31.66,70.488,30.973,70.839,30.078z M73.115,37.768
			c-0.123,0.641-1.402,0.115-1.994,0.285c0.104-0.373,0.502-0.447,0.57-0.854C72.57,36.984,72.238,37.982,73.115,37.768z
			 M62.861,25.521h7.69c-0.357,1.916-1.984,2.572-2.562,4.273c-0.85-0.004-0.967-0.742-1.709-0.855
			c0.215-1.213,1.332-1.518,1.141-3.133c-1.443-0.117-1.668,0.994-2.564,1.42c-0.712,0.053-0.891-0.436-1.136-0.854
			C63.451,26.07,62.668,26.285,62.861,25.521z M69.129,38.053c-0.488,0.654-2.174,0.104-3.137,0.287
			c0.689-1.217,1.539-2.262,1.996-3.703c0.424,0.145,0.721,0.422,1.141,0.568C68.506,35.887,68.346,37.4,69.129,38.053z
			 M64.57,35.205c-0.834-0.021-1.055-0.652-1.424-1.141c0.214-1.117,1.113-1.545,1.424-2.561c0.662,0.189,0.762,0.943,1.422,1.137
			C65.549,33.525,65.148,34.455,64.57,35.205z M63.146,38.34c-0.771,0.174-2.26-0.359-2.562,0.283
			c-0.851-0.592,0.714-1.158,0.567-1.994C61.869,37.146,63.103,37.145,63.146,38.34z M60.585,28.084
			c0.912,0.225,1.242,1.031,1.991,1.424c-0.236,1.279-1.469,1.566-1.709,2.852c-0.934-0.113-1.254-0.836-1.994-1.139
			C59.019,29.748,60.369,29.484,60.585,28.084z M53.746,25.521v0.285c2.342-0.68,3.188,1.133,5.414,0.281
			c0.05,1-0.963,0.941-1.143,1.713c-0.749,0.197-0.602,1.293-1.422,1.422c-1.371-0.432-2.178-1.428-3.136-2.279
			c-0.063-0.537,0.325-0.625,0.286-1.137c-0.686-0.117-0.619,0.52-1.426,0.281C52.029,25.131,53.207,25.646,53.746,25.521z
			 M58.59,34.637c-0.4,1.873-2.175,2.383-2.279,4.557c-0.826-0.219-1.639-0.451-1.996-1.141c0.439-1.744,1.737-2.631,2.281-4.271
			C57.699,33.627,57.769,34.508,58.59,34.637z M51.752,29.508c0.15,0.148-0.207,0.367-0.287,0.287
			C51.322,29.646,51.673,29.43,51.752,29.508z M52.32,30.078c0.625,0.611,1.586,0.885,1.994,1.709
			c-0.788,1.775-2.201,2.924-2.85,4.842c-1.163-0.445-2.141-1.086-3.133-1.709C49.023,32.668,51.464,32.162,52.32,30.078z
			 M49.473,41.76c-0.951,0.186-1.393,0.885-2.274,1.139c-1.122-0.213-1.551-1.111-2.567-1.428c0.363-1.631,1.43-2.557,1.996-3.986
			c1.66,0.045,2.117,1.299,3.416,1.709C49.738,39.932,49.352,40.592,49.473,41.76z M43.207,37.768
			c-0.527,0.5-0.861,2.129-1.709,1.426c0.469-1.717,1.482-2.883,2.279-4.273c0.377,0.102,0.449,0.502,0.854,0.568
			C44.436,36.529,43.552,36.879,43.207,37.768z M45.486,32.641c0.148,0.148-0.205,0.361-0.285,0.285
			C45.052,32.781,45.41,32.562,45.486,32.641z M51.186,24.383c-0.77,0.838-1.58-0.691-2.281-0.857
			C49.578,22.779,50.387,24.307,51.186,24.383z M48.904,26.943c-0.844,1.725-2.404,2.727-3.136,4.561
			c-0.579-0.086-0.556-0.773-1.138-0.857c0.623-2.033,1.84-3.479,2.85-5.125C48.23,25.717,48.082,26.816,48.904,26.943z
			 M42.636,24.1v-4.277c1.351,0.74,2.956,1.223,4.274,1.998c-0.584,0.266-0.791,0.916-1.142,1.422
			c0.155,1.006-1.009,0.701-0.853,1.707c-0.927,0.781-1.48,1.941-1.992,3.135C42.264,27.316,42.822,25.336,42.636,24.1z
			 M41.783,30.646c0.15-0.439,0.297-0.02,0.285,0.287C41.559,31.012,41.485,30.664,41.783,30.646z M41.213,32.641
			c1.312,0.514-0.67,1.246-0.566,2.279c-0.832,0.406-0.648,1.826-1.713,1.996C39.129,34.926,40.435,34.045,41.213,32.641z
			 M37.797,47.453c0.722-2.023,1.502-4,2.275-5.982h0.857c-0.547,1.666-1.682,3.846-0.857,5.982
			c-0.708,0.721-1.473,1.375-1.708,2.566C37.633,49.703,37.802,48.488,37.797,47.453z M44.061,45.176
			c-0.788,0.068-0.648,1.059-1.137,1.426c-0.117,0.686,0.516,0.617,0.283,1.422c-2.443,2.654-3.17,9.92-1.139,13.674
			c0.344-0.029,0.175,0.414,0,0c-1.695-1.438-2.41-3.855-3.135-6.268c0.422-2.713,1.751-4.518,2.279-7.123
			c0.66-0.191,0.764-0.943,1.423-1.141c-0.2-1.055,0.487-1.221,0.288-2.277c0.332-0.172,0.414-2.006,1.137-0.855
			C45.314,43.994,44.141,44.842,44.061,45.176z M58.59,66.826c-2.873-0.359-5.729-0.73-8.547-1.141
			c-1.062-0.933-2.092-1.896-2.845-3.138c-0.444-0.602-0.821-1.268-1.143-1.988c-0.504-0.451-0.375-1.529-0.854-1.998
			c-0.024-2.777,0.256-5.248,0.567-7.689c0.413-1.676,1.786-2.393,2.563-3.707c1.209-0.881,2.054-2.125,3.42-2.844
			c0.652-0.207,1.455-0.256,1.994-0.572c0.51-0.346,1.658-0.049,1.993-0.566c6.941,0.385,11.862-1.242,18.8-0.855
			c1.465,0.229,1.871-0.604,3.134-0.568h6.268c0.457,0.076,0.494-0.273,0.854-0.289c0.87-0.207,0.842,0.492,1.714,0.289
			c0.72,0.033,1.103,0.41,1.136,1.139c0.375,0.289,1.049,0.277,1.426,0.566c0.851,2.57,1.904,4.936,2.563,7.695v4.555
			c-0.901,3.084-2.187,5.791-3.7,8.262c-1.014,0.795-2.644,0.965-3.705,1.709c-0.635,0.225-1.109,0.6-1.996,0.567
			c-0.101,0.756-1.449,0.261-1.709,0.854C72.854,67.756,66.217,66.914,58.59,66.826z M81.948,57.994
			c2.286,0.195,2.596-1.582,3.415-2.85c-0.041-3.562,0.58-7.795-2.846-7.979h-0.569c-1.2,1.174-2.536,2.223-3.134,3.994
			c-0.045,1.561-0.029,3.068,0.287,4.27C80.173,56.162,80.176,57.963,81.948,57.994z M52.891,58.846
			c1.245,0.82,2.856,0.992,4.277,0.287c2.066-2.088,1.109-7.662-0.289-9.686C52.113,48.02,51.09,55.363,52.891,58.846z
			 M69.129,59.133c0.048-0.33,0.449-0.307,0.855-0.287c0.572-0.67,0.752-1.908,0.287-2.844c-1.072-1.023-3.078-0.453-3.14,1.139
			C67.302,58.305,67.967,58.963,69.129,59.133z M70.271,62.268c-0.941,0.01-1.422,0.479-2.566,0.281
			c-1.865-0.127-1.971-2.016-3.986-1.988c-0.16,0.406-0.446,0.693-0.857,0.85c0.449,2.971,3.086,3.75,6.268,3.991
			c0.666-0.092,1.065-0.45,1.992-0.288c1.387-0.92,4.637-2.285,2.851-4.553C71.994,60.381,71.541,61.732,70.271,62.268z"/>
	</g>
</g>
</svg>
