<?xml version="1.0" encoding="utf-8"?>
<!-- Generator: Adobe Illustrator 17.0.0, SVG Export Plug-In . SVG Version: 6.00 Build 0)  -->
<!DOCTYPE svg PUBLIC "-//W3C//DTD SVG 1.1//EN" "http://www.w3.org/Graphics/SVG/1.1/DTD/svg11.dtd">
<svg version="1.1" id="Layer_1" xmlns="http://www.w3.org/2000/svg"  x="0px" y="0px"
	 width="120px" height="120px" viewBox="0 0 120 120" enable-background="new 0 0 120 120" xml:space="preserve">
<g id="linkedin">
	<g>
		<path d="M38.615,25.979c-1.817-0.031-3.127-0.576-5.212-0.345c-0.212,0.019-0.408,0.05-0.349,0.345h-0.693
			c-0.656-0.078-0.769,0.394-1.389,0.351c-1.935,1.19-3.179,3.073-4.519,4.866c-0.036,0.888-0.197,1.656-0.694,2.084
			c-0.025,2.577-0.081,5.176,0.347,7.297c1.52,1.955,2.834,4.117,5.562,4.867c0.21,0.017,0.408,0.049,0.348,0.347
			c7.249,0.53,11.48-1.96,13.203-6.95C46.868,32.076,42.711,28.154,38.615,25.979z M33.751,38.84
			c-0.921-1.398-1.016-3.617-1.39-5.561c2.047-2.709,6.662-0.679,6.604,2.78C38.57,38.329,36.617,39.036,33.751,38.84z
			 M103.952,91.661c0.249-4.882-0.572-8.691-0.351-13.552c0.217-2.532-0.604-4.028-0.346-6.603c-0.216-0.944,0.439-2.76-0.347-3.13
			c-0.214-0.943,0.442-2.76-0.349-3.127c-0.938-8.332-5.099-13.44-9.035-18.767c-3.303-1.562-6.572-3.155-10.772-3.823
			c-3.328-0.2-5.853,0.402-8.688,0.695c-0.866,0.871-2.491,0.985-3.478,1.736c-0.724,0.204-1.122,0.732-1.735,1.044
			c-0.004,0.46-0.61,0.317-0.694,0.694c-0.39-0.036-0.544,0.507-0.696,0c0.135-2.449,0.025-4.661-1.043-5.906
			c-0.986-0.06-1.449-0.638-2.434-0.696c-4.97,0.823-9.852,1.733-12.854,4.519c0.251,2.216-0.124,4.067,0,6.95
			c-0.103,1.408-0.6,2.414-0.696,3.824c-0.406,8.281,0.813,14.937,1.39,22.239c0.879,6.999,1.756,13.996,3.472,20.157
			c1.144,1.406,2.422,2.68,3.825,3.82c5.4,0.604,13.368,1.21,14.248-3.82c0.177-2.723-1.438-3.658-1.737-5.908
			c-1.176-5.66-1.157-12.508-2.087-18.418c0.252-3.709-0.38-8.055,0-10.773c0.904-1.299,2.069-2.335,4.178-2.432
			c3.58,0.816,5.213,3.583,6.943,6.254c1.115,7.228,3.725,12.959,3.128,21.896c0.966,2.978,0.666,7.215,1.741,10.078
			c0.46,0.35,1.291,0.327,1.391,1.043c0.618,0.19,1.443,0.177,1.734,0.694c4.882-0.33,11.376,0.948,14.25-1.391
			c0.326-1.189,1.087-2.152,0.347-3.475C103.259,93.98,104.064,93.279,103.952,91.661z M97.695,93.748
			c-1.461,0.738-4.231,0.169-6.254,0.348c-0.559-1.412-0.53-3.41-1.045-4.865c0.06-11.064-2.258-19.75-5.908-27.106
			c-2.159-2.473-4.383-4.881-7.295-6.602c-0.493,0.029-0.986,0.056-1.043-0.349h-3.479c-1.007,0.378-2.454,0.325-3.128,1.042
			c-1.461-0.071-1.458,1.32-2.778,1.391c-0.707,1.146-1.27,2.438-2.086,3.475c-0.029,0.552,0.168,1.327-0.346,1.391
			c0.01,3.256,0.103,6.588-0.35,9.383c0.543,7.104,0.257,15.033,1.394,21.547c-1.591-0.248-3.529,0.393-4.175,0v-2.435
			c-0.373-1.131-1.204-1.806-1.386-3.127C60,82.994,60.93,77.206,60.511,72.896c-0.489-0.859-1.196-0.612-2.088-0.35
			c1.3-4.378,3.081-8.275,3.479-13.552c-0.493-0.897-0.814-1.968-2.083-2.087c-2.067,0.022-2.691,1.479-2.781,3.478
			c-0.575-0.889-0.59-2.331-0.346-3.127c-0.795-0.596-0.129-2.655-0.351-3.825c-0.149-0.661-0.747-0.873-0.695-1.737
			c-0.757,0.062-1.103-0.285-1.043-1.043v-3.127c1.798-1.505,6.017-2.385,7.649-0.348c1.093,1.633-0.775,2.631,0,4.169
			c0.461,0.349,1.046,0.573,1.388,1.044c1.949,0.211,2.812-0.66,3.475-1.738c0.804,0.471,1.152,1.396,2.779,1.043
			c2.566-0.906,4.354-2.597,7.299-3.128h6.602c2.387,0.513,4.059,1.737,6.258,2.433c3.264,4.847,6.569,9.646,7.297,17.029
			c-0.027,2-0.074,4.011,0.348,5.561v4.518C98.193,82.643,98.318,89.234,97.695,93.748z M41.049,64.557
			c-0.031-5.182,0.272-10.7-1.387-14.248c-2.141-2.264-7.117-1.692-11.472-1.739c-0.499,0.195-0.847,0.541-1.044,1.042
			c-2.051,1.918-1.287,7.188-1.735,10.775c-0.677,3.374-0.69,7.419-1.044,11.121C23.756,79,24.114,87.47,24.02,95.486
			c0.755-0.061,0.158,1.229,0.348,1.738c0.687,0.818,1.203,1.805,1.739,2.776c0.477,1.033,1.489,1.522,2.434,2.088
			c4.384-0.019,7.667-1.139,11.468-1.737c0.647-0.974,1.671-1.576,1.739-3.127c0.207-1.531,2.203-1.272,2.084-3.13
			c-0.213-4.913-0.987-9.75-1.389-14.597C42.028,74.516,41.552,69.561,41.049,64.557z M30.973,94.789
			c-1.223-12.713,0.669-25.262,0.695-37.88c1.06-0.21,1.81-0.736,2.781-1.041h0.691c-0.576,13.356,0.837,25.475,2.087,37.88
			C34.771,93.725,33.045,94.432,30.973,94.789z"/>
	</g>
</g>
</svg>
