<?xml version="1.0" encoding="utf-8"?>
<!-- Generator: Adobe Illustrator 17.0.0, SVG Export Plug-In . SVG Version: 6.00 Build 0)  -->
<!DOCTYPE svg PUBLIC "-//W3C//DTD SVG 1.1//EN" "http://www.w3.org/Graphics/SVG/1.1/DTD/svg11.dtd">
<svg version="1.1" id="Layer_1" xmlns="http://www.w3.org/2000/svg"  x="0px" y="0px"
	 width="120px" height="120px" viewBox="0 0 120 120" enable-background="new 0 0 120 120" xml:space="preserve">
<g id="vimeo">
	<g>
		<path d="M103.604,45.481c-0.414-1.895-0.389-3.721-0.854-5.412c-0.381-1.38-1.255-3.38-1.992-3.984
			c-0.096-0.08,0.068-0.469,0-0.574c-0.262-0.384-0.907-0.573-1.142-0.854c-0.18-0.214-0.129-0.652-0.286-0.851
			c-0.146-0.194-0.573-0.217-0.565-0.574c-2.291-1.601-4.85-2.937-8.262-3.415H86.8c-2.388,0.464-4.838,0.859-6.838,1.708
			c-2.299,0.646-3.924,1.969-5.982,2.848c-0.638,0.881-1.398,1.638-2.278,2.279c-0.255,0.504-0.687,0.833-0.853,1.425
			c-0.668,0.092-0.277,1.241-0.857,1.426c-0.703,3.424,0.775,6.201,2.564,7.975c1.485,0.792,4.189,0.37,5.125,1.71
			c-0.748,4.184-3.365,6.506-3.986,10.824c-0.916,1.549-1.401,3.534-1.993,5.412c-1.037,1.525-1.333,3.792-3.701,3.988
			c-2.981-0.436-3.407-3.432-4.274-5.983c0.045-1.753-0.615-2.8-0.57-4.558c-0.174-0.682-0.409-1.301-0.284-2.279
			c-0.651-0.297,0.135-2.035-0.569-2.279c-0.273-3.234-0.847-6.177-1.139-9.4c0.229-3.74-0.721-6.305-1.424-9.115
			c-0.488-0.65-1.059-1.221-1.709-1.708c-0.151-0.422-0.424-0.718-0.57-1.138c-0.785,0.121-0.271-1.065-0.854-1.142
			c-0.544-1.925-2.202-2.739-3.706-3.704h-7.12c-0.365,0.018-0.395,0.37-0.854,0.285c-3.89,1.809-6.259,5.137-9.688,7.406
			c-1.677,2.879-4.152,4.962-5.692,7.977c-1.769,2.888-4.22,5.092-5.132,8.831c-0.102,2.667,0.287,4.839,2.277,5.413
			c1.504,0.265,1.505-0.965,2.568-1.14c0.375-0.952,1.611-1.048,2.277-1.709c1.124-0.491,2.188-1.04,3.414-1.423
			c1.048-0.668,1.741-1.682,3.14-1.997c1.868,7.15,4.585,13.452,6.551,20.512c2.163,6.948,4.045,14.183,6.838,20.509
			c1.1,1.08,2.108,2.26,3.133,3.42c0.9,0.235,1.445,0.828,1.993,1.424c0.703,0.433,0.507,1.768,1.706,1.707
			c1.355-0.106,1.5-0.786,2.851-0.284c1.185,0.337,2.68,0.358,3.986,0.571c1.9-0.571,3.89-1.051,5.699-1.711
			c4.062-2.683,7.019-6.461,9.969-10.254c3.125-3.619,6.381-7.102,9.115-11.108c1.668-1.659,2.801-3.843,4.271-5.7
			c1.266-2.15,2.708-4.124,3.703-6.548c2.515-4.324,4.199-9.478,5.412-15.098C103.232,47.768,103.363,46.572,103.604,45.481z
			 M68.566,74.253h0.854c-0.008,0.276-0.35,0.22-0.57,0.283h-0.853C68.002,74.262,68.344,74.318,68.566,74.253z M98.473,51.181
			c0.117,0.687-0.516,0.617-0.283,1.423c-0.438,0.322-0.698,0.818-1.138,1.142c-0.262,1.827-1.366,2.808-1.709,4.558
			c-0.985,1.099-1.29,2.885-2.278,3.986c-1.025,3.056-3.319,4.849-5.129,7.122c-1.278,0.145-1.235,1.611-2.85,1.421
			c-1.548,1.776-2.691,3.958-4.271,5.7c-1.574,1.65-2.295,4.156-3.416,6.266c-0.545,0.533-0.717,0.033-1.428,0
			c-0.367,1.721-1.82,2.357-2.848,3.42c-1.05,0.941-2.175,1.809-3.135,2.85c-0.684-1.02,0.994-3.032-0.281-3.989
			c-1.663,0.142-2.034,1.575-2.566,2.849c-0.971,0.838-0.98,2.623-1.992,3.42c-0.956,0.674-1.839-0.687-3.417-0.285
			c0.469-1.431,0.576-3.22,1.138-4.557c0.25-1.4,1.335-2.891,0.284-3.99c-3.371,0.237-3.52,3.696-4.556,6.268
			c-1.217-0.207-1.247-1.6-1.993-2.276c-0.055-3.759,1.482-5.923,1.706-9.401c-1.166-0.662-2.304,0.826-2.846,1.711
			c-0.729,0.975-1.302,2.119-1.712,3.416c-1.023-0.59-1.325-1.9-1.991-2.85c0.467-2.759,1.079-5.374,1.708-7.975
			c0.518-2.62,1.977-4.291,1.995-7.406c-2.802-0.143-2.654,2.666-3.703,4.27c-0.559,2.103-1.351,3.973-1.71,6.269
			c-0.948-0.004-0.289-1.606-0.853-1.992c-0.3-0.651-0.184-1.718-0.571-2.278c0.533-5.258,1.283-10.302,1.709-15.667
			c-2.17-0.271-1.58,2.22-2.566,3.133c-0.601,1.299-0.864,2.933-1.143,4.558c-0.763-1.418-0.904-3.458-1.421-5.125
			c-0.513-1.674-0.741-3.628-1.138-5.416v-5.981c0.113-0.684-1.299,0.158-0.854-0.855c0.085-0.655-0.824-0.318-0.856-0.854
			c-2.173,0.393-2.989,2.138-4.839,2.85c-0.984,1.482-2.871,2.062-3.991,3.417c-1.111-0.246-2.65-0.503-3.7,0
			c0.178-2.004,1.688-2.678,2.275-4.273c3.263-1.106,4.354-4.381,7.692-5.409c0.735-3.354,3.474-4.691,5.411-6.836
			c1.463,0.465,3.104-0.721,4.845-0.855c0.71,1.377,1.95,2.223,2.847,3.417c0.128,2.913,1.563,4.516,2.566,6.551V47.2
			c1.037,7.317,2.685,14.024,3.701,21.366c0.808,1.567,1.508,3.236,2.565,4.556c0.1,3.034,1.343,4.923,3.417,5.983
			c1.713-0.188,3.34-0.455,4.561-1.14c2.051-1.748,3.174-4.422,4.842-6.551c1.4-2.304,2.5-4.91,3.987-7.121
			c0.633-3.074,1.63-5.773,2.563-8.547c1.082-2.623,1.631-5.772,3.131-7.975c-0.66-1.139,0.574-1.805,0-2.852
			c0.574-0.567,0.977-1.299,0.854-2.564c-0.401-1.016-1.575-1.268-3.134-1.138c-0.736,0.024-1.426,0.351-1.992,0.571
			c-0.566,0.218-0.67,0.38-1.424,0.566c-0.268,0.07-0.167,0.241-0.285,0.285c-1.085,0.419-2.216,1.168-3.986,0.855
			c-0.693-0.639-1.518-1.141-1.994-1.992c0.524-2.039,2.342-2.784,3.699-3.989c0.504,0.078,1.426-0.8,1.708,0
			c2.084-2.097,5.544-2.817,8.833-3.7c5.074,0.526,10.051,1.153,11.68,5.123c0.146,1.758-0.789,2.442-0.567,4.275
			c0.104,1.412,0.604,2.434,1.14,3.42c-0.029,1.166-0.056,2.334,0.285,3.131C98.456,49.827,98.969,51.007,98.473,51.181z"/>
	</g>
</g>
</svg>
