<?xml version="1.0" encoding="utf-8"?>
<!-- Generator: Adobe Illustrator 17.0.0, SVG Export Plug-In . SVG Version: 6.00 Build 0)  -->
<!DOCTYPE svg PUBLIC "-//W3C//DTD SVG 1.1//EN" "http://www.w3.org/Graphics/SVG/1.1/DTD/svg11.dtd">
<svg version="1.1" id="Layer_1" xmlns="http://www.w3.org/2000/svg"  x="0px" y="0px"
	 width="120px" height="120px" viewBox="0 0 120 120" enable-background="new 0 0 120 120" xml:space="preserve">
<g id="instagram">
	<g>
		<path d="M106.488,69.633c-0.049-9.352-1.34-18.699-1.182-27.861c-0.091-3.077-0.334-5.994-0.593-8.896
			c-0.413-1.171-0.435-2.731-0.595-4.15c-1.014-0.665-0.866-2.496-1.78-3.262c-1.655-0.911-4.692-0.443-6.813-0.886
			c-2.565-0.104-4.894-0.449-7.416-0.597c-7.558-0.394-15.512-0.295-23.414-0.295c-7.812,0-15.439-0.566-22.237-1.48h-8.597
			c-0.377,0.016-0.412,0.38-0.888,0.296c-2.335,0.133-4.203,0.736-6.225,1.185c-0.82,0.464-1.646,0.919-2.668,1.187
			c-0.532,0.752-2.003,0.565-2.371,1.481c-0.725,0.826,0.723,1.762,0,2.371v3.557c0.678,0.51,0.108,2.264,0.296,3.262v3.856
			c-0.065,5,0.521,9.36,0.295,14.522c1.826,10.784,1.461,25.526,0.299,36.757c0.606,2.262,1.417,4.315,1.778,6.819
			c0.999,1.867,1.305,4.422,2.666,5.931c1.961,0.805,4.814,0.725,7.411,0.893c1.495,0.381,2.604,1.146,4.45,1.186
			c11.102-0.818,21.459-0.602,32.903-0.892c10.561,0.937,22.655,0.737,32.313-0.89c0.764-0.521,0.503-2.066,0.89-2.966
			c-0.217-1.5,0.811-1.753,0.889-2.963C106.416,88.457,106.541,79.107,106.488,69.633z M55.801,45.324
			c2.954-0.598,5.78-1.331,9.484-1.187c2.77,0.296,5.025,1.103,7.408,1.78c0.453,0.718-0.952,2.135,0.599,2.669v0.296
			c0.228,0.065,0.582,0.008,0.591,0.299c1.739,0.136,3.102,0.651,4.152,1.48c1.758,0.213,2.094,1.856,4.443,1.48
			c-0.354,0.832-0.328,2.049-0.297,3.263c1.268,4.616,1.858,10.97,1.187,16.602c-0.644,0.639-0.841,1.729-1.187,2.668
			c-1.211,1.258-1.877,3.062-3.261,4.148c-0.369,0.919-0.979,1.591-1.774,2.078c-0.453,0.832-0.803,1.768-1.783,2.072
			c-1.164,0.639-2.254,0.043-3.258-0.297c-1.744,0.633-3.531,1.217-4.744,2.372c-3.186-0.374-6.436-0.683-9.487-1.187
			c-0.945-0.541-1.903-1.065-3.261-1.187c-0.881-0.797-1.935-1.424-3.262-1.776c-0.394-0.498-1.317-0.463-1.777-0.892
			c-0.774-0.118-0.894-0.885-1.78-0.893c-0.461-1.61-1.728-2.416-2.077-4.146c-0.879-1.293-1.202-3.143-1.777-4.743
			c-0.167-5.599,0.358-10.513,1.483-14.822c1.35-2.308,3.04-4.271,4.444-6.522c0.971,0.079,1.426-0.35,1.484-1.187
			c1.193,0.208,1.693-0.282,2.669-0.294C55.016,47.109,55.059,45.87,55.801,45.324z M49.277,34.653
			c-0.46-1.026-0.261-2.7-0.294-4.148c-0.027-1.112,1.084-1.089,1.186-2.076c-0.012-0.288-0.364-0.23-0.594-0.298
			c0.494-0.568,2.734-0.378,3.258,0c0.514,2.098-1.384,1.776-2.073,2.671c0.039,0.653,1.258,0.126,1.78,0.295
			c0.114,3.333-0.231,5.844,0,8.598h-1.78c-0.028,0.915,0.893,0.883,1.78,0.89c-0.231,1.116,0.36,1.419,0.293,2.373
			c-0.882,0.596-2.795,0.165-4.146,0.294C48.284,40.932,49.609,37.883,49.277,34.653z M46.611,28.429
			c0.344-0.049,0.523,0.063,0.591,0.296c0.699,0.988,0.037,2.666-0.296,3.557C46.227,31.584,46.8,29.621,46.611,28.429z
			 M47.203,35.543c-0.517-0.271-0.657-0.925-0.591-1.779C47.127,34.037,47.264,34.692,47.203,35.543z M47.203,40.879
			c-0.228,0.541-0.319-0.176-0.296-0.594C47.135,39.745,47.225,40.465,47.203,40.879z M46.611,41.771
			c0.681-0.094,0.327,0.855,0.888,0.887c-0.033,0.754-1.106,0.699-1.484,0.299C46.17,42.518,46.457,42.207,46.611,41.771z
			 M37.42,37.025c0.024-0.422,0.05-0.838-0.297-0.891c-0.284-2.862,0.506-5.523,0-7.706c0.976-0.604,3-0.161,4.446-0.298v4.446
			c-0.344,0.251-0.793,0.394-1.479,0.298c-0.212,1.096,1.264,0.514,1.479,1.188C41.6,37.39,41.351,41,42.164,43.545
			c-2.208-0.23-3.539,0.417-5.632,0.298c0.376-2.392-0.071-5.604,2.073-6.225C38.562,37.068,37.602,37.436,37.42,37.025z
			 M35.346,37.025c-0.798,0.081-0.846-2.088-0.3-2.372C36.325,34.677,36.018,36.609,35.346,37.025z M34.751,40.879
			c0.302-1.217,0.132-1.185,0.295-2.666C35.938,38.264,36.061,41.219,34.751,40.879z M35.642,32.875
			c-1.028,0.209-1.067-1.039-0.596-1.484C36.072,31.184,36.107,32.432,35.642,32.875z M35.642,28.429
			c0.126,0.62-0.202,0.784-0.296,1.188c-0.685,0.089-0.33-0.857-0.892-0.893C34.548,28.323,35.197,28.479,35.642,28.429z
			 M34.751,42.957c0.579-0.12,0.431,1.346-0.297,0.887C34.609,43.604,34.763,43.361,34.751,42.957z M32.082,28.429
			c0.113,1.013-1.712,1.25-1.479,0H32.082z M28.229,28.725c-0.132,0.856-1.272,0.701-1.48,1.481
			C25.912,29.543,27.074,28.38,28.229,28.725z M26.45,31.689c0.88-0.801,1.76-1.6,2.669-2.371c-0.085-0.479,0.28-0.511,0.299-0.89
			h0.89c0.397,1.487-1.018,1.157-1.189,2.076c0.082,0.475-0.281,0.509-0.295,0.886c0.079,1.309,0.474,2.295,0.295,3.856
			c-1.054,0.031-1.077,1.096-2.371,0.888C26.839,34.463,26.224,33.501,26.45,31.689z M26.748,44.438v-6.225
			c0.761-0.72,1.546-1.421,2.371-2.078c1.153,1.91,0.697,5.434,1.778,7.411C29.82,44.154,27.963,43.974,26.748,44.438z
			 M97.895,87.717c-0.428,3.727-0.619,7.682-1.479,10.967c-11.283,0.479-23.506,0.019-34.687,0.598
			c-0.776,0.177-1.068-0.122-0.89-0.893c-0.988,0-1.008,0.965-2.076,0.893c0.784-1.311,1.707-3.508,0.592-5.041
			c-3.114,0.049-3.114,3.208-4.443,5.041c-2.676-0.206-4.441,0.496-7.118,0.294c0.705-2.753,2.928-3.99,3.557-6.815
			c-1.541-2.146-3.864,0.538-4.74,1.777c-0.796,1.875-2.174,3.161-2.966,5.038h-3.854c0.932-1.83,1.912-3.616,2.963-5.335
			c0.669-1.999,2.442-2.895,2.668-5.338c-0.615-1.094-1.642-0.114-2.668,0c-0.48,0.709-1.063,1.308-1.481,2.076
			c-0.908,1.467-1.958,2.787-2.669,4.447c-0.708,0.812-1.308,0.014-2.073,0.887c-1.516,1.06-2.266,2.875-3.857,3.855
			c-0.68-0.234,0.151-1.393,0.597-1.484c0.178-0.705-0.375-2.148,0.294-2.371c0.247-1.431,0.828-2.53,1.48-3.554
			c0.466-2.899,2.037-4.685,2.671-7.414c-2.183,0.388-2.634,2.509-3.856,3.854c-0.83,1.74-2.118,3.018-2.667,5.04
			c-0.68-0.507-0.11-2.263-0.297-3.261c0.478-2.289,1.165-4.369,1.484-6.818c0.518-0.86,0.674-2.092,0.89-3.26
			c0.657-0.811,0.181-2.381-0.299-2.969c-0.88,0.109-1.461,0.519-1.778,1.186c-0.749-0.126-0.754,1.975-1.185,1.188
			c-0.176-10.1-1.763-18.793-1.781-29.047c0.102-1.29-0.714-1.656-0.889-2.671c6.361,0.108,12.187,0.352,18.676,0.89
			c-0.345,0.542-0.775,1.004-1.186,1.48c-0.564,0.275-0.881,0.677-1.479,1.186c-2.36,6.457-3.806,15.557-2.37,24.014
			c0.892,2.267,2.301,4.021,3.851,5.632c3.54,1.895,6.385,4.486,9.784,6.521c6.643,1.412,14.996,1.442,21.638,0
			c0.921-0.465,1.889-0.879,2.671-1.483c5.326-4.851,10.752-9.601,11.562-18.972v-5.338c-0.771-6.242-2.688-11.345-6.82-14.228
			c1.292-0.86,4.288,0.169,6.521,0.297c0.869,0.051,1.744,0.052,2.67,0c1.59-0.094,3.619-0.216,5.633,0
			c0.56,0.728,0.443,2.124,0.888,2.966c-0.239,6.575-0.752,12.884-0.594,19.861c0.399,1.774,0.495,3.853,0.893,5.63
			C99.324,80.848,98.755,84.43,97.895,87.717z M99.375,44.138c-2.494-0.468-4.814-1.108-7.411-1.479
			c0.282-1.301,3.12-0.039,3.854-0.887c1.502-0.87,1.152-3.594,1.187-5.931c0.129-1.357,0.449-2.513,0.297-4.151
			c-1.563-3.714-6.963-1.644-11.267-1.779c-0.876,2.803-1.834,7.03-1.186,10.375c0.658,1.913,4,1.142,5.93,1.781
			c-0.547,1.295-2.688,0.224-3.854,0.296c-1.157-0.325-2.761-0.204-3.853-0.591c-8.924,0.302-16.729,0.014-25.496,0.591
			c0.458-4.872,0.248-9.626-0.295-14.231h12.153c-1.346,1.422-3.561,1.978-5.04,3.26c-1.717,0.954-3.363,1.973-4.446,3.558
			c0.974,0.523,2.091-0.957,2.963-1.48c1.388-0.29,1.873-1.487,3.261-1.778c1.65-1.711,4.278-2.441,6.52-3.559
			c1.476-0.09,2.724,0.05,3.857,0.298c5.01,0.029,9.59,0.493,14.822,0.296c2.396,0.566,5.66,0.271,7.707,1.186
			c0.419,1.162,0.902,2.262,1.188,3.558C100.305,37.359,99.691,40.602,99.375,44.138z M76.551,29.617
			C76.982,29.43,76.518,29.257,76.551,29.617L76.551,29.617z M76.551,29.617c-2.064,0.6-3.978,1.358-5.338,2.664
			C73.105,31.507,75.35,31.085,76.551,29.617z M80.701,31.986C81.131,31.802,80.669,31.629,80.701,31.986L80.701,31.986z
			 M73.883,35.543c2.838-0.615,4.609-2.307,6.818-3.557c-1.707,0.073-2.312,1.25-3.855,1.481
			C76.008,34.311,74.502,34.483,73.883,35.543z M71.213,32.281C70.783,32.465,71.24,32.641,71.213,32.281L71.213,32.281z
			 M68.547,34.653C68.979,34.474,68.52,34.295,68.547,34.653L68.547,34.653z M68.254,34.948c0.246,0.057,0.275-0.116,0.293-0.295
			C68.295,34.6,68.264,34.77,68.254,34.948z M67.954,35.247c0.251,0.055,0.28-0.116,0.3-0.299
			C67.996,34.898,67.971,35.064,67.954,35.247z M64.695,37.619c1.352-0.523,2.395-1.357,3.259-2.372
			C66.596,35.768,65.555,36.604,64.695,37.619z M73.584,41.473c2.083-0.191,2.926-1.623,4.744-2.073
			c1.109-1.165,3.061-1.489,3.854-2.966c-2.183,0.089-2.988,1.559-4.744,2.074C76.325,39.665,74.504,40.121,73.584,41.473z
			 M64.695,37.619C63.461,37.334,64.635,38.508,64.695,37.619L64.695,37.619z M62.615,39.1c0.083,0.084,0.452-0.143,0.298-0.299
			C62.831,38.722,62.463,38.946,62.615,39.1z M73.584,41.473C73.154,41.656,73.613,41.83,73.584,41.473L73.584,41.473z
			 M69.137,48.587c-0.873-0.905-2.642-0.913-3.852-1.481c-2.722-0.15-4.777,0.363-6.819,0.891c-1.186,0.591-2.371,1.186-3.554,1.773
			c-1.036,0.646-1.735,1.631-2.965,2.078c-0.804,0.875-1.375,1.988-2.67,2.372c-0.017,0.868-0.675,1.098-1.187,1.479
			c-0.349,0.446-0.368,1.215-0.887,1.483c-0.026,0.472,0.14,1.134-0.296,1.185c0.425,5.902,1.136,11.513,2.668,16.308
			c1.118,2.433,3.809,3.302,5.63,5.04c2.299,1.158,5.185,1.734,8.303,2.074c1.084-0.203,2.156-0.413,3.557-0.298
			c4.72-0.816,8.189-2.876,10.972-5.632c0.388-1.094,0.981-1.979,1.774-2.668c-0.99-2.619,1.146-4.284,1.779-6.228
			c0.008-5.246-0.785-9.688-2.374-13.336c-1-2.26-3.59-2.934-5.333-4.447c-0.23-0.069-0.588-0.01-0.591-0.299
			C72.244,48.372,70.434,47.972,69.137,48.587z M55.801,65.482c-0.442-0.248-0.429-0.955-0.596-1.479
			C56.203,63.695,55.669,64.924,55.801,65.482z M56.095,66.67c0.157-0.458,0.309-0.02,0.298,0.295
			C56.235,67.422,56.081,66.984,56.095,66.67z M57.874,58.666c0.059-0.336,0.296-0.166,0.296,0
			C58.117,59.002,57.874,58.83,57.874,58.666z M64.396,50.366c-0.794,1.007,0.161,2.251,0.299,3.263
			C63.508,53.479,62.458,50.164,64.396,50.366z M65.878,65.781c-0.155-0.151,0.216-0.379,0.296-0.299
			C66.328,65.636,65.961,65.861,65.878,65.781z M68.841,77.044c0.136-0.429,0.261,0.032,0.595,0
			C69.363,77.42,68.848,77.343,68.841,77.044z M77.438,66.965c-0.91-0.221-0.566,0.814-1.481,0.596
			c0.269-0.623,0.462-1.319,0.892-1.778C77.37,65.854,77.521,66.289,77.438,66.965z M72.993,52.143
			c0.823,0.464,1.725,0.847,2.37,1.486c0.33,0.858,0.947,1.422,1.482,2.07c0.225,3.039,0.698,5.822,0.592,9.189
			c-1.006,0.383-1.715,1.055-2.666,1.485c-3.047-0.021-5.304-0.825-7.41-1.779c-0.668-1.013-1.389-1.971-2.076-2.964v-4.15
			c0.664-0.72,1.246-1.522,1.779-2.372c0.887-0.495,1.983-0.783,1.775-2.371c-0.152-0.238-0.308-0.484-0.294-0.891
			c0.617,0.174,0.957,0.623,1.479,0.891C71.285,52.81,71.624,51.96,72.993,52.143z"/>
	</g>
</g>
</svg>
