<?xml version="1.0" encoding="utf-8"?>
<!-- Generator: Adobe Illustrator 17.0.0, SVG Export Plug-In . SVG Version: 6.00 Build 0)  -->
<!DOCTYPE svg PUBLIC "-//W3C//DTD SVG 1.1//EN" "http://www.w3.org/Graphics/SVG/1.1/DTD/svg11.dtd">
<svg version="1.1" id="Layer_1" xmlns="http://www.w3.org/2000/svg"  x="0px" y="0px"
	 width="120px" height="120px" viewBox="0 0 120 120" enable-background="new 0 0 120 120" xml:space="preserve">
<g id="behance">
	<g>
		<path d="M61.646,57.78c-2.308-0.288-4.286-0.893-6.754-1.016c1.128-1.351,2.756-2.199,3.715-3.715
			c0.539-2.502,2.224-3.854,2.7-6.418c0.254-2.394-0.377-3.899-0.677-5.74c-1.65-2.631-4.154-4.402-6.753-6.081
			c-2.14-2.252-5.999-2.785-8.447-4.729c-5.217-0.303-10.058-0.977-15.872-0.677c-3.621,0.771-8.66,0.125-12.839,0.341
			c-1.385,3.229-1.728,7.504-2.022,11.817c-0.722,4.012-0.73,8.733-0.679,13.514c0.654,3.85,1.427,7.581,2.022,11.482
			c-0.192,7.963,1.587,13.957,1.691,21.619c0.699,0.991,0.945,2.436,1.351,3.713c0.749,0.94,1.546,1.838,2.368,2.702
			c2.373,1.386,7.56,1.236,10.811,0.681c3.857-0.308,7.28-1.049,11.144-1.352c6.575-1.648,14.279-2.164,19.932-4.73
			c0.136-0.424,0.433-0.691,1.015-0.676c1.613-1.759,3.083-3.672,4.39-5.74c0.749-3.639,1.806-6.974,1.688-11.486
			C69.281,65.004,66.377,60.479,61.646,57.78z M52.191,86.491c-1.179,0.047-0.545-1.711-1.692-1.691
			c-2.08,0.397-2.943,2.011-4.389,3.044c-1.099-0.199-1.573,0.227-2.366,0.336c0.219-1.699,2.146-1.681,2.366-3.38
			c-0.1-0.684-0.915-0.659-1.015-1.351c-2.587-0.33-3.39,1.115-4.392,2.365c-1.106,1.146-2.186,2.314-3.04,3.716
			c-1.138,0.214-3.14-0.436-3.716,0.339c-1.108-1.24,1.364-1.776,1.013-3.378c-2.068-0.155-3.319,0.512-4.051,1.688
			c-1.104-0.091-0.721,1.31-1.688,1.351c-0.438,0.464-1.469,0.333-2.366,0.339c0.249-1.854,2.525-3.223,1.351-5.406
			c-1.601,0.092-1.905,1.479-3.04,2.028c-0.648,0.655-1.437,2.374-2.364,1.688c0.304-3.748,2.795-5.313,3.376-8.785
			c-0.123-0.441-0.595-0.526-0.675-1.013c-1.462-0.225-2.09,0.386-2.701,1.013c-0.743-0.041-0.146-1.431-0.338-2.021
			c0.247-1.037-0.348-1.234-0.34-2.029c0.745-1.848,1.403-3.779,2.703-5.066c0.312-1.9,2.662-3.321,1.351-5.741
			c-2.39-0.365-3.02,1.03-3.714,2.364c-1.074-0.775,0.438-1.791,0.338-2.701c0.854-0.273,0.859-1.394,1.353-2.028
			c0.888-1.474,2.263-2.464,2.362-4.73c-0.714-0.913-2.485-0.027-3.039,0.341c-0.046,0.877-1.371,2.201-1.692,1.688
			c0.035-6.336-1.038-11.57-0.67-18.24c0.67-2.251,1.175-4.677,2.022-6.757c-0.181-0.27-0.351-0.547-0.336-1.012
			c4.11,0.413,8.521-0.666,11.482,1.352c1.507-0.185,3.046-0.334,4.39-0.676c7.839-0.517,11.952,2.687,15.878,6.077
			c0.584,1.445,0.828,3.227,0.674,5.404c-0.282-0.057-0.317,0.133-0.333,0.341c-1.756,4.66-6.579,6.258-7.771,11.482
			c0.216,1.249,1.895,1.032,3.377,1.014c-0.297,1.086,1.118,0.463,1.015,1.351c8.229,1.567,14.097,5.491,14.523,14.865
			C64.257,81.448,58.795,84.536,52.191,86.491z M78.539,46.968c0.936-0.15-0.27,1.843,0.673,1.688
			c-0.052,0.842,0.531,1.047,0.675,1.692c1.643,0.384,3.211,0.838,5.403,0.676c1.577-0.562,3.017-1.26,4.731-1.69
			c2.849,0.262,4.723-0.453,7.431-0.337c1.241-0.109,2.989,0.286,3.717-0.341c1.675,0.328,1.802-0.899,3.034-1.01
			c0.6-1.544,1.424-2.856,1.354-5.067c-0.423-1.601-1.019-3.035-2.025-4.054c-1.432-0.514-4.309-0.514-5.741,0
			c-2.117-0.071-4.437,0.547-6.754,0.676c-4.14,0.229-8.414-0.433-12.165,0.338c-0.457,0.559,0.277,1.973,0,3.376
			C79.012,44.518,78.271,45.242,78.539,46.968z M95.088,46.294c0.291-0.694,2.352-0.356,2.702,0
			C97.238,47.371,95.811,46.829,95.088,46.294z M88.331,42.242c1.567-0.573,4.221-0.059,5.743-0.679
			c1.951,0.153,3.459-0.142,5.062-0.336c1.67,0.128,3.569,0.036,3.719,1.688h-6.08c-1.211,0.368-2.627,0.526-3.717,1.016
			c-1.6-0.249-2.322,0.379-3.716,0.336c-1.502,0.188-2.088,1.289-3.716,1.35c-1.395-0.296-3.238-0.132-3.038-2.025
			C82.801,41.442,86.221,42.496,88.331,42.242z M40.704,50.688c1.429-0.831,3.662-0.843,4.727-2.032
			c1.629-0.734,2.794-1.938,2.704-4.39c-0.597-3.116-3.299-4.133-6.758-4.391c-2.975-0.738-7.15-0.275-10.131-1.017
			c-0.455,0.111-0.646,0.482-1.352,0.342c-2.271,2.262-3.401,9.036-1.35,12.498C32.857,52.885,36.578,50.789,40.704,50.688z
			 M33.273,42.915c2.988-0.601,7.67-0.64,9.119,1.352c0.028,1.272-1.693,0.784-2.027,1.69c-1.097,0.028-2.08,0.176-2.701,0.675
			c-2.031,0.334-3.438,1.293-5.742,1.351C31.121,46.096,32.307,44.077,33.273,42.915z M106.572,80.747
			c-0.996,0.354-1.178,1.526-1.688,2.366c-0.606,0.854-1.766,1.162-2.698,1.687c-1.854,0.054-3.642,0.041-5.074-0.337
			c-1.418-0.679-3.424,0.105-4.389-0.336c-1.266-1.322-2.478-2.705-3.039-4.73c2.779-1.049,6.961-0.692,9.793-1.688h3.717
			c3.1-0.958,6.496-1.609,8.109-4.057c0.289-3.329-0.889-5.19-1.017-8.104c-0.446-1.129-0.298-2.857-1.011-3.715
			c0.095-1.674-1.141-2.017-1.354-3.38c-3.262-2.366-6.842-4.417-11.82-5.067h-4.732c-3.168,0.547-5.607,1.82-7.768,3.379
			c-4.34,5.569-8.164,11.654-9.121,20.608c0.303,2.846,0.797,5.506,2.027,7.427c0.609,2.543,2.594,3.714,2.703,6.757
			c3.273,0.555,4.668,2.986,7.094,4.391c4.327,1.078,8.016,2.795,13.85,2.365c3.766-0.957,6.623-2.83,9.453-4.729
			c1.746-2.988,4.43-5.034,4.393-9.796C112.48,81.823,109.757,81.052,106.572,80.747z M110.625,86.491
			c-0.158,1.104-1.35,2.583-1.688,3.715c-1.148,0.43-1.281,1.872-2.703,2.026c-0.387,1.078-1.984,0.943-2.702,1.69
			c-3.146,0.056-4.628-0.325-7.431,0c-1.61-0.31-3.065-0.765-4.731-1.016c-1.095-0.816-2.39-1.44-3.712-2.026
			c-3.053-3.369-4.948-7.892-5.747-13.509c-0.402-6.942,1.03-12.448,3.718-16.89c0.67-1.109,1.438-2.459,2.364-3.044
			c0.248-0.312,0.616-0.508,1.018-0.675c5.866-0.242,10.813,0.442,14.185,2.703c0.769,0.921,1.496,1.882,2.363,2.702
			c0.678,3.487,1.998,6.335,2.365,10.13c-0.676,1.125-3.244,0.364-4.392,1.019c-1.933-0.244-3.021,0.359-4.728,0.334
			c-2.72,0.775-6.004,0.979-9.121,1.354c-1.084,0.268-1.476,1.229-2.367,1.689c0.235,0.906-0.698,0.65-1.012,1.015
			c-0.293,0.271-0.199,0.925-0.677,1.015c0.494,1.535,1.188,2.862,1.688,4.391c0.894,1.132,1.726,2.328,2.367,3.714
			c1.793,1.132,3.52,2.335,5.742,3.042c1.538-0.145,2.862-0.516,4.729-0.34c1.834-0.301,2.947-1.324,5.063-1.35
			c1.013-0.685,1.671-1.713,2.704-2.365c-0.156-1.061,0.912-0.894,1.014-1.688c-0.057-0.937,0.521-1.159,1.014-0.678
			C110.443,84.469,110.859,84.846,110.625,86.491z M86.979,71.965c1.242,0.756,2.578-0.404,4.059,0.335
			c3.562-0.821,6.161-2.614,10.133-3.038c0.523-0.601,0.93-1.318,1.348-2.022c0.582-0.546,0.838-1.419,0.678-2.703
			c-0.186-1.169-2.109-0.591-2.362-1.689c-0.742-0.722-2.001-0.929-2.703-1.69c-2.418-0.476-4.188-0.7-6.759-0.335
			c-0.701,0.532-1.377,1.1-2.359,1.35c-0.297,1.174-1.058,1.872-1.693,2.702C87.784,67.656,86.092,69.857,86.979,71.965z
			 M92.384,63.857c1.386,0.303,3.115,0.267,4.056,1.015c0.121,0.573-0.266,0.637-0.678,0.676c0.146,0.759,1.793,0.011,2.028,0.677
			c-1.751,0.948-4.155,1.252-5.746,2.363C91.191,67.385,92.139,65.088,92.384,63.857z M29.222,63.521
			c0.055,0.502-0.125,1.247,0.337,1.351C29.398,64.227,30.595,63.42,29.222,63.521z M56.58,68.251
			c-2.085-3.323-7.481-3.333-12.5-3.716c-4.238,0.824-9.356,0.771-13.511,1.689c-1.137,2.125-0.456,6.069-1.348,8.443
			c0.746,1.956-0.076,5.479,1.01,7.093c3.196,1.457,8.233,0.257,11.486-0.336c4.661,0.16,7.586-1.421,10.807-2.702
			c2.188-2.433,4.356-4.879,4.392-9.462C56.522,69.208,56.553,68.729,56.58,68.251z M50.835,74.669
			c-0.942,1.081-1.952,2.097-3.036,3.04c-2.166,0.2-4.13,0.598-6.422,0.674c-1.865,0.381-2.826,1.678-5.403,1.354
			c-0.897-1.02-2.037-1.791-2.025-3.715c-0.051-1.853-0.034-3.641,0.336-5.071c0.706-0.418,1.274-0.98,1.689-1.688
			c1.346-0.229,2.416-0.734,4.055-0.674c1.728-0.638,4.509-0.22,6.755-0.337c1.886,0.478,4.555,0.172,5.408,1.687
			C52.65,72.427,51.449,73.254,50.835,74.669z"/>
	</g>
</g>
</svg>
