<?xml version="1.0" encoding="utf-8"?>
<!-- Generator: Adobe Illustrator 17.0.0, SVG Export Plug-In . SVG Version: 6.00 Build 0)  -->
<!DOCTYPE svg PUBLIC "-//W3C//DTD SVG 1.1//EN" "http://www.w3.org/Graphics/SVG/1.1/DTD/svg11.dtd">
<svg version="1.1" id="Layer_1" xmlns="http://www.w3.org/2000/svg"  x="0px" y="0px"
	 width="120px" height="120px" viewBox="0 0 120 120" enable-background="new 0 0 120 120" xml:space="preserve">
<g id="foursquare">
	<g>
		<path d="M106.247,32.924c-0.017-0.984-0.854-1.146-0.599-2.402c-0.231-3.133,0.373-5.43,0.297-8.406
			c-0.297,0-0.357-0.244-0.6-0.302c-0.387,0.018-0.414,0.385-0.9,0.302c-0.416,0.24-0.869,0.393-1.2,0.602
			c-1.101,0.677-1.907,1.345-2.701,2.1c-3.336,3.152-6.381,6.869-9.312,9.91c-1.096,0.203-1.463,1.135-2.403,1.5
			c-0.575,0.723-1.604,0.998-2.103,1.805c-2.006,0.592-2.969,2.232-4.799,3c-1.597-1.309-2.744-3.062-3.91-4.805
			c-2.319-1.979-4.258-4.347-6.904-6.004c-0.863-1.236-2.285-1.92-3.301-3.004c-1.326-0.875-2.338-2.07-4.208-2.402h-3
			c0.035,0.504-0.593,0.123-0.9,0.3c-0.496,0.28-0.986,1.236-1.205,1.503c-0.204,0.249-0.378,0.642-0.599,0.898
			c-2.644,3.099-5.585,5.688-8.408,8.41c-0.229-1.272-1.396-1.602-2.1-2.403c-0.847-0.654-1.884-1.122-2.704-1.802
			c-2.109-0.793-5.205-0.601-8.11-0.601c-0.954,0.645-2.372,0.831-3.302,1.503c-0.885,0.711-2.114,1.088-3.001,1.804
			c-1.21,0.491-2.56,0.843-3.608,1.499c-1.156,1.041-1.625,2.775-2.702,3.902c-0.113,0.987-0.877,1.325-1.198,2.104
			c-0.488,0.712-0.675,1.726-1.203,2.402c-0.381,4.783,0.975,7.833,2.102,11.112c0.98,0.819,1.571,2.032,2.405,3.001
			c0.824,1.077,2.074,1.726,2.402,3.304c-0.729,1.171-1.737,2.062-3.004,2.702c-0.673,1.226-2.41,1.394-2.701,3.003
			c0.036,1.464-0.164,3.162,0.297,4.204c1.979,3.328,5.524,5.087,7.809,8.106c2.812,2.598,5.491,5.316,8.711,7.508
			c1.788,2.813,4.182,5.025,6.605,7.203c1.99,2.717,4.57,4.842,6.604,7.51c1.284,0.32,1.507,1.695,3.007,1.805
			c1.336,0.26,1.015,2.186,2.699,2.1c4.435-1.371,7.565-4.047,11.113-6.307c3.683-2.115,6.745-4.865,10.209-7.206
			c1.396-1.509,3.407-2.396,4.804-3.901c1.734-1.172,3.6-2.211,5.104-3.605c3.648-2.159,7.658-3.955,10.813-6.605
			c0.285-1.016,1.022-1.576,1.499-2.404c0.084-1.213,0.518-2.085,0.6-3.303c-0.606-0.758,0.652-1.572,0.305-3.002
			c-0.881-1.922-2.793-2.813-3.907-4.506c-1.265-0.136-1.382-1.419-2.401-1.8c-0.33-1.17-1.894-1.112-2.104-2.403
			c3.102-2.205,7.462-3.151,10.512-5.401c1.1-2.908,0.604-7.408,1.202-10.813C106.584,40.669,106.584,36.891,106.247,32.924z
			 M52.198,42.534c0.058-1.545,1.313-1.89,2.098-2.704c0.55-1.051,1.946-1.258,2.406-2.4c1.309-0.293,1.657-1.543,2.698-2.104
			c0.947-0.656,1.62-1.581,2.708-2.1c0.072-0.328,0.595-0.204,0.597-0.602c0.35-0.051,0.535,0.063,0.601,0.299
			c2.264,0.143,2.758,2.046,4.506,2.705c2.846,3.453,6.262,6.346,9.006,9.908c-0.814,1.986-2.86,2.745-4.207,4.203
			c-1.666,1.131-3.139,2.46-4.799,3.603c-1.189,1.617-3.045,2.562-4.506,3.905c-1.583,1.217-2.729,2.877-4.806,3.603
			c-1.499-0.102-2.312-0.891-2.699-2.103c-0.809-0.793-2.022-1.181-2.706-2.1c0.093-3.4,0.639-6.955,0-10.208
			C52.9,45.027,52.043,44.289,52.198,42.534z M30.574,54.545c-0.771-0.527-1.062-1.537-0.902-3.003
			c0.3-2.407,1.077-4.331,1.803-6.306c-0.084-1.58,0.317-1.779,0-3.002c-1.485,0.314-2.361,1.24-3.001,2.401
			c-0.854-0.873,0.471-2.118,0.302-3.303c0.369-0.133,0.614-0.384,0.598-0.903c0.606-0.069,0.85-0.587,1.2-0.898
			c0.3-0.269,0.794-0.437,0.901-0.902c1.968-0.931,4.785-1.019,7.81-0.9c0.046,0.352,0.547,0.257,0.9,0.303
			c1.013,0.688,1.67,1.728,2.699,2.398c0.272,0.531,0.676,0.93,1.202,1.202c0.529,0.272,0.497,1.105,1.203,1.201
			c0.581,1.521,1.087,3.117,1.503,4.808v2.401c0.004,0.706-0.519,0.883-0.304,1.801c-0.742,1.059-1.47,2.127-2.1,3.304
			c-0.729-0.472,0.125-2.529-0.901-2.705c-2.327-0.668-2.603,3.164-3,5.405c-0.917-0.216-1.098,0.309-1.803,0.304
			c-0.614-0.988-0.163-3.043-0.303-4.508c-0.193-1.308,0.391-3.394-0.297-4.201c-1.259-0.885-1.204,1.676-1.803,2.401
			c0.029,1.23,0.056,2.46-0.299,3.304v3.004c-1.102,0.098-1.669-0.335-2.403-0.603c-0.434-4.058,1.372-7.402,0.598-10.808
			C31.189,47.551,31.177,51.343,30.574,54.545z M91.834,73.764c-1.266-0.062-1.262,1.139-2.4,1.202
			c-1.031,1.372-2.602,2.205-3.908,3.302c-1.276,1.117-2.953,1.85-3.899,3.307c-1.135,0.068-1.272,1.129-2.403,1.199
			c-0.186,0.914-1.615,0.586-1.805,1.5c-0.934-0.51-1.585-0.651-2.402,0c-0.839,0.561-1.154,1.645-1.5,2.701
			c-2.634,1.569-4.617,3.791-6.604,6.008c-0.981,0.078-0.636-1.168-1.499-1.202c-1.322,0.683-1.467,2.54-1.806,4.206
			c-0.953,0.045-1.319,0.681-2.4,0.599c-0.556-2.907,1.604-7.153,0.599-10.51c-2.215-0.115-2.06,2.143-3.001,3.304
			c-0.116,1.887-0.703,3.305-0.901,5.104c-0.791-0.31-1.011-1.188-1.801-1.498c-0.502-3.453,1.083-7.379-0.604-9.312
			c-2.196,0.504-2.001,3.402-2.101,6.009c-1.825-0.777-3.016-2.191-4.201-3.605v-5.105c-0.016-1.587,0.182-3.388-0.904-3.902
			c-1.233,0.07-1.134,1.464-1.201,2.703c-0.834-0.139,0.238,1.638-0.602,1.502v1.802c-2.033-0.267-2.356-2.248-3.903-3.005
			c0.103-1.602-0.375-2.627-0.599-3.901c-0.602,0.397-0.669,1.333-0.902,2.103c-3.56-2.947-6.812-6.201-10.21-9.31
			c0.238-2.165,1.674-3.133,2.403-4.803c1.703,0.5,3.024,1.377,5.407,1.2c0.189,0.608,1.402,0.195,1.501,0.898
			c0.925-0.227,0.579,0.823,1.497,0.602c2.201,2.31,4.139,4.873,7.211,6.306c1.865,2.142,3.965,4.045,5.708,6.308
			c0.926,0.068,1.163,0.838,1.794,1.201c0.627-0.127,0.799,0.202,1.203,0.299c3.453-0.051,4.98-2.027,7.208-3.304
			c2.139-1.269,4.172-2.634,6.307-3.901c4.365-2.543,10.021-3.789,12.914-7.81c2.115-0.187,2.933-1.671,4.802-2.102
			c1.144-0.241,0.385,1.421,0.604,2.102c0.239,0.562,0.498,1.103,0.594,1.803c1.009,1.599,2.066,3.144,3.606,4.203
			C93.383,72.91,92.088,72.818,91.834,73.764z M101.141,35.629c0.135,1.032-0.115,1.684-0.299,2.402v3
			c0.32,1.122-0.744,0.854-0.601,1.802c0.065,1.571-0.007,2.999-0.304,4.205c-0.234,1.06-1.502,1.099-1.799,2.102
			c-0.971,0.23-1.568,0.831-1.802,1.8c-1.162,0.043-1.188,1.222-2.103,1.502c-0.389,0.818-1.539,0.867-1.801,1.803
			c-2.91,1.896-5.992,3.622-8.711,5.708c-1.312,1.188-3.211,1.789-4.502,3.002c-1.42,0.981-3.234,1.568-4.209,3.001
			c-1,0.198-1.467,0.937-2.4,1.201c-0.639,0.563-1.909,0.491-2.4,1.2c-1.913,0.492-2.99,1.818-4.802,2.401
			c-0.573,0.53-0.712,1.492-1.203,2.104c-1.087,0.416-1.682,1.318-3.003,1.5c-0.669,0.731-2.234,0.568-3.003,1.201
			c-2.009-1.194-2.822-3.584-4.806-4.807c-0.519-1.078-1.445-1.755-2.1-2.701c-0.792-0.712-1.811-1.191-2.101-2.4
			c0.959-0.141,1.054-1.145,2.101-1.2c1.173-0.179,1.741,0.257,2.402,0.599c1.394,0.606,2.131,1.871,3.605,2.404
			c1.213-0.389,1.811-1.393,2.699-2.104c1.429-0.075,2.083-0.919,3.305-1.199c1.75-1.554,3.375-3.229,5.707-4.204
			c1.762-1.438,3.149-3.258,5.405-4.204c0.312-0.793,1.19-1.014,1.499-1.803c0.391-0.613,1.245-0.76,1.5-1.504
			c3.993-1.918,6.8-5.011,9.609-8.104c1.537-0.367,2.142-1.665,3.607-2.103C91.43,41.13,93,40.8,93.936,39.83
			c1.068-0.72,1.864-1.738,2.701-2.7c0.203-0.239,0.723-0.353,0.901-0.602c0.413-0.593,0.419-1.831,1.499-2.1
			c0.105-0.396,0.533-0.476,0.604-0.904h0.901C101.686,33.283,100.924,34.946,101.141,35.629z"/>
	</g>
</g>
</svg>
