<?xml version="1.0" encoding="utf-8"?>
<!-- Generator: Adobe Illustrator 17.0.0, SVG Export Plug-In . SVG Version: 6.00 Build 0)  -->
<!DOCTYPE svg PUBLIC "-//W3C//DTD SVG 1.1//EN" "http://www.w3.org/Graphics/SVG/1.1/DTD/svg11.dtd">
<svg version="1.1" id="Layer_1" xmlns="http://www.w3.org/2000/svg"  x="0px" y="0px"
	 width="120px" height="120px" viewBox="0 0 120 120" enable-background="new 0 0 120 120" xml:space="preserve">
<g id="dribbble">
	<g>
		<path d="M108.766,62.878c-0.266-2.113-1.762-2.996-1.709-5.422c-0.479-1.992-0.891-4.057-1.431-5.989
			c-1.132-3.718-2.378-7.325-4.28-10.271c-1.441-3.407-3.34-6.358-5.701-8.845c-1.955-2.991-4.776-5.117-7.705-7.133
			c-0.627-0.42-1.537-0.557-1.998-1.141c-1.135,0.092-2.105,0.016-2.567-0.57c-0.897-0.434-1.392-1.271-2.565-1.426
			c-0.063-1.271-1.39-1.274-1.998-1.998c-5.988-0.289-9.982-2.569-16.834-1.997c-0.061,0.222-0.238,0.332-0.568,0.284
			c-1.63,0.082-2.862,0.562-3.997,1.143c-1.312,0.495-3.141,0.468-4.278,1.141c-3.209,0.403-5.241,1.986-8.273,2.568
			c-3.494,2.971-7.65,5.281-11.127,8.273c-1.803,1.432-3.736,2.73-5.133,4.564c-1.908,1.42-3.288,3.367-4.851,5.136
			c-0.157,0.509-0.146,1.185-0.571,1.426c-0.17,0.591,0.354,1.875-0.285,1.999c-0.247,1.176-0.893,1.958-1.14,3.137
			c-0.808,2.046-1.415,4.291-1.714,6.847c-1.033,4.673-0.865,10.546-0.855,16.263c1.374,9.1,5.5,17.492,9.984,23.394
			c0.703,0.925,1.503,1.734,2.283,2.568c1.953,2.083,3.94,4.256,5.994,5.705c0.396,0.28,0.988,0.425,1.138,0.569
			c0.233,0.227,0.263,0.088,0.571,0.287c0.416,0.268,0.758,0.905,1.143,1.141c0.242,0.15,0.658,0.195,0.854,0.285
			c1.392,0.645,2.562,1.412,3.995,1.998c0.505,0.205,0.857,0.5,1.142,0.569c0.834,0.209,1.408,0.479,1.712,0.57
			c0.429,0.129,0.874,0.218,1.144,0.285c0.363,0.092,0.603,0.223,0.854,0.284c4.285,1.072,9.192,1.314,14.551,1.143
			c2.43-0.611,5.327-0.759,7.416-1.712c2.096-0.947,5.01-1.078,7.42-1.712c1.779-1.167,4.006-1.891,5.704-3.139
			c2.067-0.977,3.497-2.588,5.421-3.709c1.354-1.69,3.34-2.748,4.564-4.563c1.529-1.515,2.734-3.354,4.279-4.851
			c0.322-1.199,1.35-1.692,1.711-2.854c0.832-0.691,1.067-1.975,1.998-2.568c0.897-2.145,2.016-4.072,3.137-5.99
			C107.961,74.245,109.137,69.336,108.766,62.878z M27.456,79.71c0.054-0.324,0.288-0.159,0.286,0
			C27.687,80.034,27.453,79.869,27.456,79.71z M28.598,76.001c-0.123,1.021-0.758,1.522-0.571,2.854
			c-1.483-2.121-0.421-5.183-0.284-7.988c0.693,1.396,1.218,2.963,1.997,4.279C29.992,76.064,28.807,75.548,28.598,76.001z
			 M32.307,88.27c-0.92-0.129-0.983-1.109-1.428-1.711c0.007-0.853,0.743-0.972,0.854-1.714c0.194-2.473-0.502-4.062-0.567-6.274
			c-0.347,0.029-0.177-0.415,0,0c0.891,1.104,1.392,2.603,2.282,3.707c-0.006,0.854-0.744,0.972-0.857,1.714
			C32.761,85.682,32.093,86.532,32.307,88.27z M31.732,66.016c-0.451-1.543-0.688-3.304-0.567-5.421
			c5.614,1.52,13.175,1.092,20.258,1.142c4.286-0.657,7.371-2.518,10.839-3.994c0.211-0.267,0.518-0.433,0.857-0.571
			c1.189,0.711,1.002,2.802,1.994,3.711c-0.932,1.064-2.566,1.425-3.708,2.281c-1.217,0.78-2.472,1.523-3.997,1.996
			c-2.354,1.542-5.011,2.787-7.132,4.564c-1.238,0.76-2.305,1.69-3.422,2.567c-1.211,0.694-1.682,2.121-3.137,2.567
			c-0.634,1.365-1.77,2.226-2.854,3.138c-0.353,0.598-0.829,1.073-1.427,1.428c-0.5,0.449-0.591,1.312-1.426,1.427
			C35.298,76.527,31.498,73.29,31.732,66.016z M42.291,98.825c-0.518-0.812-1.566-1.097-2.281-1.712
			c1.797-1.356-0.436-3.451-0.285-5.706c1.368,1.008,2.279,2.473,3.994,3.139c-0.953,1.599-0.049,4.039,1.139,5.136
			C44.1,100.418,43.258,98.82,42.291,98.825z M73.104,93.405c-0.274,1.413,0.763,1.52,0.856,2.565
			c-1.896,0.959-4.104,1.604-6.276,2.282h-6.848c-1.732-0.267-3.084-0.907-4.85-1.142c-1.791-1.254-4.111-1.976-5.709-3.424
			c-1.243-0.275-1.574-1.465-2.566-1.996c-1.026-0.496-1.67-1.373-2.567-1.998c0.423-1.383,1.685-1.926,2.567-2.854
			c0.977-0.734,1.83-1.592,2.566-2.566c1.043-0.668,1.891-1.535,2.854-2.282c0.792-0.921,2.108-1.317,2.855-2.282
			c1.039-0.291,1.953-0.707,2.854-1.141c1.172-0.822,2.487-1.504,3.135-2.854c2.247-0.892,4.35-1.929,6.562-2.853
			c0.335,0.047,0.508-0.062,0.57-0.284c0.244-0.054,0.27,0.11,0.285,0.284c0.244-0.053,0.271,0.111,0.287,0.285
			c1.246,3.225,2.381,6.559,3.422,9.985C72.488,86.391,73.387,89.634,73.104,93.405z M103.346,74.575
			c-0.623,2.135-1.682,3.834-2.568,5.705c-0.963,1.795-2.297,3.221-3.141,5.136c-1.447,0.643-1.979,2.208-2.852,3.423
			c-1.734,1.498-3.352,3.115-4.852,4.851c-0.582-0.205-1.127-0.896-1.711-0.283c-0.679,0.178,0.045,1.754-0.57,1.994
			c-1.954,1.471-4.26,2.592-6.562,3.711c-2.022,1.402-4.94,1.902-6.562,3.709c-1.473-0.621-4.057-0.129-5.993-0.286
			c-1.206,0.067-1.072-1.21-2.281-1.14c-1.45,0.315,0.168,2.721-0.284,2.852h-3.425c-0.959-0.18-2.648,0.367-3.141-0.284
			c-0.53,0.015-0.601-0.221-0.283-0.571c-0.148-0.423-0.421-0.719-0.568-1.142c-1.179-0.601-2.683-2.173-4.281-1.427
			c-1.283,0.455,0.221,2.232-0.284,2.568c-2.283-0.382-4.151-1.175-6.278-1.714c-0.046-0.709,0.449-0.882,0.573-1.425
			c-0.894-1.105-1.898-2.1-2.283-3.71c1.472,0.619,2.712,1.474,3.993,2.283c4.662,1.231,9.688,2.104,15.979,1.711
			c1.801-0.479,3.775-0.786,5.133-1.711c0.965,0.08,1.64,0.452,2.854,0.284c1.396-0.313,2.093-1.329,3.138-1.996
			c1.219,0.21,1.246,1.607,3.139,1.141c1.641-0.729,0.863-4.556-0.286-5.136c-1.089-0.488-1.779,0.846-1.997,0.287
			c-0.333-2.142-0.316-4.63-0.283-7.136c-1.527-6.842-2.775-13.965-5.708-19.397c-4.146,1.749-8.417,3.372-12.27,5.42
			c-1.68,1.358-3.588,2.498-5.133,3.994c-2.115,1.021-4.186,2.093-5.706,3.711c-1.297,0.221-1.5,1.539-2.567,1.995
			c-0.59,1.027-1.692,1.54-2.283,2.566c-1.654,1.484-2.752,3.524-3.992,5.422c-0.858,0.822-0.995-0.682-2.282-0.285
			c-1.007,1.158-0.547,3.857,0,5.136c0.343-0.029,0.173,0.414,0,0c-0.394,0.012-0.628-0.136-0.858-0.285
			c-0.695-1.205-0.691-3.114-1.139-4.563c0.094-1.996-0.795-3.015-0.857-4.852c0.764,0.662,1.337,1.518,1.711,2.567
			c1.326-0.673,2.23-1.763,2.854-3.14c2.432-1.944,4.211-4.539,6.848-6.274c1.08-1.111,2.469-1.907,3.422-3.14
			c1.545-0.645,2.323-2.055,3.999-2.566c4.612-4.133,12.105-5.391,16.545-9.7c-1.831-3.97-4.247-7.357-5.706-11.697
			c-2.264,0.875-3.63,2.649-5.99,3.423c-1.865,1.372-4.398,2.069-6.849,2.853c-6.858,0.041-9.011,0.17-15.408,0
			c-0.933-0.074-0.603,1.107-1.425,1.143c-2.255-0.123-5.042,0.285-6.847-0.286c-2.011,0.845-1.292,4.415-1.427,7.133
			c0.156,0.888,0.235,1.857,0.569,2.566c-0.05,1.367-0.496-0.488-1.425,0c-0.713-0.049-0.895,0.438-1.142,0.855
			c-0.587-0.248-0.569,1.451-0.855,0.57c-0.62-3.756-0.629-8.12-0.571-12.553c0.438-1.559,1.002-2.993,1.711-4.28
			c0.485-6.076,2.762-10.361,5.422-14.264c1.012-0.986,2.285-1.712,3.139-2.854c1.539-0.458,2.109-1.885,3.708-2.283
			c2.286-1.709,5.3-2.69,7.135-4.849c4.856-3.226,10.38-5.787,18.541-5.706c0.835,0.074,0.88-0.645,1.714-0.57
			c5.877,0.113,9.728,2.254,15.69,2.281c3.5,1.826,6.842,3.812,9.412,6.562c1.107,2.604,3.107,4.312,4.566,6.562
			c1.385,2.418,3.033,4.578,3.995,7.418c2.722,4.887,4.106,11.107,4.851,17.975v4.278C103.578,69.206,103.262,72.093,103.346,74.575
			z M77.669,35.489c0.813-2.514,2.772-3.885,3.138-6.848c-1.279-2.242-4.271-2.766-6.562-3.994
			c-2.028,0.221-3.184-0.431-5.137-0.285c-4.186,0.568-9.125,0.386-11.98,2.283c-0.695-0.635-1.618-1.045-3.137-0.857
			c-0.691,0.898,0.511,1.812,0.569,2.854c0.811,0.52,0.831,1.83,1.713,2.282c0.77,1.987,2.178,3.337,3.42,4.85
			c0.895,1.866,2.344,3.173,3.14,5.136c1.343,1.419,1.75,3.769,3.141,5.135c2.108-1.598,4.465-2.951,6.562-4.564
			C74.299,39.539,75.713,37.241,77.669,35.489z M67.111,42.05c-1.096-2.328-2.446-4.4-3.708-6.561
			c-1.314-2.111-3.035-3.812-3.998-6.277c1.688-0.311,3.863-0.135,5.424-0.57c2.214-0.164,5.097,0.346,6.847-0.284
			c2.296,0.651,4.786,1.111,6.275,2.566c-1.546,2.542-3.7,4.478-5.418,6.848c-0.942,0.638-1.726,1.549-2.566,2.282
			C69.111,40.791,68.244,41.61,67.111,42.05z M53.131,32.923c-0.582-0.086-0.559-0.773-1.139-0.857
			c-0.314-1.306-0.852-2.383-1.715-3.137c-0.334,0.138-0.646,0.304-0.854,0.57c-3.867,1.17-5.604,4.479-9.129,5.99
			c-0.701,0.537-1.293,1.18-2.283,1.426c-0.006,0.568-0.779,0.363-0.568,1.143c-0.708-0.043-1.388-0.054-1.429,0.568
			c-1.724,0.848-2.646,2.49-3.996,3.711c-1.011,2.885-2.888,4.908-2.853,8.844c-1.322,0.198-2.084,0.958-2.28,2.281
			c0.804,1.75,3.648,1.758,5.421,1.428c1.541,0.453,3.533,0.461,5.137,0.855h8.271c2.61-0.498,5.681-0.771,7.417-1.428
			c1.824-0.686,3.676-1.186,5.424-1.711c0.139-0.721,0.155-1.273,0.568-2.281c0.834-0.213,1.4-0.69,1.998-1.141
			c0.602-0.445,1.582-0.512,1.71-1.428c-2.032-5.479-5.382-9.641-8.558-13.98C54.097,33.29,53.412,33.308,53.131,32.923z
			 M55.416,48.327c-0.922,0.505-1.998,0.855-3.141,1.141c-2.187,0.666-4.661,1.045-7.132,1.428h-6.278
			c-1.74,0.349-3.872,0.307-5.988,0.285c0.774-5.598,4.41-8.331,7.133-11.982c2.822-2.023,5.723-3.977,8.559-5.992
			c0.068-0.309,0.566-0.193,0.572-0.57c3.698,4.194,6.395,9.389,9.414,14.266C57.801,47.669,56.695,48.087,55.416,48.327z
			 M82.52,60.595c4.934-0.877,9.801-3.311,15.69-2.282c-0.665-5.519-2.735-9.628-4.851-13.692c-0.398-1.125-1.383-1.66-1.998-2.57
			c-0.445-1.168-1.088-2.145-1.713-3.137c-1.174-1.963-2.84-3.435-4.28-5.137c-1.288,0.061-1.558-1.01-2.282-1.141
			c-0.014,0.365-0.361,0.396-0.283,0.855c-0.99,0.246-0.988,1.482-1.711,1.998c-0.613,0.719-1.072,1.59-1.711,2.282
			c-1.004,1.659-1.938,3.394-3.428,4.565c-0.934,1.726-2.814,2.508-3.992,3.992c-1.57,1.092-3.652,1.673-4.85,3.139
			c2.297,3.885,4.016,8.35,6.275,12.269C76.266,61.188,78.828,60.329,82.52,60.595z M75.102,56.03
			c-0.504-0.26-0.522-0.999-0.857-1.427c-0.559-1.058-1.235-1.999-1.709-3.137c-0.03-1.267,1.479-0.991,1.709-1.999
			c0.681-0.461,1.259-1.023,1.997-1.426c1.217-1.734,2.815-3.08,3.995-4.85c1.512-1.436,2.367-3.527,3.423-5.421v-0.856
			c4.321,3.953,6.864,9.68,7.702,17.118c-5.211,0.969-10.325,2.036-15.12,3.423C75.324,57.517,75.548,56.438,75.102,56.03z
			 M95.07,64.589H81.092c-0.422,0.147-0.72,0.425-1.143,0.57c-0.471,0.389-1.662-0.232-2.852,0
			c-0.322,0.628-1.884,0.021-1.996,0.854c1.491,2.407,2.28,5.519,3.707,7.988c0.717,3.186,2.039,5.762,2.282,9.415
			c-0.055,1.245-1.356-0.341-1.143,0.856c0.42,1.578,0.786,3.207,1.143,4.85v2.854c-0.213,0.879,0.784,0.549,0.57,1.429
			c-0.166,0.172-0.668,1.353,0,1.426c2.887-1.584,4.891-4.051,7.419-5.992c1.559-0.627,2.092-2.28,3.708-2.853
			c0.448-0.69,1.021-1.264,1.709-1.713c0.653-0.49,0.91-1.373,1.715-1.711c0.358-1.256,1.088-2.147,1.713-3.139
			c0.337-2.801,1.148-5.125,1.425-7.988v-3.424c-0.019-1.121-0.14-2.144-0.57-2.854C97.613,66.636,96.312,64.768,95.07,64.589z
			 M94.215,77.713c-1.207,2.312-2.324,4.714-3.992,6.562c-0.762,0.953-1.688,1.735-2.283,2.854
			c-0.823,0.033-0.494,1.216-1.428,1.141c-0.1,0.375-0.5,0.448-0.57,0.855c-0.256,0.176-0.51,0.346-0.572,0
			c0.646-8.725-1.891-14.273-4.276-19.971c3.63-0.746,8.187-0.562,12.554-0.569C94.393,71.068,94.198,74.497,94.215,77.713z"/>
	</g>
</g>
</svg>
