<?xml version="1.0" encoding="utf-8"?>
<!-- Generator: Adobe Illustrator 17.0.0, SVG Export Plug-In . SVG Version: 6.00 Build 0)  -->
<!DOCTYPE svg PUBLIC "-//W3C//DTD SVG 1.1//EN" "http://www.w3.org/Graphics/SVG/1.1/DTD/svg11.dtd">
<svg version="1.1" id="Layer_1" xmlns="http://www.w3.org/2000/svg"  x="0px" y="0px"
	 width="120px" height="120px" viewBox="0 0 120 120" enable-background="new 0 0 120 120" xml:space="preserve">
<g id="facebook">
	<g>
		<path d="M76.387,37.279c3.043,0.09,5.906-0.001,7.944-0.918c1.155-2.509,1.646-5.688,1.835-9.167
			c-0.566-0.045-0.188-1.034-0.613-1.224c-0.09-0.62-0.826-0.598-0.916-1.221c-0.82-0.505-1.354-1.295-2.141-1.834
			c-2.152-0.495-4.268-1.027-6.414-1.528c-2.512,0.136-5.611-0.314-7.643,0.306c-7.761-0.124-11.844,3.433-15.583,7.334
			c-0.069,0.238-0.01,0.604-0.31,0.61c-1.702,4.868-0.37,11.104-0.606,17.114c0.292,1.338,0.318,2.94,0.606,4.277
			c-2.959,0.908-6.555,1.185-10.082,1.529c-0.939,0.994-0.527,3.341-0.61,5.195c0.252,1.787,0.824,3.25,1.224,4.888
			c0.624,0.592,1.766,1.217,2.444,1.529c0.193,0.089,0.212,0.253,0.305,0.304c1.497,0.821,4.3,0.024,6.719,0.307
			c-0.405,6.064,0.757,12.004,0,17.417c0.019,1.003,0.872,1.171,0.614,2.445c-0.003,2.953-0.198,6.104,0.614,8.25
			c-0.849,1.395-1.471,3.015-1.228,5.502c0.36,0.049,0.336,0.482,0.31,0.916c-0.222,1.442,1.906,0.537,1.527,2.141
			c0.48,1.398-1.268,0.564-1.223,1.527v2.75c1.57,0.875,4.332,0.559,6.722,0.61c2.689-1.284,6.479-1.467,8.252-3.668
			c1.359,0.722,2.712-0.041,3.667-0.61c-0.05-0.967,0.812-1.021,0.609-2.14c-0.012-1.007-0.514-1.521-0.305-2.75v-8.86
			c-0.609-7.029-0.141-15.142-0.914-22.004c2.631-0.322,5.679-0.229,7.639-1.223c1.059-1.382,1.118-3.772,1.527-5.807
			c0.525-0.693,0.654-1.789,0.611-3.055c0.565-0.655,0.203-2.238,0.307-3.36c-0.416-1.826-0.498-3.987-2.445-4.278
			c-2.618-0.722-6.055,1.825-8.864,0.916c0.146-3.479-0.868-7.182,0-10.389C72.18,38.57,74.254,37.898,76.387,37.279z
			 M65.078,51.946c0.348,0.778,0.752,1.491,1.225,2.14c0.235,0.069,0.602,0.008,0.609,0.306c3.533,0.173,6.516-0.21,9.17-0.916
			c0.003,3.06-0.801,5.313-1.531,7.64c-1.961,0.139-4.346,0.92-5.803,0.611c-0.818,0.504-1.102,1.55-1.836,2.138
			c-0.145,1.354,0.419,1.519,0,2.443c-0.598,0.42-0.164,1.875-0.609,2.444v4.587c0.252,0.861-0.431,0.789-0.305,1.524v10.696
			c-0.253,0.862,0.432,0.791,0.305,1.528v9.168c0.188,0.828-0.389,2.423,0.305,2.748c-0.209,1.116-1.221-0.063-2.443,0.306
			c-1.566,0.373-2.742,1.133-4.585,1.225c0.347-1.08,0.948-1.905,0.919-3.362c0.145-1.166-1.082-0.956-1.527-1.528
			c0.572-1.973,1.664-3.425,2.138-5.498c0.585-1.576,2.117-3.979,0.915-5.502c-1.547-0.322-1.543,0.902-2.445,1.224
			c-0.068,0.237-0.006,0.602-0.305,0.61c-0.069,0.237-0.008,0.602-0.303,0.611c0.03,0.368-0.448,0.188,0,0
			c0.065-0.238,0.006-0.604,0.303-0.611c0.069-0.237,0.006-0.604,0.305-0.61V84.95c1.09-1.763,1.985-3.722,2.445-6.111
			c0.568-0.858,0.84-2.013,1.223-3.058c0.463-0.803,1.007-2.666,0.308-3.666c-1.53,0.103-2.355,0.906-2.753,2.139
			c-0.95-0.582,0.479-1.328,0.308-2.139c0.41-0.709,0.502-1.734,0.915-2.443c0.599-1.266,1.675-3.996,0-4.891
			c-1.294-0.072-1.812,0.635-2.14,1.525c-0.634,0.588-1.273,1.174-1.528,2.142c-1.107-0.216-0.421-2.229-0.611-3.362
			c-0.198-1.593,0.364-2.76,0-3.666c-1.657-2.451-6.002-0.323-9.472-0.917c-0.323-0.94-0.658-3.017-0.307-3.667
			c3.096-0.269,7.343,0.617,9.473-0.611c0.071-0.237,0.009-0.604,0.306-0.61c0.279-2.217-0.804-3.066-1.525-4.279
			c0.688-2.471,0.12-6.194,0.306-9.167c0.693-0.43,0.973-1.269,1.527-1.833c0.331-2.927,1.993-4.525,2.136-7.641
			c-0.807,0.004-1.798-0.169-1.833,0.611c-0.894-0.352-1.131,1.466-1.525,0.611c-0.334-1.658,0.73-1.921,0.914-3.058
			c1.776-1.281,3.592-2.516,5.502-3.665c5.159-0.749,13.77-1.377,18.031,0.608c0.15,1.888-0.85,2.618-0.612,4.587h-4.582
			c-3.235,0.736-5.887,2.061-8.864,3.057c-0.709,0.204-0.818,1.015-1.525,1.222c-0.109,1.217-0.668,1.982-0.92,3.055
			C64.539,44.134,65.167,47.684,65.078,51.946z"/>
	</g>
</g>
</svg>
