<?xml version="1.0" encoding="utf-8"?>
<!-- Generator: Adobe Illustrator 17.0.0, SVG Export Plug-In . SVG Version: 6.00 Build 0)  -->
<!DOCTYPE svg PUBLIC "-//W3C//DTD SVG 1.1//EN" "http://www.w3.org/Graphics/SVG/1.1/DTD/svg11.dtd">
<svg version="1.1" id="Layer_1" xmlns="http://www.w3.org/2000/svg"  x="0px" y="0px"
	 width="120px" height="120px" viewBox="0 0 120 120" enable-background="new 0 0 120 120" xml:space="preserve">
<g id="delicious">
	<g>
		<path d="M102.613,81.816c-0.139-2.354,0.812-3.614,0.91-5.73c-0.371-1.844-1.112-3.314-1.209-5.43
			c0.26-5.891-0.691-10.572-1.209-15.689V41.692c-0.688-0.418-0.107-2.099-0.303-3.013c0.18-1.289-0.214-1.998-0.3-3.023
			c-0.58-1.63-0.188-4.232-0.299-6.334c-1.156-1.36-2.407-2.622-3.927-3.621c-3.625-1.276-9.475-0.979-13.877-0.601
			c-5.291-0.341-9.797-1.466-15.688-1.206c-0.388,0.016-0.419,0.384-0.902,0.3c-6.678,0.464-12.307,1.981-19.914,1.507h-2.714
			c-0.724,0.188-2.19-0.377-2.417,0.305h-2.715c-0.719,0.184-2.189-0.382-2.413,0.304c-4.052-0.437-6.068,1.165-8.447,2.412
			c-0.631,1.579-1.789,2.633-2.11,4.525c-0.615,1.695,0.04,4.669-0.605,6.334v13.878c2.277,14.117,2.355,30.428,3.02,46.158
			c1.685,1.631,3.316,2.915,5.73,3.619c2.613,0.768,5.598,0.604,8.748,0.604H60.68c12.484,0,24.688-1.274,34.695-2.715
			c1.502-1.317,4.057-1.574,5.43-3.019c0.879-2.239,2.211-4.023,2.111-7.24C103.143,87.523,102.438,85.113,102.613,81.816z
			 M38.053,94.791c-1-0.105-1.308-0.906-1.809-1.509c0.872-1.945,2.617-3.017,3.32-5.13c1.328-0.223,1.234,0.976,2.109,1.207
			C40.764,91.467,39.174,92.895,38.053,94.791z M36.848,70.352c0.604-0.801,1.311-1.506,2.111-2.108
			c0.529-0.175,1.772,0.364,1.809-0.304c0.373,0.131,0.623,0.39,0.605,0.906c-1.024,0.883-1.449,2.371-2.11,3.62
			C37.862,72.357,37.274,71.438,36.848,70.352z M42.883,83.326c0.701,0.605,1.71,0.904,1.508,2.412
			C43.666,85.025,42.247,84.543,42.883,83.326z M42.281,76.086c0.092-1.213,0.543-2.07,1.507-2.412
			C43.691,74.883,43.242,75.742,42.281,76.086z M43.484,95.393c0.386-0.924,1.025-1.586,1.508-2.412
			c0.86,0.248,1.531,0.682,1.811,1.51C46.353,95.448,44.984,95.486,43.484,95.393z M45.598,79.404
			c0.073-1.235,1.024-1.59,1.205-2.719c1.099,0.008,1.354,0.86,2.109,1.207c-0.109,1.399-1.307,1.715-1.508,3.02
			C46.629,80.585,45.956,80.148,45.598,79.404z M45.598,69.751c0.783-0.726,0.813-2.203,2.715-1.812
			c-0.624,0.888-0.91,2.107-2.112,2.412C46.066,70.085,45.937,69.814,45.598,69.751z M49.516,90.266
			c-1.055,0.053-0.99-1.02-1.809-1.209c0.035-0.733,0.997-0.063,0.907,0.305C48.898,89.682,49.728,89.456,49.516,90.266z
			 M48.312,65.225c0.008-0.827,1.423-0.716,1.808-0.301C50.085,65.59,48.842,65.051,48.312,65.225z M49.818,72.766
			c-0.068-1.173,0.648-1.562,0.904-2.414c1.105,0.008,1.361,0.861,2.111,1.209c-0.335,0.768-0.737,1.472-1.204,2.113
			C50.562,73.835,50.889,72.604,49.818,72.766z M52.234,85.438c-0.807-0.196-1.148-0.861-1.811-1.207
			c0.594-1.119,1.068-2.349,1.811-3.317c0.882,0.021,1.119,0.692,1.509,1.207C53.729,83.719,52.652,84.246,52.234,85.438z
			 M56.456,77.595c-0.454-0.456-1.27-0.544-1.508-1.208c0-1.006,0.984-1.031,0.908-2.113c0.709,0.095,0.559,1.05,1.506,0.906
			C57.32,76.246,56.498,76.527,56.456,77.595z M53.743,67.033c0.598-0.605,1.379-1.031,2.713-0.901
			c-0.021,0.884-0.688,1.119-1.208,1.507C54.502,67.688,54.315,67.166,53.743,67.033z M58.57,70.052
			c0.074-0.927,0.652-1.354,0.906-2.112c1.774,0.28,0.857,1.773,0.299,2.718C59.174,70.652,59.394,69.83,58.57,70.052z
			 M60.076,78.197c1.883,0.191-0.176,1.548-0.301,2.414C58.819,79.923,60.167,79.016,60.076,78.197z M59.775,89.965
			c0.518-0.547,1.188,0.092,1.208,0.903C60.194,90.952,59.686,90.758,59.775,89.965z M52.234,61.605
			c-1.932,0.321-1.918-1.303-3.322-1.508c-0.66,0.168-0.951,0.484-1.804,0.602c-1.82,0.263-4.843-0.34-6.642,0.301
			c-3.117,0.004-5.036,1.197-8.446,0.908c-0.323-1.492-1.683-1.935-1.506-3.926c-0.412-1.4-0.64-2.981-0.604-4.824
			c-0.35-3.443-0.289-5.889-0.301-9.956c-0.29-1.626-0.377-3.449-0.303-5.431c-0.49-2.299,0.885-2.736,0.9-4.524
			c1.059,0.05,1.935-0.078,2.416-0.604c1.725-0.219,2.695,0.32,4.225,0.3c5.004-0.124,9.238-1.018,13.272-2.11
			c1.901-0.299,3.648,0.3,5.433,0.3c1.139,0,2.228-0.359,3.317-0.3c1.071,0.056,1.703,0.179,2.714,0.603
			c-0.217,0.825,0.6,0.607,0.606,1.208c0.165,0.438-0.354,1.559,0.3,1.506c0.152,1.261-0.881,1.333-0.6,2.715
			c0.063,7.706,1.935,16.044,0.3,23.534C59.081,61.01,55.635,61.286,52.234,61.605z M62.49,70.957
			c0.396,0.107,0.473,0.532,0.908,0.604c-0.185,1.429,1.926,1.697,1.206,2.713C63.513,73.674,61.536,72.627,62.49,70.957z
			 M66.109,88.451c-0.629-0.271-0.914-0.887-0.905-1.809c-0.087-0.265-0.815-1.316-0.903-0.601
			c-0.615-0.092-0.592-0.815-1.208-0.906c0.087-0.489-0.286-0.519-0.303-0.905c-0.007-1.314,0.838-1.779,0.906-3.015
			c0.745-0.043,1.457-0.05,1.812,0.3C65.221,84.68,66.812,85.595,66.109,88.451z M93.865,56.777
			c-1.768-0.04-3.415-0.204-4.823-0.604c0.876-2.438,3.181-3.453,4.224-5.732C94.084,51.938,93.08,55.252,93.865,56.777z
			 M93.562,38.979v5.128c-0.388,1.317-1.521,1.895-2.414,2.712c-1.142,2.679-2.649,4.995-4.826,6.64
			c-0.477,1.834-0.855,3.77-3.316,3.621c0.03-2.382,1.65-3.176,2.111-5.128c1.396-1.016,1.738-3.087,3.017-4.226
			c1.401-3.427,3.519-6.141,5.132-9.352C93.557,38.384,93.498,38.743,93.562,38.979z M91.453,28.115h0.604v0.606h-0.604V28.115z
			 M84.518,32.34c1.422,0.12,2.519-0.097,3.616-0.301c-1.356,1.761-2.768,3.465-4.526,4.825c-1.446,2.476-3.416,4.428-4.825,6.942
			c-1.619,2.301-2.681,5.164-4.222,7.541c-0.235,1.979-1.039,3.386-1.207,5.43c1.711,0.005,1.783-1.635,3.013-2.11
			c1.231-1.992,2.286-4.157,3.625-6.033c0.957-2.261,2.67-3.763,3.616-6.034c1.485-1.738,2.979-3.457,4.226-5.433
			c0.979-0.626,1.235-1.98,2.112-2.714c0.75-0.859,0.47-2.748,2.414-2.414c0.527,0.986-0.979,2.129-1.508,3.019
			c-0.561,1.048-1.183,2.037-1.81,3.015c-1.175,2.045-2.707,3.729-3.624,6.035c-0.954,0.755-1.355,2.058-1.811,3.318
			c-0.752,0.854-1.195,2.021-1.508,3.32c-0.841,2.373-1.731,4.703-3.015,6.638c-2.556,0.407-6.741,1.556-9.052,0.3
			c0.197-2.012,0.146-4.282,0.6-6.035c0.835-1.985,2.254-3.381,3.928-4.524c0.889-1.827,2.664-2.765,3.619-4.524
			C80.471,39.359,82.729,36.088,84.518,32.34z M79.688,32.34h2.414c-1.951,2.877-4.193,5.461-6.033,8.448
			c-1.047,1.364-1.766,3.063-3.021,4.226c-0.069,1.137-1.134,1.277-1.205,2.412c-0.993,0.113-0.61,1.602-1.809,1.508
			c0.457-3.668,3.185-5.059,4.526-7.847c1.629-2.491,2.672-5.568,4.524-7.84C79.191,32.85,79.613,32.772,79.688,32.34z
			 M74.561,32.943c-1.278,3.25-2.963,6.091-4.826,8.749c-0.907,0.306-0.535-0.673-0.605-1.207V38.68
			c0.139-1.074,0.671-1.745,0.605-3.023c0.293-0.006,0.231-0.365,0.301-0.599C71.439,34.252,71.947,32.547,74.561,32.943z
			 M68.225,34.149c0.709,0.007,0.887-0.518,1.811-0.3c-0.53,0.578-0.354,1.859-1.512,1.807
			C68.648,34.934,67.977,35.004,68.225,34.149z M97.484,94.186c-0.824,0.883-2.848,0.57-4.219,0.907
			c-1.322,0.688-1.983-0.735-3.927-0.302c-2.741,0.473-5.657,0.773-7.84,1.809c-4.231,0.098-8.177,0.476-12.674,0.303v-2.717
			c0.17-0.625,0.862-0.975,0.302-1.507c-0.051-4.892-0.591-9.456,0-14.177v-7.545c0.098-1.107-0.257-2.672,0.303-3.318
			c-0.231-1.438,1.071-1.339,0.906-2.715c1.479,0.07,2.282-0.531,3.921-0.304c2.867-0.526,6.243-0.302,9.65-0.302
			s6.793-0.241,9.655,0.302c1.201-0.29,0.123,1.688,1.207,1.512c-0.08,0.884,0.684,0.925,0.604,1.808
			c0.101,1.511,0.743,2.478,0.604,4.227c0.64,2.68,0.642,5.993,0.604,9.352C97.031,85.473,98.053,90.188,97.484,94.186z"/>
	</g>
</g>
</svg>
