<?xml version="1.0" encoding="utf-8"?>
<!-- Generator: Adobe Illustrator 16.0.0, SVG Export Plug-In . SVG Version: 6.00 Build 0)  -->
<!DOCTYPE svg PUBLIC "-//W3C//DTD SVG 1.1//EN" "http://www.w3.org/Graphics/SVG/1.1/DTD/svg11.dtd">
<svg version="1.1" id="Layer_1" xmlns="http://www.w3.org/2000/svg"  x="0px" y="0px"
	 width="120px" height="120px" viewBox="4 4 120 120" style="enable-background:new 4 4 120 120;" xml:space="preserve">
<g id="socket">
	<g>
		<path d="M111,61.711c-0.92-8.21-3.469-14.786-6.922-20.455c-1.715-2.798-3.4-5.622-5.665-7.868
			c-1.021-1.286-2.179-2.439-3.463-3.46c-0.89-0.266-1.072-1.237-1.573-1.891c0.164-1.313-1.441-0.86-1.886-1.57h-0.632
			c-0.402,0.018-0.436,0.403-0.943,0.317c-15.018,1.028-32.784-0.69-46.885,1.253c-2.056,0.379-2.721-0.633-4.407-0.628
			c-5.334,3.582-8.268,9.568-11.326,15.418c-2.979,5.94-5.48,12.354-6.298,20.456v9.758c0.365,0.368,0.357,1.109,0.318,1.884
			c1.179,4.276,2.545,8.367,4.718,11.646c1.487,4.074,4.737,6.381,6.296,10.385c0.587,0.674,1.948,0.568,2.203,1.572
			c0.846,0.519,1.392,1.332,2.201,1.889c1.355,1.268,3.316,1.926,5.037,2.83c9.905-0.161,19.627-0.506,28.633-1.571
			c7.857,0.198,15.051-0.264,22.658-0.313c1.678-0.317,2.215-1.772,3.463-2.518c1.602-0.494,2.464-1.729,3.771-2.518
			c2.344-3.116,4.799-6.111,6.297-10.071c1.973-3.479,3.008-7.899,4.09-12.271c-0.137-1.084,0.123-1.767,0.313-2.521L111,61.711
			L111,61.711z M104.707,71.775c-0.609,3.693-1.688,6.914-2.832,10.069c-0.831,1.373-1.188,3.224-2.204,4.407
			c-0.547,1.55-1.644,2.553-2.202,4.091c-2.014,1.761-3.857,3.697-5.978,5.351h-5.665c-0.893-0.262-0.814,0.441-1.573,0.317
			c-13.521-0.413-25.347,0.871-36.818,2.515c-1.788-0.41-2.987-1.414-4.403-2.201c-0.072-1.318,0.511-1.486,0-2.518
			c-1.561-0.406-1.547,0.76-2.832,0.627c-1.211-1.515-2.497-2.961-3.774-4.402c0.261-1.838,1.013-3.184,0.943-5.35
			c-0.708-0.711-1.579,0.018-2.204,0.313c-0.658,0-1.181,1.714-1.574,0.944v-1.578c-0.073-0.555-0.542-0.717-1.258-0.625
			c-0.596-0.035-0.221-1.045-0.943-0.946c-0.19-0.963-0.669-1.642-0.944-2.519c-0.034-1.924,0.322-3.45,0.627-5.033
			c-0.221-1.799,1.318-3.155,0.631-4.404c-1.745-0.807-2.243,2.088-3.149,3.146c-1.135-0.436-0.392-2.752-0.939-3.776
			c0.336-3.336,1.808-5.535,2.831-8.181c-0.666-0.693-0.931,0.4-1.892,0.313c-0.095,0.36-1.088,1.602-0.939,0.316
			c0.707-0.238,0.123-1.768,0.313-2.516c0.892,0.047-0.262-1.943,0.626-1.89c0.087-1.595,0.538-2.82,0.945-4.093
			c0.869-2.592,1.489-5.433,2.834-7.552c0.66-2.799,2.057-4.865,3.146-7.238c1.407-2.056,2.336-4.586,4.089-6.293
			c0.168-0.252,0.33-0.511,0.318-0.941c0.921,0.017,1.166,0.716,1.571,1.256c1.895-0.561,4.209,0.984,5.978,1.576
			c13.782,0.694,28.281,0.67,42.798,0.627c0.971-0.078,1.777-0.319,2.517-0.627c1.397,0.276,1.593,1.764,2.515,2.516
			c0.623,0.954,1.27,1.877,1.892,2.833c1.05,2.097,2.097,4.193,3.146,6.292c2.027,4.267,3.594,8.993,4.407,14.476
			c0.078,1.807-0.233,4.012,0.312,5.348C104.755,68.052,104.613,69.793,104.707,71.775z M85.826,50.38
			c-0.596-2.34-0.688-5.188-3.146-5.662c-1.591-0.23-1.863,0.863-3.147,0.941c-1.265,1.674-2.224,3.653-2.832,5.98v6.296
			c1.379,2.602,0.81,7.16,3.463,8.492h2.832c0.991-0.684,1.508-1.842,2.202-2.831c0.211-1.465,0.719-2.635,0.945-4.092
			C86.305,56.194,85.582,53.769,85.826,50.38z M58.764,59.819v-4.717c-0.837-0.738,0.235-3.38-0.629-4.094
			c-0.047-3.203-0.597-5.906-3.774-5.977h-0.317c-1.92,1.329-3.349,3.151-4.718,5.036c-0.749,2.506-0.908,5.595-1.259,8.494
			c0.426,1.985,0.39,4.431,1.259,5.98c0.61,1.796,1.108,3.714,3.146,4.089c4.578,0.177,4.721-4.089,5.979-7.238
			C58.191,60.507,58.893,60.581,58.764,59.819z M78.275,80.592c-0.639-3.457-1.633-6.553-4.092-8.184
			c-0.992,0.154-1.111-0.566-2.205-0.314c-4.297,1.049-10.321,0.375-12.9,3.146c-1.563,2.632-1.785,6.603-2.203,10.383
			c0.32,1.88,0.504,3.907,1.26,5.354c3.266,0.612,7.067,0.69,11.014,0.629c1.263-0.418,2.922-0.437,4.093-0.944
			c1.931,0.057,2.71,0.467,4.087-0.315C78.794,88.242,78.129,84.008,78.275,80.592z M64.744,84.996v2.202
			c-1.296-0.249-1.615,0.483-2.835,0.315c-0.146-0.99,0.795-0.892,1.263-1.262c1.354-3.052,3.128-5.684,4.717-8.494
			c0.536-0.117,0.596,0.245,0.633,0.631C66.57,79.902,66.043,82.831,64.744,84.996z M70.723,80.273
			C70.754,80.656,70.266,80.467,70.723,80.273c0.256-1.209,0.245-2.688,1.574-2.832c-0.016,0.435,0.146,0.693,0.312,0.947
			C72.516,79.551,71.271,79.566,70.723,80.273z M72.297,85.939c-0.261-0.89,0.441-0.814,0.312-1.576
			C73.123,84.309,73.248,86.424,72.297,85.939z"/>
	</g>
</g>
</svg>
