<?xml version="1.0" encoding="utf-8"?>
<!-- Generator: Adobe Illustrator 16.0.0, SVG Export Plug-In . SVG Version: 6.00 Build 0)  -->
<!DOCTYPE svg PUBLIC "-//W3C//DTD SVG 1.1//EN" "http://www.w3.org/Graphics/SVG/1.1/DTD/svg11.dtd">
<svg version="1.1" id="Layer_1" xmlns="http://www.w3.org/2000/svg"  x="0px" y="0px"
	 width="120px" height="120px" viewBox="0 0 120 120" enable-background="new 0 0 120 120" xml:space="preserve">
<g id="soda">
	<g>
		<path d="M99.5,11.965c-0.578-0.338-1.441-0.389-2.135-0.609c-6.943,1.494-12.275,4.598-20.127,5.184
			c-0.756,1.786-1.256,3.826-1.832,5.795c-0.488,0.728-0.483,1.954-0.911,2.744c-0.361,0.96-0.345,2.301-0.917,3.05
			c-0.361,2.182-0.975,4.106-1.523,6.099c-0.168,1.154-0.738,1.904-0.611,3.354c-0.767,0.554-0.156,2.485-1.221,2.745
			C58,39.994,48.98,41.016,36.984,40.937c-0.632,0.688-2.269,0.374-3.052,0.914c-0.813,1.319-0.666,3.602-1.22,5.185
			c-1.365-0.818-3.375-0.025-4.271,0.609c-0.914,1.072-1.174,3.178-0.607,4.88c0.526,0.796,2.437,0.206,2.744,1.22
			c1.166,0.159,2.285,0.357,2.744,1.22c2.505,9.998,4.771,20.236,5.187,32.325c2.038,5.485,1.894,13.149,3.048,19.519
			c0.506,1.431,1.478,2.385,1.525,4.271c0.638,0.377,1.149,0.885,1.527,1.521c0.572,0.443,1.584,0.448,1.828,1.222
			c6.797,2.938,17.01,3.144,25.312,1.522c0.745-0.777,2.004-1.043,3.049-1.522c0.035-0.372,0.089-0.724,0.606-0.61
			c-0.221-0.832,0.609-0.613,0.611-1.22c0.826,0.218-0.219-1.438,0.61-1.222c0.162-1.059,0.813-1.625,0.913-2.744v-3.658
			c1.195-3.582,1.256-8.303,1.83-12.503c-0.229-5.108,0.917-8.843,1.222-13.419c0.933-3.949,0.851-8.907,1.827-12.809
			c0.973-3.908,1.312-8.447,3.05-11.59c1.712-0.118,3.181-0.482,4.574-0.915c0.424-0.77,0.615-1.537,0.61-2.744
			c-0.002-0.967-0.295-2.097-0.61-2.745c-0.399-1.125-1.854-1.193-3.049-1.524c0.248-1.567-0.246-2.396-0.914-3.05
			c-1.709-0.629-4.724,0.046-6.099-0.915c1.445-3.123,1.646-7.499,2.438-11.284v-4.879c0.294-0.565-0.913-1.019,0-1.218
			c3.15-0.614,6.243-1.282,8.846-2.44c2.817-1.045,6.084-1.643,8.844-2.746C100.695,17.325,100.596,13.521,99.5,11.965z
			 M74.799,37.581c0.514-1.521,0.459-3.606,1.219-4.881c0.371-3.593,1.279-6.649,1.83-10.062v-0.915
			c0.354-0.05,0.541,0.069,0.609,0.305c0.529,0.187-0.021,1.447,0.611,1.526v7.317c-0.164,1.262-0.447,2.4-0.611,3.66
			c-0.4,1.021-0.373,2.472-0.915,3.354c0.013,2.569-0.981,5.358-3.353,4.574C73.438,40.982,74.566,39.058,74.799,37.581z
			 M60.463,111.688c0.719-1.522,1.379-3.096,1.832-4.881c1.094,1.145,1.889,2.584,2.439,4.271
			C63.42,111.389,62.271,111.865,60.463,111.688z M72.359,105.282c-0.198,1.213,0.805,1.228,0.605,2.438
			c-0.373,1.966-2.734,1.938-4.57,2.439c-1.041,0.227-0.504-1.123-1.223-1.22c-0.094-0.722-1.059-0.567-0.915-1.524
			c-1.067-0.56-1.274-1.978-2.438-2.438c-0.351-0.666-0.062-1.974-0.916-2.137c-1.043-0.271-1.385,0.787-1.827,1.221
			c-0.433,0.42-1.311,0.68-1.221,1.524c-1.107,0.825-1.365,2.499-2.135,3.66c0.053,0.86-0.264,2.092,0.611,2.134
			c-1.071,0.65-3.109-0.34-4.271-0.609c0.492-1.643,1.059-3.213,1.523-4.879c0.526-1.609,1.87-2.398,1.834-4.574
			c-0.199-1.022-1.464-0.978-2.746-0.914c-2.361,0.791-2.521,3.783-4.271,5.185c-0.764-0.493,0.543-1.468,0.611-2.136
			c0.099-1.338,0.57-3.012,0.917-4.879c-0.282-0.534-0.108-1.521-0.612-1.829c0.322-1.134-1.029-0.599-1.221-1.22
			c-1.532,0.396-1.947,1.914-2.136,3.66c-1.353-0.066-1.358-1.486-2.134-2.137c-0.588-4.596-1.299-9.068-2.131-13.418
			c-0.227-1.337,0.604,0.244,0.609-0.609c-0.054-0.863,0.263-2.093-0.609-2.137c1.229-0.802,2.887-1.176,3.962-2.133
			c0.354-0.052,0.543,0.064,0.607,0.305c0.462,1.57,0.61,3.461,0.919,5.187c1.662,3.417,2.602,7.561,4.877,10.366
			c1.225,0.3,2.676,0.375,4.271,0.307c1.148-0.479,2.063-1.188,3.048-1.83c1.755-1.5,3.378-3.126,4.879-4.879
			c1.773-1.479,3.83-2.676,5.796-3.964c1.323-0.812,1.931-2.341,3.658-2.747C74.881,89.71,73.156,97.033,72.359,105.282z
			 M77.848,61.979c-0.306,2.845-0.714,5.588-0.914,8.537c-0.408,0.51-1.729,0.104-2.135,0.611c-2.809,1.764-5.643,3.506-7.928,5.796
			c-2.457,2.116-5.104,4.046-7.625,6.099c-0.887-0.436-0.837-1.809-1.221-2.746c-0.658-0.562-0.807-1.635-1.526-2.133
			c-0.192-2.854-2.218-3.881-2.438-6.711c-1.304-1.746-1.317-4.781-4.572-4.574c-2.077,0.16-2.242,2.234-3.662,3.051
			c-0.332,0.785-0.77,1.466-1.521,1.828c-0.264,0.246-0.182,0.838-0.609,0.916c-0.109,0.351-0.539,0.772-0.613,0.306
			c-0.498-2.633,1.406-2.862,1.83-4.573c-0.801-1.1-1.414,1.402-1.83,0.609c0.153-4.828-0.541-8.812-0.306-13.724
			c12.152,0.765,23.671-1.192,35.986-1.22C79.139,56.203,77.994,59.346,77.848,61.979z M82.727,45.511
			c1.109,0.011,1.342,0.896,1.225,2.134c1.361,0.465,3.137,0.521,3.352,2.136c0.291,1.103-1.197,0.426-1.828,0.609h-2.439
			c-1.652-0.278-3.348-0.514-4.877-0.915c-15.274,0.262-29.954-0.107-45.137,0.61c0.695-1.236,2.805-1.062,3.355-2.44
			c0.035-0.879-0.167-1.996,0.305-2.441c1.769,0.734,4.443,0.105,6.711,0c7.661-0.346,16.22,0.721,24.09,0.308
			C72.402,46.619,78.282,44.845,82.727,45.511z M95.536,18.065c-2.624,0.729-5.396,1.312-7.628,2.439
			c-1.529,0.092-2.404,0.843-3.655,1.218c-0.571,0.244-1.116,0.51-1.832,0.611c-0.786,0.814-0.319-0.703-1.522-0.307
			c0.07-1.146,1.248-1.188,2.135-1.522c0.355-0.458,0.381-1.249,0.918-1.526c4.975-0.715,8.951-2.428,13.111-3.963
			c1.354-0.036,0.451,2.189,1.221,2.743C97.955,18.449,96.361,17.875,95.536,18.065z M56.196,109.247
			c0.054,0.866-1.996-0.37-1.524,0.914C55.059,111.111,57.409,109.898,56.196,109.247z"/>
	</g>
</g>
</svg>
