<?xml version="1.0" encoding="utf-8"?>
<!-- Generator: Adobe Illustrator 16.0.0, SVG Export Plug-In . SVG Version: 6.00 Build 0)  -->
<!DOCTYPE svg PUBLIC "-//W3C//DTD SVG 1.1//EN" "http://www.w3.org/Graphics/SVG/1.1/DTD/svg11.dtd">
<svg version="1.1" id="Layer_1" xmlns="http://www.w3.org/2000/svg"  x="0px" y="0px"
	 width="120px" height="120px" viewBox="4 4 120 120" style="enable-background:new 4 4 120 120;" xml:space="preserve">
<g id="sound4">
	<g>
		<path d="M95.802,29.845c0.489-1.836,1.071-4.763,0.337-6.769c-0.756-0.489-1.633-0.85-3.045-0.677
			c-0.402,0.165-0.77,0.36-1.016,0.677c-2.275,2.58-4.867,4.836-7.107,7.446c-1.722,0.648-2.642,2.098-4.062,3.046
			c-3.266,4.07-7.6,7.072-11.17,10.832c-2.571,2.393-5.312,4.615-8.125,6.769c-0.51-1.069-2.121-1.038-3.724-1.015
			c-5.959,0.921-14.288-0.524-18.954,1.692c-4.38,3.628-3.251,12.771-3.383,20.648c1.091,2.064,1.995,4.322,3.383,6.092
			c4.975,2.359,13.104,1.562,20.308,1.691c2.15,0.656,2.593-1.728,3.726-1.014c1.587,1.342,3.082,2.782,4.736,4.062
			c0.877,2.169,2.812,3.28,3.725,5.416c1.649,1.395,2.654,3.436,4.062,5.075c1.174,1.873,3.235,2.858,3.727,5.416
			c0.791,0.785,2.259,0.9,2.707,2.031c1.787,2.271,2.57,5.553,6.091,6.09c0.959-0.733,2.428-0.957,2.369-2.705
			c-0.211-2.017,1.318-2.295,1.355-4.062V90.434c0.562-2.822,0.268-6.498,0.339-9.815c1.246-9.129,1.935-18.825,2.706-28.433
			c-0.254-5.444,0.54-9.842,0.339-15.231c0.771-0.469,0.128-2.355,0.34-3.385C95.63,32.381,95.966,31.365,95.802,29.845z
			 M42.659,73.848C42.251,73.883,42.451,73.355,42.659,73.848C44.065,73.523,42.729,74.861,42.659,73.848z M43.675,74.186
			c0.063-0.384,0.337-0.188,0.337,0C43.947,74.568,43.675,74.374,43.675,74.186z M89.707,33.231
			c-0.037,1.653,0.182,3.567-0.338,4.739v4.739c0.279,0.956-0.479,0.875-0.338,1.691v7.784c-0.441,11.07-2.275,20.742-2.371,32.155
			c-0.678,3.271-0.189,7.705-0.336,11.511c-1.577-0.457-1.944-2.123-3.049-3.049c-0.074-3.197,0.524-7.068-1.689-8.123
			c-1.311-0.294-1.205,0.827-2.033,1.016c-0.449,0.564,0.123,2.154-1.017,2.031c-0.927-3.697,0.362-9.61-1.688-12.186
			c-3.188-0.137-2.895,3.197-3.384,5.754c-1.931-0.311-1.789-2.167-1.36-4.061v-5.756c0.179-1.418,1.207-3.361,0.342-4.737
			c-4.223,0.288-4.407,4.616-4.739,8.8c-3.366-1.034-0.483-8.314-2.367-10.83c-2.386,0.096-2.342,2.62-3.724,3.723
			c-0.1,1.141-0.167,2.312-0.677,3.045c-0.047,1.082,0.333,2.59-1.015,2.371c-1.286,0.271-0.429-1.601-0.679-2.371v-3.045
			c0.272-1.326,0.781-3.611-0.336-4.399c-5.672-0.592-4.215,5.938-4.399,10.829h-2.372v-9.814c-2.567-0.428-3.205,1.082-4.062,2.369
			c0.044,0.836,0.05,1.631-0.337,2.033v3.045c-0.202,0.701,0.416,2.223-0.341,2.367c-1.728-0.189-0.759-3.076-1.014-4.738
			c-0.15-1.955,0.144-3.467,0.337-5.076c-2.747-0.664-2.833,4.125-2.708,7.447c-2.346-0.586-1.859-4.004-2.031-6.771
			c0.247-1.482-0.67,0.273-0.676-0.677c-0.102-2.133,0.054-4.007,0.338-5.753c5.193-0.223,11.403,0.571,15.572-0.677
			c0.916-0.662,1.847-1.315,2.027-2.708c0.92-0.242-0.241,1.596,0.679,1.354c3.615-0.897,5.388-3.638,8.124-5.417
			c2.33-2.179,4.947-4.08,7.444-6.092c4.348-3.527,8.765-6.782,12.522-11.17c0.52-0.604,0.896-1.309,1.693-1.693
			C90.094,32.955,89.895,33.232,89.707,33.231z"/>
	</g>
</g>
</svg>
