<?xml version="1.0" encoding="utf-8"?>
<!-- Generator: Adobe Illustrator 16.0.0, SVG Export Plug-In . SVG Version: 6.00 Build 0)  -->
<!DOCTYPE svg PUBLIC "-//W3C//DTD SVG 1.1//EN" "http://www.w3.org/Graphics/SVG/1.1/DTD/svg11.dtd">
<svg version="1.1" id="Layer_1" xmlns="http://www.w3.org/2000/svg"  x="0px" y="0px"
	 width="120px" height="120px" viewBox="4 4 120 120" style="enable-background:new 4 4 120 120;" xml:space="preserve">
<g id="sound5">
	<g>
		<path d="M107.919,31.865c-3.376-0.075-4.946,2.333-6.841,4.103c-0.24,0.223-0.662,0.247-0.686,0.685
			c-2.004,1.985-4.353,3.631-6.156,5.816c-2.088,2.018-4.432,3.779-6.5,5.815c-1.604,0.446-2.241,1.864-3.76,2.395
			c-0.271,0.756-1.199,0.856-1.713,1.368c-0.084,0.373-0.681,0.233-0.685,0.685c-0.308,0.211-0.611,0.413-0.687,0
			c0.078-3.458-0.234-7.309,0.344-10.262v-4.792c0.396-2.565,0.518-5.412,0.685-8.208c0.492-1.933,1.3-5.521,0-7.184
			c-1.928-0.498-2.983-0.627-4.104,0.343c-0.291,0.25-0.396,0.776-0.687,1.025c-1.212,1.038-2.106,2.751-3.418,3.421
			c-1.774,2.673-4.944,3.952-6.843,6.499c-2.479,1.967-4.361,4.535-6.843,6.501c-1.267,1.012-2.452,2.107-3.761,3.078
			c-1.042,1.122-1.809,2.526-3.421,3.08c-3.25-3.141-6.485-6.287-9.92-9.236c-1.679-1.514-3.514-2.872-5.131-4.448
			c-2.028-1.048-2.969-3.188-6.157-3.079c-0.15,0.42-0.438,0.704-1.028,0.684c-1.516,2.735,0.944,4.771,2.737,6.157
			c1.562,1.744,3.476,3.137,5.131,4.792c1.653,1.652,3.035,3.575,5.129,4.788c0.656,0.83,1.541,1.819,2.396,2.736
			c0.691,0.734,2.323,1.318,1.714,2.396c-0.897-0.702-2.001-1.193-3.767-1.027c-5.856,0.87-13.825-0.374-18.813,1.367
			c-0.011,0.334-0.419,0.266-0.686,0.343c-0.847,0.976-1.572,2.074-2.393,3.079c-1.377,4.78-1.003,11.31-1.027,17.445
			c0.904,2.402,2.035,4.582,3.419,6.5c5.49,2.401,15.634,1.898,22.922,1.369c0.02-0.209,0.049-0.406,0.344-0.344
			c0.017-0.209,0.047-0.404,0.341-0.342c-0.036-0.414,0.495-0.21,0,0c-0.02,0.209-0.054,0.404-0.341,0.342
			c-0.02,0.21-0.054,0.405-0.344,0.344c-3.4,3.101-7.063,5.934-10.947,8.553c-1.584,1.608-3.757,2.627-5.476,4.104
			c-1.869,1.323-4.5,1.888-4.104,5.476c0.335,0.008,0.267,0.418,0.341,0.682c2.73,1.812,6.165-0.352,7.87-1.709
			c2.281-1.254,4.3-2.773,6.499-4.105c2.126-1.408,4.274-2.795,6.162-4.444c1.073-0.726,2.054-1.609,3.077-2.397
			c0.944-0.726,1.861-1.626,3.08-2.052c1.836,2.61,3.878,5.014,5.813,7.524c0.988,1.295,1.694,2.869,3.077,3.767
			c0.528,1.642,2.318,2.017,2.398,4.104c0.803,0.793,2.281,0.909,2.736,2.051c1.81,2.296,2.596,5.613,6.156,6.158
			c1.045-0.781,2.622-1.022,2.396-3.078c-0.048-1.756,1.342-2.08,1.368-3.765c-0.129-8.681,0.385-16.721,0.686-24.971
			c1.258,0.226,1.701,1.261,2.393,2.051c0.75,0.733,1.9,1.066,2.396,2.056c1.294,1.553,2.848,2.852,4.104,4.444
			c2.804,2.896,5.748,5.658,8.896,8.211c0.608,1.673,2.16,2.4,2.735,4.105c1.447,0.835,1.742,2.819,4.105,2.735
			c2.034-0.248,3.174-1.389,3.422-3.423c-0.291-2.103-1.789-2.999-2.736-4.446c-1.109-1.287-2.131-2.66-3.078-4.104
			c-1.778-1.073-2.965-2.737-4.79-3.761c-3.279-3.819-6.789-7.365-10.606-10.948c-0.513-0.483-0.796-1.515-1.71-1.367
			c-0.813-1.808-3.207-2.034-3.764-4.106V63.34c2.604-2.417,5.549-4.49,8.552-6.501c2.632-2.273,5.477-4.331,8.21-6.499
			c2.479-2.425,4.974-4.837,7.527-7.184c1.104-1.404,2.842-2.177,3.763-3.763c1.626-0.773,2.855-1.934,3.081-4.104
			C110.688,33.432,109.712,32.238,107.919,31.865z M28.217,73.939C27.802,73.977,28.002,73.445,28.217,73.939
			C29.635,73.614,28.283,74.966,28.217,73.939z M29.24,74.283c0.065-0.389,0.344-0.189,0.34,0
			C29.518,74.67,29.24,74.475,29.24,74.283z M59.345,81.468c-0.508-0.179-0.864-0.507-1.369-0.687
			c0.439-0.586,0.706-1.344,1.708-1.367C59.935,80.461,59.098,80.42,59.345,81.468z M61.741,68.468
			c-1.419,0.523-1.895,1.985-3.424,2.394c-0.218-1.535,0.934-2.92,0-4.104c-4.191,0.253-4.394,4.501-4.787,8.551
			c-2.092-0.076-1.726-2.604-1.713-4.787c-0.013-2.153,0.22-4.552-0.684-5.814c-2.411,0.098-2.368,2.648-3.762,3.763
			c-0.101,1.152-0.172,2.337-0.688,3.079c-0.042,1.094,0.344,2.617-1.021,2.393c-1.302,0.274-0.436-1.614-0.684-2.393V68.47
			c0.094-1.159,0.543-1.966,0.343-3.421c-0.121-0.449-0.603-0.539-0.688-1.027c-5.73-0.599-4.26,6.003-4.446,10.947h-2.395v-9.92
			c-3.475-0.509-3.836,2.094-4.448,4.447v3.079c-0.205,0.706,0.424,2.247-0.342,2.394c-1.375,0.008-0.953-1.785-1.028-3.076v-3.765
			c-0.267-1.409,0.527-1.757,0.344-3.079c-2.778-0.671-2.862,4.168-2.739,7.526c-2.371-0.593-1.879-4.048-2.05-6.843
			c0.251-1.499-0.679,0.275-0.686-0.685c-0.103-2.159,0.054-4.051,0.341-5.814c5.252-0.227,11.526,0.576,15.739-0.686
			c0.926-0.67,1.868-1.327,2.054-2.738c0.461,0.108,0.281,0.857,0.343,1.369c2.588,0.082,3.069-1.945,5.131-2.394
			c0.121-0.451,0.598-0.538,0.681-1.026c0.399-0.056,0.61,0.075,0.684,0.342c1.76,0.405,2.036,2.294,3.765,2.735
			c0.651,1.399,2.287,1.817,3.076,3.079c1.342,0.713,2.28,1.827,3.422,2.736c0.945,1.109,2.702,1.404,3.08,3.082
			C63.714,66.338,62.75,67.43,61.741,68.468z M72.342,96.175c-1.592-0.458-1.96-2.143-3.078-3.077
			c-0.072-3.23,0.533-7.145-1.707-8.211c-1.326-0.297-1.219,0.836-2.056,1.027c-0.456,0.568,0.126,2.177-1.022,2.053
			c-0.708-3.4-0.11-8.107-1.031-11.291c0.424-1.629,1.909-2.193,3.081-3.078c1.086-0.965,2.016-2.086,3.422-2.736
			c0.119-0.447,0.598-0.536,0.682-1.023c1.408,0.186,2.067,1.125,2.737,2.053C72.561,79.518,72.307,87.704,72.342,96.175z
			 M75.766,32.891c-0.395,8.044-0.738,16.141-1.027,24.287c-0.116,1.251-1.17,1.565-2.053,2.055
			c-0.506,0.861-1.324,1.412-2.395,1.708c-2.203-2.015-4.805-3.634-6.843-5.815c-2.489-1.617-4.26-3.95-6.841-5.473
			c2.949-3.095,6.698-5.389,9.922-8.209c3.388-2.657,6.291-5.793,9.234-8.896C76.152,32.613,75.951,32.891,75.766,32.891z"/>
	</g>
</g>
</svg>
