<?xml version="1.0" encoding="utf-8"?>
<!-- Generator: Adobe Illustrator 16.0.0, SVG Export Plug-In . SVG Version: 6.00 Build 0)  -->
<!DOCTYPE svg PUBLIC "-//W3C//DTD SVG 1.1//EN" "http://www.w3.org/Graphics/SVG/1.1/DTD/svg11.dtd">
<svg version="1.1" id="Layer_1" xmlns="http://www.w3.org/2000/svg"  x="0px" y="0px"
	 width="120px" height="120px" viewBox="4 4 120 120" style="enable-background:new 4 4 120 120;" xml:space="preserve">
<g id="sound1">
	<g>
		<path d="M110.486,37.451c-1.342-3.161-3.143-5.866-5.344-8.17c-0.057-0.816-0.859-1.36-1.256-1.886
			c-0.488-0.652-0.769-1.546-1.57-1.885c-1.053-1.256-1.965-2.647-4.086-2.829c-0.018-0.19-0.045-0.373-0.315-0.315
			c-0.424,0.099-0.599,0.448-1.255,0.315c-1.116,1.2-0.309,3.455,0.941,4.085c-0.057,1.104,1.062,1.033,1.256,1.887
			c0.908,0.139,0.746,1.352,1.57,1.57c0.561,1.537,1.653,2.537,2.202,4.084c3.703,6.982,7.187,14.187,7.856,24.199v14.771
			c-1.377,10.252-3.248,20.009-8.484,26.398c-1.025,0.859-2.136,1.635-3.146,2.514c-1.25,0.74-3,0.977-3.141,2.828
			c0.701,2.416,3.475,2.789,5.973,1.887c2.264-0.881,3.679-2.606,5.655-3.772c0.983-2.159,2.81-3.475,3.456-5.97
			c1.318-1.932,2.008-4.489,2.83-6.914c1.303-5.189,2.432-10.559,3.143-16.344v-15.71C115.939,50.017,113.818,43.129,110.486,37.451
			z M71.52,27.709c-0.701-0.453-1.516-0.788-2.828-0.628c-0.371,0.152-0.715,0.334-0.943,0.628c-2.109,2.396-4.518,4.491-6.6,6.915
			c-1.597,0.602-2.452,1.947-3.771,2.828c-3.031,3.779-7.056,6.566-10.371,10.058c-2.387,2.222-4.933,4.285-7.542,6.285
			c-0.474-0.993-1.971-0.963-3.458-0.942c-5.534,0.855-13.268-0.487-17.599,1.571c-4.07,3.369-3.021,11.857-3.144,19.172
			c1.014,1.918,1.854,4.012,3.144,5.656c4.618,2.191,12.167,1.45,18.855,1.57c1.995,0.609,2.405-1.604,3.458-0.941
			c1.476,1.246,2.864,2.584,4.4,3.771c0.813,2.014,2.608,3.047,3.456,5.027c1.531,1.295,2.466,3.19,3.771,4.713
			c1.089,1.74,3.005,2.655,3.458,5.029c0.736,0.729,2.098,0.836,2.516,1.887c1.66,2.106,2.385,5.154,5.655,5.653
			c0.89-0.683,2.254-0.889,2.2-2.512c-0.195-1.872,1.225-2.13,1.258-3.771V90.25c0.523-2.62,0.25-6.034,0.313-9.113
			c1.159-8.478,1.799-17.479,2.515-26.4c-0.236-5.055,0.5-9.138,0.314-14.142c0.715-0.436,0.115-2.187,0.316-3.143
			c0.151-1.103,0.467-2.046,0.312-3.457C71.66,32.289,72.201,29.572,71.52,27.709z M21.865,74.85
			C21.486,74.883,21.67,74.395,21.865,74.85C23.169,74.549,21.929,75.791,21.865,74.85z M22.807,75.164
			c0.058-0.357,0.313-0.175,0.313,0C23.063,75.521,22.807,75.338,22.807,75.164z M65.547,37.138c-0.033,1.535,0.169,3.312-0.312,4.4
			v4.4c0.261,0.888-0.442,0.812-0.314,1.571v7.227c-0.406,10.278-2.112,19.259-2.2,29.856c-0.63,3.037-0.178,7.154-0.314,10.686
			c-1.463-0.422-1.805-1.971-2.831-2.827c-0.067-2.972,0.493-6.564-1.566-7.543c-1.218-0.272-1.119,0.768-1.887,0.942
			c-0.419,0.523,0.112,1.998-0.945,1.885c-0.86-3.433,0.336-8.922-1.57-11.312c-2.956-0.126-2.689,2.969-3.141,5.344
			c-1.792-0.287-1.659-2.013-1.261-3.771V72.65c0.164-1.315,1.118-3.121,0.316-4.398c-3.922,0.268-4.094,4.286-4.399,8.17
			c-3.127-0.959-0.451-7.72-2.199-10.056c-2.216,0.09-2.177,2.433-3.457,3.456c-0.096,1.059-0.157,2.146-0.63,2.828
			c-0.043,1.005,0.31,2.404-0.941,2.199c-1.195,0.252-0.399-1.484-0.629-2.199v-2.828c0.252-1.231,0.725-3.354-0.314-4.086
			c-5.265-0.549-3.912,5.516-4.084,10.057h-2.2V66.68c-2.387-0.396-2.976,1.006-3.771,2.199c0.04,0.776,0.046,1.516-0.314,1.889
			v2.827c-0.187,0.651,0.387,2.062-0.316,2.198c-1.605-0.177-0.704-2.855-0.941-4.4c-0.141-1.814,0.132-3.22,0.312-4.713
			c-2.55-0.615-2.631,3.829-2.514,6.915c-2.179-0.545-1.73-3.719-1.886-6.286c0.229-1.377-0.622,0.254-0.628-0.629
			c-0.095-1.98,0.049-3.72,0.314-5.342c4.823-0.207,10.589,0.53,14.458-0.629c0.852-0.615,1.713-1.221,1.885-2.514
			c0.854-0.225-0.225,1.482,0.629,1.257c3.357-0.834,5.001-3.378,7.543-5.029c2.163-2.023,4.592-3.788,6.911-5.656
			c4.036-3.274,8.137-6.297,11.629-10.371c0.479-0.561,0.83-1.216,1.571-1.572C65.902,36.882,65.721,37.139,65.547,37.138z
			 M99.488,81.449c-0.039-1.4,0.775-1.949,0.939-3.143c0.377-0.99,0.358-2.371,0.944-3.144c-0.153-1.412,0.16-2.354,0.315-3.457
			v-9.428c-0.693-0.039-0.135-1.333-0.315-1.886c0.252-1.09-0.468-1.208-0.312-2.199c-0.287-1.286-0.312-2.833-0.944-3.772
			c-0.897-5.387-3.458-9.113-5.97-12.884c-2.627-1.357-3.5-4.463-7.543-4.4c-0.783-0.049-0.975,0.494-1.571,0.628
			c-0.675,1.279,0.317,2.269,1.259,2.828c0.635,1.043,1.955,1.397,2.516,2.514c1.91,4.268,4.443,7.917,5.342,13.2
			c1.144,5.056,1.062,11.491,0.625,17.286c-0.467,0.58-0.602,1.493-0.625,2.515c-0.553,0.603-0.668,1.638-0.944,2.514
			c-0.875,1.432-1.106,3.503-2.201,4.713c-0.729,1.578-1.608,3-2.513,4.4c-0.944,1.36-2.592,2.016-2.198,4.715
			c0.565,1.316,1.465,2.303,3.142,2.514c4.201-1.035,5.53-4.945,7.543-8.17C97.951,85.15,98.561,83.143,99.488,81.449z
			 M79.376,55.364c-1.817-0.139-2.671,0.684-2.829,2.201c0.363,2.256,2.693,2.543,3.143,4.714c0.447,2.169,0.302,4.938,0.312,7.542
			c-0.098,0.426-0.445,0.603-0.312,1.258c-0.545,1.236-0.947,2.613-1.571,3.771c-0.093,1.688-1.864,1.696-1.57,3.771
			c1.229,1.433,2.853,0.274,3.455,0c1.218-0.552,1.683-1.595,2.515-2.2c0.897-2.354,2.158-4.339,2.517-7.229v-5.028
			C84.441,59.934,83.045,56.514,79.376,55.364z"/>
	</g>
</g>
</svg>
