<?xml version="1.0" encoding="utf-8"?>
<!-- Generator: Adobe Illustrator 16.0.0, SVG Export Plug-In . SVG Version: 6.00 Build 0)  -->
<!DOCTYPE svg PUBLIC "-//W3C//DTD SVG 1.1//EN" "http://www.w3.org/Graphics/SVG/1.1/DTD/svg11.dtd">
<svg version="1.1" id="Layer_1" xmlns="http://www.w3.org/2000/svg"  x="0px" y="0px"
	 width="120px" height="120px" viewBox="4 4 120 120" style="enable-background:new 4 4 120 120;" xml:space="preserve">
<g id="sound2">
	<g>
		<path d="M80.064,23.076c-0.75-0.489-1.633-0.85-3.045-0.677c-0.4,0.165-0.769,0.36-1.017,0.677
			c-2.271,2.58-4.862,4.836-7.106,7.446c-1.723,0.648-2.643,2.098-4.062,3.046c-3.265,4.07-7.594,7.072-11.168,10.832
			c-2.572,2.393-5.314,4.615-8.123,6.769c-0.511-1.069-2.122-1.038-3.725-1.015c-5.96,0.921-14.29-0.524-18.953,1.692
			c-4.384,3.628-3.255,12.771-3.388,20.648c1.096,2.064,1.998,4.322,3.388,6.092c4.973,2.359,13.106,1.562,20.311,1.691
			c2.146,0.656,2.587-1.728,3.719-1.014c1.593,1.342,3.087,2.782,4.741,4.062c0.874,2.169,2.807,3.28,3.722,5.416
			c1.652,1.395,2.655,3.436,4.062,5.075c1.175,1.873,3.232,2.858,3.724,5.416c0.796,0.785,2.256,0.9,2.708,2.031
			c1.791,2.271,2.567,5.553,6.092,6.09c0.959-0.733,2.43-0.957,2.369-2.705c-0.211-2.017,1.316-2.295,1.354-4.062V90.434
			c0.564-2.822,0.271-6.498,0.339-9.815c1.251-9.129,1.937-18.825,2.708-28.433c-0.255-5.444,0.54-9.842,0.342-15.231
			c0.768-0.469,0.127-2.355,0.34-3.385c0.162-1.188,0.502-2.203,0.336-3.724C80.219,28.009,80.8,25.082,80.064,23.076z
			 M26.589,73.848C26.179,73.883,26.378,73.355,26.589,73.848C27.993,73.523,26.654,74.861,26.589,73.848z M27.603,74.186
			c0.066-0.384,0.34-0.188,0.338,0C27.877,74.568,27.603,74.374,27.603,74.186z M73.639,33.231
			c-0.041,1.653,0.178,3.567-0.338,4.739v4.739c0.276,0.956-0.48,0.875-0.342,1.691v7.784c-0.439,11.07-2.275,20.742-2.366,32.155
			c-0.683,3.271-0.196,7.705-0.341,11.511c-1.578-0.457-1.939-2.123-3.047-3.049c-0.072-3.197,0.527-7.068-1.693-8.123
			c-1.31-0.294-1.203,0.827-2.03,1.016c-0.451,0.564,0.125,2.154-1.013,2.031c-0.932-3.697,0.356-9.61-1.695-12.186
			c-3.183-0.137-2.895,3.197-3.383,5.754c-1.932-0.311-1.788-2.167-1.357-4.061v-5.756c0.178-1.418,1.203-3.361,0.339-4.737
			c-4.223,0.288-4.408,4.616-4.737,8.8c-3.369-1.034-0.486-8.314-2.371-10.83c-2.387,0.096-2.344,2.62-3.722,3.723
			c-0.1,1.141-0.171,2.312-0.676,3.045c-0.046,1.082,0.334,2.59-1.017,2.371c-1.289,0.271-0.429-1.601-0.674-2.371v-3.045
			c0.267-1.326,0.776-3.611-0.341-4.399c-5.672-0.592-4.215,5.938-4.4,10.829h-2.37v-9.814c-2.57-0.428-3.205,1.082-4.058,2.369
			c0.042,0.836,0.047,1.631-0.343,2.033v3.045c-0.202,0.701,0.421,2.223-0.338,2.367c-1.727-0.189-0.755-3.076-1.015-4.738
			c-0.153-1.955,0.143-3.467,0.338-5.076c-2.75-0.664-2.832,4.125-2.708,7.447c-2.348-0.586-1.86-4.004-2.029-6.771
			c0.248-1.482-0.673,0.273-0.68-0.677c-0.102-2.133,0.054-4.007,0.341-5.753c5.195-0.223,11.402,0.571,15.57-0.677
			c0.916-0.662,1.846-1.315,2.033-2.708c0.915-0.242-0.247,1.596,0.674,1.354c3.615-0.897,5.39-3.638,8.124-5.417
			c2.333-2.179,4.946-4.08,7.445-6.092c4.346-3.527,8.765-6.782,12.524-11.17c0.52-0.604,0.893-1.309,1.693-1.693
			C74.021,32.955,73.822,33.232,73.639,33.231z M112.561,60.309c-0.748-0.042-0.146-1.435-0.338-2.031
			c0.273-1.174-0.504-1.301-0.338-2.369c-0.311-1.384-0.337-3.05-1.02-4.062c-0.967-5.802-3.721-9.815-6.428-13.876
			c-2.828-1.462-3.769-4.807-8.125-4.739c-0.84-0.053-1.045,0.531-1.69,0.677c-0.729,1.377,0.344,2.443,1.353,3.046
			c0.685,1.123,2.107,1.505,2.709,2.708c2.06,4.597,4.787,8.527,5.754,14.217c1.23,5.445,1.146,12.376,0.674,18.616
			c-0.502,0.625-0.647,1.607-0.674,2.707c-0.594,0.65-0.719,1.765-1.018,2.708c-0.939,1.542-1.189,3.772-2.365,5.077
			c-0.785,1.697-1.736,3.229-2.707,4.738c-1.018,1.467-2.797,2.172-2.373,5.076c0.609,1.42,1.584,2.481,3.385,2.708
			c4.527-1.114,5.957-5.327,8.123-8.799c1.053-1.771,1.713-3.932,2.709-5.756c-0.041-1.508,0.834-2.101,1.017-3.386
			c0.399-1.064,0.381-2.553,1.017-3.385c-0.164-1.52,0.172-2.535,0.338-3.723V60.309H112.561z M88.527,52.861
			c-1.955-0.15-2.873,0.736-3.045,2.371c0.39,2.43,2.901,2.739,3.381,5.077c0.486,2.337,0.326,5.318,0.344,8.123
			c-0.109,0.457-0.48,0.648-0.344,1.354c-0.584,1.331-1.018,2.813-1.688,4.062c-0.103,1.817-2.014,1.828-1.693,4.062
			c1.324,1.543,3.069,0.296,3.725,0c1.309-0.594,1.811-1.717,2.706-2.369c0.964-2.534,2.321-4.674,2.709-7.784V62.34
			C93.988,57.783,92.48,54.099,88.527,52.861z"/>
	</g>
</g>
</svg>
