<?xml version="1.0" encoding="utf-8"?>
<!-- Generator: Adobe Illustrator 16.0.0, SVG Export Plug-In . SVG Version: 6.00 Build 0)  -->
<!DOCTYPE svg PUBLIC "-//W3C//DTD SVG 1.1//EN" "http://www.w3.org/Graphics/SVG/1.1/DTD/svg11.dtd">
<svg version="1.1" id="Layer_1" xmlns="http://www.w3.org/2000/svg"  x="0px" y="0px"
	 width="120px" height="120px" viewBox="4 4 120 120" style="enable-background:new 4 4 120 120;" xml:space="preserve">
<g id="sound3">
	<g>
		<path d="M89.037,23.076c-0.755-0.489-1.637-0.85-3.047-0.677c-0.402,0.165-0.766,0.36-1.02,0.677
			c-2.27,2.58-4.861,4.836-7.104,7.446c-1.721,0.648-2.641,2.098-4.064,3.046c-3.266,4.07-7.594,7.072-11.17,10.832
			c-2.567,2.393-5.31,4.615-8.122,6.769c-0.51-1.069-2.123-1.038-3.721-1.015c-5.962,0.921-14.289-0.524-18.957,1.692
			c-4.382,3.628-3.25,12.771-3.383,20.648c1.091,2.064,1.993,4.322,3.383,6.092c4.973,2.359,13.106,1.562,20.31,1.691
			c2.148,0.656,2.588-1.728,3.723-1.014c1.591,1.342,3.083,2.782,4.737,4.062c0.878,2.169,2.811,3.28,3.726,5.416
			c1.647,1.395,2.653,3.436,4.058,5.075c1.176,1.873,3.238,2.858,3.725,5.416c0.795,0.785,2.262,0.9,2.709,2.031
			c1.791,2.271,2.57,5.553,6.094,6.09c0.957-0.733,2.427-0.957,2.372-2.705c-0.212-2.017,1.312-2.295,1.351-4.062V90.434
			c0.561-2.822,0.271-6.498,0.336-9.815c1.254-9.129,1.94-18.825,2.709-28.433c-0.252-5.444,0.539-9.842,0.34-15.231
			c0.772-0.469,0.127-2.355,0.338-3.385c0.17-1.188,0.509-2.203,0.34-3.724C89.189,28.009,89.77,25.082,89.037,23.076z
			 M35.557,73.848C35.146,73.883,35.348,73.355,35.557,73.848C36.963,73.523,35.626,74.861,35.557,73.848z M36.574,74.186
			c0.061-0.384,0.337-0.188,0.337,0C36.845,74.568,36.572,74.374,36.574,74.186z M82.605,33.231
			c-0.041,1.653,0.183,3.567-0.342,4.739v4.739c0.282,0.956-0.479,0.875-0.339,1.691v7.784c-0.437,11.07-2.271,20.742-2.364,32.155
			c-0.681,3.271-0.197,7.705-0.342,11.511c-1.576-0.457-1.941-2.123-3.046-3.049c-0.073-3.197,0.525-7.068-1.692-8.123
			c-1.309-0.294-1.205,0.827-2.029,1.016c-0.453,0.564,0.124,2.154-1.016,2.031c-0.93-3.697,0.357-9.61-1.691-12.186
			c-3.186-0.137-2.896,3.197-3.387,5.754c-1.931-0.311-1.787-2.167-1.354-4.061v-5.756c0.177-1.418,1.205-3.361,0.338-4.737
			c-4.224,0.288-4.41,4.616-4.739,8.8c-3.367-1.034-0.486-8.314-2.368-10.83c-2.388,0.096-2.341,2.62-3.724,3.723
			c-0.1,1.141-0.169,2.312-0.676,3.045c-0.047,1.082,0.333,2.59-1.018,2.371c-1.286,0.271-0.43-1.601-0.674-2.371v-3.045
			c0.269-1.326,0.777-3.611-0.34-4.399c-5.668-0.592-4.21,5.938-4.397,10.829h-2.371v-9.814c-2.573-0.428-3.204,1.082-4.064,2.369
			c0.044,0.836,0.052,1.631-0.339,2.033v3.045c-0.198,0.701,0.422,2.223-0.337,2.367c-1.727-0.189-0.756-3.076-1.011-4.738
			c-0.153-1.955,0.139-3.467,0.336-5.076c-2.747-0.664-2.832,4.125-2.708,7.447c-2.351-0.586-1.864-4.004-2.031-6.771
			c0.248-1.482-0.673,0.273-0.676-0.677c-0.105-2.133,0.053-4.007,0.338-5.753c5.194-0.223,11.4,0.571,15.566-0.677
			c0.919-0.662,1.85-1.315,2.035-2.708c0.916-0.242-0.242,1.596,0.674,1.354c3.616-0.897,5.39-3.638,8.124-5.417
			c2.333-2.179,4.948-4.08,7.446-6.092c4.346-3.527,8.766-6.78,12.525-11.17c0.518-0.604,0.895-1.309,1.691-1.693
			C82.988,32.955,82.793,33.232,82.605,33.231z M97.498,52.861c-1.959-0.15-2.874,0.736-3.045,2.371
			c0.391,2.43,2.9,2.739,3.383,5.077c0.482,2.337,0.325,5.318,0.34,8.123c-0.107,0.457-0.48,0.648-0.34,1.354
			c-0.589,1.331-1.021,2.813-1.689,4.062c-0.104,1.817-2.012,1.828-1.692,4.062c1.319,1.543,3.069,0.296,3.723,0
			c1.31-0.594,1.81-1.717,2.705-2.369c0.966-2.534,2.324-4.674,2.709-7.784V62.34C102.957,57.783,101.451,54.099,97.498,52.861z"/>
	</g>
</g>
</svg>
