<?xml version="1.0" encoding="utf-8"?>
<!-- Generator: Adobe Illustrator 16.0.0, SVG Export Plug-In . SVG Version: 6.00 Build 0)  -->
<!DOCTYPE svg PUBLIC "-//W3C//DTD SVG 1.1//EN" "http://www.w3.org/Graphics/SVG/1.1/DTD/svg11.dtd">
<svg version="1.1" id="Layer_1" xmlns="http://www.w3.org/2000/svg"  x="0px" y="0px"
	 width="120px" height="120px" viewBox="4 4 120 120" style="enable-background:new 4 4 120 120;" xml:space="preserve">
<g id="microphone">
	<g>
		<path d="M49.637,51.768c0.236,1.54,0.368,3.186,0.54,4.315c0.388,2.541,0.554,6.168,1.079,8.093
			c0.208,0.766,0.308,1.245,0.539,1.889c0.936,2.592,2.354,4.649,4.046,6.205c5.525,1.217,12.067,0.2,16.728-1.078
			c1.287-0.963,2.733-1.762,4.043-2.698c3.043-3.074,5.021-7.209,5.938-12.41V30.997c-0.591-4.804-1.443-9.347-2.968-13.217
			c-0.912-0.885-1.526-2.068-2.427-2.967c-0.855-0.945-2.211-1.388-3.238-2.158c-1.334-0.194-2.688-0.371-4.316-0.271
			c-0.346,0.016-0.373,0.345-0.809,0.271c-4.505-0.277-8.213,0.238-11.06,1.618c-1.419,1.189-2.787,2.43-3.507,4.317
			c-0.646,0.26-0.355,0.9-0.541,1.348c-0.195,0.485-0.585,0.871-0.805,1.349c-0.439,0.932-0.771,1.874-1.352,2.697
			c-1.491,3.813-2.857,7.752-3.234,12.678c-0.223,2.199,1.438,2.517,1.347,4.586v10.52H49.637z M74.994,55.544
			c-0.439,2.348-1.42,4.157-2.158,6.204c-1.388,1.789-3.949,2.947-7.283,3.236c-1.743,0.154-3.809-0.112-5.665,0
			c-0.57-1.227-1.278-2.317-1.349-4.044c0.588,0.671,0.994,1.521,2.427,1.35c1.428-0.014,1.728-1.152,2.158-2.159
			c0.11-0.65-0.493-0.587-0.269-1.349c-0.484-0.419-1.058-0.744-1.621-1.081c-1.387,0.319-2.305,1.113-2.695,2.43
			c-0.597-0.035-0.113-1.145-0.272-1.62c-0.309-0.318-0.304-0.953-0.268-1.618c-0.405-0.855-0.135-2.383-0.539-3.237V49.88
			c4.247-0.159,7.756-1.056,12.408-0.81c0.762-0.042,0.679,0.764,1.077,1.079c0.516,0.115,0.678,0.583,1.353,0.539
			c1.709,0.186,1.015-2.041,2.696-1.886V55.544z M61.234,20.747c2.539-1.329,7.09-0.645,10.79-0.809
			c0.11,0.701,0.807,0.813,0.812,1.618c0.631,0.088,0.262,1.176,0.807,1.35c-0.004,1.533,0.459,2.599,0.812,3.774
			c0.125,1.111-0.68-0.21-1.082,0.541c-0.27,0.359-0.441,0.813-0.807,1.079c0.019,1.364-0.344,1.543,0,2.697
			c0.479-0.161,1.119,0.792,1.348,0c0.711,0.081,0.212-1.046,1.08-0.808v13.488H68.25c-0.25-1.239,0.676-1.305,0.539-2.43
			c-0.516-0.744-0.76-1.759-1.617-2.158c-1.913,0.337-2.051,2.447-1.89,4.855c-1.893-0.188-2.959,0.456-4.857,0.27
			c-1.145,0.202-1.708,0.99-3.234,0.81c-0.125-5.902,0.367-12.417-0.541-17.534C57.927,24.991,59.65,22.938,61.234,20.747z
			 M67.709,26.144c0.562-0.159,0.873-0.567,1.35-0.811c0.041-0.316-0.047-0.764,0.27-0.809c0.121-1.018-0.53-1.266-0.809-1.888
			c0.228-1.127-0.523-1.273-0.537-2.159H66.63c-0.548,1.49-1.462,3.229-0.807,5.126C66.676,25.558,66.723,26.32,67.709,26.144z
			 M63.934,26.413c-0.063-1.196-0.196-2.325-1.351-2.429c-1.744,0.19-2.584,2.257-1.886,4.045
			C62.288,28.82,63.639,27.743,63.934,26.413z M60.966,33.425c1.246-0.282,1.754-1.301,1.617-2.966
			c-0.45-0.998-1.772-1.466-2.695-1.079c-0.533,0.222-0.792,0.932-1.08,1.079C58.803,32.173,59.292,33.394,60.966,33.425z
			 M66.9,36.932c1.604-0.343,1.317-3.841,0.271-4.585c-1.924-0.214-2.528,0.891-2.7,2.429C64.783,35.994,65.205,37.1,66.9,36.932z
			 M73.373,39.9c0.95-0.851,1.436-2.164,1.352-4.048c-0.211-0.059-0.313-0.226-0.27-0.54c-1.873-1.881-4.79,0.053-4.587,2.697
			C70.234,39.443,71.264,40.212,73.373,39.9z M60.156,41.788c1.146,0.064,1.599-0.56,1.89-1.347
			c-0.006-1.175,0.833-1.505,0.537-2.969c-0.337-0.111-0.548-0.348-0.537-0.81C58.312,34.544,57.306,41.117,60.156,41.788z
			 M95.766,46.372h-3.777c-1.86,0.927-3.531,2.046-4.586,3.777c0.017,1.245-0.12,2.638,0.271,3.508
			c-0.049,1.393,1.45,1.245,1.346,2.698c-0.604,5.328,0.285,12.149-0.809,16.995c-0.938,1.485-2.163,2.691-3.508,3.775
			c-3.725,2.57-8.416,4.17-14.025,4.854h-8.363c-2.963-0.543-5.879-1.134-8.633-1.888c-1.448-0.349-2.888-0.707-4.044-1.348
			c-1.295-0.504-2.155-1.443-3.507-1.89c-2.715-3.037-5.369-6.14-6.203-11.061V58.51c2.253-0.087,3.543-1.133,4.585-2.429
			c0.232-1.804,0.601-3.538,0.269-4.855c-0.019-0.077-0.48-0.427-0.539-0.54c-0.184-0.358-0.047-0.761-0.269-1.077
			c-0.501-0.708-1.511-1.265-1.889-1.618c-0.812-0.761-1.705-1.032-2.427-1.621h-3.24c-1.176,0.624-2.201,1.397-2.966,2.43
			c-0.42,1.784-0.681,3.42-0.269,5.394c0.68,0.489,0.765,1.572,1.618,1.887c0.187,1.075,1.875,0.642,1.888,1.889
			c-0.934,0.954-0.398,3.38-0.541,5.125c0.021,2.284-0.143,3.092,0,5.124c0.842,4.377,3.001,7.432,4.585,11.061
			c3.958,4.316,9.967,6.578,16.727,8.094c-1.059,2.449-0.322,6.691-0.54,9.98v1.617c-0.352,0.672,0.602,1.312,0,1.35
			c-2.858,0.468-5.954,0.701-8.63,1.35c-1.652,1.046-3.475,1.922-4.857,3.236c-0.805,0.545-1.333,1.367-2.158,1.889
			c-0.08,0.551-0.731,0.53-0.811,1.078c-0.63,0.088-0.261,1.179-0.807,1.35c-0.085,1.252,0,2.336,0.539,2.967
			c0.659,0.461-0.991,1.855,0,2.699c0.938,1.312,3.382,1.114,5.126,1.617c2.118,0.129,4.203,0.294,6.203,0.539h10.79
			c6.738,0.653,14.512,0.172,20.771-0.539c3.057-0.091,6.574,0.282,8.09-1.349c0.119-0.921,0.643-2.224-0.268-2.698
			c-0.688-0.885,0.316-1.882,0-3.236c-0.92-1.238-1.795-2.521-3.234-3.236c-0.706-1.547-1.992-2.506-2.971-3.775
			c-1.051-0.388-1.928-0.951-2.696-1.619c-1.589-0.302-2.969-0.808-4.585-1.078h-6.477c-0.559-0.16-1.772,0.334-1.889-0.271v-9.441
			c0.373-0.612-0.693-1.014,0-1.077c4.387,0.159,7.81-0.646,11.061-1.619c1.461-0.607,3.107-1.031,4.316-1.89
			c1.717-0.44,2.686-1.629,4.315-2.157c0.78-0.929,1.81-1.609,2.696-2.428c0.902-0.898,1.516-2.083,2.43-2.967
			c0.752-2.126,1.454-4.3,1.891-6.745V56.623c0.565-0.693,2.116-0.857,2.155-1.618c0.017-0.305,0.19-0.127,0.271-0.269
			c0.393-0.71,0.594-1.524,0.811-2.158C99.238,49.19,97.619,47.665,95.766,46.372z M47.48,111.652h-2.968
			c0.078-0.551,0.73-0.53,0.81-1.078c0.478,0.242,0.785,0.65,1.348,0.809c1.391,0.508,2.312-1.146,2.696,0
			C49.587,112.393,47.704,111.883,47.48,111.652z M62.314,89.264v-0.81h1.62c-0.578,2.392-0.129,5.804-0.27,8.632
			c-0.168,0.819,0.344,2.322-0.271,2.697c-1.188,0.38-0.73-0.887-0.81-1.618v-7.282C62.782,90.057,62.119,90.088,62.314,89.264z
			 M76.341,105.719c2.03,0.491,3.894,1.141,4.587,2.967c-3.873,0.981-8.156,1.554-11.869,2.697c-1.563-0.218-3.49,0.342-4.315,0
			c-0.082-1.747,1.6-3.525,0.271-4.855c-1.797,0-2.031,1.566-3.238,2.158c-0.167,0.733-0.535,1.265-1.079,1.617
			c-0.155,0.746-0.288,1.514-1.348,1.352c0.057-1.584,0.874-4.129-0.541-4.856c-1.714-0.097-1.838,1.397-2.698,2.157
			c-0.135,0.675-0.51,1.109-0.807,1.62c-0.097,0.625-0.176,1.264-1.081,1.079c-1.099,0.082-0.145-0.564-0.271-1.079
			c0.278-0.355,0.267-0.994,0.542-1.351c0.417-0.843,0.576-1.94,1.078-2.697C62.077,105.84,69.068,105.635,76.341,105.719z
			 M62.855,55.544c0.409,0.938,1.812,1.4,2.968,0.811c0.534-0.631,0.62-1.716,0.536-2.967C65.092,51.516,62.37,52.692,62.855,55.544
			z M69.327,59.052c0.407,0.669,0.927,1.233,1.888,1.347c1.779-0.133,2.094-3.287,1.083-4.584
			C70.045,55.633,69.49,57.147,69.327,59.052z"/>
	</g>
</g>
</svg>
