<?xml version="1.0" encoding="utf-8"?>
<!-- Generator: Adobe Illustrator 16.0.0, SVG Export Plug-In . SVG Version: 6.00 Build 0)  -->
<!DOCTYPE svg PUBLIC "-//W3C//DTD SVG 1.1//EN" "http://www.w3.org/Graphics/SVG/1.1/DTD/svg11.dtd">
<svg version="1.1" id="Layer_1" xmlns="http://www.w3.org/2000/svg"  x="0px" y="0px"
	 width="120px" height="120px" viewBox="4 4 120 120" style="enable-background:new 4 4 120 120;" xml:space="preserve">
<g id="squared-cross">
	<g>
		<path d="M107.053,56.697c0.383-5.338,0.607-11.844-0.283-16.832c-0.218-2.217,0.438-3.559,0.283-5.706
			c-0.814-1.942-1.637-3.877-2.566-5.706c-0.799-1.959-2.565-2.95-3.991-4.28c-5.213-1.257-12.238-0.694-17.978-1.428
			c-6.168-0.392-12.121-0.999-17.688-1.995h-6.848c-0.361,0.015-0.393,0.365-0.855,0.285c-5.204,0.025-10.598-0.139-15.404,0.284
			c-2.758-0.093-4.9,0.425-7.134,0.856c-0.937,0.394-1.915,0.749-2.851,1.143c-1.072,0.262-1.502,1.164-2.571,1.424
			c-0.541,0.602-0.818,1.463-1.141,2.283c-0.716,0.428-1.284,0.999-1.71,1.713c-0.371,1.439-0.422,3.191-1.143,4.278
			c-0.147,1.66,0.322,3.935-0.283,5.137c-0.034,3.674-0.764,6.655-0.574,10.556c-1.477,4.037-2.134,8.898-1.993,14.549
			c-0.427,5.094-0.919,10.115-1.713,14.836c0.288,6.379,0.664,12.834,0.856,18.545c1.521,2.475,2.928,5.062,5.418,6.562
			c5.355,0.827,11.147,1.216,15.977,2.569c1.265,0.312,1.422-0.483,2.283-0.571c0.117-0.485,0.368,0.061,0.856,0h1.427
			c3.699,0.26,6.139,0.041,9.986,0c1.416-0.183,1.604,0.866,2.852,0.854c1.355-0.118,2.059,0.419,3.139,0.573
			c3.304,0.342,7.155,0.285,10.84,0.285c3.773,0,7.527,0.23,10.844-0.285c4.061,0.352,6.598-0.818,10.555-0.573
			c0.392-0.558,1.748-0.151,2.285-0.569c0.76-0.188,1.783-0.116,2.277-0.568c1.438-0.467,2.641-1.165,3.995-1.714
			c1.946-4.037,2.569-8.892,2.569-14.265c0-5.273,0.151-11.008,0.283-16.547C107.176,67.264,106.725,61.346,107.053,56.697z
			 M30.023,36.727c-0.149,0.439-0.295,0.018-0.283-0.285v-1.143C30.133,34.393,30.021,36.307,30.023,36.727z M99.354,88.936
			c0.611,2.429,0.633,5.45,0.568,8.562c-5.441,1.5-13.227,0.655-19.398,1.426c-4.192-0.104-8.02,0.159-11.696,0.57
			c-2.004-0.472-3.384-1.563-5.705-1.713c-1.071,0.216-0.623-1.091-1.43-1.142c-1.335-0.289-0.945,1.146-2.282,0.857H55.7
			c-1.033,0.084-0.378-1.521-0.852-2c-0.688-0.262-0.757-1.146-2-0.854c-0.916-0.062-0.694,1.02-1.141,1.428
			c0.076,0.835-0.646,0.875-0.572,1.71h-4.276c0.288-2.36,1.649-4.751,0.569-6.847c-2.553-0.273-3.084,1.48-3.994,2.854
			c-0.376,0.765-0.766,1.516-1.14,2.281c-0.476,0.668-0.177,2.105-1.715,1.711c-1.207,0.104-0.247-1.235-0.284-1.711
			c0.207-0.648,0.254-1.457,0.571-1.998c-0.073-1.543,0.353-3.588-0.854-3.996c-1.31-0.164-1.333,0.955-2,1.43
			c-0.439,0.604-0.819,1.27-1.141,1.996c-1.033,1.059-0.586,3.6-2.566,3.71c-0.547-1.847,1.114-3.785,1.141-5.991
			c0.142-1.966,1.756-4.82-0.287-5.705c-1.312-0.363-0.453,1.445-1.138,1.711c-0.328,0.627-0.956,0.947-1.145,1.711
			c-0.606-0.093,0.048-1.244,0.287-1.428c-0.206-0.871,0.491-0.836,0.286-1.711c0.469-0.287,0.309-1.211,0.571-1.712
			c-0.009-0.673,0.491-0.841,0.284-1.712c0.488-0.938,0.754-2.098,0.854-3.423c0.407-0.955,0.407-2.755,0-3.708
			c-0.846-0.376-1.406-0.254-1.709,0.57c-0.648-0.141-0.855,1.574-1.143,0.855c0.014-2.175,0.235-4.141,0.569-5.993V50.137
			c0.409-4.441,0.853-8.851,0.856-13.695c0.289-2.45,0.543-5.541,0.288-7.703c1.322-0.865,3.351-1.021,5.134-1.426
			c6.377-0.27,13.134-0.528,19.113,0.285c1.295,0.211-0.435-0.783,0.855-0.572h5.992c9.719,1.888,20.688,2.519,31.955,2.854
			c0.007,0.279,0.35,0.223,0.567,0.287c2.072,1.443,1.521,5.517,2.566,7.987C99.982,55.142,99.02,71.391,99.354,88.936z
			 M81.377,37.867c-2.111,0.645-2.971,2.544-4.277,3.996c-1.938,1.294-3.356,3.109-5.423,4.28c-1.431,1.803-3.155,3.309-5.133,4.562
			c-2.04-2.526-4.067-5.062-5.995-7.703c-2.092-2.564-3.851-5.467-7.131-6.846H51.42c-1.945,1.381-3.61,3.046-5.133,4.851
			c-0.972,0.742-2.155,1.267-2.854,2.283c-0.843,0.87-2.235,1.187-1.996,3.138c0.287,1.542,2.246,0.824,3.139,1.142
			c1.15,2.556,2.789,4.627,4.562,6.562c0.494,1.407,1.648,2.156,2.281,3.422c0.963,1.021,2.098,1.941,2.57,3.139
			c-2.001,1.899-3.806,3.993-5.707,5.991c-1.093,0.81-2.082,1.723-3.139,2.567c-0.626,1.371-2.402,1.59-2.566,3.423
			c-0.156,2.819,1.75,3.574,2.566,5.421c1.059,1.605,1.912,3.419,3.423,4.564h2.282c1.946-0.622,2.756-2.382,3.998-3.708
			c3.277-2.143,5.972-4.864,9.125-7.133c2.628,2.317,4.964,4.927,6.849,7.986c0.851,0.863,2.084,1.342,2.57,2.568
			c1.164,0.641,1.32,2.291,2.851,2.568c1.026,0.436,1.8,0.488,2.852,0.283c2.054-0.988,3.31-2.775,4.566-4.562
			c1.089-0.907,2.325-1.669,3.139-2.852c-0.081-1.506,0.302-1.694,0-2.855c-1.141-2.664-3.219-4.387-4.85-6.562
			c-0.81-1.09-1.726-2.078-2.567-3.136c-0.8-1.198-2.023-1.972-2.568-3.423c3.525-3.037,7.5-5.625,10.842-8.846
			c0.346,0.795,1.752,0.529,2.852,0.571c0.387-0.755,1.506-0.777,1.43-1.997c0.431-0.711,0.551-1.731,0.568-2.854
			c-1.748-3.293-4.281-5.801-6.561-8.561C84.42,39.389,83.581,37.944,81.377,37.867z M48.567,44.145
			c0.962-0.103,0.476,1.235,0.858,1.712C48.875,45.516,47.867,44.879,48.567,44.145z M47.143,73.529
			c0.053-0.323,0.285-0.157,0.285,0C47.373,73.854,47.14,73.689,47.143,73.529z M58.839,55.27c-1.403-1.067-1.229-3.714-2.567-4.852
			c-0.49-1.981-0.859-4.084-1.713-5.704c-0.461-0.833-0.9-0.112-1.426-0.569c-0.048-0.809-0.521-1.19-0.567-1.998
			c0.459-0.08,0.49,0.27,0.853,0.285c0.957,1.611,2.375,2.761,3.139,4.565c0.902,0.337,0.994,1.479,1.711,1.997
			c0.346,0.892,1.232,1.24,1.429,2.283C57.641,51.414,58.419,53.928,58.839,55.27z M70.252,67.252
			c0.15-0.439,0.296-0.018,0.285,0.287C70.385,67.979,70.238,67.559,70.252,67.252z M72.818,57.553
			c-0.879-1.116-1.928-2.067-2.854-3.137c0.129-0.823,1.229-0.676,1.428-1.428c0.992,0.244,0.992,1.48,1.711,1.997
			c0.897-0.138,0.648,0.875,1.713,0.569C74.502,56.574,73.837,57.24,72.818,57.553z M77.1,53.844c0.069-0.357,0.567-0.286,0.568,0
			C77.416,54.021,77.157,54.19,77.1,53.844z M78.811,48.138c-1.297-0.448,0.424-1.02,0.571-1.71
			c0.386,0.088,0.237,0.715,0.284,1.142C79.436,47.813,78.885,47.737,78.811,48.138z M83.375,48.423
			c-0.215-0.927-0.518-1.767-0.857-2.566c0.144-0.903-1.414-0.106-1.141-1.143c1.066-0.925,1.238,0.877,1.998,1.143
			c0.346,0.892,1.23,1.241,1.426,2.281C84.115,48.021,84.182,48.66,83.375,48.423z M38.012,37.582
			c0.08,0.082,0.434-0.136,0.287-0.285C38.22,37.219,37.865,37.436,38.012,37.582z M87.654,89.793
			c0.08,0.077,0.434-0.139,0.285-0.286C87.861,89.428,87.508,89.643,87.654,89.793z"/>
	</g>
</g>
</svg>
