<?xml version="1.0" encoding="utf-8"?>
<!-- Generator: Adobe Illustrator 16.0.0, SVG Export Plug-In . SVG Version: 6.00 Build 0)  -->
<!DOCTYPE svg PUBLIC "-//W3C//DTD SVG 1.1//EN" "http://www.w3.org/Graphics/SVG/1.1/DTD/svg11.dtd">
<svg version="1.1" id="Layer_1" xmlns="http://www.w3.org/2000/svg"  x="0px" y="0px"
	 width="120px" height="120px" viewBox="4 4 120 120" style="enable-background:new 4 4 120 120;" xml:space="preserve">
<g id="squared-minus">
	<g>
		<path d="M109.631,56.012v-14.55c-0.365-2.679-0.754-5.332-1.143-7.988c-0.602-2.44-1.721-4.363-2.852-6.276
			c-0.572-0.476-1.324-0.768-1.427-1.712c-1.778-0.695-2.959-1.988-4.853-2.567c-0.678-0.558-1.92-0.553-2.565-1.142
			c-1.127-0.207-2.31-0.354-3.142-0.856c-13.633-0.282-27.887,0.184-41.364,0.286c-2.111-0.264-3.088-1.666-5.423-1.712
			c-5.945-0.425-11.327-1.416-17.975-1.142c-0.044,0.333-0.45,0.311-0.853,0.284c-1.74,0.354-2.857,1.329-4.281,1.999
			c-0.391,0.654-1.174,0.916-1.709,1.426c-0.429,0.717-0.712,1.571-1.428,1.998c-0.937,2.252-1.546,4.944-1.712,7.988
			c-0.167,3.043-0.256,6.283-0.285,9.414c-0.603,5.957-0.14,12.982-0.286,19.4c0.308,6.254,0.951,12.171,1.139,18.544
			c0.111,6.451,0.677,12.449,2.856,16.83c1.86,3.465,4.374,6.277,7.987,7.99c1.73,0.838,3.88,1.254,6.275,1.426
			c1.973,0.597,4.5,0.634,7.135,0.57c0.579,0.654,2.367,0.104,3.42,0.286c1.26,0.071,2.208,0.455,3.715,0.284
			c2.082,0.578,5.031,0.293,7.13,0.857c5.14,0.09,8.434,2.026,13.979,1.711c5.445,0.215,10.012-0.449,15.403-0.286
			c-0.047-0.616,1.015-0.128,1.426-0.284c0.339-0.329,1.013-0.324,1.716-0.286c0.729-0.601,2.215-0.444,2.851-1.142
			c2.417-0.243,4.151-1.174,6.278-1.711c1.81-0.855,3.319-2.002,5.135-2.854c0.546-0.784,1.212-1.45,1.996-1.996
			c0.565-0.768,0.807-1.86,1.428-2.567c1.035-3.816,0.393-9.305,0.572-13.98c0-4.845-0.108-9.805,0.285-14.264
			C109.982,65.787,109.631,60.898,109.631,56.012z M102.498,65.427c-0.252,2.409-0.521,4.804-0.857,7.132v11.696
			c0.004,3.81,0.234,7.647-0.283,11.129c-0.371,1.435-1.742,1.869-2.854,2.566c-0.903,0.806-2.174,1.249-3.704,1.428
			c-1.035,0.679-2.585,0.843-3.996,1.142c-0.882,0.828-2.808,0.614-3.996,1.141c-5.158-0.215-9.537,0.354-14.55,0.285
			c-6.521-0.706-12.258-2.192-19.112-2.566c-6.496-0.734-13.921-0.537-19.688-1.998c-1.912-1.416-3.724-2.934-4.566-5.42
			c-0.441-1.27-0.801-2.619-1.138-3.995c0.2-1.058-0.487-1.226-0.284-2.282c-0.174-0.592,0.351-1.875-0.287-1.998
			c0.146-3.476-0.162-6.492-0.286-9.699c0.217-1.924-0.459-2.965-0.284-4.85c-0.667-0.949,0.147-3.384-0.573-4.279
			c-0.139-6.519-0.423-12.89-0.283-19.686c0.394-2.934,0.516-6.141,0.569-9.415c0.056-3.274-0.4-7.059,1.429-8.559
			c0.158-0.412,0.443-0.696,0.854-0.856c0.392,0.846,2.158,0.315,2.854,0.856h18.544c5.549,0.689,12.562-0.086,17.689,0.285h18.543
			c6.109-0.025,10.877,1.295,13.979,4.278c2.055,4.109,2.283,9.726,2.283,15.692v17.974H102.498z M90.23,57.438
			c-0.855-1.144-1.851-2.144-3.426-2.568c-0.878-0.07-0.871-1.026-1.425-1.426c-0.237-0.808-1.118-0.972-1.711-1.427
			c-1.242-0.005-2.567-0.095-3.423,0.284C66.48,52.136,53.514,52.77,40.874,53.73c-1.381,0.14-1.599,1.444-2.855,1.711
			c-1.809-0.29-2.181,0.859-3.134,1.426c-0.538,2.224-0.192,5.328-0.288,7.988c0.597,1.211,0.546,3.068,1.142,4.279
			c0.489,1.41,1.142,2.662,2.57,3.139c3.797,0.731,7.714-0.825,11.694-0.855c4.393-0.077,7.984-0.954,11.981-1.427h14.552
			c2.573-0.197,4.272,0.481,6.849,0.284c2.083,0.279,4.975,0.67,6.274-0.57c1.09-1.189,1.211-3.354,1.142-5.706
			C90.863,61.562,90.838,59.209,90.23,57.438z M41.16,60.862c-0.652-0.396-0.107-1.986-0.285-2.854h1.994
			C43.373,59.022,41.424,59.701,41.16,60.862z M48.007,61.432c0.461-1.06,0.416-2.628,1.142-3.424h3.708
			C51.169,59.077,50.27,60.938,48.007,61.432z M53.144,64.57c0.324-0.628,0.954-0.948,1.139-1.712
			c0.503,0.26,0.474,1.05,1.142,1.141C55.364,64.886,54.002,64.481,53.144,64.57z M55.71,59.437
			C55.985,60.62,54.856,59.493,55.71,59.437v-1.142c0.33-0.24,0.765-0.376,1.426-0.287C56.782,58.605,56.308,59.081,55.71,59.437z
			 M58.564,63.999c-0.85-0.594,0.716-1.161,0.566-1.997c0.885-0.026,0.854,0.862,0.861,1.713
			C59.574,63.871,58.516,63.382,58.564,63.999z M60.276,58.865v-0.857c0.709-0.03,0.88-0.533,1.426,0
			C61.502,58.573,60.939,58.769,60.276,58.865z M67.407,59.149c-0.718,0.521-0.63,1.848-1.997,1.713
			c0.275-1.151,0.383-2.472,1.142-3.138h3.138C68.904,58.176,68.372,58.88,67.407,59.149z M83.955,63.715h-3.141
			c-0.316-0.54,0.211-1.642-0.855-1.998c-1.412-0.083-1.523,1.138-2.282,1.714h-7.133c0.791-1.875,2.56-2.769,2.283-5.706h10.56
			C84.004,59.29,84.016,61.465,83.955,63.715z"/>
	</g>
</g>
</svg>
