<?xml version="1.0" encoding="utf-8"?>
<!-- Generator: Adobe Illustrator 16.0.0, SVG Export Plug-In . SVG Version: 6.00 Build 0)  -->
<!DOCTYPE svg PUBLIC "-//W3C//DTD SVG 1.1//EN" "http://www.w3.org/Graphics/SVG/1.1/DTD/svg11.dtd">
<svg version="1.1" id="Layer_1" xmlns="http://www.w3.org/2000/svg"  x="0px" y="0px"
	 width="120px" height="120px" viewBox="4 4 120 120" style="enable-background:new 4 4 120 120;" xml:space="preserve">
<g id="squared-plus">
	<g>
		<path d="M109.782,45.808c0-6.199-1.044-12-2.567-16.548c-1.533-2.558-3.037-5.144-5.133-7.131
			c-1.562-0.344-2.527-1.281-4.282-1.428c-0.28-0.671-1.646-0.256-1.999-0.855c-0.785-0.259-2.002-0.089-2.566-0.57
			c-5.825-0.167-12.332,0.349-17.688-0.285c-4.397-0.535-10.772,0.729-13.692,0c-0.383-0.096-0.659,0.324-0.856,0.285
			c-0.112-0.022,0.029-0.287-0.285-0.285c-1.002,0.007-1.789,0.122-1.998,0.285h-0.569c-9.983,0.383-21.703-0.972-29.956,1.141
			c-1.516,1.148-3.477,1.851-5.135,2.854c-1.469,1.289-2.511,3.005-3.711,4.564c-0.965,2.966-1.043,6.189-1.14,9.415
			c0.236,1.723,0.003,2.354,0,4.564c0.319,1.581,0.202,3.6,0.571,5.135c0.764,6.747,1.853,13.173,2.282,20.257
			c1.354,6.153,1.489,13.536,2.567,19.971c1.121,6.486,1.143,14.072,5.133,17.688c3.691,2.881,9.625,3.14,15.979,3.14
			c6.164,0,12.899,0.296,18.26,0.854c6.139-0.23,12.556-0.187,18.545-0.57c6.342-0.123,12.717-0.213,17.973-1.426
			c2.908-1.938,6.2-3.498,7.986-6.562c2.545-10.103,1.223-24.074,1.998-35.947C109.898,58.4,109.782,52.065,109.782,45.808z
			 M102.082,88.316c-0.053,2.233,0.244,4.812-0.574,6.276c-2.551,2.429-7.619,1.704-11.697,1.997c-2.33,0.049-4.404,0.35-6.562,0.57
			c-1.351-0.212-1.961,0.32-3.142,0.285c-0.815,0.32-2.221,0.059-2.851,0.57c-8.019,1.395-16.757,2.07-25.106,3.14
			c-6.627-0.125-14.029,0.526-18.828-1.427c-1.011-1.652-1.672-3.653-1.998-5.992c-0.355-0.976-0.096-2.565-0.568-3.424
			c-0.168-0.502,0.346-1.677-0.287-1.713c-0.164-0.5,0.346-1.676-0.283-1.711c-0.693-4.635-1.25-9.399-1.714-14.265
			c-1.601-9.047-2.216-19.087-3.709-28.245c0.171-4.489-0.354-9.673,0.286-13.694c0.755-1.239,1.709-2.282,2.854-3.138
			c1.479-0.42,2.729-1.072,3.994-1.712c0.158-0.41,0.443-0.697,0.855-0.855c10.09,0.242,20.052,0.284,29.958,0.284
			c4.865,0,9.756-0.326,14.547,0c4.983,0.341,9.855,0.338,14.838,0.287c2.643,0.209,4.436,1.268,6.559,1.996
			c0.982,1.778,2.229,3.289,2.854,5.42c0.533,2.224,0.896,4.624,1.427,6.847c0.056,14.133-0.15,27.997-0.568,41.654
			C102.292,83.775,102.572,86.436,102.082,88.316z M92.378,54.366c-3.317-1.004-6.481,0.534-9.987,0.286
			c-0.035,0.818-1.957-0.246-1.994,0.571h-2.854c-0.3,0.647-1.791,0.108-2.565,0.283c-0.711,0.24-1.529,0.375-2.568,0.286
			c-1.568-6.987-1.193-15.924-3.705-21.968c-0.809-0.146-1.215-0.69-2-0.856h-2.855c-0.36,0.018-0.391,0.365-0.852,0.285
			c-2.696,0.348-5.848,0.238-7.704,1.427c-0.751,1.247-0.572,3.421-0.569,5.422c-0.104,2.1,0.071,3.921,0.285,5.705
			c0.375,3.615,0.858,7.13,1.424,10.556c-4.748,0.576-10.593,0.057-15.404,0.571c-1.207,0.123-1.454,1.21-2.566,1.426
			c-1.588-0.255-2.041,0.623-2.855,1.141c-0.92,3.849,0.039,8.296,1.429,11.413c2.06,1.742,6.622,0.984,10.269,1.141
			c3.628,0.18,7.975-0.365,11.129,0.285c0.303,6.223-0.872,12.411,0,18.26c0.589,0.742,1.268,1.394,2.566,1.426
			c0.558,0.773,1.107,1.558,2.282,1.713c1.896,0.336,4.692,0.482,6.562,0c0.118-0.359,0.368-0.583,0.854-0.571
			c0.908-0.899,1.341-2.274,2-3.423v-15.12c0.17-0.592-0.352-1.874,0.285-1.997h10.557c3.014-0.598,7.26,0.034,9.416-1.428
			c0.472-0.586,1.363-2.229,0.566-3.139c0.408-1.02,0.815-2.037,0.858-3.424C94.139,60.785,94.637,56.2,92.378,54.366z
			 M40.452,63.782v-1.999h1.431C41.514,62.557,41.363,63.548,40.452,63.782z M53.008,66.634c-2.103,0.035-5.222-0.024-7.705,0
			c0.146-1.188,1-1.665,1.144-2.852c0.905,0.615,0.472,2.569,1.995,2.565c1.777,0.256,1.551-1.492,2.855-1.712
			c-0.238,2.505,2.835,1.261,3.993,1.712C54.745,66.893,53.777,66.622,53.008,66.634z M55.29,62.07
			c0.007-0.277,0.349-0.223,0.571-0.287C55.853,62.062,55.512,62.006,55.29,62.07z M66.13,54.366
			c0.091,0.669,0.45,1.071,0.287,1.997h-1.998c0.108-1.509,1.005-2.228,1.427-3.423C66.465,52.892,65.973,53.952,66.13,54.366z
			 M62.994,53.795c-0.586,0.08-0.57,0.763-0.857,1.143c-1.014-1.936-0.689-5.208-1.426-7.418c0.053-1.367,0.496,0.49,1.426,0
			c1.159-0.175,0.7-1.96,1.142-2.853c-0.003-0.758,0.108-1.629-0.284-1.997c0.383-1.52,1.425-2.379,1.141-4.565
			c-2.246-0.061-2.581,1.795-3.424,3.139c-0.127,1.175,1.021,1.071,1.142,1.997c-0.624,0.611-0.901,1.571-0.856,2.853
			c-1.283-1.757-0.547-5.54-1.142-7.988c-0.12-0.596,0.194-0.755,0.288-1.142c1.266,0.348,2.922,0.311,4.562,0.286
			c0.665,3.423,0.629,7.55,0.854,11.412c-1.703,0.293-2.26,1.733-3.139,2.851C62.072,52.813,63.205,52.635,62.994,53.795z
			 M65.277,61.783h1.424v1.142c-0.088,1.055-1.213,1.07-1.711,1.712c-0.268,0.78-0.874,1.217-1.145,1.997
			c-0.479-0.563-0.309-1.78-0.567-2.567C63.477,62.84,64.957,62.895,65.277,61.783z M66.701,72.055
			c-0.768,1.043-2.221,1.395-2.566,2.854C63.145,73.246,64.365,71.344,66.701,72.055z M63.562,83.468
			c-0.195-0.768,0.593-0.553,0.856-0.856c0.245-0.23,0.171-0.78,0.57-0.856c0.259-1.833,1.062-3.122,1.712-4.562
			c0.641,0.121,0.114,1.404,0.284,1.994v2c-1.028,1.44-2.667,2.275-3.14,4.277C63.212,85.342,63.733,84.059,63.562,83.468z
			 M66.701,88.031c-1.09-0.246-0.287-1.484,0-1.997C67.312,86.213,66.969,87.791,66.701,88.031z M74.406,63.21
			c-0.24,1.094-0.524,2.142-1.713,2.282c0.16-1.836,1.133-2.862,1.713-4.278h1.998C76.271,62.416,75.01,62.48,74.406,63.21z
			 M88.67,66.35c-2.738,0.496-5.449,1.018-8.846,0.855c-0.916,0.25-0.391-0.941-1.137-0.855c-1.248-0.199-1.274,0.823-2.283,0.855
			c0.322-0.627,0.953-0.948,1.137-1.713c0.309-1.064-0.707-0.812-0.568-1.71c0.329-0.636,1.703-1.705,0.855-2.568
			c0.125-0.638,1.406-0.116,1.996-0.284c0.709-0.435,2.213-0.072,2.855-0.571c2.225,0.356,4.229-0.821,5.989,0L88.67,66.35
			L88.67,66.35z"/>
	</g>
</g>
</svg>
