<?xml version="1.0" encoding="utf-8"?>
<!-- Generator: Adobe Illustrator 16.0.0, SVG Export Plug-In . SVG Version: 6.00 Build 0)  -->
<!DOCTYPE svg PUBLIC "-//W3C//DTD SVG 1.1//EN" "http://www.w3.org/Graphics/SVG/1.1/DTD/svg11.dtd">
<svg version="1.1" id="Layer_1" xmlns="http://www.w3.org/2000/svg"  x="0px" y="0px"
	 width="120px" height="120px" viewBox="4 4 120 120" style="enable-background:new 4 4 120 120;" xml:space="preserve">
<g id="user6">
	<g>
		<path d="M88.855,83.934c-5.631-2.985-13.031-4.436-19.969-5.135c-0.943-0.674-1.678-1.557-2.572-2.279
			c-0.101-2.373-0.349-4.601-0.854-6.563c1.317-1.726,2.556-3.529,3.995-5.136c1.541-3.691,3.58-6.882,4.562-11.125
			c6.918-0.017,8.164-7.803,6.848-14.268c-1.521-0.536-2.77,0.346-3.99-0.569c-0.057-7.075-1.665-12.603-3.998-17.401
			c-1.104-1.083-2.111-2.264-3.135-3.426c-0.99-0.245-1.584-0.89-2.282-1.426c-1.89-0.49-3.692-1.065-5.708-1.428h-3.709
			c-0.365,0.394-1.238,0.285-1.994,0.287c-2.139,1.096-4.854,1.615-6.28,3.425c-1.247,0.367-1.791,1.439-2.565,2.28
			c-1.002,0.71-1.795,1.628-2.283,2.854c-1.022,0.596-1.188,2.047-1.998,2.852c-0.223,1.486-1.354,2.068-1.426,3.711
			c-0.699,0.913-0.974,2.261-1.141,3.709c-0.521,0.337-0.225,1.485-0.57,1.997c0.062,0.916-0.504,1.205-0.287,2.28
			c-1.695,0.395-3.008,1.178-3.992,2.285c-1.582,2.281-1.711,5.646-1.426,9.127c0.844,0.869,1.793,1.631,2.565,2.568
			c0.37,1.34,2.405,1.017,2.853,2.283c-0.021,1.922,0.672,3.129,0.857,4.85c0.658,0.864,0.834,2.207,1.426,3.137
			c0.584,0.939,0.889,2.156,1.428,3.14c0.523,2.517,2.107,3.978,1.711,7.418c-0.539,0.981-0.957,2.085-1.998,2.565
			c-0.457,1.064-1.74,1.301-2.566,2c-1.146,0.566-2.596,0.826-3.994,1.141c-3.354,2.258-7.992,3.227-11.41,5.42
			c-4.002,1.61-6.844,4.381-9.703,7.133c-0.49,1.506-1.687,2.307-1.996,3.994c-0.807,1.191-1.916,2.076-2.281,3.708
			c-0.186,1.244,0.371,3.226-0.285,3.995c-0.41,1.359,1.193,0.707,0.854,1.997c-0.506,1.158-0.283,3.071,0,4.278
			c1.268,1.207,2.531,2.418,5.422,1.996c1.068-0.021,0.863,1.231,2.283,0.856c27.641-0.206,53.299-0.683,77.885-3.993
			c1.019-2.689,2.099-5.322,2.283-8.847C99.314,91.389,94.604,86.984,88.855,83.934z M76.588,43.138
			c1.311-0.265,1.377,0.713,2.568,0.568c-0.23,2.147-0.559,4.199-3.139,3.995C75.807,45.782,76.795,45.058,76.588,43.138z
			 M38.357,47.701c-0.887,0.03-1.363-0.349-1.996-0.571c-0.047-0.901,0.756-0.951,0.57-1.994c1.023-0.169,1.38,0.329,1.998,0.57
			C38.689,46.321,38.189,46.677,38.357,47.701z M92.564,103.335c-0.931,0.592-3.105-0.062-3.992,0.57
			c-0.84-0.074-0.877,0.645-1.715,0.569c-0.197,0.562-1.59-0.069-1.711,0.57c-1.103-0.055-2.103-0.008-2.854,0.286
			c-7.584-0.101-14.746,0.183-21.682,0c-3.631-0.078-6.76-0.657-9.984-1.144c-3.281-0.427-7.065-0.354-10.271-0.854
			c-5.333,0.468-11.378,0.227-16.832,0.57c-0.574,0.099-0.893-0.061-0.857-0.57H21.24c-0.441-0.066-1.33-1.096-1.713-0.286
			c-0.863-0.353,0.311-0.981,0-1.71c0.004-0.76-0.105-1.63,0.284-1.999c0.021-1.504,0.952-2.093,0.858-3.708
			c2.863-2.75,5.834-5.388,8.846-7.986c2.744-1.344,5.505-2.676,8.842-3.426c1.168-0.83,2.998-0.996,3.994-1.999
			c1.602-0.396,2.238-1.755,3.709-2.278c-0.208-0.778,0.566-0.574,0.572-1.144c0.41-0.063,0.098-0.853,0.57-0.854
			c-0.01-0.961,0.393-1.51,0.857-1.998c0.316-1.581,1.688-2.115,1.992-3.707c-0.412-3.772-0.998-7.37-1.426-11.126
			c-0.576-3.512-0.562-7.615-1.424-10.842c0.143-3.853-0.312-8.301,0.283-11.699c1.4-4.972,4.094-8.65,6.562-12.552
			c1.902-1.05,3.059-2.839,5.135-3.707c0.75-0.298,1.75-0.343,2.855-0.288c0.51,0.037,0.6-0.35,1.141-0.285
			c2.962-0.297,3.347,1.979,4.851,3.14c0.039,1.29,1.27,1.392,1.143,2.853c1.012,0.314,0.713,1.945,1.424,2.566
			c0.453,7.406,0.957,16.08,0.285,23.68c-0.404,0.543-0.662,1.239-0.854,1.999c-0.457,0.397-0.732,0.979-0.855,1.71
			c-0.805,0.908-1.455,1.973-2,3.14c-0.521,0.427-0.712,1.188-1.426,1.425c-0.879,0.072-0.875,1.027-1.426,1.428
			c-0.699,1.201-1.139,2.666-1.998,3.708c0.219,1.549-0.451,2.211-0.283,3.709c0.014,0.967-0.664,1.236-1.142,1.711
			c-0.519,0.338-0.224,1.487-0.573,1.998v2.854c0.354,1.454,1.319,2.296,1.998,3.422c1.184,0.626,2.473,1.145,3.138,2.282
			c1.601-0.267,1.937,0.728,3.14,0.856c0.812,0.42,1.889,0.584,2.568,1.143c9.275,1.091,17.213,3.519,21.111,9.986
			C93.135,97.833,92.416,100.143,92.564,103.335z M116.814,54.548c-0.728-0.03-1-0.521-1.426-0.854
			c-2.187-0.188-3.492,0.501-4.851,1.141c-1.496,0.024-2.567,0.477-4.279,0.285c-1.715-3.327-2.393-7.689-4.852-10.271
			c0.102-1.527-0.507-2.348-0.855-3.425c-0.366-0.015-0.396-0.365-0.854-0.284c-0.072,0.402-0.625,0.326-0.857,0.571
			c-0.338,1.086-0.756,2.095-1.139,3.138c-0.352,1.172-0.486,2.559-1.143,3.424c-0.466,2.58-1.225,4.86-2.281,6.848
			c-1.805,0.573-4.592,0.163-6.848,0.284c-0.337,0.329-1.011,0.323-1.714,0.287c-0.961,0.938-2.909,0.892-3.707,1.995v1.998
			c0.509,0.725,1.488,0.982,2.281,1.428c0.808,0.428,1.319,1.151,2.565,1.139c1.207,1.271,3.215,1.732,3.996,3.423
			c0.049,0.999-0.078,1.828-0.572,2.282c0.646,1.193-0.053,2.298,0,3.711c-1.09,1.664-2.118,3.398-2.28,5.991
			c0.556,0.585,0.89,1.39,1.998,1.427c2-0.092,2.354-1.828,3.707-2.566c1.403-0.787,2.362-2.015,3.996-2.569
			c0.192-0.662,0.944-0.763,1.139-1.427c0.822-0.031,0.495-1.217,1.429-1.141c2.174,0.868,3.805,2.282,5.991,3.141
			c0.771,0.841,1.318,1.912,2.566,2.279c0.541,0.506,1.827,0.266,2.282,0.856c0.656,0.723,1.271,0.409,2.281,0.286
			c0.982-0.762,1.006-2.586,0.285-3.709c-0.352-1.457-0.924-2.689-1.711-3.713c-0.918-2.601-2.305-4.73-2.855-7.701
			c0.996-1.572,1.996-3.141,4.855-2.853c0.658-0.574,1.432-1.038,1.709-1.999c1.16-0.071,1.33-1.142,1.709-1.994
			C116.96,55.733,116.971,55.058,116.814,54.548z M91.994,60.541c0.01-0.279,0.348-0.222,0.57-0.286
			C92.555,60.532,92.215,60.478,91.994,60.541z M99.984,53.409c0.723-0.129,1.133,1.49,0.567,1.711
			C99.521,55.391,100.156,53.996,99.984,53.409z M101.123,61.969c-0.16,0.591-0.445,0.604-0.855,0.282v-0.57
			C100.633,61.696,100.66,62.045,101.123,61.969C101.094,61.621,101.537,61.792,101.123,61.969z M102.551,61.112
			c-0.336-0.047-0.238-0.521-0.285-0.857c0.486-0.104,0.535,0.223,0.568,0.571C102.592,60.773,102.568,60.938,102.551,61.112z
			 M104.832,67.389h-0.57v-0.57h0.57V67.389z"/>
	</g>
</g>
</svg>
