<?xml version="1.0" encoding="utf-8"?>
<!-- Generator: Adobe Illustrator 16.0.0, SVG Export Plug-In . SVG Version: 6.00 Build 0)  -->
<!DOCTYPE svg PUBLIC "-//W3C//DTD SVG 1.1//EN" "http://www.w3.org/Graphics/SVG/1.1/DTD/svg11.dtd">
<svg version="1.1" id="Layer_1" xmlns="http://www.w3.org/2000/svg"  x="0px" y="0px"
	 width="120px" height="120px" viewBox="4 4 120 120" style="enable-background:new 4 4 120 120;" xml:space="preserve">
<g id="stop">
	<g>
		<path d="M96.324,85.582c-0.512-2.717-0.734-5.732-1.139-8.559c-0.103-12.836-0.379-25.488-0.572-38.23
			c-0.174-1.568,0.857-2.548,0.857-3.423c0-0.901-0.505-1.005-0.572-1.999c-0.685-0.505-0.955-1.117-1.711-1.424
			c-0.861-0.351-1.744-0.213-2.854-0.287c-6.149-0.414-13.401,0.314-19.112,0c-0.365,0.016-0.396,0.368-0.857,0.287
			c-8.68,0.447-18.014,0.242-27.102,0.283c-2.086,0.294-4.219,0.538-6.275,0.857c-1.381,1.213-3.538,0.202-4.853,1.709
			c-0.849,1.816-0.533,4.793-0.856,7.134v7.987c0.307,10.346,1.824,19.479,2.854,29.103c0.615,4.807,0.689,10.148,1.711,14.551
			c0.896,0.722,1.742,1.492,2.567,2.281c3.546,0.564,8.452,0.36,11.698-0.283c3.822-0.366,7.935-0.436,11.125-1.428
			c7.575-0.918,16.114,0.448,23.967,0.283c1.922,0.307,2.52-0.714,3.709-1.139c0.244,1.275,1.105,1.936,2.852,1.712
			c1.725-0.183,3.645-0.164,4.564-1.146C97.203,91.646,96.361,88.498,96.324,85.582z M38.409,50.205
			c-0.804-1.001-0.519-3.095-0.569-4.85c-0.396-1.409-0.279-3.336-0.285-5.135c1.96-0.134,3.756-0.428,5.992-0.285
			C41.888,43.414,39.833,46.49,38.409,50.205z M44.687,88.434c-0.234-0.805,0.4-0.738,0.284-1.426
			c0.933-0.076,0.606,1.108,1.431,1.141C46.364,88.779,45.189,88.271,44.687,88.434z M61.519,49.634
			c0.217-1.97,1.209-3.165,1.428-5.136c1.005-1.184,1.026-3.344,1.999-4.562c1.197-0.705,3.908,0.104,5.136-0.572
			c1.086-0.211,0.321,1.052,0,1.14c0.045,0.711-0.451,0.887-0.572,1.428c-0.674,0.657-0.911,1.75-1.428,2.567
			c-1.08,1.582-1.797,3.531-2.853,5.136c-1.046,1.71-1.936,3.579-2.853,5.421c-0.515,0.818-0.751,1.91-1.427,2.566
			c-0.241,0.863-0.673,2.543-1.713,1.713c-1.094,0.054-0.102-0.233-0.285-0.854c-0.117-0.688,0.523-0.621,0.285-1.428
			c0.486-0.562,0.328-1.765,0.857-2.282c-0.176-1.317,0.641-1.641,0.571-2.853C61.125,51.334,60.887,50.048,61.519,49.634z
			 M52.96,54.77c-0.842,0.774-1.912,1.321-2.283,2.567c-0.583-0.601,0.355-2.104,0-3.423c-0.221-0.92-1.289-0.993-1.996-1.428
			c0.358-2.019,1.518-3.237,1.426-5.706c-0.525-1.091-1.129-2.104-2.852-1.997c0.613-1.762,2.002-2.753,2.281-4.848h10.557
			c-2.284,4.562-4.342,9.354-5.991,14.548C53.505,54.364,53.345,54.681,52.96,54.77z M58.098,70.176c0.053-0.324,0.284-0.16,0.284,0
			C58.326,70.501,58.095,70.335,58.098,70.176z M57.809,71.03c-0.147-0.146,0.208-0.362,0.289-0.286
			C58.242,70.895,57.89,71.111,57.809,71.03z M72.93,71.602c-0.596-0.25,0.094-1.594,0.857-1.426
			C73.531,70.68,73.098,71.007,72.93,71.602z M77.498,78.447c-0.639-0.564,0.275-1.985,0.283-2.853
			C79.033,76.398,77.738,77.505,77.498,78.447z M87.482,62.188V75.88c0.022,1.072-1.433,0.663-1.711,1.429
			c-0.754,0.295-0.963,1.129-1.713,1.424c-0.076,0.879-0.619,1.285-0.855,2c-0.43,0.52-0.303,1.597-0.857,1.994
			c0.154,1.104-0.51,1.395-0.287,2.57c-0.723,0.128,0.293,2-1.139,1.423c-1.209,0.105-0.248-1.233-0.285-1.71
			c0.227-0.533,0.479-1.046,0.572-1.712c0.475-0.38,0.441-1.269,0.852-1.712c0.166-0.596,0.711-0.812,0.574-1.712
			c1.098-2.133,2.514-3.954,2.566-7.132c-0.148-1.09-1.018-1.454-2.281-1.426c0.963-1.983,1.957-3.939,2.566-6.277
			c0.486-2.118,2.277-4.331,1.426-6.847c-1.607-0.088-1.574,1.468-2.568,1.996c-0.131,1.39-1.248,1.795-1.424,3.138
			c-1.016,0.444-0.174-0.968-0.859-0.856c0.092-0.656-0.82-0.314-0.852-0.854c-0.838-0.074-0.879,0.645-1.715,0.571
			c1.191-2.995,2.566-5.801,3.711-8.846c0.738-1.352,1.223-2.96,1.996-4.28c0.43-1.331,2.076-2.66,0.857-3.992
			c-4.843,0.676-5.101,5.93-7.988,8.559c-0.982-0.125-1.601,0.112-2.283,0.285c0.32-2.061,1.432-3.325,1.996-5.135
			c0.562-1.281,2.422-3.721,0.57-4.853c-0.896-0.54-2.129,0.605-2.854,1.144c-0.599,0.918-1.265,1.776-1.711,2.853
			c-1.07,1.876-1.822,4.073-2.854,5.991c-0.771,2.272-1.725,4.357-2.568,6.561c-0.315,1.205-0.905,2.137-1.139,3.426
			c-0.676,0.752-0.529,2.325-1.145,3.137c-0.061,0.917,0.51,1.209,0.289,2.283c-0.545,1.736-1.312,3.252-2,4.85
			c-0.667,1.618-1.093,3.471-1.996,4.852c-0.108,1.026-0.378,1.903-0.856,2.565c-0.109,1.031-0.378,1.904-0.854,2.568
			c0.233,0.807-0.401,0.739-0.284,1.427c-0.777-0.205,0.2,1.343-0.572,1.139c-0.102,0.947-1.645,0.449-2.566,0.574
			c1.62-4.562,4.017-8.348,5.705-12.84c1.844-4.243,2.697-9.479,4.85-13.409c0.229-0.991-0.426-1.097-0.282-1.999
			c2.639-6.58,5.059-13.382,7.983-19.684H87.48c0.668,1.517-0.1,4.476,0.57,5.992C87.227,50.33,88.305,57.213,87.482,62.188z
			 M88.338,86.721c-1.037-0.258-0.172-0.84-0.285-1.71C88.682,85.049,88.174,86.219,88.338,86.721z"/>
	</g>
</g>
</svg>
