<?xml version="1.0" encoding="utf-8"?>
<!-- Generator: Adobe Illustrator 16.0.0, SVG Export Plug-In . SVG Version: 6.00 Build 0)  -->
<!DOCTYPE svg PUBLIC "-//W3C//DTD SVG 1.1//EN" "http://www.w3.org/Graphics/SVG/1.1/DTD/svg11.dtd">
<svg version="1.1" id="Layer_1" xmlns="http://www.w3.org/2000/svg"  x="0px" y="0px"
	 width="120px" height="120px" viewBox="4 4 120 120" style="enable-background:new 4 4 120 120;" xml:space="preserve">
<g id="strategy">
	<g>
		<path d="M79.199,27.726c2.582,0.957,4.916,2.16,6.504,4.11c-2.098,2.354-4.693,4.205-5.479,7.876
			c0.754,1.413,1.56,2.776,3.424,3.081c1.233,0.091,1.651-0.632,2.74-0.685c0.899-0.239,0.725-1.559,1.713-1.713
			c0.473-0.666,1.23-1.051,1.366-2.052c0.755-0.436,1.173-1.095,1.714-1.713c0.582-0.667,0.582-1.62,1.715-1.712
			c2.758,0.894,4.64,2.661,7.873,3.082c1.408,1.216,3.19,2.059,5.135,2.739c0.822,0.208,1.561,0.492,2.74,0.343
			c1.625-0.773,2.856-1.936,3.08-4.108c-0.705-3.289-3.767-4.223-6.166-5.822c-2.597-1.395-6.052-1.935-7.871-4.109
			c1.266-1.928,2.4-3.986,2.053-7.532c-1.143-1.104-3.537-0.664-4.791,0c-1.379,1.588-2.229,3.71-4.452,4.451
			c-2.749-1.361-5.458-2.76-7.876-4.451c-3.04-0.386-6.969-0.902-7.533,2.054C74.984,25.094,77.814,25.684,79.199,27.726z
			 M117.206,85.25c-1.61-2.389-2.304-5.691-3.769-8.218c-0.746-3.362-2.881-5.337-4.451-7.874
			c-3.76-4.456-8.518-7.923-13.354-11.299c-5.317-2.786-10.196-6.008-16.433-7.876c-2.672-1.438-5.639-2.583-8.905-3.425
			c-1.062-0.989-3.337-0.768-4.448-1.711c-1.922-0.132-3.583-0.528-5.821-0.342c1.26-1.249,3.242-1.78,3.081-4.452
			c-0.614-1.784-1.804-2.994-4.451-2.739c-1.622,1.117-3.93,1.552-6.167,2.054c-4.121,2.154-7.84,4.709-11.978,6.847
			c-0.664,0.711-0.839,1.906-1.373,2.74c-0.745,0.738-1.323,1.645-1.368,3.082c1.01,3.667,4.627,4.73,7.877,6.164
			c0.67,0.921,1.554,1.638,2.738,2.054c0.673,0.923,1.556,1.637,2.739,2.055c1.623,1.568,3.413,2.975,6.505,3.081
			c1.214-0.496,1.847-1.576,2.737-2.396c0.337-2.845-0.447-4.572-1.711-5.821c-0.367-0.886-1.237-1.274-1.369-2.397
			c-0.698-0.373-2.175-0.866-1.372-1.711c7.791,0.882,14.407,2.942,20.202,5.82c5.967,2.708,11.925,5.425,16.779,9.244
			c4.867,3.806,8.969,8.379,12.664,13.356c3.547,5.125,6.104,11.244,9.246,16.775c0.266,0.875,0.342,1.941,1.028,2.396
			c0.569,0.57-0.217,2.499,1.024,2.396c0.223-1.947,0.717-3.621,1.026-5.479C118.186,92.943,117.573,89.217,117.206,85.25z
			 M24.414,54.433c-0.209,0.029-0.406,0.046-0.342,0.343H23.39c-3.795,0.087-6.349,1.412-8.905,2.74
			c-3.047,2.886-4.192,7.677-4.451,13.353c0.438,2.875,0.503,6.115,1.024,8.902c3.45,5.756,12.246,9.184,21.232,7.188
			c5.711-3.192,8.446-9.354,8.9-17.803c-0.235-5.131-1.843-8.883-4.45-11.642C33.898,55.643,29.249,53.789,24.414,54.433z
			 M33.313,76.689c-1.517,1.336-2.902,2.803-5.131,3.426c-2.53-0.098-4.343-0.906-6.848-1.029c-0.825-1.346-2.264-2.078-3.083-3.423
			c0.094-1.162-0.265-2.776,0.343-3.425c0.837-2.471,3.548-3.07,4.449-5.479c1.249-0.231,1.671-1.298,2.739-1.711
			c0.634-0.737,1.839-0.904,2.399-1.713c1.246-0.105,2.225,0.055,3.08,0.344c1.208,2.67,2.12,5.641,2.74,8.902
			C33.771,73.945,33.134,74.909,33.313,76.689z M82.279,80.799c-1.178-0.533-2.619-0.805-4.452-0.684
			c-0.581-0.002-0.747,0.797-1.026,1.025c-0.764,0.629-1.646,0.935-2.056,1.368c-0.22,0.24-0.116,0.789-0.343,1.027
			c-0.707,0.737-1.607,1.594-2.396,2.397c-1.584,1.619-3.273,3.369-5.479,4.451c-3.904-1.914-6.282-5.357-11.3-6.164
			c-1.076,0.402-1.901,1.063-2.74,1.713c-0.052,0.402,0.062,0.972-0.34,1.025c-0.278,2.677,1.101,3.693,1.712,5.48
			c1.123,0.59,1.616,1.805,2.739,2.395c0.604,0.311,1.062,0.768,1.369,1.369c0.402,0.514,1.424,0.404,1.37,1.371
			c-2.332,3.146-6.579,4.376-6.506,9.93c0.516,0.514,1.442,0.613,1.713,1.369c3.011-0.071,4.89-1.271,6.164-3.082
			c2.357-0.839,3.293-3.096,5.479-4.107c3.679,2.14,5.819,5.817,11.64,5.82c1.331-0.724,2.565-1.545,3.084-3.083
			c0.415-2.463-0.539-3.429-1.37-4.108c-0.116-0.094,0.102-0.568,0-0.684c-0.123-0.145-0.541-0.574-0.686-0.686
			c-0.271-0.207-0.746-0.112-1.028-0.342c-0.476-0.394-0.892-0.996-1.366-1.371c-1.066-0.834-2.23-1.741-3.086-2.396
			c1.385-2.383,3.471-4.062,5.139-6.162C80.561,86.84,82.777,85.176,82.279,80.799z"/>
	</g>
</g>
</svg>
