<?xml version="1.0" encoding="utf-8"?>
<!-- Generator: Adobe Illustrator 16.0.0, SVG Export Plug-In . SVG Version: 6.00 Build 0)  -->
<!DOCTYPE svg PUBLIC "-//W3C//DTD SVG 1.1//EN" "http://www.w3.org/Graphics/SVG/1.1/DTD/svg11.dtd">
<svg version="1.1" id="Layer_1" xmlns="http://www.w3.org/2000/svg"  x="0px" y="0px"
	 width="120px" height="120px" viewBox="4 4 120 120" style="enable-background:new 4 4 120 120;" xml:space="preserve">
<g id="switch">
	<g>
		<path d="M37.605,61.913v-4.127c-0.168-0.519,0.357-1.734-0.297-1.771c0.413-0.848-0.803-1.498,0-1.769
			c4.342,0.77,9.933,0.291,14.158,1.179h11.797c2.906-0.534,6.674-0.205,10.026-0.294c0.271-0.804,0.923,0.411,1.771,0
			c0.948-0.067,1.246,0.521,2.358,0.294c0.833,0.049,1.228,0.542,2.062,0.59c0.527,0.359,1.718,0.055,2.065,0.592
			c1.515,0.236,2.241-0.32,3.245-0.592c1.146,0.82,1.744,2.185,4.126,1.771c0.537-0.549,1.431-0.732,1.772-1.476
			c0.136-1.044,0.653-1.704,0.588-2.949c0.395-1.965,0.789-3.928,0.887-6.192c0.148-4.038,1.09-9.703-1.182-12.092
			c-7.752-0.539-15.901-0.297-23.89-0.297c-8.16,0-16.15,0.484-23.886,0.592c-2.138,0.32-4.437,0.48-6.786,0.589
			c-0.083-3.749,0.324-7.988-0.588-10.91c-0.929-0.745-1.73-1.613-3.244-1.771c-0.38,0.016-0.408,0.378-0.887,0.295
			c-2.455,1.572-4.58,3.48-7.075,5.013c-2.496,2.714-5.012,5.409-7.963,7.668c-1.202,1.353-2.751,2.364-4.132,3.541
			c-1.3,1.352-3.377,1.929-3.535,4.42c0.949,3.576,3.957,5.09,5.896,7.67c1.324,0.939,2.122,2.4,3.244,3.539
			c0.91,1.45,2.562,2.156,3.245,3.835c1.492,0.573,2.556,1.57,3.834,2.358c1.51,0.652,2.748,1.578,4.424,2.062
			c1.406,0.856,1.881,2.639,4.129,2.655c0.081-0.607,1.305-0.07,1.181-0.886c0.604-0.079,0.587-0.786,0.884-1.178
			c0.086-0.602,0.8-0.579,0.887-1.179C37.534,63.221,37,61.994,37.605,61.913z M83.021,49.821c0.155-0.454,0.31-0.02,0.297,0.297
			C83.164,50.572,83.01,50.137,83.021,49.821z M83.613,47.461c-0.152-0.151,0.212-0.375,0.291-0.292
			C84.061,47.32,83.693,47.546,83.613,47.461z M28.758,58.671c-0.713-0.687,0.461-0.792,0.588-1.476
			C30.008,57.409,29.49,58.877,28.758,58.671z M33.771,50.708c-0.578,0.04-1.399,1.314-0.588,1.769c-0.124,0.656-1.566,0.23-1.771,0
			v3.242c-0.961-0.074-1.421,0.352-1.473,1.182c-0.727-1.229,0.594-2.934,0.292-4.72c0.669-0.313,0.113-1.854,0.298-2.653
			c0.582-0.56,0.141-1.394,0-2.066c-1.672-0.29-1.641,1.117-2.658,1.477c-0.256,1.219-0.92,2.029-1.18,3.243
			c-0.506,0.181,0.025,1.398-0.587,1.476c-0.133,0.559,0.402,1.776-0.593,1.476c-0.695-1.062,0.366-2.464,0-4.129
			c0.019-2.381,1.504-5.302,0.297-7.081c-3.612,0.024-3.209,4.066-4.129,6.786c-0.616-0.469-1.48-0.685-1.475-1.771
			c0.501-0.584,0.321-1.842,0.592-2.655c-0.057-0.238-0.299-0.293-0.299-0.587c-0.25-0.24-0.175-0.812-0.586-0.887
			c-0.066-0.426-0.88-0.104-0.886-0.592c-1.06,0.321-1.654,1.101-1.474,2.655c-1.632-0.14-2.092-1.45-3.245-2.063
			c2.502-2.217,5.458-3.979,7.667-6.489c2.578-2.043,4.926-4.314,7.076-6.779c0.757-0.034,1.035-0.543,1.479-0.889
			c0.338-0.049,0.524,0.066,0.588,0.297c0.082,3.521-0.029,6.851-0.294,10.028c0.6,0.674,2.449,0.104,3.537,0.293
			c0.676-0.308,1.782-0.188,2.362-0.588c4.515,0.091,8.044-0.804,12.678-0.592c0.689,0.098,1.221,0.354,1.771,0.592
			c5.957-0.341,13.354-0.297,20.35-0.297c5.004,0,10.113-0.242,14.746,0.297c0.17,1.254-0.213,1.95-0.295,2.947
			c0.219,1.006-1.199,0.376-0.886,1.475c-0.583,0.203-0.787,0.787-0.884,1.476c-0.666-0.515-0.195-2.166-1.182-2.362
			c-2.139,0.713-2.414,3.287-2.947,5.604c-1.383-0.638,0.296-2.149,0-3.539c0.42-1.052,0.507-2.44,0.885-3.539
			c-0.266-0.129-0.527-0.257-0.592-0.588c-1.059-0.173-1.428,0.342-2.065,0.588c-1.073,0.893-1.683,2.249-2.062,3.836
			c-0.957,0.319-1.112,1.441-1.771,2.063c-2.846-0.896,1.325-4.771-1.179-6.194c-1.815,0.051-2.317,1.421-2.949,2.655
			c-0.931,0.937-1.624,2.111-2.063,3.539c-0.948-0.065-1.25,0.521-2.359,0.295c-0.036-1.771,1.443-4.109-0.294-5.016
			c-1.965,0.004-2.281,1.654-3.245,2.657c-0.665,0.315-1.298,0.668-1.767,1.177c-0.382,0.509-0.614,1.163-1.479,1.182
			c0.128-2.516,2.506-4.961,1.18-7.079c-2.431-0.072-2.78,1.937-4.128,2.95c-0.388,1.479-1.216,2.518-1.77,3.834
			c-1.628-0.153-2.778,0.17-4.129,0.295c0.147-1.155,1.518-2.249,0.59-3.539c-2.168,0.486-3.206,2.104-4.128,3.834
			c-0.973,0.012-1.467,0.498-2.654,0.295c0.338-1.442,1.436-2.992,0.589-4.719c-1.752-0.278-2.165,0.781-2.654,1.771
			c-0.274,1.197-1.104,1.841-1.179,3.242C38.471,50.098,35.756,50.035,33.771,50.708z M116.938,82.852
			c-0.565-1.397-1.584-2.346-2.356-3.537c-1.714-2.318-3.363-4.698-5.312-6.782c-1.437-2.496-3.646-4.22-5.308-6.489
			c-1.595-2.435-3.626-4.436-5.604-6.487c-0.705-0.182-1.344-0.426-2.357-0.294c-1.105,0.023-0.893-1.272-2.359-0.889
			c-0.425,0.167-0.719,0.464-0.886,0.889c-0.368,0.711-1.485,0.674-1.476,1.769c-0.219,4.152,0.353,7.513,0.295,11.502
			c-8.898-0.238-17.701,0.295-26.54,0.295c-8.762,0.002-17.529-0.811-25.951,0.295c-0.635,0.742-1.107,1.645-1.773,2.357
			c-0.071,2.729,1.025,4.285,1.475,6.488c0.24,2.713,0.601,5.301,1.18,7.668c-0.008,2.37,0.225,4.494,0.887,6.192
			c0.738-0.052,0.923,0.454,1.179,0.887c0.526,0.163,1.228,0.151,1.476,0.589c1.707,0.232,2.518-0.43,4.129-0.295
			c1.871-1.078,4.46-1.439,7.079-1.769c5.296-0.507,10.014-1.587,14.743-2.652c7.28-0.194,14.351-0.6,21.528-0.887v3.243
			c0.187,0.896-0.377,2.541,0.296,2.949c-0.023,2.285-0.212,4.731,0.887,5.896c1.556,0.83,3.271,0.768,4.72,0.297
			c0.623-0.206,1.036-0.854,1.473-1.18c0.725-0.547,1.344-0.729,1.771-1.182c1.979-1.757,4.06-3.408,6.191-5.013
			c1.95-1.787,4.247-3.228,6.194-5.014c1.092-0.777,2.086-1.651,3.244-2.36c0.989-0.973,2.742-1.188,3.24-2.652
			C118.122,85.602,118.182,83.579,116.938,82.852z M50.286,90.227c0.057-0.336,0.295-0.164,0.295,0
			C50.526,90.561,50.286,90.389,50.286,90.227z M50.581,86.688v1.475c0.037,0.729-0.361,0.501-0.295,0V85.21
			c0.203-1.075,0.414-2.142,0.295-3.537c-0.471-1.203-1.345-1.997-2.655-2.358c-1.926,0.53-3.267,1.646-4.125,3.244
			c-0.771-1.396-1.031-3.297-1.479-5.015h0.593c3.018,1.013,7.306,0.755,10.911,1.181C51.578,80.211,51.358,83.729,50.581,86.688z
			 M63.264,89.636c0.313-0.274,0.09-1.088,0.886-0.884C64.201,89.395,63.907,89.689,63.264,89.636z M67.982,89.046
			c-0.234-1.51,0.412-2.144,0.295-3.539c1.035,0.44,0.729,2.22,1.178,3.245C68.746,88.631,68.816,89.289,67.982,89.046z
			 M81.548,81.968c-0.096,1.084-0.729,1.632-0.886,2.655c-0.434,0.648,0.037,2.195-0.883,2.357
			c-1.204,0.092-0.157-0.614-0.297-1.178c-0.006-0.695,0.509-0.869,0.297-1.771c0.609-0.767,0.621-2.127,0.588-3.538
			c-0.251-1.03-1.066-1.488-2.065-1.771c-1.681,0.448-3.991,0.631-5.306,1.477c-0.842,0.541-1.783,1.298-1.768,2.652
			c-1.008,0.021-1.101-0.865-1.479-1.475c-0.419-0.562-0.913-1.057-1.475-1.477c-2.367,1.271-3.243,4.035-3.833,7.078
			c-1.133-1.906,1.723-5.795-0.592-7.078c-2.684-0.027-2.984,2.324-3.539,4.427c-0.86-0.911,0.461-3.998-1.18-4.129
			c-2.581-0.224-2.008,2.711-2.948,4.129c0.229,1.407-0.459,1.897-0.294,3.243c-0.327,0.754-0.116,2.051-0.885,2.359
			c-0.678-0.603-0.108-2.449-0.294-3.539c0.108-2.332,1.345-5.725,0.294-7.375c0.219-0.662,1.656-0.113,2.359-0.293
			c2.844-0.697,8.102-1.397,12.386-0.884c0.837,0.097,0.427,0.073,1.179,0c0.359-0.038,0.533,0.297,0.592,0.295
			c0.553-0.044,0.902-0.319,1.476-0.295c3.69,0.14,7.534,0.703,11.5,0C83.613,79.314,82.523,80.583,81.548,81.968z M110.742,85.21
			c-5.404,2.459-6.998,8.729-12.678,10.915c0.455-0.43,0.26-1.511,0.293-2.359c-1.312-0.035-0.438,2.119-1.181,2.652
			c-3.272-0.443-1.034-5.152-1.179-7.666c0.314-0.766,0.188-1.975,0.886-2.359c-0.129-0.66-1.454-0.119-2.065-0.293
			c0.094-1.666-0.432-2.717-1.475-3.248c-1.945,0.022-2.427,1.51-2.652,3.248c-1.254,0.269-0.021-1.949-1.182-1.771
			c-2.484-0.422-1.269,2.859-4.13,2.062c-0.015-3.457,1.707-5.173,1.476-8.848c3.52,0.475,7.381-1.061,9.438,0.592
			c1.133-0.343,0.365-2.584,0.592-3.836c-0.378-1.193-0.16-2.99-0.592-4.127V65.45c1.193,1.268,1.833,3.084,2.951,4.427
			c1.057,1.301,2.059,2.657,3.244,3.834c1.004,1.45,2.531,2.379,3.535,3.832c0.934,0.249,0.84,1.521,1.771,1.771
			c0.277,0.899,1.438,0.922,1.475,2.062c0.848-0.062,1.498,0.077,1.77,0.59C111.77,82.912,110.275,83.605,110.742,85.21z"/>
	</g>
</g>
</svg>
