<?xml version="1.0" encoding="utf-8"?>
<!-- Generator: Adobe Illustrator 16.0.0, SVG Export Plug-In . SVG Version: 6.00 Build 0)  -->
<!DOCTYPE svg PUBLIC "-//W3C//DTD SVG 1.1//EN" "http://www.w3.org/Graphics/SVG/1.1/DTD/svg11.dtd">
<svg version="1.1" id="Layer_1" xmlns="http://www.w3.org/2000/svg"  x="0px" y="0px"
	 width="120px" height="120px" viewBox="4 4 120 120" style="enable-background:new 4 4 120 120;" xml:space="preserve">
<g id="cycle">
	<g>
		<path d="M57.139,20.76c-0.791-2.643-1.742-5.128-4.373-5.932h-1.561c-5.158,1.709-9.797,3.939-14.673,5.932
			c-2.328,2.046-4.606,4.14-6.873,6.246c-1.983,2.49-4.418,4.529-6.244,7.181c-2.458,2.016-3.683,5.269-5.619,7.806
			c-0.481,1.706-1.097,3.275-1.873,4.684c0.097,1.242-0.727,1.569-0.624,2.812c-0.534,0.613-0.359,1.932-0.94,2.498
			c0.153,1.401-0.156,2.339-0.312,3.435c-0.227,9.076,0.347,17.35,2.501,24.041c1.738,7.212,6.862,11.041,11.24,15.613
			c-1.744,1.273-2.938,3.099-4.686,4.373c-0.037,1.105-0.307,1.979-1.249,2.186c-0.529,0.778-1.088,1.533-0.622,2.497
			c0.293,1.787,2.553,1.609,3.747,2.499c2.031,0.152,3.707,0.662,5.618,0.938c3.219,1.049,7.127,1.41,10.93,1.871
			c4.558-0.193,9.775,0.3,13.427,0c1.678-0.801,1.926-2.92,2.811-4.058c-0.068-9.509,0.216-19.366-0.313-28.415
			c-0.557-2.668-0.654-5.796-3.748-5.935c-2.546-0.361-2.665,1.707-4.369,2.188c-0.853,1.329-2.271,2.102-3.123,3.434
			c-1.047,1.137-2.109,2.262-3.121,3.436c-0.324,0.82-1.237,1.053-1.562,1.873c-0.912,0.23-0.603,1.686-1.875,1.562
			c-0.94-2.076-1.96-4.077-3.118-5.934c-0.321-1.141-0.778-2.141-1.251-3.121c0.045-0.779-0.491-0.97-0.626-1.562
			c-0.284-0.549-0.107-1.559-0.622-1.875c-1.148-4.887-0.945-11.13-0.938-17.172c1.208-2.228,2.345-4.524,4.058-6.246
			c5.076-5.54,9.982-11.251,16.239-15.613c1.622-1.392,5.117-0.917,5.62-3.433c0.592-0.979-0.061-2.936-0.312-4.06
			C58.225,23.211,57.746,21.92,57.139,20.76z M50.893,26.381c-0.705,0.333-1.37,0.708-1.873,1.249
			c-1.5,0.685-2.496,1.875-3.747,2.809c-4.444,4.3-8.653,8.833-12.804,13.428c-2.096,2.169-3.387,5.147-4.994,7.807
			c0.097,0.724-0.049,1.198-0.314,1.561c-0.211,8.435,0.16,16.291,2.189,22.481c0.523,0.726,1.498,1.001,2.185,1.562
			c0.342,1.636,1.071,2.884,1.872,4.06c0.501,0.541,1.172,0.915,1.875,1.248c0.64,1.86,2.143,2.854,3.121,4.372
			c1.061,1.438,2.268,2.729,3.436,4.062c2.12-0.902,3.026-3.013,4.686-4.375c0.507-0.949,1.566-1.346,1.87-2.498
			c0.638-0.09,0.616-0.845,1.251-0.936c0.092-0.277,0.846-1.367,0.937-0.626v19.36c-7.15,1.21-13.853-0.711-20.609-0.938
			c0.265-0.984,1.611-0.888,1.875-1.874c1.049,0.198,1.601,0.897,3.121,0.624c0.256-0.06,0.312-0.312,0.626-0.311
			c0.861-0.076,0.709-1.162,1.248-1.562c-0.534-3.316-1.398-6.306-1.561-9.992c-0.502-1.578-1.118-3.045-2.812-3.435
			c-0.616,0.424-1.211,0.868-0.935,2.185c0.239,1.178-0.383,1.493-0.312,2.498c-2.241-2.238,0.617-9.567-2.81-10.615
			c-1.787-0.223-2.519,0.604-2.813,1.873c-1.19-1.515-0.521-4.891-1.248-6.869c-1.627-0.17-1.586,1.33-1.561,2.81
			c-0.998-1.081-0.938-3.226-1.248-4.994c0.998-5.036,1.014-11.058,2.499-15.612c-0.78-0.221-1.285-0.309-1.877,0.311
			c-0.55-0.087-0.964,1.471-1.246,0.627c0.077-5.336,1.774-9.049,3.745-12.49c1.599-3.711,4.272-6.345,6.87-9.057
			c2.569-2.842,5.29-5.533,8.116-8.117c3.316-2.097,7.608-3.22,11.242-4.997h0.312c1.194,0.266,1.043,1.871,1.561,2.811
			C52.686,25.881,51.358,25.703,50.893,26.381z M113.968,57.916c-0.282-2.837-1.106-5.139-1.561-7.805
			c-1.306-1.92-1.663-4.79-2.813-6.87c-1.336-5.113-3.974-8.929-6.244-13.112c1.051-1.555,2.705-2.501,4.064-3.748
			c0.992-1.712,3.386-2.021,3.432-4.685c0.069-1.629-0.938-2.188-1.562-3.121c-0.423-0.308-0.624-0.834-0.938-1.249
			c-0.369-0.464-1.178-0.488-1.561-0.938c-4.295,0.18-9.328-0.379-13.112,0.312c-3.573-0.24-6.228,0.434-9.681,0.313
			c-1.854-0.188-2.783,0.548-4.682,0.312c-1.472,0.3-3.25,0.29-3.437,1.871c-0.733,0.354-0.218,2.062,0.312,2.188
			c0.241,1.337-0.047,1.273,0.311,2.498v5.932c-0.219,1.159,0.533,1.342,0.314,2.498v8.744c-0.1,3.112,0.707,5.326,3.121,5.932
			c1.996,0.334,1.982-1.345,3.432-1.561c0.703-0.965,1.537-1.798,2.498-2.499c1.992-1.447,3.474-3.396,5.934-4.371
			c1.67,3.536,2.193,8.217,3.436,12.178V65.1c-0.967,6.418-4.436,10.342-6.869,15.301c-1.913,2.1-3.615,5.06-5.31,6.869
			c-0.829,0.889-1.396,1.463-2.184,2.187c-0.983,0.899-2.046,1.711-3.123,2.497c-1.869,0.837-3.522,1.888-5.308,2.811
			c-1.174,0.182-2.078,0.629-2.498,1.562c-1.461-0.106-1.84,0.863-2.498,1.561c-0.508,2.024-0.328,5.029-0.312,7.807
			c0.013,2.815-0.348,5.865,1.56,6.869c0.24,0.068,0.617,0.008,0.625,0.312c1.896,0.123,2.68-0.856,3.435-1.873
			c0.412,0.823,1.026,0.957,1.875,0.624c0.638-0.195,0.085-1.577,1.25-1.248c1.144-0.645,1.263,0.549,2.81,0.311
			c1.726-1.709,3.862-3.004,6.243-4.058c0.808-0.965,1.914-1.627,3.123-2.188c0.88-0.891,1.894-1.647,3.121-2.185
			c0.796-0.975,2.015-1.526,3.123-2.187c0.767-1.006,1.565-1.973,2.813-2.497c1.728-1.81,3.643-3.433,5.619-4.996
			c1.406-1.923,2.781-3.878,4.369-5.621c0.225-1.547,1.426-2.114,1.562-3.746c1.075-0.799,0.883-2.867,1.875-3.749
			c0.196-1.57,0.618-2.916,1.247-4.057c0.541-1.334,0.857-2.894,1.562-4.061C113.953,67.271,114.068,62.704,113.968,57.916z
			 M79.622,103.506c0.131-1.797-0.938-2.395-1.876-3.123c-0.783-0.052-0.979,0.479-1.249,0.938c-0.181,0.549,0.379,1.835-0.31,1.873
			c0.015,1.373,0.301,3.008-1.254,2.812c0.023-1.478,0.053-2.965-0.937-3.435c-1.028,0.011-1.194,0.887-1.248,1.871
			c-0.722-0.842-0.11-3.012-0.312-4.369c3.799-0.885,6.941-2.426,9.681-4.372c0.791,0.416-0.457,1.386-0.312,2.187
			c-0.011,1.362,0.27,2.436,0.623,3.436C82.107,102.664,80.846,103.066,79.622,103.506z M108.033,66.973
			c-0.739,1.963-1.036,4.375-1.559,6.558c-1.41-0.05-0.982-1.933-2.5-1.873c-0.988,0.155-1.276,1.015-1.562,1.873
			c-0.047,2.022,1.426,2.528,1.875,4.061c-0.009,1.554-0.962,2.16-1.562,3.122c-0.783-0.883-0.593-2.74-1.879-3.122
			c-2.037-0.169-2.33,1.414-2.807,2.81c-0.257,0.884,0.439,0.81,0.312,1.562c0.193,1.159,0.879,1.827,1.252,2.811
			c1.146,0.884-0.114,1.33-0.315,2.498c-1.206-0.146-0.983-1.723-1.562-2.498c-0.446-0.804-0.732-1.768-1.873-1.873
			c-1.809-0.355-2.08,0.836-2.811,1.562c-0.031,1.28-0.062,2.56,0.312,3.435c0.479,1.5,1.66,2.295,2.187,3.748
			c-1.394,0.48-2.056,1.692-3.123,2.498c-0.608-0.639-0.543-1.955-1.562-2.188c-1.305,0.498-1.512,2.671-0.623,3.747
			c-0.518,0.838-1.586,1.122-2.188,1.874c-1.002,0.043-1.363,1.667-2.188,0.936c0.144-2.115-0.744-3.21-2.184-3.746
			c0.631-1.14,1.848-1.688,2.809-2.496c1.344-2.303,3.466-3.82,4.685-6.246c1.728-1.813,2.853-4.229,4.374-6.244
			c1.039-2.604,2.432-4.854,3.745-7.184c0.767-2.771,1.505-5.57,1.872-8.743v-7.18c-0.951-5.189-2.131-10.15-4.68-13.741
			c-0.344-2.051-0.86-3.927-1.562-5.619c-1.112-2.222-3.328-3.335-4.685-5.311c-1.674,0.725-2.562,2.228-4.06,3.124
			c-0.493,0.757-1.118,1.381-1.875,1.874c-0.175,0.449-0.487,0.761-0.938,0.937c-0.108,0.356-0.551,0.791-0.623,0.312
			c0.068-5.479-0.665-10.156-0.622-15.61c5.653,0.693,12.354,0.342,18.108,0.935c-1.127,1.685-3.297,2.325-4.371,4.061
			c0.408,1.362,1.558,1.981,1.873,3.436c1.934,3.062,3.27,6.723,5.309,9.678c1.503,5.161,3.434,9.892,4.995,14.989L108.033,66.973
			L108.033,66.973z M37.464,97.262c0.43-0.398,0.485-1.529-0.312-1.562C37.325,96.152,36.791,97.312,37.464,97.262z"/>
	</g>
</g>
</svg>
