<?xml version="1.0" encoding="utf-8"?>
<!-- Generator: Adobe Illustrator 16.0.0, SVG Export Plug-In . SVG Version: 6.00 Build 0)  -->
<!DOCTYPE svg PUBLIC "-//W3C//DTD SVG 1.1//EN" "http://www.w3.org/Graphics/SVG/1.1/DTD/svg11.dtd">
<svg version="1.1" id="Layer_1" xmlns="http://www.w3.org/2000/svg"  x="0px" y="0px"
	 width="120px" height="120px" viewBox="4 4 120 120" style="enable-background:new 4 4 120 120;" xml:space="preserve">
<g id="tablet">
	<g>
		<path d="M106.9,36.1c-0.4-2.3-0.5-4.9-0.9-7.1c0.2-3-1.5-4.1-1.6-6.8c-1-1.4-2-2.8-3.101-4c-0.3-0.8-1.1-1.2-1.2-2.2
			c-0.5-0.7-1.8-0.7-1.899-1.9c-1.101-0.5-2.9,0.6-3.4-0.9c-1-0.7-2.399-0.9-3.399-1.6c-7.4,0.9-17-0.4-23.9,0.9
			c-3-0.6-6.8-0.2-10.3-0.3c-0.1-0.4-0.4-0.6-0.9-0.6c0-0.2-0.3-0.4-0.3,0c-0.2,0.1-0.6,0-0.6,0.3c-3.8,1-7.7-0.3-11.5-0.3
			c-5.7,0.9-12.2,1.1-16.2,3.7c-0.9,1.2-2,2.1-2.5,3.7c-1,1.1-1.1,3-1.9,4.4c0,2.4,0.5,4.2,0.3,6.8c-1.8,21.1-0.2,43.3,0,65.6
			c1.1,4,1.2,8.9,2.2,13.101c1.4,1.8,3.7,2.5,5.3,4c1.2,0.199,2,0.699,3.1,0.899c1,0.4,2.3,0.3,3.1,0.9c7.3-0.2,13.1,1,19.6,1.6
			c5.2-0.899,11.4-0.8,17.4-0.899c5.601-0.5,11.101-1.101,17.4-0.9c2.2-0.7,4.6-1.2,6.8-1.9c0.6-0.8,1.5-1.199,2.2-1.899
			s1-1.7,1.899-2.2c0.4-1,0.801-1.9,1.601-2.5c0.3-1.1,0.8-1.9,1.2-2.8C107.3,90.6,106.3,75.1,107.3,61.5
			C106.6,53,106.9,44.9,106.9,36.1z M98.5,30.8c0.3,1.8-1,3.6,0.3,4.7c-0.3,1.4-1.1,2.2-1.6,3.4c-0.7-0.6-0.101-2.6-0.3-3.7v-5
			C97.9,30,97.6,31.1,98.5,30.8z M97.3,25.2c0.4,1.5,0.7,1.7,0,3.1c-0.7,0.1-0.1-1.1-0.3-1.6c-0.3-1.2-0.5-2.7-0.6-4
			c0.6,0.1,0.199,1.2,1.199,0.9C97.9,24.6,97.2,24.5,97.3,25.2z M97,17.5c0.8-0.2,0.6,0.6,1.2,0.6c-0.601,0.5-1.3,1-2.2,1.2
			C96.4,18.7,96.7,18.1,97,17.5z M93.9,18.4c0.199,0.2-0.2,0.4-0.301,0.3C93.4,18.5,93.8,18.3,93.9,18.4z M92.6,15.9
			c0-0.1,0.7-0.6,0.9-0.3C93.8,15.8,92.3,16.5,92.6,15.9z M89.8,15.6c-0.8,0.9-1.6,1.7-2.8,2.2c0.1-1-0.4-1.3-0.9-1.6
			C86.9,15.6,88.3,15.6,89.8,15.6z M83.9,16.2C83.6,16.7,83.1,16.9,82.3,16.8C82,15.8,83.3,16.4,83.9,16.2z M78.9,16.2
			c0.6-0.1,1,0.1,0.899,0.6H78.9V16.2z M72.4,20.3c0,0.3-0.4,0.2-0.601,0.3C71.8,20.3,72.2,20.3,72.4,20.3z M63.7,20.3
			c-0.1,0.4-0.4,0.6-0.9,0.6C62.9,20.5,63.2,20.2,63.7,20.3z M60,20.6c0.2,0.2-0.2,0.4-0.3,0.3C59.5,20.7,59.9,20.5,60,20.6z
			 M50.6,19c0.8,0.7,2.6,0.8,3.7,0.3c0.1,2.5-3.5,1.3-5.6,1.6C49,19.9,50.4,20,50.6,19z M47.2,20.9h-1.6
			C45.8,20.1,47.3,19.4,47.2,20.9z M36.3,21.8c0.6-0.7,1.8-0.7,2.2-1.6c0.6,0.1,0.3,1.2,0.9,1.2c-0.7,0.6-2.2,0.3-2.8,0.9H35
			C35.2,21.9,35.6,21.7,36.3,21.8z M32.3,19.3c0.7-0.5,0.8-1.7,2.2-1.6c0-0.4,0.5-0.2,0,0c-0.7,1.1-1.3,2.2-2.2,3.1
			C31.4,20.6,32.7,20.1,32.3,19.3z M32.3,71.6c-0.6-0.3-1.8-0.399-0.9-1.199V67.6c0.1-0.699,0.5-1.199,0.3-2.199
			C32.7,66.7,32.2,69.4,32.3,71.6z M31.1,48.9c0.5,0.1,0.7,2.6-0.3,2.2C30.6,50.1,31.3,50,31.1,48.9z M31.1,57.6
			c0.5,0,0.7,2.3-0.3,1.9C31.1,59.1,31.1,58.3,31.1,57.6z M30.4,43.9v-2.2c0.1-0.7,0.5-1.2,0.3-2.2c0.4-0.3,0.6-0.8,0.9-1.2
			c0.8,0.4,0,1.6,0,2.2c-0.1,1.8,0.4,4.3-0.6,5.3C29.9,46.1,30.6,44.5,30.4,43.9z M28.6,82.1c-0.2,0.5-0.3,0-0.3-0.3V80.9
			C28.6,79.9,28.6,81.7,28.6,82.1z M27.9,37.4c1,1.4-0.5,3-0.3,4.7C27.1,41,27.1,38,27.9,37.4z M28.3,88.1
			C28.1,87.8,28,87.4,28,86.9c0.5-0.101,0.5,0.3,0.9,0.3c0.2,0.899-0.5,0.899-0.3,1.899C28.5,90.5,28.1,88.7,28.3,88.1z M28.6,96.8
			V94.9C29.9,94.6,29.5,96.7,28.6,96.8z M31.7,104.8c0.2,1.3-0.5,1.601-0.3,2.8c-1-0.199-0.5-1.8-1.2-2.199
			C30.4,105,30.9,104.8,31.7,104.8C31.7,104.5,32.1,104.7,31.7,104.8z M31.7,87.4c-0.8-0.9,0.4-2.5,0.3-3.7
			C32.9,84.8,31.8,86.4,31.7,87.4z M31.7,78.1c-0.1-1,0.5-1.3,0.3-2.5C32.3,74.6,32.9,78.6,31.7,78.1z M33.9,94.9
			c0.1-0.4,0.3-0.2,0.3,0C34.1,95.3,33.9,95.1,33.9,94.9z M41.3,103.6c-0.9-0.3,0.4-0.8,0-1.6h0.9C42.1,102.7,41.6,103.1,41.3,103.6
			z M58.7,111.1h-2.5c0-0.8,1.5-0.699,1.9-0.3h1.6C59.6,111.1,59.1,111,58.7,111.1z M60.6,100.2h-0.9c0-0.4,0.6-0.3,0.9-0.3h0.9
			C61.5,100.2,61,100.1,60.6,100.2z M69.9,108.6c-1.101,2.2-6.2,3.101-8.101,0.9c-0.6-1.4-0.3-3.5,0.3-4.7
			c0.4-0.3,1.2-0.3,1.2-0.899c1.5,0,3.4-1.301,4.4,0c0.6-0.301,0.8-0.9,1.899-0.601C68.9,105.4,70.2,106.1,69.9,108.6z M63.1,100.2
			c0.1-0.4,0.6-0.3,0.9-0.3h1c0,0.399-0.6,0.3-0.9,0.3H63.1z M74,100.2c-2.7-0.3-5.4-0.601-7.8-1.2c-4.2,0.6-9.3,0.2-14,0.3
			C51.7,99.4,51,99.2,51,99.6c0.4,0,0.7,0.101,0.6,0.601H51V99.6c-1.7-0.199-2.5,0.4-4,0.301c-1.8,0-3.6,0.1-5-0.301
			c-1.1,0.101-1.7-0.1-2.5-0.3c-0.3-0.7-2,0.101-2.2-0.6c-2.5-2.5-1.8-8.2-1.9-13.101c-0.3-2.1-0.5-4.199-0.9-6.199
			c-0.4-9-0.4-18.4,0-27.4c0.8-8.5,0-18.6,1.2-26.7c0.5-0.5,1,0.3,2.2,0H41c1.4-0.3,2.5-0.8,4-0.9h24c1.5-0.1,2.9-0.4,4.4-0.6h5.3
			c2.5,0.1,3-0.6,4.7,0.3c1.399-0.2,2.399-0.9,4.399-0.6h2.5c0.601,0.2,2-0.4,2.2,0.3c0.1,0.9,0.5,1.3,1.6,1.2v2.8
			c0.7,0.2,0.101,1.7,0.301,2.5v3.1c0,3.9,0,7.7,0.6,10.9c0.4,7.4,0.3,15.2,0.3,23c1.3,7.7,1.8,16.3,1.601,25.5
			C96.7,92.9,96.5,93.1,96.6,93.4C96.5,94.8,96,95.7,95.4,96.5c-0.301,0.4-0.301,1.2-0.9,1.2c-0.6,0.5,0.4,0.899-0.3,1.6
			c-0.101,0.4-0.5,0.5-0.601,0.9h-0.3c-0.1,0.2,0,0.6-0.3,0.6c-0.1,0.2,0,0.601-0.3,0.601c-0.101,0.199,0,0.6-0.3,0.6
			c-0.101,0.2,0,0.6-0.301,0.6c-0.1,0.2,0,0.601-0.3,0.601c0,0.399-0.5,0.2,0,0c0.101-0.2,0-0.601,0.3-0.601
			c0.101-0.199,0-0.6,0.301-0.6c0.1-0.2,0-0.6,0.3-0.6c0.1-0.2,0-0.601,0.3-0.601c0.1-0.2,0-0.6,0.3-0.6c0.2-1,0.601-1.4-0.6-0.9
			c-0.2,0.7-1.9,0-2.2,0.601C84.6,99.9,79.1,99.8,74,100.2z M87,109.2c0-0.8,1.1-0.101,1.2,0C88.2,110,87.2,109.3,87,109.2z
			 M93.6,108.9c-0.8,0-1.5,0-1.899,0.3c-1.3-0.2-1.8,0.3-2.8,0.3c0.399-0.9,1.899-0.8,2.5-1.6c0.899-0.301,0.8,0.399,1.6,0.3
			c0.9-0.4,2-0.7,2.5-1.601c0.4,0.4,1.4,0.301,2.2,0.301C96.8,108.2,94.6,107.9,93.6,108.9z M97.3,98.9C97.9,98.3,97.4,97.8,97.3,97
			C98.3,97.1,98.7,99.2,97.3,98.9z M98.2,103.3c-0.2-0.2,0.2-0.399,0.3-0.3C98.7,103.1,98.3,103.4,98.2,103.3z M98.5,102.4
			c0.1-0.4,0.3-0.2,0.3,0C98.8,102.7,98.5,102.5,98.5,102.4z M98.5,52c-0.3,0.5,0,1.7-0.9,1.6c-0.1-3.5-0.5-6.8-0.6-10.3
			c1,0.2,1.4-0.2,2.2-0.3c0-0.4,0.5-0.2,0,0c-0.5,1-0.101,1.7,0,2.8c0,1-0.7,1.4-0.601,2.5c-0.399,1.3,0.7,1.2,0.601,2.2
			C98.7,50.7,98.7,51.4,98.5,52z M99.2,66c0.2-0.5,0.3,0,0.3,0.3C99.3,66.8,99.1,66.3,99.2,66z M101.3,37.1
			C101.4,37.4,100.9,37.2,101.3,37.1c-0.3-1,0.5-1,0.601-1.6C102.8,35.9,101.8,37,101.3,37.1z M102.3,75c-0.2-0.2,0.2-0.4,0.3-0.3
			C102.7,74.8,102.4,75.1,102.3,75z M102.9,73.4C103.2,75.1,101.9,73.8,102.9,73.4C102.9,73.1,103.3,73.3,102.9,73.4z"/>
	</g>
</g>
</svg>
