<?xml version="1.0" encoding="utf-8"?>
<!-- Generator: Adobe Illustrator 16.0.0, SVG Export Plug-In . SVG Version: 6.00 Build 0)  -->
<!DOCTYPE svg PUBLIC "-//W3C//DTD SVG 1.1//EN" "http://www.w3.org/Graphics/SVG/1.1/DTD/svg11.dtd">
<svg version="1.1" id="Layer_1" xmlns="http://www.w3.org/2000/svg"  x="0px" y="0px"
	 width="120px" height="120px" viewBox="0 0 120 120" enable-background="new 0 0 120 120" xml:space="preserve">
<g id="coffee2_2_">
	<g>
		<path d="M53.239,46.413c0.956,1.213,1.551,3.426,3.026,4.535c0.042,0.03,0.246-0.003,0.301,0c0.353,0.018,0.135,0.194,0.305,0.302
			c1.648,1.068,3.077,1.128,4.841,0c0.017-1.029-0.896-1.126-1.516-1.512c-0.372-0.636-0.836-1.18-1.209-1.814
			c-1.09-0.928-1.436-2.6-1.813-4.234c0.484-0.422,0.32-1.492,0.904-1.815c0.207-0.702,1.007-0.81,1.213-1.512
			c1.108-0.708,2-1.63,3.023-2.418c0.947-1.876,2.67-2.976,3.023-5.446c1.184-1.643,1.492-4.156,1.816-6.654
			c-0.143-1.373-0.545-2.479-0.607-3.932c-2.309-3.641-4.068-7.824-8.77-9.074c-0.124-0.516-0.392,0.064-0.907,0
			c-1.342-0.029-2.266,0.358-2.419,1.513c0.106,1.504,1.427,1.8,2.419,2.419c0.842,0.773,1.812,1.416,2.723,2.119
			c1.767,2.567,3.539,5.131,3.023,9.98c-1.269,5.283-5.547,7.562-8.469,11.191c-0.493,1.221-1.099,2.328-1.211,3.933
			C52.873,44.965,53.473,45.271,53.239,46.413z M49.007,40.967c1.432-2.019,0.257-5.36-1.211-6.353
			c-1.025,0.083-2.452-0.233-3.023,0.304v0.906C46.253,37.472,46.338,40.511,49.007,40.967z M66.247,43.993
			c-0.048,0.355,0.051,0.856-0.304,0.906c-0.26,2.116-0.18,4.521,2.422,4.535c1.346-0.367,1.085-2.337,1.512-3.628
			c2.076-1.957,6.152-1.913,6.654-5.444c-1.325-0.73-2.691-0.634-4.234-0.302c-0.562,0.119-0.906,0.528-1.211,0.604
			c-0.768,0.191-0.811,0.399-1.209,0.604c-0.874,0.447-1.303,0.488-1.816,0.906C67.309,42.791,66.938,43.613,66.247,43.993z
			 M116.455,75.75c-0.354-2.57-1.924-3.925-3.023-5.747c-1.727-1.298-2.986-3.063-4.537-4.536c-1.865-0.658-3.362-1.679-5.748-1.814
			c-3.237,0.188-6.299,0.556-8.168,2.117c-0.643-2.184-1.607-4.037-3.021-5.444c-5.035-0.855-10.439,0.414-16.03,0
			c-5.144-0.501-10.36-0.931-15.425-1.51c-6.173-0.226-11.547,0.348-17.543,0.3c-5.158-0.725-12.662-1.718-17.542,0
			c-0.021,0.889-0.691,1.125-1.21,1.512c-1.31,3.189-0.025,7.229-0.304,11.191c0.688,0.32,0.117,1.899,0.304,2.723
			c0.255,0.754,0.394,1.622,0.303,2.725c0.594,0.412,0.163,1.852,0.606,2.42c0.022,0.98,0.153,1.859,0.603,2.42
			c0.623,3.406,1.764,6.304,3.327,8.771c0.364,0.476,0.444,1.156,0.604,1.511c0.048,0.104,0.532,0.184,0.607,0.305
			c0.088,0.146-0.072,0.444,0,0.604c0.047,0.107,0.531,0.176,0.603,0.305c0.358,0.65,0.325,1.219,0.606,1.512
			c0.242,0.253,0.357,0.648,0.604,0.906c0.657,0.688,1.275,1.543,1.511,2.42c0.723,0.487,1.335,1.086,2.118,1.511
			c0.53,0.561,2.261,0.919,1.516,1.817c-3.047,0.383-6.035,0.823-9.68,0.604c-1.796-0.321-3.57-0.663-5.446-0.907
			c-1.487-0.934-3.741-1.099-5.142-2.115c-2.228-0.369-4.593-0.253-5.141,1.813c-0.017,0.185-0.044,0.356-0.305,0.302
			c0.033,2.689,1.29,4.156,3.027,5.145c1.277,1.442,3.17,2.273,5.141,3.022c1.713,1.013,3.785,1.658,5.747,2.421
			c1.136,0.275,2.137,0.686,3.325,0.906c0.774,0.636,2.184,0.645,3.025,1.211c3.092,0.133,5.885,0.568,8.771,0.905
			c9.205-0.07,18.979,0.432,26.617-1.209c7.713-0.157,15.175,0.237,22.383-0.907c0.678-0.529,1.697-0.721,2.418-1.209
			c0.499-0.715,1.557-0.862,2.118-1.516c2.266-0.252,3.212-1.828,5.142-2.42c1.545-2.184,4.344-3.114,3.934-7.256
			c-0.819-0.392-1.074-1.348-2.42-1.211c-1.328-0.018-2.5,0.121-3.328,0.603c-2.248,0.372-4.646,0.6-6.959,0.909H78.646
			c0.389-0.926,1.729-0.889,2.119-1.812c0.889-0.422,1.146-1.479,2.42-1.515c1.513-0.103,1.67,1.153,3.326,0.907
			c2.283-1.143,3.213-3.641,5.743-4.535c0.74-0.27,1.312-0.707,2.422-0.605c0.384-0.729,2.384,0.167,2.722-0.604
			c2.442,0.226,3.569-0.869,5.748-0.908c3.319-1.014,6.641-2.026,9.069-3.932c0.655-0.76,0.957-1.869,1.817-2.418
			c0.349-1.668,1.166-2.871,1.21-4.843C115.939,79.268,116.695,78.006,116.455,75.75z M40.84,62.441h0.605
			C41.507,63.292,39.182,62.357,40.84,62.441z M29.044,73.936c-0.155-0.158,0.22-0.388,0.303-0.303
			C29.504,73.788,29.129,74.018,29.044,73.936z M32.977,82.705c-0.158-0.156,0.219-0.385,0.302-0.301
			C33.434,82.562,33.06,82.79,32.977,82.705z M92.561,103.878c0.49,0.085,0.521-0.286,0.906-0.304h2.118
			c0.571,0.137,1.822-0.41,1.513,0.605c-0.348,0.106-0.768,0.531-0.304,0.604c-0.222,0.279-0.55,0.457-0.907,0.604
			c-0.34,0.566-1.172,0.645-1.511,1.209c-1.185-0.176-1.758,0.26-2.421,0.605c-0.107,0.8-1.539,0.273-1.816,0.906
			c-2.484,0.34-5.389,0.256-7.559,0.908c-10.778,0.311-21.803,0.377-32.363,0.904c-1.112,0.201-2.302,0.322-3.328,0.607h-9.376
			c-1.43-0.082-2.329-0.695-3.934-0.607c-1.387-0.121-2.737-0.279-2.721-1.812c-0.118-2.135,2.715-1.316,4.236-1.812
			c1.472-0.545,3.443-0.588,5.141-0.908c2.16,0.158,3.916,0.721,6.354,0.604c1.495-0.017,2.667-0.355,3.93-0.604
			c8.32-0.033,16.758-1.27,25.102-0.303C81.128,103.938,87.221,104.744,92.561,103.878z M80.459,94.805
			c-3.059,2.385-8.098,2.787-12.094,4.234c-2.555-0.232-4.168,0.468-6.653,0.303c0.308-1.404,1.382-2.045,1.206-3.933
			c-2.893-0.175-3.197,2.245-4.232,3.933c-0.854-0.254-1.866-0.353-2.726-0.607c0.367-2.254,1.864-3.377,2.422-5.441
			c-1.012-1.229-2.73,0.218-3.325,1.211c-0.977,0.837-1.397,2.23-2.42,3.021c-0.93-0.076-1.362-0.653-2.118-0.904
			c1.253-2.273,2.573-4.482,3.63-6.956c-1.988-0.992-2.93,1.44-4.234,2.115c-0.88,1.438-2.063,2.575-2.721,4.233
			c-1.361-0.054-2.195-0.628-3.026-1.209c0.144-2.979,1.997-4.254,2.118-7.261c-2.369,0.354-2.974,2.472-4.233,3.935
			c-0.65-0.438-2.166-1.012-1.212-2.119c0.162-1.047,0.812-1.609,0.907-2.721c0.661-1.763,1.617-3.221,1.814-5.443
			c-2.341-0.326-2.396,1.633-3.628,2.42c-0.36,1.654-1.456,2.578-1.814,4.232c-1.024-0.688-1.842-1.586-2.422-2.723
			c0.494-1.723,1.053-3.382,1.516-5.143c0.308-1.412,1.898-3.357,0.603-4.535c-1.505,0.308-1.62,2.007-2.721,2.723
			c-0.137,0.771-0.427,1.389-0.909,1.812c-0.103,0.703-0.194,1.416-1.209,1.211c-1.292,0.084-0.021-1.326,0-1.814
			c0.004-0.713-0.521-0.891-0.303-1.814c0.532-3.021,2.951-5.688,2.118-9.072c-1.661-0.049-1.704,1.523-2.418,2.42
			c-0.828,0.787-0.862,2.365-2.118,2.723c-0.482-2.275-1.537-5.473-1.212-7.562c0.14-0.646-0.435-0.576-0.906-0.604
			c0.068-1.545,1.969-1.258,2.721-2.119c-0.189-0.718-1.859,0.049-2.118-0.604c0.041-0.969,1.35-0.667,1.816-1.21
			c3.304,0.528,6.845,0.819,9.98,1.512c0.923,0.218,1.103-0.309,1.815-0.302h3.327c0.714-0.25,1.391,0.426,0.3,0.302h-1.509
			c0.131,0.677,1.488,0.122,2.118,0.302h2.418c14.041,0.578,27.17,2.066,42.041,1.816C88.758,76.283,86.541,87.475,80.459,94.805z
			 M91.654,83.312c0.861-2.871,1.492-5.968,2.419-8.772c1.975-1.866,5.784-0.925,9.073-0.906c0.272,0.532,0.678,0.937,1.209,1.209
			c0.166,0.539,0.152,1.257,0.604,1.513c-0.352,1.666-1.205,2.828-2.116,3.933C100.141,82.32,95.316,82.236,91.654,83.312z
			 M110.707,78.17c-0.211,1.299-0.389,2.637-0.907,3.629c-0.042,1.367-1.241,1.582-1.207,3.023
			c-2.327,0.804-4.541,1.714-7.565,1.816c-0.953,0.652-2.9,0.318-3.93,0.903c-0.806,0.003-1.729-0.11-2.119,0.306
			c-0.53,0.174-1.772-0.365-1.812,0.303c-1.235,0.143-0.044-0.814,0.302-0.907c0.266-0.445,0.453-0.959,1.213-0.908
			c0.795-0.716,2.025-0.995,3.325-1.21c2.162-0.76,4.892-0.955,6.652-2.116c2.261-1.472,3.323-4.136,3.022-8.167
			c-0.16-0.242-0.312-0.49-0.303-0.906c-0.544-1.371-1.719-2.109-2.722-3.023c-2.815-0.762-6.535-0.741-9.378,0
			c0.504-0.605,0.812-1.406,1.816-1.514c0.131-0.373,0.387-0.623,0.907-0.604c0.672,0.166,0.431-0.579,0.907-0.604
			c0.074-0.328,0.604-0.205,0.604-0.604h4.838c1.481,0.332,2.49,1.138,3.935,1.511c0.422,1.192,1.466,1.762,2.116,2.726
			C110.168,74.271,110.841,75.818,110.707,78.17z"/>
	</g>
</g>
</svg>
