<?xml version="1.0" encoding="utf-8"?>
<!-- Generator: Adobe Illustrator 16.0.0, SVG Export Plug-In . SVG Version: 6.00 Build 0)  -->
<!DOCTYPE svg PUBLIC "-//W3C//DTD SVG 1.1//EN" "http://www.w3.org/Graphics/SVG/1.1/DTD/svg11.dtd">
<svg version="1.1" id="Layer_1" xmlns="http://www.w3.org/2000/svg"  x="0px" y="0px"
	 width="120px" height="120px" viewBox="4 4 120 120" style="enable-background:new 4 4 120 120;" xml:space="preserve">
<g id="thermometer2">
	<g>
		<path d="M81,91.8C80.9,90.4,80.6,88.9,80.4,88.4C80.3,88,80.2,87.8,80.1,87.6C80,87.2,79.9,87,79.8,86.8c0-0.2,0.101-0.399,0-0.6
			c-0.1-0.101-0.5-0.4-0.6-0.601c-0.101-0.199,0-0.399,0-0.6c-0.3-1-1.2-2-1.4-2.8C77.6,82.1,77.5,82,77.5,81.6
			c-0.8-0.899-1.8-1.8-2.5-2.8c-0.8-1-2.8-0.8-2.8-2.5c0.399-10.5,0.3-21.6,0.3-32.5c0.4-2.8,0.7-5.7,1.1-8.5V25.2
			c-0.5-1.9-0.399-4.5-1.399-5.9c-0.4-2-1-3.9-2.8-4.5c-1-1.4-4-0.7-6.2-0.8c0,0.3-0.3,0.2-0.6,0.3c-1.8,0.4-3.4,1-4.8,2
			c-1.1,1.6-2.1,3.4-2.8,5.4c-0.4,0.9-0.8,1.8-1.1,2.8c-0.7,0.7-0.5,2.3-1.1,3.1c-0.2,5-1.3,9.1-1.1,14.4c-0.4,4.8-0.6,9.7-0.6,15
			c0.2,1.8,0.4,3.6,0.6,5.4v7.3c0.3,2.2,0.6,4.3,0.6,6.8c-0.2,1.5-2.1,1.3-2.5,2.5c-1.4,0.3-1.7,1.7-2.8,2.3
			c-0.4,1.3-1.7,1.7-2.3,2.8c-0.8,0.9-1.2,2.2-2,3.101C41.9,91,42,96.6,42.4,100.8c0.9,1.7,1.6,3.7,2.8,5.101c0.5,0.8,1.2,1.399,2,2
			c0.7,0.699,1.1,1.699,2.3,2c1.2,1.1,3.2,2.399,4.8,2.8c0.8,0.2,2,0.7,2.5,0.8c1.4,0.4,3,0.7,4.8,0.6c2.2,0,2.9-1.399,4.8-1.699
			C68.6,112.1,70.8,111.7,72.6,111c2.301-1.2,4.2-2.8,5.9-4.5c0.6-1.3,1.2-2.6,2-3.7c0.6-2.8,1.3-7.399,0.6-10.2
			C80.9,92.2,81,92,81,91.8z M60.9,38.2c-1.1,0-2.1,0-2.5,0.6c-0.6-0.6-0.1-2.3-0.3-3.4v-3.7c-0.1-1,0.5-1.4,0.6-2.3
			c0-1-0.9,0.6-0.8-0.3c0.7-3.3,2.1-5.8,3.4-8.5c1.4-0.5,2.7-1,4.8-0.8c1.801,5.4,1.2,14.3,0.601,20.6c-1.101-0.3-1.7-1.1-2.5-1.7
			C62.9,38.6,62.1,38.2,60.9,38.2z M66,46.6c-0.1,0.4-0.2,0-0.6,0C65.5,46.3,66,46.4,66,46.6z M75.9,97.2
			c-0.801,3.899-3.101,6.3-5.601,8.5H68.9c-0.2-0.2-0.5-0.3-0.601,0c-0.899-0.101-1.2,0.5-2.3,0.3c-0.9-0.1-1.1-0.8-1.7-1.1
			c-0.7-0.2-1.2-0.7-1.4-1.4c-0.1-1.8,1.5-2.1,2.5-2.8c0.699-1,1.699-1.7,2.3-2.8c0.2-2.801-0.4-4.601-0.3-7.301
			c0.699-1.1,2-1.6,3.1-2.3c1.8,0.101,2.8,0.9,4,1.7C75.5,91.8,76.1,94.1,75.9,97.2z M86,26.6c-0.1-1-0.7-1.5-1.1-2.3
			c-2.5-0.5-7-1.4-7.601,1.4v1.4C78.3,29.5,86,30.5,86,26.6z M84.3,41c0.5-1,0.4-2.7-0.3-3.4c-2-1-7-1.1-7.1,1.7
			C76.9,42.3,82.5,42.5,84.3,41z M82.7,56c1.1-4.3-6.3-4.5-6.5-1.1c0.399,0.2,0.399,0.9,0.6,1.4C78.2,57.4,81.4,57.2,82.7,56z
			 M81.2,65c-2.3,0.3-4.9,0.4-4.8,3.1c0.399,2.601,4.1,1.9,7.1,2c0.8-0.8,2.5-0.699,2.3-2.5C85.5,65.5,83.4,65.2,81.2,65z"/>
	</g>
</g>
</svg>
