<?xml version="1.0" encoding="utf-8"?>
<!-- Generator: Adobe Illustrator 16.0.0, SVG Export Plug-In . SVG Version: 6.00 Build 0)  -->
<!DOCTYPE svg PUBLIC "-//W3C//DTD SVG 1.1//EN" "http://www.w3.org/Graphics/SVG/1.1/DTD/svg11.dtd">
<svg version="1.1" id="Layer_1" xmlns="http://www.w3.org/2000/svg"  x="0px" y="0px"
	 width="120px" height="120px" viewBox="0 0 120 120" enable-background="new 0 0 120 120" xml:space="preserve">
<g id="file3">
	<g>
		<path d="M98.402,47.327c0.006-1.26,0.463-2.726,0.572-4.281c0.297-4.37-0.369-9.508,0.283-12.551
			c-0.443-1.931-0.48-4.275-0.855-6.278c-0.547-0.688-0.18-2.291-0.285-3.422c-0.447-0.791-0.885-1.588-1.141-2.566
			c-0.584-0.443-2.557-0.443-3.139,0c-1.057-0.279-1.639-1.026-3.141-0.857c-15.688-0.006-30.9-0.482-46.787-0.285
			c-0.414,0.159-0.699,0.443-0.857,0.855c-0.662,0.857-1.268,1.772-1.996,2.569c-0.533,0.503,0.34,0.828-0.285,1.425
			c-0.502,0.259-0.887,0.639-1.143,1.142c-1.537,1.505-3.027,3.059-3.996,5.135c-1.008,0.509-1.176,1.863-1.994,2.568
			c-0.805,0.714-0.906,2.139-1.713,2.853c-0.07,1.449-1.23,1.811-1.711,2.854c-0.709,0.991-1.957,1.513-1.996,2.851v6.564
			c0.195,1.706,0.756,3.043,0.855,4.849C28.046,65.227,28.932,81.613,28.22,96.4c0.166,2.396-0.35,5.481,0.283,7.416v1.996
			c-0.168,0.508,0.836,1.188,0,1.429c-0.445,1.089-0.695,1.815,0,2.852c1.367,1.171,3.734,0.199,5.709,0.286
			c0.451-0.595,1.994-0.097,2.566-0.568c9.639-0.797,18.199,0.291,27.102-0.57c7.938-0.823,16.466-0.516,24.82-0.285
			c2.577,0.354,6.127,0.996,8.562,0.568c1.625-0.754,1.227-3.522,2.565-4.563C100.312,84.825,98.914,65.24,98.402,47.327z
			 M43.912,26.501c-0.607,0.133-0.545-0.409-0.572-0.856C43.691,25.771,43.928,26.008,43.912,26.501z M41.629,27.641h0.855
			c0.379,1.432,1.373,2.242,2.281,3.14c-0.223,1.174,0.441,1.465,0.287,2.568c-1.34-0.091-1.156-1.701-2.283-1.999
			c-0.412-1.014-1.158-1.696-1.996-2.282C40.939,28.475,41.373,28.146,41.629,27.641z M40.773,33.349
			c0.354,0.882,0.939,1.527,1.711,1.994c-0.258,0.775-1.051-0.239-1.139-0.569c-0.42-0.249-0.904-0.427-0.857-1.141
			c-0.77-0.562-1.365-1.299-1.715-2.283C39.883,31.576,39.859,32.927,40.773,33.349z M36.496,34.204
			c0.684,0.548,0.945,1.523,1.709,1.995c-0.762,0.569-2.514,0.146-3.424,0.571C35.184,35.748,36.014,35.151,36.496,34.204z
			 M92.697,104.956c-1.461,0.128-1.562-1.101-2.855-1.142c-8.324-0.09-16.984-0.694-24.82,0.287c-0.965-0.08-2.312,0.221-2.85-0.287
			c-1.139-0.281-0.859,0.854-1.998,0.57c-2.492-0.211-4.102,0.467-6.562,0.284c0.076-1.021,0.998-2.217,0.285-3.138
			c-1.164-0.516-2.215,0.572-2.568,1.71c-0.363,0.397-1.398,0.126-1.426,0.856c0.271,1.029-1.125,0.396-1.711,0.569
			c-1.031,0.271-0.398-1.122-0.57-1.71c-0.289-0.381-0.271-1.062-0.857-1.143c-1.475-0.625-2.211,1.717-2.852,2.853
			c-1.41,0.256-1.832-0.175-3.139,0.285c0.486-2.394,2.471-4.716,1.711-7.419c-2.023,0.164-2.557,1.818-3.711,2.854
			c-0.77,1.416-1.555,2.82-1.994,4.565c-0.898-0.149-1.592-0.501-2.283-0.854c-0.367-2.312,1.941-4.311,1.711-7.418
			c-0.373-0.367-1.051-0.367-1.426,0c-0.584-0.246-0.568,1.451-0.855,0.571c0.145-3.097,0.225-4.938,0-7.989
			c0.457-4.393,1.342-8.356,1.143-13.408c-0.086-1.008-0.771,1.006-0.855,0c-0.148-11.082,0.502-21.37,0.283-32.522
			c0.176-1.316-0.641-1.642-0.57-2.854h4.279c1.932-0.351,3.836-0.729,6.275-0.569c1.902-0.571,4.27-0.682,5.707-1.712
			c0.26-0.5,0.096-1.425,0.57-1.712c-0.445-2.504-0.652-5.244-1.141-7.703c-0.414-2.535-1.23-4.668-1.426-7.419
			c2.912-0.171,6.156-1.072,9.127-0.286c10.762-0.204,19.914,1.199,30.531,1.143c1.885,0.154,4.154,0.967,5.99,0.285
			c0.002,1.242,0.09,2.567-0.289,3.424c0.545,1.072,0.027,3.205,0.572,4.279c0.459,22.746,0.16,46.251,0.855,68.756
			C94.156,100.902,94.578,104.078,92.697,104.956z M80.715,51.607c-5.68-0.6-12.41-0.145-18.543-0.287
			c-0.367,0.017-0.396,0.365-0.857,0.287h-7.987c-1.02,0.682-2.568,0.018-3.709,0.283c-1.332,0.312-1.998,0.854-2.57,1.712
			c0.428,2.808,4.141,2.327,7.133,2.566c2.994,0.241,6.096,0.374,9.418,0.288c4.258,0.591,9.553,0.147,14.264,0.285
			c2.955,0.598,7.445,0.721,6.848-3.14C84.209,52.104,82.912,51.404,80.715,51.607z M80.715,63.589
			c-8.752,0.192-16.633-0.485-25.391-0.284c-0.365,0.016-0.396,0.365-0.857,0.284c-2.637,0.122-5.969-0.452-5.99,2.282
			c0.289,1.136,1.244,1.607,2.852,1.426c0.037,0.631,1.209,0.12,1.713,0.287h6.561c0.732-0.311,1.361,0.865,1.713,0
			c0.363,0.729,1.397-0.266,1.426,0.284c2.322-0.295,3.621,0.077,7.133,0h8.846c2.275,0.301,5.771,1.446,5.99-1.429
			c0.123-1.268-0.773-1.506-1.141-2.279C82.748,63.836,81.344,64.1,80.715,63.589z M80.715,75.57
			c-6.209-0.704-14.039,0.539-19.688,0c-0.363,0.016-0.394,0.365-0.854,0.287c-2.645-0.172-4.398,0.549-6.848,0.567
			c-1.463-0.223-2.074,0.401-3.424,0.285c-0.965,0.271-2.16,0.312-1.996,1.714c-0.35,2.059,1.652,1.77,2.852,2.28
			c8.408,0.057,18.664-0.494,27.39-0.283c2.5,0.062,6.496,1.089,6.562-2.282C84.396,76.064,82.547,75.779,80.715,75.57z"/>
	</g>
</g>
</svg>
