<?xml version="1.0" encoding="utf-8"?>
<!-- Generator: Adobe Illustrator 16.0.0, SVG Export Plug-In . SVG Version: 6.00 Build 0)  -->
<!DOCTYPE svg PUBLIC "-//W3C//DTD SVG 1.1//EN" "http://www.w3.org/Graphics/SVG/1.1/DTD/svg11.dtd">
<svg version="1.1" id="Layer_1" xmlns="http://www.w3.org/2000/svg"  x="0px" y="0px"
	 width="120px" height="120px" viewBox="4 4 120 120" style="enable-background:new 4 4 120 120;" xml:space="preserve">
<g id="thermometer1">
	<g>
		<path d="M110.5,24.2c-0.8-3.3-2.8-5.4-6.8-5.3c-0.2,0-0.4,0-0.3,0.3H102.8c-2.899,0.7-4.1,3-6.5,4.2c-1.2,1.5-2.7,2.9-4.2,4.2
			c-0.3,1.1-1.199,1.5-2.1,2.1c-0.7,0.7-1,1.8-2.4,1.8c-2.6,0-4.6-0.8-7.1-0.9c-2.7,0.2-4.6,1.1-7.1,1.5
			c-1.601,1.8-3.9,2.8-5.301,4.8c-2.1,1.3-3.5,3.3-5.3,4.8C58,45.3,54.2,50.4,50,54.2c-0.4,0.4-1.1,0.5-1.5,0.9
			c-0.2,0.2-0.4,0.4-0.6,0.6c-2.1,1.9-4.1,3.8-5.9,5.9c-1.5,0.2-1.9,1.5-3,2.1c-1.2,0.5-1.9,1.399-2.7,2.399
			c-1.1,0.601-1.6,1.801-2.7,2.4c-1,0.8-1.6,1.9-3,2.4c-0.5,1.899-2.2,2.5-3,4.199c-1.2,1.301-2.1,2.801-3.3,4.2
			c-2.3,2.5-3.9,5.8-5.9,8.601c-0.1,4.5-1.6,9.199-0.6,14c0.3,1,1,1.6,1.8,2.1c1,0.4,1.1,1.6,2.4,1.8c0.2,1.2,1.2,1.601,2.1,2.101
			c0.7,0.699,1.5,1.3,2.7,1.5c3.8,0.1,6.8-0.601,10.1-0.9c2.1-1.3,3.9-2.8,6.2-3.9c3.5-3.699,7.7-6.6,11.9-9.5
			c1.8-2.399,4-4.3,5.6-6.8c1.7-1.2,3.3-2.6,4.8-4.2C66.6,83.8,67.1,82.8,67.8,82c1-0.5,2-1.1,2.4-2.4c2.3-0.699,3-2.899,5-3.899
			c1.7-1.4,3-3.2,5.1-4.2c2.9-3.1,6.2-5.9,9.2-8.9c1.9-1.1,2.6-3.6,4.5-4.8c0.5-1,1.1-1.8,2.1-2.4c0.5-1.1,1.101-2.1,1.801-3
			c0.899-3.6,1-7.9,0.899-12.5c0.5-1.8,2.2-2.4,2.7-4.2c1.1-1.2,2-2.5,3-3.9c1.6-0.4,3.1-0.9,4.2-1.8C109.2,28,110.7,27,110.5,24.2z
			 M94.2,48.6c-0.2,2.6-1.9,3.9-3,5.6c-1.5,1.4-2.7,3-4.2,4.5c-1.5,1.4-3.1,2.6-4.2,4.5c-1.1,0.4-1.899,1.2-2.7,2.1
			C79,65.8,78.8,67.1,77.4,67.4C76.1,69.1,74.2,70.3,72.6,71.9C69.2,74.7,65.7,77.5,62.8,80.8c-2,0.3-3.3,1.3-4.5,2.4
			c-1.6,0.5-1.9,2.399-3.9,2.7c-2.3,3-5.9,4.8-8.3,7.699c-2.9,2.4-5.1,5.4-7.7,8c-1.5,0.4-2.6,1.2-3.9,1.801
			c-5.9,0.3-9.4-1.9-11.9-5c0.1-1.7-0.1-3-0.3-4.5c0.4-2.601,1.1-4.801,2.7-6.2c0.2-2.601,2.1-3.7,3-5.601c0.7,0,0.9-0.5,1.8-0.3
			c0.1-1.7,1.4-2.1,1.5-3.899c1.7-0.7,2.3-2.5,3.3-3.9c2.7-2.5,5.3-5.2,8.3-7.4c0.3-0.8,0.9-1.3,1.2-2.1c1-0.5,1.4-1.6,2.4-2.1
			c1.1-0.4,1.1-1.9,2.7-1.8c0.5-1,1.6-1.4,2.1-2.4c0.8-0.7,1.8-1.2,2.1-2.4c1.9-0.4,2.4-2.2,3.9-3c1-1.2,2.5-1.9,3.3-3.3
			c2.7-1.8,4.4-4.5,7.1-6.2c0.3-0.9,1-1.4,1.2-2.4c1.399-0.4,1.899-1.7,3.3-2.1c0.5-1.3,2.5-1.1,3-2.4c1.2,0.1,1.3-0.9,2.7-0.6
			c0.399-0.7,1.899-0.2,2.399-0.9c2.101,0.2,4,0.5,6.2,0.6c-0.2,1.6-1.8,2-2.7,3c-0.899,0.8-1.899,1.6-3,2.4
			C79.9,41.4,79.4,42.3,78.7,43c-1.601,0.2-1.2-1.6-3-1.2c-0.601,0.1-0.8,0.6-1.2,0.9c-0.4,1.9,0.8,2.1,1.2,3.3
			c-0.3,1.2-0.8,2.1-1.8,2.7c-0.7,0.6-1.301-0.7-2.7-0.3c-1.4,0.3-0.8,2.4-0.601,3.6c-1.5,0.3-2.1,1.5-3.3,2.1
			c-0.8-0.7-2.2-2.2-3.9-1.2c-0.1,1.9,1.7,1.9,1.8,3.6c-1.4,0.6-2.2,1.7-3.3,2.7c-1.2,0-1.2-1.2-2.7-0.9c-1.2,0.4-0.9,2.4-0.6,3.6
			c-1.1,0.6-2.3,1-3,2.1c-1-0.1-1-1.3-2.4-1.2c-1.7,0.3-1.6,2.4-0.9,3.601c-1.2,1-2.7,1.899-3.6,3.3c-1.3-0.101-1.3-1.4-3-1.2
			c-0.4,0.1-0.5,0.5-0.9,0.6c0.1,1.2,0.9,1.7,0.9,3c-1.5,0.7-2.6,1.801-3.9,2.7c-1.6,0.101-2-0.399-3.3,0
			c-0.2,1.101,0.4,1.4,0.3,2.4c-0.9,2.2-3.3,2.8-4.2,5c-1.2-0.4-0.9-2.3-3-1.8c-0.4,0.1-0.5,0.5-0.9,0.6c0.2,1.6,1,2.6,1.8,3.6
			c-0.8,1.101-1.5,2.301-2.7,3c0.2,1-0.4,1.101-0.3,2.101c-0.8,0.6-0.9,1.899-1.5,2.7c0.1,1.3-0.3,3.1,0.3,3.899
			c0.6,0.8,2,1,3.6,0.9c2.5-1.2,4.2-3.3,5.6-5.601c1.3,0.101,1.9,0.9,3.6,0.601c0.3-1.7-0.8-2-0.9-3.3c1.9-1.601,3.8-3.101,5.3-5
			c1.3,0.399,1.6,1.699,3.6,1.5c0.9-1.5-0.6-2.7-1.2-3.601c1.1-1.2,2.1-2.5,3.3-3.6c1.6,0.2,1.9,1.7,3.3,2.1
			c1.3-0.1,2.3-0.5,2.4-1.8c0.3-2.1-1.9-1.9-2.1-3.6c1.4-0.7,1.7-2.5,3.6-2.7c0.5,1.8,1.3,3.2,3,3.899c0.7-0.1,0.7-0.899,1.2-1.199
			c-0.3-2-1.3-3.301-2.1-4.801c0.4-1.699,2.4-1.8,3.3-3c1,0.101,1.2,1,1.5,1.801c0.4,0.1,0.5,0.5,0.9,0.6
			c0.1,0.4,0.899,0.1,0.899,0.6C68,69.9,68.4,69.2,68.9,68.6c-0.4-1.3-0.7-2.699-1.801-3.3c0.801-1.4,2.4-2.2,3.601-3.3
			c0.7,0.5,1,1.4,2.1,1.5c1.101,0,1.101-1,1.8-1.5c0.101-1.2-0.6-1.5-0.899-2.4c0-1,1-0.9,1.5-1.5c0.6-0.4,0.899-1.1,1.8-1.2
			c0.6,1,0.9,2.3,2.4,2.4c1.399,0.2,1.399-1,2.1-1.5c-0.6-1.1-0.8-2.6-1.8-3.3c0.399-1.3,1.6-1.8,2.399-2.7c1.7,0.2,1.9,1.8,3.9,1.8
			c1,0,1.1-0.9,1.5-1.5c0.1-1.8-2-1.3-2.4-2.7c2.5-0.8,3.9-2.8,5.301-4.8c1-0.1,1.6-0.8,2.399-1.2c0.9-0.7,0.5-2.7,2.4-2.4
			C95.1,43.6,94.8,46.2,94.2,48.6z M79,50c0,0.2,0,0.4-0.3,0.3c0,0.4-0.4,0.2,0,0C78.7,50.2,78.8,50,79,50C79,49.7,79.5,49.9,79,50z
			 M46.7,78.3c-0.1,0.4-0.4,0.601-0.9,0.601C45.6,78.2,46.2,78.3,46.7,78.3z M44,80.9c-0.3,1.5-1.8,1.8-2.4,3
			c-1,0.8-1.9,1.699-2.7,2.699c-1.3-0.3-1.6-1.6-2.4-2.399c1.1-2.3,3.2-3.601,4.8-5.3C42.5,79.2,42.7,80.6,44,80.9z M36.3,88.6
			c-0.3,1.4-1.4,2-2.1,3c-0.8,0.9-1.4,2-2.7,2.4c0-1-0.1-2,0.3-3c0.1-0.3,0.5-0.7,0.6-0.9c0.6-1.5,0.7-2.3,1.8-3.3
			C35.6,86.7,35.5,88.1,36.3,88.6z M98.9,27.5C98.8,28.1,98.3,28.2,98.3,29c-2.399-0.2-2.399,1.9-4.2,2.4c0,1.5-0.1,3-1.8,3
			C91.4,33.3,92.9,32.8,93.2,32c0.6-0.7,1.1-1.5,1.8-2.1c1-1.5,2.5-2.4,3.6-3.9C99.9,25.9,98.8,26.9,98.9,27.5z M102.8,23.3
			c0.3-1,0.601,0.3,0.9,0.3C103.4,24.6,103.1,23.3,102.8,23.3z"/>
	</g>
</g>
</svg>
