<?xml version="1.0" encoding="utf-8"?>
<!-- Generator: Adobe Illustrator 16.0.0, SVG Export Plug-In . SVG Version: 6.00 Build 0)  -->
<!DOCTYPE svg PUBLIC "-//W3C//DTD SVG 1.1//EN" "http://www.w3.org/Graphics/SVG/1.1/DTD/svg11.dtd">
<svg version="1.1" id="Layer_1" xmlns="http://www.w3.org/2000/svg"  x="0px" y="0px"
	 width="120px" height="120px" viewBox="0 0 120 120" enable-background="new 0 0 120 120" xml:space="preserve">
<g id="ticket">
	<g>
		<path d="M114.73,72.551c-1.33-0.604-2.922-0.943-4.352-1.449c-1.484-0.543-2.347-1.711-3.188-2.896
			c-0.369-4.912,1.062-8.023,2.318-11.303c0.959-0.782,2.205-1.271,3.188-2.03c1.115-0.718,3.175-0.497,3.48-2.028
			c0.741-1.398-0.05-2.594,0-3.767c-0.062-1.581,0.198-3.486-0.293-4.64c-0.104-3.179-1.465-5.101-2.896-6.955
			c-1.976-1.017-4.679-1.312-6.957-2.028c-12.914-0.804-26.613-0.823-40.285-0.869c-0.369,0.016-0.399,0.371-0.869,0.29
			c-6.797,0.158-12.404,1.51-19.127,1.738c-6.429,0.525-13.197,0.712-20.29,0.581c-1.846,0.375-3.515,0.929-5.505,1.158
			c-0.573,0.488-1.809,0.317-2.608,0.579c-0.777,0.443-1.439,0.994-2.318,0.581c-0.417,1.129-1.02,2.07-1.74,2.897
			c-0.167,1.379-0.42,2.673-0.29,4.348v9.274c0.232,1.024,1.692,0.818,2.03,1.739c0.555,0.795,2.2,0.504,2.607,1.448
			c2.002,0.706,2.443,2.968,2.319,5.8c-0.493,1.822-2.095,2.541-3.478,3.477c-0.215,0.943-1.438,0.882-2.031,1.447
			c-1.45-0.291-1.017,1.3-2.027,1.449c-0.402,1.34-1.128,2.351-0.869,4.348c-0.017,1.755-0.083,3.562,0.577,4.638
			c0.321,3.159,0.849,6.108,1.742,8.696c1.034,0.703,2.678,0.798,3.477,1.738c1.377,0.455,3.184,0.486,4.637,0.867
			c3.345,0.229,6.86,0.289,9.854,0.869H43.72c1.448,0.291,3.136,0.346,4.638,0.581h31.3c8.475-0.896,17.467-1.276,25.793-2.317
			c2.508-0.234,4.535,0.724,6.669,0c0.679-0.77,1.808-1.092,2.608-1.738c0.607-1.227,0.85-2.823,1.448-4.059
			c0.138-2.553-0.392-4.441-0.868-6.378C115.219,76.504,115.086,74.414,114.73,72.551z M104.877,87.041
			c-2.297-0.044-4.471-0.24-6.377,0H84.589c-2.36,0.73-5.032,1.152-7.825,1.447c-6.69-0.322-13.906-0.579-21.158-0.579
			c-7.056,0-14.224,0.024-20.575-0.868c-3.433,0.72-7.248,1.062-11.304,1.158c-1.454-0.188-2.738-0.547-4.057-0.869
			c-0.857-0.783-2.595-0.688-3.477-1.448c-0.258-3.896-0.921-7.389-0.87-11.593c-0.109-0.879,0.943-0.604,1.448-0.869
			c0.516-0.161,1.205-0.148,1.449-0.582c0.73-0.621,1.618-1.087,2.317-1.736c1.557-1.246,3.002-2.604,3.771-4.639
			c0.69-2.938-0.455-5.699-1.452-7.824c-0.708-0.934-1.452-1.832-2.608-2.32c-0.542-1.002-1.701-1.391-3.185-1.448
			c0.411-3.839,0.424-8.073,0.867-11.884c4.014-0.816,9.49-0.168,13.042-1.447c14.655-0.129,27.998-1.567,42.314-2.028
			c0.468,0.08,0.498-0.271,0.871-0.291h22.604c2.699,0.294,5.273,0.714,8.402,0.579c1.57,0.461,3.13,0.929,4.927,1.161
			c0.589,2.891,1.53,5.427,1.451,8.983c0.043,1.396-1.478,1.23-1.74,2.318c-0.776,0.479-1.28,1.229-2.028,1.74
			c-1.729,0.781-2.916,2.104-4.058,3.476c-0.021,0.714-0.678,1.391-0.87,2.319c-0.057,0.271,0.079,0.605,0,0.869
			c-0.13,0.438-0.476,2.162-0.289,3.479c0.297,2.058,0.809,5.154,1.739,6.957c0.093,0.176,0.438,0.348,0.58,0.578
			c0.216,0.354,0.582,1.213,0.868,1.74c0.604,0.559,1.404,0.914,2.027,1.448c0.808,0.254,1.764,0.36,2.317,0.868
			c0.365,3.888,1.411,7.092,1.451,11.305C109.6,86.743,107.17,87.082,104.877,87.041z M100.816,48.493
			c-0.592-0.923-1.396-1.521-2.316-2.027c-0.947-0.522-1.811-1.222-3.477-0.869c-2.652-0.343-5.67-0.321-8.696-0.292
			c-0.368,0.019-0.403,0.372-0.867,0.292H75.021c-1.498,0.333-3.371,0.296-4.926,0.579c-13.17,0.014-25.623-0.559-37.967,0.58
			c-1.36,0.299-0.771-1.354-2.03-1.159c0.051,0.627-1.024,0.131-1.448,0.29c-0.337,0.242-0.776,0.381-1.449,0.289
			c-0.129,2.161,1.312,2.748,1.16,4.926c-0.062,4.866,0.199,10.055-0.289,14.493c0.569,5.673,0.244,10.585,0.289,16.521
			c1.619,1.184,4.056,1.549,6.667,1.738c21.953-1.182,44.833,0.127,65.499-2.029C101.875,71.259,100.5,58.847,100.816,48.493z
			 M29.812,78.346c0.465,0.406,0.743,0.998,0.87,1.74C29.804,80.094,29.959,79.068,29.812,78.346z M89.227,77.186
			c-5.343,0.328-8.399,0.006-14.205,0.291c-3.359,0.019-6.623,0.14-9.271,0.869c-9.101,0.562-18.401,0.922-26.664,2.318
			c-2.157,0.227-3.455-0.407-5.504-0.29c0.946-1.894,0.034-2.962,0-5.216v-6.377c-0.437-6.232-1.979-11.355-2.319-17.68
			c3.254-0.904,6.547,0.577,10.143,0.291c1.76-0.173,3.358-0.506,4.926-0.867c7.692-0.159,14.558,0.51,22.315,0.287
			c7.623-0.978,16.422-0.776,24.637-1.158c0.467,0.082,0.499-0.273,0.869-0.29c0.996-0.127,1.625,0.113,2.318,0.29
			c1.145,1.369,0.826,4.194,0.869,6.664c0.18,1.592,0.027,3.336,0,5.218c-0.072,4.961-0.096,11.278,0.289,16.229
			C94.212,77.678,91.202,77.287,89.227,77.186z M90.964,59.797c-1.157-0.249-2.14,0.433-2.606,0
			c0.078-2.109-0.111-3.946-0.871-5.216c-0.936-0.452-1.729,0.192-2.607,0.579c-1.031,1.867-1.373,4.422-2.316,6.376
			c-2.031,0.575-5.568-0.353-5.795,2.028c0.164,2.154,3.771,0.863,4.924,2.029c-0.11,2.303-1.549,3.277-1.445,5.795
			c0.637,0.329,0.962,0.971,1.736,1.161c0.078-0.6,1.287-0.069,1.164-0.87c0.588-0.087,0.563-0.783,1.152-0.869
			c0.284-1.166,1.27-1.634,2.03-2.317c1.013,0.922,0.663,3.202,1.737,4.059c2.274,0.345,2.732-1.133,3.188-2.608
			c-0.646-1.767-1.938-2.895-1.736-5.508c0.533-1.59,3.094-1.154,3.188-3.187C92.307,60.578,92.193,59.628,90.964,59.797z
			 M70.096,60.376c-1.176,0.369-2.555,0.536-4.057,0.581c-0.812-1.408-0.537-3.906-2.318-4.349c-0.265,0.512-0.648,0.899-1.16,1.161
			c-0.293,1.347-0.306,2.976-1.447,3.478c-1.632,0.492-4.611-0.362-4.929,1.448c0.466,1.756,2.982,1.463,3.77,2.898
			c-0.669,1.264-1.148,2.717-1.452,4.346c0.13,1.418,0.626,2.47,0.874,3.771c2.226,0.396,2.131-1.541,2.896-2.606
			c0.93-0.23,1.266-1.054,2.031-1.449c1.697,1.007,2.362,3.041,4.926,3.187c0.062-0.224,0.246-0.335,0.578-0.286
			c0.854-2.356-0.35-5.021-0.867-6.957c0.687-0.765,1.15-1.748,2.316-2.029c0.312-1.232,2.176-0.914,2.027-2.607
			C72.922,59.568,71.354,60.322,70.096,60.376z M62.273,68.492c-0.789-0.264,0.295-1.018,0.289-1.449
			C63.721,67.366,62.754,68.189,62.273,68.492z M63.434,64.434c0.008-0.281,0.354-0.225,0.578-0.289
			C64.002,64.428,63.656,64.369,63.434,64.434z M45.465,62.116c-1.044-0.89-0.973-2.893-2.03-3.768
			c-0.078,0.407-0.636,0.331-0.87,0.579c-0.82,1.115-0.545,3.319-1.738,4.058c-1.157,0.295-2.477,0.424-3.769,0.58
			c-0.99,0.557-2.756,0.338-2.898,1.737c-0.058,1.796,1.82,1.66,2.898,2.319c0.234,1.023,1.768,0.742,1.738,2.029
			c-0.542,0.521-0.343,1.776-1.158,2.026c-0.596,0.47-0.672,1.452-0.58,2.609c0.344,0.43,1.095,0.448,1.45,0.869
			c2.734-0.552,2.897-3.675,5.504-4.349c1.724,1.174,2.52,3.278,5.219,3.479c0.432-0.343,0.818-0.729,1.16-1.159
			c0.226-1.966-1.384-2.095-1.74-3.479c-0.075-0.989-0.732-1.395-0.578-2.608c0.37-0.788,1.483-0.834,1.737-1.74
			c0.805-0.448,1.799-0.71,2.318-1.448v-1.737C50.655,61.068,47.618,62.072,45.465,62.116z"/>
	</g>
</g>
</svg>
