<?xml version="1.0" encoding="utf-8"?>
<!-- Generator: Adobe Illustrator 16.0.0, SVG Export Plug-In . SVG Version: 6.00 Build 0)  -->
<!DOCTYPE svg PUBLIC "-//W3C//DTD SVG 1.1//EN" "http://www.w3.org/Graphics/SVG/1.1/DTD/svg11.dtd">
<svg version="1.1" id="Layer_1" xmlns="http://www.w3.org/2000/svg"  x="0px" y="0px"
	 width="120px" height="120px" viewBox="4 4 120 120" style="enable-background:new 4 4 120 120;" xml:space="preserve">
<g id="hourglass">
	<g>
		<path d="M94.243,93.395c-0.427-1.722-1.06-3.51-1.142-5.42c-1.293-1.656-1.873-4.021-2.852-5.99
			c-0.92-2.123-2.162-3.924-3.141-5.992c-2.61-2.901-5.702-5.327-6.846-9.698v-3.995c0.732-1.169,1.078-2.725,2.281-3.424
			c0.809-1.093,1.723-2.081,2.566-3.138c0.81-1.094,1.652-2.154,2.283-3.423c0.967-0.935,1.219-2.585,2.282-3.424
			c1.037-2.769,2.812-4.797,3.71-7.704c1.27-2.534,1.979-5.628,2.568-8.844c0.029-4.882,0.074-9.776-0.572-13.979
			c-0.438-0.607-1.029-1.062-1.428-1.711c-0.338-0.139-0.646-0.304-0.855-0.571c-0.684,0.113,0.159-1.299-0.854-0.855
			c-5.889-0.105-10.344-1.639-15.119-2.854c-4.23-0.619-9.08-0.621-13.98-0.569c-2.726,0.89-6.75,0.479-10.271,0.569
			c-4.408,0.918-8.043,2.609-13.125,2.854c-0.545,0.405-1.018,0.881-1.426,1.427c-0.234,0.812-2.062,0.029-1.998,1.141
			c-0.217,3.396-1.098,6.13-1.139,9.7c0.288,0.568,0.491,1.218,1.139,1.426c0.41,0.448,1.489,0.225,1.43,1.141
			c0.102,1.989,0.65,3.531,0.853,5.422c0.63,0.703,0.637,2.028,1.142,2.853c0.41,1.018,1.016,1.839,1.141,3.137
			c1.145,1.615,1.869,3.648,2.855,5.421c2.034,3.577,4.751,6.469,6.559,10.271c2.439,1.27,5.341,2.078,6.562,4.564
			c0.363,1.161,0.832,2.211,0.857,3.708c-0.73,2.502-3.155,3.312-5.137,4.563c-2.107,3.883-5.625,6.358-8.559,9.414
			c-1.405,2.209-2.775,4.453-3.992,6.851c-0.843,3.816-1.848,7.475-2.57,11.41v4.565c-0.111,1.379-0.719,2.901-0.283,3.993
			c0.767,1.988,2.346,3.168,3.423,4.85c2.421,1.479,5.142,2.655,7.703,3.995c2.886,1.013,6.204,1.594,9.699,1.996
			c6.647,1.504,14.971,0.569,22.537,0.569c5.408-1.059,10.325-2.61,14.838-4.563c0.451-0.976,0.699-2.153,1.426-2.853
			C96.807,103.656,95.51,98.479,94.243,93.395z M85.686,19.218c1.236,0.381,1.789,1.443,2.854,1.997
			c-0.84,0.726-2.06-0.593-3.14-0.57C85.164,19.838,85.803,19.905,85.686,19.218z M71.706,17.506
			c4.235,0.045,8.867-0.31,11.979,0.855c-0.25,0.603-0.865,0.844-0.854,1.712c-3.108-0.98-8.009-0.168-11.41-0.855
			C71.412,18.546,71.912,18.378,71.706,17.506z M67.141,17.506v1.712c-0.367,0.392-1.236,0.282-1.996,0.285
			C65.225,18.251,65.453,17.148,67.141,17.506z M58.868,18.078c0.9,0.139,1.007-0.515,1.997-0.286
			c-0.133,1.391-0.814,2.229-2.57,1.998C58.391,19.123,58.64,18.609,58.868,18.078z M53.734,20.359
			c-1.149-0.196-1.629,0.273-2.57,0.286C51.519,20.263,53.646,19.17,53.734,20.359z M57.442,52.883
			c-1.928-1.688-3.733-3.495-5.423-5.421c-2.067-1.545-2.917-4.308-4.564-6.276c-1.229-3.713-3.227-6.662-3.995-10.841v-4.281
			c3.779,0.41,7.955,0.416,11.983,0.572c7.95-0.874,18.877-0.911,26.819,0c2.641,0.876,5.439,1.595,7.988,2.567
			c-0.327,4.523-1.74,7.961-3.425,11.126c-0.75,1.628-1.552,3.203-2.567,4.564c-0.816,1.562-1.669,3.084-2.854,4.279
			c-3.078,0.227-4.899-0.806-7.133-1.426c-3.317,0.581-7.889-0.09-11.125,0.571c-1.259,0.454-2.419,1.006-3.14,1.997
			C59.348,51.367,57.986,51.716,57.442,52.883z M77.98,53.168c-0.644,1.732-2.455,2.298-2.852,4.278
			c-0.65,0.208-1.456,0.255-1.997,0.573c-1.095,0.903-1.817,2.176-1.999,3.992c-0.924-1.216-2.841-0.752-4.562-0.569
			c-1.018-0.221-1.074-1.397-1.713-1.997c-0.69-0.45-1.26-1.022-1.709-1.712c-1.464-0.725-2.447-1.928-3.711-2.854
			c0.561-0.866,1.145-1.71,2.854-1.426c0.824-0.413,1.694-0.78,2.283-1.427c2.871,0.035,6.133,0.696,8.842,0
			C75.091,52.256,76.088,53.161,77.98,53.168z M50.596,106.52c-0.898,0.137-1.117-0.405-1.714-0.571v-1.995
			c0.667,0.093,1.179,0.342,1.714,0.568V106.52z M50.88,98.53c0.805-0.235,0.738,0.403,1.426,0.286
			C52.355,99.281,50.439,99.393,50.88,98.53z M58.868,108.802c-1.127-0.491-2.377-0.856-3.71-1.142v-2.283
			c1.438,0.182,2.903,0.332,4.279,0.57C59.049,106.701,59.103,107.895,58.868,108.802z M64.003,109.371h-1.712
			c-0.179-0.867,0.365-2.456-0.287-2.852c0.397-0.65,1.988-0.106,2.854-0.287C64.723,107.428,64.309,108.35,64.003,109.371z
			 M72.562,109.371h-4.564c0.301-1.258-0.564-2.204,0-2.852c1.602,0.107,2.98,0.438,4.85,0.285
			C72.038,107.416,72.373,108.324,72.562,109.371z M79.695,107.945c-0.899,0.338-2.155,0.32-2.854,0.855
			c-1.202-0.131-1.312-1.35-2.284-1.713c-0.051-0.242,0.11-0.27,0.289-0.283h7.7C82.012,107.6,80.436,107.354,79.695,107.945z
			 M54.587,99.672c0.368-1.152,1.569-1.475,2.282-2.283c0.533-1.843,1.824-2.932,2.855-4.279c4.158,0.451,5.723-1.692,7.133-3.993
			c0.822-0.091,1.569,0.12,2.565,0c1.233-0.148,1.929-0.351,2.853,0.854c0.98,0.125,1.6-0.111,2.281-0.283
			c0.271,1.347,1.604,1.629,2.571,2.281c0.048,1.28,0.59,2.069,1.138,2.854c1.166,0.456,1.411,0.534,2.854,0.284
			c0.699,2.06,2.479,3.039,4.281,3.992c-0.08,1.029,0.527,1.377,0.568,2.283C74.867,101.455,63.927,101.363,54.587,99.672z
			 M85.971,93.68c-0.695-0.824-0.934-2.109-1.996-2.568c-1.222-0.358-1.412,0.023-2.854,0c-1.593-0.403-1.751-2.239-3.706-2.28
			c-0.531-0.802-0.947-1.717-1.999-1.996c-0.722-1.75-1.959-2.985-3.708-3.709c-1.51,0.013-2.171,0.873-3.141,1.426
			c-1.326-0.135-1.9-0.385-3.135,0c-1.726,0.748-2.551,2.396-3.711,3.71c-5.101-0.439-6.575,2.743-8.558,5.42
			c-4.11-0.496-6.182,1.049-7.988,2.854c-0.847-0.414,0.375-1.113,0-1.997c0.562-0.198-0.071-1.591,0.569-1.712
			c-0.091-1.707,0.686-2.549,0.856-3.994c0.837-2.396,2.216-4.253,3.422-6.275c3.866-2.984,7.189-6.506,9.131-11.412
			c3.197-0.891,5.004-3.176,6.846-5.42c1.816,0.08,2.881-0.662,3.711,0.57c1.445,0.207,1.438-1.041,2.281,0
			c0.584,0.461-0.014,2.104,0.572,2.566c0.746,1.824,2.807,2.328,3.707,3.994c1.498,1.067,2.494,2.641,3.994,3.711
			c0.604,1.678,1.867,2.694,2.566,4.276c0.939,1.249,1.699,2.677,2.57,3.994c1.42,3.047,2.367,6.569,3.139,10.271
			C87.473,94.842,87.04,93.941,85.971,93.68z M68.566,66.293c0.018,0.378-0.416,0.368-0.568,0.57
			c-0.184,0.24-0.096,0.596-0.285,0.854c-0.281,0.381-0.977,0.729-1.143,1.143c-0.254,0.637-0.271,1.596-0.286,2.567
			c0.493,0.744,1.138,1.337,2.282,1.427c0.765-0.187,1.086-0.817,1.713-1.142c0.258-2.351-0.437-3.75-1.141-5.136
			C69.075,66.355,68.9,66.246,68.566,66.293z M69.141,76.277c-1.811-0.887-2.797,0.826-2.855,2.568
			c0.525,0.043,0.176,0.965,0.572,1.141c0.67,0.091,1.068,0.449,1.996,0.285c0.519-0.722,0.979-1.494,0.855-2.854
			C69.182,77.375,69.533,76.451,69.141,76.277z"/>
	</g>
</g>
</svg>
