<?xml version="1.0" encoding="utf-8"?>
<!-- Generator: Adobe Illustrator 16.0.0, SVG Export Plug-In . SVG Version: 6.00 Build 0)  -->
<!DOCTYPE svg PUBLIC "-//W3C//DTD SVG 1.1//EN" "http://www.w3.org/Graphics/SVG/1.1/DTD/svg11.dtd">
<svg version="1.1" id="Layer_1" xmlns="http://www.w3.org/2000/svg"  x="0px" y="0px"
	 width="120px" height="120px" viewBox="4 4 120 120" style="enable-background:new 4 4 120 120;" xml:space="preserve">
<g id="stopwatch_1_">
	<g>
		<path d="M94.762,48.837c1.818-1.117,3.415-2.453,5.029-3.771c1.814,0.073,1.521,2.253,2.832,2.83
			c0.607,0.962,1.956,2.509,3.456,1.572c2.983,0.05,3.272-2.598,4.401-4.401c-0.258-1.839-1.516-2.678-2.201-4.086
			c-1.028-0.959-2.319-1.662-2.827-3.144c-1.435-0.558-2.197-1.783-3.46-2.515c-1.71-0.596-3.539-0.17-4.715,0.628
			c-1.096,0.162-0.463,2.054-0.631,3.144c0.785,0.374,1.168,1.138,0.945,2.515v0.942c-1.138,0.54-1.988,1.364-2.83,2.202
			c-0.383,0.454-1.201,0.477-1.572,0.942c-0.282,0.555-0.699,0.973-1.256,1.257c-0.795,0.801-0.8-0.792-1.259-1.257
			c-0.471-0.47-1.321-0.561-1.569-1.258c-0.854-0.192-1.474-0.621-1.887-1.257c-0.507-0.434-1.619-0.265-1.886-0.941
			c-3.037-0.631-5.532-1.806-8.802-2.202c-2.301-0.631-5.817-0.051-7.859-0.942c-0.393-2.122,0.161-5.191-1.258-6.288
			c-0.504-0.874,1.357-0.868,1.258-0.315c0.773,0.044,1.516,0.05,1.887-0.313c0.434-0.929,1.453-1.273,1.885-2.2
			c2.396-2.904,3.744-8.926,2.201-13.832c-2.365-1.613-6.012-1.257-9.744-1.257H54.213c-0.336,0.917-2.804-0.292-3.145,0.628
			c-1.383-0.231-1.285,1.018-2.197,1.258c0.05,0.367-0.072,0.56-0.318,0.629c-0.327,6.511,3.267,9.101,5.348,13.204
			c0.631,0.728,1.144,1.579,2.198,1.883c0.913,0.348,2.127,0.391,2.2,1.573c0.062,0.255,0.314,0.313,0.314,0.629
			c0.065,0.984-0.213,2.307,0.313,2.83c-0.079,1.127,0.947,1.151,0.943,2.2c-9.063,0.681-13.966,5.525-20.434,8.802
			c-1.812-1.12-2.69-3.174-4.398-4.401c-0.249-1.087,0.293-1.384,0.94-1.573c0.318-0.417,0.299-1.167,0.944-1.257
			c0.638-0.934,1.302-1.837,1.257-3.457c-0.596-0.764-0.662-2.062-1.883-2.2c-0.248-1.117-1.732-0.993-2.516-1.573
			c-2.273-0.173-3.581,0.61-5.03,1.258c-3.216,2.154-6.473,4.897-6.916,9.431c-0.002,0.009-0.295-0.009-0.315,0v0.942
			c0.492,0.768,0.565,1.951,1.257,2.515c0.828,0.43,1.193,1.324,2.203,1.573c3.743,0.516,4.389-3.458,7.858-2.202
			c0.293,1.277,1.46,1.684,1.886,2.83c1.858,1.927-1.724,2.545-2.201,4.086c-1.291,1.225-2.292,2.738-3.46,4.088
			c-1.845,3.183-3.549,6.507-4.713,10.373c-2.487,7.749-1.71,18.874,1.573,25.146c1.65,3.377,3.507,6.552,6.287,8.803
			c2.533,2.492,5.351,4.71,8.798,6.285c6.159,3.8,14.159,5.754,24.21,5.66c9.155-0.875,16.779-3.31,22.945-7.229
			c6.073-3.86,10.965-8.969,14.46-15.404c1.383-3.646,3.12-6.938,3.456-11.63c0.688-0.568,0.057-2.463,0.632-3.145v-3.771
			c0.029-1.288,0.059-2.574-0.314-3.457c-0.023-1.234-0.156-2.363-0.631-3.143c-0.484-4.544-2.539-7.519-4.713-10.375
			c-0.861-1.651-2.135-2.899-3.145-4.4c-0.635-0.625-1.027-1.487-1.887-1.887c-0.178-0.453-0.49-0.767-0.942-0.942
			C94.898,49.172,94.202,48.989,94.762,48.837z M101.68,40.35c-0.74,0.72-1.623-1.085-3.143-0.628
			C99.264,37.797,100.969,39.551,101.68,40.35z M53.584,18.345c0.386,0.139,0.646,0.403,0.629,0.945
			C53.825,19.152,53.568,18.887,53.584,18.345z M30.008,43.494c-1.075,0.498-1.233,1.909-2.831,1.886
			c-0.15-0.992,0.968-0.712,0.632-1.886c1.851-0.453,1.953-2.655,4.401-2.515C31.754,42.097,30.937,42.849,30.008,43.494z
			 M55.47,21.175c0.012-0.305,0.386-0.244,0.629-0.315C56.091,21.167,55.714,21.104,55.47,21.175z M58.927,24.003
			c0.179-0.767,1.219-0.669,0.943-1.886c-0.093-1.553-2.126-1.866-3.459-1.258c0.459-0.801,1.722-0.797,1.261-2.515
			c5.396-0.046,9.217-0.271,14.46,0c0.882,2.411-0.708,4.06-1.256,5.974c-0.845,1.673-1.61,3.422-2.517,5.031
			c-2.338-0.137-3.89,0.509-5.976,0.628c0.253-1.72-0.483-2.452-2.196-2.201C61.151,26.725,61.204,23.607,58.927,24.003z
			 M63.015,37.521c1.061,0.196,1.4,1.115,2.516,1.256c-0.393,0.864-1.7,0.816-2.827,0.944
			C62.547,38.729,63.269,38.612,63.015,37.521z M63.015,33.435c0.508-0.089,0.542,0.297,0.942,0.313
			c-0.25,0.589-0.523,1.153-0.629,1.888C62.85,35.196,62.438,34.008,63.015,33.435z M98.221,70.214
			c0.063,4.989-0.451,9.396-1.572,13.201c-1.15,3.771-3.049,6.801-4.715,10.06c-4.457,4.031-9.637,7.434-15.719,9.745
			c-0.773,0.298-1.402,0.359-2.197,0.628c-0.205,0.069-0.773,0.571-0.942,0.631c-0.187,0.064-0.437-0.049-0.63,0
			c-0.477,0.119-2.413,0.883-3.459,0.941c-2.315,0.131-6.058,1.346-9.429,0.943c-4.43-0.702-7.769-2.5-12.261-3.145
			c-2.082-1.794-4.348-3.404-6.288-5.344c-1.918-1.956-3.51-4.239-5.029-6.602c-2.555-5.197-4.192-11.315-4.088-19.178
			c0.242-3.006,1.24-5.258,1.576-8.171c1.141-0.326,0.908-2.023,2.197-2.201c0.52-0.844,1.334-1.391,1.89-2.2
			c1.423-1.299,3-2.446,4.398-3.771c3.103-2.346,6.179-4.719,9.116-7.23c2.748-0.71,4.851-2.064,7.545-2.831
			c1.999-0.409,4.496-0.324,6.917-0.313c0.363,0.051,0.561-0.069,0.627-0.315c1.836-0.052,3.015,0.548,5.031,0.315
			c0.646,0.927,3.442-0.298,4.084,0.628c3.078,0.064,5.027,1.259,7.862,1.571C90.631,52.658,96.402,59.457,98.221,70.214z
			 M79.988,68.014c-3.289,1.424-7.439,1.99-10.373,3.771c-1.122-1.076-1.834-2.562-3.771-2.829c-1.127-0.653-3.4-0.161-5.031-0.313
			c-1.384-2.182-2.439-4.687-4.401-6.288c-0.595-1.186-1.433-2.129-2.198-3.143c-0.636-1.145-1.412-2.151-3.145-2.201
			c-1.062-0.016-1.364,0.732-1.885,1.258c-0.151,3.296,1.844,4.441,2.827,6.6c1.392,1.859,2.845,3.654,3.459,6.288
			c-0.414,2.694-1.092,6.211-0.312,9.114c1.601,2.381,3.992,3.976,8.485,3.459c0.601-0.446,1.364-0.729,2.201-0.942
			c0.506-0.543,1.176-0.92,1.887-1.259c1.613-1.844,2.984-3.932,3.146-7.229c4.121-0.593,7.383-2.046,11.313-2.828
			c1.64-0.664,3.297-1.313,5.029-1.888c1.442-0.967,3.555-1.265,3.143-4.086C86.352,63.501,83.413,67.395,79.988,68.014z
			 M60.499,75.871c0.062-0.357,0.313-0.174,0.313,0C60.752,76.229,60.499,76.046,60.499,75.871z M63.015,78.387
			c0.062-1.529-0.138-2.795-1.888-2.516c0.492-0.975,1.287-1.648,1.888-2.516c1.495-0.133,2.35,0.375,3.142,0.943
			c-0.132,0.656,0.215,0.833,0.315,1.258C65.999,77.177,65.109,78.387,63.015,78.387z"/>
	</g>
</g>
</svg>
