<?xml version="1.0" encoding="utf-8"?>
<!-- Generator: Adobe Illustrator 16.0.0, SVG Export Plug-In . SVG Version: 6.00 Build 0)  -->
<!DOCTYPE svg PUBLIC "-//W3C//DTD SVG 1.1//EN" "http://www.w3.org/Graphics/SVG/1.1/DTD/svg11.dtd">
<svg version="1.1" id="Layer_1" xmlns="http://www.w3.org/2000/svg"  x="0px" y="0px"
	 width="120px" height="120px" viewBox="4 4 120 120" style="enable-background:new 4 4 120 120;" xml:space="preserve">
<g id="stopwatch">
	<g>
		<path d="M115.184,61.008c-0.5-2.961-0.817-6.107-1.218-9.169c-0.599-2.969-1.604-5.528-2.141-8.559
			c-0.87-0.556-1.067-1.787-1.837-2.445c-0.582-0.841-1.248-1.603-1.831-2.446c-1.33-1.521-2.413-3.294-3.974-4.584
			c-2.312-3.493-5.186-6.429-7.945-9.474c-0.768,0.051-0.959-0.469-1.225-0.917c-1.543-0.595-2.648-1.631-3.975-2.446
			c-1.596-0.541-3.025-1.254-4.275-2.139c-3.435-0.847-5.578-2.981-8.867-3.973H66.589c-0.063,0.238-0.253,0.355-0.608,0.306
			c-3.379,0.088-7.172-0.241-10.087,0.306c-2.537,0.825-5.078,1.646-7.03,3.057c-2.886,0.575-4.508,2.418-7.027,3.361
			c-1.563,1.799-4.782,1.943-6.42,3.667c-2.49,0.973-3.926,3.001-6.114,4.279c-1.626,2.549-3.384,4.969-4.887,7.642
			c-1.388,2.893-2.642,5.915-3.671,9.168c-2.274,6.178-2.463,14.446-3.974,21.394c0.292,4.905,0.635,9.759,1.527,14.06
			c0.97,1.887,1.714,3.992,2.754,5.809c0.879,1.973,2.412,3.291,3.055,5.5c2.242,3.466,4.996,6.416,7.337,9.781
			c0.187,0.019,0.36,0.045,0.305,0.306c1.58,0.561,2.529,1.752,3.973,2.444c1.34,0.904,2.994,1.488,4.281,2.445
			c3.245,1.234,6.129,2.836,9.78,3.667c6.528,2.33,14.706,3.021,23.841,2.753c1.988-0.455,4.132-0.758,6.111-1.224
			c1.07-0.659,2.373-1.091,3.666-1.529c1.062-0.669,2.018-1.444,3.363-1.833c2.082-1.48,4.965-2.165,7.027-3.668
			c7.053-4.462,12.836-10.189,17.117-17.422c0.648-2.611,1.156-5.361,1.832-7.946c0.729-0.901,0.496-2.767,1.226-3.665
			c-0.248-1.062,0.454-1.176,0.306-2.142c0.604-0.211-0.08-1.705,0.608-1.834C114.962,69.34,115.368,65.467,115.184,61.008z
			 M102.654,86.375c-0.09,2.863-1.225,4.682-2.137,6.723c-0.896,0.229-0.594,1.65-1.836,1.529c0.023,1.145-2.164,0.078-2.137,1.223
			c-0.827,1.418-2.452,2.033-3.363,3.361c-2.955,1.426-4.802,3.963-7.643,5.502c-1.396,0.132-2.592,0.465-4.281,0.307
			c-2.082,0.869-4.285,1.623-6.417,2.445c-2.069-0.238-3.25,0.416-5.194,0.305c-3.672-0.605-7.339-1.221-11.003-1.834
			c-1.222,0.103-1.694-0.545-3.059-0.305c-0.134-0.884-2.307,0.271-2.445-0.611c-2.479,0.346-3.21-1.065-5.5-0.918
			c-2.575-2.312-5.067-4.711-8.25-6.418c-2.128-2.457-4.485-4.683-6.726-7.028c-0.812-1.938-1.554-3.945-3.054-5.196
			c-0.8-1.852-1.732-3.568-2.752-5.195c-0.286-1.953-1.339-3.146-1.531-5.195c-0.527-1.61-0.636-3.643-0.913-5.502
			c-0.19-7.729,2.192-12.885,2.749-19.866c0.422-0.698,0.621-1.619,0.914-2.445c0.384-0.74,0.761-1.485,0.92-2.445
			c0.352-1.789,1.718-2.561,1.833-4.584c6.604-7.252,15.185-12.528,23.842-17.728c0.01-0.297,0.373-0.237,0.607-0.305
			c0.059-0.347,0.311-0.17,0.306,0c4.869,0.338,9.62-0.919,14.062,0c2.566-0.122,4.789,0.103,7.029,0.305
			c2.086,0.259,3.567,1.118,5.501,1.529c1.562,1.186,3.337,2.165,4.892,3.361c1.347,1.305,2.785,2.509,4.277,3.668
			c1.123,1.628,2.903,2.598,3.971,4.279c1.486,1.164,2.649,2.65,3.672,4.277c2.775,2.625,4.275,6.524,6.111,10.087
			c1.123,4.275,1.586,9.216,2.444,13.754C107.916,73.092,107.246,81.693,102.654,86.375z M62.921,29.833
			c2.562,0.217,3.957-0.732,3.976-3.056c-0.095-1.333-1.105-1.746-1.834-2.446c-3.416-0.903-4.322,2.828-3.359,4.279
			C62.132,29.26,62.595,29.502,62.921,29.833z M92.873,91.57c-0.675-0.24-0.762-1.068-1.221-1.527
			c-0.57-0.957-0.93-2.125-1.529-3.057c-0.844-0.784-1.266-1.994-1.832-3.057c-0.982-2.176-2.246-4.072-3.057-6.418
			c-2.5-1.777-5.25-3.31-7.338-5.503c-1.186-0.235-2.605-0.241-3.056-1.221c-1.291-0.237-2.34-0.718-3.362-1.224
			c0.69-1.278-0.057-2.461,0-3.975c-0.813-0.709-1.062-1.993-2.137-2.445c0.113-1.644-1.58-1.477-1.529-3.056
			c0.392-1.139,0.978-2.08,1.223-3.363c0.504-1.024,1.48-1.574,1.835-2.75V50.92c-1-2.667-2.526-4.81-3.058-7.948
			c-1.277-2.492-1.412-6.126-3.058-8.25c-0.063-0.24-0.256-0.357-0.608-0.308c-0.174,0.442-0.479,0.747-0.917,0.919
			c-0.469,2.082-1.533,3.56-2.143,5.5c-0.448,1.997-0.916,3.974-1.222,6.113c-0.496,0.727-0.596,1.853-0.919,2.751
			c-0.301,0.919-1.077,1.363-0.916,2.75c1.114,3.471,3.525,5.646,3.671,10.085c-0.161,0.454-0.453,0.772-0.614,1.223
			c-1.084-0.475-0.184,1.04-0.916,0.919c-0.611,2.037-1.376,3.922-1.225,6.725c0.537,0.688,0.728,1.72,1.225,2.444
			c0.525-0.017,0.783,0.235,0.916,0.609c0.459,0.053,1.128-0.106,1.224,0.307c2.24,0.204,3.882-0.192,5.194-0.916
			c0.362,2.185,1.95,3.146,2.751,4.89c0.487,1.349,1.117,2.552,1.532,3.975c1.735,1.113,3.235,2.466,6.108,2.443
			c2.558,1.418,5.405,2.541,7.643,4.279c1.518,0.42,2.246,1.625,3.975,1.834c1.07,0.642,2.582,2.191,4.276,1.223
			c0.321-0.018,0.244-0.391-0.306-0.307C93.421,91.84,93.148,91.707,92.873,91.57z M65.062,50.004
			c0.156,0.158-0.221,0.39-0.307,0.306C64.598,50.152,64.979,49.921,65.062,50.004z M64.147,59.478
			c0.046-0.253,0.889-0.833,0.914-0.916c-0.127-0.639,0.209-0.809,0.307-1.223v-0.612c0.803,1.125-0.624,2.623-0.611,3.973
			C64.122,60.541,64.034,60.053,64.147,59.478z M62.618,42.974c0.921,0.463-0.253,1.344,0,2.14
			C61.795,44.752,62.619,43.52,62.618,42.974z M66.284,68.955c-0.737,0.975-2.969,1.275-3.973,0.304
			c0.049-0.354-0.068-0.544-0.305-0.61C61.211,64.581,67.376,64.712,66.284,68.955z M74.538,73.845
			c-0.159-0.157,0.222-0.392,0.304-0.307C75.002,73.695,74.621,73.93,74.538,73.845z M77.896,78.43
			C77.529,78.46,77.712,77.984,77.896,78.43C78.268,78.396,78.085,78.873,77.896,78.43z M79.732,80.264
			c-0.778-0.039-1.185-0.445-1.224-1.224C79.047,79.316,79.457,79.723,79.732,80.264C80.102,80.23,79.921,80.706,79.732,80.264z
			 M81.568,79.345c-0.988-0.233-1.604-0.845-1.836-1.831c-1.086-0.141-0.805-1.645-1.836-1.836c0.693-0.771,2.026,0.402,2.754,0.612
			c0.947,0.374,1.975,0.673,2.138,1.833C82.834,78.984,81.922,78.889,81.568,79.345z M98.376,61.313
			c0.015,0.525-0.233,0.784-0.612,0.917c-0.205,2.04,0.293,3.375,1.227,4.279c3.193,1.124,5.23-0.916,5.195-3.975
			C103.641,59.944,100.488,60.32,98.376,61.313z M29.914,66.202c-1.291,0.202-2.185,1.657-2.444,2.753
			c-0.238,2.885,1.259,4.037,3.667,4.277c2.438-0.297,2.633-4.397,1.527-6.42C31.579,66.52,30.989,66.035,29.914,66.202z
			 M66.589,98.6c-0.235,0.07-0.601,0.01-0.608,0.308c-1.83,0.31-1.85,2.432-1.833,4.584c1.502,2.936,5.767,1.142,5.804-1.222
			c0.166-1.389-0.611-1.832-0.916-2.75C68.176,99.258,67.784,98.529,66.589,98.6z"/>
	</g>
</g>
</svg>
