<?xml version="1.0" encoding="utf-8"?>
<!-- Generator: Adobe Illustrator 16.0.0, SVG Export Plug-In . SVG Version: 6.00 Build 0)  -->
<!DOCTYPE svg PUBLIC "-//W3C//DTD SVG 1.1//EN" "http://www.w3.org/Graphics/SVG/1.1/DTD/svg11.dtd">
<svg version="1.1" id="Layer_1" xmlns="http://www.w3.org/2000/svg"  x="0px" y="0px"
	 width="120px" height="120px" viewBox="4 4 120 120" style="enable-background:new 4 4 120 120;" xml:space="preserve">
<g id="to-end">
	<g>
		<path d="M69.991,61.427c-1.649-1.871-3.165-3.873-4.849-5.706c-2.631-1.937-5.105-4.028-7.707-5.989
			c-1.03-1.254-2.369-2.197-3.708-3.142c-1.312-1.064-2.609-2.146-4.279-2.854c-1.059-1.22-2.671-1.891-3.995-2.85
			c-1.304-0.979-2.415-2.148-3.994-2.853c-1.065-1.22-2.503-2.062-3.993-2.855c-1.439-0.938-2.688-2.067-5.135-1.995
			c-0.711-0.043-0.885,0.446-1.428,0.569c-0.81,0.71-0.987,2.056-0.854,3.71c-0.096,1.425-0.704,2.34-0.571,3.993
			c0.395,7.593,1.098,14.878,1.997,21.969c0.259,1.971-0.684,2.741-0.571,4.562c-0.012,0.873,0.602,1.113,0.855,1.714
			c1.183-0.231,0.143,1.76,0.855,1.999c0.133,3.956,0.342,7.834,0.572,11.695c0.391,1.845-0.008,4.125,0.283,5.992
			c0.296,1.897,0.922,3.239,2.283,3.993c1.465-0.057,3.299,0.254,3.995-0.569c1.161-0.365,1.654-1.39,2.852-1.713
			c1.267-1.875,3.661-2.617,5.136-4.277c4.176-2.008,7.338-5.029,11.127-7.418c1.625-0.657,2.881-1.687,4.562-2.285
			c0.777-0.934,1.752-1.672,2.854-2.28c0.732-0.983,1.533-1.892,2.853-2.282c0.779-0.934,1.865-1.559,3.427-1.713
			c0.83-0.978,1.896-1.716,1.996-3.424C74.488,63.965,71.575,63.359,69.991,61.427z M34.614,41.741
			c-0.146-0.148,0.208-0.364,0.284-0.286C35.048,41.603,34.693,41.82,34.614,41.741z M36.896,54.578
			c-0.619,0.048-0.13-1.013-0.287-1.425C37.338,53.181,37.285,54.218,36.896,54.578z M39.749,56.007
			c0.569,0.287,1.22,0.492,1.425,1.139c-0.199,1.231-1.102,1.753-1.425,2.854c-0.548,0.787-0.642,2.021-1.712,2.283
			C37.346,60.021,39.392,58.159,39.749,56.007z M38.607,72.266c0.676-0.654,0.912-1.748,1.426-2.565
			c0.374,0.103,0.451,0.503,0.856,0.571c-0.362,1.92-1.419,3.145-1.997,4.85C38.242,74.725,38.787,73.134,38.607,72.266z
			 M40.318,84.25c-0.256,0.497-0.637,1.102-1.138,0.568c0.179-2.461-0.499-4.067-0.288-6.561c0.566,0.004,0.363,0.779,1.141,0.572
			c-0.49,2.143-0.16,3.82,1.714,4.277C41.521,83.739,40.748,83.822,40.318,84.25z M41.46,52.298
			c0.134-1.558,2.032-2.627,1.141-4.281c-0.173-0.018-0.337-0.042-0.284-0.285c-0.395-0.011-0.624,0.135-0.856,0.285
			c-1.001,0.711-1.794,1.63-2.279,2.854c-0.741-0.112-0.862-0.853-1.714-0.856c0.439-1.652,0.822-3.36,1.426-4.852
			c1.416,0.582,2.371,1.624,3.424,2.568c0.172,0.018,0.338,0.042,0.284,0.285c1.601,0.496,2.378,1.811,3.712,2.569
			c-0.688,1.12-1.885,1.729-2.57,2.852C42.857,53.184,42.413,52.483,41.46,52.298z M43.742,65.706
			c-1.598-0.037-1.055-1.705-0.284-2.282c0.314-1.109,0.79-2.063,1.427-2.854v-0.856c0.874,0.074,1.283,0.619,1.996,0.856
			c-0.189,1.235-1.32,1.534-1.427,2.854C44.577,63.875,44.554,65.184,43.742,65.706z M47.449,79.4c-1,0.515-1.654,1.389-2.852,1.711
			c1.131-2.104,2.406-4.061,3.424-6.275c0.9-0.136,1.117,0.406,1.711,0.569c0.171,0.592-0.35,1.874,0.288,1.997
			C49.482,78.386,48.271,78.698,47.449,79.4z M49.164,57.146c-0.332-0.904-1.77-0.703-1.998-1.709
			c0.198-1.229,1.102-1.755,1.427-2.854c0.983,0.347,1.721,0.941,2.282,1.711c0.672,0.661,1.73,0.938,1.713,2.283
			c-0.509,0.531-0.727-0.232-1.713,0C50.039,56.501,49.998,57.222,49.164,57.146z M52.016,70.271
			c-0.229-0.152-0.463-0.297-0.854-0.287c-0.544-0.752,0.644-1.68,0.854-2.566c0.34-0.896,0.965-1.508,1.143-2.566h0.855
			C54.576,66.803,52.535,68.464,52.016,70.271z M55.441,60.856c-0.189-1.044,0.616-1.096,0.568-1.998
			c1.023,0.594,1.831,1.404,2.854,1.998C57.68,61.519,56.367,62.005,55.441,60.856z M60.575,63.709
			c-0.335-0.044-0.24-0.521-0.284-0.856c0.484-0.106,0.536,0.225,0.569,0.571C60.618,63.37,60.594,63.535,60.575,63.709z
			 M62.003,69.699c-0.775-0.26,0.288-0.997,0.284-1.426c0.158-0.508,0.146-1.187,0.571-1.428c-0.081-0.461,0.269-0.49,0.284-0.854
			c0.709,0.146,1.016,0.695,1.426,1.14C64.047,68.32,62.566,68.552,62.003,69.699z M98.52,87.104
			c-0.051-2.519-0.158-4.978-0.569-7.134c0.024-5.257-0.597-9.866-0.57-15.12c-0.653-0.582-0.103-2.367-0.284-3.424
			c0.164-1.5-0.505-2.158-0.285-3.709c0.215-2.784-0.449-4.688-0.285-7.419c0.062-2.632-0.502-4.63-0.572-7.133
			c-0.488-0.841-0.604-2.058-0.569-3.423c-0.374-0.958-0.39-2.272-1.142-2.852c-1.906-1.138-5.76-0.328-8.557-0.572
			c-1.052,0.476-2.984,0.061-3.428,1.143c-0.927,0.557-2.41-0.977-3.422,0.285c-1.199,1.274-1.193,3.755-1.141,6.276
			c-0.606,1.96-0.252,4.884-0.856,6.848c-0.057,4.983-0.463,9.617-0.284,14.835c0.454,5.82,1.109,11.441,0.854,17.973
			c0.184,1.148-0.37,3.033,0.287,3.709c-0.233,2.801,0.265,4.868,1.425,6.275c1.536,0.919,4.354,0.334,5.991,0.859
			c2.363-0.017,4.877,0.121,6.848-0.289c2.126-0.107,4.281,0.895,5.421-0.57C98.92,92.643,98.461,89.614,98.52,87.104z
			 M91.387,75.688c-2.283-0.944-3.77-2.692-5.703-3.989c0.314-0.541,0.361-1.349,0.568-1.999c1.807,0.669,2.188,2.759,4.852,2.566
			C90.878,73.729,91.504,74.341,91.387,75.688z M85.396,57.718c0.076,1.027-0.528,1.375-0.572,2.281
			c-0.559-0.951,0.518-2.706,0.572-3.992C86.57,55.879,85.654,57.495,85.396,57.718z M90.531,59.999
			c-0.088,2.18,0.046,4.141,0.287,5.993c-0.947-0.102-1.24-0.855-1.715-1.43c-0.176-0.772-1.191-0.707-1.142-1.71
			c0.707-0.913,0.72-2.516,1.142-3.709C89.609,59.401,89.938,59.833,90.531,59.999z M82.543,47.731v-6.846h7.417
			c0.151,3.174-0.328,6.985,0.288,9.7c-0.887,0.252-1.331,0.951-2.285,1.14c-0.225-0.631-0.996-0.715-1.428-1.14
			c0.301-1.509,0.725-2.894,0.857-4.567c0.159-1.379,1.1-3.443-0.285-3.992c-1.935,0.064-1.779,2.215-2.854,3.137
			c-0.635,1.363-1.218,2.779-1.711,4.279C81.741,49.156,82.622,48.231,82.543,47.731z M83.113,88.243v-1.14
			c0.879,0.074,1.283,0.619,1.996,0.856C84.988,88.6,83.704,88.073,83.113,88.243z M83.113,81.111c-0.367-0.827-0.367-2.024,0-2.854
			h0.854c1.312,1.16,2.527,2.419,4.281,3.139c0.854,1.521,3.513,1.24,3.708,3.422C88.947,83.646,86.268,82.139,83.113,81.111z"/>
	</g>
</g>
</svg>
