<?xml version="1.0" encoding="utf-8"?>
<!-- Generator: Adobe Illustrator 16.0.0, SVG Export Plug-In . SVG Version: 6.00 Build 0)  -->
<!DOCTYPE svg PUBLIC "-//W3C//DTD SVG 1.1//EN" "http://www.w3.org/Graphics/SVG/1.1/DTD/svg11.dtd">
<svg version="1.1" id="Layer_1" xmlns="http://www.w3.org/2000/svg"  x="0px" y="0px"
	 width="120px" height="120px" viewBox="4 4 120 120" style="enable-background:new 4 4 120 120;" xml:space="preserve">
<g id="to-start">
	<g>
		<path d="M49.152,47.747v-3.708c-0.184-1.147,0.371-3.033-0.283-3.711c0.233-2.799-0.27-4.867-1.43-6.275
			c-1.101-0.609-2.77-0.652-4.561-0.57c-3.773-0.948-8.311,0.509-11.986-0.284c-0.707-0.043-0.881,0.446-1.424,0.569
			c-1.63,0.94-1.496,3.642-1.426,6.278v1.996c0.164,0.501-0.348,1.676,0.283,1.709c0.182,1.151-0.37,3.035,0.284,3.713
			c-0.044,5.273,0.57,9.888,0.57,15.119c0.575,4.656,0.585,9.877,0.854,14.835c-0.061,2.632,0.504,4.634,0.574,7.137
			c0.488,0.838,0.604,2.055,0.568,3.422c0.374,0.959,0.391,2.271,1.141,2.852c1.992,1.148,5.958,0.32,8.846,0.57
			c1.066-0.457,2.764-0.279,3.424-1.142c0.26-0.774,0.998,0.291,1.427,0.285c0.897,0.138,1.114-0.405,1.713-0.569
			c1.196-1.275,1.191-3.755,1.142-6.277c0.604-1.959,0.246-4.885,0.854-6.846c0.059-4.986,0.463-9.621,0.288-14.837
			C49.784,57.195,48.956,52.989,49.152,47.747z M43.445,40.615c-0.875-0.075-1.283-0.619-1.996-0.856
			C41.835,39.213,44.148,39.132,43.445,40.615z M34.603,42.898c3.012,1.172,5.688,2.679,8.843,3.707
			c0.369,0.828,0.369,2.026,0,2.853c-1.992-0.383-2.809-1.946-4.279-2.853c-1.489-0.79-2.756-1.807-4.276-2.566
			C34.665,43.784,34.582,43.394,34.603,42.898z M41.449,69.715c-0.012,0.939,0.117,2.02-0.853,1.999
			c0.139-1.571,0.878-2.545,1.136-3.996c0.367,0.066,0.375,0.854,0,0.857C41.711,69.025,41.873,69.663,41.449,69.715z M36.03,66.861
			v-3.137c-0.091-0.669-0.45-1.07-0.287-1.997c0.462-0.08,0.492,0.27,0.854,0.284c0.555,1.063,1.617,1.619,2,2.854
			c-0.704,0.912-0.721,2.515-1.141,3.71C36.975,68.009,35.81,68.13,36.03,66.861z M39.739,78.848
			c-0.866-0.019-2.54-0.863-2.856,0.282c-0.519-0.338-0.223-1.487-0.568-1.998c0.535-0.412,1.483-0.42,1.712-1.139
			c0.938,0.108,1.259,0.834,1.997,1.139C40.029,77.805,39.531,77.975,39.739,78.848z M35.459,55.452
			c0.222-1.461-0.4-2.073-0.285-3.424c2.286,0.947,3.768,2.695,5.705,3.994c-0.316,0.539-0.364,1.346-0.572,1.997
			C38.506,57.35,38.123,55.259,35.459,55.452z M44.016,79.7v7.135c-1.129-0.106-2.73,0.26-3.419-0.286
			c0.673-3.223,2.657-5.14,3.419-8.273C44.686,78.346,44.181,79.525,44.016,79.7z M99.363,71.999
			c-0.332-6.705-1.289-12.787-1.995-19.117c0.184-4.557-0.245-8.506-0.286-12.836c-0.326-1.48-1.633-1.98-1.426-3.996
			c-0.359-1.542-1.357-2.448-3.139-2.567c-1.845,0.347-3.857,0.518-5.42,1.144c-1.046,0.571-2.143,1.559-2.854,1.997
			c-0.604,0.372-0.771,0.856-1.142,1.14c-0.238,0.182-0.604,0.092-0.856,0.286c-0.127,0.099-0.16,0.45-0.283,0.567
			c-0.229,0.217-0.586,0.096-0.858,0.286c-0.131,0.095-0.145,0.466-0.283,0.573c-0.238,0.179-0.644,0.133-0.854,0.283
			c-0.135,0.094-0.146,0.467-0.286,0.569c-0.231,0.177-0.646,0.146-0.859,0.287c-0.389,0.265-0.827,0.932-1.424,0.854
			c-3.262,2.257-6.412,4.62-9.699,6.848c-1.629,0.656-2.881,1.685-4.564,2.283c-1.811,1.708-3.742,3.296-5.706,4.851
			c-0.995,0.717-2.294,1.129-3.425,1.709c-1.168,0.637-1.925,1.689-1.998,3.425c0.25,3.173,3.008,3.839,4.566,5.706
			c1.648,1.871,3.166,3.874,4.854,5.707c5.361,3.765,9.771,8.481,15.404,11.979c2.725,1.838,5.415,3.713,7.988,5.705
			c2.769,1.797,4.967,4.164,8.842,4.854c1.533,0.196,1.818-0.849,2.854-1.144c0.494-0.935,2.371-0.481,2.854-1.426
			C100.59,86.105,99.73,78.096,99.363,71.999z M64.273,60.015c-0.473,0.382-0.442,1.27-0.854,1.713
			c-0.706-0.147-1.017-0.695-1.429-1.142c0.525-1.188,2.004-1.418,2.566-2.566C65.391,58.507,63.91,59.057,64.273,60.015z
			 M70.549,68.857c-1.021-0.592-1.83-1.401-2.852-1.996c0.945-0.787,2.83-0.709,3.422,0.285
			C71.193,67.982,70.477,68.023,70.549,68.857z M73.404,62.868c-1.594-0.143-0.924-1.288-0.572-2.282
			c0.72-0.517,0.709-1.764,1.426-2.282c-0.076-0.461,0.27-0.492,0.287-0.855c0.42,0.148,0.717,0.423,1.141,0.571
			C74.959,59.669,73.973,61.059,73.404,62.868z M77.111,52.599c-0.654-0.299,0.136-2.039-0.571-2.284
			c1.241-1.612,3.521-2.187,4.851-3.709c0.512-0.08,0.584,0.272,0.287,0.285c-1.031,2.11-2.066,4.209-3.426,5.991
			C77.738,52.919,77.65,52.534,77.111,52.599z M81.678,68.001c-0.877-0.069-1.283-0.617-1.998-0.854
			c0.77-1.894,2.131-3.192,2.855-5.136c0.908-0.243,0.88,0.45,1.422,0.571C83.448,64.645,82.029,65.786,81.678,68.001z
			 M87.953,55.452c-0.676,0.654-0.913,1.748-1.428,2.567c-1.322-0.314-0.74-2.021,0-2.567c0.291-1.043,0.709-1.957,1.144-2.854
			C88.318,52.993,87.773,54.584,87.953,55.452z M86.811,42.612c0.252,0.125,0.51,0.25,0.572,0.569
			c-0.154,2.347,0.504,3.872,0.286,6.276c-0.569-0.004-0.364-0.777-1.144-0.57c0.492-2.143,0.164-3.823-1.709-4.277
			C85.336,43.798,86.436,43.569,86.811,42.612z M85.387,70.855c0.479-2.182,1.887-3.438,2.566-5.422
			c0.463-0.08,0.49,0.271,0.854,0.287c-0.188,2.473-1.475,3.85-1.996,5.992C86.311,71.454,85.979,71.025,85.387,70.855z
			 M87.953,80.271c-0.02-1.123-0.139-2.146-0.57-2.854c0.54-0.97,0.998,0.489,1.71,0.286C88.65,78.497,89.034,80.119,87.953,80.271z
			 M89.952,74.562c-0.728-0.026-0.677-1.062-0.287-1.426C90.285,73.09,89.795,74.15,89.952,74.562z M91.662,86.262
			c-0.146-0.146,0.209-0.361,0.285-0.283C92.096,86.126,91.743,86.343,91.662,86.262z"/>
	</g>
</g>
</svg>
