<?xml version="1.0" encoding="utf-8"?>
<!-- Generator: Adobe Illustrator 16.0.0, SVG Export Plug-In . SVG Version: 6.00 Build 0)  -->
<!DOCTYPE svg PUBLIC "-//W3C//DTD SVG 1.1//EN" "http://www.w3.org/Graphics/SVG/1.1/DTD/svg11.dtd">
<svg version="1.1" id="Layer_1" xmlns="http://www.w3.org/2000/svg"  x="0px" y="0px"
	 width="120px" height="120px" viewBox="4 4 120 120" style="enable-background:new 4 4 120 120;" xml:space="preserve">
<g id="tools2">
	<g>
		<path d="M117.8,26.1c-1.6-0.1-2.899,0.2-4,0.6c-1.7,0.4-2.5-0.1-3.8,0.6c-0.7,1-0.6,2.7-0.6,4.3c-0.7,1.1-1.5,2.1-2.301,3.2
			c-0.899,0.9-1.1,2.6-2.6,2.9c-3.4-0.2-5.9-1.4-6.9-4C97.4,32,97.7,30.1,97.9,28.2c1.8-2.2,5.899-2,7.5-4.3
			c0.199-2.1-0.5-3.1-1.2-4.3c-0.4-1.6-0.601-3.2-1.4-4.3c-2.1,0.4-5.1,0.4-6.899-0.3c-6.301,2.7-11.5,6.4-14.7,12.1
			c-0.101,1.6-0.5,2.8-0.3,4.6c0.5,1.3,0.699,3,1.399,4c0,1.9,1.3,2.5,1.4,4.3c-1.7,1.6-3.2,3.3-5.2,4.6c-1.9,2.5-3.6,5.2-6.1,7.2
			c-1.9,2.5-4.9,3.9-6.601,6.6c-1.1-1.4-2.3-2.7-3.5-4c-1-1.2-2.1-3.5-4.6-2.3c-1.2,3.6,2.4,4.7,3.5,6.9c1.6,2.2,3.1,4.4,4.6,6.6
			c-1.2,1.2-1.9,2.9-1.7,5.5C63,70.9,62.7,70,62.1,69.4c-0.8-0.601-1.5-1.2-2-2c-1.1-0.2-1.4-1.101-2-1.7
			c-1.2-0.101-1.3-1.4-2.3-1.7c-1-2.5-3.1-4-4-6.6c-0.4-0.2-0.7-0.4-0.9-0.9c-0.2-0.5-1.4,0-1.4-0.6c1.5-1.5,3.3-2.6,4.9-4
			c1-0.5,1.8-1.1,2.6-1.7c1.3-0.2,2.1-1,2.3-2.3c-0.8-2.5-3.2-3.3-4.6-5.2c0.3-2.7-1.5-3.1-2.6-4.3c-0.8-0.9-1.5-1.8-2-2.9
			c0.5-0.8,0.8-1.7,1.4-2.3c0.9-0.4,1.2-1.3,2-1.7c3.6-2.3,7.6-4.4,12.4-5.5c3.199-0.4,5.6,1,7.8,0c0.5-0.9,1.3-1.4,1.2-2.9
			c-0.2-1.5-1.4-2.1-2.301-2.9c-0.6-1.1-1.8-1.7-2.6-2.6c-1.9-0.6-3.3-1.7-5.5-2h-6.9c-3.1,0.3-5.6,1.1-8.4,1.7
			C48.3,18.1,47,18.4,46,19c-1.2,0.4-2,1.3-3.2,1.7c-1.5,1.8-4.3,2.2-6.1,3.7c-2.3,1-4.1,2.4-5.8,4c-1.9,1.4-4.1,2.5-4.6,5.2
			c0.1,1.5,0.7,2.6,0.9,4c-1.2,1-2.2,2.1-3.5,2.9C23.1,39,21.9,38,20,37.9c-1.6-0.2-2.5,0.9-3.5,1.4c-1.2,0.7-2.1,1.2-3.2,2
			C11.6,43.1,9,44,9,47.4c0.5,2,2.3,2.7,2.9,4.6c1.2,1.3,2.1,2.9,3.2,4.3c0.6,1.3,1.7,2.3,2.3,3.2c0.3,0.4,0.3,1,0.6,1.4
			s0.8,0.8,0.9,1.2c0,0.3,0.2,0.1,0.3,0.3c0.7,1,1.6,1.8,2.9,2c1.8,0,2.2-1.2,3.7-1.4c1-0.7,2.3-1.2,2.9-2.3
			c-0.4-3.4-0.1-5.2,0.3-8.4c1.2-1.3,2.2-2.8,4-3.5c1.5-0.2,2.3,0.4,3.2,0c3.3,3.1,5.8,7,9.2,10.1c1.5,0.4,2.2-0.8,2.9-0.3
			c1.7,3.9,4.4,6.8,6.3,10.4c-3.2,2-5.4,5-8.7,6.9C43.5,78.8,40.5,81.1,38.1,84c-2.9,2.3-5.5,4.9-8.4,7.2c-1.1,1.399-2.6,2.6-3.8,4
			c-0.3,0.899-2,1.6-2,2.3c0,0.9-1.9,1.1-1.2,2.6c0.6,1,2.2,1.101,3.2,1.7c0.7,2,2.6,2.8,3.5,4.601c1.2,0.6,1.9,1.6,2.9,2.3
			c0.7,0.2,0.6,1.1,1.7,0.899c0.3,0.7,0.9,1,1.7,1.2c1.6-0.3,2.4-1.5,3.5-2.3c1-0.9,2.1-1.8,2.9-2.9c1.8-2,3.7-4,5.2-6.3
			c0.8-0.6,1.5-1.2,2-2c0.7-0.6,1.7-1,2-2c1.5-1.2,2.9-2.5,4.3-3.8c1.3-1.7,2.4-3.5,4.3-4.6c1-1.801,2.2-3.4,4-4.301
			c3,3.101,5.4,6.801,8.4,9.801c0.2,1.1,0.7,1.8,0.9,2.899c1.5,1.4,2,3.7,3.8,4.9c0.1,1.3,1.6,1.2,1.7,2.6
			c0.899,0.5,1.399,1.5,2.3,2c1.3,1.601,2.8,2.9,4.3,4.3c1.9,1,2.3,3.601,5.2,3.7c1.3,0.101,1.4-1.1,2-1.7c1,0.101,1.6-0.1,2.3-0.3
			c2-1.7,4.2-3.1,6.101-4.899c0.8-1,2.6-1.101,3.199-2.301c0.5-3.5-2-4.1-2.899-6.3c-1.7-1.5-3-3.3-4.601-4.899
			C93.5,89.2,90.2,86.3,87.4,82.9c-1.7-1.4-3.101-3-4.601-4.601c-1.399-1.8-3.1-3.3-4.3-5.2c-1.8-1.399-2.8-3.6-4.6-4.899
			c-0.4-1.101-1.2-1.9-2-2.601c-0.4-1.2-1.7-1.6-2-2.899c1.6-2.1,3.8-3.7,6.1-5.2c2.3-2.5,4.5-5.1,7.2-7.2c1.5-2.3,3.1-4.4,4.6-6.6
			c0-1.2,0.601-1.7,0.601-2.9c0-4.9-2.801-6.8-2.301-12.1c1.2-2,3-3.6,4-5.8c1.4-0.4,2.101-1.5,3.5-2c1.2-0.1,1.9-0.8,3.2-0.9
			c-0.1-0.8,1.601,0.2,1.4-0.6c0.7,0,1.399-0.1,1.399,0.6c0.4,2.2-1.6,2.1-2.3,3.2c-1.3,0.5-2.2,1.4-3.5,2
			c0.101,0.8-0.7,0.9-0.6,1.7c-0.601,0.2-0.2,1.5-0.9,1.7v6.1C93,35.5,93,37,94,37.6c0.2,1.3,1.6,1.5,2,2.6c1.1,0.3,2,0.9,2.9,1.4
			c0.399,0,1.1-0.1,1.199,0.3h5.2c0.101-0.4,0.7-0.3,1.2-0.3c1.5-1,2.5-2.5,3.8-3.8c0.3-1.6,1.4-2.5,1.7-4c0.5-0.5,0.9-1,0.9-2
			c0-0.9,1.3-0.6,2-0.9c-0.101,2.6,0.199,4.8,0.6,6.9c-0.4,1.4-0.7,3-0.9,4.6c-0.6,0.7-0.8,1.9-1.699,2.3
			c0.199,1.5-0.301,2.2-0.601,3.2c-1.899,1.7-4.7,2.6-7.2,3.8c-0.8-0.2-0.699,0.4-1.399,0.3c-2.601,0.1-4.5-0.5-6.3-1.2
			c-0.5-0.8-1.2-1.3-1.7-2c0-1.3-0.3-2.2-1.4-2.3c-3.399,0-4.399,2.3-5.8,4.3c-1.9,1.4-3.2,3.5-4.9,5.2c-1.5,1.9-3.399,3.4-4.6,5.5
			c-1.1,0.6-1.3,2-2.3,2.6c-0.5,1.2-1.7,1.8-1.4,3.8c0.5,1.3,1.3,2.399,3.2,2.3c1.6-0.101,2.4-1.101,2.9-2.3
			C82.1,67.7,82.3,67,82.6,66.5c0.4-0.6,1.101-0.8,1.2-1.7c1.9-1.5,3.3-3.4,5.2-4.9c0.7-1.1,1.6-1.9,2.3-2.9
			c0.9-0.8,1.4-2,2.601-2.6c0.3,0.5,1,0.5,1.399,0.9c0.2,0.6,1.8-0.1,2,0.6c1.4,0.2,2.7,0.6,4,0.9h4.601c0-0.3,0.5-0.3,0.899-0.3
			c2.2-0.9,4.101-2.3,6.101-3.5c2.699-2.7,4.5-6.3,6.1-10.1v-8.1C118.9,32.2,119.6,27.3,117.8,26.1z M48.2,48.3
			c-1.4,0.4-1.8,1.7-2.9,2.3c-1.1-0.2-1.4-1.1-2-1.7c-0.7-0.5-1.3-1-1.7-1.7c-2.1-1.1-4.7-1.6-6.6-2.9c-0.9,0.2-1.1-0.3-1.7-0.3
			c-1.3-0.2-1.7,0.4-2.9,0.3c-2.4,1.6-4.3,3.7-6.1,6.1c-0.1,2.8-1.7,4.1-1.4,7.2c-2.6-3.5-5.2-6.9-7.8-10.4c0.2-1,1.1-1.4,2-1.7
			c0.6-0.7,1.3-1.2,2.3-1.4c0.8,0.1,0.9,1,1.4,1.4c1-0.2,0.7,1,1.7,0.9h1.2c2.4-0.1,2.7-2.3,4.3-3.2c1.2-1.2,2.8-2,2.9-4.3
			c0.1-1.1-0.4-1.5-1.2-1.7c0.1-1.1-0.3-1.6-0.6-2.3c0.2-1.3,1.7-1.4,2.3-2.3c1-0.5,1.8-1.1,2.6-1.7c1-0.4,1.6-1.2,2.6-1.7
			c0.7-0.7,2.1-0.8,2.6-1.7c2.2-0.7,3.9-1.8,5.8-2.9c1.4-1.5,3.7-2,5.5-3.2c2.2,0,3.5-0.9,5.8-0.9h6.6c-0.9,0.7-2.2,1.1-3.5,1.4
			c-4.6,2.5-9.6,4.6-13,8.4c-0.2,1.1-1.1,1.4-1.2,2.6c-0.6,0.6-0.4,1.9-0.9,2.6c0.1,0.7,0.5,1.1,0.3,2c0.7,2.1,2.6,2.9,3.2,5.2
			c0.9,1,1.8,1.9,2.6,2.9C50.2,46.8,48.8,47.1,48.2,48.3z M47.4,93.3c-0.9-0.1-1.3-0.8-2-1.2c-0.2-0.8-1.1-1-1.7-1.399
			c-1.3,0.1-2.1,0.8-2.3,2c-0.1,0.7,0.5,0.6,0.3,1.399c0.3,0.601,0.7,1.2,1.2,1.7c0.4,0.4,1.6,0.4,0.9,1.2c-1.7-0.3-1.9-1.9-3.5-2.3
			c-1.4-0.2-1.6,0.7-2,1.399c0.2,2,1.5,2.9,2.9,3.801c-0.1,1-1,1.3-1.4,2c-1.4-0.101-1.2-1.801-2.3-2.301
			c-1.9-0.199-2,2.101-1.4,3.5c-0.6-0.399-1.2-0.8-2-0.899c-1,0.2-0.4,1.399-0.3,2c-0.8-0.601-1.6-1.3-2.6-1.7c-0.4-0.9-1.8-0.9-2-2
			c3.1-1.8,5.6-4.4,8.4-6.6c2.6-2.4,5.4-4.601,7.8-7.2c1.1-0.2,0.4,1.399,0.6,2c0.5,0.8,0.9,1.8,1.7,2.3
			C48.3,91.8,48.2,92.4,47.4,93.3z M56.6,83.2c-1.1-0.3-1.5-1.2-2.6-1.4c-1.3-0.1-1.4,1.101-2,1.7c0.1,1.3,0.9,1.8,1.2,2.9
			c-0.1,1-1,1.1-1.2,2c-2.1-0.601-2.2-3.2-5.2-2.9c3.4-3.9,8.1-6.5,11.5-10.4c0.5-0.1,0.5,0.301,0.9,0.301
			c0.4,1.199,1.2,2.1,2,2.899C60.1,80.3,58.2,81.6,56.6,83.2z M83.1,86.9c4.7,4.6,9.5,9,13.801,13.8c0,0.8-0.801,0.7-1.2,1.2
			c-0.3,0.5-0.601,0.899-1.2,1.199c-0.7,0.801-1.1,1.7-2.3,2c-0.5-0.699-1-1.3-1.7-1.699c-0.1-1.101-0.4-2.101-0.9-2.9
			c-0.1-0.3-1.1-1-1.199-0.3c-0.601-0.101-0.601-0.8-1.2-0.9c0.2-2.7-0.101-4.899-1.7-5.8c-0.4,0.3-1.1,0.3-1.4,0.6
			c-0.3,0.5-0.3,1.2-0.899,0.601C83.3,92.1,83,89.8,83.1,86.9z M79.7,83.2c0.6,0.1,0.6,0.8,1.2,0.899C81,85,80.1,84.9,80,85.5
			C79.6,84.9,79.3,83.6,79.7,83.2z M78.8,88.1c0.101,0.101-0.2,0.4-0.3,0.301C78.4,88.2,78.7,88,78.8,88.1z M72.2,74.2
			c0.899,0.7,1.399,1.7,2,2.6c0.8,0.7,1.6,1.5,2,2.601c-1,0.899-0.9,3-1.2,4.6c-1.5-1.3-2.5-3.1-3.8-4.6c-1.3-1.4-2.5-2.9-3.7-4.301
			c0.4-1.8,0.5-4.899,0-6.6c0.5-0.1,0.5,0.3,0.9,0.3C69.3,70.9,71.1,72.3,72.2,74.2z"/>
	</g>
</g>
</svg>
