<?xml version="1.0" encoding="utf-8"?>
<!-- Generator: Adobe Illustrator 16.0.0, SVG Export Plug-In . SVG Version: 6.00 Build 0)  -->
<!DOCTYPE svg PUBLIC "-//W3C//DTD SVG 1.1//EN" "http://www.w3.org/Graphics/SVG/1.1/DTD/svg11.dtd">
<svg version="1.1" id="Layer_1" xmlns="http://www.w3.org/2000/svg"  x="0px" y="0px"
	 width="120px" height="120px" viewBox="4 4 120 120" style="enable-background:new 4 4 120 120;" xml:space="preserve">
<g id="traffic-cone">
	<g>
		<path d="M117.887,81.039c-0.326-2.202-2.613-2.439-3.787-3.791c-0.436-0.15-0.736-0.432-1.17-0.584
			c0.256-0.938-0.961-0.398-0.873-1.165c-0.798-0.465-1.439-1.089-2.332-1.458c-3.033-2.117-6.559-3.743-10.205-5.247
			c-1.633-1.476-3.515-2.703-5.244-4.082c-0.981,0.008-1.545-0.401-2.043-0.873c-0.346-0.044-0.662-0.521-0.873,0
			c-0.071,0.315-0.481,0.698-0.586,0.29c-2.015-3.133-2.828-7.473-4.373-11.078c-1.834-3.416-3.646-6.849-4.955-10.787
			c-1.174-4.073-3.153-7.342-4.082-11.661c-1.233-4.014-2.855-7.642-4.37-11.369c-0.833-0.725-1.769-1.343-2.625-2.042
			c-1.181-0.375-1.604-1.503-2.915-1.749c-0.854,0.076-0.896-0.659-1.749-0.583c-3.192-0.083-5.194,1.025-6.996,2.331
			c-2.261,4.447-3.339,10.074-5.249,14.869c-0.903,2.403-1.743,4.864-2.623,7.29c-1.017,2.384-1.536,5.267-2.917,7.288
			c-0.141,0.919,0.526,1.029,0.293,2.041c-0.696,1.345-1.21,2.872-1.752,4.373c-0.678,1.362-1.335,2.749-1.747,4.373
			c-0.984,3.194-2.375,5.98-3.208,9.33c-0.835,0.813-1.468,1.832-2.624,2.332c-0.861,3.804-3.057,6.271-3.789,10.203
			c0.429,0.054,0.264,0.705,0.292,1.166c0.71,0.258,0.315,1.627,1.455,1.457c0.632,0.438,1.067,1.073,1.461,1.75
			c1.032,1.007,2.333,1.748,3.205,2.914c1.613,0.719,3.066,1.603,4.374,2.626c1.882,0.545,3.266,1.589,5.246,2.038
			c1.534,0.799,3.287,1.379,5.249,1.75c1.787,0.641,4.016,0.844,6.121,1.166h9.911c2.367-0.646,4.986-1.039,6.998-2.041
			c4.596-1.429,9.123-2.925,13.412-4.663c1.459-1.648,4.688-1.533,4.664-4.665c0.319-2.169-1.562-2.132-2.334-3.207
			c0.746-0.614,1-1.722,0.873-3.207c-1.045-2.646-2.422-4.961-3.203-7.871c4.101,3.771,8.186,7.556,13.699,9.911
			c0.612,1.137,1.948,1.555,2.918,2.333c0.229,0.646,1.018,0.729,1.457,1.166c0.283,0.687,1.459,0.483,1.455,1.459
			c-4.078,1.942-8.343,3.705-12.242,5.831c-1.778,0.751-3.894,1.779-5.25,2.622c-0.709,0.44-1.299,0.748-2.037,1.166
			c-5.578,3.146-11.293,5.614-16.91,8.454c-4.02,2.104-8.65,3.595-12.244,6.121c-3.338-2.59-6.747-5.109-11.077-6.705
			c-1.813-1.199-3.886-2.139-5.541-3.497c-0.936-0.521-2.038-0.878-2.623-1.748c-1.186-0.371-2.169-0.942-2.916-1.751
			c-4.007-1.92-7.476-4.379-11.079-6.704c-1.946-1.063-3.281-2.742-5.539-3.498c-0.547-0.912-1.785-1.13-2.332-2.041
			c-0.689-0.09-0.541-1.013-1.456-0.875c0.083-0.515-1.372-0.903-0.586-1.166c3.282-1.481,6.662-2.865,9.913-4.373
			c1.363-0.969,2.829-1.834,4.375-2.624c0.639-0.525,1.195-1.136,2.038-1.458c0.323-0.938,1.524-1.002,1.751-2.039
			c-3.013-0.687-5.677,1.252-7.874,2.332c-2.406,1.187-4.739,2.449-7.578,3.206c-0.715,0.549-1.32,1.205-2.332,1.457
			c-0.718,0.643-1.279,1.443-2.331,1.749c-1.148,1.576-3.687,1.758-4.375,3.791c1.178,1.446,2.754,2.492,4.083,3.789
			c1.416,1.207,3.071,2.178,4.08,3.792c1.902,0.816,3.092,2.345,4.956,3.205c1.273,1.447,3.391,2.052,4.666,3.499
			c2.006,0.715,3.241,2.2,5.246,2.914c1.376,1.442,3.671,1.968,4.957,3.499c1.872,0.85,3.379,2.062,4.956,3.207
			c1.94,0.88,3.806,1.83,5.541,2.914c2.179,0.541,3.474,1.97,4.955,3.207c1.791,1.026,3.231,2.404,5.247,3.207
			c1.035-0.908,2.562-1.323,4.082-1.75c2.634-0.477,4.906-1.312,7.29-2.041c0.184-0.59,1.36-0.19,1.457-0.875
			c0.851,0.076,0.894-0.656,1.747-0.58c0.922-0.637,1.805-1.308,3.207-1.457c3.968-2.354,8.65-3.984,12.537-6.416
			c4.479-1.836,8.207-4.426,12.242-6.704c2.291-0.819,3.709-2.513,5.541-3.791c1.184-0.369,1.818-1.289,2.914-1.748
			c0.092-0.687,0.904-0.653,1.164-1.167c1,0.124,0.881-0.871,1.463-1.165c0.625-1.147,0.041-2.216-0.293-3.206
			C117.389,83.65,117.994,82.699,117.887,81.039z M80.865,57.134c0.248,1.3,0.722,2.386,0.871,3.789
			c0.137,0.91,1.242,1.819,0.582,2.624c-1.521,0.258-1.166-1.36-1.453-2.333c-0.332-0.932-0.594-1.933-0.586-3.206
			c-0.153-0.234-0.305-0.473-0.291-0.873L80.865,57.134L80.865,57.134z M63.37,20.4h4.083c0.349,1.4,0.895,2.604,1.165,4.081
			c-0.443,1.015-0.481,2.434-0.875,3.498c-0.187,1.08,0.379,2.905-0.29,3.5c-1.237,0.012-0.36-2.085-0.29-2.623v-6.122
			c-0.32-0.752-0.737-1.401-1.459-1.75c-1.388-0.589-1.598,1.487-2.333,0.583L63.37,20.4L63.37,20.4z M62.787,30.894
			c-0.054,0.33-0.292,0.163-0.292,0C62.553,30.563,62.791,30.733,62.787,30.894z M57.831,34.685
			c2.389,1.011,5.111,1.689,8.745,1.457c1.357-0.094,1.623,0.904,2.625,1.167c0.889,0.012,1.134-0.617,1.748-0.875
			c0.1-0.676,0.189-1.365,1.168-1.165c0.402,3.096,1.935,5.061,2.623,7.87c1.183,2.217,1.523,5.278,2.917,7.289
			c-0.853,1.29-3.087,1.19-4.085,2.332c-0.717-0.039-1.401-0.044-1.746,0.292c-5.055,0.289-9.062-0.463-13.705-0.583
			c-2.039-0.488-4.052-1-5.831-1.75C54.452,45.687,56.271,40.316,57.831,34.685z M73.867,64.712
			c-0.039,0.933,0.285,2.231-0.875,2.042v-7.582h1.748c-0.059,1.109-0.256,2.075-0.582,2.916
			C74.246,63.15,74.111,63.986,73.867,64.712z M67.742,67.044v-5.831c-0.038-0.521,0.359-0.613,0.295-1.167v-0.874h1.747
			c-0.438,0.924-0.146,2.576-0.583,3.499v2.041c-0.508,1.05,0.148,3.261-0.874,3.79C67.346,68.801,67.874,67.596,67.742,67.044z
			 M63.662,64.129c-0.75,0.317-0.255,1.883-0.875,2.332c-0.092,0.883,0.324,2.27-0.581,2.333c-1.241,0.269-1.247-0.699-1.167-1.75
			c0.426-0.546,0.012-1.931,0.583-2.332c-0.014-1.958,0.368-3.519,0.585-5.248v-0.873c0.694,0.176,1.329,0.418,2.332,0.29
			C64.453,60.837,63.501,61.929,63.662,64.129z M58.998,58.007c-0.955,3.32-2.044,6.505-2.917,9.912
			c-0.337-0.244-0.78-0.384-1.457-0.292c0.71-3.567,1.887-6.663,2.916-9.913C58.364,57.476,58.292,58.126,58.998,58.007z
			 M49.958,65.295c0.043-0.543,0.193-0.974,0.584-1.166c-0.11-1.276,0.833-1.499,0.876-2.624c0.838-1.493,1.459-3.203,2.04-4.957
			h1.166c-0.479,2.047-1.314,3.739-2.039,5.54c-0.342,0.921-0.534,1.993-1.166,2.624c-0.107,0.69-0.681,2.405-1.461,1.458
			C48.936,66.426,49.656,65.413,49.958,65.295z M46.17,65.587c0.151,0.151-0.212,0.372-0.291,0.29
			C45.727,65.727,46.089,65.505,46.17,65.587z M87.275,83.371c-2.017,0.414-3.549,1.311-5.539,1.748
			c-3.514,1.248-6.969,2.553-11.076,3.206h-6.998c-2.478-0.243-4.642-0.8-6.997-1.165c-0.745-0.616-2.266-0.455-2.914-1.167
			c-1.197-0.069-1.643-0.884-2.916-0.874c-3.303-2.043-7.059-3.635-9.913-6.123c0.615-1.523,1.092-3.186,2.042-4.372
			c0.432-1.7,0.975-3.296,1.748-4.665c-0.012-0.744,0.217-0.354,0.583-0.291c0.1,0.383,0.512,0.459,0.583,0.875
			c0.748,0.225,1.653,0.29,2.04,0.875c1.481,0.365,2.536,1.158,4.083,1.457c2.619,1.172,5.96,1.617,9.329,2.041h4.955
			c3.107-0.293,5.809-0.994,8.162-2.041c2.6-0.706,4.21-2.398,7.289-2.623c0.975-0.289,1.356-1.17,2.332-1.458
			c0.259-0.13,0.521-0.257,0.586-0.583c0.246-0.053,0.273,0.113,0.289,0.291c0.238,0.055,0.291,0.292,0.584,0.292
			c0.886,3.683,2.498,6.634,3.787,9.912c0.615,0.942,1.402,1.708,2.627,2.04C90.852,82.088,88.648,82.312,87.275,83.371z"/>
	</g>
</g>
</svg>
