<?xml version="1.0" encoding="utf-8"?>
<!-- Generator: Adobe Illustrator 16.0.0, SVG Export Plug-In . SVG Version: 6.00 Build 0)  -->
<!DOCTYPE svg PUBLIC "-//W3C//DTD SVG 1.1//EN" "http://www.w3.org/Graphics/SVG/1.1/DTD/svg11.dtd">
<svg version="1.1" id="Layer_1" xmlns="http://www.w3.org/2000/svg"  x="0px" y="0px"
	 width="120px" height="120px" viewBox="4 4 120 120" style="enable-background:new 4 4 120 120;" xml:space="preserve">
<g id="trash">
	<g>
		<path d="M108.729,28.513c-0.539-0.622-0.972-1.348-1.899-1.581c-0.544,0.017-0.812-0.242-0.951-0.633
			c0.099-0.728-0.91-0.351-0.946-0.947c-4.998-0.698-10.705-0.684-16.443-0.633c-1.194,0.244-1.514-0.386-2.531-0.316
			c-0.755-0.192-2.295,0.397-2.53-0.316c-0.848-3.053-1.001-6.802-3.161-8.541c-5.082-1.245-12.279-0.373-18.346-0.631
			c-3.192,0.603-6.316,1.273-8.855,2.529c-0.852,0.941-1.201,2.384-2.216,3.164c-0.269,1.626-0.451,3.343-1.261,4.428
			c-1.597-0.225-1.769,0.973-3.479,0.633c-1.718,0.241-2.564-0.391-4.112-0.316c-3.817,0.505-7.438,1.206-12.021,0.947
			c-0.052,0.369-0.5,0.344-0.946,0.318c-1.481,0.417-2.128,1.668-3.479,2.213c-1.237,0.662-1.81,1.984-2.531,3.163
			c0.292,2.029,0.354,4.284,1.267,5.693c1.782,0.856,4.948,0.32,6.957,0.948c0.125,12.42,1.402,23.691,2.847,34.79
			c1.6,10.943,2.63,22.459,5.692,31.943c-0.117,1.909,0.089,3.493,0.316,5.062c0.825,1.176,2.901,1.103,3.795,2.213
			c1.964,0.145,3.118,1.1,5.376,0.948c0.238,0.714,1.775,0.124,2.53,0.315c0.525,0.531,1.859,0.253,2.849,0.318
			c1.039,0.012,1.572,0.531,2.845,0.314c0.858,0.195,2.511-0.402,2.846,0.316h24.669c3.368-0.744,6.597-1.629,9.487-2.849
			c0.68-0.692,0.982-1.756,1.898-2.213c0.42-0.948,0.322-2.421,0.315-3.795c0.72-0.758,1.208-1.744,1.265-3.163v-6.643
			c0.146-1.436,0.569-2.592,0.635-4.11V76.587c0.733-6.224,1.6-12.316,1.896-18.976c0.616-6.448,1.681-12.447,1.581-19.61
			c1.844-0.373,4.15-0.277,5.377-1.265C108.467,34.525,109.467,31.531,108.729,28.513z M61.918,19.974
			c4.545-0.726,10.432-0.112,15.496-0.314c1.094,0.702,0.184,3.4,0.951,4.427c-0.75,0.727-2.842,0.113-4.115,0.316
			c-4.389,0.562-8.784,1.124-13.281,1.582c0.037-2.074-0.246-4.464,0.633-5.693C61.543,20.022,61.726,19.992,61.918,19.974z
			 M57.49,22.504c0.163,0.164-0.227,0.404-0.313,0.317C57.01,22.658,57.405,22.418,57.49,22.504z M62.552,107.266
			c0.06-0.358,0.315-0.178,0.315,0C62.806,107.624,62.548,107.439,62.552,107.266z M92.277,85.76
			C91.35,91.997,90,97.816,89.752,104.734c-4.266,1.217-9.02,1.947-13.916,2.531c-1.275,0.414-2.551,0.822-4.432,0.631
			c-0.104-1.597,1.38-2.727,0-3.795c-1.663-0.191-2.506,0.446-2.846,1.58c-0.578,0.793-0.254,2.488-1.896,2.215
			c-1.294,0.098,0.054-0.438-0.319-1.266c0.177-0.562,0.164-1.312,0.638-1.581c-0.049-1.266,1.274-2.288,0.313-3.479
			c-2.325-0.428-2.677,1.117-3.48,2.215c-0.561-0.281-0.802-0.883-1.897-0.635c-0.978,0.396-1.697,1.047-2.211,1.898
			c-1.103,0.165-0.631,1.899-2.216,1.581c0.267-2.157,1.535-3.315,1.897-5.375c-0.093-0.646-0.855-0.621-0.949-1.266
			c-3.412,0.274-4.285,3.093-5.692,5.376c-0.947-1.381,1.018-2.557,0.95-4.11c0.652-0.837,1.447-2.819,0.631-4.112
			c-1.914-0.125-2.236,1.349-3.161,2.213c-0.572,1.113-1.542,1.836-1.899,3.166c-0.911-1.451,0.693-3.099,1.265-4.113
			c0.084-0.971,0.686-1.422,0.949-2.215c0.459-0.49,0.423-1.475,0.95-1.896c0.006-1.46,0.824,0.271,0.946,0.633
			c0.564,0.281,0.806,0.883,1.901,0.635c1.16,0,1.213-1.108,1.899-1.584c-0.563-7.45-1.633-14.394-2.85-21.189
			c-1.022-6.881-1.259-14.554-2.53-21.19v-4.744c-0.148-1.327-0.41-2.539-1.58-2.845c-3.719-0.029-1.697,5.684-2.215,8.854
			c1.034,12.567,2.117,25.086,4.429,36.372c0.149,0.99-0.798,0.891-1.265,1.264c-0.319,0.422-0.522,0.955-0.949,1.266
			c-0.606,0.871-1.404,1.549-1.9,2.53c-0.825-0.747,0.521-1.996,0.318-3.162c0.531-0.737,0.827-1.704,0.951-2.846
			c0.494-0.876,0.981-1.761,1.261-2.849c0.434-0.938,0.458-2.291-0.315-2.847c-2.657,0.188-3.666,2.027-4.426,4.112
			c-0.814-0.77-0.838-2.325-0.951-3.796c0.286-2.351,1.241-4.031,1.584-6.325c0.526-0.736,0.824-1.704,0.947-2.847
			c0.637-0.63,1.082-1.448,0.948-2.847c-0.102-0.744-0.979-0.707-1.264-1.267c-2.11,0.106-2.735,1.697-3.479,3.163
			c-0.906-0.489-1.259-2.773-0.634-3.793c0.526-1.059,0.743-2.426,1.269-3.48c0.327-2.452,2.622-4.487,1.581-7.273
			c-3.022-0.068-3.246,2.659-4.112,4.744c-0.862-0.297-0.723-1.596-0.948-2.531c0.219-1.381-0.539-1.782-0.319-3.163
			c-0.266-2.05-0.644-3.993-0.631-6.324c-0.673-3.967-1.433-7.846-1.581-12.335c13.307-0.106,27.201,0.173,38.263,0
			c1.392-0.164,1.043-0.099,2.216-0.315h4.746C86.4,37.708,90.08,38.119,93.23,38c0.785-0.265,1.693-0.412,2.847-0.315
			C93.98,52.88,91.934,68.122,92.277,85.76z M99.238,33.258c-0.674,0.265-1.993-0.271-2.215,0.633
			c-7.461,0.021-15.114-0.146-22.14,0.315c-6.84,0.822-14.298-0.448-21.822,0c-1.905-0.201-3.725-0.49-5.692-0.633
			c-4.803,0.362-9.975,0.357-15.182,0.318c-0.961-0.199-2.722,0.404-3.161-0.318c-0.4-1.243,0.747-0.939,1.581-0.948
			c0.994,0.152,1.235-0.45,1.896-0.632h8.222c8.2-1.395,17.922-1.269,27.516-1.266c0.512,0.091,0.546-0.297,0.951-0.315
			c8.312,0.228,16.131,0.944,24.67,0.948c1.137-0.444,3.18,0.02,3.793-0.948c1.76-0.286,2.662,0.288,3.164,1.266
			C100.533,32.696,100.188,32.885,99.238,33.258z M66.344,90.818c-1.05-2.637-1.217-6.161-1.896-9.172
			c-0.802-2.888-1.346-6.033-1.266-9.805c-0.563-6.816-0.567-14.191-1.265-20.873v-3.795c-0.104-1.265,0.405-3.149-0.949-3.163
			c-0.019-0.193-0.046-0.374-0.316-0.317c-0.374,0.153-0.718,0.337-0.946,0.633c-1.164,0.878-0.544,3.38-0.633,5.376
			c-0.239,5.361-0.319,11.35-0.319,16.763c0,7.812,1.114,15.488,2.53,20.558c-0.16,2.797,0.263,5.01,0.634,7.273
			c0.074,1.296,0.154,2.586,0.634,3.479c0.471,0.899,1.863,0.881,3.162,0.951c0.823-0.553,0.642-2.103,0.63-3.48V90.818z
			 M85.955,48.122c0.1-0.742,0.498-1.187,0.314-2.212c-0.494-0.456-0.246-1.649-1.265-1.582c-0.021-0.193-0.049-0.375-0.313-0.316
			c-0.375,0.153-0.719,0.337-0.951,0.633c-1.008,0.609-1.021,2.547-1.264,4.111c-1.668,10.73-0.647,25.008-0.949,36.37
			C81.504,86.475,81,87.338,81.21,88.92c-0.054,1.743,0.966,2.411,0.632,4.428c0.036,0.812,0.178,1.51,0.635,1.898
			c0.004,0.943-0.027,1.928,0.948,1.898c0.511-0.756,0.505-2.026,0.947-2.848c0.081-1.294-0.308-3.05,0.634-3.479
			c-0.158-2.898,0.227-5.258,0.635-7.59V52.866c0.705-0.137,0.127-1.558,0.314-2.214V48.122z M74.25,57.611
			c-0.102-2.427-0.49-4.565-0.314-7.275c-0.569-0.696-0.274-2.254-0.631-3.161c0.297-1.562-0.385-2.145-0.949-2.847
			c-0.782-0.049-1.312,0.164-1.58,0.631c-0.34,0.924-0.709,1.823-0.631,3.163c-0.33,0.833-0.381,1.941-0.318,3.163
			c-0.617,1.808-0.189,4.659-0.314,6.959c-0.166,1.921,0,4.175,0,6.326v21.82c0.721,0.438,0.116,2.202,0.314,3.164
			c0.578,0.687-0.061,2.59,0.632,3.162c0.526,0.633-0.024,2.346,0.633,2.848c-0.03,1.295,0.043,2.484,1.265,2.531
			c2.102-0.328,3.301-1.554,3.164-4.113c0.076-2.605-0.441-4.621-0.633-6.957C74.316,77.577,74.734,67.146,74.25,57.611z"/>
	</g>
</g>
</svg>
