<?xml version="1.0" encoding="utf-8"?>
<!-- Generator: Adobe Illustrator 16.0.0, SVG Export Plug-In . SVG Version: 6.00 Build 0)  -->
<!DOCTYPE svg PUBLIC "-//W3C//DTD SVG 1.1//EN" "http://www.w3.org/Graphics/SVG/1.1/DTD/svg11.dtd">
<svg version="1.1" id="Layer_1" xmlns="http://www.w3.org/2000/svg"  x="0px" y="0px"
	 width="120px" height="120px" viewBox="0 0 120 120" enable-background="new 0 0 120 120" xml:space="preserve">
<g id="tree1">
	<g>
		<path d="M109.165,51.922c-1.208-2.215-2.778-4.067-4.231-6.041c-1.098-0.716-2.142-1.482-3.021-2.418
			c-0.455-0.454-1.271-0.541-1.511-1.207c-0.717-0.189-1.404-0.407-1.508-1.209c0-1.209,0.602-1.813,0.602-3.021v-4.532
			c-0.35-1.563-0.907-2.92-1.51-4.229c-0.601-0.307-1.291-0.523-1.512-1.208c-2.316-0.203-4.086-0.951-6.041-1.512h-2.115
			c-0.354,0.254-0.812,0.398-1.51,0.303c-0.423,0.812-1.152,0.449-2.117,0.904c-0.145,0.066-0.184,0.551-0.299,0.604
			c-0.854,0.403-1.816,0.87-3.021,0.908c0.789-2.568-0.319-4.005,0-7.252c-0.623-0.586-0.588-1.83-1.211-2.417
			c-0.279-0.827-0.926-1.289-1.205-2.116c-1.994-1.63-4.168-3.086-7.252-3.624H61.128c-3.538,0.49-6.352,1.704-9.063,3.023
			c-0.711,0.644-1.669,0.791-2.417,1.508c-0.257,0.246-0.656,0.362-0.907,0.605c-0.065,0.061-0.25,0.264-0.302,0.301
			c-1.125,0.869-2.13,1.639-3.021,2.72c-0.852-0.257-1.237-0.976-2.418-0.907c-8.681-0.727-13.385,2.527-17.824,6.043
			c-0.886,1.229-1.589,2.641-2.718,3.626c-0.774,1.241-1.436,2.593-2.116,3.928c0.059,4.369,0.183,8.677,2.116,11.179
			c-3.056,1.477-4.143,4.921-3.931,9.666c0.681,3.756,2.448,6.417,4.534,8.764c-0.491,1.02-1.731,1.287-1.815,2.72
			c-0.526,3.198-1.556,5.893-1.207,9.969c0.658,2.867,2.513,4.538,4.23,6.347c0.771,0.135,1.389,0.422,1.812,0.905
			c0.951,0.354,2.281,0.339,3.022,0.906v4.833c1.817,2.714,3.856,5.205,7.856,5.74h5.136c0.573-0.433,1.312-0.703,2.112-0.906
			c0.581-0.831,1.288-1.537,2.116-2.114c0.107-1.205,0.66-1.961,0.908-3.021c-0.218-0.924,0.306-1.103,0.302-1.812
			c0.821,0.216-0.217-1.424,0.602-1.208c1.802,1.419,5.686,0.761,8.765,0.904c0.572-0.431,1.312-0.702,2.115-0.904
			c0.218-0.688,0.908-0.905,1.506-1.209c0.125,0.886,1.772,0.241,2.115,0.905v7.855c-1.087,5.355-4.375,8.516-7.553,11.78
			c-0.66,0.347-1.004,1.013-1.813,1.209h-3.624c-2.305,0.416-4.715,0.726-7.25,0.907c-1.241,0.773-3.145,0.886-2.718,3.32
			c0.292,0.011,0.232,0.371,0.301,0.604c0.979,0.931,3.302,0.522,5.134,0.604c8.464-0.457,16.512-0.151,25.076,0
			c1.106-0.604,2.881-0.545,2.416-2.72c-1.076-1.44-3.492-1.541-6.039-1.512c-0.598-0.412-1.726-0.287-2.416-0.604
			c-0.754-0.152-1.825,0.01-1.814-0.905c2.562,0.159,7.748,0.836,7.553-2.72c-0.465-1.084-1.902-0.521-2.416-0.906
			c0.487-0.823,0.469-2.149,1.812-2.116c0.679-0.529,1.859-0.554,1.51-2.113c0.482-1.688-2.297-0.116-2.113-1.51
			c1.186-0.731,3.734-0.095,3.928-1.812c0.463-1.873-1.232-1.588-2.116-2.114c0.569-0.847,0.745-2.078,1.212-3.021
			c-0.029-1.34,1.648-0.972,1.512-2.416c-0.43-0.579-0.938-1.081-1.512-1.512h-1.512c-0.518-0.062-0.781,0.517-0.906,0
			c0.24-0.563,0.503-1.104,0.602-1.813c-0.412-0.486-1.435-0.373-1.207-1.509c0.885-2.543,1.601-5.252,1.812-8.461
			c-1.737-0.229-1.648,1.368-2.719,1.813c0.07,0.512-0.338,0.744-0.301,0h0.301c0.104-2.358,1.584-4.805,0.604-7.252
			c-1.8-0.288-1.319,1.697-2.114,2.418c-0.213,1.295-0.494,2.525-1.209,3.32c-0.438-2.179-2.152-3.084-2.418-5.438
			c-0.428,0.025-0.854,0.049-0.902-0.303c-0.733-1.387-1.442-2.793-2.418-3.928c-0.479-1.642-1.492-2.74-3.93-2.418
			c-0.503,0.832-0.945,2.489-0.302,3.928c0.771,0.841,1.206,2.018,1.816,3.021c0.768,2.354,1.949,4.293,2.416,6.949
			c-0.412,0.094-0.25,0.756-0.301,1.208c-0.74,0.874-1.637,1.589-2.721,2.115h-5.442c-1.541-0.557-4.333-2.106-6.038-0.604
			c0.046,0.354-0.068,0.537-0.303,0.604c0.29,0.918,0.354,2.062,1.207,2.418c0.105,1.002,1.861,0.354,1.513,1.812
			c-0.257,0.887-0.976-0.182-1.513,0c-0.447,0.157-0.76,0.446-1.207,0.604c-1.156,1.261-1.978,2.854-3.022,4.229
			c-1.923,0.491-2.881,1.949-5.742,1.509c-2.006-1.113-3.167-3.072-2.718-6.646c0.366-0.944,0.733-1.888,1.208-2.72
			c-1.374-0.28,0.157-1.895-0.605-2.416c-1.341-0.568-3.664-0.162-5.137-0.604c-2.376-2.168-2.286-8.313-0.3-10.877
			c2.637,0.12,4.871-0.163,5.135-2.418c-0.434-0.369-0.456-1.151-0.905-1.51c-0.709-0.101-1.25-0.363-1.815-0.604
			c-1.208-0.402-2.44-0.781-3.02-1.813c-0.437-0.468-0.635-1.176-0.908-1.812c0.329-2.896,0.974-5.474,1.21-8.459
			c0.685-0.825,2.258-0.767,2.116-2.418c0.196-1.105-0.656-1.157-0.606-2.114c-0.618-0.289-1.196-0.618-1.812-0.906
			c-0.531-0.276-1.506-0.103-1.813-0.605c-0.415-1.723,0.792-1.825,0.605-3.322c-0.777-2.483,0.134-5.096,0-7.854
			c1.042-1.071,1.681-2.547,3.02-3.323c1.597-1.326,4.033-1.809,6.645-2.116c3.274,0.252,7.051,0,9.368,1.21
			c0.598,0.711,0.598,2.021,0.906,3.021c1.357,0.659,1.831,2.2,3.928,2.115c1.052-0.46,1.568-2.03,0.908-3.324
			c0.561-0.545,1.106-1.108,0.906-2.417c-0.236-0.268-0.325-0.682-0.301-1.209c-0.525-1.693-2.121-2.312-2.723-3.926
			c3.767-2.684,8.326-4.567,14.203-5.137H71.4c0.091,0.41,0.756,0.25,1.205,0.303c0.201,0.404,0.646,0.562,1.213,0.604
			c0.371,0.633,0.877,1.135,1.508,1.51c0.583,1.734,1.652,2.979,1.812,5.137v6.345c-0.281,1.68-0.609,3.228,0.905,3.928
			c1.073,0.067,1.812-0.204,2.113-0.907c0.073-0.833,0.892-0.921,1.515-1.207c0.487-1.422,1.776-2.048,3.02-2.719
			c1.932-0.389,4.207-0.427,6.043-0.907c2.442,1.485,3.353,4.503,3.927,7.855c-0.761,1.153-1.027,2.796-1.207,4.531
			c-0.478,0.629-0.985,1.23-1.209,2.116c-0.731,0.476-1.336,1.079-1.812,1.81c-0.514,0.598-1.742,0.474-1.512,1.815
			c1.447,0.532,2.21-0.068,3.93,0c1.346-0.97,2.266-2.367,3.623-3.324c0.551,0.859,1.664,1.159,2.42,1.812
			c0.572,0.832,1.279,1.537,2.112,2.114c1.132,1.689,2.866,2.772,3.021,5.438c-0.635,1.986-2.348,2.889-3.021,4.834
			c-1.272,0.137-1.391,1.429-2.417,1.813c-0.451,0.354-1.232,0.373-1.513,0.905c-0.576,0.128-1.302,0.109-1.204,0.906
			c1.301,2.438,5.58,1.305,7.552,0.303c0.257,2.059,0.897,3.732,0.604,6.344c-0.252,0.758-0.828,1.188-0.906,2.114
			c0.098,0.711,0.479,1.136,0.305,2.116c-0.482,1.636-1.289,2.94-1.816,4.531c-1.512,1.004-1.844,3.189-4.229,3.321
			c-0.111,0.778-0.178,0.978-0.904,1.515c-0.566,0.416-1.431,0.553-2.113,0.903c-2.309,0.092-4.387-0.049-6.344-0.302
			c-0.324-0.785-1.795-0.424-2.117-1.21c-0.711-0.229-2.09-0.597-2.719,0c-1.049,1.007,0.258,2.181,0.303,3.021
			c0.014,0.266,0.594,0.785,1.207,1.207c0.225,0.154,0.66,0.116,0.908,0.303c0.1,0.076,0.209,0.562,0.301,0.605
			c0.617,0.28,1.511-0.043,1.812,0.602c1.951-0.232,2.979,0.451,4.836,0.305c1.287-0.021,2.114-0.504,3.628-0.305
			c0.372-0.432,1.035-0.568,1.812-0.602c0.938-0.977,2.257-1.57,3.322-2.417c0.914-0.995,1.679-2.146,2.72-3.021
			c1.315-3.418,3.569-5.898,4.229-9.974c-0.076-2.491,0.531-4.303,0.301-6.948c-0.41-0.093-0.25-0.754-0.301-1.207
			c-0.589-1.125-1.521-1.904-2.416-2.72c1.174-1.344,2.352-2.682,3.32-4.23c-0.023-0.428-0.05-0.854,0.303-0.906
			C109.578,54.932,109.383,53.417,109.165,51.922z M68.379,88.779c0.617,0.092,0.594,0.818,1.209,0.908
			c-0.207,1.103-1.146,1.473-1.515,2.418C67.217,91.227,68.548,89.973,68.379,88.779z M86.809,106.305
			c-0.851-1.668-2.344-2.693-3.324-4.229c-0.906-1.609-1.978-3.061-2.719-4.836c-0.219-0.688-0.27-1.54-0.604-2.112
			c-0.332-3.392-0.084-7.368-0.604-10.573c1.356-1.062,1.354-3.479,2.117-5.138c0.901-1.21,1.995-2.229,2.719-3.626
			c1.283-1.03,3.392-1.24,3.02-3.926c-0.232-0.066-0.35-0.256-0.303-0.604c-3.562-1.212-5.002,2.224-6.948,3.625
			c-0.207-1.102,0.067-2.684-1.205-2.721c-2.116,0.808-3.045,2.8-3.022,5.741c-0.713,0.697,0.027,2.846-0.604,3.627
			c0.156,1.667-0.175,2.847-0.303,4.229v4.229c-0.512,1.903-0.237,4.598-0.303,6.948c0.416,0.391,0.301,1.312,0.303,2.113
			c0.826,1.389,1.265,3.168,2.113,4.531c0.799,1.52,1.992,2.645,2.719,4.23c1.462,1.39,2.869,3.188,4.231,4.229
			c0.499,0.385,0.958,0.895,1.206,0.907c0.352,0.018,0.135,0.192,0.305,0.301c0.56,0.362,1.487,0.585,2.111,0.604
			c1.469-0.545,2.784-1.246,2.723-3.321C90.123,108.225,88.271,107.459,86.809,106.305z"/>
	</g>
</g>
</svg>
