<?xml version="1.0" encoding="utf-8"?>
<!-- Generator: Adobe Illustrator 16.0.0, SVG Export Plug-In . SVG Version: 6.00 Build 0)  -->
<!DOCTYPE svg PUBLIC "-//W3C//DTD SVG 1.1//EN" "http://www.w3.org/Graphics/SVG/1.1/DTD/svg11.dtd">
<svg version="1.1" id="Layer_1" xmlns="http://www.w3.org/2000/svg"  x="0px" y="0px"
	 width="120px" height="120px" viewBox="0 0 120 120" enable-background="new 0 0 120 120" xml:space="preserve">
<g id="trumpet">
	<g>
		<path d="M107.632,32.203c-2.065-2.412-4.067-4.893-6.577-6.865c-2.129-2.448-5.031-4.118-8.01-5.721
			c-0.432-0.048-1.057,0.104-1.146-0.285c-2.842-0.08-5.58-0.051-7.436,0.857c-0.928,1.265-1.921,2.465-2.859,3.719
			c-0.051,0.429,0.104,1.055-0.285,1.145v4.29c0.279,1.532,0.789,2.835,1.145,4.29c-0.969,1.32-1.578,2.996-2.001,4.863
			c-3.819,4.855-7.44,9.913-12.019,14.016c-0.189,1.045-1.08,1.395-1.426,2.289c-0.688,0.555-0.875,1.604-2.002,1.717
			c-0.25-1.662-0.186-3.634-2.291-3.435c-0.899,0.438-0.475,2.195-0.572,3.435c0.625,0.041,0.613,0.721,0.572,1.428
			c0.662,0.08,0.655,0.765,0.287,1.146c-1.074-1.214-2.016-2.565-2.289-4.576c0.766-0.667,1.394-1.467,2.002-2.289
			c0.359-1.78,0.685-2.971,0-4.575c-2.853-1.454-6.644-0.095-8.009,1.717c-0.046,0.335,0.048,0.811-0.288,0.856
			c0.078,0.971-0.218,2.319,0.288,2.859c-1.043,0.208-0.489,2.18-0.288,2.862c0.99,0.438,2.608,0.252,4.006,0.285
			c0.369,2.11,1.541,3.419,2.573,4.864c-2.439,0.323-3.343,2.185-5.433,2.86c-1.082-1.494-2.181-2.971-3.146-4.578
			c0.807-0.719,1.391-1.659,1.43-3.146c-0.096-1.432-0.881-2.17-1.43-3.147c-0.901-0.435-1.715-0.952-2.863-1.144
			c-1.259-0.117-2.209,0.078-2.857,0.572c-1.443-0.201-1.968,0.513-2.859,0.857c-0.382,0.669-0.488,1.613-0.863,2.289
			c0.16,1.465,1.324,1.921,1.433,3.433c1.191,0.429,2.428,0.813,3.145,1.716c0.564,2.488,1.698,4.406,2.287,6.865
			c-0.569,0.857-1.653,1.206-2.573,1.717c-0.912-0.709-1.208-2.033-2.574-2.289c-0.42,0.631-0.866,1.229-0.854,2.289
			c0.326,0.361,1.306,1.522,0.57,2.002c-0.816-0.709-1.438-1.615-2.003-2.574c1.091-1.483,2.877-2.271,2.573-5.146
			c-1.126-1.416-4.304-0.748-6.29-0.572c-0.591,0.649-1.463,1.018-2.289,1.43c-0.618,0.623-0.985,1.496-1.429,2.289
			c0.133,2.619,2.725,4.021,5.434,3.146c0.482,1.139,1.347,1.893,1.715,3.146c-1.124,0.115-1.222,1.258-2.288,1.431
			c-0.519,0.813-1.572,1.099-2.289,1.717c-0.467,0.772-1.118,1.361-2.002,1.718c-0.562,0.771-1.301,1.366-2.288,1.715
			c-1.187,1.39-3.274,1.873-4.579,3.146c-1.772,0.895-2.547,2.791-5.146,2.861c0.345-1.584-0.818-1.662-0.859-2.861
			c-0.697-0.16-1.471-0.244-1.43-1.145c-1.882,0.07-2.844-0.777-4.862-0.571c-1.396,0.512-2.418,1.396-3.432,2.288
			c-0.812,2.145-1.609,4.304-1.43,7.438c0.24,0.33,0.374,0.769,0.285,1.43c2.443,4.137,5.304,7.854,8.58,11.156
			c1.124,0.496,2.219,1.023,3.148,1.715c1.259,0.074,2.212,0.459,3.717,0.287c1.484-1.092,2.84-2.309,4.003-3.719
			c0.213-2.309-0.463-3.73-0.285-6.008c-0.839-0.686-1.006-2.044-2.003-2.572c1.394-0.133,1.803-1.254,3.15-1.432
			c0.015,1.033,0.711,1.385,0.856,2.289c1.499,1.551,3.189,2.912,4.576,4.576c1.919,0.654,3.073,2.076,4.576,3.146
			c1.265,1.31,3.017,2.134,4.007,3.72c3.956,1.858,8.203,3.428,14.587,2.859c1.314-0.496,2.887-0.736,4.006-1.432
			c1.041,0.089,1.858-0.045,2.572-0.284c4.035-1.976,7.822-4.188,10.87-7.15c3.478-2.625,6.086-6.118,9.438-8.868
			c0.715-1.479,1.875-2.513,2.861-3.719c1.074-2.93,2.262-5.748,2.857-9.152c-0.678-0.754-0.387-2.478-1.145-3.146
			c-0.06-1.372-0.711-2.149-1.145-3.146c-0.789-2.074-2.307-3.416-3.146-5.437c-1.595-0.405-1.756-2.252-3.434-2.573
			c-0.003-1.712-1.79-1.642-1.715-3.433c0.674,0.089,0.531,0.993,1.43,0.856c0.883-1.118,1.932-2.071,2.859-3.145
			c2.492-1.229,4.855-2.583,8.297-2.861c3.094,3.483,6.291,6.865,11.729,8.009c2.035,0.129,3.652-0.16,5.146-0.571
			c2.588-1.609,3.805-4.588,4.291-8.297v-3.718C115.232,42.528,111.518,37.283,107.632,32.203z M56.718,53.083
			c-0.443-0.415-0.252-1.464-0.286-2.287c1.022-0.789,1.918-1.703,4.005-1.429C59.957,51.364,58.591,52.478,56.718,53.083z
			 M45.563,57.09C45.218,57.119,45.387,56.673,45.563,57.09C46.419,57.146,45.288,58.276,45.563,57.09z M39.556,66.527
			c-0.699,0.256-1.243,0.668-2.288,0.572c0.712-1.291,2.228-1.775,4.003-2.002C41.315,66.191,40.104,66.027,39.556,66.527z
			 M81.034,47.078c0.144,0.146-0.208,0.365-0.289,0.285C80.596,47.215,80.953,46.997,81.034,47.078z M81.034,47.65
			c0.144,0.146-0.208,0.365-0.289,0.285C80.596,47.786,80.953,47.571,81.034,47.65z M80.172,46.219
			C80.914,45.234,80.865,47.69,80.172,46.219L80.172,46.219z M49.282,58.233c-0.617-0.435-0.879-1.222-1.431-1.716
			c-0.041-0.914-1.056-0.85-1.144-1.717c1.559-0.785,4.256-0.816,4.862,0.857v1.432C50.847,57.511,50.291,58.099,49.282,58.233z
			 M50.998,60.521c-0.129,0.416-0.25-0.028-0.574,0C50.495,60.162,50.993,60.231,50.998,60.521z M83.32,64.525
			c0.555,1.257,1.57,2.052,2.574,2.857c0.998,2.342,2.275,4.396,3.43,6.581v5.146c-0.193,2.476-1.277,4.062-2,6.01
			c-0.598,0.165-0.816,0.708-1.717,0.57c-1.676,2.426-4.002,4.197-5.438,6.863c-1.428,0.955-2.572,2.193-4.003,3.146
			c-1.44,0.941-2.845,1.922-4.005,3.146c-0.809-0.233-0.74,0.403-1.434,0.286c-2.875,2.273-6.42,3.875-10.293,5.148
			c-0.705-0.038-1.379-0.043-1.718,0.283c-1.063-0.461-2.814-0.234-4.292-0.283c-1.991-0.2-3.731-0.653-5.432-1.146
			c-1.901-1.818-4.27-3.166-6.294-4.861c0.168-1.502-0.503-2.166-0.286-3.719c-1.034-0.08-0.654,1.254-1.144,1.715
			c-1.992-1.916-4.065-3.75-4.577-7.147c1.01-0.231,1.329-1.152,2.577-1.146c0.212,1.312,1.13,1.922,1.426,3.146
			c2.406,3.221,5.093,6.159,7.727,9.151c1.003-0.646,2.021,0.723,3.145,0.857h4.862c2.07-0.408,3.748-1.206,5.721-1.714
			c3.091-2.153,6.81-3.681,9.154-6.581c0.651-0.206,1.463-0.255,2-0.57c1.17-0.931,2.221-1.979,3.149-3.146
			c1.416-0.585,1.892-2.112,3.715-2.289c0.521-2.438,2.938-2.976,3.437-5.437c1.041,0.187,1.521-0.191,2-0.57
			c0.192-1.049,0.398-2.08,0.287-3.434c-0.229-1.678-1.203-2.613-1.433-4.291c-0.928-0.884-1.558-2.066-2.002-3.434
			c-1.576-2.045-3.257-3.986-4.576-6.292c0.515-0.726,1.403-1.075,2.287-1.431C81.896,62.135,81.922,64.018,83.32,64.525z
			 M59.579,95.99c0.567,0.004,0.363,0.781,1.144,0.57c0.519-0.795-0.548-1.986-0.859-2.858c-0.583-0.755-0.982-1.687-1.43-2.575
			c-1.22-1.545-2.112-3.419-3.718-4.575c-0.883-2.073-2.065-3.848-2.86-6.009c-0.113-1.161,1.219-0.879,1.432-1.715
			c0.24-0.053,0.268,0.111,0.285,0.285c0.239-0.053,0.269,0.111,0.286,0.285c1.449,2.938,2.767,6.004,4.292,8.867
			c1.617,2.674,2.602,5.979,4.863,8.01c-1.373,1.301-2.682,2.658-4.579,3.433c-1.22,0.171-1.892-0.205-2.86-0.284
			c-2.89-1.686-5.583-3.57-8.011-5.722c-1.024-1.265-2.166-2.408-3.43-3.433c-0.901-1.293-2.245-2.146-2.862-3.72
			c2.207-1.229,3.903-2.962,6.58-3.72c0.176,1.062,0.803,1.675,1.145,2.575c1.687,2.127,3.491,4.134,5.147,6.292
			c1.136,2.582,2.792,4.644,4.576,6.578C59.47,97.979,59.654,97.116,59.579,95.99z M68.73,68.814
			c0.465-0.08,0.494,0.271,0.859,0.289c0.867,1.131,0.873,3.131,2,4.004c0.268,1.734,1.328,2.676,1.715,4.291
			c1.029,0.973,1.532,2.473,2.287,3.718c0.952,1.052,1.562,2.444,2.578,3.432c-0.254,0.599-1.598-0.092-1.434-0.856
			c-0.573-0.377-0.965-0.938-1.146-1.717c-0.989-0.916-1.735-2.076-2.573-3.146c-0.81-1.097-1.651-2.16-2.287-3.433
			c-0.897-1.008-1.248-2.563-2.002-3.721c-0.158-0.635,0.547-0.404,0.571-0.857C68.986,70.277,68.939,69.468,68.73,68.814z
			 M70.162,68.244c0.146,0.148-0.207,0.365-0.285,0.285C69.729,68.383,70.082,68.166,70.162,68.244z M80.46,73.107
			c0.503,0.259,0.472,1.052,1.144,1.143c-0.076,1.031,0.525,1.38,0.571,2.289c-0.282,2.291-1.198,3.949-2.29,5.436
			c-1.668-1.664-2.488-4.185-4.002-6.008c-0.855-2.385-2.131-4.354-3.146-6.578c-0.627-0.517-1.174-1.115-2.004-1.429
			c0.992-1.206,2.865-1.524,3.723-2.86c0.335,0.045,0.238,0.521,0.283,0.855c1.049,2.388,3.139,3.729,4.863,5.436
			C79.447,72.405,80.613,72.094,80.46,73.107z M71.879,82.832c0.883,1.121,1.932,2.074,2.859,3.146
			c-0.297,0.754-1.137,0.963-1.434,1.715c-0.938,0.107-0.574,1.521-1.715,1.433c-2.771-5.431-5.095-11.308-8.009-16.592
			c0.196-0.664,0.951-0.767,1.146-1.431C67.654,74.473,69.16,79.257,71.879,82.832z M65.584,82.832
			c0.746,1.258,1.26,2.748,2.004,4.005c0.319,1.681,1.549,2.454,1.715,4.29c-2.027-2.357-3.572-5.195-5.146-8.009
			c-0.821-1.374-1.584-2.802-2.288-4.29c-0.5-1.692-1.967-2.421-2.003-4.578c0.445-0.414,1.335-0.381,1.715-0.857
			c0.257,0.129,0.516,0.252,0.574,0.573C63.208,77.009,64.717,79.604,65.584,82.832z M62.152,84.548
			c0.595,1.599,1.673,2.712,2.289,4.29c1.018,1.176,1.49,2.896,2.86,3.719c-0.553,1.068-1.819,1.422-2.573,2.289
			c-1.181-0.729-1.242-2.572-2.576-3.146c-0.12-1.689-1.182-2.438-1.714-3.72c-0.391-1.325-1.107-2.323-1.718-3.434
			c-1.203-2.229-1.998-4.863-3.433-6.863c0.088-0.582,0.775-0.562,0.859-1.146h0.856C58.132,79.798,60.429,81.885,62.152,84.548z
			 M90.473,50.796c-3.906,2.294-8.168,4.228-11.729,6.866c-4.225,1.973-7.461,4.936-11.442,7.148
			c-1.731,1.416-3.599,2.693-5.435,4.004c-1.452,1.602-3.589,2.516-5.149,4.006c-3.706,2.49-7.392,5.005-11.155,7.438
			c-1.251,0.246-1.273,0.062-2.289,0.283c-3.001,2.146-6.179,4.118-9.153,6.294c-1.522,1.054-3.422,1.728-4.577,3.146
			c-1.122,0.213-1.553,1.115-2.573,1.432c-0.367,0.873-1.715,0.765-1.715,2c0.3,1.148,1.161-0.037,2.289,0.288
			c1.253,1.616,1.192,5.854-0.29,7.149c-1.862-0.045-2.998-0.812-4.576-1.146c-0.61-1.2-2.016-1.606-2.574-2.86
			c-0.967-0.748-1.362-2.066-2.289-2.859c-0.419-2.154-1.156-3.99-1.715-6.008c0.197-1.615,0.415-3.207,1.43-4.004
			c1.362-0.027,2.133,0.532,3.147,0.857c0.293,0.852,0.212,2.072,0.856,2.576c1.638,0.203,2.558-0.307,4.007-0.288
			c1.253-0.015,1.532,0.946,2.573,1.146c1.053-0.092,0.672-1.617,1.144-2.287c0.871,0.014,1.111-0.604,1.715-0.857
			c0.92-0.252,0.392,0.941,1.147,0.857c-0.088,0.658,0.823,0.316,0.856,0.856c1.145-0.19,0.828-1.841,0.859-3.146
			c1.033-0.875,2.649-1.166,3.433-2.289c1.585-0.319,2.121-1.69,3.719-2.002c0.914-0.23,0.815-1.472,1.428-2.002
			c2.47-0.677,4.085-2.213,6.296-3.147c1.846-1.297,3.44-2.851,5.717-3.718c1.589-1.562,3.776-2.519,5.151-4.291
			c1.849-1.297,3.567-2.723,5.437-4.004c3.477-2.718,5.809-6.585,8.862-9.727c0.944,0.205,0.968,1.326,2.005,1.43
			c2.51-0.533-0.428-3.453,1.145-4.574c0.66,1.053,0.586,2.844,1.719,3.432c1.335-0.012,0.544-0.814,0.57-1.718
			c0.533,0.562,1.045,0.089,1.72,0c0.354-1.223-0.021-1.415,0-2.858c1.044,0.381,0.604,2.25,2.284,2.001
			c0.23-0.054,0.283-0.287,0.572-0.287c0.959-1.729-0.582-3.417-0.572-5.147c-0.041-1.01-0.82-1.279-0.857-2.288
			c0.956-1.144,1.985-2.209,2.287-4.005c1.381,0.547-0.42,1.268-0.285,2.289c-0.199,1.214,0.516,2.1,0.574,3.146
			c0.021,0.404,0.132,0.757,0.284,1.144c0.325,0.821,0.919,3.258,2.86,3.148c0.777-0.801-0.338-2.13-0.572-2.86
			c-0.42-0.917-0.98-1.69-0.858-3.147c1.544,3.031,4.532,4.62,5.437,8.295C91.482,50.471,90.807,50.465,90.473,50.796z
			 M109.35,58.805c-1.732,0.02-2.912-0.52-4.291-0.859c-1.076-0.637-1.924-1.506-3.146-2c-3.74-3.792-6.615-8.451-9.44-13.158
			c-0.236-1.67-1.761-2.053-1.714-4.005c-1.259-0.554-0.909-2.716-2.002-3.432c-0.403-1.504-1.221-2.596-2.005-3.72
			c-0.072-0.878-0.622-1.284-0.855-2.001c-0.414-0.444-0.381-1.333-0.856-1.718c-0.179-1.702,1.553-1.496,1.146-3.431
			c3.428,0.284,6.613,0.819,9.438,1.716c2.087,1.917,4.111,3.895,6.581,5.434c4.595,4.938,8.079,10.988,10.009,18.593
			C112.502,54.333,111.957,57.601,109.35,58.805z M105.059,43.073c-1.1,1.507-0.174,3.592-0.285,5.72
			c-3.766-3.863-7.104-8.152-8.582-14.302c0.938,0.49,1.207,1.651,2.861,1.431c1.01-1.523-0.719-2.428-0.859-3.719
			c-0.711-0.529-1.613-0.863-2.002-1.717c-1.389,0.055-0.896-1.77-2.289-1.716H93.33c-0.357,0.692-0.707,1.39-0.857,2.289
			c0.305,5.13,1.922,8.948,4.004,12.3c1.752,3.781,4.939,6.121,7.153,9.439c0.953,0.188,1.397,0.889,2.287,1.143
			c1.044-0.479,1.282-1.768,2-2.573V47.65C107.105,45.984,107.387,43.225,105.059,43.073z M23.538,92.843
			c-0.176-0.774-0.568-1.339-1.145-1.716c0.012-1.059-0.44-1.658-0.859-2.289c-0.409-0.068-0.481-0.47-0.856-0.57
			c-0.05,0.334-0.454,0.312-0.858,0.285c-1.282,3.789,1.39,6.025,2.859,8.01c0.22,0.063,0.565,0.008,0.573,0.285
			c1.27,0.344,3.198,0.579,3.43-0.855C26.567,94.01,24.388,94.088,23.538,92.843z"/>
	</g>
</g>
</svg>
