<?xml version="1.0" encoding="utf-8"?>
<!-- Generator: Adobe Illustrator 16.0.0, SVG Export Plug-In . SVG Version: 6.00 Build 0)  -->
<!DOCTYPE svg PUBLIC "-//W3C//DTD SVG 1.1//EN" "http://www.w3.org/Graphics/SVG/1.1/DTD/svg11.dtd">
<svg version="1.1" id="Layer_1" xmlns="http://www.w3.org/2000/svg"  x="0px" y="0px"
	 width="120px" height="120px" viewBox="4 4 120 120" style="enable-background:new 4 4 120 120;" xml:space="preserve">
<g id="TV">
	<g>
		<path d="M111,51.7c-8.1-6.8-22.4-7.5-35.9-9C79.4,36.4,86.2,32.5,89.8,25.5c2.7-0.5,3.9-2.6,5-4.7c-0.6-1.8-0.7-4.1-1.6-5.6
			c-1.2-0.5-1.7-1.6-3.7-1.2c-4.2,0.6-5.4,5.4-4.7,10c-2.7,3.1-5.3,6.4-8.399,9c-1.2,1.8-2.7,3.1-4.101,4.7
			c-1.3,1.6-2.1,3.7-4.399,4.4H63.8c-2.9-2.9-4.6-7.1-6.9-10.6c-0.9-2-2.1-3.8-3.4-5.3c-1-1.9-2.2-3.7-4.1-4.7c0.6-1,1-2.1,0.9-3.7
			c-1.1-1.7-2.7-2.9-5.9-2.5c-2.1,1.1-3.5,2.9-3.1,6.6c0.9,1.4,2.9,1.7,4.7,2.2c0.5,2,2.1,2.9,2.5,5c1.5,1,1.6,3.3,3.1,4.4
			c0.3,2.2,1.9,3.1,2.5,5c0.6,0.6,1,1.5,1.6,2.2c0.4,0.2,0.8,0.5,0.9,0.9c-0.2,0.5,1.2,0.8,0.3,0.9c-4.7-0.6-9.9,0.7-15.3,0.3
			c-5.3,0.2-10.2,0.8-15,1.6c-1.5,0.9-3.1,1.7-5,2.2c-1.4,1.6-2.9,3.1-4.1,5c-1.1,4-1.2,8.6-1.6,13.4c-1,13.8-1.4,30.3,1.6,42.1
			c0.8,1,1.7,1.801,2.2,3.101c1.7,1.1,3.6,2,5.3,3.1c1.9,0,3.3,0.4,5,0.601c12.3,0.3,23.9-1.301,35.9-0.301
			C77.3,113.9,91.3,114.6,101.8,113c3-1.6,5.2-3.9,7.2-6.6C112.9,91.3,113.8,68.6,111,51.7z M91.3,91.6C91,94.7,90.2,97.4,90.4,101
			c-0.9,2.1-3,3.1-4.7,4.4c-19.5-1.301-42.7,3.3-59.6-1.9c-2.1-16.3-0.3-34.4,2.2-49c15.7-1.4,32.6-2.9,49-0.9
			c3.3-0.7,7.4-0.9,10.601,0c0.899,0.6,1.6,1.5,1.899,2.8c1.5,0,1.9,1,2.5,1.9c0.4,2.7,0.5,5.5,0.601,8.4V71
			c0.199,1.3-0.4,3.3,0.3,4.1c-0.3,1.301-1.3,2-1.601,3.4C91.7,83.1,91.1,86.9,91.3,91.6z M102.2,59.5c0.7,0.6,1.7,1,2.2,1.9
			c0.199,2.9-1.101,4.3-3.4,4.7c-2.1-0.3-3-1.8-3.4-3.7C97.8,60,99.5,59.2,102.2,59.5z M104.4,77.9c-0.4,1.6-1.101,2.899-2.5,3.399
			c-1.9,0.2-2.601-0.7-3.7-1.2C97.5,78.4,98,75.9,98.8,74.8c1.2-0.399,2-1.2,3.7-0.899C103.7,74.6,104.7,75.7,104.4,77.9z
			 M61.7,102.5c0.8-0.1,0.7,0.6,1.6,0.3C63.7,101.9,61.6,102,61.7,102.5z"/>
	</g>
</g>
</svg>
