<?xml version="1.0" encoding="utf-8"?>
<!-- Generator: Adobe Illustrator 16.0.0, SVG Export Plug-In . SVG Version: 6.00 Build 0)  -->
<!DOCTYPE svg PUBLIC "-//W3C//DTD SVG 1.1//EN" "http://www.w3.org/Graphics/SVG/1.1/DTD/svg11.dtd">
<svg version="1.1" id="Layer_1" xmlns="http://www.w3.org/2000/svg"  x="0px" y="0px"
	 width="120px" height="120px" viewBox="4 4 120 120" style="enable-background:new 4 4 120 120;" xml:space="preserve">
<g id="thumbs-down">
	<g>
		<path d="M114.283,25.457c-0.467-0.682-0.557-1.737-0.859-2.579c-0.646-0.597-0.82-1.665-1.434-2.292
			c-1.74-0.743-3.641-1.326-6.02-1.434c-3.281-1.783-8.718-1.406-13.753-1.432c-1.268,0.354-2.133,1.113-3.438,1.432
			c-1.84-0.216-2.07,1.175-3.147,1.719c-0.265-1.456-1.38-2.064-2.293-2.866c-0.155,0.982-1.383,0.438-2.007,0.288
			c-0.695-0.358-1.396-0.71-2.293-0.86c-1.25-0.755-3.404-0.608-4.871-1.146c-5.902-0.494-11.554-1.246-17.767-1.432
			c-0.365,0.016-0.396,0.367-0.859,0.285c-7.968-0.424-13.928,1.162-19.484,3.153c-1.364,1.214-2.733,2.425-3.726,4.012
			c-1.018,1.653-1.55,3.796-2.007,6.017v8.596c-1.511,1.449-3.378,2.542-4.868,4.012c-0.25,0.993-0.896,1.588-1.435,2.292
			c-0.813,4.44-1.473,9.032-2.005,13.754c-1.887,2.218-3.592,4.622-4.3,8.023c-0.018,3.17-0.14,6.444,0.575,8.881
			c1.171,1.886,2.946,3.165,4.298,4.871c2.266,0.604,4.15,1.58,6.589,2.006c2.631,0.332,5.528,0.394,8.023,0.861h5.154
			c-0.496,0.934-1.428,1.434-1.716,2.577c-1.022,0.506-1.026,2.031-2.007,2.578c0.173,1.222-0.204,1.896-0.284,2.867
			c-0.964,0.948-1.393,2.428-2.293,3.438c-0.563,1.443-1.997,2.013-2.293,3.727c-0.022,3.699,0.213,7.661-0.573,10.603
			c0.585,1.133,1.204,2.231,1.147,4.01c1.748,0.927,2.58,2.769,4.586,3.438h3.724c2.999-1.488,4.38-4.598,7.736-5.729
			c3.731-7.349,10.132-12.026,16.045-17.192c2.768-2.773,5.537-5.545,8.596-8.023c1.308-1.467,2.91-2.633,4.586-3.725
			c1.664-1.201,3.166-2.566,5.16-3.438c0.016,1.894,1.187,2.632,2.002,3.728c3.387,0.911,6.433,2.164,10.604,2.289
			c2.567-0.01,4.675-0.479,7.448-0.285c0.436-0.426,1.259-0.461,2.009-0.573c0.397-0.457,0.983-0.73,1.714-0.859
			c0.555-0.789,1.223-1.457,2.01-2.006c2.406-5.043,2.271-12.625,3.438-18.912C114.316,48.797,114.324,37.15,114.283,25.457z
			 M85.916,58.982c-0.68,0.659-0.918,1.756-1.436,2.579c0.258,3.599-1.139,5.546-1.43,8.596
			c-5.712,3.172-10.801,6.968-15.475,11.175c-0.285,1.15-1.191,1.674-1.434,2.865c-2.956,1.723-5.23,4.129-8.021,6.018
			c-2.364,2.316-5.101,4.262-7.164,6.877c-0.51,0.254-0.73,0.801-1.721,0.572c0.208,0.876-0.292,1.045-0.286,1.721
			c-1.999,1.534-3.053,4.012-5.155,5.443c0.124,0.984-0.114,1.607-0.286,2.291c-0.51,0.257-0.729,0.8-1.723,0.572
			c-0.33,1.361,0.667,2.346,0,3.153c-1.238-0.387-1.777-1.471-2.007-2.864c-0.561-0.97-0.694-2.358-0.855-3.727
			c-0.173-0.977-0.788-1.506-0.86-2.579c0.722-4.723,3.223-7.666,5.445-10.889c0.9-1.865,2.056-3.481,3.435-4.871
			c0.788-1.886,2.699-2.651,3.728-4.297c1.286-0.528,2.314-1.316,3.437-2.007c1.183-0.536,2.45-0.989,2.581-2.578
			c0.253-1.878-1.363-1.887-2.293-2.579c-2.207-0.203-3.674,0.338-5.159,0.86c-3.358-0.559-7.658-0.176-11.462-0.289
			c-2.691-0.746-5.572-1.303-8.021-2.291c-1.622-2.01-3.545-3.715-4.014-6.877c-0.292-1.248,0.595-1.317,0.861-2.005
			c0.282-0.673,0.502-1.408,0.572-2.292c1.05-0.669,1.24-2.197,2.294-2.866c0.368-1.252,1.629-1.612,2.002-2.865
			c0.612-0.535,1.824-0.467,2.294-1.146c0.086-1.813-1.672-2.632-3.153-2.005c0.558-3.268,2.592-5.053,4.014-7.45
			c0.439-1.779-1.043-1.63-1.146-2.867c1.058-0.279,1.635-1.041,2.293-1.719c0.132-1.015,0.636-1.655,0.569-2.865
			c0.152-1.301-0.573-1.718-0.859-2.579c0.549-3.464,0.589-7.435,2.293-9.743c0.432-0.429,1.209-0.513,1.435-1.146
			c1.776-0.611,3.812-0.96,5.731-1.433c2.394,1.121,6.929,1.038,10.026,0.573c3.823,0.571,7.929,0.86,11.178,2.006
			c2.592-0.629,4.453,0.486,6.59,0c-0.129,1.75,1.811,1.438,2.291,2.58c1.053-0.095,0.828-1.466,2.006-1.434
			c1.529,1.143,2.701,2.648,4.585,3.438c-0.075,0.935,0.893,0.828,1.146,1.432c0.865,1.714,1.814,3.347,2.01,5.731
			c0.082,0.584,0.572,0.763,0.86,1.146C85.68,45.22,86.729,52.155,85.916,58.982z M107.119,67.865
			c-0.445,3.088-0.512,6.555-1.723,8.882c-0.873-0.621,0.274-1.612,0-2.577c0.435-0.623,0.492-1.615,0.574-2.58
			c0.432-1.574,0.717-3.299,0.863-5.158C107.457,66.384,106.963,67.449,107.119,67.865z M107.404,53.824
			c0.018,1.354-1.211,1.465-1.717,2.293c0.033,3.472-0.496,6.382-0.291,10.027c-0.264,2.026-0.537,4.047-0.854,6.018
			c-1.021,1.176-0.826,3.568-2.294,4.298c-0.545,0.569-1.354,0.14-2.006,0c-0.993-0.233-1.211,0.535-1.721,0
			c-1.017-0.035-1.631-0.47-2.289-0.858c-3.09,0.127-4.523-1.397-7.453-1.432c0.248-1.094,0.775-1.898,0.572-3.439
			c0.481-0.762,0.756-1.729,1.147-2.58c0.744-1.739,0.993-3.972,1.147-6.302c0.627-0.036,0.119-1.215,0.285-1.72
			c0.631-0.035,0.118-1.214,0.285-1.717c0.729-0.51-0.189-2.674,0.572-3.153c-0.047-2.881,0.203-4.316,0-6.877
			c0.75-3.987-0.339-8.124-0.284-12.321c-0.644-1.456-1.065-3.142-2.007-4.298c-0.239-2.339-0.831-4.325-1.146-6.589
			c1.826,0.104,2.931-0.51,4.873-0.288h2.576c0.688,0.175,2.08-0.361,2.293,0.288c1.354,0.049-0.104,1.133,0.289,2.005
			c1.215-0.433,3.654-0.433,4.873,0c0.002,0.279,0.346,0.223,0.568,0.286c2.201,3.34,3.273,7.809,3.152,13.469
			c-0.019,1.034-0.713,1.387-0.859,2.292C106.907,47.064,107.449,50.149,107.404,53.824z M101.68,61.273
			c-3.188-0.815-5.926,0.833-7.17,2.868c-0.621,1.604-0.523,4.701,0,6.017c0.655,1.632,1.483,2.912,2.582,3.724
			c2.475,0.427,4.619,0.187,6.303-0.858C105.54,69.141,105.152,62.922,101.68,61.273z M99.669,69.297
			c-0.784-0.318-0.862-2.365-0.573-2.865C99.895,66.781,99.628,68.193,99.669,69.297z"/>
	</g>
</g>
</svg>
