<?xml version="1.0" encoding="utf-8"?>
<!-- Generator: Adobe Illustrator 16.0.0, SVG Export Plug-In . SVG Version: 6.00 Build 0)  -->
<!DOCTYPE svg PUBLIC "-//W3C//DTD SVG 1.1//EN" "http://www.w3.org/Graphics/SVG/1.1/DTD/svg11.dtd">
<svg version="1.1" id="Layer_1" xmlns="http://www.w3.org/2000/svg"  x="0px" y="0px"
	 width="120px" height="120px" viewBox="4 4 120 120" style="enable-background:new 4 4 120 120;" xml:space="preserve">
<g id="lock-open">
	<g>
		<path d="M101.479,55.336c-0.928-1.319-2.154-2.344-3.815-2.934c-0.427-0.746-1.774-0.568-2.05-1.467
			c-0.668-0.507-2.461,0.113-2.641-0.879c0.278-7.807-0.252-14.805-1.467-21.121c-1.01-1.532-1.518-3.57-2.643-4.986
			c-0.824-1.813-2.372-2.908-3.521-4.399c-1.641-0.962-3.061-2.113-4.986-2.933c-1.814-0.775-3.945-1.236-6.158-1.76h-8.801
			c-1.681,0.371-3.377,0.73-5.278,0.879c-0.571,0.798-2.12,0.618-2.641,1.469c-1.454-0.085-1.751,0.986-2.934,1.172
			c-1.456,1.379-3.59,2.083-5.573,2.935c-0.119,0.368-0.378,0.6-0.881,0.586c-2.174,2.52-4.358,5.025-5.573,8.506
			c-0.921,1.424-1.109,3.583-1.76,5.28c-0.898,1.544-1.386,3.503-1.172,6.16c1.167,1.178,2.639,2.054,5.278,1.76
			c1.03,0.144,1.911,0.438,3.227,0.293c0.883,0.387,2.514,0.029,3.229,0.585c1.448-0.506,3.203-0.705,5.277-0.585
			c1.555-7.055,4.838-12.373,11.736-14.08c1.767-0.009,3.61-0.092,4.985,0.292c2.697,2.879,2.276,8.871,3.52,13.201v3.814
			c-0.186,1.084,0.382,2.921-0.292,3.519C69.695,50.935,61.628,50,55.72,51.23c-4.711-0.864-10.693-0.457-15.551-1.173
			c-0.524-0.038-0.687,0.291-0.585,0.879c-0.046,0.543-0.993,0.181-1.173,0.586c-2.351-0.101-3.979,0.52-6.453,0.295
			c0.594,2.255-1.465,1.861-1.468,3.52c-0.019,0.178-0.044,0.346-0.294,0.292c-0.123,7.555,0.521,14.344,0.294,22.001
			c0.255,1.312,0.727,2.402,0.88,3.812c-0.02,4.908,0.468,9.312,1.172,13.494c1.021,2.797,2.676,4.95,3.521,7.92
			c1.268,0.789,1.965,2.142,2.936,3.229c1.086,1.062,2.407,1.895,3.517,2.934c1.009,0.26,1.829,0.713,2.644,1.174
			c1.137,0.226,2.504,0.233,2.93,1.174c1.088,0.182,1.719,0.824,2.641,1.172c0.85,0.521,2.212,0.527,2.935,1.174
			c4.336,0.992,9.548,1.49,14.667,0.879c1.438-0.613,3.328-0.779,4.985-1.172h4.984c7.16-3.791,13.235-8.668,18.482-14.374
			c0.964-3.242,2.579-5.829,3.225-9.387c0.783-3.423,1.127-7.284,1.762-10.854C101.58,71.07,102.152,62.581,101.479,55.336z
			 M72.439,23.948c-2.576,0.227-4.266-0.431-6.748-0.293c-0.832,0.049-1.224,0.537-2.054,0.587
			c-2.409,1.106-4.327,2.711-6.453,4.106c-0.507,1.057-1.414,1.715-2.054,2.64c-0.775,0.788-1.153,1.975-2.053,2.64
			c-0.237,1.327-1.169,1.96-1.174,3.519c-0.68,0.785-0.609,2.325-2.641,1.761c-0.539-0.985,1.083-1.94,1.174-3.227
			c-0.264-0.617-0.456-1.303-0.88-1.76c-0.513-0.271-1.573,0.01-1.468-0.88c1.126-1.612,2.195-3.28,3.814-4.4
			c-0.065-1.143,0.629-1.519,0.88-2.347c1.231-1.407,3.34-1.942,4.693-3.226c1.825-0.718,3.263-1.822,5.279-2.346h3.521
			c2.631-0.988,6.287-0.948,9.976-0.881c0.046,0.343,0.533,0.248,0.876,0.294c1.82,1.116,3.27,2.599,4.99,3.812
			c1.18,1.558,2.303,3.171,3.224,4.986c0.19,2.06,0.537,3.963,1.175,5.574c0.184,3.534,0.418,7.016,0.295,10.854
			c-0.004,1.071-0.834,1.316-1.177,2.054v1.758c-0.161,0.428,0.345,1.516-0.293,1.467c-1.414,0.438-1.222-0.732-1.172-1.759
			c-1.085-0.133-2.019-0.025-2.64-1.175c0.453-1.753,1.037-3.656,0.881-6.452c-0.182-3.213-1.002-6.686-1.471-9.388
			c-0.305-0.963-1.321-1.216-1.756-2.052c-0.416-0.76-0.994-1.354-1.469-2.055C75.844,26.604,74.355,25.063,72.439,23.948z
			 M92.973,80.855c0.416,1.148,0.199,2.926,0.877,3.812c-0.363,1.593-0.42,3.487-0.584,5.28c-1.801,2.893-3.881,5.508-5.867,8.213
			c-1.803,1.426-3.653,2.801-5.573,4.104c-2.328,0.805-4.197,2.062-6.161,3.229c-2.943,0.258-7.102,0.621-9.973,0
			c-1.004-0.728,0.111-2.002-1.174-2.642c-1.5-1.082-2.287,1.781-3.52,0.881c-1.438-0.135,0.361-1.143,0.291-1.76
			c0.492-0.486,0.236-1.724,0.294-2.643c-0.422-1.238-1.338-1.984-3.224-1.758c-1.839,0.02-2.049,1.668-3.815,1.758
			c-1.568,0.682-1.542,2.959-3.226,3.521c-0.486-1.187,1.34-2.293,0.879-4.398c-0.094-0.688-0.908-0.657-1.172-1.174
			c-2.003,0.345-3.062,1.63-3.815,3.226c-1.009-0.213-0.194-0.881,0-1.466c0.407-0.473,0.25-1.514,0.88-1.76
			c0.318-1.445,1.267-2.256,1.468-3.813c0.926-1.067,1.048-2.473,1.468-3.813c0.057-0.189,0.532-0.726,0.584-0.879
			c0.062-0.174-0.044-0.406,0-0.586c0.087-0.353,0.517-1.609,0.295-2.935c-0.265-0.519-0.654-0.907-1.174-1.174
			c-3.324-0.295-3.607,2.454-5.279,3.812c-1.115,1.818-2.332,3.537-3.228,5.574c-0.692-0.248,0.244-1.287,0.293-1.76
			c-0.028-0.909,0.358-1.4,0.588-2.055c0.291-1.369,0.882-2.441,1.174-3.812c0.835-2.487,2.445-4.205,2.347-7.627
			c-0.293-0.881-0.882-1.468-1.762-1.761c-1.67,0.088-2.771,0.746-3.521,1.761c-0.742-0.391,0.432-1.302,0.298-2.054
			c0.226-0.652,0.614-1.145,0.584-2.053c0.614-1.146,1.078-2.441,1.467-3.814c-0.033-1.533-0.796-2.334-1.759-2.932
			c0.555-1.308,2.266-1.451,2.347-3.229c-0.167-1.203-1.108-1.631-2.055-2.054c-1.996-0.336-2.108,1.216-3.521,1.466
			c0.451-1.503,0.363-3.547,0.59-5.28c1.34-0.516,2.248-1.466,3.519-2.054c16.15,1.353,33.955,1.051,51.333,1.174
			C93.354,64.812,94.512,74.182,92.973,80.855z M70.384,68.828c-2.099-0.411-3.637-0.605-5.866-0.293
			c-1.668,0.971-3.624,1.656-4.984,2.934c-1.366,1.93-2.387,5.538-1.468,8.799c0.92,1.526,3.084,1.809,4.106,3.229
			c-0.643,3.083-0.878,7.777-0.292,11.148c0.637,0.631,1.531,1.006,2.344,1.465c1.089,0.183,1.343,1.199,2.934,0.88
			c4.138-1.339,2.68-8.271,2.937-13.493c1.639-1.393,2.85-3.211,3.52-5.573c0.221-2.081-0.363-3.353-0.293-5.278
			C72.41,71.301,71.559,69.902,70.384,68.828z"/>
	</g>
</g>
</svg>
