<?xml version="1.0" encoding="utf-8"?>
<!-- Generator: Adobe Illustrator 16.0.0, SVG Export Plug-In . SVG Version: 6.00 Build 0)  -->
<!DOCTYPE svg PUBLIC "-//W3C//DTD SVG 1.1//EN" "http://www.w3.org/Graphics/SVG/1.1/DTD/svg11.dtd">
<svg version="1.1" id="Layer_1" xmlns="http://www.w3.org/2000/svg"  x="0px" y="0px"
	 width="120px" height="120px" viewBox="4 4 120 120" style="enable-background:new 4 4 120 120;" xml:space="preserve">
<g id="upload">
	<g>
		<path d="M113.7,29.4c-0.3-1-1.2-1.5-2.3-1.7c-0.601-0.1-0.101-1.2-0.801-1.1c-0.1-0.7-0.899-0.6-1.1-1.1
			c-22.9-0.8-46.8-0.6-70.3-0.8c-3.8,0.9-8.9,1-13.3,0.6c-1.8,0.1-3.3,0.5-5.4,0.3c-0.2,0.6-2,0.3-2.3,0C17.1,25.2,16.9,26,16,26
			c-2,3.2-2.1,8.2-2,13.5c1.2,0.6,2.3,1.2,4,1.4c2-0.1,3.7,0.1,5.4,0.3c3.7,0,7.4-0.1,10.7,0.3c1.4,0.3,1.5-0.8,2.5-0.8
			c0,0.6,1.2,0.1,1.7,0.3c0.5-0.2,1.7,0.3,1.7-0.3h4c2.4-0.3,5-0.3,7.3-0.6c1.5-0.2,2.4,0.2,3.7,0.3c1.1-0.3,1.9-0.9,3.4-0.8
			c1.5-0.1,2.3,0.5,4,0.3h2.3c0.6,0.2,1.899-0.3,2,0.3c-2.4,0.3-3.6,1.7-5.6,2.3c-0.5,0.8-1.5,1.1-2.3,1.7c-0.9,0.5-1.4,1.4-2.5,1.7
			c-1.4,1.5-3.1,2.6-4.5,4C49,52.6,46,55.2,43,57.8c-3.1,2.5-5.8,5.2-8.7,7.9c-1.5,1.3-3,2.7-4.5,4c-1.6,1.3-3.3,2.3-3.9,4.5
			c-0.4,1.8,0.8,2,0.8,3.399c-0.3,1.7,0.5,2.301,1.1,3.101c2.8,1.3,7.3,0.2,10.4,0c5.1,0.2,9.2-0.601,14.1-0.601
			c0,7.4-0.1,15,0.6,21.7c1.9,2.2,5.4,1.3,8.8,1.101c4.6-0.2,9.7,0.199,13.5,0.3c1.2-0.9,2.899-1.4,3.399-3.101
			C79.3,94.9,79.2,88.8,79.2,82.9c0.3-2.101-0.601-4.2-0.3-5.4H91.6c2.7,0.3,6.801,1.7,9,0c0.801-2.1,0-4.6-1.1-5.6
			c-1.1-1.5-2.2-2.9-3.4-4.2C91.5,61.8,86,57.3,81.2,52c-2.601-2.5-4.7-5.5-7.101-8.2c-1.3-0.5-2.5-1-3.399-2
			c-0.601-0.3-1.2-0.6-1.7-1.1c-0.8-0.2-1.4-0.4-2-0.8c10.7,0.4,22.5-0.1,34.2-0.3c0.899-0.2,0.899,0.4,1.1,0.8
			c0.7,0,0.8,0.5,1.7,0.3c1-0.1,1.6-0.6,2.8-0.6c0-0.5,1-0.2,1.101-0.6c0.5-0.1,0.5-0.8,1.399-0.6h4.5
			C113.8,35.9,114.3,32.1,113.7,29.4z M20,32.8c-0.7-0.2-0.2-1.4,0.6-1.1C20.7,32.4,20,32.2,20,32.8z M30.1,31.1
			C29,32,27.9,33,27,34.2c-1,1.1-2.5,1.6-3.1,3.1h-3.7c1.3-1.7,3.1-2.9,4.2-4.8c1-0.4,1.8-1,2.5-1.7c0.9-0.2,2.4,0.4,2.8-0.3
			C30.6,30.5,30.2,30.7,30.1,31.1z M68.5,46.3c0.3,1,1.5,1.6,0.8,2.8c1,0.4,1.7,1.1,2.8,1.4c0.7,1.6,2.2,2.3,3.7,3.1
			c1.4,1.8,2.8,3.5,4.5,5.1c0.9,1.5,2.2,2.5,3.4,3.9c0.399,0.4,0.8,0.8,0.8,1.4c0.4,0.4,1.1,0.6,1.7,0.8c0.7,1.7,2.399,2.5,3.399,4
			c0.4,0.8,1.301,1.101,1.7,2c0.7-0.1,0.3,0.8,0.8,0.8C91.9,72,93.2,72.3,92.4,72.4H78.1C76.1,73,74.9,74.3,72.7,74.7
			c-0.3,0.399-0.3,1-0.8,1.1c0,0.4,0.1,1.101-0.301,1.101C72.6,82.8,71.9,90.3,72.7,96.4h-5.9c0.101-1.7,2.4-2.4,1.7-4
			c-1.1-1.301-2.9,0.1-3.4,1.1c-1.3,0.6-1,2.8-2.8,2.8c-1,0.2-0.3-0.7,0-0.8c0-0.6,0.8-0.4,0.6-1.1c0.6-0.5,1.2-1.101,1.4-2
			c1.101-1.2,2.4-2.301,2.8-4.2c-1.1-0.8-2.7,0.3-3.1,1.1c-0.9,0.601-1.6,1.4-2.3,2.3c-1.6,1.4-3,3-3.9,5.101
			c-0.6-0.5-0.1-2.2-0.3-3.101c-0.3-0.899,0.9-0.399,1.1-0.8c0.2-0.399,0.4-0.7,0.8-0.8c1-1.9,2.4-3.4,3.7-5.1
			c0.8-1.7,3-3.2,2.3-5.601C63.3,80.6,62.3,83,60.9,83.8c-0.9,1.601-2.3,2.8-3.1,4.5c-0.8-0.899-0.1-2.7,0.8-2.8
			c0.3-1.1,0.9-1.9,2-2.3c-0.1-2,1.8-2.101,2-4c-0.1-1-0.7-1.4-1.4-1.7c-2-0.1-2.7,1-3.4,2.3C57,79.4,57.3,78,57,77.3
			c-1.5-1.399-3.9-1.899-6.2-2.5c-5.8-0.1-11.8-0.6-17.5,0c-0.5,0.101-0.6-0.3-0.3-0.3c0.1-0.3,0.2-0.5,0.6-0.6
			c0.1-0.601,0.8-0.601,1.1-0.801c0.5-0.899,1.4-1.399,2.3-2c1.1-1.699,3.1-2.5,4.2-4.199c2.9-2.8,6.2-5.101,9-7.9
			c1.1-0.4,2.3-0.7,3.1-1.4c1.2-0.3,2.1-0.9,3.1-1.4c1.2-0.3,2-1,3.1-1.4c0.9-0.6,2.2-0.8,2.8-1.7c0.2-1.9-2.3-1.9-3.7-1.4
			c2.2-2.2,5-3.9,7.3-5.9C67.4,45.8,67.7,46.3,68.5,46.3z M108.3,34.2c-0.5,0-0.899,0.2-1.1,0.6c-1.3,0.2-1.9-0.4-2.5-0.8
			c-3.8-0.6-7.2,0.1-11.3,0c-0.601,0.3-1.7,0.2-2.301,0.6c-4.1,0.1-8.3,0.7-11.899-0.3c-2.601-0.1-5.8,0.3-7.9-0.3
			c-0.8,0.2-1.5,0.4-2.3,0.6c-0.4,0-1-0.1-1.1,0.3c-1,0.4-0.2-1-0.801-0.8c-1.3,0,0.301-0.6,0.301-1.1c0.6-0.2,0.8-0.8,1.1-1.4
			c-1.3-2.1-3.7,0.3-4.8,1.1c0,0.2,0,0.3-0.3,0.3c0,0.2,0,0.3-0.3,0.3c0,0.2,0,0.3-0.3,0.3c0,0.2,0,0.3-0.3,0.3
			c0,0.7-0.4,1.1-1.1,1.1c0.3-0.5,0.6-0.9,1.1-1.1c0-0.2,0-0.3,0.3-0.3c0-0.2,0-0.3,0.3-0.3c0-0.2,0-0.3,0.3-0.3
			c0-0.2,0-0.3,0.3-0.3c0.1-0.7,0.4-1.1,0.3-2c-3.1,0.1-4,2.4-5.9,3.7h-3.4c-1.1,0.1,0.2-1.2,0.6-1.4c0.2-0.8,1.3-0.7,1.1-2
			c-0.9-1.5-2.5,0.4-3.4,0.8c-1.1,0.7-1.7,1.9-2.8,2.5h-2.8c-1.2,0.1,0-0.8,0.3-0.8c0.1-0.7,1-0.5,0.8-1.4c-0.7-0.9-2.3-0.3-2.8,0.6
			c-1.1,0.4-1.7,1.3-2.5,2h-3.7c-1.2,0.1,0-0.8,0.3-0.8c0.3-0.5,1.1-0.4,0.8-1.4c-1.9-1.5-3.7,1.4-5.1,2.3h-3.9
			c-1.3,0,0.3-0.6,0.3-1.1c0.4-0.4,0.8-0.8,1.4-1.1c0-0.4,0.1-0.6,0.3-0.8c0.1-0.5-0.4-0.7,0-0.8c4.2,0.3,8.3-0.8,12.1,0
			c2-0.4,4.6-0.3,7.1-0.3c0.8,0.2,0.7-0.4,1.4-0.3h10.7c0.8,0.2,0.699-0.4,1.399-0.3h13.3c6.101-0.5,12.7-1.9,19.2-1.1h5.4
			c2,1.1,4.5,1.7,4.5,4.8C108.3,33.4,108.3,33.8,108.3,34.2z"/>
	</g>
</g>
</svg>
