<?xml version="1.0" encoding="utf-8"?>
<!-- Generator: Adobe Illustrator 16.0.0, SVG Export Plug-In . SVG Version: 6.00 Build 0)  -->
<!DOCTYPE svg PUBLIC "-//W3C//DTD SVG 1.1//EN" "http://www.w3.org/Graphics/SVG/1.1/DTD/svg11.dtd">
<svg version="1.1" id="Layer_1" xmlns="http://www.w3.org/2000/svg"  x="0px" y="0px"
	 width="120px" height="120px" viewBox="0 0 120 120" enable-background="new 0 0 120 120" xml:space="preserve">
<g id="file8">
	<g>
		<path d="M98.427,43.621c-0.026-1.449,0.597-2.253,0.57-3.707V29.356c-0.117-0.687,0.521-0.619,0.282-1.426
			c-0.801,0.125,0.716-1.062-0.282-1.141c-0.097-1.049,0.244-2.526-0.285-3.139c0.017-1.254-0.116-2.357-0.571-3.138
			c0.305-2.776-0.527-4.418-1.427-5.992c-1.172-0.028-2.336-0.053-3.139,0.288c-0.783-0.454-1.492-0.983-2.854-0.857
			c-15.686-0.006-30.898-0.481-46.789-0.283c-0.41,0.157-0.695,0.441-0.854,0.853c-0.463,0.681-1.025,1.259-1.43,1.999
			c-0.934,0.624-0.467,1.169-0.852,1.996c-1.926,1.592-3.496,3.541-4.85,5.707c-1.508,2.108-3.34,3.889-3.996,6.847
			c-0.877,0.551-1.291,1.561-1.998,2.281c-0.451,0.976-1.732,1.12-1.711,2.569v6.847c0.299,1.411,0.645,2.776,0.855,4.278
			c-0.488,8.872-0.57,18.25-0.57,27.673c0,9.529-0.389,19.011,0,27.959c0.799,1.418-1.4,2.58,0,3.996
			c1.365,1.169,3.734,0.197,5.705,0.284c0.453-0.596,1.994-0.096,2.566-0.57c1.352,0.211,1.963-0.32,3.141-0.287
			c2.307-0.164,5.293,0.353,7.133-0.283c-0.154-1.482,0.547-2.113,0.57-3.424c-2.721-0.134-4.658-1.049-7.133-1.426
			c-1.746,0.258-3.387,1.137-5.135,0.571c-0.568-0.576-1.352-0.933-1.711-1.714c-0.711-1.822-0.172-4.682,0.283-6.275
			c-0.09-1.417,0.047-2.619,0.285-3.71c-0.121-1.304-0.436-2.417-0.285-3.993c0.439-4.316,1.324-8.186,1.139-13.123
			c0.018-0.535-0.217-0.604-0.566-0.287c-0.092,0.461-0.406-0.02-0.287-0.566c-0.152-10.52,0.502-20.229,0.287-30.813v-2.284
			c-0.27-0.239-0.959-1.47-0.287-1.709h4.564c1.65-0.633,3.961-0.605,6.277-0.57c0.615-0.528,1.975-0.31,2.568-0.857
			c1.223,0.085,1.885-0.398,2.566-0.854c1.102-2.544-0.322-5.427-0.285-8.56c-0.809,0.046,0.236-1.76-0.57-1.712
			c0.221-1.074-0.35-1.364-0.285-2.283c-0.762-0.951-0.451-2.973-0.855-4.278c1.953,0.052,3.242-0.564,5.135-0.57
			c6.154,0.216,12.152,0.589,18.542,0.57c3.396,0.604,7.438,0.549,11.129,0.854h2.851c0.868,0.178,2.457-0.367,2.854,0.287
			c0.894,0.057,2.096-0.192,2.565,0.282h1.426c0.533,0.274,0.955-0.854,1.142,0c0.172,1.504-0.207,2.452-0.283,3.71
			c0.646,0.211,0.111,1.6,0.283,2.283c-0.06,0.918,0.508,1.207,0.289,2.283c0.474,22.441,0.149,45.682,0.854,67.9
			c-0.822,1.937-0.403,5.111-2.285,5.991c-1.717,0.007-1.851-1.572-3.991-1.141c-1.421-0.375-1.214,0.875-2.283,0.854
			c-0.463,0.584-2.104-0.014-2.567,0.571c-1.021,0.021-1.647,0.442-2.567,0.569c-1.234-0.189-0.767,1.322-0.854,2.28
			c-0.297,0.961,0.887,0.443,1.426,0.571c0.369,0.396,1.24,0.283,1.996,0.287h4.562c2.733,0.285,6.303,1.018,8.846,0.566
			c0.742-0.59,1.396-1.269,1.431-2.565c0.33-0.999,1.021-1.642,1.14-2.853C100.341,80.727,98.884,61.408,98.427,43.621z
			 M34.804,33.352c0.404-1.022,1.236-1.619,1.711-2.567c0.688,0.549,0.947,1.524,1.711,1.996
			C37.466,33.35,35.714,32.93,34.804,33.352z M43.933,23.081c-0.609,0.133-0.539-0.408-0.568-0.856
			C43.714,22.351,43.95,22.592,43.933,23.081z M41.366,31.354c-0.42-0.249-0.904-0.427-0.855-1.141
			c-0.77-0.562-1.365-1.297-1.713-2.283c1.105,0.227,1.086,1.577,2,1.999c0.35,0.882,0.939,1.529,1.709,1.995
			C42.247,32.699,41.456,31.688,41.366,31.354z M45.075,29.93c-1.336-0.09-1.154-1.7-2.283-1.999
			c-0.41-1.014-1.154-1.695-1.994-2.282c0.166-0.595,0.598-0.922,0.852-1.425h0.857c0.377,1.428,1.375,2.24,2.281,3.138
			C44.565,28.535,45.228,28.824,45.075,29.93z M69.607,74.719c-1.278-0.335-1.772-1.453-3.709-1.142
			c-0.067,0.405-0.469,0.481-0.567,0.858c-0.856,0.947-1.444,2.168-1.998,3.422c-2.347,2.028-4.082,4.666-6.562,6.562
			c-1.186,1.001-2.002,2.369-3.139,3.424c-0.385,1.572-2.061,2.855-1.422,4.563c0.568,1.428,2.639,1.353,3.992,1.994
			c1.176,0.037,1.785-0.492,3.139-0.282c-0.135,6.746-0.049,12.7-0.287,18.829c1.369,1.924,4.322,0.52,6.846,1.142
			c1.846-0.438,4.326-0.239,5.709-1.142c0.363-0.385,0.307-1.328,0.283-1.711c-0.01-0.155-0.279-0.635-0.283-0.57
			c0.072-0.925,0.725-1.486,0.566-2.564c-0.215-3.834,0.447-6.785,0.287-10.559c0.184-1.148-0.371-3.033,0.285-3.709
			c2.488,0.02,4.961,0.02,6.562-0.855v-3.427c-1.582-2.505-3.039-5.136-5.138-7.13C72.585,79.925,70.768,77.652,69.607,74.719z
			 M67.042,85.562c0.64,0.123,0.117,1.402,0.285,1.996c-1.269,2.062-2.589,4.068-3.42,6.562c-0.634-0.037-0.123-1.209-0.287-1.712
			c0.205-0.872-0.295-1.039-0.287-1.713c0.979-0.543,1.451-1.592,1.998-2.567C66.093,87.468,66.667,86.614,67.042,85.562z
			 M65.898,79.284c1.062,0.237,0.065,1-0.282,1.427c-0.07,1.93-0.736,3.259-1.144,4.852c-0.812-0.426-0.508-1.967-2.281-1.429
			C63.311,82.4,64.904,81.143,65.898,79.284z M58.771,90.98h-1.428c-0.613-0.891,0.957-1.57,0.854-2.854
			c0.664-0.192,0.766-0.946,1.43-1.142c0-0.762,0.902-0.618,0.854-1.426c1.169-0.134-0.006,0.719,0,1.14
			c-0.291,0.379-0.279,1.053-0.568,1.428C59.478,89.027,58.96,89.84,58.771,90.98z M60.479,91.268
			c0.861-0.852,1.221-2.203,2.281-2.854c-0.271-1.186,0.859-0.057,0,0c-0.068,0.975-0.719,1.371-0.568,2.566
			C61.32,90.773,61.152,91.275,60.479,91.268z M67.327,110.098c-0.988,0.438-2.601,0.25-3.994,0.283
			c1.449-1.214,2.828-2.497,3.994-3.992C68.184,107.354,66.948,108.656,67.327,110.098z M67.898,96.688
			c-0.785,2.449-2.594,3.877-3.14,6.563c1.439-0.465,2.054-1.752,2.854-2.853c0.783,0.709-0.206,2.057-0.856,2.277
			c-0.354,0.885-0.7,1.771-1.426,2.282c-0.849,1.626-1.728,3.218-2.854,4.563c-0.131,0.547,0.881,1.229-0.285,1.145
			c0.308-3.498,1.375-6.23,1.142-10.271c0.776-0.024,0.574,0.477,1.142,0C65.973,99.516,66.652,97.816,67.898,96.688
			C67.87,96.343,68.312,96.512,67.898,96.688z M70.753,90.98c-1.137-0.09-2.106-0.016-2.569,0.569
			c-1.086,1.103-1.529,2.847-2.565,3.996c-0.42,1.67-1.438,2.745-1.996,4.277c-0.654-0.487-0.104-2.177-0.287-3.14
			c0.556-1.44,1.824-2.168,2.854-3.138c1.123-2.204,3.125-3.53,3.992-5.991c0.229-0.244,0.78-0.168,0.854-0.57
			c0.463-0.08,0.491,0.271,0.854,0.287C72.585,88.559,71.307,90.021,70.753,90.98z M73.893,90.98
			c0.147-0.229,0.297-0.461,0.282-0.855c0.377,0.104,0.449,0.503,0.854,0.57C74.941,91.085,74.316,90.934,73.893,90.98z"/>
	</g>
</g>
</svg>
