<?xml version="1.0" encoding="utf-8"?>
<!-- Generator: Adobe Illustrator 16.0.0, SVG Export Plug-In . SVG Version: 6.00 Build 0)  -->
<!DOCTYPE svg PUBLIC "-//W3C//DTD SVG 1.1//EN" "http://www.w3.org/Graphics/SVG/1.1/DTD/svg11.dtd">
<svg version="1.1" id="Layer_1" xmlns="http://www.w3.org/2000/svg"  x="0px" y="0px"
	 width="120px" height="120px" viewBox="4 4 120 120" style="enable-background:new 4 4 120 120;" xml:space="preserve">
<g id="warning2">
	<g>
		<path d="M112.111,77.557c-0.977-1.303-2.076-2.476-3.135-3.701c-1.061-1.215-2.037-2.515-3.131-3.7
			c-0.828-1.443-2.531-2.02-3.129-3.7c0.773-0.836,1.312-1.913,1.995-2.845c0.763-0.848,1.078-2.146,1.988-2.847
			c0.95-2.278,2.396-4.058,3.416-6.263c1.122-1.246,3.012-1.73,3.416-3.699c0.089-1.036-0.044-1.853-0.283-2.562
			c-1.931-1.487-5.174-1.661-7.972-2.278c-2.926-0.491-5.844-0.986-8.823-1.423c1.269-2.812,1.315-6.845,1.709-10.53
			c0.522-3.558,1.081-7.081,1.138-11.104c-0.439-0.604-1.025-1.058-1.423-1.707c-0.333-0.045-0.812,0.048-0.854-0.285
			c-7.996,0.354-12.364,4.332-18.502,6.545c-2.949-2.65-5.351-5.844-7.688-9.106c0.055-1.101,0.012-2.099-0.281-2.847
			c-1.654-1.269-2.734-0.228-4.842-0.571c-2.657,3.414-4.877,7.269-7.685,10.532c-0.973-0.452-2.257-0.586-3.414-0.854
			c-2.19,0.197-3.504-0.481-5.694-0.285c-1.36-0.726-3.301-0.874-4.552-1.706c-1.927-0.162-2.617-1.561-4.842-1.424
			c-0.935-0.487-1.198-1.645-2.843-1.422c-2.033,0.437-2.181,2.755-1.996,5.407c-0.181,1.237-1.282,1.564-1.422,2.845
			c-0.248,4.55-0.657,10.121,0.287,14.234c-3.387,3.16-8.954,4.14-13.379,6.262c-0.384,0.859-0.384,2.272,0,3.129
			c-1.397-0.162-2.097,0.371-2.28,1.425c-0.006,3.806,2.681,4.912,4.27,7.116c1.561,0.53,2.451,1.726,3.989,2.276
			c1.159,1.021,2.956,1.409,3.983,2.562c-0.85,1.237-1.896,2.278-2.561,3.7c-0.655,0.391-0.916,1.172-1.422,1.707
			c-0.392,0.746-1.296,0.98-1.427,1.994c-1.233,0.852-2.093,2.078-2.845,3.416c-1.041,1.139-2.093,2.271-1.992,4.553
			c0.495,1.498,1.882,2.104,3.131,2.849c0.075,0.875,0.618,1.276,0.854,1.991c2.602,0.906,4.681,2.342,7.684,2.845
			c1.041,0.668,2.362,1.06,3.703,1.427c0.239,0.611,1.469,0.239,1.707,0.854c0.76,0.188,1.781,0.117,2.278,0.568
			c-1.941,3.754-3.607,7.781-4.838,12.239c-0.127,0.978,0.113,1.595,0.282,2.276c-0.77,1.062-0.547,2.566,0.285,3.416
			c0.966,0.688,2.675,0.15,3.416-0.284c-0.156,1.293,0.148,2.129,0.855,2.562c4.125,0.658,7.044-2.218,9.963-3.703
			c1.703-0.664,3.324-1.418,5.121-1.99c1.834-0.538,3.991-0.756,5.694-1.424c1.955,3.17,4.328,5.916,7.116,8.256
			c0.301,1.312,0.739,2.488,2.276,2.561c2.175,0.186,2.267-1.719,3.418-2.561c0.983-1.104,1.592-2.582,2.843-3.416
			c0.605-1.485,1.534-2.643,2.564-3.7c0.666-1.421,1.423-2.752,2.561-3.701c1.682,1.164,3.896,1.796,6.262,2.278
			c3.043,1.529,5.494,3.636,9.681,3.697c0.757-0.567,1.419-1.232,1.989-1.99c-0.141-5.456-0.742-10.451-0.853-15.938
			c2.425-2.7,6.476-3.774,9.96-5.409c2.854,0.098,5.245-0.262,6.266-1.994C114.184,79.848,113.084,78.768,112.111,77.557z
			 M99.873,81.825c-1.243,0.278-2.053,0.987-3.132,1.425c-0.847,0.576-1.484,1.361-2.564,1.709c-0.265,1.25-1.565,1.465-1.706,2.843
			c-0.014,1.251,0.94,1.525,1.139,2.563c-0.332,3.611-0.393,7.502-0.285,10.816c-3.252-1.304-5.956-3.148-9.963-3.701
			c-0.463-1.058-1.008-2.027-1.989-2.562c-3.522-0.297-4.365,2.089-6.265,3.416c-0.535,1.361-1.498,2.297-1.709,3.983
			c-1.614,1.516-2.666,3.594-3.983,5.408c-0.687-0.451-1.259-1.02-1.705-1.707c0.149-1.196-0.499-1.59-0.571-2.562
			c-1.445-2.444-2.498-5.283-5.123-6.548c-2.637-0.073-4.375,0.753-6.547,1.138c-2.06,0.503-4.106,1.019-5.694,1.994
			c-3.983,1.042-6.704,3.354-10.248,4.838c0.721-3.358,1.908-6.253,1.709-10.53c0.119-1.054,1.05-2.371,0.571-3.134
			c0.384-1.319,2.011-1.403,2.276-2.844c0.199-1.242-0.822-1.269-0.857-2.276c1.05-0.187,1.497-0.975,1.711-1.992
			c-0.795-2.904-3.52-3.886-5.977-5.125c-2.564-1.138-5.458-1.943-8.254-2.847c0.717-1.653,1.97-2.771,2.847-4.271
			c0.98-1.295,1.896-2.656,2.559-4.27c0.095-1.043-0.314-1.58-0.567-2.275c0.057-1.083,1.196-1.082,1.14-2.277
			c-1.134-2.95-4.417-3.744-6.834-5.41c-2.862-1.118-4.994-2.972-7.401-4.554c0.318-0.725,2.202,0.115,2.562-0.569
			c1.019-0.023,1.646-0.442,2.562-0.569c1.434-0.657,2.942-1.233,4.554-1.707c2.518-1.562,5.41-2.751,6.832-5.409
			c0.329-1.188-0.023-1.403-0.287-2.562c0.041-1.004,0.815-1.271,0.854-2.277c-0.126-3.383,0.294-7.315-0.282-10.248
			c5.218-0.746,11.132,0.244,15.371,1.425c0.803-0.045,0.711,0.805,1.136,1.138c1.559-0.041,2.173,0.863,3.414,1.138
			c2.759-0.47,3.23-3.225,4.558-5.123c1.385-1.746,2.192-4.069,3.7-5.692c-0.081-0.46,0.268-0.491,0.287-0.855
			c3.021,3.617,5.501,7.782,9.393,10.532h2.844c4.462-1.798,9.197-3.33,13.379-5.409c0.77,0.337,0,1.486,0,1.993
			c0.229,0.986-0.424,1.093-0.282,1.992c-0.176,1.44-0.528,2.703-0.571,4.271c-0.271,2.95-0.927,5.522-1.138,8.537
			c0.192,0.947,0.54,1.74,1.423,1.996c-0.328,1.185,0.023,1.403,0.286,2.562c1.474,1.183,3.998,1.312,6.261,1.707
			c2.235,0.421,4.297,1.015,6.832,1.14c0.487,1.08-1.199,2.13-1.709,3.129c-0.33,1.378-1.441,1.976-1.707,3.416
			c-0.957,0.846-1.425,2.182-2.277,3.132c-0.685,1.022-1.269,2.146-1.993,3.131c0.174,0.68-0.356,2.065,0.284,2.276
			c-0.241,0.804-0.918,1.167-0.853,2.277c0.708,2.516,2.943,3.509,4.272,5.407c0.625,0.986,1.496,1.728,1.988,2.85
			c0.84,0.77,1.909,1.314,2.275,2.561C103.896,79.777,101.835,80.754,99.873,81.825z M77.384,46.53
			c-0.251-2.539-1.13-4.416-2.561-5.69c-3.246-1.1-7.728-0.446-10.247,0.853c-0.794,1.104-1.819,1.977-2.276,3.415
			c-0.018,0.173-0.043,0.339-0.285,0.284c-0.419,3.97-0.086,9.812-0.571,12.811c0.417,2.901,0.506,6.135,1.138,8.822
			c0.322,1.295,0.668,2.558,0.855,3.984c0.863,0.844,0.816,2.6,2.562,2.561c0.981,0.873,1.89-0.754,2.843-0.854
			c0.842,0.966,2.446,0.433,3.418,0c1.893-2.09,1.346-6.623,2.848-9.105c0.609-3.471,1.625-6.536,2.275-9.961
			C77.219,51.282,77.607,48.781,77.384,46.53z M69.414,61.333c-0.674-0.561-0.578-1.888-0.571-3.131
			c0.329-2.713,0.657-5.417,1.427-7.688c0.303-1.062-0.707-0.811-0.57-1.707c0.378-1.14,0.408-2.629,1.138-3.416h0.854
			C72.846,51.493,70.314,56.339,69.414,61.333z M72.545,78.695c-1.318-0.397-3.143-1.783-4.836-0.855
			c-2.707,0.143-4.01,1.686-5.694,2.848c-0.128,0.729-0.401,1.308-0.854,1.707c-0.049,0.426,0.099,1.053-0.285,1.141
			c-0.072,4.246,1.025,7.322,4.271,8.254c3.955-0.087,6.412-1.633,8.537-3.415c0.062-0.222,0.008-0.562,0.284-0.571
			C75.141,84.795,74.445,80.34,72.545,78.695z"/>
	</g>
</g>
</svg>
