<?xml version="1.0" encoding="utf-8"?>
<!-- Generator: Adobe Illustrator 16.0.0, SVG Export Plug-In . SVG Version: 6.00 Build 0)  -->
<!DOCTYPE svg PUBLIC "-//W3C//DTD SVG 1.1//EN" "http://www.w3.org/Graphics/SVG/1.1/DTD/svg11.dtd">
<svg version="1.1" id="Layer_1" xmlns="http://www.w3.org/2000/svg"  x="0px" y="0px"
	 width="120px" height="120px" viewBox="4 4 120 120" style="enable-background:new 4 4 120 120;" xml:space="preserve">
<g id="userpic">
	<g>
		<path d="M108.363,77.275c-0.652-8.286-1.57-16.309-1.713-25.104c0.43-1.76,0.861-3.516,1.141-5.421V32.198
			c-0.578-1.892-0.139-4.803-0.854-6.561c-0.099-2.377-0.476-4.473-1.713-5.705c-1.744-1.193-6.361-0.953-7.988-0.571H85.824
			c-9.094,1.258-19.262,0.856-29.384,0.856c-10.197,0-20.398-0.128-29.958,0.283h-1.997c-0.17-0.588-0.441-1.079-1.426-0.854
			c-0.709,0.621-1.117,1.548-2.566,1.428c-0.718,0.706-1.775,1.076-1.711,2.567c0.34,0.607,0.346,1.553,1.139,1.711
			c0.158,0.794,2.305-0.4,1.713,1.142v8.559c0.676,5.536,0.041,11.292,0.284,16.547c0.03,0.621,0.261,1.138,0.284,1.712
			c0.009,0.165,0.042,0.412,0,0.57c-0.188,0.751-0.012,0.547,0,1.143c0.129,6.126-0.32,11.112-0.284,16.261
			c0.567,5.899,0.097,12.835,0.571,18.829c0.562,2.674,0.473,5.996,1.427,8.273c0.179,1.438,0.567,2.666,1.142,3.709
			c0.49,1.125,0.527,2.704,1.425,3.424c7.032,3.146,18.249,2.104,27.39,3.138h30.811c2.457-0.397,5.055-0.652,7.705-0.854
			c1.731-0.021,2.508,0.916,4.28,0.854h5.705c0.002-0.47,0.789-0.159,0.854-0.569c0.565-0.004,0.362-0.777,1.141-0.57
			c0.604-0.539,0.643-1.643,1.426-1.998c0.617-0.524,1.408-0.877,1.998-1.428c0.162-0.408,0.447-0.693,0.857-0.854
			c0.396-0.175,0.043-1.099,0.572-1.142C108.816,94.98,109.354,85.259,108.363,77.275z M102.658,98.96
			c-2.01,0.271-3.477,1.086-5.99,0.854c-2.354,0.07-4.064-0.502-6.564-0.285c-4.752,0.188-8.871-0.258-13.405-0.286
			c-8.734,0.011-17.279-1.458-25.964-0.57c-3.475-0.33-7.288-0.317-11.125-0.284c-3.945,0.232-6.613-0.806-10.559-0.57
			c-0.343-22.193,0.034-45.107-1.994-65.619c0.107-0.328-0.146-0.826,0-1.14c0.035-0.078,0.504,0.065,0.569,0
			c0.229-0.228,0.448-1.214,0.571-1.997v-2.854c-0.025-0.404-0.047-0.809,0.284-0.855c12.462-0.195,24.259,0.275,36.518,0.285
			c5.861,0.065,12.814-0.191,17.402,0.285c5.104-0.514,12.229-0.414,17.688,0c0.42,5.167-0.094,11.318-0.287,17.404
			C100.109,62.516,103.186,78.936,102.658,98.96z M94.098,78.704c-0.072-0.445-0.627-0.199-0.854,0
			c-0.568-0.005-0.361-0.779-1.142-0.571c-0.295-0.751-1.133-0.962-1.426-1.712c-0.256-0.506-0.689-0.833-0.857-1.428
			c-0.647-0.681-0.498-2.162-0.854-3.138c-0.909-0.707-1.125-2.108-1.715-3.139c-0.987-0.056-1.082-1.01-1.994-1.141
			c-0.896-0.15-1.594-0.5-2.28-0.856c-1.82-0.366-3.486-0.89-5.423-1.142c-0.428-0.332-0.696-0.822-1.426-0.855
			c-0.056-0.803-0.933-0.781-1.144-1.427c-1.086-0.622-1.748-1.675-1.996-3.138c-0.219-1.93,0.691-2.733,0.855-4.279v-20.54
			c-0.422-0.054-0.262-0.69-0.285-1.143c-0.57-0.379-0.635-1.267-0.854-1.998c-1.496-1.546-3.353-2.734-6.275-2.852
			c-0.541,0.505-1.887,0.208-2.855,0.285c-0.488,0.463-1.039,0.863-1.997,0.856c-1.337,1.229-2.913,2.222-4.277,3.423
			c-0.126,1.016-1.032,1.249-1.427,1.998c0.234,0.807-0.401,0.738-0.287,1.426c-0.492,0.174,0.021,1.354-0.568,1.426
			c-0.332,6.988,0.596,12.717,3.139,16.834c0.354,3.066,1.85,4.994,1.426,8.844c-3.173,2.533-8.991,2.421-12.27,4.85
			c-1.08,1.106-2.084,2.289-2.852,3.709c-1.365,0.821-2.512,1.864-3.711,2.854c-0.418,1.672-1.277,2.901-1.994,4.278
			c-0.222,2.537-0.973,4.546-1.143,7.134c0.279,1.053,1.193,1.467,1.998,1.995c0.095,1.33,1.474,1.377,2.282,1.996
			c5.955-0.604,11.93-1.192,17.116-2.565c6.69-0.213,11.384-0.746,18.544-0.57c4.109-0.516,8.893-1.354,13.125-0.855
			c1.041-0.861,3.1-0.703,3.709-1.998c0.711-1.365-0.383-2.406-0.857-3.424C94.375,81.453,94.031,79.87,94.098,78.704z
			 M43.602,85.835c0-1.14,0.568-1.711,0.572-2.853c0.965,0.175,0.359,1.918,0.852,2.566C44.698,85.79,44.262,85.927,43.602,85.835z
			 M60.435,80.13c-0.072,0.879-0.29,1.612-0.571,2.281h-1.143C59.068,81.43,59.665,80.691,60.435,80.13
			C60.405,79.784,60.847,79.954,60.435,80.13z M62.431,82.411c0.481-1.136,0.226-3.011,0.284-4.563
			c-0.033-1.271,0.705-1.769,0.855-2.854c-2.461-0.798-3.519,2.151-5.418,2.854c-0.223,1.299-1.544,1.502-1.998,2.567
			c-1.131,0.299-0.947,1.908-2.283,1.996c-1.417-0.115,0.254-0.976,0.285-1.427c0.254-0.603,0.867-0.844,0.857-1.711
			c-1.653-0.032-2.371,0.862-3.425,1.427c-0.728,0.791-1.073,1.971-2.854,1.711c-1.255,0.045-0.08-0.806,0-1.142
			c0.42-0.248,0.908-0.428,0.856-1.141c0.849-0.771,1.847-1.388,2.854-1.997c-0.678-1.184,0.898-1.224,0.568-2.854
			c3.006-1.082,4.989-3.188,7.705-4.562c2.35-1.55,3.5-4.3,5.135-6.562v-4.564c-0.644-1.545-0.83-3.545-1.71-4.85
			c-0.086-3.625-1.328-6.093-1.712-9.416v-5.99c1.282-1.191,1.883-3.062,4.563-2.854c0.641,6.018,0.115,13.199,0.285,19.685
			c-0.185,1.136,0.756,1.147,0.572,2.282c-0.142,1.289-0.912,1.941-1.144,3.139c0.233,1.765,1.619,2.376,1.998,3.994
			c1.058,0.846,2.131,1.674,3.137,2.567c1.945,0.623,3.894,1.242,6.563,1.142c0.238,0.614,1.472,0.239,1.709,0.854
			c0.839-0.074,0.875,0.646,1.716,0.572c1.147,1.514,2.481,2.84,3.707,4.277c0.397,2.456,1.108,4.598,1.709,6.848
			C78.914,81.97,70.814,82.334,62.431,82.411z"/>
	</g>
</g>
</svg>
