<?xml version="1.0" encoding="utf-8"?>
<!-- Generator: Adobe Illustrator 16.0.0, SVG Export Plug-In . SVG Version: 6.00 Build 0)  -->
<!DOCTYPE svg PUBLIC "-//W3C//DTD SVG 1.1//EN" "http://www.w3.org/Graphics/SVG/1.1/DTD/svg11.dtd">
<svg version="1.1" id="Layer_1" xmlns="http://www.w3.org/2000/svg"  x="0px" y="0px"
	 width="120px" height="120px" viewBox="4 4 120 120" style="enable-background:new 4 4 120 120;" xml:space="preserve">
<g id="user2">
	<g>
		<path d="M107.557,94.205c-0.34-1.007-0.883-1.771-1.146-2.281c-0.195-0.387-0.054-0.789-0.284-1.143
			c-0.186-0.28-0.802-0.742-1.141-1.141c-0.769-0.904-1.549-1.912-2.281-2.566c-0.441-0.396-0.766-0.402-1.145-0.572
			c-0.084-0.039-0.189-0.5-0.283-0.57c-0.674-0.502-2.193-1.066-2.566-1.426c-1.061-1.018-2.734-1.499-3.996-1.997
			c-4.869-1.931-10.615-3.269-16.263-3.425c-0.062-0.223-0.236-0.33-0.57-0.285c-0.661-0.191-0.764-0.947-1.425-1.141
			c-0.209-0.646-1.087-0.625-1.143-1.428c-0.152-2.223-0.347-4.406-0.854-6.275c1.318-1.727,2.555-3.528,3.991-5.135
			c1.54-3.691,3.58-6.884,4.565-11.127c6.916-0.017,8.164-7.803,6.848-14.266c-1.523-0.536-2.77,0.346-3.992-0.571
			c-0.507-12.425-3.527-22.337-15.122-23.679h-3.712c-0.333,0.33-1.006,0.324-1.709,0.285c-0.521,0.334-1.111,0.344-1.711,0.571
			c-0.646,0.244-1.281,0.651-1.714,0.855c-0.691,0.328-1.166,0.517-1.709,0.856c-0.254,0.159-0.589,0.1-0.856,0.283
			c-0.238,0.166-0.337,0.676-0.569,0.859c-0.241,0.182-0.643,0.119-0.858,0.283c-0.158,0.121-0.41,0.422-0.571,0.573
			c-0.823,0.769-1.959,1.821-2.567,2.566c-0.167,0.206-0.15,0.662-0.285,0.854c-0.01,0.019-0.247,0.248-0.283,0.286
			c-0.215,0.222-0.09,0.285-0.284,0.572c-0.305,0.437-0.896,0.735-1.145,1.14c-0.148,0.244-0.192,0.657-0.284,0.854
			c-0.324,0.699-0.625,1.208-0.855,1.712c-0.156,0.332-0.445,0.581-0.571,0.854c-0.263,0.571-0.31,1.323-0.571,1.999
			c-0.051,0.129-0.52,0.402-0.57,0.569c-0.213,0.697-0.234,1.22-0.283,1.428c-0.098,0.38-0.207,0.588-0.286,0.854
			c-0.131,0.428-0.219,0.875-0.286,1.143c-0.377,1.513-0.394,2.572-0.57,3.994c-1.722,0.284-2.586,1.259-3.708,1.712
			c-0.365,0.966-0.853,1.812-1.429,2.568c-0.047,0.425,0.104,1.053-0.285,1.141c-0.122,2.505-0.122,3.484,0,5.991
			c0.844,0.868,1.795,1.629,2.567,2.568c0.372,1.34,2.405,1.016,2.854,2.281c0.011,1.795,0.547,3.066,0.856,4.567
			c0.866,2.176,1.737,4.35,2.852,6.273c0.36,2.78,2.155,4.124,1.715,7.703c-0.581,0.184-0.19,1.337-0.86,1.426
			c-0.189,0.664-0.945,0.768-1.139,1.428c-0.947,0.765-2.025,1.398-3.139,1.998c-1.083,0.342-2.246,0.605-3.424,0.854
			c-3.354,2.258-7.995,3.228-11.414,5.422c-3.998,1.608-6.841,4.381-9.697,7.131c-0.064,0.222-0.008,0.562-0.283,0.57
			c-0.721,1.091-1.219,2.399-1.998,3.424c-0.369,1.535-1.789,2.019-2,3.709c-0.061,1.556,0.197,3.433-0.283,4.563
			c0.025,0.737,1.222,0.304,0.854,1.428c-0.414,1.013-0.414,2.984,0,3.996c0.479,0.852,1.306,1.354,1.997,1.996
			c0.86,0.38,2.183,0.287,3.424,0.283c1.069-0.021,0.862,1.23,2.284,0.855c8.344,0.072,16.045-0.5,24.534-0.284
			c0.487-0.116-0.06-0.368,0-0.854c-0.235-0.807,0.401-0.738,0.284-1.428c1.498-0.691,1.719-2.654,2.854-3.709
			c0.505-2.062,1.544-3.593,1.997-5.705c0.584-2.08,2.176-3.147,1.996-5.992c-0.229-2.147-2.867-1.887-2.854-4.277
			c0.303-2.648,1.464-4.438,2-6.85c0.406-1.396,0.229-3.383,0.854-4.563c0.955-0.565,1.328-1.717,3.14-1.425
			c1.003,0.326,1.811,0.852,1.713,2.279c0.532,0.895,0.868,1.984,1.426,2.854c0.598,2.255,2.225,3.481,2.283,6.274
			c-0.426,0.242-0.414,0.921-0.57,1.429c-0.797,0.629-1.547,1.304-3.139,1.142c-1.403,0.023-1.603,1.25-2.283,1.996
			c-0.008,1.436,0.556,2.299,1.427,2.854c0.076,1.352,1.771,1.079,2.281,1.995c1.172,1.488,2.192,3.134,3.137,4.854
			c1.251,1.414,2.238,3.088,2.854,5.133c0.629,0.324,0.948,0.956,1.711,1.144c0.33,0.717,0.137,1.954,1.145,1.997
			c10.709-0.606,21.027-1.604,31.096-2.854C108.121,104.299,109.102,98.828,107.557,94.205z M85.584,43.139
			c1.312-0.265,1.379,0.713,2.57,0.568c-0.231,2.146-0.555,4.201-3.139,3.996C84.805,45.781,85.796,45.057,85.584,43.139z
			 M47.357,47.703c-0.885,0.027-1.365-0.35-1.998-0.574c-0.047-0.899,0.759-0.951,0.57-1.995c1.025-0.166,1.38,0.333,1.996,0.571
			C47.688,46.32,47.191,46.68,47.357,47.703z M29.954,95.631c0.018,1.54-0.443,2.602-0.571,3.996
			c-0.184,1.243-0.15,2.701-0.855,3.425c-0.689-0.526,0.393-1.684,0-2.854c0.266-1.445,0.799-2.624,1.139-3.994
			C29.734,95.98,29.674,95.639,29.954,95.631C29.924,95.287,30.37,95.456,29.954,95.631z M38.228,91.637
			c-0.433,2.137-0.353,4.786-0.856,6.848c0.086,1.421-0.045,2.619-0.284,3.711c0.358,1.598-0.54,1.932-1.999,1.71
			c-0.131-4.123,0.891-7.097,0.857-11.124c0.199-1.247-0.824-1.271-0.857-2.283c1.143-0.764,2.119-1.688,3.14-2.566
			C38.603,88.417,37.979,90.333,38.228,91.637z M42.508,85.932c-0.129,1.202-1.126,1.537-0.856,3.139
			c-0.583-0.084-0.562-0.771-1.142-0.854c0.084-0.749-1.108-0.226-0.855-1.141C40.655,86.74,41.194,85.948,42.508,85.932
			C42.477,85.587,42.921,85.756,42.508,85.932z M47.357,87.074c-0.645-0.5-0.187-2.098-1.141-2.283
			c-0.123-0.786,1.062-0.27,1.141-0.857C48.205,84.018,47.562,86.289,47.357,87.074z M52.492,84.506
			c-0.678-0.367-0.24-1.854-1.143-1.997c0.428-0.332,0.699-0.825,1.427-0.856C52.977,82.896,52.291,83.261,52.492,84.506z
			 M55.632,79.084c0.382-0.661,0.47-1.62,0.856-2.279c0.818,0.127,0.672,1.226,1.424,1.424
			C57.365,78.727,56.426,78.835,55.632,79.084z M65.044,74.234c-1.218,0.113-1.399,1.262-2.566,1.426
			c-0.995-1.094-2.241-1.943-3.707-2.566c0.724-1.507-0.118-3.094-0.288-4.564c0.104-1.814-0.285-3.141-0.57-4.563
			c-0.221-3.204-0.941-5.905-0.857-9.415c-0.467-1.245-0.506-2.918-0.853-4.28V40c0.089-0.67,0.45-1.074,0.286-1.997
			c0.555-1.062,0.992-2.239,1.424-3.425c0.746-0.777,1.02-2.027,1.428-3.138c1.451-1.594,2.543-3.541,3.708-5.422
			c1.776-1.075,3.104-2.603,4.852-3.707c1-0.142,1.856-0.425,3.137-0.284c0.671-0.095,1.072-0.451,1.998-0.287
			c2.193,0.183,2.66,2.094,3.992,3.138c0.613,1.769,1.705,3.05,2.283,4.85c0.375,0.674,0.121,1.974,0.572,2.569
			c0.096,6.75,0.446,13.247,0.284,20.256c-0.621-0.048-0.129,1.013-0.284,1.425c-0.751,1.153-1.104,2.704-2,3.71
			c-0.443,1.455-1.583,2.219-1.996,3.709c-0.592,0.548-1.382,0.898-1.998,1.426c-0.959,1.416-1.562,3.188-2.566,4.565
			c-0.012,1.793-0.273,3.34-0.569,4.85c-0.694,0.541-2.388,0.088-3.14,0.57C66.795,73.32,65.701,73.561,65.044,74.234z
			 M76.17,105.331c0.047-0.334,0.521-0.239,0.855-0.286C76.982,105.381,76.508,105.288,76.17,105.331z M75.6,84.506
			c-0.063,0.502-0.49,0.649-1.139,0.571c-0.863-1.517-1.159-3.599-3.994-3.14c-0.715-1.379-1.758-2.427-3.139-3.14
			c0.538-0.507,1.152-0.938,2.281-0.854c0.078,1.727,1.393,2.22,1.996,3.423c1.276,0.343,2.203,1.032,2.854,1.997
			c1.304-0.254,1.615,0.477,2.563,0.57C76.786,84.357,76.109,84.348,75.6,84.506z M89.01,88.5c-1.406-0.686-3.046-1.141-3.994-2.282
			c-0.347,0.029-0.172-0.415,0,0c1.93,0.066,3.383,0.612,4.851,1.142C89.781,87.939,89.096,87.919,89.01,88.5z M93.859,105.045
			h-0.856v-0.566c0.243,0.052,0.271-0.112,0.285-0.287h0.571V105.045z M96.713,91.066c0.559-0.721,1.344,0.728,1.998,0.856
			C98.216,92.581,96.98,91.58,96.713,91.066z M101.561,99.627c-0.219,1.395,0.635,3.866-0.852,3.994
			c-1.001,0.254-0.49-0.932-0.285-1.143v-1.711c-0.453-2.401-0.199-5.512-0.857-7.703c1.386,1.088,1.896,3.051,2.279,5.135
			C102.083,99.006,101.445,98.938,101.561,99.627z"/>
	</g>
</g>
</svg>
