<?xml version="1.0" encoding="utf-8"?>
<!-- Generator: Adobe Illustrator 16.0.0, SVG Export Plug-In . SVG Version: 6.00 Build 0)  -->
<!DOCTYPE svg PUBLIC "-//W3C//DTD SVG 1.1//EN" "http://www.w3.org/Graphics/SVG/1.1/DTD/svg11.dtd">
<svg version="1.1" id="Layer_1" xmlns="http://www.w3.org/2000/svg"  x="0px" y="0px"
	 width="120px" height="120px" viewBox="4 4 120 120" style="enable-background:new 4 4 120 120;" xml:space="preserve">
<g id="user3">
	<g>
		<path d="M120.742,87.928c-1.223-2.009-2.811-3.654-4.562-5.136c-2.103-0.465-3.775-1.356-5.137-2.567
			c-3.475-0.804-6.511-2.05-9.413-3.423c-0.399-0.743-0.567-1.717-0.858-2.567c-0.289-0.278-0.576-0.564-0.853-0.855
			c-0.796,0.129,0.222-1.555-0.573-1.427c0.268-1.158,1.325-1.528,1.713-2.567c0.646-0.878,1.44-1.602,1.711-2.854
			c1.198-1.748,1.948-3.949,2.565-6.276c1.435-0.28,2.763-0.665,3.711-1.428c1.438-2.12,1.937-5.237,1.429-8.556
			c-0.515-0.726-2.758,0.281-2.854-0.858c-0.478-6.275-1.794-11.708-5.421-14.834c-1.643-0.642-3.164-1.399-5.135-1.712
			c-1.107,0.088-2.131-0.119-3.14,0c-1.177,0.139-2.604,0.854-3.136,1.141c-0.721,0.387-1.676,0.547-1.999,0.855
			c-0.565,0.543-3.681,3.177-3.709,3.71c-0.015,0.329-0.185,0.128-0.283,0.284c-0.401,0.621-1.399,2.047-1.429,2.567
			c-0.018,0.315-0.219,0.147-0.284,0.286c-1.086,2.24-1.87,5.145-2,7.702c-1.604,0.298-2.676,1.128-3.423,2.282
			c-0.581,1.512-0.648,3.534-0.569,5.707c0.527,0.709,1.326,1.148,1.712,1.998c0.67,0.662,1.902,0.76,2.28,1.709
			c0.246,5.367,3.793,7.432,3.713,13.125c-1.146,2.567-3.983,3.438-6.847,4.279c-2.325,1.387-5.094,2.326-7.704,3.424
			c-0.863-0.563-2.455-0.399-3.142-1.142c-1.442,0.021-1.842-1.009-3.137-1.142c-0.791-1.301-2.276-1.906-2.854-3.424
			c-0.153-2.225-0.348-4.405-0.856-6.274c1.321-1.726,2.556-3.532,3.994-5.136c1.542-3.691,3.579-6.883,4.565-11.127
			c6.916-0.017,8.164-7.801,6.85-14.266c-1.523-0.535-2.771,0.346-3.998-0.57c-0.504-12.426-3.525-22.338-15.119-23.68h-3.709
			c-0.338,0.33-1.006,0.324-1.713,0.286c-0.52,0.335-1.111,0.345-1.71,0.571c-0.647,0.244-1.282,0.651-1.711,0.855
			c-0.694,0.327-1.167,0.516-1.712,0.855c-0.254,0.158-0.59,0.1-0.859,0.285c-0.236,0.166-0.332,0.674-0.568,0.855
			c-0.24,0.185-0.639,0.121-0.855,0.285c-0.156,0.12-0.408,0.42-0.571,0.571c-0.823,0.771-1.959,1.823-2.566,2.569
			c-0.169,0.205-0.153,0.66-0.287,0.854c-0.012,0.019-0.249,0.248-0.284,0.285c-0.216,0.223-0.09,0.285-0.285,0.57
			c-0.303,0.44-0.896,0.738-1.139,1.142c-0.153,0.243-0.197,0.657-0.286,0.856c-0.323,0.697-0.626,1.209-0.858,1.712
			c-0.152,0.331-0.443,0.581-0.57,0.854c-0.263,0.568-0.308,1.322-0.57,1.998c-0.049,0.129-0.519,0.402-0.57,0.57
			c-0.213,0.697-0.232,1.219-0.284,1.426c-0.095,0.382-0.204,0.592-0.286,0.857c-0.133,0.426-0.221,0.873-0.289,1.142
			c-0.375,1.511-0.39,2.571-0.567,3.994c-1.745,0.288-2.57,1.256-3.708,1.71c-0.008,0.854-0.742,0.971-0.857,1.713
			c-0.501,0.448-0.373,1.527-0.856,1.998c-0.123,2.506-0.123,3.483,0,5.99c0.845,0.867,1.794,1.629,2.569,2.568
			c0.371,1.339,2.406,1.017,2.853,2.281c-0.022,1.923,0.673,3.131,0.856,4.851c0.656,0.863,0.834,2.208,1.426,3.138
			c0.584,0.938,0.887,2.155,1.426,3.14c0.527,2.515,2.105,3.979,1.713,7.417c-1.287,2.611-4.301,3.496-6.562,5.135
			c-2.547,0.592-4.224,2.053-6.562,2.854c-2.176,0.959-4.518,1.759-6.56,2.854c-4.226,2.054-7.726,4.828-10.558,8.271
			c-0.408,1.211-0.811,2.424-1.424,3.425c-0.436,1.187-0.874,2.362-1.428,3.424c-0.273,1.629-0.201,3.604-0.855,4.853
			c0.12,0.446,0.896,0.241,0.57,1.141c-0.508,1.16-0.287,3.07,0,4.279c0.762,0.472,1.264,1.209,1.996,1.711
			c0.856,0.381,2.182,0.291,3.426,0.285c1.067-0.021,0.86,1.229,2.281,0.856c27.638-0.208,53.302-0.683,77.886-3.994
			c0.34-2.241,0.635-5.022,0.284-7.132c10.251-0.497,20.534-0.962,29.673-2.568C122.791,94.943,121.727,90.798,120.742,87.928z
			 M107.336,52.552c0.729,0.127,1.311,0.398,1.711,0.855c0.049,1.666-0.738,2.491-2.283,2.568
			C106.621,54.499,107.572,54.12,107.336,52.552z M80.234,55.976c-0.689,0.116-0.623-0.521-1.43-0.286
			c-0.207-0.872,0.493-0.839,0.287-1.712c0.807-0.235,0.739,0.4,1.426,0.285C80.523,54.935,80.027,55.104,80.234,55.976z
			 M71.389,43.137c1.31-0.264,1.379,0.714,2.566,0.569c-0.23,2.146-0.555,4.2-3.137,3.994C70.609,45.78,71.598,45.058,71.389,43.137
			z M33.158,47.7c-0.884,0.029-1.361-0.349-1.998-0.57c-0.047-0.902,0.758-0.953,0.572-1.996c1.023-0.169,1.379,0.33,1.998,0.57
			C33.49,46.321,32.992,46.676,33.158,47.7z M15.754,98.198c-0.881,0.544,0.065,2.917-1.424,2.853
			c-0.107-2.292,1.086-3.29,1.141-5.42c0.41-0.16,0.693-0.443,0.854-0.855C16.967,95.62,15.476,96.77,15.754,98.198z
			 M87.365,100.195h-8.272c-4.69,0.595-9.657,0.57-14.552,0.57c-14.01,0-29.555,0.809-43.937,0
			c0.911-7.176,5.817-10.35,9.702-14.551c1.808-0.568,2.911-1.846,4.561-2.568c1.623-0.758,3.139-1.619,4.566-2.565
			c2.671-2.088,5.871-3.642,7.42-6.849c1.056-1.893,0.877-5.018,0.856-7.987c-1.006-4.226-3.12-7.342-4.279-11.412
			c-1.272-7.363,1.237-13.141,1.708-19.685c0.818-2.797,1.911-5.321,2.855-7.989c1.769-1.844,3.65-3.576,5.991-4.848
			c0.751-0.297,1.749-0.344,2.854-0.287c0.512,0.036,0.6-0.348,1.137-0.286c2.961-0.298,3.35,1.979,4.855,3.14
			c0.037,1.291,1.269,1.393,1.139,2.853c1.014,0.317,0.715,1.948,1.428,2.567c0.422,5.95,0.662,12.08,0.567,18.545
			c0.011,0.672-0.491,0.838-0.284,1.711c-0.84,2.395-1.373,5.096-2.566,7.133c-0.605,2.534-2.208,4.07-2.854,6.562
			c-1.063,0.741-2.62,0.992-3.708,1.712c-0.545,4.046-1.504,6.646-1.426,11.696c0.352,1.454,1.319,2.295,1.998,3.424
			c1.183,0.623,2.469,1.144,3.136,2.282c1.603-0.27,1.937,0.728,3.139,0.855c0.815,0.422,1.89,0.584,2.566,1.141
			c5.668,0.517,10.497,1.867,14.553,3.994C84.312,91.337,88.348,94.357,87.365,100.195z M115.895,94.489
			c-6.967-0.451-14.592-0.242-21.969-0.286c-0.999,0.428-2.279,0.572-2.279,1.998c-0.855-1.046-1.039-2.766-1.715-3.993
			c-2.502-3.394-4.939-6.853-9.983-7.703c-0.046-1.091,1.165-0.928,1.712-1.428c0.604-0.349,0.828-1.072,1.711-1.142
			c1.47-1.668,2.952-3.324,4.564-4.85c0.238-1.191-0.554-1.348-0.569-2.283c0.646-0.305,1.036-0.865,1.143-1.712
			c0.148-1.196-0.5-1.593-0.573-2.567c0.108-3.625-1.064-5.973-0.853-9.698c-1.315-4.762-0.431-5.553-0.571-11.413
			c0.274-0.007,0.219-0.348,0.282-0.569c0.546-1.641,1.392-2.988,1.998-4.566c0.783-1.402,2.011-2.361,2.567-3.994
			c1.453-0.639,2.359-1.822,3.707-2.566c1.324,0.297,2.474-0.526,3.141,0c1.279,2.715,1.883,6.107,2.854,9.129
			c-0.156,3.482,0.801,5.857,0.571,9.415c-0.19,2.949-1.387,4.892-2,7.419c-0.965,0.746-1.358,2.062-2.28,2.852
			c0.004,0.757-0.156,1.68,0.569,1.713c-0.041,0.526-0.964,0.174-1.142,0.569c0.09,0.662-0.047,1.097-0.282,1.427
			c-0.235,0.907-0.187,2.102-0.572,2.853v4.565c0.392,1.2,1.373,1.786,2.568,2.567c0.694,0.455,0.584,0.646,1.428,0.855
			c0.522,0.131,0.695,0.387,1.427,0.57c0.823,0.205,2.405,1.267,3.989,1.141c1.38,1.04,2.854,1.893,4.282,2.854
			c1.393,0.938,2.76,2.078,4.279,2.854C114.584,90.475,116.287,91.436,115.895,94.489z"/>
	</g>
</g>
</svg>
