<?xml version="1.0" encoding="utf-8"?>
<!-- Generator: Adobe Illustrator 16.0.0, SVG Export Plug-In . SVG Version: 6.00 Build 0)  -->
<!DOCTYPE svg PUBLIC "-//W3C//DTD SVG 1.1//EN" "http://www.w3.org/Graphics/SVG/1.1/DTD/svg11.dtd">
<svg version="1.1" id="Layer_1" xmlns="http://www.w3.org/2000/svg"  x="0px" y="0px"
	 width="120px" height="120px" viewBox="4 4 120 120" style="enable-background:new 4 4 120 120;" xml:space="preserve">
<g id="user1">
	<g>
		<path d="M97.841,83.936c-5.631-2.987-13.03-4.438-19.97-5.138c-0.944-0.674-1.676-1.557-2.571-2.28
			c-0.1-2.371-0.348-4.598-0.852-6.562c1.315-1.727,2.555-3.532,3.991-5.137c1.539-3.69,3.58-6.882,4.564-11.126
			c6.918-0.017,8.162-7.801,6.848-14.266c-1.522-0.535-2.77,0.346-3.992-0.57c-0.057-7.076-1.664-12.602-3.996-17.402
			c-1.106-1.082-2.111-2.262-3.137-3.424c-0.99-0.244-1.586-0.889-2.283-1.426c-1.887-0.49-3.69-1.066-5.705-1.428h-3.709
			c-0.366,0.393-1.24,0.283-1.997,0.286c-2.139,1.095-4.852,1.616-6.277,3.423c-1.248,0.369-1.792,1.44-2.568,2.284
			c-1,0.708-1.795,1.63-2.281,2.851c-1.021,0.598-1.187,2.049-1.998,2.854c-0.224,1.486-1.354,2.068-1.426,3.709
			c-0.701,0.914-0.975,2.261-1.142,3.709c-0.519,0.338-0.224,1.487-0.569,1.998c0.062,0.918-0.505,1.207-0.284,2.282
			c-1.699,0.396-3.011,1.173-3.997,2.282c-1.58,2.281-1.709,5.647-1.424,9.129c0.842,0.867,1.795,1.629,2.566,2.568
			c0.371,1.339,2.404,1.017,2.854,2.281c-0.021,1.923,0.67,3.131,0.854,4.851c0.659,0.863,0.834,2.208,1.429,3.138
			c0.58,0.938,0.887,2.156,1.426,3.14c0.524,2.516,2.107,3.979,1.711,7.417c-0.539,0.983-0.957,2.086-1.998,2.567
			c-0.457,1.063-1.742,1.301-2.567,1.996c-1.144,0.569-2.595,0.828-3.992,1.142c-3.354,2.26-7.994,3.229-11.413,5.422
			c-4.002,1.609-6.844,4.381-9.702,7.132c-0.487,1.508-1.685,2.307-1.994,3.994c-0.807,1.192-1.918,2.076-2.283,3.708
			c-0.183,1.244,0.372,3.228-0.285,3.994c-0.409,1.36,1.192,0.709,0.854,1.998c-0.504,1.16-0.284,3.069,0,4.278
			c1.268,1.205,2.53,2.416,5.422,1.996c1.069-0.021,0.862,1.23,2.282,0.857c27.643-0.208,53.302-0.683,77.887-3.994
			c1.02-2.688,2.099-5.32,2.283-8.844C108.3,91.387,103.589,86.982,97.841,83.936z M85.57,43.137
			c1.312-0.264,1.383,0.714,2.57,0.569c-0.231,2.146-0.558,4.2-3.139,3.994C84.793,45.78,85.782,45.058,85.57,43.137z M47.343,47.7
			c-0.883,0.029-1.361-0.349-1.995-0.57c-0.048-0.902,0.755-0.953,0.569-1.996c1.023-0.169,1.38,0.33,1.998,0.57
			C47.675,46.321,47.176,46.676,47.343,47.7z M101.549,99.057c0.264,1.116-1.504,0.204-1.712,0.854
			c-0.924-0.165-1.325,0.193-1.996,0.285h-4.563c-8.437,0.695-18.377-0.118-26.246,1.143c-12.009,0.164-22.574,1.773-34.807,1.712
			c0.789-4.635,3.522-7.319,5.991-10.271c1.7-0.771,3.228-1.717,4.851-2.569c2.082-0.294,2.938-1.813,4.85-2.28
			c0.91-0.895,1.9-1.715,2.854-2.568c1.023-0.779,1.543-2.069,2.852-2.567c1.857-1.756,4.107-3.12,5.419-5.42V71.1
			c-0.71-5.474-1.868-10.493-1.995-16.55c-0.471-1.244-0.508-2.916-0.857-4.277V39.427c0.336-0.046,0.241-0.52,0.286-0.854
			c1.401-4.972,4.093-8.653,6.562-12.554c1.9-1.049,3.059-2.838,5.136-3.707c0.751-0.297,1.751-0.344,2.853-0.287
			c0.514,0.036,0.602-0.348,1.143-0.286c2.961-0.298,3.348,1.979,4.852,3.14c0.039,1.291,1.27,1.393,1.141,2.853
			c1.012,0.317,0.713,1.948,1.427,2.567c0.454,7.404,0.958,16.079,0.284,23.68c-0.564,0.48-0.452,1.638-1.139,1.998
			c-0.039,1.006-0.817,1.275-0.856,2.283c-1.149,0.941-1.604,2.578-2.571,3.707c-1.975,0.686-3.889,1.436-5.418,2.567
			c-1.133,0.106-2.734-0.261-3.423,0.286c-1.179,0.059-1.962,0.51-2.283,1.426c-0.247,1.104,0.697,1.016,0.856,1.711
			c0.5,0.262,1.424,0.1,1.711,0.57c0.838,0.02,1.061,0.652,1.427,1.143c0.729,0.03,1.36,0.162,1.712,0.57
			c-0.15,2.514-0.726,4.6-0.57,7.418c0.354,1.455,1.316,2.295,1.998,3.424c1.184,0.623,2.473,1.143,3.14,2.282
			c1.598-0.27,1.933,0.728,3.136,0.855c0.814,0.423,1.889,0.585,2.569,1.142c5.553,0.438,10.075,1.906,14.264,3.707
			c1.851,1.1,3.601,2.299,5.138,3.711c0.601,0.92,1.264,1.777,1.711,2.853c0.092,0.669,0.449,1.07,0.283,1.997
			C102.016,97.499,102.016,99.184,101.549,99.057z"/>
	</g>
</g>
</svg>
