<?xml version="1.0" encoding="utf-8"?>
<!-- Generator: Adobe Illustrator 16.0.0, SVG Export Plug-In . SVG Version: 6.00 Build 0)  -->
<!DOCTYPE svg PUBLIC "-//W3C//DTD SVG 1.1//EN" "http://www.w3.org/Graphics/SVG/1.1/DTD/svg11.dtd">
<svg version="1.1" id="Layer_1" xmlns="http://www.w3.org/2000/svg"  x="0px" y="0px"
	 width="120px" height="120px" viewBox="4 4 120 120" style="enable-background:new 4 4 120 120;" xml:space="preserve">
<g id="vector">
	<g>
		<path d="M105.1,25.4c1.301,1,1.601,3,4.101,2.7c4.7,0.2,6-6.1,3.8-9.6c-1.2-0.9-2.5-1.6-4.8-1.4c-1.7,0.3-1.8,2.3-3.4,2.7H99
			c-8.6,1.1-18.8,0.6-27.1,2.1c-0.5-1.2-0.4-3-1.4-3.8c-4-0.2-7.4,0.1-10.3,1c-0.3,0.8-1.6,0.4-1.7,1.4c-1.4-0.2-0.8,1.4-2.1,1.4H43
			c-5.6,1.6-13.8,0.6-20.2,1.4c-1.8-0.2-1.6-2.5-3.8-2.4c-1.7-0.2-1.8-0.2-3.4,0c-3.1,3.5-1.4,12.6,4.5,11.3
			c0.9-0.4,1.9-0.6,2.4-1.4c0.8,0.1,0.4-1,1-1c0.1-0.6-0.3-1.7,0.7-1.4c1.6,0.6,4.1,0.2,6.2,0.3c3.2-0.5,8.6-0.1,12.3-1
			c-1.4,1.3-3.1,2.4-4.5,3.8c-3.4,4.6-7.1,8.9-9.3,14.8c-1.4,2.6-2.4,5.6-3.1,8.9c-0.7,1.3-0.9,3.3-1.4,4.8c-0.4,1.7-0.8,3.4-1,5.1
			c0.2,10.601,0.1,21.4,3.1,29.2C24,94.2,21.9,94.5,20,95c-1.5,3.2-0.3,8.2,0.3,11.3c0.3,0.7,1,1,2.1,1c0.2,1,0.7,1.601,1.7,1.7
			c0.3,0.1,0.7,0,0.7,0.3c3.6,0.101,6.7-0.2,9.6-0.7c0.6-1.1,2.6-0.8,2.7-2.399c0.8-0.4,0.1-2.2,0.3-3.101V99.7c0-2.3,0.2-4.7-1-5.8
			c-1.9-0.9-4,0.1-6.2,0c0.7-1.101,0.2-3.5,0.3-5.101c-1-5.899-0.4-11.8-0.3-18.2c0.4-1.5,0.6-3.3,1-4.8c-0.3-2.4,0.5-3.8,0.3-6.2
			c1.1-3.5,1.9-7.2,2.4-11.3c0.5-0.3,0.7-0.9,0.7-1.7c1.7-2.3,3-5.1,4.8-7.2c1.8-2.2,3.6-4.4,5.5-6.5c1.7-0.6,2.8-1.8,4.1-2.7
			c1.5-0.8,2.9-1.7,4.5-2.4c1.7,0.3,3.6-0.5,4.5,0c0,1.9,0.4,3.3,0.7,4.8c1.3,0.4,1.1,2.3,2.7,2.4c1.8,0.4,5.2-0.2,6.9-1
			c1.3-0.1,0.3-2.4,2.101-2.1c0.899-0.5,0.5-2.2,1.699-2.4c4.2,0.2,6.4,2.5,9.601,3.8c3.1,4,6.899,7.3,9.3,12
			c2.5,9.7,6.6,17.7,6.2,30.2c1,4.9,1.3,10.6,1.399,16.5C98.4,93,99.2,93,98.9,94.1c-0.5,0.9,1.399,1.101,0.3,1.4
			c-3.101-0.3-5,0.7-6.9,1.7c-1.3,2.5-0.5,7.1-0.7,10.6c1.2,0.7,2.101,1.8,3.101,2.7h9.6c1.2-0.9,4-0.3,4.8-1.7
			c0.601-4,0.801-10.6-0.699-13.7c-0.5,0-0.801-0.199-1-0.3c0-0.6-0.9-0.2-1-0.7c-0.9-0.199-2.7,0.4-3.101-0.3
			c0.3-4.6,0-11.2-0.7-15.8v-7.2C102.1,64.1,100,59,99.2,52.6c-1.3-2.3-1.7-5.3-3.101-7.6c-0.5-3.2-2.199-5.2-2.699-8.2
			c-0.7-0.5-1.2-1.1-1.4-2.1c-1.4-1.1-2.7-2.4-3.8-3.8c-0.9-0.4-1.7-0.9-2.101-1.7c-0.699-0.7-2-0.7-2.1-2.1
			C90.7,26.2,97.3,25.3,105.1,25.4z M32,98.2c0.4,0.1,0.6-0.101,0.7-0.3c0.8,1.199,0.1,3.8,0.3,5.5c-1.9-0.801-5.1-0.2-7.6-0.301
			c-0.2-1.6-0.5-3.1-0.7-4.8H32V98.2z M67.3,30.6c-1.5-0.8-3.3,0.5-5.1,0.3C62,27.6,61,25,60.5,22h7.2
			C66.3,23.9,67.8,27.4,67.3,30.6z M102.7,106.4c-2.3-0.2-5.4,0.399-7.2-0.301V98.9c2.5,0.1,5.2-0.2,7.2,0.3V106.4z"/>
	</g>
</g>
</svg>
