<?xml version="1.0" encoding="utf-8"?>
<!-- Generator: Adobe Illustrator 16.0.0, SVG Export Plug-In . SVG Version: 6.00 Build 0)  -->
<!DOCTYPE svg PUBLIC "-//W3C//DTD SVG 1.1//EN" "http://www.w3.org/Graphics/SVG/1.1/DTD/svg11.dtd">
<svg version="1.1" id="Layer_1" xmlns="http://www.w3.org/2000/svg"  x="0px" y="0px"
	 width="120px" height="120px" viewBox="4 4 120 120" style="enable-background:new 4 4 120 120;" xml:space="preserve">
<g id="slider1">
	<g>
		<path d="M75.7,85.7c-0.8-0.5-1.9-0.7-2.2-1.601C72,83.9,71.5,84.7,70,84.4c-1-0.4-2.7,0-3.5-0.601c0.1-1.8-0.2-4.1,0.3-5.399
			c-0.5-0.801-0.5-2.101-0.6-3.2v-7.7c0.1-1-0.601-1.3-0.3-2.6v-5.8c-0.601-2.9-0.101-7-0.601-9.9v-5.8c-0.5-4.2-0.399-9-1-13.1v-8
			c0.2-2.8-0.5-4.8-1.9-6.1H60c-0.5,0.2-0.8,0.5-1,1c-0.3,0-0.4,0.3-0.6,0.3c-0.5,1-0.2,2.8-0.6,3.8c-0.4,20,0.9,38.4,1.3,57.5
			c-0.5,1.4,0.9,1,0.6,2.2c-0.5,0.5-0.3,1.6-0.3,2.6c-1.6,0-1.8-0.399-3.2,0c-1.7-0.399-2,0.801-3.2,1c0,1-0.8,1.101-1,1.9
			c-0.2,1.2,0.4,1.5,0.3,2.6C51.6,89.3,52.2,90.9,52,91.7c-0.3,0.8-0.4,1.7-0.3,2.899c0.7,0.101,0.1,1.4,0.6,1.601
			c0.2,0.7,0.7,1,1,1.6c0.9,0.4,1.6,0.9,2.9,1c0.9-0.3,0.8,0.4,1.6,0.3c0.5,0.2,1.7-0.399,1.6,0.301c0.5,4.199-0.7,10.1,2.2,11.8
			c3.3,0.5,4.5-1.3,4.8-3.8c0.1-2.7-0.301-6.101,0.3-8.301c3.2,0,6.7,0.301,8.3-1.3C76.7,94.7,75.5,90,75.7,85.7z M69.3,93.4h-6.1
			c-0.9-0.301-0.8,0.399-1.6,0.3c-1.2,0.2-3.2-0.4-3.8,0.3c-0.7-0.8-0.7-2.3-0.6-3.8c0.8-0.3,3.3,0.2,5.1,0c1.9-0.601,4.9,0,6.4-1
			h0.6V93.4z M109.2,43.5c-0.3-0.5-1.101-0.6-1.3-1.3c-0.9-0.1-0.4-1.5-1.601-1.3c-0.899-0.7-3.2,0-4.2-0.6
			c-1.5-0.1-2.399,1.5-3.5,0.6c0-4.1-0.3-8-0.6-11.8c-0.2-4.4,0.8-9.9-1.6-12.1c-0.801-0.3-1.7-0.4-2.9-0.3c-0.4,0.2-0.7,0.3-1,0.6
			c-1,0.4-0.9,1.9-1.6,2.6c-0.101,5.5,0.3,11.9-0.301,16v2.9c-0.199,0.8,0.4,2.3-0.3,2.6H84.9c-0.801,1.1-1.9,2-2.601,3.2
			c0.3,3,0.3,5,0,8c0.601,1.8,1.101,3.6,1.9,5.1c1.1,0.2,2,0.5,3.2,0.6c1.199,0.2,3.199-0.4,3.8,0.3V65
			c0.7,11.6,0.899,23.8,1.6,35.5c-0.2,4.6-0.3,9,4.2,9c4.3-0.1,3.9-5,3.8-9.6c0.5-13.9-1.2-28.4-1.3-42.8c3-0.5,7.1,0.1,8.9-1.6
			C109.9,52.5,108.8,46.5,109.2,43.5z M103.5,51.8c-4.6,0.1-9.6-0.3-13.7,0.3c0.4-2-1.3-1.9-1-3.8c0.8-0.8,1.4,0.2,2.601,0
			c1-0.2,1.8-0.6,2.6-1c2.3-0.1,5.2,0.3,7-0.3c1.2-0.1,0.4,1.7,1,2.2C102.6,49.9,103.8,50.1,103.5,51.8z M41.8,64.6h-5.1
			c-0.3-0.6-1.2-0.5-1.3-1.3c-1-0.2-1.3,0.8-1.6-0.3c-0.1-12.3,0.3-25.1-0.6-36.4v-4.8c0.3-2-0.5-2.9-1-4.2c-1,0-1.2-0.9-2.6-0.6
			c-0.5,0.2-0.8,0.5-1.3,0.6c-2.1,2.2-1.1,6.2-1.3,9.3c-0.2,3.4-0.5,6.8-0.6,10.5c-0.4,8.6,0.4,18-0.3,26.2c-2.2,0.1-4.5,0.2-6.1,1
			c-2.1,2-1,7.101-1.3,10.9c0.7,0.5,0.1,2.2,1,2.6c0.3,1,1.2,1.4,1.6,2.2c1.1,0.7,3.8-0.2,4.8,0.601c-0.2,3.5,0.6,6,0.3,9.6
			c0.7,0.9,0.1,3.1,0.3,4.5c0.2,1.6-0.3,3.7,0.3,4.8c-1,1.601-0.6,4.601-0.6,7c0.5,2.101,1,4.101,3.5,4.2c4.3,0.2,3.5-4.8,4.5-8
			c0.3-8.4-0.5-15.6-0.6-23.6c2.9,0,5.8,0.1,7.7-1c1.1-1.4,0.5-4.7,0.6-7C42.3,69.4,42.3,66.7,41.8,64.6z M37,73.9
			c-3.8,1-7.5-0.5-11.2-0.601c0.5-2.2-1.3-2.1-1.3-3.8c1.3-1.1,4.2-0.5,6.4-0.6c2.4,0.399,4.6-0.801,6.4,0C36.9,70.2,37,72,37,73.9z
			"/>
	</g>
</g>
</svg>
