<?xml version="1.0" encoding="utf-8"?>
<!-- Generator: Adobe Illustrator 16.0.0, SVG Export Plug-In . SVG Version: 6.00 Build 0)  -->
<!DOCTYPE svg PUBLIC "-//W3C//DTD SVG 1.1//EN" "http://www.w3.org/Graphics/SVG/1.1/DTD/svg11.dtd">
<svg version="1.1" id="Layer_1" xmlns="http://www.w3.org/2000/svg"  x="0px" y="0px"
	 width="120px" height="120px" viewBox="4 4 120 120" style="enable-background:new 4 4 120 120;" xml:space="preserve">
<g id="video">
	<g>
		<path d="M111,99.641c-0.214-6.401-0.148-13.08-0.559-19.283c-0.416-6.289-0.135-13.276-0.84-19.279V41.239
			c0.371-2.982,0.211-6.493,0.559-9.5c0.062-1.614,0.27-3.087,0.562-4.47c0.223-1.902-0.285-3.068-0.841-4.193
			c-1.157-1.012-2.851-0.781-4.471-0.838c-5.31-0.186-11.036,0.071-15.647,0.279c-6.681,0.493-14.14,0.206-21.238,0.279
			c-13.787-0.555-27.822-0.865-41.914-1.118c-0.357,0.017-0.388,0.358-0.838,0.28c-1.95,0.283-2.708,1.763-3.912,2.795
			c-0.781,12.254-1.333,25.123-0.281,37.722c0.905,12.419,3.207,23.434,2.518,37.445c0.251,2.439-1.056,4.016-0.283,6.146
			c1.573,2.062,5.276,1.99,8.943,1.955c3.463-0.265,7.104-0.348,10.899-0.278c7.081-0.367,14.435-0.468,21.517-0.838
			c9.4-1.683,21.938-0.229,32.134-1.118c3.478-0.25,8.021,0.568,10.617-0.561c1.001-0.396,1.245-1.55,1.117-3.072
			C109.949,101.57,110.865,100.996,111,99.641z M105.411,100.197c-10.374-0.139-18.604,0.561-27.663,0
			c-8.236,0.24-15.482,1.472-24.031,1.397c-7.933,0.451-16.452,0.314-24.032,1.119v-2.519c0.248-1.019-0.492-1.485,0-1.954
			c-0.657-0.236,0.019-1.439,0.28-1.677c-0.139-0.883,0.504-0.987,0.278-1.955c0.176-6.139-0.177-11.743-0.838-17.045
			c-0.284-2.699-0.854-5.106-0.837-8.104c-0.591-0.449-0.196-1.215-0.281-1.955c-0.07-0.639-0.468-1.297-0.277-1.958
			c0.223-0.968-0.417-1.074-0.281-1.954c-0.16-0.492,0.337-1.643-0.28-1.677c-0.678-11.057-0.85-22.62-1.114-34.091
			c-0.359-0.062-0.367-0.833,0-0.838c13.078,0.425,25.723,1.285,39.396,1.116c0.209,0.631,1.569,0.109,2.236,0.28H85.57
			c6.363-0.344,12.488-0.925,19.279-0.838c-2.179,20.72-0.277,42.104,0,63.99C105.088,94.373,105.572,96.965,105.411,100.197z
			 M88.087,37.327c-0.668,1.292-1.094,2.818-1.679,4.191v4.192c1.13,1.293,2.433,2.413,3.912,3.353
			c3.992-0.102,9.568,0.924,11.457-1.957c0.384-1.78-1.047-1.749-0.838-3.354V33.135c-0.664-0.92-1.153-2.012-1.955-2.794
			c-1.137-0.262-2.832-0.496-3.911,0c-2.025,0.209-3.894,0.581-5.591,1.117c-1.526,0.709-3.527,0.943-3.633,3.074
			C86.018,36.041,87.729,36.007,88.087,37.327z M95.911,35.37v8.383c-0.921,0.574-2.831,0.151-4.193,0.279v-2.233
			c-0.782-1.73-1.417-3.613-1.954-5.589C91.895,36.011,93.689,35.479,95.911,35.37z M36.669,47.665
			c2.507-0.01,4.562-0.469,7.267-0.279c0.697-0.979,1.446-1.907,2.236-2.793c0.139-1.446-1.203-1.406-0.84-3.074
			c-0.197-3.063,0.495-7.013-0.557-9.221c-1.238-0.719-2.358-1.554-4.471-1.397c-1.859,0.096-4.161-0.248-5.59,0.28
			c-2.243-0.195-3.477,0.622-4.75,1.396c-1.015,1.97-0.391,5.571-0.56,8.382c0.73,1.88,0.979,4.24,2.234,5.59
			C33.498,46.739,35.029,47.257,36.669,47.665z M40.305,35.65v7.545c-1.4,0.28-2.695,0.657-4.471,0.558
			c0.089-3.257-0.778-5.555-1.402-8.103H40.305z M82.777,64.432c-0.57-0.082-0.551-0.757-1.12-0.838
			c-0.876-0.521-1.888-0.907-3.069-1.119c-2.619-2.6-5.879-4.554-8.943-6.705c-1.776-0.888-3.33-1.834-5.031-2.795
			c-1.554-0.877-3.237-2.222-5.587-2.236c-1.04,0.172-1.728,0.694-2.235,1.398c-0.396,1.885,0.716,2.267,0.838,3.633
			c-0.096,6.707,0.501,12.726,0.841,19.001c0.173,1.127,1.367,1.235,1.674,2.235c-0.555,0.935-1.682,1.298-1.396,3.073
			c0.507,1.447,1.675,2.236,3.913,1.957c-0.086,0.549,0.378,0.553,0.558,0.838c0.323,0.232,0.749,0.369,1.396,0.279
			c4.015-0.646,5.728-3.588,8.383-5.588c1.918-2.74,4.596-4.723,6.706-7.268c1.259-0.324,1.935-1.232,2.796-1.956
			c0.148-0.97,0.745-1.487,0.838-2.515C82.756,65.756,83.26,64.6,82.777,64.432z M70.76,65.829C70.79,66.167,70.354,66,70.76,65.829
			c0.268-0.571,0.573-1.104,0.84-1.678c0.762-0.204,0.562,0.556,1.117,0.56C72.135,65.152,71.579,65.623,70.76,65.829z
			 M75.512,67.506h-0.56v-0.561h0.56V67.506z M36.111,72.535c0.53-0.062,0.617,0.314,1.117,0.279
			c-0.198,0.758,1.318-0.2,1.119,0.559c3.167-0.838,7.012-0.998,8.941-3.073c-0.131-4.437-0.421-8.709-0.279-13.413
			c-0.524-0.823-1.219-1.247-1.678-1.678c-0.479-0.45-0.66-0.533-1.118-0.836c-3.741,0.077-7.854-0.22-11.175,0.277
			c-0.084,0.57-0.758,0.548-0.841,1.119c-0.771-0.12-0.259,1.041-0.837,1.117c0.325,3.494,0.595,7.043,1.958,9.5
			c0.032,0.806-0.154,1.829,0.278,2.236c0.219,0.992,1.537,0.884,2.236,1.396C35.071,70.863,36.023,71.686,36.111,72.535z
			 M37.229,59.121h5.031v4.473c-0.186,1.34,0.285,3.072,0,3.631c-1.762,0.103-3.262,0.467-4.471,1.119
			c-0.621-0.961-0.036-3.13-0.561-4.192L37.229,59.121L37.229,59.121z M92.837,69.461c2.132,0.195,3.082,1.572,5.867,1.117
			c1.022-0.467,1.255-1.727,1.957-2.514c-0.14-4.002,0.807-8.26,0-12.017c-2.039-2.339-6.579-1.605-9.504-0.56
			c-1.017-0.193-1.287-1.134-2.515-1.116c-0.529,0.118-0.699,0.6-1.395,0.558c-0.794,0.885-0.794,2.561-1.119,3.912v2.794
			c0.281,1.396,0.331,3.022,0.557,4.474c0.33,1.154-0.388,3.102,0.842,3.91C89.619,71.061,90.652,69.199,92.837,69.461z
			 M96.188,59.401c0.086,2.041-0.492,3.417-0.276,5.59c-0.757,0.409-2.427-0.255-3.914,0c-0.204-1.565-0.521-3.019-0.56-4.752
			C92.939,59.879,94.234,59.312,96.188,59.401z M38.626,80.919c-0.638-0.479-0.249-1.987-1.676-1.679
			c-0.695-0.042-0.866,0.439-1.396,0.561c-1.658,2.238-1.59,6.786-1.122,10.338c0.584,0.321,0.337,1.133,0.562,1.678
			c0.052,0.129,0.479,0.403,0.56,0.56c0.694,1.291,0.031,3.087,1.396,3.91c2.723,0.396,3.77-0.886,5.868-1.117
			c1.5-0.828,3.988-0.666,5.029-1.955c0.439-3.752,0.898-9.802-1.396-11.735C44.558,80.575,41.32,81.016,38.626,80.919z
			 M43.377,90.699c-1.014,0.568-1.738,1.428-3.072,1.676c-0.355-2.441-1.687-3.902-1.4-6.986h4.473L43.377,90.699L43.377,90.699z
			 M103.734,82.037c-1.055-0.626-1.469-1.885-3.073-1.957c-3.483,0.986-9.761-0.816-12.019,1.396c-0.268,0.735-0.541,2.394,0,3.073
			c0.301,1.134-0.125,1.75,0,3.354c0.301,1.281,0.899,2.269,1.119,3.633c0.752,0.928,0.309,3.046,1.117,3.912
			c2.24,1.281,5.023-0.159,6.984-0.838c1.689-0.271,3.352-0.564,5.033-0.84c1.172-1.062,1.601-2.869,1.395-5.31
			C104.406,86.021,104.254,83.845,103.734,82.037z M99.543,90.699c-0.755-0.082-1.595,1.166-2.234,0.277
			c-1.149,0.222-1.436-0.43-2.515-0.277c-0.524-1.805-1.343-3.316-1.399-5.59h5.871C99.361,86.967,99.695,88.587,99.543,90.699z"/>
	</g>
</g>
</svg>
