<?xml version="1.0" encoding="utf-8"?>
<!-- Generator: Adobe Illustrator 16.0.0, SVG Export Plug-In . SVG Version: 6.00 Build 0)  -->
<!DOCTYPE svg PUBLIC "-//W3C//DTD SVG 1.1//EN" "http://www.w3.org/Graphics/SVG/1.1/DTD/svg11.dtd">
<svg version="1.1" id="Layer_1" xmlns="http://www.w3.org/2000/svg"  x="0px" y="0px"
	 width="120px" height="120px" viewBox="4 4 120 120" style="enable-background:new 4 4 120 120;" xml:space="preserve">
<g id="video-camera">
	<g>
		<path d="M118.117,81.622c-0.312-2.222-0.52-4.544-0.586-7.011c-0.625-9.301-0.139-19.718-0.293-29.492
			c-0.793-2.109,0.615-4.665-0.875-6.135c0.395-0.88,0.395-2.327,0-3.208c-0.428-0.839-1.35-1.182-2.04-1.754
			c-1.565-0.251-3.056,0.443-3.507,0.875c-0.443,0.426-0.801,0.6-1.168,0.88c-0.896,0.667-1.654,1.131-2.336,1.751
			c-1.912,1.592-3.83,3.179-5.842,4.672c-0.891,0.862-2.029,1.475-2.922,2.336c-1.16,0.591-1.923,1.58-3.209,2.044
			c-0.576,1.174-2.095,1.412-2.631,2.627c-0.855,0.02-1.083,0.67-1.459,1.167c-0.492,0.12-1.312,1.377-1.752,0.586
			c-1.471-4.759-1.186-11.274-3.504-15.184c-0.799,0.212-0.59-0.58-1.168-0.586c-0.182-0.404-1.125-0.044-1.169-0.583
			c-1.468,0.204-2.037-0.495-3.505-0.291c-7.711,0.115-15.164-0.024-21.902-0.877c-10.174,0.146-19.894-0.156-29.786-0.291
			c-2.992,1.968-8.899,1.026-13.14,1.748c-1.29,1.341-2.077,3.182-1.752,6.135V81.33c0.08,2.646,0.312,5.141,0.584,7.59
			c-0.01,2.738-0.278,5.73,1.168,7.01c3.304,1.521,7.285-0.467,11.097-0.291c1.815-0.354,2.258,0.662,3.799,0.586
			c5.214-0.059,9.806,0.508,15.184,0.287c8.75-1.309,20.233-0.988,29.786-0.582c1.884,0.647,4.938,0.123,7.301,0.295
			c2.734,0.105,5.172-0.088,7.009-0.877c0.603-1.146,1.754-1.75,1.458-3.8c0.77-1.079,1.995-1.7,2.047-3.502v-4.087
			c-0.246-1.511-0.775-2.73-0.877-4.382c-0.436-0.444-0.473-1.283-0.586-2.044c-0.252-0.359-0.926-1.756-0.29-2.047
			c0.46,0.029,1.013-0.036,0.876,0.588c0.395-0.094,0.555-0.418,1.169-0.293c0.368,0.701,1.554,0.59,2.045,1.167
			c1.438,0.702,2.957,1.325,4.087,2.337c3.426,0.758,5.479,2.895,8.76,3.797c1.051,1.285,3.094,1.579,4.088,2.918
			c1.601,0.495,3.099,2.148,5.257,1.17C119.083,85.91,118.365,83.871,118.117,81.622z M45.11,40.154h2.923
			c-4.406,6.986-7.947,14.833-11.392,22.778c-0.735-0.662,0.386-1.933,0.586-2.628c0.178-1.084,0.694-1.835,0.874-2.919
			c0.797-1.735,1.329-3.732,2.045-5.55c1.277-3.784,2.665-7.46,4.38-10.804C44.631,40.646,45.042,40.572,45.11,40.154z
			 M18.829,40.738c1.396,0.106,2.775-0.237,3.795-0.584c0.432-0.144,0.812-0.342,0.878,0v0.584
			c-1.008,1.523-1.558,3.502-2.337,5.256c-0.513,0.753-0.421,2.109-1.168,2.629c0.212,0.894-0.502,0.86-0.29,1.75
			c-0.701-0.114,0.162,1.333-0.878,0.876V40.738z M19.121,66.438v-3.796c-0.13-0.56,0.258-0.467,0.586-0.584
			c0.616-0.222,1.063-0.291,1.749-0.878c1.567-7.681,4.104-14.391,6.136-21.607c2.235,0.115,3.612-0.562,5.546,0
			c-5.021,9.674-9.778,19.617-13.725,30.369C18.743,69.345,19.31,67.518,19.121,66.438z M19.121,72.859
			c0.764,0.391,0.558,1.296,0.292,2.047C18.76,74.779,19.293,73.467,19.121,72.859z M29.341,89.799
			c-1.207,0.039-2.255-0.084-2.919-0.585c-0.541,0.043-0.18,0.989-0.583,1.169c-0.516,0.167-1.718-0.355-1.752,0.291
			c-1.146-1.165,0.83-1.681,1.752-1.754c1.683-1.04,2.547-2.902,2.921-5.256c0.646,0.232,0.727,1.025,1.165,1.461
			C29.353,86.768,28.264,87.973,29.341,89.799z M29.925,63.806c-0.819,2.196-1.899,4.139-2.629,6.426
			c-1.034,1.885-1.499,4.34-2.627,6.134c-1.382,4.555-2.827,9.045-4.962,12.849c-0.828-0.939,0.062-2.648,0-3.796
			c0.642-0.721,0.647-2.076,1.166-2.921c0.743-1.982,1.425-4.025,2.045-6.132c0.386-2.343,1.817-3.638,2.337-5.841
			c0.846-1.879,1.631-3.821,2.337-5.844c0.502-0.954,0.974-1.94,1.168-3.21c0.539-0.821,0.901-1.819,1.165-2.918
			c0.943-1.782,1.485-3.969,2.337-5.842c1.428-4.022,2.937-7.961,4.38-11.973c0.219-1.731,3.385-0.509,4.964-0.875
			c-0.959,2.056-2.165,3.87-3.21,5.839C35.362,51.531,32.552,57.574,29.925,63.806z M35.183,89.507
			c-1.243-0.172-1.932,0.206-2.921,0.292c-0.122-0.732,0.63-0.865,0.876-1.461c0.197-0.477,0.098-1.238,0.294-1.753
			c0.027-0.077,0.233-0.062,0.291-0.292c0.192-0.762,0.582-1.688,0.874-2.629c0.666-2.158,1.787-3.857,2.045-6.422
			c1.162-1.661,1.54-4.108,2.629-5.84c0.614-2.211,1.583-4.064,2.335-6.133c3.393-7.902,6.324-16.261,9.637-24.238
			c0.157-0.234,0.306-0.475,0.293-0.877h3.797c-1.804,3.066-2.953,6.782-4.09,10.514c-1.702,3.163-2.761,6.971-4.377,10.222
			c-1.507,3.36-2.866,6.869-4.674,9.926c-0.5,1.935-1.557,3.312-2.627,4.67c-0.184,1.087-0.823,1.713-1.169,2.63
			c-0.474,0.696-0.658,1.682-1.168,2.338C37.877,84.801,34.988,85.611,35.183,89.507z M44.236,88.631
			c-1.243,0.51-3.286,0.215-4.966,0.289c0.395-1.84,1.42-3.059,1.752-4.961c2.241-2.725,3.568-6.361,4.966-9.93
			c1.575-3.291,2.906-6.828,4.09-10.513c2.611-7.119,4.886-14.582,6.713-22.485v-0.877c2.333-0.188,4.024,0.258,6.132,0.292
			c-0.288,1.173-1.209,1.708-1.459,2.919c-0.442,0.92-0.87,1.856-1.168,2.922c-0.834,1.991-1.672,3.975-2.337,6.134
			c-0.813,2.007-1.394,4.25-2.335,6.131c-0.464,2.262-1.575,3.875-2.046,6.13c-0.993,1.829-1.603,4.043-2.336,6.135
			c-1.231,1.494-1.684,3.765-2.628,5.549C47.275,80.57,45.124,83.969,44.236,88.631z M68.766,68.188
			c-0.726,1.711-1.203,3.666-1.752,5.552c-0.525,1.905-1.115,3.751-1.464,5.839c-0.752,1.58-0.616,4.052-1.46,5.548
			c-0.056,1.129-0.008,2.151,0.296,2.921c-4.624,0.048-9.523-0.179-13.726,0.292c0.468-2.062,1.273-3.789,2.043-5.549
			c0.756-1.679,1.031-3.834,2.047-5.256c0.941-4.019,2.203-7.724,3.501-11.39c2.187-7.646,4.434-15.229,6.425-23.069v-2.337
			c1.834-0.174,3.09,0.222,4.674,0.293c-2.17,7.953-4.81,15.438-7.009,23.361c-1.161,3.901-2.161,7.963-3.505,11.682
			c-0.361,2.172-1.367,3.689-1.459,6.132c-0.445,0.829-0.613,2.11-0.294,2.919c0.216,1.051,1.198,1.334,2.044,1.754
			c2.387-0.146,2.764-2.299,3.506-4.09c0.529-2,1.014-4.05,1.753-5.841c3.415-11.479,5.881-23.902,8.76-35.917h4.67
			c-2.492,7.143-5.192,14.076-7.299,21.609c-0.438,0.827-0.724,1.808-0.877,2.92C69.152,66.24,68.878,67.133,68.766,68.188z
			 M77.525,88.046c0.549-0.716,0.988-1.54,1.168-2.628c0.599,0.566,0.131,2.206,1.17,2.336
			C79.645,88.412,78.223,87.867,77.525,88.046z M73.438,84.833c0.041,1.128-0.23,2.565,0.582,2.921
			c-0.787,0.672-2.813,0.102-4.088,0.292c3.392-15.008,7.592-29.205,11.101-44.094c0.245-0.054,0.272,0.112,0.292,0.29
			c0.126,4.448,1.181,7.969,2.043,11.683C80.346,65.852,76.927,75.379,73.438,84.833z M85.117,85.125v3.795
			c-1.424,0.258-1.936-0.396-2.922-0.582c0.255-1.016,0.91-1.617,1.463-2.338c0.119-1.727,1.045-2.652,1.169-4.378
			C85.495,82.219,84.932,84.047,85.117,85.125z M85.995,64.682c-0.675,1.471-1.267,3.021-1.753,4.674
			c-0.76-0.407,0.211-1.51,0.291-2.043c0.072-0.901,0.297-1.649,0.584-2.336c0.414-1.437,0.656-3.042,1.17-4.379V59.72h0.875
			C87.688,61.205,86.188,62.965,85.995,64.682z M91.251,67.312v2.043c0.362,0.119,0.599,0.377,0.584,0.875
			c-0.368-0.119-0.597-0.377-0.584-0.875c-0.606-0.562-1.416-0.922-2.048-1.457c0.771-3.324,1.79-6.393,2.632-9.639
			c0.892-0.276,0.913-1.422,2.043-1.461c0.166-0.422,0.456-0.711,0.875-0.874c0.087-0.262,0.792-1.28,0.878-0.586
			C93.943,59.103,92.618,63.228,91.251,67.312z M100.887,62.641c-0.212,1.152-0.361,2.363-0.873,3.212
			c-0.427,2.203-1.002,4.256-1.464,6.424c-2.94,0.013-1.174-3.036-0.874-4.672c0.514-1.819,1.124-3.551,1.461-5.548
			c0.99-3.681,2.244-7.1,2.627-11.389c0.305-0.958,1.252-1.275,2.047-1.753c0.558-0.704,1.369-1.159,2.041-1.751
			c0.332,0.055,0.162,0.293,0,0.293c-0.967,4.386-3.102,7.605-3.797,12.264C101.343,60.37,101.502,61.895,100.887,62.641z
			 M104.391,75.195c-0.746-0.131-1.341-0.408-1.75-0.875c0.434-0.443,0.467-1.282,0.584-2.043c0.264-1.392,0.659-2.65,0.875-4.09
			c1.262-3.897,2.131-8.187,3.213-12.263c0.139-1.52,0.658-2.655,0.582-4.38c0.662-0.997,0.69-2.621,1.17-3.798
			c0.121-1.531,0.52-2.789,0.875-4.086c0.422-0.166,0.711-0.458,0.877-0.877c0.341-0.049,0.519,0.064,0.584,0.292
			c-0.563,2.456-0.182,5.852-0.291,8.76c-2.197,6.369-4.799,12.333-6.424,19.273c0.125,1.004-0.117,1.638-0.295,2.336
			C103.982,74.283,105.188,74.928,104.391,75.195z M107.312,76.365c0.732-0.34,0.916-1.221,1.459-1.754
			c0.367-3.723,1.564-6.609,2.045-10.219c0.67,0.597,0.105,2.424,0.291,3.506v3.791c0.353,1.891,0.361,4.117,0.582,6.135
			C110.057,77.512,108.783,76.84,107.312,76.365z"/>
	</g>
</g>
</svg>
