<?xml version="1.0" encoding="utf-8"?>
<!-- Generator: Adobe Illustrator 16.0.0, SVG Export Plug-In . SVG Version: 6.00 Build 0)  -->
<!DOCTYPE svg PUBLIC "-//W3C//DTD SVG 1.1//EN" "http://www.w3.org/Graphics/SVG/1.1/DTD/svg11.dtd">
<svg version="1.1" id="Layer_1" xmlns="http://www.w3.org/2000/svg"  x="0px" y="0px"
	 width="120px" height="120px" viewBox="4 4 120 120" style="enable-background:new 4 4 120 120;" xml:space="preserve">
<g id="voicemail">
	<g>
		<path d="M108.629,46.883c-1.822-1.03-3.197-2.502-5.604-2.949c-2.168-0.779-4.961-0.937-7.963-0.884
			c-2.065,0.291-3.848,0.867-5.599,1.474c-1.526,0.835-2.848,1.873-4.425,2.655c-2.657,2.748-5.116,5.694-6.782,9.435
			c-0.019,0.181-0.044,0.348-0.293,0.295c-0.368,2.285-0.63,4.68-0.887,7.075c0.593,4.518,2.181,8.043,3.832,11.499
			c0.84,0.537,1.132,1.619,1.771,2.357c0.602,0.09,0.577,0.801,1.182,0.887c-0.045,0.393,1.199,0.89,0.293,1.18
			c-8.25-0.104-17.062,0.353-24.471-0.59c-2.495,0.486-6.243,0.341-7.963,0c4.103-4.059,7.072-9.244,7.373-17.101
			c-0.029-6.455-1.416-11.556-4.425-15.037c-4.91-4.229-11.801-6.478-21.228-6.193c-1.316,0.452-2.285,1.25-3.536,1.77
			c-1.645,2.152-4.798,5.401-2.947,9.14c3.971,0.989,5.424-2.733,8.551-3.537c5.057,0.051,9.38,0.84,12.971,2.355
			c1.835,1.21,2.88,3.216,3.537,5.604v7.076c-1.19,6.87-4.716,11.405-10.318,13.859c-0.39,0.299-1.087,0.286-1.476,0.587h-6.191
			c-3.6-0.624-6.479-1.97-8.256-4.422c-0.427-0.945-1.098-1.65-1.474-2.652c-0.121-6.333-0.133-10.771,0.296-17.396
			c0.555-0.428,0.035-1.93,0.588-2.357c0.029-0.833,1.11-1.253,0.295-2.065c-2.98-0.328-3.008,2.299-4.422,3.539
			c-0.047-1.239-1.449-1.3-2.359-0.882c-2.834,3.354-2.781,9.6-2.654,15.919c0.915,3.115,2.036,6.024,3.245,8.846
			c0.614,0.564,1.229,1.132,1.474,2.064c1.938,1.895,4.15,3.518,6.194,5.307c4.665,2.212,10.605,3.154,16.805,3.833
			c9.555-0.315,17.794,0.681,26.537,1.179h28.007c0.928-0.352,2.047-0.512,2.653-1.179c1.335-0.038,2.134-0.62,3.245-0.884
			c0.062-0.231,0.247-0.346,0.587-0.295c1.3-1.263,2.756-2.359,3.837-3.836c0.471-0.806,1.1-1.451,1.473-2.357
			c0.649-0.727,1.459-1.292,1.769-2.359c1.534-1.023,1.782-3.33,2.95-4.715c0.488-2.164,0.894-4.414,1.181-6.781v-4.423
			C115.163,55.287,112.252,50.727,108.629,46.883z M108.629,66.639c-0.705,1.361-1.556,2.574-2.361,3.83
			c-0.66,1.893-1.246,3.864-2.356,5.309c-0.824,0.453-1.663,0.894-2.356,1.477c-0.469,0.021-1.127-0.145-1.182,0.292
			c-4.124,0.291-6.82-0.846-9.438-2.062c-2.896-2.901-5.664-5.932-7.074-10.316C85.6,58.943,88,53.38,93.885,51.306h0.592
			c-0.057-0.251,0.112-0.279,0.293-0.295c3.194-0.048,6.459-0.171,8.549,0.884C106.943,54.955,109.223,59.358,108.629,66.639z"/>
	</g>
</g>
</svg>
