<?xml version="1.0" encoding="utf-8"?>
<!-- Generator: Adobe Illustrator 16.0.0, SVG Export Plug-In . SVG Version: 6.00 Build 0)  -->
<!DOCTYPE svg PUBLIC "-//W3C//DTD SVG 1.1//EN" "http://www.w3.org/Graphics/SVG/1.1/DTD/svg11.dtd">
<svg version="1.1" id="Layer_1" xmlns="http://www.w3.org/2000/svg"  x="0px" y="0px"
	 width="120px" height="120px" viewBox="4 4 120 120" style="enable-background:new 4 4 120 120;" xml:space="preserve">
<g id="volume">
	<g>
		<path d="M113.516,58.45V45.612c-0.404-3.878-0.008-8.549-2.283-10.557c-1-0.709-2.84-0.582-4.565-0.57
			c-0.334,0.141-0.647,0.307-0.854,0.57c-1.808,0.572-2.668,2.089-4.563,2.57c-1.058,1.414-3.097,1.848-4.283,3.137
			c-3.438,1.508-6.471,3.416-9.694,5.136c-1.776,0.604-3.037,1.72-4.566,2.568c-1.584,0.888-3.426,1.519-4.85,2.567
			c-2.222,0.25-3.137,1.809-5.14,2.281c-1.649,0.82-3.334,1.611-5.135,2.281c-3.109,1.74-6.545,3.151-9.697,4.85
			c-3.197,1.75-6.223,3.672-9.416,5.422c-3.025,1.826-5.988,3.714-9.128,5.42c-3.077,1.87-5.901,3.99-9.702,5.136
			c-1.139,1.146-2.51,2.056-3.709,3.14c-1.678,0.698-2.871,1.887-4.563,2.568c-1.11,1.27-2.944,1.811-3.995,3.137
			c-0.792,1.582-3.18,1.578-2.854,4.279c1.032,2.682,3.974,3.447,7.705,3.424c12.969,0.582,25.981,0,38.801,0
			c12.688,0.002,25.127,0.998,37.088-0.854h6.272c2.147,0.051,4.335,0.146,5.425-0.855c2.082-1.532,1.274-5.95,1.424-9.416
			C112.186,74.241,112.968,66.462,113.516,58.45z M29.353,86.693c0.122-0.541,0.614-0.715,0.57-1.426
			c0.663,0.193,0.763,0.947,1.427,1.142C31.225,87.047,29.943,86.525,29.353,86.693z M34.771,86.693
			c-0.145-0.145,0.206-0.362,0.285-0.284C35.207,86.561,34.85,86.773,34.771,86.693z M37.34,83.559
			c-0.017,0.174-0.043,0.336-0.285,0.282c0.03,0.347-0.414,0.175,0,0C37.07,83.669,37.098,83.503,37.34,83.559
			c0.47-1.339,1.596-2.021,2.281-3.14c0.754-1.058,1.723-1.896,2.281-3.139c0.742-0.115,0.862-0.853,1.715-0.856
			c-0.028-0.345,0.416-0.175,0,0C41.902,79.182,39.765,81.511,37.34,83.559z M45.331,84.412c-0.257,1.041,0.504,1.521,0,1.997
			h-2.854c0.479-1.611,1.8-2.382,2.28-3.994c0.332-0.046,0.508,0.062,0.573,0.285C45.86,83.207,45.096,83.425,45.331,84.412z
			 M52.748,73.002c-0.492,0.4-1.041,0.713-1.432,1.141c-0.395,0.438-0.4,0.766-0.566,1.142c-0.037,0.081-0.5,0.196-0.569,0.284
			c-0.673,0.843-1.022,2.545-2.567,2.567c0.689-1.875,1.771-3.362,2.279-5.42c1.764-1.28,3.547-2.541,5.705-3.422
			c-0.027-0.346,0.416-0.178,0,0c-0.707,0.908-1.338,1.892-2.566,2.281C53.148,72.262,52.51,72.195,52.748,73.002z M55.598,82.415
			c-0.712-0.238-1.119-0.781-1.998-0.856c0.54-1.937,2.061-2.884,2.57-4.851c1.078,0.063,1.383,0.897,2.285,1.144
			C57.824,79.697,56.452,80.793,55.598,82.415z M63.303,85.557c-1.273,0.032-1.77-0.705-2.854-0.857
			c0.714-1.379,1.476-2.711,2.284-3.994c1.062,0.172,1.398,1.072,2.565,1.141C65.145,83.589,63.85,84.195,63.303,85.557z
			 M69.294,76.997c-1.092,1.252-2.474-0.535-3.709-0.858c-0.065-1.111,0.61-1.478,0.854-2.281c0.945,0.1,1.236,0.854,1.713,1.427
			C68.689,75.693,69.418,75.919,69.294,76.997z M69.578,86.124c0.169-0.593,0.6-0.921,0.855-1.426
			c0.598,0.163,0.813,0.704,1.711,0.569C72.331,86.591,70.586,85.989,69.578,86.124z M73.289,79.85
			c0.691,0.158,1.467,0.243,1.425,1.141C74.303,80.543,73.229,80.766,73.289,79.85z M77.281,75.566
			c-1.059-0.813-0.645-1.491,0-2.564c0.408-1.116,1.143-1.902,1.143-3.424c-0.158-0.411-0.445-0.696-0.857-0.857
			c-2.53,0.131-3.144,2.184-4.564,3.426c-1.357-0.924-2.678-1.888-3.993-2.853c0.19-1.151,1.411-2.438,0.854-3.426
			c-1.609-0.091-1.821,1.221-2.852,1.713c-1.857-0.332-2.304-2.07-4.565-2c-1.305,1.793,0.677,3.935,1.715,5.137
			c-0.562,1.248-1.611,2.007-2.283,3.14c-1.292-0.039-1.396-1.269-2.855-1.142c0.222-1.776,1.314-2.682,1.715-4.28
			c0.324-1.185-0.601-1.109-0.574-1.998c1.008-0.039,1.277-0.814,2.283-0.855c0.902-1.188,3.011-1.172,3.994-2.281
			c1.643-0.548,2.988-1.386,4.566-1.994c2.842-1.537,6.237-2.513,8.842-4.281c0.938,0.777,1.676,1.748,2.283,2.853
			c1.609,1.052,2.697,2.63,4.566,3.423c-0.312,1.497-1.499,2.115-2.282,3.138c-0.685,1.123-1.534,2.082-2.284,3.142
			c-0.683,1.121-1.531,2.079-2.283,3.138C79.008,73.682,78.957,75.438,77.281,75.566z M78.99,86.124
			c0.066-1.077,0.898-1.383,1.146-2.283c0.91,0.986,2.989,0.812,3.42,2.283H78.99z M85.839,80.133
			c-1.312-0.017-1.853-0.81-2.853-1.143c0.725-1.653,2-2.754,2.568-4.562c1.051,0.187,1.42,1.051,1.997,1.709
			C87.213,77.7,86.182,78.57,85.839,80.133z M87.838,71.575c0.311-2.261,2.053-3.082,2.568-5.138
			c1.178-0.039,1.634,0.65,2.279,1.144c-0.681,1.884-1.908,3.228-2.852,4.851C89.119,72.193,88.714,71.646,87.838,71.575z
			 M94.969,85.27c-1.101,0.418-2.836,0.205-3.992,0.569c0.024-0.733,1.113-0.407,1.144-1.141c-0.13-0.824-1.229-0.677-1.431-1.427
			c-0.104-1.25,0.816-1.467,0.855-2.567c0.461-0.08,0.492,0.267,0.857,0.285c1.349,1.504,2.892,2.815,4.562,3.991
			C96.848,85.621,95.561,85.1,94.969,85.27z M98.682,79.562c-1.832-0.838-2.676-2.651-4.281-3.709
			c0.906-1.854,2.037-3.479,3.136-5.137c1.51,0.107,1.966,1.271,3.425,1.428C100.073,74.489,98.88,76.527,98.682,79.562z
			 M102.104,82.7c0.388,0.088,0.236,0.716,0.283,1.141C101.729,83.764,101.732,83.079,102.104,82.7z M105.525,67.581
			c-2.198,0.882-2.979-1.651-4.565-2.283c0.435-0.898,1.271-1.392,1.427-2.567c1.27,0.253,2.165,0.878,3.426,1.141
			C106.029,65.42,105.361,66.083,105.525,67.581z M106.098,48.181c-0.593,0.17-1.875-0.355-1.998,0.286
			c-0.205,1.251,0.949,1.139,1.998,1.139v9.7c-2.172-0.965-3.791-2.488-5.707-3.709c-1.771-1.364-3.209-3.062-5.705-3.707
			c-0.424,0.148-0.721,0.422-1.142,0.568c-0.375,3.041,1.821,3.506,2.565,5.424c1.181,0.344,1.586,1.455,2.572,1.995
			c-0.369,1.151-1.324,1.724-2,2.568c-1.257-0.173-1.822-1.032-2.852-1.428c-0.342-0.609-0.311-1.593-0.859-1.995
			c-0.986-0.229-1.093,0.423-1.994,0.283c-2.158-1.361-4.092-2.945-6.847-3.709c-0.212-0.969,1.05-0.469,1.14-1.141
			c0.877,0.211,0.547-0.781,1.428-0.57c0.609-0.815,1.865-0.988,2.564-1.712c1.903-0.95,3.805-1.904,5.706-2.853
			c3.56-2.052,7.408-3.816,10.558-6.277c0.33-0.046,0.508,0.065,0.572,0.287C106.361,44.858,106.564,46.702,106.098,48.181z"/>
	</g>
</g>
</svg>
