<?xml version="1.0" encoding="utf-8"?>
<!-- Generator: Adobe Illustrator 16.0.0, SVG Export Plug-In . SVG Version: 6.00 Build 0)  -->
<!DOCTYPE svg PUBLIC "-//W3C//DTD SVG 1.1//EN" "http://www.w3.org/Graphics/SVG/1.1/DTD/svg11.dtd">
<svg version="1.1" id="Layer_1" xmlns="http://www.w3.org/2000/svg"  x="0px" y="0px"
	 width="120px" height="120px" viewBox="0 0 120 120" enable-background="new 0 0 120 120" xml:space="preserve">
<g id="weather-cloud">
	<g>
		<path d="M118.398,70.734c-0.399-0.694-0.494-1.7-0.896-2.396c-0.646-1.551-1.415-2.979-2.396-4.195
			c-1.821-2.373-4.711-3.676-8.092-4.494c-0.416-2.676-1.021-5.166-2.095-7.188c-1.095-1.058-2.325-1.82-3.601-2.698
			c-0.463-0.321-0.938-0.667-1.496-1.198c-0.336-0.324-1.661-0.651-2.396-1.2c-2.902-0.659-6.279-0.129-8.689,0.602
			c-0.688-11.393-6.981-17.184-19.174-17.08c-3.107,0.885-5.463,2.525-8.391,3.597c-1.038,0.96-1.76,2.235-2.995,2.997
			c-0.736,1.263-1.434,2.561-3.298,2.696c-1.282-1.112-3.291-1.501-4.794-2.396c-1.612-0.783-3.44-1.354-5.692-1.498
			c-2.345-0.148-4.232,0.162-6.29,0.299c-0.474,0.625-2.097,0.102-2.7,0.602c-1.058,0.035-1.704,0.488-2.393,0.896
			c-3.223,1.174-5.742,3.047-7.789,5.395c-4.468,4.007-7.037,11.229-5.696,20.072c0.622,1.621-1.633,0.365-1.797,1.201
			c-0.929-0.033-1.43,0.363-2.096,0.6c-1.36,0.534-2.211,1.584-3.294,2.396c-0.762,1.736-2.509,2.482-2.702,4.794
			c-1.446,5.628-0.387,12.899,2.702,15.878c1.385,1.904,3.573,3.018,5.689,4.193c2.162,1.033,4.236,2.156,7.193,2.396
			c1.053,0.643,2.765,0.629,4.492,0.602c1.49,0.56,2.371-0.135,4.195,0c2.688,0.504,5.07,1.319,8.389,1.197
			c6.375-0.117,13.371,0.387,18.875-0.599c5.578-0.916,12.181-0.808,17.379-2.099c5.072-1.418,13.027,0.049,18.578-0.899
			c11.043-1.937,21.093-4.871,21.569-17.375h0.3v-2.396C118.493,72.838,118.674,71.562,118.398,70.734z M25.521,58.15
			c0.153,0.157-0.218,0.385-0.298,0.299C25.066,58.295,25.436,58.067,25.521,58.15z M115.703,74.629
			c-0.354,1.74-1.242,2.949-1.197,5.096c-0.753,0.543-1.43,1.166-1.498,2.396c-1.352,0.344-2.215,1.177-2.994,2.097
			c-3.58,1.013-7.216,1.976-10.188,3.595c-1.155-0.157-1.464,0.537-2.692,0.302c-0.255,0.646-1.91-0.112-2.099,0.6
			c-0.884-0.255,0.387-0.755,0-1.498c0.263-0.962-0.777-0.622-0.899-1.196c-1.617,0.28-2.031,1.76-2.695,2.994
			c-3.219,0.119-6.963,0.812-9.287-0.6c-1.445,0.255-2.986,0.41-4.494,0.6c0.345-0.729,0.561-2.584,0.298-2.994
			c-2.294-1.66-5.089,0.731-6.591,1.795c-2.762,0.438-3.883,2.512-6.893,2.696c0.075-1.228,0.906-1.687,0.9-2.991
			c0.479-0.82,1.311-1.287,1.197-2.697c-0.539-1.387-2.278-0.525-3.297,0c-1.076,0.52-1.491,1.699-2.396,2.396
			c-0.334,1.364-1.126,2.271-1.497,3.597h-8.39c0.445-1.649,1.957-2.234,1.799-4.496c-0.067-0.93-1.491-0.504-2.397-0.6
			c-2.318,0.779-3.072,3.12-3.896,5.396c-3.039-0.153-6.729,0.334-9.287-0.3c1.507-2.791,3.142-5.442,4.493-8.389
			c-0.608-0.904-2.578-0.652-2.996,0.297c-1.268,0.229-1.746,1.252-2.695,1.799c-1.324,1.674-2.71,3.281-3.896,5.097
			c-2.101-0.101-3.345-1.054-5.093-1.5c0.667-1.232,1.586-2.209,2.096-3.597c0.779-1.021,2.019-1.576,2.097-3.295
			c-0.056-1.182-2.024-1.574-2.997-0.9c-0.798,0.604-1.495,1.302-2.096,2.102c-1.243,1.653-2.151,3.639-3.594,5.096
			c-2.587-0.113-4.232-1.164-5.693-2.397c-0.324-1.376-0.674-2.728-1.198-3.896c-0.199-4.192,0.101-7.891,2.096-9.889
			c2.076-0.72,5.381-0.789,7.791-0.302c0.931,0.864,2.172,1.421,3.296,2.097c1.154,0.645,1.477,2.121,3.596,1.799
			c1.4-0.101,1.789-1.201,2.098-2.396c-0.232-2.663-2.405-3.394-3.896-4.794c0.316-1.482,0.914-2.682,1.799-3.598
			c0.193-1.504,1.903-1.489,2.098-2.994c-0.198-1.301-2.596-0.975-3.596-0.6c-0.894,0.604-1.479,1.516-2.396,2.096
			c-0.436,1.264-1.223,2.175-1.8,3.293c-1.649,0.154-2.502-0.49-2.397-2.094c0.718-0.853,1.105-0.297,2.397-0.302
			c1.381-0.618,2.063-1.928,2.699-3.296c0.8-1.196,1.888-2.104,2.396-3.591c0.633-0.768,1.855-0.942,2.097-2.101
			c-0.054-1.444-1.026-1.972-2.398-2.096c-2.52,0.472-3.338,2.651-4.794,4.196c-0.917-0.3,0.347-0.802,0.302-1.2
			c0.689,0.09,0.332-0.867,0.898-0.9c0.474-0.726,1.07-1.323,1.797-1.8c0.876-1.519,2.668-2.125,3.297-3.893
			c-1.633-1.337-3.836,1.145-5.695,1.498c0.382-1.217,1.327-1.871,1.799-2.998c1.381-1.112,2.771-2.221,4.197-3.296
			c1.665-0.327,3.092-0.9,4.192-1.794c1.916-0.283,3.715-0.68,5.694-0.902c5.788,0.104,8.968,2.82,13.184,4.498
			c1.884,2.008,2.943,4.84,5.094,6.591c1.656-0.454,2.709,0.332,3.894-0.6c0.403-2.505-1.325-2.872-2.099-4.196
			c-0.912-1.185-1.715-2.479-2.697-3.597c0.193-1.404,1.318-1.874,1.797-2.997c0.999,0.104,1.331,0.871,2.699,0.604
			c1.283-0.419,1.301-2.097,1.797-3.299c1.646-0.749,3.311-1.483,5.99-1.196c2.062,0.73,3.757,1.834,6.293,2.095
			c1.51,1.588,2.068,4.123,3.598,5.694c0.445,1.649,0.07,4.12,0.6,5.693c-0.299,1.002-0.955,1.641-1.199,2.693v2.999
			c0.589,0.812,1.162,1.633,2.397,1.796c1.912-0.182,2.872-1.32,2.696-3.595c2.346-1.148,4.76-2.229,8.389-2.096
			c2.104,0.59,3.366,2.026,5.094,2.996c0.283,1.212,0.951,2.043,0.897,3.593c0.421,1.082,0.31,2.688,0.899,3.598
			c-0.424,1.635-0.537,4.976,0,6.593c0.398,0.366,1.73-0.029,2.396-0.302c1.396-0.898,1.305-3.291,2.096-4.795
			c1.395,0.408,2.676,0.924,3.297,2.1c1.793,0.009,2.27,1.324,3.599,1.797c0.419,1.577,1.351,2.646,1.794,4.193v2.396h-0.006V74.629
			z M35.107,68.938C36.021,68.583,34.783,67.35,35.107,68.938L35.107,68.938z M35.107,68.938
			C34.211,68.998,35.394,70.182,35.107,68.938L35.107,68.938z"/>
	</g>
</g>
</svg>
