<?xml version="1.0" encoding="utf-8"?>
<!-- Generator: Adobe Illustrator 16.0.0, SVG Export Plug-In . SVG Version: 6.00 Build 0)  -->
<!DOCTYPE svg PUBLIC "-//W3C//DTD SVG 1.1//EN" "http://www.w3.org/Graphics/SVG/1.1/DTD/svg11.dtd">
<svg version="1.1" id="Layer_1" xmlns="http://www.w3.org/2000/svg"  x="0px" y="0px"
	 width="120px" height="120px" viewBox="0 0 120 120" enable-background="new 0 0 120 120" xml:space="preserve">
<g id="umbrella_2_">
	<g>
		<path d="M113.982,60.087c-0.992-5.074-2.471-9.66-4.627-13.573c-0.479-2.605-2.248-3.919-3.084-6.168
			c-1.024-0.518-1.045-2.042-2.158-2.467c-0.201-1.343-1.605-1.48-1.85-2.774C96.145,28.881,88.66,24.03,77.585,22.764
			c-4.04-0.174-8.8,0.37-12.339-0.306c-0.874-1.903,0.061-5.612-2.469-5.864c-0.303-0.943-0.818,0.357-1.232,0.312
			c-1.562,1.462,0.327,4.76-0.615,6.476c-16.7,2.22-28.545,9.296-37.938,18.815c-1.165,2.849-3.271,4.754-4.627,7.404
			c-1.349,2.662-2.66,5.36-4.01,8.02c0.192,2.453-0.536,3.986-0.312,6.479c-0.071,1.308,0.289,2.185,0.619,3.084
			c-0.516,1.51-0.957,3.336,0.309,4.315c1.757,0.222,2.525-1.08,3.395-1.849c0.942-0.832,1.491-1.959,2.777-2.467
			c0.826-0.408,1.639-0.83,2.465-1.235c1.963-0.401,4.411-0.316,6.788-0.312c0.999,0.753,2.182,1.315,3.392,1.854
			c-0.072,0.586,0.351,0.68,0.307,1.233c0.838-0.222-0.22,1.457,0.618,1.233c-0.06,1.19,0.487,1.772,1.542,1.853
			c2.25-0.322,2.189-2.953,3.087-4.625c3.225-3.604,9.314-5.847,16.349-4.627c0.673,0.659,1.712,0.959,2.158,1.85
			c0.511,0.822,1.763,0.906,1.85,2.158c-0.196,1.141-0.837,1.834-0.619,3.394v28.687c0.309,0.823,0.638,1.627,0.619,2.776
			c2.165,3.69,4.19,7.528,8.327,9.253c3.621,0.885,6.41,1.078,9.869,0.311c1.217-0.842,2.271-1.84,3.395-2.776
			c0.577-1.479,2.234-1.875,3.083-3.084c1.177-3.041,2.438-5.995,2.163-10.487c-0.826-1.336-1.395-2.928-2.777-3.701
			c-0.549-1.373-2.751-2.498-4.629-1.543c-2.088,3.338,2.18,4.789,2.469,7.711c-0.586,5.067-3.535,7.771-9.873,7.099
			c-2.942-2.502-3.842-7.06-5.24-11.107c-1.032-4.515-1.773-9.327-2.467-14.187c-0.096-4.002,0.049-7.768,0.312-11.415
			c0.09-0.834,1.296-0.55,1.539-1.232c0.351-0.678,1.032-1.024,1.235-1.851c1.143-0.912,2.211-1.902,3.394-2.776
			c2.678-0.919,5.153-2.042,8.944-1.85c1.808,0.862,3.586,1.759,4.625,3.39c1.056,1.005,0.26,3.857,2.16,4.014
			c2.969-0.426,3.104-3.681,5.859-4.316c1.857-1.223,5.281-0.889,8.326-0.928c1.175,1.093,2.863,1.66,3.702,3.086
			c1.501,0.861,1.352,3.378,4.012,3.085c0.114-2.688-1.387-3.757-2.466-5.243c-1.674-1.008-2.396-2.954-4.32-3.702
			c-1.593-0.26-2.734-0.969-4.632-0.926c-2.233-0.077-3.718,1.171-5.549,0.617c-0.865-7.978-4.36-13.322-8.019-18.508
			c-0.791-1.782-1.855-3.287-2.47-5.241c-0.454-0.271-0.978-0.464-0.927-1.237c-0.85-0.59-1.566-1.308-2.158-2.159
			c-0.954-0.691-2.042-1.245-2.777-2.157c-0.787-0.036-1.078-0.566-1.539-0.927c-0.274-0.181-1.763-0.647-0.924-0.924h6.168
			c1.481,0.366,2.959,0.741,4.627,0.924c0.26,0.665,1.59,0.261,1.851,0.927c0.976-0.053,1.03,0.818,2.159,0.615
			c2.328,1.374,4.341,3.065,6.785,4.32c3.012,3.057,5.717,6.414,8.021,10.18c2.486,3.678,3.998,8.341,5.55,12.953
			c0.025,2.135,0.923,3.396,0.929,5.55c0.68,1.481,0.762,3.557,3.08,3.396C114.234,66.303,114.016,63.1,113.982,60.087z
			 M25.768,55.152c0.162,0.158-0.225,0.394-0.307,0.31C25.301,55.298,25.685,55.065,25.768,55.152z M22.992,55.77
			c-0.008,0.301-0.378,0.238-0.618,0.308C22.382,55.775,22.752,55.839,22.992,55.77z M35.639,63.789
			c-1.372-0.171-2.128-0.959-3.087-1.544c-1.128,0.103-1.712-0.343-2.466-0.616c-4.249-0.034-8.287,0.146-10.486,2.16
			c-0.782-0.602,0.173-2.071,0.306-2.775c0.865-0.369,1.776-0.696,2.774-0.927c0.608-0.523,1.911-0.354,2.471-0.925
			c2.162-0.2,4.346-0.384,4.936-2.16c-0.309-1.645-1.882-2.021-4.011-1.85c2.274-1.736,6.694-1.326,8.019-4.012
			c-0.19-1.35-1.774-1.308-3.39-1.23c-1.562,0.285-2.836,0.861-4.32,1.23c0.919-1.755,3.168-2.18,4.935-3.084
			c0.325-1.351-1.043-1.011-0.923-2.16c0.745-0.485,1.362-1.104,1.848-1.85c2.023-0.139,4.802,0.482,5.556-0.927
			c0.023-1.153-1.214-1.05-2.16-1.231c0.568-0.46,1.466-0.591,2.467-0.617c0.57-0.457,1.468-0.592,2.469-0.617
			c1.237-0.714,2.929-0.977,3.701-2.16c-0.194-1.141-1.735-0.94-3.087-0.926c2.224-1.988,5.53-2.901,8.021-4.625
			c1.855-0.306,3.552-0.769,4.935-1.543c0.79-0.014,0.378,0.23,0.31,0.617c-2.895,2.451-5.532,5.162-8.33,7.711
			C41.376,46.498,37.223,53.859,35.639,63.789z M61.859,62.557c-0.606-0.839-1.479-1.406-1.854-2.47
			c-1.771-0.491-3.131-1.392-4.935-1.851c-4.471-0.257-8.098,0.335-11.413,1.232c-1.482,0.578-2.462,1.651-4.009,2.16
			c1.578-2.947,2.877-6.167,4.627-8.944c0.815-1.445,1.344-3.182,2.467-4.32c0.52-1.741,1.947-2.573,2.467-4.317
			c2.185-1.927,4.242-3.984,6.17-6.168c2.849-1.368,3.795-4.638,6.787-5.861C61.469,41.602,62.043,52.46,61.859,62.557
			c0.445,0.264,0.976,0.459,0.92,1.232C61.969,63.88,61.771,63.359,61.859,62.557z M88.384,58.854
			c0.612,0.582,0.523,1.08,0.306,1.851C88.008,60.667,88.561,59.396,88.384,58.854z M72.346,34.176
			c1.484,1.701,2.967,3.405,4.934,4.629c2.734,5.593,5.105,11.55,6.479,18.506c-1.299-0.551-2.251-1.453-3.702-1.849
			c-2.468-0.104-4.181,0.551-6.478,0.615c-1.831,0.843-4.156,1.188-5.862,2.159c-0.777-1.276-0.65-3.455-0.925-5.244
			c-0.438-1.516-0.179-3.729-0.616-5.243V31.4c0.09-0.496-0.292-0.529-0.309-0.925V29.55c0.496-0.089,0.531,0.291,0.925,0.311
			C68.57,31.373,70.191,33.036,72.346,34.176z"/>
	</g>
</g>
</svg>
