<?xml version="1.0" encoding="utf-8"?>
<!-- Generator: Adobe Illustrator 16.0.0, SVG Export Plug-In . SVG Version: 6.00 Build 0)  -->
<!DOCTYPE svg PUBLIC "-//W3C//DTD SVG 1.1//EN" "http://www.w3.org/Graphics/SVG/1.1/DTD/svg11.dtd">
<svg version="1.1" id="Layer_1" xmlns="http://www.w3.org/2000/svg"  x="0px" y="0px"
	 width="120px" height="120px" viewBox="0 0 120 120" enable-background="new 0 0 120 120" xml:space="preserve">
<g id="weather-wind">
	<g>
		<path d="M24.205,48.581c2.689-0.163,3.147-2.561,4.565-3.994c1.561-1.391,2.842-3.057,4.281-4.565
			c1.911-0.847,3.138-2.374,5.134-3.137c1.3-1.46,3.437-2.08,5.421-2.854h9.986c0.569,0.572,1.781,0.502,2.283,1.143
			c0.74,0.4,1.316,0.965,1.994,1.426c1.307,0.979,2.417,2.148,3.997,2.853c1.041,1.241,2.803,1.761,3.993,2.854
			c0.767,0.374,1.517,0.765,2.279,1.142c0.68,0.558,1.924,0.553,2.567,1.141c3.321,1.243,5.858,3.271,9.985,3.709
			c3.729,0.933,8.867,0.453,13.41,0.57c0.033-0.63,1.209-0.121,1.709-0.285c0.289-0.473,1.211-0.311,1.713-0.57
			c0.922-0.506,1.996-0.855,3.139-1.142c0.671-0.853,1.833-1.212,2.854-1.712c0.543-0.785,1.11-1.551,1.996-1.997
			c1.482-2.985,3.975-4.965,3.711-9.7c-0.699-1.205-1.132-2.676-2.283-3.424c-1.285-0.506-3.523-0.314-4.854,0
			c-1.22,0.872-2.395,1.789-2.852,3.424c-0.739,1.354-1.19,2.994-2.566,3.708c-3.053,2.264-10.453,1.415-15.121,1.142
			c-4.169-1.727-8.277-3.515-12.553-5.135c-3.75-2.432-7.006-5.359-11.129-7.418c-0.986,0.229-1.096-0.425-1.994-0.285
			c-0.039-0.817-1.958,0.247-1.997-0.57H44.17c-1.554,0.348-3.222,0.58-4.849,0.855c-0.697,0.537-1.395,1.076-2.567,1.141
			c-2.036,1.482-4.014,3.021-6.275,4.28c-1.82,1.793-3.902,3.324-5.706,5.136c-1.154,2.078-2.839,3.629-3.708,5.991
			C20.168,45.241,21.31,48.503,24.205,48.581z M103.236,53.146c-2.338,0.139-3.319,1.631-4.281,3.139
			c-1.312,1.164-2.229,2.719-3.71,3.709c-3.263,1.777-6.671,3.408-10.841,4.279h-4.565c-6.424-1.184-11.462-3.754-17.118-5.708
			c-2.188-1.422-4.27-2.955-6.56-4.278c-1.092-0.717-2.4-1.216-3.426-1.997c-1.202-0.605-2.805-0.807-3.995-1.427h-3.992
			c-0.173,0.017-0.337,0.042-0.286,0.286h-0.57c-1.435-0.199-1.986,0.482-3.424,0.285c-0.664,0.477-1.537,0.745-2.566,0.855
			c-0.616,0.619-1.667,0.807-2.567,1.141c-1.42,1.052-3.288,1.658-4.566,2.854c-3.229,1.719-5.716,4.172-8.272,6.561
			c-1.093,2.43-2.96,4.078-3.423,7.135c-0.801,1.19,0.146,3.078,0.284,4.277c0.718,1.092,1.747,1.866,3.708,1.712
			c1.591-0.217,2.277-1.339,2.854-2.567c0.094-1.713,1.282-2.332,1.711-3.709c1.307-1.045,2.146-2.645,3.424-3.707
			c0.036-0.029,0.237,0.003,0.288,0c0.329-0.019,0.126-0.185,0.283-0.286c1.41-0.912,2.5-2.019,3.994-2.566
			c3.021-1.83,6.169-3.53,11.127-3.424c4.628,1.459,7.711,4.461,11.413,6.847c6.189,2.465,12.029,5.278,18.83,7.133
			c3.279,0.373,7.574,0.463,10.839,0c2.538-0.791,4.976-1.683,7.418-2.565c0.802-0.815,2.417-0.813,3.14-1.712
			c1.51-0.201,1.913-1.514,3.422-1.712c0.547-0.785,1.211-1.453,1.998-1.998c0.637-0.791,1.362-1.492,2-2.281
			c1.066-1.782,2.911-2.792,2.853-5.707C107.988,55.049,106.686,53.022,103.236,53.146z M103.805,78.822
			c-0.386,0.091-0.545,0.404-1.141,0.283c-3.861,2.416-6.566,5.989-10.271,8.562c-3.783,2.207-8.054,3.931-13.123,4.851h-5.705
			c-0.053-0.423-0.688-0.263-1.142-0.285c-2.265-1.162-4.217-2.633-5.991-4.278c-1.437-2.083-3.271-3.767-5.137-5.422
			c-0.968-0.362-1.812-0.851-2.567-1.427c-0.731-0.03-1.358-0.162-1.711-0.569c-0.591-0.17-1.875,0.354-1.998-0.285
			c-4.913-0.157-9.353,0.153-13.694,0.569c-1.038,0.578-2.539,0.693-3.708,1.144c-1.398,0.312-2.352,1.072-3.708,1.427
			c-2.113,1.217-4.004,2.651-5.994,3.993c-0.485,1.134-1.74,1.482-2.566,2.283c-1.064,1.028-2.059,2.573-2.853,3.421
			c-0.524,0.562-0.775,0.979-1.139,1.428c-1.038,1.271-1.835,2.641-2,4.565c0.695,0.446-0.117,2.399,0.855,2.565
			c0.405,0.832,1.202,1.271,2.568,1.144c2.625-0.037,2.285-3.043,3.709-4.281c1.581-1.176,2.604-2.913,4.278-3.993
			c1.19-1.568,2.939-2.578,4.566-3.707c4.372-3.214,12.531-2.543,19.969-2.567c0.764,0.663,1.874,0.979,2.567,1.712
			c0.706,0.721,1.123,1.73,1.998,2.281c0.277,1.148,1.249,1.604,1.999,2.281c0.491,0.937,1.504,1.35,1.997,2.282
			c1.029,0.302,1.578,1.084,2.281,1.711c2.344,0.982,4.532,2.125,7.418,2.568h7.701c9.086-1.853,16.492-5.382,21.686-11.126
			c0.742-1.538,1.636-2.928,2.566-4.279c0.459-1.773,1.428-3.749,0.854-5.706C105.566,79.53,105.25,78.611,103.805,78.822z"/>
	</g>
</g>
</svg>
