<?xml version="1.0" encoding="utf-8"?>
<!-- Generator: Adobe Illustrator 16.0.0, SVG Export Plug-In . SVG Version: 6.00 Build 0)  -->
<!DOCTYPE svg PUBLIC "-//W3C//DTD SVG 1.1//EN" "http://www.w3.org/Graphics/SVG/1.1/DTD/svg11.dtd">
<svg version="1.1" id="Layer_1" xmlns="http://www.w3.org/2000/svg"  x="0px" y="0px"
	 width="120px" height="120px" viewBox="0 0 120 120" enable-background="new 0 0 120 120" xml:space="preserve">
<g id="weather-snow">
	<g>
		<path d="M19.714,34.01c0.427-0.004,0.296-0.559,0.642-0.637c-0.041-1.96,0.266-3.568,1.596-4.154
			c2.207,1.205,2.43,4.393,5.753,4.475c0.129-0.832,0.954-0.964,0.96-1.917c-0.047-1.233-1.081-1.477-0.96-2.875
			c1.919,0.001,3.885,0.051,4.473-1.278c-1.066,0-1.091-1.041-2.238-0.961c-0.461-0.704-1.708-0.63-1.915-1.597
			c2.009-2.567,6.268-2.892,6.707-7.028c-5.496-0.492-7.312,2.697-11.18,3.834c-0.338-2.349,1.4-3.637,0.639-5.433
			c-2.87-0.633-1.963,2.508-3.515,3.193c-1.47-0.765-2.343-2.128-4.476-2.235c-0.41,0.93-0.41,2.269,0,3.198
			c0.445,0.938,1.561,1.205,1.599,2.554c-1.604,0.486-6.659-1.795-6.391,1.917c0.787,1.558,3.79,0.896,4.792,2.237
			c-0.016,1.051-1.365,0.764-1.277,1.916c-0.839,0.334-1.076,1.269-1.916,1.598c0.053,1.334-0.98,1.574-0.957,2.877
			c1.924,0.972,3.539-0.857,5.112-1.278c1.171,2.028-2.517,6.07,0.958,6.709c0.059-1.001,1.261-0.865,0.954-2.238
			C19.583,36.222,19.74,35.209,19.714,34.01z M116.531,24.746c-3.891-1.239-6.359,1.451-9.586,1.916
			c-1.23,0.795-3.076,0.97-4.154,1.918c-1.915,0.105-2.744,1.302-4.473,1.599c-0.104-0.749-0.986-0.716-1.277-1.277
			c0.033-1.994,0.529-3.52,0.316-5.753c0.562-1.684,1.227-3.58,0.318-5.111h-1.594c-0.979,0.803-1.271,1.916-1.918,2.875v3.195
			c-0.825,0.241,0.229,2.363-0.96,2.237c-2.771-1.384-4.562-3.749-7.987-4.474c-0.059,0.473-0.771,0.29-1.277,0.317
			c-0.287,0.565-0.711,0.989-1.275,1.28v2.556c2.427,3.219,6.167,5.121,8.945,7.985c-1.938,1.157-3.623,2.562-5.75,3.517
			c-0.48,0.48-0.959,0.961-1.281,1.598c-0.987,0.075-1.238,0.887-1.914,1.279c-1.213,0.718-2.404,2.396-1.6,4.153
			c2.42,1.167,4.105-0.943,5.75-1.599c1.346-1.32,2.758-2.569,4.795-3.195c0.564,3.979-2.062,8.225,0.638,10.545
			c2.837,0.173,2.479-2.847,3.196-4.794c0.221-2.547,0.211-5.326,1.279-7.028c3.641,2.425,5.473,6.668,10.223,7.986
			c0.209-0.427,0.683-0.591,1.277-0.637c0.697-1.115,0.479-1.701,0.32-3.198c1.621-0.506,2.098-2.163,1.913-4.469
			c-0.896-1.126-1.873-2.174-3.513-2.557c-0.891-1.243-3.073-1.188-3.516-2.874c3.807-1.098,6.76-3.044,10.865-3.836
			C114.973,27.447,117,27.344,116.531,24.746z M81.064,84.496c-0.703,0.684-2.395,0.374-2.875,1.277
			c-1.338,0.156-2.369,0.615-3.516,0.957c-0.998-0.602-1.82-1.369-2.876-1.914c-0.649-0.951-2.321-0.875-2.879-1.92
			c-1.169-0.424-1.976-1.221-3.19-1.598c-0.369-1.229-2.521-0.674-2.559-2.236c0.271-1.221,1.441-1.535,2.559-1.916
			c0.978-0.513,1.924-1.061,2.875-1.602c2.133-0.949,3.937-2.236,6.07-3.189c2.124,0.434,4.372,0.737,7.026,0.637
			c1.956,0.668,5.278,0.537,5.433-1.596c-0.098-1.393-1.156-1.826-1.916-2.56c-1.113-0.374-2.928-0.051-3.517-0.956
			c1.106-1.775,4.161-2.934,2.876-6.072c-0.684-0.594-2.34-0.215-3.516-0.319c-0.961,1.163-2.268,1.993-3.515,2.875
			c-0.14,0.926-1.374,0.76-1.597,1.598c-0.811-0.037-1.812,1.351-2.238,0.644c0.332-3.987,2.889-7.266,1.602-11.824
			c-3.295-0.204-2.92,3.261-4.155,5.113c-0.747,2.34-1.333,4.842-2.238,7.028c-3.668,0.91-6.084,3.076-9.262,4.477
			c-0.022-3.604-0.869-6.375-0.639-10.229c1.708-2.763,4.44-4.504,6.389-7.028c1.101-0.386,1.925-1.055,2.557-1.915
			c1.024-0.57,1.618-1.575,1.915-2.877c-1.023-0.65-1.053-0.872-1.915-0.959c-1.862-0.187-2.557,1.633-3.835,1.918
			c-0.463,0.924-1.538,1.235-2.236,1.918c-0.59,0.9-1.254,1.726-2.875,1.597c0.492-1.875,0.951-5.918-1.917-5.433
			c-1.953,1.031-0.864,5.104-2.879,6.073c-2.372-1.783-3.003-5.307-6.392-6.073h-1.277c-0.764,1.521-0.177,3.314,0.322,3.836
			c0.231,0.241,0.1,0.324,0.319,0.638c0.413,0.59,1.211,1.046,1.597,1.6c0.982,1.409,1.429,2.717,2.237,3.832
			c-0.784,1.244-0.515,3.532-0.959,5.111c0.072,1.672-0.006,3.191-0.318,4.477v3.83c-1.792-1.078-3.737-2.013-5.43-3.189
			c-2.007-0.978-4.251-1.719-5.432-3.518c-0.332-0.839-0.384-1.963-0.321-3.195c-1.51-1.686-0.748-5.643-4.474-5.112
			c-0.312,0.432-0.853,0.64-1.277,0.96c-0.236,2.149,0.871,2.96,0.636,5.111c-1.96-0.722-5.182-1.469-7.667-0.64
			c-0.018,1.046-0.912,1.22-0.639,2.558c0.707,0.783,2.291,0.691,3.194,1.275c0.84,0.76,2.606,0.594,2.556,2.238h-4.153
			c-2.194,1.107-6.5,0.102-6.708,3.195c0.882,1.696,3.838,0.675,5.429,0.314c2.336,0.1,3.909-0.562,6.392-0.314
			c0.843-0.334,1.962-0.385,3.195-0.32c1.059,0.541,1.475,1.722,2.238,2.557c1.012,0.27,1.624,0.936,2.237,1.598
			c1.109,0.276,1.771,0.996,2.557,1.601c1.663,1.106,3.736,1.8,5.112,3.192c-4.459,2.998-9.219,5.691-14.378,7.988
			c-4.029-0.406-6.513,0.73-10.227,0.643c-0.765,1.043-3.115,0.505-2.878,2.555c1.287,2.445,5.749,0.723,8.629,0.958
			c-1.571,2.472-6.075,2.019-5.431,6.708c1.297,0.578,2.05,0.46,3.518,0.32c0.892-0.49,1.798-0.967,2.554-1.596
			c1.072-0.012,2.087-1.729,2.875-0.961c-0.537,2.446-2.264,3.699-1.918,7.027c0.869,0.412,1.137,1.424,2.557,1.277
			c2.203-0.563,1.749-3.788,3.196-5.111c-0.063-2.83,1.444-4.094,1.598-6.711c1.762-1.432,4.586-1.803,6.39-3.189
			c1.407-0.195,2.04-1.158,3.197-1.599c1.263-0.337,1.612-1.584,3.193-1.603c0.394,3.656,1.717,6.382,2.876,9.268
			c-0.697,1.006-1.647,1.764-2.876,2.236c-0.71,2.482-2.907,3.483-3.833,5.754c-1.667,1.636-3.485,3.115-3.516,6.39
			c0.464,0.183,0.78,0.499,0.959,0.955c3.003,0.238,4.016-1.521,5.113-3.19c1.59-1.287,2.098-3.654,4.154-4.477
			c0.418,2.672,0.521,5.656,2.555,6.712c1.556,0.277,2.12-0.438,3.194-0.64c0.038-0.814,0.589-1.119,0.962-1.598
			c0.123-0.834,0.164-1.754,0.639-2.238c1.535,0.598,2.013,2.244,4.476,1.92c0.373-0.479,0.393-1.309,0.957-1.6
			c-0.713-3.656-3.963-4.771-5.433-7.67V89.93c0.44-1.013-0.792-1.932,0-2.238c2.731,1.205,5.156,2.729,7.027,4.793
			c1.396-0.012,1.888,0.886,3.196,0.959c0.922,0.568,2.406,0.572,3.192,1.279c1.13,2.812,0.166,7.717,4.476,7.348
			c0.177-0.777,1.235-0.682,0.957-1.914c0.238-1.172-0.785-1.776,0-2.559c1.338,0.688,2.981,1.066,4.793,1.275
			c0.762-0.729,1.82-1.161,1.92-2.555c-0.344-1.785-1.65-2.611-2.557-3.834c-0.99-0.074-1.242-0.887-1.92-1.277
			c-0.654-0.406-1.617-0.512-1.596-1.6c1.458-0.773,3.252-1.223,5.111-1.599c0.908-1.434,3.437-1.249,2.875-4.151
			C85.729,82.282,82.975,83.979,81.064,84.496z"/>
	</g>
</g>
</svg>
