<?xml version="1.0" encoding="utf-8"?>
<!-- Generator: Adobe Illustrator 16.0.0, SVG Export Plug-In . SVG Version: 6.00 Build 0)  -->
<!DOCTYPE svg PUBLIC "-//W3C//DTD SVG 1.1//EN" "http://www.w3.org/Graphics/SVG/1.1/DTD/svg11.dtd">
<svg version="1.1" id="Layer_1" xmlns="http://www.w3.org/2000/svg"  x="0px" y="0px"
	 width="120px" height="120px" viewBox="0 0 120 120" enable-background="new 0 0 120 120" xml:space="preserve">
<g id="weather-sun">
	<g>
		<path d="M66.441,35.481c4.009,0.282,2.979-4.477,4.299-6.883c0.191-3.536,1.059-6.398,1.436-9.749v-4.017
			c-0.167-0.505,0.344-1.685-0.287-1.721c-0.172-0.591,0.461-1.993-0.572-1.723H70.74c-0.004,0.383-0.504,0.264-0.572,0.578
			c-3.678,4.923-4.98,12.221-5.736,20.071C64.959,33.33,64.76,35.346,66.441,35.481z M37.761,32.901
			c-2.509-1.41-3.573-4.265-6.884-4.875c-1.005-0.05-0.903,1.008-1.435,1.434c0.428,0.432,0.463,1.257,0.578,2.009
			c0.235,0.715,0.785,1.123,0.857,2.004c0.727,1.189,1.593,2.234,2.009,3.729c2.568,1.734,2.888,5.717,7.455,5.449
			c0.55-0.508,0.681-1.42,1.151-2.008C41.709,36.6,39.051,35.433,37.761,32.901z M97.41,46.092c1.581-0.619,2.436-1.963,3.732-2.867
			c1.006-1.285,2.281-2.303,2.58-4.301c-5.512-1.809-9.144,2.27-13.48,3.441c-1.09,1.775-3.682,2.055-3.729,4.875
			c-0.15,1.586,0.969,1.898,1.434,2.868C92.622,50.287,94.493,47.666,97.41,46.092z M79.631,59.571
			c-3.525-6.894-8.079-12.761-18.355-12.903c-1.249,0.373-2.382,0.865-4.012,0.858c-2.188,2.319-7.31,3.188-5.737,8.317
			c2.392,0.191,3.265-1.135,4.59-2.008c1.404-0.889,2.873-1.717,4.588-2.295c8.804-0.296,13.063,3.949,15.198,10.324
			c-0.473,1.629-0.573,3.634-0.86,5.448c-1.89,3.082-3.907,6.032-6.308,8.604c-2.022,0.65-3.187,2.172-5.166,2.869
			C60.112,79.76,55.431,80,52.386,78.498c-0.833-0.98-2.14-1.493-2.582-2.869c-0.805-1.104-1.388-2.436-2.006-3.729
			c-1.32-2.408-2.152-5.307-2.582-8.604v-4.016c0.016-0.941,0.813-1.096,0.573-2.295c0.944-0.01,1.096-0.815,1.147-1.721
			c-1.968-0.66-3.99,0.938-4.588,2.58c-1.119,1.557-1.414,3.942-1.72,6.312v2.293c0.595,4.761,2.091,8.619,3.729,12.334
			c1.473,1.297,2.853,2.693,4.588,3.725c1.425,1.444,3.626,2.109,5.446,3.158c2.004,0.291,4.249,0.346,6.599,0.285
			c10.865-2.609,17.89-9.069,19.5-20.934C80.41,62.998,79.52,61.788,79.631,59.571z M22.561,61.865h2.868
			c2.14,0.229,3.23-0.592,4.013-1.721c-0.383-4.587-6.693-3.245-10.61-4.301c-2.707,0.064-6.045-0.504-6.308,2.006
			c-0.081,1.692,1.353,2.403,2.58,2.869c1.376,0.522,3.3,0.617,5.162,0.572C20.395,62.121,22.433,61.036,22.561,61.865z
			 M111.178,72.189c-2.119-0.369-3.729-1.24-6.023-1.437c-4.525-0.535-7.787-2.343-12.617-2.58c-0.404,0.07-0.48,0.476-0.859,0.575
			c-0.793-0.123-0.27,1.068-0.857,1.146c0.339,2.051,1.992,2.789,2.867,4.301c3.014,1.193,5.895,2.521,9.463,3.156
			c2.453-0.156,3.914,0.676,6.311,0.573c2.434-0.437,5.04-0.696,6.021-2.58C114.831,73.509,112.982,72.869,111.178,72.189z
			 M32.599,84.236c-3.4,2.145-6.504,4.582-9.75,6.882c-0.363,1.547-1.981,1.844-1.722,4.013c2.018,0.698,3.628-0.51,5.737-0.57
			c1.504-1.459,3.864-2.062,5.16-3.729c2.114-0.941,4.196-1.921,4.301-4.875C35.628,84.838,34.694,83.954,32.599,84.236z
			 M91.676,100.582c-1.045-0.904-2.311-1.768-3.439-2.581c-1.098-1.481-2.387-2.774-3.442-4.303
			c-1.442-1.136-2.149-3.009-4.017-3.729c-1.939-0.126-3.607,0.021-4.297,1.148c-0.383,2.675,1.307,3.277,2.291,4.589
			c1.147,1.239,2.061,2.717,3.154,4.017c2.497,2.28,4.443,5.116,6.881,7.457c1.443,0.18,1.865,1.387,3.729,1.146
			c0.016-0.943,0.485-1.43,0.289-2.582c0.659-0.391,1.602-0.501,1.437-1.721C93.967,102.331,92.75,101.51,91.676,100.582z
			 M52.388,96.279c-1.057,0.574-1.603,1.647-2.295,2.58c-0.238,4.257-2.104,6.885-2.58,10.897c-0.077,1.126,1.034,1.067,0.858,2.294
			c0.176,0.688-0.359,2.082,0.289,2.297c0.012,0.943-0.116,2.029,0.86,2.006c2.256-0.518,2.254-3.289,3.73-4.588
			c0.226-5.604,3.263-8.396,2.58-14.912C54.885,96.461,53.534,96.473,52.388,96.279z"/>
	</g>
</g>
</svg>
