<?xml version="1.0" encoding="utf-8"?>
<!-- Generator: Adobe Illustrator 16.0.0, SVG Export Plug-In . SVG Version: 6.00 Build 0)  -->
<!DOCTYPE svg PUBLIC "-//W3C//DTD SVG 1.1//EN" "http://www.w3.org/Graphics/SVG/1.1/DTD/svg11.dtd">
<svg version="1.1" id="Layer_1" xmlns="http://www.w3.org/2000/svg"  x="0px" y="0px"
	 width="120px" height="120px" viewBox="0 0 120 120" enable-background="new 0 0 120 120" xml:space="preserve">
<g id="weather-rain">
	<g>
		<path d="M99.961,46.175c-1.078-1.579-1.795-3.529-2.85-5.135c-2.438-2.128-5.617-3.511-9.699-3.994
			c-0.168-4.491-2.957-6.363-3.711-10.271c-0.943-0.101-1.238-0.854-1.711-1.426c-0.539-0.51-1.32-0.77-1.711-1.428
			c-1.01-0.036-1.625-0.468-2.283-0.854c-3.158-0.019-6.418-0.142-8.844,0.569c-0.447-0.883-0.793-1.871-1.713-2.281
			c0.205-1.632-1.631-1.221-1.428-2.854c1.904-1.996,5.043-2.758,8.561-3.138c1.445-0.021,2.361,0.489,3.994,0.284
			c1.062,0.553,2.104,1.127,3.707,1.142c1.248,0.655,1.99,1.815,3.711,1.997c0.207-0.871-0.492-0.838-0.287-1.711
			c0.094-0.671,0.885-0.64,1.143-1.145c0.6,0.638,0.951,1.525,2.281,1.428c1.359-0.257,2.588-0.646,4.281-0.569
			c2.508,1.581,2.293,5.886,3.424,8.843v4.279c-0.195,1.373-1.305,2.552-0.572,3.998c0.383,0.281,0.861,0.468,1.141,0.854
			c4.32,0.419,3.438-4.362,6.562-5.135c1.773,0.224,3.352,0.641,3.998,1.995c0.426,4.709-0.949,7.612-3.141,9.701
			c-1.826,0.455-3.564,1.002-3.996,2.852c7.518,1.577,10.486-3.747,11.127-9.986c-0.264-1.827-0.488-3.697-1.141-5.135
			c-0.432-0.426-1.201-0.51-1.428-1.141c-0.635-0.222-1.547-0.164-1.713-0.854c-1.701,0.085-3.117-0.118-4.275-0.573v-4.562
			c-1.844-4.911-4.893-8.614-9.986-10.271h-4.281c-0.352,0.41-0.979,0.54-1.709,0.569c-1.229,0.674-2.207,1.598-3.424,2.285
			c-1.025-1.832-3.443-2.266-5.705-2.854c-4.281-0.097-8.443-0.076-11.414,1.141c-0.695,0.731-1.65,1.204-2.283,1.995
			c-0.9,0.621-1.191,1.854-2.568,1.999c-1.476-0.237-2.17-1.253-3.138-1.999c-2.045,0.146-2.387-1.414-3.992-1.709
			c-0.809,0.233-0.74-0.4-1.43-0.286c-4.996,0.136-7.49,2.779-11.41,3.994c-0.85,0.956-1.664,1.95-2.568,2.854
			c-0.879,0.879-2.162,1.519-2.568,2.852c-1.068,0.735-1.586,2.025-2.281,3.137c-0.527,1.279-1.141,2.479-1.713,3.71
			c-0.295,1.227-0.514,2.528-0.855,3.71c-0.131,1.391,0.299,3.341-0.283,4.28c-2.178,0.01-3.838,0.536-5.707,0.854
			c-1.264,0.827-2.654,1.529-3.992,2.283c-1.082,1.01-2.367,1.819-3.428,2.852c-0.143,1.666-1.295,2.318-1.711,3.709
			c-0.371,1.152-0.625,2.421-0.855,3.709c-0.178,2.27,0.496,3.688,0.283,5.992c0.883,1.497,1.689,3.067,2.57,4.564
			c0.855,0.57,1.781,1.07,2.283,1.996c2.553,0.586,4.352,1.93,6.848,2.566c2.072,1.062,4.6,1.676,7.131,2.283
			c1.568,0.141,3.736-0.312,4.852,0.285c0.059,1.366-0.285,3.137,0.57,3.709c1.271,0.674,2.527-0.042,3.422-0.57
			c0.795-0.729,0.971-2.072,2.283-2.28c8.682,1.099,18.87,0.233,27.674,0.571c-0.438,1.274-1.338,2.946-0.569,4.562
			c0.647,0.494,1.594,0.688,2.853,0.569c1.545-1.311,2.108-3.596,3.424-5.133c3.215,0.205,7.365-0.519,9.701,0.566
			c1.562-0.436,3.733-0.259,5.42-0.566c0.032-0.541,0.942-0.199,0.854-0.856c0.551-0.115,0.228-1.108,1.144-0.856h2.28
			c3.298-1.837,7.334-2.938,9.983-5.422c1.146-2.245,2.005-6.093,1.144-9.411C108.439,49.303,104.59,47.351,99.961,46.175z
			 M105.1,61.867c-0.639-0.293,0.371-1.311,0-2.281c-0.457-0.402-0.305-1.411-0.854-1.713c-1.426,0.288-1.498,1.926-2.283,2.854
			c-0.596,1.022-1.398,1.832-2,2.853c-0.482-0.011-0.734,0.213-0.854,0.573c-0.403-0.026-0.81-0.049-0.854,0.283h-4.565
			c0.306-1.602,0.774-3.03,0.574-5.137c-1.884-0.072-2.502,1.115-3.142,2.284c-1.127,0.585-1.312,2.11-1.998,3.136
			c-3.205-0.123-6.94,0.289-9.696-0.283c-6.074,1.306-13.154-0.008-19.974,0.283c0.543-2.619,3.446-4.318,2.282-7.703
			c-4.767,0.273-4.683,5.398-7.702,7.419c-2.012-0.082-3.039-1.146-5.422-0.856c-0.209-0.267-0.518-0.433-0.854-0.569
			c0.104-0.486-0.223-0.54-0.57-0.572c-1.094-0.041-2.078,0.016-2.568,0.572c-3.029-0.681-5.385-2.033-8.559-2.569
			c-3.906,0.181-6.271-0.398-9.416-1.425c-1.334-0.308-1.857,1.138-2.852,0.284c-0.832-1.344,1.703-1.432,1.711-2.853
			c0.215-2.595-0.445-4.308-0.287-6.849c0.48-1.613,1.762-2.425,2.855-3.423c0.412-0.154,1.473,0.334,1.426-0.285h3.422
			c1.25-0.271,2.746-0.298,3.994-0.569c1.318-0.108,1.762-1.093,2.283-1.998c-0.145-1.09-0.334-2.138-1.141-2.568
			c0.871-0.456,1.701-0.961,1.998-1.994c-0.83-3.074-1.707-6.092-1.428-10.273c2.385-3.13,5.271-5.758,8.273-8.273
			c1.059-0.202,1.227,0.488,2.283,0.286c1.684-0.503,3.334-1.039,5.135-1.427c1.326-0.092,1.906,0.57,3.139,0.572
			c1.498,1.926,3.164,3.68,5.422,4.849c0.373,1.433,1.175,2.438,1.709,3.709c0.36,1.639,0.246,3.749,2,3.994
			c1.442,0.21,1.763-0.706,2.565-1.142c2.859-0.286,4.652-1.877,7.703-2.283c1.528-0.197,1.25,1.413,2.567,1.428
			c0.576,0.658,1.021,1.449,1.709,1.997c0.472,2.954,0.234,6.614,0.285,9.985c1.863,0.054,2.299-1.314,3.427-1.998
			c2.981,0.252,5.442,1.024,7.7,1.998c0.881,1.213,1.808,2.38,2.854,3.426c0.386,2.75,0.447,5.828,1.142,8.272
			c2.672,0.101,2.905-2.229,3.709-3.995c2.903,0.706,4.724,2.502,5.99,4.852C106.117,57.369,105.871,59.879,105.1,61.867z
			 M61.734,81.266c0.291-0.541,0.748-1.089,0.854-1.709c1.224-1.58,2.618-5.42,0.854-7.418c-1.135-0.09-1.43,0.658-2.565,0.568
			c-0.875,0.936-1.438,2.179-2.568,2.854c-0.541,2.688-2.967,6.111-0.855,8.847C60.3,84.664,60.932,82.768,61.734,81.266z
			 M47.185,83.264c0.311-1.871,1.309-3.061,1.709-4.85c0.268-1.73,0.924-3.072,0.857-5.135h-1.428
			c-0.066,0.406-0.469,0.479-0.568,0.855c-2.377,1.994-3.424,5.326-5.137,7.986c-0.078,1.271-0.742,2.959,0.283,3.71
			C45.457,86.1,45.718,84.082,47.185,83.264z M83.988,76.703c-0.389,0.849-1.289,1.183-1.998,1.711
			c-0.609,2.053-2.031,3.293-2.566,5.422c-0.09,1.514,0.156,2.694,1.426,2.85c2.428-0.608,2.412-3.67,3.994-5.133
			c-0.004-1.516,0.744-3.514,0-4.85H83.988z M34.345,86.973c0.943-1.26,1.434-2.789,2.281-3.994c0.143-1.352,0.59-3.039,0-4.277
			h-0.568c-1.469,0.438-2.332,1.473-3.711,1.997c-1.195,2.125-4.291,5.308-1.996,8.271C33.179,89.42,33.49,88.115,34.345,86.973z
			 M68.582,90.968c0.525-1.755,1.15-3.413,2.283-4.565c-0.227-1.648,0.791-2.059,0.568-3.707c-0.65-0.205-0.084-1.629-1.141-1.43
			h-0.576c-0.186,0.385-0.605,0.535-1.137,0.571c-0.5,0.548-0.336,1.757-1.432,1.714c-0.482,3.508-3.078,4.903-3.42,8.559
			c0.408,0.545,0.879,1.021,1.424,1.429C67.094,93.471,67.393,91.773,68.582,90.968z M40.052,91.252
			c-0.785,0.363-1.148,1.145-1.711,1.711c-0.559,0.559-1.332,0.928-1.715,1.428c-0.266,0.353-0.256,0.906-0.568,1.426
			c-0.104,0.17-0.457,0.388-0.572,0.57c-0.18,0.293-0.117,0.514-0.285,0.854c-0.512,1.048-1.336,2.13-1.141,3.425
			c0.533,0.418,0.336,1.566,1.426,1.426c2.242,0.153,2.121-2.062,3.426-2.852c0.586-1.502,1.205-2.977,2.281-3.992
			c-0.107-1.363,0.773-2.869,0-3.996H40.052z M74.572,92.393c-0.744,1.635-1.943,2.813-2.854,4.281c-0.209,1.133-0.616,3.23,0,4.279
			c2.443,0.754,3.849-1.293,4.851-2.854c0.902-1.426,1.904-4.854,0.287-6.277C75.719,91.639,75.709,92.576,74.572,92.393z
			 M51.75,92.963c-1.188,1.285-2.027,2.92-2.855,4.566c-0.109,1.727,0.021,3.213,0.572,4.279c1.043,0.192,2.072,0.398,3.424,0.281
			c0.268-0.867,1.389-0.893,1.426-1.995c-0.039-1.181,0.648-1.636,1.141-2.28c0.064-1.578,0.648-3.42,0-4.854
			C54.484,92.016,52.902,92.561,51.75,92.963z M27.783,92.963c-0.111,1.029-1.412,0.872-1.996,1.428
			c-1.461,2.727-4.227,4.143-4.279,8.273c0.502,0.26,0.52,0.999,0.855,1.426c3.201,0.35,3.666-2.037,4.85-3.707
			c1.162-1.695,2.121-3.586,1.998-6.562C28.705,93.562,28.378,93.133,27.783,92.963z M64.3,98.1h-1.139
			c-0.199,0.562-0.763,0.76-1.429,0.857c-0.571,0.854-1.069,1.779-1.996,2.279c-0.611,2.912-3.295,3.746-2.854,7.703
			c0.729,0.508,1.244,1.229,2.279,1.428c0.072-0.5,0.492-0.65,1.143-0.572c-0.207-0.777,0.568-0.574,0.572-1.139
			c0.5-0.646,0.678-1.605,1.139-2.284c0.385-0.188,0.531-0.608,0.572-1.14c0.277-0.293,0.564-0.576,0.855-0.855
			c0.254-0.98,0.695-1.777,1.141-2.568C64.473,100.594,64.861,98.868,64.3,98.1z M33.777,105.232
			c-2.59,1.979-5.717,3.414-5.422,8.271c0.635,0.316,0.773,1.129,1.426,1.428c1.24-0.092,1.805-0.857,2.85-1.143
			c1.021-2.33,3.115-5.037,2-8.561h-0.854V105.232z M72.004,106.372c-0.049,0.334-0.449,0.312-0.854,0.288
			c-1.088,1.287-2.229,2.527-2.855,4.277c-1.23,0.91-2.635,3.006-1.709,5.135c2.609,0.234,2.969-1.781,3.992-3.137
			c0.543-1.934,1.631-3.312,1.996-5.425C71.799,107.719,72.779,106.17,72.004,106.372z M43.189,110.367
			c-0.648,1.628-1.561,3.212-0.855,5.418c1.121,0.613,2.168,0.047,3.139-0.282c0.998-1.868,3.398-5.171,1.713-7.703
			C45.054,107.859,44.591,109.582,43.189,110.367z"/>
	</g>
</g>
</svg>
