<?xml version="1.0" encoding="utf-8"?>
<!-- Generator: Adobe Illustrator 16.0.0, SVG Export Plug-In . SVG Version: 6.00 Build 0)  -->
<!DOCTYPE svg PUBLIC "-//W3C//DTD SVG 1.1//EN" "http://www.w3.org/Graphics/SVG/1.1/DTD/svg11.dtd">
<svg version="1.1" id="Layer_1" xmlns="http://www.w3.org/2000/svg"  x="0px" y="0px"
	 width="120px" height="120px" viewBox="4 4 120 120" style="enable-background:new 4 4 120 120;" xml:space="preserve">
<g id="webcam">
	<g>
		<path d="M103.993,40.565c-2.661-15.306-12.063-23.869-28.187-25.71H64.964c-1.512,0.542-3.948,0.691-4.648,1.548
			c-0.071,0.091-0.507-0.053-0.617,0c-0.415,0.195-0.895,0.937-1.548,0.619c-0.762,0.583-1.406,1.281-2.479,1.549
			c-0.628,0.718-1.031,1.655-2.17,1.859c-1.514,0.034-3.266-0.167-4.336,0.31c-4.14,1.745-7.03,4.742-9.914,7.744
			c-0.57,1.288-1.236,2.479-2.166,3.408c-0.282,1.679-1.354,2.57-1.861,4.026c-1.796,2.023-2.827,4.812-4.334,7.124
			c-2.316,5.432-3.522,11.966-3.097,20.134c1.379,8.739,6.267,13.967,11.77,18.586c1.64,0.838,2.779,2.18,4.644,2.788
			c1.406,1.177,3.553,1.611,4.959,2.787c2.139,0.44,3.77,1.394,5.885,1.858c1.867,0.714,4.343,0.818,6.193,1.549
			c0.051,3.968,0.183,4.844,0,8.673c-4.336,0.517-7.933,1.771-11.771,2.788c-3.436,1.52-7.32,2.591-9.909,4.957
			c0.149,1.695-0.742,2.947,0,4.337c1.2,1.069,3.229,1.312,5.574,1.237c2.236,0.039,4.032,0.513,6.505,0.312
			c4.222,0.318,8.857,0.229,13.008,0.62c8.686-0.005,17.139,1.854,25.711,0.93c1.748,0.096,1.715-1.596,2.789-2.171
			c1.115-0.532,2.154-1.147,2.168-2.788c-0.452-2.23-2.818-2.547-4.025-4.025c-0.748-1.938-2.434-2.932-3.717-4.338
			c-2.719-1.414-6.107-2.15-9.914-2.478c0.134-2.92-0.119-5.452-0.309-8.054c1.862-0.201,3.205-0.923,4.955-1.238
			c1.731-1.163,3.866-1.916,5.576-3.099c1.719-1.276,3.189-2.8,4.956-4.026c1.894-2.546,3.941-4.938,5.576-7.742
			c1.44-3.002,2.785-6.095,3.714-9.603C104.125,58.224,104.717,49.163,103.993,40.565z M35.225,57.603
			c-0.493,0.433-0.79,1.066-0.931,1.857c-0.7-0.43-0.114-2.155-0.308-3.097c0.49-0.026,1.182,0.149,1.238-0.311
			C36.607,56.008,34.949,56.848,35.225,57.603z M79.52,104.064c1.504,0.256,2.877,0.639,4.34,0.932
			c0.24,0.415,1.014,0.688,1.548,1.238c0.543,0.555,1.758,1.531,1.856,2.785c-8.902-0.181-17.152-1.015-25.707-1.547
			c-4.952,0.157-8.26-0.199-12.391-0.311c0.761-0.684,2.203-0.688,3.098-1.239c0.948,0.226,0.91-0.532,1.855-0.312
			c-0.221-0.84,1.461,0.224,1.24-0.616c2.621-0.065,4.326-1.045,7.126-0.933c2.063-0.246,6.445-0.664,9.291-0.31
			c-0.061-0.007,0.146,0.517,0.31,0.31c0.407-0.506,0.429-0.022,0.931,0c0.937,0.045,0.396-0.209,1.238,0
			c0.28,0.07,0.857-0.4,0.93-0.31C75.618,104.298,77.908,103.99,79.52,104.064z M67.129,91.984c-0.369-0.406-0.115-0.486,0-0.93
			c1.521-0.072,2.348,0.545,4.029,0.311v7.434h-3.717C66.93,96.936,67.188,94.302,67.129,91.984z M97.797,53.266
			c-0.768,8.317-3.223,14.949-6.811,20.443c-1.16,1.118-1.992,2.555-3.102,3.717c-1.251,1.021-2.396,2.146-3.718,3.098
			c-2.589,1.854-5.69,3.191-9.604,3.718H66.2c-5.251-0.423-9.534-1.818-13.937-3.099c-0.25-2.197,2.259-4.863,0-6.194
			c-2.506,0.079-2.812,2.354-3.408,4.338c-1.236-0.521-2.258-1.254-3.405-1.859c0.163-1.692,0.45-3.265,0.617-4.956
			c0.462-0.262,0.449-0.996,0.618-1.548c0.546-0.073,0.709-0.534,0.621-1.239c-1.116-0.793-3.45-0.156-3.408,1.239
			c-0.999,0.755-1.127,2.384-1.238,4.025c-0.973,0.147-0.819-0.833-1.549-0.929c0.092-0.813-1.203-0.242-0.93-1.239
			c1.244,0.105,1.502-0.771,2.168-1.238c0.465-2.015,0.93-4.026,2.168-5.267c0.36-2.018,2.246-2.501,2.168-4.957
			c-0.448-1.617-3.708-0.947-4.336,0c-2.22,2.218-3.983,4.896-4.334,8.984c-0.948-0.396-0.911-1.775-1.859-2.17
			c0.355-1.191,1.348-1.749,1.859-2.787c0.473-3.449,2.225-5.622,3.405-8.363c0.975-0.987,1.194-2.73,2.17-3.717
			c0.672-1.002,1.11-3.821-0.312-4.336c-2.387-0.424-2.49,1.433-3.716,2.167c-0.811,1.051-1.756,1.964-2.478,3.098
			c-0.808-0.431,0.227-1.602,0.309-2.167c0.413-0.616,0.591-1.476,0.931-2.169c0.579-1.379,1.45-2.471,1.856-4.027
			c0.852-1.112,1.391-2.533,2.168-3.716c0.289-1.674,2.018-1.905,2.168-3.717c-0.333-0.905-1.472-1.003-2.788-0.928
			c-0.767,0.077-1.842,1.432-2.166,0.928c0.384-2.195,1.56-3.604,2.166-5.577c0.9-0.651,1.206-1.89,2.478-2.167
			c-0.014-1.464,1.133-1.761,1.86-2.479c1.298-1.698,3.285-2.706,5.266-3.717h4.339c2.99-1.035,6.635-1.417,9.601-2.478
			c4.176-0.153,6.776-0.006,11.151,0c12.155,1.37,19.202,7.852,21.373,19.205L97.797,53.266L97.797,53.266z M72.396,36.538
			c-2.453-1.055-5.017-2.006-8.671-1.859c-0.051,0.342-0.288,0.235-0.619,0.311c-0.849,0.186-1.812,0.474-2.791,0.62
			c-1.171,1.097-2.565,1.976-3.718,3.097c-0.898,1.475-2.301,2.448-2.786,4.336c-1.972-0.215-2.464,1.05-3.405,1.86
			c-2.411,3.947-2.976,11.97-1.551,17.035c1.232,1.966,2.772,4.378,4.339,5.578c0.834,0.641,1.224,0.846,1.856,1.237
			c0.813,0.508,1.584,0.83,2.479,1.239c0.156,0.07,0.426,0.538,0.621,0.619c0.168,0.074,0.438-0.045,0.617,0
			c0.242,0.062,0.227,0.279,0.31,0.312c3.037,1.147,9.587,1.63,12.391,0.929c1.578-0.395,2.521-0.446,3.716-0.929
			c2.514-1.516,4.5-3.555,6.195-5.885c0.275-1.067,0.754-1.932,1.241-2.79c0.532-2.976,0.753-6.267,0.619-9.913
			C81.762,44.932,77.448,40.366,72.396,36.538z M79.832,60.389c-1.004,1.582-2.264,2.901-3.719,4.027
			c-0.832,0.408-1.646,0.834-2.477,1.238c-0.546,0.695-1.861,0.621-2.479,1.238h-7.433c-0.367-0.562-1.616-0.242-2.169-0.617
			c-0.582-0.248-1.135-0.519-1.858-0.621c-0.929-0.725-2.08-1.228-3.101-1.857c-2.417-2.331-3.869-5.628-4.646-9.604
			c0.036-2.753,0.95-4.624,1.55-6.814c2.117-2.945,4.687-5.431,8.055-7.123c0.36,0.049,0.549-0.07,0.619-0.31
			c1.571,0.02,2.564-0.534,4.336-0.312c0.545,0.18,1.82-0.373,1.857,0.312c0.947,0.223,1.129-0.318,1.859-0.312
			c0.051-0.36,0.566-0.261,0.93-0.308c1.01,0.537,1.91,1.188,2.479,2.166c0.693,0.753,1.241,1.65,2.17,2.171
			c1.361,1.524,2.355,3.42,3.403,5.265C79.654,52.509,80.021,56.173,79.832,60.389z M70.229,45.83
			c-0.069-0.239-0.258-0.359-0.621-0.311v3.41c-1.396,1.391-1.953,3.62-4.645,3.715c-2.81-0.185-3.599-2.391-3.72-5.266
			c-1.599,0.465-2.176,1.956-3.094,3.099c0.094,1.747-0.551,2.754-0.313,4.646c0.203,1.759,0.925,2.999,1.24,4.646
			c0.956,0.696,1.781,1.523,2.479,2.478c1.465,0.082,2.385,0.71,4.026,0.621c1.433-0.119,2.552-0.545,3.716-0.931
			c2.211-2.125,4.694-3.978,6.196-6.813c0.481-4.508-1.821-6.234-3.41-8.673C71.109,46.601,71.385,45.499,70.229,45.83z"/>
	</g>
</g>
</svg>
