<?xml version="1.0" encoding="utf-8"?>
<!-- Generator: Adobe Illustrator 16.0.0, SVG Export Plug-In . SVG Version: 6.00 Build 0)  -->
<!DOCTYPE svg PUBLIC "-//W3C//DTD SVG 1.1//EN" "http://www.w3.org/Graphics/SVG/1.1/DTD/svg11.dtd">
<svg version="1.1" id="Layer_1" xmlns="http://www.w3.org/2000/svg"  x="0px" y="0px"
	 width="120px" height="120px" viewBox="4 4 120 120" style="enable-background:new 4 4 120 120;" xml:space="preserve">
<g id="wi-fi">
	<g>
		<path d="M111.52,37.339c-0.347-0.11-0.562-0.354-0.549-0.825c-1.973-1.796-3.91-3.621-6.062-5.235
			c-2.123-1.735-4.937-2.776-6.888-4.683c-1.944-0.258-3.012-1.394-4.957-1.653c-1.725-0.572-3.66-0.93-5.235-1.653
			c-3.94-0.559-7.976-1.024-11.847-1.652h-5.51c-0.354,0.014-0.382,0.353-0.828,0.275h-6.333c-8.87,1.138-18.186,1.832-23.966,6.06
			c-3.5,1.459-6.801,3.119-10.196,4.683c-3.425,1.622-6.29,3.81-9.363,5.786c-0.551,0.824-1.037,1.721-1.931,2.203
			c-0.276,0.551-0.473,1.177-1.099,1.378c-0.708,0.59,0.228,1.539-0.278,1.928c-1.1,0.094-1.877,0.509-2.478,1.103
			c0.316,1.243,1.571,1.55,2.478,2.203c0.749,0.814,1.276,1.848,2.48,2.204c0.321,0.9,1.792,1.258,2.204,1.655
			c0.229,0.218,0.246,0.08,0.553,0.272c0.339,0.215,0.711,0.89,1.102,1.103c0.606,0.336,1.312,0.301,1.927,0.549
			c2.216-0.632,2.688-3.006,4.681-3.855c4.061-2.368,8.681-4.181,12.401-6.888c3.33-1.165,6.157-2.84,9.366-4.131
			c4.144-1.366,9.398-1.624,14.324-2.204c4.241,0.201,7.774-0.311,11.848-0.274c5.314,0.832,9.504,2.799,14.049,4.405
			c1.723,1.585,3.848,2.765,5.232,4.683c1.977,1.33,3.416,3.198,5.234,4.685c0.416,1.056,1.143,1.797,1.93,2.48
			c-0.129,0.863,0.74,0.728,0.828,1.376c0.442,0.381,0.34,1.311,1.377,1.102c0.981-0.487,2.106-0.826,2.201-2.204
			c0.398-0.335,0.37-1.1,1.104-1.1c0.246-0.488,0.613-0.856,1.102-1.104c0.926-2.108,2.896-3.163,3.582-5.509
			C113.629,41.659,112.415,39.659,111.52,37.339z M18.408,43.951c0.402-0.605,1.473-0.545,1.652-1.379
			c0.943,0.53,0.943,1.998,1.927,2.482c0.088,0.649,0.957,0.513,0.829,1.379c0.324,0.409,1.145,0.323,1.102,1.101
			C21.665,46.756,20.395,44.995,18.408,43.951z M25.295,43.676c-0.956-0.88-2.163-1.508-2.479-3.032
			c0.958-0.236,1.528-0.857,2.204-1.377C25.656,40.195,25.117,42.297,25.295,43.676z M31.629,37.891
			c0.073,1.583-0.204,3.512,0.278,4.681c-1.147,0.14-1.608,0.967-2.757,1.104c-0.521-1.866-0.188-4.585-0.823-6.337
			c0.928-0.814,2.388-1.099,3.303-1.928c0.47-0.1,0.524,0.217,0.551,0.552C31.526,36.133,32.225,37.66,31.629,37.891z
			 M36.314,40.371c-1.891-0.497-0.822-3.955-1.101-6.062c0.605-0.403,1.182-0.837,2.202-0.827
			C36.582,35.315,36.792,38.187,36.314,40.371z M43.754,37.065c-1.392-0.195-1.542,0.847-3.031,0.551
			c-0.016-2.22,0.219-4.188,0.55-6.06c1.156-0.409,1.851-1.275,3.305-1.378c-0.662,1.265-1.304,2.552-1.65,4.132
			C42.892,35.538,43.604,36.019,43.754,37.065z M47.057,35.688c0.07-0.853,0.28-1.558,0.551-2.206
			c-0.215-1.227,0.368-1.655,0.275-2.752c0.308-0.706,0.107-1.915,0.827-2.206c1.229-0.04-0.248,0.708,0,1.377v2.204
			c0.233,0.961,0.997,1.392,1.931,1.655c0.493,0.033,0.578-0.34,1.097-0.277c2.512-1.069,0.335-6.831,4.688-6.06
			c-0.153,1.044-0.67,1.72-0.554,3.032c-0.13,1.597,1.752,1.184,1.653,2.753C53.886,33.885,50.33,34.644,47.057,35.688z
			 M62.76,32.381c-1.045,0.222-0.351-1.303-0.55-1.926c-0.501-1.247-1.104-2.386-1.929-3.309c0.835-0.634,2.84-0.095,4.132-0.276
			c-0.722,1.024-1.393,2.099-1.929,3.308v1.652C62.803,31.93,63.186,32.316,62.76,32.381z M68.822,29.901
			c-0.684,0.784-0.434,2.509-2.205,2.204c0.884-1.688,1.379-3.763,2.479-5.235c0.641-0.086,1.061,0.047,1.377,0.276
			C70.045,28.186,69.251,28.863,68.822,29.901z M75.982,31.556c-0.826,0.365-2.107,0.279-3.307,0.273
			c0.612-1.593,1.403-3.006,1.93-4.684h2.756C77.031,28.746,76.002,29.646,75.982,31.556z M86.729,33.208
			c-1.846-0.635-4.215-0.743-6.062-1.379c0.055-1.597,0.707-2.597,1.104-3.856c1.729,0.473,4.103,0.304,5.51,1.103
			C87.078,30.435,86.488,31.41,86.729,33.208z M93.339,34.861c-1.382-0.181-2.073-1.049-3.583-1.102
			c0.32-1.151,0.689-2.252,0.828-3.582c2.084,0.12,3.258,1.15,4.959,1.652C94.887,32.917,93.646,33.425,93.339,34.861z
			 M107.111,47.809c-1.605-1.516-2.822-3.419-4.133-5.237c-1.121-1.537-2.732-2.591-3.854-4.13c-1.158-0.494-1.834-1.473-3.03-1.927
			c-0.092-1.379,0.646-1.928,0.549-3.306h0.83c0.756,0.896,1.875,1.428,3.027,1.929c0.305,0.98,1.666,0.907,1.654,2.202
			c0.865-0.131,1.078,0.391,1.652,0.552c0.523,0.762,1.168,1.401,1.93,1.928c-0.002,0.92,0.896,0.941,0.828,1.929
			c0.414,0.501,0.289,1.545,0.822,1.928C107.684,45.224,108.369,46.838,107.111,47.809z M93.889,53.871
			c-1.887-1.145-3.07-2.99-4.683-4.41c-0.649-0.822-1.24-1.695-2.204-2.204c-0.775-0.787-1.667-1.453-2.752-1.928
			c-1.516-1.516-4.126-1.938-6.062-3.032c-4.104-0.765-9.207-0.525-14.048-0.549c-3.698,0.893-7.657,1.527-11.57,2.203
			c-1.921,1.111-4.25,1.811-6.335,2.755c-2.059,0.973-4.042,2.018-5.787,3.306c-1.45,1.581-3.491,2.568-4.958,4.132
			c-1.053,0.417-1.795,1.14-2.478,1.929c-1.073,0.488-2.028,1.092-2.205,2.479c0.202,1.451,0.645,2.663,0.824,4.129
			c1.016,1.101,2.248,1.982,3.585,2.756c1.309,0.805,2.24,1.982,4.681,1.653c1.662-0.455,1.571-2.654,3.033-3.305
			c1.78-1.616,4.427-2.368,6.886-3.308c0.768,0.127-0.218-1.499,0.55-1.375c0.25-0.486,0.617-0.854,1.102-1.105
			c1.745-0.64,3.736-1.036,5.788-1.375c4.985,0.21,8.687-0.862,13.774-0.551c2.265,0.395,4.261,1.062,6.611,1.377
			c1.194,0.998,2.719,1.442,3.854,2.204c0.439,0.293,0.684,0.866,1.102,1.101c1.047,0.591,2.434,0.799,3.582,1.379
			c0.672,0.71,1.455,1.302,2.204,1.928c0.726,0.649,1.179,1.575,2.757,1.376c1.004-0.004,1.235-0.783,1.928-1.102
			c0.471-0.54,0.314-1.702,0.824-2.204c2.314,0.202,3.224-1.003,3.584-2.757C97.37,56.448,95.083,55.706,93.889,53.871z
			 M37.967,57.726c0.08,1.458-0.713,2.042-0.552,3.581c-1.349-0.396-2.052-1.438-3.305-1.93c1.291-1.367,3.01-2.317,4.409-3.579
			C39.06,56.092,38.339,57.43,37.967,57.726z M41.825,59.104c0.19-1.924,0.361-3.861,0.549-5.786
			c1.031-0.257,1.265-1.307,2.48-1.376c-0.027-0.335,0.401-0.17,0,0c-0.033,1.526-0.997,2.124-0.825,3.856
			c-0.081,1.183,1.298,0.905,1.377,1.928C43.743,57.718,43.379,59.004,41.825,59.104z M50.363,56.073
			c-1.56-0.091-2.129,0.809-3.581,0.825c0.027,0.333-0.399,0.17,0,0c0.554-1.005,0.926-2.193,1.101-3.581
			c0.705,0.489,1.205,1.183,2.205,1.376c0.704-0.122,1.268-0.384,1.65-0.824c0.584,0.243,0.818,0.837,1.656,0.824
			C52.977,55.747,51.025,55.266,50.363,56.073z M57.801,54.144c-0.851,0.343-1.959,0.43-3.032,0.55
			c1.678-1.354,1.754-4.306,2.483-6.612h1.926C58.585,50.118,56.6,51.913,57.801,54.144z M64.138,53.593
			c-1.103-0.092-1.53,0.49-2.755,0.277c0.32-2.16,1.058-3.902,1.377-6.062c0.222-0.053,0.275-0.277,0.552-0.275
			c0.665-0.528,2.211-0.175,3.305-0.277C65.502,49.084,64.213,50.729,64.138,53.593z M72.402,48.636
			c-0.519,0.308-0.586,1.066-1.103,1.375c-0.362,1.292-1.092,2.215-1.377,3.582c-0.733-0.002-1.571,0.105-1.929-0.275
			c0.311-2.167,0.906-4.049,1.376-6.061h3.582C73.619,47.898,72.523,47.995,72.402,48.636z M86.729,56.073
			c-2.535-0.494-4.664-1.397-7.44-1.654c-0.478-0.166,0.022-1.307-0.552-1.379c0.086-0.632-0.795-0.305-0.824-0.825
			c-1.676,0.265-1.446,2.255-3.579,1.377c0.351-1.762,1.024-3.197,1.376-4.957c0.044-0.322-0.059-0.491-0.275-0.554
			c0.006-0.266,0.338-0.213,0.551-0.273c2.728,0.579,4.548,2.065,6.611,3.307c0.355,0.47,0.571,1.082,1.379,1.1
			c0.017,0.81,0.627,1.023,1.1,1.377c0.279,0.549,0.479,1.178,1.103,1.378C86.098,55.456,87.475,55.824,86.729,56.073z
			 M82.868,68.469c-1.735-1.658-4.029-2.762-6.06-4.131c-1.494-0.343-2.818-0.854-4.406-1.102c-3.016-0.121-6.898,0.043-8.816,0.275
			c-7.994,0.955-15.163,2.931-19.558,7.438c-0.21,0.65-0.545,1.9,0,2.479c-1.188,0.188-1.536,1.219-1.655,2.479
			c0.41,1.426,1.445,2.231,2.204,3.306c1.167,0.671,1.784,1.893,3.585,1.93c1.965-0.236,2.15-2.256,3.853-2.757
			c4.264-1.151,10.246-3.116,15.704-2.479c1.469,0.172,2.719,0.917,4.131,1.103c1.252,0.861,2.433,1.793,3.582,2.754
			c1.233,0.877,1.982,2.241,3.854,2.48c1.891-0.594,3.274-1.688,4.136-3.307c1.292-1.277,3.021-2.119,3.305-4.406
			C86.553,71.398,84.395,70.254,82.868,68.469z M48.71,76.184c-0.586-0.174-0.257-1.694,0-1.93c0.687-0.043,0.852,0.434,1.377,0.551
			C49.967,75.6,48.902,75.457,48.71,76.184z M52.016,70.949c-0.677,0.033-1.327,0.041-1.652-0.278
			c0.366-0.55,1.223-0.61,1.929-0.825C52.327,70.34,51.957,70.43,52.016,70.949z M52.843,73.705
			c0.045-0.324,0.501-0.232,0.826-0.277C53.626,73.751,53.167,73.659,52.843,73.705z M54.495,73.428
			c0.317-0.604,0.713-1.126,0.553-2.201c0.426,0.398,0.577,1.071,0.551,1.926C55.104,73.116,55.016,73.49,54.495,73.428z
			 M55.599,70.949c-0.747-0.5,0.153-1.663,0.274-2.205C56.757,69.381,55.286,69.973,55.599,70.949z M79.287,75.631
			c-1.715-0.761-3.194-1.764-4.682-2.754c-1.828-0.561-3.848-0.926-5.783-1.379c-2.586-0.193-4.484,0.293-6.889,0.277
			c-0.776,0.231-1.702,0.319-2.479,0.551c-0.132-1.691,0.275-2.844,0.551-4.133c1.262-0.116,2.335-0.418,3.859-0.274
			c-0.172,2.003,0.021,3.649,2.205,3.308c1.606-0.139,1.496-1.994,1.927-3.308c2.647,0.288,5.073,0.802,7.163,1.653
			c0.326,0.589,0.295,1.537,0.824,1.926c0.844,0.199,1.006-0.279,1.654-0.271c0.322,0.586,0.916,0.924,1.377,1.375
			c0.481,0.471,0.885,0.909,1.375,1.379C80.079,74.582,79.471,74.895,79.287,75.631z M73.23,89.406
			c-1.551-2.951-3.902-5.098-6.889-6.613c-1.958-0.246-3.646-0.762-6.062-0.549c-0.168,0.016-0.326,0.039-0.275,0.275h-0.551
			c-0.843-0.201-0.811,0.475-1.654,0.272c-1.026,0.735-2.118,1.337-3.032,2.205c-0.491,0.471-1.125,1.394-1.375,1.653
			c-0.432,0.447-0.47,1.039-0.826,1.377c-0.115,3.152-0.165,6.432-0.276,10.192c0.41,0.417,0.446,1.208,0.551,1.927
			c2.151,4.095,5.943,6.549,12.947,5.787c1.193-0.644,2.343-1.332,3.581-1.929c2.81-2.791,4.741-6.46,4.407-12.397
			C73.344,91.128,73.413,90.143,73.23,89.406z M58.629,99.6c-0.364-0.1-0.436-0.485-0.828-0.553c0.087-0.373,0.69-0.229,1.104-0.273
			C58.759,98.994,58.614,99.219,58.629,99.6z M67.721,98.495c-1.863-0.562-2.758,0.476-2.758,2.479H62.21
			c0.199-3.381,2.266-4.893,2.753-7.99c-0.064-0.392-0.451-0.463-0.549-0.824c-1.188,0.098-2.002,0.568-2.48,1.377
			c-0.632-0.303,0.276-1.352,0.551-1.653c0.069-0.94,0.698-1.321,0.551-2.478c-2.07-0.051-2.465,1.572-3.857,2.203
			c0.03,0.334-0.401,0.168,0,0c0.471-1.549,1.456-2.586,2.205-3.857c4.663-0.346,7.175,1.459,7.714,5.232
			C68.998,95.182,68.432,96.911,67.721,98.495z"/>
	</g>
</g>
</svg>
