<?xml version="1.0" encoding="utf-8"?>
<!-- Generator: Adobe Illustrator 16.0.0, SVG Export Plug-In . SVG Version: 6.00 Build 0)  -->
<!DOCTYPE svg PUBLIC "-//W3C//DTD SVG 1.1//EN" "http://www.w3.org/Graphics/SVG/1.1/DTD/svg11.dtd">
<svg version="1.1" id="Layer_1" xmlns="http://www.w3.org/2000/svg"  x="0px" y="0px"
	 width="120px" height="120px" viewBox="4 4 120 120" style="enable-background:new 4 4 120 120;" xml:space="preserve">
<g id="wrench">
	<g>
		<path d="M117.5,31.5c-0.6-1.2-0.5-3-0.9-4.4c-0.3-1.6-0.899-2.9-3.1-2.5c-1.1,0-0.9,1.4-1.3,2.2c-0.5,0.6-1.101,1.2-1.3,2.2
			c-2.801,2.7-4.9,5.9-8.801,7.5c-2.199,0-4.1-0.3-5.899-0.6c-1.7-1-3.8-1.6-5-3.1c-0.2-2.7-1.3-4.5-1.3-7.5c0-1.1,1.1-1,1.6-1.6
			c0.3-0.8,1.2-1.1,1.6-1.9c1.5-0.8,2-2.6,3.801-3.1c1-1.2,2.199-2.2,3.8-2.8c0.899-1.4,3-1.6,3.1-3.8c-0.7-4-7.399-3.3-11.6-2.8
			C90.6,9.1,89.5,9.5,88.1,9.6c-2.5,1.3-3.899,3.6-6.6,4.7c-1.9,1.9-4.2,3.6-6.3,5.3c-0.7,1.4-1.8,2.4-2.5,3.8
			c-0.8,1.4-1.2,3.1-1.9,4.7c0.8,4.4-0.2,10.5,1.2,14.1c-2.1,3-5.5,4.7-7.5,7.8c-1.5,1.1-3.1,2.1-4.1,3.8c-1.3,1.3-2.9,2.4-4.1,3.8
			c-2.8,2.3-5,5.2-7.8,7.5c-0.8,1.801-2.6,2.601-3.4,4.4c-1.8,0.8-2.1,3.1-4.1,3.8c-2-0.5-3.9-1.1-5.6-1.899h-8.5
			c-1.2,0.6-3.3,0.199-4.1,1.3c-1.7,0-2.3,1.2-3.8,1.6c-2.2,2.2-3.7,5.101-5.3,7.8c-1.2,3.2-3.1,5.7-4.1,9.101
			c-0.1,0.2,0,0.6-0.3,0.6c-0.1,1.8,0.3,2.5,0,3.8C8.6,96.5,9,98.4,9.6,99c2.1,0.5,5.4-0.1,6.3-1.9c2-0.899,2.9-2.899,5.3-3.399
			c2.7,0.7,5,1.7,7.8,2.2c1.9,2.699,4.9,4.3,5,8.8c0,1.7-1.5,1.899-1.6,3.399c-0.9,0.9-1.8,1.801-2.2,3.101
			c-0.8,0.8-1.9,1.2-2.5,2.2c-0.7,1-1.9,1.399-1.9,3.1c0.5,0.6,0.7,1.6,1.6,1.9c0.8,0.3,1.9,0.399,3.1,0.3h6.9
			c1.4,0.1,2.4,0.5,4.1,0.3c0.8-0.4,1.8-0.5,2.8-0.6c4.9-2.7,7.3-7.801,10-12.5c0.7-3.301,1.9-6,2.5-9.4c0.1-3.5-0.1-6.6-0.6-9.4
			c0.6-1.6,2-2.399,3.1-3.399c1.3-1,2.5-2.101,3.8-3.101c2.1-2.399,4.6-4.3,6.9-6.6c1.9-2.6,4.4-4.6,6.9-6.6
			C79,65,81.1,62.6,83.8,60.8c0.7-0.8,0.7-2.2,1.601-2.8c1.199-0.3,1.199-2,2.5-2.2c0.1,0.6,1.399,0.1,1.6,0.6
			c0.7,0,0.9,0.5,1.9,0.3c3.5-0.2,6.1,0.5,9.699,0.3c1.2-0.6,2.601-0.9,4.101-1.3c1.399-1,2.7-2.1,4.399-2.8
			c3.101-3.9,7.7-6.3,9.101-11.9C118.6,37.5,118.1,34.5,117.5,31.5z M114.7,40.5c-1.7,3-4.5,4.9-6.601,7.5c-1,0-1.199,0.7-1.899,0.9
			c-0.5,0.5-1.5,0.4-1.9,0.9c-1-0.5-0.899-2.2-2.8-1.9c-1.4,0.6-0.2,2.8,0,3.8h-3.8c-1-1.2-2-2.4-2.5-4.1c-1.3-0.9-0.7-3.6-2.5-4.1
			c-3.4-0.4-2.2,5.1-1.3,6.6c-0.601,1-1.301-0.4-1.601-0.6c-0.3-0.8-0.899-1.2-0.899-2.2c-1.2-0.8-1.101-2.9-2.801-3.1
			c-3,1-0.5,4.6-0.3,6.9c-1.3,0-2.3-0.6-3.399,0c-0.801-1.1-1-2.8-2.801-2.8c-3,1.1-0.3,4.6,0.601,6.3c-0.5,1.5-2,2-2.5,3.4
			c-1.2-0.7-1.8-2.2-3.4-2.5c-0.6,0.2-1,0.7-1.6,0.9c-0.4,2.6,0.899,3.5,1.6,5c-0.8,0.5-1.399,1.3-2.2,1.9c-1.699-1.1-1.699-4-5-3.4
			c-0.699-0.1-0.3,0.9-0.899,0.9c-0.3,3,1.8,3.6,2.2,5.9c-1,0.399-1.4,1.3-2.5,1.6c-1.101-1.8-2.2-3.7-4.101-4.7
			c-0.9,0.1-1.1,0.9-1.6,1.6c0.1,1.5,0.7,2.5,0.9,3.8c0.6,1,1.5,1.9,1.9,3.1c-0.7,0.4-1.2,0.9-1.6,1.601
			C58.7,72.6,58.2,69.1,55.5,68.1c-1-0.1-0.9,0.9-1.5,1.2c-0.1,2.101,0.8,3.2,1.6,4.4c0.5,1.399,1.9,2,2.2,3.8
			c-0.9,0-1.2,0.7-1.6,1.3c-2.1-1.399-3.1-3.8-5.6-4.7C49.5,74,49.7,75,49,75.4c0.2,2.899,1.7,4.5,3.1,6.3
			C52,83,50.6,83.1,50.2,84.2c-0.1,2,0,3.7,0.3,5.3c0.4,0,0.2,0.5,0,0c-2-1.1-2.3-3.8-5-4.1C44.1,85.3,44,87.6,44.6,88.5
			c0.6,1.1,1,2.3,1.9,3.1c1,2.301,3.1,3.301,4.1,5.601c0.1,1.1-0.6,1.5-0.6,2.5c-1.5-0.8-2-2.601-3.1-3.8
			c-1.3-1.101-1.8-3-4.4-2.801c-2.4,2,0.7,4.7,1.3,6.601c1,0.6,1.3,2.1,2.2,2.8c0.4,1.3,1.5,1.8,1.9,3.1c-1,0.601-1.7-1.3-2.5-1.899
			c-0.9-0.9-1.5-2.101-2.8-2.5c-2.3,0.3-0.9,3.7,0,4.399c0.5,1.801,2,2.601,2.5,4.4c-0.7,0.2-0.8,1.1-1.3,1.6
			C42,111,42.2,108.4,40,108.2c-0.9-0.2-0.6,0.6-1.3,0.6c-0.4,2.4,1.1,2.9,1.6,4.4c-1,0.399-0.8-0.5-1.3-0.601
			c-0.6,0-0.4-0.899-1.2-0.6c-1.6,0.4-1.4,2.6-4.1,1.9c-0.1-1.101,1.1-1,1.3-1.9c0.8-0.2,0.7-1.4,1.6-1.6c0.8-1.4,2-2.4,2.8-3.801
			V104.4c-0.6-6.101-4.5-8.9-7.2-12.801c-4.1-1-7.3-2.899-12.5-2.8c-1.1,0.3-1.6,1.3-2.8,1.601C16.8,91,16.1,91,16,91.7
			c-0.6-0.101-1,1.5-1.2,0.6c2.1-5.399,4.8-10.2,8.5-14.1c2.7-1.5,6.9-1.4,10.6-0.9c1.5,0.5,2.8,1.2,4.4,1.601
			c1.5,0.3,1.6,2,3.8,1.6c2.2-0.3,2.4-2.6,4.1-3.4c1.1-1.399,2.3-2.699,3.4-4.1c1.6-0.9,2.2-2.8,3.8-3.8c1.1-1.4,2.5-2.5,3.4-4.101
			c2.4-1.8,4.4-3.899,6.6-5.899c1.2-0.9,2.2-1.9,3.4-2.8c1.2-1,2.9-1.5,3.8-2.8c1.101-0.3,2-0.7,2.801-1.2c1.8-1.4,3.3-3.2,4.699-5
			c0.2-0.7,0.301-1.6,0.601-2.2v-1.9c0.1-0.8-0.601-0.7-0.3-1.6c-0.301-0.9-1-1.5-1.601-2.2c-0.8-3.4-0.6-7.1-0.3-11
			c0.3-2.3,1.5-3.7,1.9-5.9c3.3-2.9,7.199-5.1,10.3-8.1c1.7-0.7,4-0.8,5.899-1.3c1.301-0.1,0,0.5,0,0.9C94,14.2,94,14.9,93.3,15
			c-1,0.5-1.5,1.7-2.5,2.2c-1.399,1.7-3,3.3-4.7,4.7c-0.1,1.6-0.8,2.6-0.6,4.4c0.6,3,1.2,6.1,1.9,9.1c0.1,0.6,0.8,0.6,0.899,1.3
			c1.8,1.5,4.2,2.3,5.9,3.8c2.899,0.6,5.899,1,9.399,0.9c4.601-2,7.9-5.2,10-9.7c0.5,0.5,0.4,1.7,0.601,2.5c0.3,0.7,0.2,1.9,0.6,2.5
			v3.8H114.7z"/>
	</g>
</g>
</svg>
