<?xml version="1.0" encoding="utf-8"?>
<!-- Generator: Adobe Illustrator 16.0.0, SVG Export Plug-In . SVG Version: 6.00 Build 0)  -->
<!DOCTYPE svg PUBLIC "-//W3C//DTD SVG 1.1//EN" "http://www.w3.org/Graphics/SVG/1.1/DTD/svg11.dtd">
<svg version="1.1" id="Layer_1" xmlns="http://www.w3.org/2000/svg"  x="0px" y="0px"
	 width="120px" height="120px" viewBox="0 0 120 120" enable-background="new 0 0 120 120" xml:space="preserve">
<g id="file-xls">
	<g>
		<path d="M98.352,47.067c0.084-1.725,0.722-2.885,0.854-4.559c0.224-4.439-0.052-7.054,0-12.246
			c-0.036-4.425-0.013-8.916-0.854-12.535c-1.795,0.013-3.334,0.271-4.847,0.57c-0.817-0.514-1.646-1.011-3.131-0.854
			c-15.56-0.019-30.666-0.479-46.431-0.288c-0.411,0.158-0.695,0.444-0.853,0.854c-0.666,0.856-1.271,1.771-2,2.562
			c-0.531,0.503,0.341,0.833-0.281,1.427c-0.504,0.257-0.885,0.632-1.141,1.139c-1.531,1.502-3.023,3.052-3.986,5.127
			c-1.013,0.506-1.179,1.863-1.993,2.562c-0.807,0.715-0.907,2.136-1.712,2.852c-0.066,1.445-1.229,1.808-1.708,2.849
			c-0.651,0.96-1.864,1.362-1.995,2.847v6.552c0.195,1.704,0.758,3.042,0.856,4.842c-1.026,14.455-0.141,30.813-0.856,45.58
			c0.17,2.396-0.35,5.478,0.286,7.404v1.996c-0.169,0.504,0.834,1.186,0,1.422c-0.446,1.087-0.697,1.812,0,2.854
			c1.263,1.107,3.59,0.281,5.412,0.281c1.604-0.574,3.921-0.443,5.696-0.854c9.252-0.153,15.906,0.411,24.213-0.281
			c7.928-0.824,16.438-0.513,24.782-0.289c2.571,0.354,6.118,0.995,8.548,0.57c0.717-0.515,1.25-1.218,1.424-2.278
			c0.188-1.139,0.855-1.8,1.139-2.847C100.262,84.301,98.818,64.905,98.352,47.067z M43.943,26.556
			c-0.61,0.136-0.546-0.404-0.573-0.852C43.724,25.825,43.956,26.067,43.943,26.556z M41.664,27.696h0.854
			c0.375,1.43,1.373,2.238,2.277,3.132c-0.223,1.173,0.439,1.464,0.285,2.562c-1.337-0.084-1.153-1.692-2.279-1.988
			c-0.41-1.014-1.152-1.693-1.992-2.279C40.977,28.526,41.409,28.199,41.664,27.696z M40.81,33.39
			c0.354,0.885,0.941,1.531,1.709,1.996c-0.256,0.773-1.05-0.238-1.143-0.568c-0.416-0.247-0.898-0.426-0.855-1.138
			c-0.765-0.56-1.359-1.298-1.708-2.278C39.92,31.623,39.897,32.976,40.81,33.39z M36.536,34.247
			c0.685,0.552,0.943,1.523,1.707,1.995c-0.762,0.568-2.508,0.146-3.415,0.568C35.226,35.789,36.062,35.195,36.536,34.247z
			 M92.654,104.893c-1.459,0.127-1.562-1.103-2.85-1.14h-5.982c-10.951-1.046-21.321,0.876-32.188,0.854
			c-1.149,0.267,0.359-1.543-0.568-1.994c-1.285-0.141-0.803,1.479-1.427,1.994h-3.987c-1.301-0.203-2.889,0.322-3.417,0
			c0.394-1.648,1.757-3.356,1.136-5.129c-1.828-0.312-2.045,0.991-2.85,1.711c-0.229,1.287-1.132,1.901-1.136,3.418
			c-1.216-0.116-2.934,0.274-3.702-0.283c0.226-2.524,2.326-4.393,1.707-6.838c-2.279,0.188-2.658,2.279-3.417,3.988
			c-1.05-0.604-0.442-2.392,0-3.136c0.7-0.726,0.649-2.198,1.423-2.851c0.437-2.412,1.811-3.887,1.994-6.551
			c-0.852-0.711-1.919,0.191-1.994,1.141c-0.582,0.191-0.934,2.074-1.423,1.427v-2.276c0.36-1.26,1.084-2.146,1.71-3.139
			c0.432-2.318,1.504-4.003,1.991-6.265c0.237-2.002,2.037-4.319,0.856-5.985c-1.262-0.12-1.994,0.284-2.562,0.855
			c-0.692,0.091-1.263,1.755-1.714,1.141c-0.144-11.064,0.506-21.335,0.285-32.472c0.178-1.319-0.637-1.643-0.567-2.851h4.271
			c1.931-0.349,3.832-0.73,6.27-0.569c1.9-0.567,4.258-0.679,5.697-1.711c0.259-0.496,0.096-1.419,0.566-1.707
			c-0.445-2.502-0.651-5.239-1.138-7.691c-0.413-2.529-1.228-4.664-1.425-7.408c2.907-0.171,6.148-1.069,9.117-0.284
			c10.744-0.203,19.887,1.196,30.479,1.141c1.885,0.155,4.151,0.966,5.984,0.284c0.004,1.238,0.096,2.562-0.289,3.418
			c0.545,1.074,0.028,3.202,0.572,4.275c0.455,22.709,0.156,46.179,0.854,68.646C94.109,100.843,94.527,104.014,92.654,104.893z
			 M79.264,66.15c-1.725-0.739-3.589-1.344-4.271-3.135c0.341-0.701,0.973-1.11,1.708-1.425c1.863-0.368,2.706,0.919,3.99,0.287
			c0.123-2.782-2.483-2.833-4.846-3.132c-1.496,0.212-2.369,1.043-3.416,1.707c-0.039,1.006-0.816,1.275-0.854,2.277
			c-0.223,1.074,0.343,1.363,0.281,2.278c1.067,1.494,2.602,2.529,4.271,3.421c0.97,0.358,1.647,1.012,2.563,1.424
			c0.506,0.819,1.834,0.828,1.996,1.994h-3.135c-1.447-0.308-1.755,0.526-2.279,1.139c-0.116,0.688,0.521,0.623,0.285,1.424
			c2.062,1.152,6.453,0.624,7.976-0.568c0.418-1.187,0.772-2.324,0.284-3.701C82.609,68.504,80.552,67.714,79.264,66.15z
			 M52.771,66.15c0.769-2.271,2.755-3.319,2.565-6.546c-2.963-1.312-3.504,1.901-4.844,3.128c-1.145-0.846-1.318-2.669-2.562-3.417
			c-1.334-0.29-1.621,0.471-2.279,0.855c-0.352,3.482,2.02,4.248,2.562,6.836c-0.733,1.979-3.347,4.279-1.709,6.835
			c3.3,0.64,2.809-2.504,4.271-3.702c1.072,1.494,1.712,3.42,3.99,3.702c0.709-0.147,1.015-0.692,1.426-1.138
			c0.187-1.801-0.787-2.439-1.426-3.418C54.12,68.223,53.323,67.309,52.771,66.15z M64.165,71.564
			c0.095-1.045-0.313-1.582-0.567-2.278c-0.314-3.103,0.776-7.609-0.854-9.398c-1.062-0.585-1.865,0.02-2.564,0.566
			c-1.068,3.123-0.574,8.532,0,10.827c0.092,0.365,0.221,0.601,0.283,0.851c0.124,0.492,0.154,0.675,0.29,1.142
			c0.307,1.097,0.542,1.703,1.139,2.278c2.444,0.173,3.979-0.579,5.979-0.854c1.674,0.058,3.381,0.153,3.987-0.856V71.85
			C70.307,70.236,66.325,71.215,64.165,71.564z"/>
	</g>
</g>
</svg>
