<?xml version="1.0" encoding="utf-8"?>
<!-- Generator: Adobe Illustrator 16.0.0, SVG Export Plug-In . SVG Version: 6.00 Build 0)  -->
<!DOCTYPE svg PUBLIC "-//W3C//DTD SVG 1.1//EN" "http://www.w3.org/Graphics/SVG/1.1/DTD/svg11.dtd">
<svg version="1.1" id="Layer_1" xmlns="http://www.w3.org/2000/svg"  x="0px" y="0px"
	 width="120px" height="120px" viewBox="0 0 120 120" enable-background="new 0 0 120 120" xml:space="preserve">
<g id="yinyang">
	<g>
		<path d="M104.914,55.281c-2.039-11.148-7.359-19.023-14.393-25.188c-7.045-6.062-17.09-10.13-30.716-9.129
			c-0.168,0.012-0.328,0.041-0.276,0.276h-0.555c-12.447,1.479-20.692,7.167-28.228,13.56c-3.128,3.881-6.511,7.509-8.026,13.007
			c-0.681,0.888-0.694,2.439-1.105,3.597c-0.168,1.493-0.569,2.753-0.553,4.428c-0.422,2.902-0.603,6.04-0.554,9.411
			c1.849,11.804,6.21,21.09,12.729,28.229c3.53,3.297,7.297,6.356,12.177,8.303c4.951,2.117,10.163,3.808,15.773,4.979
			c5.596,0.412,11.129-0.104,16.054-1.104c0.997-0.566,2.469-0.668,3.317-1.385c1.219-0.442,2.483-0.836,3.322-1.66
			c2.462-0.857,4.042-2.599,6.09-3.873c0.547-1.113,1.979-1.34,2.488-2.491c1.021-0.64,1.355-1.964,2.49-2.49
			c0.333-1.329,1.643-1.678,1.938-3.044c0.9-0.76,1.436-1.884,1.938-3.043C103.549,79.818,106.908,68.043,104.914,55.281z
			 M39.327,52.238c0.779-1.41,1.546-2.934,2.766-3.875c0.097-0.073,0.48,0.09,0.555,0c0.679-0.83,2.357-1.543,3.873-1.938h0.555
			c0.964-0.766,2.393,0.362,3.596,0.277c2.058,1.631,4.443,2.938,4.153,6.916c-1.358,4.312-6.695,5.979-12.456,4.982
			c-0.399-0.609-1.48-0.545-1.659-1.383c-0.783-0.232-0.941-1.088-1.383-1.659V52.238z M99.658,73.548
			c-0.271,0.005-0.217,0.339-0.279,0.552c-0.758,2.287-2.182,3.908-3.322,5.812c-0.945,2.004-1.994,3.906-3.041,5.811
			c-0.271,0.008-0.217,0.342-0.279,0.555c-2.166,1.892-4.062,4.057-6.361,5.812c-1.848,2.122-4.641,3.298-6.918,4.984
			c-3.604,1.1-6.825,2.579-10.241,3.87c-3.323,0.098-6.36-0.094-9.133-0.551c-2.668-0.746-5.137-1.688-7.746-2.49
			c-2.677-0.646-4.651-1.995-7.196-2.771c-0.859-0.892-1.951-1.558-3.046-2.212c-1.201-1.566-2.853-2.682-3.598-4.704
			c-1.81-0.956-2.948-2.59-4.428-3.878c-2.685-5.615-6.52-10.081-7.193-17.711c-0.044-1.17,0.434-0.004,0.551,0.279
			c0.406,0.238,0.877,0.412,0.832,1.104c0.764,0.528,1.406,1.178,1.937,1.938c1.471,1.017,2.829,2.151,4.153,3.321
			c1.748,0.739,3.2,1.777,4.979,2.489c1.863,0.63,3.945,1.034,6.087,1.386h4.428c0.664-0.168,1.265-0.398,2.213-0.275
			c1.535-0.68,3.544-0.887,4.706-1.939c1.766-0.447,2.628-1.799,4.151-2.49c2.151-2.332,4.062-5.688,5.812-8.854
			c0.351-0.628,0.491-1.374,0.832-1.937c0.797-1.33,2.158-2.734,3.319-4.152c2.531-1.709,5.151-3.331,8.854-3.875
			c0.447,0.082,0.479-0.261,0.828-0.274c9.74-0.883,14.08,3.633,17.713,8.856c0.449,1.672,1,3.242,1.388,4.979L99.658,73.548
			L99.658,73.548z M83.604,62.754c-0.164,0.014-0.326,0.041-0.273,0.277c-1.467,0.01-1.953,0.998-3.045,1.385
			c-1.393,2.021-3.08,3.742-3.321,6.916c0.399,1.354,1.491,2.016,2.214,3.044c1.119,0.731,1.692,2,3.322,2.215
			c2.527,0.224,3.995-0.618,5.535-1.384c1.188-1.116,2.648-1.964,3.045-3.875c0.518-0.934,0.332-3.182,0-4.15
			C89.758,64.532,87.878,62.445,83.604,62.754z"/>
	</g>
</g>
</svg>
