<?xml version="1.0" encoding="utf-8"?>
<!-- Generator: Adobe Illustrator 16.0.0, SVG Export Plug-In . SVG Version: 6.00 Build 0)  -->
<!DOCTYPE svg PUBLIC "-//W3C//DTD SVG 1.1//EN" "http://www.w3.org/Graphics/SVG/1.1/DTD/svg11.dtd">
<svg version="1.1" id="Layer_1" xmlns="http://www.w3.org/2000/svg"  x="0px" y="0px"
	 width="120px" height="120px" viewBox="0 0 120 120" enable-background="new 0 0 120 120" xml:space="preserve">
<g id="file-zip">
	<g>
		<path d="M98.35,47.065c0.084-1.724,0.725-2.886,0.857-4.559c0.219-4.437-0.057-7.051,0-12.245
			c-0.041-4.426-0.018-8.914-0.857-12.537c-1.791,0.02-3.336,0.275-4.843,0.572c-0.815-0.512-1.649-1.013-3.136-0.855
			c-15.555-0.015-30.665-0.479-46.428-0.283c-0.412,0.157-0.695,0.443-0.857,0.852c-0.661,0.859-1.266,1.771-1.992,2.566
			c-0.535,0.501,0.34,0.826-0.286,1.423c-0.502,0.257-0.88,0.638-1.139,1.14c-1.536,1.502-3.028,3.051-3.985,5.126
			c-1.014,0.508-1.18,1.86-1.998,2.563c-0.803,0.717-0.901,2.134-1.707,2.852c-0.07,1.447-1.234,1.807-1.71,2.846
			c-0.651,0.962-1.862,1.368-1.995,2.849v6.551c0.194,1.707,0.76,3.04,0.854,4.843c-1.023,14.454-0.14,30.814-0.854,45.579
			c0.169,2.396-0.346,5.478,0.287,7.405v1.993c-0.17,0.507,0.834,1.188,0,1.424c-0.445,1.091-0.696,1.812,0,2.854
			c1.263,1.11,3.589,0.279,5.414,0.283c1.602-0.578,3.92-0.445,5.694-0.856c9.253-0.154,15.903,0.411,24.214-0.283
			c7.926-0.824,16.438-0.511,24.784-0.283c2.569,0.353,6.112,0.992,8.544,0.566c0.715-0.517,1.25-1.218,1.421-2.278
			c0.192-1.14,0.858-1.802,1.142-2.847C100.262,84.301,98.814,64.905,98.35,47.065z M43.943,26.556
			c-0.609,0.137-0.545-0.405-0.571-0.853C43.723,25.824,43.957,26.066,43.943,26.556z M41.662,27.696h0.854
			c0.375,1.427,1.373,2.236,2.279,3.132c-0.223,1.173,0.438,1.462,0.289,2.563c-1.34-0.089-1.156-1.692-2.279-1.991
			c-0.414-1.01-1.158-1.695-1.997-2.279C40.974,28.526,41.408,28.199,41.662,27.696z M40.808,33.392
			c0.354,0.883,0.938,1.53,1.708,1.993c-0.258,0.773-1.047-0.239-1.137-0.565c-0.414-0.251-0.904-0.428-0.855-1.14
			c-0.766-0.562-1.361-1.297-1.709-2.279C39.919,31.621,39.9,32.973,40.808,33.392z M36.536,34.246
			c0.687,0.55,0.946,1.522,1.71,1.996c-0.764,0.566-2.516,0.146-3.419,0.568C35.23,35.791,36.06,35.197,36.536,34.246z
			 M92.65,104.891c-1.453,0.129-1.558-1.099-2.85-1.139h-5.979c-10.953-1.05-21.325,0.873-32.188,0.854
			c-1.153,0.271,0.359-1.541-0.57-1.994c-1.28-0.139-0.8,1.481-1.425,1.994h-3.99c-1.298-0.197-2.887,0.322-3.416,0
			c0.393-1.648,1.762-3.354,1.14-5.123c-1.829-0.314-2.046,0.988-2.849,1.705c-0.23,1.289-1.133,1.903-1.141,3.418
			c-1.212-0.114-2.934,0.279-3.699-0.281c0.222-2.521,2.325-4.393,1.705-6.838c-2.277,0.188-2.656,2.279-3.414,3.988
			c-1.055-0.604-0.443-2.389,0-3.134c0.695-0.726,0.648-2.2,1.423-2.851c0.435-2.413,1.81-3.885,1.991-6.551
			c-0.851-0.713-1.92,0.188-1.991,1.142c-0.585,0.194-0.936,2.077-1.423,1.424v-2.28c0.357-1.254,1.08-2.145,1.709-3.135
			c0.432-2.318,1.502-4.001,1.992-6.266c0.236-2,2.035-4.315,0.854-5.981c-1.26-0.122-1.994,0.284-2.562,0.856
			c-0.69,0.084-1.26,1.75-1.71,1.137c-0.145-11.064,0.503-21.333,0.286-32.473c0.176-1.314-0.639-1.639-0.568-2.85h4.271
			c1.928-0.35,3.828-0.728,6.264-0.57c1.9-0.566,4.262-0.678,5.699-1.707c0.26-0.499,0.1-1.421,0.568-1.711
			c-0.443-2.497-0.652-5.234-1.139-7.686c-0.416-2.531-1.226-4.667-1.424-7.412c2.906-0.169,6.143-1.07,9.115-0.285
			c10.745-0.205,19.883,1.195,30.48,1.141c1.887,0.156,4.148,0.968,5.979,0.283c0.007,1.24,0.095,2.562-0.283,3.42
			c0.542,1.071,0.027,3.201,0.57,4.275c0.456,22.707,0.16,46.177,0.854,68.646C94.111,100.843,94.529,104.014,92.65,104.891z
			 M49.639,59.314c-1.32,0.013-1.847,0.809-1.711,2.279c0.835,1.445,3.45,1.109,5.697,1.14c-0.095,0.742-0.717,1.213-1.139,1.709
			c-0.411,0.483-0.855,1.084-1.423,1.426c-0.583,1.314-1.481,2.316-2.278,3.416c-0.993,2.229-3.993,4.863-2.279,7.979
			c1.065,0.742,2.276,0.229,3.419,0.282c1.118,0.052,1.874,0.128,2.849,0c1.316-0.171,2.224,0.131,3.418,0
			c-0.129-0.791,1.553,0.226,1.425-0.569c0.56-0.197,0.759-0.761,0.853-1.425c-0.408-1.202-1.297-1.931-3.131-1.708
			c-1.286,0.059-3.424,0.745-4.561,0c2.19-3.792,4.82-7.146,7.691-10.256c0.09-1.798,0.014-3.43-0.853-4.272
			C55.535,58.891,51.704,58.816,49.639,59.314z M78.125,60.455c-1.449-0.354-3.482-0.127-4.842-0.571
			c-0.946,0.097-1.014,1.079-1.71,1.425c-0.195,1.621,0.483,2.366,0.282,3.99c-0.312,1.106-0.193,2.651-0.568,3.701
			c0.752,3.141-0.723,8.514,3.42,8.264c0.061-0.225,0.238-0.334,0.57-0.289c1.402-1.826-0.588-3.802,0-6.553
			c2.57-0.654,5.27-1.188,6.55-3.134C82.229,63.376,79.871,62.22,78.125,60.455z M74.986,67.003v-3.7
			c2.363-0.367,2.68,1.312,3.709,2.28C78.031,66.627,76.395,66.699,74.986,67.003z M65.589,62.163h-1.706
			c-0.67,0.09-0.641,0.882-1.139,1.14v7.979c-0.071,2.729-0.219,5.528,2.279,5.692c1.965-0.289,1.77-2.313,1.426-4.271
			C66.129,69.223,67.221,64.331,65.589,62.163z"/>
	</g>
</g>
</svg>
