<?xml version="1.0" encoding="utf-8"?>
<!-- Generator: Adobe Illustrator 16.0.0, SVG Export Plug-In . SVG Version: 6.00 Build 0)  -->
<!DOCTYPE svg PUBLIC "-//W3C//DTD SVG 1.1//EN" "http://www.w3.org/Graphics/SVG/1.1/DTD/svg11.dtd">
<svg version="1.1" id="Layer_1" xmlns="http://www.w3.org/2000/svg"  x="0px" y="0px"
	 width="120px" height="120px" viewBox="4 4 120 120" style="enable-background:new 4 4 120 120;" xml:space="preserve">
<g id="zoom-out">
	<g>
		<path d="M108.512,88.68c-2.031-1.753-4.297-3.277-6.094-5.267c-1.693-2.188-4.523-3.237-6.377-5.267
			c-2.732-1.146-4.643-3.119-7.482-4.156c-0.855-1.083-2.529-1.35-3.322-2.494c-0.723-0.053-1.202-0.76-1.666-1.107
			c-0.573-0.434-1.358-0.681-1.663-1.388c4.073-4.612,6.625-10.744,7.206-18.845c-1.161-5.488-2.727-10.578-5.266-14.688
			c-0.427-1.053-0.803-2.155-1.109-3.326c-2.072-1.862-4.262-4.467-6.648-5.543c-0.089-0.041-0.178-0.485-0.279-0.554
			c-0.123-0.085-0.414,0.064-0.556,0c-0.086-0.041-0.173-0.487-0.276-0.554c-0.123-0.085-0.412,0.063-0.553,0
			c-0.094-0.042-0.168-0.489-0.275-0.554c-0.256-0.157-0.617-0.163-0.834-0.278c-1.103-0.595-2.586-1.46-3.324-1.939
			c-0.59-0.384-1.426-0.612-1.94-0.831c-1.548-0.664-3.065-1.341-4.711-1.94c-2.641-0.96-5.312-1.872-8.317-2.218H51.98
			c-1.097,0.383-2.559,0.4-3.884,0.554c-0.982,0.77-2.802,0.707-3.602,1.664c-1.361,0.392-2.908,0.599-3.88,1.384
			c-3.017,0.495-4.875,2.146-7.76,2.771c-0.282,0.736-1.282,0.752-1.661,1.387c-0.889,0.127-0.979,1.054-1.941,1.108
			c-0.77,1.357-2.368,1.88-3.604,2.772c-1.145,2.181-2.664,3.988-3.602,6.374c-0.693,0.971-0.828,2.498-1.664,3.326
			c0.182,1.014-0.602,1.063-0.554,1.939c-0.585,0.341-0.177,1.668-0.831,1.94c-1.037,5.86-0.096,12.034-0.279,18.568
			c0.521,2.992,1.527,5.492,2.494,8.039c0.965,0.607,1.189,1.952,2.218,2.493c0.573,0.998,1.648,1.496,2.218,2.494
			c2.645,1.699,5.013,3.671,8.039,4.989c2.667,1.672,5.811,2.869,9.145,3.88c1.044,0.249,2.348,0.239,3.327,0.556
			c1.146-0.24,2.628-0.145,3.602-0.556c0.12,0.62,1.366,0.112,1.94,0.276c0.119,0.619,1.366,0.112,1.94,0.278
			c1.692-0.217,2.592,0.361,4.155,0.275c1.556-0.291,3.337-0.359,4.99-0.554c0.641-0.377,1.236-0.799,2.219-0.832
			c0.937-0.631,1.771-1.371,3.046-1.662c0.778-0.793,1.766-1.379,3.051-1.663c0.469,1.102,1.307,1.834,1.66,3.048
			c0.715,0.949,1.508,1.818,1.94,3.048c1.608,1.623,2.418,4.049,4.157,5.545c0.972,2.261,2.642,3.823,3.879,5.819
			c1.521,1.714,2.902,3.562,4.16,5.542c1.951,1.739,3.779,3.61,5.817,5.267c0.531,0.764,1.134,1.455,1.665,2.219
			c0.805,0.58,0.807,1.961,2.217,1.938c1.75,0.183,2.375-0.765,3.323-1.385c0.616-1.052,2.276-1.054,3.328-1.664
			c2.647-2.987,6.001-5.271,8.312-8.591c0.602-1.617,0.988-3.448,1.938-4.713C111.669,93.469,109.98,91.182,108.512,88.68z
			 M76.365,56.807c-0.411,0.234-0.4,0.894-0.557,1.386c-0.406,0.236-0.596,0.697-0.556,1.385c-0.774,0.518-1.067,1.518-1.381,2.496
			c-1.131,1.365-1.884,3.109-3.054,4.434c-2.182,2.896-5.053,5.107-7.48,7.76c-1.014-0.092-1.541,0.308-2.218,0.553
			c-0.503,0.421-1.554,0.296-1.94,0.834c-3.102-0.055-6.104-0.012-8.869,0.275c-7.107-1.574-12.555-4.812-16.903-9.146
			c-0.233-0.876-0.811-1.407-1.389-1.938c-0.103-0.914-0.644-1.385-1.107-1.941c0.039-0.688-0.145-1.149-0.553-1.385
			c-0.304-2.005-0.638-3.981-0.833-6.097c0.109-3.77,0.386-7.375,1.11-10.533c0.512-0.502,0.359-1.672,0.83-2.216
			c0.418-0.507,0.294-1.554,0.83-1.94c0.288-1.561,1.241-2.454,1.666-3.88c5.164-3.887,10.497-7.608,19.121-8.037
			c0.323,0.045,0.495-0.061,0.556-0.278c3.522,0.172,6.158,1.231,9.699,1.387c1.551,0.574,2.684,1.564,4.159,2.217
			c0.912,1.117,2.778,1.283,3.878,2.217c2.709,3.292,4.493,7.516,5.818,12.194C77.1,50.151,76.945,53.693,76.365,56.807z
			 M80.521,82.581c0.067-0.301,0.551-0.188,0.556-0.556C81.828,82.271,80.846,83.256,80.521,82.581z M105.744,98.656
			c-0.771,0.803-1.518,1.625-2.219,2.494c-1.248,0.231-1.56,1.397-2.219,2.217c-0.927,0.273-1.522,0.879-2.492,1.109
			c-0.998,0.162-1.342-0.322-1.94-0.557c-1.035-0.296-0.792,0.689-1.664,0.557c-1.384-3.146-2.911-6.144-4.987-8.593
			c-0.986-1.321-1.798-2.821-3.05-3.881c-0.229-0.877-0.81-1.409-1.385-1.938c-0.412-0.695-0.69-1.526-1.386-1.94
			c0.869-0.517,1.972-0.8,2.771-1.386c0.673-0.621,1.423-1.163,2.218-1.661c0.098-0.364,0.486-0.438,0.557-0.833
			c2.729,0.316,3.572,2.523,5.818,3.326c1.916,0.945,3.476,2.252,5.543,3.048c1.406,1.825,3.301,3.163,4.711,4.989
			C106.225,96.921,105.708,97.514,105.744,98.656z M58.353,49.602c-0.874,0.317-0.677-0.435-1.112-0.555
			c-0.473,0.635-2.115,0.102-3.047,0.277c-1.019-0.09-2.453,0.235-3.049-0.277c-0.366,0.003-0.254,0.486-0.553,0.555
			c-3.704,0.176-8.498-0.737-9.979,1.663c-0.69,1.733,0.429,3.485,0.831,4.987c0.577,0.534,1.344,0.875,1.941,1.386
			c4.743,0.893,10.82,0.451,16.351,0.555c0.456-0.468,1.505-0.344,1.939-0.833c0.405-0.61,0.736-1.296,1.94-1.108
			c1.271-0.669,2.348-1.534,2.492-3.325c-0.015-1.553-1.045-2.093-1.659-3.049C62.779,49.422,60.422,49.653,58.353,49.602z"/>
	</g>
</g>
</svg>
