<?xml version="1.0" encoding="utf-8"?>
<!-- Generator: Adobe Illustrator 16.0.0, SVG Export Plug-In . SVG Version: 6.00 Build 0)  -->
<!DOCTYPE svg PUBLIC "-//W3C//DTD SVG 1.1//EN" "http://www.w3.org/Graphics/SVG/1.1/DTD/svg11.dtd">
<svg version="1.1" id="Layer_1" xmlns="http://www.w3.org/2000/svg"  x="0px" y="0px"
	 width="120px" height="120px" viewBox="4 4 120 120" style="enable-background:new 4 4 120 120;" xml:space="preserve">
<g id="zoom-in">
	<g>
		<path d="M108.51,88.68c-2.033-1.754-4.298-3.273-6.095-5.267c-1.69-2.188-4.522-3.237-6.373-5.265
			c-2.735-1.148-4.646-3.119-7.483-4.157c-0.86-1.081-2.529-1.349-3.326-2.495c-0.719-0.051-1.196-0.76-1.664-1.107
			c-0.574-0.432-1.359-0.68-1.661-1.386c4.071-4.612,6.625-10.743,7.206-18.847c-1.163-5.486-2.727-10.577-5.266-14.688
			c-0.426-1.053-0.803-2.155-1.107-3.326c-2.077-1.861-4.266-4.465-6.653-5.543c-0.088-0.041-0.178-0.485-0.274-0.553
			c-0.127-0.087-0.414,0.062-0.558,0c-0.089-0.042-0.172-0.487-0.274-0.556c-0.127-0.083-0.416,0.064-0.558,0
			c-0.092-0.041-0.168-0.488-0.274-0.555c-0.254-0.157-0.619-0.163-0.834-0.278c-1.103-0.593-2.582-1.459-3.326-1.938
			c-0.59-0.384-1.424-0.612-1.938-0.83c-1.546-0.666-3.064-1.342-4.713-1.942c-2.637-0.958-5.312-1.869-8.314-2.217h-3.049
			c-1.097,0.384-2.554,0.401-3.88,0.555c-0.987,0.769-2.804,0.708-3.601,1.662c-1.362,0.395-2.913,0.602-3.882,1.387
			c-3.015,0.494-4.876,2.146-7.758,2.773c-0.281,0.735-1.282,0.75-1.664,1.384c-0.89,0.129-0.975,1.055-1.941,1.109
			c-0.769,1.356-2.37,1.879-3.601,2.773c-1.146,2.18-2.663,3.988-3.605,6.373c-0.691,0.969-0.829,2.498-1.663,3.326
			c0.185,1.012-0.6,1.062-0.553,1.938c-0.582,0.341-0.179,1.67-0.831,1.941c-1.037,5.86-0.093,12.032-0.277,18.569
			c0.52,2.99,1.527,5.491,2.492,8.036c0.964,0.609,1.189,1.954,2.219,2.496c0.573,0.998,1.645,1.495,2.218,2.493
			c2.641,1.698,5.013,3.67,8.036,4.988c2.668,1.672,5.811,2.871,9.144,3.88c1.046,0.249,2.348,0.238,3.327,0.555
			c1.146-0.236,2.632-0.14,3.602-0.555c0.12,0.621,1.365,0.111,1.941,0.275c0.119,0.621,1.366,0.115,1.941,0.278
			c1.691-0.214,2.591,0.364,4.157,0.274c1.556-0.288,3.335-0.356,4.988-0.553c0.639-0.375,1.237-0.795,2.217-0.83
			c0.938-0.631,1.772-1.371,3.05-1.664c0.778-0.791,1.762-1.377,3.049-1.662c0.469,1.104,1.309,1.836,1.664,3.05
			c0.711,0.95,1.506,1.817,1.938,3.048c1.613,1.623,2.42,4.049,4.16,5.541c0.969,2.266,2.641,3.827,3.88,5.822
			c1.517,1.714,2.899,3.561,4.157,5.543c1.953,1.74,3.778,3.609,5.815,5.266c0.531,0.764,1.134,1.453,1.666,2.217
			c0.808,0.58,0.81,1.959,2.216,1.938c1.752,0.185,2.377-0.765,3.326-1.385c0.615-1.048,2.275-1.05,3.324-1.662
			c2.65-2.987,6.003-5.269,8.314-8.591c0.601-1.617,0.989-3.447,1.939-4.711C111.666,93.469,109.98,91.184,108.51,88.68z
			 M76.363,56.809c-0.412,0.233-0.401,0.892-0.553,1.383c-0.412,0.237-0.597,0.7-0.558,1.387c-0.776,0.516-1.067,1.518-1.385,2.495
			c-1.126,1.364-1.88,3.111-3.05,4.434c-2.184,2.896-5.055,5.107-7.482,7.76c-1.015-0.092-1.541,0.309-2.218,0.556
			c-0.504,0.418-1.552,0.294-1.937,0.831c-3.105-0.057-6.108-0.01-8.87,0.277c-7.111-1.574-12.555-4.813-16.905-9.146
			c-0.23-0.878-0.81-1.408-1.387-1.941c-0.102-0.912-0.647-1.385-1.107-1.938c0.04-0.688-0.145-1.15-0.555-1.385
			c-0.305-2.008-0.639-3.982-0.834-6.098c0.113-3.771,0.389-7.374,1.111-10.532c0.513-0.505,0.359-1.673,0.831-2.218
			c0.418-0.502,0.296-1.552,0.831-1.939c0.285-1.562,1.242-2.451,1.662-3.88c5.167-3.887,10.502-7.607,19.125-8.037
			c0.322,0.043,0.491-0.061,0.554-0.275c3.523,0.171,6.159,1.23,9.699,1.383c1.551,0.577,2.688,1.565,4.158,2.218
			c0.915,1.118,2.779,1.283,3.881,2.218c2.71,3.294,4.491,7.515,5.818,12.195C77.098,50.151,76.945,53.694,76.363,56.809z
			 M80.521,82.583c0.067-0.303,0.549-0.19,0.552-0.556C81.826,82.271,80.84,83.258,80.521,82.583z M105.74,98.657
			c-0.768,0.804-1.516,1.627-2.217,2.493c-1.246,0.233-1.558,1.399-2.219,2.217c-0.927,0.275-1.521,0.883-2.494,1.107
			c-0.994,0.164-1.34-0.322-1.938-0.555c-1.036-0.296-0.789,0.689-1.662,0.555c-1.388-3.145-2.914-6.142-4.989-8.591
			c-0.986-1.321-1.795-2.821-3.048-3.881c-0.233-0.879-0.808-1.41-1.389-1.938c-0.411-0.695-0.687-1.525-1.384-1.938
			c0.869-0.519,1.971-0.802,2.771-1.387c0.67-0.62,1.419-1.163,2.217-1.663c0.1-0.364,0.489-0.438,0.555-0.834
			c2.731,0.32,3.572,2.527,5.817,3.328c1.921,0.945,3.479,2.254,5.544,3.051c1.41,1.824,3.305,3.16,4.713,4.988
			C106.221,96.924,105.705,97.514,105.74,98.657z M57.516,49.603c-0.142-2.628,0.417-5.959-0.552-7.762
			c-0.919-0.648-1.804-1.34-3.603-1.108c-2.973,0.814-2.495,5.081-2.495,8.87c-4.167,0.266-9.999-1.131-10.532,2.77
			c-0.005,2.407,1.892,2.913,3.882,3.326c2.189,0.3,5.07-0.08,6.65,0.832c0.125,3.387-0.188,7.207,1.385,9.146
			c0.785,0.048,1.157,0.507,1.94,0.554c0.236-0.412,0.895-0.401,1.386-0.554c1.034-0.983,0.924-2.817,1.387-4.157
			c0.213-0.626,0.594-0.828,0.552-1.386c0.124-1.266-0.279-3.052,0.279-3.88c2.24-0.069,4.823,0.204,6.652-0.28
			c0.651-1.007,1.766-1.559,1.661-3.324c-0.164-1.31-1.063-1.89-1.661-2.77C62.537,49.387,59.842,49.677,57.516,49.603z"/>
	</g>
</g>
</svg>
